<svg xmlns="http://www.w3.org/2000/svg" xmlns:xlink="http://www.w3.org/1999/xlink" viewBox="0 0 76.48948 64.133"><defs><style>.a,.g{fill:#f6f6f6;}.a,.b,.i,.k,.m,.n,.p{stroke:#2d2a28;}.a,.k,.m,.n{stroke-miterlimit:10;}.a,.b,.i,.k,.n,.p{stroke-width:1.6518px;}.b,.j{fill:#2d2a28;}.b,.i,.m,.n,.p{stroke-linecap:round;}.b,.i,.p{stroke-linejoin:round;}.c,.n{fill:#ef3a4c;}.d{fill:url(#a);}.e,.i{fill:#cc3232;}.f{fill:#f26b6b;}.h{clip-path:url(#b);}.k,.m,.p{fill:none;}.l{clip-path:url(#c);}.m{stroke-width:3.09713px;}.o{clip-path:url(#d);}</style><linearGradient id="a" x1="-0.00002" y1="32.06664" x2="76.48939" y2="32.06664" gradientUnits="userSpaceOnUse"><stop offset="0" stop-color="#1a1a12"/><stop offset="1" stop-color="#3c3c3b"/></linearGradient><clipPath id="b"><circle class="a" cx="49.55444" cy="26.94257" r="9.09371"/></clipPath><clipPath id="c"><ellipse class="a" cx="22.6841" cy="26.94258" rx="8.40782" ry="9.09371"/></clipPath><clipPath id="d"><path class="b" d="M48.69417,54.10806c-.40559-7.712-3.71116-11.2064-10.5052-11.22393-1.32218-.00341-2.64276.07816-3.96457.09645-.76447.01059-2.74657.0732-2.74657.0732s1.79532,4.00209-.31319,7.07573a.21164.21164,0,0,0-.05174.15874c.0214.09286.14344.11229.23871.11035,1.48223-.03024,2.99914-.091,4.49073-.03859,4.69763.165,4.46556.39518,8.94551,1.84914.85383.27711,3.89411,1.24947,3.92313,2.32386Q48.70533,54.32111,48.69417,54.10806Z"/></clipPath></defs><path class="c" d="M70.85788,34.09368A50.55207,50.55207,0,0,1,40.61765,60.72122c-.85466.27314-1.70933.51106-2.57281.73135-1.119.282-3.78888-1.11905-4.855-1.52433A50.30421,50.30421,0,0,1,7.46967,37.82964c-.39646-.69607-.76646-1.39219-1.12765-2.1059C.71152,24.53351.18276,8.54991,14.44832,3.598a16.671,16.671,0,0,1,4.59062-.92522A18.1634,18.1634,0,0,1,36.66142,13.96c.81938,2.15871,1.489,4.46725,1.489,4.46725s.69613-2.22039,1.51551-4.37915A18.1833,18.1833,0,0,1,57.28845,2.7521a17.41677,17.41677,0,0,1,4.59062.92517A16.70465,16.70465,0,0,1,72.576,13.69564,19.49486,19.49486,0,0,1,73.68625,18.348,30.29167,30.29167,0,0,1,70.85788,34.09368Z"/><path class="d" d="M20.016,2.64354A18.1924,18.1924,0,0,1,36.66146,13.96007c.81934,2.15869,1.489,4.46716,1.489,4.46716s.69617-2.22033,1.51551-4.37915A18.21261,18.21261,0,0,1,56.32918,2.72386q.47937,0,.95923.0282a17.41855,17.41855,0,0,1,4.5907.92517A16.70467,16.70467,0,0,1,72.576,13.69566,19.48955,19.48955,0,0,1,73.68624,18.348a30.29211,30.29211,0,0,1-2.82837,15.74573A50.552,50.552,0,0,1,40.61764,60.72118c-.85462.27319-1.70935.51111-2.57276.73144a1.39592,1.39592,0,0,1-.3385.03711c-1.24927,0-3.54663-1.19275-4.5166-1.56152A50.304,50.304,0,0,1,7.46969,37.8297c-.39649-.69617-.76648-1.39221-1.12769-2.106C.71151,24.53356.18282,8.54991,14.44832,3.598a16.67048,16.67048,0,0,1,4.59058-.92517c.32532-.01966.65186-.0293.977-.0293m0-2.64343c-.37842,0-.76074.01147-1.13611.03418A19.304,19.304,0,0,0,13.57235,1.104a19.14387,19.14387,0,0,0-11.929,10.9812C-1.19425,19.08263-.32047,28.36363,3.98067,36.91185c.40735.80493.79639,1.53125,1.192,2.22595a53.14579,53.14579,0,0,0,27.08765,23.265c.19653.07471.47168.19787.7865.33667a12.50915,12.50915,0,0,0,4.65954,1.39367,4.031,4.031,0,0,0,.98425-.1173c1.00892-.25745,1.89991-.51087,2.73194-.77686A53.03885,53.03885,0,0,0,73.2618,35.19322a32.86083,32.86083,0,0,0,3.04932-17.157,22.09957,22.09957,0,0,0-1.26184-5.27356A19.414,19.414,0,0,0,62.74886,1.181,20.0401,20.0401,0,0,0,57.45235.11376c-.37976-.02247-.75158-.03333-1.12317-.03333A20.88839,20.88839,0,0,0,38.187,10.93,20.86553,20.86553,0,0,0,20.016.00011Z"/><path class="e" d="M73.68625,18.348c-2.16033,6.54991-4.21634,13.318-7.65183,19.33739C60.18072,47.94181,51.27136,54.928,40.82029,60.12206A58.959,58.959,0,0,1,7.46967,37.82964a50.30421,50.30421,0,0,0,25.72017,22.0986c1.06612.40528,3.736,1.80629,4.855,1.52433.86348-.22029,1.71815-.45821,2.573-.73205a50.56054,50.56054,0,0,0,30.24-26.62684A30.29167,30.29167,0,0,0,73.68625,18.348Z"/><path class="f" d="M20.99955,7.14328A.81809.81809,0,0,1,20.66339,8.717l-.0386-.00006A12.38061,12.38061,0,0,0,9.04937,16.68711a.81622.81622,0,0,1-1.5797-.28483A10.31683,10.31683,0,0,1,7.594,14.826,9.94725,9.94725,0,0,1,20.99955,7.14328Z"/><path class="f" d="M59.27438,7.05721a.81809.81809,0,0,1-.648,1.473l-.03779-.00788a12.38062,12.38062,0,0,0-12.95,5.46.81623.81623,0,0,1-1.48925-.59893,10.316,10.316,0,0,1,.4411-1.51841A9.94727,9.94727,0,0,1,59.27438,7.05721Z"/><circle class="g" cx="49.55444" cy="26.94257" r="9.09371"/><g class="h"><path class="i" d="M40.73837,21.90936s1.12926-.89435,7.15879-.79551a31.13029,31.13029,0,0,1,10.47335,1.95923V8.83945H40.73837Z"/><circle class="j" cx="49.55444" cy="26.94257" r="2.45314"/></g><circle class="k" cx="49.55444" cy="26.94257" r="9.09371"/><ellipse class="g" cx="22.6841" cy="26.94258" rx="8.40782" ry="9.09371"/><g class="l"><path class="i" d="M14.533,21.40318s.94-.89435,6.51478-.7955a27.90581,27.90581,0,0,1,9.78747,1.95923V8.33327H14.533Z"/><circle class="j" cx="22.6841" cy="26.94258" r="2.45314"/></g><ellipse class="k" cx="22.6841" cy="26.94258" rx="8.40782" ry="9.09371"/><path class="m" d="M47.5418,8.35213s8.181,4.12274,14.70476,5.70426"/><path class="m" d="M24.74971,8.40787s-7.48381,6.94029-14.03209,5.35827"/><path class="n" d="M34.5859,18.18466c-1.53527,1.75082-3.97061,2.777-5.25644,4.74073-1.46759,2.24127-.71046,5.25029-1.44817,7.82574-.4707,1.64326-1.54173,3.06576-2.00435,4.7113-.96842,3.44467,2.90514,6.82115,6.04149,5.00589a13.09026,13.09026,0,0,1,2.688-1.45824c1.28559-.38243,2.94263.228,4.2893.05859,2.04579-.25731,2.60757-2.53143.96924-3.96193"/><path class="j" d="M48.69417,54.10806c-.40559-7.712-3.71116-11.2064-10.5052-11.22393-1.32218-.00341-2.64276.07816-3.96457.09645-.76447.01059-2.74657.0732-2.74657.0732s1.79532,4.00209-.31319,7.07573a.21164.21164,0,0,0-.05174.15874c.0214.09286.14344.11229.23871.11035,1.48223-.03024,2.99914-.091,4.49073-.03859,4.69763.165,4.46556.39518,8.94551,1.84914.85383.27711,3.89411,1.24947,3.92313,2.32386Q48.70533,54.32111,48.69417,54.10806Z"/><g class="o"><path class="g" d="M47.83775,47.31469S37.15326,48.6645,29.81368,43.26527V39.91888L48.711,44.362Z"/></g><path class="p" d="M48.69417,54.10806c-.40559-7.712-3.71116-11.2064-10.5052-11.22393-1.32218-.00341-2.64276.07816-3.96457.09645-.76447.01059-2.74657.0732-2.74657.0732s1.79532,4.00209-.31319,7.07573a.21164.21164,0,0,0-.05174.15874c.0214.09286.14344.11229.23871.11035,1.48223-.03024,2.99914-.091,4.49073-.03859,4.69763.165,4.46556.39518,8.94551,1.84914.85383.27711,3.89411,1.24947,3.92313,2.32386Q48.70533,54.32111,48.69417,54.10806Z"/></svg>