<svg xmlns="http://www.w3.org/2000/svg" xmlns:xlink="http://www.w3.org/1999/xlink" viewBox="0 0 76.48937 64.133"><defs><style>.a,.g{fill:#f6f6f6;}.a,.b,.j,.k,.m,.o,.p{stroke:#2d2a28;}.a,.j,.k,.m,.p{stroke-miterlimit:10;}.a,.b,.j,.k,.o,.p{stroke-width:1.6518px;}.b,.i{fill:#2d2a28;}.b,.m,.o,.p{stroke-linecap:round;}.b,.o{stroke-linejoin:round;}.c,.p{fill:#ef3a4c;}.d{fill:url(#a);}.e,.j{fill:#cc3232;}.f{fill:#f26b6b;}.h{clip-path:url(#b);}.k,.m,.o{fill:none;}.l{clip-path:url(#c);}.m{stroke-width:3.09713px;}.n{clip-path:url(#d);}</style><linearGradient id="a" x1="-0.00014" y1="32.06653" x2="76.48928" y2="32.06653" gradientUnits="userSpaceOnUse"><stop offset="0" stop-color="#1a1a12"/><stop offset="1" stop-color="#3c3c3b"/></linearGradient><clipPath id="b"><circle class="a" cx="49.55435" cy="26.94248" r="9.09371"/></clipPath><clipPath id="c"><ellipse class="a" cx="22.68401" cy="26.94248" rx="8.40782" ry="9.09371"/></clipPath><clipPath id="d"><path class="b" d="M49.44905,39.30316a13.9925,13.9925,0,0,1-4.888,7.95116,7.3698,7.3698,0,0,1-6.55992,1.12958c-3.83082-1.15209-6.83409-4.817-6.51921-8.53811.00483-.0571-.04369-.11338-.02034-.16572.03881-.087.16231-.08269.25544-.06251,1.44892.314,2.926.6645,4.40021.8992a25.55941,25.55941,0,0,0,10.84168-.52952A20.44044,20.44044,0,0,0,49.44905,39.30316Z"/></clipPath></defs><path class="c" d="M70.85779,34.09359A50.552,50.552,0,0,1,40.61756,60.72112c-.85466.27315-1.70932.51107-2.57281.73135-1.119.282-3.78887-1.119-4.855-1.52432A50.30425,50.30425,0,0,1,7.46958,37.82955c-.39646-.69607-.76646-1.39219-1.12765-2.1059C.71143,24.53342.18267,8.54982,14.44823,3.59791a16.67142,16.67142,0,0,1,4.59062-.92523A18.1634,18.1634,0,0,1,36.66133,13.95993c.81938,2.15871,1.489,4.46725,1.489,4.46725s.69613-2.22039,1.51551-4.37916A18.1833,18.1833,0,0,1,57.28836,2.752a17.41677,17.41677,0,0,1,4.59062.92517,16.70463,16.70463,0,0,1,10.697,10.01837,19.49536,19.49536,0,0,1,1.11023,4.65236A30.29168,30.29168,0,0,1,70.85779,34.09359Z"/><path class="d" d="M20.016,2.64343A18.19268,18.19268,0,0,1,36.66134,13.96c.81933,2.15869,1.489,4.46716,1.489,4.46716s.69617-2.22033,1.5155-4.37915A18.21243,18.21243,0,0,1,56.32906,2.72375q.47955,0,.95935.0282a17.41873,17.41873,0,0,1,4.59058.92517,16.70466,16.70466,0,0,1,10.6969,10.01844,19.49073,19.49073,0,0,1,1.11023,4.65234,30.29067,30.29067,0,0,1-2.82837,15.74573A50.55171,50.55171,0,0,1,40.61751,60.72107c-.85461.27319-1.70922.51111-2.57275.73144a1.39635,1.39635,0,0,1-.3385.03724c-1.24939,0-3.54663-1.193-4.51648-1.56165A50.30389,50.30389,0,0,1,7.46956,37.82959c-.39648-.69617-.76647-1.39221-1.12768-2.106C.71139,24.53345.1827,8.5498,14.4482,3.5979a16.67042,16.67042,0,0,1,4.5907-.92517c.32532-.01965.65186-.0293.977-.0293M20.016,0c-.37854,0-.76074.01147-1.13611.03418a19.304,19.304,0,0,0-5.30761,1.0697,19.14385,19.14385,0,0,0-11.929,10.9812C-1.19438,19.08252-.3206,28.36352,3.98055,36.91174c.40735.80493.79639,1.53125,1.192,2.22595a53.14605,53.14605,0,0,0,27.08777,23.265c.19641.07458.47143.19788.78613.33655a12.50849,12.50849,0,0,0,4.65979,1.3938,4.03252,4.03252,0,0,0,.98425-.11731c1.0083-.25721,1.89942-.51075,2.73194-.77686A53.0386,53.0386,0,0,0,73.26168,35.19311a32.86025,32.86025,0,0,0,3.04932-17.157,22.09666,22.09666,0,0,0-1.26185-5.27344A19.41383,19.41383,0,0,0,62.74874,1.18091,20.03932,20.03932,0,0,0,57.45235.11365c-.37976-.02246-.75158-.03333-1.12329-.03333A20.88826,20.88826,0,0,0,38.18685,10.93005,20.86537,20.86537,0,0,0,20.016,0Z"/><path class="e" d="M73.68617,18.34791c-2.16034,6.54991-4.21635,13.318-7.65184,19.33739C60.18063,47.94172,51.27127,54.92786,40.82021,60.122A58.959,58.959,0,0,1,7.46958,37.82955a50.30425,50.30425,0,0,0,25.72017,22.0986c1.06613.40528,3.736,1.80629,4.855,1.52432.86349-.22028,1.71815-.4582,2.573-.732a50.56054,50.56054,0,0,0,30.24-26.62684A30.29168,30.29168,0,0,0,73.68617,18.34791Z"/><path class="f" d="M20.99946,7.14318a.81809.81809,0,0,1-.33616,1.57375l-.0386-.00006A12.38062,12.38062,0,0,0,9.04928,16.687a.81623.81623,0,0,1-1.5797-.28483,10.31663,10.31663,0,0,1,.12436-1.57629A9.94727,9.94727,0,0,1,20.99946,7.14318Z"/><path class="f" d="M59.27429,7.05712a.81809.81809,0,0,1-.648,1.473l-.03778-.00788a12.38063,12.38063,0,0,0-12.95,5.46.81622.81622,0,0,1-1.48924-.59893,10.31639,10.31639,0,0,1,.44109-1.51842,9.94727,9.94727,0,0,1,14.68391-4.8078Z"/><circle class="g" cx="49.55435" cy="26.94248" r="9.09371"/><g class="h"><circle class="i" cx="49.55435" cy="26.94248" r="2.45314"/><path class="j" d="M41.72748,31.57s1.12926.89435,7.15879.79551a31.13029,31.13029,0,0,0,10.47335-1.95923V44.63989H41.72748Z"/></g><circle class="k" cx="49.55435" cy="26.94248" r="9.09371"/><ellipse class="g" cx="22.68401" cy="26.94248" rx="8.40782" ry="9.09371"/><g class="l"><circle class="i" cx="22.68401" cy="26.94248" r="2.45314"/><path class="j" d="M15.52208,32.07616s.94.89435,6.51478.7955a27.90573,27.90573,0,0,0,9.78747-1.95923V45.14607H15.52208Z"/></g><ellipse class="k" cx="22.68401" cy="26.94248" rx="8.40782" ry="9.09371"/><path class="m" d="M47.60394,8.19653s8.76659,2.65949,14.5803,6.01527"/><path class="m" d="M25.62192,10.083s-10.16937.87109-13.40242,6.78128"/><path class="i" d="M49.44905,39.30316a13.9925,13.9925,0,0,1-4.888,7.95116,7.3698,7.3698,0,0,1-6.55992,1.12958c-3.83082-1.15209-6.83409-4.817-6.51921-8.53811.00483-.0571-.04369-.11338-.02034-.16572.03881-.087.16231-.08269.25544-.06251,1.44892.314,2.926.6645,4.40021.8992a25.55941,25.55941,0,0,0,10.84168-.52952A20.44044,20.44044,0,0,0,49.44905,39.30316Z"/><g class="n"><path class="g" d="M29.6363,41.78691a32.61219,32.61219,0,0,0,8.20023,1.882c.10852.01049.08219-2.78756.19188-2.77817a4.67711,4.67711,0,0,0,1.33781-.19488,22.21861,22.21861,0,0,0,.05734,3.0834,21.26468,21.26468,0,0,0,8.67323-1.30343l.8548-3.23538-19.40532-.53137Z"/></g><path class="o" d="M49.44905,39.30316a13.9925,13.9925,0,0,1-4.888,7.95116,7.3698,7.3698,0,0,1-6.55992,1.12958c-3.83082-1.15209-6.83409-4.817-6.51921-8.53811.00483-.0571-.04369-.11338-.02034-.16572.03881-.087.16231-.08269.25544-.06251,1.44892.314,2.926.6645,4.40021.8992a25.55941,25.55941,0,0,0,10.84168-.52952A20.44044,20.44044,0,0,0,49.44905,39.30316Z"/><path class="p" d="M38.25068,36.03664s-8.87431.1134-9.16011-3.31323,5.94979-11.71285,5.94979-11.71285"/></svg>