<svg xmlns="http://www.w3.org/2000/svg" xmlns:xlink="http://www.w3.org/1999/xlink" viewBox="0 0 76.48937 64.133"><defs><style>.a,.b,.g{fill:#f6f6f6;}.a,.b,.j,.l,.m,.o,.p{stroke:#2d2a28;}.a,.j,.l,.m{stroke-miterlimit:10;}.a,.b,.j,.m,.o,.p{stroke-width:1.6518px;}.b,.l,.m,.o,.p{stroke-linecap:round;}.b,.o,.p{stroke-linejoin:round;}.c,.m,.p{fill:#ef3a4c;}.d{fill:url(#a);}.e{fill:#cc3232;}.f{fill:#f26b6b;}.h{clip-path:url(#b);}.i{fill:#2d2a28;}.j,.l,.o{fill:none;}.k{clip-path:url(#c);}.l{stroke-width:3.09713px;}.n{clip-path:url(#d);}</style><linearGradient id="a" x1="-0.00005" y1="32.06653" x2="76.48934" y2="32.06653" gradientUnits="userSpaceOnUse"><stop offset="0" stop-color="#1a1a12"/><stop offset="1" stop-color="#3c3c3b"/></linearGradient><clipPath id="b"><circle class="a" cx="49.5544" cy="26.94248" r="9.09371"/></clipPath><clipPath id="c"><ellipse class="a" cx="22.68406" cy="26.94248" rx="8.40782" ry="9.09371"/></clipPath><clipPath id="d"><path class="b" d="M27.17221,39.76155a7.72664,7.72664,0,0,0,7.84882.82274c-.00634.00271.98572.33632,1.04606.35386a15.36193,15.36193,0,0,0,2.77942.53692c3.98591.38908,6.33663-1.13968,8.81787-2.31643,0,0-.85419,8.03521-10.331,8.27839C29.7419,47.63183,27.17221,39.76155,27.17221,39.76155Z"/></clipPath></defs><path class="c" d="M70.85784,34.09359A50.552,50.552,0,0,1,40.61761,60.72112c-.85466.27315-1.70932.51107-2.57281.73135-1.119.282-3.78887-1.119-4.855-1.52432A50.30429,50.30429,0,0,1,7.46963,37.82955c-.39646-.69607-.76646-1.39219-1.12764-2.1059C.71148,24.53342.18272,8.54982,14.44828,3.59791a16.6715,16.6715,0,0,1,4.59062-.92523A18.1634,18.1634,0,0,1,36.66138,13.95993c.81938,2.15871,1.489,4.46725,1.489,4.46725s.69612-2.22039,1.5155-4.37916A18.18331,18.18331,0,0,1,57.28841,2.752a17.41677,17.41677,0,0,1,4.59062.92517A16.70463,16.70463,0,0,1,72.576,13.69555a19.49488,19.49488,0,0,1,1.11023,4.65236A30.29168,30.29168,0,0,1,70.85784,34.09359Z"/><path class="d" d="M20.016,2.64343A18.19243,18.19243,0,0,1,36.66134,13.96c.81946,2.15869,1.48913,4.46716,1.48913,4.46716s.696-2.22033,1.51551-4.37915A18.21228,18.21228,0,0,1,56.32918,2.72375q.47937,0,.95923.0282a17.41873,17.41873,0,0,1,4.59058.92517A16.70459,16.70459,0,0,1,72.576,13.69556a19.50223,19.50223,0,0,1,1.11023,4.65234,30.29188,30.29188,0,0,1-2.82837,15.74573A50.55238,50.55238,0,0,1,40.61764,60.72107c-.85474.27319-1.70935.51111-2.57288.73144a1.39635,1.39635,0,0,1-.3385.03724c-1.24927,0-3.54651-1.193-4.51648-1.56165A50.30356,50.30356,0,0,1,7.46969,37.82959c-.39649-.69617-.76648-1.39221-1.12769-2.106C.71151,24.53345.1827,8.5498,14.44832,3.5979a16.66959,16.66959,0,0,1,4.59058-.92517c.32532-.01965.65186-.0293.977-.0293M20.016,0c-.37854,0-.76074.01147-1.13611.03418a19.29923,19.29923,0,0,0-5.30749,1.0697A19.14419,19.14419,0,0,0,1.64327,12.085C-1.19425,19.0824-.32047,28.36352,3.98067,36.91174c.40735.80506.79639,1.53137,1.192,2.22595a53.14516,53.14516,0,0,0,27.08765,23.265c.19653.07471.47168.198.7865.33667a12.50579,12.50579,0,0,0,4.65942,1.39368,4.03252,4.03252,0,0,0,.98425-.11731c1.00818-.25721,1.89917-.51062,2.73194-.77686A53.03915,53.03915,0,0,0,73.2618,35.19311a32.862,32.862,0,0,0,3.04932-17.157,22.11594,22.11594,0,0,0-1.26172-5.27331A19.41442,19.41442,0,0,0,62.74874,1.18091,20.03932,20.03932,0,0,0,57.45235.11365c-.37976-.02246-.75158-.03333-1.12317-.03333A20.888,20.888,0,0,0,38.187,10.93005,20.86564,20.86564,0,0,0,20.016,0Z"/><path class="e" d="M73.68622,18.34791c-2.16034,6.54991-4.21634,13.318-7.65184,19.33739C60.18068,47.94172,51.27132,54.92786,40.82026,60.122A58.959,58.959,0,0,1,7.46963,37.82955,50.30429,50.30429,0,0,0,33.1898,59.92815c1.06613.40528,3.736,1.80629,4.855,1.52432.86349-.22028,1.71815-.4582,2.573-.732a50.56054,50.56054,0,0,0,30.24-26.62684A30.29168,30.29168,0,0,0,73.68622,18.34791Z"/><path class="f" d="M20.99951,7.14318a.81809.81809,0,0,1-.33616,1.57375l-.0386-.00006A12.38063,12.38063,0,0,0,9.04933,16.687a.81622.81622,0,0,1-1.57969-.28483A10.31534,10.31534,0,0,1,7.594,14.8259,9.94727,9.94727,0,0,1,20.99951,7.14318Z"/><path class="f" d="M59.27434,7.05712a.81809.81809,0,0,1-.648,1.473l-.03778-.00788a12.38063,12.38063,0,0,0-12.95,5.46.81622.81622,0,0,1-1.48924-.59893,10.31639,10.31639,0,0,1,.44109-1.51842,9.94727,9.94727,0,0,1,14.68391-4.8078Z"/><circle class="g" cx="49.5544" cy="26.94248" r="9.09371"/><g class="h"><circle class="i" cx="49.5544" cy="26.94248" r="2.45314"/></g><circle class="j" cx="49.5544" cy="26.94248" r="9.09371"/><ellipse class="g" cx="22.68406" cy="26.94248" rx="8.40782" ry="9.09371"/><g class="k"><circle class="i" cx="22.68406" cy="26.94248" r="2.45314"/></g><ellipse class="j" cx="22.68406" cy="26.94248" rx="8.40782" ry="9.09371"/><path class="l" d="M49.3916,6.51716s9.25651.55771,14.00459,7.40838"/><path class="l" d="M23.86662,6.50984s-10.06321,1.70492-12.799,7.86109"/><path class="m" d="M34.31854,28.77822c-2.46692-1.83792-5.64321.09037-6,2.94252-.40886,3.26813,3.34442,4.59279,6,4.10044"/><path class="g" d="M27.17221,39.76155a7.72664,7.72664,0,0,0,7.84882.82274c-.00634.00271.98572.33632,1.04606.35386a15.36193,15.36193,0,0,0,2.77942.53692c3.98591.38908,6.33663-1.13968,8.81787-2.31643,0,0-.85419,8.03521-10.331,8.27839C29.7419,47.63183,27.17221,39.76155,27.17221,39.76155Z"/><g class="n"><path class="i" d="M29.00272,42.605s7.02869,2.33008,17.934-.14157h0l-.273,4.54689-17.46881-.2322L29.00272,42.605"/></g><path class="o" d="M27.17221,39.76155a7.72664,7.72664,0,0,0,7.84882.82274c-.00634.00271.98572.33632,1.04606.35386a15.36193,15.36193,0,0,0,2.77942.53692c3.98591.38908,6.33663-1.13968,8.81787-2.31643,0,0-.85419,8.03521-10.331,8.27839C29.7419,47.63183,27.17221,39.76155,27.17221,39.76155Z"/><path class="p" d="M52.63406,40.56288a3.26147,3.26147,0,1,0-4.61073,3.45144"/><path class="o" d="M14.85905,23.6168s-3.79141.74722-4.391-3.60073"/><path class="o" d="M16.06831,21.334s-2.86109.07623-3.105-3.82806"/><path class="o" d="M58.203,23.6168s3.79141.74722,4.391-3.60073"/><path class="o" d="M56.99371,21.334s2.86109.07623,3.105-3.82806"/></svg>