<svg xmlns="http://www.w3.org/2000/svg" xmlns:xlink="http://www.w3.org/1999/xlink" viewBox="0 0 76.48937 64.133"><defs><style>.a,.b,.g{fill:#f6f6f6;}.a,.b,.j,.l,.m,.o{stroke:#2d2a28;}.a,.j,.l,.m{stroke-miterlimit:10;}.a,.b,.j,.m,.o{stroke-width:1.6518px;}.b,.l,.m,.o{stroke-linecap:round;}.b,.o{stroke-linejoin:round;}.c,.m{fill:#ef3a4c;}.d{fill:url(#a);}.e{fill:#cc3232;}.f{fill:#f26b6b;}.h{clip-path:url(#b);}.i{fill:#2d2a28;}.j,.l,.o{fill:none;}.k{clip-path:url(#c);}.l{stroke-width:3.09713px;}.n{clip-path:url(#d);}</style><linearGradient id="a" x1="-0.00005" y1="32.06664" x2="76.48939" y2="32.06664" gradientUnits="userSpaceOnUse"><stop offset="0" stop-color="#1a1a12"/><stop offset="1" stop-color="#3c3c3b"/></linearGradient><clipPath id="b"><circle class="a" cx="49.5544" cy="26.94257" r="9.09371"/></clipPath><clipPath id="c"><ellipse class="a" cx="22.68406" cy="26.94258" rx="8.40782" ry="9.09371"/></clipPath><clipPath id="d"><path class="b" d="M27.17221,46.83777A7.72662,7.72662,0,0,1,35.021,46.015c-.00634-.00271.98572-.33633,1.04606-.35386a15.36278,15.36278,0,0,1,2.77942-.53693c3.98591-.38907,6.33663,1.13969,8.81787,2.31643,0,0-.85419-8.03521-10.331-8.27839C29.7419,38.96749,27.17221,46.83777,27.17221,46.83777Z"/></clipPath></defs><path class="c" d="M70.85784,34.09368A50.55207,50.55207,0,0,1,40.61761,60.72122c-.85466.27314-1.70932.51106-2.57281.73135-1.119.282-3.78887-1.11905-4.855-1.52433A50.30425,50.30425,0,0,1,7.46963,37.82964c-.39646-.69607-.76646-1.39219-1.12764-2.1059C.71148,24.53351.18272,8.54991,14.44828,3.598a16.67112,16.67112,0,0,1,4.59062-.92522A18.16339,18.16339,0,0,1,36.66138,13.96c.81938,2.15871,1.489,4.46725,1.489,4.46725s.69612-2.22039,1.5155-4.37915A18.18331,18.18331,0,0,1,57.28841,2.7521a17.41677,17.41677,0,0,1,4.59062.92517A16.70465,16.70465,0,0,1,72.576,13.69564,19.49488,19.49488,0,0,1,73.68622,18.348,30.29168,30.29168,0,0,1,70.85784,34.09368Z"/><path class="d" d="M20.016,2.64354A18.19224,18.19224,0,0,1,36.66134,13.96007c.81946,2.15869,1.48913,4.46716,1.48913,4.46716s.696-2.22033,1.51551-4.37915A18.21248,18.21248,0,0,1,56.32918,2.72386q.47937,0,.95923.0282a17.41873,17.41873,0,0,1,4.59058.92517A16.7046,16.7046,0,0,1,72.576,13.69566,19.501,19.501,0,0,1,73.68624,18.348a30.29211,30.29211,0,0,1-2.82837,15.74573A50.55238,50.55238,0,0,1,40.61764,60.72118c-.85474.27319-1.70935.51111-2.57288.73144a1.39559,1.39559,0,0,1-.33838.03711c-1.24927,0-3.54663-1.19275-4.5166-1.56152A50.30356,50.30356,0,0,1,7.46969,37.8297c-.39649-.69617-.76648-1.39221-1.12769-2.106C.71151,24.53356.1827,8.54991,14.44832,3.598a16.66959,16.66959,0,0,1,4.59058-.92517c.32532-.01966.65186-.0293.977-.0293m0-2.64343c-.37854,0-.76074.01147-1.13611.03418A19.29923,19.29923,0,0,0,13.57235,1.104,19.14419,19.14419,0,0,0,1.64327,12.08507c-2.83752,6.99744-1.96374,16.27856,2.3374,24.82678.40735.80506.79639,1.53137,1.192,2.22595a53.14516,53.14516,0,0,0,27.08765,23.265c.19653.07471.47168.19787.7865.33667a12.5069,12.5069,0,0,0,4.65954,1.39367,4.03083,4.03083,0,0,0,.98413-.1173c1.00818-.25721,1.89917-.51062,2.73194-.77686A53.03915,53.03915,0,0,0,73.2618,35.19322a32.86083,32.86083,0,0,0,3.04932-17.157,22.10618,22.10618,0,0,0-1.26184-5.27331A19.41391,19.41391,0,0,0,62.74874,1.181,20.03932,20.03932,0,0,0,57.45235.11376c-.37976-.02247-.75158-.03333-1.12317-.03333A20.888,20.888,0,0,0,38.187,10.93016,20.8655,20.8655,0,0,0,20.016.00011Z"/><path class="e" d="M73.68622,18.348c-2.16034,6.54991-4.21634,13.318-7.65184,19.33739C60.18068,47.94181,51.27132,54.928,40.82026,60.12206A58.959,58.959,0,0,1,7.46963,37.82964,50.30425,50.30425,0,0,0,33.1898,59.92824c1.06613.40528,3.736,1.80629,4.855,1.52433.86349-.22029,1.71815-.45821,2.573-.73205a50.56054,50.56054,0,0,0,30.24-26.62684A30.29168,30.29168,0,0,0,73.68622,18.348Z"/><path class="f" d="M20.99951,7.14328A.81809.81809,0,0,1,20.66335,8.717l-.0386-.00006A12.38062,12.38062,0,0,0,9.04933,16.68711a.81622.81622,0,0,1-1.57969-.28483A10.31554,10.31554,0,0,1,7.594,14.826,9.94725,9.94725,0,0,1,20.99951,7.14328Z"/><path class="f" d="M59.27434,7.05721a.81809.81809,0,0,1-.648,1.473l-.03778-.00788a12.38063,12.38063,0,0,0-12.95,5.46.81622.81622,0,0,1-1.48924-.59893,10.31592,10.31592,0,0,1,.44109-1.51841A9.94727,9.94727,0,0,1,59.27434,7.05721Z"/><circle class="g" cx="49.5544" cy="26.94257" r="9.09371"/><g class="h"><circle class="i" cx="49.5544" cy="26.94257" r="2.45314"/></g><circle class="j" cx="49.5544" cy="26.94257" r="9.09371"/><ellipse class="g" cx="22.68406" cy="26.94258" rx="8.40782" ry="9.09371"/><g class="k"><circle class="i" cx="22.68406" cy="26.94258" r="2.45314"/></g><ellipse class="j" cx="22.68406" cy="26.94258" rx="8.40782" ry="9.09371"/><path class="l" d="M49.99152,7.50006c1.19093,3.92322,4.58764,7.1095,14.00439,7.40845"/><path class="l" d="M23.86657,6.50989C21.50975,11.846,15.72228,12.67883,11.06774,14.371"/><path class="m" d="M34.31854,28.77831c-2.46692-1.83791-5.64321.09037-6,2.94252-.40886,3.26813,3.34442,4.59279,6,4.10044"/><path class="g" d="M27.17221,46.83777A7.72662,7.72662,0,0,1,35.021,46.015c-.00634-.00271.98572-.33633,1.04606-.35386a15.36278,15.36278,0,0,1,2.77942-.53693c3.98591-.38907,6.33663,1.13969,8.81787,2.31643,0,0-.85419-8.03521-10.331-8.27839C29.7419,38.96749,27.17221,46.83777,27.17221,46.83777Z"/><g class="n"><path class="i" d="M29.00272,41.727s7.02869,2.33008,17.934-.14158h0l.72766,5.47863-20.12764-.49174,1.466-4.84531"/></g><path class="o" d="M27.17221,46.83777A7.72662,7.72662,0,0,1,35.021,46.015c-.00634-.00271.98572-.33633,1.04606-.35386a15.36278,15.36278,0,0,1,2.77942-.53693c3.98591-.38907,6.33663,1.13969,8.81787,2.31643,0,0-.85419-8.03521-10.331-8.27839C29.7419,38.96749,27.17221,46.83777,27.17221,46.83777Z"/><path class="o" d="M14.85905,23.6169s-3.79141.74721-4.391-3.60074"/><path class="o" d="M16.06831,21.33407s-2.86109.07623-3.105-3.82806"/><path class="o" d="M58.203,23.6169s3.79141.74721,4.391-3.60074"/><path class="o" d="M56.99371,21.33407s2.86109.07623,3.105-3.82806"/></svg>