<svg xmlns="http://www.w3.org/2000/svg" xmlns:xlink="http://www.w3.org/1999/xlink" viewBox="0 0 76.48948 64.133"><defs><style>.a,.g{fill:#f6f6f6;}.a,.b,.i,.k,.m,.n,.p{stroke:#2d2a28;}.a,.k,.m,.n{stroke-miterlimit:10;}.a,.b,.i,.k,.n,.p{stroke-width:1.6518px;}.b,.j{fill:#2d2a28;}.b,.i,.m,.n,.p{stroke-linecap:round;}.b,.i,.p{stroke-linejoin:round;}.c,.n{fill:#ef3a4c;}.d{fill:url(#a);}.e,.i{fill:#cc3232;}.f{fill:#f26b6b;}.h{clip-path:url(#b);}.k,.m,.p{fill:none;}.l{clip-path:url(#c);}.m{stroke-width:3.09713px;}.o{clip-path:url(#d);}</style><linearGradient id="a" x1="-0.00002" y1="32.06653" x2="76.48934" y2="32.06653" gradientUnits="userSpaceOnUse"><stop offset="0" stop-color="#1a1a12"/><stop offset="1" stop-color="#3c3c3b"/></linearGradient><clipPath id="b"><circle class="a" cx="49.55444" cy="26.94248" r="9.09371"/></clipPath><clipPath id="c"><ellipse class="a" cx="22.6841" cy="26.94248" rx="8.40782" ry="9.09371"/></clipPath><clipPath id="d"><path class="b" d="M48.69417,40.239c-.40559,7.712-3.71116,11.2064-10.5052,11.22394-1.32218.00341-2.64276-.07816-3.96457-.09646-.76447-.01058-2.74657-.0732-2.74657-.0732s1.79532-4.00208-.31319-7.07572a.21165.21165,0,0,1-.05174-.15875c.0214-.09286.14344-.11229.23871-.11034,1.48223.03023,2.99914.091,4.49073.03859,4.69763-.165,4.46556-.39519,8.94551-1.84914.85383-.27711,3.89411-1.24947,3.92313-2.32386Q48.70533,40.02592,48.69417,40.239Z"/></clipPath></defs><path class="c" d="M70.85788,34.09359A50.552,50.552,0,0,1,40.61765,60.72112c-.85466.27315-1.70933.51107-2.57281.73135-1.119.282-3.78888-1.119-4.855-1.52432A50.30425,50.30425,0,0,1,7.46967,37.82955c-.39646-.69607-.76646-1.39219-1.12765-2.1059C.71152,24.53342.18276,8.54982,14.44832,3.59791a16.67142,16.67142,0,0,1,4.59062-.92523A18.16341,18.16341,0,0,1,36.66142,13.95993c.81938,2.15871,1.489,4.46725,1.489,4.46725s.69613-2.22039,1.51551-4.37916A18.1833,18.1833,0,0,1,57.28845,2.752a17.41677,17.41677,0,0,1,4.59062.92517A16.70463,16.70463,0,0,1,72.576,13.69555a19.49486,19.49486,0,0,1,1.11022,4.65236A30.29167,30.29167,0,0,1,70.85788,34.09359Z"/><path class="d" d="M20.016,2.64343A18.19272,18.19272,0,0,1,36.66146,13.96c.81934,2.15869,1.489,4.46716,1.489,4.46716s.69617-2.22033,1.51551-4.37915A18.21241,18.21241,0,0,1,56.32918,2.72375q.47937,0,.95923.0282a17.41855,17.41855,0,0,1,4.5907.92517A16.70466,16.70466,0,0,1,72.576,13.69556a19.49073,19.49073,0,0,1,1.11023,4.65234,30.29188,30.29188,0,0,1-2.82837,15.74573A50.552,50.552,0,0,1,40.61764,60.72107c-.85462.27319-1.70935.51111-2.57276.73144a1.39668,1.39668,0,0,1-.33862.03724c-1.24927,0-3.54651-1.193-4.51648-1.56165A50.304,50.304,0,0,1,7.46969,37.82959c-.39649-.69617-.76648-1.39221-1.12769-2.106C.71151,24.53345.18282,8.5498,14.44832,3.5979a16.67048,16.67048,0,0,1,4.59058-.92517c.32532-.01965.65186-.0293.977-.0293M20.016,0c-.37854,0-.76074.01147-1.13611.03418a19.304,19.304,0,0,0-5.30749,1.0697,19.14387,19.14387,0,0,0-11.929,10.9812C-1.19425,19.08252-.32047,28.36352,3.98067,36.91174c.40735.80493.79639,1.53125,1.192,2.22595a53.14579,53.14579,0,0,0,27.08765,23.265c.19653.07471.47168.19788.7865.33667a12.50579,12.50579,0,0,0,4.65942,1.39368,4.03279,4.03279,0,0,0,.98437-.11731c1.00892-.25745,1.89991-.51087,2.73194-.77686A53.03885,53.03885,0,0,0,73.2618,35.19311a32.862,32.862,0,0,0,3.04932-17.157,22.09712,22.09712,0,0,0-1.26184-5.27344A19.41387,19.41387,0,0,0,62.74886,1.18091,20.0401,20.0401,0,0,0,57.45235.11365c-.37976-.02246-.75158-.03333-1.12317-.03333A20.88826,20.88826,0,0,0,38.187,10.93005,20.86541,20.86541,0,0,0,20.016,0Z"/><path class="e" d="M73.68625,18.34791c-2.16033,6.54991-4.21634,13.318-7.65183,19.33739C60.18072,47.94172,51.27136,54.92786,40.82029,60.122A58.959,58.959,0,0,1,7.46967,37.82955a50.30425,50.30425,0,0,0,25.72017,22.0986c1.06612.40528,3.736,1.80629,4.855,1.52432.86348-.22028,1.71815-.4582,2.573-.732a50.56054,50.56054,0,0,0,30.24-26.62684A30.29167,30.29167,0,0,0,73.68625,18.34791Z"/><path class="f" d="M20.99955,7.14318a.81809.81809,0,0,1-.33616,1.57375l-.0386-.00006A12.38062,12.38062,0,0,0,9.04937,16.687a.81623.81623,0,0,1-1.5797-.28483A10.31663,10.31663,0,0,1,7.594,14.8259,9.94727,9.94727,0,0,1,20.99955,7.14318Z"/><path class="f" d="M59.27438,7.05712a.81809.81809,0,0,1-.648,1.473l-.03779-.00788a12.38062,12.38062,0,0,0-12.95,5.46.81623.81623,0,0,1-1.48925-.59893,10.31644,10.31644,0,0,1,.4411-1.51842,9.94727,9.94727,0,0,1,14.68391-4.8078Z"/><circle class="g" cx="49.55444" cy="26.94248" r="9.09371"/><g class="h"><path class="i" d="M40.73837,21.90927s1.12926-.89435,7.15879-.79551A31.13029,31.13029,0,0,1,58.37051,23.073V8.83936H40.73837Z"/><circle class="j" cx="49.55444" cy="26.94248" r="2.45314"/></g><circle class="k" cx="49.55444" cy="26.94248" r="9.09371"/><ellipse class="g" cx="22.6841" cy="26.94248" rx="8.40782" ry="9.09371"/><g class="l"><path class="i" d="M14.533,21.40309s.94-.89435,6.51478-.79551a27.90607,27.90607,0,0,1,9.78747,1.95923V8.33318H14.533Z"/><circle class="j" cx="22.6841" cy="26.94248" r="2.45314"/></g><ellipse class="k" cx="22.6841" cy="26.94248" rx="8.40782" ry="9.09371"/><path class="m" d="M47.5418,8.352s8.181,4.12274,14.70476,5.70425"/><path class="m" d="M24.74971,8.40778S17.2659,15.34807,10.71762,13.766"/><path class="n" d="M34.5859,18.18457c-1.53527,1.75082-3.97061,2.777-5.25644,4.74073-1.46759,2.24127-.71046,5.25029-1.44817,7.82573-.4707,1.64327-1.54173,3.06577-2.00435,4.71131-.96842,3.44467,2.90514,6.82114,6.04149,5.00589a13.09026,13.09026,0,0,1,2.688-1.45824c1.28559-.38244,2.94263.228,4.2893.05858,2.04579-.2573,2.60757-2.53142.96924-3.96192"/><path class="j" d="M48.69417,40.239c-.40559,7.712-3.71116,11.2064-10.5052,11.22394-1.32218.00341-2.64276-.07816-3.96457-.09646-.76447-.01058-2.74657-.0732-2.74657-.0732s1.79532-4.00208-.31319-7.07572a.21165.21165,0,0,1-.05174-.15875c.0214-.09286.14344-.11229.23871-.11034,1.48223.03023,2.99914.091,4.49073.03859,4.69763-.165,4.46556-.39519,8.94551-1.84914.85383-.27711,3.89411-1.24947,3.92313-2.32386Q48.70533,40.02592,48.69417,40.239Z"/><g class="o"><path class="g" d="M30.68692,47.20982S41.3714,48.55963,48.711,43.1604V39.814l-18.8973,4.44311Z"/></g><path class="p" d="M48.69417,40.239c-.40559,7.712-3.71116,11.2064-10.5052,11.22394-1.32218.00341-2.64276-.07816-3.96457-.09646-.76447-.01058-2.74657-.0732-2.74657-.0732s1.79532-4.00208-.31319-7.07572a.21165.21165,0,0,1-.05174-.15875c.0214-.09286.14344-.11229.23871-.11034,1.48223.03023,2.99914.091,4.49073.03859,4.69763-.165,4.46556-.39519,8.94551-1.84914.85383-.27711,3.89411-1.24947,3.92313-2.32386Q48.70533,40.02592,48.69417,40.239Z"/></svg>