<svg xmlns="http://www.w3.org/2000/svg" xmlns:xlink="http://www.w3.org/1999/xlink" viewBox="0 0 449.93592 450.19658"><defs><style>.a{fill:none;}.b{clip-path:url(#a);}.c{fill:#f2bb5f;}.d{fill:#fadba9;}</style><clipPath id="a"><circle class="a" cx="224.96796" cy="224.96796" r="224.96796"/></clipPath></defs><g class="b"><polygon class="c" points="194.399 467.697 225.08 225.047 262.728 464.3 194.399 467.697"/><polygon class="d" points="225.08 225.047 262.728 464.3 328.546 455.768 225.08 225.047"/><polyline class="d" points="225.08 225.047 121.906 455.768 194.284 465.812 225.08 225.047"/><polygon class="c" points="50.545 424.626 225.08 225.047 126.233 447.135 50.545 424.626"/><polygon class="c" points="-7.861 305.618 225.08 225.047 -1.081 380.041 -7.861 305.618"/><polygon class="c" points="-13.116 203.733 225.08 225.047 -23.202 255.501 -13.116 203.733"/><polygon class="c" points="30.379 87.331 225.08 225.047 11.068 154.02 30.379 87.331"/><polygon class="d" points="-1.081 380.041 225.08 225.047 50.545 424.626 -1.081 380.041"/><polygon class="d" points="-20.961 255.226 225.08 225.047 -7.861 305.618 -20.961 255.226"/><polygon class="d" points="0.487 150.508 225.08 225.047 -3.28 204.613 0.487 150.508"/><polygon class="d" points="84.159 25.358 225.08 225.047 30.379 87.331 84.159 25.358"/><polygon class="c" points="84.159 25.358 225.08 225.047 174.327 -20.092 84.159 25.358"/><polygon class="d" points="225.08 225.047 178.487 0 280.953 -7.732 225.08 225.047"/><polygon class="c" points="225.08 225.047 279.959 -3.592 373.493 11.624 225.08 225.047"/><polygon class="d" points="225.08 225.047 358.951 32.535 401.294 74.517 225.08 225.047"/><polygon class="c" points="225.08 225.047 401.294 74.517 427.032 121.983 225.08 225.047"/><polygon class="d" points="225.08 225.047 427.032 121.983 470.745 178.506 225.08 225.047"/><polygon class="c" points="225.08 225.047 464.708 179.65 467.514 247.596 225.08 225.047"/><polygon class="d" points="225.08 225.047 467.514 247.596 465.552 315.091 225.08 225.047"/><polygon class="c" points="225.08 225.047 465.552 315.091 462.899 383.118 225.08 225.047"/><polygon class="d" points="225.08 225.047 462.899 383.118 410.453 448.119 225.08 225.047"/><polygon class="c" points="225.08 225.047 328.546 455.768 410.453 448.119 225.08 225.047"/></g></svg>