<svg xmlns="http://www.w3.org/2000/svg" viewBox="0 0 228.4157 79.09242"><defs><style>.a{fill:none;stroke:#b0daea;stroke-linecap:round;stroke-miterlimit:10;stroke-width:4px;}</style></defs><path class="a" d="M10.26746,2c-9.061,13.03857-9.15674,21.209-7.33691,26.35938,3.46826,9.81591,14.311,9.83593,19.56543,22.28369,3.99853,9.47314,1.60986,18.67871.81542,21.73974a36.97188,36.97188,0,0,1-1.33251,4.1259"/><path class="a" d="M39.07745,2c-9.061,13.03857-9.15674,21.209-7.33691,26.35938,3.46826,9.81591,14.311,9.83593,19.56543,22.28369,3.99853,9.47314,1.60986,18.67871.81542,21.73974A36.97488,36.97488,0,0,1,50.78876,76.509"/><path class="a" d="M67.88744,2c-9.061,13.03857-9.15674,21.209-7.33691,26.35938,3.46826,9.81591,14.311,9.83593,19.56542,22.28369,3.99854,9.47314,1.60987,18.67871.81543,21.73974a36.94788,36.94788,0,0,1-1.56479,4.70805"/><path class="a" d="M96.69743,2c-9.061,13.03857-9.15674,21.209-7.33691,26.35938,3.46826,9.81591,14.311,9.83593,19.56542,22.28369,3.99854,9.47314,1.60987,18.67871.81543,21.73974a36.94729,36.94729,0,0,1-1.56543,4.70961"/><path class="a" d="M125.50742,2c-9.061,13.03857-9.15674,21.209-7.33692,26.35938,3.46827,9.81591,14.311,9.83593,19.56543,22.28369,3.99854,9.47314,1.60987,18.67871.81543,21.73974a36.9748,36.9748,0,0,1-1.33275,4.12652"/><path class="a" d="M154.31741,2c-9.061,13.03857-9.15674,21.209-7.33692,26.35938,3.46827,9.81591,14.311,9.83593,19.56543,22.28369,3.99854,9.47314,1.60987,18.67871.81543,21.73974a36.94729,36.94729,0,0,1-1.56543,4.70961"/><path class="a" d="M183.1274,2c-9.061,13.03857-9.15674,21.209-7.33692,26.35938,3.46827,9.81591,14.311,9.83593,19.56543,22.28369,3.99854,9.47314,1.60987,18.67871.81543,21.73974a36.97444,36.97444,0,0,1-1.33282,4.12669"/><path class="a" d="M211.93739,2c-9.061,13.03857-9.15674,21.209-7.33692,26.35938,3.46827,9.81591,14.311,9.83593,19.56543,22.28369,3.99854,9.47314,1.60987,18.67871.81543,21.73974a36.97377,36.97377,0,0,1-1.33291,4.12692"/></svg>