<svg xmlns="http://www.w3.org/2000/svg" viewBox="0 0 28.01153 41.61051"><defs><style>.a{fill:#dadada;}.b{fill:#fff;stroke:#2d2a28;stroke-miterlimit:10;}.c{fill:#b2b2b2;}.d{fill:#575756;}.e{fill:#f6f6f6;}.f{fill:#9d9d9c;}.g{fill:#1ac179;}.h{fill:#ef3a4c;}</style></defs><rect class="a" width="26.96493" height="39.93538" rx="4.78656"/><rect class="b" x="0.5466" y="1.17513" width="26.96493" height="39.93538" rx="4.78656"/><path class="c" d="M9.91579,12.51669h7.1333a.6958.6958,0,0,1,.6958.6958V27.66024a.69531.69531,0,0,1-.69531.69531H9.91579a.69531.69531,0,0,1-.69531-.69531V13.212A.69531.69531,0,0,1,9.91579,12.51669Z"/><path class="d" d="M17.04946,12.73761a.47469.47469,0,0,1,.47473.47467V27.66005a.47468.47468,0,0,1-.47473.47467h-7.134a.47465.47465,0,0,1-.47461-.47467V13.21228a.47466.47466,0,0,1,.47461-.47467h7.134m0-.44094h-7.134a.91656.91656,0,0,0-.91553.91561V27.66005a.91656.91656,0,0,0,.91553.9156h7.134a.91667.91667,0,0,0,.91565-.9156V13.21228a.91667.91667,0,0,0-.91565-.91561Z"/><path class="a" d="M16.82481,27.87011H11.15144a.45824.45824,0,0,1-.45479-.40219L9.093,14.45344a.45823.45823,0,0,1,.45479-.51427h7.277a.45823.45823,0,0,1,.45822.45823V27.41188A.45823.45823,0,0,1,16.82481,27.87011Z"/><path class="e" d="M9.44077,13.93917l.54723-.37065q.2178-.14751.43559-.295a2.63213,2.63213,0,0,1,1.55155-.269h5.49814L16.1557,14.00527Z"/><path class="f" d="M17.47328,13.00454,17.283,27.87011l-.16845-1.86285-.38348-4.24085-.41633-4.60408-.16218-1.79342-.05992-.66269a1.45691,1.45691,0,0,1,.063-.701.982.982,0,0,1,.47005-.45442Z"/><path class="g" d="M10.85622,8.90048a1.42951,1.42951,0,0,1-.4707-1.09766c-.00391-.10058-.00488-.25586-.00488-.46484s.001-.36524.00488-.47022a1.42968,1.42968,0,0,1,.47266-1.09961,1.7943,1.7943,0,0,1,1.208-.38671,1.7861,1.7861,0,0,1,1.20313.38671A1.42971,1.42971,0,0,1,13.742,6.86776c.00683.20948.01074.36573.01074.47022,0,.1084-.00391.26318-.01074.46484a1.431,1.431,0,0,1-.46778,1.09766,1.81257,1.81257,0,0,1-1.208.37256A1.82167,1.82167,0,0,1,10.85622,8.90048Zm1.65918-.6084a.75093.75093,0,0,0,.17774-.52148c.00781-.209.01074-.3584.01074-.44873,0-.08985-.00293-.23584-.01074-.438a.75273.75273,0,0,0-.17774-.52149.60371.60371,0,0,0-.44922-.16992.61066.61066,0,0,0-.4541.16992.75268.75268,0,0,0-.17773.52149q-.00586.1516-.00586.438,0,.29223.00586.44873a.75088.75088,0,0,0,.17773.52148.611.611,0,0,0,.4541.17041A.604.604,0,0,0,12.5154,8.29208Z"/><path class="g" d="M14.40407,9.1788a.12957.12957,0,0,1-.041-.09473V5.57626a.14062.14062,0,0,1,.03808-.1001.12819.12819,0,0,1,.09766-.04053h.61035a.19691.19691,0,0,1,.1836.10254l1.27539,2.01612v-1.978a.14062.14062,0,0,1,.03808-.1001.12817.12817,0,0,1,.09766-.04053h.68652a.126.126,0,0,1,.09668.04053.14063.14063,0,0,1,.03809.1001V9.0787a.14143.14143,0,0,1-.03809.1001.12565.12565,0,0,1-.09668.04h-.61133a.19789.19789,0,0,1-.18359-.10254L15.326,7.18173V9.08407a.12578.12578,0,0,1-.041.09717.14066.14066,0,0,1-.09961.0376H14.4988A.13049.13049,0,0,1,14.40407,9.1788Z"/><path class="h" d="M9.02224,35.23593a1.42844,1.42844,0,0,1-.4707-1.09717c-.00391-.10107-.00489-.25586-.00489-.46484s.001-.36573.00489-.47071a1.43043,1.43043,0,0,1,.47265-1.09961,1.79431,1.79431,0,0,1,1.208-.38672,1.78607,1.78607,0,0,1,1.20312.38672,1.43044,1.43044,0,0,1,.47266,1.09961c.00684.20948.01074.36621.01074.47071,0,.10791-.0039.26269-.01074.46484a1.43,1.43,0,0,1-.46777,1.09717,1.81,1.81,0,0,1-1.208.37256A1.81908,1.81908,0,0,1,9.02224,35.23593Zm1.65918-.6084a.75088.75088,0,0,0,.17773-.52148c.00782-.209.01074-.3584.01074-.44874,0-.08984-.00292-.23584-.01074-.4375a.75088.75088,0,0,0-.17773-.52148.60214.60214,0,0,0-.44922-.17041.609.609,0,0,0-.4541.17041.75093.75093,0,0,0-.17774.52148q-.00585.15088-.00586.4375,0,.29224.00586.44874a.75093.75093,0,0,0,.17774.52148.609.609,0,0,0,.4541.17041A.60214.60214,0,0,0,10.68142,34.62753Z"/><path class="h" d="M12.57009,35.51425a.12882.12882,0,0,1-.041-.09473V31.91171a.14145.14145,0,0,1,.03809-.1001.12817.12817,0,0,1,.09766-.04053h2.51269a.13765.13765,0,0,1,.14063.14063v.57275a.12951.12951,0,0,1-.04.09766.14358.14358,0,0,1-.10059.0376H13.52419v.75146h1.5459a.13707.13707,0,0,1,.09961.04053.13441.13441,0,0,1,.041.1001v.57275a.12653.12653,0,0,1-.041.09717.14107.14107,0,0,1-.09961.03808h-1.5459v1.19971a.13368.13368,0,0,1-.03808.09473.12817.12817,0,0,1-.09766.04053h-.72363A.131.131,0,0,1,12.57009,35.51425Z"/><path class="h" d="M15.89919,35.51425a.12881.12881,0,0,1-.041-.09473V31.91171a.14144.14144,0,0,1,.03808-.1001.12817.12817,0,0,1,.09766-.04053h2.51269a.13765.13765,0,0,1,.14063.14063v.57275a.12951.12951,0,0,1-.04.09766.14357.14357,0,0,1-.10059.0376H16.85329v.75146h1.5459a.13707.13707,0,0,1,.09961.04053.13441.13441,0,0,1,.041.1001v.57275a.12653.12653,0,0,1-.041.09717.14107.14107,0,0,1-.09961.03808h-1.5459v1.19971a.13368.13368,0,0,1-.03808.09473.12817.12817,0,0,1-.09766.04053h-.72363A.131.131,0,0,1,15.89919,35.51425Z"/></svg>