<svg xmlns="http://www.w3.org/2000/svg" viewBox="0 0 28.01153 41.61051"><defs><style>.a{fill:#dadada;}.b{fill:#fff;stroke:#2d2a28;stroke-miterlimit:10;}.c{fill:#b2b2b2;}.d{fill:#575756;}.e{fill:#f6f6f6;}.f{fill:#9d9d9c;}.g{fill:#1ac179;}.h{fill:#ef3a4c;}</style></defs><rect class="a" width="26.96493" height="39.93538" rx="4.78656"/><rect class="b" x="0.5466" y="1.17513" width="26.96493" height="39.93538" rx="4.78656"/><path class="c" d="M9.91558,12.51669h7.1333a.6958.6958,0,0,1,.6958.6958V27.66024a.69531.69531,0,0,1-.69531.69531H9.91558a.69531.69531,0,0,1-.69531-.69531V13.212A.69531.69531,0,0,1,9.91558,12.51669Z"/><path class="d" d="M17.04949,12.73761a.47469.47469,0,0,1,.47473.47467V27.66005a.47468.47468,0,0,1-.47473.47467h-7.134a.47468.47468,0,0,1-.47473-.47467V13.21228a.47469.47469,0,0,1,.47473-.47467h7.134m0-.44094h-7.134a.91667.91667,0,0,0-.91565.91561V27.66005a.91667.91667,0,0,0,.91565.9156h7.134a.91667.91667,0,0,0,.91565-.9156V13.21228a.91667.91667,0,0,0-.91565-.91561Z"/><path class="a" d="M16.82481,13.00222H11.15144a.45824.45824,0,0,0-.45479.40219L9.093,26.41889a.45823.45823,0,0,0,.45479.51427h7.277a.45823.45823,0,0,0,.45822-.45823V13.46045A.45823.45823,0,0,0,16.82481,13.00222Z"/><path class="e" d="M9.44077,26.93316l.54723.37065q.2178.14751.43559.295a2.63206,2.63206,0,0,0,1.55155.269h5.49814L16.1557,26.86706Z"/><path class="f" d="M17.47328,27.8678,17.283,13.00222l-.16845,1.86285-.38348,4.24085L16.31477,23.71l-.16218,1.79342-.05992.66269a1.45691,1.45691,0,0,0,.063.70095.98205.98205,0,0,0,.47005.45443Z"/><path class="g" d="M10.85619,8.90045a1.4296,1.4296,0,0,1-.4707-1.09766c-.0039-.10059-.00488-.25586-.00488-.46484s.001-.36524.00488-.47022a1.42971,1.42971,0,0,1,.47266-1.09961,1.79431,1.79431,0,0,1,1.208-.38672,1.78609,1.78609,0,0,1,1.20312.38672,1.42971,1.42971,0,0,1,.47266,1.09961c.00683.20947.01074.36572.01074.47022,0,.1084-.00391.26318-.01074.46484a1.431,1.431,0,0,1-.46778,1.09766,1.81261,1.81261,0,0,1-1.208.37256A1.82175,1.82175,0,0,1,10.85619,8.90045Zm1.65918-.6084a.75094.75094,0,0,0,.17774-.52149c.00781-.209.01074-.35839.01074-.44873,0-.08984-.00293-.23584-.01074-.438a.75273.75273,0,0,0-.17774-.52149.60369.60369,0,0,0-.44921-.16992.61069.61069,0,0,0-.45411.16992.75277.75277,0,0,0-.17773.52149q-.00587.1516-.00586.438,0,.29224.00586.44873a.751.751,0,0,0,.17773.52149.611.611,0,0,0,.45411.17041A.604.604,0,0,0,12.51537,8.29205Z"/><path class="g" d="M14.40405,9.17877a.12957.12957,0,0,1-.041-.09473V5.57623a.14063.14063,0,0,1,.03809-.1001.12812.12812,0,0,1,.09765-.04053h.61035a.1969.1969,0,0,1,.1836.10254l1.27539,2.01612v-1.978a.14062.14062,0,0,1,.03808-.1001.12815.12815,0,0,1,.09766-.04053h.68652a.126.126,0,0,1,.09668.04053.14063.14063,0,0,1,.03809.1001V9.07867a.14145.14145,0,0,1-.03809.1001.12565.12565,0,0,1-.09668.04h-.61132a.1979.1979,0,0,1-.1836-.10254L15.32592,7.1817V9.084a.1258.1258,0,0,1-.041.09717.14069.14069,0,0,1-.09961.0376h-.68653A.13045.13045,0,0,1,14.40405,9.17877Z"/><path class="h" d="M9.02221,35.2359a1.42844,1.42844,0,0,1-.4707-1.09717c-.00391-.10108-.00489-.25586-.00489-.46485s.001-.36572.00489-.4707a1.43045,1.43045,0,0,1,.47265-1.09961,1.79433,1.79433,0,0,1,1.208-.38672,1.7861,1.7861,0,0,1,1.20313.38672,1.43045,1.43045,0,0,1,.47265,1.09961c.00684.20947.01074.36621.01074.4707,0,.10791-.0039.2627-.01074.46485a1.43,1.43,0,0,1-.46777,1.09717,1.81,1.81,0,0,1-1.208.37255A1.81907,1.81907,0,0,1,9.02221,35.2359Zm1.65918-.6084a.75089.75089,0,0,0,.17773-.52149c.00782-.209.01075-.3584.01075-.44873,0-.08984-.00293-.23584-.01075-.4375a.75088.75088,0,0,0-.17773-.52148.60213.60213,0,0,0-.44922-.17041.609.609,0,0,0-.4541.17041.75088.75088,0,0,0-.17773.52148q-.00587.15088-.00586.4375,0,.29225.00586.44873a.75089.75089,0,0,0,.17773.52149.609.609,0,0,0,.4541.17041A.60213.60213,0,0,0,10.68139,34.6275Z"/><path class="h" d="M12.57006,35.51422a.12881.12881,0,0,1-.041-.09473V31.91168a.14143.14143,0,0,1,.03808-.1001.12814.12814,0,0,1,.09766-.04053h2.51269a.13765.13765,0,0,1,.14063.14063v.57275a.12951.12951,0,0,1-.04.09766.14356.14356,0,0,1-.10059.03759H13.52416v.75147h1.5459a.13707.13707,0,0,1,.09961.04053.13436.13436,0,0,1,.041.10009v.57276a.1265.1265,0,0,1-.041.09717.14107.14107,0,0,1-.09961.03808h-1.5459v1.19971a.13368.13368,0,0,1-.03808.09473.12817.12817,0,0,1-.09766.04052h-.72363A.131.131,0,0,1,12.57006,35.51422Z"/><path class="h" d="M15.89916,35.51422a.12881.12881,0,0,1-.041-.09473V31.91168a.14143.14143,0,0,1,.03808-.1001.12814.12814,0,0,1,.09766-.04053h2.5127a.13765.13765,0,0,1,.14062.14063v.57275a.12951.12951,0,0,1-.04.09766.14355.14355,0,0,1-.10058.03759H16.85327v.75147h1.54589a.13706.13706,0,0,1,.09961.04053.13436.13436,0,0,1,.041.10009v.57276a.1265.1265,0,0,1-.041.09717.14106.14106,0,0,1-.09961.03808H16.85327v1.19971a.13369.13369,0,0,1-.03809.09473.12817.12817,0,0,1-.09766.04052h-.72363A.131.131,0,0,1,15.89916,35.51422Z"/></svg>