<svg xmlns="http://www.w3.org/2000/svg" viewBox="0 0 77.50935 34.47469"><defs><style>.a,.b,.d,.e{fill:none;}.a{stroke:#29235c;stroke-width:7.1497px;opacity:0.14;}.a,.b,.d{stroke-miterlimit:10;}.b,.e{stroke:#fff;}.b{stroke-width:5.36228px;}.c{fill:#92d3f4;}.d{stroke:#4ab3ec;}.d,.e{stroke-width:1.34057px;}.e{stroke-linecap:round;stroke-linejoin:round;}.f{fill:#77ceec;}.g{fill:#2d2a28;}</style></defs><path class="a" d="M17.23732,3.57485H60.272A13.66248,13.66248,0,0,1,73.9345,17.23733v0A13.66248,13.66248,0,0,1,60.272,30.89984H17.23732A13.66247,13.66247,0,0,1,3.57485,17.23737v0A13.66247,13.66247,0,0,1,17.23732,3.57485Z"/><path class="b" d="M17.23732,3.57485H60.272A13.66248,13.66248,0,0,1,73.9345,17.23733v0A13.66248,13.66248,0,0,1,60.272,30.89984H17.23732A13.66247,13.66247,0,0,1,3.57485,17.23737v0A13.66247,13.66247,0,0,1,17.23732,3.57485Z"/><path class="c" d="M17.23732,3.57485H60.272A13.66248,13.66248,0,0,1,73.9345,17.23733v0A13.66248,13.66248,0,0,1,60.272,30.89984H17.23732A13.66247,13.66247,0,0,1,3.57485,17.23737v0A13.66247,13.66247,0,0,1,17.23732,3.57485Z"/><path class="d" d="M17.23732,3.57485H60.272A13.66248,13.66248,0,0,1,73.9345,17.23733v0A13.66248,13.66248,0,0,1,60.272,30.89984H17.23732A13.66247,13.66247,0,0,1,3.57485,17.23737v0A13.66247,13.66247,0,0,1,17.23732,3.57485Z"/><path class="e" d="M13.93392,8.42608a8.03371,8.03371,0,0,0-4.2954,4.29861"/><path class="f" d="M70.50049,9.17777c.00005.00017,4.30549,16.98745-12.03794,20.92358,0,0,1.70142.16453,2.35162.13929a14.06486,14.06486,0,0,0,3.86567-.72482,13.37852,13.37852,0,0,0,8.59689-11.02648,12.714,12.714,0,0,0-1.4901-7.27475c-.16462-.32207-.427-.70172-.61279-1.01208C70.997,9.9071,70.50049,9.17777,70.50049,9.17777Z"/><path class="g" d="M21.93926,14.90672a2.67976,2.67976,0,0,1,.80567,2.1504v3.48925a.28982.28982,0,0,1-.08106.20313.27547.27547,0,0,1-.209.08691H21.08672a.3021.3021,0,0,1-.21386-.08105.27062.27062,0,0,1-.08692-.209V17.11473a1.1634,1.1634,0,0,0-1.31054-1.32129h-.75293a7.01535,7.01535,0,0,0-.17481,1.7041l.09277,3.04883a.27064.27064,0,0,1-.08691.209.30214.30214,0,0,1-.21387.08105l-2.458-.01172a.30189.30189,0,0,1-.21485-.08105.27255.27255,0,0,1-.08691-.209v-.916a.27334.27334,0,0,1,.08691-.208.30618.30618,0,0,1,.21485-.08105h.93945V17.50926a6.24286,6.24286,0,0,1,.17383-1.71582h-.68457a.30214.30214,0,0,1-.21387-.08105.27207.27207,0,0,1-.08691-.209v-.99707a.26853.26853,0,0,1,.08691-.208.29872.29872,0,0,1,.21387-.082h3.23437A3.59637,3.59637,0,0,1,21.93926,14.90672Z"/><path class="g" d="M24.09551,18.00731a.26855.26855,0,0,1-.08691-.208v-3.293a.26853.26853,0,0,1,.08691-.208.29872.29872,0,0,1,.21387-.082H25.7586a.27918.27918,0,0,1,.29.29v3.293a.28752.28752,0,0,1-.08106.20215.27284.27284,0,0,1-.209.08789H24.30938A.29872.29872,0,0,1,24.09551,18.00731Z"/><path class="g" d="M27.23711,20.7495a.27961.27961,0,0,1-.08691-.20313V19.5493a.27193.27193,0,0,1,.08691-.208.28827.28827,0,0,1,.20313-.082H30.3504V17.11473a1.1582,1.1582,0,0,0-1.31055-1.30957h-1.4834a.27252.27252,0,0,1-.209-.08691.30189.30189,0,0,1-.08106-.21485v-.99707a.27187.27187,0,0,1,.08692-.208.28489.28489,0,0,1,.20312-.082h1.542a3.77728,3.77728,0,0,1,2.45117.68458,2.71227,2.71227,0,0,1,.82911,2.21386v2.14453H32.785a.27911.27911,0,0,1,.28906.29v.99707a.28561.28561,0,0,1-.08106.20313.27186.27186,0,0,1-.208.08691H27.44024A.28118.28118,0,0,1,27.23711,20.7495Z"/><path class="g" d="M38.39532,20.75536a.28414.28414,0,0,1-.08106-.209V17.11473a1.16271,1.16271,0,0,0-1.30957-1.32129H34.36114a.30619.30619,0,0,1-.21485-.08105.27551.27551,0,0,1-.08691-.209v-.99707a.2719.2719,0,0,1,.08691-.208.3027.3027,0,0,1,.21485-.082h2.70117a3.55825,3.55825,0,0,1,2.40527.707,2.7843,2.7843,0,0,1,.80567,2.20312v3.41992a.27062.27062,0,0,1-.08692.209.3021.3021,0,0,1-.21386.08105H38.6043A.28411.28411,0,0,1,38.39532,20.75536Zm-4.249,0a.274.274,0,0,1-.08691-.209V17.16161a.27553.27553,0,0,1,.08691-.209.30619.30619,0,0,1,.21485-.08105H35.7293a.27764.27764,0,0,1,.28906.29v3.38476a.2856.2856,0,0,1-.08105.20313.27188.27188,0,0,1-.208.08691H34.36114A.30619.30619,0,0,1,34.14629,20.75536Z"/><path class="g" d="M45.2586,16.38426q0,.61524.27832.707l.32422.1045a.3598.3598,0,0,1,.19726.36035l.01172.67187a.25458.25458,0,0,1-.13379.21485.37437.37437,0,0,1-.27246.06347l-.60254-.081a1.45747,1.45747,0,0,1-.99707-.667,2.62458,2.62458,0,0,1-.39453-1.5127V14.50633a.27918.27918,0,0,1,.29-.29H46.244a2.9332,2.9332,0,0,1,2.23731.78907,3.23346,3.23346,0,0,1,.78808,2.19043l.01172,4.78808a.2777.2777,0,0,1-.29.29H47.68145a.28977.28977,0,0,1-.20312-.08105.2755.2755,0,0,1-.08692-.209V17.185a1.45017,1.45017,0,0,0-.35351-.99218,1.321,1.321,0,0,0-.99122-.3418l-.78808.01172Z"/><path class="g" d="M55.75079,14.29833a.28183.28183,0,0,1,.081.208v.99707a.2915.2915,0,0,1-.081.20313.27549.27549,0,0,1-.209.08691h-.5332a1.78207,1.78207,0,0,0-.21484.59082,4.18262,4.18262,0,0,0-.0752.82325v3.374a.21788.21788,0,0,1-.11035.17969.39017.39017,0,0,1-.22559.07519H53.02618a.23873.23873,0,0,1-.25489-.25488v-3.501a2.50653,2.50653,0,0,1,.23145-1.28711H50.35918a.29706.29706,0,0,1-.28906-.29v-.99707a.2685.2685,0,0,1,.08692-.208.28428.28428,0,0,1,.20214-.082H55.5418A.28258.28258,0,0,1,55.75079,14.29833Z"/><path class="g" d="M61.31524,14.9409a3.1535,3.1535,0,0,1,.66113,2.18555,3.41124,3.41124,0,0,1-.87011,2.41211,4.61915,4.61915,0,0,1-2.17872,1.30957l-.47558.13867a.223.223,0,0,1-.21485-.081.33026.33026,0,0,1-.09863-.23145V19.5034a.33511.33511,0,0,1,.08106-.21484.58524.58524,0,0,1,.209-.15625l.37109-.15039a1.87033,1.87033,0,0,0,.84082-.62109,1.94046,1.94046,0,0,0,.30665-1.17579,1.5618,1.5618,0,0,0-.25489-1.0205,1.23525,1.23525,0,0,0-.95019-.29h-.30176l-1.55371-.01172a.27772.27772,0,0,1-.29-.29V12.895a.27551.27551,0,0,1,.08691-.209.29152.29152,0,0,1,.20313-.081h1.252a.2777.2777,0,0,1,.29.29v1.32128h.71875A2.81644,2.81644,0,0,1,61.31524,14.9409Z"/></svg>