<svg xmlns="http://www.w3.org/2000/svg" viewBox="0 0 77.50935 34.47469"><defs><style>.a,.b,.d,.e{fill:none;}.a{stroke:#29235c;stroke-width:7.1497px;opacity:0.14;}.a,.b,.d{stroke-miterlimit:10;}.b,.e{stroke:#fff;}.b{stroke-width:5.36228px;}.c{fill:#ebf1f4;}.d{stroke:#a0d1ec;}.d,.e{stroke-width:1.34057px;}.e{stroke-linecap:round;stroke-linejoin:round;}.f{fill:#cde4ec;}.g{fill:#2d2a28;}</style></defs><path class="a" d="M17.23732,3.57485H60.272A13.66248,13.66248,0,0,1,73.9345,17.23733v0A13.66248,13.66248,0,0,1,60.272,30.89984H17.23732A13.66247,13.66247,0,0,1,3.57485,17.23737v0A13.66247,13.66247,0,0,1,17.23732,3.57485Z"/><path class="b" d="M17.23732,3.57485H60.272A13.66248,13.66248,0,0,1,73.9345,17.23733v0A13.66248,13.66248,0,0,1,60.272,30.89984H17.23732A13.66247,13.66247,0,0,1,3.57485,17.23737v0A13.66247,13.66247,0,0,1,17.23732,3.57485Z"/><path class="c" d="M17.23732,3.57485H60.272A13.66248,13.66248,0,0,1,73.9345,17.23733v0A13.66248,13.66248,0,0,1,60.272,30.89984H17.23732A13.66247,13.66247,0,0,1,3.57485,17.23737v0A13.66247,13.66247,0,0,1,17.23732,3.57485Z"/><path class="d" d="M17.23732,3.57485H60.272A13.66248,13.66248,0,0,1,73.9345,17.23733v0A13.66248,13.66248,0,0,1,60.272,30.89984H17.23732A13.66247,13.66247,0,0,1,3.57485,17.23737v0A13.66247,13.66247,0,0,1,17.23732,3.57485Z"/><path class="e" d="M13.93392,8.42608a8.03371,8.03371,0,0,0-4.2954,4.29861"/><path class="f" d="M70.50049,9.17777c.00005.00017,4.30549,16.98745-12.03794,20.92358,0,0,1.70142.16453,2.35162.13929a14.06486,14.06486,0,0,0,3.86567-.72482,13.37852,13.37852,0,0,0,8.59689-11.02648,12.714,12.714,0,0,0-1.4901-7.27475c-.16462-.32207-.427-.70172-.61279-1.01208C70.997,9.9071,70.50049,9.17777,70.50049,9.17777Z"/><path class="g" d="M21.93926,14.90648a2.67974,2.67974,0,0,1,.80567,2.15039v3.49024a.29148.29148,0,0,1-.08106.20312.27469.27469,0,0,1-.209.08594H21.08672a.30134.30134,0,0,1-.21386-.08008.272.272,0,0,1-.08692-.209V17.11547A1.1641,1.1641,0,0,0,19.4754,15.7932h-.75293a7.02352,7.02352,0,0,0-.17481,1.70508l.09277,3.04883a.27206.27206,0,0,1-.08691.209.30138.30138,0,0,1-.21387.08008l-2.458-.01074a.30618.30618,0,0,1-.21485-.08106.27545.27545,0,0,1-.08691-.209v-.916a.27547.27547,0,0,1,.08691-.209.30618.30618,0,0,1,.21485-.08106h.93945V17.51a6.2501,6.2501,0,0,1,.17383-1.7168h-.68457a.298.298,0,0,1-.21387-.08105.26855.26855,0,0,1-.08691-.208v-.99707a.27064.27064,0,0,1,.08691-.209.30214.30214,0,0,1,.21387-.08105h3.23437A3.60173,3.60173,0,0,1,21.93926,14.90648Z"/><path class="g" d="M24.09551,18.008a.272.272,0,0,1-.08691-.209v-3.292a.27064.27064,0,0,1,.08691-.209.30214.30214,0,0,1,.21387-.08105H25.7586a.27772.27772,0,0,1,.29.29v3.292a.28982.28982,0,0,1-.08106.20313.27549.27549,0,0,1-.209.08691H24.30938A.3021.3021,0,0,1,24.09551,18.008Z"/><path class="g" d="M27.23711,20.75023a.28118.28118,0,0,1-.08691-.20312V19.55a.274.274,0,0,1,.08691-.209.29152.29152,0,0,1,.20313-.081H30.3504V17.11547a1.15889,1.15889,0,0,0-1.31055-1.31055h-1.4834a.27256.27256,0,0,1-.209-.08691.298.298,0,0,1-.08106-.21387v-.99707a.274.274,0,0,1,.08692-.209.2881.2881,0,0,1,.20312-.08105h1.542a3.78305,3.78305,0,0,1,2.45117.68359,2.71446,2.71446,0,0,1,.82911,2.21485V19.26H32.785a.27765.27765,0,0,1,.28906.29v.99707a.28722.28722,0,0,1-.08106.20312.2711.2711,0,0,1-.208.08594H27.44024A.28017.28017,0,0,1,27.23711,20.75023Z"/><path class="g" d="M38.39532,20.75609a.28568.28568,0,0,1-.08106-.209V17.11547a1.16341,1.16341,0,0,0-1.30957-1.32227H34.36114a.302.302,0,0,1-.21485-.08105.27192.27192,0,0,1-.08691-.208v-.99707a.274.274,0,0,1,.08691-.209.30619.30619,0,0,1,.21485-.08105h2.70117a3.5583,3.5583,0,0,1,2.40527.707,2.783,2.783,0,0,1,.80567,2.20313v3.41992a.272.272,0,0,1-.08692.209.30134.30134,0,0,1-.21386.08008H38.6043A.28341.28341,0,0,1,38.39532,20.75609Zm-4.249,0a.2755.2755,0,0,1-.08691-.209V17.16137a.2719.2719,0,0,1,.08691-.208.30269.30269,0,0,1,.21485-.082H35.7293a.27909.27909,0,0,1,.28906.29v3.38574a.28721.28721,0,0,1-.08105.20312.27112.27112,0,0,1-.208.08594H34.36114A.30542.30542,0,0,1,34.14629,20.75609Z"/><path class="g" d="M45.2586,16.385q0,.61522.27832.707l.32422.10449a.35751.35751,0,0,1,.19726.35938l.01172.67285a.25312.25312,0,0,1-.13379.21387.37437.37437,0,0,1-.27246.06347l-.60254-.08105a1.45608,1.45608,0,0,1-.99707-.666,2.62667,2.62667,0,0,1-.39453-1.51269V14.50707a.27772.27772,0,0,1,.29-.29H46.244a2.93281,2.93281,0,0,1,2.23731.78809,3.23606,3.23606,0,0,1,.78808,2.1914l.01172,4.78809a.27622.27622,0,0,1-.29.28906H47.68145a.28883.28883,0,0,1-.20312-.08008.27548.27548,0,0,1-.08692-.209V17.1848a1.44941,1.44941,0,0,0-.35351-.99121,1.321,1.321,0,0,0-.99122-.3418l-.78808.01172Z"/><path class="g" d="M55.75079,14.29808a.28413.28413,0,0,1,.081.209v.99707a.29147.29147,0,0,1-.081.20312.27471.27471,0,0,1-.209.08594h-.5332a1.7966,1.7966,0,0,0-.21484.5918,4.17539,4.17539,0,0,0-.0752.82324v3.373a.21661.21661,0,0,1-.11035.17968.39011.39011,0,0,1-.22559.0752H53.02618a.23874.23874,0,0,1-.25489-.25488v-3.501a2.50894,2.50894,0,0,1,.23145-1.28711H50.35918a.29531.29531,0,0,1-.28906-.28906v-.99707a.27062.27062,0,0,1,.08692-.209.28748.28748,0,0,1,.20214-.08105H55.5418A.2857.2857,0,0,1,55.75079,14.29808Z"/><path class="g" d="M61.31524,14.94164a3.15015,3.15015,0,0,1,.66113,2.18555,3.40719,3.40719,0,0,1-.87011,2.41113,4.61142,4.61142,0,0,1-2.17872,1.30957l-.47558.13965a.22732.22732,0,0,1-.21485-.08106.33243.33243,0,0,1-.09863-.23242v-1.1709a.33065.33065,0,0,1,.08106-.21387.56361.56361,0,0,1,.209-.15625l.37109-.15136a1.87569,1.87569,0,0,0,.84082-.62012,1.94564,1.94564,0,0,0,.30665-1.17676,1.56183,1.56183,0,0,0-.25489-1.02051,1.2354,1.2354,0,0,0-.95019-.28906h-.30176l-1.55371-.01172a.27915.27915,0,0,1-.29-.29V12.89476a.27337.27337,0,0,1,.08691-.208.29148.29148,0,0,1,.20313-.08106h1.252a.27765.27765,0,0,1,.29.28906V14.217h.71875A2.81276,2.81276,0,0,1,61.31524,14.94164Z"/></svg>