<svg xmlns="http://www.w3.org/2000/svg" viewBox="0 0 77.50935 34.47469"><defs><style>.a,.b,.d,.e{fill:none;}.a{stroke:#29235c;stroke-width:7.1497px;opacity:0.14;}.a,.b,.d{stroke-miterlimit:10;}.b,.e{stroke:#fff;}.b{stroke-width:5.36228px;}.c{fill:#c2e3f4;}.d{stroke:#78c3ec;}.d,.e{stroke-width:1.34057px;}.e{stroke-linecap:round;stroke-linejoin:round;}.f{fill:#a5daec;}.g{fill:#2d2a28;}</style></defs><path class="a" d="M17.23732,3.57485H60.272A13.66248,13.66248,0,0,1,73.9345,17.23733v0A13.66248,13.66248,0,0,1,60.272,30.89984H17.23732A13.66247,13.66247,0,0,1,3.57485,17.23737v0A13.66247,13.66247,0,0,1,17.23732,3.57485Z"/><path class="b" d="M17.23732,3.57485H60.272A13.66248,13.66248,0,0,1,73.9345,17.23733v0A13.66248,13.66248,0,0,1,60.272,30.89984H17.23732A13.66247,13.66247,0,0,1,3.57485,17.23737v0A13.66247,13.66247,0,0,1,17.23732,3.57485Z"/><path class="c" d="M17.23732,3.57485H60.272A13.66248,13.66248,0,0,1,73.9345,17.23733v0A13.66248,13.66248,0,0,1,60.272,30.89984H17.23732A13.66247,13.66247,0,0,1,3.57485,17.23737v0A13.66247,13.66247,0,0,1,17.23732,3.57485Z"/><path class="d" d="M17.23732,3.57485H60.272A13.66248,13.66248,0,0,1,73.9345,17.23733v0A13.66248,13.66248,0,0,1,60.272,30.89984H17.23732A13.66247,13.66247,0,0,1,3.57485,17.23737v0A13.66247,13.66247,0,0,1,17.23732,3.57485Z"/><path class="e" d="M13.93392,8.42608a8.03371,8.03371,0,0,0-4.2954,4.29861"/><path class="f" d="M70.50049,9.17777c.00005.00017,4.30549,16.98745-12.03794,20.92358,0,0,1.70142.16453,2.35162.13929a14.06486,14.06486,0,0,0,3.86567-.72482,13.37852,13.37852,0,0,0,8.59689-11.02648,12.714,12.714,0,0,0-1.4901-7.27475c-.16462-.32207-.427-.70172-.61279-1.01208C70.997,9.9071,70.50049,9.17777,70.50049,9.17777Z"/><path class="g" d="M21.93926,14.907a2.67974,2.67974,0,0,1,.80567,2.15039v3.48926a.28978.28978,0,0,1-.08106.20312.27548.27548,0,0,1-.209.08692H21.08672a.30211.30211,0,0,1-.21386-.08106.2706.2706,0,0,1-.08692-.209V17.115a1.1634,1.1634,0,0,0-1.31054-1.32129h-.75293a7.01535,7.01535,0,0,0-.17481,1.7041l.09277,3.04883a.27062.27062,0,0,1-.08691.209.30215.30215,0,0,1-.21387.08106l-2.458-.01172a.30614.30614,0,0,1-.21485-.08106.274.274,0,0,1-.08691-.209v-.915a.27252.27252,0,0,1,.08691-.209.30189.30189,0,0,1,.21485-.08106h.93945V17.50953a6.24282,6.24282,0,0,1,.17383-1.71582h-.68457a.3021.3021,0,0,1-.21387-.08106.27062.27062,0,0,1-.08691-.209V14.5066a.272.272,0,0,1,.08691-.209.30134.30134,0,0,1,.21387-.08008h3.23437A3.59637,3.59637,0,0,1,21.93926,14.907Z"/><path class="g" d="M24.09551,18.00758a.26855.26855,0,0,1-.08691-.208v-3.293a.272.272,0,0,1,.08691-.209.30134.30134,0,0,1,.21387-.08008H25.7586a.27624.27624,0,0,1,.29.28906v3.293a.29148.29148,0,0,1-.08106.20312.27467.27467,0,0,1-.209.08594H24.30938A.298.298,0,0,1,24.09551,18.00758Z"/><path class="g" d="M27.23711,20.74976a.27957.27957,0,0,1-.08691-.20312v-.99707a.27553.27553,0,0,1,.08691-.209.29054.29054,0,0,1,.20313-.08007H30.3504V17.115a1.1582,1.1582,0,0,0-1.31055-1.30957h-1.4834a.27253.27253,0,0,1-.209-.08692.30025.30025,0,0,1-.08106-.21484V14.5066a.27546.27546,0,0,1,.08692-.209.28714.28714,0,0,1,.20312-.08008h1.542a3.77739,3.77739,0,0,1,2.45117.68359,2.711,2.711,0,0,1,.82911,2.21387v2.14551H32.785a.27615.27615,0,0,1,.28906.28906v.99707a.28557.28557,0,0,1-.08106.20312.27187.27187,0,0,1-.208.08692H27.44024A.28119.28119,0,0,1,27.23711,20.74976Z"/><path class="g" d="M38.39532,20.75562a.28412.28412,0,0,1-.08106-.209V17.115a1.16271,1.16271,0,0,0-1.30957-1.32129H34.36114a.30616.30616,0,0,1-.21485-.08106.274.274,0,0,1-.08691-.209V14.5066a.27549.27549,0,0,1,.08691-.209.30537.30537,0,0,1,.21485-.08008h2.70117a3.55316,3.55316,0,0,1,2.40527.707,2.77933,2.77933,0,0,1,.80567,2.20215v3.41992a.2706.2706,0,0,1-.08692.209.30211.30211,0,0,1-.21386.08106H38.6043A.28412.28412,0,0,1,38.39532,20.75562Zm-4.249,0a.274.274,0,0,1-.08691-.209V17.16187a.274.274,0,0,1,.08691-.209.3062.3062,0,0,1,.21485-.08106H35.7293a.27765.27765,0,0,1,.28906.29v3.38477a.28556.28556,0,0,1-.08105.20312.27189.27189,0,0,1-.208.08692H34.36114A.3062.3062,0,0,1,34.14629,20.75562Z"/><path class="g" d="M45.2586,16.38453c0,.41016.09277.64551.27832.708l.32422.10351a.35838.35838,0,0,1,.19726.35938l.01172.67285a.25193.25193,0,0,1-.13379.21387.37064.37064,0,0,1-.27246.06445l-.60254-.081a1.45432,1.45432,0,0,1-.99707-.667,2.62455,2.62455,0,0,1-.39453-1.51269V14.5066a.27624.27624,0,0,1,.29-.28906H46.244a2.9292,2.9292,0,0,1,2.23731.78808,3.23346,3.23346,0,0,1,.78808,2.19043l.01172,4.78809a.27772.27772,0,0,1-.29.29H47.68145a.28978.28978,0,0,1-.20312-.08106.274.274,0,0,1-.08692-.209V17.18433a1.4449,1.4449,0,0,0-.35351-.99023,1.31752,1.31752,0,0,0-.99122-.34277l-.78808.01172Z"/><path class="g" d="M55.75079,14.29762a.28566.28566,0,0,1,.081.209v.99707a.28981.28981,0,0,1-.081.20313.27553.27553,0,0,1-.209.08691h-.5332a1.782,1.782,0,0,0-.21484.59082,4.18966,4.18966,0,0,0-.0752.82324v3.374a.21661.21661,0,0,1-.11035.17968.39727.39727,0,0,1-.22559.0752H53.02618a.23874.23874,0,0,1-.25489-.25488v-3.501a2.504,2.504,0,0,1,.23145-1.28711H50.35918a.29706.29706,0,0,1-.28906-.29V14.5066a.272.272,0,0,1,.08692-.209.2865.2865,0,0,1,.20214-.08008H55.5418A.28494.28494,0,0,1,55.75079,14.29762Z"/><path class="g" d="M61.31524,14.94117a3.15349,3.15349,0,0,1,.66113,2.18555,3.40719,3.40719,0,0,1-.87011,2.41113,4.60527,4.60527,0,0,1-2.17872,1.31055l-.47558.13867a.22516.22516,0,0,1-.21485-.08106.33022.33022,0,0,1-.09863-.23144v-1.1709a.33314.33314,0,0,1,.08106-.21484.5741.5741,0,0,1,.209-.15625l.37109-.15137a1.87384,1.87384,0,0,0,.84082-.61914,1.94888,1.94888,0,0,0,.30665-1.17774,1.56051,1.56051,0,0,0-.25489-1.01953,1.23525,1.23525,0,0,0-.95019-.29h-.30176l-1.55371-.01171a.27772.27772,0,0,1-.29-.29V12.89527a.27549.27549,0,0,1,.08691-.209.29153.29153,0,0,1,.20313-.08106h1.252a.27772.27772,0,0,1,.29.29v1.32227h.71875A2.81628,2.81628,0,0,1,61.31524,14.94117Z"/></svg>