<svg xmlns="http://www.w3.org/2000/svg" viewBox="0 0 106.97198 47.57911"><defs><style>.a,.b,.d,.e{fill:none;}.a{stroke:#29235c;stroke-width:9.86742px;opacity:0.14;}.a,.b,.d{stroke-miterlimit:10;}.b,.e{stroke:#fff;}.b{stroke-width:7.40057px;}.c{fill:#c2e3f4;}.d{stroke:#78c3ec;}.d,.e{stroke-width:1.85014px;}.e{stroke-linecap:round;stroke-linejoin:round;}.f{fill:#a5daec;}.g{fill:#2d2a28;}</style></defs><path class="a" d="M23.78952,4.93371H83.18244a18.85583,18.85583,0,0,1,18.85583,18.85583v0A18.85582,18.85582,0,0,1,83.18244,42.6454H23.78952A18.85581,18.85581,0,0,1,4.93371,23.78959v-.00007A18.85581,18.85581,0,0,1,23.78952,4.93371Z"/><path class="b" d="M23.78952,4.93371H83.18244a18.85583,18.85583,0,0,1,18.85583,18.85583v0A18.85582,18.85582,0,0,1,83.18244,42.6454H23.78952A18.85581,18.85581,0,0,1,4.93371,23.78959v-.00007A18.85581,18.85581,0,0,1,23.78952,4.93371Z"/><path class="c" d="M23.78952,4.93371H83.18244a18.85583,18.85583,0,0,1,18.85583,18.85583v0A18.85582,18.85582,0,0,1,83.18244,42.6454H23.78952A18.85581,18.85581,0,0,1,4.93371,23.78959v-.00007A18.85581,18.85581,0,0,1,23.78952,4.93371Z"/><path class="d" d="M23.78952,4.93371H83.18244a18.85583,18.85583,0,0,1,18.85583,18.85583v0A18.85582,18.85582,0,0,1,83.18244,42.6454H23.78952A18.85581,18.85581,0,0,1,4.93371,23.78959v-.00007A18.85581,18.85581,0,0,1,23.78952,4.93371Z"/><path class="e" d="M19.23044,11.629a11.08754,11.08754,0,0,0-5.92816,5.93259"/><path class="f" d="M97.29894,12.66639c.00006.00024,5.94208,23.44468-16.61377,28.877,0,0,2.34815.22708,3.24551.19224a19.41074,19.41074,0,0,0,5.33508-1.00033,18.46392,18.46392,0,0,0,11.86471-15.21784,17.54691,17.54691,0,0,0-2.05651-10.04c-.2272-.44448-.58927-.96845-.84572-1.39679C97.98415,13.673,97.29894,12.66639,97.29894,12.66639Z"/><path class="g" d="M26.44179,15.5425a2.71739,2.71739,0,0,1,.57031,1.88477,2.94412,2.94412,0,0,1-.75,2.08007,3.98486,3.98486,0,0,1-1.88086,1.12891l-.40918.12109a.19238.19238,0,0,1-.18554-.07031.286.286,0,0,1-.085-.19922V19.47609a.28119.28119,0,0,1,.07031-.18359.48453.48453,0,0,1,.17969-.13476l.32031-.13086a1.6087,1.6087,0,0,0,.72461-.53516,1.67106,1.67106,0,0,0,.26562-1.01563,1.34217,1.34217,0,0,0-.2207-.8789,1.06749,1.06749,0,0,0-.81934-.25h-.26074l-1.33984-.00977a.24069.24069,0,0,1-.25-.25V13.77688a.23728.23728,0,0,1,.07519-.17969.24747.24747,0,0,1,.17481-.07031h1.08008a.24126.24126,0,0,1,.17968.07031.24434.24434,0,0,1,.07032.17969V14.9175h.62011A2.42347,2.42347,0,0,1,26.44179,15.5425Z"/><path class="g" d="M28.017,18.187a.23728.23728,0,0,1-.07519-.17969V15.1675a.23148.23148,0,0,1,.07519-.17969.25908.25908,0,0,1,.18458-.07031h1.25a.2451.2451,0,0,1,.18066.07031.24134.24134,0,0,1,.06934.17969v2.83984a.24677.24677,0,0,1-.06934.17383.2353.2353,0,0,1-.18066.07617h-1.25A.259.259,0,0,1,28.017,18.187Z"/><path class="g" d="M30.9164,20.55617a.23143.23143,0,0,1-.0752-.17968v-5.209a.23145.23145,0,0,1,.0752-.17969.25906.25906,0,0,1,.18457-.07031h2.36035a3.15025,3.15025,0,0,1,2.09473.584,2.427,2.427,0,0,1,.67578,1.92578v2.94922a.25147.25147,0,0,1-.07031.17578.23855.23855,0,0,1-.17969.07422H34.80116a.259.259,0,0,1-.18457-.07032.23146.23146,0,0,1-.07519-.17968v-2.959a1.00384,1.00384,0,0,0-1.12988-1.14062h-.87989v4.09961a.25142.25142,0,0,1-.07031.17578.23852.23852,0,0,1-.17969.07422H31.101A.259.259,0,0,1,30.9164,20.55617Z"/><path class="g" d="M42.67714,15.51125a2.31352,2.31352,0,0,1,.69434,1.85547v3.00977a.25482.25482,0,0,1-.06934.17578.24068.24068,0,0,1-.18066.07422H41.94179a.259.259,0,0,1-.18457-.07032.22822.22822,0,0,1-.0752-.17968v-2.959a1.00384,1.00384,0,0,0-1.12988-1.14062h-.65039a6.07657,6.07657,0,0,0-.14941,1.4707l.0791,2.62891a.23074.23074,0,0,1-.07422.17968.263.263,0,0,1-.18555.07032l-2.12011-.00977a.25908.25908,0,0,1-.18458-.07031.23436.23436,0,0,1-.07519-.17969v-.78906A.23858.23858,0,0,1,37.267,19.396a.26616.26616,0,0,1,.18458-.06836h.81054V17.75734a5.39665,5.39665,0,0,1,.14942-1.48046h-.58985a.259.259,0,0,1-.18457-.07032.23433.23433,0,0,1-.07519-.17968V15.1675a.23148.23148,0,0,1,.07519-.17969.25907.25907,0,0,1,.18457-.07031h2.79A3.10612,3.10612,0,0,1,42.67714,15.51125Z"/><path class="g" d="M48.24159,20.55617a.23831.23831,0,0,1-.07031-.17968v-2.959a1.00384,1.00384,0,0,0-1.12988-1.14062H44.76113a.259.259,0,0,1-.18457-.07032.23431.23431,0,0,1-.0752-.17968V15.1675a.23145.23145,0,0,1,.0752-.17969.259.259,0,0,1,.18457-.07031H47.0912a3.06856,3.06856,0,0,1,2.0752.60938,2.39883,2.39883,0,0,1,.69531,1.90039v2.94922a.23146.23146,0,0,1-.07519.17968.259.259,0,0,1-.18457.07032H48.42128A.24283.24283,0,0,1,48.24159,20.55617Zm-3.665,0a.23143.23143,0,0,1-.0752-.17968V17.45656a.23724.23724,0,0,1,.0752-.17968.259.259,0,0,1,.18457-.07032h1.18066a.24071.24071,0,0,1,.25.25v2.91993a.25147.25147,0,0,1-.07031.17578.23855.23855,0,0,1-.17969.07422H44.76113A.259.259,0,0,1,44.57656,20.55617Z"/><path class="g" d="M54.68105,15.5425a2.71739,2.71739,0,0,1,.57031,1.88477,2.94412,2.94412,0,0,1-.75,2.08007,3.98486,3.98486,0,0,1-1.88086,1.12891l-.40918.12109a.19239.19239,0,0,1-.18555-.07031.286.286,0,0,1-.085-.19922V19.47609a.2812.2812,0,0,1,.07032-.18359.48449.48449,0,0,1,.17968-.13476l.32032-.13086a1.60862,1.60862,0,0,0,.7246-.53516,1.671,1.671,0,0,0,.26563-1.01563,1.34217,1.34217,0,0,0-.2207-.8789,1.06751,1.06751,0,0,0-.81934-.25h-.26074l-1.33985-.00977a.24071.24071,0,0,1-.25-.25V13.77688a.23729.23729,0,0,1,.0752-.17969.24744.24744,0,0,1,.1748-.07031h1.08008a.24127.24127,0,0,1,.17969.07031.24433.24433,0,0,1,.07031.17969V14.9175h.62012A2.42348,2.42348,0,0,1,54.68105,15.5425Z"/><path class="g" d="M59.40077,16.78664q0,.53028.24024.60938l.2793.09179a.3074.3074,0,0,1,.16992.3086l.01074.58008a.2199.2199,0,0,1-.11524.18554.31826.31826,0,0,1-.23535.05469l-.51953-.07031a1.25343,1.25343,0,0,1-.86035-.57422,2.26535,2.26535,0,0,1-.33984-1.30469v-1.5a.23829.23829,0,0,1,.07031-.17969.24131.24131,0,0,1,.17969-.07031h1.96972a2.531,2.531,0,0,1,1.93067.67969,2.79468,2.79468,0,0,1,.67968,1.89062l.00977,4.12891a.23926.23926,0,0,1-.25.25H61.49062a.24751.24751,0,0,1-.17481-.07031.23436.23436,0,0,1-.07519-.17969V17.47609a1.24828,1.24828,0,0,0-.30469-.85351,1.13687,1.13687,0,0,0-.85547-.29492l-.67969.00976Z"/><path class="g" d="M64.02675,18.187a.23728.23728,0,0,1-.07519-.17969V15.1675a.23148.23148,0,0,1,.07519-.17969.25907.25907,0,0,1,.18457-.07031h1.25a.24508.24508,0,0,1,.18066.07031.24134.24134,0,0,1,.06934.17969v2.83984a.24677.24677,0,0,1-.06934.17383.23529.23529,0,0,1-.18066.07617h-1.25A.259.259,0,0,1,64.02675,18.187Z"/><path class="g" d="M71.45156,14.98781a.24137.24137,0,0,1,.06933.17969v.85938a.25486.25486,0,0,1-.06933.17578.24068.24068,0,0,1-.18067.07422h-.46a1.5259,1.5259,0,0,0-.18457.50976,3.53713,3.53713,0,0,0-.06543.71094v2.91016a.1861.1861,0,0,1-.09473.15429.34526.34526,0,0,1-.19531.06446H69.101a.20387.20387,0,0,1-.21973-.21875V17.38625a2.15091,2.15091,0,0,1,.2002-1.10937H66.80116a.25525.25525,0,0,1-.25-.25V15.1675a.23149.23149,0,0,1,.0752-.17969.24749.24749,0,0,1,.1748-.07031h4.46973A.24512.24512,0,0,1,71.45156,14.98781Z"/><path class="g" d="M77.5414,14.98781a.23833.23833,0,0,1,.07031.17969v2.959a2.17049,2.17049,0,0,1-.69043,1.64453,3.662,3.662,0,0,1-1.93945.875l-2.56055.541a.228.228,0,0,1-.19531-.05078.22117.22117,0,0,1-.085-.17969v-.86914a.26018.26018,0,0,1,.06543-.17578.2821.2821,0,0,1,.165-.09375l1.11035-.27148-1.18067-4.22852a1.289,1.289,0,0,1-.0498-.20117.19933.19933,0,0,1,.05957-.14063.195.195,0,0,1,.14063-.05859h1.2998a.23729.23729,0,0,1,.15039.04492.21314.21314,0,0,1,.08008.10547l1,4.08985a1.3713,1.3713,0,0,0,.73926-.56641,1.96521,1.96521,0,0,0,.20019-.96484v-2.459a.23833.23833,0,0,1,.07031-.17969.24133.24133,0,0,1,.17969-.07031h1.19043A.24286.24286,0,0,1,77.5414,14.98781Z"/><path class="g" d="M83.77089,15.52688a2.41514,2.41514,0,0,1,.63965,1.83007v3.01954a.25482.25482,0,0,1-.06934.17578.23917.23917,0,0,1-.18066.07422H81.43105a.25524.25524,0,0,1-.25-.25v-.85938a.23436.23436,0,0,1,.07519-.17969.24751.24751,0,0,1,.17481-.07031h1.29V17.437a1.20838,1.20838,0,0,0-.25-.81054.81821.81821,0,0,0-.65039-.28907h-.7793l-.85059,4.0293a.30408.30408,0,0,1-.08008.18555.23851.23851,0,0,1-.17968.07422H78.78066a.25418.25418,0,0,1-.18457-.07422.19735.19735,0,0,1-.05469-.18555l.97949-4.01953h-.66016a.23319.23319,0,0,1-.17968-.07617.2567.2567,0,0,1-.07032-.1836V15.1675a.23149.23149,0,0,1,.0752-.17969.24749.24749,0,0,1,.1748-.07031h3.21A2.36316,2.36316,0,0,1,83.77089,15.52688Z"/><path class="g" d="M26.00722,26.98781a.24134.24134,0,0,1,.06934.17969v2.61914a2.936,2.936,0,0,1-.39942,1.54492A2.71407,2.71407,0,0,1,24.5873,32.357a3.15922,3.15922,0,0,1-1.53028.34961h-.96a3.00826,3.00826,0,0,1-1.40039-.31054,2.20881,2.20881,0,0,1-.915-.83985,2.2397,2.2397,0,0,1-.31445-1.16992V27.1675a.22821.22821,0,0,1,.0752-.17969.259.259,0,0,1,.18457-.07031h1.0498a.24508.24508,0,0,1,.18066.07031.24134.24134,0,0,1,.06934.17969l.00977,2.40039a.92691.92691,0,0,0,.76074-.416A2.04485,2.04485,0,0,0,22.017,28.107V27.187a.26655.26655,0,0,1,.0752-.19531.25416.25416,0,0,1,.18457-.07422h1.04a.228.228,0,0,1,.1748.08008.26151.26151,0,0,1,.0752.18945v.93946a2.60334,2.60334,0,0,1-.58984,1.80078,2.47843,2.47843,0,0,1-1.66993.76953,1.301,1.301,0,0,0,.50489.49023,1.43974,1.43974,0,0,0,.69531.16992h.22949a1.98173,1.98173,0,0,0,.91992-.21093,1.57888,1.57888,0,0,0,.64063-.57813,1.54352,1.54352,0,0,0,.22949-.83008V27.1675a.23833.23833,0,0,1,.07031-.17969.24286.24286,0,0,1,.17969-.07031h1.04981A.2451.2451,0,0,1,26.00722,26.98781Z"/><path class="g" d="M31.70741,26.98781a.24134.24134,0,0,1,.06934.17969v.85938a.25482.25482,0,0,1-.06934.17578.24065.24065,0,0,1-.18066.07422h-.46a1.5259,1.5259,0,0,0-.18457.50976,3.53713,3.53713,0,0,0-.06543.71094v2.91016a.1861.1861,0,0,1-.09473.15429.34526.34526,0,0,1-.19531.06446H29.35683a.20387.20387,0,0,1-.21973-.21875V29.38625a2.15091,2.15091,0,0,1,.2002-1.10937H27.057a.25525.25525,0,0,1-.25-.25V27.1675a.23145.23145,0,0,1,.0752-.17969.24749.24749,0,0,1,.1748-.07031h4.46973A.24508.24508,0,0,1,31.70741,26.98781Z"/><path class="g" d="M32.7621,32.55617a.23146.23146,0,0,1-.07519-.17968v-5.209a.23148.23148,0,0,1,.07519-.17969.25907.25907,0,0,1,.18457-.07031H35.307a3.15025,3.15025,0,0,1,2.09473.584,2.427,2.427,0,0,1,.67578,1.92578v2.94922a.25147.25147,0,0,1-.07031.17578.23855.23855,0,0,1-.17969.07422H36.64687a.259.259,0,0,1-.18457-.07032.23143.23143,0,0,1-.0752-.17968v-2.959a1.00384,1.00384,0,0,0-1.12988-1.14062h-.87988v4.09961a.25143.25143,0,0,1-.07032.17578.23851.23851,0,0,1-.17968.07422H32.94667A.259.259,0,0,1,32.7621,32.55617Z"/><path class="g" d="M44.24648,27.52688a2.41518,2.41518,0,0,1,.63965,1.83007v3.01954a.25482.25482,0,0,1-.06934.17578.23921.23921,0,0,1-.18066.07422h-2.7295a.25525.25525,0,0,1-.25-.25v-.85938a.23433.23433,0,0,1,.0752-.17969.24749.24749,0,0,1,.1748-.07031h1.29V29.437a1.20833,1.20833,0,0,0-.25-.81054.8182.8182,0,0,0-.65039-.28907H41.517l-.85058,4.0293a.30414.30414,0,0,1-.08008.18555.23852.23852,0,0,1-.17969.07422H39.25624a.25422.25422,0,0,1-.18457-.07422.19738.19738,0,0,1-.05469-.18555l.9795-4.01953h-.66016a.23323.23323,0,0,1-.17969-.07617.25674.25674,0,0,1-.07031-.1836V27.1675a.23145.23145,0,0,1,.0752-.17969.24747.24747,0,0,1,.1748-.07031h3.21A2.36318,2.36318,0,0,1,44.24648,27.52688Z"/><path class="g" d="M47.99159,32.55227a.24324.24324,0,0,1-.07421-.17578v-.85938a.23359.23359,0,0,1,.07421-.17969.2498.2498,0,0,1,.17579-.07031h2.50976V29.4175a.99924.99924,0,0,0-1.12988-1.13086H48.267a.237.237,0,0,1-.17968-.07422.26137.26137,0,0,1-.07032-.18554V27.1675a.23149.23149,0,0,1,.0752-.17969.24749.24749,0,0,1,.1748-.07031h1.33008a3.25194,3.25194,0,0,1,2.11524.58984,2.3383,2.3383,0,0,1,.71484,1.91016v1.84961h.34961a.23926.23926,0,0,1,.25.25v.85938a.25482.25482,0,0,1-.06934.17578.24068.24068,0,0,1-.18066.07422H48.16738A.24558.24558,0,0,1,47.99159,32.55227Z"/><path class="g" d="M57.39687,27.5425a2.71739,2.71739,0,0,1,.57031,1.88477,2.94412,2.94412,0,0,1-.75,2.08007,3.98486,3.98486,0,0,1-1.88086,1.12891l-.40918.12109a.19239.19239,0,0,1-.18555-.07031.286.286,0,0,1-.085-.19922V31.47609a.2812.2812,0,0,1,.07032-.18359.48449.48449,0,0,1,.17968-.13476l.32032-.13086a1.6087,1.6087,0,0,0,.72461-.53516,1.67106,1.67106,0,0,0,.26562-1.01563,1.34217,1.34217,0,0,0-.2207-.8789,1.06749,1.06749,0,0,0-.81934-.25H54.9164l-1.33984-.00977a.24069.24069,0,0,1-.25-.25V25.77688a.23728.23728,0,0,1,.07519-.17969.24747.24747,0,0,1,.17481-.07031h1.08007a.24127.24127,0,0,1,.17969.07031.24433.24433,0,0,1,.07031.17969V26.9175h.62012A2.42348,2.42348,0,0,1,57.39687,27.5425Z"/><path class="g" d="M65.37734,26.98781a.24137.24137,0,0,1,.06933.17969v2.61914a2.936,2.936,0,0,1-.39941,1.54492A2.714,2.714,0,0,1,63.95741,32.357a3.15918,3.15918,0,0,1-1.53027.34961h-.96a3.00826,3.00826,0,0,1-1.40039-.31054,2.20881,2.20881,0,0,1-.915-.83985,2.2397,2.2397,0,0,1-.31445-1.16992V27.1675a.22824.22824,0,0,1,.07519-.17969.25907.25907,0,0,1,.18457-.07031h1.04981a.24508.24508,0,0,1,.18066.07031.24134.24134,0,0,1,.06934.17969l.00976,2.40039a.92694.92694,0,0,0,.76075-.416A2.04485,2.04485,0,0,0,61.3871,28.107V27.187a.26651.26651,0,0,1,.0752-.19531.25416.25416,0,0,1,.18457-.07422h1.04a.228.228,0,0,1,.1748.08008.26155.26155,0,0,1,.0752.18945v.93946a2.60329,2.60329,0,0,1-.58985,1.80078,2.47839,2.47839,0,0,1-1.66992.76953,1.30089,1.30089,0,0,0,.50488.49023,1.43977,1.43977,0,0,0,.69532.16992h.22949a1.98179,1.98179,0,0,0,.91992-.21093,1.57888,1.57888,0,0,0,.64063-.57813,1.54352,1.54352,0,0,0,.22949-.83008V27.1675a.23833.23833,0,0,1,.07031-.17969.24286.24286,0,0,1,.17969-.07031h1.0498A.24512.24512,0,0,1,65.37734,26.98781Z"/><path class="g" d="M70.2162,32.55617a.23831.23831,0,0,1-.07031-.17968v-2.959A1.00384,1.00384,0,0,0,69.016,28.27688H66.73573a.259.259,0,0,1-.18457-.07032.23433.23433,0,0,1-.07519-.17968V27.1675a.23148.23148,0,0,1,.07519-.17969.25907.25907,0,0,1,.18457-.07031h2.33008a3.06858,3.06858,0,0,1,2.0752.60938,2.39883,2.39883,0,0,1,.69531,1.90039v2.94922a.23146.23146,0,0,1-.07519.17968.259.259,0,0,1-.18457.07032H70.39589A.24283.24283,0,0,1,70.2162,32.55617Zm-3.665,0a.23146.23146,0,0,1-.07519-.17968V29.45656a.23727.23727,0,0,1,.07519-.17968.259.259,0,0,1,.18457-.07032H67.9164a.24071.24071,0,0,1,.25.25v2.91993a.25147.25147,0,0,1-.07031.17578.23855.23855,0,0,1-.17969.07422H66.73573A.259.259,0,0,1,66.55116,32.55617Z"/><path class="g" d="M80.37148,27.51125a2.31352,2.31352,0,0,1,.69433,1.85547v3.00977a.25481.25481,0,0,1-.06933.17578.24071.24071,0,0,1-.18067.07422H79.63613a.259.259,0,0,1-.18457-.07032.22819.22819,0,0,1-.0752-.17968v-2.959a1.00384,1.00384,0,0,0-1.12988-1.14062h-.65039a6.07655,6.07655,0,0,0-.14942,1.4707l.0791,2.62891a.23073.23073,0,0,1-.07421.17968.263.263,0,0,1-.18555.07032l-2.12012-.00977a.25907.25907,0,0,1-.18457-.07031.23436.23436,0,0,1-.07519-.17969v-.78906a.23858.23858,0,0,1,.07519-.18164.26616.26616,0,0,1,.18457-.06836h.81055V29.75734a5.39705,5.39705,0,0,1,.14941-1.48046H75.516a.259.259,0,0,1-.18457-.07032.23431.23431,0,0,1-.0752-.17968V27.1675a.23145.23145,0,0,1,.0752-.17969.25906.25906,0,0,1,.18457-.07031h2.79A3.10614,3.10614,0,0,1,80.37148,27.51125Z"/><path class="g" d="M87.53652,32.4175a.20746.20746,0,0,1-.05957.14453.1965.1965,0,0,1-.15039.06446h-1.2295a.3397.3397,0,0,1-.2705-.09375c-.05274-.06446-.083-.09961-.08985-.10547l-1.75-2.53125a1.13088,1.13088,0,0,0-.33984.55078,2.624,2.624,0,0,0-.08008.66015v1.25a.26654.26654,0,0,1-.0752.19532.25418.25418,0,0,1-.18457.07422h-.98046a.22808.22808,0,0,1-.17481-.08008.26563.26563,0,0,1-.07519-.18946V31.11672a3.498,3.498,0,0,1,.23046-1.37891,2.53816,2.53816,0,0,1,.87012-1l-1.02051-1.4707a.21359.21359,0,0,1-.0498-.14062.223.223,0,0,1,.21-.209h1.17969a.34617.34617,0,0,1,.21582.05859.80975.80975,0,0,1,.14453.16016l1.61035,2.28125a.88878.88878,0,0,0,.35449-.44141,1.91278,1.91278,0,0,0,.0752-.56835V27.187a.27556.27556,0,0,1,.07031-.19531.237.237,0,0,1,.17969-.07422h1.0498a.24138.24138,0,0,1,.18555.08008.26473.26473,0,0,1,.07422.18945V28.4468a2.638,2.638,0,0,1-.25488,1.166,2.3905,2.3905,0,0,1-.92481.94336l1.21973,1.72071A.24264.24264,0,0,1,87.53652,32.4175Z"/></svg>