<svg xmlns="http://www.w3.org/2000/svg" viewBox="0 0 106.97198 47.57911"><defs><style>.a,.b,.d,.e{fill:none;}.a{stroke:#29235c;stroke-width:9.86742px;opacity:0.14;}.a,.b,.d{stroke-miterlimit:10;}.b,.e{stroke:#fff;}.b{stroke-width:7.40057px;}.c{fill:#92d3f4;}.d{stroke:#4ab3ec;}.d,.e{stroke-width:1.85014px;}.e{stroke-linecap:round;stroke-linejoin:round;}.f{fill:#77ceec;}.g{fill:#2d2a28;}</style></defs><path class="a" d="M23.78952,4.93371H83.18244a18.85583,18.85583,0,0,1,18.85583,18.85583v0A18.85582,18.85582,0,0,1,83.18244,42.6454H23.78952A18.85581,18.85581,0,0,1,4.93371,23.78959v-.00007A18.85581,18.85581,0,0,1,23.78952,4.93371Z"/><path class="b" d="M23.78952,4.93371H83.18244a18.85583,18.85583,0,0,1,18.85583,18.85583v0A18.85582,18.85582,0,0,1,83.18244,42.6454H23.78952A18.85581,18.85581,0,0,1,4.93371,23.78959v-.00007A18.85581,18.85581,0,0,1,23.78952,4.93371Z"/><path class="c" d="M23.78952,4.93371H83.18244a18.85583,18.85583,0,0,1,18.85583,18.85583v0A18.85582,18.85582,0,0,1,83.18244,42.6454H23.78952A18.85581,18.85581,0,0,1,4.93371,23.78959v-.00007A18.85581,18.85581,0,0,1,23.78952,4.93371Z"/><path class="d" d="M23.78952,4.93371H83.18244a18.85583,18.85583,0,0,1,18.85583,18.85583v0A18.85582,18.85582,0,0,1,83.18244,42.6454H23.78952A18.85581,18.85581,0,0,1,4.93371,23.78959v-.00007A18.85581,18.85581,0,0,1,23.78952,4.93371Z"/><path class="e" d="M19.23044,11.629a11.08754,11.08754,0,0,0-5.92816,5.93259"/><path class="f" d="M97.29894,12.66639c.00006.00024,5.94208,23.44468-16.61377,28.877,0,0,2.34815.22708,3.24551.19224a19.41074,19.41074,0,0,0,5.33508-1.00033,18.46392,18.46392,0,0,0,11.86471-15.21784,17.54691,17.54691,0,0,0-2.05651-10.04c-.2272-.44448-.58927-.96845-.84572-1.39679C97.98415,13.673,97.29894,12.66639,97.29894,12.66639Z"/><path class="g" d="M26.44261,15.5425a2.71739,2.71739,0,0,1,.57031,1.88477,2.94412,2.94412,0,0,1-.75,2.08007,3.9849,3.9849,0,0,1-1.88086,1.12891l-.40918.12109a.19239.19239,0,0,1-.18555-.07031.286.286,0,0,1-.085-.19922V19.47609a.28124.28124,0,0,1,.07031-.18359.48461.48461,0,0,1,.17969-.13476l.32031-.13086a1.6087,1.6087,0,0,0,.72461-.53516,1.671,1.671,0,0,0,.26563-1.01563,1.3421,1.3421,0,0,0-.22071-.8789,1.06747,1.06747,0,0,0-.81933-.25h-.26074l-1.33985-.00977a.24071.24071,0,0,1-.25-.25V13.77688a.23725.23725,0,0,1,.0752-.17969.24744.24744,0,0,1,.1748-.07031h1.08008a.24129.24129,0,0,1,.17969.07031.24437.24437,0,0,1,.07031.17969V14.9175h.62012A2.42348,2.42348,0,0,1,26.44261,15.5425Z"/><path class="g" d="M28.0178,18.187a.23728.23728,0,0,1-.07519-.17969V15.1675a.23148.23148,0,0,1,.07519-.17969.25907.25907,0,0,1,.18457-.07031h1.25a.24508.24508,0,0,1,.18066.07031.24134.24134,0,0,1,.06934.17969v2.83984a.24677.24677,0,0,1-.06934.17383.23529.23529,0,0,1-.18066.07617h-1.25A.259.259,0,0,1,28.0178,18.187Z"/><path class="g" d="M30.91721,20.55617a.23146.23146,0,0,1-.07519-.17968v-5.209a.23148.23148,0,0,1,.07519-.17969.25907.25907,0,0,1,.18457-.07031h2.36036a3.15022,3.15022,0,0,1,2.09472.584,2.427,2.427,0,0,1,.67578,1.92578v2.94922a.25142.25142,0,0,1-.07031.17578.23852.23852,0,0,1-.17969.07422H34.802a.259.259,0,0,1-.18457-.07032.23147.23147,0,0,1-.0752-.17968v-2.959a1.00384,1.00384,0,0,0-1.12988-1.14062h-.87988v4.09961a.25147.25147,0,0,1-.07031.17578.23855.23855,0,0,1-.17969.07422H31.10178A.259.259,0,0,1,30.91721,20.55617Z"/><path class="g" d="M42.678,15.51125a2.31352,2.31352,0,0,1,.69433,1.85547v3.00977a.25481.25481,0,0,1-.06933.17578.24072.24072,0,0,1-.18067.07422H41.94261a.259.259,0,0,1-.18458-.07032.22821.22821,0,0,1-.07519-.17968v-2.959A1.00384,1.00384,0,0,0,40.553,16.27688h-.65039a6.07655,6.07655,0,0,0-.14942,1.4707l.0791,2.62891a.2307.2307,0,0,1-.07422.17968.263.263,0,0,1-.18554.07032l-2.12012-.00977a.25907.25907,0,0,1-.18457-.07031.23436.23436,0,0,1-.07519-.17969v-.78906a.23858.23858,0,0,1,.07519-.18164.26616.26616,0,0,1,.18457-.06836h.81055V17.75734a5.39705,5.39705,0,0,1,.14941-1.48046h-.58984a.259.259,0,0,1-.18457-.07032.23431.23431,0,0,1-.0752-.17968V15.1675a.23145.23145,0,0,1,.0752-.17969.25906.25906,0,0,1,.18457-.07031h2.79A3.10614,3.10614,0,0,1,42.678,15.51125Z"/><path class="g" d="M48.24241,20.55617a.23827.23827,0,0,1-.07031-.17968v-2.959a1.00385,1.00385,0,0,0-1.12989-1.14062H44.76194a.259.259,0,0,1-.18457-.07032.23433.23433,0,0,1-.07519-.17968V15.1675a.23148.23148,0,0,1,.07519-.17969.25907.25907,0,0,1,.18457-.07031H47.092a3.06855,3.06855,0,0,1,2.07519.60938,2.39884,2.39884,0,0,1,.69532,1.90039v2.94922a.23143.23143,0,0,1-.0752.17968.259.259,0,0,1-.18457.07032H48.4221A.24281.24281,0,0,1,48.24241,20.55617Zm-3.665,0a.23146.23146,0,0,1-.07519-.17968V17.45656a.23727.23727,0,0,1,.07519-.17968.259.259,0,0,1,.18457-.07032h1.18067a.24072.24072,0,0,1,.25.25v2.91993a.25143.25143,0,0,1-.07032.17578.23851.23851,0,0,1-.17968.07422H44.76194A.259.259,0,0,1,44.57737,20.55617Z"/><path class="g" d="M54.68186,15.5425a2.71734,2.71734,0,0,1,.57032,1.88477,2.94412,2.94412,0,0,1-.75,2.08007,3.9849,3.9849,0,0,1-1.88086,1.12891l-.40918.12109a.19238.19238,0,0,1-.18555-.07031.286.286,0,0,1-.085-.19922V19.47609a.28124.28124,0,0,1,.07031-.18359.48461.48461,0,0,1,.17969-.13476l.32031-.13086a1.6087,1.6087,0,0,0,.72461-.53516,1.671,1.671,0,0,0,.26563-1.01563,1.3421,1.3421,0,0,0-.22071-.8789,1.06747,1.06747,0,0,0-.81933-.25h-.26075l-1.33984-.00977a.24069.24069,0,0,1-.25-.25V13.77688a.23725.23725,0,0,1,.0752-.17969.24743.24743,0,0,1,.1748-.07031h1.08008a.24129.24129,0,0,1,.17969.07031.24437.24437,0,0,1,.07031.17969V14.9175h.62012A2.42344,2.42344,0,0,1,54.68186,15.5425Z"/><path class="g" d="M59.40159,16.78664q0,.53028.24023.60938l.2793.09179a.3074.3074,0,0,1,.16992.3086l.01074.58008a.21991.21991,0,0,1-.11523.18554.31827.31827,0,0,1-.23535.05469l-.51953-.07031a1.25343,1.25343,0,0,1-.86035-.57422,2.26527,2.26527,0,0,1-.33985-1.30469v-1.5a.23833.23833,0,0,1,.07031-.17969.24133.24133,0,0,1,.17969-.07031H60.2512a2.531,2.531,0,0,1,1.93066.67969,2.79473,2.79473,0,0,1,.67969,1.89062l.00977,4.12891a.23926.23926,0,0,1-.25.25H61.49143a.24749.24749,0,0,1-.1748-.07031.23433.23433,0,0,1-.0752-.17969V17.47609a1.24828,1.24828,0,0,0-.30468-.85351,1.13687,1.13687,0,0,0-.85547-.29492l-.67969.00976Z"/><path class="g" d="M64.02757,18.187a.23725.23725,0,0,1-.0752-.17969V15.1675a.23145.23145,0,0,1,.0752-.17969.259.259,0,0,1,.18457-.07031h1.25a.24508.24508,0,0,1,.18066.07031.24134.24134,0,0,1,.06934.17969v2.83984a.24677.24677,0,0,1-.06934.17383.23529.23529,0,0,1-.18066.07617h-1.25A.259.259,0,0,1,64.02757,18.187Z"/><path class="g" d="M71.45237,14.98781a.24134.24134,0,0,1,.06934.17969v.85938a.25482.25482,0,0,1-.06934.17578.24065.24065,0,0,1-.18066.07422h-.46a1.52568,1.52568,0,0,0-.18457.50976,3.53713,3.53713,0,0,0-.06543.71094v2.91016a.1861.1861,0,0,1-.09473.15429.34531.34531,0,0,1-.19531.06446H69.10178a.20387.20387,0,0,1-.21972-.21875V17.38625a2.15093,2.15093,0,0,1,.20019-1.10937H66.802a.25525.25525,0,0,1-.25-.25V15.1675a.23145.23145,0,0,1,.0752-.17969.24747.24747,0,0,1,.1748-.07031h4.46973A.24508.24508,0,0,1,71.45237,14.98781Z"/><path class="g" d="M77.54221,14.98781a.2383.2383,0,0,1,.07032.17969v2.959A2.17049,2.17049,0,0,1,76.9221,19.771a3.662,3.662,0,0,1-1.93946.875l-2.56054.541a.228.228,0,0,1-.19532-.05078.22117.22117,0,0,1-.085-.17969v-.86914a.26023.26023,0,0,1,.06543-.17578.28213.28213,0,0,1,.165-.09375l1.11035-.27148L72.302,15.31789a1.289,1.289,0,0,1-.0498-.20117.19929.19929,0,0,1,.05957-.14063.195.195,0,0,1,.14062-.05859h1.29981a.23729.23729,0,0,1,.15039.04492.21312.21312,0,0,1,.08007.10547l1,4.08985a1.37122,1.37122,0,0,0,.73926-.56641,1.9652,1.9652,0,0,0,.2002-.96484v-2.459a.23829.23829,0,0,1,.07031-.17969.24133.24133,0,0,1,.17969-.07031h1.19043A.24282.24282,0,0,1,77.54221,14.98781Z"/><path class="g" d="M83.77171,15.52688a2.41518,2.41518,0,0,1,.63965,1.83007v3.01954a.25482.25482,0,0,1-.06934.17578.23921.23921,0,0,1-.18066.07422h-2.7295a.25525.25525,0,0,1-.25-.25v-.85938a.23433.23433,0,0,1,.0752-.17969.24749.24749,0,0,1,.1748-.07031h1.29V17.437a1.20833,1.20833,0,0,0-.25-.81054.8182.8182,0,0,0-.65039-.28907h-.7793l-.85058,4.0293a.30414.30414,0,0,1-.08008.18555.23852.23852,0,0,1-.17969.07422H78.78147a.25422.25422,0,0,1-.18457-.07422.19738.19738,0,0,1-.05469-.18555l.9795-4.01953h-.66016a.23323.23323,0,0,1-.17969-.07617.25674.25674,0,0,1-.07031-.1836V15.1675a.23145.23145,0,0,1,.0752-.17969.24747.24747,0,0,1,.1748-.07031h3.21A2.36318,2.36318,0,0,1,83.77171,15.52688Z"/><path class="g" d="M26.008,26.98781a.24134.24134,0,0,1,.06934.17969v2.61914a2.936,2.936,0,0,1-.39941,1.54492A2.7141,2.7141,0,0,1,24.58811,32.357a3.15918,3.15918,0,0,1-1.53027.34961h-.96a3.00826,3.00826,0,0,1-1.40039-.31054,2.20875,2.20875,0,0,1-.915-.83985,2.2397,2.2397,0,0,1-.31445-1.16992V27.1675a.22824.22824,0,0,1,.07519-.17969.25907.25907,0,0,1,.18457-.07031h1.04981a.24508.24508,0,0,1,.18066.07031.24134.24134,0,0,1,.06934.17969l.00976,2.40039a.92691.92691,0,0,0,.76074-.416A2.04474,2.04474,0,0,0,22.0178,28.107V27.187a.26651.26651,0,0,1,.0752-.19531.25414.25414,0,0,1,.18457-.07422h1.04a.228.228,0,0,1,.1748.08008.26155.26155,0,0,1,.0752.18945v.93946a2.60329,2.60329,0,0,1-.58985,1.80078,2.47839,2.47839,0,0,1-1.66992.76953,1.30089,1.30089,0,0,0,.50488.49023,1.43976,1.43976,0,0,0,.69531.16992h.2295a1.98179,1.98179,0,0,0,.91992-.21093,1.57885,1.57885,0,0,0,.64062-.57813,1.54353,1.54353,0,0,0,.2295-.83008V27.1675a.23829.23829,0,0,1,.07031-.17969.24283.24283,0,0,1,.17969-.07031h1.0498A.24508.24508,0,0,1,26.008,26.98781Z"/><path class="g" d="M31.70823,26.98781a.24134.24134,0,0,1,.06934.17969v.85938a.25482.25482,0,0,1-.06934.17578.24065.24065,0,0,1-.18066.07422h-.46a1.52589,1.52589,0,0,0-.18458.50976,3.53789,3.53789,0,0,0-.06542.71094v2.91016a.1861.1861,0,0,1-.09473.15429.34531.34531,0,0,1-.19531.06446H29.35764a.20387.20387,0,0,1-.21972-.21875V29.38625a2.15093,2.15093,0,0,1,.20019-1.10937H27.05784a.25524.25524,0,0,1-.25-.25V27.1675a.23148.23148,0,0,1,.07519-.17969.24751.24751,0,0,1,.17481-.07031h4.46973A.24508.24508,0,0,1,31.70823,26.98781Z"/><path class="g" d="M32.76292,32.55617a.23143.23143,0,0,1-.0752-.17968v-5.209a.23145.23145,0,0,1,.0752-.17969.25906.25906,0,0,1,.18457-.07031h2.36035a3.15025,3.15025,0,0,1,2.09473.584,2.427,2.427,0,0,1,.67578,1.92578v2.94922a.25143.25143,0,0,1-.07032.17578.23851.23851,0,0,1-.17968.07422H36.64768a.259.259,0,0,1-.18457-.07032.23146.23146,0,0,1-.07519-.17968v-2.959A1.00385,1.00385,0,0,0,35.258,28.27688h-.87988v4.09961a.25147.25147,0,0,1-.07031.17578.23855.23855,0,0,1-.17969.07422H32.94749A.259.259,0,0,1,32.76292,32.55617Z"/><path class="g" d="M44.24729,27.52688a2.41514,2.41514,0,0,1,.63965,1.83007v3.01954a.25486.25486,0,0,1-.06933.17578.23921.23921,0,0,1-.18067.07422H41.90745a.25524.25524,0,0,1-.25-.25v-.85938a.23436.23436,0,0,1,.07519-.17969.24751.24751,0,0,1,.17481-.07031h1.29V29.437a1.20838,1.20838,0,0,0-.25-.81054.8182.8182,0,0,0-.65039-.28907h-.7793l-.85059,4.0293a.30413.30413,0,0,1-.08007.18555.23855.23855,0,0,1-.17969.07422H39.25706a.2542.2542,0,0,1-.18457-.07422.19735.19735,0,0,1-.05469-.18555l.97949-4.01953h-.66015a.2332.2332,0,0,1-.17969-.07617.25669.25669,0,0,1-.07031-.1836V27.1675a.23148.23148,0,0,1,.07519-.17969.24751.24751,0,0,1,.17481-.07031h3.21A2.36316,2.36316,0,0,1,44.24729,27.52688Z"/><path class="g" d="M47.99241,32.55227a.24325.24325,0,0,1-.07422-.17578v-.85938a.2336.2336,0,0,1,.07422-.17969.24977.24977,0,0,1,.17578-.07031H50.678V29.4175a.99925.99925,0,0,0-1.12989-1.13086H48.2678a.237.237,0,0,1-.17969-.07422.26141.26141,0,0,1-.07031-.18554V27.1675a.23145.23145,0,0,1,.0752-.17969.24747.24747,0,0,1,.1748-.07031h1.33008a3.25191,3.25191,0,0,1,2.11523.58984A2.33827,2.33827,0,0,1,52.428,29.4175v1.84961h.34961a.23926.23926,0,0,1,.25.25v.85938a.25482.25482,0,0,1-.06934.17578.24068.24068,0,0,1-.18066.07422H48.16819A.24555.24555,0,0,1,47.99241,32.55227Z"/><path class="g" d="M57.39768,27.5425a2.71734,2.71734,0,0,1,.57032,1.88477,2.94412,2.94412,0,0,1-.75,2.08007,3.9849,3.9849,0,0,1-1.88086,1.12891l-.40918.12109a.19238.19238,0,0,1-.18555-.07031.286.286,0,0,1-.085-.19922V31.47609a.28124.28124,0,0,1,.07031-.18359.48461.48461,0,0,1,.17969-.13476l.32031-.13086a1.6087,1.6087,0,0,0,.72461-.53516,1.671,1.671,0,0,0,.26563-1.01563,1.3421,1.3421,0,0,0-.22071-.8789,1.06747,1.06747,0,0,0-.81933-.25h-.26075l-1.33984-.00977a.24069.24069,0,0,1-.25-.25V25.77688a.23725.23725,0,0,1,.0752-.17969.24743.24743,0,0,1,.1748-.07031h1.08008a.24129.24129,0,0,1,.17969.07031.24437.24437,0,0,1,.07031.17969V26.9175h.62012A2.42344,2.42344,0,0,1,57.39768,27.5425Z"/><path class="g" d="M65.37815,26.98781a.24134.24134,0,0,1,.06934.17969v2.61914a2.93593,2.93593,0,0,1-.39942,1.54492A2.71407,2.71407,0,0,1,63.95823,32.357a3.15918,3.15918,0,0,1-1.53027.34961h-.96a3.00824,3.00824,0,0,1-1.40039-.31054,2.20875,2.20875,0,0,1-.915-.83985,2.23971,2.23971,0,0,1-.31446-1.16992V27.1675a.22824.22824,0,0,1,.0752-.17969.25906.25906,0,0,1,.18457-.07031h1.0498a.2451.2451,0,0,1,.18067.07031.24133.24133,0,0,1,.06933.17969l.00977,2.40039a.92691.92691,0,0,0,.76074-.416,2.04474,2.04474,0,0,0,.21973-1.04493V27.187a.26655.26655,0,0,1,.07519-.19531.25418.25418,0,0,1,.18457-.07422h1.04a.228.228,0,0,1,.17481.08008.26154.26154,0,0,1,.07519.18945v.93946a2.60334,2.60334,0,0,1-.58984,1.80078,2.47843,2.47843,0,0,1-1.66992.76953,1.30089,1.30089,0,0,0,.50488.49023,1.43976,1.43976,0,0,0,.69531.16992h.22949a1.9818,1.9818,0,0,0,.91993-.21093,1.57891,1.57891,0,0,0,.64062-.57813,1.54352,1.54352,0,0,0,.22949-.83008V27.1675a.2383.2383,0,0,1,.07032-.17969.24282.24282,0,0,1,.17968-.07031h1.04981A.24508.24508,0,0,1,65.37815,26.98781Z"/><path class="g" d="M70.217,32.55617a.23827.23827,0,0,1-.07031-.17968v-2.959a1.00385,1.00385,0,0,0-1.12989-1.14062H66.73655a.259.259,0,0,1-.18457-.07032.23434.23434,0,0,1-.0752-.17968V27.1675a.23149.23149,0,0,1,.0752-.17969.25906.25906,0,0,1,.18457-.07031h2.33008a3.06855,3.06855,0,0,1,2.07519.60938,2.39884,2.39884,0,0,1,.69532,1.90039v2.94922a.23143.23143,0,0,1-.0752.17968.259.259,0,0,1-.18457.07032H70.39671A.24279.24279,0,0,1,70.217,32.55617Zm-3.665,0a.23147.23147,0,0,1-.0752-.17968V29.45656a.23728.23728,0,0,1,.0752-.17968.259.259,0,0,1,.18457-.07032h1.18066a.24071.24071,0,0,1,.25.25v2.91993a.25142.25142,0,0,1-.07031.17578.23852.23852,0,0,1-.17969.07422H66.73655A.259.259,0,0,1,66.552,32.55617Z"/><path class="g" d="M80.37229,27.51125a2.31352,2.31352,0,0,1,.69434,1.85547v3.00977a.25482.25482,0,0,1-.06934.17578.24068.24068,0,0,1-.18066.07422H79.63694a.259.259,0,0,1-.18457-.07032.22821.22821,0,0,1-.07519-.17968v-2.959a1.00385,1.00385,0,0,0-1.12989-1.14062H77.5969a6.07657,6.07657,0,0,0-.14941,1.4707l.0791,2.62891a.2307.2307,0,0,1-.07422.17968.263.263,0,0,1-.18555.07032l-2.12011-.00977a.259.259,0,0,1-.18457-.07031.23433.23433,0,0,1-.0752-.17969v-.78906a.23855.23855,0,0,1,.0752-.18164.26612.26612,0,0,1,.18457-.06836h.81054V29.75734a5.397,5.397,0,0,1,.14942-1.48046h-.58985a.259.259,0,0,1-.18457-.07032.23433.23433,0,0,1-.07519-.17968V27.1675a.23148.23148,0,0,1,.07519-.17969.25907.25907,0,0,1,.18457-.07031h2.79A3.1061,3.1061,0,0,1,80.37229,27.51125Z"/><path class="g" d="M87.53733,32.4175a.20741.20741,0,0,1-.05957.14453.19649.19649,0,0,1-.15039.06446H86.09788a.33973.33973,0,0,1-.27051-.09375c-.05273-.06446-.083-.09961-.08984-.10547l-1.75-2.53125a1.1309,1.1309,0,0,0-.33985.55078,2.624,2.624,0,0,0-.08007.66015v1.25a.26658.26658,0,0,1-.0752.19532.2542.2542,0,0,1-.18457.07422h-.98047a.228.228,0,0,1-.1748-.08008.2656.2656,0,0,1-.0752-.18946V31.11672a3.498,3.498,0,0,1,.23047-1.37891,2.53816,2.53816,0,0,1,.87012-1l-1.02051-1.4707a.2136.2136,0,0,1-.04981-.14062.223.223,0,0,1,.21-.209h1.17968a.34617.34617,0,0,1,.21582.05859.80913.80913,0,0,1,.14453.16016L85.468,29.4175a.88883.88883,0,0,0,.35449-.44141,1.91313,1.91313,0,0,0,.07519-.56835V27.187a.27552.27552,0,0,1,.07032-.19531.237.237,0,0,1,.17968-.07422h1.04981a.24136.24136,0,0,1,.18554.08008.26469.26469,0,0,1,.07422.18945V28.4468a2.638,2.638,0,0,1-.25488,1.166,2.3904,2.3904,0,0,1-.9248.94336l1.21972,1.72071A.24257.24257,0,0,1,87.53733,32.4175Z"/></svg>