<svg xmlns="http://www.w3.org/2000/svg" viewBox="0 0 6.00491 6.00491"><defs><style>.a{fill:#2b58ca;}.b,.c,.d{fill:none;}.b{stroke:#8cafed;stroke-miterlimit:10;}.b,.d{stroke-width:0.28082px;}.c{stroke:#fff;stroke-width:0.56165px;}.c,.d{stroke-linecap:round;stroke-linejoin:round;}.d{stroke:#819ef7;}.e{fill:#356bf4;}</style></defs><path class="a" d="M3.00245.14043h0a2.862,2.862,0,0,1,2.862,2.862v0a2.862,2.862,0,0,1-2.862,2.862h0a2.862,2.862,0,0,1-2.862-2.862v0a2.862,2.862,0,0,1,2.862-2.862Z" transform="translate(-0.06541 0.06687) rotate(-1.26228)"/><path class="b" d="M3.00245.14043h0a2.862,2.862,0,0,1,2.862,2.862v0a2.862,2.862,0,0,1-2.862,2.862h0a2.862,2.862,0,0,1-2.862-2.862v0a2.862,2.862,0,0,1,2.862-2.862Z" transform="translate(-0.06541 0.06687) rotate(-1.26228)"/><polyline class="c" points="2.552 4.155 3.705 3.002 2.552 1.849"/><path class="d" d="M2.10643,1.15669a1.68289,1.68289,0,0,0-.89981.90047"/><path class="e" d="M5.1459,1.31415S6.04782,4.8727,2.62419,5.69724c0,0,.35641.03446.49261.02918a2.9463,2.9463,0,0,0,.80979-.15184A2.80255,2.80255,0,0,0,5.72747,3.26475a2.66329,2.66329,0,0,0-.31215-1.52392c-.03448-.06747-.08944-.147-.12836-.212C5.24991,1.46693,5.1459,1.31415,5.1459,1.31415Z"/></svg>