<svg xmlns="http://www.w3.org/2000/svg" viewBox="0 0 6.00491 6.00491"><defs><style>.a{fill:#203d87;}.b,.c,.d{fill:none;}.b{stroke:#91b2ec;stroke-miterlimit:10;}.b,.d{stroke-width:0.28082px;}.c{stroke:#fff;stroke-width:0.56165px;}.c,.d{stroke-linecap:round;stroke-linejoin:round;}.d{stroke:#7e6fec;}.e{fill:#3563db;}</style></defs><path class="a" d="M3.00245.14043h0a2.862,2.862,0,0,1,2.862,2.862v0a2.862,2.862,0,0,1-2.862,2.862h0a2.862,2.862,0,0,1-2.862-2.862v0a2.862,2.862,0,0,1,2.862-2.862Z" transform="translate(-0.06541 0.06687) rotate(-1.26226)"/><path class="b" d="M3.00245.14043h0a2.862,2.862,0,0,1,2.862,2.862v0a2.862,2.862,0,0,1-2.862,2.862h0a2.862,2.862,0,0,1-2.862-2.862v0a2.862,2.862,0,0,1,2.862-2.862Z" transform="translate(-0.06541 0.06687) rotate(-1.26226)"/><polyline class="c" points="3.425 4.155 2.272 3.002 3.425 1.849"/><path class="d" d="M2.10567,1.15669a1.68289,1.68289,0,0,0-.89981.90047"/><path class="e" d="M5.14514,1.31415S6.04706,4.8727,2.62343,5.69724c0,0,.35641.03446.49261.02918a2.9463,2.9463,0,0,0,.80979-.15184A2.80255,2.80255,0,0,0,5.72671,3.26475a2.66329,2.66329,0,0,0-.31215-1.52392c-.03448-.06747-.08944-.147-.12836-.212C5.24915,1.46693,5.14514,1.31415,5.14514,1.31415Z"/></svg>