<svg width="20.000000000000004" height="45" xmlns="http://www.w3.org/2000/svg">
 <title>moxipen_date</title>
 <defs>
  <clipPath id="a">
   <circle id="svg_1" stroke-width="0.62665px" stroke-miterlimit="10" stroke="#2d2a28" fill="#f6f6f6" r="3.44991" cy="7.50617" cx="15.14506" class="a"/>
  </clipPath>
  <clipPath id="b">
   <ellipse id="svg_2" stroke-width="0.62665px" stroke-miterlimit="10" stroke="#2d2a28" fill="#f6f6f6" ry="3.44991" rx="3.1897" cy="7.50617" cx="4.95117" class="a"/>
  </clipPath>
 </defs>
 <g>
  <title>Layer 1</title>
  <g id="svg_77">
   <path id="svg_3" fill="#dadada" d="m19.56809,42.49461l-3.21657,1.85642a2.68863,2.68863 0 0 1 -1.18964,0.36259l-0.38287,0.02235l0.78822,-35.63587l4.04179,-2.50244a0.60559,0.60559 0 0 1 0.86489,0.57737l0,33.57516a1.99833,1.99833 0 0 1 -0.90582,1.74442z" class="b"/>
   <path id="svg_4" fill="#fff" d="m1.78267,9.10011l13.924,0a0.579,0.579 0 0 1 0.579,0.579l0,33.39341a1.66344,1.66344 0 0 1 -1.66344,1.66344l-12.08778,0a1.66344,1.66344 0 0 1 -1.66344,-1.66344l0,-33.06075a0.91166,0.91166 0 0 1 0.91166,-0.91166z" class="c"/>
   <polygon stroke="null" id="svg_5" fill="#ededed" points="19.81251960992813,6.530520021915436 5.016520082950592,6.530520021915436 1.4895198941230774,9.100519716739655 16.285519182682037,9.100519716739655 19.81251960992813,6.530520021915436 " class="d"/>
   <path id="svg_6" fill="#175672" d="m7.86694,13.27517a0.062,0.062 0 0 1 -0.01465,-0.043l0,-1.54684a0.062,0.062 0 0 1 0.01465,-0.043a0.04482,0.04482 0 0 1 0.03613,-0.01758l0.23245,0a0.04177,0.04177 0 0 1 0.03516,0.01758a0.06153,0.06153 0 0 1 0.01367,0.043l0,1.54687a0.06153,0.06153 0 0 1 -0.01367,0.043a0.04177,0.04177 0 0 1 -0.03516,0.01758l-0.23245,0a0.04482,0.04482 0 0 1 -0.03613,-0.01761z" class="e"/>
   <path id="svg_7" fill="#175672" d="m8.67652,12.05252c0.00293,0.06543 0.01855,0.10351 0.04687,0.11523l0.05567,0.02344a0.0565,0.0565 0 0 1 0.02441,0.02734a0.11514,0.11514 0 0 1 0.00879,0.04492l0.002,0.12207a0.06734,0.06734 0 0 1 -0.02637,0.05664a0.08476,0.08476 0 0 1 -0.06445,0.01563l-0.08008,-0.01465a0.25152,0.25152 0 0 1 -0.16992,-0.13281a0.56776,0.56776 0 0 1 -0.0664,-0.28711l0,-0.33789a0.08131,0.08131 0 0 1 0.0166,-0.043a0.03915,0.03915 0 0 1 0.03222,-0.01758l0.39746,0a0.4608,0.4608 0 0 1 0.38477,0.16211a0.773,0.773 0 0 1 0.13867,0.45508a0.62844,0.62844 0 0 1 0.002,0.06738a0.87526,0.87526 0 0 1 -0.126,0.50489a0.45318,0.45318 0 0 1 -0.39942,0.18066l-0.374,0a0.04838,0.04838 0 0 1 -0.03613,-0.0166a0.06368,0.06368 0 0 1 -0.01465,-0.043l0,-0.2207a0.069,0.069 0 0 1 0.01465,-0.04493a0.04621,0.04621 0 0 1 0.03613,-0.01757l0.36418,0a0.20757,0.20757 0 0 0 0.16406,-0.07129a0.30661,0.30661 0 0 0 0.07031,-0.2002c0.001,-0.01562 0.002,-0.04 0.002,-0.07129s-0.001,-0.05371 -0.002,-0.07031a0.30473,0.30473 0 0 0 -0.06836,-0.2002a0.21263,0.21263 0 0 0 -0.166,-0.07031l-0.16701,0l0,0.08405z" class="e"/>
   <path id="svg_8" fill="#175672" d="m9.57885,12.40994a0.06455,0.06455 0 0 1 -0.01465,-0.044l0,-0.68066a0.062,0.062 0 0 1 0.01465,-0.043a0.04483,0.04483 0 0 1 0.03613,-0.01758l0.2461,0a0.04175,0.04175 0 0 1 0.03515,0.01758a0.06148,0.06148 0 0 1 0.01368,0.043l0,0.68066a0.0622,0.0622 0 0 1 -0.01368,0.042a0.04033,0.04033 0 0 1 -0.03515,0.01855l-0.2461,0a0.04688,0.04688 0 0 1 -0.03613,-0.01655z" class="e"/>
   <path id="svg_9" fill="#175672" d="m10.25658,12.86209a0.66459,0.66459 0 0 1 -0.13378,-0.44532l0,-0.73144a0.062,0.062 0 0 1 0.01464,-0.043a0.04485,0.04485 0 0 1 0.03614,-0.01758l0.50194,0a0.50424,0.50424 0 0 1 0.40527,0.14649a0.69854,0.69854 0 0 1 0.13575,0.43164c0.001,0.0166 0.002,0.05371 0.002,0.11328c0,0.06055 -0.001,0.09863 -0.002,0.11523a0.69925,0.69925 0 0 1 -0.14063,0.4375a0.5254,0.5254 0 0 1 -0.418,0.15039a0.49792,0.49792 0 0 1 -0.40133,-0.15719zm0.585,-0.24512a0.31017,0.31017 0 0 0 0.05664,-0.19727c0.001,-0.0166 0.00195,-0.05078 0.00195,-0.10351c0,-0.05078 -0.001,-0.085 -0.00195,-0.10059a0.31605,0.31605 0 0 0 -0.05957,-0.19922a0.21366,0.21366 0 0 0 -0.17286,-0.06445l-0.23827,0l0,0.458a0.29024,0.29024 0 0 0 0.05957,0.20019a0.21438,0.21438 0 0 0 0.169,0.06543a0.23981,0.23981 0 0 0 0.18543,-0.05858l0.00006,0z" class="e"/>
   <path id="svg_10" fill="#175672" d="m11.90014,13.00952a0.07806,0.07806 0 0 1 -0.01563,-0.04785l0,-0.24215a0.07893,0.07893 0 0 1 0.01368,-0.0459a0.0724,0.0724 0 0 1 0.03515,-0.03125l0.06055,-0.03125a0.3311,0.3311 0 0 0 0.14355,-0.12793a0.45955,0.45955 0 0 0 0.05372,-0.24414a0.37239,0.37239 0 0 0 -0.04395,-0.21094a0.19185,0.19185 0 0 0 -0.16309,-0.05957l-0.52343,0a0.0432,0.0432 0 0 1 -0.03614,-0.01855a0.06636,0.06636 0 0 1 -0.01464,-0.04395l0,-0.22363a0.05446,0.05446 0 0 1 0.01562,-0.04a0.04729,0.04729 0 0 1 0.03516,-0.01758l0.59277,0a0.43251,0.43251 0 0 1 0.36816,0.15039a0.75612,0.75612 0 0 1 0.11133,0.45215a0.80136,0.80136 0 0 1 -0.14746,0.499a0.76609,0.76609 0 0 1 -0.36914,0.27051l-0.08105,0.0293a0.03322,0.03322 0 0 1 -0.03516,-0.01666zm-0.47559,0.42676a0.06374,0.06374 0 0 1 -0.01464,-0.043l0,-1.15912a0.06372,0.06372 0 0 1 0.01464,-0.043a0.0469,0.0469 0 0 1 0.03614,-0.0166l0.22461,0a0.04354,0.04354 0 0 1 0.03515,0.0166a0.0631,0.0631 0 0 1 0.01367,0.043l0,1.15918a0.06312,0.06312 0 0 1 -0.01367,0.043a0.04354,0.04354 0 0 1 -0.03515,0.0166l-0.22461,0a0.0469,0.0469 0 0 1 -0.03617,-0.01663l0.00003,-0.00003z" class="e"/>
   <path id="svg_11" fill="#175672" d="m12.73705,12.9783a0.06372,0.06372 0 0 1 -0.01464,-0.043l0,-1.25a0.062,0.062 0 0 1 0.01464,-0.043a0.04485,0.04485 0 0 1 0.03614,-0.01758l0.24609,0a0.04177,0.04177 0 0 1 0.03516,0.01758a0.062,0.062 0 0 1 0.01464,0.043l0,1.25a0.06665,0.06665 0 0 1 -0.01464,0.042a0.04177,0.04177 0 0 1 -0.03516,0.01758l-0.24609,0a0.0469,0.0469 0 0 1 -0.03614,-0.01658z" class="e"/>
   <path id="svg_12" fill="#175672" d="m14.29272,11.77127a0.65917,0.65917 0 0 1 0.126,0.43945l0,0.72461a0.06566,0.06566 0 0 1 -0.01367,0.042a0.04176,0.04176 0 0 1 -0.03515,0.01758l-0.53711,0a0.04256,0.04256 0 0 1 -0.03418,-0.01758a0.0666,0.0666 0 0 1 -0.01465,-0.042l0,-0.207a0.06368,0.06368 0 0 1 0.01465,-0.043a0.04443,0.04443 0 0 1 0.03418,-0.0166l0.2539,0l0,-0.43946a0.33277,0.33277 0 0 0 -0.04883,-0.19336a0.15127,0.15127 0 0 0 -0.12792,-0.07031l-0.1543,0l-0.167,0.9668a0.08554,0.08554 0 0 1 -0.01563,0.04492a0.043,0.043 0 0 1 -0.03516,0.01758l-0.22656,0a0.04483,0.04483 0 0 1 -0.03613,-0.01758a0.0552,0.0552 0 0 1 -0.01074,-0.04492l0.19238,-0.96387l-0.12988,0a0.04035,0.04035 0 0 1 -0.03516,-0.01855a0.06581,0.06581 0 0 1 -0.01367,-0.04395l0,-0.2207a0.062,0.062 0 0 1 0.01465,-0.043a0.044,0.044 0 0 1 0.03418,-0.01758l0.63183,0a0.41869,0.41869 0 0 1 0.33397,0.14652z" class="e"/>
   <path id="svg_13" fill="#175672" d="m4.93139,15.37576a0.06662,0.06662 0 0 1 -0.01465,-0.042l0,-0.18067a0.1562,0.1562 0 0 1 0.04883,-0.11914l0.18262,-0.21875c0.125,-0.11523 0.21875,-0.20508 0.2832,-0.26855a1.18866,1.18866 0 0 0 0.14551,-0.17383a0.27694,0.27694 0 0 0 0.0498,-0.14746c0,-0.11817 -0.04883,-0.17774 -0.14551,-0.17774a0.137,0.137 0 0 0 -0.11816,0.05664a0.31559,0.31559 0 0 0 -0.05469,0.13965a0.06273,0.06273 0 0 1 -0.06738,0.05567l-0.25977,0a0.03751,0.03751 0 0 1 -0.03027,-0.01563a0.052,0.052 0 0 1 -0.01269,-0.03515a0.62969,0.62969 0 0 1 0.07128,-0.28614a0.52483,0.52483 0 0 1 0.19043,-0.2041a0.518,0.518 0 0 1 0.28125,-0.07519a0.594,0.594 0 0 1 0.28516,0.06445a0.42575,0.42575 0 0 1 0.18164,0.18262a0.611,0.611 0 0 1 -0.02539,0.585a1.53271,1.53271 0 0 1 -0.2666,0.30273l-0.16309,0.19824l0.498,0a0.04177,0.04177 0 0 1 0.03516,0.01758a0.06657,0.06657 0 0 1 0.01367,0.043l0,0.25684a0.07192,0.07192 0 0 1 -0.01367,0.042a0.04177,0.04177 0 0 1 -0.03516,0.01758l-1.02534,0a0.044,0.044 0 0 1 -0.03418,-0.01765z" class="e"/>
   <path id="svg_14" fill="#175672" d="m6.45483,15.35037a0.48922,0.48922 0 0 1 -0.19532,-0.18457a0.53637,0.53637 0 0 1 -0.07031,-0.252a0.056,0.056 0 0 1 0.0127,-0.03613a0.03609,0.03609 0 0 1 0.02929,-0.01465l0.27733,0a0.06473,0.06473 0 0 1 0.06445,0.0459a0.24374,0.24374 0 0 0 0.07422,0.11524a0.1865,0.1865 0 0 0 0.11523,0.03613a0.18237,0.18237 0 0 0 0.14063,-0.0625a0.2565,0.2565 0 0 0 0.05566,-0.17578a0.24232,0.24232 0 0 0 -0.05468,-0.16309a0.17842,0.17842 0 0 0 -0.14161,-0.06445a0.16505,0.16505 0 0 0 -0.0791,0.01562a0.27412,0.27412 0 0 0 -0.05664,0.042a0.08122,0.08122 0 0 1 -0.05176,0.02929l-0.2734,0a0.04045,0.04045 0 0 1 -0.03028,-0.01562a0.05789,0.05789 0 0 1 -0.01269,-0.03809l0.07324,-0.8418a0.07622,0.07622 0 0 1 0.02051,-0.05273a0.05835,0.05835 0 0 1 0.04394,-0.01855l0.80078,0a0.04092,0.04092 0 0 1 0.03516,0.0166a0.062,0.062 0 0 1 0.01465,0.043l0,0.24023a0.06658,0.06658 0 0 1 -0.01465,0.042a0.04177,0.04177 0 0 1 -0.03516,0.01758l-0.57227,0l-0.02344,0.29492a0.30019,0.30019 0 0 1 0.10547,-0.06054a0.4831,0.4831 0 0 1 0.1543,-0.02051a0.43411,0.43411 0 0 1 0.23535,0.06836a0.48218,0.48218 0 0 1 0.17676,0.19238a0.6059,0.6059 0 0 1 0.06543,0.28613a0.64643,0.64643 0 0 1 -0.06836,0.30078a0.50327,0.50327 0 0 1 -0.2002,0.209a0.60843,0.60843 0 0 1 -0.30762,0.07519a0.64174,0.64174 0 0 1 -0.30761,-0.06934z" class="e"/>
   <path id="svg_15" fill="#175672" d="m7.66576,15.24197a0.75089,0.75089 0 0 1 -0.15527,-0.45508c-0.00293,-0.08691 -0.00391,-0.16406 -0.00391,-0.2334c0,-0.07031 0.001,-0.15039 0.00391,-0.23925a0.82582,0.82582 0 0 1 0.07324,-0.32032a0.51691,0.51691 0 0 1 0.19141,-0.22168a0.54074,0.54074 0 0 1 0.30371,-0.082a0.54632,0.54632 0 0 1 0.30469,0.082a0.519,0.519 0 0 1 0.19238,0.22168a0.82564,0.82564 0 0 1 0.07324,0.32032c0.00293,0.04492 0.00489,0.124 0.00489,0.23925c0,0.11231 -0.002,0.18946 -0.00489,0.2334a0.75082,0.75082 0 0 1 -0.15527,0.45508a0.57557,0.57557 0 0 1 -0.82813,0zm0.55079,-0.25977a0.423,0.423 0 0 0 0.0498,-0.208c0.00195,-0.0459 0.00391,-0.1211 0.00391,-0.22559c0,-0.10352 -0.002,-0.17676 -0.00391,-0.2207a0.42835,0.42835 0 0 0 -0.0498,-0.20508a0.15078,0.15078 0 0 0 -0.1377,-0.0752c-0.11816,0 -0.18066,0.09375 -0.18652,0.28028c-0.002,0.04394 -0.002,0.11718 -0.002,0.2207c0,0.10449 0,0.17969 0.002,0.22559c0.00586,0.1875 0.06836,0.28125 0.18652,0.28125a0.15111,0.15111 0 0 0 0.13767,-0.07325l0.00003,0z" class="e"/>
   <path id="svg_16" fill="#175672" d="m10.01928,15.37674a0.0637,0.0637 0 0 1 -0.01465,-0.043l0,-0.71c0,-0.18262 -0.07422,-0.27344 -0.22168,-0.27344l-0.44922,0a0.04483,0.04483 0 0 1 -0.03613,-0.01758a0.062,0.062 0 0 1 -0.01465,-0.043l0,-0.206a0.062,0.062 0 0 1 0.01465,-0.043a0.04483,0.04483 0 0 1 0.03613,-0.01758l0.459,0a0.532,0.532 0 0 1 0.4082,0.14648a0.65288,0.65288 0 0 1 0.13672,0.45606l0,0.708a0.0637,0.0637 0 0 1 -0.01465,0.043a0.04838,0.04838 0 0 1 -0.03613,0.0166l-0.23242,0a0.04354,0.04354 0 0 1 -0.03517,-0.01654zm-0.72168,0a0.0637,0.0637 0 0 1 -0.01465,-0.043l0,-0.70118a0.06365,0.06365 0 0 1 0.01465,-0.043a0.04686,0.04686 0 0 1 0.03613,-0.01661l0.23243,0a0.04352,0.04352 0 0 1 0.03515,0.01661a0.06308,0.06308 0 0 1 0.01367,0.043l0,0.70118a0.06567,0.06567 0 0 1 -0.01367,0.042a0.04176,0.04176 0 0 1 -0.03515,0.01758l-0.23243,0a0.04688,0.04688 0 0 1 -0.03613,-0.01658z" class="e"/>
   <path id="svg_17" fill="#175672" d="m10.6853,15.26152a0.64578,0.64578 0 0 1 -0.13672,-0.44141l0,-0.73632a0.062,0.062 0 0 1 0.01465,-0.043a0.044,0.044 0 0 1 0.03418,-0.01758l0.20511,0a0.04485,0.04485 0 0 1 0.03614,0.01758a0.062,0.062 0 0 1 0.01464,0.043l0,0.72461a0.27716,0.27716 0 0 0 0.06446,0.20019a0.23439,0.23439 0 0 0 0.17773,0.06543c0.14649,0 0.22071,-0.085 0.22266,-0.25586c0.001,-0.0166 0.001,-0.03808 0.001,-0.06543c-0.001,-0.02734 -0.001,-0.04785 -0.001,-0.0625l0,-0.05271a0.50959,0.50959 0 0 0 -0.03809,-0.21a0.11054,0.11054 0 0 0 -0.10156,-0.07325a0.21616,0.21616 0 0 0 -0.05859,0.00977a0.16941,0.16941 0 0 0 -0.04981,0.02441l-0.01758,0.00489a0.04233,0.04233 0 0 1 -0.03125,-0.01563a0.06534,0.06534 0 0 1 -0.01269,-0.04l0,-0.18949a0.1011,0.1011 0 0 1 0.03808,-0.08887a0.3154,0.3154 0 0 1 0.18848,-0.04492a0.34533,0.34533 0 0 1 0.30957,0.1377a0.78868,0.78868 0 0 1 0.09766,0.42578l0,0.25195c-0.01465,0.3916 -0.19629,0.58789 -0.54688,0.58789a0.51728,0.51728 0 0 1 -0.41019,-0.15623z" class="e"/>
   <path id="svg_18" fill="#175672" d="m12.36694,15.37674a0.0637,0.0637 0 0 1 -0.01465,-0.043l0,-0.71c0,-0.18262 -0.07422,-0.27344 -0.22266,-0.27344l-0.29883,0a0.04518,0.04518 0 0 1 -0.03418,-0.01856a0.0629,0.0629 0 0 1 -0.01464,-0.042l0,-0.206a0.062,0.062 0 0 1 0.01464,-0.043a0.044,0.044 0 0 1 0.03418,-0.01758l0.31055,0a0.55089,0.55089 0 0 1 0.4082,0.13672a0.62554,0.62554 0 0 1 0.13477,0.44922l0,0.72461a0.06573,0.06573 0 0 1 -0.01367,0.042a0.04177,0.04177 0 0 1 -0.03516,0.01758l-0.23242,0a0.04838,0.04838 0 0 1 -0.03613,-0.01655z" class="e"/>
   <path id="svg_19" fill="#175672" d="m12.9226,15.37674a0.0637,0.0637 0 0 1 -0.01465,-0.043l0,-1.25a0.062,0.062 0 0 1 0.01465,-0.043a0.04483,0.04483 0 0 1 0.03613,-0.01758l0.2461,0a0.04175,0.04175 0 0 1 0.03515,0.01758a0.062,0.062 0 0 1 0.01465,0.043l0,1.25a0.06662,0.06662 0 0 1 -0.01465,0.042a0.04175,0.04175 0 0 1 -0.03515,0.01758l-0.2461,0a0.04688,0.04688 0 0 1 -0.03613,-0.01658z" class="e"/>
   <path id="svg_20" fill="#175672" d="m13.74389,14.45095c0.00293,0.06543 0.01855,0.10352 0.04687,0.11524l0.05567,0.02344a0.05646,0.05646 0 0 1 0.02441,0.02734a0.11514,0.11514 0 0 1 0.00879,0.04492l0.002,0.12207a0.06734,0.06734 0 0 1 -0.02636,0.05664a0.08482,0.08482 0 0 1 -0.06446,0.01563l-0.08007,-0.01465a0.25159,0.25159 0 0 1 -0.16993,-0.13281a0.56779,0.56779 0 0 1 -0.0664,-0.28711l0,-0.33789a0.08131,0.08131 0 0 1 0.0166,-0.043a0.03916,0.03916 0 0 1 0.03223,-0.01758l0.39746,0a0.46079,0.46079 0 0 1 0.38476,0.16211a0.773,0.773 0 0 1 0.13867,0.45508a0.62834,0.62834 0 0 1 0.002,0.06738a0.87512,0.87512 0 0 1 -0.126,0.50488a0.45314,0.45314 0 0 1 -0.39941,0.18067l-0.374,0a0.0484,0.0484 0 0 1 -0.03613,-0.0166a0.06375,0.06375 0 0 1 -0.01465,-0.043l0,-0.22071a0.06906,0.06906 0 0 1 0.01465,-0.04492a0.04621,0.04621 0 0 1 0.03613,-0.01758l0.36426,0a0.20754,0.20754 0 0 0 0.16406,-0.07129a0.30664,0.30664 0 0 0 0.07032,-0.20019c0.001,-0.01563 0.002,-0.04 0.002,-0.07129s-0.001,-0.05371 -0.002,-0.07031a0.30471,0.30471 0 0 0 -0.06836,-0.2002a0.21265,0.21265 0 0 0 -0.166,-0.07031l-0.167,0l-0.00011,0.08404z" class="e"/>
   <path id="svg_21" fill="#175672" d="m9.13252,22.64529l0,0.41016a0.03425,0.03425 0 0 1 -0.00683,0.02246a0.0227,0.0227 0 0 1 -0.01856,0.00879l-0.0459,0a0.02267,0.02267 0 0 1 -0.01855,-0.00879a0.03419,0.03419 0 0 1 -0.00684,-0.02246l0,-0.40332c0,-0.15528 -0.06347,-0.23243 -0.19043,-0.23243l-0.08004,0c-0.00781,0.05664 -0.01269,0.10352 -0.01562,0.14161a1.02931,1.02931 0 0 0 -0.00391,0.12695l0.002,0.36719a0.03478,0.03478 0 0 1 -0.00782,0.02246a0.02087,0.02087 0 0 1 -0.01757,0.00879l-0.1543,-0.00293a0.02406,0.02406 0 0 1 -0.01856,-0.00879a0.03842,0.03842 0 0 1 -0.00687,-0.02246l0,-0.04a0.04083,0.04083 0 0 1 0.0068,-0.0225a0.02406,0.02406 0 0 1 0.01856,-0.00879l0.085,0.002l0,-0.28911q0,-0.085 0.00293,-0.14356a1.05133,1.05133 0 0 1 0.01855,-0.13086l-0.05958,0a0.025,0.025 0 0 1 -0.01855,-0.00781a0.03157,0.03157 0 0 1 -0.00684,-0.02148l0,-0.043a0.03366,0.03366 0 0 1 0.00684,-0.02344a0.025,0.025 0 0 1 0.01855,-0.00781l0.23633,0q0.28121,0.00003 0.28121,0.32913z" class="e"/>
   <path id="svg_22" fill="#175672" d="m9.60815,23.05935a0.02565,0.02565 0 0 1 -0.00782,0.01953a0.02232,0.02232 0 0 1 -0.0166,0.00782l-0.2959,0a0.024,0.024 0 0 1 -0.01855,-0.00879a0.03425,0.03425 0 0 1 -0.00684,-0.02246l0,-0.04293a0.03425,0.03425 0 0 1 0.00684,-0.02246a0.024,0.024 0 0 1 0.01855,-0.00879l0.21778,0l-0.01758,-0.34278a1.13361,1.13361 0 0 0 -0.01172,-0.1289a0.13223,0.13223 0 0 0 -0.02637,-0.06641a0.07985,0.07985 0 0 0 -0.06543,-0.02637l-0.04589,0a0.02006,0.02006 0 0 1 -0.01758,-0.00781a0.03039,0.03039 0 0 1 -0.00781,-0.02148l0,-0.043a0.03483,0.03483 0 0 1 0.00781,-0.02246a0.02087,0.02087 0 0 1 0.01758,-0.00879l0.0459,0a0.1775,0.1775 0 0 1 0.12207,0.03808a0.20621,0.20621 0 0 1 0.0586,0.10645a1.02376,1.02376 0 0 1 0.02148,0.17676l0.02149,0.4209l-0.00001,0.00389z" class="e"/>
   <path id="svg_23" fill="#175672" d="m9.75561,23.07791a0.03483,0.03483 0 0 1 -0.00781,-0.02246l0,-0.04393a0.03385,0.03385 0 0 1 0.00781,-0.02344a0.025,0.025 0 0 1 0.01855,-0.00781l0.15821,0a0.16661,0.16661 0 0 0 0.1416,-0.05957a0.30291,0.30291 0 0 0 0.0498,-0.17285c0.001,-0.0127 0.001,-0.02832 0.001,-0.04688s0,-0.0332 -0.001,-0.04589a0.28544,0.28544 0 0 0 -0.0498,-0.17383a0.16874,0.16874 0 0 0 -0.1416,-0.0586l-0.15821,0a0.02267,0.02267 0 0 1 -0.01855,-0.00879a0.03481,0.03481 0 0 1 -0.00781,-0.02246l0,-0.04394a0.03385,0.03385 0 0 1 0.00781,-0.02344a0.025,0.025 0 0 1 0.01855,-0.00781l0.16309,0a0.24905,0.24905 0 0 1 0.209,0.08594a0.40409,0.40409 0 0 1 0.07227,0.24707c0.001,0.01269 0.001,0.03027 0.001,0.05175s0,0.03907 -0.001,0.05274a0.40411,0.40411 0 0 1 -0.07227,0.24707a0.24905,0.24905 0 0 1 -0.209,0.08594l-0.16309,0a0.02267,0.02267 0 0 1 -0.01855,-0.00881z" class="e"/>
   <path id="svg_24" fill="#175672" d="m10.79565,23.07791a0.03478,0.03478 0 0 1 -0.00782,-0.02246l0,-0.40332c0,-0.15528 -0.0625,-0.23243 -0.18945,-0.23243l-0.20508,0a0.025,0.025 0 0 1 -0.01855,-0.00781a0.03217,0.03217 0 0 1 -0.00781,-0.02148l0,-0.043a0.03385,0.03385 0 0 1 0.00781,-0.02344a0.025,0.025 0 0 1 0.01855,-0.00781l0.21094,0q0.28125,0 0.28125,0.332l0,0.40723a0.03425,0.03425 0 0 1 -0.00683,0.02246a0.0227,0.0227 0 0 1 -0.01856,0.00879l-0.04687,0a0.02218,0.02218 0 0 1 -0.01758,-0.00873zm-0.4209,0a0.03483,0.03483 0 0 1 -0.00781,-0.02246l0,-0.45313a0.03483,0.03483 0 0 1 0.00781,-0.02246a0.02267,0.02267 0 0 1 0.01855,-0.00879l0.0459,0a0.0227,0.0227 0 0 1 0.01856,0.00879a0.03425,0.03425 0 0 1 0.00683,0.02246l0,0.45313a0.03425,0.03425 0 0 1 -0.00683,0.02246a0.0227,0.0227 0 0 1 -0.01856,0.00879l-0.0459,0a0.02267,0.02267 0 0 1 -0.01855,-0.00879z" class="e"/>
   <path id="svg_25" fill="#175672" d="m11.35131,22.35134a0.20593,0.20593 0 0 1 0.08594,0.11133a0.65614,0.65614 0 0 1 0.02637,0.20606a0.45,0.45 0 0 1 -0.07032,0.26855a0.40347,0.40347 0 0 1 -0.18164,0.14258l-0.0459,0.01855l-0.00781,0.002a0.01707,0.01707 0 0 1 -0.01367,-0.00684a0.02431,0.02431 0 0 1 -0.00684,-0.01855l0,-0.05957a0.04113,0.04113 0 0 1 0.02442,-0.03711l0.04394,-0.01953a0.26553,0.26553 0 0 0 0.11719,-0.10157a0.37141,0.37141 0 0 0 0.041,-0.19433a0.46241,0.46241 0 0 0 -0.01758,-0.14258a0.136,0.136 0 0 0 -0.0586,-0.0752a0.2368,0.2368 0 0 0 -0.11132,-0.02246l-0.03711,0l-0.10254,-0.001a0.02088,0.02088 0 0 1 -0.01758,-0.00879a0.03042,0.03042 0 0 1 -0.00781,-0.02149l0,-0.23242a0.03217,0.03217 0 0 1 0.00781,-0.02148a0.02088,0.02088 0 0 1 0.01758,-0.00879l0.04492,0a0.02218,0.02218 0 0 1 0.01758,0.00879a0.03754,0.03754 0 0 1 0.00683,0.02148l0,0.15723l0.085,0a0.31416,0.31416 0 0 1 0.16014,0.03514z" class="e"/>
   <path id="svg_26" fill="#175672" d="m12.3103,23.07791a0.03478,0.03478 0 0 1 -0.00782,-0.02246l0,-0.40332c0,-0.15528 -0.0625,-0.23243 -0.18945,-0.23243l-0.20508,0a0.025,0.025 0 0 1 -0.01855,-0.00781a0.03213,0.03213 0 0 1 -0.00782,-0.02148l0,-0.043a0.03381,0.03381 0 0 1 0.00782,-0.02344a0.025,0.025 0 0 1 0.01855,-0.00781l0.21094,0q0.28125,0 0.28125,0.332l0,0.40723a0.03419,0.03419 0 0 1 -0.00684,0.02246a0.02267,0.02267 0 0 1 -0.01855,0.00879l-0.04688,0a0.02217,0.02217 0 0 1 -0.01757,-0.00873zm-0.4209,0a0.03478,0.03478 0 0 1 -0.00782,-0.02246l0,-0.45313a0.03478,0.03478 0 0 1 0.00782,-0.02246a0.02267,0.02267 0 0 1 0.01855,-0.00879l0.0459,0a0.0227,0.0227 0 0 1 0.01856,0.00879a0.03425,0.03425 0 0 1 0.00683,0.02246l0,0.45313a0.03425,0.03425 0 0 1 -0.00683,0.02246a0.0227,0.0227 0 0 1 -0.01856,0.00879l-0.0459,0a0.02267,0.02267 0 0 1 -0.01855,-0.00879z" class="e"/>
   <path id="svg_27" fill="#175672" d="m12.79467,23.10037a0.01707,0.01707 0 0 1 -0.01367,-0.00684a0.02812,0.02812 0 0 1 -0.00586,-0.01855l0,-0.05957a0.03956,0.03956 0 0 1 0.02441,-0.03711l0.043,-0.01953a0.26553,0.26553 0 0 0 0.11719,-0.10157a0.37141,0.37141 0 0 0 0.041,-0.19433a0.46241,0.46241 0 0 0 -0.01758,-0.14258a0.13193,0.13193 0 0 0 -0.0586,-0.0752a0.23137,0.23137 0 0 0 -0.11132,-0.02246l-0.22072,0a0.02267,0.02267 0 0 1 -0.01855,-0.00879a0.03476,0.03476 0 0 1 -0.00781,-0.02246l0,-0.04586a0.03215,0.03215 0 0 1 0.00781,-0.02149a0.025,0.025 0 0 1 0.01855,-0.00781l0.23438,0a0.3181,0.3181 0 0 1 0.16113,0.03515a0.20154,0.20154 0 0 1 0.08594,0.11133a0.65618,0.65618 0 0 1 0.02636,0.20606a0.45712,0.45712 0 0 1 -0.06933,0.26855a0.41424,0.41424 0 0 1 -0.18164,0.14258l-0.04688,0.01855l-0.00781,0.00193zm-0.2207,0.23633a0.03561,0.03561 0 0 1 -0.00781,-0.02344l0,-0.71094a0.03478,0.03478 0 0 1 0.00781,-0.02246a0.02267,0.02267 0 0 1 0.01855,-0.00879l0.04492,0a0.02268,0.02268 0 0 1 0.01856,0.00879a0.03425,0.03425 0 0 1 0.00683,0.02246l0,0.71094a0.03425,0.03425 0 0 1 -0.00683,0.02246a0.02268,0.02268 0 0 1 -0.01856,0.00879l-0.04492,0a0.025,0.025 0 0 1 -0.01855,-0.00781z" class="e"/>
   <path id="svg_28" fill="#175672" d="m13.23705,23.07791a0.03425,0.03425 0 0 1 -0.00683,-0.02246l0,-0.04293a0.03425,0.03425 0 0 1 0.00683,-0.02246a0.0222,0.0222 0 0 1 0.01758,-0.00879l0.32031,0l0,-0.3291c0,-0.1543 -0.06347,-0.23047 -0.19043,-0.23047l-0.11816,0a0.02267,0.02267 0 0 1 -0.01855,-0.00879a0.04042,0.04042 0 0 1 -0.00586,-0.02246l0,-0.043a0.03825,0.03825 0 0 1 0.00586,-0.02246a0.02267,0.02267 0 0 1 0.01855,-0.00879l0.124,0q0.28272,0 0.28321,0.33008l0,0.335l0.042,0a0.02219,0.02219 0 0 1 0.01758,0.00879a0.03425,0.03425 0 0 1 0.00683,0.02246l0,0.043a0.03425,0.03425 0 0 1 -0.00683,0.02246a0.02219,0.02219 0 0 1 -0.01758,0.00879l-0.46094,0a0.0222,0.0222 0 0 1 -0.01757,-0.00887z" class="e"/>
   <path id="svg_29" fill="#175672" d="m14.36108,23.05935a0.02817,0.02817 0 0 1 -0.00684,0.01953a0.01854,0.01854 0 0 1 -0.01465,0.00782l-0.0498,0a0.0258,0.0258 0 0 1 -0.02246,-0.00977l-0.00879,-0.01172l-0.25293,-0.43359a0.22012,0.22012 0 0 0 -0.06445,0.09961a0.42687,0.42687 0 0 0 -0.01758,0.126l0,0.19825a0.03425,0.03425 0 0 1 -0.00684,0.02246a0.02267,0.02267 0 0 1 -0.01855,0.00879l-0.041,0a0.02219,0.02219 0 0 1 -0.01758,-0.00879a0.03483,0.03483 0 0 1 -0.00781,-0.02246l0,-0.20316a0.55,0.55 0 0 1 0.02539,-0.1748a0.298,0.298 0 0 1 0.09766,-0.13379l-0.10254,-0.17481a0.05025,0.05025 0 0 1 -0.00779,-0.0264a0.02741,0.02741 0 0 1 0.00683,-0.01856a0.01856,0.01856 0 0 1 0.01465,-0.00781l0.04883,0a0.03838,0.03838 0 0 1 0.03125,0.02246l0.23242,0.39551a0.19854,0.19854 0 0 0 0.05859,-0.05957a0.17708,0.17708 0 0 0 0.02246,-0.06055a0.5901,0.5901 0 0 0 0.00391,-0.0791l0,-0.1875a0.033,0.033 0 0 1 0.00781,-0.02246a0.0227,0.0227 0 0 1 0.01856,-0.00879l0.043,0a0.02087,0.02087 0 0 1 0.01757,0.00879a0.03291,0.03291 0 0 1 0.00782,0.02246l0,0.19238a0.41687,0.41687 0 0 1 -0.02637,0.15723a0.28038,0.28038 0 0 1 -0.10449,0.12207l0.126,0.21484a0.041,0.041 0 0 1 0.00772,0.02543z" class="e"/>
   <path id="svg_30" fill="#175672" d="m8.12573,23.90896a0.30022,0.30022 0 0 0 0.00976,0.08692a0.05746,0.05746 0 0 0 0.03418,0.041l0.043,0.01367a0.02335,0.02335 0 0 1 0.01367,0.01368a0.0816,0.0816 0 0 1 0.00488,0.02832l0,0.0332a0.023,0.023 0 0 1 -0.01171,0.02051a0.032,0.032 0 0 1 -0.02344,0.0039l-0.04688,-0.01172c-0.07422,-0.0205 -0.11035,-0.09765 -0.11035,-0.23437l0,-0.207a0.03361,0.03361 0 0 1 0.00684,-0.02344a0.025,0.025 0 0 1 0.01855,-0.00781l0.17383,0a0.24633,0.24633 0 0 1 0.207,0.08594a0.39563,0.39563 0 0 1 0.06934,0.24707l0.001,0.57421a0.03159,0.03159 0 0 1 -0.00688,0.02148a0.02268,0.02268 0 0 1 -0.01856,0.00879l-0.0449,0a0.02267,0.02267 0 0 1 -0.01854,-0.00879a0.03154,0.03154 0 0 1 -0.00684,-0.02149l0,-0.56836c0,-0.15527 -0.06348,-0.23242 -0.19043,-0.23242l-0.10352,0l0,0.13671z" class="e"/>
   <path id="svg_31" fill="#175672" d="m8.68041,24.11404a0.03158,0.03158 0 0 1 -0.00683,-0.02152l0,-0.39551a0.03366,0.03366 0 0 1 0.00683,-0.02344a0.025,0.025 0 0 1 0.01856,-0.00781l0.04785,0a0.02267,0.02267 0 0 1 0.01855,0.00879a0.03291,0.03291 0 0 1 0.00782,0.02246l0,0.39551a0.03215,0.03215 0 0 1 -0.00782,0.02148a0.02267,0.02267 0 0 1 -0.01855,0.00879l-0.04785,0a0.0227,0.0227 0 0 1 -0.01856,-0.00875z" class="e"/>
   <path id="svg_32" fill="#175672" d="m8.94408,24.42752a0.03485,0.03485 0 0 1 -0.00781,-0.02246l0,-0.708a0.03385,0.03385 0 0 1 0.00781,-0.02344a0.025,0.025 0 0 1 0.01856,-0.00781l0.21188,0a0.26153,0.26153 0 0 1 0.21289,0.083a0.37518,0.37518 0 0 1 0.06934,0.249l0,0.40723a0.03421,0.03421 0 0 1 -0.00684,0.02246a0.02267,0.02267 0 0 1 -0.01855,0.00879l-0.04584,0a0.02267,0.02267 0 0 1 -0.01855,-0.00879a0.03421,0.03421 0 0 1 -0.00684,-0.02246l0,-0.40332c0,-0.15528 -0.06348,-0.23243 -0.19043,-0.23243l-0.13577,0l0,0.63575a0.03421,0.03421 0 0 1 -0.00684,0.02246a0.02267,0.02267 0 0 1 -0.01855,0.00879l-0.0459,0a0.0227,0.0227 0 0 1 -0.01856,-0.00877z" class="e"/>
   <path id="svg_33" fill="#175672" d="m9.9392,24.42752a0.03426,0.03426 0 0 1 -0.00683,-0.02246l0,-0.40332c0,-0.15528 -0.06348,-0.23243 -0.19043,-0.23243l-0.14356,0a0.02449,0.02449 0 0 1 -0.01758,-0.00781a0.03217,0.03217 0 0 1 -0.00781,-0.02148l0,-0.043a0.033,0.033 0 0 1 0.00781,-0.02246a0.0222,0.0222 0 0 1 0.01758,-0.00879l0.15039,0q0.28125,0 0.28125,0.3291l0,0.41016a0.03485,0.03485 0 0 1 -0.00781,0.02246a0.02267,0.02267 0 0 1 -0.01855,0.00879l-0.0459,0a0.02268,0.02268 0 0 1 -0.01856,-0.00876z" class="e"/>
   <path id="svg_34" fill="#175672" d="m10.75752,23.9949l0,0.41016a0.03426,0.03426 0 0 1 -0.00683,0.02246a0.0227,0.0227 0 0 1 -0.01856,0.00879l-0.0459,0a0.02267,0.02267 0 0 1 -0.01855,-0.00879a0.03421,0.03421 0 0 1 -0.00684,-0.02246l0,-0.40332c0,-0.15528 -0.06347,-0.23243 -0.19043,-0.23243l-0.08008,0c-0.00781,0.05664 -0.01269,0.10352 -0.01562,0.1416a1.02954,1.02954 0 0 0 -0.00391,0.127l0.002,0.36719a0.0348,0.0348 0 0 1 -0.00782,0.02246a0.02087,0.02087 0 0 1 -0.01757,0.00879l-0.1543,-0.00293a0.02406,0.02406 0 0 1 -0.01856,-0.00879a0.03842,0.03842 0 0 1 -0.00683,-0.02246l0,-0.04a0.04083,0.04083 0 0 1 0.00683,-0.02246a0.02406,0.02406 0 0 1 0.01856,-0.00879l0.085,0.00195l0,-0.28906q0,-0.085 0.00293,-0.14356a1.05107,1.05107 0 0 1 0.01855,-0.13086l-0.05957,0a0.025,0.025 0 0 1 -0.01855,-0.00781a0.03157,0.03157 0 0 1 -0.00684,-0.02148l0,-0.043a0.03366,0.03366 0 0 1 0.00684,-0.02344a0.025,0.025 0 0 1 0.01855,-0.00781l0.23633,0q0.28117,-0.00005 0.28117,0.32905z" class="e"/>
   <path id="svg_35" fill="#175672" d="m11.49291,23.70095a0.20584,0.20584 0 0 1 0.08594,0.11133a0.65614,0.65614 0 0 1 0.02637,0.20606a0.45,0.45 0 0 1 -0.07031,0.26855a0.40362,0.40362 0 0 1 -0.18165,0.14258l-0.04589,0.01855l-0.00782,0.002a0.01707,0.01707 0 0 1 -0.01367,-0.00684a0.02431,0.02431 0 0 1 -0.00683,-0.01855l0,-0.05961a0.04111,0.04111 0 0 1 0.02441,-0.03711l0.04395,-0.01953a0.2655,0.2655 0 0 0 0.11718,-0.10157a0.37133,0.37133 0 0 0 0.041,-0.19433a0.46241,0.46241 0 0 0 -0.01758,-0.14258a0.13606,0.13606 0 0 0 -0.05859,-0.0752a0.23688,0.23688 0 0 0 -0.11133,-0.02246l-0.03711,0l-0.10254,-0.001a0.02088,0.02088 0 0 1 -0.01758,-0.00879a0.03044,0.03044 0 0 1 -0.00781,-0.02149l0,-0.23242a0.03217,0.03217 0 0 1 0.00781,-0.02148a0.02088,0.02088 0 0 1 0.01758,-0.00879l0.04492,0a0.02218,0.02218 0 0 1 0.01758,0.00879a0.03747,0.03747 0 0 1 0.00684,0.02148l0,0.15723l0.085,0a0.31416,0.31416 0 0 1 0.16013,0.03518z" class="e"/>
   <path id="svg_36" fill="#175672" d="m11.72729,23.72732a0.027,0.027 0 0 1 -0.00488,-0.01562l0.00292,-0.02149l0.05762,-0.18164a0.06452,0.06452 0 0 1 0.0127,-0.02344a0.02386,0.02386 0 0 1 0.01953,-0.00683l0.03418,0a0.0162,0.0162 0 0 1 0.01465,0.00781a0.02831,0.02831 0 0 1 0.002,0.02051l-0.02441,0.18847c-0.002,0.02637 -0.01172,0.03907 -0.03028,0.03907l-0.07129,0a0.01424,0.01424 0 0 1 -0.01274,-0.00684zm0.17383,0a0.027,0.027 0 0 1 -0.00489,-0.01562l0.00293,-0.02149l0.05762,-0.18164a0.06452,0.06452 0 0 1 0.0127,-0.02344a0.02386,0.02386 0 0 1 0.01953,-0.00683l0.03418,0a0.01618,0.01618 0 0 1 0.01464,0.00781a0.02831,0.02831 0 0 1 0.002,0.02051l-0.02442,0.18847c-0.002,0.02637 -0.01171,0.03907 -0.03027,0.03907l-0.07129,0a0.01424,0.01424 0 0 1 -0.01273,-0.00684z" class="e"/>
   <path id="svg_37" fill="#175672" d="m12.58959,23.70584a0.2526,0.2526 0 0 1 0.084,0.11328a0.46021,0.46021 0 0 1 0.03027,0.17578l0,0.41016a0.03421,0.03421 0 0 1 -0.00684,0.02246a0.02267,0.02267 0 0 1 -0.01855,0.00879l-0.28516,0a0.0197,0.0197 0 0 1 -0.01757,-0.00879a0.03421,0.03421 0 0 1 -0.00684,-0.02246l0,-0.043a0.03419,0.03419 0 0 1 0.00684,-0.02246a0.0197,0.0197 0 0 1 0.01757,-0.00879l0.21387,0l0,-0.32813a0.29267,0.29267 0 0 0 -0.043,-0.166a0.12618,0.12618 0 0 0 -0.1084,-0.06446l-0.11716,0l-0.085,0.63184a0.03647,0.03647 0 0 1 -0.00977,0.02246a0.02194,0.02194 0 0 1 -0.01758,0.00977l-0.04687,0a0.01958,0.01958 0 0 1 -0.01758,-0.00977a0.0403,0.0403 0 0 1 -0.00488,-0.02246l0.08886,-0.63184l-0.05664,0a0.0209,0.0209 0 0 1 -0.01758,-0.00879a0.03483,0.03483 0 0 1 -0.00781,-0.02246l0,-0.04394a0.033,0.033 0 0 1 0.00781,-0.02246a0.0209,0.0209 0 0 1 0.01758,-0.00879l0.27836,0a0.19493,0.19493 0 0 1 0.12207,0.04006z" class="e"/>
   <path id="svg_38" fill="#175672" d="m13.24291,24.40603a0.27872,0.27872 0 0 1 -0.09863,-0.11816a0.38839,0.38839 0 0 1 -0.0332,-0.16211a0.50044,0.50044 0 0 1 0.07617,-0.248l0.21094,-0.35937l0.00683,-0.00977a0.03926,0.03926 0 0 1 0.0127,-0.01269a0.03343,0.03343 0 0 1 0.01758,-0.00391l0.05371,0a0.0192,0.0192 0 0 1 0.0166,0.00879a0.03614,0.03614 0 0 1 0.00586,0.02051a0.03711,0.03711 0 0 1 -0.00586,0.01757l-0.16113,0.2754a0.21582,0.21582 0 0 1 0.06445,-0.00782a0.24278,0.24278 0 0 1 0.1416,0.043a0.29408,0.29408 0 0 1 0.0957,0.11621a0.37494,0.37494 0 0 1 0.03321,0.15918a0.387,0.387 0 0 1 -0.03321,0.16113a0.28153,0.28153 0 0 1 -0.09863,0.11915a0.25231,0.25231 0 0 1 -0.15137,0.04492a0.267,0.267 0 0 1 -0.15332,-0.04403zm0.24219,-0.09277a0.16918,0.16918 0 0 0 0.06543,-0.07227a0.25753,0.25753 0 0 0 0.02441,-0.11523a0.24639,0.24639 0 0 0 -0.02542,-0.11424a0.18114,0.18114 0 0 0 -0.06543,-0.07226a0.17022,0.17022 0 0 0 -0.08886,-0.0254a0.16772,0.16772 0 0 0 -0.08887,0.0254a0.18121,0.18121 0 0 0 -0.06543,0.07226a0.28189,0.28189 0 0 0 0,0.22949a0.16918,0.16918 0 0 0 0.06543,0.07227a0.16688,0.16688 0 0 0 0.08887,0.02441a0.17025,0.17025 0 0 0 0.08987,-0.02443z" class="e"/>
   <path id="svg_39" fill="#175672" d="m13.86205,24.34744a0.50564,0.50564 0 0 1 -0.07031,-0.26563l-0.002,-0.11621l0.002,-0.12011a0.49058,0.49058 0 0 1 0.07031,-0.26563a0.2658,0.2658 0 0 1 0.418,0a0.49058,0.49058 0 0 1 0.07031,0.26563c0.001,0.02441 0.001,0.06445 0.001,0.12011c0,0.05274 0,0.0918 -0.001,0.11621a0.50546,0.50546 0 0 1 -0.07031,0.26563a0.26423,0.26423 0 0 1 -0.418,0zm0.33692,-0.07813a0.38083,0.38083 0 0 0 0.04492,-0.19433c0.001,-0.02637 0.001,-0.06348 0.001,-0.11231c0,-0.0498 0,-0.08691 -0.001,-0.11035a0.37311,0.37311 0 0 0 -0.0459,-0.19433a0.14221,0.14221 0 0 0 -0.12793,-0.06934a0.14064,0.14064 0 0 0 -0.12695,0.06934a0.38276,0.38276 0 0 0 -0.0459,0.19433l-0.001,0.11035l0.001,0.11231a0.38013,0.38013 0 0 0 0.0459,0.19433a0.13982,0.13982 0 0 0 0.12695,0.06836a0.143,0.143 0 0 0 0.12891,-0.06836z" class="e"/>
   <polyline id="svg_40" stroke-width="0.15281px" stroke="#1a6699" fill="none" stroke-miterlimit="10" points="0.8705199360847473,25.547520220279694 16.285519182682037,25.547520220279694 20.473520815372467,22.442520678043365 " class="f"/>
   <polyline id="svg_41" stroke-width="0.15281px" stroke="#1a6699" fill="none" stroke-miterlimit="10" points="0.8705199360847473,40.385519564151764 16.285519182682037,40.385519564151764 20.473520815372467,37.28151947259903 " class="f"/>
   <polygon id="svg_42" fill="#d10588" points="13.987519800662994,26.72851997613907 11.079519808292389,26.72851997613907 9.528520166873932,39.20952087640762 12.436520159244537,39.20952087640762 13.987519800662994,26.72851997613907 " class="g"/>
   <polygon id="svg_43" fill="#d10588" points="10.672520220279694,26.72851997613907 7.763519823551178,26.72851997613907 6.212520182132721,39.20952087640762 9.12151962518692,39.20952087640762 10.672520220279694,26.72851997613907 " class="g"/>
   <polygon id="svg_44" fill="#d10588" points="7.356520235538483,26.72851997613907 4.448519766330719,26.72851997613907 2.897520124912262,39.20952087640762 5.805520117282867,39.20952087640762 7.356520235538483,26.72851997613907 " class="g"/>
   <polygon id="svg_45" fill="#d10588" points="18.346520006656647,6.7385202050209045 16.510519564151764,6.7385202050209045 15.156520426273346,7.6715198159217834 16.993519365787506,7.6715198159217834 18.346520006656647,6.7385202050209045 " class="g"/>
   <polygon id="svg_46" fill="#d10588" points="16.25252014398575,6.7385202050209045 14.416519701480865,6.7385202050209045 13.062519609928131,7.6715198159217834 14.899520456790924,7.6715198159217834 16.25252014398575,6.7385202050209045 " class="g"/>
   <polygon id="svg_47" fill="#d10588" points="14.15852028131485,6.7385202050209045 12.321520388126373,6.7385202050209045 10.968519747257233,7.6715198159217834 12.804520189762115,7.6715198159217834 14.15852028131485,6.7385202050209045 " class="g"/>
   <polygon id="svg_48" fill="#d10588" points="20.02751976251602,23.995520174503326 19.19151932001114,24.643520891666412 18.745520174503326,37.471518099308014 19.58152061700821,36.82251983880997 20.02751976251602,23.995520174503326 " class="g"/>
   <polygon id="svg_49" fill="#d10588" points="19.074520647525787,24.734520494937897 18.2395196557045,25.383520662784576 17.793520510196686,38.21151977777481 18.628519594669342,37.562521517276764 19.074520647525787,24.734520494937897 " class="g"/>
   <polygon id="svg_50" fill="#d10588" points="18.122519075870514,25.47452026605606 17.286520540714264,26.12352043390274 16.84051948785782,38.95152145624161 17.6765199303627,38.302519381046295 18.122519075870514,25.47452026605606 " class="g"/>
   <polygon id="svg_51" stroke-width="0.09495px" stroke="#1ac179" fill="none" stroke-miterlimit="10" points="12.595519602298737,41.64451843500137 13.09851986169815,42.70751816034317 13.257520258426666,42.70751816034317 13.665520250797272,43.687521517276764 14.803519785404205,43.687521517276764 14.803519785404205,41.64451843500137 13.914519846439362,41.64451843500137 13.914519846439362,42.431520998477936 13.914519846439362,41.64451843500137 12.595519602298737,41.64451843500137 " class="h"/>
   <polyline id="svg_52" stroke-width="0.09495px" stroke="#1ac179" fill="none" stroke-miterlimit="10" points="12.595519602298737,41.64451843500137 11.429520189762115,41.64451843500137 11.429520189762115,42.70451980829239 12.31852012872696,42.70451980829239 11.429520189762115,42.70451980829239 11.429520189762115,43.687521517276764 13.665520250797272,43.687521517276764 " class="h"/>
   <polyline id="svg_53" stroke-width="0.09495px" stroke="#1ac179" fill="none" stroke-miterlimit="10" points="11.429520189762115,41.64451843500137 10.737519800662994,41.64451843500137 10.737519800662994,42.39351898431778 10.737519800662994,41.64451843500137 10.041519701480865,41.64451843500137 10.041519701480865,42.66551834344864 9.733520090579987,42.66551834344864 9.733520090579987,43.687521517276764 11.429520189762115,43.687521517276764 " class="h"/>
   <line id="svg_54" stroke-linecap="round" stroke-width="0.20375px" stroke="#154d60" fill="none" stroke-miterlimit="10" y2="22.67941" x2="18.56864" y1="23.87304" x1="16.84099" class="i"/>
   <line id="svg_55" stroke-linecap="round" stroke-width="0.20375px" stroke="#154d60" fill="none" stroke-miterlimit="10" y2="9.67976" x2="18.56864" y1="10.91543" x1="17.09982" class="i"/>
   <line id="svg_56" stroke-linecap="round" stroke-width="0.20375px" stroke="#154d60" fill="none" stroke-miterlimit="10" y2="10.71193" x2="18.56864" y1="11.9476" x1="17.09982" class="i"/>
   <line id="svg_57" stroke-linecap="round" stroke-width="0.20375px" stroke="#154d60" fill="none" stroke-miterlimit="10" y2="11.05604" x2="19.38652" y1="12.97977" x1="17.09982" class="i"/>
   <line id="svg_58" stroke-linecap="round" stroke-width="0.20375px" stroke="#154d60" fill="none" stroke-miterlimit="10" y2="12.62708" x2="18.74598" y1="14.01194" x1="17.09982" class="i"/>
   <line id="svg_59" stroke-linecap="round" stroke-width="0.20375px" stroke="#154d60" fill="none" stroke-miterlimit="10" y2="13.20533" x2="19.28555" y1="15.04411" x1="17.09982" class="i"/>
   <line id="svg_60" stroke-linecap="round" stroke-width="0.20375px" stroke="#154d60" fill="none" stroke-miterlimit="10" y2="7.95795" x2="10.4223" y1="7.95795" x1="16.66909" class="i"/>
   <line id="svg_61" stroke-linecap="round" stroke-width="0.20375px" stroke="#154d60" fill="none" stroke-miterlimit="10" y2="8.28441" x2="9.93885" y1="8.28441" x1="16.18564" class="i"/>
   <line id="svg_62" stroke-linecap="round" stroke-width="0.20375px" stroke="#154d60" fill="none" stroke-miterlimit="10" y2="8.6027" x2="9.44006" y1="8.6027" x1="15.68685" class="i"/>
   <circle id="svg_63" fill="#f6f6f6" r="3.44991" cy="6.91869" cx="14.55758" class="j"/>
   <g id="svg_64" clip-path="url(#a)" class="k">
    <circle id="svg_65" fill="#2d2a28" r="0.93066" cy="6.44522" cx="14.03448" class="l"/>
    <path id="svg_66" fill="#d10588" stroke-width="0.62665px" stroke-miterlimit="10" stroke="#2d2a28" d="m11.58828,8.67424s0.42841,0.33929 2.71585,0.30179a11.80986,11.80986 0 0 0 3.9733,-0.74328l0,5.39986l-6.68915,0l0,-4.95837z" class="m"/>
   </g>
   <circle stroke="#2d2a28" id="svg_67" fill="none" stroke-width="0.62665px" stroke-miterlimit="10" r="3.44991" cy="6.91869" cx="14.55758" class="n"/>
   <ellipse id="svg_68" fill="#f6f6f6" ry="3.44991" rx="3.1897" cy="6.91869" cx="4.36369" class="j"/>
   <g id="svg_69" clip-path="url(#b)" class="o">
    <circle id="svg_70" fill="#2d2a28" r="0.93066" cy="6.44522" cx="3.8406" class="l"/>
    <path id="svg_71" fill="#d10588" stroke-width="0.62665px" stroke-miterlimit="10" stroke="#2d2a28" d="m1.64665,8.86627s0.35662,0.33929 2.47153,0.30179a10.58677,10.58677 0 0 0 3.71311,-0.74328l0,5.39986l-6.18464,0l0,-4.95837z" class="m"/>
   </g>
   <ellipse id="svg_72" fill="none" stroke-width="0.62665px" stroke-miterlimit="10" stroke="#2d2a28" ry="3.44991" rx="3.1897" cy="6.91869" cx="4.36369" class="n"/>
   <path id="svg_73" stroke-width="1.17497px" stroke-linecap="round" fill="none" stroke-miterlimit="10" stroke="#2d2a28" d="m13.56715,0s3.51167,0.21158 5.313,2.81055" class="p"/>
   <path id="svg_74" stroke-width="1.17497px" stroke-linecap="round" fill="none" stroke-miterlimit="10" stroke="#2d2a28" d="m4.85559,0.65824s-3.81771,0.6468 -4.85559,2.98228" class="p"/>
   <text font-weight="bold" xml:space="preserve" text-anchor="start" font-family="Noto Sans JP" font-size="1" stroke-width="0" id="svg_75" y="43.34923" x="2.41252" stroke="null" fill="#000000">09/2021</text>
  </g>
 </g>
</svg>