<svg xmlns="http://www.w3.org/2000/svg" xmlns:xlink="http://www.w3.org/1999/xlink" viewBox="0 0 296.21339 160.03127"><defs><style>.a,.v{fill:#f6f6f6;}.a,.l,.u,.x,.y,.z{stroke:#2d2a28;}.a,.u,.y{stroke-miterlimit:10;}.a,.x,.y,.z{stroke-width:1.6518px;}.b{fill:#1d1d1b;opacity:0.2;}.c{fill:#395dba;}.d{fill:#afa897;}.e{fill:#ccc6b4;}.f{fill:#d8d0bf;}.g{fill:#f2f0e9;}.h,.i,.l,.n,.t,.u,.y,.z{fill:none;}.h,.i{stroke:#cbbba0;}.h,.l,.q,.r,.t,.u,.x,.z{stroke-linecap:round;}.h,.i,.l,.q,.r,.t,.x,.z{stroke-linejoin:round;}.h{stroke-width:0.61545px;opacity:0.15;}.i{stroke-width:0.24577px;}.j{fill:#cbbba0;}.k{fill:#2d2a28;}.l{stroke-width:0.25401px;}.m{fill:#ffbddb;}.n{stroke:#1f3366;}.o{fill:#1f3366;}.p{fill:#fff;}.q{fill:#95cfe2;}.q,.r{stroke:#6ab8e2;stroke-width:0.53266px;}.r{fill:#6ab8e2;}.s{fill:#455a60;}.t{stroke:#455a60;stroke-width:0.25px;}.u{stroke-width:3.09713px;}.w{clip-path:url(#a);}.x{fill:#1286e9;}.aa{clip-path:url(#b);}</style><clipPath id="a"><circle class="a" cx="177.93334" cy="23.06777" r="9.09371"/></clipPath><clipPath id="b"><ellipse class="a" cx="151.063" cy="23.06777" rx="8.40782" ry="9.09371"/></clipPath></defs><polygon class="b" points="296.213 160.031 51.078 160.031 42.9 21.016 288.036 21.016 296.213 160.031"/><rect class="c" x="41.58574" y="21.01616" width="243.55947" height="135.52807" rx="1.31453"/><rect class="d" x="46.77925" y="21.01616" width="235.93848" height="132.71539"/><rect class="e" x="45.94939" y="20.15476" width="235.93848" height="132.71539"/><rect class="f" x="45.06344" y="19.0618" width="235.93848" height="132.71539"/><rect class="g" x="43.76366" y="17.38528" width="235.93848" height="132.71539"/><line class="h" x1="51.39088" y1="34.19673" x2="272.18748" y2="34.19673"/><line class="h" x1="51.39088" y1="41.86708" x2="272.18748" y2="41.86708"/><line class="h" x1="51.39088" y1="49.53742" x2="272.18748" y2="49.53742"/><line class="h" x1="51.39088" y1="57.20777" x2="272.18748" y2="57.20777"/><line class="h" x1="51.39088" y1="64.87811" x2="272.18748" y2="64.87811"/><line class="h" x1="51.39088" y1="72.54846" x2="272.18748" y2="72.54846"/><line class="h" x1="51.39088" y1="80.2188" x2="272.18748" y2="80.2188"/><line class="h" x1="51.39088" y1="87.88915" x2="272.18748" y2="87.88915"/><line class="h" x1="51.39088" y1="95.55949" x2="272.18748" y2="95.55949"/><line class="h" x1="51.39088" y1="103.22984" x2="272.18748" y2="103.22984"/><line class="h" x1="51.39088" y1="110.90019" x2="272.18748" y2="110.90019"/><line class="h" x1="51.39088" y1="118.57053" x2="272.18748" y2="118.57053"/><line class="h" x1="51.39088" y1="126.24088" x2="272.18748" y2="126.24088"/><line class="h" x1="51.39088" y1="133.91122" x2="272.18748" y2="133.91122"/><line class="h" x1="51.39088" y1="141.58157" x2="272.18748" y2="141.58157"/><path class="i" d="M53.38607,17.38328v4.66015a.31365.31365,0,0,1-.31006.31983h-.78027a.31569.31569,0,0,1-.31982-.31983V17.38328"/><path class="i" d="M60.43588,17.38328v4.66015a.3157.3157,0,0,1-.31983.31983h-.77a.3154.3154,0,0,1-.31982-.31983V17.38328"/><path class="i" d="M67.48617,17.38328v4.66015a.31581.31581,0,0,1-.32031.31983h-.77a.3157.3157,0,0,1-.31983-.31983V17.38328"/><path class="i" d="M74.536,17.38328v4.66015a.3157.3157,0,0,1-.31983.31983h-.77a.31581.31581,0,0,1-.32031-.31983V17.38328"/><path class="i" d="M81.58578,17.38328v4.66015a.3154.3154,0,0,1-.31982.31983h-.77a.3157.3157,0,0,1-.31983-.31983V17.38328"/><path class="i" d="M88.63607,17.38328v4.66015a.32185.32185,0,0,1-.31982.31983H87.536a.31365.31365,0,0,1-.31006-.31983V17.38328"/><path class="i" d="M95.68588,17.38328v4.66015a.32185.32185,0,0,1-.31983.31983h-.78027a.31326.31326,0,0,1-.30957-.31983V17.38328"/><path class="i" d="M102.72592,17.38328v4.66015a.31366.31366,0,0,1-.31006.31983h-.77979a.31366.31366,0,0,1-.31006-.31983V17.38328"/><path class="i" d="M109.77621,17.38328v4.66015a.31366.31366,0,0,1-.31006.31983h-.78027a.31366.31366,0,0,1-.31006-.31983V17.38328"/><path class="i" d="M116.826,17.38328v4.66015a.31365.31365,0,0,1-.31.31983h-.77979a.31366.31366,0,0,1-.31006-.31983V17.38328"/><path class="i" d="M123.87582,17.38328v4.66015a.31326.31326,0,0,1-.30957.31983H122.786a.32185.32185,0,0,1-.31983-.31983V17.38328"/><path class="i" d="M130.92611,17.38328v4.66015a.31365.31365,0,0,1-.31006.31983h-.78027a.31569.31569,0,0,1-.31982-.31983V17.38328"/><path class="i" d="M137.97592,17.38328v4.66015a.3157.3157,0,0,1-.31983.31983h-.77a.3154.3154,0,0,1-.31982-.31983V17.38328"/><path class="i" d="M145.02621,17.38328v4.66015a.31581.31581,0,0,1-.32031.31983h-.77a.3157.3157,0,0,1-.31983-.31983V17.38328"/><path class="i" d="M152.076,17.38328v4.66015a.31569.31569,0,0,1-.31982.31983h-.77a.3158.3158,0,0,1-.32031-.31983V17.38328"/><path class="i" d="M159.12582,17.38328v4.66015a.3154.3154,0,0,1-.31983.31983h-.77a.3157.3157,0,0,1-.31983-.31983V17.38328"/><path class="i" d="M166.17611,17.38328v4.66015a.32185.32185,0,0,1-.31982.31983H165.076a.31365.31365,0,0,1-.31-.31983V17.38328"/><path class="i" d="M173.21615,17.38328v4.66015a.31366.31366,0,0,1-.31006.31983h-.78027a.31326.31326,0,0,1-.30957-.31983V17.38328"/><path class="i" d="M180.266,17.38328v4.66015a.31366.31366,0,0,1-.31006.31983h-.77979a.31366.31366,0,0,1-.31006-.31983V17.38328"/><path class="i" d="M187.31625,17.38328v4.66015a.31366.31366,0,0,1-.31006.31983h-.78027a.31365.31365,0,0,1-.31006-.31983V17.38328"/><path class="i" d="M194.36605,17.38328v4.66015a.31365.31365,0,0,1-.31006.31983h-.77978a.31366.31366,0,0,1-.31006-.31983V17.38328"/><path class="i" d="M201.41586,17.38328v4.66015a.31326.31326,0,0,1-.30957.31983H200.326a.32185.32185,0,0,1-.31982-.31983V17.38328"/><path class="i" d="M208.46615,17.38328v4.66015a.31366.31366,0,0,1-.31006.31983h-.78027a.3157.3157,0,0,1-.31983-.31983V17.38328"/><path class="i" d="M215.516,17.38328v4.66015a.3157.3157,0,0,1-.31983.31983h-.77a.3154.3154,0,0,1-.31982-.31983V17.38328"/><path class="i" d="M222.56625,17.38328v4.66015a.31581.31581,0,0,1-.32031.31983h-.77a.3154.3154,0,0,1-.31983-.31983V17.38328"/><path class="i" d="M229.61605,17.38328v4.66015a.3158.3158,0,0,1-.32031.31983h-.76953a.3158.3158,0,0,1-.32031-.31983V17.38328"/><path class="i" d="M236.66586,17.38328v4.66015a.3154.3154,0,0,1-.31983.31983h-.77a.3154.3154,0,0,1-.31982-.31983V17.38328"/><path class="i" d="M243.71615,17.38328v4.66015a.322.322,0,0,1-.32031.31983h-.77979a.31366.31366,0,0,1-.31006-.31983V17.38328"/><path class="i" d="M250.75619,17.38328v4.66015a.31366.31366,0,0,1-.31006.31983h-.78027a.31326.31326,0,0,1-.30957-.31983V17.38328"/><path class="i" d="M257.806,17.38328v4.66015a.31365.31365,0,0,1-.31.31983h-.77979a.31335.31335,0,0,1-.31006-.31983V17.38328"/><path class="i" d="M264.85629,17.38328v4.66015a.31375.31375,0,0,1-.31055.31983H263.766a.31365.31365,0,0,1-.31006-.31983V17.38328"/><path class="i" d="M271.90609,17.38328v4.66015a.31365.31365,0,0,1-.31006.31983h-.77978a.31335.31335,0,0,1-.31006-.31983V17.38328"/><circle class="j" cx="52.61252" cy="22.84053" r="1.19844"/><circle class="k" cx="52.33176" cy="22.52286" r="1.19844"/><circle class="j" cx="59.6616" cy="22.84053" r="1.19844"/><circle class="k" cx="59.38084" cy="22.52286" r="1.19844"/><circle class="j" cx="66.71068" cy="22.84053" r="1.19844"/><circle class="k" cx="66.42992" cy="22.52286" r="1.19844"/><circle class="j" cx="73.75976" cy="22.84053" r="1.19844"/><circle class="k" cx="73.479" cy="22.52286" r="1.19844"/><circle class="j" cx="80.80884" cy="22.84053" r="1.19844"/><circle class="k" cx="80.52809" cy="22.52286" r="1.19844"/><circle class="j" cx="87.85792" cy="22.84053" r="1.19844"/><circle class="k" cx="87.57717" cy="22.52286" r="1.19844"/><circle class="j" cx="94.90701" cy="22.84053" r="1.19844"/><circle class="k" cx="94.62625" cy="22.52286" r="1.19844"/><circle class="j" cx="101.95609" cy="22.84053" r="1.19844"/><circle class="k" cx="101.67533" cy="22.52286" r="1.19844"/><circle class="j" cx="109.00517" cy="22.84053" r="1.19844"/><circle class="k" cx="108.72441" cy="22.52286" r="1.19844"/><circle class="j" cx="116.05425" cy="22.84053" r="1.19844"/><circle class="k" cx="115.77349" cy="22.52286" r="1.19844"/><circle class="j" cx="123.10333" cy="22.84053" r="1.19844"/><circle class="k" cx="122.82257" cy="22.52286" r="1.19844"/><circle class="j" cx="130.15241" cy="22.84053" r="1.19844"/><circle class="k" cx="129.87166" cy="22.52286" r="1.19844"/><circle class="j" cx="137.20149" cy="22.84053" r="1.19844"/><circle class="k" cx="136.92074" cy="22.52286" r="1.19844"/><circle class="j" cx="144.25058" cy="22.84053" r="1.19844"/><circle class="k" cx="143.96982" cy="22.52286" r="1.19844"/><circle class="j" cx="151.29966" cy="22.84053" r="1.19844"/><circle class="k" cx="151.0189" cy="22.52286" r="1.19844"/><circle class="j" cx="158.34874" cy="22.84053" r="1.19844"/><circle class="k" cx="158.06798" cy="22.52286" r="1.19844"/><circle class="j" cx="165.39782" cy="22.84053" r="1.19844"/><circle class="k" cx="165.11706" cy="22.52286" r="1.19844"/><circle class="j" cx="172.4469" cy="22.84053" r="1.19844"/><circle class="k" cx="172.16614" cy="22.52286" r="1.19844"/><circle class="j" cx="179.49598" cy="22.84053" r="1.19844"/><circle class="k" cx="179.21523" cy="22.52286" r="1.19844"/><circle class="j" cx="186.54506" cy="22.84053" r="1.19844"/><circle class="k" cx="186.26431" cy="22.52286" r="1.19844"/><circle class="j" cx="193.59415" cy="22.84053" r="1.19844"/><circle class="k" cx="193.31339" cy="22.52286" r="1.19844"/><circle class="j" cx="200.64323" cy="22.84053" r="1.19844"/><circle class="k" cx="200.36247" cy="22.52286" r="1.19844"/><circle class="j" cx="207.69231" cy="22.84053" r="1.19844"/><circle class="k" cx="207.41155" cy="22.52286" r="1.19844"/><circle class="j" cx="214.74139" cy="22.84053" r="1.19844"/><circle class="k" cx="214.46063" cy="22.52286" r="1.19844"/><circle class="j" cx="221.79047" cy="22.84053" r="1.19844"/><circle class="k" cx="221.50971" cy="22.52286" r="1.19844"/><circle class="j" cx="228.83955" cy="22.84053" r="1.19844"/><circle class="k" cx="228.5588" cy="22.52286" r="1.19844"/><circle class="j" cx="235.88863" cy="22.84053" r="1.19844"/><circle class="k" cx="235.60788" cy="22.52286" r="1.19844"/><circle class="j" cx="242.93772" cy="22.84053" r="1.19844"/><circle class="k" cx="242.65696" cy="22.52286" r="1.19844"/><circle class="j" cx="249.9868" cy="22.84053" r="1.19844"/><circle class="k" cx="249.70604" cy="22.52286" r="1.19844"/><circle class="j" cx="257.03588" cy="22.84053" r="1.19844"/><circle class="k" cx="256.75512" cy="22.52286" r="1.19844"/><circle class="j" cx="264.08496" cy="22.84053" r="1.19844"/><circle class="k" cx="263.8042" cy="22.52286" r="1.19844"/><circle class="j" cx="271.13404" cy="22.84053" r="1.19844"/><circle class="k" cx="270.85328" cy="22.52286" r="1.19844"/><rect class="l" x="47.9941" y="17.34997" width="8.61534" height="1.40698" rx="0.70349" transform="translate(34.2483 70.35523) rotate(-90)"/><rect class="l" x="55.04318" y="17.34997" width="8.61534" height="1.40698" rx="0.70349" transform="translate(41.29738 77.40431) rotate(-90)"/><rect class="l" x="62.09226" y="17.34997" width="8.61534" height="1.40698" rx="0.70349" transform="translate(48.34647 84.45339) rotate(-90)"/><rect class="l" x="69.14134" y="17.34997" width="8.61534" height="1.40698" rx="0.70349" transform="translate(55.39555 91.50247) rotate(-90)"/><rect class="l" x="76.19042" y="17.34997" width="8.61534" height="1.40698" rx="0.70349" transform="translate(62.44463 98.55155) rotate(-90)"/><rect class="l" x="83.2395" y="17.34997" width="8.61534" height="1.40698" rx="0.70349" transform="translate(69.49371 105.60064) rotate(-90)"/><rect class="l" x="90.28858" y="17.34997" width="8.61534" height="1.40698" rx="0.70349" transform="translate(76.54279 112.64972) rotate(-90)"/><rect class="l" x="97.33767" y="17.34997" width="8.61534" height="1.40698" rx="0.70349" transform="translate(83.59188 119.6988) rotate(-90)"/><rect class="l" x="104.38675" y="17.34997" width="8.61534" height="1.40698" rx="0.70349" transform="translate(90.64095 126.74788) rotate(-90)"/><rect class="l" x="111.43583" y="17.34997" width="8.61534" height="1.40698" rx="0.70349" transform="translate(97.69003 133.79696) rotate(-90)"/><rect class="l" x="118.48491" y="17.34997" width="8.61534" height="1.40698" rx="0.70349" transform="translate(104.73912 140.84604) rotate(-90)"/><rect class="l" x="125.53399" y="17.34997" width="8.61534" height="1.40698" rx="0.70349" transform="translate(111.7882 147.89513) rotate(-90)"/><rect class="l" x="132.58307" y="17.34997" width="8.61534" height="1.40698" rx="0.70349" transform="translate(118.83728 154.94421) rotate(-90)"/><rect class="l" x="139.63215" y="17.34997" width="8.61534" height="1.40698" rx="0.70349" transform="translate(125.88635 161.99329) rotate(-90)"/><rect class="l" x="146.68124" y="17.34997" width="8.61534" height="1.40698" rx="0.70349" transform="translate(132.93545 169.04237) rotate(-90)"/><rect class="l" x="153.73032" y="17.34997" width="8.61534" height="1.40698" rx="0.70349" transform="translate(139.98452 176.09145) rotate(-90)"/><rect class="l" x="160.7794" y="17.34997" width="8.61534" height="1.40698" rx="0.70349" transform="translate(147.03361 183.14053) rotate(-90)"/><rect class="l" x="167.82848" y="17.34997" width="8.61534" height="1.40698" rx="0.70349" transform="translate(154.08269 190.18961) rotate(-90)"/><rect class="l" x="174.87756" y="17.34997" width="8.61534" height="1.40698" rx="0.70349" transform="translate(161.13177 197.2387) rotate(-90)"/><rect class="l" x="181.92664" y="17.34997" width="8.61534" height="1.40698" rx="0.70349" transform="matrix(0, -1, 1, 0, 168.18085, 204.28778)"/><rect class="l" x="188.97572" y="17.34997" width="8.61534" height="1.40698" rx="0.70349" transform="translate(175.22994 211.33686) rotate(-90)"/><rect class="l" x="196.02481" y="17.34997" width="8.61534" height="1.40698" rx="0.70349" transform="translate(182.27901 218.38594) rotate(-90)"/><rect class="l" x="203.07389" y="17.34997" width="8.61534" height="1.40698" rx="0.70349" transform="translate(189.32809 225.43502) rotate(-90)"/><rect class="l" x="210.12297" y="17.34997" width="8.61534" height="1.40698" rx="0.70349" transform="translate(196.37717 232.4841) rotate(-90)"/><rect class="l" x="217.17205" y="17.34997" width="8.61534" height="1.40698" rx="0.70349" transform="translate(203.42626 239.53318) rotate(-90)"/><rect class="l" x="224.22113" y="17.34997" width="8.61534" height="1.40698" rx="0.70349" transform="translate(210.47533 246.58226) rotate(-90)"/><rect class="l" x="231.27021" y="17.34997" width="8.61534" height="1.40698" rx="0.70349" transform="translate(217.52442 253.63135) rotate(-90)"/><rect class="l" x="238.31929" y="17.34997" width="8.61534" height="1.40698" rx="0.70349" transform="translate(224.57351 260.68043) rotate(-90)"/><rect class="l" x="245.36838" y="17.34997" width="8.61534" height="1.40698" rx="0.70349" transform="matrix(0, -1, 1, 0, 231.62259, 267.72951)"/><rect class="l" x="252.41746" y="17.34997" width="8.61534" height="1.40698" rx="0.70349" transform="translate(238.67167 274.77859) rotate(-90)"/><rect class="l" x="259.46654" y="17.34997" width="8.61534" height="1.40698" rx="0.70349" transform="translate(245.72074 281.82767) rotate(-90)"/><rect class="l" x="266.51562" y="17.34997" width="8.61534" height="1.40698" rx="0.70349" transform="translate(252.76982 288.87675) rotate(-90)"/><rect class="m" x="247.42969" y="86.51245" width="21.3939" height="21.31632"/><rect class="n" x="247.42969" y="86.51245" width="21.3939" height="21.31632"/><path class="o" d="M254.99123,96.19288a.11238.11238,0,0,1,.0332.08423v.40234a.11381.11381,0,0,1-.0332.08179.10909.10909,0,0,1-.084.03516h-.21485a.70844.70844,0,0,0-.08691.23852,1.65775,1.65775,0,0,0-.03027.33228v1.36132a.08636.08636,0,0,1-.04493.07251.15777.15777,0,0,1-.09082.03052h-.54687a.097.097,0,0,1-.10352-.103V97.31568a1.00779,1.00779,0,0,1,.09375-.51928h-1.0664a.12018.12018,0,0,1-.11719-.117v-.40234a.11036.11036,0,0,1,.03516-.08423.117.117,0,0,1,.082-.03272h2.09082A.11348.11348,0,0,1,254.99123,96.19288Z"/><path class="o" d="M255.33986,96.68873a.09143.09143,0,0,1-.02539-.06543.14526.14526,0,0,1,.00879-.05151l.36035-.93091a.27344.27344,0,0,1,.06836-.096.15832.15832,0,0,1,.10938-.03516h.3418a.08044.08044,0,0,1,.06738.03272.0987.0987,0,0,1,.02148.075l-.14551.93579a.23485.23485,0,0,1-.05566.11694.15082.15082,0,0,1-.11719.04664h-.57031A.08273.08273,0,0,1,255.33986,96.68873Zm1.05762,0a.09232.09232,0,0,1-.02637-.06543.14536.14536,0,0,1,.00977-.05151l.36035-.93091a.28478.28478,0,0,1,.06738-.096.161.161,0,0,1,.11036-.03516h.34179a.08172.08172,0,0,1,.06739.03272.09874.09874,0,0,1,.02148.075l-.14551.93579a.24346.24346,0,0,1-.05566.11694.15082.15082,0,0,1-.11719.04664H256.46A.08071.08071,0,0,1,256.39748,96.68873Z"/><path class="o" d="M258.07522,98.57179a1.14513,1.14513,0,0,1-.31836-.86768v-1.427a.11038.11038,0,0,1,.03515-.08423.1213.1213,0,0,1,.08594-.03272h1.19336a1.35337,1.35337,0,0,1,.96387.2854,1.21444,1.21444,0,0,1,.32324.84205c.00293.03125.00391.10449.00391.22,0,.1184-.001.19336-.00391.22461a1.21892,1.21892,0,0,1-.335.85376,1.40887,1.40887,0,0,1-.99414.29223A1.32627,1.32627,0,0,1,258.07522,98.57179Zm1.3916-.47706a.53474.53474,0,0,0,.13281-.386c.00391-.03125.00488-.09839.00488-.20117,0-.09986-.001-.16529-.00488-.19654a.54617.54617,0,0,0-.13965-.38842.57709.57709,0,0,0-.41211-.12622h-.5664V97.69a.50356.50356,0,0,0,.14062.39062.574.574,0,0,0,.40234.12867A.65635.65635,0,0,0,259.46682,98.09473Z"/><path class="o" d="M263.14162,96.44556a1.13128,1.13128,0,0,1,.29981.85621v1.41284a.11382.11382,0,0,1-.03321.08179.10911.10911,0,0,1-.084.03515H262.0469a.12014.12014,0,0,1-.11719-.11694v-.40235a.10963.10963,0,0,1,.03515-.08422.117.117,0,0,1,.082-.03272h.60351v-.8562a.56125.56125,0,0,0-.11719-.37891.38134.38134,0,0,0-.30371-.13574h-.36523l-.39746,1.8855a.14251.14251,0,0,1-.03711.08643.1106.1106,0,0,1-.084.03515h-.53808a.11707.11707,0,0,1-.08692-.03515.09037.09037,0,0,1-.02539-.08643l.458-1.88086h-.30859a.10912.10912,0,0,1-.084-.03516.119.119,0,0,1-.0332-.08642v-.43042a.11036.11036,0,0,1,.03516-.08423.117.117,0,0,1,.082-.03272h1.502A1.10444,1.10444,0,0,1,263.14162,96.44556Z"/><rect class="m" x="247.42969" y="107.82877" width="21.3939" height="21.31632"/><rect class="n" x="247.42969" y="107.82877" width="21.3939" height="21.31632"/><path class="o" d="M258.16408,120.1128a.11245.11245,0,0,1-.03515-.082v-2.18945l-.627.48193a.13092.13092,0,0,1-.07031.02344.12143.12143,0,0,1-.09766-.05615l-.29-.37427a.13713.13713,0,0,1-.01856-.07031.11971.11971,0,0,1,.05078-.10279l1.08594-.8374a.18075.18075,0,0,1,.10742-.033h.61719a.12278.12278,0,0,1,.08691.033.10946.10946,0,0,1,.03516.084v3.041a.10964.10964,0,0,1-.03516.08423.12258.12258,0,0,1-.08691.03271h-.64063A.11314.11314,0,0,1,258.16408,120.1128Z"/><rect class="p" x="226.03579" y="107.82877" width="21.3939" height="21.31632"/><rect class="n" x="226.03579" y="107.82877" width="21.3939" height="21.31632"/><rect class="p" x="204.65706" y="107.82877" width="21.3939" height="21.31632"/><rect class="n" x="204.65706" y="107.82877" width="21.3939" height="21.31632"/><rect class="p" x="183.26316" y="107.82877" width="21.3939" height="21.31632"/><rect class="n" x="183.26316" y="107.82877" width="21.3939" height="21.31632"/><rect class="p" x="54.89977" y="107.82877" width="21.3939" height="21.31632"/><rect class="n" x="54.89977" y="107.82877" width="21.3939" height="21.31632"/><rect class="p" x="76.32221" y="107.82877" width="21.3939" height="21.31632"/><rect class="n" x="76.32221" y="107.82877" width="21.3939" height="21.31632"/><rect class="p" x="97.74464" y="107.82877" width="21.3939" height="21.31632"/><rect class="n" x="97.74464" y="107.82877" width="21.3939" height="21.31632"/><rect class="p" x="119.16708" y="107.82877" width="21.3939" height="21.31632"/><rect class="n" x="119.16708" y="107.82877" width="21.3939" height="21.31632"/><rect class="p" x="140.58951" y="107.82877" width="21.3939" height="21.31632"/><rect class="n" x="140.58951" y="107.82877" width="21.3939" height="21.31632"/><rect class="p" x="162.01194" y="107.82877" width="21.3939" height="21.31632"/><rect class="n" x="162.01194" y="107.82877" width="21.3939" height="21.31632"/><rect class="m" x="226.03579" y="86.51245" width="21.3939" height="21.31632"/><rect class="n" x="226.03579" y="86.51245" width="21.3939" height="21.31632"/><path class="o" d="M233.79494,95.99171a.10963.10963,0,0,1-.03515-.08423V93.47a.10947.10947,0,0,1,.03515-.084.12046.12046,0,0,1,.08594-.033h1.0625a1.42141,1.42141,0,0,1,.94727.269,1.10465,1.10465,0,0,1,.31054.8772v1.40356a.11964.11964,0,0,1-.12109.12158h-2.19922A.12027.12027,0,0,1,233.79494,95.99171Zm1.65332-.60352v-.86548a.46918.46918,0,0,0-.52832-.53344h-.44922v1.39892Z"/><path class="o" d="M239.74318,93.386a.11449.11449,0,0,1,.03223.084v1.22583a1.38228,1.38228,0,0,1-.18652.7229,1.27327,1.27327,0,0,1-.50977.47949,1.48885,1.48885,0,0,1-.71582.16382h-.44922a1.40894,1.40894,0,0,1-.65527-.145,1.03076,1.03076,0,0,1-.42773-.39307,1.04742,1.04742,0,0,1-.14747-.54736V93.47a.10948.10948,0,0,1,.03516-.084.12046.12046,0,0,1,.08594-.033h.49121a.11654.11654,0,0,1,.085.033.11453.11453,0,0,1,.03223.084l.00488,1.1228a.43031.43031,0,0,0,.35547-.19409.95671.95671,0,0,0,.10254-.48877V93.4795a.1233.1233,0,0,1,.03515-.09131.11858.11858,0,0,1,.08692-.03515h.48633a.10961.10961,0,0,1,.082.03759.12514.12514,0,0,1,.03515.08887v.4397a1.21509,1.21509,0,0,1-.27636.842,1.15993,1.15993,0,0,1-.78125.36035.61187.61187,0,0,0,.23632.22925.67638.67638,0,0,0,.3252.07959h.10742a.93213.93213,0,0,0,.43067-.09839.74563.74563,0,0,0,.2998-.27124.72466.72466,0,0,0,.10742-.38843V93.47a.11172.11172,0,0,1,.11719-.11694h.49121A.11426.11426,0,0,1,239.74318,93.386Z"/><path class="o" d="M230.94338,101.38111a1.12049,1.12049,0,0,1-.3252-.86084V99.084a.10946.10946,0,0,1,.03516-.084.11393.11393,0,0,1,.08106-.033h.4873a.12047.12047,0,0,1,.08594.033.10945.10945,0,0,1,.03515.084v1.41309a.483.483,0,0,0,.15235.39062.63548.63548,0,0,0,.42285.12867q.52441,0,.5293-.50074a1.00156,1.00156,0,0,0,.00195-.12622c-.001-.053-.00195-.0935-.00195-.12158v-.103a.84775.84775,0,0,0-.08887-.40942.26835.26835,0,0,0-.24317-.14258.57114.57114,0,0,0-.13867.01856.46393.46393,0,0,0-.11914.04687.13972.13972,0,0,1-.042.00928.09832.09832,0,0,1-.07227-.03028.10337.10337,0,0,1-.03027-.07714v-.36963a.18337.18337,0,0,1,.08887-.1731.88141.88141,0,0,1,.44922-.08887.90441.90441,0,0,1,.73633.269,1.32012,1.32012,0,0,1,.23144.83032v.49121q-.05127,1.14624-1.30078,1.14624A1.381,1.381,0,0,1,230.94338,101.38111Z"/><path class="o" d="M233.69338,100.49708a.11036.11036,0,0,1-.03516-.08423V99.084a.10946.10946,0,0,1,.03516-.084.1228.1228,0,0,1,.08691-.033h.585a.11277.11277,0,0,1,.084.033.11522.11522,0,0,1,.0332.084v1.32886a.11842.11842,0,0,1-.0332.08179.10915.10915,0,0,1-.084.03515h-.585A.12365.12365,0,0,1,233.69338,100.49708Z"/><path class="o" d="M236.31838,101.60572a.10963.10963,0,0,1-.03516-.08423v-1.38476a.46958.46958,0,0,0-.52832-.53345H235.043a.11006.11006,0,0,1-.08106-.03491.11245.11245,0,0,1-.03515-.082V99.084a.10948.10948,0,0,1,.03515-.084.11393.11393,0,0,1,.08106-.033h.73926a1.49015,1.49015,0,0,1,.9707.26685,1.07726,1.07726,0,0,1,.32129.87475v1.41284a.11854.11854,0,0,1-.0332.082.10977.10977,0,0,1-.084.03492h-.55273A.12027.12027,0,0,1,236.31838,101.60572Z"/><path class="o" d="M238.21486,99.79981c.00684.12793.044.20288.11231.22461l.13086.04688a.10638.10638,0,0,1,.05859.05371.17617.17617,0,0,1,.02149.08667l.00488.23852a.12383.12383,0,0,1-.06348.10987.23107.23107,0,0,1-.15234.03051l-.19141-.02807a.59394.59394,0,0,1-.40234-.25977.93323.93323,0,0,1-.15918-.55908V99.084a.15852.15852,0,0,1,.04-.084.09919.09919,0,0,1,.07715-.033h.94433a1.21022,1.21022,0,0,1,.915.31592,1.33061,1.33061,0,0,1,.33008.88647c.00293.03125.00391.075.00391.13111a1.47887,1.47887,0,0,1-.29883.98461,1.17986,1.17986,0,0,1-.9502.35328h-.88867a.11867.11867,0,0,1-.08594-.03272.10965.10965,0,0,1-.03515-.08423v-.43042a.11748.11748,0,0,1,.03515-.08642.11485.11485,0,0,1,.08594-.03516h.86524a.55711.55711,0,0,0,.39062-.13794.54577.54577,0,0,0,.167-.39062c.00293-.03125.00391-.07813.00391-.14038,0-.05933-.001-.1045-.00391-.13575a.53066.53066,0,0,0-.16211-.39062.56623.56623,0,0,0-.3955-.13794h-.39747Z"/><path class="o" d="M242.09377,101.60572a.1147.1147,0,0,1-.03223-.08423v-1.38476a.46987.46987,0,0,0-.52929-.53345h-1.06641a.12023.12023,0,0,1-.08594-.03272.10963.10963,0,0,1-.03515-.08422V99.084A.10948.10948,0,0,1,240.3799,99a.12047.12047,0,0,1,.08594-.033h1.08984a1.4344,1.4344,0,0,1,.97071.2854,1.12274,1.12274,0,0,1,.32519.88892v1.38012a.11237.11237,0,0,1-.03418.08423.12259.12259,0,0,1-.08691.03272h-.55176A.11483.11483,0,0,1,242.09377,101.60572Zm-1.71387,0a.10965.10965,0,0,1-.03515-.08423v-1.366a.10965.10965,0,0,1,.03515-.08423.1213.1213,0,0,1,.08594-.03272h.55274a.11132.11132,0,0,1,.11621.117v1.366a.11759.11759,0,0,1-.03223.082.11122.11122,0,0,1-.084.03492h-.55274A.12027.12027,0,0,1,240.3799,101.60572Z"/><rect class="m" x="204.54513" y="86.51245" width="21.3939" height="21.31632"/><rect class="n" x="204.54513" y="86.51245" width="21.3939" height="21.31632"/><path class="o" d="M211.502,98.79884a.11549.11549,0,0,1-.03222-.08423V97.32984a.46977.46977,0,0,0-.5293-.53344H209.874a.12126.12126,0,0,1-.08593-.03272.10963.10963,0,0,1-.03516-.08423v-.40234a.11036.11036,0,0,1,.03516-.08423.12126.12126,0,0,1,.08593-.03272h1.08985a1.43444,1.43444,0,0,1,.9707.2854,1.12239,1.12239,0,0,1,.3252.88892v1.38013a.11315.11315,0,0,1-.03418.08423.12372.12372,0,0,1-.08692.03271h-.55176A.11581.11581,0,0,1,211.502,98.79884Zm-1.71386,0a.11037.11037,0,0,1-.03516-.08423V97.3484a.11036.11036,0,0,1,.03516-.08423.12126.12126,0,0,1,.08593-.03272h.55274a.11132.11132,0,0,1,.11621.117v1.36621a.117.117,0,0,1-.03223.08179.11058.11058,0,0,1-.084.03515H209.874A.1213.1213,0,0,1,209.78811,98.79884Z"/><path class="o" d="M212.81936,98.79884a.11037.11037,0,0,1-.03516-.08423v-2.4375a.11036.11036,0,0,1,.03516-.08423.12126.12126,0,0,1,.08593-.03272h.585a.11352.11352,0,0,1,.084.03272.11238.11238,0,0,1,.0332.08423v2.4375a.11381.11381,0,0,1-.0332.08179.10915.10915,0,0,1-.084.03515h-.585A.1213.1213,0,0,1,212.81936,98.79884Z"/><path class="o" d="M214.19533,98.79884a.1104.1104,0,0,1-.03515-.08423v-2.4375a.11038.11038,0,0,1,.03515-.08423.1213.1213,0,0,1,.08594-.03272h.585a.11352.11352,0,0,1,.084.03272.11238.11238,0,0,1,.0332.08423v2.4375a.11381.11381,0,0,1-.0332.08179.10915.10915,0,0,1-.084.03515h-.585A.12134.12134,0,0,1,214.19533,98.79884Z"/><path class="o" d="M217.65432,97.25733a1.154,1.154,0,0,1-.41211.42334l.36523.50049a.46255.46255,0,0,1,.04395.07031.17734.17734,0,0,1,.0166.08423v.37891a.117.117,0,0,1-.03223.08179.11123.11123,0,0,1-.085.03515h-1.89941a.11034.11034,0,0,1-.08106-.03515.11193.11193,0,0,1-.03515-.08179V98.2981a.11036.11036,0,0,1,.03515-.08422.11471.11471,0,0,1,.08106-.03272H216.751l-1.36133-1.85254a.16287.16287,0,0,1-.02832-.075.0848.0848,0,0,1,.03125-.06787.1064.1064,0,0,1,.07226-.02564h.58008a.1712.1712,0,0,1,.14942.08423l.65527.8982a.73842.73842,0,0,0,.21484-.59424v-.262a.12269.12269,0,0,1,.03516-.09107.11857.11857,0,0,1,.08691-.03516h.49121a.10938.10938,0,0,1,.082.03736.12594.12594,0,0,1,.03515.08887v.40234A1.15826,1.15826,0,0,1,217.65432,97.25733Z"/><path class="o" d="M220.794,98.73316a.09837.09837,0,0,1-.02832.06787.09134.09134,0,0,1-.07032.03052h-.57519a.15549.15549,0,0,1-.126-.04443l-.042-.04932-.81934-1.18359a.53.53,0,0,0-.15918.25732,1.25814,1.25814,0,0,0-.03711.30884v.58472a.12328.12328,0,0,1-.03515.09131.11707.11707,0,0,1-.08692.03515h-.458a.10877.10877,0,0,1-.082-.0376.1251.1251,0,0,1-.03515-.08886V98.125a1.64723,1.64723,0,0,1,.10742-.64551,1.20064,1.20064,0,0,1,.40723-.468l-.47754-.6875a.09848.09848,0,0,1-.02246-.06567.10393.10393,0,0,1,.09765-.09815h.55176a.15672.15672,0,0,1,.10059.02808.354.354,0,0,1,.06836.07471l.75293,1.06689a.41038.41038,0,0,0,.166-.20605.89547.89547,0,0,0,.03516-.2666v-.5708a.12533.12533,0,0,1,.0332-.09107.10912.10912,0,0,1,.084-.03516h.49121a.11509.11509,0,0,1,.08691.03736.12591.12591,0,0,1,.03516.08887V96.876a1.22333,1.22333,0,0,1-.12012.54493,1.11528,1.11528,0,0,1-.43262.44214l.57129.80468A.12148.12148,0,0,1,220.794,98.73316Z"/><rect class="m" x="183.26316" y="86.51245" width="21.3939" height="21.31632"/><rect class="n" x="183.26316" y="86.51245" width="21.3939" height="21.31632"/><path class="o" d="M190.2549,99.37891a.11036.11036,0,0,1-.03515-.08422V96.27711a.11038.11038,0,0,1,.03515-.08423.1213.1213,0,0,1,.08594-.03272h.55274a.11132.11132,0,0,1,.11621.11695v3.01758a.11132.11132,0,0,1-.11621.11694h-.55274A.1213.1213,0,0,1,190.2549,99.37891Z"/><path class="o" d="M192.87014,98.79884a.11037.11037,0,0,1-.03516-.08423V97.32984a.46948.46948,0,0,0-.52832-.53344h-.71191a.11032.11032,0,0,1-.08106-.03516.11189.11189,0,0,1-.03515-.08179v-.40234a.11035.11035,0,0,1,.03515-.08423.11471.11471,0,0,1,.08106-.03272h.73925a1.49159,1.49159,0,0,1,.97071.26661,1.07748,1.07748,0,0,1,.32129.875v1.41284a.118.118,0,0,1-.03321.08179.10911.10911,0,0,1-.084.03515h-.55273A.12134.12134,0,0,1,192.87014,98.79884Z"/><path class="o" d="M196.27346,97.25733a1.154,1.154,0,0,1-.41211.42334l.36523.50049a.46255.46255,0,0,1,.04395.07031.17734.17734,0,0,1,.0166.08423v.37891a.117.117,0,0,1-.03223.08179.11123.11123,0,0,1-.085.03515h-1.89941a.11034.11034,0,0,1-.08106-.03515.11193.11193,0,0,1-.03515-.08179V98.2981a.11036.11036,0,0,1,.03515-.08422.11471.11471,0,0,1,.08106-.03272h1.09961l-1.36133-1.85254a.16287.16287,0,0,1-.02832-.075.0848.0848,0,0,1,.03125-.06787.1064.1064,0,0,1,.07226-.02564h.58008a.1712.1712,0,0,1,.14942.08423l.65527.8982a.73839.73839,0,0,0,.21484-.59424v-.262a.12269.12269,0,0,1,.03516-.09107.11857.11857,0,0,1,.08691-.03516h.49122a.10936.10936,0,0,1,.082.03736.12594.12594,0,0,1,.03515.08887v.40234A1.15826,1.15826,0,0,1,196.27346,97.25733Z"/><path class="o" d="M196.92971,97.69a.10963.10963,0,0,1-.03516-.08423V96.27711a.11036.11036,0,0,1,.03516-.08423.12366.12366,0,0,1,.08691-.03272h.585a.11352.11352,0,0,1,.084.03272.1162.1162,0,0,1,.0332.08423v1.32861a.11756.11756,0,0,1-.0332.08179.10912.10912,0,0,1-.084.03515h-.585A.1226.1226,0,0,1,196.92971,97.69Z"/><rect class="m" x="161.8689" y="86.51245" width="21.3939" height="21.31632"/><rect class="n" x="161.8689" y="86.51245" width="21.3939" height="21.31632"/><path class="o" d="M166.89553,98.7964a.1119.1119,0,0,1-.03516-.08179v-.35108a.288.288,0,0,1,.11719-.23388l.43555-.42554q.44384-.33691.67089-.52417a2.33658,2.33658,0,0,0,.34668-.33911.47769.47769,0,0,0,.11915-.2876.306.306,0,0,0-.34668-.34619.35671.35671,0,0,0-.28028.10986.56627.56627,0,0,0-.13086.27368.14387.14387,0,0,1-.15918.10767h-.61718a.10073.10073,0,0,1-.07325-.03052.09263.09263,0,0,1-.03027-.06787,1.07053,1.07053,0,0,1,.1709-.55908,1.135,1.135,0,0,1,.45117-.39771,1.46029,1.46029,0,0,1,.66895-.14721,1.6665,1.6665,0,0,1,.67871.12622.92269.92269,0,0,1,.58007.88891.97466.97466,0,0,1-.208.60816,3.28025,3.28025,0,0,1-.63379.5896l-.38867.38818h1.18359a.11283.11283,0,0,1,.11719.117v.50073a.11382.11382,0,0,1-.03321.08179.10911.10911,0,0,1-.084.03515h-2.4375A.11245.11245,0,0,1,166.89553,98.7964Z"/><path class="o" d="M170.3467,98.53687a1.31727,1.31727,0,0,1-.37012-.88891q-.00879-.25269-.00879-.45386,0-.20582.00879-.46777a1.39047,1.39047,0,0,1,.17578-.62476,1.11844,1.11844,0,0,1,.45313-.43262,1.72662,1.72662,0,0,1,1.44824,0,1.10822,1.10822,0,0,1,.45606.43262,1.39047,1.39047,0,0,1,.17578.62476q.00879.13072.00879.46777,0,.32739-.00879.45386a1.31727,1.31727,0,0,1-.37012.88891,1.59017,1.59017,0,0,1-1.96875,0Zm1.30957-.50781a.712.712,0,0,0,.11719-.40454q.00879-.13587.00879-.43994,0-.304-.00879-.43018a.72062.72062,0,0,0-.11719-.40014.37907.37907,0,0,0-.32715-.14722q-.42187,0-.44433.54736c-.00391.084-.00489.22754-.00489.43018,0,.20288.001.34936.00489.43994q.022.54713.44433.54736A.38381.38381,0,0,0,171.65627,98.02906Z"/><path class="o" d="M174.1426,98.7964a.1119.1119,0,0,1-.03516-.08179V96.52515l-.62695.48169a.13092.13092,0,0,1-.07031.02344.12142.12142,0,0,1-.09766-.05615l-.29-.37427a.13633.13633,0,0,1-.01855-.07007.12042.12042,0,0,1,.05078-.103l1.08594-.83741a.18227.18227,0,0,1,.10742-.03271h.61718a.12372.12372,0,0,1,.08692.03271.11037.11037,0,0,1,.03516.08423v3.041a.11037.11037,0,0,1-.03516.08423.12372.12372,0,0,1-.08692.03271h-.64062A.11245.11245,0,0,1,174.1426,98.7964Z"/><path class="o" d="M176.10549,98.74024a1.031,1.031,0,0,1-.46582-.37182.94667.94667,0,0,1-.15137-.52417.81523.81523,0,0,1,.124-.4419.84321.84321,0,0,1,.32519-.30664.71721.71721,0,0,1-.332-.64551.83527.83527,0,0,1,.32031-.67846,1.46814,1.46814,0,0,1,.94727-.262,1.447,1.447,0,0,1,.9375.25977.83323.83323,0,0,1,.3164.676.747.747,0,0,1-.31836.65015.78.78,0,0,1,.33008.29956.85287.85287,0,0,1,.124.45386.92143.92143,0,0,1-.1543.52148,1.05691,1.05691,0,0,1-.46875.36963,2.20188,2.20188,0,0,1-1.53418,0Zm1.12988-.59179a.38573.38573,0,0,0,0-.59888.568.568,0,0,0-.3623-.11231.5804.5804,0,0,0-.36524.11231.38246.38246,0,0,0,0,.59888.57894.57894,0,0,0,.36524.1123A.56657.56657,0,0,0,177.23537,98.14845Zm-.04-1.40113a.31127.31127,0,0,0,.127-.25512.31548.31548,0,0,0-.127-.25953.57127.57127,0,0,0-.64746,0,.3338.3338,0,0,0,0,.51929.49735.49735,0,0,0,.3252.10059A.52108.52108,0,0,0,177.19533,96.74732Z"/><rect class="m" x="140.48223" y="86.51245" width="21.3939" height="21.31632"/><rect class="n" x="140.48223" y="86.51245" width="21.3939" height="21.31632"/><path class="o" d="M145.59084,98.7964a.1119.1119,0,0,1-.03516-.08179v-.35108a.288.288,0,0,1,.11719-.23388l.43555-.42554q.44385-.33691.6709-.52417a2.33757,2.33757,0,0,0,.34668-.33911.47773.47773,0,0,0,.11914-.2876.306.306,0,0,0-.34668-.34619.35671.35671,0,0,0-.28028.10986.56617.56617,0,0,0-.13085.27368.14388.14388,0,0,1-.15918.10767H145.711a.10069.10069,0,0,1-.07324-.03052.0926.0926,0,0,1-.03028-.06787,1.07053,1.07053,0,0,1,.1709-.55908,1.135,1.135,0,0,1,.45117-.39771,1.46029,1.46029,0,0,1,.66895-.14721,1.6665,1.6665,0,0,1,.67871.12622.92268.92268,0,0,1,.58008.88891.97467.97467,0,0,1-.208.60816,3.28,3.28,0,0,1-.63379.5896l-.38867.38818h1.18359a.11352.11352,0,0,1,.084.03272.11238.11238,0,0,1,.0332.08423v.50073a.11381.11381,0,0,1-.0332.08179.10915.10915,0,0,1-.084.03515h-2.4375A.11245.11245,0,0,1,145.59084,98.7964Z"/><path class="o" d="M149.042,98.53687a1.31722,1.31722,0,0,1-.37011-.88891q-.00879-.25269-.00879-.45386,0-.20582.00879-.46777a1.39021,1.39021,0,0,1,.17578-.62476,1.11841,1.11841,0,0,1,.45312-.43262,1.72662,1.72662,0,0,1,1.44824,0,1.10816,1.10816,0,0,1,.45606.43262,1.39047,1.39047,0,0,1,.17578.62476q.00879.13072.00879.46777,0,.32739-.00879.45386a1.31723,1.31723,0,0,1-.37012.88891,1.59017,1.59017,0,0,1-1.96875,0Zm1.30957-.50781a.712.712,0,0,0,.11719-.40454q.00879-.13587.00879-.43994,0-.304-.00879-.43018a.72062.72062,0,0,0-.11719-.40014.37906.37906,0,0,0-.32715-.14722q-.42187,0-.44433.54736c-.00391.084-.00488.22754-.00488.43018,0,.20288.001.34936.00488.43994q.022.54713.44433.54736A.3838.3838,0,0,0,150.35158,98.02906Z"/><path class="o" d="M152.83791,98.7964a.1119.1119,0,0,1-.03516-.08179V96.52515l-.62695.48169a.13092.13092,0,0,1-.07031.02344.12142.12142,0,0,1-.09766-.05615l-.29-.37427a.13633.13633,0,0,1-.01855-.07007.12042.12042,0,0,1,.05078-.103l1.08594-.83741a.18227.18227,0,0,1,.10742-.03271h.61719a.1237.1237,0,0,1,.08691.03271.11037.11037,0,0,1,.03516.08423v3.041a.11037.11037,0,0,1-.03516.08423.1237.1237,0,0,1-.08691.03271h-.64063A.11245.11245,0,0,1,152.83791,98.7964Z"/><path class="o" d="M154.71193,98.801a.10414.10414,0,0,1-.02832-.07251.10709.10709,0,0,1,.01954-.06079l.65429-.89355a.42091.42091,0,0,1-.126.00928,1.31984,1.31984,0,0,1-.543-.15674,1.1384,1.1384,0,0,1-.41895-.38355.99652.99652,0,0,1-.16113-.55908,1.12819,1.12819,0,0,1,.15723-.57764,1.14275,1.14275,0,0,1,.46289-.43286,1.54406,1.54406,0,0,1,.73632-.16382,1.72809,1.72809,0,0,1,.749.14966,1.09686,1.09686,0,0,1,.47461.40943,1.082,1.082,0,0,1,.16113.58252,1.04348,1.04348,0,0,1-.10449.47021,3.4432,3.4432,0,0,1-.31641.49829l-.084.11694-.73438,1.001a.1982.1982,0,0,1-.16894.09375h-.65918A.09134.09134,0,0,1,154.71193,98.801Zm1.10157-1.78a.44841.44841,0,0,0,.13379-.34155.44275.44275,0,0,0-.13575-.34155.47665.47665,0,0,0-.33691-.12622.47167.47167,0,0,0-.33887.12622.44844.44844,0,0,0-.13379.34155.45374.45374,0,0,0,.13086.34155.52191.52191,0,0,0,.68067,0Z"/><rect class="m" x="119.09556" y="86.51245" width="21.3939" height="21.31632"/><rect class="n" x="119.09556" y="86.51245" width="21.3939" height="21.31632"/><path class="o" d="M123.75979,98.7964a.1119.1119,0,0,1-.03516-.08179v-.35108a.288.288,0,0,1,.11719-.23388l.43554-.42554q.44385-.33691.6709-.52417a2.33708,2.33708,0,0,0,.34668-.33911.47773.47773,0,0,0,.11914-.2876.306.306,0,0,0-.34668-.34619.3567.3567,0,0,0-.28027.10986.56618.56618,0,0,0-.13086.27368.14387.14387,0,0,1-.15918.10767h-.61719a.10071.10071,0,0,1-.07324-.03052.09259.09259,0,0,1-.03027-.06787,1.07044,1.07044,0,0,1,.1709-.55908,1.135,1.135,0,0,1,.45117-.39771,1.46028,1.46028,0,0,1,.66894-.14721,1.66647,1.66647,0,0,1,.67871.12622.92268.92268,0,0,1,.58008.88891.97461.97461,0,0,1-.208.60816,3.27985,3.27985,0,0,1-.63378.5896l-.38868.38818h1.1836a.11282.11282,0,0,1,.11718.117v.50073a.11381.11381,0,0,1-.0332.08179.10911.10911,0,0,1-.084.03515h-2.4375A.11243.11243,0,0,1,123.75979,98.7964Z"/><path class="o" d="M127.211,98.53687a1.31727,1.31727,0,0,1-.37012-.88891q-.00879-.25269-.00879-.45386,0-.20582.00879-.46777a1.39047,1.39047,0,0,1,.17578-.62476,1.11838,1.11838,0,0,1,.45313-.43262,1.72662,1.72662,0,0,1,1.44824,0,1.10819,1.10819,0,0,1,.45605.43262,1.39035,1.39035,0,0,1,.17579.62476q.00878.13072.00878.46777,0,.32739-.00878.45386a1.31727,1.31727,0,0,1-.37012.88891,1.59017,1.59017,0,0,1-1.96875,0Zm1.30957-.50781a.712.712,0,0,0,.11719-.40454q.00879-.13587.00878-.43994,0-.304-.00878-.43018a.72062.72062,0,0,0-.11719-.40014.37908.37908,0,0,0-.32715-.14722q-.42187,0-.44434.54736c-.0039.084-.00488.22754-.00488.43018,0,.20288.001.34936.00488.43994q.022.54713.44434.54736A.38382.38382,0,0,0,128.52053,98.02906Z"/><path class="o" d="M130.01955,98.7964a.11189.11189,0,0,1-.03515-.08179v-.35108a.288.288,0,0,1,.11718-.23388l.43555-.42554q.44385-.33691.6709-.52417a2.33708,2.33708,0,0,0,.34668-.33911.47773.47773,0,0,0,.11914-.2876.306.306,0,0,0-.34668-.34619.3567.3567,0,0,0-.28027.10986.56618.56618,0,0,0-.13086.27368.14388.14388,0,0,1-.15918.10767h-.61719a.10069.10069,0,0,1-.07324-.03052.0926.0926,0,0,1-.03028-.06787,1.07053,1.07053,0,0,1,.1709-.55908,1.135,1.135,0,0,1,.45117-.39771,1.46032,1.46032,0,0,1,.66895-.14721,1.6665,1.6665,0,0,1,.67871.12622.92268.92268,0,0,1,.58008.88891.97467.97467,0,0,1-.208.60816,3.28,3.28,0,0,1-.63379.5896l-.38867.38818h1.18359a.11352.11352,0,0,1,.084.03272.11238.11238,0,0,1,.0332.08423v.50073a.11381.11381,0,0,1-.0332.08179.10915.10915,0,0,1-.084.03515h-2.4375A.11245.11245,0,0,1,130.01955,98.7964Z"/><path class="o" d="M133.47072,98.53687a1.31722,1.31722,0,0,1-.37011-.88891q-.00879-.25269-.00879-.45386,0-.20582.00879-.46777a1.39034,1.39034,0,0,1,.17578-.62476,1.11841,1.11841,0,0,1,.45312-.43262,1.72662,1.72662,0,0,1,1.44824,0,1.10816,1.10816,0,0,1,.45606.43262,1.39034,1.39034,0,0,1,.17578.62476q.00879.13072.00879.46777,0,.32739-.00879.45386a1.31723,1.31723,0,0,1-.37012.88891,1.59017,1.59017,0,0,1-1.96875,0Zm1.30957-.50781a.71187.71187,0,0,0,.11719-.40454q.00879-.13587.00879-.43994,0-.304-.00879-.43018a.72054.72054,0,0,0-.11719-.40014.37905.37905,0,0,0-.32714-.14722q-.42187,0-.44434.54736c-.00391.084-.00488.22754-.00488.43018,0,.20288.001.34936.00488.43994q.022.54713.44434.54736A.38379.38379,0,0,0,134.78029,98.02906Z"/><rect class="m" x="97.70888" y="86.51245" width="21.3939" height="21.31632"/><rect class="n" x="97.70888" y="86.51245" width="21.3939" height="21.31632"/><path class="o" d="M102.794,98.7964a.1119.1119,0,0,1-.03516-.08179v-.35108a.288.288,0,0,1,.11719-.23388l.43554-.42554q.44385-.33691.6709-.52417a2.33708,2.33708,0,0,0,.34668-.33911.47773.47773,0,0,0,.11914-.2876.306.306,0,0,0-.34668-.34619.3567.3567,0,0,0-.28027.10986.56618.56618,0,0,0-.13086.27368.14387.14387,0,0,1-.15918.10767h-.61719a.10071.10071,0,0,1-.07324-.03052.09259.09259,0,0,1-.03027-.06787,1.07044,1.07044,0,0,1,.1709-.55908,1.135,1.135,0,0,1,.45117-.39771,1.46028,1.46028,0,0,1,.66894-.14721,1.66647,1.66647,0,0,1,.67871.12622.92268.92268,0,0,1,.58008.88891.97461.97461,0,0,1-.208.60816,3.27985,3.27985,0,0,1-.63378.5896l-.38868.38818h1.1836a.11282.11282,0,0,1,.11718.117v.50073a.11381.11381,0,0,1-.0332.08179.10911.10911,0,0,1-.084.03515H102.876A.11243.11243,0,0,1,102.794,98.7964Z"/><path class="o" d="M106.24514,98.53687a1.31723,1.31723,0,0,1-.37012-.88891q-.00879-.25269-.00879-.45386,0-.20582.00879-.46777a1.39047,1.39047,0,0,1,.17578-.62476,1.11838,1.11838,0,0,1,.45313-.43262,1.72662,1.72662,0,0,1,1.44824,0,1.10819,1.10819,0,0,1,.45605.43262,1.39021,1.39021,0,0,1,.17578.62476q.00879.13072.00879.46777,0,.32739-.00879.45386a1.31722,1.31722,0,0,1-.37011.88891,1.59017,1.59017,0,0,1-1.96875,0Zm1.30957-.50781a.712.712,0,0,0,.11719-.40454q.00878-.13587.00878-.43994,0-.304-.00878-.43018a.72062.72062,0,0,0-.11719-.40014.37908.37908,0,0,0-.32715-.14722q-.42187,0-.44434.54736c-.0039.084-.00488.22754-.00488.43018,0,.20288.001.34936.00488.43994q.022.54713.44434.54736A.38382.38382,0,0,0,107.55471,98.02906Z"/><path class="o" d="M109.05373,98.7964a.11189.11189,0,0,1-.03515-.08179v-.35108a.288.288,0,0,1,.11718-.23388l.43555-.42554q.44385-.33691.6709-.52417a2.33708,2.33708,0,0,0,.34668-.33911.47773.47773,0,0,0,.11914-.2876.306.306,0,0,0-.34668-.34619.35667.35667,0,0,0-.28027.10986.56618.56618,0,0,0-.13086.27368.14388.14388,0,0,1-.15918.10767h-.61719a.10069.10069,0,0,1-.07324-.03052.0926.0926,0,0,1-.03028-.06787,1.07053,1.07053,0,0,1,.1709-.55908,1.135,1.135,0,0,1,.45117-.39771,1.46032,1.46032,0,0,1,.66895-.14721,1.6665,1.6665,0,0,1,.67871.12622.92268.92268,0,0,1,.58008.88891.97467.97467,0,0,1-.208.60816,3.28,3.28,0,0,1-.63379.5896l-.38867.38818h1.18359a.11352.11352,0,0,1,.084.03272.11238.11238,0,0,1,.0332.08423v.50073a.11381.11381,0,0,1-.0332.08179.10915.10915,0,0,1-.084.03515h-2.4375A.11245.11245,0,0,1,109.05373,98.7964Z"/><path class="o" d="M113.10549,98.7964a.1119.1119,0,0,1-.03516-.08179V96.52515l-.62695.48169a.13092.13092,0,0,1-.07031.02344.12142.12142,0,0,1-.09766-.05615l-.29-.37427a.13633.13633,0,0,1-.01855-.07007.12042.12042,0,0,1,.05078-.103l1.08594-.83741a.18227.18227,0,0,1,.10742-.03271h.61719a.1237.1237,0,0,1,.08691.03271.11037.11037,0,0,1,.03516.08423v3.041a.11037.11037,0,0,1-.03516.08423.1237.1237,0,0,1-.08691.03271h-.64063A.11245.11245,0,0,1,113.10549,98.7964Z"/><rect class="m" x="76.32221" y="86.51245" width="21.3939" height="21.31632"/><rect class="n" x="76.32221" y="86.51245" width="21.3939" height="21.31632"/><path class="o" d="M81.05178,98.7964a.1119.1119,0,0,1-.03516-.08179v-.35108a.288.288,0,0,1,.11719-.23388l.43555-.42554q.44383-.33691.67089-.52417a2.33658,2.33658,0,0,0,.34668-.33911.47769.47769,0,0,0,.11915-.2876.306.306,0,0,0-.34668-.34619.35671.35671,0,0,0-.28028.10986.56627.56627,0,0,0-.13086.27368.14387.14387,0,0,1-.15918.10767H81.1719a.10073.10073,0,0,1-.07325-.03052.09263.09263,0,0,1-.03027-.06787,1.07053,1.07053,0,0,1,.1709-.55908,1.135,1.135,0,0,1,.45117-.39771,1.46029,1.46029,0,0,1,.66895-.14721,1.6665,1.6665,0,0,1,.67871.12622.92269.92269,0,0,1,.58007.88891.97466.97466,0,0,1-.208.60816,3.28025,3.28025,0,0,1-.63379.5896l-.38867.38818h1.18359a.11283.11283,0,0,1,.11719.117v.50073a.11382.11382,0,0,1-.03321.08179.10911.10911,0,0,1-.084.03515h-2.4375A.11245.11245,0,0,1,81.05178,98.7964Z"/><path class="o" d="M84.503,98.53687a1.31727,1.31727,0,0,1-.37012-.88891q-.00879-.25269-.00879-.45386,0-.20582.00879-.46777a1.39047,1.39047,0,0,1,.17578-.62476,1.11844,1.11844,0,0,1,.45313-.43262,1.72662,1.72662,0,0,1,1.44824,0,1.10822,1.10822,0,0,1,.45606.43262,1.39047,1.39047,0,0,1,.17578.62476q.00879.13072.00879.46777,0,.32739-.00879.45386a1.31727,1.31727,0,0,1-.37012.88891,1.59017,1.59017,0,0,1-1.96875,0Zm1.30957-.50781a.712.712,0,0,0,.11719-.40454q.00879-.13587.00879-.43994,0-.304-.00879-.43018a.72062.72062,0,0,0-.11719-.40014.37907.37907,0,0,0-.32715-.14722q-.42187,0-.44433.54736c-.00391.084-.00489.22754-.00489.43018,0,.20288.001.34936.00489.43994q.022.54713.44433.54736A.38381.38381,0,0,0,85.81252,98.02906Z"/><path class="o" d="M87.31154,98.7964a.11193.11193,0,0,1-.03515-.08179v-.35108a.288.288,0,0,1,.11719-.23388l.43554-.42554q.44385-.33691.6709-.52417a2.33708,2.33708,0,0,0,.34668-.33911.47773.47773,0,0,0,.11914-.2876.306.306,0,0,0-.34668-.34619.3567.3567,0,0,0-.28027.10986.56618.56618,0,0,0-.13086.27368.14388.14388,0,0,1-.15918.10767h-.61719a.10071.10071,0,0,1-.07324-.03052.09259.09259,0,0,1-.03027-.06787,1.07043,1.07043,0,0,1,.17089-.55908,1.13506,1.13506,0,0,1,.45118-.39771,1.46028,1.46028,0,0,1,.66894-.14721,1.66647,1.66647,0,0,1,.67871.12622.92268.92268,0,0,1,.58008.88891.97467.97467,0,0,1-.208.60816,3.27965,3.27965,0,0,1-.63379.5896l-.38867.38818h1.1836a.11282.11282,0,0,1,.11718.117v.50073a.11381.11381,0,0,1-.0332.08179.10913.10913,0,0,1-.084.03515h-2.4375A.11247.11247,0,0,1,87.31154,98.7964Z"/><path class="o" d="M90.376,98.7964a.1119.1119,0,0,1-.03516-.08179v-.35108a.288.288,0,0,1,.11719-.23388l.43555-.42554q.44383-.33691.67089-.52417a2.33658,2.33658,0,0,0,.34668-.33911.47773.47773,0,0,0,.11914-.2876.306.306,0,0,0-.34668-.34619.3567.3567,0,0,0-.28027.10986.56627.56627,0,0,0-.13086.27368.14387.14387,0,0,1-.15918.10767h-.61719a.10071.10071,0,0,1-.07324-.03052.09259.09259,0,0,1-.03027-.06787,1.07053,1.07053,0,0,1,.1709-.55908,1.135,1.135,0,0,1,.45117-.39771,1.46028,1.46028,0,0,1,.66894-.14721,1.66652,1.66652,0,0,1,.67872.12622.92269.92269,0,0,1,.58007.88891.97466.97466,0,0,1-.208.60816,3.28025,3.28025,0,0,1-.63379.5896l-.38868.38818h1.1836a.11283.11283,0,0,1,.11719.117v.50073a.11382.11382,0,0,1-.03321.08179.10911.10911,0,0,1-.084.03515H90.458A.11243.11243,0,0,1,90.376,98.7964Z"/><rect class="m" x="54.92867" y="86.51245" width="21.3939" height="21.31632"/><rect class="n" x="54.92867" y="86.51245" width="21.3939" height="21.31632"/><path class="o" d="M59.94436,93.18458a.10964.10964,0,0,1-.03516-.08423v-2.4375a.10944.10944,0,0,1,.03516-.084.12038.12038,0,0,1,.08593-.033h1.0625a1.42141,1.42141,0,0,1,.94727.269,1.10465,1.10465,0,0,1,.31055.8772v1.40356a.11966.11966,0,0,1-.1211.12158H60.03029A.12023.12023,0,0,1,59.94436,93.18458Zm1.65332-.60352v-.86548a.46919.46919,0,0,0-.52832-.53344h-.44922v1.39892Z"/><path class="o" d="M62.91506,93.18458a.10964.10964,0,0,1-.03516-.08423v-2.4375a.10944.10944,0,0,1,.03516-.084.12042.12042,0,0,1,.08594-.033h.585a.11269.11269,0,0,1,.084.033.11144.11144,0,0,1,.03321.084v2.4375a.11437.11437,0,0,1-.03321.082.10976.10976,0,0,1-.084.03491h-.585A.12027.12027,0,0,1,62.91506,93.18458Z"/><path class="o" d="M65.41994,93.24537a.13592.13592,0,0,1-.03808-.09351v-.47241a.14.14,0,0,1,.0332-.08911.18363.18363,0,0,1,.084-.06079l.14454-.06079a.68866.68866,0,0,0,.46875-.7251.618.618,0,0,0-.10547-.41162.50812.50812,0,0,0-.38575-.11694H64.376a.11638.11638,0,0,1-.08594-.03516.11765.11765,0,0,1-.03516-.08667v-.43506a.1.1,0,0,1,.03711-.07934.12249.12249,0,0,1,.084-.033h1.4082a1.13667,1.13667,0,0,1,.875.29248,1.27233,1.27233,0,0,1,.2666.88183,1.37788,1.37788,0,0,1-.35058.97315,1.86409,1.86409,0,0,1-.87989.52856l-.1914.05615A.08466.08466,0,0,1,65.41994,93.24537Zm-1.12988.83276a.10963.10963,0,0,1-.03516-.08423V91.73438a.10964.10964,0,0,1,.03516-.08423.12134.12134,0,0,1,.08594-.03271h.5332a.11737.11737,0,0,1,.085.03271.11467.11467,0,0,1,.03223.08423V93.9939a.11466.11466,0,0,1-.03223.08423.11734.11734,0,0,1-.085.03272H64.376A.1213.1213,0,0,1,64.29006,94.07813Z"/><path class="o" d="M67.39162,92.07594a.11036.11036,0,0,1-.03515-.08423V90.66285a.10943.10943,0,0,1,.03515-.084.12278.12278,0,0,1,.08692-.033h.585a.11269.11269,0,0,1,.084.033.11516.11516,0,0,1,.0332.084v1.32886a.11835.11835,0,0,1-.0332.08178.10909.10909,0,0,1-.084.03516h-.585A.12372.12372,0,0,1,67.39162,92.07594Z"/><path class="o" d="M71.07131,90.83131a1.132,1.132,0,0,1,.2998.8562v1.41284a.11436.11436,0,0,1-.0332.082.10976.10976,0,0,1-.084.03491H69.97658a.1197.1197,0,0,1-.11718-.11694V92.698a.11035.11035,0,0,1,.03515-.08423.117.117,0,0,1,.082-.03272h.60352v-.8562a.56164.56164,0,0,0-.11719-.3789.38205.38205,0,0,0-.30371-.13575H69.794l-.39747,1.8855a.14247.14247,0,0,1-.0371.08667.11127.11127,0,0,1-.084.03491h-.53808a.1178.1178,0,0,1-.08692-.03491.09058.09058,0,0,1-.02539-.08667l.458-1.88061h-.3086a.10909.10909,0,0,1-.084-.03516.11994.11994,0,0,1-.0332-.08667v-.43042a.10947.10947,0,0,1,.03515-.084.11614.11614,0,0,1,.082-.033h1.502A1.1044,1.1044,0,0,1,71.07131,90.83131Z"/><path class="o" d="M64.5049,99.1941a.0969.0969,0,0,1-.03027-.06787.11536.11536,0,0,1,.00977-.04688l1.58105-3.8081a.17692.17692,0,0,1,.17285-.11694h.44434a.09194.09194,0,0,1,.07031.03027.09928.09928,0,0,1,.02832.06787.11531.11531,0,0,1-.00977.04687l-1.58984,3.80811a.1721.1721,0,0,1-.17383.11694h-.43457A.09461.09461,0,0,1,64.5049,99.1941Z"/><path class="o" d="M61.73537,102.0525a1.08125,1.08125,0,0,1,.3252.86792v1.4082a.11378.11378,0,0,1-.03321.08179.10908.10908,0,0,1-.084.03515h-.55176a.12365.12365,0,0,1-.08691-.03271.11036.11036,0,0,1-.03516-.08423v-1.38476a.46909.46909,0,0,0-.52832-.53345h-.30469a2.80861,2.80861,0,0,0-.06933.68774l.03711,1.23047a.11036.11036,0,0,1-.03516.08423.12365.12365,0,0,1-.08691.03271l-.99121-.00463a.12282.12282,0,0,1-.08692-.033.10947.10947,0,0,1-.03515-.084v-.36963a.1096.1096,0,0,1,.03515-.08422.12368.12368,0,0,1,.08692-.03272h.3789v-.73462a2.48068,2.48068,0,0,1,.07031-.69238h-.27636a.12368.12368,0,0,1-.08692-.03272.10963.10963,0,0,1-.03515-.08422v-.40235a.1104.1104,0,0,1,.03515-.08423.12368.12368,0,0,1,.08692-.03271h1.30566A1.4518,1.4518,0,0,1,61.73537,102.0525Z"/><path class="o" d="M62.624,104.41285a.11038.11038,0,0,1-.03515-.08423v-2.4375a.1104.1104,0,0,1,.03515-.08423.1213.1213,0,0,1,.08594-.03271h.585a.1128.1128,0,0,1,.11719.11694v2.4375a.11381.11381,0,0,1-.0332.08179.10912.10912,0,0,1-.084.03515H62.71A.1213.1213,0,0,1,62.624,104.41285Z"/><path class="o" d="M65.2676,104.41285a.11036.11036,0,0,1-.03516-.08423v-1.38476a.46948.46948,0,0,0-.52832-.53345h-.71191a.11032.11032,0,0,1-.08106-.03516.11191.11191,0,0,1-.03515-.08178v-.40235a.1104.1104,0,0,1,.03515-.08423.1147.1147,0,0,1,.08106-.03271h.73926a1.49164,1.49164,0,0,1,.9707.2666,1.07748,1.07748,0,0,1,.32129.875v1.41284a.118.118,0,0,1-.03321.08179.10908.10908,0,0,1-.084.03515h-.55273A.1213.1213,0,0,1,65.2676,104.41285Z"/><path class="o" d="M68.96584,101.80689a.11546.11546,0,0,1,.03223.08423v1.38477a1.01686,1.01686,0,0,1-.32227.76953,1.72178,1.72178,0,0,1-.9082.40942l-1.19727.25269a.10893.10893,0,0,1-.09179-.02344.10368.10368,0,0,1-.03907-.08423v-.407a.11923.11923,0,0,1,.03028-.08179.13339.13339,0,0,1,.07715-.04443l.51953-.12647-.55274-1.979a.59721.59721,0,0,1-.02344-.09351.09641.09641,0,0,1,.09375-.0935h.6084a.11406.11406,0,0,1,.07032.021.10093.10093,0,0,1,.03711.04908l.46777,1.91357a.64268.64268,0,0,0,.34668-.2644.92024.92024,0,0,0,.09375-.45142v-1.15088a.11549.11549,0,0,1,.03222-.08423.11351.11351,0,0,1,.084-.03271h.55664A.11576.11576,0,0,1,68.96584,101.80689Z"/><path class="o" d="M71.2715,104.41285a.11547.11547,0,0,1-.03222-.08423v-1.38476a.46978.46978,0,0,0-.5293-.53345h-1.0664a.1213.1213,0,0,1-.08594-.03272.1096.1096,0,0,1-.03516-.08422v-.40235a.11037.11037,0,0,1,.03516-.08423.1213.1213,0,0,1,.08594-.03271h1.08984a1.43437,1.43437,0,0,1,.9707.2854,1.12235,1.12235,0,0,1,.3252.88891v1.38013a.11313.11313,0,0,1-.03418.08423.12368.12368,0,0,1-.08692.03271h-.55175A.1158.1158,0,0,1,71.2715,104.41285Zm-1.71386,0a.11036.11036,0,0,1-.03516-.08423v-1.36621a.11036.11036,0,0,1,.03516-.08423.1213.1213,0,0,1,.08594-.03271h.55273a.11131.11131,0,0,1,.11621.11694v1.36621a.117.117,0,0,1-.03223.08179.11054.11054,0,0,1-.084.03515h-.55273A.1213.1213,0,0,1,69.55764,104.41285Z"/><polygon class="q" points="61.726 78.68 0.266 64.878 14.19 5.287 69.101 17.533 66.748 26.423 73.978 26.121 61.726 78.68"/><polygon class="r" points="69.101 17.533 73.978 26.121 66.748 26.423 69.101 17.533"/><path class="s" d="M21.624,16.17994a1.34052,1.34052,0,0,1,.53516.17285.91264.91264,0,0,1,.34863.35938,1.16352,1.16352,0,0,1,.13965.4248.98447.98447,0,0,1-.042.40039,1.18193,1.18193,0,0,1-.18945.36914,1.69962,1.69962,0,0,1-.26856.28906.58513.58513,0,0,1-.26855.14454.297.297,0,0,1-.2041-.02539.684.684,0,0,1-.15723-.126c-.05371-.05371-.0332-.126.0625-.21582.0957-.09082.1914-.18262.28808-.27442a.88061.88061,0,0,0,.21973-.37793.36966.36966,0,0,0-.06445-.38867.51894.51894,0,0,0-.291-.17187.3415.3415,0,0,0-.25879.05273.23543.23543,0,0,1-.19726.05274.3253.3253,0,0,1-.17383-.17969.25474.25474,0,0,1-.01074-.27539C21.14162,16.33228,21.31838,16.25416,21.624,16.17994Z"/><path class="s" d="M24.06838,16.42115a1.42938,1.42938,0,0,1,.58887.19043.90033.90033,0,0,1,.291.30078.636.636,0,0,1,.06641.39649.83347.83347,0,0,1-.28711.48437,1.38207,1.38207,0,0,1,.167.44531,1.08637,1.08637,0,0,1-.07324.39551.59246.59246,0,0,1-.38867.36035,1.40777,1.40777,0,0,1-.4502.11035.30738.30738,0,0,1-.251-.14941c-.06836-.0957.03515-.20312.3125-.31836q.416-.17139.3164-.38769a.5447.5447,0,0,0-.21875-.27051.19692.19692,0,0,1-.11035-.21094c.00391-.10156.07617-.18457.21484-.248q.20655-.09521.19336-.25488a.32742.32742,0,0,0-.20605-.25684.42682.42682,0,0,0-.32422-.05273c-.08984.02832-.17578.06152-.25977.0957a.46453.46453,0,0,1-.25976.03418.36282.36282,0,0,1-.21289-.10547.2129.2129,0,0,1-.04492-.21972q.03515-.13478.37988-.25A1.33618,1.33618,0,0,1,24.06838,16.42115Z"/><path class="s" d="M26.628,17.12135a1.05175,1.05175,0,0,1,.67969.51953,1.73492,1.73492,0,0,1,.16211.63574,1.27376,1.27376,0,0,1-.12305.56836,1.23735,1.23735,0,0,1-.34082.44433.88891.88891,0,0,1-.46191.19532.9463.9463,0,0,1-.52247-.10157.993.993,0,0,1-.43164-.41992,1.66028,1.66028,0,0,1-.20605-.62207,1.06572,1.06572,0,0,1,.03125-.51465c.04492-.11914.09082-.18164.13379-.1914a.28151.28151,0,0,0,.1416-.123,1.74347,1.74347,0,0,1,.18555-.2168.63556.63556,0,0,1,.248-.16015A1.32305,1.32305,0,0,1,26.628,17.12135Zm-.71.87109a.94337.94337,0,0,0-.043.35937.774.774,0,0,0,.14063.35547.46994.46994,0,0,0,.331.21485.4597.4597,0,0,0,.377-.11719.61435.61435,0,0,0,.19825-.4248.80627.80627,0,0,0-.07129-.46192.46542.46542,0,0,0-.32032-.23437.38444.38444,0,0,0-.34961.05175A2.46486,2.46486,0,0,0,25.918,17.99244Z"/><path class="s" d="M29.09084,16.28639a.73169.73169,0,0,1,.52441.21777.77446.77446,0,0,1,.23438.3623.39053.39053,0,0,1-.041.27637c-.04687.082-.11914.08594-.21484.01465-.0957-.06934-.19629-.13965-.30176-.21a.37964.37964,0,0,0-.35742-.03028.75018.75018,0,0,0-.35742.33692,1.22468,1.22468,0,0,0-.02442.86133,3.97526,3.97526,0,0,1,.12793.88281,1.252,1.252,0,0,1-.1289.53027.5409.5409,0,0,1-.30664.30469.3237.3237,0,0,1-.29785-.02734c-.07618-.05371-.08106-.14258-.01465-.26758a3.1485,3.1485,0,0,0,.17578-.4082,1.11908,1.11908,0,0,0-.06543-.65723,2.30765,2.30765,0,0,1-.14258-.58887,2.68861,2.68861,0,0,1,.05664-.47656,1.41428,1.41428,0,0,1,.27344-.6084A1.80332,1.80332,0,0,1,29.09084,16.28639Z"/><path class="s" d="M31.60061,20.11939l-.60547.835-.459-.10937.46582-.86817Z"/><path class="s" d="M32.49123,19.66529c.1875.02051.30274.06445.34277.12988a.233.233,0,0,1,.03614.18946,1.68507,1.68507,0,0,1-.10254.25586,1.25995,1.25995,0,0,1-.373.456.86515.86515,0,0,1-.2041.09863c-.084.03125-.2002-.00586-.35156-.10937a2.3325,2.3325,0,0,0,.45117-.666A.82686.82686,0,0,1,32.49123,19.66529Zm1.02344-.94824a1.36451,1.36451,0,0,1,.54785.252,1.05913,1.05913,0,0,1,.27832.36133.96209.96209,0,0,1,.09863.373c.00391.11328.00391.23535.001.36328a1.08234,1.08234,0,0,1-.19922.50488,1.4361,1.4361,0,0,1-.34961.415,1.4619,1.4619,0,0,1-.25488.14258.66931.66931,0,0,1-.22754.04785.2194.2194,0,0,1-.19727-.09668.15708.15708,0,0,1,.02051-.21484.75369.75369,0,0,1,.23731-.18946,1.01032,1.01032,0,0,0,.27343-.22363.85515.85515,0,0,0,.17969-.44336.6287.6287,0,0,0-.07031-.46289.71422.71422,0,0,0-.27734-.24512.90718.90718,0,0,0-.34375-.082.574.574,0,0,0-.34766.10254.4511.4511,0,0,1-.26856.10059.66988.66988,0,0,1-.20507-.04883.1642.1642,0,0,1-.11524-.10938.20669.20669,0,0,1,.01563-.13867.68819.68819,0,0,1,.06445-.11035.47878.47878,0,0,1,.124-.09863,2.64364,2.64364,0,0,1,.38282-.168A1.07172,1.07172,0,0,1,33.51467,18.71705Z"/><path class="s" d="M34.99709,19.4983a.41154.41154,0,0,1,.32129-.25391,1.53,1.53,0,0,1,.45605-.07422.90781.90781,0,0,1,.33887.06836,1.24735,1.24735,0,0,1,.24024.12989,1.292,1.292,0,0,1,.18554.17968.591.591,0,0,1,.1211.33887,1.01826,1.01826,0,0,1-.08594.48047,1.5362,1.5362,0,0,1-.58008.57715c-.31543.21094-.53125.35644-.64941.43652a1.86628,1.86628,0,0,0-.35254.32031,1.07861,1.07861,0,0,0-.23633.38477c-.03906.124-.0166.208.06934.251a.79221.79221,0,0,0,.37011.06054c.16016-.0039.32715-.01074.499-.01757.17382-.00977.31445-.01661.42382-.02247.11036-.00586.1836.01661.21973.06836a.24075.24075,0,0,1,.04.17383.21517.21517,0,0,1-.09277.15039c-.05176.03711-.10352.07227-.1543.10449a1.037,1.037,0,0,1-.27441.09375,2.16791,2.16791,0,0,1-.38379.05957c-.124.00879-.25684.01172-.39746.00977a1.02029,1.02029,0,0,1-.44434-.12207,1.0887,1.0887,0,0,1-.37988-.31348.664.664,0,0,1-.14649-.416.90429.90429,0,0,1,.084-.39063,1.79442,1.79442,0,0,1,.26855-.38086c.125-.13867.23535-.2539.333-.34375a3.62725,3.62725,0,0,1,.374-.30078c.1543-.1084.30664-.207.457-.29785a1.25,1.25,0,0,0,.35547-.29883.266.266,0,0,0,.02246-.333.27039.27039,0,0,0-.29882-.13378c-.127.02441-.248.04687-.36133.0664-.11524.02051-.18946.01367-.22364-.02051A.638.638,0,0,1,34.99709,19.4983Z"/><path class="s" d="M37.34084,19.23951a.5135.5135,0,0,1,.25781.28027.98888.98888,0,0,1-.0332.49317.92053.92053,0,0,1-.15039.38574.343.343,0,0,0-.10059.1377.18243.18243,0,0,1-.126.10839.26662.26662,0,0,1-.168,0,.15044.15044,0,0,1-.09961-.10547.31469.31469,0,0,1-.00293-.165c.01367-.05762.02832-.13575.04492-.23926.01563-.10059.03906-.23828.07031-.41113a.83394.83394,0,0,1,.12207-.35059A.46728.46728,0,0,1,37.34084,19.23951Z"/><path class="s" d="M38.7344,19.676a.4577.4577,0,0,1,.15527.16016.252.252,0,0,1-.02832.2168,1.26556,1.26556,0,0,1-.3457.34863.87946.87946,0,0,0-.34473.51465.94126.94126,0,0,0,.00683.51562.75748.75748,0,0,0,.18458.31446.79572.79572,0,0,0,.31152.15918.75275.75275,0,0,0,.4082.00586A.96843.96843,0,0,0,39.419,21.762a1.007,1.007,0,0,0,.21972-.2168.69282.69282,0,0,0,.11817-.25683.34864.34864,0,0,0-.02442-.22852.25488.25488,0,0,0-.1582-.12695.30859.30859,0,0,0-.25.05859.41646.41646,0,0,1-.25977.083.32977.32977,0,0,1-.20312-.083.19069.19069,0,0,1-.06348-.18945c.01465-.07715.09571-.16992.24707-.27832a.6937.6937,0,0,1,.501-.13379,1.66109,1.66109,0,0,1,.3916.0752.59947.59947,0,0,1,.248.251.77254.77254,0,0,1,.12793.43653,1.48989,1.48989,0,0,1-.07715.45214,1.01113,1.01113,0,0,1-.28906.417,1.66666,1.66666,0,0,1-.4502.2959,1.60468,1.60468,0,0,1-.4541.126,1.29893,1.29893,0,0,1-.4834-.042,1.34576,1.34576,0,0,1-.51758-.27539,1.03943,1.03943,0,0,1-.33789-.42969,1.7052,1.7052,0,0,1-.10547-.43848,1.38933,1.38933,0,0,1,.03614-.45507,1.18042,1.18042,0,0,1,.21484-.44629,2.177,2.177,0,0,1,.26465-.30078,2.26822,2.26822,0,0,1,.22363-.17578A2.57643,2.57643,0,0,1,38.7344,19.676Z"/><path class="s" d="M41.2217,20.05592a.3902.3902,0,0,1,.16406.37207c-.01758.15039-.042.31152-.07324.48632-.03125.17579-.07715.37012-.13477.583-.05761.21387-.11523.41114-.17285.59473-.05957.18164-.11425.33594-.16406.46a.569.569,0,0,1-.20508.27051.22153.22153,0,0,1-.206.04785.48084.48084,0,0,1-.14453-.10645c-.04493-.04687-.03907-.15625.01757-.32714.05469-.17188.13965-.43555.25391-.78907a2.42061,2.42061,0,0,0,.1416-.89355.73511.73511,0,0,1,.08789-.50293A.68272.68272,0,0,1,41.2217,20.05592Z"/><path class="s" d="M41.958,20.33619a.52259.52259,0,0,1,.25879.28027,1.00358,1.00358,0,0,1-.03418.49317.90636.90636,0,0,1-.15039.38672.33109.33109,0,0,0-.09961.13671.18418.18418,0,0,1-.126.1084.27716.27716,0,0,1-.16894.001.15565.15565,0,0,1-.09961-.10645.31484.31484,0,0,1-.002-.165c.01368-.05762.02832-.13575.044-.23926.01562-.10059.03906-.23731.07129-.41114a.82022.82022,0,0,1,.12207-.35058A.4736.4736,0,0,1,41.958,20.33619Z"/><path class="s" d="M43.376,21.08912a1.04989,1.04989,0,0,1,.68261.37207.61043.61043,0,0,1,.14258.51367.9577.9577,0,0,1-.14062.334,4.28305,4.28305,0,0,1-.666.47656,2.28635,2.28635,0,0,1,.64551.44629.31527.31527,0,0,1-.08106.22949.21259.21259,0,0,1-.2705.08594,3.521,3.521,0,0,1-.3877-.16016,1.35181,1.35181,0,0,0-.41211-.12109.70641.70641,0,0,0-.38086.0664.26971.26971,0,0,1-.28808.00782.8742.8742,0,0,1-.16895-.17188.1753.1753,0,0,1,.02442-.2168.79449.79449,0,0,1,.36718-.22656,3.68488,3.68488,0,0,0,.62012-.31543,3.77966,3.77966,0,0,0,.46582-.3125.24821.24821,0,0,0,.09766-.23535.2391.2391,0,0,0-.14844-.18359.47816.47816,0,0,0-.24316-.03711,1.36454,1.36454,0,0,0-.374.14258,1.01083,1.01083,0,0,1-.36719.12988.22121.22121,0,0,1-.23632-.25781.341.341,0,0,1,.12988-.21582,1.63821,1.63821,0,0,1,.30566-.207A1.9309,1.9309,0,0,1,43.376,21.08912Z"/><path class="s" d="M44.9717,21.052a.52088.52088,0,0,1,.25781.28027,1.00468,1.00468,0,0,1-.0332.49414.923.923,0,0,1-.15137.38575.33752.33752,0,0,0-.09961.13672.18649.18649,0,0,1-.126.10839.26967.26967,0,0,1-.169,0,.15105.15105,0,0,1-.09863-.10547.305.305,0,0,1-.00293-.165c.01367-.05762.02832-.13575.04394-.23926.01563-.09961.04-.23828.07129-.41113a.82035.82035,0,0,1,.12207-.35059A.46047.46047,0,0,1,44.9717,21.052Z"/><path class="s" d="M46.36428,21.48853a.44907.44907,0,0,1,.15527.16016.24513.24513,0,0,1-.02832.2168,1.26556,1.26556,0,0,1-.3457.34863.88854.88854,0,0,0-.34473.51465.93087.93087,0,0,0,.00781.51562.75164.75164,0,0,0,.18457.31543.80148.80148,0,0,0,.31153.15821.75278.75278,0,0,0,.4082.00683.94583.94583,0,0,0,.55664-.36719.67518.67518,0,0,0,.11621-.25586.34127.34127,0,0,0-.02343-.22851.25142.25142,0,0,0-.15723-.12793.31228.31228,0,0,0-.25.05859.42077.42077,0,0,1-.26074.083.33448.33448,0,0,1-.20313-.083.19069.19069,0,0,1-.06348-.18945c.01465-.07715.09668-.16992.24708-.27832a.6961.6961,0,0,1,.502-.13379,1.714,1.714,0,0,1,.3916.0752.60456.60456,0,0,1,.24707.251.77254.77254,0,0,1,.12793.43653,1.4712,1.4712,0,0,1-.07715.45312,1.00543,1.00543,0,0,1-.28906.416,1.60327,1.60327,0,0,1-.44922.2959,1.57869,1.57869,0,0,1-.45508.126,1.28027,1.28027,0,0,1-.4834-.042,1.37027,1.37027,0,0,1-.51757-.27441,1.06448,1.06448,0,0,1-.3379-.43067,1.70228,1.70228,0,0,1-.10449-.43848,1.38933,1.38933,0,0,1,.03614-.45507,1.1696,1.1696,0,0,1,.21484-.44532,1.86,1.86,0,0,1,.48828-.47753A2.60276,2.60276,0,0,1,46.36428,21.48853Z"/><path class="s" d="M48.27346,23.84791a1.66318,1.66318,0,0,0,.5166.35742,1.10679,1.10679,0,0,0,.46582.09375.33186.33186,0,0,0,.294-.14746,2.07751,2.07751,0,0,0,.15527-.33691,1.643,1.643,0,0,0,.09668-.36719,1.30968,1.30968,0,0,0,.00976-.28321.69574.69574,0,0,1,.02344-.248.20113.20113,0,0,1,.14453-.15821.37247.37247,0,0,1,.23438.0254.26175.26175,0,0,1,.16113.15332,1.33514,1.33514,0,0,1,.05176.24511,1.94783,1.94783,0,0,1-.04688.4961,2.08708,2.08708,0,0,1-.1289.47754c-.042.085-.084.17089-.123.25976a.73215.73215,0,0,1-.18848.24317,1.54659,1.54659,0,0,1-.249.18066.921.921,0,0,1-.501.03027,3.45038,3.45038,0,0,1-.65429-.12793,1.11635,1.11635,0,0,1-.34082-.1455c-.043-.03907-.08789-.08594-.13965-.14063-.04981-.05371-.08789-.0918-.11524-.11621a.26953.26953,0,0,1-.06738-.12891.18479.18479,0,0,1,.06934-.18554c.06543-.06153.08984-.09375.07324-.09278A1.42541,1.42541,0,0,1,48.27346,23.84791Z"/><path class="s" d="M51.63772,23.28541c.18457.06055.2832.15039.29492.26953a.68031.68031,0,0,0,.1416.34473c.083.10937.14746.18945.19043.2373a.13427.13427,0,0,0,.14551.04492.97823.97823,0,0,0,.18847-.083.6003.6003,0,0,0,.2041-.34278.42058.42058,0,0,1,.38965-.31055.34566.34566,0,0,1,.14063.19727.753.753,0,0,1-.02832.26856,1.39336,1.39336,0,0,1-.16309.38281,1.201,1.201,0,0,1-.52148.39746,2.99911,2.99911,0,0,1,.17773.7207.34258.34258,0,0,1-.21582.28711q-.29589-.09962-.54394-.69141c-.167-.3955-.32227-.60937-.4668-.64453a8.31685,8.31685,0,0,1-.94922.85352.861.861,0,0,1-.28418.03125c-.10937-.123-.13183-.22949-.06543-.32031a1.25812,1.25812,0,0,1,.19336-.21875q.09522-.08351.458-.48731a1.77648,1.77648,0,0,0,.42285-.65722A.32394.32394,0,0,1,51.63772,23.28541Z"/><path class="s" d="M55.81252,24.15455c.12988-.01953.21289.002.251.06055.03808.06054.06152.10254.07324.126.01172.02442.043.03809.09668.041a1.3506,1.3506,0,0,0,.28516-.03223.6075.6075,0,0,1,.40136.06445.84148.84148,0,0,1,.334.36329,1.1128,1.1128,0,0,1,.14648.50683,1.09481,1.09481,0,0,1-.07422.44531,3.27315,3.27315,0,0,1-.165.3545,1.03065,1.03065,0,0,1-.209.27343.39136.39136,0,0,1-.208.12305.88853.88853,0,0,1-.14746.00586.80876.80876,0,0,1-.20508-.05469c-.0957-.03418-.08887-.1123.02344-.2373s.20019-.22168.26562-.28711a.80473.80473,0,0,0,.16407-.27734.76316.76316,0,0,0,.00586-.4375.35267.35267,0,0,0-.2461-.30176,1.041,1.041,0,0,0-.56445.10937,6.09428,6.09428,0,0,1-.03809.61426.82337.82337,0,0,1-.10449.29,2.61454,2.61454,0,0,1-.19922.28809.5431.5431,0,0,1-.30273.19433,2.09855,2.09855,0,0,1-.38477.05371.3528.3528,0,0,1-.30761-.126c-.07325-.08985-.10547-.15235-.09571-.19336.00879-.03711.05567-.06641.13965-.08692a2.1594,2.1594,0,0,1,.30078-.041.48161.48161,0,0,0,.31934-.167.90283.90283,0,0,0,.19043-.47656c.03125-.21484.05371-.44336.06445-.68359A.69079.69079,0,0,1,55.81252,24.15455Z"/><path class="s" d="M58.8467,24.70338a1.24593,1.24593,0,0,1,.56445.2373,1.33329,1.33329,0,0,1,.39453.57129.93815.93815,0,0,1,.05274.67676,3.0358,3.0358,0,0,1-.21.4707.81335.81335,0,0,1-.21192.25586,1.11884,1.11884,0,0,1-.2207.127.4837.4837,0,0,1-.27441.02247c-.1084-.01856-.1543-.07227-.14063-.15918a.61045.61045,0,0,1,.207-.3086,1.208,1.208,0,0,0,.28321-.3916.61581.61581,0,0,0,.05078-.40527.68876.68876,0,0,0-.168-.31641.6606.6606,0,0,0-.28125-.17285.93852.93852,0,0,0-.46485.03125,2.2392,2.2392,0,0,1-.08105.84473,1.87156,1.87156,0,0,1-.20215.39746,2.34006,2.34006,0,0,1-.23144.27343.50946.50946,0,0,1-.23536.15625.45033.45033,0,0,1-.21875-.01269.21015.21015,0,0,1-.13964-.09473.156.156,0,0,1,.00781-.13867.40607.40607,0,0,1,.10449-.13574,1.70435,1.70435,0,0,0,.22754-.30274,1.273,1.273,0,0,0,.2002-.42968.56813.56813,0,0,0-.001-.30469c-.02734-.07813-.05274-.16211-.07617-.251a.51559.51559,0,0,1,.0039-.26953.296.296,0,0,1,.14551-.19336,1.31663,1.31663,0,0,1,.31738-.10156A4.26738,4.26738,0,0,1,58.8467,24.70338Z"/><path class="s" d="M60.28225,25.50611a.41489.41489,0,0,1,.32129-.25586,1.52825,1.52825,0,0,1,.456-.07226.88986.88986,0,0,1,.33984.06836,1.16614,1.16614,0,0,1,.23926.1289,1.23988,1.23988,0,0,1,.18555.17969.59118.59118,0,0,1,.12207.33887,1.03243,1.03243,0,0,1-.08691.48047,1.52128,1.52128,0,0,1-.58008.57714q-.47315.31641-.64844.43653a1.84051,1.84051,0,0,0-.35352.32031,1.08757,1.08757,0,0,0-.23632.38574c-.03907.123-.01661.207.06933.25a.77991.77991,0,0,0,.37012.06055c.16113-.00391.32715-.01172.5-.01758.17285-.00976.31348-.0166.42285-.02246.11035-.00586.18359.0166.21973.06836a.23726.23726,0,0,1,.04.17383.21718.21718,0,0,1-.09278.15039c-.05078.03711-.10254.07226-.15429.10449a1.07844,1.07844,0,0,1-.27344.09375,2.29236,2.29236,0,0,1-.38379.05957c-.125.00879-.25684.01074-.39844.00977a1.02025,1.02025,0,0,1-.44433-.12207,1.10627,1.10627,0,0,1-.37989-.3125.67065.67065,0,0,1-.14648-.417.90761.90761,0,0,1,.084-.39062,1.81931,1.81931,0,0,1,.26856-.38086c.125-.13867.23633-.25391.334-.34375a3.60346,3.60346,0,0,1,.37305-.30078c.1543-.1084.30762-.207.457-.29785a1.22175,1.22175,0,0,0,.35547-.29883.26461.26461,0,0,0,.02246-.333.26927.26927,0,0,0-.29883-.13379c-.127.02442-.248.04688-.36133.06641-.11523.02051-.18945.01367-.22363-.02051A.63125.63125,0,0,1,60.28225,25.50611Z"/><path class="s" d="M63.46877,24.45338a.73492.73492,0,0,1,.52441.21679.79629.79629,0,0,1,.23536.36329.39505.39505,0,0,1-.042.27636q-.07031.12159-.21386.01465c-.09571-.07031-.19629-.14062-.30274-.21a.37961.37961,0,0,0-.35742-.03027.74749.74749,0,0,0-.35742.33593,1.22875,1.22875,0,0,0-.02344.86231,3.89545,3.89545,0,0,1,.127.88281,1.26567,1.26567,0,0,1-.12793.53027.53918.53918,0,0,1-.30761.30469.32328.32328,0,0,1-.29785-.02734c-.07618-.05371-.08008-.14258-.01465-.26758a2.89842,2.89842,0,0,0,.1748-.4082,1.09358,1.09358,0,0,0-.06445-.65723,2.29857,2.29857,0,0,1-.14258-.58887,2.68861,2.68861,0,0,1,.05664-.47656,1.41707,1.41707,0,0,1,.27344-.60742A1.79583,1.79583,0,0,1,63.46877,24.45338Z"/><path class="s" d="M17.56252,30.14576l-.60449.83594-.459-.10938.46485-.86816Z"/><path class="s" d="M18.88576,28.74439c.12989-.01953.21289.002.251.06055.03809.06055.06152.10254.07324.125.01172.02539.043.03906.09668.042a1.42205,1.42205,0,0,0,.28516-.03222.58931.58931,0,0,1,.40136.06445.84323.84323,0,0,1,.335.36328,1.10757,1.10757,0,0,1,.1455.50684,1.08991,1.08991,0,0,1-.07422.44433,3.491,3.491,0,0,1-.165.35547,1.05168,1.05168,0,0,1-.209.27344.38844.38844,0,0,1-.208.12207.64646.64646,0,0,1-.14746.00488.78125.78125,0,0,1-.2041-.05371q-.145-.0498.02344-.2373c.11133-.125.19922-.22168.26367-.28614a.78687.78687,0,0,0,.165-.27832.75208.75208,0,0,0,.00488-.43652.35075.35075,0,0,0-.24512-.30274,1.02445,1.02445,0,0,0-.56445.11036,5.76117,5.76117,0,0,1-.03808.61328.85547.85547,0,0,1-.1045.291,2.89226,2.89226,0,0,1-.19824.28809.54588.54588,0,0,1-.30371.19238,1.93381,1.93381,0,0,1-.38477.05469.35219.35219,0,0,1-.30761-.125c-.07227-.08984-.10547-.1543-.09571-.19336.00977-.03711.05567-.06641.13965-.08691a2.17888,2.17888,0,0,1,.30078-.041.47683.47683,0,0,0,.31836-.168.884.884,0,0,0,.19141-.47656c.03125-.21582.05371-.44238.06445-.68262A.69475.69475,0,0,1,18.88576,28.74439Z"/><path class="s" d="M21.46877,28.72486a.39259.39259,0,0,1,.16406.3711c-.01758.15039-.042.3125-.07324.48828q-.04834.2622-.13476.582-.08643.31933-.17383.59375c-.0586.18359-.11328.33594-.16309.46191a.58005.58005,0,0,1-.2041.27051.22144.22144,0,0,1-.208.04687.46853.46853,0,0,1-.14453-.10742c-.04492-.04687-.03809-.15527.01758-.32617.05566-.17187.13965-.43457.2539-.78906a2.40032,2.40032,0,0,0,.14161-.89356.74507.74507,0,0,1,.08789-.5039A.68564.68564,0,0,1,21.46877,28.72486Z"/><path class="s" d="M22.26467,30.49537a1.04735,1.04735,0,0,1,.34082.10059.8857.8857,0,0,1,.20605.16406.47174.47174,0,0,1,.11524.24219.21767.21767,0,0,1-.05274.21.17346.17346,0,0,1-.19238.02441.64018.64018,0,0,1-.207-.123.19592.19592,0,0,0-.169-.06054.13725.13725,0,0,0-.10253.10156c-.01661.05664.01464.127.09472.209a.73245.73245,0,0,0,.3291.1875.37323.37323,0,0,0,.39063-.124.80044.80044,0,0,0,.22754-.42187.743.743,0,0,0-.02344-.40918,1.30593,1.30593,0,0,0-.1582-.29688.66321.66321,0,0,0-.28809-.20605.46966.46966,0,0,0-.39355.00586.64925.64925,0,0,1-.29395.0791.34444.34444,0,0,1-.17969-.07422.25628.25628,0,0,1-.09863-.14844.23529.23529,0,0,1,.07129-.19336.65792.65792,0,0,1,.31152-.18945,1.6514,1.6514,0,0,1,.709-.00684,1.44921,1.44921,0,0,1,.63672.49512,1.87862,1.87862,0,0,1,.19726.50684,1.35917,1.35917,0,0,1-.01562.57519,1.24013,1.24013,0,0,1-.22168.50391,1.4265,1.4265,0,0,1-.30176.29,1.34538,1.34538,0,0,1-.26367.1416.64437.64437,0,0,1-.21875.03906,1.4957,1.4957,0,0,1-.2666-.043,1.05138,1.05138,0,0,1-.34766-.16406,1.16052,1.16052,0,0,1-.32031-.34668.95116.95116,0,0,1-.14844-.46387.52267.52267,0,0,1,.13672-.39746A.81521.81521,0,0,1,22.26467,30.49537Z"/><path class="s" d="M24.72365,29.4983a.38976.38976,0,0,1,.16407.37109c-.01758.15039-.042.3125-.07325.48828-.03125.17481-.07617.36817-.13379.582-.05859.21289-.11718.41015-.17382.59375-.05957.18359-.11524.33593-.16407.46191a.57382.57382,0,0,1-.2041.27051.22107.22107,0,0,1-.208.04687.46488.46488,0,0,1-.14355-.10742c-.0459-.04687-.03906-.15527.0166-.32617.05567-.17188.13965-.43457.25488-.78906a2.41884,2.41884,0,0,0,.14063-.89454.74345.74345,0,0,1,.08789-.50292A.68566.68566,0,0,1,24.72365,29.4983Z"/><path class="s" d="M25.52834,30.469a1.372,1.372,0,0,1,.53516.17285.915.915,0,0,1,.34863.36036,1.14783,1.14783,0,0,1,.13965.42382.981.981,0,0,1-.042.40039,1.18205,1.18205,0,0,1-.18946.36914,1.69483,1.69483,0,0,1-.26758.28907.57413.57413,0,0,1-.26953.14453.29726.29726,0,0,1-.2041-.02442.74758.74758,0,0,1-.15722-.127c-.05372-.05371-.03223-.125.06347-.21582.09473-.08984.19141-.18164.28711-.27344a.8787.8787,0,0,0,.21973-.3789.36767.36767,0,0,0-.06446-.38867.52811.52811,0,0,0-.29-.17188.344.344,0,0,0-.25977.05273.23907.23907,0,0,1-.19727.05372.33089.33089,0,0,1-.17382-.18067.255.255,0,0,1-.01075-.27441C25.04592,30.62135,25.22365,30.54322,25.52834,30.469Z"/><path class="s" d="M27.67385,30.83131c.1289-.01856.21191.002.25.06054.03808.06153.06152.10352.07422.126.01074.02539.042.03906.09668.041a1.33809,1.33809,0,0,0,.28418-.03223.59411.59411,0,0,1,.40136.06445.86223.86223,0,0,1,.33594.36328,1.10971,1.10971,0,0,1,.07129.95215,3.58462,3.58462,0,0,1-.165.35449,1.01982,1.01982,0,0,1-.209.27344.39322.39322,0,0,1-.207.123.65884.65884,0,0,1-.14844.00488.79453.79453,0,0,1-.20508-.05371c-.09668-.0332-.08789-.1123.02344-.2373s.19922-.22266.26465-.28614a.772.772,0,0,0,.16406-.27832.74342.74342,0,0,0,.00586-.43652.35208.35208,0,0,0-.24512-.30273,1.02737,1.02737,0,0,0-.56543.11035,5.78169,5.78169,0,0,1-.03808.61328.83053.83053,0,0,1-.1045.29,2.66722,2.66722,0,0,1-.19726.28808.54885.54885,0,0,1-.30371.19336,1.94406,1.94406,0,0,1-.38477.05469.35006.35006,0,0,1-.30762-.125c-.07324-.08984-.10449-.1543-.0957-.19434.00879-.03711.05469-.0664.13867-.08691a2.34034,2.34034,0,0,1,.30078-.041.47742.47742,0,0,0,.31934-.167.89946.89946,0,0,0,.19141-.47656c.03027-.21582.05273-.44238.06347-.68359A.69829.69829,0,0,1,27.67385,30.83131Z"/><path class="s" d="M32.1758,32.02467c.1836.05957.28223.14941.29395.26855a.66716.66716,0,0,0,.14258.34375c.083.11035.14648.18945.18945.23731a.13478.13478,0,0,0,.14648.04687,1.082,1.082,0,0,0,.1875-.084.59149.59149,0,0,0,.2041-.34278.41959.41959,0,0,1,.39063-.31054.34784.34784,0,0,1,.13965.19726.74871.74871,0,0,1-.02735.26856,1.39326,1.39326,0,0,1-.16406.38183,1.1866,1.1866,0,0,1-.52148.39746,3.152,3.152,0,0,1,.17968.72168.34936.34936,0,0,1-.21679.28711c-.19824-.0664-.37891-.29785-.54492-.69238q-.2505-.5918-.4668-.64356a8.4326,8.4326,0,0,1-.94727.85254.90431.90431,0,0,1-.28613.03223c-.10937-.123-.13184-.22949-.06543-.32031a1.29944,1.29944,0,0,1,.19336-.21875c.06348-.05469.21582-.21875.458-.48731a1.74324,1.74324,0,0,0,.42285-.65722A.32111.32111,0,0,1,32.1758,32.02467Z"/><path class="s" d="M34.45412,31.91431a.51653.51653,0,0,1,.25684.28125,1.00953,1.00953,0,0,1-.03223.49317.91886.91886,0,0,1-.15234.38672.34107.34107,0,0,0-.09961.13574.18359.18359,0,0,1-.125.10937.27983.27983,0,0,1-.16992,0,.15107.15107,0,0,1-.09864-.10546.3289.3289,0,0,1-.00293-.166c.01368-.05664.02832-.13574.04493-.23828.01562-.09961.04-.23828.07031-.41211a.79988.79988,0,0,1,.123-.34961A.45611.45611,0,0,1,34.45412,31.91431Z"/><path class="s" d="M35.87111,32.66724a1.04883,1.04883,0,0,1,.68164.374.60292.60292,0,0,1,.14356.51172.9575.9575,0,0,1-.1416.334,4.11844,4.11844,0,0,1-.666.47754,2.26047,2.26047,0,0,1,.64649.44629.32219.32219,0,0,1-.08106.22949.21468.21468,0,0,1-.27051.08692,3.96123,3.96123,0,0,1-.38867-.16016,1.35165,1.35165,0,0,0-.41211-.123.72842.72842,0,0,0-.38086.06641.26779.26779,0,0,1-.28808.00781.92082.92082,0,0,1-.168-.1709.17249.17249,0,0,1,.02441-.21582.79045.79045,0,0,1,.36621-.22851,3.67937,3.67937,0,0,0,.6211-.31446,3.51371,3.51371,0,0,0,.46484-.31347.2434.2434,0,0,0,.09766-.23535.23874.23874,0,0,0-.14844-.1836.47676.47676,0,0,0-.24316-.03711,1.45534,1.45534,0,0,0-.373.14258.97638.97638,0,0,1-.36816.12988.2223.2223,0,0,1-.18067-.07129.22486.22486,0,0,1-.05566-.18554.34731.34731,0,0,1,.12988-.2168,1.63905,1.63905,0,0,1,.30566-.20508A1.92788,1.92788,0,0,1,35.87111,32.66724Z"/><path class="s" d="M37.3135,34.1731c.18847.02051.30273.06348.34277.12989a.23176.23176,0,0,1,.03613.18945,1.68179,1.68179,0,0,1-.10254.25488,1.09885,1.09885,0,0,1-.1875.28321,1.11816,1.11816,0,0,1-.18457.17285.85517.85517,0,0,1-.20507.09863c-.084.03027-.20118-.00586-.35059-.11035a2.30856,2.30856,0,0,0,.4502-.665A.82917.82917,0,0,1,37.3135,34.1731Zm1.02441-.95019a1.39291,1.39291,0,0,1,.54688.2539,1.05016,1.05016,0,0,1,.27832.36133.94533.94533,0,0,1,.09863.373c.00391.11328.00391.23437.001.36328a1.08984,1.08984,0,0,1-.19922.50488,1.4236,1.4236,0,0,1-.34864.41309,1.51539,1.51539,0,0,1-.25488.14551.68461.68461,0,0,1-.22851.0459.21729.21729,0,0,1-.19727-.09668.159.159,0,0,1,.01953-.21485.78106.78106,0,0,1,.23828-.18847.99587.99587,0,0,0,.27344-.22364.86249.86249,0,0,0,.17969-.44336.62606.62606,0,0,0-.07031-.46289.7065.7065,0,0,0-.27735-.24511.85548.85548,0,0,0-.34375-.082.56561.56561,0,0,0-.34765.10254.4422.4422,0,0,1-.26856.09961.61768.61768,0,0,1-.20508-.04882.16351.16351,0,0,1-.11523-.11036.2086.2086,0,0,1,.01465-.13672,1.01112,1.01112,0,0,1,.06445-.11035.50687.50687,0,0,1,.125-.09863,2.64282,2.64282,0,0,1,.38281-.168A1.07415,1.07415,0,0,1,38.33791,33.22291Z"/><path class="s" d="M41.0215,32.4817a.73885.73885,0,0,1,.52442.21875.78133.78133,0,0,1,.23535.3623.39.39,0,0,1-.042.27637c-.04688.081-.11817.08691-.21387.01562s-.19629-.14062-.30273-.21a.37677.37677,0,0,0-.35743-.03125.73984.73984,0,0,0-.35644.33692,1.21758,1.21758,0,0,0-.02344.86035,4.02757,4.02757,0,0,1,.127.88281,1.26009,1.26009,0,0,1-.12891.53125.53651.53651,0,0,1-.30762.30469.3241.3241,0,0,1-.29785-.02734c-.0752-.05372-.08008-.14356-.01465-.26856a2.71472,2.71472,0,0,0,.17578-.4082,1.08915,1.08915,0,0,0-.06543-.65528,2.35643,2.35643,0,0,1-.14257-.58984,2.8779,2.8779,0,0,1,.05664-.47656,1.43409,1.43409,0,0,1,.27343-.60742A1.79338,1.79338,0,0,1,41.0215,32.4817Z"/><path class="s" d="M43.53225,36.31568l-.60547.835-.459-.10937.46582-.86817Z"/><path class="s" d="M44.6426,35.01a1.37192,1.37192,0,0,1,.53515.17285.915.915,0,0,1,.34864.36035,1.13013,1.13013,0,0,1,.13965.42383.9645.9645,0,0,1-.042.40039,1.20055,1.20055,0,0,1-.18847.36914,1.73921,1.73921,0,0,1-.26856.28906.57413.57413,0,0,1-.26953.14453.303.303,0,0,1-.2041-.02441.74854.74854,0,0,1-.15723-.12793c-.05371-.05273-.03222-.124.06348-.21484.0957-.08985.19238-.18164.28809-.27344a.8681.8681,0,0,0,.21875-.37891A.36768.36768,0,0,0,45.042,35.762a.52073.52073,0,0,0-.291-.17187.34242.34242,0,0,0-.25879.05273.23831.23831,0,0,1-.19727.05371.33411.33411,0,0,1-.17383-.18066.25507.25507,0,0,1-.01074-.27442Q44.18508,35.12135,44.6426,35.01Z"/><path class="s" d="M47.08889,35.25025a1.43763,1.43763,0,0,1,.58691.19141.90684.90684,0,0,1,.292.30176.647.647,0,0,1,.06641.39648.84722.84722,0,0,1-.28809.48438,1.41174,1.41174,0,0,1,.168.44433,1.08156,1.08156,0,0,1-.07422.39649.58737.58737,0,0,1-.38769.35937,1.44731,1.44731,0,0,1-.4502.11035.3043.3043,0,0,1-.252-.14941c-.06836-.09668.03613-.20313.3125-.31738.27734-.11622.38281-.24317.31641-.3877a.53759.53759,0,0,0-.21778-.27148.19629.19629,0,0,1-.11132-.21094c.0039-.10059.07617-.18457.21582-.248.13671-.0625.20117-.14844.19238-.25488a.325.325,0,0,0-.20606-.25684.43131.43131,0,0,0-.32422-.05273c-.08886.0293-.1748.06152-.25878.0957a.46635.46635,0,0,1-.25977.0332.35539.35539,0,0,1-.21387-.10351.21569.21569,0,0,1-.04394-.22168c.02344-.08789.15039-.1709.3789-.249A1.36005,1.36005,0,0,1,47.08889,35.25025Z"/><path class="s" d="M49.54006,35.85474a1.22834,1.22834,0,0,1,.56445.23633,1.336,1.336,0,0,1,.39356.57129.93436.93436,0,0,1,.05371.67676,2.80935,2.80935,0,0,1-.21094.46973.80086.80086,0,0,1-.21094.25781,1.11408,1.11408,0,0,1-.2207.126.46777.46777,0,0,1-.27441.02343c-.1084-.01855-.15528-.07129-.14063-.16015a.60927.60927,0,0,1,.208-.30762,1.22726,1.22726,0,0,0,.28223-.39258.62065.62065,0,0,0,.05078-.40527.66783.66783,0,0,0-.168-.31543.65426.65426,0,0,0-.28223-.17285.94363.94363,0,0,0-.46387.03027,2.23949,2.23949,0,0,1-.08105.8457,1.94017,1.94017,0,0,1-.20313.39746,2.23757,2.23757,0,0,1-.23046.27344.50038.50038,0,0,1-.23633.15527.4647.4647,0,0,1-.21875-.01171.21707.21707,0,0,1-.13867-.09473.15778.15778,0,0,1,.00683-.13965.41884.41884,0,0,1,.10449-.13476,1.75386,1.75386,0,0,0,.22852-.30372,1.25957,1.25957,0,0,0,.19922-.42968.54606.54606,0,0,0-.001-.30371c-.02637-.08008-.05176-.16211-.07519-.251a.50909.50909,0,0,1,.0039-.27051.30086.30086,0,0,1,.14551-.19336,1.3449,1.3449,0,0,1,.31641-.10254A4.50082,4.50082,0,0,1,49.54006,35.85474Z"/><path class="s" d="M51.18361,37.468c.18848.0205.30176.06347.34278.12988a.23928.23928,0,0,1,.03613.18945,1.68179,1.68179,0,0,1-.10254.25488,1.15121,1.15121,0,0,1-.1875.28321,1.08019,1.08019,0,0,1-.18555.17285.874.874,0,0,1-.20312.09961c-.085.0293-.20215-.00684-.35156-.11133a2.30823,2.30823,0,0,0,.45019-.665A.82918.82918,0,0,1,51.18361,37.468Zm1.02344-.9502a1.3977,1.3977,0,0,1,.54785.25391,1.04979,1.04979,0,0,1,.27832.36132.96217.96217,0,0,1,.09864.373c.00293.11328.00293.23438.00195.36328a1.10472,1.10472,0,0,1-.2002.50489,1.42513,1.42513,0,0,1-.34863.41308,1.48085,1.48085,0,0,1-.25586.14551.67964.67964,0,0,1-.22851.0459.21934.21934,0,0,1-.19727-.09668.15919.15919,0,0,1,.02051-.21485.76944.76944,0,0,1,.23828-.18847.996.996,0,0,0,.27344-.22363.8709.8709,0,0,0,.17968-.44336.63066.63066,0,0,0-.07031-.46289.70643.70643,0,0,0-.27734-.24512.85921.85921,0,0,0-.34375-.082.57019.57019,0,0,0-.34863.10254.4319.4319,0,0,1-.26758.09961.61794.61794,0,0,1-.20508-.04883.1635.1635,0,0,1-.11523-.11035A.19216.19216,0,0,1,51.003,36.928a.87907.87907,0,0,1,.06348-.11035.51679.51679,0,0,1,.124-.09864,2.72734,2.72734,0,0,1,.38379-.168A1.07089,1.07089,0,0,1,52.20705,36.51783Z"/><path class="s" d="M55.94631,37.5481c.12891-.01855.21289.002.251.06055q.05566.09228.07324.126.01611.03808.09668.041a1.42191,1.42191,0,0,0,.28515-.03222.59222.59222,0,0,1,.40039.06445.85622.85622,0,0,1,.33594.36328,1.12311,1.12311,0,0,1,.14551.50684,1.11148,1.11148,0,0,1-.07422.44531,3.80718,3.80718,0,0,1-.165.35449,1.03544,1.03544,0,0,1-.209.27344.3883.3883,0,0,1-.208.123.70979.70979,0,0,1-.14746.00488.82355.82355,0,0,1-.2041-.05371c-.09766-.03321-.08887-.11328.02148-.23828.11231-.125.20117-.22168.26563-.28614a.77823.77823,0,0,0,.165-.27832.75184.75184,0,0,0,.00488-.43652.35333.35333,0,0,0-.24512-.30273,1.03651,1.03651,0,0,0-.56543.11035,5.58167,5.58167,0,0,1-.03711.61328.85741.85741,0,0,1-.10547.291,2.76628,2.76628,0,0,1-.19726.28809.54549.54549,0,0,1-.30371.19336,1.933,1.933,0,0,1-.38477.05371.352.352,0,0,1-.30762-.124c-.07324-.08985-.10546-.1543-.0957-.19434.00977-.03711.05567-.06641.13965-.08691a2.316,2.316,0,0,1,.30078-.041A.47276.47276,0,0,0,55.5,39.219a.8774.8774,0,0,0,.19141-.47656c.03125-.21484.05273-.44141.06445-.68262A.687.687,0,0,1,55.94631,37.5481Z"/><path class="s" d="M58.83205,38.35767c.1836.0586.28223.14942.29395.26856a.66747.66747,0,0,0,.14258.34277c.083.11133.14648.19043.18945.23828a.13863.13863,0,0,0,.14648.04688,1.13575,1.13575,0,0,0,.18848-.085.59671.59671,0,0,0,.20312-.34278.422.422,0,0,1,.39063-.31054.35847.35847,0,0,1,.14062.19726.78152.78152,0,0,1-.02832.26953,1.419,1.419,0,0,1-.16308.38184,1.204,1.204,0,0,1-.52246.39746,3.07485,3.07485,0,0,1,.17968.72168.3506.3506,0,0,1-.21679.28711q-.2959-.10107-.54492-.69238c-.167-.39453-.32129-.61035-.46582-.64453a8.56466,8.56466,0,0,1-.94825.85351.88138.88138,0,0,1-.28613.03125c-.10937-.123-.13184-.22851-.06543-.31933a1.35485,1.35485,0,0,1,.19336-.21973c.06348-.05469.21582-.21777.458-.48731a1.72871,1.72871,0,0,0,.42285-.65722A.32014.32014,0,0,1,58.83205,38.35767Z"/><path class="s" d="M28.81252,44.46412c.12988-.01953.21387.001.251.06055.03808.06054.0625.10254.07422.126q.01611.03663.09668.041a1.29417,1.29417,0,0,0,.28418-.0332.60028.60028,0,0,1,.40136.06543.865.865,0,0,1,.33594.3623,1.12127,1.12127,0,0,1,.07129.95312,3.56339,3.56339,0,0,1-.165.35352,1.04072,1.04072,0,0,1-.209.27441.39831.39831,0,0,1-.208.123.79348.79348,0,0,1-.14844.00488.77321.77321,0,0,1-.2041-.05468c-.09668-.03321-.08887-.11133.02344-.23633s.20019-.22266.26464-.28711a.77567.77567,0,0,0,.16407-.27734.74705.74705,0,0,0,.00586-.4375.35142.35142,0,0,0-.2461-.30176,1.03171,1.03171,0,0,0-.56445.10937c-.00879.30762-.02148.51074-.03711.61426a.82066.82066,0,0,1-.10547.28906,2.63281,2.63281,0,0,1-.19726.28907.54552.54552,0,0,1-.30372.19335,2.00633,2.00633,0,0,1-.38574.05469.351.351,0,0,1-.30664-.126c-.07324-.08985-.10547-.15332-.09668-.19239.00977-.03906.05567-.06836.13965-.08789a2.03979,2.03979,0,0,1,.30078-.041.48587.48587,0,0,0,.31934-.167.895.895,0,0,0,.1914-.47656c.03028-.21582.05274-.44336.06348-.68262A.69945.69945,0,0,1,28.81252,44.46412Z"/><path class="s" d="M31.39553,44.44556a.38781.38781,0,0,1,.16406.3711c-.0166.15039-.042.3125-.07324.4873s-.07617.36914-.13379.583c-.05859.21289-.11621.41016-.17383.59375-.05957.18262-.11328.33594-.16406.46094a.56593.56593,0,0,1-.2041.26953c-.08594.05664-.1543.07324-.207.04883a.47276.47276,0,0,1-.14454-.10742c-.04492-.04688-.03906-.15528.01661-.32618.05566-.17187.14062-.43554.25488-.78906a2.45018,2.45018,0,0,0,.14258-.89453.73954.73954,0,0,1,.08593-.50293A.68325.68325,0,0,1,31.39553,44.44556Z"/><path class="s" d="M32.19143,46.2151a1.05289,1.05289,0,0,1,.34082.10156.87083.87083,0,0,1,.207.16406.46888.46888,0,0,1,.11523.24121.21555.21555,0,0,1-.05371.21.17322.17322,0,0,1-.19238.02539.66894.66894,0,0,1-.207-.123.19444.19444,0,0,0-.168-.06153.136.136,0,0,0-.10156.10254c-.01758.05567.01269.126.09472.209a.74009.74009,0,0,0,.3291.1875.37475.37475,0,0,0,.39063-.124.80749.80749,0,0,0,.22559-.42187.73385.73385,0,0,0-.02247-.40918,1.30553,1.30553,0,0,0-.1582-.29688.67416.67416,0,0,0-.28906-.207.47118.47118,0,0,0-.39258.00586.65358.65358,0,0,1-.29394.08008.3411.3411,0,0,1-.17969-.0752.25546.25546,0,0,1-.09863-.14746.23528.23528,0,0,1,.07031-.19336.65537.65537,0,0,1,.31152-.18945,1.66354,1.66354,0,0,1,.709-.00781,1.47282,1.47282,0,0,1,.63769.49414,1.91418,1.91418,0,0,1,.19629.50781,1.34213,1.34213,0,0,1-.01465.5752,1.23228,1.23228,0,0,1-.22265.50488,1.415,1.415,0,0,1-.30079.28906,1.36067,1.36067,0,0,1-.26464.14258.5903.5903,0,0,1-.21778.03711,1.31533,1.31533,0,0,1-.26758-.041,1.0671,1.0671,0,0,1-.34668-.16406,1.15466,1.15466,0,0,1-.32128-.34765.95467.95467,0,0,1-.14844-.4629.52869.52869,0,0,1,.13672-.39843A.82949.82949,0,0,1,32.19143,46.2151Z"/><path class="s" d="M34.65041,45.219a.38588.38588,0,0,1,.16406.3711c-.0166.15039-.042.31152-.07324.4873q-.04687.26221-.13379.583c-.05761.21289-.11523.41015-.17383.59375-.05957.18164-.11328.33594-.16406.46094a.566.566,0,0,1-.2041.26953c-.08594.05664-.1543.07324-.206.04785a.45757.45757,0,0,1-.14551-.10645c-.044-.04687-.03906-.15527.01758-.32714.05468-.1709.13964-.43458.2539-.78809a2.45,2.45,0,0,0,.14258-.89453.7318.7318,0,0,1,.08691-.50293A.67773.67773,0,0,1,34.65041,45.219Z"/><path class="s" d="M35.4551,46.18971a1.34519,1.34519,0,0,1,.53613.17285.91.91,0,0,1,.34766.35937,1.11707,1.11707,0,0,1,.13965.42481.96785.96785,0,0,1-.042.40039,1.16415,1.16415,0,0,1-.18847.36816,1.70891,1.70891,0,0,1-.26856.29.58217.58217,0,0,1-.26855.14356.29772.29772,0,0,1-.2041-.02344.75219.75219,0,0,1-.15821-.12793c-.05371-.05274-.03222-.125.06348-.21582s.19238-.18262.28809-.27442a.85129.85129,0,0,0,.21875-.377.36719.36719,0,0,0-.06348-.38867.50828.50828,0,0,0-.29-.17188.3464.3464,0,0,0-.26074.05274.23531.23531,0,0,1-.19629.05273c-.06055-.0166-.11817-.07715-.17481-.17969a.25674.25674,0,0,1-.01074-.27539A1.00045,1.00045,0,0,1,35.4551,46.18971Z"/><path class="s" d="M37.60061,46.552c.12988-.01953.21289.001.251.06055.03711.06054.0625.10254.07325.126q.01757.03663.09667.041a1.36671,1.36671,0,0,0,.28516-.0332.60218.60218,0,0,1,.40137.06543.84567.84567,0,0,1,.335.3623,1.11475,1.11475,0,0,1,.14551.50781,1.08161,1.08161,0,0,1-.07422.44532,3.35631,3.35631,0,0,1-.165.35351,1.04075,1.04075,0,0,1-.209.27442.39635.39635,0,0,1-.207.123.79337.79337,0,0,1-.14843.00488.76411.76411,0,0,1-.20411-.05468c-.09668-.03321-.08886-.11133.02344-.23731.11133-.125.2002-.22168.26367-.28613a.78687.78687,0,0,0,.165-.27832.75269.75269,0,0,0,.00489-.43652.35059.35059,0,0,0-.24512-.30176,1.03049,1.03049,0,0,0-.56543.1084,6.01856,6.01856,0,0,1-.03613.61523.84775.84775,0,0,1-.10547.28906,2.55018,2.55018,0,0,1-.19824.28809.53952.53952,0,0,1-.30274.19434,2.0182,2.0182,0,0,1-.38574.05468.35759.35759,0,0,1-.30762-.126c-.07226-.08985-.10449-.15332-.0957-.19336.00976-.03809.05566-.06739.13965-.08692a2.0396,2.0396,0,0,1,.30078-.041.48379.48379,0,0,0,.31836-.167.88741.88741,0,0,0,.1914-.47657,6.63783,6.63783,0,0,0,.06446-.68359A.693.693,0,0,1,37.60061,46.552Z"/><path class="s" d="M41.626,47.04713c.04883.01562.084.02832.10742.03613a.70344.70344,0,0,1,.15039.206.50219.50219,0,0,1,.09766.29786c-.0127.07129-.02442.1455-.03614.2207-.01465.07715-.03418.1875-.0625.334-.02832.14746-.06347.31153-.10449.48731q-.06445.2666-.14453.53027c-.05371.17676-.12793.40625-.2207.68946a3.13374,3.13374,0,0,1-.19434.50585.69006.69006,0,0,1-.11523.12989.24193.24193,0,0,1-.1377.05371.31842.31842,0,0,1-.18945-.07715.24392.24392,0,0,1-.11328-.19531.79693.79693,0,0,1,.06836-.28321q.06738-.17284.2998-1.01367c.15527-.56152.249-.94531.28125-1.15429a4.46537,4.46537,0,0,0,.05078-.48047c.002-.11133.02442-.17578.06641-.19239A1.9641,1.9641,0,0,0,41.626,47.04713Z"/><path class="s" d="M42.85354,47.16724a.391.391,0,0,1,.165.37207c-.01758.1504-.042.31153-.07422.48633q-.04687.26367-.13379.583c-.05762.21387-.11524.41113-.17383.59473-.05859.18164-.11328.33593-.16309.46a.5814.5814,0,0,1-.20507.27051c-.08594.05566-.1543.07226-.20606.04785a.47321.47321,0,0,1-.14551-.10645c-.04394-.04687-.03906-.15625.01758-.32715.05566-.17187.13965-.43554.25391-.78906a2.44541,2.44541,0,0,0,.14258-.89355.73476.73476,0,0,1,.08691-.50391A.68768.68768,0,0,1,42.85354,47.16724Z"/><path class="s" d="M43.65822,48.13892a1.33971,1.33971,0,0,1,.53614.17188.9165.9165,0,0,1,.34765.35937,1.14713,1.14713,0,0,1,.14063.42579.9805.9805,0,0,1-.043.39941,1.14933,1.14933,0,0,1-.18848.36914,1.70693,1.70693,0,0,1-.26855.29.58676.58676,0,0,1-.26856.14355.303.303,0,0,1-.2041-.02441.77011.77011,0,0,1-.1582-.127c-.05371-.05274-.03223-.125.06347-.21582s.19239-.18262.28809-.27442a.87114.87114,0,0,0,.21973-.37793.3681.3681,0,0,0-.06446-.38867.51171.51171,0,0,0-.29-.1709.34737.34737,0,0,0-.26075.05274.23105.23105,0,0,1-.19629.05175c-.06054-.0166-.11816-.07617-.1748-.17871a.25669.25669,0,0,1-.01074-.27539C43.1758,48.29029,43.35451,48.21314,43.65822,48.13892Z"/><path class="s" d="M46.03029,48.677c.18457.06055.28223.14941.294.26953a.68551.68551,0,0,0,.14258.34473c.083.10937.14648.18945.19043.23633a.13274.13274,0,0,0,.1455.04589.978.978,0,0,0,.18848-.083.61068.61068,0,0,0,.20508-.34375.41964.41964,0,0,1,.38867-.31055.35519.35519,0,0,1,.14063.19824.753.753,0,0,1-.02832.26856,1.37617,1.37617,0,0,1-.16309.38281,1.19125,1.19125,0,0,1-.52246.39648,2.949,2.949,0,0,1,.17969.72266.34876.34876,0,0,1-.2168.28613c-.19727-.0664-.37891-.29785-.54395-.6914-.168-.39551-.32226-.61036-.46679-.64453a8.28992,8.28992,0,0,1-.94824.85253.84776.84776,0,0,1-.28614.03125c-.10937-.12109-.12988-.22851-.06543-.31933a1.39194,1.39194,0,0,1,.19336-.21875q.09522-.0835.458-.48731a1.745,1.745,0,0,0,.42285-.6582A.3249.3249,0,0,1,46.03029,48.677Z"/><path class="s" d="M49.99221,49.64283a1.34047,1.34047,0,0,1,.53515.17285.90608.90608,0,0,1,.34864.35938,1.13984,1.13984,0,0,1,.13965.4248.98448.98448,0,0,1-.042.40039,1.16156,1.16156,0,0,1-.18945.36914,1.69483,1.69483,0,0,1-.26758.28907.57124.57124,0,0,1-.26953.14355.294.294,0,0,1-.20312-.02344.72141.72141,0,0,1-.15821-.127c-.05371-.05371-.03222-.126.06348-.21582.0957-.09082.19238-.18262.28809-.27441a.87978.87978,0,0,0,.21875-.37793.36577.36577,0,0,0-.06446-.38868.51365.51365,0,0,0-.29-.17187.3439.3439,0,0,0-.25976.05273.23277.23277,0,0,1-.19629.05274c-.06055-.0166-.11817-.07617-.17481-.17969A.25674.25674,0,0,1,49.46,49.8733,1.00043,1.00043,0,0,1,49.99221,49.64283Z"/><path class="s" d="M52.43752,49.884a1.4293,1.4293,0,0,1,.58789.19043.89452.89452,0,0,1,.292.30078.6496.6496,0,0,1,.06641.39649.8387.8387,0,0,1-.28711.48437,1.403,1.403,0,0,1,.166.44434,1.04738,1.04738,0,0,1-.07325.39648.59075.59075,0,0,1-.38769.36035,1.41387,1.41387,0,0,1-.4502.11036.30742.30742,0,0,1-.251-.14942c-.06934-.0957.03515-.20312.31152-.31836.27832-.11426.38281-.24316.31738-.38769a.54055.54055,0,0,0-.21972-.27051.19692.19692,0,0,1-.11036-.21094c.00391-.10156.07618-.18457.21582-.248q.20655-.09521.19336-.25488a.3274.3274,0,0,0-.20605-.25683.42965.42965,0,0,0-.3252-.05274c-.08886.02832-.1748.06152-.25878.0957a.46458.46458,0,0,1-.25977.03418.36273.36273,0,0,1-.21387-.10546.21271.21271,0,0,1-.04394-.21973c.02246-.08985.15039-.17285.37988-.25A1.332,1.332,0,0,1,52.43752,49.884Z"/><path class="s" d="M54.99611,50.58424a1.04923,1.04923,0,0,1,.67969.51953,1.69675,1.69675,0,0,1,.16211.63574,1.27362,1.27362,0,0,1-.123.56836,1.2354,1.2354,0,0,1-.33984.44434.889.889,0,0,1-.46191.19531.94962.94962,0,0,1-.52344-.10156A.993.993,0,0,1,53.958,52.426a1.64029,1.64029,0,0,1-.2041-.62207,1.08249,1.08249,0,0,1,.02929-.51465c.0459-.11914.09082-.18164.13379-.1914a.27412.27412,0,0,0,.1416-.123,2.03511,2.03511,0,0,1,.18555-.2168.65353.65353,0,0,1,.249-.16015A1.32038,1.32038,0,0,1,54.99611,50.58424Zm-.71.87109a.95921.95921,0,0,0-.042.35938.76348.76348,0,0,0,.14063.35546.46814.46814,0,0,0,.33007.21485.45875.45875,0,0,0,.377-.11719.61033.61033,0,0,0,.19824-.4248.8.8,0,0,0-.07031-.46192.46753.46753,0,0,0-.32032-.23437.38385.38385,0,0,0-.3496.05175A2.56243,2.56243,0,0,0,54.28615,51.45533Z"/><path class="s" d="M57.46,49.74928a.73266.73266,0,0,1,.52344.21679.79276.79276,0,0,1,.23535.36328.38573.38573,0,0,1-.042.27637c-.04688.082-.11817.08594-.21387.01465-.0957-.06934-.19629-.13965-.30273-.21a.378.378,0,0,0-.35645-.03027.746.746,0,0,0-.35742.33691,1.22039,1.22039,0,0,0-.02344.86133,3.96077,3.96077,0,0,1,.127.88281,1.26667,1.26667,0,0,1-.12891.53027.54087.54087,0,0,1-.30664.30469.32575.32575,0,0,1-.29883-.02734c-.0752-.05371-.08008-.14356-.01465-.26758a2.8994,2.8994,0,0,0,.17578-.4082,1.09527,1.09527,0,0,0-.06543-.65723,2.35238,2.35238,0,0,1-.14257-.58887,2.78424,2.78424,0,0,1,.05664-.47656,1.42583,1.42583,0,0,1,.27343-.6084A1.80232,1.80232,0,0,1,57.46,49.74928Z"/><path class="t" d="M12.97253,60.07461a4.95725,4.95725,0,0,1-1.69033.19213,1.52331,1.52331,0,0,1-.58415-2.93048,4.07948,4.07948,0,0,1,2.342-.40144A7.69689,7.69689,0,0,1,16.83934,58c.88893.57875,1.58263,1.422,2.47767,1.99124,2.2381,1.42347,5.94975.25441,8.39046-.22526a1.70247,1.70247,0,0,0,1.33095-.7571c.33584-.75529-.5404-1.51776-1.35211-1.67393A3.74365,3.74365,0,0,0,24.25354,58.496a1.874,1.874,0,0,0-.53384,1.12621,2.00743,2.00743,0,0,0,.86781,1.53691,7.04428,7.04428,0,0,0,5.05846,1.2489,2.11052,2.11052,0,0,0,1.76856-.82509c-.71033-.46081-1.73374.2343-1.83294,1.07517a2.572,2.572,0,0,0,1.10829,2.165,5.19228,5.19228,0,0,0,4.56647.953,6.303,6.303,0,0,0,3.72518-3.14336,3.0273,3.0273,0,0,0,.45609-1.73322,1.37947,1.37947,0,0,0-1.11647-1.25865c-.85005-.08429-1.47357.96289-1.24677,1.78644A2.8496,2.8496,0,0,0,38.8699,63.127a6.45,6.45,0,0,0,5.59238-.39481,1.07958,1.07958,0,0,0-.13706,1.21719,2.8106,2.8106,0,0,0,.87723.95391,6.9889,6.9889,0,0,0,3.22079,1.54984,3.2921,3.2921,0,0,0,3.19182-1.24925,3.11538,3.11538,0,0,0,1.18175,2.45087,7.65722,7.65722,0,0,0-2.70114-4.11381,17.62808,17.62808,0,0,0,4.833.78054A10.70365,10.70365,0,0,0,53.148,66.96592c-.23122.48753-.39043,1.1529.02409,1.49833"/><path class="u" d="M175.85905,1.54857s9.2565.5577,14.00458,7.40838"/><path class="u" d="M151.26017,3.28362s-10.06322,1.70492-12.799,7.86109"/><circle class="v" cx="177.93334" cy="23.06777" r="9.09371"/><g class="w"><path class="x" d="M169.11728,18.03455s1.12926-.89435,7.15878-.7955a31.13,31.13,0,0,1,10.47335,1.95923V4.96464H169.11728Z"/><circle class="k" cx="177.93334" cy="23.06777" r="2.45314"/></g><circle class="y" cx="177.93334" cy="23.06777" r="9.09371"/><path class="z" d="M186.58606,18.91416s3.7914.74721,4.391-3.60074"/><path class="z" d="M182.3737,17.80213s2.86109.07622,3.105-3.82807"/><ellipse class="v" cx="151.063" cy="23.06777" rx="8.40782" ry="9.09371"/><g class="aa"><path class="x" d="M142.91188,17.52837s.94-.89435,6.51478-.7955a27.90571,27.90571,0,0,1,9.78746,1.95923V4.45847H142.91188Z"/><circle class="k" cx="151.063" cy="23.06777" r="2.45314"/></g><ellipse class="y" cx="151.063" cy="23.06777" rx="8.40782" ry="9.09371"/><path class="z" d="M145.449,16.75517s-3.79141.74721-4.391-3.60074"/><path class="z" d="M149.49305,16.73645s-2.85957-.12042-2.83477-4.03225"/></svg>