<svg xmlns="http://www.w3.org/2000/svg" viewBox="0 0 62.81251 83.39762"><defs><style>.a{fill:#d2d2d2;}.b{fill:none;stroke:#b6b9bb;stroke-linecap:round;stroke-linejoin:round;stroke-width:1.38336px;}</style></defs><rect class="a" width="62.8125" height="83.39761"/><line class="b" x1="32.94633" y1="62.05884" x2="56.69729" y2="62.05883"/><line class="b" x1="20.17861" y1="59.19692" x2="56.69729" y2="59.19692"/><line class="b" x1="10.53907" y1="71.24981" x2="56.69729" y2="71.2498"/><line class="b" x1="7.03643" y1="68.52154" x2="56.69729" y2="68.52154"/><line class="b" x1="7.03643" y1="74.26328" x2="56.69729" y2="74.26327"/><path d="M15.1971,11.7855a.1981.1981,0,0,1-.0625-.14941V9.28257a.19449.19449,0,0,1,.0625-.14843.21232.21232,0,0,1,.15234-.0586h1.03711a.20044.20044,0,0,1,.207.207v2.35352a.20616.20616,0,0,1-.05859.14551.19523.19523,0,0,1-.14844.06152H15.34944A.21575.21575,0,0,1,15.1971,11.7855Z"/><path d="M17.59944,13.74937A.1951.1951,0,0,1,17.53889,13.6V9.28257a.193.193,0,0,1,.06055-.14843.22033.22033,0,0,1,.1543-.0586h1.03515a.19753.19753,0,0,1,.207.207V13.6a.21292.21292,0,0,1-.05664.1455.19947.19947,0,0,1-.15039.06153H17.75374A.21955.21955,0,0,1,17.59944,13.74937Z"/><path d="M22.82014,13.74546a.20687.20687,0,0,1-.15234.06153H20.00764a.21161.21161,0,0,1-.15234-.05762A.19.19,0,0,1,19.7928,13.6V12.888a.18862.18862,0,0,1,.0625-.14941.21234.21234,0,0,1,.15234-.0586h1.375l-.07422-1.63183a1.445,1.445,0,0,0-.166-.69629.566.566,0,0,0-.51367-.21582h-.42188a.19888.19888,0,0,1-.14453-.06153.1946.1946,0,0,1-.0625-.1455V9.23277a.21633.21633,0,0,1,.05859-.15332.19229.19229,0,0,1,.14844-.06153h.44727a2.17692,2.17692,0,0,1,1.57812.48829,2.26634,2.26634,0,0,1,.53516,1.5664L22.87483,13.6A.16883.16883,0,0,1,22.82014,13.74546Z"/><path d="M23.68147,11.7855a.19657.19657,0,0,1-.06055-.14941V9.28257a.193.193,0,0,1,.06055-.14843.22033.22033,0,0,1,.1543-.0586h1.03515a.19755.19755,0,0,1,.207.207v2.35352a.213.213,0,0,1-.05665.14551.1995.1995,0,0,1-.15039.06152H23.83577A.224.224,0,0,1,23.68147,11.7855Z"/><path d="M30.19905,9.5814a2.00059,2.00059,0,0,1,.53125,1.5166V13.6a.20612.20612,0,0,1-.05859.1455.19522.19522,0,0,1-.14844.06153H28.26155a.20323.20323,0,0,1-.14649-.06153.20005.20005,0,0,1-.06054-.1455V12.888a.19369.19369,0,0,1,.06054-.14941.2084.2084,0,0,1,.14649-.0586h1.06836v-1.5166a.99215.99215,0,0,0-.207-.6709.67977.67977,0,0,0-.53907-.24023h-.64648l-.70312,3.33984a.26477.26477,0,0,1-.06641.15332.19947.19947,0,0,1-.15039.06153h-.95313a.2069.2069,0,0,1-.15234-.06153.1688.1688,0,0,1-.04688-.15332l.8125-3.33105h-.54687a.196.196,0,0,1-.14844-.0625.21473.21473,0,0,1-.05859-.15332v-.7627a.19449.19449,0,0,1,.0625-.14843.20382.20382,0,0,1,.14453-.0586h2.66016A1.95568,1.95568,0,0,1,30.19905,9.5814Z"/><path d="M33.30256,13.74546a.20207.20207,0,0,1-.0625-.1455V12.888a.19517.19517,0,0,1,.0625-.14941.20509.20509,0,0,1,.14649-.0586h2.07812V11.14781a.82657.82657,0,0,0-.93554-.93653H33.53108a.193.193,0,0,1-.14844-.0625.21469.21469,0,0,1-.05859-.15332V9.28257a.18794.18794,0,0,1,.0625-.14843.20382.20382,0,0,1,.14453-.0586h1.10156a2.70579,2.70579,0,0,1,1.75391.48926,1.94066,1.94066,0,0,1,.5918,1.583V12.68h.28906a.20154.20154,0,0,1,.15039.0586.19932.19932,0,0,1,.05859.14941V13.6a.20612.20612,0,0,1-.05859.1455.19653.19653,0,0,1-.15039.06153H33.44905A.2.2,0,0,1,33.30256,13.74546Z"/><path d="M42.58381,9.56871a1.91283,1.91283,0,0,1,.57618,1.5371V13.6a.20609.20609,0,0,1-.0586.1455.19518.19518,0,0,1-.14843.06153h-.97852a.21159.21159,0,0,1-.15234-.05762A.19662.19662,0,0,1,41.7596,13.6V11.14781a.83165.83165,0,0,0-.93555-.94532H40.285a4.94913,4.94913,0,0,0-.125,1.21875L40.22639,13.6a.19662.19662,0,0,1-.0625.14941.21159.21159,0,0,1-.15234.05762l-1.75781-.00782a.21583.21583,0,0,1-.15235-.05761.19818.19818,0,0,1-.0625-.14942v-.65527a.19454.19454,0,0,1,.0625-.14844.2124.2124,0,0,1,.15235-.05859h.67187V11.42906a4.38882,4.38882,0,0,1,.125-1.22657h-.49023a.21583.21583,0,0,1-.15235-.05761.19818.19818,0,0,1-.0625-.14942V9.28257a.19452.19452,0,0,1,.0625-.14843.21236.21236,0,0,1,.15235-.0586h2.3125A2.57113,2.57113,0,0,1,42.58381,9.56871Z"/><path d="M44.10921,13.74937a.19662.19662,0,0,1-.0625-.14941v-.76172a.20834.20834,0,0,1,.0625-.15332.204.204,0,0,1,.15234-.0625h1.20312a.88251.88251,0,0,0,.99414-.93653c.00586-.0664.00782-.14941.00782-.249,0-.09375-.002-.17383-.00782-.24023a.88181.88181,0,0,0-.99414-.93555H44.26155a.20774.20774,0,0,1-.15234-.0625.21.21,0,0,1-.0625-.15332v-.7627a.19449.19449,0,0,1,.0625-.14843.21232.21232,0,0,1,.15234-.0586h1.24414a2.01451,2.01451,0,0,1,2.29492,2.12988c.00586.06055.00781.1377.00781.23145a2.56605,2.56605,0,0,1-.543,1.749,2.22254,2.22254,0,0,1-1.75977.6211H44.26155A.21159.21159,0,0,1,44.10921,13.74937Z"/><path d="M14.90217,27.58335a.19814.19814,0,0,1-.0625-.14941V24.98081a.83017.83017,0,0,0-.93554-.94433H12.64436a.19616.19616,0,0,1-.14453-.0625.19989.19989,0,0,1-.0625-.14453v-.71289a.19814.19814,0,0,1,.0625-.14942.20713.20713,0,0,1,.14453-.05761H13.953a2.643,2.643,0,0,1,1.7207.47265,1.91157,1.91157,0,0,1,.5664,1.54883v2.50293a.213.213,0,0,1-.05664.14551.1995.1995,0,0,1-.15039.06152h-.97656A.22057.22057,0,0,1,14.90217,27.58335Z"/><path d="M18.26155,24.38414q.01758.33984.19922.39843l.23242.082a.19322.19322,0,0,1,.10352.09571.31507.31507,0,0,1,.0371.15332l.00782.42285a.21838.21838,0,0,1-.11133.19433.407.407,0,0,1-.26953.05372l-.33985-.04883a1.05732,1.05732,0,0,1-.71289-.46094,1.65792,1.65792,0,0,1-.28125-.99023v-1.168a.30463.30463,0,0,1,.07032-.14942.18288.18288,0,0,1,.13671-.05761h1.67383a2.1452,2.1452,0,0,1,1.6211.55957,2.35935,2.35935,0,0,1,.584,1.57031c.00586.05469.00781.13183.00781.23144a2.62606,2.62606,0,0,1-.52929,1.74414,2.0908,2.0908,0,0,1-1.6836.626H17.43342a.21578.21578,0,0,1-.15234-.05762.19135.19135,0,0,1-.0625-.14941v-.7627a.20406.20406,0,0,1,.0625-.15332.20693.20693,0,0,1,.15234-.06152h1.53321a.98947.98947,0,0,0,.6914-.24512.96541.96541,0,0,0,.29493-.6914c.00585-.05567.00781-.1377.00781-.249,0-.10449-.002-.18457-.00781-.24023a.94377.94377,0,0,0-.28516-.69141,1.00446,1.00446,0,0,0-.70117-.24511h-.70508Z"/><path d="M22.09553,27.58335a.19814.19814,0,0,1-.0625-.14941V23.11656a.19818.19818,0,0,1,.0625-.14942.21583.21583,0,0,1,.15235-.05761H23.285a.199.199,0,0,1,.207.207v4.31738a.20611.20611,0,0,1-.0586.14551.19521.19521,0,0,1-.14843.06152H22.24788A.21579.21579,0,0,1,22.09553,27.58335Z"/><path d="M24.98421,27.181a2.029,2.029,0,0,1-.56446-1.53711V23.11656a.19818.19818,0,0,1,.0625-.14942.21583.21583,0,0,1,.15235-.05761h2.11328a2.39076,2.39076,0,0,1,1.707.50586,2.13556,2.13556,0,0,1,.57226,1.49121c.00586.05566.00782.18457.00782.38964,0,.21-.002.3418-.00782.39747a2.15419,2.15419,0,0,1-.59179,1.51269,2.50037,2.50037,0,0,1-1.76172.51758A2.34372,2.34372,0,0,1,24.98421,27.181Zm2.46484-.84473a.94865.94865,0,0,0,.23633-.68359c.00586-.05566.00781-.1748.00781-.35645,0-.17675-.002-.293-.00781-.34863a.96427.96427,0,0,0-.25-.6875,1.01518,1.01518,0,0,0-.72852-.22363H25.70491v1.583a.89.89,0,0,0,.248.6914,1.01493,1.01493,0,0,0,.71289.22754A1.16464,1.16464,0,0,0,27.44905,26.33628Z"/><path d="M31.64046,28.6107a.19656.19656,0,0,1-.06055-.14942V23.11656a.19657.19657,0,0,1,.06055-.14942.224.224,0,0,1,.15429-.05761h.97852a.19895.19895,0,0,1,.207.207v5.34472a.20238.20238,0,0,1-.05859.14942.19943.19943,0,0,1-.14844.05761h-.97852A.21952.21952,0,0,1,31.64046,28.6107Z"/><path d="M33.994,25.61949a.19661.19661,0,0,1-.06055-.14942V23.11656a.19661.19661,0,0,1,.06055-.14942.224.224,0,0,1,.1543-.05761h1.03515a.19615.19615,0,0,1,.207.207v2.35351a.21055.21055,0,0,1-.05665.14453.19675.19675,0,0,1-.15039.0625H34.14827A.224.224,0,0,1,33.994,25.61949Z"/><path d="M40.08967,24.85289a2.04121,2.04121,0,0,1-.72851.75l.64648.88671a.79713.79713,0,0,1,.07813.124.33079.33079,0,0,1,.02929.14941v.6709a.20614.20614,0,0,1-.05859.14551.19522.19522,0,0,1-.14844.06152H36.5428a.19889.19889,0,0,1-.14453-.06152.20205.20205,0,0,1-.0625-.14551v-.7373a.19812.19812,0,0,1,.0625-.14942.20713.20713,0,0,1,.14453-.05762h1.94726l-2.41015-3.28222a.28245.28245,0,0,1-.05078-.13184.14973.14973,0,0,1,.05468-.12109.19384.19384,0,0,1,.127-.04492h1.02929a.3039.3039,0,0,1,.26368.14941l1.16015,1.59082a1.31047,1.31047,0,0,0,.38086-1.05273v-.46387a.21857.21857,0,0,1,.0625-.16113.20836.20836,0,0,1,.1543-.0625h.86914a.19377.19377,0,0,1,.14648.0664.22216.22216,0,0,1,.06055.15723v.71289A2.04858,2.04858,0,0,1,40.08967,24.85289Z"/><path d="M43.28889,27.69078a.2399.2399,0,0,1-.0664-.166v-.83691a.24921.24921,0,0,1,.05664-.15723.31726.31726,0,0,1,.15039-.10742l.25586-.1084a1.21321,1.21321,0,0,0,.82812-1.28418,1.0913,1.0913,0,0,0-.18554-.72852.8961.8961,0,0,0-.6836-.208H41.43928a.2069.2069,0,0,1-.15234-.06153.21153.21153,0,0,1-.0625-.15332v-.77051a.17974.17974,0,0,1,.06641-.1416.22372.22372,0,0,1,.14843-.05761h2.49414a2.01512,2.01512,0,0,1,1.55079.51757,2.25642,2.25642,0,0,1,.47265,1.5625,2.43238,2.43238,0,0,1-.623,1.72364,3.30285,3.30285,0,0,1-1.55664.93652l-.33984.09863A.14843.14843,0,0,1,43.28889,27.69078Zm-2.002,1.47461a.19452.19452,0,0,1-.0625-.14844V25.014a.19814.19814,0,0,1,.0625-.14942.21582.21582,0,0,1,.15234-.05761h.94532a.20014.20014,0,0,1,.14843.05761.20237.20237,0,0,1,.0586.14942V29.017a.20044.20044,0,0,1-.207.207h-.94532A.21239.21239,0,0,1,41.28694,29.16539Z"/><path d="M49.9178,23.4271a2.25642,2.25642,0,0,1,.47266,1.5625,2.43242,2.43242,0,0,1-.623,1.72364,3.3029,3.3029,0,0,1-1.55664.93652l-.33985.09863a.16056.16056,0,0,1-.15429-.05761.23575.23575,0,0,1-.07032-.166v-.83691a.2358.2358,0,0,1,.0586-.15332.40747.40747,0,0,1,.14844-.11133l.26562-.1084a1.33863,1.33863,0,0,0,.60156-.44238,1.38746,1.38746,0,0,0,.21875-.8418,1.11613,1.11613,0,0,0-.18164-.72852.88009.88009,0,0,0-.67968-.208h-.21485l-1.11133-.00782a.20044.20044,0,0,1-.207-.207v-1.915a.19452.19452,0,0,1,.0625-.14843.20386.20386,0,0,1,.14453-.0586h.89453a.19754.19754,0,0,1,.207.207v.94532H48.367A2.01508,2.01508,0,0,1,49.9178,23.4271Z"/><path d="M11.82014,37.2357a1.915,1.915,0,0,1,.57617,1.53808v2.49414a.20389.20389,0,0,1-.05859.14454.1926.1926,0,0,1-.14844.0625h-.97851a.21583.21583,0,0,1-.15235-.05762.19816.19816,0,0,1-.0625-.14942V38.8148a.831.831,0,0,0-.93554-.94434H9.52131a4.93706,4.93706,0,0,0-.125,1.21778l.06641,2.17968a.19812.19812,0,0,1-.0625.14942.21581.21581,0,0,1-.15234.05762l-1.75782-.00879a.21162.21162,0,0,1-.15234-.05762.19519.19519,0,0,1-.0625-.14941v-.6543a.19818.19818,0,0,1,.0625-.14942.21582.21582,0,0,1,.15234-.05761h.67188V39.097a4.38485,4.38485,0,0,1,.125-1.22657H7.79671a.2124.2124,0,0,1-.15235-.05859.19454.19454,0,0,1-.0625-.14844v-.71289a.19814.19814,0,0,1,.0625-.14941.21579.21579,0,0,1,.15235-.05762h2.3125A2.57651,2.57651,0,0,1,11.82014,37.2357Z"/><path d="M13.39436,41.41734a.19659.19659,0,0,1-.06055-.14942V36.95054a.19657.19657,0,0,1,.06055-.14941.224.224,0,0,1,.1543-.05762h1.03515a.19615.19615,0,0,1,.207.207v4.31738a.21063.21063,0,0,1-.05664.14454.19682.19682,0,0,1-.1504.0625H13.54866A.224.224,0,0,1,13.39436,41.41734Z"/><path d="M16.85335,38.21812q.01757.33984.19921.39746l.23243.083a.19314.19314,0,0,1,.10351.0957.31514.31514,0,0,1,.03711.15332l.00781.42285a.21951.21951,0,0,1-.11132.19434.407.407,0,0,1-.26954.05371l-.33984-.0498a1.0526,1.0526,0,0,1-.71289-.46,1.65787,1.65787,0,0,1-.28125-.99023v-1.168a.30463.30463,0,0,1,.07031-.14941.18286.18286,0,0,1,.13672-.05762h1.67383a2.14489,2.14489,0,0,1,1.62109.55859,2.3634,2.3634,0,0,1,.584,1.57032c.00586.05566.00781.13281.00781.23242A2.626,2.626,0,0,1,19.283,40.849a2.094,2.094,0,0,1-1.68359.626H16.02522a.21579.21579,0,0,1-.15234-.05762.19137.19137,0,0,1-.0625-.14942v-.76269a.204.204,0,0,1,.0625-.15332.20686.20686,0,0,1,.15234-.06152h1.5332a.98956.98956,0,0,0,.69141-.24512.96721.96721,0,0,0,.29492-.69141c.00586-.05566.00781-.13867.00781-.249,0-.10449-.002-.18555-.00781-.24024a.94608.94608,0,0,0-.28515-.69238,1.00843,1.00843,0,0,0-.70118-.24414h-.70507Z"/><path d="M20.68733,41.41734a.19812.19812,0,0,1-.0625-.14942V36.95054a.1981.1981,0,0,1,.0625-.14941.21578.21578,0,0,1,.15234-.05762h1.03711a.199.199,0,0,1,.207.207v4.31738a.20389.20389,0,0,1-.05859.14454.1926.1926,0,0,1-.14844.0625H20.83967A.21583.21583,0,0,1,20.68733,41.41734Z"/><path d="M25.369,41.41734a.19137.19137,0,0,1-.0625-.14942V38.8148a.83155.83155,0,0,0-.9375-.94434H23.11116a.21364.21364,0,0,1-.209-.207v-.71289a.19814.19814,0,0,1,.0625-.14941.20837.20837,0,0,1,.14649-.05762h1.30859a2.64652,2.64652,0,0,1,1.71875.47168,1.9094,1.9094,0,0,1,.56836,1.5498v2.50293a.20389.20389,0,0,1-.05859.14454.1926.1926,0,0,1-.14844.0625h-.97852A.21583.21583,0,0,1,25.369,41.41734Z"/><path d="M32.04866,37.2357a1.92064,1.92064,0,0,1,.57422,1.53808v2.49414a.202.202,0,0,1-.05664.14454.19394.19394,0,0,1-.15039.0625h-.97657a.22059.22059,0,0,1-.15429-.05762.19812.19812,0,0,1-.0625-.14942V38.8148a.83018.83018,0,0,0-.93555-.94434h-.53906a5.03447,5.03447,0,0,0-.123,1.21778l.06641,2.17968a.19816.19816,0,0,1-.0625.14942.22061.22061,0,0,1-.1543.05762l-1.75586-.00879a.2163.2163,0,0,1-.1543-.05762.19519.19519,0,0,1-.0625-.14941v-.6543a.19818.19818,0,0,1,.0625-.14942.2206.2206,0,0,1,.1543-.05761h.66992V39.097a4.53557,4.53557,0,0,1,.125-1.22657h-.48828a.21706.21706,0,0,1-.1543-.05859.19454.19454,0,0,1-.0625-.14844v-.71289a.19814.19814,0,0,1,.0625-.14941.22057.22057,0,0,1,.1543-.05762h2.31055A2.57876,2.57876,0,0,1,32.04866,37.2357Z"/><path d="M33.62288,41.41734a.19812.19812,0,0,1-.0625-.14942V36.95054a.1981.1981,0,0,1,.0625-.14941.21575.21575,0,0,1,.15234-.05762h1.03711a.199.199,0,0,1,.207.207v4.31738a.20389.20389,0,0,1-.05859.14454.1926.1926,0,0,1-.14844.0625H33.77522A.21579.21579,0,0,1,33.62288,41.41734Z"/><path d="M37.79866,41.41734a.19812.19812,0,0,1-.0625-.14942V36.95054a.1981.1981,0,0,1,.0625-.14941.21577.21577,0,0,1,.15234-.05762h1.88086a2.51344,2.51344,0,0,1,1.67969.47656,1.95319,1.95319,0,0,1,.55078,1.55371v2.48536a.20837.20837,0,0,1-.0625.15332.20538.20538,0,0,1-.1543.0625H37.951A.21581.21581,0,0,1,37.79866,41.41734ZM40.72835,40.348V38.8148a.83155.83155,0,0,0-.9375-.94434h-.79493V40.348Z"/><path d="M43.02717,39.45249a.19452.19452,0,0,1-.0625-.14843V36.95054a.19814.19814,0,0,1,.0625-.14941.21579.21579,0,0,1,.15235-.05762h1.03711a.199.199,0,0,1,.207.207v2.35352a.20386.20386,0,0,1-.0586.14453.19259.19259,0,0,1-.14843.0625H43.17952A.21236.21236,0,0,1,43.02717,39.45249Z"/><path d="M49.54475,37.24839a2.00137,2.00137,0,0,1,.5293,1.5166v2.50293a.202.202,0,0,1-.05664.14454.1968.1968,0,0,1-.15039.0625H47.6053a.19615.19615,0,0,1-.14453-.0625.19991.19991,0,0,1-.0625-.14454V40.555a.19812.19812,0,0,1,.0625-.14941.20708.20708,0,0,1,.14453-.05762h1.06836V38.8314a.99215.99215,0,0,0-.207-.6709.67312.67312,0,0,0-.53711-.24023H47.283L46.578,41.25914a.2481.2481,0,0,1-.06641.15332.1926.1926,0,0,1-.14844.0625H45.41a.21149.21149,0,0,1-.1543-.0625.16142.16142,0,0,1-.04492-.15332l.8125-3.33106h-.54688a.1968.1968,0,0,1-.15039-.0625.22015.22015,0,0,1-.05664-.15332v-.76172a.19654.19654,0,0,1,.06055-.14941.21175.21175,0,0,1,.14648-.05762h2.66016A1.95828,1.95828,0,0,1,49.54475,37.24839Z"/><path d="M51.51741,41.015a2.029,2.029,0,0,1-.56445-1.5371V36.95054a.1981.1981,0,0,1,.0625-.14941.21575.21575,0,0,1,.15234-.05762h2.11328a2.39541,2.39541,0,0,1,1.707.50488,2.13819,2.13819,0,0,1,.57227,1.49219c.00586.05469.00781.18457.00781.38965,0,.209-.002.3418-.00781.39746a2.14993,2.14993,0,0,1-.5918,1.51172,2.49566,2.49566,0,0,1-1.76172.51855A2.348,2.348,0,0,1,51.51741,41.015Zm2.46484-.8457a.9469.9469,0,0,0,.23633-.68359c.00586-.05469.00781-.17383.00781-.35547,0-.17774-.002-.293-.00781-.34863a.96252.96252,0,0,0-.25-.6875,1.01512,1.01512,0,0,0-.72852-.22364h-1.002v1.582a.89375.89375,0,0,0,.248.69239,1.015,1.015,0,0,0,.71289.22754A1.1588,1.1588,0,0,0,53.98225,40.16929Z"/><path d="M13.51546,51.06968a1.91845,1.91845,0,0,1,.57421,1.53711v2.49414a.20419.20419,0,0,1-.05664.14551.19653.19653,0,0,1-.15039.06152h-.97656a.21629.21629,0,0,1-.1543-.05761.1952.1952,0,0,1-.0625-.14942V52.64878a.83086.83086,0,0,0-.93554-.94531h-.53907a5.0478,5.0478,0,0,0-.123,1.21875l.0664,2.17871a.19516.19516,0,0,1-.0625.14942.21627.21627,0,0,1-.15429.05761l-1.75586-.00781a.22057.22057,0,0,1-.1543-.05762.1981.1981,0,0,1-.0625-.14941v-.6543a.19514.19514,0,0,1,.0625-.14941.21707.21707,0,0,1,.1543-.0586H9.8553V52.93a4.53938,4.53938,0,0,1,.125-1.22656H9.492a.21626.21626,0,0,1-.1543-.05762.19665.19665,0,0,1-.0625-.14941v-.71289a.19454.19454,0,0,1,.0625-.14844.21706.21706,0,0,1,.1543-.05859h2.31054A2.57883,2.57883,0,0,1,13.51546,51.06968Z"/><path d="M15.08967,55.25035a.1952.1952,0,0,1-.0625-.14942V50.78355a.19454.19454,0,0,1,.0625-.14844.2124.2124,0,0,1,.15235-.05859h1.03711a.20044.20044,0,0,1,.207.207v4.31738a.20609.20609,0,0,1-.0586.14551.19518.19518,0,0,1-.14843.06152H15.242A.21162.21162,0,0,1,15.08967,55.25035Z"/><path d="M17.492,53.28648a.19662.19662,0,0,1-.0625-.14942V50.78355a.19451.19451,0,0,1,.0625-.14844.21236.21236,0,0,1,.15234-.05859h1.03711a.20042.20042,0,0,1,.207.207v2.35351a.20613.20613,0,0,1-.05859.14551.19519.19519,0,0,1-.14844.06153H17.64436A.21159.21159,0,0,1,17.492,53.28648Z"/><path d="M20.9178,52.0521q.01758.33985.19922.39746l.23242.083a.19128.19128,0,0,1,.10352.09473.32047.32047,0,0,1,.0371.15332l.00782.42285a.2199.2199,0,0,1-.11133.19531.4127.4127,0,0,1-.26953.05371l-.33985-.0498a1.05262,1.05262,0,0,1-.71289-.46,1.662,1.662,0,0,1-.28125-.99024V50.78355a.29715.29715,0,0,1,.07032-.14844.18023.18023,0,0,1,.13671-.05859h1.67383a2.1452,2.1452,0,0,1,1.6211.55957,2.36332,2.36332,0,0,1,.584,1.57031c.00586.05566.00781.13281.00781.23242a2.62785,2.62785,0,0,1-.52929,1.74414,2.09358,2.09358,0,0,1-1.6836.625H20.08967a.21162.21162,0,0,1-.15234-.05761.18864.18864,0,0,1-.0625-.14942v-.76172a.21342.21342,0,0,1,.21484-.21582h1.53321a.98886.98886,0,0,0,.6914-.24414.96775.96775,0,0,0,.29493-.69238c.00585-.05469.00781-.1377.00781-.248,0-.10547-.002-.18554-.00781-.24023a.94606.94606,0,0,0-.28516-.69238,1.00385,1.00385,0,0,0-.70117-.24415H20.9178Z"/><path d="M26.93147,55.25035a.18864.18864,0,0,1-.0625-.14942V52.64878a.83224.83224,0,0,0-.9375-.94531H24.67366a.20007.20007,0,0,1-.14649-.06152.20209.20209,0,0,1-.0625-.14551v-.71289a.19454.19454,0,0,1,.0625-.14844.20513.20513,0,0,1,.14649-.05859h1.30859a2.64068,2.64068,0,0,1,1.71875.47265,1.90678,1.90678,0,0,1,.56836,1.54981v2.502a.20613.20613,0,0,1-.05859.14551.19518.19518,0,0,1-.14844.06152h-.97852A.21162.21162,0,0,1,26.93147,55.25035Z"/><path d="M33.60921,51.06968a1.91287,1.91287,0,0,1,.57617,1.53711v2.49414a.20609.20609,0,0,1-.0586.14551.19518.19518,0,0,1-.14843.06152h-.97852a.21158.21158,0,0,1-.15234-.05761.19516.19516,0,0,1-.0625-.14942V52.64878a.83165.83165,0,0,0-.93555-.94531h-.53906a4.94913,4.94913,0,0,0-.125,1.21875l.0664,2.17871a.19516.19516,0,0,1-.0625.14942.21158.21158,0,0,1-.15234.05761l-1.75781-.00781a.21579.21579,0,0,1-.15235-.05762.19814.19814,0,0,1-.0625-.14941v-.6543a.19517.19517,0,0,1,.0625-.14941.2124.2124,0,0,1,.15235-.0586H29.951V52.93a4.38879,4.38879,0,0,1,.125-1.22656h-.49023a.21159.21159,0,0,1-.15235-.05762.19665.19665,0,0,1-.0625-.14941v-.71289a.19454.19454,0,0,1,.0625-.14844.2124.2124,0,0,1,.15235-.05859h2.3125A2.5766,2.5766,0,0,1,33.60921,51.06968Z"/><path d="M35.18342,55.25035a.19371.19371,0,0,1-.06054-.14942V50.78355a.193.193,0,0,1,.06054-.14844.22036.22036,0,0,1,.1543-.05859h1.03516a.19752.19752,0,0,1,.207.207v4.31738a.21293.21293,0,0,1-.05664.14551.19948.19948,0,0,1-.15039.06152H35.33772A.21954.21954,0,0,1,35.18342,55.25035Z"/><path d="M37.57014,55.25035a.19371.19371,0,0,1-.06054-.14942v-.76172a.20834.20834,0,0,1,.06054-.15332.21149.21149,0,0,1,.1543-.0625h1.20117a.88118.88118,0,0,0,.99414-.93652c.00586-.06641.00977-.14844.00977-.248,0-.09375-.00391-.1748-.00977-.24023a.88119.88119,0,0,0-.99414-.93653H37.72444a.21145.21145,0,0,1-.1543-.0625.20831.20831,0,0,1-.06054-.15332v-.76269a.193.193,0,0,1,.06054-.14844.22036.22036,0,0,1,.1543-.05859h1.24219A2.01516,2.01516,0,0,1,41.2635,52.7064c.00391.06055.00781.13867.00781.23242a2.575,2.575,0,0,1-.543,1.748,2.22714,2.22714,0,0,1-1.76172.62109H37.72444A.21954.21954,0,0,1,37.57014,55.25035Z"/><path d="M42.11116,53.28648a.19511.19511,0,0,1-.06055-.14942V50.78355a.193.193,0,0,1,.06055-.14844.22036.22036,0,0,1,.1543-.05859h1.03515a.19752.19752,0,0,1,.207.207v2.35351a.21293.21293,0,0,1-.05664.14551.19947.19947,0,0,1-.15039.06153H42.26546A.21955.21955,0,0,1,42.11116,53.28648Z"/><path d="M44.96663,54.849a2.032,2.032,0,0,1-.56446-1.53711V50.78355a.19454.19454,0,0,1,.0625-.14844.2124.2124,0,0,1,.15235-.05859H46.7303a2.39533,2.39533,0,0,1,1.707.50586,2.13561,2.13561,0,0,1,.57227,1.49121c.00586.05566.00781.18555.00781.38965,0,.21-.002.34277-.00781.39746a2.15242,2.15242,0,0,1-.5918,1.51269,2.49567,2.49567,0,0,1-1.76172.51758A2.34782,2.34782,0,0,1,44.96663,54.849Zm2.46484-.8457a.94694.94694,0,0,0,.23633-.6836c.00586-.05469.00781-.17383.00781-.35644,0-.17676-.002-.293-.00781-.34766a.96509.96509,0,0,0-.25-.68848,1.01966,1.01966,0,0,0-.72852-.22363H45.68733v1.583a.89371.89371,0,0,0,.248.69238,1.01956,1.01956,0,0,0,.71289.22754A1.1588,1.1588,0,0,0,47.43147,54.00328Z"/><path d="M50.908,52.0521c.01172.22657.07618.35938.19922.39746l.23242.083a.198.198,0,0,1,.10352.09473.34463.34463,0,0,1,.03711.15332l.00781.42285a.2199.2199,0,0,1-.11133.19531.41788.41788,0,0,1-.26953.05371l-.33984-.0498a1.05262,1.05262,0,0,1-.71289-.46,1.662,1.662,0,0,1-.28125-.99024V50.78355a.268.268,0,0,1,.07031-.14844.17449.17449,0,0,1,.13672-.05859h1.67383a2.1404,2.1404,0,0,1,1.61914.55957,2.35354,2.35354,0,0,1,.584,1.57031,2.29749,2.29749,0,0,1,.00977.23242,2.61779,2.61779,0,0,1-.53125,1.74414,2.08651,2.08651,0,0,1-1.68164.625H50.07991a.21312.21312,0,0,1-.1543-.05761.1952.1952,0,0,1-.0625-.14942v-.76172a.21.21,0,0,1,.0625-.15332.20538.20538,0,0,1,.1543-.0625h1.5332a.9889.9889,0,0,0,.69141-.24414.9587.9587,0,0,0,.293-.69238c.00586-.05469.00976-.1377.00976-.248a2.37512,2.37512,0,0,0-.00976-.24023.93118.93118,0,0,0-.28516-.69238.99886.99886,0,0,0-.69922-.24415H50.908Z"/></svg>