<svg xmlns="http://www.w3.org/2000/svg" viewBox="0 0 62.81251 83.39762"><defs><style>.a{fill:#d2d2d2;}</style></defs><rect class="a" width="62.8125" height="83.39761"/><path d="M15.19742,11.78608a.19734.19734,0,0,1-.06152-.14941V9.28315a.19736.19736,0,0,1,.06152-.14941.21983.21983,0,0,1,.15332-.05762h1.03613a.19755.19755,0,0,1,.207.207v2.35352a.20546.20546,0,0,1-.05762.14453.1947.1947,0,0,1-.14942.0625H15.35074A.21983.21983,0,0,1,15.19742,11.78608Z"/><path d="M17.60074,13.75a.19736.19736,0,0,1-.06152-.14941V9.28315a.19736.19736,0,0,1,.06152-.14941.21983.21983,0,0,1,.15332-.05762h1.03613a.19755.19755,0,0,1,.207.207v4.31739a.20945.20945,0,0,1-.05762.1455.19734.19734,0,0,1-.14942.06153H17.75406A.21554.21554,0,0,1,17.60074,13.75Z"/><path d="M22.82144,13.746a.20754.20754,0,0,1-.15332.06153H20.00894a.21237.21237,0,0,1-.15332-.05762.19469.19469,0,0,1-.0625-.14941v-.71289a.19117.19117,0,0,1,.0625-.14844.21311.21311,0,0,1,.15332-.0586h1.375l-.07421-1.63183a1.4565,1.4565,0,0,0-.166-.69629.56714.56714,0,0,0-.51367-.21582h-.42285a.21374.21374,0,0,1-.207-.207V9.23335A.21633.21633,0,0,1,20.05875,9.08a.19373.19373,0,0,1,.14844-.06153h.44726a2.17955,2.17955,0,0,1,1.5791.48829,2.26617,2.26617,0,0,1,.53418,1.5664l.1084,2.52735A.17448.17448,0,0,1,22.82144,13.746Z"/><path d="M23.68277,11.78608a.19734.19734,0,0,1-.06152-.14941V9.28315a.19736.19736,0,0,1,.06152-.14941.21984.21984,0,0,1,.15332-.05762h1.03614a.19754.19754,0,0,1,.207.207v2.35352a.20542.20542,0,0,1-.05762.14453.19469.19469,0,0,1-.14941.0625H23.83609A.21984.21984,0,0,1,23.68277,11.78608Z"/><path d="M30.20035,9.582a1.99934,1.99934,0,0,1,.53027,1.51563v2.50293a.20516.20516,0,0,1-.05761.1455.19735.19735,0,0,1-.14942.06153H28.26187a.21015.21015,0,0,1-.207-.207v-.71289a.19373.19373,0,0,1,.06153-.14844.20613.20613,0,0,1,.1455-.0586h1.06836V11.164a.99215.99215,0,0,0-.207-.6709.67642.67642,0,0,0-.53808-.24023h-.64649l-.7041,3.33984a.25868.25868,0,0,1-.06641.15332.19731.19731,0,0,1-.14941.06153h-.95313a.21071.21071,0,0,1-.15332-.06153.16576.16576,0,0,1-.04589-.15332l.8125-3.332H26.132a.19734.19734,0,0,1-.14941-.06152.21983.21983,0,0,1-.05762-.15332v-.7627a.19736.19736,0,0,1,.06152-.14941.20945.20945,0,0,1,.14551-.05762h2.66016A1.95726,1.95726,0,0,1,30.20035,9.582Z"/><path d="M33.30387,13.746a.202.202,0,0,1-.0625-.1455v-.71289a.19449.19449,0,0,1,.0625-.14844.20447.20447,0,0,1,.1455-.0586h2.07911v-1.5332a.82735.82735,0,0,0-.93555-.93652H33.53141a.19373.19373,0,0,1-.14844-.06153.21634.21634,0,0,1-.0586-.15332V9.28315a.19469.19469,0,0,1,.0625-.14941.20712.20712,0,0,1,.14454-.05762h1.10253a2.701,2.701,0,0,1,1.75293.48926,1.93849,1.93849,0,0,1,.5918,1.582v1.5332h.29a.20051.20051,0,0,1,.208.207v.71289a.20609.20609,0,0,1-.0586.1455.1944.1944,0,0,1-.14941.06153H33.44937A.19942.19942,0,0,1,33.30387,13.746Z"/><path d="M42.58512,9.56929a1.91564,1.91564,0,0,1,.57519,1.53711v2.49414a.20513.20513,0,0,1-.05762.1455.19585.19585,0,0,1-.14941.06153h-.97754a.214.214,0,0,1-.15332-.05762.19815.19815,0,0,1-.0625-.14941V11.14741a.83056.83056,0,0,0-.93555-.94433h-.53906a4.99481,4.99481,0,0,0-.124,1.21777l.0664,2.17969a.19812.19812,0,0,1-.0625.14941.21393.21393,0,0,1-.15332.05762L38.255,13.79975a.21469.21469,0,0,1-.15332-.05859.19449.19449,0,0,1-.0625-.14844v-.65527a.19451.19451,0,0,1,.0625-.14844.21469.21469,0,0,1,.15332-.05859h.6709V11.42964a4.45822,4.45822,0,0,1,.125-1.22656h-.48926a.21818.21818,0,0,1-.15332-.05762.19812.19812,0,0,1-.0625-.14942V9.28315a.19812.19812,0,0,1,.0625-.14941.21814.21814,0,0,1,.15332-.05762H40.8732A2.57229,2.57229,0,0,1,42.58512,9.56929Z"/><path d="M44.10953,13.75a.19732.19732,0,0,1-.06152-.14941v-.7627a.21179.21179,0,0,1,.21484-.21484H45.465a.88208.88208,0,0,0,.99414-.93653q.00879-.0996.00879-.249,0-.14062-.00879-.24023a.88208.88208,0,0,0-.99414-.93653H44.26285a.21022.21022,0,0,1-.21484-.21484v-.7627a.19732.19732,0,0,1,.06152-.14941.21983.21983,0,0,1,.15332-.05762H45.506a2.01484,2.01484,0,0,1,2.2959,2.12988c.00489.06055.00782.1377.00782.23145a2.57275,2.57275,0,0,1-.543,1.749,2.22483,2.22483,0,0,1-1.76075.6211H44.26285A.21554.21554,0,0,1,44.10953,13.75Z"/><path d="M8.07535,27.58393a.19731.19731,0,0,1-.06152-.14941V23.11714a.19734.19734,0,0,1,.06152-.14942.21986.21986,0,0,1,.15332-.05761h1.88086a2.51054,2.51054,0,0,1,1.67871.47656,1.95318,1.95318,0,0,1,.55078,1.55371v2.48535a.21343.21343,0,0,1-.21582.21582H8.22867A.21983.21983,0,0,1,8.07535,27.58393ZM11.005,26.5146V24.9814a.83125.83125,0,0,0-.93653-.94434H9.27262V26.5146Z"/><path d="M13.30387,25.61909a.19374.19374,0,0,1-.06153-.14844V23.11714a.19735.19735,0,0,1,.06153-.14942.21986.21986,0,0,1,.15332-.05761h1.03613a.19753.19753,0,0,1,.207.207v2.35351a.20708.20708,0,0,1-.05762.14453.19464.19464,0,0,1-.14941.0625H13.45719A.21633.21633,0,0,1,13.30387,25.61909Z"/><path d="M19.82144,23.415a2.00168,2.00168,0,0,1,.53028,1.5166v2.50293a.2013.2013,0,0,1-.05762.14453.19469.19469,0,0,1-.14941.0625H17.883a.2119.2119,0,0,1-.207-.207v-.71289a.19731.19731,0,0,1,.06152-.14941.20941.20941,0,0,1,.14551-.05762h1.06836V24.998a.99213.99213,0,0,0-.207-.6709.67643.67643,0,0,0-.53809-.24024h-.64648l-.70411,3.33887a.25361.25361,0,0,1-.0664.15332.1947.1947,0,0,1-.14942.0625h-.95312a.20772.20772,0,0,1-.15332-.0625.16426.16426,0,0,1-.0459-.15332L16.3,24.09468h-.54688a.19733.19733,0,0,1-.14941-.06153.22054.22054,0,0,1-.05762-.15429v-.76172a.19735.19735,0,0,1,.06153-.14942.20944.20944,0,0,1,.1455-.05761h2.66016A1.95668,1.95668,0,0,1,19.82144,23.415Z"/><path d="M21.7941,27.18159a2.03225,2.03225,0,0,1-.56348-1.53711V23.11714a.19735.19735,0,0,1,.06153-.14942.21986.21986,0,0,1,.15332-.05761h2.11328a2.397,2.397,0,0,1,1.707.50488,2.14255,2.14255,0,0,1,.57227,1.49219c.00488.05468.00781.18457.00781.38965,0,.21-.00293.34179-.00781.39746a2.15473,2.15473,0,0,1-.59278,1.51269,2.49762,2.49762,0,0,1-1.76074.51758A2.34625,2.34625,0,0,1,21.7941,27.18159Zm2.46484-.8457a.941.941,0,0,0,.23633-.6836c.00586-.05468.00879-.17382.00879-.35546q0-.26514-.00879-.34864a.96223.96223,0,0,0-.249-.6875,1.01677,1.01677,0,0,0-.72852-.22363H22.5148v1.582a.89265.89265,0,0,0,.249.69238,1.01232,1.01232,0,0,0,.71191.22754A1.15706,1.15706,0,0,0,24.25894,26.33589Z"/><path d="M28.4191,25.61909a.19373.19373,0,0,1-.06152-.14844V23.11714a.19734.19734,0,0,1,.06152-.14942.21986.21986,0,0,1,.15332-.05761h1.03613a.19752.19752,0,0,1,.207.207v2.35351a.20712.20712,0,0,1-.05761.14453.19466.19466,0,0,1-.14942.0625H28.57242A.21633.21633,0,0,1,28.4191,25.61909Z"/><path d="M35.1857,27.46772a.17359.17359,0,0,1-.0498.12012.16064.16064,0,0,1-.124.05371H33.99234a.2763.2763,0,0,1-.22363-.0791c-.04395-.05176-.06934-.081-.07422-.08691L32.2443,25.37886a.92712.92712,0,0,0-.28223.45605,2.19072,2.19072,0,0,0-.06641.54688v1.03613a.21786.21786,0,0,1-.06152.16113.20772.20772,0,0,1-.15332.0625h-.8125a.19523.19523,0,0,1-.14551-.0664.22308.22308,0,0,1-.06152-.15723V26.39058a2.90483,2.90483,0,0,1,.19043-1.14356,2.10853,2.10853,0,0,1,.7207-.8291l-.84473-1.21777a.17375.17375,0,0,1-.042-.11622.16994.16994,0,0,1,.05371-.12011.166.166,0,0,1,.12012-.05371h.97852a.27723.27723,0,0,1,.17773.0498.61231.61231,0,0,1,.12012.13184l1.334,1.88965a.73074.73074,0,0,0,.29492-.36426,1.60883,1.60883,0,0,0,.06153-.47266V23.13374a.228.228,0,0,1,.05859-.16211.19373.19373,0,0,1,.14844-.06152h.87012a.19774.19774,0,0,1,.15332.0664.21981.21981,0,0,1,.0625.15723v1.04394a2.18548,2.18548,0,0,1-.21094.96582,1.98394,1.98394,0,0,1-.7666.78223l1.01074,1.42578A.20286.20286,0,0,1,35.1857,27.46772Z"/><path d="M38.36344,27.58393a.19464.19464,0,0,1-.0625-.14941V24.9814a.83086.83086,0,0,0-.93653-.94434H36.10562a.1967.1967,0,0,1-.1455-.0625.19989.19989,0,0,1-.0625-.14453v-.71289a.19814.19814,0,0,1,.0625-.14942.20773.20773,0,0,1,.1455-.05761h1.3086a2.64763,2.64763,0,0,1,1.71972.47168,1.91224,1.91224,0,0,1,.56739,1.5498v2.50293a.2054.2054,0,0,1-.05762.14453.19469.19469,0,0,1-.14941.0625h-.97754A.21814.21814,0,0,1,38.36344,27.58393Z"/><path d="M40.69937,27.58393a.19734.19734,0,0,1-.06152-.14941V23.11714a.19738.19738,0,0,1,.06152-.14942.2199.2199,0,0,1,.15332-.05761h1.95606a2.607,2.607,0,0,1,1.73633.48437,2.01474,2.01474,0,0,1,.55859,1.5957v2.44434a.2054.2054,0,0,1-.05762.14453.19468.19468,0,0,1-.14941.0625H43.9191a.21816.21816,0,0,1-.15332-.05762.1981.1981,0,0,1-.0625-.14941V24.9814a.83086.83086,0,0,0-.93652-.94434h-.72852v3.39746a.20222.20222,0,0,1-.05859.14453.19119.19119,0,0,1-.14844.0625h-.97852A.21986.21986,0,0,1,40.69937,27.58393Z"/><path d="M50.466,27.46772a.1736.1736,0,0,1-.04981.12012.16062.16062,0,0,1-.124.05371H49.27262a.27632.27632,0,0,1-.22364-.0791c-.04394-.05176-.06933-.081-.07422-.08691l-1.45019-2.09668a.92726.92726,0,0,0-.28223.45605,2.19119,2.19119,0,0,0-.0664.54688v1.03613a.21787.21787,0,0,1-.06153.16113.20772.20772,0,0,1-.15332.0625h-.8125a.19525.19525,0,0,1-.14551-.0664.22308.22308,0,0,1-.06152-.15723V26.39058A2.905,2.905,0,0,1,46.132,25.247a2.10853,2.10853,0,0,1,.7207-.8291L46.008,23.20015a.17375.17375,0,0,1-.042-.11622.1699.1699,0,0,1,.05371-.12011.166.166,0,0,1,.12011-.05371h.97852a.27719.27719,0,0,1,.17773.0498.61206.61206,0,0,1,.12012.13184l1.334,1.88965a.73084.73084,0,0,0,.29492-.36426,1.60918,1.60918,0,0,0,.06152-.47266V23.13374a.228.228,0,0,1,.05859-.16211.19373.19373,0,0,1,.14844-.06152h.87012a.19774.19774,0,0,1,.15332.0664.21981.21981,0,0,1,.0625.15723v1.04394a2.18534,2.18534,0,0,1-.21094.96582,1.98387,1.98387,0,0,1-.7666.78223l1.01074,1.42578A.20287.20287,0,0,1,50.466,27.46772Z"/><path d="M54.50113,23.42768a2.25161,2.25161,0,0,1,.47266,1.5625,2.43606,2.43606,0,0,1-.62207,1.72364,3.309,3.309,0,0,1-1.55762.93652l-.33984.09863a.159.159,0,0,1-.15332-.05761.23744.23744,0,0,1-.07032-.166v-.83691a.23992.23992,0,0,1,.05762-.15332.41112.41112,0,0,1,.14942-.11133l.26562-.1084a1.33045,1.33045,0,0,0,.60059-.44336,1.38412,1.38412,0,0,0,.21972-.84082,1.1147,1.1147,0,0,0-.18261-.72949.884.884,0,0,0-.67969-.207h-.21485l-1.11035-.00782a.199.199,0,0,1-.207-.208V21.96479a.19375.19375,0,0,1,.06152-.14843.20613.20613,0,0,1,.14551-.0586h.89453a.199.199,0,0,1,.207.207v.94532h.51367A2.01266,2.01266,0,0,1,54.50113,23.42768Z"/><path d="M22.00992,37.23628a1.917,1.917,0,0,1,.5752,1.53711V41.2685a.20294.20294,0,0,1-.05762.14454.19326.19326,0,0,1-.14942.0625h-.97753a.2147.2147,0,0,1-.15332-.0586.19449.19449,0,0,1-.0625-.14844V38.81538a.83057.83057,0,0,0-.93555-.94434h-.53906a4.98477,4.98477,0,0,0-.124,1.21778l.06641,2.17968a.19453.19453,0,0,1-.0625.14844.21472.21472,0,0,1-.15332.0586l-1.75684-.00879a.21817.21817,0,0,1-.15332-.05762.19815.19815,0,0,1-.0625-.14941v-.6543a.19818.19818,0,0,1,.0625-.14942.21821.21821,0,0,1,.15332-.05761h.6709V39.09663a4.45555,4.45555,0,0,1,.125-1.22559h-.48926a.21473.21473,0,0,1-.15332-.05859.19519.19519,0,0,1-.0625-.14941v-.71192a.19665.19665,0,0,1,.0625-.14941.214.214,0,0,1,.15332-.05762H20.298A2.57763,2.57763,0,0,1,22.00992,37.23628Z"/><path d="M23.58414,41.41694a.19372.19372,0,0,1-.06152-.14844V36.95112a.19585.19585,0,0,1,.06152-.14941.21554.21554,0,0,1,.15332-.05762h1.03613a.20167.20167,0,0,1,.14942.05762.204.204,0,0,1,.05761.14941V41.2685a.20716.20716,0,0,1-.05761.14454.19471.19471,0,0,1-.14942.0625H23.73746A.21634.21634,0,0,1,23.58414,41.41694Z"/><path d="M27.04312,38.2187c.01172.22656.07715.35938.19922.39746l.23242.083a.19652.19652,0,0,1,.10352.0957.3264.3264,0,0,1,.03711.15332l.00781.42188a.21991.21991,0,0,1-.11133.19531.41541.41541,0,0,1-.26953.05371l-.33984-.0498a1.05262,1.05262,0,0,1-.71289-.46,1.66,1.66,0,0,1-.28125-.99024v-1.168a.285.285,0,0,1,.07031-.14941.17651.17651,0,0,1,.13672-.05762h1.67383a2.14249,2.14249,0,0,1,1.62011.55859,2.35843,2.35843,0,0,1,.584,1.57032c.00586.05566.00879.13281.00879.23242a2.621,2.621,0,0,1-.53028,1.74414,2.09042,2.09042,0,0,1-1.68261.626H26.215a.2131.2131,0,0,1-.15332-.0586.19117.19117,0,0,1-.0625-.14844v-.76269A.21343.21343,0,0,1,26.215,40.29h1.5332a.98894.98894,0,0,0,.69141-.24414.96322.96322,0,0,0,.29394-.69238c.00586-.05469.00879-.1377.00879-.248q0-.15821-.00879-.24024a.93856.93856,0,0,0-.28515-.69238,1.00141,1.00141,0,0,0-.7002-.24414h-.70508Z"/><path d="M30.87613,41.41694a.19375.19375,0,0,1-.06152-.14844V36.95112a.19588.19588,0,0,1,.06152-.14941.21556.21556,0,0,1,.15332-.05762h1.03613a.20166.20166,0,0,1,.14942.05762.204.204,0,0,1,.05762.14941V41.2685a.20717.20717,0,0,1-.05762.14454.1947.1947,0,0,1-.14942.0625H31.02945A.21636.21636,0,0,1,30.87613,41.41694Z"/><path d="M35.55777,41.41694a.19117.19117,0,0,1-.0625-.14844V38.81538a.83086.83086,0,0,0-.93652-.94434H33.3a.21364.21364,0,0,1-.208-.208v-.71192a.19665.19665,0,0,1,.0625-.14941A.20358.20358,0,0,1,33.3,36.74409h1.30859a2.64772,2.64772,0,0,1,1.71973.47168,1.91224,1.91224,0,0,1,.56738,1.54981V41.2685a.20716.20716,0,0,1-.05761.14454.19471.19471,0,0,1-.14942.0625h-.97754A.21473.21473,0,0,1,35.55777,41.41694Z"/><path d="M42.23746,37.23628a1.917,1.917,0,0,1,.5752,1.53711V41.2685a.20294.20294,0,0,1-.05762.14454.19326.19326,0,0,1-.14942.0625h-.97754a.21473.21473,0,0,1-.15332-.0586.19453.19453,0,0,1-.0625-.14844V38.81538a.83056.83056,0,0,0-.93554-.94434h-.53906a4.98477,4.98477,0,0,0-.124,1.21778L39.88,41.2685a.19453.19453,0,0,1-.0625.14844.21473.21473,0,0,1-.15332.0586l-1.75684-.00879a.21816.21816,0,0,1-.15332-.05762.19815.19815,0,0,1-.0625-.14941v-.6543a.19818.19818,0,0,1,.0625-.14942.21819.21819,0,0,1,.15332-.05761h.6709V39.09663a4.45555,4.45555,0,0,1,.125-1.22559H38.214a.21473.21473,0,0,1-.15332-.05859.19519.19519,0,0,1-.0625-.14941v-.71192a.19665.19665,0,0,1,.0625-.14941.214.214,0,0,1,.15332-.05762h2.31153A2.57765,2.57765,0,0,1,42.23746,37.23628Z"/><path d="M43.81168,41.41694a.19372.19372,0,0,1-.06152-.14844V36.95112a.19585.19585,0,0,1,.06152-.14941.21554.21554,0,0,1,.15332-.05762h1.03613a.20167.20167,0,0,1,.14942.05762.204.204,0,0,1,.05761.14941V41.2685a.20716.20716,0,0,1-.05761.14454.19471.19471,0,0,1-.14942.0625H43.965A.21634.21634,0,0,1,43.81168,41.41694Z"/><path d="M13.51578,51.07026a1.91564,1.91564,0,0,1,.5752,1.53711v2.49414a.20517.20517,0,0,1-.05762.14551.19585.19585,0,0,1-.14942.06152h-.97753a.214.214,0,0,1-.15333-.05761.19668.19668,0,0,1-.0625-.14942V52.64839a.831.831,0,0,0-.93554-.94434H11.216a4.99493,4.99493,0,0,0-.124,1.21778l.06641,2.17968a.19668.19668,0,0,1-.0625.14942.214.214,0,0,1-.15332.05761L9.1857,55.30073a.21473.21473,0,0,1-.15332-.05859.19454.19454,0,0,1-.0625-.14844v-.65527a.19454.19454,0,0,1,.0625-.14844.21473.21473,0,0,1,.15332-.05859h.6709V52.93061a4.45869,4.45869,0,0,1,.125-1.22656H9.49234a.21817.21817,0,0,1-.15332-.05762.19814.19814,0,0,1-.0625-.14941v-.71289a.19814.19814,0,0,1,.0625-.14941.21817.21817,0,0,1,.15332-.05762h2.31153A2.5777,2.5777,0,0,1,13.51578,51.07026Z"/><path d="M15.09,55.25093a.19587.19587,0,0,1-.06152-.14942V50.78413a.19731.19731,0,0,1,.06152-.14941.21983.21983,0,0,1,.15332-.05762h1.03613a.19753.19753,0,0,1,.207.207v4.31738a.20945.20945,0,0,1-.05761.14551.19734.19734,0,0,1-.14942.06152H15.24332A.21553.21553,0,0,1,15.09,55.25093Z"/><path d="M17.49234,53.28706a.19588.19588,0,0,1-.06152-.14941V50.78413a.19734.19734,0,0,1,.06152-.14941.21984.21984,0,0,1,.15332-.05762H18.6818a.19754.19754,0,0,1,.207.207v2.35352a.20941.20941,0,0,1-.05762.1455.19733.19733,0,0,1-.14941.06153H17.64566A.21556.21556,0,0,1,17.49234,53.28706Z"/><path d="M20.9191,52.05268c.01172.22657.07715.3584.19922.39747l.23242.083a.19454.19454,0,0,1,.10352.09473.32923.32923,0,0,1,.03711.15332l.00781.42285a.2184.2184,0,0,1-.11133.19434.40968.40968,0,0,1-.26953.05469l-.33984-.04981a1.05594,1.05594,0,0,1-.7129-.46,1.662,1.662,0,0,1-.28125-.99023v-1.169a.28855.28855,0,0,1,.07032-.14941.17985.17985,0,0,1,.13672-.05762h1.67382a2.14277,2.14277,0,0,1,1.62012.55957,2.35845,2.35845,0,0,1,.584,1.57031c.00586.05469.00878.13281.00878.23242a2.62278,2.62278,0,0,1-.53027,1.74414,2.09,2.09,0,0,1-1.68262.625H20.091a.21233.21233,0,0,1-.15332-.05761.19324.19324,0,0,1-.0625-.14942v-.76172A.21343.21343,0,0,1,20.091,54.124h1.5332a.98886.98886,0,0,0,.6914-.24414.96319.96319,0,0,0,.29395-.69238c.00586-.05469.00879-.1377.00879-.248,0-.10547-.00293-.18554-.00879-.24121a.93788.93788,0,0,0-.28516-.6914,1.00189,1.00189,0,0,0-.70019-.24512H20.9191Z"/><path d="M26.9318,55.25093a.19324.19324,0,0,1-.0625-.14942V52.64839a.83125.83125,0,0,0-.93653-.94434H24.674a.19945.19945,0,0,1-.1455-.06152.20205.20205,0,0,1-.0625-.14551v-.71289a.1981.1981,0,0,1,.0625-.14941.20769.20769,0,0,1,.1455-.05762h1.3086a2.6419,2.6419,0,0,1,1.71972.47265,1.90961,1.90961,0,0,1,.56739,1.54981v2.502a.20941.20941,0,0,1-.05762.14551.19732.19732,0,0,1-.14941.06152h-.97754A.21392.21392,0,0,1,26.9318,55.25093Z"/><path d="M33.61051,51.07026a1.91564,1.91564,0,0,1,.57519,1.53711v2.49414a.20513.20513,0,0,1-.05762.14551.19585.19585,0,0,1-.14941.06152h-.97754a.21394.21394,0,0,1-.15332-.05761.19668.19668,0,0,1-.0625-.14942V52.64839a.831.831,0,0,0-.93555-.94434H31.3107a4.99494,4.99494,0,0,0-.124,1.21778l.0664,2.17968a.19664.19664,0,0,1-.0625.14942.21392.21392,0,0,1-.15332.05761l-1.75683-.00781a.21469.21469,0,0,1-.15332-.05859.19451.19451,0,0,1-.0625-.14844v-.65527a.19451.19451,0,0,1,.0625-.14844.21469.21469,0,0,1,.15332-.05859h.6709V52.93061a4.45831,4.45831,0,0,1,.125-1.22656h-.48926a.21814.21814,0,0,1-.15332-.05762.1981.1981,0,0,1-.0625-.14941v-.71289a.1981.1981,0,0,1,.0625-.14941.21814.21814,0,0,1,.15332-.05762h2.31152A2.57771,2.57771,0,0,1,33.61051,51.07026Z"/><path d="M35.18473,55.25093a.19588.19588,0,0,1-.06153-.14942V50.78413a.19731.19731,0,0,1,.06153-.14941.21983.21983,0,0,1,.15332-.05762h1.03613a.19754.19754,0,0,1,.207.207v4.31738a.20941.20941,0,0,1-.05762.14551.19731.19731,0,0,1-.14941.06152H35.33805A.21553.21553,0,0,1,35.18473,55.25093Z"/><path d="M37.57144,55.25093a.1959.1959,0,0,1-.06152-.14942v-.76172a.21182.21182,0,0,1,.21484-.21582h1.20215a.88207.88207,0,0,0,.99414-.93652c.00586-.06641.00879-.14941.00879-.248,0-.09472-.00293-.1748-.00879-.24121a.88207.88207,0,0,0-.99414-.93652H37.72476a.21022.21022,0,0,1-.21484-.21484v-.7627a.19734.19734,0,0,1,.06152-.14941.21986.21986,0,0,1,.15332-.05762h1.24317a2.01484,2.01484,0,0,1,2.2959,2.12988c.00488.06055.00781.1377.00781.23242a2.57,2.57,0,0,1-.543,1.748,2.22484,2.22484,0,0,1-1.76074.62109H37.72476A.21557.21557,0,0,1,37.57144,55.25093Z"/><path d="M42.11246,53.28706a.19585.19585,0,0,1-.06152-.14941V50.78413a.19731.19731,0,0,1,.06152-.14941.21983.21983,0,0,1,.15332-.05762h1.03613a.19753.19753,0,0,1,.207.207v2.35352a.20944.20944,0,0,1-.05761.1455.19735.19735,0,0,1-.14942.06153H42.26578A.21554.21554,0,0,1,42.11246,53.28706Z"/><path d="M44.967,54.84858a2.03229,2.03229,0,0,1-.56347-1.53711V50.78413a.19731.19731,0,0,1,.06152-.14941.21983.21983,0,0,1,.15332-.05762H46.7316a2.39692,2.39692,0,0,1,1.707.50586,2.14,2.14,0,0,1,.57227,1.49121c.00488.05566.00781.18555.00781.38965,0,.21-.00293.34277-.00781.39746a2.15473,2.15473,0,0,1-.59278,1.51269,2.4976,2.4976,0,0,1-1.76074.51758A2.34625,2.34625,0,0,1,44.967,54.84858Zm2.46485-.84472a.94446.94446,0,0,0,.23632-.6836c.00586-.05566.00879-.17383.00879-.35644,0-.17676-.00293-.293-.00879-.34766a.96479.96479,0,0,0-.249-.68848,1.02126,1.02126,0,0,0-.72852-.22363H45.68766v1.583a.89039.89039,0,0,0,.249.69141,1.01263,1.01263,0,0,0,.71191.22851A1.15711,1.15711,0,0,0,47.4318,54.00386Z"/><path d="M50.90836,52.05268c.01172.22657.07715.3584.19922.39747l.23242.083a.19456.19456,0,0,1,.10351.09473.32911.32911,0,0,1,.03711.15332l.00782.42285a.2184.2184,0,0,1-.11133.19434.4097.4097,0,0,1-.26953.05469l-.33985-.04981a1.05592,1.05592,0,0,1-.71289-.46,1.662,1.662,0,0,1-.28125-.99023v-1.169a.28848.28848,0,0,1,.07032-.14941.17984.17984,0,0,1,.13671-.05762h1.67383a2.1428,2.1428,0,0,1,1.62012.55957,2.35844,2.35844,0,0,1,.584,1.57031c.00586.05469.00879.13281.00879.23242a2.62278,2.62278,0,0,1-.53027,1.74414,2.09,2.09,0,0,1-1.68262.625H50.08023a.21236.21236,0,0,1-.15332-.05761.19327.19327,0,0,1-.0625-.14942v-.76172a.21343.21343,0,0,1,.21582-.21582h1.53321a.98886.98886,0,0,0,.6914-.24414.96319.96319,0,0,0,.294-.69238c.00586-.05469.00879-.1377.00879-.248,0-.10547-.00293-.18554-.00879-.24121a.93788.93788,0,0,0-.28516-.6914,1.00191,1.00191,0,0,0-.70019-.24512h-.70508Z"/><path d="M20.50894,67.121a.19734.19734,0,0,1-.06152-.14941V64.61811a.19736.19736,0,0,1,.06152-.14941.21986.21986,0,0,1,.15332-.05762H21.6984a.19754.19754,0,0,1,.207.207v2.35352a.2054.2054,0,0,1-.05762.14453.19469.19469,0,0,1-.14941.0625H20.66226A.21986.21986,0,0,1,20.50894,67.121Z"/><path d="M27.14762,64.90425a1.91429,1.91429,0,0,1,.57519,1.53711V68.9355a.20127.20127,0,0,1-.05762.14453.19325.19325,0,0,1-.14941.0625h-.97754a.21816.21816,0,0,1-.15332-.05762.19815.19815,0,0,1-.0625-.14941V66.48237a.83056.83056,0,0,0-.93555-.94433h-.53906a4.99481,4.99481,0,0,0-.124,1.21777l.0664,2.17969a.19812.19812,0,0,1-.0625.14941.21814.21814,0,0,1-.15332.05762l-1.75683-.00781a.2147.2147,0,0,1-.15332-.0586.19449.19449,0,0,1-.0625-.14844v-.65527a.1981.1981,0,0,1,.0625-.14941.21814.21814,0,0,1,.15332-.05762h.6709V66.7646a4.45822,4.45822,0,0,1,.125-1.22656h-.48926a.21818.21818,0,0,1-.15332-.05762.19812.19812,0,0,1-.0625-.14942v-.71289a.19812.19812,0,0,1,.0625-.14941.21814.21814,0,0,1,.15332-.05762H25.4357A2.57235,2.57235,0,0,1,27.14762,64.90425Z"/><path d="M32.35465,64.4687a.20164.20164,0,0,1,.05761.14941V65.331a.20293.20293,0,0,1-.05761.14454.19471.19471,0,0,1-.14942.0625h-.38086a1.26881,1.26881,0,0,0-.15332.42285,2.9467,2.9467,0,0,0-.05371.58789v2.41211a.15508.15508,0,0,1-.0791.12793.28163.28163,0,0,1-.16113.05371h-.96973a.17131.17131,0,0,1-.18262-.18164V66.458a1.79122,1.79122,0,0,1,.166-.91992H28.50113a.21374.21374,0,0,1-.207-.207v-.71289a.19469.19469,0,0,1,.0625-.14941.2071.2071,0,0,1,.14453-.05762h3.7041A.20553.20553,0,0,1,32.35465,64.4687Z"/><path d="M33.19547,67.121a.19731.19731,0,0,1-.06153-.14941V64.61811a.19733.19733,0,0,1,.06153-.14941.21983.21983,0,0,1,.15332-.05762h1.03613a.19754.19754,0,0,1,.207.207v2.35352a.2054.2054,0,0,1-.05762.14453.19468.19468,0,0,1-.14941.0625H33.34879A.21983.21983,0,0,1,33.19547,67.121Z"/><path d="M35.59879,69.08491a.19733.19733,0,0,1-.06153-.14941V64.61811a.19733.19733,0,0,1,.06153-.14941.21983.21983,0,0,1,.15332-.05762h1.956a2.607,2.607,0,0,1,1.73633.48438,2.01474,2.01474,0,0,1,.55859,1.5957V68.9355a.20545.20545,0,0,1-.05761.14453.1947.1947,0,0,1-.14942.0625h-.97754a.21817.21817,0,0,1-.15332-.05762.19815.19815,0,0,1-.0625-.14941V66.48237a.83085.83085,0,0,0-.93652-.94433h-.72851V68.9355a.20225.20225,0,0,1-.0586.14453.19117.19117,0,0,1-.14844.0625h-.97851A.21983.21983,0,0,1,35.59879,69.08491Z"/><path d="M40.96891,67.121a.19731.19731,0,0,1-.06153-.14941V64.61811a.19733.19733,0,0,1,.06153-.14941.21983.21983,0,0,1,.15332-.05762h1.03613a.19754.19754,0,0,1,.207.207v2.35352a.2054.2054,0,0,1-.05762.14453.19468.19468,0,0,1-.14941.0625H41.12223A.21983.21983,0,0,1,40.96891,67.121Z"/></svg>