<svg xmlns="http://www.w3.org/2000/svg" viewBox="0 0 77.80559 36.04194"><defs><style>.a{fill:#fff;}.b{fill:#2d2a28;}</style></defs><rect class="a" x="0.00001" y="0.00002" width="77.80557" height="36.04191"/><path class="b" d="M23.20832,9.33538a2.251,2.251,0,0,1,.47266,1.562,2.43363,2.43363,0,0,1-.62207,1.72364,3.29738,3.29738,0,0,1-1.55762.93652l-.33984.09912a.16.16,0,0,1-.15332-.05762.23656.23656,0,0,1-.07032-.166v-.83692a.23893.23893,0,0,1,.05762-.15332.418.418,0,0,1,.14941-.11181l.26563-.10791a1.33665,1.33665,0,0,0,.60059-.44288,1.3867,1.3867,0,0,0,.21972-.8413,1.11137,1.11137,0,0,0-.18261-.729.88209.88209,0,0,0-.67969-.20752h-.21485l-1.11035-.00781a.199.199,0,0,1-.207-.20752V7.873a.1959.1959,0,0,1,.06152-.14942.2078.2078,0,0,1,.14551-.0581h.89453a.19826.19826,0,0,1,.207.20752V8.8178h.51368A2.01082,2.01082,0,0,1,23.20832,9.33538Z"/><path class="b" d="M28.73567,8.87542a.20237.20237,0,0,1,.05859.14941v2.45264a1.80248,1.80248,0,0,1-.57227,1.36328,3.04077,3.04077,0,0,1-1.60742.7251l-2.12109.44727a.19093.19093,0,0,1-.16211-.041.18593.18593,0,0,1-.07031-.14941V13.102a.21481.21481,0,0,1,.05371-.14551.243.243,0,0,1,.13672-.07861l.91992-.22363-.97754-3.50537a1.00058,1.00058,0,0,1-.042-.16553.159.159,0,0,1,.0498-.11621.1612.1612,0,0,1,.11621-.04932H25.595a.19816.19816,0,0,1,.124.03711.17808.17808,0,0,1,.06641.08692l.8291,3.38916a1.13949,1.13949,0,0,0,.61328-.46827,1.63248,1.63248,0,0,0,.166-.79931V9.02483a.19754.19754,0,0,1,.207-.207h.98535A.20055.20055,0,0,1,28.73567,8.87542Z"/><path class="b" d="M34.56086,13.49114a.20357.20357,0,0,1-.05762-.14892V10.88909a.83124.83124,0,0,0-.93652-.94433H31.67707a.21808.21808,0,0,1-.15332-.05811.19588.19588,0,0,1-.06152-.14941V9.02483a.19736.19736,0,0,1,.06152-.14941.21768.21768,0,0,1,.15332-.05762h1.93067a2.54135,2.54135,0,0,1,1.71972.50537,1.9886,1.9886,0,0,1,.57617,1.57422v2.44483a.19289.19289,0,0,1-.0625.14892.21637.21637,0,0,1-.15332.05811h-.97754A.2039.2039,0,0,1,34.56086,13.49114Zm-3.03711,0a.19554.19554,0,0,1-.06152-.14892V10.92229a.19554.19554,0,0,1,.06152-.14892.218.218,0,0,1,.15332-.05811h.97852a.19971.19971,0,0,1,.207.207v2.41993a.205.205,0,0,1-.0586.145.19244.19244,0,0,1-.14843.062h-.97852A.218.218,0,0,1,31.52375,13.49114Z"/><path class="b" d="M39.02375,13.49114a.19292.19292,0,0,1-.0625-.14892V10.88909a.83085.83085,0,0,0-.93652-.94433H36.76594a.21366.21366,0,0,1-.208-.20752V9.02483a.19815.19815,0,0,1,.0625-.14941.20564.20564,0,0,1,.14551-.05762h1.30859A2.64479,2.64479,0,0,1,39.79426,9.29a1.91047,1.91047,0,0,1,.56738,1.54932v2.50293a.20828.20828,0,0,1-.05762.145.196.196,0,0,1-.14941.062h-.97754A.21639.21639,0,0,1,39.02375,13.49114Z"/><path class="b" d="M44.3968,13.49114a.20357.20357,0,0,1-.05762-.14892V10.88909a.83124.83124,0,0,0-.93652-.94433H41.513a.21808.21808,0,0,1-.15332-.05811.19585.19585,0,0,1-.06152-.14941V9.02483a.19732.19732,0,0,1,.06152-.14941A.21768.21768,0,0,1,41.513,8.8178h1.93066a2.54137,2.54137,0,0,1,1.71973.50537,1.9886,1.9886,0,0,1,.57617,1.57422v2.44483a.19292.19292,0,0,1-.0625.14892.21637.21637,0,0,1-.15332.05811h-.97754A.2039.2039,0,0,1,44.3968,13.49114Zm-3.03711,0a.19551.19551,0,0,1-.06152-.14892V10.92229a.19551.19551,0,0,1,.06152-.14892.218.218,0,0,1,.15332-.05811h.97851a.19971.19971,0,0,1,.207.207v2.41993a.205.205,0,0,1-.0586.145.19244.19244,0,0,1-.14844.062H41.513A.218.218,0,0,1,41.35969,13.49114Z"/><path class="b" d="M50.42219,10.76067a2.03679,2.03679,0,0,1-.72949.75l.64648.88672a.82544.82544,0,0,1,.07813.12451.33006.33006,0,0,1,.02929.14893v.67139a.20831.20831,0,0,1-.05761.145.196.196,0,0,1-.14942.062H46.87531a.211.211,0,0,1-.207-.207v-.7378a.19552.19552,0,0,1,.06153-.14892.20772.20772,0,0,1,.1455-.05811h1.94727L46.41145,9.11565a.28.28,0,0,1-.04981-.13232.14857.14857,0,0,1,.05371-.12012.19177.19177,0,0,1,.12793-.04541H47.5716a.30384.30384,0,0,1,.26465.14893L48.99641,10.558a1.31052,1.31052,0,0,0,.38086-1.05274V9.04144a.2205.2205,0,0,1,.0625-.16163.20764.20764,0,0,1,.15332-.062h.87011a.1947.1947,0,0,1,.14551.06592.22419.22419,0,0,1,.06153.15772v.7124A2.0592,2.0592,0,0,1,50.42219,10.76067Z"/><path class="b" d="M54.65559,13.49114a.20357.20357,0,0,1-.05762-.14892V10.88909a.83124.83124,0,0,0-.93652-.94433H51.7718a.21808.21808,0,0,1-.15332-.05811.19585.19585,0,0,1-.06153-.14941V9.02483a.19733.19733,0,0,1,.06153-.14941.21768.21768,0,0,1,.15332-.05762h1.93066a2.54137,2.54137,0,0,1,1.71973.50537,1.9886,1.9886,0,0,1,.57617,1.57422v2.44483a.19292.19292,0,0,1-.0625.14892.21639.21639,0,0,1-.15332.05811H54.805A.20389.20389,0,0,1,54.65559,13.49114Zm-3.03711,0a.19552.19552,0,0,1-.06153-.14892V10.92229a.19552.19552,0,0,1,.06153-.14892.218.218,0,0,1,.15332-.05811h.97851a.1997.1997,0,0,1,.207.207v2.41993a.205.205,0,0,1-.05859.145.19244.19244,0,0,1-.14844.062H51.7718A.218.218,0,0,1,51.61848,13.49114Z"/><path class="b" d="M15.43586,28.35247a.19552.19552,0,0,1-.06152-.14893V22.85833a.19553.19553,0,0,1,.06152-.14893.21807.21807,0,0,1,.15332-.0581h.97852a.1997.1997,0,0,1,.207.207v5.34521a.19971.19971,0,0,1-.207.207h-.97852A.21808.21808,0,0,1,15.43586,28.35247Z"/><path class="b" d="M17.78938,25.36077a.19406.19406,0,0,1-.06153-.14892V22.85833a.19554.19554,0,0,1,.06153-.14893.21807.21807,0,0,1,.15332-.0581h1.03613a.19824.19824,0,0,1,.207.207v2.35352a.20828.20828,0,0,1-.05762.145.196.196,0,0,1-.14941.062H17.9427A.21594.21594,0,0,1,17.78938,25.36077Z"/><path class="b" d="M21.21613,24.1264c.01172.22656.07715.35937.19922.39746l.23242.083a.1955.1955,0,0,1,.10352.09521.32923.32923,0,0,1,.03711.15332l.00781.42285a.21971.21971,0,0,1-.11133.19483.41242.41242,0,0,1-.26953.05371l-.33984-.04981a1.05255,1.05255,0,0,1-.71289-.46,1.66,1.66,0,0,1-.28125-.99023V22.85833a.28518.28518,0,0,1,.07031-.14893.17859.17859,0,0,1,.13672-.0581h1.67383a2.1445,2.1445,0,0,1,1.62011.55908,2.35842,2.35842,0,0,1,.584,1.57031c.00586.05567.00879.13282.00879.23243a2.62193,2.62193,0,0,1-.53028,1.74414,2.09041,2.09041,0,0,1-1.68261.626H20.388a.21479.21479,0,0,1-.15332-.0581.19327.19327,0,0,1-.0625-.14942v-.7622a.21264.21264,0,0,1,.21582-.21534h1.5332a.9892.9892,0,0,0,.69141-.24463.96289.96289,0,0,0,.29394-.69189c.00586-.05518.00879-.13818.00879-.24853q0-.15749-.00879-.24024a.93935.93935,0,0,0-.28515-.69238,1.00362,1.00362,0,0,0-.7002-.24414h-.70508Z"/><path class="b" d="M27.22785,27.32513a.19327.19327,0,0,1-.0625-.14942V24.72308a.83121.83121,0,0,0-.93652-.94483H24.97a.19809.19809,0,0,1-.14551-.062.201.201,0,0,1-.0625-.145v-.71289a.19635.19635,0,0,1,.0625-.14893.20611.20611,0,0,1,.14551-.0581h1.30859a2.6476,2.6476,0,0,1,1.71973.47217,1.9109,1.9109,0,0,1,.56738,1.5498v2.50244a.20828.20828,0,0,1-.05761.145.19639.19639,0,0,1-.14942.0625h-.97754A.21644.21644,0,0,1,27.22785,27.32513Z"/><path class="b" d="M29.56477,27.32513a.19588.19588,0,0,1-.06153-.14942V22.85833a.19554.19554,0,0,1,.06153-.14893.21807.21807,0,0,1,.15332-.0581h1.03613a.19824.19824,0,0,1,.207.207v4.31738a.20825.20825,0,0,1-.05762.145.19635.19635,0,0,1-.14941.0625H29.71809A.21807.21807,0,0,1,29.56477,27.32513Z"/><path class="b" d="M36.11457,23.15667a2.00168,2.00168,0,0,1,.53027,1.5166v2.50244a.204.204,0,0,1-.05761.145.19638.19638,0,0,1-.14942.0625H34.17609a.2119.2119,0,0,1-.207-.20752v-.7124a.19659.19659,0,0,1,.06153-.14941.20724.20724,0,0,1,.1455-.05762h1.06836v-1.5166a.99352.99352,0,0,0-.207-.67139.67639.67639,0,0,0-.53808-.24023h-.64649l-.7041,3.33935a.25609.25609,0,0,1-.06641.15332.19635.19635,0,0,1-.14941.0625h-.95312a.20958.20958,0,0,1-.15332-.0625.165.165,0,0,1-.0459-.15332l.8125-3.33105h-.54688a.19469.19469,0,0,1-.14941-.0625.21734.21734,0,0,1-.05762-.15332v-.76221a.19557.19557,0,0,1,.06152-.14893.2078.2078,0,0,1,.14551-.0581h2.66016A1.957,1.957,0,0,1,36.11457,23.15667Z"/><path class="b" d="M43.71809,23.14446a1.915,1.915,0,0,1,.57519,1.53711v2.49414a.204.204,0,0,1-.05761.145.19494.19494,0,0,1-.14942.0625h-.97754a.21644.21644,0,0,1-.15332-.0581.19668.19668,0,0,1-.0625-.14942V24.72308a.83091.83091,0,0,0-.93555-.94483h-.53906a4.99184,4.99184,0,0,0-.124,1.21826l.06641,2.1792a.19668.19668,0,0,1-.0625.14942.21645.21645,0,0,1-.15333.0581L39.388,27.37444a.216.216,0,0,1-.15332-.05761.19664.19664,0,0,1-.0625-.14942v-.65429a.19664.19664,0,0,1,.0625-.14942.21641.21641,0,0,1,.15332-.0581h.6709V25.00481a4.46074,4.46074,0,0,1,.125-1.22656h-.48926a.2143.2143,0,0,1-.15332-.0581.19557.19557,0,0,1-.0625-.14893v-.71289a.19632.19632,0,0,1,.0625-.14893.21641.21641,0,0,1,.15332-.0581h2.31152A2.575,2.575,0,0,1,43.71809,23.14446Z"/><path class="b" d="M45.2425,27.32513a.1959.1959,0,0,1-.06152-.14942v-.7622a.211.211,0,0,1,.21484-.21534H46.598a.88185.88185,0,0,0,.99414-.93652c.00586-.06641.00879-.14893.00879-.24853,0-.09375-.00293-.17432-.00879-.24024a.88185.88185,0,0,0-.99414-.93652H45.39582a.21182.21182,0,0,1-.21484-.21582v-.76221a.19557.19557,0,0,1,.06152-.14893.21807.21807,0,0,1,.15332-.0581H46.639a2.01472,2.01472,0,0,1,2.29589,2.12939c.00489.061.00782.13868.00782.23243a2.57225,2.57225,0,0,1-.543,1.74853,2.225,2.225,0,0,1-1.76074.62158H45.39582A.21807.21807,0,0,1,45.2425,27.32513Z"/><path class="b" d="M49.78352,25.36077a.19406.19406,0,0,1-.06153-.14892V22.85833a.19554.19554,0,0,1,.06153-.14893.21807.21807,0,0,1,.15332-.0581H50.973a.19824.19824,0,0,1,.207.207v2.35352a.20828.20828,0,0,1-.05762.145.196.196,0,0,1-.14941.062H49.93684A.21594.21594,0,0,1,49.78352,25.36077Z"/><path class="b" d="M54.43293,27.32513a.19327.19327,0,0,1-.0625-.14942V24.72308a.83121.83121,0,0,0-.93652-.94483H52.17512a.19808.19808,0,0,1-.14551-.062.201.201,0,0,1-.0625-.145v-.71289a.19632.19632,0,0,1,.0625-.14893.20609.20609,0,0,1,.14551-.0581h1.30859a2.6476,2.6476,0,0,1,1.71973.47217,1.9109,1.9109,0,0,1,.56738,1.5498v2.50244a.20825.20825,0,0,1-.05762.145.19635.19635,0,0,1-.14941.0625h-.97754A.21643.21643,0,0,1,54.43293,27.32513Z"/><path class="b" d="M60.46125,24.59466a2.03549,2.03549,0,0,1-.72949.74951l.64648.88672a.84834.84834,0,0,1,.07813.12451.33.33,0,0,1,.0293.14893v.67138a.20829.20829,0,0,1-.05762.145.19638.19638,0,0,1-.14942.0625H56.91438a.2119.2119,0,0,1-.207-.20752v-.7373a.19588.19588,0,0,1,.06153-.14942.20776.20776,0,0,1,.14551-.0581h1.94726l-2.41113-3.28125a.28331.28331,0,0,1-.04981-.13281.14918.14918,0,0,1,.05372-.12012.19173.19173,0,0,1,.12792-.04541h1.02833a.30485.30485,0,0,1,.26464.14892l1.16016,1.59131a1.30934,1.30934,0,0,0,.38086-1.05224v-.46436a.22125.22125,0,0,1,.0625-.16162.2095.2095,0,0,1,.15332-.062h.87012a.19348.19348,0,0,1,.1455.0664.22388.22388,0,0,1,.06153.15723v.71289A2.06056,2.06056,0,0,1,60.46125,24.59466Z"/></svg>