<svg xmlns="http://www.w3.org/2000/svg" viewBox="0 0 62.81251 83.39762"><defs><style>.a{fill:#d2d2d2;}.b{fill:none;stroke:#b6b9bb;stroke-linecap:round;stroke-linejoin:round;stroke-width:1.38336px;}</style></defs><rect class="a" width="62.8125" height="83.39761"/><line class="b" x1="32.94633" y1="62.05884" x2="56.69729" y2="62.05883"/><line class="b" x1="20.17861" y1="59.19692" x2="56.69729" y2="59.19692"/><line class="b" x1="15.19052" y1="56.46865" x2="56.69729" y2="56.46865"/><line class="b" x1="10.53907" y1="71.24981" x2="56.69729" y2="71.2498"/><line class="b" x1="7.03643" y1="68.52154" x2="56.69729" y2="68.52154"/><line class="b" x1="7.03643" y1="74.26328" x2="56.69729" y2="74.26327"/><line class="b" x1="23.87137" y1="53.74038" x2="56.69729" y2="53.74038"/><line class="b" x1="32.94633" y1="48.78243" x2="56.69729" y2="48.78243"/><line class="b" x1="20.17861" y1="45.92051" x2="56.69728" y2="45.92051"/><line class="b" x1="15.19052" y1="43.19225" x2="56.69728" y2="43.19224"/><line class="b" x1="23.87137" y1="40.46398" x2="56.69728" y2="40.46398"/><line class="b" x1="23.87137" y1="36.3607" x2="56.69728" y2="36.3607"/><path d="M16.21638,13.7064a.20551.20551,0,0,1-.05762-.14941V11.10386a.83124.83124,0,0,0-.93652-.94433H13.33259a.21634.21634,0,0,1-.15332-.0586.19372.19372,0,0,1-.06152-.14844V9.2396a.19732.19732,0,0,1,.06152-.14941.21983.21983,0,0,1,.15332-.05762h1.93066a2.53626,2.53626,0,0,1,1.71973.50586,1.98791,1.98791,0,0,1,.57617,1.57422V13.557a.19469.19469,0,0,1-.0625.14941.21814.21814,0,0,1-.15332.05762h-.97754A.20551.20551,0,0,1,16.21638,13.7064Zm-3.03711,0a.19732.19732,0,0,1-.06152-.14941V11.13706a.19732.19732,0,0,1,.06152-.14941.21983.21983,0,0,1,.15332-.05762h.97852a.199.199,0,0,1,.207.207V13.557a.20609.20609,0,0,1-.0586.1455.19372.19372,0,0,1-.14843.06153h-.97852A.21983.21983,0,0,1,13.17927,13.7064Z"/><path d="M21.33357,13.70249a.20757.20757,0,0,1-.15332.06153H18.52107a.21648.21648,0,0,1-.15332-.05762.19466.19466,0,0,1-.0625-.14941V12.8441a.19466.19466,0,0,1,.0625-.14942.21652.21652,0,0,1,.15332-.05762h1.375l-.07422-1.63281a1.45189,1.45189,0,0,0-.166-.69531.56716.56716,0,0,0-.51367-.21582h-.42285a.21374.21374,0,0,1-.207-.207V9.1898a.21469.21469,0,0,1,.05859-.15332.19451.19451,0,0,1,.14844-.0625h.44726a2.17529,2.17529,0,0,1,1.57911.48926,2.26627,2.26627,0,0,1,.53418,1.5664l.10839,2.52735A.17448.17448,0,0,1,21.33357,13.70249Z"/><path d="M24.66462,9.09019a.19469.19469,0,0,1,.0625.14941v.71289a.20544.20544,0,0,1-.21582.207h-.38086a1.26859,1.26859,0,0,0-.15332.42285,2.93983,2.93983,0,0,0-.05371.58789V13.5814a.15878.15878,0,0,1-.07422.12891.26434.26434,0,0,1-.1582.05371h-.96973a.17131.17131,0,0,1-.18164-.18262v-2.502a1.78088,1.78088,0,0,1,.166-.91992h-.62207a.21374.21374,0,0,1-.207-.207V9.2396a.19466.19466,0,0,1,.0625-.14941.20538.20538,0,0,1,.14453-.05762H24.5113A.21649.21649,0,0,1,24.66462,9.09019Z"/><path d="M28.61286,13.7064a.20554.20554,0,0,1-.05761-.14941V11.10386a.83125.83125,0,0,0-.93653-.94433H25.72907a.21637.21637,0,0,1-.15332-.0586.19375.19375,0,0,1-.06152-.14844V9.2396a.19736.19736,0,0,1,.06152-.14941.21986.21986,0,0,1,.15332-.05762h1.93067a2.53624,2.53624,0,0,1,1.71972.50586,1.98791,1.98791,0,0,1,.57618,1.57422V13.557a.19469.19469,0,0,1-.0625.14941.21817.21817,0,0,1-.15332.05762h-.97754A.20553.20553,0,0,1,28.61286,13.7064Zm-3.03711,0a.19736.19736,0,0,1-.06152-.14941V11.13706a.19736.19736,0,0,1,.06152-.14941.21986.21986,0,0,1,.15332-.05762h.97852a.199.199,0,0,1,.207.207V13.557a.20612.20612,0,0,1-.05859.1455.19374.19374,0,0,1-.14844.06153h-.97852A.21986.21986,0,0,1,25.57575,13.7064Z"/><path d="M33.13825,13.30406a2.0323,2.0323,0,0,1-.56347-1.53711V9.2396a.19736.19736,0,0,1,.06152-.14941.21983.21983,0,0,1,.15332-.05762H34.9029a2.39239,2.39239,0,0,1,1.707.50586,2.13993,2.13993,0,0,1,.57227,1.49121c.00488.05567.00781.18457.00781.38965,0,.21-.00293.3418-.00781.39746a2.15475,2.15475,0,0,1-.59277,1.5127,2.4977,2.4977,0,0,1-1.76075.51758A2.3463,2.3463,0,0,1,33.13825,13.30406Zm2.46485-.84473a.94447.94447,0,0,0,.23633-.68359c.00586-.05567.00878-.17481.00878-.35645q0-.26514-.00878-.34863a.96393.96393,0,0,0-.249-.6875,1.01669,1.01669,0,0,0-.72851-.22363H33.859v1.583a.89039.89039,0,0,0,.249.69141,1.01237,1.01237,0,0,0,.71191.22754A1.16292,1.16292,0,0,0,35.6031,12.45933Z"/><path d="M39.07868,10.50718c.01172.22656.07715.35938.19922.39844l.23242.082a.19652.19652,0,0,1,.10352.0957.3264.3264,0,0,1,.03711.15332l.00781.42286a.21839.21839,0,0,1-.11133.19433.40941.40941,0,0,1-.26953.05371l-.33984-.04883a1.05734,1.05734,0,0,1-.71289-.46093,1.65793,1.65793,0,0,1-.28125-.99024V9.2396a.28858.28858,0,0,1,.07031-.14941.17986.17986,0,0,1,.13672-.05762h1.67383a2.1428,2.1428,0,0,1,1.62011.55957,2.35447,2.35447,0,0,1,.584,1.57032q.00879.082.00879.23144a2.621,2.621,0,0,1-.53028,1.74414,2.08723,2.08723,0,0,1-1.68261.626H38.25056a.21649.21649,0,0,1-.15332-.05762.19469.19469,0,0,1-.0625-.14941v-.7627a.21182.21182,0,0,1,.21582-.21484h1.5332a.98951.98951,0,0,0,.69141-.24512.96085.96085,0,0,0,.29394-.69141c.00586-.05566.00879-.13769.00879-.249q0-.15673-.00879-.24023a.93625.93625,0,0,0-.28515-.69141,1.00193,1.00193,0,0,0-.7002-.24512h-.70508Z"/><path d="M42.91169,13.7064a.19736.19736,0,0,1-.06152-.14941V9.2396a.19736.19736,0,0,1,.06152-.14941.21983.21983,0,0,1,.15332-.05762h1.03613a.19755.19755,0,0,1,.207.207V13.557a.20945.20945,0,0,1-.05762.1455.19734.19734,0,0,1-.14942.06153H43.065A.21983.21983,0,0,1,42.91169,13.7064Z"/><path d="M45.82087,13.308a1.98472,1.98472,0,0,1-.57617-1.52441V9.2396a.19469.19469,0,0,1,.0625-.14941.20708.20708,0,0,1,.14453-.05762H46.314a.21986.21986,0,0,1,.15332.05762.19736.19736,0,0,1,.06152.14941v2.50293a.85338.85338,0,0,0,.26953.69141,1.12459,1.12459,0,0,0,.75.22754q.92871,0,.93652-.88574a1.73724,1.73724,0,0,0,.00391-.22364c-.00293-.09472-.00391-.166-.00391-.21582v-.18261a1.49429,1.49429,0,0,0-.15722-.72461.47277.47277,0,0,0-.43067-.25293.96455.96455,0,0,0-.24511.0332.81125.81125,0,0,0-.21094.083.28081.28081,0,0,1-.07422.0166.17944.17944,0,0,1-.12891-.05371.18547.18547,0,0,1-.05371-.13672V9.46324a.32719.32719,0,0,1,.15723-.30664,1.56856,1.56856,0,0,1,.7959-.15723,1.60376,1.60376,0,0,1,1.30468.47656,2.3414,2.3414,0,0,1,.41016,1.47071v.87011Q49.7613,13.847,47.54841,13.847A2.44686,2.44686,0,0,1,45.82087,13.308Z"/><path d="M10.63923,25.57554a.19372.19372,0,0,1-.06152-.14844V23.07359a.19734.19734,0,0,1,.06152-.14942.21986.21986,0,0,1,.15332-.05761h1.03613a.19752.19752,0,0,1,.207.207V25.4271a.20716.20716,0,0,1-.05761.14454.1947.1947,0,0,1-.14942.0625H10.79255A.21634.21634,0,0,1,10.63923,25.57554Z"/><path d="M12.88532,27.5355a.19991.19991,0,0,1-.0625-.14453v-.71289a.19814.19814,0,0,1,.0625-.14941.20774.20774,0,0,1,.14551-.05762h2.0791v-1.5332a.82734.82734,0,0,0-.93554-.93653H13.11286a.19116.19116,0,0,1-.14843-.0625.21232.21232,0,0,1-.0586-.15234v-.71289a.19471.19471,0,0,1,.0625-.14942.20715.20715,0,0,1,.14453-.05761H14.2154a2.701,2.701,0,0,1,1.75293.48828,1.94066,1.94066,0,0,1,.5918,1.583v1.5332h.29a.199.199,0,0,1,.208.207V27.391a.20386.20386,0,0,1-.0586.14453.19183.19183,0,0,1-.14941.0625H13.03083A.19674.19674,0,0,1,12.88532,27.5355Z"/><path d="M17.71638,25.57554a.19372.19372,0,0,1-.06152-.14844V23.07359a.19734.19734,0,0,1,.06152-.14942.21986.21986,0,0,1,.15332-.05761h1.03613a.19752.19752,0,0,1,.207.207V25.4271a.20716.20716,0,0,1-.05761.14454.19471.19471,0,0,1-.14942.0625H17.8697A.21634.21634,0,0,1,17.71638,25.57554Z"/><path d="M20.59236,27.142a1.98619,1.98619,0,0,1-.57618-1.52442V23.07359a.19471.19471,0,0,1,.0625-.14942.20715.20715,0,0,1,.14453-.05761h.86231a.21986.21986,0,0,1,.15332.05761.19734.19734,0,0,1,.06152.14942v2.502a.85684.85684,0,0,0,.26953.69238,1.12454,1.12454,0,0,0,.75.22754q.92872,0,.93653-.88672a1.72808,1.72808,0,0,0,.0039-.22363c-.00293-.09375-.0039-.165-.0039-.21484v-.18262a1.50137,1.50137,0,0,0-.15723-.72559.47367.47367,0,0,0-.43066-.252.96462.96462,0,0,0-.24512.0332.81252.81252,0,0,0-.21094.082.24588.24588,0,0,1-.07422.0166.17559.17559,0,0,1-.1289-.05371.18393.18393,0,0,1-.05371-.13672v-.6543a.3262.3262,0,0,1,.15722-.30664,1.56869,1.56869,0,0,1,.7959-.15723,1.60068,1.60068,0,0,1,1.30469.47657,2.34149,2.34149,0,0,1,.41016,1.4707v.87012Q24.53279,27.681,22.31989,27.681A2.44688,2.44688,0,0,1,20.59236,27.142Z"/><path d="M27.49958,27.64781a.24162.24162,0,0,1-.0664-.166v-.83691a.24854.24854,0,0,1,.05761-.15723.31941.31941,0,0,1,.14942-.10742l.25683-.1084a1.218,1.218,0,0,0,.82813-1.28418,1.09557,1.09557,0,0,0-.18653-.72949.89858.89858,0,0,0-.68359-.207H25.651a.21182.21182,0,0,1-.21484-.21582V23.0648a.17926.17926,0,0,1,.0664-.14063.22189.22189,0,0,1,.14844-.05761h2.49414a2.009,2.009,0,0,1,1.5498.51758,2.25158,2.25158,0,0,1,.47266,1.5625,2.432,2.432,0,0,1-.62207,1.72265,3.29331,3.29331,0,0,1-1.55762.93652l-.33984.09961A.151.151,0,0,1,27.49958,27.64781Zm-2.002,1.47461a.19373.19373,0,0,1-.06152-.14844V24.97105a.19731.19731,0,0,1,.06152-.14941A.21983.21983,0,0,1,25.651,24.764h.94531a.199.199,0,0,1,.207.207V28.974a.20042.20042,0,0,1-.207.207H25.651A.21633.21633,0,0,1,25.49763,29.12242Z"/><path d="M35.38728,27.42417a.17355.17355,0,0,1-.04981.12012.16062.16062,0,0,1-.124.05371H34.19392a.27625.27625,0,0,1-.22363-.0791c-.04395-.05176-.06934-.081-.07422-.08691l-1.4502-2.09668a.92726.92726,0,0,0-.28223.45605,2.19119,2.19119,0,0,0-.0664.54688v1.03613a.21787.21787,0,0,1-.06153.16113.20772.20772,0,0,1-.15332.0625h-.8125a.19521.19521,0,0,1-.1455-.0664.223.223,0,0,1-.06153-.15723V26.347a2.91025,2.91025,0,0,1,.19043-1.14454,2.1132,2.1132,0,0,1,.72071-.82812l-.84473-1.21777a.17375.17375,0,0,1-.042-.11621.1699.1699,0,0,1,.05371-.12012.166.166,0,0,1,.12012-.05371h.97851a.28321.28321,0,0,1,.17774.04883.61865.61865,0,0,1,.12011.13281l1.334,1.88965a.73485.73485,0,0,0,.29492-.36426,1.60918,1.60918,0,0,0,.06152-.47266V23.09019a.228.228,0,0,1,.0586-.16211.19371.19371,0,0,1,.14843-.06152h.87012a.19773.19773,0,0,1,.15332.0664.21821.21821,0,0,1,.0625.15723v1.04395a2.17812,2.17812,0,0,1-.21094.96484,1.97952,1.97952,0,0,1-.7666.7832L35.35407,27.308A.20279.20279,0,0,1,35.38728,27.42417Z"/><path d="M36.31989,27.54039a.19738.19738,0,0,1-.06152-.14942V23.07359a.19738.19738,0,0,1,.06152-.14942.2199.2199,0,0,1,.15332-.05761h1.03614a.19753.19753,0,0,1,.207.207V27.391a.20708.20708,0,0,1-.05762.14453.19469.19469,0,0,1-.14941.0625H36.47321A.2199.2199,0,0,1,36.31989,27.54039Z"/><path d="M41.00154,27.54039a.19468.19468,0,0,1-.0625-.14942V24.93785a.83086.83086,0,0,0-.93653-.94434H38.74372a.21369.21369,0,0,1-.208-.207v-.71289a.19818.19818,0,0,1,.0625-.14942.20777.20777,0,0,1,.14551-.05761h1.3086a2.64763,2.64763,0,0,1,1.71972.47168,1.91224,1.91224,0,0,1,.56739,1.5498V27.391a.20713.20713,0,0,1-.05762.14453.1947.1947,0,0,1-.14942.0625h-.97753A.21818.21818,0,0,1,41.00154,27.54039Z"/><path d="M43.81111,27.142a1.98619,1.98619,0,0,1-.57618-1.52442V23.07359a.19471.19471,0,0,1,.0625-.14942.20715.20715,0,0,1,.14453-.05761h.86231a.21986.21986,0,0,1,.15332.05761.19734.19734,0,0,1,.06152.14942v2.502a.85684.85684,0,0,0,.26953.69238,1.12454,1.12454,0,0,0,.75.22754q.92873,0,.93653-.88672a1.72808,1.72808,0,0,0,.0039-.22363c-.00293-.09375-.0039-.165-.0039-.21484v-.18262a1.50137,1.50137,0,0,0-.15723-.72559.47367.47367,0,0,0-.43066-.252.96462.96462,0,0,0-.24512.0332.81252.81252,0,0,0-.21094.082.24588.24588,0,0,1-.07422.0166.17559.17559,0,0,1-.1289-.05371.18393.18393,0,0,1-.05371-.13672v-.6543a.3262.3262,0,0,1,.15722-.30664,1.56869,1.56869,0,0,1,.7959-.15723,1.60068,1.60068,0,0,1,1.30469.47657,2.34149,2.34149,0,0,1,.41016,1.4707v.87012Q47.75154,27.681,45.53864,27.681A2.44688,2.44688,0,0,1,43.81111,27.142Z"/><path d="M50.89607,27.54039a.19468.19468,0,0,1-.0625-.14942V24.93785a.83086.83086,0,0,0-.93653-.94434H48.63825a.21369.21369,0,0,1-.208-.207v-.71289a.19814.19814,0,0,1,.0625-.14942.20773.20773,0,0,1,.1455-.05761h1.3086a2.64763,2.64763,0,0,1,1.71972.47168A1.91224,1.91224,0,0,1,52.234,24.888V27.391a.20708.20708,0,0,1-.05762.14453.19469.19469,0,0,1-.14941.0625h-.97754A.21818.21818,0,0,1,50.89607,27.54039Z"/></svg>