<svg xmlns="http://www.w3.org/2000/svg" viewBox="0 0 62.81251 83.39762"><defs><style>.a{fill:#fff;}.b{fill:none;stroke:#e2e6e8;stroke-linecap:round;stroke-linejoin:round;stroke-width:1.38336px;}.c{fill:#2d2a28;}</style></defs><rect class="a" width="62.8125" height="83.39761"/><line class="b" x1="32.94633" y1="62.05884" x2="56.69729" y2="62.05883"/><line class="b" x1="20.17861" y1="59.19692" x2="56.69729" y2="59.19692"/><line class="b" x1="10.53907" y1="71.24981" x2="56.69729" y2="71.2498"/><line class="b" x1="7.03643" y1="68.52154" x2="56.69729" y2="68.52154"/><line class="b" x1="7.03643" y1="74.26328" x2="56.69729" y2="74.26327"/><path class="c" d="M15.1971,11.78564a.19662.19662,0,0,1-.0625-.14941V9.28271a.19632.19632,0,0,1,.0625-.14893.214.214,0,0,1,.15234-.0581h1.03711a.19968.19968,0,0,1,.207.207v2.35352a.20419.20419,0,0,1-.05859.145.19391.19391,0,0,1-.14844.062H15.34944A.21367.21367,0,0,1,15.1971,11.78564Z"/><path class="c" d="M17.59944,13.74951a.19512.19512,0,0,1-.06055-.14942V9.28271a.19477.19477,0,0,1,.06055-.14893.22216.22216,0,0,1,.1543-.0581h1.03515a.19682.19682,0,0,1,.207.207v4.31738a.21293.21293,0,0,1-.05664.14551.19986.19986,0,0,1-.15039.062H17.75374A.22216.22216,0,0,1,17.59944,13.74951Z"/><path class="c" d="M22.82014,13.7456a.20728.20728,0,0,1-.15234.062H20.00764a.21406.21406,0,0,1-.15234-.0581.19.19,0,0,1-.0625-.14942v-.7124a.189.189,0,0,1,.0625-.14892.212.212,0,0,1,.15234-.05811h1.375l-.07422-1.63281a1.44276,1.44276,0,0,0-.166-.6958.566.566,0,0,0-.51367-.21582h-.42188a.19749.19749,0,0,1-.14453-.062.19282.19282,0,0,1-.0625-.145v-.6958a.21473.21473,0,0,1,.05859-.15332.191.191,0,0,1,.14844-.062h.44727a2.17266,2.17266,0,0,1,1.57812.48877,2.2641,2.2641,0,0,1,.53516,1.56592l.10742,2.52734A.16884.16884,0,0,1,22.82014,13.7456Z"/><path class="c" d="M23.68147,11.78564a.19513.19513,0,0,1-.06055-.14941V9.28271a.19481.19481,0,0,1,.06055-.14893.22216.22216,0,0,1,.1543-.0581h1.03515a.19684.19684,0,0,1,.207.207v2.35352a.2109.2109,0,0,1-.05665.145.19813.19813,0,0,1-.15039.062H23.83577A.22176.22176,0,0,1,23.68147,11.78564Z"/><path class="c" d="M30.19905,9.58154a2.00087,2.00087,0,0,1,.53125,1.51611v2.50244a.20613.20613,0,0,1-.05859.14551.19561.19561,0,0,1-.14844.062H28.26155a.20372.20372,0,0,1-.14649-.062.20006.20006,0,0,1-.06054-.14551v-.7124a.19406.19406,0,0,1,.06054-.14892.20792.20792,0,0,1,.14649-.05811h1.06836v-1.5166a.99352.99352,0,0,0-.207-.67139.67977.67977,0,0,0-.53907-.24023h-.64648l-.70312,3.33984a.26477.26477,0,0,1-.06641.15332.19986.19986,0,0,1-.15039.062h-.95313a.20731.20731,0,0,1-.15234-.062.1688.1688,0,0,1-.04688-.15332l.8125-3.33154h-.54687a.19389.19389,0,0,1-.14844-.062.21554.21554,0,0,1-.05859-.15332v-.7627a.19632.19632,0,0,1,.0625-.14893.20546.20546,0,0,1,.14453-.0581h2.66016A1.95564,1.95564,0,0,1,30.19905,9.58154Z"/><path class="c" d="M33.30256,13.7456a.20208.20208,0,0,1-.0625-.14551v-.7124a.19559.19559,0,0,1,.0625-.14892.20464.20464,0,0,1,.14649-.05811h2.07812v-1.5332a.82676.82676,0,0,0-.93554-.93653H33.53108a.191.191,0,0,1-.14844-.062.21469.21469,0,0,1-.05859-.15332V9.28271a.18967.18967,0,0,1,.0625-.14893.20546.20546,0,0,1,.14453-.0581h1.10156a2.70579,2.70579,0,0,1,1.75391.48926,1.93958,1.93958,0,0,1,.5918,1.58252v1.5332h.28906a.19982.19982,0,0,1,.209.207v.7124a.20613.20613,0,0,1-.05859.14551.1969.1969,0,0,1-.15039.062H33.44905A.20051.20051,0,0,1,33.30256,13.7456Z"/><path class="c" d="M42.58381,9.56884A1.91218,1.91218,0,0,1,43.16,11.106v2.49414a.20609.20609,0,0,1-.0586.14551.19557.19557,0,0,1-.14843.062h-.97852a.214.214,0,0,1-.15234-.0581.19664.19664,0,0,1-.0625-.14942V11.14746a.8313.8313,0,0,0-.93555-.94483H40.285a4.94762,4.94762,0,0,0-.125,1.21826l.0664,2.1792a.19664.19664,0,0,1-.0625.14942.214.214,0,0,1-.15234.0581l-1.75781-.0083a.21409.21409,0,0,1-.15235-.0581.19635.19635,0,0,1-.0625-.14893V12.9375a.19668.19668,0,0,1,.0625-.14942.21409.21409,0,0,1,.15235-.0581h.67187V11.42919a4.3868,4.3868,0,0,1,.125-1.22656h-.49023A.2137.2137,0,0,1,38.408,10.145a.19742.19742,0,0,1-.0625-.14942V9.28271a.19635.19635,0,0,1,.0625-.14893.21409.21409,0,0,1,.15235-.0581h2.3125A2.57387,2.57387,0,0,1,42.58381,9.56884Z"/><path class="c" d="M44.10921,13.74951a.19664.19664,0,0,1-.0625-.14942v-.7622a.21072.21072,0,0,1,.0625-.15332.20541.20541,0,0,1,.15234-.062h1.20312a.88228.88228,0,0,0,.99414-.93652c.00586-.06641.00782-.14892.00782-.24853,0-.09375-.002-.17432-.00782-.24024a.88228.88228,0,0,0-.99414-.93652H44.26155a.20544.20544,0,0,1-.15234-.062.21075.21075,0,0,1-.0625-.15332v-.7627a.19632.19632,0,0,1,.0625-.14893.214.214,0,0,1,.15234-.0581h1.24414a2.01451,2.01451,0,0,1,2.29492,2.12988c.00586.06055.00781.13819.00781.23194a2.5664,2.5664,0,0,1-.543,1.74853,2.22271,2.22271,0,0,1-1.75977.62158H44.26155A.214.214,0,0,1,44.10921,13.74951Z"/><path class="c" d="M14.90217,27.58349a.19815.19815,0,0,1-.0625-.14941V24.981a.83036.83036,0,0,0-.93554-.94433H12.64436a.19616.19616,0,0,1-.14453-.0625.19909.19909,0,0,1-.0625-.14453v-.7129a.19812.19812,0,0,1,.0625-.14941.2071.2071,0,0,1,.14453-.05762H13.953a2.646,2.646,0,0,1,1.7207.47217,1.91376,1.91376,0,0,1,.5664,1.54981v2.50244a.21177.21177,0,0,1-.05664.145.19813.19813,0,0,1-.15039.062h-.97656A.21839.21839,0,0,1,14.90217,27.58349Z"/><path class="c" d="M18.26155,24.38427q.01758.34057.19922.39795l.23242.083a.19224.19224,0,0,1,.10352.09521.31647.31647,0,0,1,.0371.15333l.00782.42285a.21892.21892,0,0,1-.11133.19433.407.407,0,0,1-.26953.0542l-.33985-.0498a1.056,1.056,0,0,1-.71289-.46,1.66,1.66,0,0,1-.28125-.99024V23.11669a.30459.30459,0,0,1,.07032-.14941.18285.18285,0,0,1,.13671-.05762h1.67383a2.147,2.147,0,0,1,1.6211.55909,2.3633,2.3633,0,0,1,.584,1.57031c.00586.05517.00781.13281.00781.23193a2.62747,2.62747,0,0,1-.52929,1.74463,2.0938,2.0938,0,0,1-1.6836.62549H17.43342a.21366.21366,0,0,1-.15234-.05762.19136.19136,0,0,1-.0625-.14941v-.76221a.20258.20258,0,0,1,.0625-.15332.20547.20547,0,0,1,.15234-.062h1.53321a.99142.99142,0,0,0,.6914-.24463A.96838.96838,0,0,0,19.953,25.52c.00585-.05518.00781-.13819.00781-.249,0-.10449-.002-.18457-.00781-.24023a.94661.94661,0,0,0-.28516-.6919,1.00645,1.00645,0,0,0-.70117-.24463h-.70508Z"/><path class="c" d="M22.09553,27.58349a.19815.19815,0,0,1-.0625-.14941V23.11669a.19815.19815,0,0,1,.0625-.14941.21579.21579,0,0,1,.15235-.05762H23.285a.199.199,0,0,1,.207.207v4.31739a.205.205,0,0,1-.0586.145.19388.19388,0,0,1-.14843.062H22.24788A.21367.21367,0,0,1,22.09553,27.58349Z"/><path class="c" d="M24.98421,27.18115a2.02906,2.02906,0,0,1-.56446-1.53711V23.11669a.19815.19815,0,0,1,.0625-.14941.21579.21579,0,0,1,.15235-.05762h2.11328a2.39541,2.39541,0,0,1,1.707.50537,2.13688,2.13688,0,0,1,.57226,1.4917c.00586.05518.00782.18506.00782.38965,0,.21-.002.34229-.00782.39746a2.152,2.152,0,0,1-.59179,1.51221,2.498,2.498,0,0,1-1.76172.51807A2.34372,2.34372,0,0,1,24.98421,27.18115Zm2.46484-.84522a.94694.94694,0,0,0,.23633-.68359c.00586-.05518.00781-.17383.00781-.356,0-.17676-.002-.293-.00781-.34814a.9638.9638,0,0,0-.25-.688,1.01518,1.01518,0,0,0-.72852-.22363H25.70491v1.58252a.89185.89185,0,0,0,.248.69189,1.01511,1.01511,0,0,0,.71289.228A1.15876,1.15876,0,0,0,27.44905,26.33593Z"/><path class="c" d="M31.64046,28.61084a.19584.19584,0,0,1-.06055-.14942V23.11669a.19655.19655,0,0,1,.06055-.14941.22394.22394,0,0,1,.15429-.05762h.97852a.199.199,0,0,1,.207.207v5.34473a.19971.19971,0,0,1-.207.20752h-.97852A.22213.22213,0,0,1,31.64046,28.61084Z"/><path class="c" d="M33.994,25.61914a.19481.19481,0,0,1-.06055-.14893V23.11669a.19659.19659,0,0,1,.06055-.14941.224.224,0,0,1,.1543-.05762h1.03515a.19616.19616,0,0,1,.207.207v2.35352a.21174.21174,0,0,1-.05665.145.19813.19813,0,0,1-.15039.062H34.14827A.22216.22216,0,0,1,33.994,25.61914Z"/><path class="c" d="M40.08967,24.853a2.0363,2.0363,0,0,1-.72851.74951l.64648.88672a.84839.84839,0,0,1,.07813.12452.33.33,0,0,1,.02929.14892v.67139a.205.205,0,0,1-.05859.145.19389.19389,0,0,1-.14844.062H36.5428a.1975.1975,0,0,1-.14453-.062.201.201,0,0,1-.0625-.145v-.73731a.19662.19662,0,0,1,.0625-.14941.20543.20543,0,0,1,.14453-.05811h1.94726L36.07991,23.208a.287.287,0,0,1-.05078-.13281.1472.1472,0,0,1,.05468-.12012.18923.18923,0,0,1,.127-.04541h1.02929a.30448.30448,0,0,1,.26368.14893l1.16015,1.59131a1.31048,1.31048,0,0,0,.38086-1.05274V23.1333a.2205.2205,0,0,1,.0625-.16162.20984.20984,0,0,1,.1543-.062h.86914a.19549.19549,0,0,1,.14648.06641.22216.22216,0,0,1,.06055.15723v.71289A2.04988,2.04988,0,0,1,40.08967,24.853Z"/><path class="c" d="M43.28889,27.69091a.24044.24044,0,0,1-.0664-.16552V26.688a.2492.2492,0,0,1,.05664-.15722.32059.32059,0,0,1,.15039-.10742l.25586-.10791a1.21534,1.21534,0,0,0,.82812-1.28467,1.09372,1.09372,0,0,0-.18554-.729.89811.89811,0,0,0-.6836-.20752H41.43928a.20543.20543,0,0,1-.15234-.062.20992.20992,0,0,1-.0625-.15332v-.77051a.17947.17947,0,0,1,.06641-.14111.22368.22368,0,0,1,.14843-.05762h2.49414a2.01512,2.01512,0,0,1,1.55079.51758,2.25641,2.25641,0,0,1,.47265,1.5625,2.43154,2.43154,0,0,1-.623,1.72363,3.302,3.302,0,0,1-1.55664.936l-.33984.09961A.14973.14973,0,0,1,43.28889,27.69091Zm-2.002,1.4751a.1963.1963,0,0,1-.0625-.14892V25.01416a.1963.1963,0,0,1,.0625-.14893.21409.21409,0,0,1,.15234-.05811h.94532a.19971.19971,0,0,1,.207.207v4.00293a.19971.19971,0,0,1-.207.207h-.94532A.214.214,0,0,1,41.28694,29.166Z"/><path class="c" d="M49.9178,23.42724a2.25641,2.25641,0,0,1,.47266,1.5625,2.43158,2.43158,0,0,1-.623,1.72363,3.302,3.302,0,0,1-1.55664.936l-.33985.09961a.162.162,0,0,1-.15429-.05811.23631.23631,0,0,1-.07032-.16552V26.688a.2368.2368,0,0,1,.0586-.15332.40755.40755,0,0,1,.14844-.11132l.26562-.10791a1.3404,1.3404,0,0,0,.60156-.44336,1.38585,1.38585,0,0,0,.21875-.84131,1.11862,1.11862,0,0,0-.18164-.729.882.882,0,0,0-.67968-.20752h-.21485l-1.11133-.00781a.1986.1986,0,0,1-.14843-.0581.20083.20083,0,0,1-.0586-.14942V21.96484a.19635.19635,0,0,1,.0625-.14893.2034.2034,0,0,1,.14453-.0581h.89453a.2043.2043,0,0,1,.1504.0581.20693.20693,0,0,1,.05664.14893v.94482H48.367A2.01508,2.01508,0,0,1,49.9178,23.42724Z"/><path class="c" d="M11.82014,37.23632a1.91285,1.91285,0,0,1,.57617,1.53711v2.49463a.203.203,0,0,1-.05859.14453.19426.19426,0,0,1-.14844.0625h-.97851a.21409.21409,0,0,1-.15235-.0581.19635.19635,0,0,1-.0625-.14893V38.81494a.8313.8313,0,0,0-.93554-.94483H9.52131a4.94607,4.94607,0,0,0-.125,1.21826l.06641,2.17969a.19632.19632,0,0,1-.0625.14893.21406.21406,0,0,1-.15234.0581l-1.75782-.0083a.21408.21408,0,0,1-.15234-.0581.19668.19668,0,0,1-.0625-.14942V40.605a.19816.19816,0,0,1,.0625-.14942.2137.2137,0,0,1,.15234-.05762h.67188V39.09668a4.38882,4.38882,0,0,1,.125-1.22657H7.79671a.212.212,0,0,1-.15235-.0581.19487.19487,0,0,1-.0625-.14893v-.7124a.19664.19664,0,0,1,.0625-.14941.21405.21405,0,0,1,.15235-.05811h2.3125A2.57389,2.57389,0,0,1,11.82014,37.23632Z"/><path class="c" d="M13.39436,41.417a.19481.19481,0,0,1-.06055-.14893V36.95068a.19512.19512,0,0,1,.06055-.14941.22212.22212,0,0,1,.1543-.05811h1.03515a.19688.19688,0,0,1,.207.20752v4.31738a.20971.20971,0,0,1-.05664.14453.19852.19852,0,0,1-.1504.0625H13.54866A.22216.22216,0,0,1,13.39436,41.417Z"/><path class="c" d="M16.85335,38.21826q.01757.33984.19921.398l.23243.08252a.19311.19311,0,0,1,.10351.0957.31511.31511,0,0,1,.03711.15332l.00781.42236a.21917.21917,0,0,1-.11132.19483.4099.4099,0,0,1-.26954.05371l-.33984-.04981a1.05255,1.05255,0,0,1-.71289-.46,1.65994,1.65994,0,0,1-.28125-.99023v-1.168a.30055.30055,0,0,1,.07031-.14941.18151.18151,0,0,1,.13672-.05811h1.67383a2.14516,2.14516,0,0,1,1.62109.55957,2.36141,2.36141,0,0,1,.584,1.57031c.00586.05518.00781.13233.00781.23194a2.626,2.626,0,0,1-.5293,1.74414,2.09236,2.09236,0,0,1-1.68359.626H16.02522a.214.214,0,0,1-.15234-.0581.18967.18967,0,0,1-.0625-.14893v-.76269a.2033.2033,0,0,1,.0625-.15332.20541.20541,0,0,1,.15234-.062h1.5332a.98924.98924,0,0,0,.69141-.24462.96661.96661,0,0,0,.29492-.6919c.00586-.05517.00781-.13818.00781-.24853,0-.105-.002-.18506-.00781-.24024a.94489.94489,0,0,0-.28515-.69189,1.00416,1.00416,0,0,0-.70118-.24463h-.70507Z"/><path class="c" d="M20.68733,41.417a.19632.19632,0,0,1-.0625-.14893V36.95068a.1966.1966,0,0,1,.0625-.14941.214.214,0,0,1,.15234-.05811h1.03711a.19973.19973,0,0,1,.207.20752v4.31738a.203.203,0,0,1-.05859.14453.19426.19426,0,0,1-.14844.0625H20.83967A.21408.21408,0,0,1,20.68733,41.417Z"/><path class="c" d="M25.369,41.417a.18967.18967,0,0,1-.0625-.14893V38.81494a.83189.83189,0,0,0-.9375-.94483H23.11116a.19863.19863,0,0,1-.14649-.062.201.201,0,0,1-.0625-.145v-.7124a.19664.19664,0,0,1,.0625-.14941.20671.20671,0,0,1,.14649-.05811h1.30859a2.6464,2.6464,0,0,1,1.71875.47217,1.9094,1.9094,0,0,1,.56836,1.5498v2.50293a.203.203,0,0,1-.05859.14453.19426.19426,0,0,1-.14844.0625h-.97852A.21408.21408,0,0,1,25.369,41.417Z"/><path class="c" d="M32.04866,37.23632a1.91847,1.91847,0,0,1,.57422,1.53711v2.49463a.20116.20116,0,0,1-.05664.14453.19558.19558,0,0,1-.15039.0625h-.97657a.21878.21878,0,0,1-.15429-.0581.19632.19632,0,0,1-.0625-.14893V38.81494a.83052.83052,0,0,0-.93555-.94483h-.53906a5.04368,5.04368,0,0,0-.123,1.21826l.06641,2.17969a.19635.19635,0,0,1-.0625.14893.21881.21881,0,0,1-.1543.0581l-1.75586-.0083a.21881.21881,0,0,1-.1543-.0581.19668.19668,0,0,1-.0625-.14942V40.605a.19816.19816,0,0,1,.0625-.14942.21843.21843,0,0,1,.1543-.05762h.66992V39.09668a4.53981,4.53981,0,0,1,.125-1.22657h-.48828a.21667.21667,0,0,1-.1543-.0581.19487.19487,0,0,1-.0625-.14893v-.7124a.19664.19664,0,0,1,.0625-.14941.21877.21877,0,0,1,.1543-.05811h2.31055A2.57613,2.57613,0,0,1,32.04866,37.23632Z"/><path class="c" d="M33.62288,41.417a.19632.19632,0,0,1-.0625-.14893V36.95068a.1966.1966,0,0,1,.0625-.14941.214.214,0,0,1,.15234-.05811h1.03711a.19973.19973,0,0,1,.207.20752v4.31738a.203.203,0,0,1-.05859.14453.19426.19426,0,0,1-.14844.0625H33.77522A.214.214,0,0,1,33.62288,41.417Z"/><path class="c" d="M37.79866,41.417a.19632.19632,0,0,1-.0625-.14893V36.95068a.1966.1966,0,0,1,.0625-.14941.214.214,0,0,1,.15234-.05811h1.88086a2.51611,2.51611,0,0,1,1.67969.47656,1.95455,1.95455,0,0,1,.55078,1.55371v2.48584a.21346.21346,0,0,1-.2168.21582H37.951A.21406.21406,0,0,1,37.79866,41.417Zm2.92969-1.06885v-1.5332a.83189.83189,0,0,0-.9375-.94483h-.79493v2.478Z"/><path class="c" d="M43.02717,39.45312a.19665.19665,0,0,1-.0625-.14941v-2.353a.19664.19664,0,0,1,.0625-.14941.21405.21405,0,0,1,.15235-.05811h1.03711a.19974.19974,0,0,1,.207.20752v2.353a.20416.20416,0,0,1-.0586.145.19429.19429,0,0,1-.14843.0625H43.17952A.21409.21409,0,0,1,43.02717,39.45312Z"/><path class="c" d="M49.54475,37.24853a2.00208,2.00208,0,0,1,.5293,1.5166v2.50293a.20116.20116,0,0,1-.05664.14453.1985.1985,0,0,1-.15039.0625H47.6053a.21374.21374,0,0,1-.207-.207v-.71289a.1981.1981,0,0,1,.0625-.14941.20708.20708,0,0,1,.14453-.05762h1.06836v-1.5166a.99439.99439,0,0,0-.207-.67139.67312.67312,0,0,0-.53711-.24023H47.283L46.578,41.25927a.24925.24925,0,0,1-.06641.15332.19426.19426,0,0,1-.14844.0625H45.41a.21341.21341,0,0,1-.1543-.0625.16176.16176,0,0,1-.04492-.15332l.8125-3.331h-.54688a.19814.19814,0,0,1-.15039-.062.22186.22186,0,0,1-.05664-.15332v-.76221a.19508.19508,0,0,1,.06055-.14941.21.21,0,0,1,.14648-.05811h2.66016A1.95856,1.95856,0,0,1,49.54475,37.24853Z"/><path class="c" d="M51.51741,41.01513A2.0298,2.0298,0,0,1,50.953,39.478V36.95068a.1966.1966,0,0,1,.0625-.14941.214.214,0,0,1,.15234-.05811h2.11328a2.39538,2.39538,0,0,1,1.707.50537,2.13781,2.13781,0,0,1,.57227,1.4917c.00586.05518.00781.18506.00781.38965,0,.21-.002.34228-.00781.398a2.153,2.153,0,0,1-.5918,1.5122,2.498,2.498,0,0,1-1.76172.51807A2.34584,2.34584,0,0,1,51.51741,41.01513Zm2.46484-.84521a.94778.94778,0,0,0,.23633-.6836c.00586-.05517.00781-.17431.00781-.35644,0-.17676-.002-.293-.00781-.34815a.96254.96254,0,0,0-.25-.6875,1.0152,1.0152,0,0,0-.72852-.22412h-1.002v1.583a.8926.8926,0,0,0,.248.6919,1.01729,1.01729,0,0,0,.71289.22753A1.16173,1.16173,0,0,0,53.98225,40.16992Z"/><path class="c" d="M13.51546,51.06982a1.91913,1.91913,0,0,1,.57421,1.53711v2.49463a.20308.20308,0,0,1-.05664.145.19693.19693,0,0,1-.15039.062h-.97656a.21664.21664,0,0,1-.1543-.05811.19632.19632,0,0,1-.0625-.14892V52.64843a.83071.83071,0,0,0-.93554-.94482h-.53907a5.04627,5.04627,0,0,0-.123,1.21826l.0664,2.17969a.19628.19628,0,0,1-.0625.14892.21662.21662,0,0,1-.15429.05811l-1.75586-.0083a.21877.21877,0,0,1-.1543-.05811.1963.1963,0,0,1-.0625-.14892v-.65479a.1963.1963,0,0,1,.0625-.14892.21664.21664,0,0,1,.1543-.05811H9.8553V52.93017a4.53933,4.53933,0,0,1,.125-1.22656H9.492a.21839.21839,0,0,1-.1543-.05762.19665.19665,0,0,1-.0625-.14941v-.7124a.19668.19668,0,0,1,.0625-.14942.21881.21881,0,0,1,.1543-.0581h2.31054A2.57614,2.57614,0,0,1,13.51546,51.06982Z"/><path class="c" d="M15.08967,55.25048a.19632.19632,0,0,1-.0625-.14892V50.78418a.19668.19668,0,0,1,.0625-.14942.21409.21409,0,0,1,.15235-.0581h1.03711a.19973.19973,0,0,1,.207.20752v4.31738a.205.205,0,0,1-.0586.145.19561.19561,0,0,1-.14843.062H15.242A.212.212,0,0,1,15.08967,55.25048Z"/><path class="c" d="M17.492,53.28662a.19664.19664,0,0,1-.0625-.14942v-2.353a.19664.19664,0,0,1,.0625-.14942.214.214,0,0,1,.15234-.0581h1.03711a.19971.19971,0,0,1,.207.20752v2.353a.20529.20529,0,0,1-.05859.14551.19558.19558,0,0,1-.14844.062H17.64436A.214.214,0,0,1,17.492,53.28662Z"/><path class="c" d="M20.9178,52.05175q.01758.34058.19922.398l.23242.083a.19223.19223,0,0,1,.10352.09522.31641.31641,0,0,1,.0371.15332l.00782.42236a.21914.21914,0,0,1-.11133.19482.4099.4099,0,0,1-.26953.0542l-.33985-.0498a1.056,1.056,0,0,1-.71289-.46,1.66206,1.66206,0,0,1-.28125-.99024V50.78418a.30055.30055,0,0,1,.07032-.14942.18153.18153,0,0,1,.13671-.0581h1.67383a2.1452,2.1452,0,0,1,1.6211.55957,2.3633,2.3633,0,0,1,.584,1.57031c.00586.05517.00781.13281.00781.23193a2.62747,2.62747,0,0,1-.52929,1.74463,2.0938,2.0938,0,0,1-1.6836.62549H20.08967a.212.212,0,0,1-.15234-.05811.18963.18963,0,0,1-.0625-.14892v-.76221a.20186.20186,0,0,1,.0625-.15332.204.204,0,0,1,.15234-.0625h1.53321a.99111.99111,0,0,0,.6914-.24414.96866.96866,0,0,0,.29493-.69238c.00585-.05469.00781-.1377.00781-.24854,0-.105-.002-.18506-.00781-.24023a.94577.94577,0,0,0-.28516-.6919,1.00418,1.00418,0,0,0-.70117-.24463H20.9178Z"/><path class="c" d="M26.93147,55.25048a.18963.18963,0,0,1-.0625-.14892V52.64843a.83209.83209,0,0,0-.9375-.94482H24.67366a.21273.21273,0,0,1-.209-.207v-.7124a.19668.19668,0,0,1,.0625-.14942.20674.20674,0,0,1,.14649-.0581h1.30859a2.64353,2.64353,0,0,1,1.71875.47265,1.90809,1.90809,0,0,1,.56836,1.54981v2.50244a.205.205,0,0,1-.05859.145.19562.19562,0,0,1-.14844.062h-.97852A.212.212,0,0,1,26.93147,55.25048Z"/><path class="c" d="M33.60921,51.06982a1.91354,1.91354,0,0,1,.57617,1.53711v2.49463a.205.205,0,0,1-.0586.145.19561.19561,0,0,1-.14843.062h-.97852a.21193.21193,0,0,1-.15234-.05811.19628.19628,0,0,1-.0625-.14892V52.64843a.83149.83149,0,0,0-.93555-.94482h-.53906a4.94762,4.94762,0,0,0-.125,1.21826l.0664,2.17969a.19628.19628,0,0,1-.0625.14892.21193.21193,0,0,1-.15234.05811l-1.75781-.0083a.21405.21405,0,0,1-.15235-.05811.19633.19633,0,0,1-.0625-.14892v-.65479a.19633.19633,0,0,1,.0625-.14892.212.212,0,0,1,.15235-.05811H29.951V52.93017a4.38875,4.38875,0,0,1,.125-1.22656h-.49023a.21367.21367,0,0,1-.15235-.05762.19665.19665,0,0,1-.0625-.14941v-.7124a.19668.19668,0,0,1,.0625-.14942.21409.21409,0,0,1,.15235-.0581h2.3125A2.57391,2.57391,0,0,1,33.60921,51.06982Z"/><path class="c" d="M35.18342,55.25048a.19476.19476,0,0,1-.06054-.14892V50.78418a.19515.19515,0,0,1,.06054-.14942.22216.22216,0,0,1,.1543-.0581h1.03516a.19686.19686,0,0,1,.207.20752v4.31738a.21177.21177,0,0,1-.05664.145.19991.19991,0,0,1-.15039.062H35.33772A.21991.21991,0,0,1,35.18342,55.25048Z"/><path class="c" d="M37.57014,55.25048a.19476.19476,0,0,1-.06054-.14892v-.76221a.20758.20758,0,0,1,.06054-.15332.21149.21149,0,0,1,.1543-.0625h1.20117a.88141.88141,0,0,0,.99414-.93652c.00586-.06641.00977-.14893.00977-.24854,0-.09375-.00391-.17383-.00977-.24023a.88165.88165,0,0,0-.99414-.93653H37.72444a.213.213,0,0,1-.1543-.062.20831.20831,0,0,1-.06054-.15332v-.7622a.19515.19515,0,0,1,.06054-.14942.22216.22216,0,0,1,.1543-.0581h1.24219a2.01516,2.01516,0,0,1,2.29687,2.12988c.00391.061.00781.13818.00781.23193a2.57555,2.57555,0,0,1-.543,1.74854,2.22558,2.22558,0,0,1-1.76172.62158H37.72444A.21991.21991,0,0,1,37.57014,55.25048Z"/><path class="c" d="M42.11116,53.28662a.19512.19512,0,0,1-.06055-.14942v-2.353a.19512.19512,0,0,1,.06055-.14942.22216.22216,0,0,1,.1543-.0581h1.03515a.19686.19686,0,0,1,.207.20752v2.353a.212.212,0,0,1-.05664.14551.19986.19986,0,0,1-.15039.062H42.26546A.22216.22216,0,0,1,42.11116,53.28662Z"/><path class="c" d="M44.96663,54.84863a2.02978,2.02978,0,0,1-.56446-1.53711V50.78418a.19668.19668,0,0,1,.0625-.14942.21409.21409,0,0,1,.15235-.0581H46.7303a2.39533,2.39533,0,0,1,1.707.50586,2.13561,2.13561,0,0,1,.57227,1.49121c.00586.05566.00781.18554.00781.38964,0,.21-.002.34278-.00781.398a2.153,2.153,0,0,1-.5918,1.51221,2.498,2.498,0,0,1-1.76172.51807A2.34589,2.34589,0,0,1,44.96663,54.84863Zm2.46484-.84522a.94775.94775,0,0,0,.23633-.68359c.00586-.05518.00781-.17383.00781-.35645,0-.17675-.002-.293-.00781-.34765a.963.963,0,0,0-.25-.688,1.01521,1.01521,0,0,0-.72852-.22412H45.68733v1.583a.89185.89185,0,0,0,.248.69189,1.01737,1.01737,0,0,0,.71289.228A1.15874,1.15874,0,0,0,47.43147,54.00341Z"/><path class="c" d="M50.908,52.05175c.01172.227.07618.35938.19922.398l.23242.083a.199.199,0,0,1,.10352.09522.33991.33991,0,0,1,.03711.15332l.00781.42236a.21914.21914,0,0,1-.11133.19482.415.415,0,0,1-.26953.0542l-.33984-.0498a1.056,1.056,0,0,1-.71289-.46,1.66206,1.66206,0,0,1-.28125-.99024V50.78418a.271.271,0,0,1,.07031-.14942.17571.17571,0,0,1,.13672-.0581h1.67383a2.1404,2.1404,0,0,1,1.61914.55957,2.35352,2.35352,0,0,1,.584,1.57031,2.2865,2.2865,0,0,1,.00977.23193,2.61742,2.61742,0,0,1-.53125,1.74463,2.08672,2.08672,0,0,1-1.68164.62549H50.07991a.21344.21344,0,0,1-.1543-.05811.19632.19632,0,0,1-.0625-.14892v-.76221a.2092.2092,0,0,1,.0625-.15332.20538.20538,0,0,1,.1543-.0625h1.5332a.99115.99115,0,0,0,.69141-.24414.95959.95959,0,0,0,.293-.69238c.00586-.05469.00976-.1377.00976-.24854a2.38928,2.38928,0,0,0-.00976-.24023.93089.93089,0,0,0-.28516-.6919.99918.99918,0,0,0-.69922-.24463H50.908Z"/></svg>