<svg xmlns="http://www.w3.org/2000/svg" viewBox="0 0 62.81251 83.39762"><defs><style>.a{fill:#fff;}.b{fill:none;stroke:#e2e6e8;stroke-linecap:round;stroke-linejoin:round;stroke-width:1.38336px;}.c{fill:#2d2a28;}</style></defs><rect class="a" width="62.8125" height="83.39761"/><line class="b" x1="32.94633" y1="62.05884" x2="56.69729" y2="62.05883"/><line class="b" x1="20.17861" y1="59.19692" x2="56.69729" y2="59.19692"/><line class="b" x1="15.19052" y1="56.46865" x2="56.69729" y2="56.46865"/><line class="b" x1="10.53907" y1="71.24981" x2="56.69729" y2="71.2498"/><line class="b" x1="7.03643" y1="68.52154" x2="56.69729" y2="68.52154"/><line class="b" x1="7.03643" y1="74.26328" x2="56.69729" y2="74.26327"/><line class="b" x1="23.87137" y1="53.74038" x2="56.69729" y2="53.74038"/><line class="b" x1="32.94633" y1="48.78243" x2="56.69729" y2="48.78243"/><line class="b" x1="20.17861" y1="45.92051" x2="56.69728" y2="45.92051"/><line class="b" x1="15.19052" y1="43.19225" x2="56.69728" y2="43.19224"/><line class="b" x1="23.87137" y1="40.46398" x2="56.69728" y2="40.46398"/><line class="b" x1="23.87137" y1="36.3607" x2="56.69728" y2="36.3607"/><path class="c" d="M16.21638,13.70654a.20552.20552,0,0,1-.05762-.14942V11.104a.83145.83145,0,0,0-.93652-.94434H13.33259a.21807.21807,0,0,1-.15332-.0581.19553.19553,0,0,1-.06152-.14893V9.23974a.19731.19731,0,0,1,.06152-.14941.21983.21983,0,0,1,.15332-.05762h1.93066a2.54137,2.54137,0,0,1,1.71973.50537,1.989,1.989,0,0,1,.57617,1.57471v2.44433a.1947.1947,0,0,1-.0625.14942.216.216,0,0,1-.15332.05762h-.97754A.20358.20358,0,0,1,16.21638,13.70654Zm-3.03711,0a.19733.19733,0,0,1-.06152-.14942V11.1372a.19551.19551,0,0,1,.06152-.14892.218.218,0,0,1,.15332-.05811h.97852a.19971.19971,0,0,1,.207.207v2.41992a.205.205,0,0,1-.0586.145.19241.19241,0,0,1-.14843.062h-.97852A.21768.21768,0,0,1,13.17927,13.70654Z"/><path class="c" d="M21.33357,13.70214a.2061.2061,0,0,1-.15332.062H18.52107a.21441.21441,0,0,1-.15332-.05762.19466.19466,0,0,1-.0625-.14942v-.71289a.19289.19289,0,0,1,.0625-.14892.21473.21473,0,0,1,.15332-.05811h1.375l-.07422-1.63232a1.458,1.458,0,0,0-.166-.69629.56693.56693,0,0,0-.51367-.21533h-.42285a.21281.21281,0,0,1-.207-.207V9.18994a.21551.21551,0,0,1,.05859-.15332.19243.19243,0,0,1,.14844-.062h.44726a2.17747,2.17747,0,0,1,1.57911.48876,2.2654,2.2654,0,0,1,.53418,1.56641l.10839,2.52734A.17352.17352,0,0,1,21.33357,13.70214Z"/><path class="c" d="M24.66462,9.09033a.19468.19468,0,0,1,.0625.14941v.71289a.20544.20544,0,0,1-.21582.207h-.38086a1.27382,1.27382,0,0,0-.15332.42237,2.95169,2.95169,0,0,0-.05371.58838V13.582a.158.158,0,0,1-.07422.12841.26429.26429,0,0,1-.1582.05372h-.96973a.17126.17126,0,0,1-.18164-.18213V11.07959a1.77852,1.77852,0,0,1,.166-.91993h-.62207a.21374.21374,0,0,1-.207-.207V9.23974a.19464.19464,0,0,1,.0625-.14941.20538.20538,0,0,1,.14453-.05762H24.5113A.21649.21649,0,0,1,24.66462,9.09033Z"/><path class="c" d="M28.61286,13.70654a.20555.20555,0,0,1-.05761-.14942V11.104a.83145.83145,0,0,0-.93653-.94434H25.72907a.21811.21811,0,0,1-.15332-.0581.19557.19557,0,0,1-.06152-.14893V9.23974a.19734.19734,0,0,1,.06152-.14941.21986.21986,0,0,1,.15332-.05762h1.93067a2.54134,2.54134,0,0,1,1.71972.50537,1.989,1.989,0,0,1,.57618,1.57471v2.44433a.1947.1947,0,0,1-.0625.14942.21607.21607,0,0,1-.15332.05762h-.97754A.2036.2036,0,0,1,28.61286,13.70654Zm-3.03711,0a.19736.19736,0,0,1-.06152-.14942V11.1372a.19554.19554,0,0,1,.06152-.14892.21807.21807,0,0,1,.15332-.05811h.97852a.1997.1997,0,0,1,.207.207v2.41992a.205.205,0,0,1-.05859.145.19243.19243,0,0,1-.14844.062h-.97852A.21772.21772,0,0,1,25.57575,13.70654Z"/><path class="c" d="M33.13825,13.30419a2.03226,2.03226,0,0,1-.56347-1.5371V9.23974a.19734.19734,0,0,1,.06152-.14941.21983.21983,0,0,1,.15332-.05762H34.9029a2.397,2.397,0,0,1,1.707.50537,2.14119,2.14119,0,0,1,.57227,1.4917c.00488.05518.00781.18506.00781.38965,0,.21-.00293.34228-.00781.39746a2.15258,2.15258,0,0,1-.59277,1.51221,2.49532,2.49532,0,0,1-1.76075.51806A2.34625,2.34625,0,0,1,33.13825,13.30419ZM35.6031,12.459a.94277.94277,0,0,0,.23633-.68359q.00879-.08277.00878-.356,0-.26514-.00878-.34815a.96347.96347,0,0,0-.249-.688,1.01669,1.01669,0,0,0-.72851-.22364H33.859v1.58252a.89225.89225,0,0,0,.249.6919,1.0125,1.0125,0,0,0,.71191.228A1.1571,1.1571,0,0,0,35.6031,12.459Z"/><path class="c" d="M39.07868,10.50732c.01172.22705.07715.35937.19922.39795l.23242.083a.19554.19554,0,0,1,.10352.09521.32784.32784,0,0,1,.03711.15332l.00781.42285a.219.219,0,0,1-.11133.19434.40958.40958,0,0,1-.26953.0542l-.33984-.04981a1.05592,1.05592,0,0,1-.71289-.46,1.65994,1.65994,0,0,1-.28125-.99023V9.23974a.28854.28854,0,0,1,.07031-.14941.17986.17986,0,0,1,.13672-.05762h1.67383a2.1445,2.1445,0,0,1,1.62011.55908,2.35843,2.35843,0,0,1,.584,1.57032c.00586.05517.00879.13281.00879.23193a2.62242,2.62242,0,0,1-.53028,1.74463,2.09023,2.09023,0,0,1-1.68261.62549H38.25056a.21442.21442,0,0,1-.15332-.05762.1947.1947,0,0,1-.0625-.14942v-.7622a.21262.21262,0,0,1,.21582-.21533h1.5332a.99151.99151,0,0,0,.69141-.24463.96381.96381,0,0,0,.29394-.6919q.00879-.08276.00879-.249,0-.15674-.00879-.24024a.939.939,0,0,0-.28515-.69189,1.00391,1.00391,0,0,0-.7002-.24463h-.70508Z"/><path class="c" d="M42.91169,13.70654a.19736.19736,0,0,1-.06152-.14942V9.23974a.19734.19734,0,0,1,.06152-.14941.21983.21983,0,0,1,.15332-.05762h1.03613a.19755.19755,0,0,1,.207.207v4.31738a.20829.20829,0,0,1-.05762.145.196.196,0,0,1-.14942.062H43.065A.21768.21768,0,0,1,42.91169,13.70654Z"/><path class="c" d="M45.82087,13.30859a1.98586,1.98586,0,0,1-.57617-1.5249v-2.544a.19468.19468,0,0,1,.0625-.14941.20708.20708,0,0,1,.14453-.05762H46.314a.21986.21986,0,0,1,.15332.05762.19734.19734,0,0,1,.06152.14941v2.50244a.85511.85511,0,0,0,.26953.6919,1.1247,1.1247,0,0,0,.75.228q.92871,0,.93652-.88672a1.73261,1.73261,0,0,0,.00391-.22364c-.00293-.09375-.00391-.16552-.00391-.21533V11.1538a1.49918,1.49918,0,0,0-.15722-.72509.47322.47322,0,0,0-.43067-.25244.96455.96455,0,0,0-.24511.0332.81146.81146,0,0,0-.21094.08252.262.262,0,0,1-.07422.0166.17561.17561,0,0,1-.12891-.05371.184.184,0,0,1-.05371-.13672V9.46337a.32671.32671,0,0,1,.15723-.30664,1.56868,1.56868,0,0,1,.7959-.15722,1.6022,1.6022,0,0,1,1.30468.47656,2.34138,2.34138,0,0,1,.41016,1.4707v.87012q-.09082,2.03028-2.30371,2.03027A2.44908,2.44908,0,0,1,45.82087,13.30859Z"/><path class="c" d="M10.63923,25.57617a.19587.19587,0,0,1-.06152-.14942v-2.353a.19587.19587,0,0,1,.06152-.14942.21807.21807,0,0,1,.15332-.0581h1.03613a.19826.19826,0,0,1,.207.20752v2.353a.20742.20742,0,0,1-.05761.145.19638.19638,0,0,1-.14942.0625H10.79255A.21807.21807,0,0,1,10.63923,25.57617Z"/><path class="c" d="M12.88532,27.53564a.19913.19913,0,0,1-.0625-.14453v-.71289a.19818.19818,0,0,1,.0625-.14942.20777.20777,0,0,1,.14551-.05761h2.0791V24.938a.82734.82734,0,0,0-.93554-.93652H13.11286a.19244.19244,0,0,1-.14843-.062.21469.21469,0,0,1-.0586-.15332v-.7124a.19327.19327,0,0,1,.0625-.14942.2055.2055,0,0,1,.14453-.0581H14.2154a2.70381,2.70381,0,0,1,1.75293.48877,1.94066,1.94066,0,0,1,.5918,1.583v1.53321h.29a.199.199,0,0,1,.208.207v.71289a.20307.20307,0,0,1-.0586.14453.19349.19349,0,0,1-.14941.0625H13.03083A.19859.19859,0,0,1,12.88532,27.53564Z"/><path class="c" d="M17.71638,25.57617a.19587.19587,0,0,1-.06152-.14942v-2.353a.19587.19587,0,0,1,.06152-.14942.21807.21807,0,0,1,.15332-.0581h1.03613a.19826.19826,0,0,1,.207.20752v2.353a.20742.20742,0,0,1-.05761.145.19639.19639,0,0,1-.14942.0625H17.8697A.21807.21807,0,0,1,17.71638,25.57617Z"/><path class="c" d="M20.59236,27.14209a1.98547,1.98547,0,0,1-.57618-1.52442V23.07373a.19327.19327,0,0,1,.0625-.14942.2055.2055,0,0,1,.14453-.0581h.86231a.21807.21807,0,0,1,.15332.0581.19587.19587,0,0,1,.06152.14942v2.50244a.85577.85577,0,0,0,.26953.69189,1.12717,1.12717,0,0,0,.75.22754q.92872,0,.93653-.88623a1.74076,1.74076,0,0,0,.0039-.22412c-.00293-.09375-.0039-.16553-.0039-.21533v-.18213a1.49644,1.49644,0,0,0-.15723-.7251.47365.47365,0,0,0-.43066-.25293.98705.98705,0,0,0-.24512.0332.7948.7948,0,0,0-.21094.083.262.262,0,0,1-.07422.0166.176.176,0,0,1-.1289-.0542.18314.18314,0,0,1-.05371-.13671v-.6543a.32619.32619,0,0,1,.15722-.30664,1.56287,1.56287,0,0,1,.7959-.15772,1.60377,1.60377,0,0,1,1.30469.47657,2.34406,2.34406,0,0,1,.41016,1.47119v.87011q-.09082,2.03028-2.30372,2.03028A2.44688,2.44688,0,0,1,20.59236,27.14209Z"/><path class="c" d="M27.49958,27.64794a.24072.24072,0,0,1-.0664-.166V26.645a.24951.24951,0,0,1,.05761-.15723.3237.3237,0,0,1,.14942-.10791L27.897,26.272a1.218,1.218,0,0,0,.82813-1.28418,1.0938,1.0938,0,0,0-.18653-.72949.89858.89858,0,0,0-.68359-.207H25.651a.211.211,0,0,1-.21484-.21534v-.771a.17856.17856,0,0,1,.0664-.14063.22.22,0,0,1,.14844-.0581h2.49414a2.0109,2.0109,0,0,1,1.5498.51806,2.25023,2.25023,0,0,1,.47266,1.562,2.43445,2.43445,0,0,1-.62207,1.72364,3.29729,3.29729,0,0,1-1.55762.93652l-.33984.09912A.15.15,0,0,1,27.49958,27.64794Zm-2.002,1.47461a.19549.19549,0,0,1-.06152-.14892V24.97119a.19734.19734,0,0,1,.06152-.14942.21986.21986,0,0,1,.15332-.05761h.94531a.19895.19895,0,0,1,.207.207v4.00244a.20046.20046,0,0,1-.05859.14892.19824.19824,0,0,1-.14844.05811H25.651A.21589.21589,0,0,1,25.49763,29.12255Z"/><path class="c" d="M35.38728,27.42382a.17381.17381,0,0,1-.04981.12061.16228.16228,0,0,1-.124.05371H34.19392a.27628.27628,0,0,1-.22363-.0791c-.04395-.05225-.06934-.08106-.07422-.08692l-1.4502-2.09619a.92387.92387,0,0,0-.28223.45557,2.194,2.194,0,0,0-.0664.54687v1.03614a.21865.21865,0,0,1-.06153.16113.20962.20962,0,0,1-.15332.0625h-.8125a.19346.19346,0,0,1-.1455-.06641.223.223,0,0,1-.06153-.15722V26.34668a2.90668,2.90668,0,0,1,.19043-1.14356,2.11084,2.11084,0,0,1,.72071-.82861l-.84473-1.21826a.1725.1725,0,0,1-.042-.11573.18531.18531,0,0,1,.17383-.17431h.97851a.27724.27724,0,0,1,.17774.0498.61537.61537,0,0,1,.12011.13233l1.334,1.88964a.73167.73167,0,0,0,.29492-.36474,1.60576,1.60576,0,0,0,.06152-.47217V23.09033a.228.228,0,0,1,.0586-.16211.1941.1941,0,0,1,.14843-.062h.87012a.19938.19938,0,0,1,.15332.0664.221.221,0,0,1,.0625.15772v1.04394a2.18328,2.18328,0,0,1-.21094.96534,1.989,1.989,0,0,1-.7666.7832l1.01074,1.42529A.20119.20119,0,0,1,35.38728,27.42382Z"/><path class="c" d="M36.31989,27.54a.19553.19553,0,0,1-.06152-.14892V23.07373a.1959.1959,0,0,1,.06152-.14942.21811.21811,0,0,1,.15332-.0581h1.03614a.19828.19828,0,0,1,.207.20752v4.31738a.20627.20627,0,0,1-.05762.14453.1964.1964,0,0,1-.14941.0625H36.47321A.21807.21807,0,0,1,36.31989,27.54Z"/><path class="c" d="M41.00154,27.54a.19287.19287,0,0,1-.0625-.14892V24.938a.83121.83121,0,0,0-.93653-.94482H38.74372a.19809.19809,0,0,1-.14551-.062.201.201,0,0,1-.0625-.145v-.7124a.19668.19668,0,0,1,.0625-.14942.20611.20611,0,0,1,.14551-.0581h1.3086a2.64762,2.64762,0,0,1,1.71972.47216,1.91226,1.91226,0,0,1,.56739,1.54981v2.50293a.20631.20631,0,0,1-.05762.14453.19641.19641,0,0,1-.14942.0625h-.97753A.21637.21637,0,0,1,41.00154,27.54Z"/><path class="c" d="M43.81111,27.14209a1.98547,1.98547,0,0,1-.57618-1.52442V23.07373a.19327.19327,0,0,1,.0625-.14942.2055.2055,0,0,1,.14453-.0581h.86231a.21807.21807,0,0,1,.15332.0581.19587.19587,0,0,1,.06152.14942v2.50244a.85577.85577,0,0,0,.26953.69189,1.12717,1.12717,0,0,0,.75.22754q.92873,0,.93653-.88623a1.74076,1.74076,0,0,0,.0039-.22412c-.00293-.09375-.0039-.16553-.0039-.21533v-.18213a1.49644,1.49644,0,0,0-.15723-.7251.47365.47365,0,0,0-.43066-.25293.98705.98705,0,0,0-.24512.0332.7948.7948,0,0,0-.21094.083.262.262,0,0,1-.07422.0166.176.176,0,0,1-.1289-.0542.18314.18314,0,0,1-.05371-.13671v-.6543a.32619.32619,0,0,1,.15722-.30664,1.56287,1.56287,0,0,1,.7959-.15772,1.60377,1.60377,0,0,1,1.30469.47657,2.34406,2.34406,0,0,1,.41016,1.47119v.87011q-.09082,2.03028-2.30372,2.03028A2.44688,2.44688,0,0,1,43.81111,27.14209Z"/><path class="c" d="M50.89607,27.54a.19287.19287,0,0,1-.0625-.14892V24.938a.83121.83121,0,0,0-.93653-.94482H48.63825a.19806.19806,0,0,1-.1455-.062.201.201,0,0,1-.0625-.145v-.7124a.19664.19664,0,0,1,.0625-.14942.20607.20607,0,0,1,.1455-.0581h1.3086a2.64762,2.64762,0,0,1,1.71972.47216,1.91226,1.91226,0,0,1,.56739,1.54981v2.50293a.20627.20627,0,0,1-.05762.14453.1964.1964,0,0,1-.14941.0625h-.97754A.21637.21637,0,0,1,50.89607,27.54Z"/></svg>