<svg xmlns="http://www.w3.org/2000/svg" viewBox="0 0 77.80559 36.04194"><defs><style>.a{fill:#d2d2d2;}</style></defs><rect class="a" x="0.00001" y="0.00002" width="77.80557" height="36.04191"/><path d="M23.2094,9.33655a2.25641,2.25641,0,0,1,.47266,1.5625,2.43235,2.43235,0,0,1-.623,1.72363,3.29334,3.29334,0,0,1-1.55664.93555l-.33984.09961a.16055.16055,0,0,1-.1543-.05762.2357.2357,0,0,1-.07031-.166v-.83692a.23583.23583,0,0,1,.05859-.15332.40769.40769,0,0,1,.14844-.11133l.26562-.10839a1.3404,1.3404,0,0,0,.60156-.44336,1.38425,1.38425,0,0,0,.21875-.84082,1.12111,1.12111,0,0,0-.18164-.7295.884.884,0,0,0-.67968-.207h-.21485l-1.11133-.00781a.20044.20044,0,0,1-.207-.207v-1.915a.19454.19454,0,0,1,.0625-.14844.20389.20389,0,0,1,.14453-.05859h.89454a.19752.19752,0,0,1,.207.207V8.819h.51367A2.015,2.015,0,0,1,23.2094,9.33655Z"/><path d="M28.73674,8.87659a.20234.20234,0,0,1,.0586.14941v2.45313a1.79962,1.79962,0,0,1-.57227,1.3623,3.03721,3.03721,0,0,1-1.60742.72559l-2.12109.44727a.19171.19171,0,0,1-.16211-.041.18594.18594,0,0,1-.07032-.14941v-.72071a.21881.21881,0,0,1,.05274-.14551.24268.24268,0,0,1,.13672-.07812l.91992-.22363L24.395,9.15a.94766.94766,0,0,1-.043-.166.17213.17213,0,0,1,.166-.165h1.07813a.1983.1983,0,0,1,.123.03711.17053.17053,0,0,1,.0664.08692l.83008,3.38964a1.14983,1.14983,0,0,0,.61328-.46875,1.64421,1.64421,0,0,0,.166-.7998V9.026a.20094.20094,0,0,1,.05664-.14941A.20467.20467,0,0,1,27.602,8.819h.98437A.20467.20467,0,0,1,28.73674,8.87659Z"/><path d="M34.561,13.4928a.20886.20886,0,0,1-.05664-.14941V10.89026a.83154.83154,0,0,0-.9375-.94433H31.67815a.22037.22037,0,0,1-.1543-.0586.193.193,0,0,1-.06054-.14844V9.026a.19658.19658,0,0,1,.06054-.14941.224.224,0,0,1,.1543-.05762h1.92969a2.54409,2.54409,0,0,1,1.7207.50489,1.99485,1.99485,0,0,1,.57617,1.57519v2.44434a.19812.19812,0,0,1-.0625.14941.22054.22054,0,0,1-.15429.05762h-.97657A.20785.20785,0,0,1,34.561,13.4928Zm-3.03711,0a.19658.19658,0,0,1-.06054-.14941V10.92347a.19659.19659,0,0,1,.06054-.14942.224.224,0,0,1,.1543-.05762h.97852a.199.199,0,0,1,.207.207v2.41992a.20386.20386,0,0,1-.0586.14453.19259.19259,0,0,1-.14843.0625h-.97852A.224.224,0,0,1,31.52385,13.4928Z"/><path d="M39.02385,13.4928a.19815.19815,0,0,1-.0625-.14941V10.89026a.83017.83017,0,0,0-.93554-.94433H36.766a.19616.19616,0,0,1-.14453-.0625.19991.19991,0,0,1-.0625-.14454V9.026a.19812.19812,0,0,1,.0625-.14941A.2071.2071,0,0,1,36.766,8.819h1.30859a2.6489,2.6489,0,0,1,1.72071.47168,1.91509,1.91509,0,0,1,.5664,1.54981v2.50293a.21058.21058,0,0,1-.05664.14453.19679.19679,0,0,1-.15039.0625h-.97656A.22057.22057,0,0,1,39.02385,13.4928Z"/><path d="M44.3969,13.4928a.20886.20886,0,0,1-.05664-.14941V10.89026a.83154.83154,0,0,0-.9375-.94433H41.51409a.22037.22037,0,0,1-.1543-.0586.193.193,0,0,1-.06055-.14844V9.026a.19659.19659,0,0,1,.06055-.14941.224.224,0,0,1,.1543-.05762h1.92969a2.54411,2.54411,0,0,1,1.7207.50489,1.99485,1.99485,0,0,1,.57617,1.57519v2.44434a.19812.19812,0,0,1-.0625.14941.22057.22057,0,0,1-.1543.05762h-.97656A.20781.20781,0,0,1,44.3969,13.4928Zm-3.03711,0a.19659.19659,0,0,1-.06055-.14941V10.92347a.19659.19659,0,0,1,.06055-.14942.224.224,0,0,1,.1543-.05762h.97851a.199.199,0,0,1,.207.207v2.41992a.20389.20389,0,0,1-.05859.14453.1926.1926,0,0,1-.14844.0625h-.97851A.224.224,0,0,1,41.35979,13.4928Z"/><path d="M50.42229,10.76233a2.03151,2.03151,0,0,1-.72851.749l.64648.88671a.85224.85224,0,0,1,.07812.125.32631.32631,0,0,1,.0293.14844v.67188a.20389.20389,0,0,1-.05859.14453.1926.1926,0,0,1-.14844.0625H46.87542a.19618.19618,0,0,1-.14454-.0625.2.2,0,0,1-.0625-.14453v-.73731a.19665.19665,0,0,1,.0625-.14941.2039.2039,0,0,1,.14454-.0586h1.94726L46.41253,9.11682a.28507.28507,0,0,1-.05079-.13281.14912.14912,0,0,1,.05469-.12012.18882.18882,0,0,1,.127-.04492h1.0293a.30389.30389,0,0,1,.26367.14942l1.16016,1.59082a1.31048,1.31048,0,0,0,.38086-1.05274V9.04261a.2224.2224,0,0,1,.0625-.16211.21134.21134,0,0,1,.1543-.06153h.86914a.19379.19379,0,0,1,.14648.06641.22214.22214,0,0,1,.06055.15723V9.7555A2.05122,2.05122,0,0,1,50.42229,10.76233Z"/><path d="M54.65667,13.4928a.20234.20234,0,0,1-.0586-.14941V10.89026a.831.831,0,0,0-.93554-.94433H51.7719a.21236.21236,0,0,1-.15234-.0586.19449.19449,0,0,1-.0625-.14844V9.026a.19812.19812,0,0,1,.0625-.14941A.21575.21575,0,0,1,51.7719,8.819h1.93164a2.53847,2.53847,0,0,1,1.71875.50489,1.98816,1.98816,0,0,1,.57617,1.57519v2.44434a.19136.19136,0,0,1-.0625.14941.21575.21575,0,0,1-.15234.05762H54.8051A.2032.2032,0,0,1,54.65667,13.4928Zm-3.03711,0a.19812.19812,0,0,1-.0625-.14941V10.92347a.19812.19812,0,0,1,.0625-.14942.21579.21579,0,0,1,.15234-.05762h.97852a.20014.20014,0,0,1,.14843.05762.20235.20235,0,0,1,.0586.14942v2.41992a.20386.20386,0,0,1-.0586.14453.18977.18977,0,0,1-.14843.0625H51.7719A.21575.21575,0,0,1,51.61956,13.4928Z"/><path d="M15.436,28.35315a.193.193,0,0,1-.06054-.14843V22.86a.19516.19516,0,0,1,.06054-.14942.22036.22036,0,0,1,.1543-.05859h.97852a.20049.20049,0,0,1,.207.208v5.34473a.20045.20045,0,0,1-.207.207h-.97852A.22033.22033,0,0,1,15.436,28.35315Z"/><path d="M17.78948,25.36194a.19366.19366,0,0,1-.06055-.14941V22.86a.19514.19514,0,0,1,.06055-.14942.22036.22036,0,0,1,.1543-.05859h1.03515a.20462.20462,0,0,1,.15039.05859A.20728.20728,0,0,1,19.186,22.86v2.35254a.2112.2112,0,0,1-.05664.14551.19679.19679,0,0,1-.15039.0625H17.94378A.22037.22037,0,0,1,17.78948,25.36194Z"/><path d="M21.21721,24.12757c.01172.22656.07617.35937.19922.39746l.23242.083a.2.2,0,0,1,.10352.0957.33835.33835,0,0,1,.03711.15332l.00781.42187a.21992.21992,0,0,1-.11133.19532.418.418,0,0,1-.26953.05371l-.33984-.04981a1.05255,1.05255,0,0,1-.71289-.46,1.662,1.662,0,0,1-.28125-.99023V22.86a.271.271,0,0,1,.07031-.14942.17449.17449,0,0,1,.13672-.05859h1.67383a2.1404,2.1404,0,0,1,1.61914.55957,2.35356,2.35356,0,0,1,.584,1.57031,2.29786,2.29786,0,0,1,.00977.23243,2.61605,2.61605,0,0,1-.53125,1.74414,2.08692,2.08692,0,0,1-1.68164.626H20.38909a.21384.21384,0,0,1-.1543-.05859.19454.19454,0,0,1-.0625-.14844v-.76269a.21346.21346,0,0,1,.2168-.21582h1.5332a.98894.98894,0,0,0,.69141-.24414.95819.95819,0,0,0,.293-.69141c.00586-.05567.00976-.13867.00976-.249a2.38951,2.38951,0,0,0-.00976-.24024.93118.93118,0,0,0-.28516-.69238,1.00338,1.00338,0,0,0-.69922-.24414h-.70508Z"/><path d="M27.22893,27.32581a.188.188,0,0,1-.0625-.14844V24.72425a.83224.83224,0,0,0-.9375-.94532H24.97112a.2.2,0,0,1-.14649-.06152.20208.20208,0,0,1-.0625-.14551V22.86a.19669.19669,0,0,1,.0625-.14942.20513.20513,0,0,1,.14649-.05859h1.30859a2.64633,2.64633,0,0,1,1.71875.47266,1.9094,1.9094,0,0,1,.56836,1.5498v2.50293a.20385.20385,0,0,1-.05859.14453.196.196,0,0,1-.14844.0625h-.97851A.2124.2124,0,0,1,27.22893,27.32581Z"/><path d="M29.56487,27.32581a.193.193,0,0,1-.06055-.14844V22.86a.19514.19514,0,0,1,.06055-.14942.22036.22036,0,0,1,.1543-.05859h1.03515a.20462.20462,0,0,1,.15039.05859.20728.20728,0,0,1,.05664.14942v4.31738a.21054.21054,0,0,1-.05664.14453.20026.20026,0,0,1-.15039.0625H29.71917A.22036.22036,0,0,1,29.56487,27.32581Z"/><path d="M36.11565,23.15784a2.00134,2.00134,0,0,1,.5293,1.5166v2.50293a.2034.2034,0,0,1-.207.207H34.1762a.21374.21374,0,0,1-.207-.207v-.71289a.1981.1981,0,0,1,.0625-.14941.20708.20708,0,0,1,.14453-.05762h1.06836v-1.5166a.99215.99215,0,0,0-.207-.6709.67309.67309,0,0,0-.53711-.24023h-.64649l-.70508,3.33886a.248.248,0,0,1-.0664.15332.196.196,0,0,1-.14844.0625h-.95313a.2154.2154,0,0,1-.15429-.0625.16141.16141,0,0,1-.04492-.15332l.8125-3.331h-.54688a.19679.19679,0,0,1-.15039-.0625.22015.22015,0,0,1-.05664-.15332V22.86a.19514.19514,0,0,1,.06055-.14942.20841.20841,0,0,1,.14648-.05859h2.66016A1.95886,1.95886,0,0,1,36.11565,23.15784Z"/><path d="M43.71917,23.14514a1.92067,1.92067,0,0,1,.57421,1.53809v2.49414a.20192.20192,0,0,1-.05664.14453.19727.19727,0,0,1-.15039.0625h-.97656a.21706.21706,0,0,1-.1543-.05859.19454.19454,0,0,1-.0625-.14844V24.72425a.83087.83087,0,0,0-.93554-.94532h-.53907a5.0478,5.0478,0,0,0-.123,1.21875l.0664,2.17969a.19451.19451,0,0,1-.0625.14844.217.217,0,0,1-.15429.05859l-1.75586-.00879a.21629.21629,0,0,1-.1543-.05761.19668.19668,0,0,1-.0625-.14942v-.65429a.19816.19816,0,0,1,.0625-.14942.2163.2163,0,0,1,.1543-.05762H40.059V25.0055a4.54365,4.54365,0,0,1,.125-1.22657h-.48828a.21629.21629,0,0,1-.1543-.05761.1952.1952,0,0,1-.0625-.14942V22.86a.19669.19669,0,0,1,.0625-.14942.21706.21706,0,0,1,.1543-.05859h2.31055A2.57882,2.57882,0,0,1,43.71917,23.14514Z"/><path d="M45.2426,27.32581a.193.193,0,0,1-.06054-.14844v-.76269a.20831.20831,0,0,1,.06054-.15332.21541.21541,0,0,1,.1543-.0625h1.20117a.88094.88094,0,0,0,.99414-.93555c.00586-.06641.00977-.14942.00977-.249,0-.09375-.00391-.17383-.00977-.24024a.88164.88164,0,0,0-.99414-.93652H45.3969a.21149.21149,0,0,1-.1543-.0625.20681.20681,0,0,1-.06054-.15332V22.86a.19516.19516,0,0,1,.06054-.14942.22036.22036,0,0,1,.1543-.05859h1.24219A2.01562,2.01562,0,0,1,48.936,24.78186c.00391.06153.00782.13868.00782.23243a2.575,2.575,0,0,1-.543,1.748,2.224,2.224,0,0,1-1.76172.62207H45.3969A.22036.22036,0,0,1,45.2426,27.32581Z"/><path d="M49.78362,25.36194a.19366.19366,0,0,1-.06055-.14941V22.86a.19514.19514,0,0,1,.06055-.14942.22036.22036,0,0,1,.1543-.05859h1.03515a.20462.20462,0,0,1,.15039.05859.20728.20728,0,0,1,.05664.14942v2.35254a.2112.2112,0,0,1-.05664.14551.19679.19679,0,0,1-.15039.0625H49.93792A.22037.22037,0,0,1,49.78362,25.36194Z"/><path d="M54.434,27.32581a.188.188,0,0,1-.0625-.14844V24.72425a.83224.83224,0,0,0-.9375-.94532H52.1762a.2.2,0,0,1-.14649-.06152.20208.20208,0,0,1-.0625-.14551V22.86a.19669.19669,0,0,1,.0625-.14942.20513.20513,0,0,1,.14649-.05859h1.30859a2.64635,2.64635,0,0,1,1.71875.47266,1.9094,1.9094,0,0,1,.56836,1.5498v2.50293a.20385.20385,0,0,1-.05859.14453.196.196,0,0,1-.14844.0625h-.97852A.21239.21239,0,0,1,54.434,27.32581Z"/><path d="M60.46135,24.59534a2.02657,2.02657,0,0,1-.72851.75l.64648.88672a.851.851,0,0,1,.07813.125.32639.32639,0,0,1,.02929.14844v.67187a.20385.20385,0,0,1-.05859.14453.196.196,0,0,1-.14844.0625H56.91448a.21374.21374,0,0,1-.207-.207v-.73828a.19451.19451,0,0,1,.0625-.14844.20385.20385,0,0,1,.14453-.05859h1.94726l-2.41015-3.28125a.28511.28511,0,0,1-.05078-.13281.1465.1465,0,0,1,.05468-.12012.18964.18964,0,0,1,.127-.0459h1.02929a.30392.30392,0,0,1,.26368.14941l1.16015,1.59083a1.30691,1.30691,0,0,0,.38086-1.05176v-.46387a.22245.22245,0,0,1,.0625-.16211.21222.21222,0,0,1,.1543-.0625h.86914a.19722.19722,0,0,1,.14648.06641.22447.22447,0,0,1,.06055.1582v.71191A2.04856,2.04856,0,0,1,60.46135,24.59534Z"/></svg>