<svg xmlns="http://www.w3.org/2000/svg" viewBox="0 0 62.81251 83.39762"><defs><style>.a{fill:#fff;}.b{fill:#2d2a28;}</style></defs><rect class="a" width="62.8125" height="83.39761"/><path class="b" d="M15.19742,11.78622a.19662.19662,0,0,1-.06152-.14941V9.28329a.19553.19553,0,0,1,.06152-.14892.218.218,0,0,1,.15332-.05811h1.03613a.19826.19826,0,0,1,.207.207v2.35352a.20832.20832,0,0,1-.05762.145.196.196,0,0,1-.14942.062H15.35074A.21764.21764,0,0,1,15.19742,11.78622Z"/><path class="b" d="M17.60074,13.75009a.1959.1959,0,0,1-.06152-.14942V9.28329a.19553.19553,0,0,1,.06152-.14892.218.218,0,0,1,.15332-.05811h1.03613a.19826.19826,0,0,1,.207.207v4.31738a.20743.20743,0,0,1-.05762.145.196.196,0,0,1-.14942.062H17.75406A.21768.21768,0,0,1,17.60074,13.75009Z"/><path class="b" d="M22.82144,13.74569a.20607.20607,0,0,1-.15332.062H20.00894a.21444.21444,0,0,1-.15332-.05762.19327.19327,0,0,1-.0625-.14942v-.7124a.19325.19325,0,0,1,.0625-.14941.21477.21477,0,0,1,.15332-.05811h1.375l-.07421-1.63232a1.45425,1.45425,0,0,0-.166-.6958.56714.56714,0,0,0-.51367-.21582h-.42285a.21281.21281,0,0,1-.207-.207V9.23349a.21551.21551,0,0,1,.05859-.15332.19411.19411,0,0,1,.14844-.062h.44726a2.17745,2.17745,0,0,1,1.5791.48877,2.26622,2.26622,0,0,1,.53418,1.56641l.1084,2.52734A.173.173,0,0,1,22.82144,13.74569Z"/><path class="b" d="M23.68277,11.78622a.19662.19662,0,0,1-.06152-.14941V9.28329a.19553.19553,0,0,1,.06152-.14892.21805.21805,0,0,1,.15332-.05811h1.03614a.19826.19826,0,0,1,.207.207v2.35352a.20828.20828,0,0,1-.05762.145.196.196,0,0,1-.14941.062H23.83609A.21766.21766,0,0,1,23.68277,11.78622Z"/><path class="b" d="M30.20035,9.58163a2.00241,2.00241,0,0,1,.53027,1.5166v2.50244a.20321.20321,0,0,1-.05761.145.196.196,0,0,1-.14942.062H28.26187a.211.211,0,0,1-.207-.207v-.7124a.19585.19585,0,0,1,.06153-.14941.20772.20772,0,0,1,.1455-.05811h1.06836V11.16464a.99265.99265,0,0,0-.207-.67139.67642.67642,0,0,0-.53808-.24023h-.64649l-.7041,3.33935a.25609.25609,0,0,1-.06641.15332.196.196,0,0,1-.14941.062h-.95313a.20919.20919,0,0,1-.15332-.062.165.165,0,0,1-.04589-.15332l.8125-3.33105H26.132a.19774.19774,0,0,1-.14941-.062A.219.219,0,0,1,25.925,10.046v-.7627a.19553.19553,0,0,1,.06152-.14892.20776.20776,0,0,1,.14551-.05811h2.66016A1.957,1.957,0,0,1,30.20035,9.58163Z"/><path class="b" d="M33.30387,13.74569a.20014.20014,0,0,1-.0625-.145v-.7124a.19662.19662,0,0,1,.0625-.14941.206.206,0,0,1,.1455-.05811h2.07911V11.148a.82716.82716,0,0,0-.93555-.93653H33.53141a.1941.1941,0,0,1-.14844-.062.21552.21552,0,0,1-.0586-.15332V9.28329a.19291.19291,0,0,1,.0625-.14892.20547.20547,0,0,1,.14454-.05811h1.10253a2.70385,2.70385,0,0,1,1.75293.48877,1.94065,1.94065,0,0,1,.5918,1.583v1.53271h.29a.1998.1998,0,0,1,.208.20752v.7124a.20413.20413,0,0,1-.0586.145.19308.19308,0,0,1-.14941.062H33.44937A.198.198,0,0,1,33.30387,13.74569Z"/><path class="b" d="M42.58512,9.56942a1.915,1.915,0,0,1,.57519,1.53711v2.49414a.20318.20318,0,0,1-.05762.145.19452.19452,0,0,1-.14941.062h-.97754a.21605.21605,0,0,1-.15332-.05762.19668.19668,0,0,1-.0625-.14942V11.148a.83091.83091,0,0,0-.93555-.94483h-.53906a4.99389,4.99389,0,0,0-.124,1.21826l.0664,2.1792a.19664.19664,0,0,1-.0625.14942.216.216,0,0,1-.15332.05762L38.255,13.79989a.21641.21641,0,0,1-.15332-.0581.19664.19664,0,0,1-.0625-.14942v-.65478a.19632.19632,0,0,1,.0625-.14893.21641.21641,0,0,1,.15332-.0581h.6709V11.42978a4.46039,4.46039,0,0,1,.125-1.22657h-.48926a.21641.21641,0,0,1-.15332-.0581.19632.19632,0,0,1-.0625-.14893V9.28329a.19628.19628,0,0,1,.0625-.14892.21637.21637,0,0,1,.15332-.05811H40.8732A2.575,2.575,0,0,1,42.58512,9.56942Z"/><path class="b" d="M44.10953,13.75009a.19587.19587,0,0,1-.06152-.14942v-.7622a.211.211,0,0,1,.21484-.21534H45.465a.88208.88208,0,0,0,.99414-.93652c.00586-.0664.00879-.14941.00879-.24853,0-.09424-.00293-.17432-.00879-.24073a.88173.88173,0,0,0-.99414-.936H44.26285A.211.211,0,0,1,44.048,10.046v-.7627a.19549.19549,0,0,1,.06152-.14892.218.218,0,0,1,.15332-.05811H45.506a2.01484,2.01484,0,0,1,2.2959,2.12988c.00489.06055.00782.1377.00782.23194a2.57139,2.57139,0,0,1-.543,1.74853,2.22487,2.22487,0,0,1-1.76075.6211H44.26285A.21768.21768,0,0,1,44.10953,13.75009Z"/><path class="b" d="M8.07535,27.58358a.19549.19549,0,0,1-.06152-.14892V23.11728a.19733.19733,0,0,1,.06152-.14942.21768.21768,0,0,1,.15332-.05762h1.88086a2.51591,2.51591,0,0,1,1.67871.47608,1.9557,1.9557,0,0,1,.55078,1.5542v2.48584a.21262.21262,0,0,1-.21582.21533H8.22867A.218.218,0,0,1,8.07535,27.58358ZM11.005,26.51474V24.98153a.83125.83125,0,0,0-.93653-.94433H9.27262v2.47754Z"/><path class="b" d="M13.30387,25.61972a.19554.19554,0,0,1-.06153-.14893V23.11728a.19734.19734,0,0,1,.06153-.14942.21768.21768,0,0,1,.15332-.05762h1.03613a.19755.19755,0,0,1,.207.207v2.35351a.20623.20623,0,0,1-.05762.14453.19468.19468,0,0,1-.14941.0625H13.45719A.21807.21807,0,0,1,13.30387,25.61972Z"/><path class="b" d="M19.82144,23.41562a2.00049,2.00049,0,0,1,.53028,1.51611v2.50293a.20407.20407,0,0,1-.05762.145.196.196,0,0,1-.14941.062H17.883a.211.211,0,0,1-.207-.207v-.71289a.19553.19553,0,0,1,.06152-.14893.20776.20776,0,0,1,.14551-.0581h1.06836V24.99813a.99212.99212,0,0,0-.207-.67089.67643.67643,0,0,0-.53809-.24024h-.64648l-.70411,3.33936a.25619.25619,0,0,1-.0664.15332.196.196,0,0,1-.14942.062h-.95312a.20919.20919,0,0,1-.15332-.062.165.165,0,0,1-.0459-.15332L16.3,24.09481h-.54688a.196.196,0,0,1-.14941-.062.21814.21814,0,0,1-.05762-.15332v-.7622a.19734.19734,0,0,1,.06153-.14942.20728.20728,0,0,1,.1455-.05762h2.66016A1.95693,1.95693,0,0,1,19.82144,23.41562Z"/><path class="b" d="M21.7941,27.18173a2.033,2.033,0,0,1-.56348-1.53711V23.11728a.19734.19734,0,0,1,.06153-.14942.21768.21768,0,0,1,.15332-.05762h2.11328a2.397,2.397,0,0,1,1.707.50538,2.14033,2.14033,0,0,1,.57227,1.49169c.00488.05518.00781.18506.00781.38916,0,.21-.00293.34278-.00781.398a2.15256,2.15256,0,0,1-.59278,1.51221,2.49524,2.49524,0,0,1-1.76074.51807A2.34843,2.34843,0,0,1,21.7941,27.18173Zm2.46484-.84522a.94354.94354,0,0,0,.23633-.68359c.00586-.05518.00879-.17432.00879-.35645,0-.17675-.00293-.29248-.00879-.34814a.96223.96223,0,0,0-.249-.6875,1.01677,1.01677,0,0,0-.72852-.22363H22.5148v1.58252a.89222.89222,0,0,0,.249.69189,1.01245,1.01245,0,0,0,.71191.228A1.15968,1.15968,0,0,0,24.25894,26.33651Z"/><path class="b" d="M28.4191,25.61972a.19553.19553,0,0,1-.06152-.14893V23.11728a.19733.19733,0,0,1,.06152-.14942.21768.21768,0,0,1,.15332-.05762h1.03613a.19753.19753,0,0,1,.207.207v2.35351a.20626.20626,0,0,1-.05761.14453.1947.1947,0,0,1-.14942.0625H28.57242A.21807.21807,0,0,1,28.4191,25.61972Z"/><path class="b" d="M35.1857,27.46786a.17359.17359,0,0,1-.0498.12012.16064.16064,0,0,1-.124.05371H33.99234a.2778.2778,0,0,1-.22363-.07861c-.04395-.05225-.06934-.08155-.07422-.08741L32.2443,25.37948a.92373.92373,0,0,0-.28223.45557,2.19348,2.19348,0,0,0-.06641.54687v1.03614a.21981.21981,0,0,1-.06152.16162.20919.20919,0,0,1-.15332.062h-.8125a.19348.19348,0,0,1-.14551-.06641.22306.22306,0,0,1-.06152-.15722V26.39022a2.90648,2.90648,0,0,1,.19043-1.14355,2.1108,2.1108,0,0,1,.7207-.82861l-.84473-1.21778a.17371.17371,0,0,1-.042-.11621.16994.16994,0,0,1,.05371-.12011.166.166,0,0,1,.12012-.05372h.97852a.2802.2802,0,0,1,.17773.04932.60765.60765,0,0,1,.12012.13281l1.334,1.88916a.7327.7327,0,0,0,.29492-.36425,1.60888,1.60888,0,0,0,.06153-.47266V23.13388a.226.226,0,0,1,.05859-.16162.19243.19243,0,0,1,.14844-.062h.87012a.20065.20065,0,0,1,.15332.06592.221.221,0,0,1,.0625.15772v1.04394a2.18334,2.18334,0,0,1-.21094.96533,1.989,1.989,0,0,1-.7666.78321l1.01074,1.42529A.20175.20175,0,0,1,35.1857,27.46786Z"/><path class="b" d="M38.36344,27.58358a.19287.19287,0,0,1-.0625-.14892V24.98153a.83086.83086,0,0,0-.93653-.94433H36.10562a.21366.21366,0,0,1-.208-.20752v-.7124a.19812.19812,0,0,1,.0625-.14942.20561.20561,0,0,1,.1455-.05762h1.3086a2.64476,2.64476,0,0,1,1.71972.47217,1.91049,1.91049,0,0,1,.56739,1.54932v2.50293a.20828.20828,0,0,1-.05762.145.196.196,0,0,1-.14941.062h-.97754A.21637.21637,0,0,1,38.36344,27.58358Z"/><path class="b" d="M40.69937,27.58358a.19553.19553,0,0,1-.06152-.14892V23.11728a.19736.19736,0,0,1,.06152-.14942.21772.21772,0,0,1,.15332-.05762h1.95606a2.607,2.607,0,0,1,1.73633.48438,2.01359,2.01359,0,0,1,.55859,1.59521v2.44483a.20828.20828,0,0,1-.05762.145.196.196,0,0,1-.14941.062H43.9191a.21639.21639,0,0,1-.15332-.05811.19628.19628,0,0,1-.0625-.14892V24.98153a.83085.83085,0,0,0-.93652-.94433h-.72852v3.39746a.205.205,0,0,1-.05859.145.19246.19246,0,0,1-.14844.062h-.97852A.21807.21807,0,0,1,40.69937,27.58358Z"/><path class="b" d="M50.466,27.46786a.1736.1736,0,0,1-.04981.12012.16062.16062,0,0,1-.124.05371H49.27262a.27783.27783,0,0,1-.22364-.07861c-.04394-.05225-.06933-.08155-.07422-.08741l-1.45019-2.09619a.92387.92387,0,0,0-.28223.45557,2.194,2.194,0,0,0-.0664.54687v1.03614a.21982.21982,0,0,1-.06153.16162.20919.20919,0,0,1-.15332.062h-.8125a.19349.19349,0,0,1-.14551-.06641.22306.22306,0,0,1-.06152-.15722V26.39022a2.90666,2.90666,0,0,1,.19043-1.14355,2.1108,2.1108,0,0,1,.7207-.82861L46.008,23.20028a.17371.17371,0,0,1-.042-.11621.1699.1699,0,0,1,.05371-.12011.166.166,0,0,1,.12011-.05372h.97852a.28016.28016,0,0,1,.17773.04932.6074.6074,0,0,1,.12012.13281l1.334,1.88916a.73281.73281,0,0,0,.29492-.36425,1.60923,1.60923,0,0,0,.06152-.47266V23.13388a.226.226,0,0,1,.05859-.16162.19243.19243,0,0,1,.14844-.062h.87012a.20065.20065,0,0,1,.15332.06592.221.221,0,0,1,.0625.15772v1.04394a2.18321,2.18321,0,0,1-.21094.96533,1.98891,1.98891,0,0,1-.7666.78321l1.01074,1.42529A.20176.20176,0,0,1,50.466,27.46786Z"/><path class="b" d="M54.50113,23.42782a2.25107,2.25107,0,0,1,.47266,1.562,2.43363,2.43363,0,0,1-.62207,1.72364A3.29733,3.29733,0,0,1,52.7941,27.65l-.33984.09912a.16.16,0,0,1-.15332-.05762.23656.23656,0,0,1-.07032-.166v-.83692a.239.239,0,0,1,.05762-.15332.41791.41791,0,0,1,.14942-.11181l.26562-.10791a1.33663,1.33663,0,0,0,.60059-.44287,1.38676,1.38676,0,0,0,.21972-.84131,1.11137,1.11137,0,0,0-.18261-.729.88209.88209,0,0,0-.67969-.20752h-.21485L51.33609,24.087a.199.199,0,0,1-.207-.20752V21.96542a.19587.19587,0,0,1,.06152-.14941.20776.20776,0,0,1,.14551-.05811h.89453a.19829.19829,0,0,1,.207.20752v.94482h.51367A2.01082,2.01082,0,0,1,54.50113,23.42782Z"/><path class="b" d="M22.00992,37.2369a1.915,1.915,0,0,1,.5752,1.53711v2.49414a.204.204,0,0,1-.05762.145.19491.19491,0,0,1-.14942.0625h-.97753a.21641.21641,0,0,1-.15332-.0581.19664.19664,0,0,1-.0625-.14942V38.81552a.83091.83091,0,0,0-.93555-.94483h-.53906a4.99137,4.99137,0,0,0-.124,1.21827l.06641,2.17919a.19668.19668,0,0,1-.0625.14942.21643.21643,0,0,1-.15332.0581l-1.75684-.00879a.21606.21606,0,0,1-.15332-.05761.19668.19668,0,0,1-.0625-.14942v-.65429a.19668.19668,0,0,1,.0625-.14942.21644.21644,0,0,1,.15332-.0581h.6709V39.09726a4.46077,4.46077,0,0,1,.125-1.22657h-.48926a.21434.21434,0,0,1-.15332-.0581.19561.19561,0,0,1-.0625-.14893v-.71289a.19632.19632,0,0,1,.0625-.14892.21641.21641,0,0,1,.15332-.05811H20.298A2.575,2.575,0,0,1,22.00992,37.2369Z"/><path class="b" d="M23.58414,41.41757a.19587.19587,0,0,1-.06152-.14942V36.95077a.19549.19549,0,0,1,.06152-.14892.218.218,0,0,1,.15332-.05811h1.03613a.19824.19824,0,0,1,.207.207v4.31738a.20828.20828,0,0,1-.05761.145.19639.19639,0,0,1-.14942.0625H23.73746A.21807.21807,0,0,1,23.58414,41.41757Z"/><path class="b" d="M27.04312,38.21884c.01172.22656.07715.35937.19922.39746l.23242.083a.19554.19554,0,0,1,.10352.09521.32926.32926,0,0,1,.03711.15332l.00781.42285a.21971.21971,0,0,1-.11133.19483.41242.41242,0,0,1-.26953.05371l-.33984-.04981a1.05255,1.05255,0,0,1-.71289-.46,1.65994,1.65994,0,0,1-.28125-.99023V36.95077a.28512.28512,0,0,1,.07031-.14892.17856.17856,0,0,1,.13672-.05811h1.67383a2.1445,2.1445,0,0,1,1.62011.55908,2.35842,2.35842,0,0,1,.584,1.57031c.00586.05567.00879.13282.00879.23243a2.62191,2.62191,0,0,1-.53028,1.74414,2.09041,2.09041,0,0,1-1.68261.626H26.215a.21479.21479,0,0,1-.15332-.0581.19327.19327,0,0,1-.0625-.14942V40.506a.21262.21262,0,0,1,.21582-.21533h1.5332a.98925.98925,0,0,0,.69141-.24463.96293.96293,0,0,0,.29394-.6919c.00586-.05517.00879-.13818.00879-.24853q0-.15747-.00879-.24024a.93937.93937,0,0,0-.28515-.69238,1.00362,1.00362,0,0,0-.7002-.24414h-.70508Z"/><path class="b" d="M30.87613,41.41757a.1959.1959,0,0,1-.06152-.14942V36.95077a.19553.19553,0,0,1,.06152-.14892.21805.21805,0,0,1,.15332-.05811h1.03613a.19826.19826,0,0,1,.207.207v4.31738a.20829.20829,0,0,1-.05762.145.19638.19638,0,0,1-.14942.0625H31.02945A.21809.21809,0,0,1,30.87613,41.41757Z"/><path class="b" d="M35.55777,41.41757a.19327.19327,0,0,1-.0625-.14942V38.81552a.83121.83121,0,0,0-.93652-.94483H33.3a.19806.19806,0,0,1-.14551-.062.201.201,0,0,1-.0625-.145v-.71289a.19632.19632,0,0,1,.0625-.14892A.20608.20608,0,0,1,33.3,36.74374h1.30859a2.64765,2.64765,0,0,1,1.71973.47217,1.9109,1.9109,0,0,1,.56738,1.5498v2.50244a.20828.20828,0,0,1-.05761.145.19639.19639,0,0,1-.14942.0625h-.97754A.21644.21644,0,0,1,35.55777,41.41757Z"/><path class="b" d="M42.23746,37.2369a1.915,1.915,0,0,1,.5752,1.53711v2.49414a.204.204,0,0,1-.05762.145.19491.19491,0,0,1-.14942.0625h-.97754a.21644.21644,0,0,1-.15332-.0581.19668.19668,0,0,1-.0625-.14942V38.81552a.83091.83091,0,0,0-.93554-.94483h-.53906a4.99137,4.99137,0,0,0-.124,1.21827L39.88,41.26815a.19668.19668,0,0,1-.0625.14942.21644.21644,0,0,1-.15332.0581l-1.75684-.00879a.216.216,0,0,1-.15332-.05761.19668.19668,0,0,1-.0625-.14942v-.65429a.19668.19668,0,0,1,.0625-.14942.21643.21643,0,0,1,.15332-.0581h.6709V39.09726a4.46077,4.46077,0,0,1,.125-1.22657H38.214a.21434.21434,0,0,1-.15332-.0581.19561.19561,0,0,1-.0625-.14893v-.71289a.19632.19632,0,0,1,.0625-.14892.21641.21641,0,0,1,.15332-.05811h2.31153A2.575,2.575,0,0,1,42.23746,37.2369Z"/><path class="b" d="M43.81168,41.41757a.19587.19587,0,0,1-.06152-.14942V36.95077a.19549.19549,0,0,1,.06152-.14892.218.218,0,0,1,.15332-.05811h1.03613a.19824.19824,0,0,1,.207.207v4.31738a.20828.20828,0,0,1-.05761.145.19639.19639,0,0,1-.14942.0625H43.965A.21807.21807,0,0,1,43.81168,41.41757Z"/><path class="b" d="M13.51578,51.0704a1.915,1.915,0,0,1,.5752,1.53711v2.49414a.20519.20519,0,0,1-.05762.14551.19627.19627,0,0,1-.14942.062h-.97753a.21642.21642,0,0,1-.15333-.05811.19664.19664,0,0,1-.0625-.14941V52.649a.8309.8309,0,0,0-.93554-.94482H11.216a4.99642,4.99642,0,0,0-.124,1.21826l.06641,2.1792a.19664.19664,0,0,1-.0625.14941.21641.21641,0,0,1-.15332.05811l-1.75684-.0083a.21641.21641,0,0,1-.15332-.05811.19633.19633,0,0,1-.0625-.14892v-.65479a.19665.19665,0,0,1,.0625-.14941.21641.21641,0,0,1,.15332-.05811h.6709V52.93075a4.46074,4.46074,0,0,1,.125-1.22656H9.49234a.216.216,0,0,1-.15332-.05762.1974.1974,0,0,1-.0625-.14941v-.71289a.19635.19635,0,0,1,.0625-.14893.21644.21644,0,0,1,.15332-.0581h2.31153A2.575,2.575,0,0,1,13.51578,51.0704Z"/><path class="b" d="M15.09,55.25106a.19583.19583,0,0,1-.06152-.14941V50.78427a.19553.19553,0,0,1,.06152-.14893.21807.21807,0,0,1,.15332-.0581h1.03613a.19823.19823,0,0,1,.207.207v4.31738a.20946.20946,0,0,1-.05761.14551.19777.19777,0,0,1-.14942.062H15.24332A.218.218,0,0,1,15.09,55.25106Z"/><path class="b" d="M17.49234,53.2872a.1959.1959,0,0,1-.06152-.14942V50.78427a.19557.19557,0,0,1,.06152-.14893.21809.21809,0,0,1,.15332-.0581H18.6818a.19824.19824,0,0,1,.207.207v2.35351a.20739.20739,0,0,1-.05762.145.196.196,0,0,1-.14941.062H17.64566A.21769.21769,0,0,1,17.49234,53.2872Z"/><path class="b" d="M20.9191,52.05233c.01172.22657.07715.35938.19922.398l.23242.083a.19266.19266,0,0,1,.10352.09473.33069.33069,0,0,1,.03711.15332l.00781.42285a.21914.21914,0,0,1-.11133.19482.4123.4123,0,0,1-.26953.05371l-.33984-.04931a1.056,1.056,0,0,1-.7129-.46,1.66206,1.66206,0,0,1-.28125-.99024V50.78427a.2852.2852,0,0,1,.07032-.14893.17857.17857,0,0,1,.13672-.0581h1.67382a2.14277,2.14277,0,0,1,1.62012.55957,2.35843,2.35843,0,0,1,.584,1.57031c.00586.05518.00878.13232.00878.23193a2.62418,2.62418,0,0,1-.53027,1.74463,2.09025,2.09025,0,0,1-1.68262.62549H20.091a.21473.21473,0,0,1-.15332-.05811.1932.1932,0,0,1-.0625-.14941v-.76221a.21262.21262,0,0,1,.21582-.21533h1.5332a.98916.98916,0,0,0,.6914-.24463.962.962,0,0,0,.29395-.69189c.00586-.05518.00879-.1377.00879-.24854q0-.15747-.00879-.24023a.93824.93824,0,0,0-.28516-.6919,1.00164,1.00164,0,0,0-.70019-.24462H20.9191Z"/><path class="b" d="M26.9318,55.25106a.1932.1932,0,0,1-.0625-.14941V52.649a.83121.83121,0,0,0-.93653-.94482H24.674a.19806.19806,0,0,1-.1455-.062.201.201,0,0,1-.0625-.145v-.71289a.19632.19632,0,0,1,.0625-.14893.20607.20607,0,0,1,.1455-.0581h1.3086a2.6447,2.6447,0,0,1,1.71972.47265,1.90917,1.90917,0,0,1,.56739,1.54932v2.50244a.20943.20943,0,0,1-.05762.14551.19775.19775,0,0,1-.14941.062h-.97754A.21637.21637,0,0,1,26.9318,55.25106Z"/><path class="b" d="M33.61051,51.0704a1.915,1.915,0,0,1,.57519,1.53711v2.49414a.20515.20515,0,0,1-.05762.14551.19626.19626,0,0,1-.14941.062h-.97754a.21639.21639,0,0,1-.15332-.05811.19664.19664,0,0,1-.0625-.14941V52.649a.83091.83091,0,0,0-.93555-.94482H31.3107a4.99643,4.99643,0,0,0-.124,1.21826l.0664,2.1792a.1966.1966,0,0,1-.0625.14941.21637.21637,0,0,1-.15332.05811l-1.75683-.0083a.21637.21637,0,0,1-.15332-.05811.1963.1963,0,0,1-.0625-.14892v-.65479a.19662.19662,0,0,1,.0625-.14941.21637.21637,0,0,1,.15332-.05811h.6709V52.93075a4.46036,4.46036,0,0,1,.125-1.22656h-.48926a.216.216,0,0,1-.15332-.05762.19737.19737,0,0,1-.0625-.14941v-.71289a.19632.19632,0,0,1,.0625-.14893.21641.21641,0,0,1,.15332-.0581h2.31152A2.575,2.575,0,0,1,33.61051,51.0704Z"/><path class="b" d="M35.18473,55.25106a.19584.19584,0,0,1-.06153-.14941V50.78427a.19554.19554,0,0,1,.06153-.14893.21807.21807,0,0,1,.15332-.0581h1.03613a.19824.19824,0,0,1,.207.207v4.31738a.20943.20943,0,0,1-.05762.14551.19774.19774,0,0,1-.14941.062H35.33805A.218.218,0,0,1,35.18473,55.25106Z"/><path class="b" d="M37.57144,55.25106a.19587.19587,0,0,1-.06152-.14941v-.76221a.211.211,0,0,1,.21484-.21533h1.20215a.88184.88184,0,0,0,.99414-.93652c.00586-.06641.00879-.14893.00879-.24854,0-.09375-.00293-.17431-.00879-.24023a.88184.88184,0,0,0-.99414-.93652H37.72476a.211.211,0,0,1-.21484-.21534v-.76269a.19557.19557,0,0,1,.06152-.14893.21811.21811,0,0,1,.15332-.0581h1.24317a2.01484,2.01484,0,0,1,2.2959,2.12988c.00488.06055.00781.13818.00781.23193a2.57135,2.57135,0,0,1-.543,1.74854,2.225,2.225,0,0,1-1.76074.62158H37.72476A.21807.21807,0,0,1,37.57144,55.25106Z"/><path class="b" d="M42.11246,53.2872a.19587.19587,0,0,1-.06152-.14942V50.78427a.19553.19553,0,0,1,.06152-.14893.21807.21807,0,0,1,.15332-.0581h1.03613a.19823.19823,0,0,1,.207.207v2.35351a.20742.20742,0,0,1-.05761.145.196.196,0,0,1-.14942.062H42.26578A.21767.21767,0,0,1,42.11246,53.2872Z"/><path class="b" d="M44.967,54.84921a2.03377,2.03377,0,0,1-.56347-1.53711V50.78427a.19553.19553,0,0,1,.06152-.14893.21807.21807,0,0,1,.15332-.0581H46.7316a2.39692,2.39692,0,0,1,1.707.50586,2.14,2.14,0,0,1,.57227,1.49121c.00488.05566.00781.18554.00781.38965,0,.21-.00293.34277-.00781.39746a2.15381,2.15381,0,0,1-.59278,1.51269,2.49526,2.49526,0,0,1-1.76074.51758A2.34833,2.34833,0,0,1,44.967,54.84921ZM47.4318,54.004a.94358.94358,0,0,0,.23632-.68359c.00586-.05518.00879-.17432.00879-.35644q0-.26514-.00879-.34815a.96438.96438,0,0,0-.249-.688,1.019,1.019,0,0,0-.72852-.22363H45.68766v1.583a.89221.89221,0,0,0,.249.69189,1.01475,1.01475,0,0,0,.71191.228A1.15973,1.15973,0,0,0,47.4318,54.004Z"/><path class="b" d="M50.90836,52.05233c.01172.22657.07715.35938.19922.398l.23242.083a.19268.19268,0,0,1,.10351.09473.33057.33057,0,0,1,.03711.15332l.00782.42285a.21914.21914,0,0,1-.11133.19482.41231.41231,0,0,1-.26953.05371l-.33985-.04931a1.056,1.056,0,0,1-.71289-.46,1.66206,1.66206,0,0,1-.28125-.99024V50.78427a.28512.28512,0,0,1,.07032-.14893.17856.17856,0,0,1,.13671-.0581h1.67383a2.1428,2.1428,0,0,1,1.62012.55957,2.35842,2.35842,0,0,1,.584,1.57031c.00586.05518.00879.13232.00879.23193a2.62418,2.62418,0,0,1-.53027,1.74463,2.09025,2.09025,0,0,1-1.68262.62549H50.08023a.21477.21477,0,0,1-.15332-.05811.19324.19324,0,0,1-.0625-.14941v-.76221a.21262.21262,0,0,1,.21582-.21533h1.53321a.98916.98916,0,0,0,.6914-.24463.962.962,0,0,0,.294-.69189c.00586-.05518.00879-.1377.00879-.24854q0-.15747-.00879-.24023a.93824.93824,0,0,0-.28516-.6919,1.00166,1.00166,0,0,0-.70019-.24462h-.70508Z"/><path class="b" d="M20.50894,67.12069a.19554.19554,0,0,1-.06152-.14892V64.61825a.19736.19736,0,0,1,.06152-.14941.21986.21986,0,0,1,.15332-.05762H21.6984a.19754.19754,0,0,1,.207.207v2.35352a.20828.20828,0,0,1-.05762.145.196.196,0,0,1-.14941.062H20.66226A.21807.21807,0,0,1,20.50894,67.12069Z"/><path class="b" d="M27.14762,64.90438a1.915,1.915,0,0,1,.57519,1.53711v2.49414a.204.204,0,0,1-.05762.145.19452.19452,0,0,1-.14941.062h-.97754a.21605.21605,0,0,1-.15332-.05762.19816.19816,0,0,1-.0625-.14942V66.48251a.83076.83076,0,0,0-.93555-.94434h-.53906a4.98986,4.98986,0,0,0-.124,1.21778l.0664,2.17968a.19812.19812,0,0,1-.0625.14942.216.216,0,0,1-.15332.05762l-1.75683-.0083a.21431.21431,0,0,1-.15332-.05811.19483.19483,0,0,1-.0625-.14893v-.65478a.19632.19632,0,0,1,.0625-.14893.21641.21641,0,0,1,.15332-.0581h.6709V66.76474a4.45834,4.45834,0,0,1,.125-1.22657h-.48926a.21641.21641,0,0,1-.15332-.0581.19632.19632,0,0,1-.0625-.14893v-.71289a.19812.19812,0,0,1,.0625-.14941.21814.21814,0,0,1,.15332-.05762H25.4357A2.57235,2.57235,0,0,1,27.14762,64.90438Z"/><path class="b" d="M32.35465,64.46884a.20164.20164,0,0,1,.05761.14941v.71289a.20208.20208,0,0,1-.05761.14453.19468.19468,0,0,1-.14942.0625h-.38086a1.274,1.274,0,0,0-.15332.42237,2.95169,2.95169,0,0,0-.05371.58838v2.41162a.15458.15458,0,0,1-.0791.12842.28163.28163,0,0,1-.16113.05371h-.96973a.17136.17136,0,0,1-.18262-.18213V66.4581a1.78883,1.78883,0,0,1,.166-.91993H28.50113a.21374.21374,0,0,1-.207-.207v-.71289a.19469.19469,0,0,1,.0625-.14941.2071.2071,0,0,1,.14453-.05762h3.7041A.20553.20553,0,0,1,32.35465,64.46884Z"/><path class="b" d="M33.19547,67.12069a.19552.19552,0,0,1-.06153-.14892V64.61825a.19733.19733,0,0,1,.06153-.14941.21983.21983,0,0,1,.15332-.05762h1.03613a.19754.19754,0,0,1,.207.207v2.35352a.20828.20828,0,0,1-.05762.145.196.196,0,0,1-.14941.062H33.34879A.218.218,0,0,1,33.19547,67.12069Z"/><path class="b" d="M35.59879,69.08505a.19734.19734,0,0,1-.06153-.14942V64.61825a.19733.19733,0,0,1,.06153-.14941.21983.21983,0,0,1,.15332-.05762h1.956a2.60962,2.60962,0,0,1,1.73633.48438,2.01472,2.01472,0,0,1,.55859,1.5957v2.44433a.20828.20828,0,0,1-.05761.145.196.196,0,0,1-.14942.062h-.97754a.21607.21607,0,0,1-.15332-.05762.19816.19816,0,0,1-.0625-.14942V66.48251a.83106.83106,0,0,0-.93652-.94434h-.72851v3.39746a.205.205,0,0,1-.0586.145.19242.19242,0,0,1-.14844.062h-.97851A.21768.21768,0,0,1,35.59879,69.08505Z"/><path class="b" d="M40.96891,67.12069a.19552.19552,0,0,1-.06153-.14892V64.61825a.19733.19733,0,0,1,.06153-.14941.21983.21983,0,0,1,.15332-.05762h1.03613a.19754.19754,0,0,1,.207.207v2.35352a.20828.20828,0,0,1-.05762.145.196.196,0,0,1-.14941.062H41.12223A.218.218,0,0,1,40.96891,67.12069Z"/></svg>