<svg xmlns="http://www.w3.org/2000/svg" viewBox="0 0 62.81251 83.39762"><defs><style>.a{fill:#e5e5e5;}.b{fill:#181615;}</style></defs><rect class="a" width="62.8125" height="83.39761"/><path class="b" d="M15.19742,11.78578a.1966.1966,0,0,1-.06152-.14941V9.28286a.19555.19555,0,0,1,.06152-.14893.21808.21808,0,0,1,.15332-.05811h1.03613a.19826.19826,0,0,1,.207.207v2.35351a.20829.20829,0,0,1-.05762.145.196.196,0,0,1-.14942.062H15.35074A.21764.21764,0,0,1,15.19742,11.78578Z"/><path class="b" d="M17.60074,13.74965a.19588.19588,0,0,1-.06152-.14941V9.28286a.19555.19555,0,0,1,.06152-.14893.21808.21808,0,0,1,.15332-.05811h1.03613a.19826.19826,0,0,1,.207.207v4.31738a.20747.20747,0,0,1-.05762.145.196.196,0,0,1-.14942.062H17.75406A.21764.21764,0,0,1,17.60074,13.74965Z"/><path class="b" d="M22.82144,13.74526a.2061.2061,0,0,1-.15332.062H20.00894a.2144.2144,0,0,1-.15332-.05762.19325.19325,0,0,1-.0625-.14941v-.7124a.19327.19327,0,0,1,.0625-.14942.2148.2148,0,0,1,.15332-.0581h1.375L21.30973,11.048a1.45429,1.45429,0,0,0-.166-.6958.56716.56716,0,0,0-.51367-.21582h-.42285a.21281.21281,0,0,1-.207-.207V9.23305a.21551.21551,0,0,1,.05859-.15332.1941.1941,0,0,1,.14844-.062h.44726a2.1774,2.1774,0,0,1,1.5791.48877,2.26617,2.26617,0,0,1,.53418,1.5664l.1084,2.52735A.173.173,0,0,1,22.82144,13.74526Z"/><path class="b" d="M23.68277,11.78578a.1966.1966,0,0,1-.06152-.14941V9.28286a.19555.19555,0,0,1,.06152-.14893.2181.2181,0,0,1,.15332-.05811h1.03614a.19826.19826,0,0,1,.207.207v2.35351a.20825.20825,0,0,1-.05762.145.196.196,0,0,1-.14941.062H23.83609A.21766.21766,0,0,1,23.68277,11.78578Z"/><path class="b" d="M30.20035,9.5812a2.00241,2.00241,0,0,1,.53027,1.5166v2.50244a.20324.20324,0,0,1-.05761.145.196.196,0,0,1-.14942.062H28.26187a.211.211,0,0,1-.207-.207v-.7124a.19588.19588,0,0,1,.06153-.14942.20776.20776,0,0,1,.1455-.0581h1.06836V11.1642a.99262.99262,0,0,0-.207-.67138.6764.6764,0,0,0-.53808-.24024h-.64649l-.7041,3.33936a.25614.25614,0,0,1-.06641.15332.196.196,0,0,1-.14941.062h-.95313a.20923.20923,0,0,1-.15332-.062.165.165,0,0,1-.04589-.15332l.8125-3.33106H26.132a.1977.1977,0,0,1-.14941-.062.219.219,0,0,1-.05762-.15332V9.28286a.19555.19555,0,0,1,.06152-.14893.20781.20781,0,0,1,.14551-.05811h2.66016A1.95694,1.95694,0,0,1,30.20035,9.5812Z"/><path class="b" d="M33.30387,13.74526a.20017.20017,0,0,1-.0625-.145v-.7124a.19664.19664,0,0,1,.0625-.14942.20607.20607,0,0,1,.1455-.0581h2.07911V11.1476a.82715.82715,0,0,0-.93555-.93652H33.53141a.19414.19414,0,0,1-.14844-.062.21555.21555,0,0,1-.0586-.15332V9.28286a.19293.19293,0,0,1,.0625-.14893.20551.20551,0,0,1,.14454-.05811h1.10253a2.70385,2.70385,0,0,1,1.75293.48877,1.94066,1.94066,0,0,1,.5918,1.583v1.53272h.29a.19979.19979,0,0,1,.208.20752v.7124a.20416.20416,0,0,1-.0586.145.19311.19311,0,0,1-.14941.062H33.44937A.19806.19806,0,0,1,33.30387,13.74526Z"/><path class="b" d="M42.58512,9.569a1.915,1.915,0,0,1,.57519,1.53711v2.49414a.20321.20321,0,0,1-.05762.145.19455.19455,0,0,1-.14941.062h-.97754a.216.216,0,0,1-.15332-.05762.19665.19665,0,0,1-.0625-.14941V11.1476a.83091.83091,0,0,0-.93555-.94482h-.53906a4.99384,4.99384,0,0,0-.124,1.21826l.0664,2.1792a.19662.19662,0,0,1-.0625.14941.216.216,0,0,1-.15332.05762L38.255,13.79946a.21637.21637,0,0,1-.15332-.05811.19662.19662,0,0,1-.0625-.14941v-.65479a.1963.1963,0,0,1,.0625-.14892.21637.21637,0,0,1,.15332-.05811h.6709V11.42934a4.46027,4.46027,0,0,1,.125-1.22656h-.48926a.21637.21637,0,0,1-.15332-.05811.1963.1963,0,0,1-.0625-.14892V9.28286a.1963.1963,0,0,1,.0625-.14893.21642.21642,0,0,1,.15332-.05811H40.8732A2.575,2.575,0,0,1,42.58512,9.569Z"/><path class="b" d="M44.10953,13.74965a.19585.19585,0,0,1-.06152-.14941V12.838a.211.211,0,0,1,.21484-.21533H45.465a.88208.88208,0,0,0,.99414-.93652c.00586-.06641.00879-.14942.00879-.24854,0-.09424-.00293-.17432-.00879-.24072a.88173.88173,0,0,0-.99414-.936H44.26285a.211.211,0,0,1-.21484-.21533V9.28286a.19552.19552,0,0,1,.06152-.14893.21808.21808,0,0,1,.15332-.05811H45.506a2.01484,2.01484,0,0,1,2.2959,2.12989c.00489.06054.00782.13769.00782.23193a2.57142,2.57142,0,0,1-.543,1.74854,2.22487,2.22487,0,0,1-1.76075.62109H44.26285A.21764.21764,0,0,1,44.10953,13.74965Z"/><path class="b" d="M8.07535,27.58315a.19553.19553,0,0,1-.06152-.14893V23.11684a.19731.19731,0,0,1,.06152-.14941.21764.21764,0,0,1,.15332-.05762h1.88086a2.51591,2.51591,0,0,1,1.67871.47607,1.9557,1.9557,0,0,1,.55078,1.5542v2.48584a.21262.21262,0,0,1-.21582.21533H8.22867A.21807.21807,0,0,1,8.07535,27.58315ZM11.005,26.5143V24.9811a.83125.83125,0,0,0-.93653-.94434H9.27262V26.5143Z"/><path class="b" d="M13.30387,25.61928a.19552.19552,0,0,1-.06153-.14892V23.11684a.19731.19731,0,0,1,.06153-.14941.21764.21764,0,0,1,.15332-.05762h1.03613a.19754.19754,0,0,1,.207.207v2.35352a.20627.20627,0,0,1-.05762.14453.19468.19468,0,0,1-.14941.0625H13.45719A.218.218,0,0,1,13.30387,25.61928Z"/><path class="b" d="M19.82144,23.41518a2.00049,2.00049,0,0,1,.53028,1.51611v2.50293a.204.204,0,0,1-.05762.145.196.196,0,0,1-.14941.062H17.883a.211.211,0,0,1-.207-.207v-.71289a.19549.19549,0,0,1,.06152-.14892.20773.20773,0,0,1,.14551-.05811h1.06836V24.9977a.99215.99215,0,0,0-.207-.6709.67642.67642,0,0,0-.53809-.24023h-.64648l-.70411,3.33935a.25614.25614,0,0,1-.0664.15332.196.196,0,0,1-.14942.062h-.95312a.20915.20915,0,0,1-.15332-.062.165.165,0,0,1-.0459-.15332L16.3,24.09438h-.54688a.196.196,0,0,1-.14941-.062.21817.21817,0,0,1-.05762-.15332v-.76221a.19731.19731,0,0,1,.06153-.14941.20724.20724,0,0,1,.1455-.05762h2.66016A1.957,1.957,0,0,1,19.82144,23.41518Z"/><path class="b" d="M21.7941,27.18129a2.033,2.033,0,0,1-.56348-1.53711V23.11684a.19731.19731,0,0,1,.06153-.14941.21764.21764,0,0,1,.15332-.05762h2.11328a2.397,2.397,0,0,1,1.707.50537,2.14034,2.14034,0,0,1,.57227,1.4917c.00488.05517.00781.18506.00781.38916,0,.21-.00293.34277-.00781.39795a2.1526,2.1526,0,0,1-.59278,1.51221,2.49529,2.49529,0,0,1-1.76074.51806A2.34843,2.34843,0,0,1,21.7941,27.18129Zm2.46484-.84521a.94356.94356,0,0,0,.23633-.6836c.00586-.05517.00879-.17431.00879-.35644,0-.17676-.00293-.29248-.00879-.34815a.96223.96223,0,0,0-.249-.6875,1.01677,1.01677,0,0,0-.72852-.22363H22.5148v1.58252a.89225.89225,0,0,0,.249.6919,1.0125,1.0125,0,0,0,.71191.228A1.15974,1.15974,0,0,0,24.25894,26.33608Z"/><path class="b" d="M28.4191,25.61928a.19551.19551,0,0,1-.06152-.14892V23.11684a.19731.19731,0,0,1,.06152-.14941.21764.21764,0,0,1,.15332-.05762h1.03613a.19753.19753,0,0,1,.207.207v2.35352a.2063.2063,0,0,1-.05761.14453.1947.1947,0,0,1-.14942.0625H28.57242A.218.218,0,0,1,28.4191,25.61928Z"/><path class="b" d="M35.1857,27.46743a.17358.17358,0,0,1-.0498.12011.1606.1606,0,0,1-.124.05371H33.99234a.27777.27777,0,0,1-.22363-.07861c-.04395-.05225-.06934-.08154-.07422-.0874L32.2443,25.37905a.92366.92366,0,0,0-.28223.45556,2.19356,2.19356,0,0,0-.06641.54688v1.03613a.21978.21978,0,0,1-.06152.16162.20915.20915,0,0,1-.15332.062h-.8125a.1935.1935,0,0,1-.14551-.0664.22308.22308,0,0,1-.06152-.15723V26.38979a2.9065,2.9065,0,0,1,.19043-1.14356,2.11087,2.11087,0,0,1,.7207-.82861l-.84473-1.21777a.17375.17375,0,0,1-.042-.11621.16994.16994,0,0,1,.05371-.12012.16606.16606,0,0,1,.12012-.05371h.97852a.2802.2802,0,0,1,.17773.04931.60772.60772,0,0,1,.12012.13282l1.334,1.88916a.73272.73272,0,0,0,.29492-.36426,1.60883,1.60883,0,0,0,.06153-.47266V23.13344a.226.226,0,0,1,.05859-.16162.19246.19246,0,0,1,.14844-.062h.87012a.20061.20061,0,0,1,.15332.06592.22092.22092,0,0,1,.0625.15771v1.04395a2.18341,2.18341,0,0,1-.21094.96533,1.98889,1.98889,0,0,1-.7666.7832l1.01074,1.42529A.20178.20178,0,0,1,35.1857,27.46743Z"/><path class="b" d="M38.36344,27.58315a.19291.19291,0,0,1-.0625-.14893V24.9811a.83086.83086,0,0,0-.93653-.94434H36.10562a.21366.21366,0,0,1-.208-.20752v-.7124a.1981.1981,0,0,1,.0625-.14941.20557.20557,0,0,1,.1455-.05762h1.3086a2.6447,2.6447,0,0,1,1.71972.47217,1.91046,1.91046,0,0,1,.56739,1.54931v2.50293a.20825.20825,0,0,1-.05762.145.196.196,0,0,1-.14941.062h-.97754A.21641.21641,0,0,1,38.36344,27.58315Z"/><path class="b" d="M40.69937,27.58315a.19557.19557,0,0,1-.06152-.14893V23.11684a.19734.19734,0,0,1,.06152-.14941.21767.21767,0,0,1,.15332-.05762h1.95606a2.607,2.607,0,0,1,1.73633.48437,2.01361,2.01361,0,0,1,.55859,1.59522v2.44482a.20825.20825,0,0,1-.05762.145.196.196,0,0,1-.14941.062H43.9191a.21643.21643,0,0,1-.15332-.0581.19632.19632,0,0,1-.0625-.14893V24.9811a.83086.83086,0,0,0-.93652-.94434h-.72852v3.39746a.205.205,0,0,1-.05859.145.19243.19243,0,0,1-.14844.062h-.97852A.21811.21811,0,0,1,40.69937,27.58315Z"/><path class="b" d="M50.466,27.46743a.17359.17359,0,0,1-.04981.12011.16058.16058,0,0,1-.124.05371H49.27262a.27779.27779,0,0,1-.22364-.07861c-.04394-.05225-.06933-.08154-.07422-.0874l-1.45019-2.09619a.9238.9238,0,0,0-.28223.45556,2.194,2.194,0,0,0-.0664.54688v1.03613a.21979.21979,0,0,1-.06153.16162.20915.20915,0,0,1-.15332.062h-.8125a.19352.19352,0,0,1-.14551-.0664.22308.22308,0,0,1-.06152-.15723V26.38979a2.90668,2.90668,0,0,1,.19043-1.14356,2.11087,2.11087,0,0,1,.7207-.82861L46.008,23.19985a.17375.17375,0,0,1-.042-.11621.1699.1699,0,0,1,.05371-.12012.166.166,0,0,1,.12011-.05371h.97852a.28016.28016,0,0,1,.17773.04931.60747.60747,0,0,1,.12012.13282l1.334,1.88916a.73283.73283,0,0,0,.29492-.36426,1.60918,1.60918,0,0,0,.06152-.47266V23.13344a.226.226,0,0,1,.05859-.16162.19246.19246,0,0,1,.14844-.062h.87012a.20061.20061,0,0,1,.15332.06592.22092.22092,0,0,1,.0625.15771v1.04395a2.18327,2.18327,0,0,1-.21094.96533,1.98883,1.98883,0,0,1-.7666.7832l1.01074,1.42529A.20179.20179,0,0,1,50.466,27.46743Z"/><path class="b" d="M54.50113,23.42739a2.251,2.251,0,0,1,.47266,1.562,2.43359,2.43359,0,0,1-.62207,1.72363,3.29726,3.29726,0,0,1-1.55762.93652l-.33984.09913a.16.16,0,0,1-.15332-.05762.23658.23658,0,0,1-.07032-.166v-.83691a.23894.23894,0,0,1,.05762-.15332.41781.41781,0,0,1,.14942-.11182l.26562-.10791a1.33663,1.33663,0,0,0,.60059-.44287,1.38673,1.38673,0,0,0,.21972-.84131,1.11134,1.11134,0,0,0-.18261-.729.882.882,0,0,0-.67969-.20752h-.21485l-1.11035-.00781a.199.199,0,0,1-.207-.20752V21.965a.19588.19588,0,0,1,.06152-.14941.20781.20781,0,0,1,.14551-.05811h.89453a.19829.19829,0,0,1,.207.20752v.94483h.51367A2.01079,2.01079,0,0,1,54.50113,23.42739Z"/><path class="b" d="M22.00992,37.23647a1.915,1.915,0,0,1,.5752,1.53711v2.49414a.20407.20407,0,0,1-.05762.145.19494.19494,0,0,1-.14942.0625h-.97753a.21637.21637,0,0,1-.15332-.05811.19662.19662,0,0,1-.0625-.14941V38.81508a.83091.83091,0,0,0-.93555-.94482h-.53906a4.99134,4.99134,0,0,0-.124,1.21826l.06641,2.1792a.19665.19665,0,0,1-.0625.14941.21639.21639,0,0,1-.15332.05811l-1.75684-.00879a.216.216,0,0,1-.15332-.05762.19665.19665,0,0,1-.0625-.14941v-.6543a.19665.19665,0,0,1,.0625-.14941.21641.21641,0,0,1,.15332-.05811h.6709V39.09682a4.4607,4.4607,0,0,1,.125-1.22656h-.48926a.21435.21435,0,0,1-.15332-.05811.19559.19559,0,0,1-.0625-.14892v-.71289a.19634.19634,0,0,1,.0625-.14893.21645.21645,0,0,1,.15332-.05811H20.298A2.575,2.575,0,0,1,22.00992,37.23647Z"/><path class="b" d="M23.58414,41.41713a.19585.19585,0,0,1-.06152-.14941V36.95034a.19552.19552,0,0,1,.06152-.14893.21808.21808,0,0,1,.15332-.05811h1.03613a.19824.19824,0,0,1,.207.207v4.31738a.20831.20831,0,0,1-.05761.145.19643.19643,0,0,1-.14942.0625H23.73746A.218.218,0,0,1,23.58414,41.41713Z"/><path class="b" d="M27.04312,38.2184c.01172.22656.07715.35938.19922.39746l.23242.083a.19552.19552,0,0,1,.10352.09522.32923.32923,0,0,1,.03711.15332l.00781.42285a.21968.21968,0,0,1-.11133.19482.41236.41236,0,0,1-.26953.05371l-.33984-.0498a1.05262,1.05262,0,0,1-.71289-.46,1.66,1.66,0,0,1-.28125-.99024V36.95034a.28515.28515,0,0,1,.07031-.14893.17859.17859,0,0,1,.13672-.05811h1.67383a2.1445,2.1445,0,0,1,1.62011.55909,2.35838,2.35838,0,0,1,.584,1.57031c.00586.05566.00879.13281.00879.23242a2.62189,2.62189,0,0,1-.53028,1.74414,2.09042,2.09042,0,0,1-1.68261.626H26.215a.21475.21475,0,0,1-.15332-.05811.19325.19325,0,0,1-.0625-.14941v-.76221a.21262.21262,0,0,1,.21582-.21533h1.5332a.9892.9892,0,0,0,.69141-.24463.96291.96291,0,0,0,.29394-.69189c.00586-.05518.00879-.13819.00879-.24854q0-.15747-.00879-.24023a.93939.93939,0,0,0-.28515-.69239,1.00367,1.00367,0,0,0-.7002-.24414h-.70508Z"/><path class="b" d="M30.87613,41.41713a.19588.19588,0,0,1-.06152-.14941V36.95034a.19555.19555,0,0,1,.06152-.14893.2181.2181,0,0,1,.15332-.05811h1.03613a.19826.19826,0,0,1,.207.207v4.31738a.20832.20832,0,0,1-.05762.145.19641.19641,0,0,1-.14942.0625H31.02945A.21805.21805,0,0,1,30.87613,41.41713Z"/><path class="b" d="M35.55777,41.41713a.19325.19325,0,0,1-.0625-.14941V38.81508a.8312.8312,0,0,0-.93652-.94482H33.3a.19809.19809,0,0,1-.14551-.062.201.201,0,0,1-.0625-.145v-.71289a.19634.19634,0,0,1,.0625-.14893A.20612.20612,0,0,1,33.3,36.7433h1.30859a2.64765,2.64765,0,0,1,1.71973.47217,1.91092,1.91092,0,0,1,.56738,1.54981v2.50244a.20831.20831,0,0,1-.05761.145.19643.19643,0,0,1-.14942.0625h-.97754A.21641.21641,0,0,1,35.55777,41.41713Z"/><path class="b" d="M42.23746,37.23647a1.915,1.915,0,0,1,.5752,1.53711v2.49414a.20407.20407,0,0,1-.05762.145.19494.19494,0,0,1-.14942.0625h-.97754a.21641.21641,0,0,1-.15332-.05811.19665.19665,0,0,1-.0625-.14941V38.81508a.8309.8309,0,0,0-.93554-.94482h-.53906a4.99134,4.99134,0,0,0-.124,1.21826l.06641,2.1792a.19665.19665,0,0,1-.0625.14941.21641.21641,0,0,1-.15332.05811l-1.75684-.00879a.216.216,0,0,1-.15332-.05762.19665.19665,0,0,1-.0625-.14941v-.6543a.19665.19665,0,0,1,.0625-.14941.21639.21639,0,0,1,.15332-.05811h.6709V39.09682a4.4607,4.4607,0,0,1,.125-1.22656H38.214a.21435.21435,0,0,1-.15332-.05811.19559.19559,0,0,1-.0625-.14892v-.71289a.19634.19634,0,0,1,.0625-.14893.21645.21645,0,0,1,.15332-.05811h2.31153A2.575,2.575,0,0,1,42.23746,37.23647Z"/><path class="b" d="M43.81168,41.41713a.19585.19585,0,0,1-.06152-.14941V36.95034a.19552.19552,0,0,1,.06152-.14893.21808.21808,0,0,1,.15332-.05811h1.03613a.19824.19824,0,0,1,.207.207v4.31738a.20831.20831,0,0,1-.05761.145.19643.19643,0,0,1-.14942.0625H43.965A.218.218,0,0,1,43.81168,41.41713Z"/><path class="b" d="M13.51578,51.07a1.915,1.915,0,0,1,.5752,1.53711v2.49414a.20517.20517,0,0,1-.05762.14551.19624.19624,0,0,1-.14942.062h-.97753a.21645.21645,0,0,1-.15333-.0581.19668.19668,0,0,1-.0625-.14942V52.64858a.83091.83091,0,0,0-.93554-.94483H11.216a4.99645,4.99645,0,0,0-.124,1.21827l.06641,2.17919a.19668.19668,0,0,1-.0625.14942.21644.21644,0,0,1-.15332.0581l-1.75684-.0083a.21644.21644,0,0,1-.15332-.0581.19635.19635,0,0,1-.0625-.14893v-.65478a.19668.19668,0,0,1,.0625-.14942.21644.21644,0,0,1,.15332-.0581h.6709V52.93032a4.46077,4.46077,0,0,1,.125-1.22657H9.49234a.21606.21606,0,0,1-.15332-.05761.19742.19742,0,0,1-.0625-.14942v-.71289a.19632.19632,0,0,1,.0625-.14892.21641.21641,0,0,1,.15332-.05811h2.31153A2.575,2.575,0,0,1,13.51578,51.07Z"/><path class="b" d="M15.09,55.25063a.19587.19587,0,0,1-.06152-.14942V50.78383a.19549.19549,0,0,1,.06152-.14892.218.218,0,0,1,.15332-.05811h1.03613a.19824.19824,0,0,1,.207.207v4.31738a.20945.20945,0,0,1-.05761.14551.19774.19774,0,0,1-.14942.062H15.24332A.21807.21807,0,0,1,15.09,55.25063Z"/><path class="b" d="M17.49234,53.28676a.19588.19588,0,0,1-.06152-.14941V50.78383a.19553.19553,0,0,1,.06152-.14892.21805.21805,0,0,1,.15332-.05811H18.6818a.19826.19826,0,0,1,.207.207v2.35352a.20742.20742,0,0,1-.05762.145.196.196,0,0,1-.14941.062H17.64566A.21766.21766,0,0,1,17.49234,53.28676Z"/><path class="b" d="M20.9191,52.0519c.01172.22656.07715.35937.19922.39795l.23242.083a.19268.19268,0,0,1,.10352.09472.33072.33072,0,0,1,.03711.15332l.00781.42285a.21916.21916,0,0,1-.11133.19483.41242.41242,0,0,1-.26953.05371l-.33984-.04932a1.05594,1.05594,0,0,1-.7129-.46,1.662,1.662,0,0,1-.28125-.99023V50.78383a.28513.28513,0,0,1,.07032-.14892.17854.17854,0,0,1,.13672-.05811h1.67382a2.14277,2.14277,0,0,1,1.62012.55957,2.35847,2.35847,0,0,1,.584,1.57031c.00586.05518.00878.13233.00878.23194a2.6242,2.6242,0,0,1-.53027,1.74463,2.09025,2.09025,0,0,1-1.68262.62548H20.091a.21477.21477,0,0,1-.15332-.0581.19324.19324,0,0,1-.0625-.14942V54.339a.21262.21262,0,0,1,.21582-.21533h1.5332a.98921.98921,0,0,0,.6914-.24463.96205.96205,0,0,0,.29395-.6919c.00586-.05517.00879-.13769.00879-.24853q0-.15747-.00879-.24024a.9382.9382,0,0,0-.28516-.69189,1.0016,1.0016,0,0,0-.70019-.24463H20.9191Z"/><path class="b" d="M26.9318,55.25063a.19324.19324,0,0,1-.0625-.14942V52.64858a.83122.83122,0,0,0-.93653-.94483H24.674a.198.198,0,0,1-.1455-.062.201.201,0,0,1-.0625-.145v-.71289a.19628.19628,0,0,1,.0625-.14892.206.206,0,0,1,.1455-.05811h1.3086a2.6447,2.6447,0,0,1,1.71972.47266,1.90913,1.90913,0,0,1,.56739,1.54931v2.50244a.20941.20941,0,0,1-.05762.14551.19772.19772,0,0,1-.14941.062h-.97754A.21641.21641,0,0,1,26.9318,55.25063Z"/><path class="b" d="M33.61051,51.07a1.915,1.915,0,0,1,.57519,1.53711v2.49414a.20513.20513,0,0,1-.05762.14551.19623.19623,0,0,1-.14941.062h-.97754a.21643.21643,0,0,1-.15332-.0581.19668.19668,0,0,1-.0625-.14942V52.64858a.83091.83091,0,0,0-.93555-.94483H31.3107a4.99646,4.99646,0,0,0-.124,1.21827l.0664,2.17919a.19664.19664,0,0,1-.0625.14942.21641.21641,0,0,1-.15332.0581l-1.75683-.0083a.21641.21641,0,0,1-.15332-.0581.19632.19632,0,0,1-.0625-.14893v-.65478a.19664.19664,0,0,1,.0625-.14942.21641.21641,0,0,1,.15332-.0581h.6709V52.93032a4.46039,4.46039,0,0,1,.125-1.22657h-.48926a.216.216,0,0,1-.15332-.05761.19739.19739,0,0,1-.0625-.14942v-.71289a.19628.19628,0,0,1,.0625-.14892.21637.21637,0,0,1,.15332-.05811h2.31152A2.575,2.575,0,0,1,33.61051,51.07Z"/><path class="b" d="M35.18473,55.25063a.19588.19588,0,0,1-.06153-.14942V50.78383a.1955.1955,0,0,1,.06153-.14892.218.218,0,0,1,.15332-.05811h1.03613a.19826.19826,0,0,1,.207.207v4.31738a.20941.20941,0,0,1-.05762.14551.1977.1977,0,0,1-.14941.062H35.33805A.21807.21807,0,0,1,35.18473,55.25063Z"/><path class="b" d="M37.57144,55.25063a.1959.1959,0,0,1-.06152-.14942V54.339a.211.211,0,0,1,.21484-.21533h1.20215a.88185.88185,0,0,0,.99414-.93653c.00586-.0664.00879-.14892.00879-.24853,0-.09375-.00293-.17432-.00879-.24024a.88184.88184,0,0,0-.99414-.93652H37.72476a.211.211,0,0,1-.21484-.21533v-.7627a.19553.19553,0,0,1,.06152-.14892.21807.21807,0,0,1,.15332-.05811h1.24317a2.01484,2.01484,0,0,1,2.2959,2.12988c.00488.06055.00781.13819.00781.23194a2.57134,2.57134,0,0,1-.543,1.74853,2.225,2.225,0,0,1-1.76074.62158H37.72476A.21811.21811,0,0,1,37.57144,55.25063Z"/><path class="b" d="M42.11246,53.28676a.19585.19585,0,0,1-.06152-.14941V50.78383a.19549.19549,0,0,1,.06152-.14892.218.218,0,0,1,.15332-.05811h1.03613a.19824.19824,0,0,1,.207.207v2.35352a.20746.20746,0,0,1-.05761.145.196.196,0,0,1-.14942.062H42.26578A.21764.21764,0,0,1,42.11246,53.28676Z"/><path class="b" d="M44.967,54.84877a2.03375,2.03375,0,0,1-.56347-1.53711V50.78383a.19549.19549,0,0,1,.06152-.14892.218.218,0,0,1,.15332-.05811H46.7316a2.397,2.397,0,0,1,1.707.50586,2.14,2.14,0,0,1,.57227,1.49121c.00488.05566.00781.18555.00781.38965,0,.21-.00293.34277-.00781.39746a2.15384,2.15384,0,0,1-.59278,1.5127,2.4953,2.4953,0,0,1-1.76074.51757A2.34833,2.34833,0,0,1,44.967,54.84877Zm2.46485-.84521a.94361.94361,0,0,0,.23632-.6836c.00586-.05517.00879-.17431.00879-.35644q0-.26514-.00879-.34815a.96433.96433,0,0,0-.249-.688,1.019,1.019,0,0,0-.72852-.22364H45.68766v1.583a.89225.89225,0,0,0,.249.6919,1.0148,1.0148,0,0,0,.71191.228A1.15979,1.15979,0,0,0,47.4318,54.00356Z"/><path class="b" d="M50.90836,52.0519c.01172.22656.07715.35937.19922.39795l.23242.083a.19269.19269,0,0,1,.10351.09472.3306.3306,0,0,1,.03711.15332l.00782.42285a.21916.21916,0,0,1-.11133.19483.41243.41243,0,0,1-.26953.05371l-.33985-.04932a1.05592,1.05592,0,0,1-.71289-.46,1.662,1.662,0,0,1-.28125-.99023V50.78383a.285.285,0,0,1,.07032-.14892.17854.17854,0,0,1,.13671-.05811h1.67383a2.1428,2.1428,0,0,1,1.62012.55957,2.35847,2.35847,0,0,1,.584,1.57031c.00586.05518.00879.13233.00879.23194a2.6242,2.6242,0,0,1-.53027,1.74463,2.09025,2.09025,0,0,1-1.68262.62548H50.08023a.2148.2148,0,0,1-.15332-.0581.19327.19327,0,0,1-.0625-.14942V54.339a.21262.21262,0,0,1,.21582-.21533h1.53321a.98921.98921,0,0,0,.6914-.24463.96205.96205,0,0,0,.294-.6919c.00586-.05517.00879-.13769.00879-.24853q0-.15747-.00879-.24024a.9382.9382,0,0,0-.28516-.69189,1.00162,1.00162,0,0,0-.70019-.24463h-.70508Z"/><path class="b" d="M20.50894,67.12026a.19557.19557,0,0,1-.06152-.14893V64.61782a.19736.19736,0,0,1,.06152-.14942.21991.21991,0,0,1,.15332-.05762H21.6984a.19755.19755,0,0,1,.207.207v2.35351a.20825.20825,0,0,1-.05762.145.196.196,0,0,1-.14941.062H20.66226A.21811.21811,0,0,1,20.50894,67.12026Z"/><path class="b" d="M27.14762,64.904a1.915,1.915,0,0,1,.57519,1.53711V68.9352a.204.204,0,0,1-.05762.145.19455.19455,0,0,1-.14941.062h-.97754a.216.216,0,0,1-.15332-.05762.19814.19814,0,0,1-.0625-.14941V66.48207a.83075.83075,0,0,0-.93555-.94433h-.53906a4.98983,4.98983,0,0,0-.124,1.21777l.0664,2.17969a.1981.1981,0,0,1-.0625.14941.216.216,0,0,1-.15332.05762l-1.75683-.0083a.21427.21427,0,0,1-.15332-.05811.19481.19481,0,0,1-.0625-.14892v-.65479a.1963.1963,0,0,1,.0625-.14892.21637.21637,0,0,1,.15332-.05811h.6709V66.7643a4.45831,4.45831,0,0,1,.125-1.22656h-.48926a.21637.21637,0,0,1-.15332-.05811.1963.1963,0,0,1-.0625-.14892v-.71289a.19812.19812,0,0,1,.0625-.14942.21818.21818,0,0,1,.15332-.05762H25.4357A2.57235,2.57235,0,0,1,27.14762,64.904Z"/><path class="b" d="M32.35465,64.4684a.20165.20165,0,0,1,.05761.14942v.71289a.20211.20211,0,0,1-.05761.14453.19471.19471,0,0,1-.14942.0625h-.38086a1.274,1.274,0,0,0-.15332.42236,2.95183,2.95183,0,0,0-.05371.58838V68.9601a.15456.15456,0,0,1-.0791.12842.28163.28163,0,0,1-.16113.05371h-.96973a.17134.17134,0,0,1-.18262-.18213V66.45766a1.78881,1.78881,0,0,1,.166-.91992H28.50113a.21374.21374,0,0,1-.207-.207v-.71289a.1947.1947,0,0,1,.0625-.14942.20714.20714,0,0,1,.14453-.05762h3.7041A.20557.20557,0,0,1,32.35465,64.4684Z"/><path class="b" d="M33.19547,67.12026a.19554.19554,0,0,1-.06153-.14893V64.61782a.19734.19734,0,0,1,.06153-.14942.21987.21987,0,0,1,.15332-.05762h1.03613a.19755.19755,0,0,1,.207.207v2.35351a.20825.20825,0,0,1-.05762.145.196.196,0,0,1-.14941.062H33.34879A.21807.21807,0,0,1,33.19547,67.12026Z"/><path class="b" d="M35.59879,69.08461a.19731.19731,0,0,1-.06153-.14941V64.61782a.19734.19734,0,0,1,.06153-.14942.21987.21987,0,0,1,.15332-.05762h1.956a2.60967,2.60967,0,0,1,1.73633.48438,2.01474,2.01474,0,0,1,.55859,1.5957V68.9352a.20831.20831,0,0,1-.05761.145.196.196,0,0,1-.14942.062h-.97754a.216.216,0,0,1-.15332-.05762.19814.19814,0,0,1-.0625-.14941V66.48207a.831.831,0,0,0-.93652-.94433h-.72851V68.9352a.205.205,0,0,1-.0586.145.19244.19244,0,0,1-.14844.062h-.97851A.21764.21764,0,0,1,35.59879,69.08461Z"/><path class="b" d="M40.96891,67.12026a.19554.19554,0,0,1-.06153-.14893V64.61782a.19734.19734,0,0,1,.06153-.14942.21987.21987,0,0,1,.15332-.05762h1.03613a.19755.19755,0,0,1,.207.207v2.35351a.20825.20825,0,0,1-.05762.145.196.196,0,0,1-.14941.062H41.12223A.21807.21807,0,0,1,40.96891,67.12026Z"/></svg>