<svg xmlns="http://www.w3.org/2000/svg" viewBox="0 0 77.80559 50.66958"><defs><style>.a{fill:#e5e5e5;}.b{fill:#181615;}</style></defs><rect class="a" x="0.00001" y="0.00002" width="77.80557" height="50.66953"/><path class="b" d="M34.79234,9.33727a2.2441,2.2441,0,0,1,.47265,1.56152,2.43648,2.43648,0,0,1-.62109,1.72363,3.2955,3.2955,0,0,1-1.55859.93652l-.33985.09961a.15985.15985,0,0,1-.15234-.0581.23632.23632,0,0,1-.07031-.16553V12.598a.24221.24221,0,0,1,.05664-.15332.42264.42264,0,0,1,.15039-.11231l.26562-.10742a1.3345,1.3345,0,0,0,.59961-.44336,1.38652,1.38652,0,0,0,.2207-.84131,1.105,1.105,0,0,0-.18359-.729.88213.88213,0,0,0-.67969-.207h-.21484L31.62827,9.996a.2031.2031,0,0,1-.15039-.05811.19945.19945,0,0,1-.05664-.14941V7.87437a.19655.19655,0,0,1,.06055-.14941.21175.21175,0,0,1,.14648-.05762h.89454a.199.199,0,0,1,.207.207V8.8192h.51367A2.00666,2.00666,0,0,1,34.79234,9.33727Z"/><path class="b" d="M40.31968,8.8773a.2005.2005,0,0,1,.05859.14893v2.45264a1.8025,1.8025,0,0,1-.57226,1.36328,3.0337,3.0337,0,0,1-1.60742.7251l-2.1211.44775a.192.192,0,0,1-.16211-.0415.18464.18464,0,0,1-.07031-.14942v-.7207a.20987.20987,0,0,1,.05469-.145.2405.2405,0,0,1,.13672-.0791l.91992-.22364-.97852-3.50488a1.0734,1.0734,0,0,1-.041-.166.15875.15875,0,0,1,.04883-.11621.16174.16174,0,0,1,.11718-.04932h1.07618a.20113.20113,0,0,1,.125.03711.18653.18653,0,0,1,.0664.08691l.82813,3.38916a1.13378,1.13378,0,0,0,.61328-.46777,1.62489,1.62489,0,0,0,.166-.79981V9.02623a.20047.20047,0,0,1,.0586-.14893.19677.19677,0,0,1,.14843-.0581h.98633A.19677.19677,0,0,1,40.31968,8.8773Z"/><path class="b" d="M46.14585,13.49254a.199.199,0,0,1-.05859-.14893V10.891a.8313.8313,0,0,0-.93555-.94483H43.26109a.21409.21409,0,0,1-.15235-.0581.19668.19668,0,0,1-.0625-.14942v-.7124a.19635.19635,0,0,1,.0625-.14893.212.212,0,0,1,.15235-.0581h1.93164a2.53856,2.53856,0,0,1,1.71875.50537,1.98529,1.98529,0,0,1,.57617,1.57422v2.44482a.1883.1883,0,0,1-.0625.14893.212.212,0,0,1-.15234.0581h-.97852A.19976.19976,0,0,1,46.14585,13.49254Zm-3.03711,0a.19487.19487,0,0,1-.0625-.14893V10.92418a.19664.19664,0,0,1,.0625-.14941.21405.21405,0,0,1,.15235-.05811h.97851a.19858.19858,0,0,1,.14844.05811.20082.20082,0,0,1,.05859.14941v2.41943a.205.205,0,0,1-.05859.145.191.191,0,0,1-.14844.062h-.97851A.212.212,0,0,1,43.10874,13.49254Z"/><path class="b" d="M50.60874,13.49254a.1883.1883,0,0,1-.0625-.14893V10.891a.83189.83189,0,0,0-.9375-.94483H48.35093a.21271.21271,0,0,1-.209-.20752v-.7124a.19632.19632,0,0,1,.0625-.14893.20464.20464,0,0,1,.14648-.0581h1.30859a2.6436,2.6436,0,0,1,1.71875.47217,1.90807,1.90807,0,0,1,.56836,1.5498v2.50244a.205.205,0,0,1-.05859.145.19386.19386,0,0,1-.14844.062h-.97851A.212.212,0,0,1,50.60874,13.49254Z"/><path class="b" d="M55.98179,13.49254a.199.199,0,0,1-.05859-.14893V10.891a.8313.8313,0,0,0-.93555-.94483H53.097a.21408.21408,0,0,1-.15234-.0581.19664.19664,0,0,1-.0625-.14942v-.7124a.19632.19632,0,0,1,.0625-.14893.212.212,0,0,1,.15234-.0581h1.93164a2.53854,2.53854,0,0,1,1.71875.50537,1.98526,1.98526,0,0,1,.57618,1.57422v2.44482a.1883.1883,0,0,1-.0625.14893.212.212,0,0,1-.15235.0581h-.97851A.19976.19976,0,0,1,55.98179,13.49254Zm-3.03711,0a.19483.19483,0,0,1-.0625-.14893V10.92418a.1966.1966,0,0,1,.0625-.14941.214.214,0,0,1,.15234-.05811h.97852a.19858.19858,0,0,1,.14844.05811.20082.20082,0,0,1,.05859.14941v2.41943a.205.205,0,0,1-.05859.145.191.191,0,0,1-.14844.062H53.097A.212.212,0,0,1,52.94468,13.49254Z"/><path class="b" d="M62.00718,10.76207a2.03965,2.03965,0,0,1-.73047.75l.64649.88672a.84905.84905,0,0,1,.07812.12451.33.33,0,0,1,.0293.14893v.67138a.21173.21173,0,0,1-.05664.145.19812.19812,0,0,1-.15039.062H58.46031a.20176.20176,0,0,1-.14649-.062.199.199,0,0,1-.06055-.145v-.73779a.19481.19481,0,0,1,.06055-.14893.21008.21008,0,0,1,.14649-.0581h1.94726L57.99546,9.11754a.27959.27959,0,0,1-.04883-.13281.15069.15069,0,0,1,.05274-.12012.1943.1943,0,0,1,.1289-.04541h1.02735a.30425.30425,0,0,1,.26562.14892l1.16016,1.59131a1.30979,1.30979,0,0,0,.38086-1.05273V9.04283a.22048.22048,0,0,1,.0625-.16162.20545.20545,0,0,1,.15234-.062h.8711a.19267.19267,0,0,1,.14453.06592.22513.22513,0,0,1,.0625.15771v.7124A2.07,2.07,0,0,1,62.00718,10.76207Z"/><path class="b" d="M66.2396,13.49254a.20528.20528,0,0,1-.05664-.14893V10.891a.83189.83189,0,0,0-.9375-.94483H63.35679a.22216.22216,0,0,1-.1543-.0581.19515.19515,0,0,1-.06054-.14942v-.7124a.1948.1948,0,0,1,.06054-.14893.22.22,0,0,1,.1543-.0581h1.92969a2.54418,2.54418,0,0,1,1.7207.50537,1.99192,1.99192,0,0,1,.57617,1.57422v2.44482a.19483.19483,0,0,1-.0625.14893.21665.21665,0,0,1-.15429.0581H66.39A.20427.20427,0,0,1,66.2396,13.49254Zm-3.03711,0a.19336.19336,0,0,1-.06054-.14893V10.92418a.19511.19511,0,0,1,.06054-.14941.22212.22212,0,0,1,.1543-.05811h.97852a.19974.19974,0,0,1,.207.20752v2.41943a.205.205,0,0,1-.0586.145.19385.19385,0,0,1-.14843.062h-.97852A.22.22,0,0,1,63.20249,13.49254Z"/><path class="b" d="M22.74937,19.31187a1.91847,1.91847,0,0,1,.57422,1.53711V23.3441a.202.202,0,0,1-.05664.14453.19729.19729,0,0,1-.15039.0625H22.14a.217.217,0,0,1-.15429-.05859.19451.19451,0,0,1-.0625-.14844V20.891a.83087.83087,0,0,0-.93555-.94532h-.53906a5.04779,5.04779,0,0,0-.123,1.21875L20.392,23.3441a.19454.19454,0,0,1-.0625.14844.21706.21706,0,0,1-.1543.05859l-1.75586-.00879a.2206.2206,0,0,1-.1543-.05761.19818.19818,0,0,1-.0625-.14942V22.681a.19666.19666,0,0,1,.0625-.14942.21706.21706,0,0,1,.1543-.05859h.66992V21.17223a4.53981,4.53981,0,0,1,.125-1.22657h-.48828a.21629.21629,0,0,1-.1543-.05761.1952.1952,0,0,1-.0625-.14942v-.71289a.19454.19454,0,0,1,.0625-.14844.21706.21706,0,0,1,.1543-.05859h2.31055A2.57882,2.57882,0,0,1,22.74937,19.31187Z"/><path class="b" d="M24.32359,23.49254a.19451.19451,0,0,1-.0625-.14844V19.02574a.19451.19451,0,0,1,.0625-.14844.21236.21236,0,0,1,.15234-.05859H25.513a.20042.20042,0,0,1,.207.207V23.3441a.20385.20385,0,0,1-.05859.14453.196.196,0,0,1-.14844.0625H24.47593A.21236.21236,0,0,1,24.32359,23.49254Z"/><path class="b" d="M27.78257,20.2943c.01172.22656.07617.35937.19922.39746l.23242.083a.198.198,0,0,1,.10352.09472.34572.34572,0,0,1,.03711.1543l.00781.42187a.21992.21992,0,0,1-.11133.19532.418.418,0,0,1-.26953.05371l-.33984-.04981a1.05255,1.05255,0,0,1-.71289-.46,1.662,1.662,0,0,1-.28125-.99023v-1.169a.268.268,0,0,1,.07031-.14844.17447.17447,0,0,1,.13672-.05859h1.67382a2.14041,2.14041,0,0,1,1.61915.55957,2.35356,2.35356,0,0,1,.584,1.57031,2.29786,2.29786,0,0,1,.00977.23243,2.61783,2.61783,0,0,1-.53125,1.74414,2.08693,2.08693,0,0,1-1.68165.626H26.95445a.21382.21382,0,0,1-.1543-.05859.19451.19451,0,0,1-.0625-.14844v-.76269a.20992.20992,0,0,1,.0625-.15332.20533.20533,0,0,1,.1543-.0625h1.5332a.9889.9889,0,0,0,.69141-.24415.95869.95869,0,0,0,.293-.69238c.00586-.05469.00977-.13769.00977-.248a2.37473,2.37473,0,0,0-.00977-.24024.93114.93114,0,0,0-.28515-.69238.99885.99885,0,0,0-.69922-.24414h-.70508Z"/><path class="b" d="M31.6146,23.49254a.193.193,0,0,1-.06054-.14844V19.02574a.193.193,0,0,1,.06054-.14844.22036.22036,0,0,1,.1543-.05859h1.03516a.19752.19752,0,0,1,.207.207V23.3441a.21054.21054,0,0,1-.05664.14453.20029.20029,0,0,1-.15039.0625H31.7689A.22036.22036,0,0,1,31.6146,23.49254Z"/><path class="b" d="M36.29624,23.49254a.19454.19454,0,0,1-.0625-.14844V20.891a.83087.83087,0,0,0-.93554-.94532H34.03843a.19885.19885,0,0,1-.14453-.06152.202.202,0,0,1-.0625-.14551v-.71289a.19451.19451,0,0,1,.0625-.14844.20385.20385,0,0,1,.14453-.05859H35.347a2.6487,2.6487,0,0,1,1.72071.47266,1.91375,1.91375,0,0,1,.5664,1.5498V23.3441a.21054.21054,0,0,1-.05664.14453.20026.20026,0,0,1-.15039.0625h-.97656A.21706.21706,0,0,1,36.29624,23.49254Z"/><path class="b" d="M42.97593,19.31187A1.91285,1.91285,0,0,1,43.5521,20.849V23.3441a.20385.20385,0,0,1-.05859.14453.196.196,0,0,1-.14844.0625h-.97851a.2124.2124,0,0,1-.15235-.05859.19454.19454,0,0,1-.0625-.14844V20.891a.83165.83165,0,0,0-.93555-.94532H40.6771a4.94961,4.94961,0,0,0-.125,1.21875l.06641,2.17969a.19454.19454,0,0,1-.0625.14844.2124.2124,0,0,1-.15235.05859l-1.75781-.00879a.2158.2158,0,0,1-.15234-.05761.19814.19814,0,0,1-.0625-.14942V22.681a.19662.19662,0,0,1,.0625-.14942.21237.21237,0,0,1,.15234-.05859h.67188V21.17223a4.38845,4.38845,0,0,1,.125-1.22657h-.49024a.2116.2116,0,0,1-.15234-.05761.19516.19516,0,0,1-.0625-.14942v-.71289a.19451.19451,0,0,1,.0625-.14844.21237.21237,0,0,1,.15234-.05859H41.265A2.5766,2.5766,0,0,1,42.97593,19.31187Z"/><path class="b" d="M50.63218,19.31187a1.91285,1.91285,0,0,1,.57617,1.53711V23.3441a.20385.20385,0,0,1-.05859.14453.196.196,0,0,1-.14844.0625h-.97851a.2124.2124,0,0,1-.15235-.05859.19454.19454,0,0,1-.0625-.14844V20.891a.83165.83165,0,0,0-.93555-.94532h-.53906a4.94961,4.94961,0,0,0-.125,1.21875l.06641,2.17969a.19454.19454,0,0,1-.0625.14844.2124.2124,0,0,1-.15235.05859l-1.75781-.00879a.2158.2158,0,0,1-.15234-.05761.19814.19814,0,0,1-.0625-.14942V22.681a.19662.19662,0,0,1,.0625-.14942.21237.21237,0,0,1,.15234-.05859H46.974V21.17223a4.38845,4.38845,0,0,1,.125-1.22657h-.49024a.2116.2116,0,0,1-.15234-.05761.19516.19516,0,0,1-.0625-.14942v-.71289a.19451.19451,0,0,1,.0625-.14844.21237.21237,0,0,1,.15234-.05859h2.3125A2.5766,2.5766,0,0,1,50.63218,19.31187Z"/><path class="b" d="M52.15757,23.49254a.19454.19454,0,0,1-.0625-.14844v-.76269a.21.21,0,0,1,.0625-.15332.204.204,0,0,1,.15234-.0625H53.513a.88206.88206,0,0,0,.99414-.93653c.00586-.0664.00781-.14844.00781-.248,0-.09375-.002-.17481-.00781-.24024a.88251.88251,0,0,0-.99414-.93652H52.30991a.204.204,0,0,1-.15234-.0625.20841.20841,0,0,1-.0625-.15332v-.7627a.19454.19454,0,0,1,.0625-.14844.21239.21239,0,0,1,.15234-.05859h1.24415A2.01451,2.01451,0,0,1,55.849,20.94859c.00586.06153.00781.13868.00781.23243a2.565,2.565,0,0,1-.543,1.748,2.21944,2.21944,0,0,1-1.75976.62207H52.30991A.21239.21239,0,0,1,52.15757,23.49254Z"/><path class="b" d="M56.69859,21.52867a.19514.19514,0,0,1-.0625-.14941V19.02574a.19451.19451,0,0,1,.0625-.14844.21236.21236,0,0,1,.15234-.05859H57.888a.20042.20042,0,0,1,.207.207v2.35352a.20616.20616,0,0,1-.05859.14551.19523.19523,0,0,1-.14844.06152H56.85093A.21159.21159,0,0,1,56.69859,21.52867Z"/><path class="b" d="M61.347,23.49254a.19454.19454,0,0,1-.0625-.14844V20.891a.83087.83087,0,0,0-.93554-.94532H59.08921a.19887.19887,0,0,1-.14453-.06152.202.202,0,0,1-.0625-.14551v-.71289a.19451.19451,0,0,1,.0625-.14844.20387.20387,0,0,1,.14453-.05859h1.3086a2.64869,2.64869,0,0,1,1.7207.47266,1.91375,1.91375,0,0,1,.5664,1.5498V23.3441a.21054.21054,0,0,1-.05664.14453.20026.20026,0,0,1-.15039.0625h-.97656A.21706.21706,0,0,1,61.347,23.49254Z"/><path class="b" d="M67.37632,20.76207a2.03958,2.03958,0,0,1-.73047.75l.64649.88672a.90153.90153,0,0,1,.07812.124.3337.3337,0,0,1,.0293.14942v.67187a.21054.21054,0,0,1-.05664.14453.20027.20027,0,0,1-.15039.0625H63.82945a.20423.20423,0,0,1-.14649-.0625.1979.1979,0,0,1-.06055-.14453v-.73828a.193.193,0,0,1,.06055-.14844.20843.20843,0,0,1,.14649-.05859h1.94726L63.3646,19.11754a.28131.28131,0,0,1-.04883-.13281.15069.15069,0,0,1,.05274-.12012.1947.1947,0,0,1,.1289-.0459h1.02735a.30472.30472,0,0,1,.26562.14941l1.16016,1.59082a1.30822,1.30822,0,0,0,.38086-1.05175v-.46387a.22084.22084,0,0,1,.0625-.16211.20772.20772,0,0,1,.15234-.0625h.8711a.1932.1932,0,0,1,.14453.06641.22629.22629,0,0,1,.0625.1582v.71191A2.07,2.07,0,0,1,67.37632,20.76207Z"/><path class="b" d="M27.347,29.31187A1.91285,1.91285,0,0,1,27.9232,30.849V33.3441a.20386.20386,0,0,1-.0586.14453.196.196,0,0,1-.14844.0625h-.97851a.21236.21236,0,0,1-.15234-.05859.19451.19451,0,0,1-.0625-.14844V30.891a.83165.83165,0,0,0-.93555-.94532H25.0482a4.94913,4.94913,0,0,0-.125,1.21875l.0664,2.17969a.19451.19451,0,0,1-.0625.14844.21236.21236,0,0,1-.15234.05859L23.017,33.54234a.21583.21583,0,0,1-.15235-.05761.19818.19818,0,0,1-.0625-.14942V32.681a.19666.19666,0,0,1,.0625-.14942A.2124.2124,0,0,1,23.017,32.473h.67187V31.17223a4.38882,4.38882,0,0,1,.125-1.22657h-.49023a.21162.21162,0,0,1-.15235-.05761.1952.1952,0,0,1-.0625-.14942v-.71289a.19454.19454,0,0,1,.0625-.14844.2124.2124,0,0,1,.15235-.05859h2.3125A2.57655,2.57655,0,0,1,27.347,29.31187Z"/><path class="b" d="M28.92124,33.49254a.193.193,0,0,1-.06054-.14844V29.02574a.193.193,0,0,1,.06054-.14844.22036.22036,0,0,1,.1543-.05859H30.1107a.19752.19752,0,0,1,.207.207V33.3441a.21054.21054,0,0,1-.05664.14453.20029.20029,0,0,1-.15039.0625H29.07554A.22036.22036,0,0,1,28.92124,33.49254Z"/><path class="b" d="M31.32359,31.52867a.19366.19366,0,0,1-.06055-.14941V29.02574a.193.193,0,0,1,.06055-.14844.22036.22036,0,0,1,.15429-.05859H32.513a.19752.19752,0,0,1,.207.207v2.35352a.213.213,0,0,1-.05664.14551.1995.1995,0,0,1-.15039.06152H31.47788A.21954.21954,0,0,1,31.32359,31.52867Z"/><path class="b" d="M34.75132,30.2943c.01172.22656.07617.35937.19922.39746l.23242.083a.198.198,0,0,1,.10352.09472.34572.34572,0,0,1,.03711.1543l.00781.42187a.21992.21992,0,0,1-.11133.19532.418.418,0,0,1-.26953.05371l-.33984-.04981a1.05255,1.05255,0,0,1-.71289-.46,1.662,1.662,0,0,1-.28125-.99023v-1.169a.268.268,0,0,1,.07031-.14844.17447.17447,0,0,1,.13672-.05859h1.67382a2.14041,2.14041,0,0,1,1.61915.55957,2.35356,2.35356,0,0,1,.584,1.57031,2.29786,2.29786,0,0,1,.00977.23243,2.61783,2.61783,0,0,1-.53125,1.74414,2.08693,2.08693,0,0,1-1.68165.626H33.9232a.21382.21382,0,0,1-.1543-.05859.19451.19451,0,0,1-.0625-.14844v-.76269a.20992.20992,0,0,1,.0625-.15332.20533.20533,0,0,1,.1543-.0625h1.5332a.9889.9889,0,0,0,.69141-.24415.95869.95869,0,0,0,.293-.69238c.00586-.05469.00977-.13769.00977-.248a2.37473,2.37473,0,0,0-.00977-.24024.93114.93114,0,0,0-.28515-.69238.99885.99885,0,0,0-.69922-.24414h-.70508Z"/><path class="b" d="M40.763,33.49254a.19451.19451,0,0,1-.0625-.14844V30.891a.83087.83087,0,0,0-.93555-.94532H38.50523a.19885.19885,0,0,1-.14453-.06152.202.202,0,0,1-.0625-.14551v-.71289a.19451.19451,0,0,1,.0625-.14844.20385.20385,0,0,1,.14453-.05859h1.30859a2.64867,2.64867,0,0,1,1.7207.47266,1.91372,1.91372,0,0,1,.56641,1.5498V33.3441a.21054.21054,0,0,1-.05664.14453.20026.20026,0,0,1-.15039.0625h-.97656A.21706.21706,0,0,1,40.763,33.49254Z"/><path class="b" d="M47.44273,29.31187A1.91847,1.91847,0,0,1,48.017,30.849V33.3441a.202.202,0,0,1-.05664.14453.19731.19731,0,0,1-.1504.0625h-.97656a.217.217,0,0,1-.15429-.05859.19451.19451,0,0,1-.0625-.14844V30.891a.83087.83087,0,0,0-.93555-.94532H45.142a5.04779,5.04779,0,0,0-.123,1.21875l.06641,2.17969a.19454.19454,0,0,1-.0625.14844.21706.21706,0,0,1-.1543.05859l-1.75586-.00879a.2206.2206,0,0,1-.1543-.05761.19818.19818,0,0,1-.0625-.14942V32.681a.19666.19666,0,0,1,.0625-.14942.21706.21706,0,0,1,.1543-.05859h.66992V31.17223a4.53981,4.53981,0,0,1,.125-1.22657h-.48828a.21629.21629,0,0,1-.1543-.05761.1952.1952,0,0,1-.0625-.14942v-.71289a.19454.19454,0,0,1,.0625-.14844.21706.21706,0,0,1,.1543-.05859h2.31055A2.57882,2.57882,0,0,1,47.44273,29.31187Z"/><path class="b" d="M49.017,33.49254a.19451.19451,0,0,1-.0625-.14844V29.02574a.19451.19451,0,0,1,.0625-.14844.21236.21236,0,0,1,.15234-.05859H50.2064a.20042.20042,0,0,1,.207.207V33.3441a.20385.20385,0,0,1-.05859.14453.196.196,0,0,1-.14844.0625H49.16929A.21236.21236,0,0,1,49.017,33.49254Z"/><path class="b" d="M51.40366,33.49254a.19454.19454,0,0,1-.0625-.14844v-.76269a.21.21,0,0,1,.0625-.15332.204.204,0,0,1,.15235-.0625h1.20312a.88206.88206,0,0,0,.99414-.93653c.00586-.0664.00782-.14844.00782-.248,0-.09375-.002-.17481-.00782-.24024a.88251.88251,0,0,0-.99414-.93652H51.556a.204.204,0,0,1-.15235-.0625.20841.20841,0,0,1-.0625-.15332v-.7627a.19454.19454,0,0,1,.0625-.14844.2124.2124,0,0,1,.15235-.05859h1.24414a2.01451,2.01451,0,0,1,2.29492,2.12988c.00586.06153.00781.13868.00781.23243a2.565,2.565,0,0,1-.543,1.748,2.21942,2.21942,0,0,1-1.75976.62207H51.556A.2124.2124,0,0,1,51.40366,33.49254Z"/><path class="b" d="M55.94468,31.52867a.19514.19514,0,0,1-.0625-.14941V29.02574a.19451.19451,0,0,1,.0625-.14844.21239.21239,0,0,1,.15234-.05859h1.03711a.20042.20042,0,0,1,.207.207v2.35352a.20616.20616,0,0,1-.05859.14551.19522.19522,0,0,1-.14844.06152H56.097A.21162.21162,0,0,1,55.94468,31.52867Z"/><path class="b" d="M58.7982,33.09117a2.037,2.037,0,0,1-.5625-1.53711V29.02574a.193.193,0,0,1,.06054-.14844.22036.22036,0,0,1,.1543-.05859h2.11328a2.39858,2.39858,0,0,1,1.707.50586,2.14433,2.14433,0,0,1,.57227,1.49121c.0039.05566.00781.18555.00781.38965,0,.21-.00391.34277-.00781.39844a2.15272,2.15272,0,0,1-.59375,1.51172,2.49027,2.49027,0,0,1-1.75977.51757A2.353,2.353,0,0,1,58.7982,33.09117Zm2.46484-.8457a.93864.93864,0,0,0,.23633-.6836c.00586-.05468.00976-.17382.00976-.35644,0-.17676-.0039-.293-.00976-.34766a.96021.96021,0,0,0-.248-.6875,1.01842,1.01842,0,0,0-.72851-.22461H59.5189v1.583a.89445.89445,0,0,0,.25.69238,1.01431,1.01431,0,0,0,.71094.22754A1.15534,1.15534,0,0,0,61.263,32.24547Z"/><path class="b" d="M64.7396,30.2943q.01758.33984.19922.39746l.23242.083a.19126.19126,0,0,1,.10352.09472.32158.32158,0,0,1,.03711.1543l.00781.42187a.21992.21992,0,0,1-.11133.19532.41283.41283,0,0,1-.26953.05371l-.33984-.04981a1.05255,1.05255,0,0,1-.71289-.46,1.662,1.662,0,0,1-.28125-.99023v-1.169a.29714.29714,0,0,1,.07031-.14844.18023.18023,0,0,1,.13672-.05859H65.4857a2.14516,2.14516,0,0,1,1.62109.55957,2.36334,2.36334,0,0,1,.584,1.57031c.00586.05567.00782.13282.00782.23243a2.62789,2.62789,0,0,1-.5293,1.74414,2.094,2.094,0,0,1-1.68359.626H63.91148a.2124.2124,0,0,1-.15235-.05859.188.188,0,0,1-.0625-.14844v-.76269a.21342.21342,0,0,1,.21485-.21582h1.5332a.9889.9889,0,0,0,.69141-.24415.96779.96779,0,0,0,.29492-.69238c.00586-.05469.00781-.13769.00781-.248,0-.10547-.002-.18555-.00781-.24024a.946.946,0,0,0-.28516-.69238,1.00385,1.00385,0,0,0-.70117-.24414H64.7396Z"/><path class="b" d="M43.265,43.49254a.193.193,0,0,1-.06054-.14844V39.02574a.193.193,0,0,1,.06054-.14844.22036.22036,0,0,1,.1543-.05859h1.95508a2.60509,2.60509,0,0,1,1.73633.48535,2.00909,2.00909,0,0,1,.55859,1.59473V43.3441a.21054.21054,0,0,1-.05664.14453.20026.20026,0,0,1-.15039.0625H46.4857a.217.217,0,0,1-.1543-.05859.19451.19451,0,0,1-.0625-.14844V40.891a.83087.83087,0,0,0-.93555-.94532h-.72851V43.3441a.20382.20382,0,0,1-.0586.14453.196.196,0,0,1-.14843.0625h-.97852A.22036.22036,0,0,1,43.265,43.49254Z"/><path class="b" d="M48.66929,43.49254a.19451.19451,0,0,1-.0625-.14844V39.02574a.19451.19451,0,0,1,.0625-.14844.21239.21239,0,0,1,.15234-.05859h1.03711a.20042.20042,0,0,1,.207.207V43.3441a.20385.20385,0,0,1-.05859.14453.196.196,0,0,1-.14844.0625H48.82163A.21239.21239,0,0,1,48.66929,43.49254Z"/><path class="b" d="M53.10679,43.6a.2376.2376,0,0,1-.06641-.165V42.598a.25187.25187,0,0,1,.05664-.15821.33117.33117,0,0,1,.15039-.10742l.25586-.10742a1.21525,1.21525,0,0,0,.82813-1.28418,1.09256,1.09256,0,0,0-.18555-.72949.90007.90007,0,0,0-.68359-.207H51.25718a.204.204,0,0,1-.15234-.0625.20837.20837,0,0,1-.0625-.15332v-.77051a.17787.17787,0,0,1,.0664-.14063.22.22,0,0,1,.14844-.05859h2.49414a2.01152,2.01152,0,0,1,1.55078.51856,2.25362,2.25362,0,0,1,.47266,1.56152,2.42908,2.42908,0,0,1-.623,1.72363,3.295,3.295,0,0,1-1.55664.93652l-.33984.09961A.14914.14914,0,0,1,53.10679,43.6Zm-2.00195,1.47559a.19814.19814,0,0,1-.0625-.14942v-4.002a.1981.1981,0,0,1,.0625-.14941.21575.21575,0,0,1,.15234-.05762h.94531a.20011.20011,0,0,1,.14844.05762.20236.20236,0,0,1,.05859.14941v4.002a.2024.2024,0,0,1-.05859.14942.20015.20015,0,0,1-.14844.05761h-.94531A.21578.21578,0,0,1,51.10484,45.07555Z"/><path class="b" d="M56.599,41.52867a.19514.19514,0,0,1-.0625-.14941V39.02574a.19451.19451,0,0,1,.0625-.14844.21236.21236,0,0,1,.15234-.05859h1.03711a.20042.20042,0,0,1,.207.207v2.35352a.20616.20616,0,0,1-.05859.14551.19522.19522,0,0,1-.14844.06152H56.75132A.21159.21159,0,0,1,56.599,41.52867Z"/><path class="b" d="M60.02476,40.2943q.01758.33984.19922.39746l.23242.083a.19125.19125,0,0,1,.10351.09472.32146.32146,0,0,1,.03711.1543l.00782.42187a.21992.21992,0,0,1-.11133.19532.41283.41283,0,0,1-.26953.05371l-.33985-.04981a1.05255,1.05255,0,0,1-.71289-.46,1.662,1.662,0,0,1-.28125-.99023v-1.169a.29715.29715,0,0,1,.07032-.14844.18021.18021,0,0,1,.13671-.05859h1.67383a2.1452,2.1452,0,0,1,1.6211.55957,2.36339,2.36339,0,0,1,.584,1.57031c.00586.05567.00781.13282.00781.23243a2.62789,2.62789,0,0,1-.52929,1.74414,2.094,2.094,0,0,1-1.6836.626H59.19663a.21239.21239,0,0,1-.15234-.05859.188.188,0,0,1-.0625-.14844v-.76269a.21342.21342,0,0,1,.21484-.21582h1.53321a.98886.98886,0,0,0,.6914-.24415.96771.96771,0,0,0,.29492-.69238c.00586-.05469.00782-.13769.00782-.248,0-.10547-.002-.18555-.00782-.24024a.946.946,0,0,0-.28515-.69238,1.00385,1.00385,0,0,0-.70117-.24414h-.70508Z"/><path class="b" d="M63.63413,43.48863a.19991.19991,0,0,1-.0625-.14453v-.71289a.19814.19814,0,0,1,.0625-.14941.20712.20712,0,0,1,.14453-.05762h2.08008V40.891a.82735.82735,0,0,0-.93554-.93653H63.8607a.1926.1926,0,0,1-.14844-.0625.21308.21308,0,0,1-.0586-.15332v-.71289a.19454.19454,0,0,1,.0625-.14844.20389.20389,0,0,1,.14454-.05859h1.10351a2.69617,2.69617,0,0,1,1.752.48926,1.94063,1.94063,0,0,1,.5918,1.583v1.5332h.291a.20009.20009,0,0,1,.14843.05762.20233.20233,0,0,1,.0586.14941v.71289a.20382.20382,0,0,1-.0586.14453.193.193,0,0,1-.14843.0625H63.77866A.19991.19991,0,0,1,63.63413,43.48863Z"/></svg>