<svg xmlns="http://www.w3.org/2000/svg" viewBox="0 0 77.80559 36.04194"><defs><style>.a{fill:#e5e5e5;}.b{fill:#181615;}</style></defs><rect class="a" x="0.00001" y="0.00002" width="77.80557" height="36.04191"/><path class="b" d="M23.20905,9.33607a2.25026,2.25026,0,0,1,.47266,1.562,2.43361,2.43361,0,0,1-.62207,1.72363,3.29738,3.29738,0,0,1-1.55762.93652l-.33984.09961a.16149.16149,0,0,1-.15332-.0581.23633.23633,0,0,1-.07032-.16553v-.8374a.23987.23987,0,0,1,.05762-.15332.41786.41786,0,0,1,.14941-.11182l.26563-.10742a1.33752,1.33752,0,0,0,.60059-.44336,1.38673,1.38673,0,0,0,.21972-.84131,1.11037,1.11037,0,0,0-.18262-.729.882.882,0,0,0-.67968-.20752h-.21485L20.044,9.99477a.19755.19755,0,0,1-.207-.207V7.87367a.19736.19736,0,0,1,.06152-.14941.20728.20728,0,0,1,.14551-.05762h.89453a.19753.19753,0,0,1,.207.207V8.818h.51368A2.0109,2.0109,0,0,1,23.20905,9.33607Z"/><path class="b" d="M28.73639,8.87611a.20083.20083,0,0,1,.0586.14942v2.45263a1.80252,1.80252,0,0,1-.57227,1.36329,3.04084,3.04084,0,0,1-1.60742.72509l-2.12109.44776a.18985.18985,0,0,1-.16211-.042.18366.18366,0,0,1-.07031-.14892v-.72119a.21232.21232,0,0,1,.05371-.14453.241.241,0,0,1,.13672-.07911l.91992-.22363L24.3946,9.14955a1.00033,1.00033,0,0,1-.042-.16553.1702.1702,0,0,1,.166-.166h1.07715a.19831.19831,0,0,1,.124.0376.1781.1781,0,0,1,.06641.08691l.8291,3.38916a1.14116,1.14116,0,0,0,.61328-.46777,1.63587,1.63587,0,0,0,.166-.79981V9.02553a.19828.19828,0,0,1,.207-.20752H28.587A.20084.20084,0,0,1,28.73639,8.87611Z"/><path class="b" d="M34.56159,13.49184a.20359.20359,0,0,1-.05762-.14893V10.88979a.83179.83179,0,0,0-.93652-.94483H31.6778a.21764.21764,0,0,1-.15332-.05762.19587.19587,0,0,1-.06152-.14941v-.7124a.1959.1959,0,0,1,.06152-.14942.21807.21807,0,0,1,.15332-.0581h1.93067a2.54132,2.54132,0,0,1,1.71972.50586,1.98857,1.98857,0,0,1,.57617,1.57422v2.44482a.19291.19291,0,0,1-.0625.14893.2143.2143,0,0,1-.15332.0581H34.711A.202.202,0,0,1,34.56159,13.49184Zm-3.03711,0a.19557.19557,0,0,1-.06152-.14893V10.923a.19557.19557,0,0,1,.06152-.14893.21807.21807,0,0,1,.15332-.0581h.97852a.1997.1997,0,0,1,.207.207v2.41992a.205.205,0,0,1-.0586.145.1941.1941,0,0,1-.14843.062H31.6778A.21593.21593,0,0,1,31.52448,13.49184Z"/><path class="b" d="M39.02448,13.49184a.19294.19294,0,0,1-.0625-.14893V10.88979a.8314.8314,0,0,0-.93652-.94483H36.76667a.19808.19808,0,0,1-.14551-.062.20016.20016,0,0,1-.0625-.145v-.7124a.19664.19664,0,0,1,.0625-.14942.20609.20609,0,0,1,.14551-.0581h1.30859a2.64473,2.64473,0,0,1,1.71973.47265,1.91094,1.91094,0,0,1,.56738,1.54981v2.50244a.20825.20825,0,0,1-.05762.145.1977.1977,0,0,1-.14941.062H39.1778A.21432.21432,0,0,1,39.02448,13.49184Z"/><path class="b" d="M44.39753,13.49184a.20359.20359,0,0,1-.05762-.14893V10.88979a.83179.83179,0,0,0-.93652-.94483H41.51374a.21764.21764,0,0,1-.15332-.05762.19584.19584,0,0,1-.06153-.14941v-.7124a.19588.19588,0,0,1,.06153-.14942.21807.21807,0,0,1,.15332-.0581H43.4444a2.54133,2.54133,0,0,1,1.71973.50586,1.98857,1.98857,0,0,1,.57617,1.57422v2.44482a.19294.19294,0,0,1-.0625.14893.2143.2143,0,0,1-.15332.0581h-.97754A.202.202,0,0,1,44.39753,13.49184Zm-3.03711,0a.19554.19554,0,0,1-.06153-.14893V10.923a.19554.19554,0,0,1,.06153-.14893.21807.21807,0,0,1,.15332-.0581h.97851a.1997.1997,0,0,1,.207.207v2.41992a.205.205,0,0,1-.0586.145.1941.1941,0,0,1-.14844.062h-.97851A.21593.21593,0,0,1,41.36042,13.49184Z"/><path class="b" d="M50.42292,10.76137a2.03679,2.03679,0,0,1-.72949.75l.64648.88672a.87358.87358,0,0,1,.07813.124.33369.33369,0,0,1,.02929.14941v.67139a.20828.20828,0,0,1-.05761.145.19774.19774,0,0,1-.14942.062H46.876a.211.211,0,0,1-.207-.207v-.73779a.19554.19554,0,0,1,.06153-.14893.20776.20776,0,0,1,.1455-.0581h1.94727L46.41218,9.11684a.285.285,0,0,1-.04981-.13282.14854.14854,0,0,1,.05371-.12011A.19212.19212,0,0,1,46.544,8.818h1.02832a.30431.30431,0,0,1,.26465.14941l1.16016,1.59082A1.30871,1.30871,0,0,0,49.378,9.506V9.04213a.22046.22046,0,0,1,.0625-.16162.208.208,0,0,1,.15332-.0625h.87011a.19522.19522,0,0,1,.14551.0664.22421.22421,0,0,1,.06153.15772v.7124A2.05921,2.05921,0,0,1,50.42292,10.76137Z"/><path class="b" d="M54.65632,13.49184a.20359.20359,0,0,1-.05762-.14893V10.88979a.83179.83179,0,0,0-.93652-.94483H51.77253a.21764.21764,0,0,1-.15332-.05762.19584.19584,0,0,1-.06153-.14941v-.7124a.19588.19588,0,0,1,.06153-.14942.21807.21807,0,0,1,.15332-.0581h1.93066a2.54133,2.54133,0,0,1,1.71973.50586,1.98857,1.98857,0,0,1,.57617,1.57422v2.44482a.19294.19294,0,0,1-.0625.14893.21432.21432,0,0,1-.15332.0581h-.97754A.202.202,0,0,1,54.65632,13.49184Zm-3.03711,0a.19554.19554,0,0,1-.06153-.14893V10.923a.19554.19554,0,0,1,.06153-.14893.21807.21807,0,0,1,.15332-.0581H52.751a.19968.19968,0,0,1,.207.207v2.41992a.205.205,0,0,1-.05859.145.19412.19412,0,0,1-.14844.062h-.97851A.21593.21593,0,0,1,51.61921,13.49184Z"/><path class="b" d="M15.43659,28.35316a.19549.19549,0,0,1-.06152-.14892V22.859a.19551.19551,0,0,1,.06152-.14892.218.218,0,0,1,.15332-.05811h.97852a.19971.19971,0,0,1,.207.207v5.34522a.19971.19971,0,0,1-.207.207h-.97852A.218.218,0,0,1,15.43659,28.35316Z"/><path class="b" d="M17.79011,25.362a.19659.19659,0,0,1-.06153-.14941V22.859a.19552.19552,0,0,1,.06153-.14892.218.218,0,0,1,.15332-.05811h1.03613a.19826.19826,0,0,1,.207.207v2.35352a.20826.20826,0,0,1-.05762.145.196.196,0,0,1-.14941.062H17.94343A.21764.21764,0,0,1,17.79011,25.362Z"/><path class="b" d="M21.21686,24.12709c.01172.22656.07715.35889.19922.398l.23242.08252a.19554.19554,0,0,1,.10352.09521.32784.32784,0,0,1,.03711.15332l.00781.42286a.21916.21916,0,0,1-.11133.19482.41242.41242,0,0,1-.26953.05371l-.33984-.0498a1.05262,1.05262,0,0,1-.71289-.46,1.66,1.66,0,0,1-.28125-.99024V22.859a.28515.28515,0,0,1,.07031-.14892.17856.17856,0,0,1,.13672-.05811H21.963a2.1428,2.1428,0,0,1,1.62011.55957,2.35645,2.35645,0,0,1,.584,1.57032c.00586.05517.00879.13232.00879.23193a2.62191,2.62191,0,0,1-.53028,1.74414,2.08864,2.08864,0,0,1-1.68261.62549H20.38874a.21442.21442,0,0,1-.15332-.05762.19325.19325,0,0,1-.0625-.14941V26.4142a.21262.21262,0,0,1,.21582-.21533h1.5332a.98925.98925,0,0,0,.69141-.24463.962.962,0,0,0,.29394-.6919c.00586-.05517.00879-.13818.00879-.24853,0-.105-.00293-.18506-.00879-.24072a.93707.93707,0,0,0-.28515-.69141,1.00165,1.00165,0,0,0-.7002-.24463h-.70508Z"/><path class="b" d="M27.22858,27.32582a.19325.19325,0,0,1-.0625-.14941V24.72377a.8312.8312,0,0,0-.93652-.94482H24.97077a.19807.19807,0,0,1-.14551-.062.201.201,0,0,1-.0625-.145V22.859a.19633.19633,0,0,1,.0625-.14892.20608.20608,0,0,1,.14551-.05811h1.30859a2.64479,2.64479,0,0,1,1.71973.47217,1.91091,1.91091,0,0,1,.56738,1.54981v2.50244a.20746.20746,0,0,1-.05761.145.196.196,0,0,1-.14942.062H27.3819A.21607.21607,0,0,1,27.22858,27.32582Z"/><path class="b" d="M29.5655,27.32582a.19585.19585,0,0,1-.06153-.14941V22.859a.19552.19552,0,0,1,.06153-.14892.218.218,0,0,1,.15332-.05811H30.755a.19826.19826,0,0,1,.207.207v4.31739a.20742.20742,0,0,1-.05762.145.196.196,0,0,1-.14941.062H29.71882A.21768.21768,0,0,1,29.5655,27.32582Z"/><path class="b" d="M36.1153,23.15736a2.00245,2.00245,0,0,1,.53027,1.51661v2.50244a.20324.20324,0,0,1-.05761.145.196.196,0,0,1-.14942.062H34.17682a.211.211,0,0,1-.207-.207V26.464a.19585.19585,0,0,1,.06153-.14941.20777.20777,0,0,1,.1455-.05811h1.06836V24.74037a.99265.99265,0,0,0-.207-.67139.67642.67642,0,0,0-.53808-.24023h-.64649l-.7041,3.33936a.25614.25614,0,0,1-.06641.15332.196.196,0,0,1-.14941.062h-.95312a.20919.20919,0,0,1-.15332-.062.165.165,0,0,1-.0459-.15332l.8125-3.33106h-.54688a.19774.19774,0,0,1-.14941-.062.219.219,0,0,1-.05762-.15332V22.859a.19554.19554,0,0,1,.06152-.14892.20776.20776,0,0,1,.14551-.05811H34.7071A1.957,1.957,0,0,1,36.1153,23.15736Z"/><path class="b" d="M43.71882,23.14516a1.915,1.915,0,0,1,.57519,1.53711v2.49414a.20321.20321,0,0,1-.05762.145.19455.19455,0,0,1-.14941.062h-.97754a.21605.21605,0,0,1-.15332-.05762.19665.19665,0,0,1-.0625-.14941V24.72377a.83091.83091,0,0,0-.93555-.94482H41.419a4.99379,4.99379,0,0,0-.124,1.21826l.0664,2.1792a.19662.19662,0,0,1-.0625.14941.216.216,0,0,1-.15332.05762l-1.75683-.00781a.21642.21642,0,0,1-.15332-.05811.19662.19662,0,0,1-.0625-.14941v-.65479a.19632.19632,0,0,1,.0625-.14893.21641.21641,0,0,1,.15332-.0581h.6709V25.00551a4.46027,4.46027,0,0,1,.125-1.22656h-.48926a.21642.21642,0,0,1-.15332-.05811.1963.1963,0,0,1-.0625-.14893V22.859a.1963.1963,0,0,1,.0625-.14892.21637.21637,0,0,1,.15332-.05811H42.0069A2.575,2.575,0,0,1,43.71882,23.14516Z"/><path class="b" d="M45.24323,27.32582a.19588.19588,0,0,1-.06152-.14941V26.4142a.211.211,0,0,1,.21484-.21533H46.5987a.88208.88208,0,0,0,.99414-.93653c.00586-.0664.00879-.14941.00879-.24853,0-.09424-.00293-.17432-.00879-.24072a.88173.88173,0,0,0-.99414-.936H45.39655a.211.211,0,0,1-.21484-.21533V22.859a.19554.19554,0,0,1,.06152-.14892.218.218,0,0,1,.15332-.05811h1.24317a2.01484,2.01484,0,0,1,2.29589,2.12989c.00489.06054.00782.13769.00782.23193a2.57139,2.57139,0,0,1-.543,1.74853,2.22481,2.22481,0,0,1-1.76074.6211H45.39655A.21768.21768,0,0,1,45.24323,27.32582Z"/><path class="b" d="M49.78425,25.362a.19659.19659,0,0,1-.06153-.14941V22.859a.19552.19552,0,0,1,.06153-.14892.218.218,0,0,1,.15332-.05811H50.9737a.19826.19826,0,0,1,.207.207v2.35352a.20826.20826,0,0,1-.05762.145.196.196,0,0,1-.14941.062H49.93757A.21764.21764,0,0,1,49.78425,25.362Z"/><path class="b" d="M54.43366,27.32582a.19325.19325,0,0,1-.0625-.14941V24.72377a.8312.8312,0,0,0-.93652-.94482H52.17585a.198.198,0,0,1-.14551-.062.201.201,0,0,1-.0625-.145V22.859a.1963.1963,0,0,1,.0625-.14892.20606.20606,0,0,1,.14551-.05811h1.30859a2.64479,2.64479,0,0,1,1.71973.47217,1.91091,1.91091,0,0,1,.56738,1.54981v2.50244a.20742.20742,0,0,1-.05762.145.196.196,0,0,1-.14941.062H54.587A.21605.21605,0,0,1,54.43366,27.32582Z"/><path class="b" d="M60.462,24.59535a2.04408,2.04408,0,0,1-.72949.75l.64648.88672a.82116.82116,0,0,1,.07813.124.33086.33086,0,0,1,.02929.14942v.6709a.20746.20746,0,0,1-.05761.145.196.196,0,0,1-.14942.062H56.91511a.211.211,0,0,1-.207-.207V26.4391a.19731.19731,0,0,1,.06153-.14941.20725.20725,0,0,1,.14551-.05762h1.94726l-2.41113-3.28174a.28366.28366,0,0,1-.04981-.13232.15018.15018,0,0,1,.05371-.12061.19177.19177,0,0,1,.12793-.04541h1.02832a.3043.3043,0,0,1,.26465.14942l1.16016,1.59082a1.30982,1.30982,0,0,0,.38086-1.05274v-.46386a.2205.2205,0,0,1,.0625-.16163.20764.20764,0,0,1,.15332-.062H60.503a.19349.19349,0,0,1,.1455.06641.223.223,0,0,1,.06153.15723v.71289A2.06055,2.06055,0,0,1,60.462,24.59535Z"/></svg>