<svg xmlns="http://www.w3.org/2000/svg" viewBox="0 0 77.80559 50.66958"><defs><style>.a{fill:#d2d2d2;}</style></defs><rect class="a" x="0.00001" y="0.00002" width="77.80557" height="50.66953"/><path d="M34.79269,9.33725a2.2516,2.2516,0,0,1,.47265,1.5625,2.43443,2.43443,0,0,1-.62207,1.72364,3.30119,3.30119,0,0,1-1.55762.93652l-.33984.09863a.159.159,0,0,1-.15332-.05761.23578.23578,0,0,1-.07031-.166V12.598a.23987.23987,0,0,1,.05762-.15332.41108.41108,0,0,1,.14941-.11133l.26562-.1084a1.33039,1.33039,0,0,0,.60059-.44336,1.38412,1.38412,0,0,0,.21973-.84082,1.11469,1.11469,0,0,0-.18262-.72949.884.884,0,0,0-.67969-.207H32.738l-1.11035-.00782a.19895.19895,0,0,1-.207-.207V7.87534a.19439.19439,0,0,1,.06152-.14941.20609.20609,0,0,1,.14551-.0586h.89453a.199.199,0,0,1,.207.208v.94434h.51367A2.0127,2.0127,0,0,1,34.79269,9.33725Z"/><path d="M40.32,8.87729a.2024.2024,0,0,1,.05859.14942v2.45312a1.80322,1.80322,0,0,1-.57226,1.36328,3.04046,3.04046,0,0,1-1.60742.72461l-2.1211.44727a.18938.18938,0,0,1-.16211-.041.186.186,0,0,1-.07031-.14941v-.7207a.21483.21483,0,0,1,.05371-.14551.23949.23949,0,0,1,.13672-.07813l.91992-.22363-.97754-3.50586a1.001,1.001,0,0,1-.042-.165.1582.1582,0,0,1,.04981-.11621.15979.15979,0,0,1,.11621-.0498H37.1794a.20127.20127,0,0,1,.124.0371.17607.17607,0,0,1,.0664.08692l.82911,3.38965a1.1423,1.1423,0,0,0,.61328-.46875,1.63073,1.63073,0,0,0,.166-.79981V9.02671a.19753.19753,0,0,1,.207-.207h.98536A.20242.20242,0,0,1,40.32,8.87729Z"/><path d="M46.14523,13.4935a.20549.20549,0,0,1-.05762-.14941V10.891a.83125.83125,0,0,0-.93653-.94433H43.26144a.21983.21983,0,0,1-.15332-.05762.19733.19733,0,0,1-.06153-.14941V9.02671a.19735.19735,0,0,1,.06153-.14942.21986.21986,0,0,1,.15332-.05761H45.1921a2.54644,2.54644,0,0,1,1.71973.50488,1.9915,1.9915,0,0,1,.57617,1.57519v2.44434a.19468.19468,0,0,1-.0625.14941.21816.21816,0,0,1-.15332.05762h-.97754A.20549.20549,0,0,1,46.14523,13.4935Zm-3.03711,0a.19731.19731,0,0,1-.06153-.14941V10.92417a.19374.19374,0,0,1,.06153-.14844.21633.21633,0,0,1,.15332-.05859H44.24a.20042.20042,0,0,1,.207.207v2.41992a.20222.20222,0,0,1-.05859.14453.19119.19119,0,0,1-.14844.0625h-.97851A.21983.21983,0,0,1,43.10812,13.4935Z"/><path d="M50.60812,13.4935a.19464.19464,0,0,1-.0625-.14941V10.891a.83086.83086,0,0,0-.93653-.94433H48.3503a.1967.1967,0,0,1-.1455-.0625.19991.19991,0,0,1-.0625-.14453V9.02671a.19814.19814,0,0,1,.0625-.14942.20773.20773,0,0,1,.1455-.05761h1.3086a2.64763,2.64763,0,0,1,1.71972.47168,1.91222,1.91222,0,0,1,.56739,1.5498v2.50293a.2054.2054,0,0,1-.05762.14453.19469.19469,0,0,1-.14941.0625h-.97754A.21814.21814,0,0,1,50.60812,13.4935Z"/><path d="M55.98116,13.4935a.20553.20553,0,0,1-.05761-.14941V10.891a.83125.83125,0,0,0-.93653-.94433H53.09737a.21986.21986,0,0,1-.15332-.05762.19736.19736,0,0,1-.06152-.14941V9.02671a.19738.19738,0,0,1,.06152-.14942.2199.2199,0,0,1,.15332-.05761H55.028a2.54641,2.54641,0,0,1,1.71972.50488,1.9915,1.9915,0,0,1,.57618,1.57519v2.44434a.19468.19468,0,0,1-.0625.14941.21817.21817,0,0,1-.15332.05762h-.97754A.20553.20553,0,0,1,55.98116,13.4935Zm-3.03711,0a.19734.19734,0,0,1-.06152-.14941V10.92417a.19377.19377,0,0,1,.06152-.14844.21636.21636,0,0,1,.15332-.05859h.97852a.20042.20042,0,0,1,.207.207v2.41992a.20222.20222,0,0,1-.05859.14453.19119.19119,0,0,1-.14844.0625h-.97852A.21986.21986,0,0,1,52.94405,13.4935Z"/><path d="M62.00655,10.763a2.04393,2.04393,0,0,1-.72949.75l.64649.88672a.79776.79776,0,0,1,.07812.124.33081.33081,0,0,1,.0293.14941v.6709a.2054.2054,0,0,1-.05762.14453.19469.19469,0,0,1-.14941.0625H58.45968a.2119.2119,0,0,1-.207-.207v-.73731a.19732.19732,0,0,1,.06152-.14941.20517.20517,0,0,1,.14551-.05762h1.94726L57.99581,9.11753a.28225.28225,0,0,1-.0498-.13184.14854.14854,0,0,1,.05371-.12012.18727.18727,0,0,1,.12793-.04589H59.156a.30431.30431,0,0,1,.26465.14941l1.16015,1.59082a1.31047,1.31047,0,0,0,.38086-1.05273V9.04331a.22245.22245,0,0,1,.0625-.16211.2091.2091,0,0,1,.15332-.06152h.87012a.19525.19525,0,0,1,.14551.0664.22308.22308,0,0,1,.06152.15723V9.7562A2.06184,2.06184,0,0,1,62.00655,10.763Z"/><path d="M66.23995,13.4935a.20553.20553,0,0,1-.05762-.14941V10.891a.83124.83124,0,0,0-.93652-.94433H63.35616a.21984.21984,0,0,1-.15332-.05762.19736.19736,0,0,1-.06152-.14941V9.02671a.19738.19738,0,0,1,.06152-.14942.21988.21988,0,0,1,.15332-.05761h1.93067a2.54643,2.54643,0,0,1,1.71972.50488,1.9915,1.9915,0,0,1,.57618,1.57519v2.44434a.19468.19468,0,0,1-.0625.14941.21818.21818,0,0,1-.15333.05762h-.97753A.20552.20552,0,0,1,66.23995,13.4935Zm-3.03711,0a.19734.19734,0,0,1-.06152-.14941V10.92417a.19377.19377,0,0,1,.06152-.14844.21635.21635,0,0,1,.15332-.05859h.97852a.20042.20042,0,0,1,.207.207v2.41992a.20222.20222,0,0,1-.05859.14453.19119.19119,0,0,1-.14844.0625h-.97852A.21984.21984,0,0,1,63.20284,13.4935Z"/><path d="M22.74874,19.31284a1.91429,1.91429,0,0,1,.5752,1.53711v2.49414a.2013.2013,0,0,1-.05762.14453.19326.19326,0,0,1-.14942.0625h-.97753a.21814.21814,0,0,1-.15332-.05762.1981.1981,0,0,1-.0625-.14941V20.891a.83056.83056,0,0,0-.93555-.94433h-.53906a4.9949,4.9949,0,0,0-.124,1.21777l.06641,2.17969a.19814.19814,0,0,1-.0625.14941.21816.21816,0,0,1-.15332.05762l-1.75684-.00781a.21469.21469,0,0,1-.15332-.0586.19452.19452,0,0,1-.0625-.14843V22.681a.19815.19815,0,0,1,.0625-.14941.21817.21817,0,0,1,.15332-.05762h.6709V21.17319a4.45869,4.45869,0,0,1,.125-1.22656H18.7253A.21817.21817,0,0,1,18.572,19.889a.19815.19815,0,0,1-.0625-.14941v-.71289a.19818.19818,0,0,1,.0625-.14942.21821.21821,0,0,1,.15332-.05761h2.31153A2.57232,2.57232,0,0,1,22.74874,19.31284Z"/><path d="M24.323,23.4935a.19731.19731,0,0,1-.06152-.14941V19.02671a.19734.19734,0,0,1,.06152-.14942.21986.21986,0,0,1,.15332-.05761h1.03613a.19752.19752,0,0,1,.207.207v4.31738a.20544.20544,0,0,1-.05761.14453.19471.19471,0,0,1-.14942.0625H24.47628A.21983.21983,0,0,1,24.323,23.4935Z"/><path d="M27.78194,20.29428c.01172.22657.07715.35938.19922.39844l.23242.083a.19085.19085,0,0,1,.10352.09473.32923.32923,0,0,1,.03711.15332l.00781.42285a.21838.21838,0,0,1-.11133.19433.40947.40947,0,0,1-.26953.05372l-.33984-.04981a1.05453,1.05453,0,0,1-.71289-.459,1.66206,1.66206,0,0,1-.28125-.99024V19.02671a.28861.28861,0,0,1,.07031-.14942.17989.17989,0,0,1,.13672-.05761H28.528a2.14276,2.14276,0,0,1,1.62011.55957,2.35838,2.35838,0,0,1,.584,1.57031q.00879.082.00879.23144a2.62559,2.62559,0,0,1-.53028,1.74512,2.09,2.09,0,0,1-1.68261.625H26.95382a.21649.21649,0,0,1-.15332-.05762.19468.19468,0,0,1-.0625-.14941v-.7627a.21182.21182,0,0,1,.21582-.21484H28.487a.98951.98951,0,0,0,.69141-.24512.96085.96085,0,0,0,.29394-.6914q.00879-.0835.00879-.249,0-.15674-.00879-.24023a.93791.93791,0,0,0-.28515-.69141,1.002,1.002,0,0,0-.7002-.24511h-.70508Z"/><path d="M31.615,23.4935a.19734.19734,0,0,1-.06152-.14941V19.02671a.19738.19738,0,0,1,.06152-.14942.21988.21988,0,0,1,.15332-.05761H32.8044a.19753.19753,0,0,1,.207.207v4.31738a.20544.20544,0,0,1-.05762.14453.1947.1947,0,0,1-.14942.0625H31.76827A.21984.21984,0,0,1,31.615,23.4935Z"/><path d="M36.29659,23.4935a.19468.19468,0,0,1-.0625-.14941V20.891a.83085.83085,0,0,0-.93652-.94433H34.03878a.19674.19674,0,0,1-.14551-.0625.2.2,0,0,1-.0625-.14453v-.71289a.19818.19818,0,0,1,.0625-.14942.20777.20777,0,0,1,.14551-.05761h1.30859a2.64766,2.64766,0,0,1,1.71973.47168,1.91222,1.91222,0,0,1,.56738,1.5498v2.50293a.20544.20544,0,0,1-.05761.14453.19471.19471,0,0,1-.14942.0625h-.97754A.21817.21817,0,0,1,36.29659,23.4935Z"/><path d="M42.97628,19.31284a1.91429,1.91429,0,0,1,.5752,1.53711v2.49414a.2013.2013,0,0,1-.05762.14453.19326.19326,0,0,1-.14942.0625H42.3669a.21817.21817,0,0,1-.15332-.05762.19814.19814,0,0,1-.0625-.14941V20.891a.83056.83056,0,0,0-.93554-.94433h-.53906a4.9949,4.9949,0,0,0-.124,1.21777l.06641,2.17969a.19814.19814,0,0,1-.0625.14941.21817.21817,0,0,1-.15332.05762l-1.75684-.00781a.21467.21467,0,0,1-.15332-.0586.19452.19452,0,0,1-.0625-.14843V22.681a.19815.19815,0,0,1,.0625-.14941.21816.21816,0,0,1,.15332-.05762h.6709V21.17319a4.45869,4.45869,0,0,1,.125-1.22656h-.48926a.21817.21817,0,0,1-.15332-.05762.19815.19815,0,0,1-.0625-.14941v-.71289a.19818.19818,0,0,1,.0625-.14942.21821.21821,0,0,1,.15332-.05761h2.31153A2.57234,2.57234,0,0,1,42.97628,19.31284Z"/><path d="M50.63253,19.31284a1.91429,1.91429,0,0,1,.5752,1.53711v2.49414a.2013.2013,0,0,1-.05762.14453.19326.19326,0,0,1-.14942.0625h-.97754a.21817.21817,0,0,1-.15332-.05762.19814.19814,0,0,1-.0625-.14941V20.891a.83056.83056,0,0,0-.93554-.94433h-.53906a4.9949,4.9949,0,0,0-.124,1.21777l.06641,2.17969a.19814.19814,0,0,1-.0625.14941.21817.21817,0,0,1-.15332.05762l-1.75684-.00781a.21467.21467,0,0,1-.15332-.0586.19452.19452,0,0,1-.0625-.14843V22.681a.19815.19815,0,0,1,.0625-.14941.21816.21816,0,0,1,.15332-.05762h.6709V21.17319a4.45869,4.45869,0,0,1,.125-1.22656h-.48926a.21817.21817,0,0,1-.15332-.05762.19815.19815,0,0,1-.0625-.14941v-.71289a.19818.19818,0,0,1,.0625-.14942.21821.21821,0,0,1,.15332-.05761h2.31153A2.57234,2.57234,0,0,1,50.63253,19.31284Z"/><path d="M52.15694,23.4935a.19734.19734,0,0,1-.06152-.14941v-.7627a.21022.21022,0,0,1,.21484-.21484h1.20215a.88207.88207,0,0,0,.99414-.93652q.00879-.09961.00879-.249,0-.14062-.00879-.24023a.88207.88207,0,0,0-.99414-.93652H52.31026a.21024.21024,0,0,1-.21484-.21485v-.76269a.19738.19738,0,0,1,.06152-.14942.2199.2199,0,0,1,.15332-.05761h1.24317a2.01484,2.01484,0,0,1,2.2959,2.12988c.00488.06055.00781.13769.00781.23144a2.57271,2.57271,0,0,1-.543,1.749,2.22484,2.22484,0,0,1-1.76074.62109H52.31026A.21986.21986,0,0,1,52.15694,23.4935Z"/><path d="M56.698,21.52964a.19734.19734,0,0,1-.06152-.14942V19.02671a.19734.19734,0,0,1,.06152-.14942.21986.21986,0,0,1,.15332-.05761h1.03613a.19752.19752,0,0,1,.207.207v2.35351a.20542.20542,0,0,1-.05761.14453.19468.19468,0,0,1-.14942.0625H56.85128A.21986.21986,0,0,1,56.698,21.52964Z"/><path d="M61.34737,23.4935a.19468.19468,0,0,1-.0625-.14941V20.891a.83085.83085,0,0,0-.93652-.94433H59.08956a.19674.19674,0,0,1-.14551-.0625.2.2,0,0,1-.0625-.14453v-.71289a.19818.19818,0,0,1,.0625-.14942.20777.20777,0,0,1,.14551-.05761h1.30859a2.64765,2.64765,0,0,1,1.71973.47168,1.91222,1.91222,0,0,1,.56738,1.5498v2.50293a.20544.20544,0,0,1-.05761.14453.19471.19471,0,0,1-.14942.0625h-.97754A.21817.21817,0,0,1,61.34737,23.4935Z"/><path d="M67.37569,20.763a2.04393,2.04393,0,0,1-.72949.75l.64649.88672a.79776.79776,0,0,1,.07812.124.33081.33081,0,0,1,.0293.14941v.6709a.2054.2054,0,0,1-.05762.14453.19469.19469,0,0,1-.14941.0625H63.82882a.2119.2119,0,0,1-.207-.207v-.73731a.19736.19736,0,0,1,.06152-.14941.20517.20517,0,0,1,.14551-.05762h1.94726L63.365,19.11753a.28225.28225,0,0,1-.0498-.13184.14857.14857,0,0,1,.05371-.12012.18727.18727,0,0,1,.12793-.04589h1.02832a.30431.30431,0,0,1,.26465.14941l1.16015,1.59082a1.31047,1.31047,0,0,0,.38086-1.05273v-.46387a.22245.22245,0,0,1,.0625-.16211.20912.20912,0,0,1,.15332-.06152h.87012a.19523.19523,0,0,1,.14551.0664.22308.22308,0,0,1,.06152.15723v.71289A2.06184,2.06184,0,0,1,67.37569,20.763Z"/><path d="M27.34737,29.31284a1.91429,1.91429,0,0,1,.5752,1.53711v2.49414a.2013.2013,0,0,1-.05762.14453.19325.19325,0,0,1-.14941.0625H26.738a.21814.21814,0,0,1-.15332-.05762.1981.1981,0,0,1-.0625-.14941V30.891a.83056.83056,0,0,0-.93555-.94433h-.53906a4.99491,4.99491,0,0,0-.124,1.21777l.0664,2.17969a.1981.1981,0,0,1-.0625.14941.21814.21814,0,0,1-.15332.05762l-1.75683-.00781a.21466.21466,0,0,1-.15332-.0586.19449.19449,0,0,1-.0625-.14843V32.681a.19812.19812,0,0,1,.0625-.14941.21814.21814,0,0,1,.15332-.05762h.67089V31.17319a4.45908,4.45908,0,0,1,.125-1.22656h-.48925a.21814.21814,0,0,1-.15332-.05762.19812.19812,0,0,1-.0625-.14941v-.71289a.19814.19814,0,0,1,.0625-.14942.21818.21818,0,0,1,.15332-.05761h2.31152A2.5723,2.5723,0,0,1,27.34737,29.31284Z"/><path d="M28.92159,33.4935a.19734.19734,0,0,1-.06152-.14941V29.02671a.19738.19738,0,0,1,.06152-.14942.21988.21988,0,0,1,.15332-.05761h1.03614a.19753.19753,0,0,1,.207.207v4.31738a.2054.2054,0,0,1-.05762.14453.19469.19469,0,0,1-.14941.0625H29.07491A.21984.21984,0,0,1,28.92159,33.4935Z"/><path d="M31.32394,31.52964a.19735.19735,0,0,1-.06153-.14942V29.02671a.19735.19735,0,0,1,.06153-.14942.21986.21986,0,0,1,.15332-.05761h1.03613a.19753.19753,0,0,1,.207.207v2.35351a.20538.20538,0,0,1-.05762.14453.19464.19464,0,0,1-.14941.0625H31.47726A.21986.21986,0,0,1,31.32394,31.52964Z"/><path d="M34.75069,30.29428c.01172.22657.07715.35938.19922.39844l.23242.083a.19085.19085,0,0,1,.10352.09473.32923.32923,0,0,1,.03711.15332l.00781.42285a.21838.21838,0,0,1-.11133.19433.40947.40947,0,0,1-.26953.05372l-.33984-.04981a1.05453,1.05453,0,0,1-.71289-.459,1.66206,1.66206,0,0,1-.28125-.99024V29.02671a.28861.28861,0,0,1,.07031-.14942.17989.17989,0,0,1,.13672-.05761h1.67383a2.14276,2.14276,0,0,1,1.62011.55957,2.35838,2.35838,0,0,1,.584,1.57031q.00879.082.00879.23144a2.62559,2.62559,0,0,1-.53028,1.74512,2.09,2.09,0,0,1-1.68261.625H33.92257a.21649.21649,0,0,1-.15332-.05762.19468.19468,0,0,1-.0625-.14941v-.7627a.21182.21182,0,0,1,.21582-.21484h1.5332a.98951.98951,0,0,0,.69141-.24512.96085.96085,0,0,0,.29394-.6914q.00879-.0835.00879-.249,0-.15674-.00879-.24023a.93791.93791,0,0,0-.28515-.69141,1.002,1.002,0,0,0-.7002-.24511h-.70508Z"/><path d="M40.76339,33.4935a.19468.19468,0,0,1-.0625-.14941V30.891a.83085.83085,0,0,0-.93652-.94433H38.50558a.1967.1967,0,0,1-.14551-.0625.19991.19991,0,0,1-.0625-.14453v-.71289a.19814.19814,0,0,1,.0625-.14942.20774.20774,0,0,1,.14551-.05761h1.30859a2.64766,2.64766,0,0,1,1.71973.47168,1.91222,1.91222,0,0,1,.56738,1.5498v2.50293a.2054.2054,0,0,1-.05762.14453.19468.19468,0,0,1-.14941.0625h-.97754A.21814.21814,0,0,1,40.76339,33.4935Z"/><path d="M47.4421,29.31284A1.91429,1.91429,0,0,1,48.0173,30.85v2.49414a.2013.2013,0,0,1-.05762.14453.19326.19326,0,0,1-.14942.0625h-.97753a.21818.21818,0,0,1-.15333-.05762.19814.19814,0,0,1-.0625-.14941V30.891a.83056.83056,0,0,0-.93554-.94433H45.1423a4.9949,4.9949,0,0,0-.124,1.21777l.06641,2.17969a.19814.19814,0,0,1-.0625.14941.21817.21817,0,0,1-.15332.05762L43.112,33.54331a.21469.21469,0,0,1-.15332-.0586.19452.19452,0,0,1-.0625-.14843V32.681a.19815.19815,0,0,1,.0625-.14941A.21817.21817,0,0,1,43.112,32.474h.6709V31.17319a4.45869,4.45869,0,0,1,.125-1.22656h-.48926a.21817.21817,0,0,1-.15332-.05762.19815.19815,0,0,1-.0625-.14941v-.71289a.19818.19818,0,0,1,.0625-.14942.21821.21821,0,0,1,.15332-.05761h2.31153A2.57234,2.57234,0,0,1,47.4421,29.31284Z"/><path d="M49.01632,33.4935a.19731.19731,0,0,1-.06152-.14941V29.02671a.19734.19734,0,0,1,.06152-.14942.21986.21986,0,0,1,.15332-.05761h1.03613a.19752.19752,0,0,1,.207.207v4.31738a.20544.20544,0,0,1-.05761.14453.19471.19471,0,0,1-.14942.0625H49.16964A.21983.21983,0,0,1,49.01632,33.4935Z"/><path d="M51.403,33.4935a.19731.19731,0,0,1-.06153-.14941v-.7627a.21024.21024,0,0,1,.21485-.21484h1.20215a.88208.88208,0,0,0,.99414-.93652q.00879-.09961.00879-.249,0-.14062-.00879-.24023a.88208.88208,0,0,0-.99414-.93652H51.55636a.21025.21025,0,0,1-.21485-.21485v-.76269a.19735.19735,0,0,1,.06153-.14942.21986.21986,0,0,1,.15332-.05761h1.24316a2.01484,2.01484,0,0,1,2.2959,2.12988c.00488.06055.00781.13769.00781.23144a2.57271,2.57271,0,0,1-.543,1.749,2.22483,2.22483,0,0,1-1.76074.62109H51.55636A.21983.21983,0,0,1,51.403,33.4935Z"/><path d="M55.94405,31.52964a.19738.19738,0,0,1-.06152-.14942V29.02671a.19738.19738,0,0,1,.06152-.14942.2199.2199,0,0,1,.15332-.05761h1.03614a.19753.19753,0,0,1,.207.207v2.35351a.20538.20538,0,0,1-.05762.14453.19466.19466,0,0,1-.14941.0625H56.09737A.2199.2199,0,0,1,55.94405,31.52964Z"/><path d="M58.79855,33.09116a2.03225,2.03225,0,0,1-.56348-1.53711V29.02671a.19738.19738,0,0,1,.06152-.14942.21988.21988,0,0,1,.15332-.05761h2.11328a2.40162,2.40162,0,0,1,1.707.50488,2.14435,2.14435,0,0,1,.57226,1.49219c.00488.05468.00781.18554.00781.38964,0,.21-.00293.34278-.00781.39747a2.15468,2.15468,0,0,1-.59277,1.51269,2.49764,2.49764,0,0,1-1.76074.51758A2.34628,2.34628,0,0,1,58.79855,33.09116Zm2.46484-.84473a.94443.94443,0,0,0,.23633-.68359c.00586-.05566.00879-.17481.00879-.35645q0-.26512-.00879-.34863a.96392.96392,0,0,0-.249-.6875,1.01674,1.01674,0,0,0-.72851-.22363H59.51925v1.583a.89181.89181,0,0,0,.249.6914,1.01261,1.01261,0,0,0,.71192.22852A1.16241,1.16241,0,0,0,61.26339,32.24643Z"/><path d="M64.73995,30.29428c.01172.22657.07715.35938.19922.39844l.23242.083a.19085.19085,0,0,1,.10352.09473.32923.32923,0,0,1,.03711.15332l.00781.42285a.21838.21838,0,0,1-.11133.19433.40947.40947,0,0,1-.26953.05372l-.33984-.04981a1.05453,1.05453,0,0,1-.71289-.459,1.66206,1.66206,0,0,1-.28125-.99024V29.02671a.28861.28861,0,0,1,.07031-.14942.17987.17987,0,0,1,.13672-.05761h1.67383a2.14276,2.14276,0,0,1,1.62011.55957,2.35843,2.35843,0,0,1,.584,1.57031q.00879.082.00879.23144a2.62559,2.62559,0,0,1-.53028,1.74512,2.09006,2.09006,0,0,1-1.68261.625H63.91183a.21648.21648,0,0,1-.15332-.05762.19464.19464,0,0,1-.0625-.14941v-.7627a.21182.21182,0,0,1,.21582-.21484H65.445a.98951.98951,0,0,0,.69141-.24512.96089.96089,0,0,0,.29394-.6914q.00879-.0835.00879-.249,0-.15674-.00879-.24023a.93791.93791,0,0,0-.28515-.69141,1.002,1.002,0,0,0-.7002-.24511h-.70508Z"/><path d="M43.26534,43.4935a.19734.19734,0,0,1-.06152-.14941V39.02671a.19738.19738,0,0,1,.06152-.14942.21988.21988,0,0,1,.15332-.05761h1.95606a2.607,2.607,0,0,1,1.73633.48437,2.01474,2.01474,0,0,1,.55859,1.5957v2.44434a.2054.2054,0,0,1-.05762.14453.19469.19469,0,0,1-.14941.0625h-.97754a.21814.21814,0,0,1-.15332-.05762.1981.1981,0,0,1-.0625-.14941V40.891a.83085.83085,0,0,0-.93652-.94433h-.72852v3.39746a.20222.20222,0,0,1-.05859.14453.19119.19119,0,0,1-.14844.0625h-.97852A.21984.21984,0,0,1,43.26534,43.4935Z"/><path d="M48.66866,43.4935a.19734.19734,0,0,1-.06152-.14941V39.02671a.19738.19738,0,0,1,.06152-.14942.21988.21988,0,0,1,.15332-.05761h1.03614a.19753.19753,0,0,1,.207.207v4.31738a.2054.2054,0,0,1-.05762.14453.19469.19469,0,0,1-.14941.0625H48.822A.21984.21984,0,0,1,48.66866,43.4935Z"/><path d="M53.10616,43.60093a.2399.2399,0,0,1-.0664-.166V42.598a.2505.2505,0,0,1,.05761-.15723.31934.31934,0,0,1,.14942-.10742l.25683-.1084a1.218,1.218,0,0,0,.82813-1.28418,1.09557,1.09557,0,0,0-.18652-.72949.89862.89862,0,0,0-.6836-.207h-2.2041a.21024.21024,0,0,1-.21484-.21485v-.77148a.17926.17926,0,0,1,.0664-.14063.22189.22189,0,0,1,.14844-.05761h2.49414a2.0127,2.0127,0,0,1,1.54981.51757,2.25165,2.25165,0,0,1,.47265,1.5625,2.43443,2.43443,0,0,1-.62207,1.72364,3.30119,3.30119,0,0,1-1.55762.93652l-.33984.09863A.1491.1491,0,0,1,53.10616,43.60093Zm-2.002,1.47558a.19732.19732,0,0,1-.06152-.14941V40.92417a.19373.19373,0,0,1,.06152-.14844.21633.21633,0,0,1,.15332-.05859h.94531a.20042.20042,0,0,1,.207.207V44.9271a.199.199,0,0,1-.207.207h-.94531A.21983.21983,0,0,1,51.10421,45.07651Z"/><path d="M56.59835,41.52964a.19734.19734,0,0,1-.06152-.14942V39.02671a.19734.19734,0,0,1,.06152-.14942.21986.21986,0,0,1,.15332-.05761H57.7878a.19752.19752,0,0,1,.207.207v2.35351a.20542.20542,0,0,1-.05761.14453.19468.19468,0,0,1-.14942.0625H56.75167A.21986.21986,0,0,1,56.59835,41.52964Z"/><path d="M60.02511,40.29428c.01172.22657.07715.35938.19922.39844l.23242.083a.19087.19087,0,0,1,.10351.09473.32911.32911,0,0,1,.03711.15332l.00782.42285a.21838.21838,0,0,1-.11133.19433.40948.40948,0,0,1-.26953.05372l-.33985-.04981a1.05453,1.05453,0,0,1-.71289-.459,1.66206,1.66206,0,0,1-.28125-.99024V39.02671a.28861.28861,0,0,1,.07031-.14942.1799.1799,0,0,1,.13672-.05761H60.7712a2.1428,2.1428,0,0,1,1.62012.55957,2.35842,2.35842,0,0,1,.584,1.57031q.00879.082.00879.23144a2.62559,2.62559,0,0,1-.53027,1.74512,2.09007,2.09007,0,0,1-1.68262.625H59.197a.21651.21651,0,0,1-.15332-.05762.19468.19468,0,0,1-.0625-.14941v-.7627a.21182.21182,0,0,1,.21582-.21484h1.53321a.98949.98949,0,0,0,.6914-.24512.96086.96086,0,0,0,.29395-.6914q.00879-.08351.00879-.249,0-.15673-.00879-.24023a.93792.93792,0,0,0-.28516-.69141,1.00195,1.00195,0,0,0-.70019-.24511h-.70508Z"/><path d="M63.63351,43.48862a.19827.19827,0,0,1-.0625-.14453V42.6312a.19451.19451,0,0,1,.0625-.14844.20446.20446,0,0,1,.1455-.05859h2.07911V40.891a.82735.82735,0,0,0-.93555-.93652H63.86105a.19375.19375,0,0,1-.14844-.06152.21636.21636,0,0,1-.0586-.15332v-.71289a.19471.19471,0,0,1,.0625-.14942.20716.20716,0,0,1,.14454-.05761h1.10253a2.701,2.701,0,0,1,1.75293.48925,1.93849,1.93849,0,0,1,.5918,1.582v1.53321h.29a.20049.20049,0,0,1,.208.207v.71289a.20219.20219,0,0,1-.0586.14453.19183.19183,0,0,1-.14941.0625H63.779A.1967.1967,0,0,1,63.63351,43.48862Z"/></svg>