<svg xmlns="http://www.w3.org/2000/svg" viewBox="0 0 77.80559 50.66958"><defs><style>.a{fill:#fff;}.b{fill:#2d2a28;}</style></defs><rect class="a" x="0.00001" y="0.00002" width="77.80557" height="50.66953"/><path class="b" d="M34.79161,9.33706a2.2441,2.2441,0,0,1,.47265,1.56152,2.43652,2.43652,0,0,1-.62109,1.72364,3.29566,3.29566,0,0,1-1.55859.93652l-.33985.09961a.15986.15986,0,0,1-.15234-.05811.2363.2363,0,0,1-.07031-.16552V12.5978a.24225.24225,0,0,1,.05664-.15332.42274.42274,0,0,1,.15039-.1123l.26562-.10742a1.33457,1.33457,0,0,0,.59961-.44336,1.38654,1.38654,0,0,0,.2207-.84131,1.10507,1.10507,0,0,0-.18359-.729.88213.88213,0,0,0-.67969-.207h-.21484l-1.10938-.0083a.20313.20313,0,0,1-.15039-.0581.19948.19948,0,0,1-.05664-.14942V7.87417a.19654.19654,0,0,1,.06055-.14941.21175.21175,0,0,1,.14648-.05762h.89454a.199.199,0,0,1,.207.207V8.819h.51367A2.0067,2.0067,0,0,1,34.79161,9.33706Z"/><path class="b" d="M40.319,8.8771a.20048.20048,0,0,1,.05859.14892v2.45264a1.80247,1.80247,0,0,1-.57226,1.36328,3.03355,3.03355,0,0,1-1.60742.7251l-2.1211.44775a.192.192,0,0,1-.16211-.0415.18463.18463,0,0,1-.07031-.14941v-.72071a.20991.20991,0,0,1,.05469-.145.24054.24054,0,0,1,.13672-.0791l.91992-.22363-.97852-3.50488a1.07338,1.07338,0,0,1-.041-.166.15877.15877,0,0,1,.04883-.11621.16174.16174,0,0,1,.11718-.04932h1.07618a.20113.20113,0,0,1,.125.03711.18656.18656,0,0,1,.0664.08692l.82813,3.38916a1.1338,1.1338,0,0,0,.61328-.46778,1.62488,1.62488,0,0,0,.166-.7998V9.026a.20049.20049,0,0,1,.0586-.14892.19678.19678,0,0,1,.14844-.05811h.98632A.19678.19678,0,0,1,40.319,8.8771Z"/><path class="b" d="M46.14512,13.49233a.199.199,0,0,1-.05859-.14892V10.89077A.8313.8313,0,0,0,45.151,9.946H43.26036a.21405.21405,0,0,1-.15235-.05811.19665.19665,0,0,1-.0625-.14941V9.026a.19633.19633,0,0,1,.0625-.14892.212.212,0,0,1,.15235-.05811H45.192a2.53854,2.53854,0,0,1,1.71875.50537,1.9853,1.9853,0,0,1,.57617,1.57422v2.44483a.18828.18828,0,0,1-.0625.14892.212.212,0,0,1-.15234.05811h-.97852A.19975.19975,0,0,1,46.14512,13.49233Zm-3.03711,0a.19485.19485,0,0,1-.0625-.14892V10.924a.19665.19665,0,0,1,.0625-.14941.21409.21409,0,0,1,.15235-.05811h.97851a.19862.19862,0,0,1,.14844.05811.20084.20084,0,0,1,.05859.14941v2.41944a.205.205,0,0,1-.05859.145.191.191,0,0,1-.14844.062h-.97851A.212.212,0,0,1,43.108,13.49233Z"/><path class="b" d="M50.608,13.49233a.18828.18828,0,0,1-.0625-.14892V10.89077A.83189.83189,0,0,0,49.608,9.946H48.3502a.21273.21273,0,0,1-.209-.20752V9.026a.1963.1963,0,0,1,.0625-.14892A.20464.20464,0,0,1,48.3502,8.819h1.30859a2.6436,2.6436,0,0,1,1.71875.47217A1.90808,1.90808,0,0,1,51.9459,10.841v2.50244a.205.205,0,0,1-.05859.145.19389.19389,0,0,1-.14844.062h-.97851A.212.212,0,0,1,50.608,13.49233Z"/><path class="b" d="M55.98106,13.49233a.199.199,0,0,1-.05859-.14892V10.89077a.8313.8313,0,0,0-.93555-.94482H53.09629a.214.214,0,0,1-.15234-.05811.19665.19665,0,0,1-.0625-.14941V9.026a.19633.19633,0,0,1,.0625-.14892.212.212,0,0,1,.15234-.05811h1.93165a2.53858,2.53858,0,0,1,1.71875.50537,1.9853,1.9853,0,0,1,.57617,1.57422v2.44483a.18828.18828,0,0,1-.0625.14892.212.212,0,0,1-.15235.05811H56.1295A.19973.19973,0,0,1,55.98106,13.49233Zm-3.03711,0a.19485.19485,0,0,1-.0625-.14892V10.924a.19665.19665,0,0,1,.0625-.14941.21409.21409,0,0,1,.15234-.05811h.97852a.19862.19862,0,0,1,.14844.05811.20084.20084,0,0,1,.05859.14941v2.41944a.205.205,0,0,1-.05859.145.191.191,0,0,1-.14844.062h-.97852A.212.212,0,0,1,52.944,13.49233Z"/><path class="b" d="M62.00645,10.76186a2.03958,2.03958,0,0,1-.73047.75l.64649.88672a.84958.84958,0,0,1,.07812.12451.33006.33006,0,0,1,.0293.14893v.67139a.21177.21177,0,0,1-.05664.145.19814.19814,0,0,1-.15039.062H58.45958a.20181.20181,0,0,1-.14649-.062.199.199,0,0,1-.06055-.145v-.7378a.19479.19479,0,0,1,.06055-.14892.21006.21006,0,0,1,.14649-.05811h1.94726L57.99473,9.11733a.27956.27956,0,0,1-.04883-.13281.15072.15072,0,0,1,.05274-.12012.1943.1943,0,0,1,.1289-.04541h1.02735a.30424.30424,0,0,1,.26562.14893l1.16016,1.59131a1.30981,1.30981,0,0,0,.38086-1.05274V9.04263A.22046.22046,0,0,1,61.024,8.881a.20542.20542,0,0,1,.15234-.062h.8711a.19271.19271,0,0,1,.14453.06592.22513.22513,0,0,1,.0625.15772V9.755A2.06994,2.06994,0,0,1,62.00645,10.76186Z"/><path class="b" d="M66.23887,13.49233a.20526.20526,0,0,1-.05664-.14892V10.89077a.83189.83189,0,0,0-.9375-.94482H63.35606a.22212.22212,0,0,1-.1543-.05811.19513.19513,0,0,1-.06054-.14941V9.026a.19478.19478,0,0,1,.06054-.14892.22.22,0,0,1,.1543-.05811h1.92969a2.54416,2.54416,0,0,1,1.7207.50537,1.99194,1.99194,0,0,1,.57617,1.57422v2.44483a.19481.19481,0,0,1-.0625.14892.21662.21662,0,0,1-.15429.05811h-.97657A.20426.20426,0,0,1,66.23887,13.49233Zm-3.03711,0a.19334.19334,0,0,1-.06054-.14892V10.924a.19513.19513,0,0,1,.06054-.14941.22217.22217,0,0,1,.1543-.05811h.97852a.19974.19974,0,0,1,.207.20752v2.41944a.205.205,0,0,1-.0586.145.19388.19388,0,0,1-.14843.062h-.97852A.21991.21991,0,0,1,63.20176,13.49233Z"/><path class="b" d="M22.74864,19.31167a1.91956,1.91956,0,0,1,.57422,1.5376v2.49414a.20313.20313,0,0,1-.05664.145.19524.19524,0,0,1-.15039.062h-.97657a.21662.21662,0,0,1-.15429-.05811.19481.19481,0,0,1-.0625-.14892V20.89077a.83052.83052,0,0,0-.93555-.94482h-.53906a5.041,5.041,0,0,0-.123,1.21826l.06641,2.1792a.19485.19485,0,0,1-.0625.14892.21664.21664,0,0,1-.1543.05811l-1.75586-.0083a.21843.21843,0,0,1-.1543-.05762.1974.1974,0,0,1-.0625-.14941v-.65479a.19632.19632,0,0,1,.0625-.14892.21877.21877,0,0,1,.1543-.05811h.66992V21.172a4.536,4.536,0,0,1,.125-1.22607H18.7252a.21877.21877,0,0,1-.1543-.05811.19665.19665,0,0,1-.0625-.14941V19.026a.19633.19633,0,0,1,.0625-.14892.21668.21668,0,0,1,.1543-.05811h2.31055A2.57876,2.57876,0,0,1,22.74864,19.31167Z"/><path class="b" d="M24.32286,23.49233a.19481.19481,0,0,1-.0625-.14892V19.026a.1963.1963,0,0,1,.0625-.14892.212.212,0,0,1,.15234-.05811h1.03711a.1997.1997,0,0,1,.207.207v4.31739a.205.205,0,0,1-.05859.145.19389.19389,0,0,1-.14844.062H24.4752A.21193.21193,0,0,1,24.32286,23.49233Z"/><path class="b" d="M27.78184,20.29409c.01172.22656.07617.35889.19922.39746l.23242.083a.199.199,0,0,1,.10352.09521.34.34,0,0,1,.03711.15332l.00781.42237a.2199.2199,0,0,1-.11133.19531.41794.41794,0,0,1-.26953.05371l-.33984-.0498a1.05262,1.05262,0,0,1-.71289-.46,1.661,1.661,0,0,1-.28125-.99024V19.026a.27106.27106,0,0,1,.07031-.14892.1741.1741,0,0,1,.13672-.05811h1.67383a2.14025,2.14025,0,0,1,1.61914.55909,2.35352,2.35352,0,0,1,.584,1.57031,2.29749,2.29749,0,0,1,.00977.23242,2.6169,2.6169,0,0,1-.53125,1.74414,2.08674,2.08674,0,0,1-1.68164.62549H26.95372a.21344.21344,0,0,1-.1543-.05811.19481.19481,0,0,1-.0625-.14892V22.5812a.21346.21346,0,0,1,.2168-.21582h1.5332a.9889.9889,0,0,0,.69141-.24414.95844.95844,0,0,0,.293-.6919c.00586-.05517.00977-.13818.00977-.24853a2.39988,2.39988,0,0,0-.00977-.24072.93085.93085,0,0,0-.28515-.6919,1.00111,1.00111,0,0,0-.69922-.24414h-.70508Z"/><path class="b" d="M31.61387,23.49233a.19334.19334,0,0,1-.06054-.14892V19.026a.19478.19478,0,0,1,.06054-.14892.22.22,0,0,1,.1543-.05811h1.03516a.2043.2043,0,0,1,.15039.05811.20687.20687,0,0,1,.05664.14892v4.31739a.21177.21177,0,0,1-.05664.145.19816.19816,0,0,1-.15039.062H31.76817A.21991.21991,0,0,1,31.61387,23.49233Z"/><path class="b" d="M36.29551,23.49233a.19485.19485,0,0,1-.0625-.14892V20.89077a.83051.83051,0,0,0-.93554-.94482H34.0377a.21281.21281,0,0,1-.207-.20752V19.026a.1963.1963,0,0,1,.0625-.14892.2034.2034,0,0,1,.14453-.05811h1.30859a2.646,2.646,0,0,1,1.72071.47217,1.91376,1.91376,0,0,1,.5664,1.54981v2.50244a.21177.21177,0,0,1-.05664.145.19813.19813,0,0,1-.15039.062h-.97656A.21664.21664,0,0,1,36.29551,23.49233Z"/><path class="b" d="M42.9752,19.31167a1.91393,1.91393,0,0,1,.57617,1.5376v2.49414a.205.205,0,0,1-.05859.145.19389.19389,0,0,1-.14844.062h-.97851a.212.212,0,0,1-.15235-.05811.19485.19485,0,0,1-.0625-.14892V20.89077a.83129.83129,0,0,0-.93554-.94482h-.53907a4.943,4.943,0,0,0-.125,1.21826l.06641,2.1792a.19485.19485,0,0,1-.0625.14892.212.212,0,0,1-.15234.05811l-1.75782-.0083a.21369.21369,0,0,1-.15234-.05762.19737.19737,0,0,1-.0625-.14941v-.65479a.19628.19628,0,0,1,.0625-.14892.214.214,0,0,1,.15234-.05811H39.317V21.172a4.38476,4.38476,0,0,1,.125-1.22607h-.49024a.214.214,0,0,1-.15234-.05811.19662.19662,0,0,1-.0625-.14941V19.026a.1963.1963,0,0,1,.0625-.14892.212.212,0,0,1,.15234-.05811h2.3125A2.57653,2.57653,0,0,1,42.9752,19.31167Z"/><path class="b" d="M50.63145,19.31167a1.91393,1.91393,0,0,1,.57617,1.5376v2.49414a.205.205,0,0,1-.05859.145.19389.19389,0,0,1-.14844.062h-.97851a.212.212,0,0,1-.15235-.05811.19485.19485,0,0,1-.0625-.14892V20.89077a.83129.83129,0,0,0-.93554-.94482h-.53907a4.943,4.943,0,0,0-.125,1.21826l.06641,2.1792a.19485.19485,0,0,1-.0625.14892.212.212,0,0,1-.15234.05811l-1.75782-.0083a.21369.21369,0,0,1-.15234-.05762.19737.19737,0,0,1-.0625-.14941v-.65479a.19628.19628,0,0,1,.0625-.14892.214.214,0,0,1,.15234-.05811h.67188V21.172a4.38476,4.38476,0,0,1,.125-1.22607H46.608a.214.214,0,0,1-.15234-.05811.19662.19662,0,0,1-.0625-.14941V19.026a.1963.1963,0,0,1,.0625-.14892A.212.212,0,0,1,46.608,18.819h2.3125A2.57653,2.57653,0,0,1,50.63145,19.31167Z"/><path class="b" d="M52.15684,23.49233a.19485.19485,0,0,1-.0625-.14892V22.5812a.2092.2092,0,0,1,.0625-.15332.20589.20589,0,0,1,.15235-.0625h1.20312a.88216.88216,0,0,0,.99414-.936c.00586-.0664.00781-.14941.00781-.24853,0-.09424-.002-.17432-.00781-.24072a.88216.88216,0,0,0-.99414-.936H52.30919a.20586.20586,0,0,1-.15235-.0625.20917.20917,0,0,1-.0625-.15332V19.026a.19633.19633,0,0,1,.0625-.14892.212.212,0,0,1,.15235-.05811h1.24414a2.0144,2.0144,0,0,1,2.29492,2.1294c.00586.061.00781.13818.00781.23242a2.56507,2.56507,0,0,1-.543,1.748,2.221,2.221,0,0,1-1.75976.62158H52.30919A.212.212,0,0,1,52.15684,23.49233Z"/><path class="b" d="M56.69786,21.52847a.19557.19557,0,0,1-.0625-.14893V19.026a.1963.1963,0,0,1,.0625-.14892.212.212,0,0,1,.15234-.05811h1.03711a.1997.1997,0,0,1,.207.207v2.35352a.205.205,0,0,1-.05859.145.19389.19389,0,0,1-.14844.062H56.8502A.212.212,0,0,1,56.69786,21.52847Z"/><path class="b" d="M61.34629,23.49233a.19485.19485,0,0,1-.0625-.14892V20.89077a.83051.83051,0,0,0-.93554-.94482H59.08848a.21281.21281,0,0,1-.207-.20752V19.026a.19633.19633,0,0,1,.0625-.14892.2034.2034,0,0,1,.14453-.05811h1.3086a2.646,2.646,0,0,1,1.7207.47217,1.91376,1.91376,0,0,1,.56641,1.54981v2.50244a.21178.21178,0,0,1-.05665.145.19813.19813,0,0,1-.15039.062h-.97656A.21664.21664,0,0,1,61.34629,23.49233Z"/><path class="b" d="M67.37559,20.76186a2.0395,2.0395,0,0,1-.73047.75l.64649.88672a.84958.84958,0,0,1,.07812.12451.33006.33006,0,0,1,.0293.14893v.67139a.21177.21177,0,0,1-.05664.145.19814.19814,0,0,1-.15039.062H63.82872a.20181.20181,0,0,1-.14649-.062.199.199,0,0,1-.06054-.145v-.7378a.19478.19478,0,0,1,.06054-.14892.21006.21006,0,0,1,.14649-.05811H65.776l-2.41211-3.28125a.27956.27956,0,0,1-.04883-.13281.15072.15072,0,0,1,.05274-.12012.1943.1943,0,0,1,.12891-.04541H64.524a.30424.30424,0,0,1,.26562.14893l1.16016,1.59131a1.30981,1.30981,0,0,0,.38086-1.05274v-.46386a.22046.22046,0,0,1,.0625-.16162.20544.20544,0,0,1,.15234-.062h.8711a.19271.19271,0,0,1,.14453.06592.22513.22513,0,0,1,.0625.15772v.7124A2.06994,2.06994,0,0,1,67.37559,20.76186Z"/><path class="b" d="M27.34629,29.31167a1.91394,1.91394,0,0,1,.57618,1.5376v2.49414a.205.205,0,0,1-.0586.145.19388.19388,0,0,1-.14843.062h-.97852a.21193.21193,0,0,1-.15234-.05811.19481.19481,0,0,1-.0625-.14892V30.89077a.8313.8313,0,0,0-.93555-.94482h-.53906a4.94249,4.94249,0,0,0-.125,1.21826l.0664,2.1792a.19481.19481,0,0,1-.0625.14892.21193.21193,0,0,1-.15234.05811l-1.75781-.0083a.21371.21371,0,0,1-.15235-.05762.1974.1974,0,0,1-.0625-.14941v-.65479a.19632.19632,0,0,1,.0625-.14892.21405.21405,0,0,1,.15235-.05811h.67187V31.172a4.38513,4.38513,0,0,1,.125-1.22607h-.49023a.21405.21405,0,0,1-.15235-.05811.19665.19665,0,0,1-.0625-.14941V29.026a.19633.19633,0,0,1,.0625-.14892.212.212,0,0,1,.15235-.05811h2.3125A2.5765,2.5765,0,0,1,27.34629,29.31167Z"/><path class="b" d="M28.92051,33.49233a.19334.19334,0,0,1-.06054-.14892V29.026a.19478.19478,0,0,1,.06054-.14892.22.22,0,0,1,.1543-.05811H30.11a.2043.2043,0,0,1,.15039.05811.20687.20687,0,0,1,.05664.14892v4.31739a.21177.21177,0,0,1-.05664.145.19816.19816,0,0,1-.15039.062H29.07481A.21991.21991,0,0,1,28.92051,33.49233Z"/><path class="b" d="M31.32286,31.52847a.19405.19405,0,0,1-.06055-.14893V29.026a.19475.19475,0,0,1,.06055-.14892.22.22,0,0,1,.15429-.05811h1.03516a.20427.20427,0,0,1,.15039.05811.20687.20687,0,0,1,.05664.14892v2.35352a.21173.21173,0,0,1-.05664.145.19813.19813,0,0,1-.15039.062H31.47715A.21994.21994,0,0,1,31.32286,31.52847Z"/><path class="b" d="M34.75059,30.29409c.01172.22656.07617.35889.19922.39746l.23242.083a.199.199,0,0,1,.10352.09521.34.34,0,0,1,.03711.15332l.00781.42237a.2199.2199,0,0,1-.11133.19531.41794.41794,0,0,1-.26953.05371l-.33984-.0498a1.05262,1.05262,0,0,1-.71289-.46,1.661,1.661,0,0,1-.28125-.99024V29.026a.27106.27106,0,0,1,.07031-.14892.1741.1741,0,0,1,.13672-.05811h1.67383a2.14025,2.14025,0,0,1,1.61914.55909,2.35352,2.35352,0,0,1,.584,1.57031,2.29749,2.29749,0,0,1,.00977.23242,2.6169,2.6169,0,0,1-.53125,1.74414,2.08674,2.08674,0,0,1-1.68164.62549H33.92247a.21344.21344,0,0,1-.1543-.05811.19481.19481,0,0,1-.0625-.14892V32.5812a.21346.21346,0,0,1,.2168-.21582h1.5332a.9889.9889,0,0,0,.69141-.24414.95844.95844,0,0,0,.293-.6919c.00586-.05517.00977-.13818.00977-.24853a2.39988,2.39988,0,0,0-.00977-.24072.93085.93085,0,0,0-.28515-.6919,1.00111,1.00111,0,0,0-.69922-.24414h-.70508Z"/><path class="b" d="M40.76231,33.49233a.19481.19481,0,0,1-.0625-.14892V30.89077a.83052.83052,0,0,0-.93555-.94482H38.5045a.21281.21281,0,0,1-.207-.20752V29.026a.1963.1963,0,0,1,.0625-.14892.20338.20338,0,0,1,.14453-.05811h1.30859a2.64594,2.64594,0,0,1,1.7207.47217A1.91373,1.91373,0,0,1,42.1002,30.841v2.50244a.21177.21177,0,0,1-.05664.145.19813.19813,0,0,1-.15039.062h-.97656A.21664.21664,0,0,1,40.76231,33.49233Z"/><path class="b" d="M47.442,29.31167a1.91956,1.91956,0,0,1,.57422,1.5376v2.49414a.20313.20313,0,0,1-.05664.145.19524.19524,0,0,1-.15039.062h-.97657a.21662.21662,0,0,1-.15429-.05811.19481.19481,0,0,1-.0625-.14892V30.89077a.83052.83052,0,0,0-.93555-.94482h-.53906a5.041,5.041,0,0,0-.123,1.21826l.06641,2.1792a.19485.19485,0,0,1-.0625.14892.21664.21664,0,0,1-.1543.05811l-1.75586-.0083a.21843.21843,0,0,1-.1543-.05762.1974.1974,0,0,1-.0625-.14941v-.65479a.19632.19632,0,0,1,.0625-.14892.21877.21877,0,0,1,.1543-.05811h.66992V31.172a4.536,4.536,0,0,1,.125-1.22607h-.48828a.21877.21877,0,0,1-.1543-.05811.19665.19665,0,0,1-.0625-.14941V29.026a.19633.19633,0,0,1,.0625-.14892.21668.21668,0,0,1,.1543-.05811h2.31055A2.57876,2.57876,0,0,1,47.442,29.31167Z"/><path class="b" d="M49.01622,33.49233a.19481.19481,0,0,1-.0625-.14892V29.026a.1963.1963,0,0,1,.0625-.14892.212.212,0,0,1,.15234-.05811h1.03711a.1997.1997,0,0,1,.207.207v4.31739a.205.205,0,0,1-.05859.145.19391.19391,0,0,1-.14844.062H49.16856A.21193.21193,0,0,1,49.01622,33.49233Z"/><path class="b" d="M51.40294,33.49233a.19481.19481,0,0,1-.0625-.14892V32.5812a.20916.20916,0,0,1,.0625-.15332.20586.20586,0,0,1,.15234-.0625H52.7584a.88216.88216,0,0,0,.99414-.936c.00586-.0664.00782-.14941.00782-.24853,0-.09424-.002-.17432-.00782-.24072a.88216.88216,0,0,0-.99414-.936H51.55528a.20582.20582,0,0,1-.15234-.0625.20913.20913,0,0,1-.0625-.15332V29.026a.1963.1963,0,0,1,.0625-.14892.212.212,0,0,1,.15234-.05811h1.24414a2.01439,2.01439,0,0,1,2.29492,2.1294c.00586.061.00781.13818.00781.23242a2.56507,2.56507,0,0,1-.543,1.748,2.221,2.221,0,0,1-1.75977.62158H51.55528A.21193.21193,0,0,1,51.40294,33.49233Z"/><path class="b" d="M55.944,31.52847a.19561.19561,0,0,1-.0625-.14893V29.026a.19633.19633,0,0,1,.0625-.14892.212.212,0,0,1,.15234-.05811H57.1334a.19971.19971,0,0,1,.207.207v2.35352a.205.205,0,0,1-.0586.145.19389.19389,0,0,1-.14844.062H56.09629A.212.212,0,0,1,55.944,31.52847Z"/><path class="b" d="M58.79747,33.09048a2.03624,2.03624,0,0,1-.5625-1.53711V29.026a.19478.19478,0,0,1,.06054-.14892.22.22,0,0,1,.1543-.05811h2.11328a2.39861,2.39861,0,0,1,1.707.50537,2.14468,2.14468,0,0,1,.57227,1.4917c.0039.05518.00781.18506.00781.38916,0,.21-.00391.34278-.00781.39795a2.153,2.153,0,0,1-.59375,1.51221,2.49023,2.49023,0,0,1-1.75977.51807A2.351,2.351,0,0,1,58.79747,33.09048Zm2.46484-.84522a.93945.93945,0,0,0,.23633-.68359c.00586-.05518.00976-.17383.00976-.35645,0-.17675-.0039-.29248-.00976-.34765a.96235.96235,0,0,0-.248-.688,1.02056,1.02056,0,0,0-.72851-.22363H59.51817v1.58252a.89445.89445,0,0,0,.25.69238,1.012,1.012,0,0,0,.71094.22754A1.15528,1.15528,0,0,0,61.26231,32.24526Z"/><path class="b" d="M64.73887,30.29409q.01758.33984.19922.39746l.23242.083a.19218.19218,0,0,1,.10352.09521.31647.31647,0,0,1,.03711.15332l.00781.42237a.2199.2199,0,0,1-.11133.19531.41276.41276,0,0,1-.26953.05371l-.33984-.0498a1.05262,1.05262,0,0,1-.71289-.46,1.661,1.661,0,0,1-.28125-.99024V29.026a.30082.30082,0,0,1,.07031-.14892.17981.17981,0,0,1,.13672-.05811H65.485a2.145,2.145,0,0,1,1.62109.55909,2.3633,2.3633,0,0,1,.584,1.57031c.00586.05566.00782.13281.00782.23242a2.627,2.627,0,0,1-.5293,1.74414,2.09379,2.09379,0,0,1-1.68359.62549H63.91075a.212.212,0,0,1-.15235-.05811.18831.18831,0,0,1-.0625-.14892V32.5812a.2019.2019,0,0,1,.0625-.15332.20589.20589,0,0,1,.15235-.0625H65.444a.9889.9889,0,0,0,.69141-.24414.96754.96754,0,0,0,.29492-.6919c.00586-.05517.00781-.13818.00781-.24853,0-.105-.002-.18555-.00781-.24072a.94573.94573,0,0,0-.28516-.6919,1.0061,1.0061,0,0,0-.70117-.24414h-.70508Z"/><path class="b" d="M43.26426,43.49233a.19334.19334,0,0,1-.06054-.14892V39.026a.19478.19478,0,0,1,.06054-.14892.22.22,0,0,1,.1543-.05811h1.95508a2.6051,2.6051,0,0,1,1.73633.48487,2.00909,2.00909,0,0,1,.55859,1.59472v2.44483a.21177.21177,0,0,1-.05664.145.19813.19813,0,0,1-.15039.062H46.485a.21664.21664,0,0,1-.1543-.05811.19481.19481,0,0,1-.0625-.14892V40.89077a.83052.83052,0,0,0-.93555-.94482h-.72851v3.39746a.205.205,0,0,1-.0586.145.19388.19388,0,0,1-.14843.062h-.97852A.21991.21991,0,0,1,43.26426,43.49233Z"/><path class="b" d="M48.66856,43.49233a.19481.19481,0,0,1-.0625-.14892V39.026a.1963.1963,0,0,1,.0625-.14892.212.212,0,0,1,.15234-.05811H49.858a.1997.1997,0,0,1,.207.207v4.31739a.205.205,0,0,1-.05859.145.19389.19389,0,0,1-.14844.062H48.8209A.212.212,0,0,1,48.66856,43.49233Z"/><path class="b" d="M53.10606,43.60024a.24045.24045,0,0,1-.06641-.16552V42.5978a.2486.2486,0,0,1,.05664-.15771.325.325,0,0,1,.1504-.10791l.25585-.10742a1.21536,1.21536,0,0,0,.82813-1.28467,1.09283,1.09283,0,0,0-.18555-.729.89814.89814,0,0,0-.68359-.207H51.25645a.20582.20582,0,0,1-.15234-.0625.20913.20913,0,0,1-.0625-.15332v-.77051a.17785.17785,0,0,1,.0664-.14062.2195.2195,0,0,1,.14844-.05811h2.49414a2.01148,2.01148,0,0,1,1.55078.51807,2.25362,2.25362,0,0,1,.47266,1.56152,2.42912,2.42912,0,0,1-.62305,1.72364,3.29894,3.29894,0,0,1-1.55664.93652l-.33984.09961A.15069.15069,0,0,1,53.10606,43.60024Zm-2.002,1.4751a.19662.19662,0,0,1-.0625-.14941V40.924a.19662.19662,0,0,1,.0625-.14941.21405.21405,0,0,1,.15234-.05811h.94531a.19862.19862,0,0,1,.14844.05811.20084.20084,0,0,1,.05859.14941v4.002a.20084.20084,0,0,1-.05859.14941.19858.19858,0,0,1-.14844.05811h-.94531A.214.214,0,0,1,51.10411,45.07534Z"/><path class="b" d="M56.59825,41.52847a.19557.19557,0,0,1-.0625-.14893V39.026a.1963.1963,0,0,1,.0625-.14892.212.212,0,0,1,.15234-.05811H57.7877a.1997.1997,0,0,1,.207.207v2.35352a.205.205,0,0,1-.05859.145.19389.19389,0,0,1-.14844.062H56.75059A.212.212,0,0,1,56.59825,41.52847Z"/><path class="b" d="M60.024,40.29409q.01758.33984.19922.39746l.23242.083a.19224.19224,0,0,1,.10352.09521.31646.31646,0,0,1,.0371.15332l.00782.42237a.2199.2199,0,0,1-.11133.19531.41276.41276,0,0,1-.26953.05371l-.33985-.0498a1.05262,1.05262,0,0,1-.71289-.46,1.661,1.661,0,0,1-.28125-.99024V39.026a.30083.30083,0,0,1,.07032-.14892.1798.1798,0,0,1,.13671-.05811h1.67383a2.145,2.145,0,0,1,1.6211.55909,2.3633,2.3633,0,0,1,.584,1.57031c.00586.05566.00781.13281.00781.23242a2.627,2.627,0,0,1-.52929,1.74414,2.0938,2.0938,0,0,1-1.6836.62549H59.1959a.212.212,0,0,1-.15234-.05811.18828.18828,0,0,1-.0625-.14892V42.5812a.20186.20186,0,0,1,.0625-.15332.20589.20589,0,0,1,.15234-.0625h1.53321a.98886.98886,0,0,0,.6914-.24414.96751.96751,0,0,0,.29493-.6919c.00585-.05517.00781-.13818.00781-.24853,0-.105-.002-.18555-.00781-.24072a.94577.94577,0,0,0-.28516-.6919,1.00612,1.00612,0,0,0-.70117-.24414H60.024Z"/><path class="b" d="M63.6334,43.48843a.201.201,0,0,1-.0625-.145V42.631a.19668.19668,0,0,1,.0625-.14942.2055.2055,0,0,1,.14454-.0581H65.858V40.89077a.82754.82754,0,0,0-.93554-.93652H63.86a.19429.19429,0,0,1-.14844-.0625.21391.21391,0,0,1-.05859-.15332V39.026a.1963.1963,0,0,1,.0625-.14892A.20338.20338,0,0,1,63.86,38.819h1.10351a2.69624,2.69624,0,0,1,1.752.48877,1.94067,1.94067,0,0,1,.59179,1.583v1.53272h.291a.19863.19863,0,0,1,.14844.0581.20086.20086,0,0,1,.05859.14942v.7124a.205.205,0,0,1-.05859.145.191.191,0,0,1-.14844.062H63.77794A.19754.19754,0,0,1,63.6334,43.48843Z"/></svg>