<svg xmlns="http://www.w3.org/2000/svg" xmlns:xlink="http://www.w3.org/1999/xlink" viewBox="0 0 31.58769 38.3031"><defs><style>.a,.e,.f,.i,.j,.m{fill:none;}.b{clip-path:url(#a);}.c{fill:#cbcfd1;}.d{opacity:0.14;}.e{stroke:#29235c;stroke-width:9.25092px;}.e,.f,.h,.i{stroke-miterlimit:10;}.f,.j{stroke:#fff;}.f{stroke-width:6.93819px;}.g,.h{fill:#ebf1f4;}.h,.i{stroke:#a0d1ec;}.h,.i,.j{stroke-width:1.73455px;}.j,.m{stroke-linecap:round;stroke-linejoin:round;}.k{fill:#cde4ec;}.l{fill:#3c3c3b;}.m{stroke:#3c3c3b;stroke-width:2px;}.n{fill:#949a9b;}.o{fill:#fff;}</style><clipPath id="a"><rect class="a" y="-6.02805" width="36.78447" height="44.33114"/></clipPath></defs><g class="b"><rect class="c" x="7.59472" y="2.31318" width="3.19353" height="5.98858"/><g class="d"><path class="e" d="M9.19146,10.39125h.00005A17.67774,17.67774,0,0,1,26.86925,28.069v0A17.67775,17.67775,0,0,1,9.1915,45.74677h0A17.67773,17.67773,0,0,1-8.48627,28.069V28.069A17.67773,17.67773,0,0,1,9.19146,10.39125Z" transform="translate(-0.61612 0.2093) rotate(-1.26231)"/></g><path class="f" d="M9.19146,10.39125h.00005A17.67774,17.67774,0,0,1,26.86925,28.069v0A17.67775,17.67775,0,0,1,9.1915,45.74677h0A17.67773,17.67773,0,0,1-8.48627,28.069V28.069A17.67773,17.67773,0,0,1,9.19146,10.39125Z" transform="translate(-0.61612 0.2093) rotate(-1.26231)"/><path class="g" d="M9.19146,10.39125h.00005A17.67774,17.67774,0,0,1,26.86925,28.069v0A17.67775,17.67775,0,0,1,9.1915,45.74677h0A17.67773,17.67773,0,0,1-8.48627,28.069V28.069A17.67773,17.67773,0,0,1,9.19146,10.39125Z" transform="translate(-0.61612 0.2093) rotate(-1.26231)"/><path class="h" d="M9.19146,10.39125h.00005A17.67774,17.67774,0,0,1,26.86925,28.069v0A17.67775,17.67775,0,0,1,9.1915,45.74677h0A17.67773,17.67773,0,0,1-8.48627,28.069V28.069A17.67773,17.67773,0,0,1,9.19146,10.39125Z" transform="translate(-0.61612 0.2093) rotate(-1.26231)"/><path class="i" d="M9.19146,10.39125h.00005A17.67774,17.67774,0,0,1,26.86925,28.069v0A17.67775,17.67775,0,0,1,9.1915,45.74677h0A17.67773,17.67773,0,0,1-8.48627,28.069V28.069A17.67773,17.67773,0,0,1,9.19146,10.39125Z" transform="translate(-0.61612 0.2093) rotate(-1.26231)"/><path class="j" d="M3.657,16.66834a10.39481,10.39481,0,0,0-5.55778,5.56193"/><path class="k" d="M22.43082,17.64094c.00006.00023,5.57083,21.9799-15.57576,27.07281,0,0,2.20144.21288,3.04273.18022a18.19769,18.19769,0,0,0,5.00175-.93783A17.31032,17.31032,0,0,0,26.023,29.68909a16.45062,16.45062,0,0,0-1.928-9.41272c-.213-.41672-.55245-.90795-.79288-1.30953C23.07322,18.58462,22.43082,17.64094,22.43082,17.64094Z"/><circle class="l" cx="9.19149" cy="29.04727" r="2.42604"/><polyline class="m" points="9.191 18.327 9.191 29.047 15.352 29.047"/><rect class="n" x="7.59472" y="4.57965" width="3.19353" height="0.72782"/><rect class="g" x="4.65855" y="0.04671" width="9.06587" height="4.53294" rx="1.26375"/><rect class="o" x="5.71379" y="0.06505" width="6.96625" height="1.03588" rx="0.51794"/></g></svg>