<svg xmlns="http://www.w3.org/2000/svg" viewBox="0 0 44.77273 50.41125"><defs><style>.a{fill:#cbcfd1;}.b{opacity:0.14;}.c,.d,.g,.h,.k{fill:none;}.c{stroke:#29235c;stroke-width:9.25092px;}.c,.d,.f,.g{stroke-miterlimit:10;}.d,.h{stroke:#fff;}.d{stroke-width:6.93819px;}.e,.f{fill:#ebf1f4;}.f,.g{stroke:#a0d1ec;}.f,.g,.h{stroke-width:1.73455px;}.h,.k{stroke-linecap:round;stroke-linejoin:round;}.i{fill:#cde4ec;}.j{fill:#3c3c3b;}.k{stroke:#3c3c3b;stroke-width:2px;}.l{fill:#949a9b;}.m{fill:#fff;}</style></defs><rect class="a" x="20.81128" y="2.26647" width="3.19353" height="5.98858"/><g class="b"><path class="c" d="M22.408,10.34454h.00005A17.67774,17.67774,0,0,1,40.0858,28.02228v0A17.67774,17.67774,0,0,1,22.40806,45.70006h0A17.67773,17.67773,0,0,1,4.73028,28.02233v-.00007A17.67773,17.67773,0,0,1,22.408,10.34454Z" transform="translate(-0.61188 0.50044) rotate(-1.26231)"/></g><path class="d" d="M22.408,10.34454h.00005A17.67774,17.67774,0,0,1,40.0858,28.02228v0A17.67774,17.67774,0,0,1,22.40806,45.70006h0A17.67773,17.67773,0,0,1,4.73028,28.02233v-.00007A17.67773,17.67773,0,0,1,22.408,10.34454Z" transform="translate(-0.61188 0.50044) rotate(-1.26231)"/><path class="e" d="M22.408,10.34454h.00005A17.67774,17.67774,0,0,1,40.0858,28.02228v0A17.67774,17.67774,0,0,1,22.40806,45.70006h0A17.67773,17.67773,0,0,1,4.73028,28.02233v-.00007A17.67773,17.67773,0,0,1,22.408,10.34454Z" transform="translate(-0.61188 0.50044) rotate(-1.26231)"/><path class="f" d="M22.408,10.34454h.00005A17.67774,17.67774,0,0,1,40.0858,28.02228v0A17.67774,17.67774,0,0,1,22.40806,45.70006h0A17.67773,17.67773,0,0,1,4.73028,28.02233v-.00007A17.67773,17.67773,0,0,1,22.408,10.34454Z" transform="translate(-0.61188 0.50044) rotate(-1.26231)"/><path class="g" d="M22.408,10.34454h.00005A17.67774,17.67774,0,0,1,40.0858,28.02228v0A17.67774,17.67774,0,0,1,22.40806,45.70006h0A17.67773,17.67773,0,0,1,4.73028,28.02233v-.00007A17.67773,17.67773,0,0,1,22.408,10.34454Z" transform="translate(-0.61188 0.50044) rotate(-1.26231)"/><path class="h" d="M16.87358,16.62163a10.39482,10.39482,0,0,0-5.55778,5.56192"/><path class="i" d="M35.64737,17.59423c.00006.00023,5.57084,21.9799-15.57576,27.07281,0,0,2.20144.21288,3.04273.18022a18.19807,18.19807,0,0,0,5.00175-.93783,17.31033,17.31033,0,0,0,11.12343-14.267,16.45055,16.45055,0,0,0-1.928-9.41273c-.213-.41671-.55245-.90794-.79288-1.30952C36.28977,18.5379,35.64737,17.59423,35.64737,17.59423Z"/><circle class="j" cx="22.40804" cy="29.00056" r="2.42604"/><polyline class="k" points="22.408 18.28 22.408 29.001 28.569 29.001"/><rect class="l" x="20.81128" y="4.53294" width="3.19353" height="0.72782"/><rect class="e" x="17.87511" width="9.06587" height="4.53294" rx="1.26375"/><rect class="m" x="18.93034" y="0.01834" width="6.96625" height="1.03588" rx="0.51794"/></svg>