<svg xmlns="http://www.w3.org/2000/svg" viewBox="0 0 86.81992 78.35112"><defs><style>.a,.b,.d{fill:none;stroke-miterlimit:10;}.a{stroke:#29235c;stroke-width:9.25092px;opacity:0.14;}.b{stroke:#fff;stroke-width:6.93819px;}.c{fill:#1ac179;}.d{stroke:#17995e;stroke-width:1.73455px;}.e{fill:#63e5a3;}</style></defs><polygon class="a" points="16.979 37.613 6.375 53.984 34.155 72.316 80.29 21.871 64.193 7.098 32.666 55.458 16.979 37.613"/><polygon class="b" points="16.979 37.613 6.375 53.984 34.155 72.316 80.29 21.871 64.193 7.098 32.666 55.458 16.979 37.613"/><polygon class="c" points="16.979 37.613 6.375 53.984 34.155 72.316 80.29 21.871 64.193 7.098 32.666 55.458 16.979 37.613"/><polygon class="d" points="16.979 37.613 6.375 53.984 34.155 72.316 80.29 21.871 64.193 7.098 32.666 55.458 16.979 37.613"/><path class="e" d="M52.36019,29.689l10.991-15.38379.27978-.3916a1.92731,1.92731,0,0,1,2.68823-.44776c.04712.03369.09473.07129.13794.1084l4.3418,3.74219a1.01518,1.01518,0,0,1,.10644,1.43213,1.02568,1.02568,0,0,1-.88452.34619l-5.69507-.64942,3.10572-.73095L54.24691,31.2652A1.23277,1.23277,0,0,1,52.36019,29.689Z"/><path class="e" d="M13.14339,48.7901l3.00147-5.2251a1.77376,1.77376,0,0,1,2.918-.23095l.01733.022L24.106,49.6275a.87585.87585,0,0,1-1.18579,1.26514L16.338,46.28131l2.93506-.20849-4.44751,4.06591a1.091,1.091,0,0,1-1.68213-1.34863Z"/></svg>