<svg xmlns="http://www.w3.org/2000/svg" viewBox="0 0 82.97523 82.97265"><defs><style>.a,.b,.d{fill:none;stroke-miterlimit:10;}.a{stroke:#29235c;stroke-width:9.25092px;opacity:0.14;}.b{stroke:#fff;stroke-width:6.93819px;}.c{fill:#c15849;}.d{stroke:#994135;stroke-width:1.73455px;}.e{fill:#e58b81;}</style></defs><polygon class="a" points="76.208 20.665 62.307 6.764 41.488 30.527 20.668 6.764 6.767 20.665 30.547 41.5 6.767 62.305 20.668 76.206 41.488 52.408 62.307 76.206 76.208 62.305 52.428 41.5 76.208 20.665"/><polygon class="b" points="76.208 20.665 62.307 6.764 41.488 30.527 20.668 6.764 6.767 20.665 30.547 41.5 6.767 62.305 20.668 76.206 41.488 52.408 62.307 76.206 76.208 62.305 52.428 41.5 76.208 20.665"/><polygon class="c" points="76.208 20.665 62.307 6.764 41.488 30.527 20.668 6.764 6.767 20.665 30.547 41.5 6.767 62.305 20.668 76.206 41.488 52.408 62.307 76.206 76.208 62.305 52.428 41.5 76.208 20.665"/><polygon class="d" points="76.208 20.665 62.307 6.764 41.488 30.527 20.668 6.764 6.767 20.665 30.547 41.5 6.767 62.305 20.668 76.206 41.488 52.408 62.307 76.206 76.208 62.305 52.428 41.5 76.208 20.665"/><path class="e" d="M45.56755,30.352,61.22282,12.27922l.13745-.15869a2.31979,2.31979,0,0,1,3.27149-.23437,2.4635,2.4635,0,0,1,.29956.31347L68.4821,16.684a1.82137,1.82137,0,0,1-2.4563,2.63379l-4.7207-3.23,3.70825-.07959L47.20012,31.95793A1.14733,1.14733,0,0,1,45.56755,30.352Z"/><path class="e" d="M22.31755,56.16887l-6.24341,8.24805.13794-3.55616L17.924,63.95451a2.02991,2.02991,0,0,1-3.06373,2.55225l-2.73339-2.24267a2.2314,2.2314,0,0,1,.012-3.45655l.12573-.1001,8.07861-6.46093a1.38852,1.38852,0,0,1,1.97437,1.92236Z"/><path class="e" d="M16.89592,14.162l3.02417-2.40283a1.76917,1.76917,0,0,1,2.439.229l.093.10839,3.37109,3.9209a1.53342,1.53342,0,0,1-1.769,2.40821l-4.74951-2.04395,2.53174.3374-3.854.2544A1.57881,1.57881,0,0,1,16.89592,14.162Z"/></svg>