<svg xmlns="http://www.w3.org/2000/svg" viewBox="0 0 47.2777 24.25375"><defs><style>.a{fill:#fff;}.b{fill:#6d8393;opacity:0.2;}.c{fill:#e30613;}.d{fill:#ff9494;}</style></defs><rect class="a" y="0.00001" width="47.2777" height="24.25374"/><path d="M4.53851,12.2293a.16587.16587,0,0,1-.05273-.126V7.5877a.16587.16587,0,0,1,.05273-.126.1842.1842,0,0,1,.12891-.04883h.82617a.16725.16725,0,0,1,.17383.17481v4.51562a.16725.16725,0,0,1-.17383.17481H4.66742A.1842.1842,0,0,1,4.53851,12.2293Z"/><path d="M6.55414,11.36113a.16582.16582,0,0,1-.05274-.126V7.5877a.16585.16585,0,0,1,.05274-.126.18416.18416,0,0,1,.1289-.04883H8.33539a2.20849,2.20849,0,0,1,1.46679.40918,1.70138,1.70138,0,0,1,.47071,1.34766v2.06543a.17039.17039,0,0,1-.04883.12207.16088.16088,0,0,1-.125.05273H9.27289a.1842.1842,0,0,1-.12891-.04883.16582.16582,0,0,1-.05273-.126V9.16289a.70208.70208,0,0,0-.791-.79785H7.683v2.87012a.17035.17035,0,0,1-.04883.12207.16087.16087,0,0,1-.125.05273H6.683A.18416.18416,0,0,1,6.55414,11.36113Z"/><path d="M13.6557,7.85039a1.90491,1.90491,0,0,1,.39844,1.31934,2.06026,2.06026,0,0,1-.52539,1.45605,2.78866,2.78866,0,0,1-1.31641.791l-.28516.084a.13762.13762,0,0,1-.13086-.04883.20109.20109,0,0,1-.05859-.13964v-.707a.19783.19783,0,0,1,.04883-.12989.35948.35948,0,0,1,.125-.09472l.22461-.09082a1.12917,1.12917,0,0,0,.50781-.374,1.17843,1.17843,0,0,0,.18555-.71094.93878.93878,0,0,0-.1543-.61621.748.748,0,0,0-.57422-.1748h-.18164l-.9375-.00684a.173.173,0,0,1-.127-.04883.16994.16994,0,0,1-.04883-.126V6.615a.163.163,0,0,1,.05273-.126.17689.17689,0,0,1,.12305-.04882h.75586a.16724.16724,0,0,1,.17383.1748v.79785h.43555A1.69831,1.69831,0,0,1,13.6557,7.85039Z"/><path d="M14.78656,11.36113a.16582.16582,0,0,1-.05274-.126V7.5877a.16585.16585,0,0,1,.05274-.126.18416.18416,0,0,1,.1289-.04883h.875a.16725.16725,0,0,1,.17383.17481v3.64746a.17035.17035,0,0,1-.04883.12207.16087.16087,0,0,1-.125.05273h-.875A.18416.18416,0,0,1,14.78656,11.36113Z"/><path d="M21.29828,7.46172a.17.17,0,0,1,.04883.126v1.834a2.05049,2.05049,0,0,1-.2793,1.082,1.90065,1.90065,0,0,1-.76367.7168,2.21048,2.21048,0,0,1-1.07032.24512H18.562a2.1147,2.1147,0,0,1-.98047-.2168,1.54037,1.54037,0,0,1-.86133-1.40723V7.5877a.16585.16585,0,0,1,.05274-.126.1856.1856,0,0,1,.13086-.04883h.73437a.16725.16725,0,0,1,.17383.17481l.00781,1.68066a.64149.64149,0,0,0,.53125-.291,1.41806,1.41806,0,0,0,.1543-.73145V7.60235a.184.184,0,0,1,.05273-.13672.17535.17535,0,0,1,.12891-.05274h.72851a.16448.16448,0,0,1,.123.05567.1898.1898,0,0,1,.05274.13379v.65722a1.82477,1.82477,0,0,1-.41407,1.26074,1.73745,1.73745,0,0,1-1.168.53907.90268.90268,0,0,0,.35352.34277,1.00725,1.00725,0,0,0,.48633.11914h.16015a1.39807,1.39807,0,0,0,.64454-.14746,1.10617,1.10617,0,0,0,.44726-.40625,1.076,1.076,0,0,0,.16211-.581V7.5877a.16725.16725,0,0,1,.17383-.17481h.73633A.16846.16846,0,0,1,21.29828,7.46172Z"/><path d="M24.74359,7.85039A1.90491,1.90491,0,0,1,25.142,9.16973a2.06026,2.06026,0,0,1-.52539,1.45605,2.78866,2.78866,0,0,1-1.31641.791l-.28516.084a.13762.13762,0,0,1-.13086-.04883.20109.20109,0,0,1-.05859-.13964v-.707a.19783.19783,0,0,1,.04883-.12989.35948.35948,0,0,1,.125-.09472l.22461-.09082a1.12917,1.12917,0,0,0,.50781-.374,1.17843,1.17843,0,0,0,.18555-.71094.93878.93878,0,0,0-.1543-.61621.748.748,0,0,0-.57422-.1748h-.18164l-.9375-.00684a.173.173,0,0,1-.12695-.04883.17.17,0,0,1-.04883-.126V6.615a.163.163,0,0,1,.05273-.126.17689.17689,0,0,1,.123-.04882h.75586a.16724.16724,0,0,1,.17383.1748v.79785H23.435A1.69831,1.69831,0,0,1,24.74359,7.85039Z"/><path d="M29.90961,11.36113a.16994.16994,0,0,1-.04883-.126V9.16289a.70208.70208,0,0,0-.791-.79785H27.47211a.18418.18418,0,0,1-.12891-.04883.16582.16582,0,0,1-.05274-.126V7.5877a.16585.16585,0,0,1,.05274-.126.18418.18418,0,0,1,.12891-.04883H29.103a2.14974,2.14974,0,0,1,1.45313.42676,1.68138,1.68138,0,0,1,.48633,1.33008v2.06543a.16582.16582,0,0,1-.05274.126.18416.18416,0,0,1-.1289.04883h-.82617A.16844.16844,0,0,1,29.90961,11.36113Zm-2.56641,0a.16582.16582,0,0,1-.05274-.126v-2.044a.16291.16291,0,0,1,.05274-.126.17992.17992,0,0,1,.12891-.04883h.82617a.1692.1692,0,0,1,.127.04883.167.167,0,0,1,.04883.126v2.044a.17039.17039,0,0,1-.04883.12207.16506.16506,0,0,1-.127.05273h-.82617A.18418.18418,0,0,1,27.3432,11.36113Z"/><path d="M36.33539,7.46172a.178.178,0,0,1,.04882.126v1.834a2.06872,2.06872,0,0,1-.27929,1.082,1.90065,1.90065,0,0,1-.76367.7168,2.22085,2.22085,0,0,1-1.07032.24512h-.67382a2.10089,2.10089,0,0,1-.97852-.2168,1.54234,1.54234,0,0,1-.64063-.58789,1.56007,1.56007,0,0,1-.2207-.81934V7.5877a.16585.16585,0,0,1,.05274-.126.18416.18416,0,0,1,.1289-.04883h.73438a.173.173,0,0,1,.127.04883.17.17,0,0,1,.04883.126l.00781,1.68066a.6443.6443,0,0,0,.53125-.291,1.43813,1.43813,0,0,0,.1543-.73145V7.60235a.184.184,0,0,1,.05273-.13672.17535.17535,0,0,1,.12891-.05274h.72851a.15754.15754,0,0,1,.1211.05567.18983.18983,0,0,1,.05273.13379v.65722a1.824,1.824,0,0,1-.41211,1.26074,1.74237,1.74237,0,0,1-1.16992.53907.91562.91562,0,0,0,.35352.34277,1.01827,1.01827,0,0,0,.48632.11914h.16211a1.39807,1.39807,0,0,0,.64454-.14746,1.10617,1.10617,0,0,0,.44726-.40625,1.0745,1.0745,0,0,0,.16016-.581V7.5877a.178.178,0,0,1,.04883-.126.17617.17617,0,0,1,.127-.04883h.73437A.173.173,0,0,1,36.33539,7.46172Z"/><path d="M37.13031,9.702a.16291.16291,0,0,1-.05274-.126V7.5877a.16585.16585,0,0,1,.05274-.126.18416.18416,0,0,1,.1289-.04883h.875a.17619.17619,0,0,1,.127.04883.178.178,0,0,1,.04883.126V9.576a.17716.17716,0,0,1-.04883.12207.168.168,0,0,1-.127.05273h-.875A.18416.18416,0,0,1,37.13031,9.702Z"/><path d="M41.86468,11.35723a.18754.18754,0,0,1-.13281.05273h-.875a.16443.16443,0,0,1-.11914-.04883.20183.20183,0,0,1-.05469-.126l-.10547-.51856a1.49851,1.49851,0,0,1-.40625.34375,3.97019,3.97019,0,0,1-.50781.26172,2.4482,2.4482,0,0,1-.47265.14356l-.04883.00781c-.08008,0-.11914-.03809-.11914-.11231v-.75585c0-.08008.04882-.1377.14648-.17579.0332-.01367.14063-.04687.32031-.10058a2.94312,2.94312,0,0,0,.4375-.165,1.37348,1.37348,0,0,0,.46094-.37793l-.13281-.65137a1.54607,1.54607,0,0,0-.2168-.59472.51407.51407,0,0,0-.43359-.17481h-.2461a.16135.16135,0,0,1-.12109-.05273.16651.16651,0,0,1-.05273-.12207V7.5457a.17835.17835,0,0,1,.04882-.1289.16086.16086,0,0,1,.125-.05274h.26563a2.17247,2.17247,0,0,1,.957.17872,1.32492,1.32492,0,0,1,.57031.54882,3.47915,3.47915,0,0,1,.33594,1.00879l.41992,2.13477A.125.125,0,0,1,41.86468,11.35723Z"/><path d="M12.09711,19.36113a.16582.16582,0,0,1-.05274-.126V15.5877a.16585.16585,0,0,1,.05274-.126.18416.18416,0,0,1,.1289-.04883h1.58985a2.1239,2.1239,0,0,1,1.418.40235,1.65021,1.65021,0,0,1,.46485,1.3125v2.10058A.18007.18007,0,0,1,15.517,19.41H12.226A.18416.18416,0,0,1,12.09711,19.36113Zm2.4746-.90332V17.16289a.70207.70207,0,0,0-.791-.79785h-.67188v2.09277Z"/><path d="M16.51507,17.702a.16294.16294,0,0,1-.05273-.126V15.5877a.16587.16587,0,0,1,.05273-.126.1842.1842,0,0,1,.12891-.04883h.875a.17617.17617,0,0,1,.127.04883.178.178,0,0,1,.04883.126V17.576a.17716.17716,0,0,1-.04883.12207.168.168,0,0,1-.127.05273h-.875A.1842.1842,0,0,1,16.51507,17.702Z"/><path d="M21.16546,15.85039a1.905,1.905,0,0,1,.4004,1.31934,2.06027,2.06027,0,0,1-.5254,1.456,2.78858,2.78858,0,0,1-1.3164.791l-.28711.084A.133.133,0,0,1,19.308,19.452a.19519.19519,0,0,1-.06054-.13964v-.707a.20855.20855,0,0,1,.04882-.12989.36724.36724,0,0,1,.127-.09472l.22461-.09082a1.13392,1.13392,0,0,0,.50586-.374,1.16508,1.16508,0,0,0,.18554-.71094.95169.95169,0,0,0-.15234-.61621.751.751,0,0,0-.57422-.1748h-.18359l-.9375-.00684a.16725.16725,0,0,1-.17383-.1748V14.615a.16844.16844,0,0,1,.05078-.126.17687.17687,0,0,1,.123-.04882h.75586a.16737.16737,0,0,1,.17578.1748v.79785h.43359A1.69541,1.69541,0,0,1,21.16546,15.85039Z"/><path d="M22.29632,19.36113a.16585.16585,0,0,1-.05273-.126V15.5877a.16587.16587,0,0,1,.05273-.126.1842.1842,0,0,1,.12891-.04883h.875a.173.173,0,0,1,.127.04883.17.17,0,0,1,.04883.126v3.64746a.17035.17035,0,0,1-.04883.12207.16506.16506,0,0,1-.127.05273h-.875A.1842.1842,0,0,1,22.29632,19.36113Z"/><path d="M25.2182,16.659c.00976.1914.06641.30371.168.33593l.19726.07032a.1561.1561,0,0,1,.08594.08007.27031.27031,0,0,1,.0332.12989l.00586.35644a.18625.18625,0,0,1-.09375.165.35142.35142,0,0,1-.22851.04492l-.28711-.042a.88778.88778,0,0,1-.60156-.38769,1.406,1.406,0,0,1-.23829-.83692v-.9873a.24619.24619,0,0,1,.06055-.126.14971.14971,0,0,1,.11524-.04883h1.41406a1.805,1.805,0,0,1,1.36719.47266,1.97856,1.97856,0,0,1,.49414,1.32617c.0039.04688.00781.11231.00781.19629a2.21089,2.21089,0,0,1-.44922,1.47363,1.76059,1.76059,0,0,1-1.41992.52832H24.519a.17767.17767,0,0,1-.12891-.04883.16585.16585,0,0,1-.05273-.126v-.64453a.17538.17538,0,0,1,.05273-.12891A.16931.16931,0,0,1,24.519,18.409H25.8139a.83515.83515,0,0,0,.584-.20606.81082.81082,0,0,0,.248-.585,1.88383,1.88383,0,0,0,.00782-.21,1.80147,1.80147,0,0,0-.00782-.20313.78839.78839,0,0,0-.24023-.584.849.849,0,0,0-.5918-.207h-.5957Z"/><path d="M28.42718,17.702a.16294.16294,0,0,1-.05273-.126V15.5877a.16587.16587,0,0,1,.05273-.126.18564.18564,0,0,1,.13086-.04883h.875a.16725.16725,0,0,1,.17383.17481V17.576a.16875.16875,0,0,1-.04883.12207.16376.16376,0,0,1-.125.05273h-.875A.18564.18564,0,0,1,28.42718,17.702Z"/><path d="M30.85687,19.0252a1.67783,1.67783,0,0,1-.48633-1.28809V15.5877a.16585.16585,0,0,1,.05274-.126.17221.17221,0,0,1,.12109-.04883h.72852a.18084.18084,0,0,1,.1289.04883.16585.16585,0,0,1,.05274.126V17.702a.72266.72266,0,0,0,.22851.585.95133.95133,0,0,0,.63282.19238q.78515,0,.791-.749a1.80657,1.80657,0,0,0,.00391-.18946c-.002-.0791-.00391-.13965-.00391-.18164v-.1543a1.25516,1.25516,0,0,0-.13281-.6123.39907.39907,0,0,0-.36328-.21387.83018.83018,0,0,0-.207.02832.63536.63536,0,0,0-.17774.07032.26146.26146,0,0,1-.06445.01367.14627.14627,0,0,1-.10742-.0459.15309.15309,0,0,1-.04688-.11524v-.55273a.27342.27342,0,0,1,.13477-.25879,1.31318,1.31318,0,0,1,.67187-.13379,1.35257,1.35257,0,0,1,1.10156.40332,1.96308,1.96308,0,0,1,.34571,1.24219v.73535q-.07617,1.71387-1.94531,1.71485A2.07,2.07,0,0,1,30.85687,19.0252Z"/><circle class="b" cx="23.18389" cy="1.90154" r="1.75532"/><circle class="c" cx="23.08389" cy="1.80154" r="1.59574"/><path class="d" d="M22.96916.71477s-.734-.18742-1.08511.79787"/></svg>