<svg xmlns="http://www.w3.org/2000/svg" viewBox="0 0 47.2777 24.25375"><defs><style>.a{fill:#eee;}.b{fill:#607382;opacity:0.2;}.c{fill:#d20612;}.d{fill:#ee8a8a;}</style></defs><rect class="a" y="0.00001" width="47.2777" height="24.25374"/><path d="M9.72183,11.8288a1.61647,1.61647,0,0,1,.48633,1.29785v2.10742a.1745.1745,0,0,1-.04883.12207.16582.16582,0,0,1-.126.05274H9.20719a.18491.18491,0,0,1-.12989-.04883.16586.16586,0,0,1-.05273-.126V13.16181a.70177.70177,0,0,0-.79-.79785H7.77945A4.2136,4.2136,0,0,0,7.674,13.39325l.05567,1.84082a.16858.16858,0,0,1-.05176.126.1849.1849,0,0,1-.12988.04883L6.06363,15.402a.18416.18416,0,0,1-.1289-.04883.16582.16582,0,0,1-.05274-.126v-.55371a.16585.16585,0,0,1,.05274-.126.18416.18416,0,0,1,.1289-.04883H6.631V13.40009A3.738,3.738,0,0,1,6.73648,12.364H6.3234a.18491.18491,0,0,1-.12989-.04883.16587.16587,0,0,1-.05273-.126v-.60254a.16585.16585,0,0,1,.05273-.126.18491.18491,0,0,1,.12989-.04883H8.27652A2.16856,2.16856,0,0,1,9.72183,11.8288Z"/><path d="M11.05191,15.36005a.16586.16586,0,0,1-.05273-.126V11.58661a.16585.16585,0,0,1,.05273-.126.1842.1842,0,0,1,.12891-.04883h.875a.1673.1673,0,0,1,.1748.1748v3.64746a.17035.17035,0,0,1-.04882.12207.163.163,0,0,1-.126.05274h-.875A.1842.1842,0,0,1,11.05191,15.36005Z"/><path d="M15.46109,15.35614a.17532.17532,0,0,1-.1289.05274H13.08512a.18491.18491,0,0,1-.12989-.04883.16586.16586,0,0,1-.05273-.126v-.60254a.16585.16585,0,0,1,.05273-.126.18491.18491,0,0,1,.12989-.04883h1.16113l-.0625-1.37891a1.22652,1.22652,0,0,0-.13965-.58789.48193.48193,0,0,0-.43457-.18164h-.35645a.18023.18023,0,0,1-.17578-.17578v-.58789a.17916.17916,0,0,1,.04981-.12891.163.163,0,0,1,.126-.05273H13.631a1.83457,1.83457,0,0,1,1.333.41309,1.91309,1.91309,0,0,1,.45215,1.32324l.09082,2.13476A.1469.1469,0,0,1,15.46109,15.35614Z"/><path d="M18.56949,15.35614a.17534.17534,0,0,1-.12891.05274H16.19351a.1849.1849,0,0,1-.12988-.04883.16586.16586,0,0,1-.05273-.126v-.60254a.16585.16585,0,0,1,.05273-.126.1849.1849,0,0,1,.12988-.04883h1.16114l-.0625-1.37891a1.22652,1.22652,0,0,0-.13965-.58789.48193.48193,0,0,0-.43457-.18164h-.35645a.18023.18023,0,0,1-.17578-.17578v-.58789a.17912.17912,0,0,1,.04981-.12891.163.163,0,0,1,.126-.05273h.37793a1.83457,1.83457,0,0,1,1.333.41309,1.91314,1.91314,0,0,1,.45215,1.32324l.09082,2.13476A.1469.1469,0,0,1,18.56949,15.35614Z"/><path d="M19.32535,15.36005a.16582.16582,0,0,1-.05273-.126V11.58661a.16582.16582,0,0,1,.05273-.126.1842.1842,0,0,1,.12891-.04883h.875a.16732.16732,0,0,1,.1748.1748v3.64746a.17032.17032,0,0,1-.04883.12207.16293.16293,0,0,1-.126.05274h-.875A.1842.1842,0,0,1,19.32535,15.36005Z"/><path d="M21.341,15.36005a.16583.16583,0,0,1-.05274-.126v-.64453a.18009.18009,0,0,1,.18164-.18164h1.01563a.74549.74549,0,0,0,.83984-.791c.00391-.05567.00684-.126.00684-.21,0-.07911-.00293-.14747-.00684-.20313a.74549.74549,0,0,0-.83984-.791H21.46988a.18007.18007,0,0,1-.18164-.18164v-.64453a.16582.16582,0,0,1,.05274-.126.18416.18416,0,0,1,.1289-.04883h1.04981a1.70138,1.70138,0,0,1,1.93945,1.79883c.00488.05175.00684.11718.00684.19629a2.17164,2.17164,0,0,1-.458,1.47656,1.87934,1.87934,0,0,1-1.48828.52539H21.46988A.18416.18416,0,0,1,21.341,15.36005Z"/><path d="M29.69449,11.46064a.17.17,0,0,1,.04883.126v.60254a.17036.17036,0,0,1-.04883.12207.163.163,0,0,1-.126.05274h-.32226a1.08382,1.08382,0,0,0-.12891.35644,2.51046,2.51046,0,0,0-.0459.49707v2.03711a.12891.12891,0,0,1-.0664.1084.23234.23234,0,0,1-.13672.0459H28.05a.14458.14458,0,0,1-.1543-.1543V13.1413a1.516,1.516,0,0,1,.13965-.77734h-1.5957a.18035.18035,0,0,1-.17481-.17481v-.60254a.16582.16582,0,0,1,.05274-.126.17282.17282,0,0,1,.12207-.04883h3.1289A.17073.17073,0,0,1,29.69449,11.46064Z"/><path d="M30.43473,15.36005a.16583.16583,0,0,1-.05274-.126V11.58661a.16582.16582,0,0,1,.05274-.126.18416.18416,0,0,1,.1289-.04883h.875a.16732.16732,0,0,1,.17481.1748v3.64746a.17036.17036,0,0,1-.04883.12207.163.163,0,0,1-.126.05274h-.875A.18416.18416,0,0,1,30.43473,15.36005Z"/><path d="M33.3566,12.6579c.00879.19141.06543.30371.168.33594l.19629.07031a.16106.16106,0,0,1,.08691.08008.26947.26947,0,0,1,.03223.12988l.00683.35645a.18717.18717,0,0,1-.09472.165.34862.34862,0,0,1-.22754.04492l-.28711-.042a.8878.8878,0,0,1-.60156-.3877,1.3992,1.3992,0,0,1-.23828-.83691v-.98731a.245.245,0,0,1,.05957-.126.15115.15115,0,0,1,.11523-.04883h1.41406a1.80736,1.80736,0,0,1,1.36817.47265,1.98824,1.98824,0,0,1,.49414,1.32618c.0039.04687.00683.1123.00683.19629a2.21066,2.21066,0,0,1-.44824,1.47363,1.76278,1.76278,0,0,1-1.4209.52832H32.65641a.18087.18087,0,0,1-.12891-.04883.16583.16583,0,0,1-.05274-.126v-.64453a.17532.17532,0,0,1,.05274-.1289.17228.17228,0,0,1,.12891-.05274h1.29492a.83766.83766,0,0,0,.585-.206.81469.81469,0,0,0,.248-.585c.00489-.04688.00684-.11621.00684-.21,0-.08887-.002-.15625-.00684-.20313a.789.789,0,0,0-.24121-.584.84565.84565,0,0,0-.59179-.207H33.3566Z"/><path d="M40.25894,15.26142a.1477.1477,0,0,1-.042.10156.13568.13568,0,0,1-.10547.0459h-.86132a.23591.23591,0,0,1-.18848-.06641c-.03711-.04394-.0586-.06933-.06348-.07324l-1.22461-1.77148a.7886.7886,0,0,0-.23828.38476,1.85918,1.85918,0,0,0-.05566.46192v.875a.18392.18392,0,0,1-.05274.13671.17532.17532,0,0,1-.1289.05274h-.68653a.161.161,0,0,1-.12207-.05567.18983.18983,0,0,1-.05273-.13378v-.86719a2.45749,2.45749,0,0,1,.16113-.9668,1.78332,1.78332,0,0,1,.6084-.69922l-.71387-1.02929a.1482.1482,0,0,1-.03515-.09766.14.14,0,0,1,.04589-.10156.14167.14167,0,0,1,.10157-.0459h.82617a.23378.23378,0,0,1,.15039.042.55028.55028,0,0,1,.10156.11231l1.127,1.5957a.6161.6161,0,0,0,.248-.30762,1.342,1.342,0,0,0,.05274-.39941v-.85352a.19364.19364,0,0,1,.04882-.13672.16589.16589,0,0,1,.126-.05273h.73535a.17288.17288,0,0,1,.12989.05566.19324.19324,0,0,1,.05175.13379v.88184a1.83945,1.83945,0,0,1-.17871.81543,1.65888,1.65888,0,0,1-.64746.66113l.85449,1.2041A.1737.1737,0,0,1,40.25894,15.26142Z"/><circle class="b" cx="23.18389" cy="1.90154" r="1.75532"/><circle class="c" cx="23.08389" cy="1.80154" r="1.59574"/><path class="d" d="M22.96916.71477s-.734-.18742-1.08511.79787"/></svg>