<svg xmlns="http://www.w3.org/2000/svg" viewBox="0 0 47.2777 24.25375"><defs><style>.a{fill:#eee;}.b{fill:#607382;opacity:0.2;}.c{fill:#d20612;}.d{fill:#ee8a8a;}</style></defs><rect class="a" y="0.00001" width="47.2777" height="24.25374"/><path d="M9.91664,11.84963a1.905,1.905,0,0,1,.39941,1.31933A2.06027,2.06027,0,0,1,9.79066,14.625a2.78851,2.78851,0,0,1-1.31641.791l-.28613.084a.13532.13532,0,0,1-.12988-.04883.19807.19807,0,0,1-.05957-.13965v-.707a.203.203,0,0,1,.04883-.12988.3634.3634,0,0,1,.126-.09473l.22461-.09082a1.13142,1.13142,0,0,0,.50684-.374,1.17177,1.17177,0,0,0,.18554-.71094.94517.94517,0,0,0-.15332-.61621.74948.74948,0,0,0-.57422-.17481H8.18031l-.9375-.00683a.16732.16732,0,0,1-.17481-.17481V10.61428a.1656.1656,0,0,1,.05176-.126.17684.17684,0,0,1,.12305-.04883h.75586a.16732.16732,0,0,1,.1748.17481v.79785H8.608A1.69687,1.69687,0,0,1,9.91664,11.84963Z"/><path d="M11.91175,12.65822c.00879.19141.06543.30371.168.33594l.19629.07031a.161.161,0,0,1,.08691.08008.26947.26947,0,0,1,.03223.12988l.00684.35645a.18718.18718,0,0,1-.09473.165.34862.34862,0,0,1-.22754.04492l-.28711-.042a.8878.8878,0,0,1-.60156-.3877,1.3992,1.3992,0,0,1-.23828-.83691v-.98731a.24506.24506,0,0,1,.05957-.126.15115.15115,0,0,1,.11523-.04883h1.41407a1.80735,1.80735,0,0,1,1.36816.47265,1.98824,1.98824,0,0,1,.49414,1.32618c.00391.04687.00684.1123.00684.19629a2.21066,2.21066,0,0,1-.44825,1.47363,1.76276,1.76276,0,0,1-1.42089.52832H11.21156a.18087.18087,0,0,1-.12891-.04883.16586.16586,0,0,1-.05273-.126v-.64453a.17535.17535,0,0,1,.05273-.1289.17228.17228,0,0,1,.12891-.05274h1.29492a.83764.83764,0,0,0,.585-.206.81469.81469,0,0,0,.248-.585c.00488-.04688.00683-.11621.00683-.21,0-.08887-.002-.15625-.00683-.20313a.789.789,0,0,0-.24121-.584.84569.84569,0,0,0-.5918-.207h-.59473Z"/><path d="M15.14906,15.36037a.16583.16583,0,0,1-.05274-.126V11.58693a.16582.16582,0,0,1,.05274-.126.18416.18416,0,0,1,.1289-.04883h.875a.16732.16732,0,0,1,.17481.1748v3.64746a.17036.17036,0,0,1-.04883.12207.163.163,0,0,1-.126.05274h-.875A.18416.18416,0,0,1,15.14906,15.36037Z"/><path d="M17.60609,15.02443a1.67782,1.67782,0,0,1-.48633-1.28808V11.58693a.16582.16582,0,0,1,.05274-.126.1745.1745,0,0,1,.12207-.04883h.72851a.18252.18252,0,0,1,.12891.04883.16585.16585,0,0,1,.05273.126v2.11426a.72522.72522,0,0,0,.22754.585.95413.95413,0,0,0,.63379.19238q.78369,0,.791-.749a1.6103,1.6103,0,0,0,.00293-.18945q-.00294-.11865-.00293-.18164v-.1543a1.26619,1.26619,0,0,0-.13282-.6123A.40051.40051,0,0,0,19.36,12.378a.83594.83594,0,0,0-.207.02832.64755.64755,0,0,0-.17773.07031.24734.24734,0,0,1-.06348.01367.14843.14843,0,0,1-.1084-.0459.156.156,0,0,1-.04589-.11523v-.55273a.27451.27451,0,0,1,.13379-.25879,1.31564,1.31564,0,0,1,.67187-.13379,1.35475,1.35475,0,0,1,1.10254.40332,1.97527,1.97527,0,0,1,.3457,1.24219v.73535q-.07617,1.71387-1.94531,1.71484A2.07258,2.07258,0,0,1,17.60609,15.02443Z"/><path d="M25.17738,11.83889a1.69459,1.69459,0,0,1,.44726,1.28125v2.11425a.17035.17035,0,0,1-.04882.12207.163.163,0,0,1-.126.05274H23.53871a.18035.18035,0,0,1-.17481-.17481v-.60254a.16582.16582,0,0,1,.05274-.126.1745.1745,0,0,1,.12207-.04883H24.442V13.1758a.84168.84168,0,0,0-.17481-.56641.57234.57234,0,0,0-.45508-.20312h-.54589l-.59571,2.82129a.21008.21008,0,0,1-.05566.1289.163.163,0,0,1-.126.05274h-.80469a.176.176,0,0,1-.12988-.05274.13562.13562,0,0,1-.03808-.1289l.68554-2.81446h-.46191a.16294.16294,0,0,1-.126-.05273.18418.18418,0,0,1-.04883-.12891v-.64453a.16582.16582,0,0,1,.05274-.126.17282.17282,0,0,1,.12207-.04883H23.987A1.65733,1.65733,0,0,1,25.17738,11.83889Z"/><path d="M27.903,13.70119a.163.163,0,0,1-.05273-.126V11.58693a.16585.16585,0,0,1,.05273-.126.18491.18491,0,0,1,.12989-.04883h.875a.16732.16732,0,0,1,.1748.1748v1.98828a.17282.17282,0,0,1-.04883.12207.16582.16582,0,0,1-.126.05274h-.875A.18491.18491,0,0,1,27.903,13.70119Z"/><path d="M29.93324,15.36037a.16583.16583,0,0,1-.05274-.126V11.58693a.16582.16582,0,0,1,.05274-.126.18416.18416,0,0,1,.1289-.04883h.875a.16732.16732,0,0,1,.17481.1748v3.64746a.17036.17036,0,0,1-.04883.12207.163.163,0,0,1-.126.05274h-.875A.18416.18416,0,0,1,29.93324,15.36037Z"/><path d="M31.99085,15.36037a.16586.16586,0,0,1-.05273-.126V11.58693a.16585.16585,0,0,1,.05273-.126.1842.1842,0,0,1,.12891-.04883h.875a.16732.16732,0,0,1,.17481.1748v3.64746a.17036.17036,0,0,1-.04883.12207.163.163,0,0,1-.126.05274h-.875A.1842.1842,0,0,1,31.99085,15.36037Z"/><path d="M34.02113,13.70119a.163.163,0,0,1-.05274-.126V11.58693a.16582.16582,0,0,1,.05274-.126.18487.18487,0,0,1,.12988-.04883h.875a.16732.16732,0,0,1,.17481.1748v1.98828a.17287.17287,0,0,1-.04883.12207.16586.16586,0,0,1-.126.05274h-.875A.18487.18487,0,0,1,34.02113,13.70119Z"/><path d="M38.6725,11.84963a1.905,1.905,0,0,1,.39941,1.31933,2.06027,2.06027,0,0,1-.52539,1.45606,2.78851,2.78851,0,0,1-1.31641.791L36.944,15.5a.13531.13531,0,0,1-.12988-.04883.19807.19807,0,0,1-.05957-.13965v-.707a.20305.20305,0,0,1,.04882-.12988.36353.36353,0,0,1,.126-.09473l.22461-.09082a1.13142,1.13142,0,0,0,.50684-.374,1.17177,1.17177,0,0,0,.18554-.71094.94517.94517,0,0,0-.15332-.61621.74948.74948,0,0,0-.57422-.17481h-.18261l-.9375-.00683a.16732.16732,0,0,1-.17481-.17481V10.61428a.1656.1656,0,0,1,.05176-.126.17684.17684,0,0,1,.123-.04883h.75586a.16732.16732,0,0,1,.1748.17481v.79785h.43457A1.69687,1.69687,0,0,1,38.6725,11.84963Z"/><circle class="b" cx="23.18389" cy="1.90154" r="1.75532"/><circle class="c" cx="23.08389" cy="1.80154" r="1.59574"/><path class="d" d="M22.96916.71477s-.734-.18742-1.08511.79787"/></svg>