<svg xmlns="http://www.w3.org/2000/svg" viewBox="0 0 51.18495 21.16454"><defs><style>.a{fill:#ba8b5f;stroke:#2d2a28;stroke-miterlimit:10;}.b{fill:#9c6c43;}</style></defs><path class="a" d="M34.7793,3.09984a1.98647,1.98647,0,0,1,.79965.62694c.6052.82887.36817,3.2922.474,4.25843q.36122,3.29681.72191,6.59376l-20.175,1.98625c.09645-4.06272-.49754-8.84521.37787-12.77475a47.43652,47.43652,0,0,0,8.957.03812c1.573-.21326,4.3684-1.27684,5.88512-.951"/><path class="a" d="M21.41482,4.11163,7.39923.59449A1.63872,1.63872,0,0,0,5.45974,1.86754v0A1.65721,1.65721,0,0,0,6.91593,3.6874L19.73958,6.77007"/><path class="a" d="M19.73958,6.87679c-.10361-.04055-15.9715-3.154-15.9715-3.154A1.65248,1.65248,0,0,0,1.7764,4.92812h0a1.6434,1.6434,0,0,0,1.384,1.8654l15.645,3.05922"/><path class="a" d="M18.80531,9.94065,3.44517,6.81935A2.30059,2.30059,0,0,0,.67234,8.49741v0a2.28794,2.28794,0,0,0,1.92673,2.597l15.16712,2.74175"/><path class="a" d="M17.41078,13.89224l-13.96561-2.169A2.30059,2.30059,0,0,0,.67234,13.40134v0a2.28794,2.28794,0,0,0,1.92673,2.597l13.96561,2.169"/><path class="b" d="M35.5007,7.22482A2.90588,2.90588,0,0,0,35.521,5.84271c-.37185-1.39848-2.03294-1.98647-3.4743-2.11494-6.26907-.55873-11.14412,3.006-14.41026,8.0888a2.29166,2.29166,0,0,0-.50318,1.78085,1.60842,1.60842,0,0,0,1.22106,1.03172,4.5587,4.5587,0,0,0,1.66706-.0248,8.02672,8.02672,0,0,0,2.69089-.72726,12.63724,12.63724,0,0,0,1.94054-1.48538,12.72265,12.72265,0,0,1,3.37375-1.98193c1.84337-.72868,3.13373.5242,4.815-.18166A4.29163,4.29163,0,0,0,35.5007,7.22482Z"/><path class="a" d="M31.53245,2.85744c3.25175.19722,6.38753.9933,9.63645,1.15294a24.62142,24.62142,0,0,0,4.50506-.5566c.9609-.1364,11.47223-2.03225,11.48756-1.9006l1.07439,10.91294s-12.67814-.30255-18.28284,2.66422c-.99487.52662-1.64094,1.78507-2.40824,2.61824a6.13852,6.13852,0,0,1-3.82,1.97808,31.52056,31.52056,0,0,1-18.02451-1.2341,6.21722,6.21722,0,0,1-2.42192-1.41,2.4251,2.4251,0,0,1-.57488-2.59848,2.53467,2.53467,0,0,1,1.28118-1.14863c2.75089-1.25066,5.93388.75214,8.93268.37959,2.07211-.25742,2.2533-2.5557,4.278-3.34507,1.27613-.49753,2.58408-.27751,4.05031-.309"/></svg>