<svg xmlns="http://www.w3.org/2000/svg" xmlns:xlink="http://www.w3.org/1999/xlink" viewBox="0 0 3.68102 7.66152"><defs><style>.a{fill:none;}.b{fill:#1d1d1b;}.c{clip-path:url(#a);}.d{clip-path:url(#b);}.e{fill:#a8adad;}.f{opacity:0.04;fill:url(#c);}.g{opacity:0.05;fill:url(#d);}.h{fill:#939699;}.i{fill:#b0b5b7;}.j{fill:#efeeea;}.k{fill:#fff;}.l{fill:#d8d8d6;}.m{fill:#c94380;}.m,.n,.r{opacity:0.7;}.n{fill:#933468;}.o{fill:#f9f9f7;}.p{fill:#e8e8e8;}.q{fill:#dadada;}.r{fill:#ed519f;}.s{fill:#f6f6f6;}.t{fill:#ededed;}</style><clipPath id="a"><rect class="a" x="-252.75417" y="-137.77559" width="192" height="173.63173"/></clipPath><clipPath id="b"><polygon class="a" points="-278.007 5.577 -277.995 -22.834 -54.422 -22.834 -54.422 71.53 -278.007 71.53 -278.007 5.577"/></clipPath><pattern id="c" width="71.99905" height="71.99808" patternTransform="matrix(2.64628, 0, 2.51973, 2.15366, 4714.79119, 1538.10205)" patternUnits="userSpaceOnUse" viewBox="0 0 71.999 71.998"><rect class="a" width="71.99905" height="71.99808"/><path d="M16.45505,69.8467c-.3574,1.583,1.5196,4.57326-2.5459,2.86818l.5069,1.39355c-.8135-.0664-1.8819-.43359-2.0342.32813.3545.77832.456,1.64746,1.5225,2.21191l-1.5254-.24609C9.17775,73.52738,18.12795,74.44339,16.45505,69.8467Z"/><path d="M61.67385,70.9864c-.7481-.1983-1.9258.65231-2.9756,1.21676l-1.7471,4.74512,1.8819-1.10547.6152,1.76562,3.7646-2.21093-1.5761,1.9873c-2.5518.80859-2.3555-.582-2.8037-1.542l-1.8819,1.10547c-.2636-.42969-.1797-1.16895-1.4023-.76953,4.5303-2.29,2.3828-3.89747,3.6289-5.85155Z"/><path d="M61.33985,72.51273c-.6973.64355-.2383,1.46777-.0908,2.23535,1.2773-1.69433,5.54-1.96973,2.8974-5.25488.9336.1738.9854,1.1152,1.2696,1.84277-2.419.03516-2.0342,4.93067-5.043,2.92774Z"/><polygon points="69.749 71.248 68.031 71.121 72.528 72.615 72.856 72.059 70.078 70.689 69.749 71.248"/><path d="M46.44925,77.1973l-.7002-.69922,1-1,.7002.69922-1,1,2,2c-.5.59961-1.2998,1.09961-1,2h-1c-.2002-1.40039,2.3994-2.90039,0-4h-1l2-6C47.14945,73.1973,43.749,75.1973,46.44925,77.1973Z"/><path d="M22.68165,68.3926c-1.4502,1.8067-1.2256,3.60255-3.1045,5.45411l-1.3975.84571.9786-.5918.4023-1.6748-.9775.59179c.0566,1.25391-1.2139,2.8086-2.2041,4.19531l7.2978-7.99222Z"/><path d="M44.624,71.37308l-2,3c.4004,2.09863-.5996-3.10058-3-4l3,3Z"/><path d="M30.95315,70.7891c4.0605-1.2363.0722,2.46582.1875,3.6875-.9121,1.25293.8535-1.36817,2.1406-5.8994A5.87945,5.87945,0,0,1,30.95315,70.7891Z"/><polygon points="-2.25 71.248 -3.968 71.121 0.529 72.615 0.857 72.059 -1.921 70.689 -2.25 71.248"/><path d="M73.90625,6.4873l-1.0049-.1718V4.9229l1.0049.1709V6.4873l2.8721.4912c.0722.7784-.1436,1.6465.7177,2.212l-.7177.5732c-1.1485-1.0322-.3594-3.7529-2.8721-3.2764l-.7178.5733L70.31735.9981C71.53715,2.8086,70.53225,6.3975,73.90625,6.4873Z"/><path d="M69.82125,63.0303c2.7325.5215,4.4317-.5693,6.5713-.8662l-3.3632.7471-1.3721-.8838C73.01855,61.0108,69.65435,62.4121,69.82125,63.0303Z"/><polygon points="70.249 51.749 68.369 52.432 72.385 48.844 70.249 51.749"/><polygon points="69.402 41.056 68.917 40.752 73.271 40.315 73.292 39.395 75.469 39.177 74.393 38.824 69.402 41.056"/><polygon points="6.999 62.499 6.474 61.187 9.1 60.136 5.686 63.024 6.999 62.499"/><path d="M8.44925.1993c-5,3.0996.8994,6.5996,1,10,1.3994.3994,2-1.2999,3-2,.2998-.9004-.5-1.4004-1-2l-1,1c-.2998-1.6993.7998-4-1-5,.8994.3007,1.3994-.5,2-1-1.7998.7001-.7002,2.7001-1,4,.7002,1,2.3994,1.5996,2,3l-2,2,1,1c-.5.5996-1.2998,1.0996-1,2,1.5996,1.5996,3.8994,4.5996,6,2l-1,1c2.5.5-3.1006.3994-4-1-1-2.6006-1.6006-6.2999-5-7l1,1c2.7002-1.6993-.7002-3.2999-1-5h-1C6.44925,2.8994,7.44925.6993,8.44925.1993Z"/><path d="M53.44925,4.1993,52.74905,3.5l1-1,.7002.6993-1,1c-1-.6993-1.6006-2.4004-3-2-.5.5996-1.2998,1.0996-1,2,2.5996,2.5-1.2998-.7999,0-2C51.34865,1.5987,52.249,3.0987,53.44925,4.1993Z"/><path d="M15.44925,8.9493c-.9004-.2999-1.4004.5-2,1-.2998.8994.5,1.3994,1,2,2.0996-.2999,3.2998-2.6993,5-4-.6006-1.1993-1.9004-1-3-1,1.0996,0,2.3994.2001,3-1l-1,1,1,1-3,3,1,1c0,2.5.2002-1-1-1-1.1006,1.3007-2.6006,1.5-4,2l1-1-1-1a4.66073,4.66073,0,0,0,2-5C14.44925,7.0489,14.24905,8.3487,15.44925,8.9493Z"/><path d="M57.94925,14.4493c.5996,1.8994-.9004,2.8007-2,4l1,1c-.5.5996-1.2998,1.0996-1,2-2-2.6993-4,.7001-6,1-1.2002,1.3994,2.2002-1.4004,1-3-.2998.8994.5,1.3994,1,2l5-2-1-1,2-2-2-2Z"/><path d="M61.69925,21.4493c3.3994,2.0996,1.75,2.75,1.75,3.75l-2,2c2.7002,4,4.7998-7.1993,7.2998-3.6993,2.5,1.2989-.2998.2989-1-1l-6.2998,6.6993,1-1-1-1c1.2998-2.6993,4.0498-3.25.25-6.75l1-1C62.99905,20.3487,62.19925,20.8487,61.69925,21.4493Z"/><path d="M66.67775,26.0557c2.1523.6875-1.8858,3.4053-2.8154,5.1367a5.37753,5.37753,0,0,1,2.998-.8525c.6436.3174-.3223,1.1924-.8525,1.9111-1.8135,1.2481-3.0752.6729-4.626.9815l3.5146.3339a5.90106,5.90106,0,0,1,2.4815-2.04c-3.7149-1.1787.8711-4.1836.4101-6.7881Z"/><path d="M58.44925,36.1993c.5996-.5,1.0996-1.2999,2-1l1,1,1-1v2a3.16745,3.16745,0,0,0-5-1v-1Z"/><path d="M56.69925,39.6993c-.6006-.5-1.2998-.25-2.2002.0498,1.9004-1.2002-1.9004-3.7998,0-5C53.19925,36.3487,55.99905,37.6993,56.69925,39.6993Z"/><path d="M59.89945,51.3994c1.0996,0,2.3994-.2001,3,1l-.7002-.7001,2-2,.7002.7001-3,3c.2998-.9003-.5-1.4003-1-2Z"/><path d="M21.44925,60.1993c-.6006-1.2002-1.9004-1-3-1-2,1,.2998,2.7998,1,4l-.7002-.7002,1-1,.7002.7002-1,1c-1.5-.1006-.9004-4.5-4-3l-1,1c.5.5996,1.2998,1.0996,1,2l-1,1,3,2c-.6006-.5-1.1006-1.2999-2-1l-1,1c.2998-.9004-.5-1.4004-1-2,.8994.2998,1.3994-.5,2-1-.5-1.4004-.7002-2.9004-2-4,1.2002,1,5.2998,2.2001,5-1C19.84865,57.7989,20.44925,59.4991,21.44925,60.1993Z"/><path d="M12.44925,62.1993c-.5.5996-1.2998,1.0996-1,2-.6006-.5-1.1006-1.2999-2-1l.7002.7001-1,1-.7002-.7001,2-2,1,1Z"/><path d="M5.44925,67.1993c1.8994,2.7001,3.5996-.9004,6,0-.5.5996-1.2998,1.0996-1,2-.6006-.5-1.1006-1.2999-2-1-.5.5996-1.2998,1.0996-1,2,1,0-5.70022-2.7002-1-6C6.44925,65.2989,6.64945,66.5987,5.44925,67.1993Z"/><path d="M6.76175,45.8399c1.0283,1.707,2.6953,1.1758,4.3232,1.1445l.0889,1.4121c.7803.0225,1.6846-.248,2.1611.5723-.7031-3.2861,3.1709-2.5371,4.7178-3.8399,1.8437.0264-2.5039.7256-2.9121-1.2334.874.3702.7207,1.3008.8398,2.0733l-4.8066,2.4277-.0889-1.4121-2.8232.1777L8.084,44.3399Z"/><path d="M8.09475,25.8477l.8076,1.1601,2.3213-1.6152.8076,1.1602,1.1611-.8076-.1767.9843c1.5996-.4238-4.5606.5039-7.0664-.25C6.78225,26.9336,7.41505,26.2344,8.09475,25.8477Z"/><path d="M59.29885,7.128c3.8008,1.2509-1.0752,4.5.8086,6.6591C58.667,11.5743,61.84865,9.2061,59.29885,7.128Z"/><polygon points="63.499 16.75 61.965 18.032 65.249 11.75 63.499 16.75"/><path d="M9.74905,29.7491l1,1-3,3,1,1h-1v-2c.9004.2998,1.4004-.5,2-1,.2998-.9004-.5-1.4004-1-2,.5996-.5,1.0996-1.2998,2-1Z"/><path d="M15.99905,35.2491c.5996.5,1.0996,1.2998,2,1,1.2002-.5997,1-1.9004,1-3h1l-1,1,.7002-.7002,2,2-.7002.7002c-.5996-.5-1.0996-1.2998-2-1l-2,2,1,1-1,1c1.5-2.5997-3-4,0-6C16.49905,33.8487,15.69925,34.3487,15.99905,35.2491Z"/><polygon points="6.999 37.249 8.999 36.249 10.999 38.249 6.999 37.249"/><path d="M14.99905,37.2491c-1,1.2998-3.0996,2.2002-3,4v1h-2v-1c1.4004.4003,2-1.2998,3-2v-3C13.59865,36.7491,14.09865,37.5489,14.99905,37.2491Z"/><path d="M68.50975,9.9424l.9737.2276.1425,1.6748-.9726-.2276c-.1524-1.9853-.0957-1.331,1.25-2.25-.4717-.623.6943-2.3369-.25-2.25l.7402-.8418Z"/><path d="M51.249,72.24808c-1.0996.5,4.0996-2.499,3-4.999C55.34865,69.7491,52.249,70.5489,51.249,72.24808Z"/><path d="M63.01075,55.3399l-.0117-1.4141a3.16979,3.16979,0,0,0,4.2197-2.8642c1.4717-1.4981-2.3193,1.7861.0225,2.8281-2.6241-.8975-4.0186,1.376-5.6319,2.875l.0117,1.415c4.2383-.4609-2.1113,1.1485-.0117-1.415l.0078.9912-1.414.0117-.0088-.9902C61.47075,57.1905,62.24025,56.1231,63.01075,55.3399Z"/><path d="M63.99905,68.2491l-3,4.999c-3.2998,1.7002,6.7998-7.19918-1-3.999l-.7002.7002-1-1,.7002-.7002c1,2,2.7998-.2998,4-1-2.4004-1.2002-2.4004-3.7998,0-5C59.99905,63.1494,61.49905,66.6494,63.99905,68.2491Z"/><path d="M55.74905,56.7491h1v2h-1c-.5996-1.9004.9004-2.7998,2-4-.5996-.5-1.0996-1.2998-2-1l1-1c-1-1-3.2998-2.7998-1-4C52.44925,52.1494,63.34865,55.2491,55.74905,56.7491Z"/><path d="M53.49905,27.9991v1c-.5996-1.2002-1.9004-1-3-1l-1,1c2.7002.0996,1.4004-1.6504,1.5-3.2491C53.69925,28.7491,50.19925,26.5,53.49905,27.9991Z"/><path d="M59.24905,32.7491c.5996-.5,1.0996-1.2998,2-1-.5996.5-1.0996,1.2998-2,1l-3-3-2,2,1-2C57.04885,30.5489,58.44925,30.6494,59.24905,32.7491Z"/><path d="M63.99905,6l1,1c-1.4004-.4013-2,1.2989-3,2l2,2c1.2998-1,2.2002-3.1006,4-3-1.5996-.5-3.7002,5.0987-6,2a16.46993,16.46993,0,0,1,3-5Z"/><path d="M57.49905,6c.2002,1.5-1.7002,2.2989-1,4l1,1-.7002-.7011,1-1,.7002.7011c-1.2002.5987-1,1.8994-1,3l-2-7Z"/><path d="M60.74905,19c-1.2002-.6006-1-1.9013-1-3,1.4004.3994,2-1.3007,3-2l-1-2C65.24905,14.6993,58.44925,15.5987,60.74905,19Z"/><path d="M5.99905,48.7491l1.4365.2451-1.4365,1.1484-.7178-3.6055C6.14355,47.1026,5.92775,47.9707,5.99905,48.7491Z"/><path d="M50.09865,15.5684c2.0889.0635,1.0176-4.7803,4.1221-7.8682l-4.8545-.1963,3.3798.3418.6153-1.416C54.47265,9.2344,52.52145,11.9375,50.09865,15.5684Z"/><path d="M7.54885,53.5137c-.501-2.3848,2.1543-2.418,3.5908-2.8682v1.3926c-2.3701-1.0312-4.0215.0098-4.3086,2.0498l-.7178-.8193Z"/><path d="M4.127,54.7227v1.3926l2.87209.4912v1.3926l1.4365.2451-.7187.5742c1.581.8271-4.09282-2.8584-5.74321-5.1602C2.4043,54.5674,3.33789,54.5186,4.127,54.7227Z"/><path d="M16.56255,55.503V54.1114l1.4365.2451v1.3926c2.7285,1.0244-5.6006-2.4893-4.3076,2.0488-1.8672,1.0732,2.0097-.4912.7177-1.9668l-2.1533.3281C13.61915,55.7657,14.83985,55.0694,16.56255,55.503Z"/><path d="M51.00685,33.1172c1.6504.0742,3.8037,1.2783,5.0254.1631-.8623,3.1943,3.1592,1.6553,4.3076,3.5215-.4307.7627-1.3633.3945-2.1543.3291.1436-1.6465-2.584-2.9492-4.3076-3.5225l-2.8711-.4912.7168,3.6055-.7168-4.999Z"/><path d="M17.43945,24.1289c-2.5859.5332-.9336,3.5313-1.4365,5.3262-.4307-.9101-1.3633-.8603-2.1543-1.0654-.8613.2705-.6455,1.2138-.7168,1.9668.7168,1.3769,2.3682.8926,3.5889,1.3115l-3.5889.0811c-.0733-.7784.1426-1.6465-.7188-2.212,4.4512-.9101,2.5137-4.2353,5.0264-6.7998Z"/><path d="M5.65725,38.8584l-.9717-.3144.2002-1.378.9707.3145-.1992,1.3779,2.7705.8985c-.0391.7802-.377,1.6093.3945,2.292l-.7929.4648c-.9893-1.1865.1835-3.7656-2.3721-3.6553l-.793.4649L3.02832,33.8672C3.97657,35.835,2.33008,38.2862,5.65725,38.8584Z"/><path d="M11.41505,34.0948c.4893-3.5069-.2666,2.1904,2.1748.1494l-3,.2549Z"/><path d="M6.88575,18.5664c.0713-.7539-.1436-1.6962.7168-1.9668-.0703.7539.1445,1.6954-.7168,1.9668l-4.3086-.7373v2.7862l-.71777-2.2119C3.72657,18.0264,4.80275,17.3057,6.88575,18.5664Z"/><path d="M10.129,17.4336c.706-.2744,1.4521-.8886,2.08-.2392l.4239,1.3945,1.2451-.625-.8213,2.0176c-.1387-2.5801-1.8096-3.5908-3.7617-2.9336l.4111-1.0088Z"/><path d="M19.90035,30.3682l1.1319-.8486-.2832,1.9795-2.6875-2.4043C18.99515,28.9258,19.377,29.7881,19.90035,30.3682Z"/><path d="M3.10157,11.3711l1.43554.2461c-1.292.4746-.50195,2.2119-.71777,3.3594l2.87211.4902c.2158-1.5644-.6465-3.8008.7177-4.7519-1.5068.5078,1.0059,6.2998-2.872,5.0801A17.80476,17.80476,0,0,1,3.10157,9.9795Z"/><path d="M1.90723,6.4873.90235,6.3155V4.9229l1.00488.1709V6.4873l2.87212.4912c.0722.7784-.1436,1.6465.7177,2.212l-.7177.5732C3.63086,8.7315,4.41993,6.0108,1.90723,6.4873l-.71777.5733L-1.68164.9981C-.46191,2.8086-1.46679,6.3975,1.90723,6.4873Z"/><path d="M65.74905,47.9991c.0722-.7539-.1436-1.6963.7178-1.9659-.0723.753.1445,1.6953-.7178,1.9659l-4.3076-.7373v2.7861l-.7178-2.2119C62.58985,47.46,63.667,46.7383,65.74905,47.9991Z"/><path d="M68.33985,34.4883c-.9336,1.582-.1445,4.5723-3.5908,2.8682v1.3926c-.7901-.0664-1.7227-.4336-2.1543.3281.0722.7783-.1436,1.6465.7178,2.2119L61.877,41.044C59.72365,38.169,68.33985,39.085,68.33985,34.4883Z"/><path d="M16.45505-2.1513c-.3574,1.583,1.5196,4.5732-2.5459,2.8681l.5069,1.3936c-.8135-.0664-1.8819-.4336-2.0342.3281.3545.7783.456,1.6475,1.5225,2.2119L12.379,4.4043C9.17775,1.5293,18.12795,2.4453,16.45505-2.1513Z"/><path d="M67.58005,12.8028c-2.3906.5332.3516,3.5322.502,5.3252-.7617-.9092-1.6768-.8594-2.541-1.0635-.7637.2705-.2051,1.2119-.003,1.9658,1.2188,1.376,2.6954.8926,4.0674,1.3096l-3.5605.083c-.3545-.7783-.4551-1.6465-1.5235-2.2119,4.1221-.9092.9717-4.2364,2.5518-6.8008Z"/><path d="M69.74705,64.4239c-3.2021-1.6954-3.4599,1.1474-3.0556,3.4414,1.5244.6386,1.9843-.2715,2.5439-.9014-.7627.2705-.2051,1.2129-.0019,1.9668l.5087-.5742,1.0157.8193-.5088.5733c3.8642.5576-1.4746.0908-2.0322-1.6377-3.9659-1.4248-.1045,2.8671-1.5303,3.68649l-.503-5.32519.3555.9746-1.5244-.2451-.3555-.9746C68.82715,67.6192,64.461,61.7373,69.74705,64.4239Z"/><path d="M58.45505,38.8487c-.3574,1.583,1.5196,4.5732-2.5459,2.8691l.5069,1.3926c-.8135-.0664-1.8819-.4336-2.0342.3281.3545.7774.456,1.6475,1.5225,2.2119l-1.5254-.2461C51.17775,42.5293,60.128,43.4453,58.45505,38.8487Z"/><path d="M54.418,25.1534c1.626,1.1142,1.4717,2.8584,3.5557,3.8496l1.5254.2461-1.0674-.1719-.5078-1.3926,1.0683.1719c-.0009,1.1797,1.4219,2.1299,2.5391,3.0303l-8.1309-4.586Z"/><path d="M61.47465,20.0635c-3.5606.8682-.1592,6.0713-3.5664,5.9805l-1.0684-.1719-.5068-1.3916,1.0683.1709.5069,1.3926c3.6093,1.2373.9687-2.4658,1.5293-3.6865l-1.5245-.2452Z"/><path d="M12.57035,24.3145l-.1885-3.6875c-3.1875,2.9004-4.25,1.2031-6.1582,1.5547l1.6142-.2442-1.0136,1.3926c2.3086-2.5801,5.5049.5254,7.6611,1.3125l1.0137-1.3926A5.39067,5.39067,0,0,1,12.57035,24.3145Z"/><path d="M4.14649,21.9219,4.167,21.002l4.35445-.4365.0215-.9209,2.1768-.2178-1.0762-.3525c2.4033-.6075-6.23925,2.0488-8.77441,3.6357C1.53516,22.0918,2.94727,22.0879,4.14649,21.9219Z"/><path d="M3.749,29.7491l.31347-1.4229,1.07715,1.4902-3.63379.544C2.11133,29.5264,2.96875,29.7832,3.749,29.7491Z"/><polygon points="11.974 45.067 13.623 45.563 9.557 43.131 9.115 43.604 11.532 45.541 11.974 45.067"/><path d="M17.74905,50.9991c-.8379.0654-2.0391.4336-1.9151-.3272.4278-1.1807,2.1963-2.1309,3.6426-3.0322l-.2998-.5733L18.16215,48.46l.7089-.9756-3.2285.4902-.7109.9756c.8379-.0644,2.0391-.4345,1.916.3282l-2.0273,2.7861-1.6153.2451-1.0136,1.3926c2.9668-2.9893,6.1582-1.5557,7.8857-4.9151A5.88567,5.88567,0,0,1,17.74905,50.9991Z"/><path d="M79.35255,31.9073c-3.0879,1.7695-5.7432.5498-9.334-.8995-.2871,2.0401,4.9551-.1972,7.8984,2.0479Z"/><path d="M73.62105,47.6328c3.6622.5567-1.5078.0899-1.4355-1.6386-3.4473-1.4248-1.1494,2.8681-2.873,3.6875l1.4365-5.3252v.9746l-1.4365-.2451v-.9746c3.6621,1.3916,1.4365-4.4903,5.7441-1.8047-2.584-1.6944-3.877,1.1484-4.3076,3.4424,1.292.6396,2.082-.2706,2.872-.9014Z"/><path d="M75.36325,60.2344c-.4316-2.581-5.8886.5254-8.6162,1.3125V60.1534c.4307.9101,1.3643.8603,2.1543,1.0654l2.8721-3.6875c1.0762,2.9004,3.375,1.2041,5.0254,1.5566Z"/><path d="M73.24905,37.4991c-1.6504.3447-2.9444-2.3838-4.3076-.7373V35.3692Z"/><path d="M74.16305,14.9473c-.0712-.7783.1436-1.6455-.7177-2.2119-2.5137-1.335-1.7227,1.6553-2.8721,2.2949-1.7949,1.4346.8623-.4101,0-1.3935l-1.4365-.2461c1.0058,2.4023,4.5244-3.0547,2.1543-5.8975Z"/><path d="M72.67575,52.5264l-.5078-1.3936c2.7451,1.0323,4.0176-.0068,3.5625-2.0468a1.91439,1.91439,0,0,0,1.0137,2.7842c-3.1504-1.3594-3.8662.623-5.0879,1.8027l.5068,1.3935c4.4248.3194-1.8818.7461-.5068-1.3935l.3545.9756-1.5244-.2451-.3545-.9756C71.65625,54.0674,72.11525,53.1573,72.67575,52.5264Z"/><path d="M71.34575,16.4668l-1.3145.8203c1.7578-.6386,1.8857.2696,2.2158.9014l-1.0136,1.3926c-.9424-1.4668.4443,2.8428,2.5166,1.4756C68.99515,21.9649,74.30855,17.1319,71.34575,16.4668Z"/><path d="M72.64255,24.4746l-.7109.9756c.8379-.0644,2.0391-.4345,1.916.3282l-2.0273,2.7861-1.6153.2451-1.0136,1.3926c2.9668-2.9893,6.1582-1.5557,7.8857-4.9151a5.89248,5.89248,0,0,1-2.3281,2.212c-.8379.0654-2.0391.4336-1.9151-.3272Z"/><path d="M56.87505,46.7432l-1.3145.8193c1.7578-.6396,1.8857.2715,2.2168.9014l-1.0137,1.3926c-.9433-1.4668.4424,2.8428,2.5157,1.4746C54.52535,52.2403,59.83785,47.4073,56.87505,46.7432Z"/><path d="M57.02635,72.84281c.4766-.75391,1.378-1.69531.7139-1.96581l-1.6152.2451,1.0146-1.3916-2.6289,1.6377c3.1211-1.0322,4.0146.00879,2.8164,2.04785Z"/><path d="M58.70315,44.541c4.0605-1.2363.0722,2.4659.1875,3.6875-.9121,1.253.8535-1.3681,2.1406-5.8994A5.8781,5.8781,0,0,1,58.70315,44.541Z"/><path d="M61.67385-1.0117c-.7481-.1982-1.9258.6524-2.9756,1.2168l-1.7471,4.7451,1.8819-1.1054.6152,1.7656,3.7646-2.211-1.5761,1.9874c-2.5518.8085-2.3555-.5821-2.8037-1.542l-1.8819,1.1054c-.2636-.4297-.1797-1.1689-1.4023-.7695,4.5303-2.29,2.3828-3.8975,3.6289-5.8516Z"/><path d="M67.09475,2.9131c-.4873.5801-1.3106,1.0869-.8985,1.8916l1.1817.8506-.9922.9766,2.1748-.125C66.16305,5.541,65.74605,3.6348,66.99905,2l-1.0879.0625Z"/><path d="M61.33985.5147c-.6973.6435-.2383,1.4678-.0908,2.2353,1.2773-1.6943,5.54-1.9697,2.8974-5.2548.9336.1738.9854,1.1152,1.2696,1.8427-2.419.0352-2.0342,4.9307-5.043,2.9278Z"/><path d="M64.37015,44.044l.7285.6845-1.3711,1.4561-.7285-.6855c.8652-1.795,2.5742-1.4219,4.1982-1.542-.0947-.7754.0899-1.7002-.7705-2.0987l1.4131-.0429c-.043-1.4131-.4844-4.3008,2.0127-3.5977C65.11915,38.4317,70.93165,48.1592,64.37015,44.044Z"/><path d="M58.34185,59.4991c-.959,3.2197-6.0118-2.2178-6.0176,1.2236l.1406,1.1338,1.3633,1.0527-.1406-1.1348-1.3633-1.0517c-1.1231-4.0938,2.4668-.0039,3.6904-.0869l.2002,1.6211Z"/><path d="M66.24905,55.7491c-.9004-.2998-1.4004.5-2,1,2.0996.2998,4.4004,3.9003,6,0,.2998.9003-.5,1.4003-1,2-1.2002-2.0997-5.2998.5996-5-3Z"/><path d="M60.15625,61.8243l-.2617-1.3897,1.3896-.2617.2627,1.3896c2.7442.0577-5.709-.5078-3.6455,3.5645-1.5449,1.7305,1.7881-1.2002.3018-2.2158l-1.9541,1.0879C57.45115,63.126,58.46285,61.9991,60.15625,61.8243Z"/><path d="M74.74905,64.7491c-1.4004-.4004-2,1.2998-3,2,0,2.5.2002-1-1-1l-1,1,1-2c-.2998.9003.5,1.4003,1,2l2-3Z"/><polygon points="64.299 62.606 62.949 59.927 65.192 62.156 65.643 63.049 64.749 63.499 64.299 62.606"/><polygon points="70.249 51.749 68.369 52.432 72.386 48.844 70.249 51.749"/><path d="M-2.17773,63.0303c2.73242.5215,4.43164-.5693,6.57129-.8662l-3.36328.7471-1.37207-.8838C1.01953,61.0108-2.34472,62.4121-2.17773,63.0303Z"/><polygon points="-1.75 51.749 -3.63 52.432 0.386 48.844 -1.75 51.749"/><path d="M3.72657,74.13968C-.332,75.377,3.65528,71.67386,3.53809,70.4532l1.61526-.2461L2.33594,68.1592C5.58105,69.0274.28614,74.22953,3.72657,74.13968Z"/><path d="M9.24905,53.4991c1.3945,1.1435.6396,3.2988.9209,4.914l-.1211-2.8242-1.4131.0605C7.86715,57.5235,8.49315,54.0274,9.24905,53.4991Z"/><path d="M2.999,44.7491c.61914-1.1465,2.67482-2.8838,1.72754-3.3594L2.999,44.7491c2.37692-1.7852-1.59571,3.2773,4.24312-1.8838C5.79785,43.7657,4.14844,44.9463,2.999,44.7491Z"/><polygon points="69.749 71.249 68.031 71.123 72.528 72.617 72.856 72.06 70.078 70.691 69.749 71.249"/><polygon points="69.749 -0.75 68.031 -0.877 72.528 0.617 72.856 0.061 70.078 -1.309 69.749 -0.75"/><path d="M50.17,70.2393c.2197-1.0781.2832-2.3916,1.5791-2.7402l-.8252.5459-1.5606-2.3584.8262-.5469,2.3399,3.54c-.8223-.4746-1.4727.21-2.1592.5801Z"/><polygon points="12.655 68.773 11.92 70.73 15.155 70.275 12.655 68.773"/><path d="M67.99905,28.4991l2-2.9991,1,1C69.59865,26.0987,68.99905,27.7989,67.99905,28.4991Z"/><path d="M69.99905,4.125c0,2.5.2002-1-1-1l-1,1,1-2C68.69925,3.0244,69.49905,3.5244,69.99905,4.125Z"/><path d="M72.82225,35.253c-1.3486-.9102-4.3867-.2871-3.8486-3.1914.2549,1.0703.3642,2.3808,1.6709,2.6845.9453.0821,1.2451-.8115,1.7119-1.4384l1.6719,2.6845Z"/><polygon points="74.394 38.824 69.403 41.056 68.917 40.752 73.271 40.315 74.394 38.824"/><polygon points="-2.597 41.056 -3.082 40.752 1.271 40.315 1.293 39.395 3.47 39.177 2.394 38.824 -2.597 41.056"/><polygon points="53.242 23.979 55.278 22.492 52.236 23.39 53.242 23.979"/><polygon points="54.028 54.492 54.063 52.206 52.771 52.402 54.028 54.492"/><path d="M46.44925,5.1993,45.749,4.5l1-1,.7002.6993-1,1,2,2c-.5.5996-1.2998,1.0996-1,2h-1c-.2002-1.4004,2.3994-2.9004,0-4h-1l2-6C47.14945,1.1993,43.749,3.1993,46.44925,5.1993Z"/><path d="M44.44925,18.4493l-2.0088.0488-.7412.9512c.0996-1.7999-2-2.6993-3-4l-1,1c-.2002-1.4004,3.8994-2.9004,0-4h-1l1-3C38.29885,12.8487,38.999,18.0987,44.44925,18.4493Z"/><path d="M50.999,9.75c-4.0498.7705-5.0303,5.9317-8.3867,5.7608l-.9717-.1953.2793-1.3858.9707.1953.4717,1.1358c2.9091,1.3076,2.3603-2.4092,3.6103-3.6006l-1.3877-.2783Z"/><path d="M42.94925,22.4493l4.4541-.8321c-1.2002,2.7002,2.4453,2.6328,3.5459,3.8321l-1-1-1,1c1.5-2.1006-6.9209-4.2071-9.4209-4.2071l.5-1.75C39.72755,20.3926,42.44925,21.8487,42.94925,22.4493Z"/><path d="M27.44925,23.1993c-2.5-1.1006-3.2998,2-5,3,.2998-.9004-.5-1.4004-1-2-.9004-.2999-1.4004.5-2,1-.4004,1.3994,1.2998,2,2,3l-3-2c.5-.6006,1.2998-1.1006,1-2,4.2998,1.8994,5.0996-1.6006,9-2Z"/><path d="M41.44925,23.1993c-1.9004.5996-3.4004,3.2001-5,0l-1,1c-.6006-.5-1.1006-1.2999-2-1-.5.5996-1.2998,1.0996-1,2l-1-1C31.74905,20.8994,38.14945,26.5,41.44925,23.1993Z"/><path d="M27.44925,32.1993c.2998-.9004-.5-1.4004-1-2l-4,2,4,4c.5-.6006,1.2998-1.1006,1-2l1,1c-.9004-.2999-1.4004.5-2,1,0,2.5996,2.5,1.5996,3,4-3.6006-1.2999-2.5-7.1006-7-8,1.2002-1.6006,5.2998-.6006,4-4Z"/><path d="M44.44925,34.6993c3.7998.3994.5-5.6006,5-4Z"/><path d="M32.09765,41.3828l-.7441,1.2051,2.4072,1.4844-.7412,1.2041,1.2031.7432-.9736.2295c1.0273,1.2988-2.2793-3.9815-2.586-6.5811C30.57915,40.6123,31.47265,40.9151,32.09765,41.3828Z"/><path d="M34.44925,36.1993c1.2998-2,3.5-.5,5,0l-1,1a3.16745,3.16745,0,0,0-5-1v-1Z"/><path d="M45.38965,40.9805c-1.2002-2.9561-2.1113,1.5117-5.0986.1084-1.044.7275,1.2412-.6934,6.4326-1.9014C46.127,39.6905,45.251,40.043,45.38965,40.9805Z"/><path d="M35.44925,43.6993l1,1h-2l2-3C36.749,42.5987,35.94925,43.0987,35.44925,43.6993Z"/><path d="M32.44925,48.1993c1.7002-1.2999-4.2002-2.7002-5-6l-4,3,3-2-1-1C29.24905,42.6993,30.54885,45.0987,32.44925,48.1993Z"/><path d="M45.44925,45.6993c.2998-.9004-.5-1.4004-1-2l1,1,1-2Z"/><path d="M48.44925,48.1993c1-.7002,1.5996-2.4004,3-2l-3,2c.3994-1.9004-3,1.8994-1-3C47.44925,46.2989,47.249,47.5987,48.44925,48.1993Z"/><path d="M22.44925,48.1993c0,1.0996.2002,2.3994-1,3l2,2a3.16806,3.16806,0,0,0,1-5l1,3c-1.6006,3.2001-3.1006.5996-5,0-1.2002,1.7001,5.0996-2.9004,0-3-2.4004,2.0996.7998.0996,0-1C21.04885,47.6993,21.54885,48.4991,22.44925,48.1993Z"/><path d="M41.19925,54.9493c-1.6006-.7002-.7002-3.4004-3-3l1-1Z"/><path d="M43.94925,52.9493c-2,2.5,1.2998-.2999-1-1,1.3994.3994,2-1.2999,3-2l-2-1h2Z"/><path d="M29.64945,55.8994c1.2998,1,2.1992,3.0997,4,3-3,1.7999,1.3994,3,1,5-.9004.2999-1.4004-.5-2-1,1.2998-1.1005,0-3.6005-1-5l-2-2-2,3,3-4Z"/><path d="M35.44925,56.9493c-4.3662,5.125,4.4658-2.875-1-1.75l5,.75Z"/><path d="M36.44925,59.6993c3.2998,2.7001-2.2998,5.2998,1,8h-2c.2998-2.7002,3.7002-5.2999,1-8h-1l6-3Z"/><path d="M30.94925,60.1993c-2.7002,2.2001-1.2002,6.2001-5,8-1.4004,1.7001,2.7998-2.2002,3-4C28.94925,62.5987,28.54885,59.8994,30.94925,60.1993Z"/><path d="M48.74705,62.9405c-1.5869-1.1006-2.6289.9287-3.875,1.4072-1.1191,3.168-.3896,4.6064,2.5274,5.5342.9131-.2549.8808-1.1992,1.0986-1.9492-.2549-.9131-1.1973-.8809-1.9473-1.0967.9141-.2559.8809-1.1992,1.0987-1.9492-.626,2.1123,1.6836,3.5693.3095,5.8242l-4.455-3.0264c1.3847-.4521.9316-2.1963,1.3681-3.3369l-3.0459.8496,6.3614-3.0859Z"/><path d="M40.44925,48.1993c-.6006-.5-1.1006-1.2999-2-1,1.8994-1.2002-1.9004-3.7999,0-5C37.14945,43.7989,39.749,46.1993,40.44925,48.1993Z"/><path d="M43.11525,24.5694c-2.4326,3.33,1.4678,6.8213-1.1006,8.9883l-.8408.5205-.7442-1.2041.8418-.5196.7432,1.2032c3.0195-1.0323.0801-3.3721.1787-5.0948l-1.2031.7422Z"/><path d="M29.794,9.1309l-.4775,1.3301,2.6611.958-.4785,1.331,1.331.4776-.9043.4267c1.2725,1.0586-3.0517-3.4267-3.8886-5.9072C28.14945,8.6895,29.086,8.8018,29.794,9.1309Z"/><polygon points="35.499 5.75 31.499 2.75 35.499 0.75 32.499 2.75 35.499 5.75"/><path d="M49.11915,51.0791c-.6182.7188-.0674,1.4864.167,2.2305,1.0742-1.8291,5.2783-2.5918,2.2754-5.5527.9463.0644,1.1054.9951,1.4717,1.6845-2.3975.3145-1.4551,5.1319-4.6719,3.4893Z"/><path d="M49.749,55.2491l1-1,1,1-1,1c1.5,2.2998-2.7998-5-5-1-2.2998-.2998,2,.7998,2-1l-2-1C47.14945,53.7491,48.64945,53.9493,49.749,55.2491Z"/><polygon points="45.999 28.499 44.999 29.499 45.999 26.5 46.999 26.5 46.999 28.499 45.999 28.499"/><path d="M22.74905,8.5c.0996,1.7989-2,2.6993-3,4l2-2-1-1C18.84865,10.1993,21.84865,8.2989,22.74905,8.5Z"/><polygon points="23.749 17.5 20.749 17.5 23.749 16.5 24.749 16.5 24.749 17.5 23.749 17.5"/><path d="M30.99905,20c.5-.6006,1.2998-1.1006,1-2-1.0996-2.4013-2.5996.1993-4,0-2.5,0,1,.1993,1-1l-1-1c-.9004,2.2989,5.9004.3994,6-3Z"/><path d="M39.749,28.4991c-.9004-2.7002-4-1.4004-6,0,.5996,1.2002,1.9004,1,3,1-.9004-.2998-1.4004.5-2,1h1v1h-1c2.5996,2.5-1.2998-.7998,0-2-1.7998-2.9991-3,1.4003-5,1l5-3-.7002.7002-1-1L33.749,26.5C35.749,29.5987,38.14945,24.0987,39.749,28.4991Z"/><path d="M36.17675,10.1035c-.4316-.9091-1.3652-.8603-2.1553-1.0654v1.3936c-1.4355-1.2207-2.2978-3.7354-4.3066-3.5225.8603-.2705.6455-1.2129.7168-1.9658-.7891,1.6055,1.4365,2.6133,2.1543,3.8506C33.80665,9.211,35.45805,8.7276,36.17675,10.1035Z"/><path d="M48.07915,34.0791c2.2363,1.2119,2.3867,2.8106,3.0459,4.4239l1.5263.2451c.3555.7783.4551,1.6474,1.5225,2.2129-3.7617-1.0645-1.3252,2.8672-2.0391,4.2597.8115,1.836-.3027-2.4082-2.54-3.0302.7627.9082,1.6767.8603,2.542,1.0634l.5146-4.5058-1.5263-.2451-1.0137-2.7852-3.0508-.4912Z"/><path d="M28.85355,67.1729a5.39142,5.39142,0,0,1,2.9297-1.0654l-1.6153.246,2.3281-2.2128Z"/><path d="M24.65335,56.4219c-.8623.2695-.6465,1.2109-.7178,1.9649"/><path d="M33.55275,70.8223c.8369-.0654,2.0391-.4336,1.916.3281,1.0049-2.0732,5.5645-2.0234,6.5713-4.0957C40.32715,69.1104,36.39255,69.586,33.55275,70.8223Z"/><path d="M43.999,60.7491c-.8379.0654-2.0391.4336-1.9151-.3272.4278-1.1807,2.1963-2.1309,3.6426-3.0322l-.2998-.5733L44.41215,58.21l.7089-.9756-3.2285.4902-.7109.9756c.8379-.0644,2.0391-.4345,1.916.3282l-2.0273,2.7861-1.6153.2451-1.0136,1.3926c2.9668-2.9893,6.1582-1.5557,7.8857-4.9151A5.88567,5.88567,0,0,1,43.999,60.7491Z"/><path d="M22.68165-3.6054c-1.4502,1.8066-1.2256,3.6025-3.1045,5.4541l-1.3975.8457.9786-.5918.4023-1.6748-.9775.5918c.0566,1.2539-1.2139,2.8086-2.2041,4.1953l7.2978-7.9922Z"/><path d="M21.44725,45.0391l-1.6982-.29-1.874-2.6758-1.6973-.2901-.9375-1.3379-.3799.5235c-1.71-1.5869,5.3018,4.2637,8.8408,6.2226A5.37809,5.37809,0,0,1,21.44725,45.0391Z"/><path d="M24.65335,56.4219c-.7901-.0664-1.7237-.4346-2.1543.3272.5029-2.0723-4.0928-2.0225-3.5899-4.0957C19.12405,54.71,22.71485,55.1846,24.65335,56.4219Z"/><path d="M27.17185,46.0791c1.794,1.2119,1.3633,2.8106,1.4356,4.4239l1.4355.2451c.0723.7783-.1426,1.6474.7178,2.2129-3.374-1.0645-2.3682,2.8672-3.5889,4.2597.1436,1.836.5742-2.4082-1.4365-3.0302.4307.9082,1.3633.8603,2.1543,1.0634l2.1533-4.5058-1.4355-.2451V47.7178l-2.8721-.4912Z"/><path d="M38.18555,48.1739c-2.5859-1.6954-3.8779,1.1474-4.3086,3.4414,1.292.6386,2.082-.2715,2.8721-.9014-.8623.2705-.6465,1.2129-.7178,1.9668l.7178-.5742.7178.8193-.7178.5733c3.6621.5576-1.5078.0908-1.4365-1.6377-3.4463-1.4248-1.1485,2.8671-2.8711,3.6865l1.4355-5.3252v.9746l-1.4355-.2451v-.9746C36.10255,51.3692,33.877,45.4873,38.18555,48.1739Z"/><path d="M24.99905,60.7491l1,1h-2l2-3C26.29885,59.6494,25.49905,60.1494,24.99905,60.7491Z"/><path d="M17.42385,68.461l3.2666-3.3438c.7451,3.002,3.2187,1.5733,4.8203,2.1065l-1.3994-.4034-.1553,1.3838c-.1396-2.6113-5.9092-.1347-8.709.3428l.1553-1.3848C15.72855,68.1143,16.66215,68.169,17.42385,68.461Z"/><path d="M24.99025,64.8272c.3545-3.5293-.1856,2.1953,2.2129-.3154l-3.0362.8847Z"/><path d="M20.584,39.2608c1.125.4121,2.5264.7304,2.7139,1.9726l2.7549-.9463c-.4805-2.2294-2.5576-3.1855-4.7578-2.7216l3.4238.2773c2.7051,2.5557-.4883,2.8525-1.7764,4.2373,1.3116,1.6543-1.1543-5.4082-3.0693-1.124,1.2959,2.8213.3877-.6406-1.0215-.375C19.57515,40.2608,20.57125,40.1358,20.584,39.2608Z"/><path d="M16.40135,21.9688l2.8721-3.6875c1.0762,2.9004,3.375,1.2041,5.0254,1.5566l-1.4356-.2461v1.3926c-.4316-2.581-5.8886.5254-8.6162,1.3125V20.9034C14.67775,21.8135,15.61135,21.7637,16.40135,21.9688Z"/><path d="M27.20805,19.9102l.7822,1.3301,2.1953-1.3838.7813,1.3291,1.0976-.6914-.1572,1.0097c1.5205-.2285-4.3399-.0879-6.7354-1.2207C25.96975,20.875,26.56645,20.2237,27.20805,19.9102Z"/><polygon points="29.14 25.657 29.729 24.395 29.749 27.749 28.856 27.965 28.247 25.873 29.14 25.657"/><path d="M48.53125,39.4258c-.0723-.7529.1445-1.6953-.7187-1.9658l-1.4356.2451V36.3125l-1.4355,1.6377c2.3691-1.0312,4.0214.0098,4.3076,2.0489l.7178-.8184Z"/><path d="M39.41015,33.5762c-.4316-.9082-1.3652-.8603-2.1543-1.0644l1.4365.2451-.7187-2.2119Z"/><path d="M40.88085,38.3897V36.9981l1.4356.2451v1.3926c2.7285,1.0244-5.6006-2.4893-4.3086,2.0498-1.8672,1.0722,2.0117-.4922.7187-1.9668l-2.1543.3281C37.93555,38.6534,39.15725,37.9571,40.88085,38.3897Z"/><path d="M47.249,20.25c-1.2002-.6006-1-1.9013-1-3,1.4004.3994,2-1.3007,3-2l-1-2C51.749,15.9493,44.94925,16.8487,47.249,20.25Z"/><path d="M26.08205,7.5108c-.7334-.1875-1.6973-.1182-1.833-1.0108l.4638-1.3828L23.335,4.9043l1.8389-1.1679c-1.3819,2.1826-.6065,3.9746,1.3652,4.5703l-.9189.584Z"/><path d="M33.71485,7.0069c-.4873.5791-1.3096,1.0869-.8975,1.8906L33.999,9.75l-.9922.9766,2.1748-.127c-2.3975-.9638-2.8145-2.8711-1.5615-4.5058l-1.0869.0615Z"/><path d="M54.40335,14.1358l.7177.8193c-1.2919-.6387-2.082.2695-2.872.9014V17.25c2.0107-1.4677-2.5127,2.8418-3.5899,1.4737C52.752,19.6328,50.95705,14.8008,54.40335,14.1358Z"/><path d="M43.90335,25.3672a2.88588,2.88588,0,0,1,2.0615-1.2314l.7187.8193c-1.2929-.6387-2.082.2695-2.873.9014Z"/><path d="M27.49905,14c-.2012-1.1474-1.624-2.8847-.5049-3.3603L27.49905,14c-1.7276-1.7861.4033,3.2764-3.5576-1.8847C25.05855,13.0157,26.27835,14.1963,27.49905,14Z"/><path d="M22.45215,14.5664c-.2031-.7539-.7607-1.6962.002-1.9668.2031.7539.7607,1.6954-.002,1.9668l-4.5762-.7373,1.0137,2.7862-1.5225-2.2119C19.09575,14.0264,19.91115,13.3057,22.45215,14.5664Z"/><path d="M37.01955,21.459c2.3428-1.8525-4.9668-5.2871-1.2412-7.2168Z"/><path d="M36.65915,2.2276c1.1182.9004,2.541,1.8506,2.5391,3.0302L42.249,5.75c-.1504-2.1884-2.1817-4.0224-4.5713-4.6699l3.5576,1.8838c2.4375,3.5381-.9697,2.2695-2.5459,2.8672,1.1152,2.081-.3496-5.2998-3.0498-2.4561.9131,3.0957.5098-.3779-1.0156-.8193C35.43755,2.6202,36.50585,2.9893,36.65915,2.2276Z"/><path d="M48.04885,59.9268c2.1455,4.1211,7.6797,4.7451,8.5742,7.9922l.0996.9092-1.6016-.5586-.0996-.9092,1.6016.5586c.4883-2.5762-3.3867-2.8067-5.0879-4.2754l.1426,1.2978Z"/><path d="M42.249,48.7491c-.6006,1.0488,2.6162-4.6748.2627-6.0606C44.86525,44.0743,42.06735,46.7852,42.249,48.7491Z"/><path d="M40.31155,10.4746c.8144.0655,1.8818.4346,2.0361-.3271.001-1.1807-1.4219-2.1299-2.54-3.0313l.5097-.5732.5069,1.3926-.3545-.9746,3.0498.4902.3555.9756c-.8145-.0654-1.8819-.4346-2.0352.3271l1.0137,2.7862,1.5254.2451.5068,1.3926c-1.8779-2.9893-5.5918-1.5557-6.0967-4.9141C39.14455,9.041,39.24515,9.9102,40.31155,10.4746Z"/><path d="M27.07035,4.0645,26.88185.377c-3.1875,2.9004-4.25,1.2031-6.1582,1.5547l1.6142-.2442-1.0136,1.3926c2.3086-2.5801,5.5049.5254,7.6611,1.3125L29.99905,3A5.39067,5.39067,0,0,1,27.07035,4.0645Z"/><polygon points="20.646 5.323 21.548 7.044 21.96 4.504 21.66 3.932 20.345 4.75 20.646 5.323"/><path d="M16.379,77.2139l7.2978-7.9912-.9951-.8281c-1.4502,1.8066-1.2256,3.60153-3.1045,5.45309Z"/><polygon points="44.856 62.215 45.57 60.247 42.34 60.739 44.856 62.215"/><polygon points="29.749 70.999 30.463 69.033 27.233 69.524 29.749 70.999"/><path d="M47.54885,59.1133c.8369-.0654,2.039-.4336,1.916.3281,1.0049-2.0732,5.5645-2.0224,6.5703-4.0966C54.32325,57.4014,50.38865,57.877,47.54885,59.1133Z"/><path d="M29.86815,34.0147l.0547,1.6318,3.792,3.5117.0537,1.6319.6045-.2305-1.3184-2.8027c-.3466.6279-1.1757-.378-1.8691-.9395a5.38825,5.38825,0,0,1-.7119-3.0342c-.6924-.5634-1.5225-1.5683-1.8701-.9394Z"/><polygon points="32.999 32.836 32.999 34.249 31.585 31.42 32.292 30.714 33.706 32.128 32.999 32.836"/><polygon points="23.867 28.234 23.106 29.78 26.178 26.172 25.783 25.657 23.474 27.721 23.867 28.234"/><path d="M44.624-.625l-2,3c.4004,2.0987-.5996-3.1006-3-4l3,3Z"/><path d="M30.95315-1.209c4.0605-1.2363.0722,2.4659.1875,3.6875-.9121,1.253.8535-1.3681,2.1406-5.8994A5.8781,5.8781,0,0,1,30.95315-1.209Z"/><polygon points="40.305 66.057 39.518 66.534 38.159 64.818 38.444 65.915 40.305 66.057"/><polygon points="42.992 70.279 43.278 69.492 41.986 69.689 42.992 70.279"/><path d="M34.11525,18.9366a2.88852,2.88852,0,0,1,1.043,2.165l-.8799.6406c.751-1.2304-.084-2.0976-.6426-2.9404Z"/><path d="M36.27835,7.4922c-2.7002-2.2998,1.6992,1.4004,1-2l-1,3Z"/><polygon points="45.088 19.794 45.585 20.176 45.044 20.793 44.045 20.748 44.09 19.75 45.088 19.794"/><polygon points="41.088 44.044 41.585 44.426 41.044 45.043 40.045 44.998 40.09 43.999 41.088 44.044"/><polygon points="41.033 50.487 40.952 49.865 41.771 49.813 42.446 50.549 41.708 51.225 41.033 50.487"/><path d="M7.35355,31.9073c-3.08792,1.7695-5.7432.5498-9.334-.8995-.2871,2.0401,4.95508-.1972,7.89842,2.0479Z"/><path d="M1.62207,47.6328c3.66208.5567-1.50781.0899-1.43554-1.6386-3.44727-1.4248-1.14942,2.8681-2.873,3.6875L-1.25,44.3565v.9746l-1.43652-.2451v-.9746C.97559,45.503-1.25,39.6211,3.05762,42.3067.47364,40.6123-.81933,43.4551-1.25,45.7491c1.292.6396,2.082-.2706,2.87207-.9014Z"/><path d="M3.36426,60.2344c-.43164-2.581-5.88867.5254-8.61621,1.3125V60.1534c.43066.9101,1.36426.8603,2.1543,1.0654l2.87207-3.6875c1.07617,2.9004,3.375,1.2041,5.02543,1.5566Z"/><path d="M1.25,37.4991c-1.65039.3447-2.94433-2.3838-4.30761-.7373V35.3692Z"/><path d="M2.16407,14.9473c-.07129-.7783.14355-1.6455-.71778-2.2119-2.51367-1.335-1.72265,1.6553-2.87207,2.2949-1.79492,1.4346.86231-.4101,0-1.3935l-1.43652-.2461C-1.85644,15.793,1.66211,10.336-.708,7.4932Z"/><path d="M.67676,52.5264.169,51.1328c2.74512,1.0323,4.01758-.0068,3.5625-2.0468a1.91437,1.91437,0,0,0,1.01367,2.7842c-3.15039-1.3594-3.86621.623-5.08789,1.8027l.50684,1.3935c4.4248.3194-1.88184.7461-.50684-1.3935l.35449.9756-1.52441-.2451-.35449-.9756C-.34277,54.0674.11621,53.1573.67676,52.5264Z"/><path d="M-.65332,16.4668l-1.31445.8203C-.21,16.6485-.082,17.5567.24805,18.1885L-.76562,19.5811c-.94238-1.4668.44433,2.8428,2.5166,1.4756C-3.0039,21.9649,2.30957,17.1319-.65332,16.4668Z"/><path d="M.64356,24.4746l-.71094.9756c.83789-.0644,2.03906-.4345,1.916.3282L-.17871,28.5645l-1.61523.2451-1.01367,1.3926c2.96679-2.9893,6.1582-1.5557,7.88576-4.9151A5.89237,5.89237,0,0,1,2.75,27.4991c-.83789.0654-2.03906.4336-1.915-.3272Z"/><path d="M2.75,64.7491c-1.40039-.4004-2,1.2998-3,2,0,2.5.2002-1-1-1l-1,1,1-2c-.2998.9003.5,1.4003,1,2l2-3Z"/><polygon points="-1.75 51.749 -3.63 52.432 0.387 48.844 -1.75 51.749"/><polygon points="-2.25 71.249 -3.968 71.123 0.529 72.617 0.857 72.06 -1.921 70.691 -2.25 71.249"/><polygon points="-2.25 -0.75 -3.968 -0.877 0.529 0.617 0.857 0.061 -1.921 -1.309 -2.25 -0.75"/><path d="M.82325,35.253c-1.34864-.9102-4.38672-.2871-3.84864-3.1914.25489,1.0703.36426,2.3808,1.6709,2.6845.94531.0821,1.24512-.8115,1.71192-1.4384L2.0293,35.9922Z"/><polygon points="2.395 38.824 -2.596 41.056 -3.082 40.752 1.272 40.315 2.395 38.824"/><path d="M51.249.25c-1.0996.5,4.0996-2.499,3-4.999C55.34865-2.249,52.249-1.4492,51.249.25Z"/><path d="M63.99905-3.749l-3,4.999c-3.2998,1.7002,6.7998-7.1992-1-3.999l-.7002.7002-1-1,.7002-.7002c1,2,2.7998-.2998,4-1-2.4004-1.2002-2.4004-3.7998,0-5C59.99905-8.8486,61.49905-5.3486,63.99905-3.749Z"/><path d="M57.02635.8448c.4766-.7539,1.378-1.6954.7139-1.9659l-1.6152.2452,1.0146-1.3916L54.51075-.6298c3.1211-1.0323,4.0146.0087,2.8164,2.0478Z"/><path d="M3.72657,2.1416C-.332,3.3789,3.65528-.3242,3.53809-1.5449L5.15335-1.791,2.33594-3.8388C5.58105-2.9707.28614,2.2315,3.72657,2.1416Z"/><polygon points="69.749 -0.749 68.031 -0.875 72.528 0.619 72.856 0.062 70.078 -1.307 69.749 -0.749"/><path d="M16.379,5.2159l7.2978-7.9913-.9951-.8281c-1.4502,1.8067-1.2256,3.6016-3.1045,5.4531Z"/><polygon points="-2.25 -0.749 -3.968 -0.875 0.529 0.619 0.857 0.062 -1.921 -1.307 -2.25 -0.749"/></pattern><pattern id="d" width="54" height="81" patternTransform="matrix(2.64628, 0, 2.51973, 2.15366, 4143.92888, 1538.54863)" patternUnits="userSpaceOnUse" viewBox="0 0 54 81"><rect class="a" width="54" height="81"/><path class="b" d="M35.14619,62.02081c-.53527.6702-1.14386,1.58309-1.72949,1.58309-.59477-.00235-1.16892-.97684-1.7569-1.56247,1.17361-.59032,3.08371-1.10263,3.13642-1.789.28134-3.41073-.53082-7.38671-4.89332-8.75241C37.01506,49.35872,39.00317,57.194,35.14619,62.02081Z"/><path class="b" d="M42.60622,65.58732c.725-9.13-1.28347-14.08729,8.37947-10.57349,2.19378,3.07223-4.25263.48491-4.95492,1.91244-.35232.72057,3.9324,2.46833,3.6349,3.35826-.29726.89438-4.93431.9082-5.49487,1.88035-1.00659,1.75479.59476,3.51169,1.54419,5.14724C44.539,66.72181,42.56733,66.0837,42.60622,65.58732Z"/><path class="b" d="M52.63975,67.072c-.29282.12346-1.06609-.93115-1.65406-1.51679,1.87121-.99745,3.0563-4.94578,4.868-3.1158C57.5832,64.18719,54.49949,67.749,52.63975,67.072Z"/><path class="b" d="M57.79379,76.74855c1.15276,3.77007-1.979,2.56905-3.2943.37058-.87845-2.19378-2.15724-8.75919,3.52059-9.01781.565-.02295,1.15979.96536,1.7501,1.55334C58.53262,70.70692,53.7904,63.66105,57.79379,76.74855Z"/><path class="b" d="M41.62235,73.54818c-3.02865-.43923-3.13407,1.98787-3.3032,3.59391-.05505.52613,1.42051,1.36335,1.30151,1.62408-1.70185,3.6328-5.623,1.26754-8.54649,1.86676,1.16892,0,2.83446.38441,3.23246-.19209,2.22119-3.22777,6.63873-8.36588,2.03823-12.1062,2.24649,2.89162,7.38905.95856,8.7845,5.2707A23.90687,23.90687,0,0,1,41.62235,73.54818Z"/><path class="b" d="M48.00037,73.97358c3.9392.08246.26986,2.663,1.22842,3.73119C48.81252,76.45573,48.41429,75.21583,48.00037,73.97358Z"/><path class="b" d="M-1.36025,67.072c-.29282.12346-1.06609-.93115-1.65406-1.51679,1.87121-.99745,3.0563-4.94578,4.868-3.1158C3.5832,64.18719.49949,67.749-1.36025,67.072Z"/><path class="b" d="M18.65411,72.58282c.11221-1.16658.59945-2.91434.14875-3.19592-1.80047-1.13-4.4747-.75476-6.80576-.98128.64514-.52848,1.21015-1.27879,1.94454-1.45963,2.02676-.50552,4.03759,2.02933,4.74667,1.61986,4.5663-2.6309,9.75688-11.01506,13.55881-14.817.53082.64514-2.25773,6.10113-2.36994,6.24285C25.652,65.24648,22.71465,67.50655,18.65411,72.58282Z"/><path class="b" d="M11.85749,77.73686c.32725.41861,2.44326-.70229,2.92605-.21973,1.07968,1.09584,4.28918,2.62176,4.62768,4.34657,1.03867-.803,2.74989-1.55334,2.75669-2.402.01148-2.27624-5.76263-2.71758-9.09793-3.87291a4.85117,4.85117,0,0,1-2.83891-4.534C10.67943,73.35375,10.56043,76.05773,11.85749,77.73686Z"/><path class="b" d="M3.79379,76.74855c1.15276,3.77007-1.979,2.56905-3.2943.37058-.87845-2.19378-2.15724-8.75919,3.52059-9.01781.565-.02295,1.15979.96536,1.7501,1.55334C4.53262,70.70692-.2096,63.66105,3.79379,76.74855Z"/><path class="b" d="M13.03944,110.63655c1.18508.57415,2.35635,1.14831,3.53675,1.71567.56971-1.18275,1.75924-2.60794,1.39545-3.388-2.36783-5.04418.72056-10.25772,2.24414-14.93365a3.7229,3.7229,0,0,0,5.08306-1.9033c2.15958-4.22523,6.67528-10.74028,7.13746-15.668-1.29026.24714-3.29641.26775-3.46811.86252-2.14811,7.49657-8.3338,19.05135-16.72709,20.934-.286.06629-.50107,1.44815-.26541,2.16872.64514,1.98787,3.44282,2.01551,4.10857,3.33763C17.35391,106.26023,14.66609,108.51585,13.03944,110.63655Z"/><path class="b" d="M8.14619,21.52081c-.53527.6702-1.14386,1.58309-1.72949,1.58309-.59477-.00235-1.16892-.97684-1.7569-1.56247,1.17361-.59032,3.08371-1.10263,3.13642-1.789C8.07756,16.34171,7.2654,12.36573,2.9029,11,10.01506,8.85872,12.00317,16.694,8.14619,21.52081Z"/><path class="b" d="M15.60622,25.08732c.725-9.13-1.28347-14.08729,8.37947-10.57349,2.19378,3.07223-4.25263.48491-4.95492,1.91244-.35232.72057,3.9324,2.46833,3.6349,3.35826-.29726.89438-4.93431.9082-5.49487,1.88035-1.00659,1.75479.59476,3.51169,1.54419,5.14724C17.539,26.22181,15.56733,25.5837,15.60622,25.08732Z"/><path class="b" d="M25.63975,26.572c-.29282.12346-1.06609-.93115-1.65406-1.51679,1.87121-.99745,3.0563-4.94578,4.868-3.1158C30.5832,23.68719,27.49949,27.249,25.63975,26.572Z"/><path class="b" d="M45.65411,32.08282c.11221-1.16658.59945-2.91434.14875-3.19592-1.80047-1.13-4.4747-.75476-6.80576-.98128.64514-.52848,1.21015-1.27879,1.94454-1.45963,2.02676-.50552,4.03759,2.02933,4.74667,1.61986,4.5663-2.6309,9.75688-11.01506,13.55881-14.817.53082.64514-2.25773,6.10113-2.36994,6.24285C52.652,24.74648,49.71465,27.00655,45.65411,32.08282Z"/><path class="b" d="M38.85749,37.23686c.32725.41861,2.44326-.70229,2.92605-.21973,1.07968,1.09584,4.28918,2.62176,4.62768,4.34657,1.03867-.803,2.74989-1.55334,2.75669-2.402.01148-2.27624-5.76263-2.71758-9.09793-3.87291a4.85117,4.85117,0,0,1-2.83891-4.534C37.67943,32.85375,37.56043,35.55773,38.85749,37.23686Z"/><path class="b" d="M30.79379,36.24855c1.15276,3.77007-1.979,2.569-3.2943.37058-.87845-2.19378-2.15724-8.75919,3.52059-9.01781.565-.023,1.15979.96536,1.7501,1.55334C31.53262,30.20692,26.7904,23.16105,30.79379,36.24855Z"/><path class="b" d="M9.09328,60.84068c2.98532.31554,2.92816-2.22377,2.93964-3.83637.00914-1.718-1.05461-2.34721,2.76794-6.04162.75265-.72056.89672-3.23714,1.68381-4.95727.64724.53293,1.27644,1.04993,1.91923,1.58285-1.11176.69784-2.70164,1.18509-3.0837,2.1802-.56737,1.49149.74562,3.89586-.06419,4.87949-1.34742,1.62876-4.25708,2.49128-4.19993,6.021.00914.54441,1.54865,1.23756,1.45261,1.4847a13.83234,13.83234,0,0,0-.82129,7.26091C8.0799,67.38314,9.32425,63.897,9.09328,60.84068Z"/><path class="b" d="M26.25045,54.25442c-2.93051,3.65809-6.72564-.21036-8.84165,4.46322,3.07457-1.08881,1.23521.82129,6.91328,1.82554-.13728-1.3062-.684-3.28728-.21973-3.55714,5.6961-3.28516,2.73842-10.521,7.12364-14.96128-.81661-.17616-1.61494-.35232-2.42944-.53058.13961,1.31064-1.67,6.86971-2.17317,7.19672C22.60172,51.32859,28.783,51.09528,26.25045,54.25442Z"/><path class="b" d="M40.03944,70.13655c1.18508.57415,2.35635,1.14831,3.53675,1.71567.56971-1.18275,1.75924-2.60794,1.39545-3.388C42.60381,63.42,45.6922,58.2065,47.21578,53.53057a3.7229,3.7229,0,0,0,5.08306-1.9033c2.15958-4.22523,6.67528-10.74028,7.13746-15.668-1.29026.24714-3.29641.26775-3.46811.86252-2.14811,7.49657-8.3338,19.05135-16.72709,20.934-.286.06629-.50107,1.44815-.26541,2.16872.64514,1.98787,3.44282,2.01551,4.10857,3.33763C44.35391,65.76023,41.66609,68.01585,40.03944,70.13655Z"/><path class="b" d="M33.04239,54.48328c.29047,1.1462-.70909,2.61029.56736,3.84316,2.07267-5.07392,2.15958-10.85928,7.69334-14.682-2.22142-1.57606-3.722.29071-5.43538,1.1462C38.53047,48.913,31.95569,50.22831,33.04239,54.48328Z"/><path class="b" d="M55.04485,68.04888a17.82221,17.82221,0,0,0-3.53441,1.65852c2.83212-1.98342.12814-4.93665,5.00294-7.52632,1.17361-.62218.69785-3.54121-1.48914-4.772.59032-.59008,1.16658-1.16658,1.7569-1.75689-.80747,4.30088.9356,8.2354,1.7569,12.29829A14.127,14.127,0,0,0,55.04485,68.04888Z"/><path class="b" d="M14.62235,33.04818c-3.02865-.43923-3.13407,1.98787-3.3032,3.59391-.05505.52613,1.42051,1.36335,1.30151,1.62408-1.70185,3.6328-5.623,1.26754-8.54649,1.86676,1.16892,0,2.83446.38441,3.23246-.19209,2.22119-3.22777,6.63873-8.36588,2.03823-12.1062,2.24649,2.89162,7.38905.95856,8.7845,5.2707A23.90687,23.90687,0,0,1,14.62235,33.04818Z"/><path class="b" d="M2.9029,51.84559c1.21015-3.429,4.27793-3.15469,7.0276-3.5138C8.21248,50.76123,5.48344,51.15712,2.9029,51.84559Z"/><path class="b" d="M28.314,70.25649C27.22963,71.3453,27.29592,71.684,26.57981,71.938c-1.9696.69994-3.59391-.6955-5.22947-1.64493,6.021,1.2652,8.41625-3.61663,7.0276-8.78449,1.17361.59266,3.12025,1.16892,3.12025,1.75689C31.49819,65.61265,29.70709,67.94605,28.314,70.25649Z"/><path class="b" d="M21.00037,33.47358c3.9392.08246.26986,2.663,1.22842,3.73119C21.81252,35.95573,21.41429,34.71583,21.00037,33.47358Z"/><path class="b" d="M46.23974,51.26c-3.73118.40034-1.60135-2.1228-1.7569-3.5138C45.07316,48.92211,45.64942,50.091,46.23974,51.26Z"/><path class="b" d="M-8.34589,32.08282c.11221-1.16658.59945-2.91434.14875-3.19592-1.80047-1.13-4.4747-.75476-6.80576-.98128.64514-.52848,1.21015-1.27879,1.94454-1.45963,2.02676-.50552,4.03759,2.02933,4.74667,1.61986,4.5663-2.6309,9.75688-11.01506,13.55881-14.817.53082.64514-2.25773,6.10113-2.36994,6.24285C-1.348,24.74648-4.28535,27.00655-8.34589,32.08282Z"/><path class="b" d="M-13.96056,70.13655c1.18508.57415,2.35635,1.14831,3.53675,1.71567.56971-1.18275,1.75924-2.60794,1.39545-3.388C-11.39619,63.42-8.3078,58.2065-6.78422,53.53057a3.7229,3.7229,0,0,0,5.08306-1.9033C.45842,47.402,4.97412,40.887,5.4363,35.95924c-1.29026.24714-3.29641.26775-3.46811.86252-2.14811,7.49657-8.3338,19.05135-16.72709,20.934-.286.06629-.50107,1.44815-.26541,2.16872.64514,1.98787,3.44282,2.01551,4.10857,3.33763C-9.64609,65.76023-12.33391,68.01585-13.96056,70.13655Z"/><path class="b" d="M1.04485,68.04888A17.82221,17.82221,0,0,0-2.48956,69.7074c2.83212-1.98342.12814-4.93665,5.00294-7.52632,1.17361-.62218.69785-3.54121-1.48914-4.772.59032-.59008,1.16658-1.16658,1.7569-1.75689-.80747,4.30088.9356,8.2354,1.7569,12.29829A14.127,14.127,0,0,0,1.04485,68.04888Z"/><path class="b" d="M36.09328,20.34068c2.98532.31554,2.92816-2.22377,2.93964-3.83637.00914-1.718-1.05461-2.34721,2.76794-6.04162.75265-.72056.89672-3.23714,1.68381-4.95727.64724.53293,1.27644,1.04993,1.91923,1.58285-1.11176.69784-2.70164,1.18509-3.0837,2.1802-.56737,1.49149.74562,3.89586-.06419,4.87949-1.34742,1.62876-4.25708,2.49128-4.19993,6.021.00914.54441,1.54865,1.23756,1.45261,1.4847a13.83234,13.83234,0,0,0-.82129,7.26091C35.0799,26.88314,36.32425,23.397,36.09328,20.34068Z"/><path class="b" d="M53.25045,13.75442c-2.93051,3.65809-6.72564-.21036-8.84165,4.46322,3.07457-1.08881,1.23521.82129,6.91328,1.82554-.13728-1.3062-.684-3.28728-.21973-3.55714,5.6961-3.28516,2.73842-10.521,7.12364-14.96128-.81661-.17616-1.61494-.35232-2.42944-.53058.13961,1.31064-1.67,6.86971-2.17317,7.19672C49.60172,10.82859,55.783,10.59528,53.25045,13.75442Z"/><path class="b" d="M29.9029,11.34559c1.21015-3.429,4.27793-3.15469,7.0276-3.5138C35.21248,10.26123,32.48344,10.65712,29.9029,11.34559Z"/><path class="b" d="M55.314,29.75649C54.22963,30.8453,54.29592,31.184,53.57981,31.438c-1.9696.69994-3.59391-.6955-5.22947-1.64493,6.021,1.2652,8.41625-3.61663,7.0276-8.78449,1.17361.59266,3.12025,1.16892,3.12025,1.75689C58.49819,25.11265,56.70709,27.44605,55.314,29.75649Z"/><path class="b" d="M11.85749-3.26314c.32725.41861,2.44326-.70229,2.92605-.21973C15.86322-2.387,19.07272-.86111,19.41122.8637c1.03867-.803,2.74989-1.55334,2.75669-2.402.01148-2.27624-5.76263-2.71758-9.09793-3.87291a4.85117,4.85117,0,0,1-2.83891-4.534C10.67943-7.64625,10.56043-4.94227,11.85749-3.26314Z"/><path class="b" d="M-.74955,13.75442c-2.93051,3.65809-6.72564-.21036-8.84165,4.46322,3.07457-1.08881,1.23521.82129,6.91328,1.82554-.13728-1.3062-.684-3.28728-.21973-3.55714C2.79845,13.20088-.15923,5.965,4.226,1.52476,3.40938,1.3486,2.61105,1.17244,1.79655.99418,1.93616,2.30482.12656,7.86389-.37662,8.1909-4.39828,10.82859,1.783,10.59528-.74955,13.75442Z"/><path class="b" d="M13.03944,29.63655c1.18508.57415,2.35635,1.14831,3.53675,1.71567.56971-1.18275,1.75924-2.60794,1.39545-3.388C15.60381,22.92,18.6922,17.7065,20.21578,13.03057a3.7229,3.7229,0,0,0,5.08306-1.9033C27.45842,6.902,31.97412.387,32.4363-4.54076c-1.29026.24714-3.29641.26775-3.46811.86252-2.14811,7.49657-8.3338,19.05135-16.72709,20.934-.286.06629-.50107,1.44815-.26541,2.16872.64514,1.98787,3.44282,2.01551,4.10857,3.33763C17.35391,25.26023,14.66609,27.51585,13.03944,29.63655Z"/><path class="b" d="M6.04239,13.98328c.29047,1.1462-.70909,2.61029.56736,3.84316C8.68242,12.75252,8.76933,6.96716,14.30309,3.14439c-2.22142-1.57606-3.722.29071-5.43538,1.1462C11.53047,8.413,4.95569,9.72831,6.04239,13.98328Z"/><path class="b" d="M28.04485,27.54888a17.82221,17.82221,0,0,0-3.53441,1.65852c2.83212-1.98342.12814-4.93665,5.00294-7.52632,1.17361-.62218.69785-3.54121-1.48914-4.772.59032-.59008,1.16658-1.16658,1.7569-1.75689-.80747,4.30088.9356,8.2354,1.7569,12.29829A14.127,14.127,0,0,0,28.04485,27.54888Z"/><path class="b" d="M1.314,29.75649C.22963,30.8453.29592,31.184-.42019,31.438c-1.9696.69994-3.59391-.6955-5.22947-1.64493,6.021,1.2652,8.41625-3.61663,7.0276-8.78449,1.17361.59266,3.12025,1.16892,3.12025,1.75689C4.49819,25.11265,2.70709,27.44605,1.314,29.75649Z"/><path class="b" d="M19.23974,10.76c-3.73118.40034-1.60135-2.1228-1.7569-3.5138C18.07316,8.42211,18.64942,9.591,19.23974,10.76Z"/></pattern></defs><g class="c"><g class="d"><polygon class="e" points="69.244 71.044 -262.056 71.044 -365.557 -28.37 -34.257 -28.37 69.244 71.044"/><polygon class="f" points="69.244 71.044 -262.056 71.044 -365.557 -28.37 -34.257 -28.37 69.244 71.044"/><polygon class="g" points="69.244 71.044 -262.056 71.044 -365.557 -28.37 -34.257 -28.37 69.244 71.044"/><path class="h" d="M56.14327-11.0945,47.45882,9.1169H-16.83671l8.68457-20.2114H56.14327m.83887-.55255H-8.51616l-.14367.33441L-17.3444,8.89876l-.33118.77069H47.82283l.14368-.33441L56.651-10.87636l.33118-.77069Z"/><path class="i" d="M55.3044-10.54195,47.09481,8.56435H-15.99784l8.20971-19.1063H55.3044m.83887-.55255H-8.15214L-16.83671,9.1169H47.45882l8.68445-20.2114Z"/></g></g><path class="j" d="M0,3.03289H2.95094a0,0,0,0,1,0,0V7.66143a0,0,0,0,1,0,0H.36659A.36659.36659,0,0,1,0,7.29484V3.03289A0,0,0,0,1,0,3.03289Z"/><rect class="k" x="1.67614" y="2.05335" width="0.21445" height="3.6776"/><path class="l" d="M3.67655,2.369l-.72561.66389V7.66143l.54325-.497a.56119.56119,0,0,0,.18236-.414Z"/><path class="l" d="M.72571,6.96716v-4.529L.00008,3.033V7.302a.35955.35955,0,0,0,.35955.35955H2.951L3.602,6.96716Z"/><path class="m" d="M0,4.63282H2.95094a0,0,0,0,1,0,0V7.66143a0,0,0,0,1,0,0H.3727A.3727.3727,0,0,1,0,7.28873V4.63282A0,0,0,0,1,0,4.63282Z"/><path class="n" d="M3.67933,6.70951A.65058.65058,0,0,1,3.46739,7.19l-.51645.47147V4.63282L3.67933,4.15Z"/><polygon class="o" points="2.27 1.958 0.977 1.958 0 3.033 2.951 3.033 2.27 1.958"/><polygon class="p" points="2.544 1.948 2.285 1.982 2.951 3.033 3.681 2.376 2.544 1.948"/><ellipse class="k" cx="1.78337" cy="1.97314" rx="0.8068" ry="0.08021"/><rect class="k" x="0.97657" y="1.82066" width="1.6136" height="0.15248"/><ellipse class="q" cx="1.78337" cy="1.82066" rx="0.8068" ry="0.08021"/><ellipse class="k" cx="1.78337" cy="1.79692" rx="0.8068" ry="0.08021"/><polygon class="r" points="3.678 4.15 0.727 4.15 0 4.633 2.951 4.633 3.678 4.15"/><rect class="k" x="0.97657" y="0.9001" width="1.6136" height="0.89681"/><rect class="k" x="0.97657" y="0.71004" width="1.6136" height="0.19006"/><ellipse class="q" cx="1.78337" cy="0.92385" rx="0.8068" ry="0.08021"/><ellipse class="k" cx="1.78337" cy="0.9001" rx="0.8068" ry="0.08021"/><ellipse class="s" cx="1.78337" cy="0.71004" rx="0.8068" ry="0.08021"/><rect class="k" x="1.69382" y="0.28091" width="0.1791" height="0.42913"/><rect class="k" x="1.41701" y="0.1102" width="0.73271" height="0.17535"/><ellipse class="q" cx="1.78337" cy="0.29634" rx="0.36636" ry="0.03642"/><ellipse class="k" cx="1.78337" cy="0.28556" rx="0.36636" ry="0.03642"/><path class="s" d="M2.14973.1102A.56275.56275,0,0,0,1.78337,0,.56275.56275,0,0,0,1.417.1102a.95274.95274,0,0,0,.36636.03643A.95274.95274,0,0,0,2.14973.1102Z"/><polygon class="k" points="1.341 0.472 1.111 0.472 1.553 0.198 1.783 0.198 1.341 0.472"/><rect class="q" x="1.11128" y="0.47159" width="0.22975" height="0.06444"/><polygon class="t" points="1.782 0.198 1.341 0.472 1.341 0.536 1.782 0.263 1.782 0.198"/></svg>