<svg xmlns="http://www.w3.org/2000/svg" xmlns:xlink="http://www.w3.org/1999/xlink" viewBox="0 0 52.14319 17.09103"><defs><style>.a,.l,.m,.q{fill:none;}.b,.e{fill:#f6f6f6;}.b,.m,.p,.q,.s{stroke:#2d2a28;}.b,.l,.m,.p,.q,.s{stroke-miterlimit:10;}.b,.p,.q,.s{stroke-width:0.44673px;}.c{clip-path:url(#a);}.d,.s{fill:#fff;}.f{fill:#3c3c3b;}.g{fill:#dadada;}.h{fill:#ededed;}.i{fill:#878787;}.j{fill:#b2b2b2;}.k,.p{fill:#9d9d9c;}.l{stroke:#9d9d9c;stroke-width:0.10407px;}.m,.s{stroke-linecap:round;}.m{stroke-width:0.83761px;}.n{clip-path:url(#b);}.o{fill:#2d2a28;}.r{clip-path:url(#c);}</style><clipPath id="a"><rect class="a" x="-231.53799" y="-70.30953" width="192" height="173.63173"/></clipPath><clipPath id="b"><circle class="b" cx="38.35068" cy="8.2111" r="2.45937"/></clipPath><clipPath id="c"><ellipse class="b" cx="13.58595" cy="8.2111" rx="2.27387" ry="2.45937"/></clipPath></defs><path class="d" d="M1.57981,0H50.56338a1.57981,1.57981,0,0,1,1.57981,1.57981V15.50908A1.58195,1.58195,0,0,1,50.56124,17.091H1.57981A1.57981,1.57981,0,0,1,0,15.51122V1.57981A1.57981,1.57981,0,0,1,1.57981,0Z"/><path class="e" d="M52.14319,12.27445v3.23463A1.58075,1.58075,0,0,1,50.56338,17.091H1.582A1.58251,1.58251,0,0,1,0,15.50908V12.27445Z"/><path class="f" d="M49.15838,15.59242l-.16445.78056-.077.36629a.383.383,0,0,1-.37462.30389H3.32621a.3819.3819,0,0,1-.3539-.23721.34665.34665,0,0,1-.02073-.06668l-.075-.358-.0624-.29352-.10407-.49537a.38157.38157,0,0,1,.37462-.46H48.78365A.38165.38165,0,0,1,49.15838,15.59242Z"/><path class="g" d="M48.99393,16.08363v.28518l-.03537.17065-.04167.19565a.379.379,0,0,1-.37462.30388H3.32621a.383.383,0,0,1-.37463-.30388l-.13741-.65148Z"/><rect class="g" x="2.81417" y="15.90031" width="0.18749" height="0.18749"/><rect class="g" x="48.82035" y="15.91422" width="0.17358" height="0.17358"/><rect class="g" x="25.143" y="15.13242" width="0.24155" height="0.95509"/><polygon class="h" points="25.531 16.088 25.264 16.088 25.293 15.829 25.385 15.829 25.531 16.088"/><polygon class="h" points="24.054 15.132 24.163 15.434 24.231 15.434 24.339 15.132 24.054 15.132"/><rect class="h" x="2.90791" y="15.83617" width="0.25135" height="0.25135"/><rect class="h" x="48.41628" y="15.70054" width="0.49087" height="0.38697"/><path class="i" d="M3.424,16.527l-.15195.39343L2.97231,16.806a.34665.34665,0,0,1-.02073-.06668l-.075-.358.18945-.075Z"/><path class="i" d="M48.95856,16.53946l-.04167.19565a.38923.38923,0,0,1-.04573.1186l-.26436.03334-.19148-.408.52871-.06037Z"/><polygon class="j" points="48.957 16.527 2.93 16.527 2.552 16.088 49.335 16.088 48.957 16.527"/><rect class="k" x="3.27203" y="16.74684" width="45.34138" height="0.17354"/><line class="l" x1="3.67116" y1="15.13242" x2="3.67116" y2="16.08779"/><line class="l" x1="6.61706" y1="15.13242" x2="6.61706" y2="16.08779"/><line class="l" x1="9.56295" y1="15.13242" x2="9.56295" y2="16.08779"/><line class="l" x1="12.50885" y1="15.13242" x2="12.50885" y2="16.08779"/><line class="l" x1="15.45475" y1="15.13242" x2="15.45475" y2="16.08779"/><line class="l" x1="18.40064" y1="15.13242" x2="18.40064" y2="16.08779"/><line class="l" x1="21.34654" y1="15.13242" x2="21.34654" y2="16.08779"/><line class="l" x1="24.29244" y1="15.13242" x2="24.29244" y2="16.08779"/><line class="l" x1="27.23833" y1="15.13242" x2="27.23833" y2="16.08779"/><line class="l" x1="30.18423" y1="15.13242" x2="30.18423" y2="16.08779"/><line class="l" x1="33.13012" y1="15.13242" x2="33.13012" y2="16.08779"/><line class="l" x1="36.07602" y1="15.13242" x2="36.07602" y2="16.08779"/><line class="l" x1="39.02192" y1="15.13242" x2="39.02192" y2="16.08779"/><line class="l" x1="41.96781" y1="15.13242" x2="41.96781" y2="16.08779"/><line class="l" x1="44.91371" y1="15.13242" x2="44.91371" y2="16.08779"/><line class="l" x1="47.8596" y1="15.13242" x2="47.8596" y2="16.08779"/><path class="m" d="M37.88208,3.18338a22.86,22.86,0,0,0,3.97686,1.54269"/><path class="m" d="M14.22029,3.19845s-2.024,1.877-3.79493,1.44913"/><circle class="e" cx="38.35068" cy="8.2111" r="2.45937"/><g class="n"><circle class="o" cx="38.35068" cy="8.2111" r="0.66344"/><path class="p" d="M36.23393,9.4626s.30541.24187,1.93607.21514a8.419,8.419,0,0,0,2.83249-.52987v3.84944H36.23393Z"/></g><circle class="q" cx="38.35068" cy="8.2111" r="2.45937"/><ellipse class="e" cx="13.58595" cy="8.2111" rx="2.27387" ry="2.45937"/><g class="r"><circle class="o" cx="13.58595" cy="8.2111" r="0.66344"/><path class="p" d="M11.649,9.59949s.25423.24187,1.7619.21514a7.547,7.547,0,0,0,2.647-.52987v3.84945H11.649Z"/></g><ellipse class="q" cx="13.58595" cy="8.2111" rx="2.27387" ry="2.45937"/><path class="s" d="M25.55646,8.411a1.04375,1.04375,0,0,0-1.62269.7958c-.11057.88385.90449,1.2421,1.62269,1.109"/></svg>