<?xml version="1.0" encoding="utf-8"?>
<!-- Generator: Adobe Illustrator 25.0.0, SVG Export Plug-In . SVG Version: 6.00 Build 0)  -->
<svg version="1.1" id="Layer_1" xmlns="http://www.w3.org/2000/svg" xmlns:xlink="http://www.w3.org/1999/xlink" x="0px" y="0px"
	 viewBox="0 0 27.5 87.5" style="enable-background:new 0 0 27.5 87.5;" xml:space="preserve">
<style type="text/css">
	.st0{opacity:0.16;fill:#1D1D1B;enable-background:new    ;}
	.st1{fill:#637884;}
	.st2{fill:#5C6F7A;}
	.st3{fill:#6D8393;}
	.st4{fill:#88939E;}
	.st5{fill:#EDEDED;}
	.st6{fill:none;stroke:#F6F6F6;stroke-width:0.1829;stroke-miterlimit:10;}
	.st7{fill:none;stroke:#F6F6F6;stroke-width:0.1857;stroke-miterlimit:10;}
	.st8{fill:none;stroke:#F6F6F6;stroke-width:0.1885;stroke-miterlimit:10;}
	.st9{fill:none;stroke:#F6F6F6;stroke-width:0.1913;stroke-miterlimit:10;}
	.st10{fill:none;stroke:#F6F6F6;stroke-width:0.1942;stroke-miterlimit:10;}
	.st11{fill:none;stroke:#F6F6F6;stroke-width:0.197;stroke-miterlimit:10;}
	.st12{fill:none;stroke:#F6F6F6;stroke-width:0.1998;stroke-miterlimit:10;}
	.st13{fill:none;stroke:#F6F6F6;stroke-width:0.2026;stroke-miterlimit:10;}
	.st14{fill:none;stroke:#F6F6F6;stroke-width:0.2054;stroke-miterlimit:10;}
	.st15{fill:none;stroke:#F6F6F6;stroke-width:0.2082;stroke-miterlimit:10;}
	.st16{fill:none;stroke:#F6F6F6;stroke-width:0.2111;stroke-miterlimit:10;}
	.st17{fill:none;stroke:#F6F6F6;stroke-width:0.2139;stroke-miterlimit:10;}
	.st18{fill:none;stroke:#F6F6F6;stroke-width:0.2167;stroke-miterlimit:10;}
	.st19{fill:none;stroke:#F6F6F6;stroke-width:0.2195;stroke-miterlimit:10;}
	.st20{fill:none;stroke:#F6F6F6;stroke-width:0.2223;stroke-miterlimit:10;}
	.st21{fill:none;stroke:#F6F6F6;stroke-width:0.2251;stroke-miterlimit:10;}
	.st22{fill:#FFFFFF;}
	.st23{fill:#B2B2B2;}
</style>
<g>
	<path class="st0" d="M0.8,0L0.1,3.1C-0.1,3.9,0,4.7,0.4,5.4l0.4,0.7L1.9,0H0.8z"/>
	<path class="st1" d="M2.4,3v74.6c0,0.5,0.4,0.9,0.9,0.9l0,0l1.1,1.2v0.2c0,0.5,0.4,0.9,0.9,0.9h0.1l3,3.4v0.5
		c0,0.2,0.2,0.4,0.4,0.4h0.4l0.5,0.6v0.5c0,0.5,0.4,0.9,0.9,0.9h0.4l0-72.9L2.4,3z"/>
	<path class="st2" d="M9.3,13.3v73.6c0,0.1,0.1,0.3,0.3,0.3l0.6-0.2L9.8,14L9.3,13.3z"/>
	<path class="st3" d="M0.7,2.8v74.6c0,1.1,0.4,1.5,0.9,1.5l1.1,1.2v0.2c0,0.5,0.4,0.9,0.9,0.9c0,0,0,0,0,0h0.1l3,3.4v0.5
		c0,0.2,0.2,0.4,0.4,0.4h0.4l0.5,0.6v0.5c0,0.5,0.4,0.9,0.9,0.9h0.4l0-72.9L0.7,2.8z"/>
	<path class="st4" d="M5.2,83.7l0.8,0V10.1L4.3,8v74.8C4.3,83.3,4.7,83.7,5.2,83.7C5.2,83.7,5.2,83.7,5.2,83.7L5.2,83.7z"/>
	<path class="st2" d="M3.8,7.3v74.3c0,0.1,0.1,0.3,0.3,0.3h0.3V8L3.8,7.3z"/>
	<path class="st4" d="M7.6,12.2v73.6c0,0.1,0.1,0.3,0.3,0.3h0.3V12.9L7.6,12.2z"/>
	<path class="st2" d="M6.3,10.5v73.8c0,0.1,0.1,0.3,0.3,0.3h0.3V11.2L6.3,10.5z"/>
	<path class="st2" d="M2.2,5.3v74.5c0,0.1,0.1,0.3,0.3,0.3h0.3V6L2.2,5.3z"/>
	<path class="st4" d="M1.7,4.6v74.5c0,0.1,0.1,0.3,0.3,0.3h0.3V5.3L1.7,4.6z"/>
	<polygon class="st5" points="38.3,50.9 39.1,49 0.8,0 0.8,2.8 	"/>
	<circle class="st6" cx="1" cy="3.3" r="0.3"/>
	<circle class="st7" cx="1.7" cy="4.2" r="0.3"/>
	<circle class="st8" cx="2.3" cy="5" r="0.3"/>
	<circle class="st9" cx="3" cy="5.9" r="0.3"/>
	<circle class="st10" cx="3.6" cy="6.7" r="0.3"/>
	<circle class="st11" cx="4.3" cy="7.6" r="0.3"/>
	<circle class="st12" cx="4.9" cy="8.4" r="0.3"/>
	<circle class="st13" cx="5.6" cy="9.3" r="0.3"/>
	<circle class="st14" cx="6.2" cy="10.1" r="0.3"/>
	<circle class="st15" cx="6.9" cy="11" r="0.3"/>
	<circle class="st16" cx="7.6" cy="11.8" r="0.3"/>
	<circle class="st17" cx="8.2" cy="12.6" r="0.3"/>
	<circle class="st18" cx="8.9" cy="13.5" r="0.3"/>
	<circle class="st19" cx="9.5" cy="14.3" r="0.3"/>
	<circle class="st20" cx="10.2" cy="15.2" r="0.3"/>
	<circle class="st21" cx="10.8" cy="16" r="0.3"/>
	<polygon class="st22" points="0.8,0 2.5,0 39.1,46.5 39.1,49 	"/>
	<polygon class="st23" points="0.8,2.2 38.5,50.5 38.3,50.9 0.8,2.8 	"/>
</g>
</svg>
