<svg xmlns="http://www.w3.org/2000/svg" xmlns:xlink="http://www.w3.org/1999/xlink" viewBox="0 0 172.32903 150.94505"><defs><style>.a,.j,.t,.u{fill:#f6f6f6;}.a,.aw,.ax,.az,.ba{stroke:#2d2a28;}.a,.ab,.ap,.ar,.as,.at,.aw,.ax,.az,.ba,.i,.p,.t,.u,.y{stroke-miterlimit:10;}.a,.aw,.ax,.ba{stroke-width:1.6518px;}.b{fill:#1d1d1b;opacity:0.32;}.c{fill:#2d2e83;}.aq,.d{fill:#1d71b8;}.as,.d,.f{stroke:#368ccc;}.ac,.ad,.af,.ag,.ah,.al,.am,.ar,.as,.at,.au,.az,.ba,.d,.f,.q,.r,.v,.w,.x{stroke-linecap:round;}.ac,.ad,.af,.ag,.ah,.al,.am,.au,.d,.f,.q,.r,.v,.w,.x{stroke-linejoin:round;}.d{stroke-width:1.72328px;}.e,.i{fill:#368ccc;}.ac,.ad,.af,.ag,.ah,.al,.am,.ap,.ar,.as,.at,.au,.ax,.az,.ba,.f,.r,.v,.x{fill:none;}.ac,.f{stroke-width:0.45686px;}.g{fill:#1a6699;}.h{fill:#175672;}.ab,.ag,.ar,.i,.y{stroke:#1a6699;}.ab,.af,.ag,.ar,.at,.i,.q,.y{stroke-width:0.91372px;}.k{fill:#c6c6c6;}.l{fill:#dadada;}.m,.p,.q{fill:#fff;}.n{fill:#a6e2ce;}.o{fill:#2d2a28;}.p{fill-opacity:0.75;stroke-opacity:0.66;}.ac,.ah,.p,.q,.v,.w,.x{stroke:#3c3c3b;}.p,.t,.u{stroke-width:0.68529px;}.ad,.af,.al,.am,.r,.u{stroke:#fff;}.ap,.r{stroke-width:1.82744px;}.s{fill:#3c3c3b;}.t{stroke:#c6c6c6;}.v,.w{stroke-width:0.85124px;}.w{fill:#878787;}.x{stroke-width:0.56749px;}.y{fill:#cc3232;}.z{fill:#1a6189;}.aa{fill:#154d60;}.ab{fill:#42d39c;}.ad{stroke-width:0.48635px;}.ae{fill:#f9b233;}.ah{stroke-width:1.70248px;stroke-dasharray:1.13498 3.40495;}.ai{fill:#1d6d99;}.aj{fill:#4298d3;}.ak{fill:#ededed;}.al{stroke-width:1.25094px;}.am{stroke-width:1.32052px;}.an{fill:#2485bc;}.ao{fill:#5ba9d8;}.ap,.at,.au{stroke:#5ba9d8;}.as{stroke-width:2.65236px;}.au{stroke-width:1.37058px;}.av{clip-path:url(#a);}.aw{fill:#395dba;}.ay{clip-path:url(#b);}.az{stroke-width:3.09713px;}</style><clipPath id="a"><circle class="a" cx="38.88342" cy="28.19213" r="9.09371"/></clipPath><clipPath id="b"><path class="a" d="M20.4209,28.19213c0-5.02232-3.76432-9.09371-8.40783-9.09371s-8.40782,4.07139-8.40782,9.09371,3.76431,9.09371,8.40782,9.09371a8.14654,8.14654,0,0,0,6.39742-3.19269,11.92754,11.92754,0,0,1,2.00961-5.77481C20.44249,28.2828,20.4209,28.23427,20.4209,28.19213Z"/></clipPath></defs><path class="b" d="M169.16134,14.80623c-47.71523-9.45728-82.46568-8.2443-130.19116,1.322a4.06843,4.06843,0,0,0-3.144,4.06022V20.998a40.782,40.782,0,0,0-19.15828,4.9011h-.00045V129.73386a19.67658,19.67658,0,0,0,17.88585,19.811v.06469c.17757-.00591.348-.01768.52378-.02521q.48252.02443.97128.02521h0a18.96085,18.96085,0,0,0,4.42941-.52774,43.33448,43.33448,0,0,0,18.74246-7.12809c34.27262,12.666,76.12316,11.9534,109.54139-2.158a6.05694,6.05694,0,0,0,3.56745-5.62695V18.86968A4.07045,4.07045,0,0,0,169.16134,14.80623Z"/><path class="c" d="M51.85208,132.75488s-9.08489,8.82271-26.87792,9.41443V128.15688H55.61951Z"/><path class="d" d="M29.39076,8.68809a4.06826,4.06826,0,0,0-3.144,4.0602l0,4.92079h0a1.33108,1.33108,0,0,1,1.28673,1.21409q6.41368,54.18654,12.6591,108.39574a6.00865,6.00865,0,0,0,3.52275,4.88769c35.27886,15.05935,80.09828,15.124,115.467.18886a6.05669,6.05669,0,0,0,3.5674-5.62693V11.42954a4.07021,4.07021,0,0,0-3.16778-4.06347C111.86691-2.09121,77.11634-.87825,29.39076,8.68809Z"/><path class="e" d="M26.469,142.16931h0A19.63283,19.63283,0,0,1,7.08834,122.29367V18.45891l0,0a40.71962,40.71962,0,0,1,38.76132,0l0,0V122.29367A19.63284,19.63284,0,0,1,26.469,142.16931Z"/><polyline class="f" points="159.106 117.694 159.106 23.379 150.214 22.003"/><polygon class="g" points="150.037 22.15 158.875 23.593 158.875 117.547 148.225 117.547 153.55 116.566 153.55 25.546 150.037 22.15"/><polygon class="h" points="148.225 117.547 153.55 115.693 158.875 117.547 148.225 117.547"/><polygon class="h" points="158.875 23.593 153.55 25.546 150.037 22.15 158.875 23.593"/><line class="f" x1="148.22464" y1="117.69358" x2="158.99138" y2="117.69358"/><path class="i" d="M138.16,32.52492V63.39958h-2.3664V43.43477l-.978-.57565-.41133-2.129a26.14261,26.14261,0,0,0-26.14147-26.14158H84.19552a24.70014,24.70014,0,0,0-24.625,24.62483l-.59931,3.48128-1.26976.74011V63.39958H55.33461V31.38277c0-6.14025,3.03888-12.02462,7.37906-16.3648L74.44617,3.27666V2.221l43.2644.681h0l13.25834,13.25806A23.55274,23.55274,0,0,1,138.16,32.52492Z"/><path class="j" d="M76.493,129.33873a17.28491,17.28491,0,0,1-17.26563-17.26562V39.21373A24.99567,24.99567,0,0,1,84.19517,14.246h24.06738a26.51439,26.51439,0,0,1,26.48437,26.48437v71.34278a17.28469,17.28469,0,0,1-17.26465,17.26562Z"/><path class="k" d="M108.26279,14.58855a26.1426,26.1426,0,0,1,26.14148,26.14157V112.0736a16.9199,16.9199,0,0,1-16.92212,16.92212H76.49265A16.92021,16.92021,0,0,1,59.57053,112.0736V39.21337a24.70017,24.70017,0,0,1,24.625-24.62482h24.06726m0-.6853H84.19553a25.33887,25.33887,0,0,0-25.3103,25.31012V112.0736A17.62739,17.62739,0,0,0,76.49265,129.681h40.9895a17.62739,17.62739,0,0,0,17.60742-17.60742V40.73012a26.85719,26.85719,0,0,0-26.82678-26.82687Z"/><path class="j" d="M97.72056,113.63463a17.89854,17.89854,0,0,1-5.56543-.88574l-10.18067-3.98828a43.88163,43.88163,0,0,0-5.15137-1.6582l-8.17871-2.082V43.92174a20.21011,20.21011,0,0,1,2.72754-10.12891,37.7414,37.7414,0,0,1,4.52539-6.36523,13.47687,13.47687,0,0,1,10.00391-4.36328h22.74707a13.64473,13.64473,0,0,1,9.12988,3.50684c4.70313,4.22753,7.25879,8.708,8.03614,14.09667v64.42774l-5.82911,1.15723a43.6894,43.6894,0,0,0-10.50293,3.51562l-6.1123,2.95215A17.88376,17.88376,0,0,1,97.72056,113.63463Z"/><path class="l" d="M85.90122,22.1498v1.82745l22.74695,0a12.72986,12.72986,0,0,1,8.51892,3.27335c4.51709,4.05948,6.97717,8.347,7.73376,13.48257v63.61219l-5.09387,1.011a44.64181,44.64181,0,0,0-10.72168,3.58875l-6.05859,2.927a17.01062,17.01062,0,0,1-10.53943.02338l-10.17944-3.98615a44.76908,44.76908,0,0,0-5.25977-1.69226L69.55784,104.31V43.922a19.29546,19.29546,0,0,1,2.60449-9.67121,36.88891,36.88891,0,0,1,4.41223-6.21075,12.56423,12.56423,0,0,1,9.32666-4.06281V22.1498m0,0A14.38411,14.38411,0,0,0,75.21946,26.814a39.17624,39.17624,0,0,0-4.63782,6.51978A21.09079,21.09079,0,0,0,67.73044,43.922v61.80844l8.8667,2.25763a42.7707,42.7707,0,0,1,5.04431,1.62292l10.2295,4.0058a18.83962,18.83962,0,0,0,11.84411-.04761l6.16516-2.97851a42.78557,42.78557,0,0,1,10.2826-3.44178l6.56543-1.30316V40.60207c-.95667-6.75855-4.59974-11.34961-8.3396-14.71063a14.57135,14.57135,0,0,0-9.74048-3.74161l-22.74695,0Z"/><path class="m" d="M85.90122,22.1498l22.74695,0a14.57135,14.57135,0,0,1,9.74048,3.74161c3.73986,3.361,7.38293,7.95208,8.3396,14.71063v65.24368l-6.56543,1.30316a42.78557,42.78557,0,0,0-10.2826,3.44178l-6.16516,2.97851a18.83962,18.83962,0,0,1-11.84411.04761l-10.2295-4.0058a42.7707,42.7707,0,0,0-5.04431-1.62292l-8.8667-2.25763V43.922a21.09079,21.09079,0,0,1,2.8512-10.58826A39.17624,39.17624,0,0,1,75.21946,26.814,14.38411,14.38411,0,0,1,85.90122,22.1498m0-2.74115a17.14,17.14,0,0,0-12.71436,5.56619,41.406,41.406,0,0,0-4.97619,6.98334A23.86969,23.86969,0,0,0,64.98923,43.922v63.93911l2.06482.52576,8.8667,2.25763a40.16105,40.16105,0,0,1,4.72107,1.51892l10.22961,4.0058.07337.02875.075.02447a21.57982,21.57982,0,0,0,13.56738-.0545l.16431-.05518.156-.07538,6.16516-2.97851a40.06865,40.06865,0,0,1,9.6239-3.22126l6.56543-1.30316,2.20752-.43817V40.40905l-.0271-.19117c-.88159-6.22787-3.898-11.581-9.22144-16.36523a17.29145,17.29145,0,0,0-11.57275-4.444l-22.74695,0Z"/><path class="k" d="M85.90122,22.1498l22.74695,0a14.57135,14.57135,0,0,1,9.74048,3.74161c3.73986,3.361,7.38293,7.95208,8.3396,14.71063v65.24368l-6.56543,1.30316a42.78557,42.78557,0,0,0-10.2826,3.44178l-6.16516,2.97851a18.83962,18.83962,0,0,1-11.84411.04761l-10.2295-4.0058a42.7707,42.7707,0,0,0-5.04431-1.62292l-8.8667-2.25763V43.922a21.09079,21.09079,0,0,1,2.8512-10.58826A39.17624,39.17624,0,0,1,75.21946,26.814,14.38411,14.38411,0,0,1,85.90122,22.1498m0-.6853a15.08094,15.08094,0,0,0-11.18994,4.88971,39.37178,39.37178,0,0,0-4.72241,6.63565A21.81153,21.81153,0,0,0,67.04514,43.922v62.34109l.51624.13147,8.8667,2.25763a42.2364,42.2364,0,0,1,4.9635,1.59692l10.22949,4.0058a19.51362,19.51362,0,0,0,12.312-.03607l.04114-.01379.03894-.0188,6.16516-2.97852a42.126,42.126,0,0,1,10.11792-3.38666l6.56543-1.30316.55188-.10956V40.55379l-.00672-.04776c-.811-5.7294-3.61108-10.67657-8.56005-15.1243a15.23936,15.23936,0,0,0-10.19861-3.9172l-22.74695,0Z"/><path class="n" d="M109.79193,10.812H83.89374a6.8572,6.8572,0,0,1-6.8572-6.8572V2.00855S80.818.74441,96.39366.74441c4.8702,0,19.60451,1.07559,19.60451,1.07559V4.60576A6.20624,6.20624,0,0,1,109.79193,10.812Z"/><path class="o" d="M90.71177,6.87975a.13322.13322,0,0,1-.042-.09668V3.19127a.14566.14566,0,0,1,.03907-.10254.12988.12988,0,0,1,.09961-.042h1.5664a1.76822,1.76822,0,0,1,1.12989.32715,1.15176,1.15176,0,0,1,.40918.957,1.11528,1.11528,0,0,1-.40918.94434,1.8273,1.8273,0,0,1-1.12989.3125H91.744V6.78307a.1342.1342,0,0,1-.03906.09668.12706.12706,0,0,1-.09961.042h-.79687A.12956.12956,0,0,1,90.71177,6.87975Zm1.63574-2.084a.51094.51094,0,0,0,.35742-.11816.45771.45771,0,0,0,.12988-.35156.50165.50165,0,0,0-.11914-.34863.469.469,0,0,0-.36816-.13379h-.62012v.95214Z"/><path class="o" d="M94.84165,6.59557a1.42524,1.42524,0,0,1-.44629-1.14649V3.19127a.14566.14566,0,0,1,.03906-.10254.12847.12847,0,0,1,.09961-.042h.75879a.14177.14177,0,0,1,.14356.14453V5.43834a.72329.72329,0,0,0,.16308.51465.61637.61637,0,0,0,.46778.17188.60915.60915,0,0,0,.46777-.17481.72069.72069,0,0,0,.16308-.51172V3.19127a.13994.13994,0,0,1,.042-.10254.13624.13624,0,0,1,.10254-.042h.75293a.14177.14177,0,0,1,.14355.14453V5.44908a1.43275,1.43275,0,0,1-.44238,1.14649,2.16405,2.16405,0,0,1-2.45508,0Z"/><path class="o" d="M98.49985,6.87975a.13325.13325,0,0,1-.042-.09668V3.18541a.13038.13038,0,0,1,.042-.09961.13836.13836,0,0,1,.09668-.03906h.77539a.13857.13857,0,0,1,.09961.03906.13472.13472,0,0,1,.03809.09961V6.0526h1.66113a.14174.14174,0,0,1,.14356.14356v.58691a.12964.12964,0,0,1-.041.09961.14467.14467,0,0,1-.10254.03906H98.59653A.12958.12958,0,0,1,98.49985,6.87975Z"/><path class="o" d="M101.74888,6.87975a.13322.13322,0,0,1-.042-.09668V3.18541a.13036.13036,0,0,1,.042-.09961.13834.13834,0,0,1,.09668-.03906h.77539a.13859.13859,0,0,1,.09961.03906.13472.13472,0,0,1,.03808.09961V6.0526h1.66113a.14174.14174,0,0,1,.14356.14356v.58691a.1296.1296,0,0,1-.041.09961.14467.14467,0,0,1-.10254.03906h-2.57421A.12956.12956,0,0,1,101.74888,6.87975Z"/><polygon class="o" points="108.171 4.17 111.381 4.17 109.74 5.971 108.171 4.17"/><polygon class="o" points="83.065 4.17 86.275 4.17 84.634 5.971 83.065 4.17"/><path class="p" d="M92.159,106.7484h11.29063a3.98936,3.98936,0,0,1,3.98936,3.98936v2.73631a8.178,8.178,0,0,1-8.178,8.178H96.34759a8.178,8.178,0,0,1-8.178-8.178v-2.73631A3.98936,3.98936,0,0,1,92.159,106.7484Z"/><line class="q" x1="93.62948" y1="110.15297" x2="101.97912" y2="110.15297"/><line class="q" x1="93.62948" y1="112.08297" x2="101.97912" y2="112.08297"/><line class="q" x1="93.62948" y1="114.01297" x2="101.97912" y2="114.01297"/><line class="q" x1="93.62948" y1="115.94297" x2="101.97912" y2="115.94297"/><path class="r" d="M67.17267,121.652s2.50629,2.26706,4.41584,2.50576,49.70809.179,49.88711,0,3.69976-1.55045,4.77388-2.50576"/><path class="r" d="M67.17267,121.652s2.50629,2.26706,4.41584,2.50576,49.70809.179,49.88711,0,3.69976-1.55045,4.77388-2.50576"/><path class="k" d="M66.4927,121.97369a3.92986,3.92986,0,0,0,1.34912,1.25293,8.37749,8.37749,0,0,0,1.71424.78515,16.91316,16.91316,0,0,0,3.73511.71631c2.53625.15869,5.16174.04,7.75085.05616l15.57776-.0835,15.57788.02246,3.89441.0083a30.55809,30.55809,0,0,0,3.82983-.10742,17.58977,17.58977,0,0,0,7.08045-2.63086l.00427-.00244a.038.038,0,0,1,.0531.01172.03849.03849,0,0,1-.00391.04638,11.47483,11.47483,0,0,1-7.01513,3.48536,31.30412,31.30412,0,0,1-3.94861.13281l-3.89441.0083-15.57788.023-15.57776-.084-3.89453-.0205a35.26156,35.26156,0,0,1-3.92517-.15821,14.55532,14.55532,0,0,1-3.85962-.90478,7.46137,7.46137,0,0,1-1.7583-.9541,4.18871,4.18871,0,0,1-1.33936-1.5083.1223.1223,0,0,1,.21546-.11524Z"/><rect class="s" x="77.51872" y="122.98363" width="3.20924" height="3.20924" rx="0.90926"/><rect class="s" x="115.53975" y="122.98363" width="3.20924" height="3.20924" rx="0.90926"/><line class="t" x1="77.85125" y1="122.98363" x2="77.51872" y2="108.59027"/><line class="u" x1="78.26919" y1="109.10606" x2="78.6011" y2="122.98363"/><line class="t" x1="118.41645" y1="122.98363" x2="118.74899" y2="108.59027"/><line class="u" x1="117.99851" y1="109.10606" x2="117.6666" y2="122.98363"/><path class="v" d="M104.06161,49.7434c-.02318,0-.04477.00755-.06742.009-.43564-4.26776-3.17482-6.9329-6.49766-6.9329-3.35286,0-6.11364,2.7243-6.51082,7.04859-.15277-.07752.15972-.1247-.01411-.1247a1.89353,1.89353,0,0,0,0,3.6452c.2402,0-.01487-.08819.18162-.23062.73852,3.754,3.29439,7.15451,6.34331,7.15451,2.99624,0,5.5184-3.30391,6.30539-6.95846.08428.0212-.13847.03457-.04945.03457a1.648,1.648,0,0,0,1.3796-1.8226C105.13207,50.55938,104.82384,49.7434,104.06161,49.7434Z"/><polyline class="v" points="97.075 54.48 95.88 54.48 96.496 50.37 93.242 50.37"/><path class="v" d="M93.8497,58.97907v3.28076l-8.4,2.97313c-1.72042.79058-2.85962,3.452-2.97608,6.13121l.64222,5.00333.04221,7.16787A45.56909,45.56909,0,0,0,81.424,92.81425h6.09864"/><path class="v" d="M86.49389,71.19023l.10154,4.41682.73166,2.02438s.25451,4.78534.31981,7.36136c.07867,3.101,1.29928,6.4769-.30436,7.82144l19.87537,0a21.93077,21.93077,0,0,1-.68-2.94455c-.032-.73613,1.21306-6.44119.95686-7.86746a16.15732,16.15732,0,0,1,.03872-3.77064c.43029-.08106,1.75627-3.7165.94355-7.04137"/><path class="v" d="M87.32709,77.63143l2.919.44092a6.91856,6.91856,0,0,0,1.47935.064l3.53847-.22855"/><path class="v" d="M108.11839,77.19889l-1.93278.77074a8.42139,8.42139,0,0,1-4.35419.3377l-2.51159-.39957"/><ellipse class="s" cx="90.36662" cy="75.58053" rx="0.49523" ry="0.5172" transform="translate(-26.85538 87.30854) rotate(-45.62173)"/><ellipse class="s" cx="103.54704" cy="76.08663" rx="0.49523" ry="0.5172" transform="translate(-23.25497 96.88122) rotate(-45.62173)"/><path class="v" d="M100.7857,59.26075v3.29163l7.94973,1.718c2.18947.71153,3.721,3.4142,4.114,5.68258l.25033,3.3317a17.91041,17.91041,0,0,1,2.46439,6.67214l.62125,3.88824h0a9.0292,9.0292,0,0,1,1.51571,4.56007l.32936,2.94638L114.21737,92.355l-2.18664-2.87759-1.1038-4.93965-1.13872-3.19258-1.01467-5.2585"/><path class="v" d="M95.2639,83.845s-3.35524,2.72566-3.96841,4.02924"/><path class="v" d="M99.31983,83.845s2.9762,2.60715,3.68724,4.02924"/><line class="v" x1="97.27328" y1="88.81333" x2="97.27328" y2="90.12591"/><path class="v" d="M113.23637,84.81245a10.74412,10.74412,0,0,0,1.41949-.54948"/><path class="v" d="M84.366,84.53771a8.31013,8.31013,0,0,0,2.12785.64822"/><path class="v" d="M89.265,66.09928s5.11017,0,5.77584.57755"/><path class="v" d="M99.31983,66.67683s4.91117-.385,6.542-.57755"/><line class="v" x1="98.44175" y1="50.37037" x2="100.65712" y2="50.37037"/><line class="v" x1="96.16854" y1="56.66299" x2="98.44175" y2="56.66299"/><path class="w" d="M105.47291,83.214a4.85544,4.85544,0,0,0-.99519,4.16736c.19319.73414,1.2265,1.362,1.98159,1.73239a.774.774,0,0,0,1.07964-.45722l1.24435-3.85789a.77129.77129,0,0,0-.302-.87884C107.70956,83.39844,106.19657,82.53556,105.47291,83.214Z"/><path class="w" d="M87.68476,67.0389a1.09971,1.09971,0,0,1,.55167-1.38531,14.31581,14.31581,0,0,1,2.13019-.88095c.72888-.15583,1.39894.66332,1.39894.66332l1.08976,2.92453a1.26742,1.26742,0,0,1-.69571,1.61061l-1.68509.70971a1.26743,1.26743,0,0,1-1.67646-.71718Z"/><circle class="m" cx="105.84263" cy="85.28893" r="0.58105"/><path class="s" d="M105.84226,84.81243a.47666.47666,0,1,1-.47668.47668.47666.47666,0,0,1,.47668-.47668m0-.20862a.68527.68527,0,1,0,.6853.6853.686.686,0,0,0-.6853-.6853Z"/><path class="m" d="M90.94712,69.97643a.58155.58155,0,1,1,.582-.582A.582.582,0,0,1,90.94712,69.97643Z"/><path class="s" d="M90.94761,68.9182a.47664.47664,0,1,1-.47669.47662.47659.47659,0,0,1,.47669-.47662m0-.20865a.68529.68529,0,1,0,.68518.68527.68605.68605,0,0,0-.68518-.68527Z"/><path class="x" d="M105.36564,85.28909l-1.10789-.564a5.594,5.594,0,0,1-3.05577-4.382,13.4186,13.4186,0,0,1,1.38887-8.00771c2.7887-4.80986,5.7494-17.18932,5.7494-17.18932l-1.19467,3.34155S99.8737,69.65519,95.66639,70.95374s-3.89565-.73614-3.89565-.73614"/><circle class="y" cx="152.35221" cy="103.02464" r="5.32516"/><path class="e" d="M153.21933,64.30925a3.81276,3.81276,0,1,1-3.81274,3.81278,3.81279,3.81279,0,0,1,3.81274-3.81278m0-.21383a4.0266,4.0266,0,1,0,4.02674,4.02661,4.03122,4.03122,0,0,0-4.02674-4.02661Z"/><circle class="h" cx="153.21939" cy="68.12202" r="3.81276"/><path class="z" d="M153.21933,65.2076a2.65418,2.65418,0,1,1-2.65417,2.65417,2.65411,2.65411,0,0,1,2.65417-2.65417m0-1.37058a4.02475,4.02475,0,1,0,4.02479,4.02475,4.02935,4.02935,0,0,0-4.02479-4.02475Z"/><circle class="aa" cx="153.21939" cy="67.86177" r="2.65418"/><circle class="ab" cx="152.35221" cy="35.4301" r="5.32516"/><path class="n" d="M149.68751,32.45245a3.69371,3.69371,0,0,1,3.48269-1.38764,4.01844,4.01844,0,0,1,3.42827,4.65106,3.19,3.19,0,0,1-2.476,2.47757A5.30963,5.30963,0,0,0,149.68751,32.45245Z"/><path class="ac" d="M151.48533,33.90487a1.91469,1.91469,0,1,0,1.83825.05744"/><line class="ac" x1="152.4322" y1="32.92256" x2="152.42642" y2="35.00412"/><path class="g" d="M151.06342,66.93237c.03046-.01581.074-.1701.09046-.20172a2.34082,2.34082,0,0,1,.32454-.46879,2.269,2.269,0,0,1,3.591,2.7617,1.37907,1.37907,0,0,1-.14926.19293c-.02578.02738-.174.12518-.178.152,0-.00028.34657-2.34156-1.19235-2.63488A4.08326,4.08326,0,0,0,151.06342,66.93237Z"/><line class="ad" x1="153.21939" y1="67.63629" x2="153.21939" y2="69.09046"/><line class="ad" x1="153.21939" y1="66.83407" x2="153.21939" y2="66.63308"/><path class="ae" d="M149.58991,100.18162a3.85688,3.85688,0,0,1,3.06038-1.15206,4.28739,4.28739,0,0,1,3.6633,3.6212,3.74277,3.74277,0,0,1-1.13688,2.98959c.10406-.0907.07508-.6251.08131-.74736a4.63932,4.63932,0,0,0-2.79208-4.82638,3.28522,3.28522,0,0,0-3.2232.55465A2.91946,2.91946,0,0,1,149.58991,100.18162Z"/><polyline class="af" points="152.94 100.418 151.485 103.551 153.219 103.215 152.443 106.012"/><line class="ag" x1="122.6765" y1="129.49548" x2="122.11474" y2="140.28643"/><line class="ag" x1="72.12784" y1="129.49548" x2="72.12784" y2="139.32942"/><path class="aa" d="M155.63572,86.436l.873,1.46936-1.66858-.18365.79554-1.28571m0-.6853a.68528.68528,0,0,0-.58277.32471l-.79553,1.2857a.68537.68537,0,0,0,.50781,1.04181l1.66858.1836a.67787.67787,0,0,0,.07508.00415.68525.68525,0,0,0,.589-1.03534l-.873-1.46936a.68507.68507,0,0,0-.583-.33521l-.0061-.00006Z"/><path class="ah" d="M85.74976,95.852h23.55665"/><path class="ai" d="M153.56127,63.86473l1.32589,1.93543s-2.73836-2.101-4.322,1.37517a31.78622,31.78622,0,0,1,1.36836-3.11748A2.7561,2.7561,0,0,1,153.56127,63.86473Z"/><path class="e" d="M48.09421,51.71318a5.49792,5.49792,0,0,1,5.49792-5.49792V57.2111A5.49793,5.49793,0,0,1,48.09421,51.71318Z"/><rect class="aa" x="53.59213" y="46.21526" width="0.87959" height="10.99583"/><rect class="aj" x="52.56059" y="49.66246" width="1.03154" height="3.79591"/><path class="ak" d="M58.659,60.5692V42.85631h.3125a8.85645,8.85645,0,1,1,0,17.71289Z"/><path class="k" d="M58.97117,43.16915a8.54395,8.54395,0,1,1,0,17.08789V43.16915m0-.62549h-.62549V60.88253h.62549a9.16944,9.16944,0,1,0,0-18.33887Z"/><path class="al" d="M60.91149,59.011s5.55009-1.40823,5.46725-8.0352"/><rect class="k" x="58.97121" y="43.16915" width="0.8638" height="17.08789"/><path class="ak" d="M134.81333,61.06237a9.34913,9.34913,0,0,1,0-18.69825h.33008V61.06237Z"/><path class="k" d="M134.8137,42.694V60.73223a9.01914,9.01914,0,1,1,0-18.03827m.66027-.66025h-.66027a9.67938,9.67938,0,1,0,0,19.35876h.66027V42.03371Z"/><path class="am" d="M132.76622,44.1898a2.812,2.812,0,0,1,.9569,2.20086"/><rect class="k" x="133.90378" y="42.69395" width="0.91184" height="18.03828"/><path class="an" d="M12.91193,18.203V126.21582a1.04489,1.04489,0,0,1-1.62027.87221l-4.20332-2.77281V18.4589Z"/><path class="ao" d="M7.08834,18.4589s11.49441-.51021,18.37517-.78982c9.2111-.3743,20.38619,1.67507,20.38619,1.67507S44.37983,14.00835,26.469,13.551C11.16653,13.16021,7.08834,18.4589,7.08834,18.4589Z"/><path class="an" d="M17.07557,126.65307V18.02248s17.66841-.34243,23.22127.48962v105.69a3.95479,3.95479,0,0,1-3.95479,3.95479H18.57939A1.50381,1.50381,0,0,1,17.07557,126.65307Z"/><line class="ap" x1="12.91193" y1="18.20299" x2="12.91193" y2="127.26246"/><rect class="aq" x="14.67336" y="62.11303" width="22.9447" height="21.17061" rx="1.4711"/><path class="g" d="M36.14695,62.99071a.5941.5941,0,0,1,.59338.59342V81.81255a.59407.59407,0,0,1-.59338.59338H16.14451a.5941.5941,0,0,1-.59351-.59338V63.58413a.59413.59413,0,0,1,.59351-.59342H36.14695m0-.87768H16.14451a1.47116,1.47116,0,0,0-1.4712,1.4711V81.81255a1.47115,1.47115,0,0,0,1.4712,1.47107H36.14695A1.471,1.471,0,0,0,37.618,81.81255V63.58413a1.47105,1.47105,0,0,0-1.47107-1.4711Z"/><line class="ar" x1="17.07557" y1="29.73976" x2="35.9863" y2="29.73976"/><line class="as" x1="15.92771" y1="28.20656" x2="36.36371" y2="28.20656"/><line class="at" x1="17.07557" y1="27.27841" x2="36.36371" y2="27.27841"/><line class="ar" x1="17.07557" y1="41.89616" x2="35.9863" y2="41.89616"/><line class="as" x1="15.92771" y1="40.36296" x2="36.36371" y2="40.36296"/><line class="at" x1="17.07557" y1="39.43482" x2="36.36371" y2="39.43482"/><line class="ar" x1="17.07557" y1="54.79163" x2="35.9863" y2="54.79163"/><line class="as" x1="15.92771" y1="53.25843" x2="36.36371" y2="53.25843"/><line class="at" x1="17.07557" y1="52.33028" x2="36.36371" y2="52.33028"/><line class="ar" x1="17.07557" y1="92.11992" x2="35.9863" y2="92.11992"/><line class="as" x1="15.92771" y1="90.58672" x2="36.36371" y2="90.58672"/><line class="at" x1="17.07557" y1="89.65858" x2="36.36371" y2="89.65858"/><line class="ar" x1="17.07557" y1="104.27633" x2="35.9863" y2="104.27633"/><line class="as" x1="15.92771" y1="102.74312" x2="36.36371" y2="102.74312"/><line class="at" x1="17.07557" y1="101.81498" x2="36.36371" y2="101.81498"/><line class="ar" x1="17.07557" y1="117.17179" x2="35.9863" y2="117.17179"/><line class="as" x1="15.92771" y1="115.63859" x2="36.36371" y2="115.63859"/><line class="at" x1="17.07557" y1="114.71045" x2="36.36371" y2="114.71045"/><path class="m" d="M16.84165,71.87584a.11113.11113,0,0,1-.03223-.082V68.829a.12126.12126,0,0,1,.03223-.085.109.109,0,0,1,.082-.03418h.626a.11678.11678,0,0,1,.11914.11914v1.083h1.07812V68.829a.11675.11675,0,0,1,.11817-.11914h.62207a.11675.11675,0,0,1,.11816.11914v2.96484a.10557.10557,0,0,1-.03418.082.11724.11724,0,0,1-.084.03223h-.62207a.11725.11725,0,0,1-.084-.03223.1056.1056,0,0,1-.03418-.082V70.67467H17.6688v1.11914a.109.109,0,0,1-.03418.082.12125.12125,0,0,1-.085.03223h-.626A.1111.1111,0,0,1,16.84165,71.87584Z"/><path class="m" d="M21.12876,71.87389a.111.111,0,0,1-.03418-.08008V68.829a.12121.12121,0,0,1,.03223-.085.109.109,0,0,1,.082-.03418h2.15625a.11678.11678,0,0,1,.11914.11914v.45215a.109.109,0,0,1-.03418.082.12128.12128,0,0,1-.085.03222H21.92173v.58008H23.2645a.11678.11678,0,0,1,.11914.11914v.415a.11557.11557,0,0,1-.03418.085.11716.11716,0,0,1-.085.03418H21.92173v.59375H23.4022a.11675.11675,0,0,1,.11816.11914v.45215a.10557.10557,0,0,1-.03418.082.11724.11724,0,0,1-.084.03223H21.20884A.11259.11259,0,0,1,21.12876,71.87389Z"/><path class="m" d="M24.65122,71.87877a.095.095,0,0,1-.03027-.0664.13675.13675,0,0,1,.00488-.041l1.06445-2.92871a.17827.17827,0,0,1,.18262-.13281h.71289a.17754.17754,0,0,1,.18262.13281l1.06445,2.92871a.13675.13675,0,0,1,.00488.041.10037.10037,0,0,1-.0957.0957h-.59375a.15987.15987,0,0,1-.15625-.10059l-.16406-.44336H25.63071l-.16406.44336a.15774.15774,0,0,1-.15527.10059h-.59375A.09213.09213,0,0,1,24.65122,71.87877Zm1.17187-1.19922h.81348l-.40723-1.165Z"/><path class="m" d="M29.08677,71.87389a.111.111,0,0,1-.03418-.08008V68.829a.12125.12125,0,0,1,.03222-.085.109.109,0,0,1,.082-.03418h1.25684a1.46834,1.46834,0,0,1,.94336.27441.93618.93618,0,0,1,.33984.77246.963.963,0,0,1-.14843.543.97915.97915,0,0,1-.40918.34766l.61718,1.11425a.12021.12021,0,0,1,.01368.05079.09557.09557,0,0,1-.02735.0664.09011.09011,0,0,1-.06836.0293h-.64453a.19192.19192,0,0,1-.1875-.123l-.502-.99121H29.912v1a.109.109,0,0,1-.03418.082.12125.12125,0,0,1-.085.03223h-.626A.11257.11257,0,0,1,29.08677,71.87389Zm1.332-1.752a.416.416,0,0,0,.29883-.09864.35546.35546,0,0,0,.10351-.27148.37971.37971,0,0,0-.10351-.2793.40163.40163,0,0,0-.29883-.10449H29.912v.75391Z"/><path class="m" d="M33.83481,71.87584a.1056.1056,0,0,1-.03418-.082V69.45494H32.996a.11728.11728,0,0,1-.084-.03222.10558.10558,0,0,1-.03418-.082V68.829a.11675.11675,0,0,1,.11817-.11914h2.48047a.11558.11558,0,0,1,.085.03418.11875.11875,0,0,1,.03418.085v.51172a.109.109,0,0,1-.03418.082.118.118,0,0,1-.085.03222H34.6727v2.33887a.109.109,0,0,1-.03418.082.118.118,0,0,1-.085.03223H33.9188A.11725.11725,0,0,1,33.83481,71.87584Z"/><path class="m" d="M17.26645,77.30748a1.10061,1.10061,0,0,1-.4707-.33789.79125.79125,0,0,1-.16894-.457.08866.08866,0,0,1,.02929-.06836.102.102,0,0,1,.07129-.02734h.60742a.1916.1916,0,0,1,.08887.01758.321.321,0,0,1,.07617.06445.4572.4572,0,0,0,.18457.18066.68719.68719,0,0,0,.33594.07032.781.781,0,0,0,.37891-.0752.23134.23134,0,0,0,.13281-.208.20328.20328,0,0,0-.06836-.15722.601.601,0,0,0-.21973-.11036c-.10058-.03125-.24511-.06738-.43359-.10742a1.87624,1.87624,0,0,1-.82715-.333.7792.7792,0,0,1-.27441-.63965.84752.84752,0,0,1,.1582-.50489,1.02038,1.02038,0,0,1,.44727-.34472,1.7139,1.7139,0,0,1,.67382-.124,1.62094,1.62094,0,0,1,.69727.13965,1.19536,1.19536,0,0,1,.45215.34766.73634.73634,0,0,1,.166.4082.10035.10035,0,0,1-.02734.07129.08867.08867,0,0,1-.06836.0293h-.63965a.17734.17734,0,0,1-.15527-.082.28347.28347,0,0,0-.1416-.16211.56.56,0,0,0-.28321-.06641.54944.54944,0,0,0-.29687.06836.22561.22561,0,0,0-.10547.20117.22929.22929,0,0,0,.1377.208,2.037,2.037,0,0,0,.51171.15332,2.8973,2.8973,0,0,1,.68262.19434.86214.86214,0,0,1,.375.30078.931.931,0,0,1-.05762,1.00781,1.114,1.114,0,0,1-.49316.34961,2.01787,2.01787,0,0,1-.72168.12109A1.9847,1.9847,0,0,1,17.26645,77.30748Z"/><path class="m" d="M21.64341,77.35729a.10558.10558,0,0,1-.03418-.082V74.93639h-.80469a.11724.11724,0,0,1-.084-.03223.10557.10557,0,0,1-.03418-.082v-.51172a.11675.11675,0,0,1,.11816-.11914H23.285a.11557.11557,0,0,1,.085.03418.11878.11878,0,0,1,.03418.085v.51172a.109.109,0,0,1-.03418.082.118.118,0,0,1-.085.03223H22.4813v2.33887a.109.109,0,0,1-.03418.082.118.118,0,0,1-.085.03222h-.63477A.11728.11728,0,0,1,21.64341,77.35729Z"/><path class="m" d="M24.6063,77.36022a.095.095,0,0,1-.03028-.06641.1366.1366,0,0,1,.00489-.041l1.06445-2.92872a.17827.17827,0,0,1,.18262-.13281h.71289a.17755.17755,0,0,1,.18262.13281l1.06445,2.92872a.13667.13667,0,0,1,.00488.041.10037.10037,0,0,1-.0957.0957h-.59375a.15987.15987,0,0,1-.15625-.10058l-.16406-.44336H25.58579l-.16406.44336a.15776.15776,0,0,1-.15528.10058H24.6727A.09211.09211,0,0,1,24.6063,77.36022ZM25.77817,76.161h.81348l-.40723-1.165Z"/><path class="m" d="M28.9022,77.35533a.11093.11093,0,0,1-.03418-.08007V74.31041a.12128.12128,0,0,1,.03222-.085.109.109,0,0,1,.082-.03418h1.25684a1.46834,1.46834,0,0,1,.94336.27442.93616.93616,0,0,1,.33984.77246.963.963,0,0,1-.14843.543.97912.97912,0,0,1-.40918.34765l.61718,1.11426a.12017.12017,0,0,1,.01368.05078.09558.09558,0,0,1-.02735.06641.0901.0901,0,0,1-.06836.02929h-.64453a.19191.19191,0,0,1-.1875-.123l-.50195-.99121h-.43848v1a.109.109,0,0,1-.03418.082.12128.12128,0,0,1-.085.03222h-.626A.11253.11253,0,0,1,28.9022,77.35533Zm1.332-1.75195a.416.416,0,0,0,.29883-.09863.35547.35547,0,0,0,.10351-.27149.37969.37969,0,0,0-.10351-.27929.40159.40159,0,0,0-.29883-.10449h-.50684v.7539Z"/><path class="m" d="M33.83384,77.35729a.10558.10558,0,0,1-.03418-.082V74.93639H32.995a.11724.11724,0,0,1-.084-.03223.10557.10557,0,0,1-.03418-.082v-.51172a.11675.11675,0,0,1,.11816-.11914h2.48047a.11557.11557,0,0,1,.085.03418.11878.11878,0,0,1,.03418.085v.51172a.109.109,0,0,1-.03418.082.118.118,0,0,1-.085.03223h-.80371v2.33887a.109.109,0,0,1-.03418.082.118.118,0,0,1-.085.03222h-.63477A.11728.11728,0,0,1,33.83384,77.35729Z"/><path class="ao" d="M7.08834,124.31522s3.95224,3.84166,8.83937,3.84166h20.436c-2.45907.32522-4.90748.8011-7.3241,1.355-3.79867.87062-8.07644,1.87168-11.2871,4.19595a7.62676,7.62676,0,0,0-.98508.825c-.58065.59261-.65773,1.36867-1.63675,1.49168-3.36278.42244-5.34961-3.338-6.36406-5.89657a32.40446,32.40446,0,0,1-1.27094-3.99853C7.40917,125.78737,7.34925,124.55983,7.08834,124.31522Z"/><path class="e" d="M146.22934,51.71318a5.80369,5.80369,0,0,0-5.8037-5.80369V57.51688A5.80369,5.80369,0,0,0,146.22934,51.71318Z"/><rect class="aa" x="139.56536" y="45.90949" width="0.92851" height="11.6074"/><rect class="aj" x="140.49387" y="49.54841" width="1.08891" height="4.00703"/><path class="au" d="M43.71533,132.1666s61.93353,20.01356,118.02118-1.98041"/><circle class="j" cx="38.88342" cy="28.19213" r="9.09371"/><g class="av"><circle class="o" cx="38.88342" cy="28.19213" r="2.45314"/><path class="aw" d="M31.05655,32.81963s1.12926.89435,7.15878.7955A31.13,31.13,0,0,0,48.68869,31.6559V45.88953H31.05655Z"/></g><circle class="ax" cx="38.88342" cy="28.19213" r="9.09371"/><path class="j" d="M20.4209,28.19213c0-5.02232-3.76432-9.09371-8.40783-9.09371s-8.40782,4.07139-8.40782,9.09371,3.76431,9.09371,8.40782,9.09371a8.14654,8.14654,0,0,0,6.39742-3.19269,11.92754,11.92754,0,0,1,2.00961-5.77481C20.44249,28.2828,20.4209,28.23427,20.4209,28.19213Z"/><g class="ay"><circle class="o" cx="12.01307" cy="28.19213" r="2.45314"/><path class="aw" d="M4.85115,33.32581s.94.89435,6.51478.7955a27.90581,27.90581,0,0,0,9.78747-1.95923V46.39571H4.85115Z"/></g><path class="ax" d="M20.4209,28.19213c0-5.02232-3.76432-9.09371-8.40783-9.09371s-8.40782,4.07139-8.40782,9.09371,3.76431,9.09371,8.40782,9.09371a8.14654,8.14654,0,0,0,6.39742-3.19269,11.92754,11.92754,0,0,1,2.00961-5.77481C20.44249,28.2828,20.4209,28.23427,20.4209,28.19213Z"/><path class="az" d="M36.933,9.44618s8.76659,2.65948,14.5803,6.01527"/><path class="az" d="M14.951,11.33264s-10.16937.87109-13.40242,6.78128"/><path class="ba" d="M27.57975,37.28628s-8.87432.11341-9.16011-3.31322,5.94978-11.71285,5.94978-11.71285"/><path class="ba" d="M23.63082,40.28921s6.81442.89431,9.17769-1.5128"/></svg>