<svg xmlns="http://www.w3.org/2000/svg" xmlns:xlink="http://www.w3.org/1999/xlink" viewBox="0 0 48.40789 25.54974"><defs><style>.a,.q{fill:#f6f6f6;}.a,.p,.s,.u,.v{stroke:#2d2a28;}.a,.i,.l,.m,.p,.u{stroke-miterlimit:10;}.a,.s,.u,.v{stroke-width:0.57823px;}.b,.s{fill:#662483;}.c{fill:#ffed00;}.d{fill:#dadada;}.e{fill:#9f6cba;}.f{fill:#fff;}.g{fill:#fcea10;}.h{fill:#1ac179;}.i,.l,.m,.n,.o,.p,.u,.v{fill:none;}.i{stroke:#17995e;}.i,.n,.o{stroke-width:0.22495px;}.j{fill:#c6c6c6;}.k{fill:#ededed;}.l,.m{stroke:#c6c6c6;}.l{stroke-width:0.11248px;}.m{stroke-width:0.05624px;}.n{stroke:#fcea10;}.n,.o,.p,.s,.v{stroke-linecap:round;}.n,.o,.s,.v{stroke-linejoin:round;}.o{stroke:#be1622;}.p{stroke-width:1.08418px;}.r{clip-path:url(#a);}.t{fill:#2d2a28;}.w{clip-path:url(#b);}</style><clipPath id="a"><circle class="a" cx="14.35967" cy="8.07508" r="3.18333"/></clipPath><clipPath id="b"><ellipse class="a" cx="4.95347" cy="8.07508" rx="2.94323" ry="3.18333"/></clipPath></defs><rect class="b" x="0.41624" y="7.6326" width="44.62526" height="17.8149"/><rect class="c" x="0.41624" y="17.47326" width="44.62526" height="7.97424"/><path class="b" d="M25.3371,19.798a.02971.02971,0,0,1-.00976-.02442v-.70312a.03242.03242,0,0,1,.00976-.02442.03576.03576,0,0,1,.02442-.00878h.30664a.40809.40809,0,0,1,.27343.07714.32.32,0,0,1,.08985.25293v.40528a.03349.03349,0,0,1-.03516.03515h-.63476A.03242.03242,0,0,1,25.3371,19.798Zm.47656-.17383v-.25a.135.135,0,0,0-.15234-.15332h-.12891v.40332Z"/><path class="b" d="M26.18866,19.47862a.0324.0324,0,0,1-.00976-.02441v-.38379a.03242.03242,0,0,1,.00976-.02442.03831.03831,0,0,1,.0254-.00878H26.383a.03046.03046,0,0,1,.0332.0332v.38379a.035.035,0,0,1-.00879.02344.03238.03238,0,0,1-.02441.00976h-.16894A.03827.03827,0,0,1,26.18866,19.47862Z"/><path class="b" d="M26.90644,19.81554a.03539.03539,0,0,1-.01074-.02637v-.13672a.04215.04215,0,0,1,.00879-.02539.06269.06269,0,0,1,.02441-.01758l.042-.01758a.22636.22636,0,0,0,.09863-.07226.22319.22319,0,0,0,.03614-.13672.1784.1784,0,0,0-.03028-.11914.14715.14715,0,0,0-.11132-.03418h-.35938a.03339.03339,0,0,1-.03418-.03418v-.126a.02944.02944,0,0,1,.01074-.02344.035.035,0,0,1,.02344-.00878h.40625a.33149.33149,0,0,1,.25293.084.37159.37159,0,0,1,.07715.25488.39543.39543,0,0,1-.10156.28028.53137.53137,0,0,1-.25391.15234l-.05469.0166A.02288.02288,0,0,1,26.90644,19.81554Zm-.32617.24023a.02968.02968,0,0,1-.00977-.02441V19.38a.031.031,0,0,1,.00977-.02441.03649.03649,0,0,1,.02441-.00977h.1543a.03651.03651,0,0,1,.02441.00977.03465.03465,0,0,1,.00977.02441v.65137a.033.033,0,0,1-.00977.02441.03237.03237,0,0,1-.02441.00977h-.1543A.03236.03236,0,0,1,26.58027,20.05577Z"/><path class="b" d="M27.89472,19.046a.03328.03328,0,0,1,.01074.02442v.11621a.035.035,0,0,1-.03515.03418h-.0625a.18565.18565,0,0,0-.02442.06836.48363.48363,0,0,0-.00879.0957v.39356a.02656.02656,0,0,1-.01269.0205.04217.04217,0,0,1-.02539.00879h-.15821a.03217.03217,0,0,1-.02148-.00781.028.028,0,0,1-.00781-.02148v-.40821a.29555.29555,0,0,1,.02636-.14941H27.4748a.02973.02973,0,0,1-.02344-.01074.03118.03118,0,0,1-.01074-.02344v-.11621a.03328.03328,0,0,1,.01074-.02442.03171.03171,0,0,1,.02344-.00878h.39551A.03575.03575,0,0,1,27.89472,19.046Z"/><path class="b" d="M28.04316,19.798a.02968.02968,0,0,1-.00977-.02442v-.70312a.03239.03239,0,0,1,.00977-.02442.03573.03573,0,0,1,.02441-.00878h.31934a.42333.42333,0,0,1,.28222.0791.32758.32758,0,0,1,.0918.25976v.39746a.03653.03653,0,0,1-.00977.02442.03238.03238,0,0,1-.02441.00976h-.15918a.03462.03462,0,0,1-.02539-.00976.02968.02968,0,0,1-.00977-.02442v-.39941a.135.135,0,0,0-.15234-.15332h-.11914v.55273a.03239.03239,0,0,1-.00977.02442.02894.02894,0,0,1-.02343.00976h-.16016A.0324.0324,0,0,1,28.04316,19.798Z"/><path class="b" d="M29.78827,19.046a.03239.03239,0,0,1,.00977.02442v.11621a.035.035,0,0,1-.03418.03418h-.06152a.20437.20437,0,0,0-.02539.06836.48363.48363,0,0,0-.00879.0957v.39356a.02422.02422,0,0,1-.0127.0205.04726.04726,0,0,1-.02637.00879h-.15722a.033.033,0,0,1-.02246-.00781.03213.03213,0,0,1-.00782-.02148v-.40821a.283.283,0,0,1,.02735-.14941h-.30762a.03329.03329,0,0,1-.02441-.01074.03411.03411,0,0,1-.00977-.02344v-.11621a.03653.03653,0,0,1,.00977-.02442.03573.03573,0,0,1,.02441-.00878h.60254A.03252.03252,0,0,1,29.78827,19.046Z"/><path class="b" d="M30.61152,19.046a.03572.03572,0,0,1,.00879.02442v.39941a.29268.29268,0,0,1-.09278.22266.49775.49775,0,0,1-.26172.11816l-.3457.07227a.02918.02918,0,0,1-.02637-.00684.02784.02784,0,0,1-.01172-.02343v-.11817a.035.035,0,0,1,.00879-.02344.04008.04008,0,0,1,.02246-.01269l.15039-.03613-.16015-.57129-.00586-.02735a.0244.0244,0,0,1,.00781-.01855.02669.02669,0,0,1,.01856-.00781h.17578a.03609.03609,0,0,1,.02051.00586.03193.03193,0,0,1,.01074.01464l.13476.55176a.1886.1886,0,0,0,.09961-.07617.26088.26088,0,0,0,.02735-.13086v-.332a.03046.03046,0,0,1,.0332-.0332h.16113A.03576.03576,0,0,1,30.61152,19.046Z"/><path class="b" d="M31.06562,19.798a.02968.02968,0,0,1-.00977-.02442v-.70312a.03239.03239,0,0,1,.00977-.02442.03573.03573,0,0,1,.02441-.00878h.30664a.4081.4081,0,0,1,.27344.07714.32.32,0,0,1,.08984.25293v.40528a.03347.03347,0,0,1-.03515.03515H31.09A.0324.0324,0,0,1,31.06562,19.798Zm.47656-.17383v-.25a.135.135,0,0,0-.15234-.15332h-.12891v.40332Z"/><path class="b" d="M31.9162,19.47862a.0324.0324,0,0,1-.00976-.02441v-.38379a.03242.03242,0,0,1,.00976-.02442.03831.03831,0,0,1,.02539-.00878h.16895a.03046.03046,0,0,1,.0332.0332v.38379a.035.035,0,0,1-.00879.02344.03238.03238,0,0,1-.02441.00976h-.16895A.03826.03826,0,0,1,31.9162,19.47862Z"/><path class="b" d="M32.30292,19.47862a.0324.0324,0,0,1-.00976-.02441v-.38379a.03242.03242,0,0,1,.00976-.02442.03831.03831,0,0,1,.02539-.00878h.16895a.03046.03046,0,0,1,.0332.0332v.38379a.035.035,0,0,1-.00879.02344.0324.0324,0,0,1-.02441.00976h-.16895A.03826.03826,0,0,1,32.30292,19.47862Z"/><path class="b" d="M33.14765,19.798a.03241.03241,0,0,1-.02441.00976h-.4336a.031.031,0,0,1-.02441-.00976.03031.03031,0,0,1-.01074-.02442v-.11523a.03029.03029,0,0,1,.01074-.02441.031.031,0,0,1,.02441-.00977h.22461l-.01269-.26563a.233.233,0,0,0-.02735-.11328.09091.09091,0,0,0-.083-.03515h-.06933a.03285.03285,0,0,1-.02344-.01074.03174.03174,0,0,1-.00977-.02344v-.11328a.034.034,0,0,1,.00879-.02442.03331.03331,0,0,1,.02442-.01074h.07324a.35053.35053,0,0,1,.25684.08008.36335.36335,0,0,1,.08691.25488l.01758.41113A.02848.02848,0,0,1,33.14765,19.798Z"/><path class="b" d="M33.29316,19.798a.02968.02968,0,0,1-.00977-.02442v-.70312a.03239.03239,0,0,1,.00977-.02442.03573.03573,0,0,1,.02441-.00878h.16895a.03407.03407,0,0,1,.02441.00878.03239.03239,0,0,1,.00977.02442v.70312a.03239.03239,0,0,1-.00977.02442.031.031,0,0,1-.02441.00976h-.16895A.0324.0324,0,0,1,33.29316,19.798Z"/><path class="b" d="M34.14374,19.798a.0324.0324,0,0,1-.02441.00976h-.43359a.031.031,0,0,1-.02442-.00976.03034.03034,0,0,1-.01074-.02442v-.11523a.03032.03032,0,0,1,.01074-.02441.031.031,0,0,1,.02442-.00977h.2246l-.01269-.26563a.23312.23312,0,0,0-.02734-.11328.09091.09091,0,0,0-.083-.03515H33.718a.03285.03285,0,0,1-.02344-.01074.03177.03177,0,0,1-.00976-.02344v-.11328a.034.034,0,0,1,.00879-.02442.03329.03329,0,0,1,.02441-.01074h.07324a.35051.35051,0,0,1,.25684.08008.36331.36331,0,0,1,.08691.25488l.01758.41113A.02846.02846,0,0,1,34.14374,19.798Z"/><path class="b" d="M34.28339,19.47862a.0324.0324,0,0,1-.00976-.02441v-.38379a.03242.03242,0,0,1,.00976-.02442.03831.03831,0,0,1,.02539-.00878h.169a.03046.03046,0,0,1,.0332.0332v.38379a.035.035,0,0,1-.00879.02344.0324.0324,0,0,1-.02441.00976h-.169A.03826.03826,0,0,1,34.28339,19.47862Z"/><path class="b" d="M34.65058,19.798a.03328.03328,0,0,1-.01074-.02442v-.11523a.03029.03029,0,0,1,.01074-.02441.03172.03172,0,0,1,.02344-.00977h.33886v-.25a.13465.13465,0,0,0-.15234-.15234h-.17285a.031.031,0,0,1-.02442-.00977.0346.0346,0,0,1-.00976-.02539v-.11621a.03653.03653,0,0,1,.00976-.02442.03576.03576,0,0,1,.02442-.00878h.17871a.44417.44417,0,0,1,.28613.0791.31718.31718,0,0,1,.09668.25781v.25h.04688a.03239.03239,0,0,1,.02441.00977.033.033,0,0,1,.00977.02441v.11523a.03653.03653,0,0,1-.00977.02442.03241.03241,0,0,1-.02441.00976H34.674A.03175.03175,0,0,1,34.65058,19.798Z"/><path class="b" d="M35.72968,19.798a.02968.02968,0,0,1-.00977-.02442v-.70312a.03239.03239,0,0,1,.00977-.02442.03575.03575,0,0,1,.02441-.00878h.30665a.40809.40809,0,0,1,.27343.07714.32.32,0,0,1,.08985.25293v.40528a.03349.03349,0,0,1-.03516.03515h-.63477A.03241.03241,0,0,1,35.72968,19.798Zm.47656-.17383v-.25a.135.135,0,0,0-.15234-.15332H35.925v.40332Z"/><path class="b" d="M36.58124,19.47862a.0324.0324,0,0,1-.00976-.02441v-.38379a.03242.03242,0,0,1,.00976-.02442.03831.03831,0,0,1,.02539-.00878h.16895a.03046.03046,0,0,1,.0332.0332v.38379a.035.035,0,0,1-.00879.02344.0324.0324,0,0,1-.02441.00976h-.16895A.03826.03826,0,0,1,36.58124,19.47862Z"/><path class="b" d="M36.94745,19.798a.03331.03331,0,0,1-.01074-.02442v-.11523a.03032.03032,0,0,1,.01074-.02441.03174.03174,0,0,1,.02344-.00977h.33887v-.25a.13465.13465,0,0,0-.15235-.15234h-.17285a.031.031,0,0,1-.02441-.00977.03457.03457,0,0,1-.00977-.02539v-.11621a.03653.03653,0,0,1,.00977-.02442.03575.03575,0,0,1,.02441-.00878h.17871a.44422.44422,0,0,1,.28614.0791.31722.31722,0,0,1,.09668.25781v.25H37.593a.03239.03239,0,0,1,.02442.00977.033.033,0,0,1,.00976.02441v.11523a.03653.03653,0,0,1-.00976.02442.03242.03242,0,0,1-.02442.00976h-.62207A.03177.03177,0,0,1,36.94745,19.798Z"/><path class="b" d="M38.46308,19.7794a.0276.0276,0,0,1-.00879.01953.02458.02458,0,0,1-.01953.00879h-.166a.04623.04623,0,0,1-.03711-.01269l-.01172-.01465-.23632-.34082a.14646.14646,0,0,0-.0459.07422.36905.36905,0,0,0-.01074.08887v.16894a.0397.0397,0,0,1-.00977.02637.0346.0346,0,0,1-.02539.00976H37.76a.03327.03327,0,0,1-.02441-.01074.03455.03455,0,0,1-.00977-.02539v-.168a.47043.47043,0,0,1,.03125-.18554.34608.34608,0,0,1,.11719-.13575l-.13769-.19824a.02574.02574,0,0,1-.00684-.01855.026.026,0,0,1,.00879-.01954.02765.02765,0,0,1,.01953-.00878h.15918a.04985.04985,0,0,1,.0293.00781.10483.10483,0,0,1,.01953.02148l.2168.30762a.118.118,0,0,0,.04882-.05859.30239.30239,0,0,0,.00977-.07715v-.165a.03538.03538,0,0,1,.00976-.02637.029.029,0,0,1,.02344-.00976h.14258a.03324.03324,0,0,1,.02441.01074.03543.03543,0,0,1,.01075.02539v.16992a.34762.34762,0,0,1-.03516.15723.31739.31739,0,0,1-.125.12793l.165.23242A.03.03,0,0,1,38.46308,19.7794Z"/><path class="b" d="M38.60663,19.798a.03034.03034,0,0,1-.01074-.02442v-.124a.03681.03681,0,0,1,.03516-.03516h.19629a.14275.14275,0,0,0,.16113-.15234c.001-.01074.002-.02441.002-.04s-.001-.02832-.002-.03906a.14345.14345,0,0,0-.16113-.15332h-.19629a.03239.03239,0,0,1-.02442-.00977.03329.03329,0,0,1-.01074-.02441v-.125a.03331.03331,0,0,1,.01074-.02442.03576.03576,0,0,1,.02442-.00878h.20312a.32727.32727,0,0,1,.373.34668.3744.3744,0,0,1,.002.03808.41472.41472,0,0,1-.08886.28418.36154.36154,0,0,1-.28614.10156h-.20312A.03242.03242,0,0,1,38.60663,19.798Z"/><path class="b" d="M39.80976,19.22081h-.21485a.03283.03283,0,0,1-.02343-.01074.03028.03028,0,0,1-.00977-.02344v-.11621a.03239.03239,0,0,1,.00977-.02442.035.035,0,0,1,.02343-.00878h.22266a.4356.4356,0,0,1,.28125.07617.31313.31313,0,0,1,.0918.25293v.57519a.03653.03653,0,0,1-.00977.02442.034.034,0,0,1-.02441.00879h-.15918a.03822.03822,0,0,1-.02539-.00879.03653.03653,0,0,1-.00977-.02442v-.56738A.135.135,0,0,0,39.80976,19.22081Z"/><path class="b" d="M40.35273,19.798a.02968.02968,0,0,1-.00977-.02442v-.70312a.03239.03239,0,0,1,.00977-.02442.03573.03573,0,0,1,.02441-.00878h.169a.03407.03407,0,0,1,.02441.00878.03239.03239,0,0,1,.00977.02442v.70312a.03239.03239,0,0,1-.00977.02442.031.031,0,0,1-.02441.00976h-.169A.0324.0324,0,0,1,40.35273,19.798Z"/><path class="b" d="M40.7414,19.798a.03031.03031,0,0,1-.01074-.02442v-.124a.03681.03681,0,0,1,.03515-.03516h.19629a.14276.14276,0,0,0,.16114-.15234c.001-.01074.002-.02441.002-.04s-.001-.02832-.002-.03906a.14347.14347,0,0,0-.16114-.15332h-.19629a.03239.03239,0,0,1-.02441-.00977.03326.03326,0,0,1-.01074-.02441v-.125a.03328.03328,0,0,1,.01074-.02442.03575.03575,0,0,1,.02441-.00878h.20313a.32727.32727,0,0,1,.373.34668.37734.37734,0,0,1,.002.03808.41472.41472,0,0,1-.08887.28418.36151.36151,0,0,1-.28613.10156h-.20313A.03241.03241,0,0,1,40.7414,19.798Z"/><path class="b" d="M41.48066,19.47862a.03237.03237,0,0,1-.00977-.02441v-.38379a.03239.03239,0,0,1,.00977-.02442.03827.03827,0,0,1,.02539-.00878H41.675a.03046.03046,0,0,1,.03321.0332v.38379a.035.035,0,0,1-.00879.02344.03242.03242,0,0,1-.02442.00976h-.16894A.03822.03822,0,0,1,41.48066,19.47862Z"/><path class="b" d="M42.73163,19.046a.03572.03572,0,0,1,.00879.02442v.35351a.39405.39405,0,0,1-.05371.209.36671.36671,0,0,1-.14746.13867.42687.42687,0,0,1-.20605.04688h-.12989a.39747.39747,0,0,1-.18847-.042.29163.29163,0,0,1-.124-.11328.30445.30445,0,0,1-.042-.1582v-.43457a.03239.03239,0,0,1,.00977-.02442.03827.03827,0,0,1,.02539-.00878h.1416a.03046.03046,0,0,1,.0332.0332l.002.32422a.12878.12878,0,0,0,.10253-.05567.28073.28073,0,0,0,.0293-.1416v-.124a.0361.0361,0,0,1,.01074-.02637.031.031,0,0,1,.02442-.00976h.14062a.03281.03281,0,0,1,.02344.01074.03455.03455,0,0,1,.00977.02539v.12695a.35378.35378,0,0,1-.07911.24317.33379.33379,0,0,1-.22558.10351.17834.17834,0,0,0,.06836.06641.19018.19018,0,0,0,.09375.02246h.03125a.2607.2607,0,0,0,.124-.02832.20993.20993,0,0,0,.11719-.18945v-.34766a.03184.03184,0,0,1,.03418-.0332h.1416A.03571.03571,0,0,1,42.73163,19.046Z"/><path class="b" d="M43.3957,19.1212a.37152.37152,0,0,1,.07617.25488.39481.39481,0,0,1-.10059.28028.53129.53129,0,0,1-.2539.15234l-.05567.0166a.02347.02347,0,0,1-.02441-.00976.03647.03647,0,0,1-.01172-.02637v-.13672a.04215.04215,0,0,1,.00879-.02539.0745.0745,0,0,1,.02441-.01758l.044-.01758a.22337.22337,0,0,0,.09765-.07226.2301.2301,0,0,0,.03516-.13672.18474.18474,0,0,0-.0293-.11914.14315.14315,0,0,0-.11035-.03418h-.03515l-.18067-.001a.0297.0297,0,0,1-.02441-.00976.029.029,0,0,1-.00977-.02344v-.3125a.03239.03239,0,0,1,.00977-.02442.03573.03573,0,0,1,.02441-.00878h.14551a.03046.03046,0,0,1,.0332.0332v.1543h.084A.33151.33151,0,0,1,43.3957,19.1212Z"/><path class="b" d="M26.83417,21.82237a.03329.03329,0,0,1-.01074-.02441v-.11524a.03033.03033,0,0,1,.01074-.02441.03174.03174,0,0,1,.02344-.00977h.33887v-.25a.13465.13465,0,0,0-.15235-.15234h-.17285a.031.031,0,0,1-.02441-.00977.03455.03455,0,0,1-.00977-.02539v-.11621a.03651.03651,0,0,1,.00977-.02441.03569.03569,0,0,1,.02441-.00879H27.05a.44428.44428,0,0,1,.28614.0791.31722.31722,0,0,1,.09668.25781v.25h.04687a.03236.03236,0,0,1,.02441.00977.033.033,0,0,1,.00977.02441V21.798a.03651.03651,0,0,1-.00977.02441.03236.03236,0,0,1-.02441.00977h-.62207A.03174.03174,0,0,1,26.83417,21.82237Z"/><path class="b" d="M27.62031,21.503a.03239.03239,0,0,1-.00977-.02442v-.38379a.03237.03237,0,0,1,.00977-.02441.03822.03822,0,0,1,.02539-.00879h.16894a.03046.03046,0,0,1,.0332.0332v.38379a.035.035,0,0,1-.00878.02344.03239.03239,0,0,1-.02442.00977H27.6457A.03822.03822,0,0,1,27.62031,21.503Z"/><path class="b" d="M28.53339,21.82237a.03455.03455,0,0,1-.02539.00977h-.16894a.02829.02829,0,0,1-.02247-.00977.03033.03033,0,0,1-.01074-.02441l-.02051-.09961a.2973.2973,0,0,1-.07812.0664.8728.8728,0,0,1-.09863.05079.48764.48764,0,0,1-.09082.02734l-.00977.001c-.01465,0-.02246-.00684-.02246-.02149v-.14551c0-.01562.00977-.02636.02832-.0332q.00879-.00439.06152-.02051a.49643.49643,0,0,0,.084-.03125.24891.24891,0,0,0,.08887-.07324l-.0254-.125a.28815.28815,0,0,0-.042-.11523.097.097,0,0,0-.083-.03321H28.05a.03277.03277,0,0,1-.02343-.01074.03028.03028,0,0,1-.00977-.02344v-.124a.034.034,0,0,1,.00879-.02441.03327.03327,0,0,1,.02441-.01075h.05176a.42165.42165,0,0,1,.18359.03418.25756.25756,0,0,1,.11036.10645.63585.63585,0,0,1,.06445.19434l.08105.41113A.02535.02535,0,0,1,28.53339,21.82237Z"/><path class="b" d="M29.33808,21.14366a.32648.32648,0,0,1,.08691.24707V21.798a.0365.0365,0,0,1-.00976.02441.03239.03239,0,0,1-.02442.00977h-.36816a.02894.02894,0,0,1-.02344-.00977.03329.03329,0,0,1-.01074-.02441v-.11524a.03033.03033,0,0,1,.01074-.02441.02894.02894,0,0,1,.02344-.00977h.17383v-.24707a.163.163,0,0,0-.03418-.10937.10894.10894,0,0,0-.08692-.03906h-.10547l-.11523.54394a.04.04,0,0,1-.01074.02539.02968.02968,0,0,1-.02442.00977h-.15527a.03237.03237,0,0,1-.02441-.00977A.02713.02713,0,0,1,28.632,21.797l.13282-.543H28.676a.02969.02969,0,0,1-.02441-.00976.03239.03239,0,0,1-.00977-.02442v-.125a.03237.03237,0,0,1,.00977-.02441.03567.03567,0,0,1,.02441-.00879h.43262A.31906.31906,0,0,1,29.33808,21.14366Z"/><path class="b" d="M29.86933,21.82237a.02968.02968,0,0,1-.00977-.02441v-.70313a.03237.03237,0,0,1,.00977-.02441.03569.03569,0,0,1,.02441-.00879h.16895a.034.034,0,0,1,.02441.00879.03237.03237,0,0,1,.00977.02441V21.798a.03237.03237,0,0,1-.00977.02441.031.031,0,0,1-.02441.00977h-.16895A.03237.03237,0,0,1,29.86933,21.82237Z"/><path class="b" d="M30.71894,21.82237a.03239.03239,0,0,1-.02442.00977h-.43359a.031.031,0,0,1-.02441-.00977.03031.03031,0,0,1-.01075-.02441v-.11524a.03031.03031,0,0,1,.01075-.02441.031.031,0,0,1,.02441-.00977h.22461l-.0127-.26562a.233.233,0,0,0-.02734-.11328.09089.09089,0,0,0-.083-.03516h-.06933a.03281.03281,0,0,1-.02344-.01074A.03174.03174,0,0,1,30.26,21.2003V21.087a.034.034,0,0,1,.00879-.02441.03329.03329,0,0,1,.02442-.01075h.07324a.35054.35054,0,0,1,.25684.08008.3634.3634,0,0,1,.08691.25489l.01758.41113A.02849.02849,0,0,1,30.71894,21.82237Z"/><path class="b" d="M30.85956,21.503a.03242.03242,0,0,1-.00976-.02442v-.38379a.0324.0324,0,0,1,.00976-.02441.03826.03826,0,0,1,.02539-.00879h.16895a.03047.03047,0,0,1,.0332.0332v.38379a.035.035,0,0,1-.00879.02344.03237.03237,0,0,1-.02441.00977H30.885A.03826.03826,0,0,1,30.85956,21.503Z"/><path class="b" d="M31.9621,21.80382a.02764.02764,0,0,1-.00879.01953.02458.02458,0,0,1-.01953.00879h-.166a.04622.04622,0,0,1-.03711-.0127l-.01172-.01465-.23633-.34082a.14656.14656,0,0,0-.0459.07422.36962.36962,0,0,0-.01074.08887V21.796a.03966.03966,0,0,1-.00977.02637.03455.03455,0,0,1-.02539.00977H31.259a.03331.03331,0,0,1-.02442-.01074.03462.03462,0,0,1-.00976-.0254v-.168a.47027.47027,0,0,1,.03125-.18555.34613.34613,0,0,1,.11719-.13574l-.1377-.19825a.02721.02721,0,0,1,.002-.03808.02764.02764,0,0,1,.01953-.00879h.15918a.04985.04985,0,0,1,.0293.00781.10461.10461,0,0,1,.01953.02149l.2168.30761a.118.118,0,0,0,.04883-.05859.30235.30235,0,0,0,.00976-.07715v-.165a.03531.03531,0,0,1,.00977-.02636.02894.02894,0,0,1,.02344-.00977h.14257a.03331.03331,0,0,1,.02442.01074.0355.0355,0,0,1,.01074.02539v.16992a.34759.34759,0,0,1-.03516.15723.31739.31739,0,0,1-.125.12793l.165.23242A.03.03,0,0,1,31.9621,21.80382Z"/><path class="b" d="M32.97284,21.07042a.03569.03569,0,0,1,.00879.02441v.35352a.39392.39392,0,0,1-.05371.209.36664.36664,0,0,1-.14746.13867.42675.42675,0,0,1-.206.04688h-.12989a.39747.39747,0,0,1-.18847-.042.2917.2917,0,0,1-.124-.11328.30451.30451,0,0,1-.042-.15821v-.43457a.03237.03237,0,0,1,.00977-.02441.03822.03822,0,0,1,.02539-.00879h.1416a.03047.03047,0,0,1,.0332.0332l.002.32422a.12881.12881,0,0,0,.10254-.05566.2809.2809,0,0,0,.02929-.1416v-.124a.03606.03606,0,0,1,.01074-.02636.031.031,0,0,1,.02442-.00977h.14062a.03285.03285,0,0,1,.02344.01074.03458.03458,0,0,1,.00977.02539v.127a.35377.35377,0,0,1-.07911.24316.33382.33382,0,0,1-.22558.10352.17831.17831,0,0,0,.06836.0664.19007.19007,0,0,0,.09375.02246h.03125a.2607.2607,0,0,0,.124-.02832.2099.2099,0,0,0,.11719-.18945v-.34766a.03186.03186,0,0,1,.03418-.0332h.1416A.03567.03567,0,0,1,32.97284,21.07042Z"/><path class="b" d="M33.90937,21.82237a.03249.03249,0,0,1-.00879-.02441v-.39942a.135.135,0,0,0-.15234-.15332h-.3086a.0324.0324,0,0,1-.02441-.00976.031.031,0,0,1-.00977-.02442v-.11621a.03237.03237,0,0,1,.00977-.02441.03569.03569,0,0,1,.02441-.00879h.31543a.41292.41292,0,0,1,.2793.082.32439.32439,0,0,1,.09375.25684V21.798a.02968.02968,0,0,1-.00977.02441.03311.03311,0,0,1-.02539.00977h-.15918A.03237.03237,0,0,1,33.90937,21.82237Zm-.49414,0a.02968.02968,0,0,1-.00977-.02441V21.4044a.031.031,0,0,1,.00977-.02441.03651.03651,0,0,1,.02441-.00977h.16016a.03236.03236,0,0,1,.02344.00977.031.031,0,0,1,.00976.02441V21.798a.0324.0324,0,0,1-.00976.02441.029.029,0,0,1-.02344.00977h-.16016A.03237.03237,0,0,1,33.41523,21.82237Z"/><path class="b" d="M34.28925,21.82237a.02967.02967,0,0,1-.00976-.02441v-.70313a.03236.03236,0,0,1,.00976-.02441.03571.03571,0,0,1,.02441-.00879h.169a.034.034,0,0,1,.02441.00879.03237.03237,0,0,1,.00977.02441V21.798a.03237.03237,0,0,1-.00977.02441.031.031,0,0,1-.02441.00977h-.169A.03239.03239,0,0,1,34.28925,21.82237Z"/><path class="b" d="M34.66132,21.82237a.03329.03329,0,0,1-.01074-.02441v-.11524a.03033.03033,0,0,1,.01074-.02441.03174.03174,0,0,1,.02344-.00977h.33887v-.25a.13466.13466,0,0,0-.15235-.15234h-.17285a.031.031,0,0,1-.02441-.00977.03455.03455,0,0,1-.00977-.02539v-.11621a.03651.03651,0,0,1,.00977-.02441.03567.03567,0,0,1,.02441-.00879h.17871a.44423.44423,0,0,1,.28613.0791.31718.31718,0,0,1,.09668.25781v.25h.04688a.03237.03237,0,0,1,.02441.00977.033.033,0,0,1,.00977.02441V21.798a.03651.03651,0,0,1-.00977.02441.03237.03237,0,0,1-.02441.00977h-.62207A.03174.03174,0,0,1,34.66132,21.82237Z"/><path class="b" d="M35.98652,21.82237a.03458.03458,0,0,1-.02539.00977h-.16895a.02827.02827,0,0,1-.02246-.00977A.0303.0303,0,0,1,35.759,21.798l-.02051-.09961a.29734.29734,0,0,1-.07813.0664.872.872,0,0,1-.09863.05079.48764.48764,0,0,1-.09082.02734l-.00976.001c-.01465,0-.02247-.00684-.02247-.02149v-.14551c0-.01562.00977-.02636.02833-.0332q.00877-.00439.06152-.02051a.496.496,0,0,0,.084-.03125.24882.24882,0,0,0,.08887-.07324l-.02539-.125a.28815.28815,0,0,0-.042-.11523.097.097,0,0,0-.083-.03321h-.04785a.03281.03281,0,0,1-.02344-.01074.03028.03028,0,0,1-.00977-.02344v-.124a.034.034,0,0,1,.00879-.02441.03329.03329,0,0,1,.02442-.01075h.05176a.42168.42168,0,0,1,.18359.03418.25754.25754,0,0,1,.11035.10645.63558.63558,0,0,1,.06445.19434l.08106.41113A.02539.02539,0,0,1,35.98652,21.82237Z"/><path class="b" d="M36.37616,21.82237a.0297.0297,0,0,1-.00976-.02441v-.70313a.0324.0324,0,0,1,.00976-.02441.03572.03572,0,0,1,.02442-.00879h.30664a.408.408,0,0,1,.27344.07715.32.32,0,0,1,.08984.25293V21.797a.03349.03349,0,0,1-.03516.03516h-.63476A.03239.03239,0,0,1,36.37616,21.82237Zm.47657-.17383v-.25a.135.135,0,0,0-.15235-.15332h-.1289v.40332Z"/><path class="b" d="M37.23359,21.82237a.02968.02968,0,0,1-.00977-.02441v-.70313a.03237.03237,0,0,1,.00977-.02441.03569.03569,0,0,1,.02441-.00879H37.427a.034.034,0,0,1,.02441.00879.03237.03237,0,0,1,.00977.02441V21.798a.03237.03237,0,0,1-.00977.02441.031.031,0,0,1-.02441.00977H37.258A.03237.03237,0,0,1,37.23359,21.82237Z"/><path class="b" d="M37.63007,21.82237a.0297.0297,0,0,1-.00976-.02441v-.70313a.0324.0324,0,0,1,.00976-.02441.03572.03572,0,0,1,.02442-.00879h.31933a.42343.42343,0,0,1,.28223.0791.32763.32763,0,0,1,.09179.25977V21.798a.0365.0365,0,0,1-.00976.02441.03239.03239,0,0,1-.02442.00977h-.15917a.03459.03459,0,0,1-.0254-.00977.0297.0297,0,0,1-.00976-.02441v-.39942a.135.135,0,0,0-.15234-.15332h-.11915V21.798a.0324.0324,0,0,1-.00976.02441.02894.02894,0,0,1-.02344.00977h-.16015A.03239.03239,0,0,1,37.63007,21.82237Z"/><path class="b" d="M39.50019,21.14171a.31159.31159,0,0,1,.09375.25V21.798a.03569.03569,0,0,1-.00879.02441.03239.03239,0,0,1-.02441.00977h-.15918a.03313.03313,0,0,1-.0254-.00977.0297.0297,0,0,1-.00976-.02441v-.39942a.13526.13526,0,0,0-.15332-.15332h-.08692a.79785.79785,0,0,0-.0205.19825l.01074.35449a.033.033,0,0,1-.00977.02441.03455.03455,0,0,1-.02539.00977l-.28613-.001a.03909.03909,0,0,1-.02539-.00976A.03469.03469,0,0,1,38.76,21.797v-.10644a.03469.03469,0,0,1,.00977-.02442.039.039,0,0,1,.02539-.00976h.10938v-.21192a.71.71,0,0,1,.0205-.19922h-.08008a.031.031,0,0,1-.02441-.00976.03173.03173,0,0,1-.01074-.02442v-.11621a.03326.03326,0,0,1,.01074-.02441.034.034,0,0,1,.02441-.00879h.377A.417.417,0,0,1,39.50019,21.14171Z"/><path class="b" d="M40.34882,21.07042a.03237.03237,0,0,1,.00977.02441V21.211a.035.035,0,0,1-.03418.03418h-.06153a.20467.20467,0,0,0-.02539.06836.48366.48366,0,0,0-.00879.09571v.39355a.02423.02423,0,0,1-.01269.02051.04726.04726,0,0,1-.02637.00879h-.15723a.033.033,0,0,1-.02246-.00781.0322.0322,0,0,1-.00781-.02149v-.4082a.28306.28306,0,0,1,.02735-.14942h-.30762a.03328.03328,0,0,1-.02442-.01074.0341.0341,0,0,1-.00976-.02344v-.11621a.0365.0365,0,0,1,.00976-.02441.03572.03572,0,0,1,.02442-.00879h.60254A.03249.03249,0,0,1,40.34882,21.07042Z"/><path class="b" d="M40.85663,21.82237a.033.033,0,0,1-.00976-.02441v-.39942a.135.135,0,0,0-.15235-.15332h-.20507a.03279.03279,0,0,1-.02344-.01074.03118.03118,0,0,1-.01074-.02344v-.11621a.03326.03326,0,0,1,.01074-.02441.035.035,0,0,1,.02344-.00879h.21289a.42854.42854,0,0,1,.28027.07715.30942.30942,0,0,1,.09277.252V21.798a.0365.0365,0,0,1-.00976.02441.031.031,0,0,1-.02442.00977H40.882A.03458.03458,0,0,1,40.85663,21.82237Z"/><path class="b" d="M41.23749,21.82237a.0297.0297,0,0,1-.00976-.02441v-.70313a.0324.0324,0,0,1,.00976-.02441.03572.03572,0,0,1,.02442-.00879h.16894a.034.034,0,0,1,.02442.00879.0324.0324,0,0,1,.00976.02441V21.798a.0324.0324,0,0,1-.00976.02441.031.031,0,0,1-.02442.00977h-.16894A.03239.03239,0,0,1,41.23749,21.82237Z"/><path class="b" d="M42.12909,21.82237a.03252.03252,0,0,1-.00878-.02441v-.39942a.135.135,0,0,0-.15235-.15332h-.30859a.03242.03242,0,0,1-.02442-.00976.031.031,0,0,1-.00976-.02442v-.11621a.0324.0324,0,0,1,.00976-.02441.03572.03572,0,0,1,.02442-.00879h.31543a.41289.41289,0,0,1,.27929.082.32439.32439,0,0,1,.09375.25684V21.798a.0297.0297,0,0,1-.00976.02441.03312.03312,0,0,1-.02539.00977h-.15918A.03239.03239,0,0,1,42.12909,21.82237Zm-.49414,0a.0297.0297,0,0,1-.00976-.02441V21.4044A.031.031,0,0,1,41.635,21.38a.03653.03653,0,0,1,.02442-.00977h.16015A.03234.03234,0,0,1,41.843,21.38a.031.031,0,0,1,.00977.02441V21.798a.03237.03237,0,0,1-.00977.02441.02894.02894,0,0,1-.02344.00977h-.16015A.03239.03239,0,0,1,41.635,21.82237Z"/><path class="b" d="M42.99824,21.14561a.37155.37155,0,0,1,.07617.25489.3948.3948,0,0,1-.10059.28027.53127.53127,0,0,1-.25391.15234l-.05566.01661a.02347.02347,0,0,1-.02441-.00977.0364.0364,0,0,1-.01172-.02637v-.13672a.04219.04219,0,0,1,.00879-.02539.07447.07447,0,0,1,.02441-.01757l.04395-.01758a.22332.22332,0,0,0,.09765-.07227.23006.23006,0,0,0,.03516-.13672.18474.18474,0,0,0-.0293-.11914.14315.14315,0,0,0-.11035-.03418h-.03516l-.18066-.001a.02968.02968,0,0,1-.02441-.00977.02894.02894,0,0,1-.00977-.02344v-.3125a.03237.03237,0,0,1,.00977-.02441.03567.03567,0,0,1,.02441-.00879h.14551a.03047.03047,0,0,1,.0332.0332v.1543h.084A.33151.33151,0,0,1,42.99824,21.14561Z"/><path class="b" d="M43.217,21.82237a.02968.02968,0,0,1-.00977-.02441v-.70313a.03237.03237,0,0,1,.00977-.02441.03567.03567,0,0,1,.02441-.00879h.16894a.034.034,0,0,1,.02442.00879.0324.0324,0,0,1,.00976.02441V21.798a.0324.0324,0,0,1-.00976.02441.031.031,0,0,1-.02442.00977H43.2414A.03236.03236,0,0,1,43.217,21.82237Z"/><path class="b" d="M31.62421,23.84776a.0297.0297,0,0,1-.00976-.02441v-.70313a.03241.03241,0,0,1,.00976-.02441.03572.03572,0,0,1,.02442-.00879h.30664a.408.408,0,0,1,.27343.07715.32.32,0,0,1,.08985.25293v.40527a.0335.0335,0,0,1-.03516.03516h-.63476A.03239.03239,0,0,1,31.62421,23.84776Zm.47656-.17383v-.25a.135.135,0,0,0-.15234-.15332h-.12891v.40332Z"/><path class="b" d="M32.47577,23.52843A.03242.03242,0,0,1,32.466,23.504v-.38379a.03241.03241,0,0,1,.00976-.02441.03826.03826,0,0,1,.02539-.00879h.169a.03047.03047,0,0,1,.0332.0332V23.504a.035.035,0,0,1-.00879.02344.03236.03236,0,0,1-.02441.00977h-.169A.03826.03826,0,0,1,32.47577,23.52843Z"/><path class="b" d="M33.23261,23.84776a.033.033,0,0,1-.00977-.02441v-.39942a.135.135,0,0,0-.15234-.15332h-.20508a.03277.03277,0,0,1-.02343-.01074.03119.03119,0,0,1-.01075-.02344v-.11621a.03328.03328,0,0,1,.01075-.02441.035.035,0,0,1,.02343-.00879h.21289a.42859.42859,0,0,1,.28028.07715.30942.30942,0,0,1,.09277.252v.40723a.03651.03651,0,0,1-.00977.02441.031.031,0,0,1-.02441.00977H33.258A.03458.03458,0,0,1,33.23261,23.84776Z"/><path class="b" d="M33.61347,23.84776a.02968.02968,0,0,1-.00977-.02441v-.70313a.03239.03239,0,0,1,.00977-.02441.03571.03571,0,0,1,.02441-.00879h.31934a.42343.42343,0,0,1,.28223.0791.32763.32763,0,0,1,.09179.25977v.39746a.0365.0365,0,0,1-.00976.02441.03239.03239,0,0,1-.02442.00977h-.15918a.03458.03458,0,0,1-.02539-.00977.0297.0297,0,0,1-.00976-.02441v-.39942a.135.135,0,0,0-.15235-.15332h-.11914v.55274a.0324.0324,0,0,1-.00976.02441.02894.02894,0,0,1-.02344.00977h-.16016A.03239.03239,0,0,1,33.61347,23.84776Z"/><path class="b" d="M35.20429,23.82921a.02764.02764,0,0,1-.00879.01953.02458.02458,0,0,1-.01953.00879H35.01a.04624.04624,0,0,1-.03711-.0127l-.01171-.01465-.23633-.34082a.14656.14656,0,0,0-.0459.07422.36911.36911,0,0,0-.01074.08887v.16895a.03965.03965,0,0,1-.00977.02636.03455.03455,0,0,1-.02539.00977h-.13184a.03331.03331,0,0,1-.02441-.01074.03458.03458,0,0,1-.00976-.02539v-.168a.47027.47027,0,0,1,.03125-.18555.34609.34609,0,0,1,.11718-.13574l-.13769-.19824a.02723.02723,0,0,1,.002-.03809.02764.02764,0,0,1,.01953-.00879h.15918a.04985.04985,0,0,1,.0293.00781.1049.1049,0,0,1,.01953.02149l.2168.30761a.11793.11793,0,0,0,.04882-.05859.30233.30233,0,0,0,.00977-.07715v-.165a.03531.03531,0,0,1,.00977-.02636.02893.02893,0,0,1,.02343-.00977h.14258a.03331.03331,0,0,1,.02442.01074.0355.0355,0,0,1,.01074.02539v.16993a.34757.34757,0,0,1-.03516.15722.31733.31733,0,0,1-.125.12793l.165.23242A.03.03,0,0,1,35.20429,23.82921Z"/><path class="b" d="M36.12031,23.171a.37156.37156,0,0,1,.07617.25489.39477.39477,0,0,1-.10059.28027.53129.53129,0,0,1-.2539.15234l-.05567.01661a.02347.02347,0,0,1-.02441-.00977.0364.0364,0,0,1-.01172-.02637v-.13672a.04219.04219,0,0,1,.00879-.02539.07447.07447,0,0,1,.02441-.01757l.044-.01758a.22332.22332,0,0,0,.09765-.07227.23006.23006,0,0,0,.03516-.13672.18474.18474,0,0,0-.0293-.11914.14315.14315,0,0,0-.11035-.03418h-.03516l-.18066-.001a.02968.02968,0,0,1-.02441-.00977.02894.02894,0,0,1-.00977-.02344v-.3125a.03239.03239,0,0,1,.00977-.02441.03567.03567,0,0,1,.02441-.00879h.14551a.03047.03047,0,0,1,.0332.0332v.1543h.084A.33151.33151,0,0,1,36.12031,23.171Z"/><path class="b" d="M36.3371,23.84776a.0297.0297,0,0,1-.00976-.02441v-.70313a.03241.03241,0,0,1,.00976-.02441.03572.03572,0,0,1,.02442-.00879h.16894a.034.034,0,0,1,.02442.00879.03241.03241,0,0,1,.00976.02441v.70313a.0324.0324,0,0,1-.00976.02441.031.031,0,0,1-.02442.00977h-.16894A.03239.03239,0,0,1,36.3371,23.84776Z"/><path class="b" d="M36.90156,23.32725q.00145.05567.03222.06446l.03711.01367a.03072.03072,0,0,1,.01758.01562.05294.05294,0,0,1,.00586.02442l.001.06933a.03412.03412,0,0,1-.01758.03125.06655.06655,0,0,1-.044.00879l-.05566-.00781a.17158.17158,0,0,1-.11621-.07519.26894.26894,0,0,1-.0459-.16114v-.19043a.0519.0519,0,0,1,.01172-.02441.03093.03093,0,0,1,.02246-.00879h.27246a.34811.34811,0,0,1,.26367.09082.38461.38461,0,0,1,.0957.25586c.001.00879.001.02148.001.03809a.4276.4276,0,0,1-.08594.28418.34274.34274,0,0,1-.27441.10156h-.25684a.03239.03239,0,0,1-.02441-.00977.0303.0303,0,0,1-.01074-.02441v-.124a.03679.03679,0,0,1,.03515-.03516h.25a.15905.15905,0,0,0,.11231-.03906.16076.16076,0,0,0,.04883-.11328l.001-.04-.001-.03907a.15383.15383,0,0,0-.04688-.11328.16461.16461,0,0,0-.11426-.04h-.11425Z"/><path class="b" d="M37.51972,23.52843A.03239.03239,0,0,1,37.51,23.504v-.38379a.03239.03239,0,0,1,.00977-.02441.03824.03824,0,0,1,.02539-.00879h.169a.03047.03047,0,0,1,.0332.0332V23.504a.035.035,0,0,1-.00879.02344.03239.03239,0,0,1-.02441.00977h-.169A.03824.03824,0,0,1,37.51972,23.52843Z"/><path class="b" d="M37.98847,23.78331a.3239.3239,0,0,1-.09375-.248v-.415a.03239.03239,0,0,1,.00977-.02441.035.035,0,0,1,.02343-.00879h.14063a.034.034,0,0,1,.02441.00879.03327.03327,0,0,1,.01074.02441v.40821a.13875.13875,0,0,0,.04395.1123.179.179,0,0,0,.12207.03711c.10059,0,.15137-.04785.15234-.14453.001-.00879.001-.02051.001-.03613l-.001-.03516v-.0293a.24979.24979,0,0,0-.02539-.11816.07811.07811,0,0,0-.07031-.041.14471.14471,0,0,0-.04.00489.12431.12431,0,0,0-.03418.01367l-.01269.00293a.0281.0281,0,0,1-.02051-.00879.03093.03093,0,0,1-.00879-.02246v-.10645a.05338.05338,0,0,1,.02539-.0498.25083.25083,0,0,1,.12988-.02637.26269.26269,0,0,1,.21289.07813.38816.38816,0,0,1,.06641.23925v.14161q-.01465.33105-.375.33105A.398.398,0,0,1,37.98847,23.78331Z"/><path class="b" d="M39.06464,23.52843a.03242.03242,0,0,1-.00976-.02442v-.38379a.03241.03241,0,0,1,.00976-.02441A.03826.03826,0,0,1,39.09,23.087h.169a.03047.03047,0,0,1,.0332.0332V23.504a.035.035,0,0,1-.00879.02344.03237.03237,0,0,1-.02441.00977H39.09A.03826.03826,0,0,1,39.06464,23.52843Z"/><path class="b" d="M40.14277,23.09581a.03571.03571,0,0,1,.00879.02441v.39942a.29267.29267,0,0,1-.09278.22265.49768.49768,0,0,1-.26172.11817l-.3457.07226a.02917.02917,0,0,1-.02637-.00683.02785.02785,0,0,1-.01172-.02344v-.11816a.035.035,0,0,1,.00879-.02344.0401.0401,0,0,1,.02246-.0127l.15039-.03613-.16015-.57129-.00586-.02734a.02441.02441,0,0,1,.00781-.01856.02669.02669,0,0,1,.01856-.00781h.17578a.03609.03609,0,0,1,.02051.00586.032.032,0,0,1,.01074.01465l.13476.55176a.18866.18866,0,0,0,.09961-.07618.26082.26082,0,0,0,.02735-.13086v-.332a.03047.03047,0,0,1,.0332-.0332h.16113A.03572.03572,0,0,1,40.14277,23.09581Z"/><path class="b" d="M40.91523,23.40343a.33914.33914,0,0,1-.11914.12207l.10547.14453a.11676.11676,0,0,1,.01269.02051.05228.05228,0,0,1,.00488.02343v.10938a.0324.0324,0,0,1-.00976.02441.031.031,0,0,1-.02442.00977H40.3371a.03174.03174,0,0,1-.02344-.00977.0324.0324,0,0,1-.00976-.02441v-.12012a.029.029,0,0,1,.00976-.02344A.03177.03177,0,0,1,40.3371,23.67h.31739l-.39258-.53418a.04735.04735,0,0,1-.00879-.02246.02458.02458,0,0,1,.00879-.01953.03324.03324,0,0,1,.02148-.00684h.167a.04791.04791,0,0,1,.043.02441l.18946.25879a.21327.21327,0,0,0,.06152-.17089v-.07618a.03606.03606,0,0,1,.01074-.02636.03239.03239,0,0,1,.02442-.00977h.14257a.03285.03285,0,0,1,.02344.01074.03458.03458,0,0,1,.00977.02539v.11621A.34007.34007,0,0,1,40.91523,23.40343Z"/><path class="b" d="M41.77949,23.16905a.32652.32652,0,0,1,.08691.24707v.40723a.03651.03651,0,0,1-.00977.02441.03236.03236,0,0,1-.02441.00977h-.36816a.02894.02894,0,0,1-.02344-.00977.03326.03326,0,0,1-.01074-.02441v-.11524a.0303.0303,0,0,1,.01074-.02441.02894.02894,0,0,1,.02344-.00977h.17382v-.24707a.163.163,0,0,0-.03418-.10937.10892.10892,0,0,0-.08691-.03906h-.10547l-.11523.54394a.04.04,0,0,1-.01075.02539.02966.02966,0,0,1-.02441.00977h-.15527a.03239.03239,0,0,1-.02442-.00977.02715.02715,0,0,1-.00781-.02539l.13281-.543h-.08886a.02971.02971,0,0,1-.02442-.00976.03242.03242,0,0,1-.00976-.02442v-.125a.03241.03241,0,0,1,.00976-.02441.03572.03572,0,0,1,.02442-.00879H41.55A.31907.31907,0,0,1,41.77949,23.16905Z"/><path class="b" d="M42.73847,23.82921a.02764.02764,0,0,1-.00879.01953.02458.02458,0,0,1-.01953.00879h-.166a.04624.04624,0,0,1-.03711-.0127l-.01171-.01465-.23633-.34082a.1465.1465,0,0,0-.0459.07422.36911.36911,0,0,0-.01074.08887v.16895a.03965.03965,0,0,1-.00977.02636.03455.03455,0,0,1-.02539.00977h-.13184a.03331.03331,0,0,1-.02441-.01074.03458.03458,0,0,1-.00977-.02539v-.168a.47045.47045,0,0,1,.03125-.18555.34621.34621,0,0,1,.11719-.13574l-.13769-.19824a.02723.02723,0,0,1,.002-.03809.02764.02764,0,0,1,.01953-.00879h.15918a.04985.04985,0,0,1,.0293.00781.1049.1049,0,0,1,.01953.02149l.2168.30761a.11793.11793,0,0,0,.04882-.05859.30233.30233,0,0,0,.00977-.07715v-.165a.03531.03531,0,0,1,.00977-.02636A.02892.02892,0,0,1,42.55,23.087h.14258a.03331.03331,0,0,1,.02442.01074.0355.0355,0,0,1,.01074.02539v.16993a.34757.34757,0,0,1-.03516.15722.31733.31733,0,0,1-.125.12793l.165.23242A.03.03,0,0,1,42.73847,23.82921Z"/><path class="b" d="M43.3957,23.171a.37156.37156,0,0,1,.07617.25489.39477.39477,0,0,1-.10059.28027.53129.53129,0,0,1-.2539.15234l-.05567.01661a.02347.02347,0,0,1-.02441-.00977.03644.03644,0,0,1-.01172-.02637v-.13672a.04219.04219,0,0,1,.00879-.02539.07447.07447,0,0,1,.02441-.01757l.044-.01758a.22332.22332,0,0,0,.09765-.07227.23006.23006,0,0,0,.03516-.13672.18474.18474,0,0,0-.0293-.11914.14315.14315,0,0,0-.11035-.03418h-.03515l-.18067-.001a.02968.02968,0,0,1-.02441-.00977.02894.02894,0,0,1-.00977-.02344v-.3125a.03239.03239,0,0,1,.00977-.02441.03569.03569,0,0,1,.02441-.00879h.14551a.03047.03047,0,0,1,.0332.0332v.1543h.084A.33151.33151,0,0,1,43.3957,23.171Z"/><rect class="d" x="0.41624" y="16.35324" width="44.62526" height="1.12002"/><path class="c" d="M29.24335,12.75011a.09287.09287,0,0,1-.02929-.07032V10.16612a.09.09,0,0,1,.02929-.07031.101.101,0,0,1,.07227-.02734h.46a.09339.09339,0,0,1,.07031.02734.092.092,0,0,1,.02735.07031v2.51367a.09494.09494,0,0,1-.02735.07032.09343.09343,0,0,1-.07031.02734h-.46A.10108.10108,0,0,1,29.24335,12.75011Z"/><path class="c" d="M30.35077,11.34288a.09416.09416,0,0,1-.02832-.07031V10.16612a.09266.09266,0,0,1,.02832-.07031.10106.10106,0,0,1,.07227-.02734h.4873a.09493.09493,0,0,1,.07032.02734.092.092,0,0,1,.02734.07031v1.10645a.09514.09514,0,0,1-.02734.06836.09287.09287,0,0,1-.07032.02929H30.423A.1011.1011,0,0,1,30.35077,11.34288Z"/><path class="c" d="M32.98749,12.26475a.10315.10315,0,0,1-.07422.0293H32.426a.08705.08705,0,0,1-.06543-.02734.10463.10463,0,0,1-.03125-.07031l-.05859-.28809a.8264.8264,0,0,1-.22657.19043,2.19777,2.19777,0,0,1-.28222.14648,1.41912,1.41912,0,0,1-.26367.08008l-.02735.00391c-.04394,0-.06543-.02051-.06543-.0625v-.4209c0-.044.02735-.07617.08106-.09766.01855-.00781.07812-.02636.17773-.05664a1.56181,1.56181,0,0,0,.24316-.09082.79565.79565,0,0,0,.25782-.21094l-.07422-.3623a.843.843,0,0,0-.1211-.332.28419.28419,0,0,0-.24121-.09668H31.592a.09475.09475,0,0,1-.06836-.0293.09313.09313,0,0,1-.0293-.06836v-.3584a.10366.10366,0,0,1,.02734-.07226.09286.09286,0,0,1,.07032-.0293h.14843a1.20591,1.20591,0,0,1,.53223.09961.73609.73609,0,0,1,.31738.30567,1.9086,1.9086,0,0,1,.1875.56152l.2334,1.18848A.07124.07124,0,0,1,32.98749,12.26475Z"/><path class="c" d="M34.70234,10.31163a1.0597,1.0597,0,0,1,.22265.73535,1.14489,1.14489,0,0,1-.293.81055,1.55,1.55,0,0,1-.73242.44043l-.16015.04687a.07475.07475,0,0,1-.07129-.02734.11049.11049,0,0,1-.03321-.07813v-.39355a.10963.10963,0,0,1,.02735-.07227.201.201,0,0,1,.06933-.05273l.125-.05078a.63.63,0,0,0,.28223-.208.65079.65079,0,0,0,.10352-.39551.52447.52447,0,0,0-.08594-.34375.41562.41562,0,0,0-.31934-.09668h-.10156l-.52246-.0039a.09361.09361,0,0,1-.09668-.09766V9.62413a.09281.09281,0,0,1,.0293-.07031.09447.09447,0,0,1,.06738-.02735H33.635a.09123.09123,0,0,1,.06934.02735.09493.09493,0,0,1,.02734.07031v.44434h.24219A.94527.94527,0,0,1,34.70234,10.31163Z"/><path class="c" d="M35.55488,12.07921a.93069.93069,0,0,1-.27051-.7168V10.16612a.09263.09263,0,0,1,.02832-.07031.09671.09671,0,0,1,.06836-.02734h.40527a.09945.09945,0,0,1,.07227.02734.09.09,0,0,1,.02929.07031v1.17676a.40034.40034,0,0,0,.127.3252.52471.52471,0,0,0,.35254.10742c.291,0,.43847-.13867.44043-.417a.69891.69891,0,0,0,.00195-.10546c-.001-.044-.00195-.07813-.00195-.10157v-.085a.699.699,0,0,0-.07422-.34179.222.222,0,0,0-.20215-.11817.44655.44655,0,0,0-.11524.01563.365.365,0,0,0-.09961.03906.13679.13679,0,0,1-.03515.00781.085.085,0,0,1-.06055-.02539.09.09,0,0,1-.02441-.06445v-.3086a.15241.15241,0,0,1,.07324-.14355.73511.73511,0,0,1,.375-.07422.753.753,0,0,1,.61328.22363,1.10645,1.10645,0,0,1,.19336.69239V11.378q-.044.95506-1.084.95507A1.151,1.151,0,0,1,35.55488,12.07921Z"/><path class="c" d="M38.343,10.76183q.00879.15966.09375.1875l.10938.03906a.09069.09069,0,0,1,.04882.04492.1493.1493,0,0,1,.01758.07227l.00391.19824a.10361.10361,0,0,1-.05274.09179.19318.19318,0,0,1-.127.02539l-.15918-.02343a.49478.49478,0,0,1-.33594-.2168.78163.78163,0,0,1-.13183-.46582v-.54883a.13083.13083,0,0,1,.03223-.07031.0849.0849,0,0,1,.06445-.02734h.78808a1.01079,1.01079,0,0,1,.76172.26269,1.10921,1.10921,0,0,1,.27442.73926,1.04939,1.04939,0,0,1,.0039.1084,1.23343,1.23343,0,0,1-.249.82129.98158.98158,0,0,1-.791.29394h-.74121a.10106.10106,0,0,1-.07226-.02734.0914.0914,0,0,1-.0293-.07031V11.838a.10007.10007,0,0,1,.10156-.10157H38.675a.46486.46486,0,0,0,.3252-.11523.45324.45324,0,0,0,.13867-.3252c.002-.02539.00391-.06445.00391-.11718,0-.04883-.002-.08692-.00391-.11231a.44706.44706,0,0,0-.13477-.32617.47377.47377,0,0,0-.3291-.11426h-.332Z"/><path class="c" d="M40.1457,12.26671a.09137.09137,0,0,1-.0293-.07031V10.16612a.08994.08994,0,0,1,.0293-.07031.101.101,0,0,1,.07226-.02734h.48731a.09491.09491,0,0,1,.07031.02734.092.092,0,0,1,.02734.07031V12.1964a.09512.09512,0,0,1-.02734.06835.09282.09282,0,0,1-.07031.0293H40.218A.10106.10106,0,0,1,40.1457,12.26671Z"/><path class="c" d="M43.34394,12.212a.07984.07984,0,0,1-.02344.05664.07756.07756,0,0,1-.05859.02539h-.4795a.13411.13411,0,0,1-.10546-.03711l-.03516-.041-.68164-.98633a.44468.44468,0,0,0-.13281.21484,1.03384,1.03384,0,0,0-.03125.25684v.4873a.103.103,0,0,1-.0293.07617.09648.09648,0,0,1-.07129.0293h-.38281a.08957.08957,0,0,1-.06738-.03125.10317.10317,0,0,1-.0293-.07422v-.4834a1.37489,1.37489,0,0,1,.08887-.53808.99481.99481,0,0,1,.33984-.38965l-.39746-.57227a.08014.08014,0,0,1-.01953-.05468.07449.07449,0,0,1,.02539-.05664.07757.07757,0,0,1,.05566-.02539h.46a.13046.13046,0,0,1,.084.02343.29951.29951,0,0,1,.05664.0625l.62793.88868a.34447.34447,0,0,0,.13769-.17188.74819.74819,0,0,0,.0293-.22168v-.47559a.11013.11013,0,0,1,.02734-.07617.09287.09287,0,0,1,.07032-.02929h.40918a.09677.09677,0,0,1,.07226.03125.10319.10319,0,0,1,.0293.07421v.49122a1.02545,1.02545,0,0,1-.09961.4541.941.941,0,0,1-.36035.36816l.47558.66992A.0945.0945,0,0,1,43.34394,12.212Z"/><path class="c" d="M22.33613,11.0587a.57474.57474,0,0,1,.16015.44434v.73339a.06306.06306,0,0,1-.01562.041.05893.05893,0,0,1-.043.0166h-.19336a.05833.05833,0,0,1-.05859-.05762v-.72168A.305.305,0,0,0,21.84,11.171H21.676a1.70227,1.70227,0,0,0-.03418.20118,1.64382,1.64382,0,0,0-.00684.21484l.01172.64941a.05928.05928,0,0,1-.0166.041.05988.05988,0,0,1-.042.0166l-.42578-.002a.05835.05835,0,0,1-.05762-.0586v-.13281a.05893.05893,0,0,1,.0166-.043.06306.06306,0,0,1,.041-.01562l.1914.00293v-.4502a2.17207,2.17207,0,0,1,.00586-.21875,1.43367,1.43367,0,0,1,.03516-.20508H21.257a.05378.05378,0,0,1-.041-.0166.05523.05523,0,0,1-.0166-.041v-.14258a.05525.05525,0,0,1,.0166-.043.06114.06114,0,0,1,.041-.01562h.59766A.69095.69095,0,0,1,22.33613,11.0587Z"/><path class="c" d="M22.83222,12.27745a.05928.05928,0,0,1-.0166-.041V10.97081a.05892.05892,0,0,1,.0166-.043.06306.06306,0,0,1,.041-.01562h.2041a.06006.06006,0,0,1,.042.01562.05828.05828,0,0,1,.01562.043v1.26562a.05834.05834,0,0,1-.01562.041.05663.05663,0,0,1-.042.0166h-.2041A.05928.05928,0,0,1,22.83222,12.27745Z"/><path class="c" d="M23.47089,11.711a.05926.05926,0,0,1-.0166-.041v-.69922a.05892.05892,0,0,1,.0166-.043.06368.06368,0,0,1,.042-.01562H23.718a.05406.05406,0,0,1,.0586.05859V11.67a.063.063,0,0,1-.01563.041.05888.05888,0,0,1-.043.01661h-.20508A.05985.05985,0,0,1,23.47089,11.711Z"/><path class="c" d="M24.96113,11.05968a.68826.68826,0,0,1,.13574.47265.71164.71164,0,0,1-.167.49317.91313.91313,0,0,1-.42579.26367l-.0996.03125a.04159.04159,0,0,1-.043-.00977.05145.05145,0,0,1-.01953-.043v-.17675a.06179.06179,0,0,1,.01562-.041.10184.10184,0,0,1,.042-.0293l.085-.03418a.42288.42288,0,0,0,.293-.45214.59523.59523,0,0,0-.03027-.209.20155.20155,0,0,0-.10156-.11035.471.471,0,0,0-.19727-.03418h-.07519l-.27149-.002a.06251.06251,0,0,1-.043-.01563.05258.05258,0,0,1-.01758-.04V10.6339a.05621.05621,0,0,1,.01758-.041.05892.05892,0,0,1,.043-.0166h.17676a.05828.05828,0,0,1,.043.01562.06008.06008,0,0,1,.01562.042v.27832h.167A.60259.60259,0,0,1,24.96113,11.05968Z"/><path class="c" d="M25.342,12.27745a.05621.05621,0,0,1-.01758-.041v-.14355a.05383.05383,0,0,1,.01758-.042.0552.0552,0,0,1,.041-.01563h.65039v-.51758a.30458.30458,0,0,0-.34277-.34668h-.28321a.05238.05238,0,0,1-.041-.0166.05621.05621,0,0,1-.01758-.041v-.14258a.05594.05594,0,0,1,.01758-.043.05932.05932,0,0,1,.041-.01562h.29493a.71344.71344,0,0,1,.48828.14648.57569.57569,0,0,1,.165.4541v.52246h.08691a.05829.05829,0,0,1,.043.01563.06.06,0,0,1,.01562.042v.14355a.063.063,0,0,1-.01562.041.05892.05892,0,0,1-.043.0166H25.383A.05593.05593,0,0,1,25.342,12.27745Z"/><path class="c" d="M26.86835,12.16319a.59388.59388,0,0,1-.15722-.44238v-.75a.05892.05892,0,0,1,.0166-.043.06368.06368,0,0,1,.042-.01562h.17383a.05393.05393,0,0,1,.05761.05859v.7373a.342.342,0,0,0,.08985.25489.36167.36167,0,0,0,.26172.08691.342.342,0,0,0,.25-.08105.35069.35069,0,0,0,.08593-.2461v-.21484a.43724.43724,0,0,0-.06542-.25293.20244.20244,0,0,0-.17383-.08594.33152.33152,0,0,0-.082.01172.32562.32562,0,0,0-.07813.03125.03762.03762,0,0,1-.02344.00781.04881.04881,0,0,1-.03418-.01367A.045.045,0,0,1,27.217,11.171v-.13281a.14379.14379,0,0,1,.00683-.04883.06284.06284,0,0,1,.03223-.03125.40953.40953,0,0,1,.10156-.041.57046.57046,0,0,1,.14258-.01465.46163.46163,0,0,1,.36914.13672.66141.66141,0,0,1,.12207.4248c.001.01661.002.06153.002.13575s-.001.11914-.002.13574a.61675.61675,0,0,1-.16113.43554.8399.8399,0,0,1-.96192-.00781Z"/><circle class="e" cx="6.26908" cy="17.59953" r="3.46484"/><path class="f" d="M.41624,14.76972A91.54966,91.54966,0,0,0,13.55934,25.48H.41624Z"/><path class="g" d="M31.36738,14.7589a.03313.03313,0,0,1-.00977-.0254v-.96777a.03535.03535,0,0,1,.00977-.02637.02951.02951,0,0,1,.02539-.01074h.36328q.438,0,.44726.4043c.002.05762.00293.09668.00293.11621q0,.02783-.00293.11426a.41838.41838,0,0,1-.1123.30761.468.468,0,0,1-.32715.09864h-.37109A.03722.03722,0,0,1,31.36738,14.7589Zm.38867-.16211a.24486.24486,0,0,0,.17871-.05469.26431.26431,0,0,0,.05762-.18262c.002-.05957.00293-.09668.00293-.1123s-.001-.05176-.00293-.10938a.20939.20939,0,0,0-.24414-.23633h-.18067v.69532Z"/><path class="g" d="M32.38984,13.85948a.03543.03543,0,0,1-.01075-.02539v-.1084a.04007.04007,0,0,1,.01075-.02734.03455.03455,0,0,1,.02539-.00977H32.552a.03392.03392,0,0,1,.03711.03711v.1084a.03543.03543,0,0,1-.01075.02539.03951.03951,0,0,1-.02636.01074h-.13672A.03542.03542,0,0,1,32.38984,13.85948Zm.00586.89942a.03313.03313,0,0,1-.00977-.0254v-.70117a.03389.03389,0,0,1,.00977-.02636.03455.03455,0,0,1,.02539-.00977h.127a.03328.03328,0,0,1,.02441.01074.03068.03068,0,0,1,.01075.02539v.70117a.03069.03069,0,0,1-.01075.0254.03328.03328,0,0,1-.02441.01074h-.127A.03546.03546,0,0,1,32.3957,14.7589Z"/><path class="g" d="M32.7912,15.0421a.03239.03239,0,0,1-.01074-.02539v-.98438a.03451.03451,0,0,1,.01074-.02636.03312.03312,0,0,1,.02539-.00977h.11817a.03675.03675,0,0,1,.02734.01074.03385.03385,0,0,1,.01074.02539v.05957a.26836.26836,0,0,1,.23633-.11035.28528.28528,0,0,1,.23047.09473.39976.39976,0,0,1,.08594.25293c.001.01172.002.03027.002.05371s-.001.042-.002.05371a.39183.39183,0,0,1-.08594.252.28589.28589,0,0,1-.23047.09571.26521.26521,0,0,1-.22754-.10547v.33789a.03357.03357,0,0,1-.03613.03515h-.12891A.03315.03315,0,0,1,32.7912,15.0421Zm.53028-.61426c.001-.00976.002-.02539.002-.04492s-.001-.03516-.002-.04492c-.00684-.13086-.06348-.19629-.169-.19629a.14926.14926,0,0,0-.127.05566.23078.23078,0,0,0-.04395.13379c-.001.01172-.002.03027-.002.05664,0,.02539.001.04492.002.05762a.1988.1988,0,0,0,.0459.126.15145.15145,0,0,0,.125.05273C33.258,14.62413,33.31464,14.5587,33.32148,14.42784Z"/><path class="g" d="M33.77949,15.04308a.02581.02581,0,0,1-.00977-.02051.05878.05878,0,0,1,.00586-.02344l.11719-.27539-.28516-.67383a.05533.05533,0,0,1-.00586-.02051.03918.03918,0,0,1,.00977-.02343.02827.02827,0,0,1,.02246-.00977h.124a.04007.04007,0,0,1,.03809.02832l.19824.48438.20019-.48438a.0469.0469,0,0,1,.042-.02832h.12011a.03092.03092,0,0,1,.02246.00879.0281.0281,0,0,1,.00879.02051.05928.05928,0,0,1-.00586.02441l-.42089.97363a.04068.04068,0,0,1-.041.02832H33.801A.0303.0303,0,0,1,33.77949,15.04308Z"/><path class="g" d="M34.52656,14.7589a.03313.03313,0,0,1-.00977-.0254v-.70019a.0351.0351,0,0,1,.03516-.03711H34.674a.03669.03669,0,0,1,.03711.03711v.06152a.25305.25305,0,0,1,.21386-.09863h.0625a.03534.03534,0,0,1,.02637.00977.03389.03389,0,0,1,.00977.02636v.1084a.03455.03455,0,0,1-.00977.02539.03534.03534,0,0,1-.02637.00977h-.11718a.13859.13859,0,0,0-.1504.15039v.40722a.03312.03312,0,0,1-.00976.0254.03724.03724,0,0,1-.02539.01074H34.552A.03546.03546,0,0,1,34.52656,14.7589Z"/><path class="g" d="M35.20234,14.69542a.34508.34508,0,0,1-.10254-.24707l-.001-.06543.001-.06543a.34194.34194,0,0,1,.10449-.24609.44481.44481,0,0,1,.53613,0,.3419.3419,0,0,1,.10449.24609c.001.01172.002.03418.002.06543,0,.03223-.001.05371-.002.06543a.34511.34511,0,0,1-.10253.24707.45464.45464,0,0,1-.54,0Zm.3916-.11035a.22573.22573,0,0,0,.0459-.14453c.001-.00977.001-.0293.001-.05762s0-.04785-.001-.05762a.23078.23078,0,0,0-.0459-.14551.15269.15269,0,0,0-.1211-.0498.15478.15478,0,0,0-.12207.0498.23072.23072,0,0,0-.04589.14551l-.001.05762.001.05762a.22567.22567,0,0,0,.04589.14453.15415.15415,0,0,0,.12207.04883A.14811.14811,0,0,0,35.59394,14.58507Z"/><path class="g" d="M36.02167,14.7589a.03316.03316,0,0,1-.00976-.0254v-.70117a.03392.03392,0,0,1,.00976-.02636.03458.03458,0,0,1,.02539-.00977h.123a.03259.03259,0,0,1,.02637.00977.03392.03392,0,0,1,.00976.02636v.06055a.3034.3034,0,0,1,.248-.11133.2778.2778,0,0,1,.21777.08887.353.353,0,0,1,.08008.24512v.418a.03316.03316,0,0,1-.00976.0254.03454.03454,0,0,1-.02637.01074h-.13379a.03722.03722,0,0,1-.02539-.01074.03313.03313,0,0,1-.00977-.0254v-.4082a.19748.19748,0,0,0-.043-.13476.15244.15244,0,0,0-.12109-.04883.159.159,0,0,0-.12207.0498.18846.18846,0,0,0-.0459.13379v.4082a.03316.03316,0,0,1-.00976.0254.03239.03239,0,0,1-.02539.01074h-.13282A.0355.0355,0,0,1,36.02167,14.7589Z"/><path class="g" d="M37.01191,14.68956a.37911.37911,0,0,1-.10352-.27051l-.00195-.03808a.42448.42448,0,0,1,.09765-.293.39941.39941,0,0,1,.543,0,.41217.41217,0,0,1,.09571.28613v.03125a.03457.03457,0,0,1-.00977.02539.03765.03765,0,0,1-.02734.00977h-.49317v.01269a.22914.22914,0,0,0,.04492.13672.13849.13849,0,0,0,.11719.05469.165.165,0,0,0,.1377-.06836.096.096,0,0,1,.02148-.02051.0737.0737,0,0,1,.02539-.00293H37.59a.03419.03419,0,0,1,.02246.00684.024.024,0,0,1,.00977.02148.13788.13788,0,0,1-.042.084.36775.36775,0,0,1-.1211.084.44941.44941,0,0,1-.18359.03516A.35914.35914,0,0,1,37.01191,14.68956Zm.42578-.375v-.00293a.21263.21263,0,0,0-.044-.14063.14739.14739,0,0,0-.11914-.05273.1448.1448,0,0,0-.11914.05273.21229.21229,0,0,0-.043.14063v.00293Z"/><path class="g" d="M38.28437,14.74425a.31585.31585,0,0,1-.13574-.11035.27211.27211,0,0,1-.04981-.14649v-.00293a.02749.02749,0,0,1,.00977-.02051.03087.03087,0,0,1,.02148-.00781h.1416a.04011.04011,0,0,1,.043.0293.16916.16916,0,0,0,.06934.09668.20846.20846,0,0,0,.11426.03125.19122.19122,0,0,0,.13671-.05078.1809.1809,0,0,0,.05469-.13965.16806.16806,0,0,0-.05469-.12988.19479.19479,0,0,0-.13671-.04981.19154.19154,0,0,0-.07325.01172.21561.21561,0,0,0-.05468.0332l-.01368.00879a.08674.08674,0,0,1-.01855.00977l-.01758.00293h-.13965a.03341.03341,0,0,1-.03222-.03223l.0498-.50684a.04328.04328,0,0,1,.01465-.03125.04775.04775,0,0,1,.03027-.01074h.55957a.0335.0335,0,0,1,.03516.03516v.10156a.03455.03455,0,0,1-.00977.02539.03236.03236,0,0,1-.02539.01074h-.42968l-.02442.24024a.36746.36746,0,0,1,.0791-.03613.382.382,0,0,1,.11621-.01368.3933.3933,0,0,1,.17871.04.32386.32386,0,0,1,.13282.11817.31816.31816,0,0,1,.0498.17773.34576.34576,0,0,1-.05078.18945.33039.33039,0,0,1-.14258.125.55371.55371,0,0,1-.42773.002Z"/><path class="g" d="M39.15741,14.67491a.46063.46063,0,0,1-.10644-.28906c-.001-.02637-.001-.07227-.001-.13672,0-.06543,0-.1123.001-.13965a.44109.44109,0,0,1,.10742-.28613.45493.45493,0,0,1,.5918,0,.44109.44109,0,0,1,.10742.28613c.002.05567.00293.10156.00293.13965s-.001.083-.00293.13672a.46058.46058,0,0,1-.10645.28906.45757.45757,0,0,1-.59375,0Zm.43555-.125a.29233.29233,0,0,0,.04883-.17187c.001-.02832.001-.07227.001-.13184s0-.10254-.001-.12988a.28921.28921,0,0,0-.04883-.169.18508.18508,0,0,0-.27734,0,.28921.28921,0,0,0-.04883.169c-.001.02734-.001.07031-.001.12988s0,.10352.001.13184a.29233.29233,0,0,0,.04883.17187.18906.18906,0,0,0,.27734,0Z"/><path class="g" d="M40.13788,14.67491a.46063.46063,0,0,1-.10644-.28906c-.001-.02637-.001-.07227-.001-.13672,0-.06543,0-.1123.001-.13965a.441.441,0,0,1,.10742-.28613.45493.45493,0,0,1,.5918,0,.44109.44109,0,0,1,.10742.28613c.002.05567.00293.10156.00293.13965s-.001.083-.00293.13672a.46058.46058,0,0,1-.10645.28906.45757.45757,0,0,1-.59375,0Zm.43555-.125a.2924.2924,0,0,0,.04883-.17187c.001-.02832.001-.07227.001-.13184s0-.10254-.001-.12988a.28929.28929,0,0,0-.04883-.169.18508.18508,0,0,0-.27734,0,.28921.28921,0,0,0-.04883.169c-.001.02734-.001.07031-.001.12988s0,.10352.001.13184a.29233.29233,0,0,0,.04883.17187.18906.18906,0,0,0,.27734,0Z"/><path class="g" d="M41.37226,14.7589a.03313.03313,0,0,1-.00977-.0254v-.70117a.03389.03389,0,0,1,.00977-.02636.03455.03455,0,0,1,.02539-.00977h.11719a.03368.03368,0,0,1,.03613.03613v.04981a.26055.26055,0,0,1,.21582-.10059.23619.23619,0,0,1,.23047.13184.27143.27143,0,0,1,.10058-.09571.28568.28568,0,0,1,.14161-.03613.25948.25948,0,0,1,.19921.083.34358.34358,0,0,1,.07715.24219v.42675a.03316.03316,0,0,1-.00976.0254.03239.03239,0,0,1-.02539.01074h-.124a.03331.03331,0,0,1-.02441-.01074.03071.03071,0,0,1-.01074-.0254v-.41406a.19264.19264,0,0,0-.04-.13574.13533.13533,0,0,0-.10254-.042.13375.13375,0,0,0-.09961.043.1886.1886,0,0,0-.041.13476v.41406a.03657.03657,0,0,1-.00878.0254.0361.0361,0,0,1-.02637.01074h-.125a.03546.03546,0,0,1-.02539-.01074.03385.03385,0,0,1-.01074-.0254v-.41406a.18859.18859,0,0,0-.04-.13476.13919.13919,0,0,0-.20118,0,.1886.1886,0,0,0-.041.13476v.41406a.03313.03313,0,0,1-.00977.0254.03239.03239,0,0,1-.02539.01074h-.127A.03546.03546,0,0,1,41.37226,14.7589Z"/><path class="g" d="M42.841,15.05284a.29353.29353,0,0,1-.11621-.10059.19609.19609,0,0,1-.03418-.09667.03328.03328,0,0,1,.01074-.02442.03905.03905,0,0,1,.02539-.00976h.13184a.04424.04424,0,0,1,.02343.00683.04617.04617,0,0,1,.01563.02442.17291.17291,0,0,0,.04883.0664.15571.15571,0,0,0,.10156.02735.14734.14734,0,0,0,.17187-.17676v-.10156a.27979.27979,0,0,1-.22753.0957A.28526.28526,0,0,1,42.76,14.67a.4132.4132,0,0,1-.084-.25586l-.001-.04.001-.04a.41613.41613,0,0,1,.085-.25586.28166.28166,0,0,1,.23145-.09668.31161.31161,0,0,1,.13867.0293.28591.28591,0,0,1,.09863.08105v-.05859a.03267.03267,0,0,1,.01074-.02637.03958.03958,0,0,1,.02637-.01074h.12207a.03328.03328,0,0,1,.02441.01074.03265.03265,0,0,1,.01075.02637l.002.7168a.34252.34252,0,0,1-.09277.25586.382.382,0,0,1-.27832.09082A.45209.45209,0,0,1,42.841,15.05284Zm.333-.5a.22766.22766,0,0,0,.04589-.13086.58507.58507,0,0,0,0-.0957.22518.22518,0,0,0-.04589-.13086.14949.14949,0,0,0-.125-.05371c-.10645,0-.16309.06543-.16895.19629l-.002.03613c0,.1543.05762.23145.1709.23145A.14892.14892,0,0,0,43.174,14.55284Z"/><path class="h" d="M13.942,25.4475S3.575,17.99273.41624,10.93389v4.877S8.48241,24.10741,13.942,25.4475Z"/><path class="i" d="M.41624,13.53283S7.10774,22.314,13.942,25.4475"/><circle class="g" cx="5.85136" cy="18.20031" r="2.51855"/><path class="b" d="M4.80488,18.18858a.03854.03854,0,0,1-.0127-.02929v-.15723a.09515.09515,0,0,1,.03809-.082l.0166-.01172.05762-.041c.11328-.082.19628-.14355.251-.18554a1.0394,1.0394,0,0,0,.126-.11328.14618.14618,0,0,0,.04492-.08985.0829.0829,0,0,0-.00977-.04492c-.00585-.01074-.02148-.01562-.04394-.01562a.07316.07316,0,0,0-.0459.01269.06733.06733,0,0,0-.02148.02441l-.01661.04a.047.047,0,0,1-.02246.02637.07356.07356,0,0,1-.03808.00781H4.84394a.03332.03332,0,0,1-.0332-.0332.34254.34254,0,0,1,.06152-.19727.39763.39763,0,0,1,.165-.13281.55653.55653,0,0,1,.2334-.04687.54805.54805,0,0,1,.33105.08984.29432.29432,0,0,1,.12207.249.32245.32245,0,0,1-.08105.21289,1.30041,1.30041,0,0,1-.2461.21l-.01074.00781h.31934a.0391.0391,0,0,1,.02832.01172.03712.03712,0,0,1,.01269.02929v.2295a.03853.03853,0,0,1-.01269.02929.0391.0391,0,0,1-.02832.01172H4.8332A.03906.03906,0,0,1,4.80488,18.18858Z"/><path class="b" d="M6.00507,18.10753a.39649.39649,0,0,1-.13476-.2793c-.00293-.042-.00391-.09473-.00391-.15918,0-.06543.001-.12012.00391-.16211a.387.387,0,0,1,.0664-.19726.37929.37929,0,0,1,.16309-.13477.633.633,0,0,1,.49219,0,.37921.37921,0,0,1,.16308.13477.387.387,0,0,1,.06641.19726c.00293.042.0039.09668.0039.16211,0,.06445-.001.11719-.0039.15918a.40035.40035,0,0,1-.13477.2793.59.59,0,0,1-.68164,0Zm.42285-.28711c.002-.0293.00293-.08008.00293-.15332s-.001-.124-.00293-.15137c-.0039-.06445-.03125-.09668-.082-.09765-.05078.001-.07812.0332-.082.09765-.00195.05469-.00293.10547-.00293.15137,0,.04394.001.09473.00293.15332.00391.06543.03125.09863.082.09863S6.424,17.88585,6.42792,17.82042Z"/><path class="b" d="M4.73749,18.87608a.27424.27424,0,0,1,.083.22168v.36035a.0322.0322,0,0,1-.00781.02149.02872.02872,0,0,1-.02149.00879H4.6496a.03093.03093,0,0,1-.02246-.00879.02727.02727,0,0,1-.00879-.02149v-.35449a.11972.11972,0,0,0-.13574-.13574H4.40546a.76481.76481,0,0,0-.01855.17578l.00976.31445a.02727.02727,0,0,1-.00879.02149.03093.03093,0,0,1-.02246.00879l-.2539-.001A.02872.02872,0,0,1,4.09,19.47862a.02957.02957,0,0,1-.00976-.02148v-.09473A.02957.02957,0,0,1,4.09,19.34093a.028.028,0,0,1,.02149-.00782h.09765v-.18847a.62784.62784,0,0,1,.01758-.17676H4.15644a.03093.03093,0,0,1-.02246-.00879.0287.0287,0,0,1-.00879-.02148v-.10254a.03093.03093,0,0,1,.00879-.02246.03478.03478,0,0,1,.02246-.00782h.334A.36929.36929,0,0,1,4.73749,18.87608Z"/><path class="b" d="M4.965,19.4796a.02516.02516,0,0,1-.00976-.02149v-.623a.02829.02829,0,0,1,.00976-.02246.03216.03216,0,0,1,.02149-.00782h.14941a.02731.02731,0,0,1,.03027.03028v.623a.0322.0322,0,0,1-.00781.02149.03093.03093,0,0,1-.02246.00879H4.98652A.02872.02872,0,0,1,4.965,19.4796Z"/><path class="b" d="M5.31269,19.1964a.0296.0296,0,0,1-.00977-.02149v-.33984a.03179.03179,0,0,1,.00977-.02246.03213.03213,0,0,1,.02148-.00782h.15039a.03216.03216,0,0,1,.02149.00782.03483.03483,0,0,1,.00781.02246v.33984a.03154.03154,0,0,1-.00781.02051.02872.02872,0,0,1-.02149.00879H5.33417A.028.028,0,0,1,5.31269,19.1964Z"/><path class="b" d="M6.10859,18.88a.32787.32787,0,0,1,.06836.22559.35605.35605,0,0,1-.08985.249.483.483,0,0,1-.22558.13476l-.04883.01465a.02215.02215,0,0,1-.02246-.00879.0317.0317,0,0,1-.00977-.02343v-.1211a.03916.03916,0,0,1,.00781-.02246.05823.05823,0,0,1,.02149-.01562l.03906-.01563a.17488.17488,0,0,0,.11817-.18555.15965.15965,0,0,0-.02637-.10546.12426.12426,0,0,0-.09766-.03028H5.81171l-.16113-.001a.02872.02872,0,0,1-.02149-.00879.03044.03044,0,0,1-.00781-.02149v-.27636a.02872.02872,0,0,1,.00879-.02149.02812.02812,0,0,1,.02051-.00879h.12988a.02872.02872,0,0,1,.02149.00879.028.028,0,0,1,.00781.02149v.13671H5.884A.28868.28868,0,0,1,6.10859,18.88Z"/><path class="b" d="M6.27851,19.4796a.02872.02872,0,0,1-.00879-.02149v-.10253a.02872.02872,0,0,1,.00879-.02149A.03029.03029,0,0,1,6.3,19.3253H6.5998v-.22168a.11912.11912,0,0,0-.13477-.13476H6.31171a.0287.0287,0,0,1-.02148-.00879.03093.03093,0,0,1-.00879-.02246v-.10254a.02829.02829,0,0,1,.00976-.02246.0315.0315,0,0,1,.02051-.00782h.15918a.39051.39051,0,0,1,.25293.07032.279.279,0,0,1,.08594.22851v.22168h.042a.03.03,0,0,1,.03027.03028v.10253a.03.03,0,0,1-.03027.03028H6.3A.03029.03029,0,0,1,6.27851,19.4796Z"/><path class="b" d="M7.0539,19.423a.29227.29227,0,0,1-.083-.22071v-.36718a.03093.03093,0,0,1,.00879-.02246.03626.03626,0,0,1,.02148-.00782h.124a.03478.03478,0,0,1,.02246.00782.03093.03093,0,0,1,.00879.02246v.36133a.12371.12371,0,0,0,.03906.0996.16164.16164,0,0,0,.1084.03321c.08984,0,.13476-.043.13574-.12793,0-.00781.001-.01856,0-.03223v-.05762A.21618.21618,0,0,0,7.4162,19.006a.06868.06868,0,0,0-.06152-.03614.16016.16016,0,0,0-.03613.00489.109.109,0,0,0-.03028.01171l-.01074.00293a.02668.02668,0,0,1-.01855-.00781.029.029,0,0,1-.00782-.01953v-.09473a.0481.0481,0,0,1,.02247-.04492.23517.23517,0,0,1,.11523-.02246.23138.23138,0,0,1,.18848.06836.34365.34365,0,0,1,.05957.21289v.126q-.01319.293-.333.293A.35492.35492,0,0,1,7.0539,19.423Z"/><circle class="e" cx="8.44673" cy="21.89091" r="1.84707"/><circle class="g" cx="8.44673" cy="21.89091" r="1.28719"/><ellipse class="j" cx="8.86211" cy="21.67827" rx="0.51843" ry="0.35126"/><ellipse class="d" cx="8.86211" cy="21.58583" rx="0.51843" ry="0.35126"/><ellipse class="j" cx="8.07874" cy="22.23672" rx="0.59755" ry="0.40486"/><ellipse class="k" cx="8.07874" cy="22.13018" rx="0.59755" ry="0.40486"/><line class="l" x1="7.98945" y1="21.72998" x2="8.26687" y2="22.51439"/><line class="m" x1="9.19188" y1="21.31518" x2="8.48241" y2="21.83186"/><polygon class="e" points="48.368 22.44 45.042 25.447 45.042 7.633 48.368 4.625 48.368 22.44"/><polygon class="g" points="48.408 4.625 3.783 4.625 0.416 7.633 45.042 7.633 48.408 4.625"/><line class="n" x1="45.93508" y1="7.88001" x2="45.93508" y2="19.81625"/><line class="n" x1="47.01107" y1="6.99076" x2="47.01107" y2="11.924"/><line class="n" x1="47.87403" y1="5.91898" x2="47.87403" y2="17.15103"/><line class="o" x1="4.39649" y1="5.20442" x2="12.35865" y2="5.20442"/><line class="o" x1="3.54364" y1="5.97897" x2="11.5058" y2="5.97897"/><line class="o" x1="2.5629" y1="6.8146" x2="10.52507" y2="6.8146"/><line class="o" x1="16.04409" y1="5.20442" x2="24.00625" y2="5.20442"/><line class="o" x1="15.19123" y1="5.97897" x2="23.1534" y2="5.97897"/><line class="o" x1="28.06238" y1="5.20442" x2="36.02455" y2="5.20442"/><line class="o" x1="27.20953" y1="5.97897" x2="35.17169" y2="5.97897"/><line class="o" x1="14.2105" y1="6.8146" x2="22.17267" y2="6.8146"/><path class="p" d="M13.63355.54209A7.0188,7.0188,0,0,1,18.536,3.13546"/><path class="p" d="M5.02249,1.14946S1.49977,1.74628.54209,3.9013"/><circle class="q" cx="14.35967" cy="8.07508" r="3.18333"/><g class="r"><path class="s" d="M11.27353,6.31316s.39531-.31308,2.506-.27848a10.89734,10.89734,0,0,1,3.66629.68585V1.73792H11.27353Z"/><circle class="t" cx="14.66884" cy="7.6326" r="0.85874"/></g><circle class="u" cx="14.35967" cy="8.07508" r="3.18333"/><path class="v" d="M17.38863,6.62107A1.29993,1.29993,0,0,0,18.92575,5.3606"/><path class="v" d="M15.91406,6.23179s1.00155.02669,1.08692-1.34"/><ellipse class="q" cx="4.95347" cy="8.07508" rx="2.94323" ry="3.18333"/><g class="w"><path class="s" d="M2.10009,6.136s.32907-.31307,2.28056-.27847a9.76862,9.76862,0,0,1,3.42619.68585V1.56073H2.10009Z"/><circle class="t" cx="5.26264" cy="7.6326" r="0.85874"/></g><ellipse class="u" cx="4.95347" cy="8.07508" rx="2.94323" ry="3.18333"/><path class="v" d="M2.98823,5.8653A1.29993,1.29993,0,0,1,1.45111,4.60483"/><path class="v" d="M4.40389,5.85875s-1.001-.04216-.99233-1.41153"/></svg>