<svg xmlns="http://www.w3.org/2000/svg" xmlns:xlink="http://www.w3.org/1999/xlink" viewBox="0 0 54.07408 42.51796"><defs><style>.a,.b{fill:#f6f6f6;}.a,.j,.l,.n{stroke:#2d2a28;}.a,.l,.n{stroke-miterlimit:10;}.a,.j,.l{stroke-width:0.84694px;}.c{fill:#c6c6c6;}.d{fill:#dadada;}.e{fill:#e30613;}.f{opacity:0.5;}.g,.h,.l,.n{fill:none;}.g,.h{stroke:#e30613;}.g,.h,.j,.n{stroke-linecap:round;}.g,.h,.j{stroke-linejoin:round;}.g{stroke-width:0.44991px;}.h{stroke-width:0.22495px;}.i{clip-path:url(#a);}.j{fill:#cc3232;}.k{fill:#2d2a28;}.m{clip-path:url(#b);}.n{stroke-width:1.588px;}</style><clipPath id="a"><circle class="a" cx="35.16786" cy="10.32594" r="4.66265"/></clipPath><clipPath id="b"><ellipse class="a" cx="21.39054" cy="10.32594" rx="4.31097" ry="4.66265"/></clipPath></defs><rect class="b" x="4.85993" y="13.20583" width="49.21415" height="29.31213"/><polygon class="c" points="0 10.951 4.86 13.206 4.86 42.518 0 40.263 0 10.951"/><polygon class="d" points="49.313 10.951 0.098 10.951 4.86 13.206 54.074 13.206 49.313 10.951"/><path class="e" d="M10.06252,20.78469a.53806.53806,0,0,0-.17383-.17285.432.432,0,0,0-.21094-.05078.32556.32556,0,0,0-.17968.06543.508.508,0,0,0-.16993.22168.97072.97072,0,0,0-.07226.4082.92061.92061,0,0,0,.06641.375A.49664.49664,0,0,0,9.5,21.855a.4263.4263,0,0,0,.24023.07226.51525.51525,0,0,0,.23243-.04883v-.40136a.07008.07008,0,0,0-.01172-.041.17567.17567,0,0,0-.06055-.03418.76.76,0,0,0-.13867-.0332V21.272H10.418v.09668q-.12891.03076-.12891.1084v.39648a1.24929,1.24929,0,0,1-.32617.20508.772.772,0,0,1-.28125.05664.7976.7976,0,0,1-.37305-.09082.69807.69807,0,0,1-.27929-.27441.84976.84976,0,0,1-.10743-.44141.98824.98824,0,0,1,.11915-.49707.81617.81617,0,0,1,.32812-.32324.97468.97468,0,0,1,.4707-.11231.73.73,0,0,1,.14649.0166,1.10243,1.10243,0,0,1,.16992.04688.52721.52721,0,0,1,.13672.07129c.00781.00586.002.02832-.01563.0664a1.14763,1.14763,0,0,1-.06836.12207.53184.53184,0,0,1-.0625.084Z"/><path class="e" d="M11.336,22.07962a.35.35,0,0,1-.041-.15332.72512.72512,0,0,1-.22265.16015.54533.54533,0,0,1-.2129.04883.30889.30889,0,0,1-.14453-.03418.28138.28138,0,0,1-.11328-.10352.3201.3201,0,0,1-.043-.166.34411.34411,0,0,1,.0293-.14649.43285.43285,0,0,1,.084-.11718.49113.49113,0,0,1,.11329-.085.86817.86817,0,0,1,.18554-.07129,2.707,2.707,0,0,1,.32422-.06543v-.15528a.223.223,0,0,0-.03906-.13867.15407.15407,0,0,0-.13086-.0498.18441.18441,0,0,0-.08008.01855.16754.16754,0,0,0-.06445.05274.14492.14492,0,0,0-.02539.08105l.002.01563c0,.01074-.02344.02539-.07422.043a1.34954,1.34954,0,0,1-.16015.04785.317.317,0,0,1-.10938.01465l-.02734-.07032a.4979.4979,0,0,1,.14648-.18847.7782.7782,0,0,1,.24414-.13575.81817.81817,0,0,1,.28321-.05078.35693.35693,0,0,1,.26171.08692.30378.30378,0,0,1,.08985.22949v.63574q0,.10254.05273.10254a.14953.14953,0,0,0,.043-.00684.7644.7644,0,0,0,.07617-.02832l.0293.09864a1.68424,1.68424,0,0,1-.22852.13183.45891.45891,0,0,1-.166.05469A.09431.09431,0,0,1,11.336,22.07962Zm-.041-.6045a1.29222,1.29222,0,0,0-.21875.04981.25748.25748,0,0,0-.10547.06152.31627.31627,0,0,0-.05859.07715.21522.21522,0,0,0-.01758.09082.15251.15251,0,0,0,.03711.11621.13091.13091,0,0,0,.084.03418.296.296,0,0,0,.1211-.0293.739.739,0,0,0,.1582-.10839Z"/><path class="e" d="M12.86135,22.08841a.37683.37683,0,0,1-.05078-.17188,1.0177,1.0177,0,0,1-.252.1748.50408.50408,0,0,1-.19922.044.32947.32947,0,0,1-.23828-.09082.42284.42284,0,0,1-.0957-.31641v-.54a.8414.8414,0,0,0-.00586-.126.0548.0548,0,0,0-.03516-.043.478.478,0,0,0-.11718-.01953v-.0918c.0957-.00879.17383-.01855.23437-.02832a1.425,1.425,0,0,0,.19531-.04883l.04493.06055v.75391a.58527.58527,0,0,0,.01757.16308.128.128,0,0,0,.05079.07813.15152.15152,0,0,0,.08593.02148.3294.3294,0,0,0,.13672-.03516.72472.72472,0,0,0,.17774-.12207V21.188a.55629.55629,0,0,0-.00977-.12109.07608.07608,0,0,0-.04492-.0498.43834.43834,0,0,0-.11914-.01758v-.0918a3.03907,3.03907,0,0,0,.4414-.07715l.04883.06055v.83105a.72309.72309,0,0,0,.00586.11231.07113.07113,0,0,0,.02344.0459.05412.05412,0,0,0,.02539.00586.3732.3732,0,0,0,.11523-.03614l.03321.09864a2.32,2.32,0,0,1-.22266.126.51422.51422,0,0,1-.1543.06055A.11293.11293,0,0,1,12.86135,22.08841Z"/><path class="e" d="M13.4551,22.09622l-.03321-.05957.69727-1.00782h-.34375a.13836.13836,0,0,0-.10937.06836.58574.58574,0,0,0-.084.208l-.09375-.02637.0332-.42968a.4771.4771,0,0,0,.09571.01758c.02734.00293.07422.0039.13672.0039h.73828l.02929.05664L13.82033,21.938h.45313a.06474.06474,0,0,0,.05273-.0332.41261.41261,0,0,0,.03711-.08887c.01172-.03613.02734-.0957.04883-.17871l.0918.02246c0,.07032-.002.15332-.00391.25-.00391.09668-.00781.15821-.01172.18653Z"/><path class="e" d="M15.0176,21.479a.61938.61938,0,0,0,.04492.22656.34577.34577,0,0,0,.11328.15332.27471.27471,0,0,0,.17188.05567.49281.49281,0,0,0,.11328-.01172.52334.52334,0,0,0,.12109-.04492,1.63394,1.63394,0,0,0,.168-.10352.16339.16339,0,0,1,.03516.03711.55162.55162,0,0,1,.0332.04785,1.71451,1.71451,0,0,1-.21289.18555.57864.57864,0,0,1-.17383.08691.718.718,0,0,1-.19336.02344.507.507,0,0,1-.27539-.07812.57612.57612,0,0,1-.19922-.22071.694.694,0,0,1-.07226-.32324.70945.70945,0,0,1,.06836-.31934.627.627,0,0,1,.20312-.23925.6064.6064,0,0,1,.16992-.08887.5625.5625,0,0,1,.19336-.03516.48538.48538,0,0,1,.27735.07422.44359.44359,0,0,1,.168.19629.67917.67917,0,0,1,.05469.27051.32826.32826,0,0,1-.08008.05664.85387.85387,0,0,1-.10547.05078Zm.44336-.14746A.057.057,0,0,0,15.5,21.3218a.04845.04845,0,0,0,.00977-.03711.38905.38905,0,0,0-.02149-.12988.27371.27371,0,0,0-.07422-.11719.192.192,0,0,0-.13476-.04882.20591.20591,0,0,0-.18164.08886.54645.54645,0,0,0-.07618.25391Z"/><path class="e" d="M16.5215,21.99954a.54949.54949,0,0,0,.13282-.03906c.0332-.01465.04882-.02832.04882-.041V20.56985c-.06445.00781-.123.0166-.18164.02637l-.01757-.1211a2.82892,2.82892,0,0,1,.34179-.05664,3.36687,3.36687,0,0,1,.3711-.02246,1.08706,1.08706,0,0,1,.35937.05371.52326.52326,0,0,1,.23828.16016.40036.40036,0,0,1,.084.25293.51274.51274,0,0,1-.08594.2959.58872.58872,0,0,1-.4707.252.70771.70771,0,0,1-.1211-.00976.498.498,0,0,1-.10351-.0293l-.041-.13867a.421.421,0,0,0,.09375.03125.42764.42764,0,0,0,.08985.00781.30739.30739,0,0,0,.15039-.03809.29086.29086,0,0,0,.11328-.11914.42835.42835,0,0,0,.043-.19824.38711.38711,0,0,0-.05274-.208.33719.33719,0,0,0-.14844-.12988.55179.55179,0,0,0-.22461-.043c-.02148,0-.05664.001-.10937.00293v1.38086c0,.0293.07422.05566.22266.08008v.09668H16.5215Z"/><path class="e" d="M18.85744,22.07962a.35164.35164,0,0,1-.03906-.15332.73194.73194,0,0,1-.22461.16015.5307.5307,0,0,1-.21289.04883.31451.31451,0,0,1-.14453-.03418.28941.28941,0,0,1-.11133-.10352.30246.30246,0,0,1-.043-.166.34411.34411,0,0,1,.0293-.14649.39435.39435,0,0,1,.084-.11718.47965.47965,0,0,1,.11133-.085.89217.89217,0,0,1,.1875-.07129,2.58531,2.58531,0,0,1,.32227-.06543v-.15528a.223.223,0,0,0-.03711-.13867.15657.15657,0,0,0-.13086-.0498.17828.17828,0,0,0-.08008.01855.14323.14323,0,0,0-.06445.05274.13128.13128,0,0,0-.02539.08105v.01563c.002.01074-.02344.02539-.07227.043a1.28085,1.28085,0,0,1-.16211.04785.30767.30767,0,0,1-.10742.01465l-.02735-.07032a.47357.47357,0,0,1,.14454-.18847.80055.80055,0,0,1,.24414-.13575.82891.82891,0,0,1,.28515-.05078.36005.36005,0,0,1,.26172.08692.30983.30983,0,0,1,.08789.22949v.63574q0,.10254.05274.10254a.162.162,0,0,0,.04492-.00684c.01562-.00488.041-.01464.07617-.02832l.02734.09864a1.55362,1.55362,0,0,1-.22656.13183.47042.47042,0,0,1-.166.05469A.09928.09928,0,0,1,18.85744,22.07962Zm-.041-.6045a1.394,1.394,0,0,0-.21875.04981.28663.28663,0,0,0-.10547.06152.26457.26457,0,0,0-.05664.07715.18882.18882,0,0,0-.01953.09082.15278.15278,0,0,0,.03906.11621.12333.12333,0,0,0,.084.03418.3033.3033,0,0,0,.1211-.0293.68991.68991,0,0,0,.15625-.10839Z"/><path class="e" d="M20.334,21.90481a1.30445,1.30445,0,0,1-.14843.13574.46758.46758,0,0,1-.127.07227.43523.43523,0,0,1-.14648.02246.40719.40719,0,0,1-.23242-.07617.55693.55693,0,0,1-.18164-.21875.75886.75886,0,0,1-.06836-.3291.70993.70993,0,0,1,.082-.334.66067.66067,0,0,1,.22851-.252.59847.59847,0,0,1,.33008-.09473.507.507,0,0,1,.12891.0166.44219.44219,0,0,1,.127.06153v-.45215a1.11362,1.11362,0,0,0-.00781-.15137.07345.07345,0,0,0-.043-.05273.41129.41129,0,0,0-.13086-.02246v-.09082a2.51094,2.51094,0,0,0,.25-.03711,1.94034,1.94034,0,0,0,.19727-.04883l.04882.04883v1.59961a.84252.84252,0,0,0,.00782.127.06978.06978,0,0,0,.02343.04883.05659.05659,0,0,0,.02735.00683.35.35,0,0,0,.11133-.03418l.03711.09571a1.91109,1.91109,0,0,1-.23438.13379.51449.51449,0,0,1-.1582.05566C20.3926,22.13528,20.35158,22.05911,20.334,21.90481Zm-.127-.8584a.31945.31945,0,0,0-.1582-.042.26335.26335,0,0,0-.22071.1084.53807.53807,0,0,0-.082.32715.58377.58377,0,0,0,.043.23437.386.386,0,0,0,.11328.15625.22737.22737,0,0,0,.14258.05469.28006.28006,0,0,0,.13281-.03418.80782.80782,0,0,0,.14844-.10937v-.57618A.35609.35609,0,0,0,20.20705,21.04641Z"/><path class="e" d="M21.46682,21.99954a.54953.54953,0,0,0,.13281-.03906c.0332-.01465.04883-.02832.04883-.041V20.6138c0-.0127-.01563-.02637-.04688-.042a.56359.56359,0,0,0-.13476-.04v-.09668h.69336v.09668a.61292.61292,0,0,0-.13477.04c-.03125.01465-.04883.02832-.04883.042v.61425l.49024-.5791c.03515-.03906.05078-.06543.05078-.08008,0-.01171-.00781-.01953-.02539-.02441a.50958.50958,0,0,0-.09375-.0127v-.09668h.59375v.09668a.68548.68548,0,0,0-.127.0254.22413.22413,0,0,0-.07812.05664l-.56445.59179.63476.67285a.17409.17409,0,0,0,.0625.04493.21836.21836,0,0,0,.07813.01367c.01367,0,.03515-.002.07031-.00586l.00781.09668c-.01172.00293-.02148.00683-.02734.00879-.07227.02441-.13477.043-.1875.05664a.51354.51354,0,0,1-.13086.02148.16124.16124,0,0,1-.06836-.01269.15415.15415,0,0,1-.05664-.044l-.62891-.78613v.64746c0,.0127.01563.02637.04688.042a.526.526,0,0,0,.13672.03809v.09668h-.69336Z"/><path class="e" d="M23.13674,21.99954a.54953.54953,0,0,0,.13281-.03906c.0332-.01465.04883-.02832.04883-.041V20.56985c-.06445.00781-.12305.0166-.18164.02637l-.01758-.1211a2.82945,2.82945,0,0,1,.3418-.05664,3.36684,3.36684,0,0,1,.37109-.02246,1.08716,1.08716,0,0,1,.35938.05371.52326.52326,0,0,1,.23828.16016.40041.40041,0,0,1,.084.25293.51274.51274,0,0,1-.08594.2959.58868.58868,0,0,1-.4707.252.70759.70759,0,0,1-.12109-.00976.4979.4979,0,0,1-.10352-.0293l-.041-.13867a.42069.42069,0,0,0,.09375.03125.42755.42755,0,0,0,.08984.00781.30733.30733,0,0,0,.15039-.03809.2908.2908,0,0,0,.11328-.11914.42822.42822,0,0,0,.043-.19824.38719.38719,0,0,0-.05273-.208.33725.33725,0,0,0-.14844-.12988.55179.55179,0,0,0-.22461-.043c-.02149,0-.05664.001-.10938.00293v1.38086c0,.0293.07422.05566.22266.08008v.09668h-.73242Z"/><path class="e" d="M24.668,21.99954a.41864.41864,0,0,0,.13476-.03418c.0293-.0166.04493-.03125.04493-.0459v-1.292a.35352.35352,0,0,0-.17969-.09571v-.09668h.36719a.11124.11124,0,0,1,.041.00684.11537.11537,0,0,1,.0332.02539c.00977.0127.02735.03711.05274.07129l.80664,1.11719v-1.042c0-.01465-.01367-.0293-.043-.04493a.4048.4048,0,0,0-.13867-.03711v-.09668h.56055v.09668a.44343.44343,0,0,0-.13477.03614c-.03125.0166-.04687.03125-.04687.0459v1.52148a.57494.57494,0,0,1-.19727-.0459.30221.30221,0,0,1-.11719-.09082l-.80664-1.11523v1.03613q0,.0205.04688.04395a.39869.39869,0,0,0,.13672.03613v.09668H24.668Z"/><path class="e" d="M27.10158,21.36087a3.68069,3.68069,0,0,1,.17383-.34375c.03906-.06934.07422-.12989.10742-.17969.03125-.04981.06836-.10449.10742-.16309l.03711-.05468a.24981.24981,0,0,1,.03907-.043c.01171-.00977.02539-.02051.043-.03321a1.82583,1.82583,0,0,1,.17579-.09472.38879.38879,0,0,1,.13867-.0459.06467.06467,0,0,1,.04492.01562.05029.05029,0,0,1,.01562.03418.057.057,0,0,1-.00585.02539.12019.12019,0,0,1-.01368.02442l-.01367.01855q-.041.063-.123.17578c-.05859.08008-.10937.15039-.15039.21094-.041.05957-.07421.11524-.10351.168l-.00586.00977.00391.00585.00585.002.01368-.00586a.26039.26039,0,0,1,.07031-.02442.43151.43151,0,0,1,.10351-.01367.33831.33831,0,0,1,.19727.0625.4427.4427,0,0,1,.13867.16114.438.438,0,0,1,.05078.20019.62025.62025,0,0,1-.04687.24316.74007.74007,0,0,1-.14063.21485.67562.67562,0,0,1-.17578.14648.43151.43151,0,0,1-.2207.06055.52909.52909,0,0,1-.20117-.041.47852.47852,0,0,1-.16211-.09961.64029.64029,0,0,1-.11719-.14941.4215.4215,0,0,1-.04883-.21484A.73.73,0,0,1,27.10158,21.36087Zm.44922.41113a.22774.22774,0,0,0,.07617.01953.2154.2154,0,0,0,.16016-.05469.20532.20532,0,0,0,.05469-.14843.27654.27654,0,0,0-.02539-.1045.24668.24668,0,0,0-.082-.0957.23883.23883,0,0,0-.29492.02148.22405.22405,0,0,0-.05859.15918.16039.16039,0,0,0,.02344.084.2143.2143,0,0,0,.06054.06933A.41163.41163,0,0,0,27.5508,21.772Z"/><path class="e" d="M28.56447,21.83548a1.118,1.118,0,0,1,.08008-.09473.09913.09913,0,0,1,.02539-.02246.02681.02681,0,0,1,.01758-.00684.09464.09464,0,0,1,.04492.0166.50668.50668,0,0,0,.0957.03516.48975.48975,0,0,0,.11719.0166.17157.17157,0,0,0,.082-.02148.18815.18815,0,0,0,.06641-.06055.16215.16215,0,0,0,.02539-.08691.14224.14224,0,0,0-.043-.09375.22.22,0,0,0-.10156-.06153.69948.69948,0,0,0-.1875-.03027.07968.07968,0,0,1-.03906-.00684.03829.03829,0,0,1-.00977-.03027.24384.24384,0,0,1,.02734-.09766.56.56,0,0,1,.07422-.12207.39881.39881,0,0,1,.09766-.09082.39436.39436,0,0,0,.0957-.07812.1579.1579,0,0,0,.0293-.09863c0-.06641-.043-.11133-.12891-.1377a.727.727,0,0,0-.14062-.02246c-.06055-.00488-.11133-.00781-.1543-.00781a.06323.06323,0,0,1-.03125-.00586.02154.02154,0,0,1-.01172-.02149.47089.47089,0,0,1,.06836-.1289.94393.94393,0,0,1,.10742-.14356.24356.24356,0,0,1,.02344-.01953.04884.04884,0,0,1,.02539-.00586,1.23212,1.23212,0,0,1,.1836.02149.93594.93594,0,0,1,.19531.04882.30122.30122,0,0,1,.13867.11036.28758.28758,0,0,1,.05469.17382.387.387,0,0,1-.04688.1875.76745.76745,0,0,1-.10742.15039.03686.03686,0,0,0-.01367.02442l.00195.01172.00781.00488.00782.00391c.00586.0039.02929.01855.07226.043a.32932.32932,0,0,1,.11524.1211.38762.38762,0,0,1,.04883.20019.54461.54461,0,0,1-.06446.25977.91052.91052,0,0,1-.16015.21094.57036.57036,0,0,1-.19336.11718.59454.59454,0,0,1-.20118.041.61121.61121,0,0,1-.16992-.02637.83669.83669,0,0,1-.17968-.07519.06.06,0,0,1-.02344-.0166.03023.03023,0,0,1-.01172-.02247.09548.09548,0,0,1,.01562-.04785A.56351.56351,0,0,1,28.56447,21.83548Z"/><path class="e" d="M30.125,21.87649c.03906-.06055.07617-.12012.11523-.17676.05274-.0791.08789-.13379.10547-.16211l.00782-.0205q0-.01173-.01758-.01172l-.03907.01172a.25336.25336,0,0,1-.07226.00976.4399.4399,0,0,1-.39649-.28222.57039.57039,0,0,1-.02734-.17774.4938.4938,0,0,1,.0293-.16016,1.03293,1.03293,0,0,1,.06836-.15527.74583.74583,0,0,1,.07031-.10547.84571.84571,0,0,1,.18164-.166.43924.43924,0,0,1,.25391-.07227.53393.53393,0,0,1,.19726.043.617.617,0,0,1,.19336.124.41356.41356,0,0,1,.10742.17285.67632.67632,0,0,1,.0293.20313.44521.44521,0,0,1-.01953.13672.72055.72055,0,0,1-.04883.13183,3.70953,3.70953,0,0,1-.18164.33106c-.07812.13184-.15039.24316-.21289.334l-.01953.02832a.39724.39724,0,0,1-.09961.11524.94243.94243,0,0,1-.13477.07226.80922.80922,0,0,1-.16015.05274l-.01758.00293a.05217.05217,0,0,1-.03516-.01074.02958.02958,0,0,1-.01367-.02539.13753.13753,0,0,1,.02149-.05274c.01562-.02344.02343-.03809.02734-.043A1.38886,1.38886,0,0,1,30.125,21.87649Zm.42969-.77637a.22114.22114,0,0,0,.02148-.09765.26685.26685,0,0,0-.02148-.09473.24856.24856,0,0,0-.06055-.085.21247.21247,0,0,0-.07617-.043.30962.30962,0,0,0-.0957-.01367.17678.17678,0,0,0-.13868.0498.21473.21473,0,0,0-.05468.15039.24855.24855,0,0,0,.03125.12989.19243.19243,0,0,0,.082.083.22484.22484,0,0,0,.11133.02832.30714.30714,0,0,0,.07812-.01075.19885.19885,0,0,0,.06445-.02832A.17991.17991,0,0,0,30.55471,21.10012Z"/><g class="f"><path class="e" d="M22.19924,17.25442a.10607.10607,0,0,0-.09375-.03809H21.3926q-.05859,0-.0586-.03515a.08057.08057,0,0,1,.00782-.0293.25669.25669,0,0,1,.01757-.04394l.01563-.03907a1.33073,1.33073,0,0,1,.07617-.14062c.0293-.04785.0586-.0918.08789-.13086a.04252.04252,0,0,1,.01758-.01367.08973.08973,0,0,1,.02734-.00489.03188.03188,0,0,1,.03125.0254.13158.13158,0,0,1,.00977.03125.14544.14544,0,0,0,.01758.03515.03851.03851,0,0,0,.03125.0127h.56836a.19628.19628,0,0,1,.15625.06445.31492.31492,0,0,1,.07031.16406c.00586.05567.01172.1416.01758.25879.0039.11719.00586.249.00586.39649a.15249.15249,0,0,1-.00586.043.52854.52854,0,0,1-.0625.1211.58519.58519,0,0,1-.08594.11035.08345.08345,0,0,1-.03711.01758.02035.02035,0,0,1-.01953-.01367.08072.08072,0,0,1-.00977-.042c-.002-.1123-.00586-.22949-.01367-.35253s-.01562-.22852-.02539-.31739A.14451.14451,0,0,0,22.19924,17.25442Zm-.70313.32715a.31012.31012,0,0,1,.01368-.03125.95831.95831,0,0,1,.05273-.0918.79721.79721,0,0,1,.06445-.08789c.01563-.0166.02735-.02734.03516-.03418a.052.052,0,0,1,.02539-.00976.02591.02591,0,0,1,.01953.00683l.00586.01367.002.00977c.00391.02344.01172.08789.01953.19531.00782.10645.01172.17774.01172.21289a.14821.14821,0,0,1-.002.03028.166.166,0,0,1-.00977.0332.43079.43079,0,0,1-.07031.12012.577.577,0,0,1-.08984.10254.02937.02937,0,0,1-.02149.00781q-.01464,0-.01757-.00879a.08317.08317,0,0,1-.00391-.02637c-.00781-.04687-.01563-.12012-.02539-.21875q-.01172-.14941-.01172-.19629A.11192.11192,0,0,1,21.49611,17.58157Z"/><path class="e" d="M22.91018,17.66848h.23242q.03516,0,.03515-.041a.9294.9294,0,0,0-.00586-.11914.75048.75048,0,0,0-.01757-.08887.59849.59849,0,0,0-.02344-.07324.29567.29567,0,0,0-.03125-.05371A.638.638,0,0,0,23,17.19094a.72835.72835,0,0,0-.15039-.09179.038.038,0,0,1-.02539-.03223.04982.04982,0,0,1,.01172-.03125c.03515-.05762.06445-.10547.08984-.14258a.74488.74488,0,0,1,.07617-.0957l.01758-.01465a.02664.02664,0,0,1,.01563-.00391.09465.09465,0,0,1,.041.01856.9168.9168,0,0,1,.17969.14258.4025.4025,0,0,1,.06641.10449.6033.6033,0,0,1,.04687.13965,1.40941,1.40941,0,0,1,.03125.2793.97.97,0,0,1-.0293.26269c-.01172.042-.02539.085-.03906.12793a.85027.85027,0,0,1-.04492.10547.085.085,0,0,1-.02734.03613.05382.05382,0,0,1-.03516.0127h-.43555a.03409.03409,0,0,1-.02148-.00782.025.025,0,0,1-.00781-.01953.64736.64736,0,0,1,.03906-.12793.92209.92209,0,0,1,.0625-.15136A.05085.05085,0,0,1,22.91018,17.66848Z"/><path class="e" d="M23.68361,17.81008a.59829.59829,0,0,1,.06055-.11523.04231.04231,0,0,1,.01953-.01562.07123.07123,0,0,1,.02149-.00293h.13671a.03167.03167,0,0,0,.02344-.00879.02713.02713,0,0,0,.00977-.01953,1.43747,1.43747,0,0,0-.03906-.1543,1.74821,1.74821,0,0,0-.07032-.22266.05008.05008,0,0,0-.03125-.03418.13135.13135,0,0,0-.05078-.00879h-.07617a.04687.04687,0,0,1-.0293-.01172.04307.04307,0,0,1-.01367-.03222.14593.14593,0,0,1,.01172-.04395,1.627,1.627,0,0,1,.08008-.17383A1.71337,1.71337,0,0,1,23.836,16.812a.067.067,0,0,1,.05273-.03125.03345.03345,0,0,1,.02735.01269.06363.06363,0,0,1,.01562.02442.15667.15667,0,0,0,.0293.05273A.05079.05079,0,0,0,24,16.88528H24.586a.1884.1884,0,0,1,.10547.03125.26406.26406,0,0,1,.07226.0752.19326.19326,0,0,1,.02539.06445c.00391.02637.00977.06445.01563.11621a4.73956,4.73956,0,0,1,.02734.48535c0,.05176-.00195.08692-.00391.10645a.15373.15373,0,0,1-.01757.05566c-.01172.02441-.03321.05762-.06055.10156-.0293.04492-.05664.085-.08594.123a.08944.08944,0,0,1-.01367.01367.04129.04129,0,0,1-.01953.00488c-.01367,0-.01953-.01367-.01953-.041,0-.08984-.00781-.209-.01953-.35742a3.27968,3.27968,0,0,0-.043-.34668.1133.1133,0,0,0-.03321-.07129.12127.12127,0,0,0-.07617-.01856h-.29883a.026.026,0,0,0-.01953.00586.01436.01436,0,0,0-.00781.0127l.00781.03222c.02149.085.03907.15625.05274.2168a.69382.69382,0,0,1,.02148.127.221.221,0,0,1-.00586.05176.33628.33628,0,0,1-.01172.05371.88034.88034,0,0,1-.03906.1211,1.43552,1.43552,0,0,1-.06055.13379.06884.06884,0,0,1-.01757.02148.0652.0652,0,0,1-.0293.00586h-.35742q-.041,0-.041-.03516l.00391-.02148A.93516.93516,0,0,1,23.68361,17.81008Z"/><path class="e" d="M25.416,18.04055a.10632.10632,0,0,1-.00977-.04589c-.00391-.082-.01172-.19141-.02539-.32911-.01172-.13769-.02344-.23437-.03125-.29a.30144.30144,0,0,0-.0293-.08007.29784.29784,0,0,0-.06054-.07618,1.43181,1.43181,0,0,0-.12891-.0996l-.02149-.01563a.0366.0366,0,0,1-.01562-.02734.056.056,0,0,1,.00781-.02735,1.06494,1.06494,0,0,1,.19336-.26074.04041.04041,0,0,1,.04492-.00195.47394.47394,0,0,1,.10743.09472.82756.82756,0,0,1,.09179.11329.69465.69465,0,0,1,.04688.09765.51074.51074,0,0,1,.02734.14942c.00781.08691.01367.19628.01367.33105,0,.0791-.002.13379-.0039.165v.02832a.20071.20071,0,0,1-.00586.03613.14159.14159,0,0,1-.01172.03614.77769.77769,0,0,1-.05664.10351.91682.91682,0,0,1-.07227.09668.0483.0483,0,0,1-.03515.02051A.02652.02652,0,0,1,25.416,18.04055Z"/><path class="e" d="M26.00393,17.67239a.09139.09139,0,0,1,.0332-.00684h.38867a.10753.10753,0,0,0,.06055-.01855.139.139,0,0,0,.04687-.05762.20454.20454,0,0,0,.01758-.08789.3103.3103,0,0,0-.03125-.14355.2375.2375,0,0,0-.08984-.09864.25252.25252,0,0,0-.13477-.03613h-.3164a.21955.21955,0,0,1-.08008-.01074.037.037,0,0,1-.02539-.03809.34.34,0,0,1,.03515-.10644c.02539-.05176.05469-.10352.08594-.15625a.55182.55182,0,0,1,.07227-.10254.17578.17578,0,0,1,.02734-.02442.0417.0417,0,0,1,.02344-.00586.0284.0284,0,0,1,.02148.0127.0702.0702,0,0,1,.01172.03027.12749.12749,0,0,0,.01758.04883.0487.0487,0,0,0,.03515.01074h.27149a.28057.28057,0,0,1,.18945.06641.402.402,0,0,1,.1211.16895.56452.56452,0,0,1,.041.209,1.06575,1.06575,0,0,1-.01367.16895.83137.83137,0,0,1-.04688.16308,1.22532,1.22532,0,0,1-.0957.18359.678.678,0,0,1-.10742.13672.12238.12238,0,0,1-.03516.02344.10818.10818,0,0,1-.04492.00684H25.8965a.05607.05607,0,0,1-.0332-.00684c-.00781-.00488-.00976-.01367-.00976-.02637a.46994.46994,0,0,1,.04687-.13379,1.08244,1.08244,0,0,1,.07227-.13964A.08594.08594,0,0,1,26.00393,17.67239Z"/><path class="e" d="M27.74221,17.28469a.22116.22116,0,0,1-.14453-.04882.31792.31792,0,0,1-.084-.126.48109.48109,0,0,1-.02539-.15918.37894.37894,0,0,1,.01758-.12207.31377.31377,0,0,1,.03906-.083.79723.79723,0,0,1,.0918-.10547A.58276.58276,0,0,1,27.75,16.5513a.19527.19527,0,0,1,.0957-.02735.177.177,0,0,1,.10742.03516.29014.29014,0,0,1,.08985.11816.38813.38813,0,0,1,.0332.15039.67084.67084,0,0,1-.01953.165.42612.42612,0,0,1-.166.23731A.233.233,0,0,1,27.74221,17.28469Zm-.12891.68262q.04688-.08789.14649-.26074c.0664-.11426.13671-.23633.21289-.36524.08007-.13085.15429-.26367.22461-.39843s.11718-.22852.14062-.28223a.13222.13222,0,0,1,.01563-.0293.12534.12534,0,0,1,.02343-.0205c.01367-.01075.03125-.02149.04883-.03321.01953-.01269.03516-.02148.04492-.02832l.01367-.00879.01172-.00586a.05024.05024,0,0,1,.02735-.00878.01281.01281,0,0,1,.01367.01367.05693.05693,0,0,1-.00391.01855l-.00586.0127c-.00976.02539-.07031.13672-.18164.332q-.167.29444-.22851.39551c-.03711.06347-.08985.15527-.1543.27636-.06641.1211-.11133.21094-.13867.27246a.18985.18985,0,0,1-.06445.09278.25354.25354,0,0,1-.0586.03808.38315.38315,0,0,1-.05859.02832l-.01367.002q-.02345,0-.02344-.02051A.0339.0339,0,0,1,27.6133,17.96731Zm.17188-.89551c.06054,0,.08984-.043.08984-.1289a.44907.44907,0,0,0-.00391-.07715.31787.31787,0,0,0-.02148-.07129A.09611.09611,0,0,0,27.75,16.732c-.02539,0-.041.01465-.05078.043a.382.382,0,0,0-.01367.11621.28643.28643,0,0,0,.02539.12891A.07733.07733,0,0,0,27.78518,17.0718Zm.55468.93653a.21311.21311,0,0,1-.14453-.04981.28943.28943,0,0,1-.084-.125.48676.48676,0,0,1-.02735-.15918.38232.38232,0,0,1,.01954-.123.33019.33019,0,0,1,.03906-.08106.66458.66458,0,0,1,.08984-.10547.56206.56206,0,0,1,.11524-.08984.15936.15936,0,0,1,.04492-.01953.17755.17755,0,0,1,.1582.02734.27361.27361,0,0,1,.08789.11719.36328.36328,0,0,1,.03516.15137.50208.50208,0,0,1-.07813.29.478.478,0,0,1-.10742.11231A.23866.23866,0,0,1,28.33986,18.00833Zm.043-.21192c.06055,0,.08985-.043.08985-.13086,0-.02929-.002-.05468-.00391-.07617a.44328.44328,0,0,0-.01953-.07129.0905.0905,0,0,0-.041-.04883.1319.1319,0,0,0-.06054-.01367.05085.05085,0,0,0-.05079.04395.37542.37542,0,0,0-.01367.11523.31688.31688,0,0,0,.02344.12891A.08257.08257,0,0,0,28.38283,17.79641Z"/><path class="e" d="M29.04494,17.67532a.06517.06517,0,0,1,.0293-.00586h.10742a.02885.02885,0,0,0,.02734-.0127.04889.04889,0,0,0,.00782-.02929c0-.05371-.002-.12989-.00391-.22949-.00391-.10059-.00781-.17383-.00977-.21973a.54.54,0,0,0-.02148-.13379.14656.14656,0,0,0-.06836-.08789.28182.28182,0,0,0-.09766-.0332c-.043-.00879-.0664-.0127-.07226-.01368a.05523.05523,0,0,1-.02344-.01367.05177.05177,0,0,1-.00586-.02734.12487.12487,0,0,1,.05274-.09082,1.29761,1.29761,0,0,1,.25976-.19238.38579.38579,0,0,1,.17188-.05079.0896.0896,0,0,1,.06445.02247.09379.09379,0,0,1,.03125.06152,1.301,1.301,0,0,1,.02148.19336q.00586.09814.00586.24316c0,.17676.00586.34473.01954.50391l.002.0459a.09212.09212,0,0,0,.01367.0498.03619.03619,0,0,0,.0332.01465H29.752a.042.042,0,0,1,.02735.01074.03686.03686,0,0,1,.01172.0293.06477.06477,0,0,1-.00391.02441.21207.21207,0,0,1-.00977.02735l-.02343.04785a.91611.91611,0,0,1-.09571.17383.07346.07346,0,0,1-.02343.0205.10874.10874,0,0,1-.03711.00489H28.9551a.07085.07085,0,0,1-.041-.00977.03079.03079,0,0,1-.01562-.02637.23649.23649,0,0,1,.02539-.08007,1.25377,1.25377,0,0,1,.05469-.11817.52058.52058,0,0,1,.04492-.0791A.0506.0506,0,0,1,29.04494,17.67532Z"/><path class="e" d="M30.05861,17.06887a1.541,1.541,0,0,1,.04883-.1875.5942.5942,0,0,1,.10547-.1914.43307.43307,0,0,1,.13477-.11035.33582.33582,0,0,1,.30468.00683.5123.5123,0,0,1,.14649.11719.59209.59209,0,0,1,.12109.24707,1.40213,1.40213,0,0,1,.03711.33691,1.16391,1.16391,0,0,1-.04687.31446.80638.80638,0,0,1-.13282.27246.586.586,0,0,1-.14257.13086.28592.28592,0,0,1-.14844.03906.365.365,0,0,1-.293-.16016.52835.52835,0,0,1-.07227-.13476,1.16681,1.16681,0,0,1-.05859-.21192,1.4404,1.4404,0,0,1-.02344-.2666A1.013,1.013,0,0,1,30.05861,17.06887Zm.55469.63672a.07447.07447,0,0,0,.03516-.03613.33594.33594,0,0,0,.02929-.09668.94784.94784,0,0,0,.00977-.13086,1.61989,1.61989,0,0,0-.01563-.18457c-.00976-.0791-.01953-.13867-.02929-.18066a.3361.3361,0,0,0-.03321-.09375.16085.16085,0,0,0-.05859-.06739.18529.18529,0,0,0-.05664-.02929.24029.24029,0,0,0-.08594-.01563.079.079,0,0,0-.05273.02149.134.134,0,0,0-.0332.06445,1.09642,1.09642,0,0,0-.01563.12207c-.00391.05078-.00586.09473-.00586.12988a1.46423,1.46423,0,0,0,.01758.23145.5154.5154,0,0,0,.04492.167.20277.20277,0,0,0,.08008.082.23194.23194,0,0,0,.10937.02637A.17027.17027,0,0,0,30.6133,17.70559Z"/><path class="e" d="M31.23635,17.06887a1.53731,1.53731,0,0,1,.04883-.1875.52868.52868,0,0,1,.10546-.1914.3935.3935,0,0,1,.13477-.11035.33082.33082,0,0,1,.14844-.03321.33792.33792,0,0,1,.15625.04.50593.50593,0,0,1,.14453.11719.59209.59209,0,0,1,.12109.24707,1.39916,1.39916,0,0,1,.03907.33691,1.17022,1.17022,0,0,1-.04883.31446.77148.77148,0,0,1-.13282.27246.62032.62032,0,0,1-.14062.13086.29091.29091,0,0,1-.14844.03906.36569.36569,0,0,1-.29492-.16016.60269.60269,0,0,1-.07031-.13476,1.15785,1.15785,0,0,1-.06055-.21192,1.44126,1.44126,0,0,1-.02344-.2666A1.016,1.016,0,0,1,31.23635,17.06887Zm.55273.63672a.07784.07784,0,0,0,.03711-.03613.2892.2892,0,0,0,.02735-.09668.94941.94941,0,0,0,.00976-.13086,1.5402,1.5402,0,0,0-.01367-.18457c-.00977-.0791-.01953-.13867-.0293-.18066a.34183.34183,0,0,0-.03515-.09375.16093.16093,0,0,0-.0586-.06739.17039.17039,0,0,0-.05469-.02929.24844.24844,0,0,0-.08593-.01563.0721.0721,0,0,0-.05274.02149.11936.11936,0,0,0-.0332.06445.73791.73791,0,0,0-.01758.12207c-.002.05078-.0039.09473-.0039.12988a1.46944,1.46944,0,0,0,.01562.23145.56245.56245,0,0,0,.04688.167.19123.19123,0,0,0,.08007.082.22646.22646,0,0,0,.10938.02637A.16657.16657,0,0,0,31.78908,17.70559Z"/><path class="e" d="M33.32424,17.22317h-.45508a.05854.05854,0,0,1-.03516-.01172.04536.04536,0,0,1-.01757-.03906.34449.34449,0,0,1,.03711-.10254,1.75146,1.75146,0,0,1,.082-.1582c.03125-.05371.05273-.08789.06445-.10352l.01758-.02246a.03329.03329,0,0,1,.02148-.00684.04508.04508,0,0,1,.03125.01856.06386.06386,0,0,1,.00781.02051l.00391.01367a.11125.11125,0,0,0,.01563.03711.04816.04816,0,0,0,.03906.01269h.25195a.02816.02816,0,0,0,.01953-.00683.22145.22145,0,0,0,.02735-.02149.18383.18383,0,0,1,.03125-.02832.173.173,0,0,1,.0957-.0459c.02148,0,.03125.01563.03125.04688v.041q0,.01464.02344.01464h.123a.04376.04376,0,0,1,.03321.01465.07909.07909,0,0,1,.01172.04688.43894.43894,0,0,1-.02539.12988.55114.55114,0,0,1-.05469.13477.04908.04908,0,0,1-.04492.01855h-.02735a.01973.01973,0,0,0-.01758.00879.03525.03525,0,0,0-.00586.01953c.00586.09766.00782.17871.00977.24316.00391.06446.00391.1377.00586.21973a.3001.3001,0,0,1-.01367.08106.54756.54756,0,0,1-.0625.127.846.846,0,0,1-.084.11914.03841.03841,0,0,1-.02734.01465c-.01758,0-.02734-.01563-.03125-.04883l-.01563-.27148c-.00976-.23731-.01953-.39844-.02929-.48438A.03412.03412,0,0,0,33.32424,17.22317Z"/><path class="e" d="M34.13479,17.67434a.04953.04953,0,0,1,.03125-.00879h.48242c.02929,0,.043-.01562.043-.04882,0-.0293-.00391-.07227-.00977-.12891a.9579.9579,0,0,0-.0293-.14453.26438.26438,0,0,0-.05468-.08887.366.366,0,0,0-.08594-.06934.61646.61646,0,0,0-.10156-.05078.23464.23464,0,0,0-.07422-.01855c-.00977,0-.01758.00586-.02344.01855a.09748.09748,0,0,0-.00977.041.11074.11074,0,0,0,.02344.06152.1622.1622,0,0,0,.0625.05176.05371.05371,0,0,1,.0293.01758.02831.02831,0,0,1,.01172.02051l-.00391.01269-.00586.01074a.66889.66889,0,0,1-.05859.10059.70667.70667,0,0,1-.06055.08887.05271.05271,0,0,1-.01562.01367.057.057,0,0,1-.01954.00488.10206.10206,0,0,1-.03906-.01855.656.656,0,0,1-.08008-.06348A.27255.27255,0,0,1,34.086,17.399a.20366.20366,0,0,1-.02735-.1084.423.423,0,0,1,.05469-.1914.973.973,0,0,1,.12109-.16992.76425.76425,0,0,1,.14063-.13184l.01172-.00879a.05443.05443,0,0,1,.0293-.00781.338.338,0,0,1,.09179.02734,1.17863,1.17863,0,0,1,.14258.06836.66529.66529,0,0,1,.11328.07617.52462.52462,0,0,1,.05664.0586.315.315,0,0,1,.04688.08007.47808.47808,0,0,1,.03125.124,2.31032,2.31032,0,0,1,.02148.32812.53044.53044,0,0,1-.02539.16309c-.01367.0459-.03125.0957-.05273.15039a.65466.65466,0,0,1-.06446.12891.07463.07463,0,0,1-.01757.01757.06921.06921,0,0,1-.0254.00489h-.70312c-.02539,0-.03906-.00879-.03906-.02735a.40418.40418,0,0,1,.041-.13281.99955.99955,0,0,1,.08008-.14941A.07568.07568,0,0,1,34.13479,17.67434Z"/><path class="e" d="M35.68752,17.3013a.2834.2834,0,0,0-.20117-.07325h-.30469a.05675.05675,0,0,1-.03125-.00781.02534.02534,0,0,1-.01172-.02051.32109.32109,0,0,1,.0332-.11816,1.22557,1.22557,0,0,1,.08008-.16016.7127.7127,0,0,1,.08789-.12109l.01563-.01563.01367-.00586a.03142.03142,0,0,1,.01953.00489.0263.0263,0,0,1,.00977.01758.17135.17135,0,0,0,.02148.06152.0421.0421,0,0,0,.0332.02051h.22071a.33717.33717,0,0,1,.1914.05761.31153.31153,0,0,1,.1211.14747,1.00224,1.00224,0,0,1,.04687.23828c.00782.10058.01367.18652.01367.25781a1.22636,1.22636,0,0,1-.00781.16406.66554.66554,0,0,1-.05664.13379,1.76254,1.76254,0,0,1-.0918.15332.11754.11754,0,0,1-.01953.01953.03147.03147,0,0,1-.01757.00586c-.01954,0-.03125-.02441-.03321-.07129-.002-.02734-.0039-.06738-.0039-.12011-.00391-.08692-.00782-.15918-.01172-.21485s-.00977-.10742-.01758-.15625A.33546.33546,0,0,0,35.68752,17.3013Z"/><path class="e" d="M36.45314,17.73977l.01368-.04492c.01367-.04883.02734-.10059.03906-.15625a.68026.68026,0,0,0,.01758-.13184.22253.22253,0,0,0-.01758-.083.63552.63552,0,0,0-.05274-.09668,1.027,1.027,0,0,0-.07812-.11133l-.00586-.00781-.00586-.00977-.002-.00976a.056.056,0,0,1,.00781-.02735.90665.90665,0,0,1,.07227-.11621c.03515-.05273.07226-.10352.11132-.15137.002-.00488.00782-.00781.01368-.01074l.01367-.00391a.046.046,0,0,1,.02929.01856.76331.76331,0,0,1,.07813.11719.9754.9754,0,0,1,.05664.11816c.00977.02734.01758.06152.02734.10059a.51939.51939,0,0,1,.01368.0664l.002.002.002.001a.01.01,0,0,0,.00977-.00781l.01172-.02441c.02539-.05762.05078-.10743.07422-.15039a.39519.39519,0,0,1,.07031-.10059.35371.35371,0,0,1,.0957-.06641.2899.2899,0,0,1,.11133-.0205.30589.30589,0,0,1,.1543.042.38779.38779,0,0,1,.13086.125.80425.80425,0,0,1,.12109.48144c0,.06934-.00391.127-.00781.17285a.71213.71213,0,0,1-.043.16309.948.948,0,0,1-.07227.15625.07607.07607,0,0,1-.02734.02832.09425.09425,0,0,1-.041.00684h-.58008a.05716.05716,0,0,1-.03125-.00684.03309.03309,0,0,1-.00976-.02637.07089.07089,0,0,1,.00586-.02148c.0039-.01074.00976-.02148.01367-.0332.01953-.04.041-.084.06836-.13086a.73546.73546,0,0,1,.06445-.1045.07957.07957,0,0,1,.01953-.01562.07255.07255,0,0,1,.02735-.00391h.33984c.02149,0,.03125-.00683.03125-.02246a.557.557,0,0,0-.00586-.084c-.0039-.02539-.00976-.0625-.01758-.10938a.76913.76913,0,0,0-.03125-.09961.37072.37072,0,0,0-.04882-.08789.22906.22906,0,0,0-.084-.06152.2588.2588,0,0,0-.10547-.02246.21315.21315,0,0,0-.13867.04492.456.456,0,0,0-.10156.13672,1.9042,1.9042,0,0,0-.11524.29785l-.00781.03027a.21313.21313,0,0,1-.01758.04493,1.02385,1.02385,0,0,1-.09179.1416,1.27082,1.27082,0,0,1-.123.14648.059.059,0,0,1-.03906.02051l-.01172-.00586-.00391-.01367A2.78141,2.78141,0,0,1,36.45314,17.73977Z"/></g><g class="f"><path class="e" d="M23.61916,25.9263a.5339.5339,0,0,0,.11523-.03418q.041-.01905.041-.03516v-1.165c-.05469.00684-.10742.01465-.15625.02344l-.01562-.10547a2.807,2.807,0,0,1,.29492-.04883,2.86146,2.86146,0,0,1,.32031-.01855.92467.92467,0,0,1,.30859.0459.4289.4289,0,0,1,.20508.13769.33883.33883,0,0,1,.07422.21875.44052.44052,0,0,1-.07422.25488.49888.49888,0,0,1-.1875.16309.48306.48306,0,0,1-.21875.05469.71592.71592,0,0,1-.10351-.00782.34928.34928,0,0,1-.08985-.02636l-.03515-.11914a.37057.37057,0,0,0,.08007.02734.38163.38163,0,0,0,.07813.00684.25369.25369,0,0,0,.12891-.03321.24814.24814,0,0,0,.09765-.10254.351.351,0,0,0,.03711-.17089.34281.34281,0,0,0-.04492-.17969.29452.29452,0,0,0-.12891-.11231.471.471,0,0,0-.19336-.03711c-.01757,0-.04882.001-.09375.002V25.857c0,.02539.06446.04785.19141.06934v.083h-.63086Z"/><path class="e" d="M25.26174,25.95852a.65123.65123,0,0,1-.22461-.24511.7764.7764,0,0,1-.084-.3711.90514.90514,0,0,1,.09375-.418.68881.68881,0,0,1,.625-.38183.88409.88409,0,0,1,.23633.03222.52161.52161,0,0,1,.17774.08106c.00586.00488.002.02441-.01367.05859a.95277.95277,0,0,1-.05469.10938.37617.37617,0,0,1-.05078.07422l-.07422-.01563a.32838.32838,0,0,0-.29492-.19043.2921.2921,0,0,0-.168.05859.40569.40569,0,0,0-.13477.19336.95918.95918,0,0,0-.05469.35645.69468.69468,0,0,0,.0625.30859.4409.4409,0,0,0,.15821.18555.379.379,0,0,0,.20312.06152.54037.54037,0,0,0,.17774-.03711.732.732,0,0,0,.207-.127.21416.21416,0,0,1,.041.05274.15844.15844,0,0,1,.01758.02441.77476.77476,0,0,1-.55078.27441A.56018.56018,0,0,1,25.26174,25.95852Z"/><path class="e" d="M26.5176,26.01223a.67618.67618,0,0,1-.19531-.08007c-.00586-.00293-.00782-.01661-.01172-.04-.002-.02344-.00391-.05274-.00391-.08594,0-.042.002-.084.00586-.127a.63457.63457,0,0,1,.01758-.10645l.082.00586a.55.55,0,0,0,.14844.21875.31562.31562,0,0,0,.21093.083.34332.34332,0,0,0,.13086-.02539.22583.22583,0,0,0,.09571-.07715.19519.19519,0,0,0,.03711-.12012.23326.23326,0,0,0-.04493-.1416.36471.36471,0,0,0-.11132-.09961c-.04493-.02637-.10352-.05664-.17969-.0918a2.02191,2.02191,0,0,1-.20117-.10449.45309.45309,0,0,1-.127-.12109.308.308,0,0,1-.05468-.18164.30093.30093,0,0,1,.05859-.166.42712.42712,0,0,1,.17578-.14844.62036.62036,0,0,1,.28906-.06054.87651.87651,0,0,1,.23047.02929.32519.32519,0,0,1,.15039.0752l.00391.01074a.23035.23035,0,0,1-.01953.06543.5045.5045,0,0,1-.043.08594.26666.26666,0,0,1-.03906.05664l-.07618-.00684a.30658.30658,0,0,0-.11718-.1416.28533.28533,0,0,0-.14844-.04492.25609.25609,0,0,0-.11914.02539.16019.16019,0,0,0-.07227.06348.16781.16781,0,0,0-.02148.08593.15473.15473,0,0,0,.03906.10645.36973.36973,0,0,0,.09961.083c.03906.02343.09375.05176.16211.08593a2.50363,2.50363,0,0,1,.2207.1211.5195.5195,0,0,1,.14063.13672.33088.33088,0,0,1,.06055.20019.41194.41194,0,0,1-.06446.21485.50439.50439,0,0,1-.1914.17773.64.64,0,0,1-.31055.07031A.85266.85266,0,0,1,26.5176,26.01223Z"/><path class="e" d="M28.166,25.6763a.0684.0684,0,0,1,.03125-.00586h.10742a.03093.03093,0,0,0,.02734-.0127.06829.06829,0,0,0,.00781-.0293c0-.05371-.002-.12988-.00586-.22949-.0039-.10058-.00586-.17383-.00976-.21972a.54379.54379,0,0,0-.01953-.13379.14966.14966,0,0,0-.07032-.08789.26928.26928,0,0,0-.0957-.03321c-.043-.00879-.06836-.01269-.07226-.01367a.03724.03724,0,0,1-.03125-.041.12487.12487,0,0,1,.05273-.09083,1.29806,1.29806,0,0,1,.25977-.19238.39264.39264,0,0,1,.17187-.05078.09459.09459,0,0,1,.06641.02246.10168.10168,0,0,1,.02929.06153,1.63022,1.63022,0,0,1,.02344.19335c.002.06543.00391.14649.00391.24317,0,.17676.00781.34473.01953.5039l.00391.0459a.11868.11868,0,0,0,.01171.04981.04236.04236,0,0,0,.03516.01465h.16016a.04318.04318,0,0,1,.02929.01074.03682.03682,0,0,1,.01172.0293.17243.17243,0,0,1-.0039.02441.19131.19131,0,0,1-.01172.02734l-.02149.04785a1.04612,1.04612,0,0,1-.0957.17383.07353.07353,0,0,1-.02344.02051.11716.11716,0,0,1-.03711.00488h-.64258a.0709.0709,0,0,1-.041-.00976.02724.02724,0,0,1-.01563-.02637.2693.2693,0,0,1,.02344-.08008c.01758-.03808.03516-.07812.05469-.11816.02148-.04.03711-.06641.04492-.0791A.06477.06477,0,0,1,28.166,25.6763Z"/><path class="e" d="M29.18166,25.06985a1.53914,1.53914,0,0,1,.04883-.1875.52874.52874,0,0,1,.10547-.19141.39371.39371,0,0,1,.13476-.11035.33084.33084,0,0,1,.14844-.0332.33792.33792,0,0,1,.15625.04.50579.50579,0,0,1,.14453.11719.5921.5921,0,0,1,.1211.24707,1.39917,1.39917,0,0,1,.03906.33691,1.17015,1.17015,0,0,1-.04883.31445.77147.77147,0,0,1-.13281.27246.61987.61987,0,0,1-.14063.13086.29082.29082,0,0,1-.14844.03907.36573.36573,0,0,1-.29492-.16016.603.603,0,0,1-.07031-.13477,1.15773,1.15773,0,0,1-.06055-.21191,1.44136,1.44136,0,0,1-.02343-.2666A1.0159,1.0159,0,0,1,29.18166,25.06985Zm.55273.63672a.07794.07794,0,0,0,.03711-.03613.28928.28928,0,0,0,.02735-.09668.948.948,0,0,0,.00976-.13086,1.538,1.538,0,0,0-.01367-.18457c-.00976-.0791-.01953-.13867-.0293-.18067a.34175.34175,0,0,0-.03515-.09375.1609.1609,0,0,0-.0586-.06738.17041.17041,0,0,0-.05468-.0293.24877.24877,0,0,0-.08594-.01562.07212.07212,0,0,0-.05273.02148.11937.11937,0,0,0-.03321.06446.73775.73775,0,0,0-.01758.12207c-.002.05078-.0039.09472-.0039.12988a1.46939,1.46939,0,0,0,.01562.23144.56283.56283,0,0,0,.04688.167.1912.1912,0,0,0,.08008.082.22641.22641,0,0,0,.10937.02636A.16658.16658,0,0,0,29.73439,25.70657Z"/><path class="e" d="M30.35744,25.06985a1.53914,1.53914,0,0,1,.04883-.1875.52874.52874,0,0,1,.10547-.19141.39371.39371,0,0,1,.13476-.11035.33087.33087,0,0,1,.14844-.0332.33789.33789,0,0,1,.15625.04.50579.50579,0,0,1,.14453.11719.592.592,0,0,1,.1211.24707,1.39917,1.39917,0,0,1,.03906.33691,1.17015,1.17015,0,0,1-.04883.31445.77147.77147,0,0,1-.13281.27246.61987.61987,0,0,1-.14063.13086.29081.29081,0,0,1-.14843.03907.36574.36574,0,0,1-.29493-.16016.603.603,0,0,1-.07031-.13477,1.15773,1.15773,0,0,1-.06055-.21191,1.44136,1.44136,0,0,1-.02343-.2666A1.0159,1.0159,0,0,1,30.35744,25.06985Zm.55274.63672a.078.078,0,0,0,.03711-.03613.28954.28954,0,0,0,.02734-.09668.948.948,0,0,0,.00976-.13086,1.538,1.538,0,0,0-.01367-.18457c-.00976-.0791-.01953-.13867-.02929-.18067a.3421.3421,0,0,0-.03516-.09375.161.161,0,0,0-.05859-.06738.1706.1706,0,0,0-.05469-.0293.24877.24877,0,0,0-.08594-.01562.07212.07212,0,0,0-.05273.02148.11937.11937,0,0,0-.03321.06446.73683.73683,0,0,0-.01757.12207c-.002.05078-.00391.09472-.00391.12988a1.47059,1.47059,0,0,0,.01562.23144.56283.56283,0,0,0,.04688.167.1912.1912,0,0,0,.08008.082.22641.22641,0,0,0,.10937.02636A.16668.16668,0,0,0,30.91018,25.70657Z"/><path class="e" d="M32.17385,25.687a.02306.02306,0,0,1,.01562-.00391.10341.10341,0,0,1,.041.00879.6738.6738,0,0,0,.09765.03223.38682.38682,0,0,0,.10157.01465.13838.13838,0,0,0,.10742-.042.1344.1344,0,0,0,.041-.09765.19329.19329,0,0,0-.01757-.0791.1367.1367,0,0,0-.04493-.06153.14317.14317,0,0,0-.06054-.02441.69128.69128,0,0,0-.10156-.00586h-.16016a.08082.08082,0,0,1-.05274-.01563.07953.07953,0,0,1-.02539-.05273,1.53867,1.53867,0,0,1-.02148-.18359c-.002-.05957-.00391-.14942-.00391-.27051a.316.316,0,0,1,.02539-.11231.63241.63241,0,0,1,.06446-.13183.47942.47942,0,0,1,.084-.10157.04513.04513,0,0,1,.02735-.01367.02088.02088,0,0,1,.01757.00684l.00782.01367.0039.00879a.06745.06745,0,0,0,.07813.05664h.43164a.09131.09131,0,0,1,.04492.00879.03758.03758,0,0,1,.01367.03418.41749.41749,0,0,1-.03515.13867.7126.7126,0,0,1-.06446.1377.04693.04693,0,0,1-.02734.02441.19434.19434,0,0,1-.06055.00586H32.4258a.04578.04578,0,0,0-.0293.00781.034.034,0,0,0-.00976.02735c0,.01074.00195.02636.00195.04589.002.01954.00391.03418.00391.043a.02446.02446,0,0,0,.00586.01953.06888.06888,0,0,0,.02929.00489h.084a.409.409,0,0,1,.0625.00781.56313.56313,0,0,1,.0918.02734.28109.28109,0,0,1,.082.04688.341.341,0,0,1,.1289.27441.46218.46218,0,0,1-.02929.15918.60747.60747,0,0,1-.06641.14356.74245.74245,0,0,1-.07031.10156.46679.46679,0,0,1-.15625.12012.41047.41047,0,0,1-.168.03418.90621.90621,0,0,1-.33008-.0752.07976.07976,0,0,1-.02734-.01562.03228.03228,0,0,1-.00782-.01661.2598.2598,0,0,1,.02539-.0625,1.08272,1.08272,0,0,1,.05665-.10156.37209.37209,0,0,1,.05468-.07422A.05955.05955,0,0,1,32.17385,25.687Z"/><path class="e" d="M33.55666,24.89016a1.81065,1.81065,0,0,0-.07617.2334.92034.92034,0,0,0-.01563.166.08523.08523,0,0,1-.0039.02441.24108.24108,0,0,1-.01563.02344.80249.80249,0,0,1-.08008.084.56261.56261,0,0,1-.09961.07617.08174.08174,0,0,1-.04882.01661c-.00586,0-.01368-.00782-.02149-.02149a.18244.18244,0,0,1-.01953-.05664.31468.31468,0,0,1-.00781-.07617.52317.52317,0,0,1,.02539-.16406,1.10288,1.10288,0,0,1,.0918-.19336,1.0717,1.0717,0,0,1,.09961-.13672.79469.79469,0,0,1,.11718-.11035.20246.20246,0,0,1,.03321-.01856.12643.12643,0,0,1,.03711-.00488.02217.02217,0,0,1,.01757.00879.028.028,0,0,1,.00782.01953.11825.11825,0,0,1-.00782.03809l-.01172.02929Zm.44531.00879q-.0293.08643-.04687.13477c-.00977.03222-.01758.0625-.02344.08984a.916.916,0,0,0-.01758.166.04781.04781,0,0,1-.0039.02441.17214.17214,0,0,1-.01368.02344.81525.81525,0,0,1-.08007.083.74113.74113,0,0,1-.09766.07714.09676.09676,0,0,1-.05078.01661c-.00586,0-.01367-.00782-.02149-.02149a.18084.18084,0,0,1-.02148-.05664.31468.31468,0,0,1-.00781-.07617.52317.52317,0,0,1,.02539-.16406,1.10346,1.10346,0,0,1,.09179-.19336,1.12038,1.12038,0,0,1,.10352-.13672.70333.70333,0,0,1,.11523-.11035.11742.11742,0,0,1,.03321-.01856.10871.10871,0,0,1,.03711-.00488.02532.02532,0,0,1,.01758.00879.03109.03109,0,0,1,.00976.01953.1098.1098,0,0,1-.00976.03418.2688.2688,0,0,1-.01368.0332C34.0215,24.84915,34.01174,24.87356,34.002,24.899Z"/><path class="e" d="M34.49416,25.687a.02664.02664,0,0,1,.01563-.00391.10336.10336,0,0,1,.041.00879.76325.76325,0,0,0,.09766.03223.40078.40078,0,0,0,.10351.01465.13873.13873,0,0,0,.14649-.13965.22778.22778,0,0,0-.01563-.0791.15273.15273,0,0,0-.04492-.06153.16417.16417,0,0,0-.0625-.02441.64437.64437,0,0,0-.09961-.00586h-.16016a.09087.09087,0,0,1-.05468-.01563.08864.08864,0,0,1-.02344-.05273,1.21776,1.21776,0,0,1-.02148-.18359c-.00391-.05957-.00391-.14942-.00391-.27051a.35419.35419,0,0,1,.02344-.11231.758.758,0,0,1,.0664-.13183.476.476,0,0,1,.082-.10157.045.045,0,0,1,.0293-.01367c.00781,0,.01367.002.01563.00684l.00781.01367.0039.00879a.09847.09847,0,0,0,.02735.04492.08448.08448,0,0,0,.05078.01172h.43164a.08634.08634,0,0,1,.04492.00879.03851.03851,0,0,1,.01563.03418.4173.4173,0,0,1-.03516.13867.69952.69952,0,0,1-.06641.1377.044.044,0,0,1-.02539.02441.203.203,0,0,1-.06054.00586h-.27735a.04575.04575,0,0,0-.02929.00781c-.00586.00489-.00782.01367-.00782.02735a.43521.43521,0,0,0,.002.04589.40748.40748,0,0,1,.002.043c0,.00977.002.0166.00781.01953a.05731.05731,0,0,0,.0293.00489h.084a.47409.47409,0,0,1,.0625.00781.54447.54447,0,0,1,.08985.02734.2381.2381,0,0,1,.082.04688.34095.34095,0,0,1,.12891.27441.50972.50972,0,0,1-.02735.15918.81555.81555,0,0,1-.0664.14356.734.734,0,0,1-.07227.10156.44846.44846,0,0,1-.15625.12012.39771.39771,0,0,1-.168.03418.88884.88884,0,0,1-.32812-.0752.12754.12754,0,0,1-.0293-.01562.02865.02865,0,0,1-.00586-.01661.22174.22174,0,0,1,.02344-.0625,1.11841,1.11841,0,0,1,.05859-.10156.48744.48744,0,0,1,.05274-.07422Z"/></g><path class="e" d="M39.53127,20.90481a.14844.14844,0,0,0-.127-.05078h-.97071c-.05273,0-.07812-.0166-.07812-.04785a.10381.10381,0,0,1,.00976-.04.54407.54407,0,0,1,.02344-.06055l.02149-.05273a2.0606,2.0606,0,0,1,.10351-.19141c.041-.06543.08008-.124.1211-.17773a.05676.05676,0,0,1,.02343-.01758.09015.09015,0,0,1,.03516-.00684.0446.0446,0,0,1,.04492.03321c.002.00879.00781.02343.01367.04394a.10481.10481,0,0,0,.02344.04785.05156.05156,0,0,0,.03906.01661h.77344a.26849.26849,0,0,1,.21289.08789.39251.39251,0,0,1,.09375.22265,3.37469,3.37469,0,0,1,.02539.35156c.00391.15918.00781.33887.00781.53907a.19307.19307,0,0,1-.00781.05859.7384.7384,0,0,1-.084.16309.65444.65444,0,0,1-.11914.15039.09229.09229,0,0,1-.04883.02441.02853.02853,0,0,1-.02735-.01953.1074.1074,0,0,1-.01171-.05566c-.002-.15235-.00977-.3125-.01954-.4795s-.02148-.31054-.0332-.43066A.21879.21879,0,0,0,39.53127,20.90481Zm-.95508.44434a.26974.26974,0,0,1,.01563-.043,1.41,1.41,0,0,1,.07422-.12305.95835.95835,0,0,1,.08789-.12109.36352.36352,0,0,1,.04687-.04492.05923.05923,0,0,1,.03516-.01368.03048.03048,0,0,1,.02539.00977.03473.03473,0,0,1,.00781.01855l.002.01172c.00782.03223.01563.1211.02735.2666.01172.14454.01758.24122.01758.28809a.2441.2441,0,0,1-.00391.041.20571.20571,0,0,1-.01367.04589.65112.65112,0,0,1-.09571.16309.7708.7708,0,0,1-.12109.13965.0516.0516,0,0,1-.0293.01074q-.02051,0-.02343-.01172a.1344.1344,0,0,1-.00782-.03613c-.00976-.06348-.01953-.16309-.0332-.29785-.01172-.13477-.01758-.22363-.01758-.26563A.1041.1041,0,0,1,38.57619,21.34915Z"/><path class="e" d="M40.502,21.12844a.20739.20739,0,0,1,.00391-.041.13112.13112,0,0,1,.00976-.03418l.00977-.0293.0332-.084a.53923.53923,0,0,0,.04493-.1416.07292.07292,0,0,0-.00391-.02344.06723.06723,0,0,0-.01953-.0166,1.14549,1.14549,0,0,0-.13281-.0625.34281.34281,0,0,1-.041-.01856.06674.06674,0,0,1-.0332-.02636.10838.10838,0,0,1-.00782-.03614.23121.23121,0,0,1,.041-.08984q.041-.06738.09375-.1377a1.074,1.074,0,0,1,.08008-.09863.06745.06745,0,0,1,.02734-.02051.09939.09939,0,0,1,.0332-.00586.13267.13267,0,0,1,.05469.01368,1.72394,1.72394,0,0,1,.25391.15039,1.42287,1.42287,0,0,1,.21484.18945.10173.10173,0,0,1,.03125.05859.05139.05139,0,0,1-.0039.0166.02847.02847,0,0,0-.00586.01465c-.01368.03711-.03516.08887-.06446.15625a1.768,1.768,0,0,1-.08984.167.03194.03194,0,0,1-.02539.01465.04784.04784,0,0,1-.03125-.01172,1.01006,1.01006,0,0,0-.08984-.081.16844.16844,0,0,0-.07032-.044.01875.01875,0,0,0-.01562.00879.04164.04164,0,0,0-.00586.02344.07325.07325,0,0,0,.00195.02051l.002.02148a1.187,1.187,0,0,0,.04493.169c.01953.06152.04687.13672.08007.22656.03711.09863.05469.15039.05665.1543a.17813.17813,0,0,0,.00976.03125.14422.14422,0,0,1,.00977.04.12388.12388,0,0,1-.00391.02539.18031.18031,0,0,0-.00781.02539,1.51067,1.51067,0,0,1-.07031.18945.93137.93137,0,0,1-.07032.13184c-.01367.0166-.02343.02441-.03125.02441-.02148,0-.041-.02344-.05859-.06933l-.06445-.1836c-.05469-.15332-.09766-.27344-.125-.3584a1.71662,1.71662,0,0,1-.05664-.19824A.19768.19768,0,0,1,40.502,21.12844Z"/><path class="e" d="M41.60744,21.78274a.28714.28714,0,0,0,.01563-.08105,1.40267,1.40267,0,0,1,.01562-.17578,1.54479,1.54479,0,0,1,.02735-.17286.87613.87613,0,0,1,.07031-.207,1.21482,1.21482,0,0,1,.11719-.1914l.00585-.00879.00391-.00977c0-.0039-.00391-.00879-.00976-.01562l-.01954-.01856c-.03125-.02832-.09765-.085-.20117-.17187l-.07812-.06641a.11924.11924,0,0,1-.01953-.01953.05694.05694,0,0,1-.00391-.01856.05775.05775,0,0,1,.00391-.02246,1.68163,1.68163,0,0,1,.2207-.32226.06831.06831,0,0,1,.043-.02149.05564.05564,0,0,1,.02148.00391l.01172.00684a3.08161,3.08161,0,0,1,.38281.31054q.252.22852.48047.46c.01367.0127.02344.01856.0293.01856q.02343,0,.02344-.05274a.92342.92342,0,0,0-.00977-.14648.51949.51949,0,0,0-.03125-.125l-.01562-.03125a.17789.17789,0,0,1-.01954-.05371.06949.06949,0,0,1,.01368-.042,2.02613,2.02613,0,0,1,.12109-.1709,1.38131,1.38131,0,0,1,.14258-.16113l.01172-.00879a.02508.02508,0,0,1,.01953-.00782.01775.01775,0,0,1,.01562.00782.08962.08962,0,0,1,.01758.02246.75691.75691,0,0,1,.07422.165.631.631,0,0,1,.02539.1875.594.594,0,0,1-.01562.14257.81189.81189,0,0,1-.04688.13282,1.49375,1.49375,0,0,1-.16992.28222l-.002.01563a.02308.02308,0,0,0,.00781.01855c.05078.05078.11328.12012.1914.209.07813.08789.1211.13769.12891.14746a.06524.06524,0,0,1,.00977.02344.07631.07631,0,0,1-.00391.02148.04489.04489,0,0,0-.00586.01758,2.00229,2.00229,0,0,1-.09766.19336.89407.89407,0,0,1-.08593.13574l-.00977.00879a.03155.03155,0,0,1-.01953.00781.02591.02591,0,0,1-.01562-.00586l-.00977-.00781c-.14844-.17188-.31445-.34863-.5-.52832q-.19336-.186-.39844-.36328l-.01953-.0166a.03909.03909,0,0,0-.01953-.01075.02616.02616,0,0,0-.01563.01075.10543.10543,0,0,0-.01757.0332.65808.65808,0,0,0-.02344.10254.767.767,0,0,0-.01172.12695.21865.21865,0,0,0,.01953.11719.057.057,0,0,0,.02149.01269.07634.07634,0,0,0,.02539.00586h.168c.02539,0,.0371.01465.0371.04493a.66288.66288,0,0,1-.05664.166,1.34475,1.34475,0,0,1-.10546.20117.07615.07615,0,0,1-.07227.042h-.4043c-.01953,0-.03125-.00782-.03125-.02442a.10541.10541,0,0,1,.00977-.03125C41.584,21.85012,41.59572,21.81985,41.60744,21.78274Z"/><path class="e" d="M43.48049,21.813c.01562-.06835.03125-.13183.04687-.18847a.08955.08955,0,0,1,.04688-.0586l.01758-.01074.02539-.01367a2.03028,2.03028,0,0,0,.23242-.1543c.09375-.082.14062-.13769.14062-.16894a.57454.57454,0,0,0-.01953-.09668,1.03852,1.03852,0,0,0-.03125-.10059.32483.32483,0,0,0-.07617-.1084,1.35357,1.35357,0,0,0-.14453-.11816c-.06445-.04688-.125-.08984-.18359-.12793a.03658.03658,0,0,1-.01563-.02734.05194.05194,0,0,1,.01172-.03125,1.95307,1.95307,0,0,1,.10742-.168c.0332-.04883.07031-.09864.11328-.15137a.05466.05466,0,0,1,.02149-.02051.05008.05008,0,0,1,.02343-.00879l.01758.00586a1.19916,1.19916,0,0,1,.15235.10059.9767.9767,0,0,1,.14257.127.64137.64137,0,0,1,.07618.12012.84381.84381,0,0,1,.05273.14062c.01758.06348.03711.1543.05664.27051s.03711.24317.05469.37988l.00586.05274a.53912.53912,0,0,1,.00586.05664.22492.22492,0,0,1-.00781.07031,1.23248,1.23248,0,0,1-.04883.19043,1.92866,1.92866,0,0,1-.07032.19238.063.063,0,0,1-.02148.02344.04954.04954,0,0,1-.02539.00879.026.026,0,0,1-.01953-.00879.03649.03649,0,0,1-.01172-.02148c-.01172-.06446-.03125-.15528-.05664-.27442s-.04492-.21-.05664-.27148l-.00391-.00879-.0039-.00488c-.00977,0-.01758.00879-.02344.02734a.92373.92373,0,0,1-.03516.125c-.01562.05078-.02734.085-.03515.10352a.42761.42761,0,0,1-.043.08886.40342.40342,0,0,1-.0625.0752.80414.80414,0,0,1-.17188.11328.42018.42018,0,0,1-.15429.05664.07089.07089,0,0,1-.041-.00879.03308.03308,0,0,1-.01172-.02929A.77793.77793,0,0,1,43.48049,21.813Z"/><path class="e" d="M45.66018,21.40872c.03515-.06055.0625-.11231.082-.15332a.24763.24763,0,0,0,.02929-.10059.26768.26768,0,0,0-.07031-.19726.84483.84483,0,0,0-.09765-.08789c-.03321-.02833-.07618-.06055-.127-.09571-.00586-.00586-.02344-.01758-.05078-.03711a.43643.43643,0,0,1-.0625-.05176.08009.08009,0,0,1-.02148-.04.10253.10253,0,0,1,.01757-.04493.934.934,0,0,1,.11133-.16015,1.49671,1.49671,0,0,1,.13086-.15039.22415.22415,0,0,1,.03125-.02246.048.048,0,0,1,.01953-.00489.04726.04726,0,0,1,.02539.00782,1.63884,1.63884,0,0,1,.22071.16113,1.20382,1.20382,0,0,1,.1914.19043.62.62,0,0,1,.06836.11914.35224.35224,0,0,1,.02344.13183.54949.54949,0,0,1-.03906.19239,1.02883,1.02883,0,0,1-.08985.17676.66272.66272,0,0,1-.16992.18261.89958.89958,0,0,1-.22656.12793.13377.13377,0,0,1-.03711.0127c-.01758,0-.02539-.00781-.02539-.02344l.00391-.01367C45.6133,21.49466,45.63479,21.45462,45.66018,21.40872Z"/><path class="e" d="M47.11135,20.86282h-.61524a.07407.07407,0,0,1-.04882-.0166.06171.06171,0,0,1-.02344-.05274.442.442,0,0,1,.05078-.13965c.03125-.06933.07031-.14062.11133-.21386a1.06091,1.06091,0,0,1,.08789-.14063.13428.13428,0,0,1,.02344-.03125.04742.04742,0,0,1,.02929-.00879.05841.05841,0,0,1,.041.02442.06857.06857,0,0,1,.01172.02734.04326.04326,0,0,0,.00586.01856.16447.16447,0,0,0,.02148.05175.06649.06649,0,0,0,.05273.01661h.3418a.05025.05025,0,0,0,.02735-.00879.30046.30046,0,0,0,.03515-.03028.40145.40145,0,0,1,.043-.03808.2476.2476,0,0,1,.12891-.06153c.02929,0,.04492.02051.04492.06348v.05469c0,.01367.00976.02051.03125.02051h.166a.05746.05746,0,0,1,.04493.0205.0973.0973,0,0,1,.01757.0625.68238.68238,0,0,1-.0332.17774.97154.97154,0,0,1-.07617.18261c-.00977.01661-.0293.02442-.06055.02442h-.03711a.02418.02418,0,0,0-.02343.01269.04585.04585,0,0,0-.00782.02637c.00586.13281.00977.24317.01367.33106.002.08691.00391.18652.00586.29785a.312.312,0,0,1-.01953.10937.64569.64569,0,0,1-.084.17285,1.12918,1.12918,0,0,1-.11328.16309.05769.05769,0,0,1-.03711.01953c-.02344,0-.03906-.02148-.043-.0664L47.2051,21.563c-.01563-.32226-.0293-.542-.043-.6582A.04477.04477,0,0,0,47.11135,20.86282Z"/><path class="e" d="M48.21486,21.4761a.0702.0702,0,0,1,.043-.01172h.6543c.03906,0,.05859-.02246.05859-.0664a1.48544,1.48544,0,0,0-.01367-.17676,1.28683,1.28683,0,0,0-.03906-.19629.34291.34291,0,0,0-.07617-.12012.49818.49818,0,0,0-.11524-.09473.82646.82646,0,0,0-.13867-.06835.33081.33081,0,0,0-.09961-.0254.03763.03763,0,0,0-.0332.0254.1336.1336,0,0,0-.01172.05664.14888.14888,0,0,0,.0332.082.1858.1858,0,0,0,.084.07031.10752.10752,0,0,1,.03906.02441.04045.04045,0,0,1,.01367.02832.0305.0305,0,0,1-.00391.01758l-.00585.01367c-.01563.03223-.043.07813-.08008.1377a1.13871,1.13871,0,0,1-.082.12012.05332.05332,0,0,1-.02344.01757.05668.05668,0,0,1-.02735.00684.14666.14666,0,0,1-.05078-.02441.93142.93142,0,0,1-.10937-.08594.42486.42486,0,0,1-.084-.10547.302.302,0,0,1-.03711-.14648.59185.59185,0,0,1,.07422-.25977,1.31868,1.31868,0,0,1,.166-.23144,1.03217,1.03217,0,0,1,.19141-.17969l.01562-.01172a.07085.07085,0,0,1,.041-.00977.41812.41812,0,0,1,.125.03711,1.68544,1.68544,0,0,1,.1914.0918.82035.82035,0,0,1,.1543.10449.74142.74142,0,0,1,.07812.0791.45371.45371,0,0,1,.0625.1084.69583.69583,0,0,1,.043.169,3.0024,3.0024,0,0,1,.0293.44531.80982.80982,0,0,1-.0332.22266c-.01953.06152-.04493.12988-.07422.2041a.86259.86259,0,0,1-.08789.17383.05186.05186,0,0,1-.02344.02441.06793.06793,0,0,1-.03516.00684h-.95507c-.03321,0-.05079-.0127-.05079-.03711a.5094.5094,0,0,1,.05664-.18067,1.43013,1.43013,0,0,1,.10547-.20215A.11432.11432,0,0,1,48.21486,21.4761Z"/><line class="g" x1="13.38232" y1="28.64193" x2="45.55169" y2="28.64193"/><line class="g" x1="17.5301" y1="30.2389" x2="41.40392" y2="30.2389"/><line class="g" x1="16.03497" y1="31.83587" x2="42.89905" y2="31.83587"/><line class="g" x1="21.34075" y1="33.43283" x2="37.59327" y2="33.43283"/><line class="g" x1="17.81948" y1="35.0298" x2="41.11454" y2="35.0298"/><rect class="e" x="25.77928" y="36.32023" width="0.37242" height="3.38902"/><rect class="e" x="26.31904" y="36.32023" width="0.18621" height="3.38902"/><rect class="e" x="31.3311" y="36.32023" width="0.18621" height="3.38902"/><rect class="e" x="26.65318" y="36.32023" width="0.76299" height="3.38902"/><rect class="e" x="29.75037" y="36.32023" width="0.76299" height="3.38902"/><rect class="e" x="27.69414" y="36.32023" width="0.38149" height="3.38902"/><rect class="e" x="30.77586" y="36.32023" width="0.38149" height="3.38902"/><rect class="e" x="28.46523" y="36.32023" width="0.19075" height="3.38902"/><rect class="e" x="28.79937" y="36.32023" width="0.19075" height="3.38902"/><rect class="e" x="32.78231" y="36.32023" width="0.37242" height="3.38902"/><rect class="e" x="29.20962" y="36.32023" width="0.37242" height="3.38902"/><rect class="e" x="31.75848" y="36.32023" width="0.19075" height="3.38902"/><rect class="e" x="32.16872" y="36.32023" width="0.37242" height="3.38902"/><line class="h" x1="24.9387" y1="40.42062" x2="33.99532" y2="40.42062"/><circle class="b" cx="35.16786" cy="10.32594" r="4.66265"/><g class="i"><path class="j" d="M30.64757,7.74524s.579-.45856,3.67055-.40788a15.96145,15.96145,0,0,1,5.37,1.00456v-7.298H30.64757Z"/><circle class="k" cx="35.60173" cy="11.16656" r="1.25781"/></g><circle class="l" cx="35.16786" cy="10.32594" r="4.66265"/><ellipse class="b" cx="21.39054" cy="10.32594" rx="4.31097" ry="4.66265"/><g class="m"><path class="j" d="M17.21119,7.48571s.482-.45856,3.34034-.40788a14.30829,14.30829,0,0,1,5.01836,1.00456V.78433h-8.3587Z"/><circle class="k" cx="21.82441" cy="11.16657" r="1.25781"/></g><ellipse class="l" cx="21.39054" cy="10.32594" rx="4.31097" ry="4.66265"/><path class="n" d="M34.13591.794a43.3398,43.3398,0,0,0,7.53962,2.92476"/><path class="n" d="M22.44965.82258s-3.8372,3.55852-7.19472,2.74736"/></svg>