<svg xmlns="http://www.w3.org/2000/svg" xmlns:xlink="http://www.w3.org/1999/xlink" viewBox="0 0 21.10687 45.32345"><defs><style>.a,.j{fill:#f6f6f6;}.a,.m,.n,.p{stroke:#2d2a28;}.a,.f,.h,.i,.m,.n,.p{stroke-miterlimit:10;}.a,.m,.n{stroke-width:0.62665px;}.b{fill:#dadada;}.c{fill:#fff;}.d{fill:#ededed;}.e{fill:#175672;}.f,.h,.i,.n,.p{fill:none;}.f{stroke:#1a6699;stroke-width:0.15281px;}.g,.m{fill:#d10588;}.h{stroke:#1ac179;stroke-width:0.09495px;}.i{stroke:#154d60;stroke-width:0.20375px;}.i,.p{stroke-linecap:round;}.k{clip-path:url(#a);}.l{fill:#2d2a28;}.o{clip-path:url(#b);}.p{stroke-width:1.17497px;}</style><clipPath id="a"><circle class="a" cx="15.14506" cy="7.50617" r="3.44991"/></clipPath><clipPath id="b"><ellipse class="a" cx="4.95117" cy="7.50617" rx="3.1897" ry="3.44991"/></clipPath></defs><path class="b" d="M20.15557,43.08209,16.939,44.93851a2.68863,2.68863,0,0,1-1.18964.36259l-.38287.02235.78822-35.63587,4.04179-2.50244a.60559.60559,0,0,1,.86489.57737V41.33767A1.99833,1.99833,0,0,1,20.15557,43.08209Z"/><path class="c" d="M2.37015,9.68759h13.924a.579.579,0,0,1,.579.579V43.66a1.66344,1.66344,0,0,1-1.66344,1.66344H3.12193A1.66344,1.66344,0,0,1,1.45849,43.66V10.59925A.91166.91166,0,0,1,2.37015,9.68759Z"/><polygon class="d" points="20.4 7.118 5.604 7.118 2.077 9.688 16.873 9.688 20.4 7.118"/><path class="e" d="M8.45442,13.86265a.062.062,0,0,1-.01465-.043V12.27281a.062.062,0,0,1,.01465-.043.04482.04482,0,0,1,.03613-.01758H8.723a.04177.04177,0,0,1,.03516.01758.06153.06153,0,0,1,.01367.043v1.54687a.06153.06153,0,0,1-.01367.043.04177.04177,0,0,1-.03516.01758H8.49055A.04482.04482,0,0,1,8.45442,13.86265Z"/><path class="e" d="M9.264,12.64c.00293.06543.01855.10351.04687.11523l.05567.02344a.0565.0565,0,0,1,.02441.02734.11514.11514,0,0,1,.00879.04492l.002.12207a.06734.06734,0,0,1-.02637.05664.08476.08476,0,0,1-.06445.01563l-.08008-.01465a.25152.25152,0,0,1-.16992-.13281.56776.56776,0,0,1-.0664-.28711v-.33789a.08131.08131,0,0,1,.0166-.043.03915.03915,0,0,1,.03222-.01758h.39746a.4608.4608,0,0,1,.38477.16211.773.773,0,0,1,.13867.45508.62844.62844,0,0,1,.002.06738.87526.87526,0,0,1-.126.50489.45318.45318,0,0,1-.39942.18066h-.374a.04838.04838,0,0,1-.03613-.0166.06368.06368,0,0,1-.01465-.043v-.2207a.069.069,0,0,1,.01465-.04493.04621.04621,0,0,1,.03613-.01757H9.431a.20757.20757,0,0,0,.16406-.07129.30661.30661,0,0,0,.07031-.2002c.001-.01562.002-.04.002-.07129s-.001-.05371-.002-.07031a.30473.30473,0,0,0-.06836-.2002.21263.21263,0,0,0-.166-.07031H9.264Z"/><path class="e" d="M10.16633,12.99742a.06455.06455,0,0,1-.01465-.044v-.68066a.062.062,0,0,1,.01465-.043.04483.04483,0,0,1,.03613-.01758h.2461a.04175.04175,0,0,1,.03515.01758.06148.06148,0,0,1,.01368.043v.68066a.0622.0622,0,0,1-.01368.042.04033.04033,0,0,1-.03515.01855h-.2461A.04688.04688,0,0,1,10.16633,12.99742Z"/><path class="e" d="M10.84406,13.44957a.66459.66459,0,0,1-.13378-.44532v-.73144a.062.062,0,0,1,.01464-.043.04485.04485,0,0,1,.03614-.01758H11.263a.50424.50424,0,0,1,.40527.14649.69854.69854,0,0,1,.13575.43164c.001.0166.002.05371.002.11328,0,.06055-.001.09863-.002.11523a.69925.69925,0,0,1-.14063.4375.5254.5254,0,0,1-.418.15039A.49792.49792,0,0,1,10.84406,13.44957Zm.585-.24512a.31017.31017,0,0,0,.05664-.19727c.001-.0166.00195-.05078.00195-.10351,0-.05078-.001-.085-.00195-.10059a.31605.31605,0,0,0-.05957-.19922.21366.21366,0,0,0-.17286-.06445H11.015v.458a.29024.29024,0,0,0,.05957.20019.21438.21438,0,0,0,.169.06543A.23981.23981,0,0,0,11.429,13.20445Z"/><path class="e" d="M12.48762,13.597a.07806.07806,0,0,1-.01563-.04785V13.307a.07893.07893,0,0,1,.01368-.0459.0724.0724,0,0,1,.03515-.03125l.06055-.03125a.3311.3311,0,0,0,.14355-.12793.45955.45955,0,0,0,.05372-.24414.37239.37239,0,0,0-.04395-.21094.19185.19185,0,0,0-.16309-.05957h-.52343a.0432.0432,0,0,1-.03614-.01855.06636.06636,0,0,1-.01464-.04395v-.22363a.05446.05446,0,0,1,.01562-.04.04729.04729,0,0,1,.03516-.01758h.59277a.43251.43251,0,0,1,.36816.15039.75612.75612,0,0,1,.11133.45215.80136.80136,0,0,1-.14746.499.76609.76609,0,0,1-.36914.27051l-.08105.0293A.03322.03322,0,0,1,12.48762,13.597Zm-.47559.42676a.06374.06374,0,0,1-.01464-.043V12.82164a.06372.06372,0,0,1,.01464-.043.0469.0469,0,0,1,.03614-.0166h.22461a.04354.04354,0,0,1,.03515.0166.0631.0631,0,0,1,.01367.043v1.15918a.06312.06312,0,0,1-.01367.043.04354.04354,0,0,1-.03515.0166h-.22461A.0469.0469,0,0,1,12.012,14.02379Z"/><path class="e" d="M13.32453,13.56578a.06372.06372,0,0,1-.01464-.043v-1.25a.062.062,0,0,1,.01464-.043.04485.04485,0,0,1,.03614-.01758h.24609a.04177.04177,0,0,1,.03516.01758.062.062,0,0,1,.01464.043v1.25a.06665.06665,0,0,1-.01464.042.04177.04177,0,0,1-.03516.01758h-.24609A.0469.0469,0,0,1,13.32453,13.56578Z"/><path class="e" d="M14.8802,12.35875a.65917.65917,0,0,1,.126.43945v.72461a.06566.06566,0,0,1-.01367.042.04176.04176,0,0,1-.03515.01758h-.53711a.04256.04256,0,0,1-.03418-.01758.0666.0666,0,0,1-.01465-.042v-.207a.06368.06368,0,0,1,.01465-.043.04443.04443,0,0,1,.03418-.0166h.2539v-.43946a.33277.33277,0,0,0-.04883-.19336.15127.15127,0,0,0-.12792-.07031h-.1543l-.167.9668a.08554.08554,0,0,1-.01563.04492.043.043,0,0,1-.03516.01758h-.22656a.04483.04483,0,0,1-.03613-.01758.0552.0552,0,0,1-.01074-.04492l.19238-.96387h-.12988a.04035.04035,0,0,1-.03516-.01855.06581.06581,0,0,1-.01367-.04395v-.2207a.062.062,0,0,1,.01465-.043.044.044,0,0,1,.03418-.01758h.63183A.41869.41869,0,0,1,14.8802,12.35875Z"/><path class="e" d="M5.51887,15.96324a.06662.06662,0,0,1-.01465-.042v-.18067a.1562.1562,0,0,1,.04883-.11914l.18262-.21875c.125-.11523.21875-.20508.2832-.26855a1.18866,1.18866,0,0,0,.14551-.17383.27694.27694,0,0,0,.0498-.14746c0-.11817-.04883-.17774-.14551-.17774a.137.137,0,0,0-.11816.05664.31559.31559,0,0,0-.05469.13965.06273.06273,0,0,1-.06738.05567H5.56867a.03751.03751,0,0,1-.03027-.01563.052.052,0,0,1-.01269-.03515.62969.62969,0,0,1,.07128-.28614.52483.52483,0,0,1,.19043-.2041.518.518,0,0,1,.28125-.07519.594.594,0,0,1,.28516.06445.42575.42575,0,0,1,.18164.18262.611.611,0,0,1-.02539.585,1.53271,1.53271,0,0,1-.2666.30273l-.16309.19824h.498a.04177.04177,0,0,1,.03516.01758.06657.06657,0,0,1,.01367.043v.25684a.07192.07192,0,0,1-.01367.042.04177.04177,0,0,1-.03516.01758H5.55305A.044.044,0,0,1,5.51887,15.96324Z"/><path class="e" d="M7.04231,15.93785a.48922.48922,0,0,1-.19532-.18457.53637.53637,0,0,1-.07031-.252.056.056,0,0,1,.0127-.03613.03609.03609,0,0,1,.02929-.01465H7.096a.06473.06473,0,0,1,.06445.0459.24374.24374,0,0,0,.07422.11524.1865.1865,0,0,0,.11523.03613.18237.18237,0,0,0,.14063-.0625.2565.2565,0,0,0,.05566-.17578.24232.24232,0,0,0-.05468-.16309.17842.17842,0,0,0-.14161-.06445.16505.16505,0,0,0-.0791.01562.27412.27412,0,0,0-.05664.042.08122.08122,0,0,1-.05176.02929H6.889a.04045.04045,0,0,1-.03028-.01562.05789.05789,0,0,1-.01269-.03809l.07324-.8418a.07622.07622,0,0,1,.02051-.05273.05835.05835,0,0,1,.04394-.01855h.80078a.04092.04092,0,0,1,.03516.0166.062.062,0,0,1,.01465.043v.24023a.06658.06658,0,0,1-.01465.042.04177.04177,0,0,1-.03516.01758H7.21223l-.02344.29492a.30019.30019,0,0,1,.10547-.06054.4831.4831,0,0,1,.1543-.02051.43411.43411,0,0,1,.23535.06836.48218.48218,0,0,1,.17676.19238.6059.6059,0,0,1,.06543.28613.64643.64643,0,0,1-.06836.30078.50327.50327,0,0,1-.2002.209.60843.60843,0,0,1-.30762.07519A.64174.64174,0,0,1,7.04231,15.93785Z"/><path class="e" d="M8.25324,15.82945a.75089.75089,0,0,1-.15527-.45508c-.00293-.08691-.00391-.16406-.00391-.2334,0-.07031.001-.15039.00391-.23925a.82582.82582,0,0,1,.07324-.32032.51691.51691,0,0,1,.19141-.22168.54074.54074,0,0,1,.30371-.082.54632.54632,0,0,1,.30469.082.519.519,0,0,1,.19238.22168.82564.82564,0,0,1,.07324.32032c.00293.04492.00489.124.00489.23925,0,.11231-.002.18946-.00489.2334a.75082.75082,0,0,1-.15527.45508.57557.57557,0,0,1-.82813,0Zm.55079-.25977a.423.423,0,0,0,.0498-.208c.00195-.0459.00391-.1211.00391-.22559,0-.10352-.002-.17676-.00391-.2207a.42835.42835,0,0,0-.0498-.20508.15078.15078,0,0,0-.1377-.0752c-.11816,0-.18066.09375-.18652.28028-.002.04394-.002.11718-.002.2207,0,.10449,0,.17969.002.22559.00586.1875.06836.28125.18652.28125A.15111.15111,0,0,0,8.804,15.56968Z"/><path class="e" d="M10.60676,15.96422a.0637.0637,0,0,1-.01465-.043v-.71c0-.18262-.07422-.27344-.22168-.27344H9.92121a.04483.04483,0,0,1-.03613-.01758.062.062,0,0,1-.01465-.043v-.206a.062.062,0,0,1,.01465-.043.04483.04483,0,0,1,.03613-.01758h.459a.532.532,0,0,1,.4082.14648.65288.65288,0,0,1,.13672.45606v.708a.0637.0637,0,0,1-.01465.043.04838.04838,0,0,1-.03613.0166h-.23242A.04354.04354,0,0,1,10.60676,15.96422Zm-.72168,0a.0637.0637,0,0,1-.01465-.043v-.70118a.06365.06365,0,0,1,.01465-.043.04686.04686,0,0,1,.03613-.01661h.23243a.04352.04352,0,0,1,.03515.01661.06308.06308,0,0,1,.01367.043v.70118a.06567.06567,0,0,1-.01367.042.04176.04176,0,0,1-.03515.01758H9.92121A.04688.04688,0,0,1,9.88508,15.96422Z"/><path class="e" d="M11.27278,15.849a.64578.64578,0,0,1-.13672-.44141v-.73632a.062.062,0,0,1,.01465-.043.044.044,0,0,1,.03418-.01758H11.39a.04485.04485,0,0,1,.03614.01758.062.062,0,0,1,.01464.043v.72461a.27716.27716,0,0,0,.06446.20019.23439.23439,0,0,0,.17773.06543c.14649,0,.22071-.085.22266-.25586.001-.0166.001-.03808.001-.06543-.001-.02734-.001-.04785-.001-.0625V15.225a.50959.50959,0,0,0-.03809-.21.11054.11054,0,0,0-.10156-.07325.21616.21616,0,0,0-.05859.00977.16941.16941,0,0,0-.04981.02441l-.01758.00489a.04233.04233,0,0,1-.03125-.01563.06534.06534,0,0,1-.01269-.04V14.7357a.1011.1011,0,0,1,.03808-.08887.3154.3154,0,0,1,.18848-.04492.34533.34533,0,0,1,.30957.1377.78868.78868,0,0,1,.09766.42578v.25195c-.01465.3916-.19629.58789-.54688.58789A.51728.51728,0,0,1,11.27278,15.849Z"/><path class="e" d="M12.95442,15.96422a.0637.0637,0,0,1-.01465-.043v-.71c0-.18262-.07422-.27344-.22266-.27344h-.29883a.04518.04518,0,0,1-.03418-.01856.0629.0629,0,0,1-.01464-.042v-.206a.062.062,0,0,1,.01464-.043.044.044,0,0,1,.03418-.01758h.31055a.55089.55089,0,0,1,.4082.13672.62554.62554,0,0,1,.13477.44922v.72461a.06573.06573,0,0,1-.01367.042.04177.04177,0,0,1-.03516.01758h-.23242A.04838.04838,0,0,1,12.95442,15.96422Z"/><path class="e" d="M13.51008,15.96422a.0637.0637,0,0,1-.01465-.043v-1.25a.062.062,0,0,1,.01465-.043.04483.04483,0,0,1,.03613-.01758h.2461a.04175.04175,0,0,1,.03515.01758.062.062,0,0,1,.01465.043v1.25a.06662.06662,0,0,1-.01465.042.04175.04175,0,0,1-.03515.01758h-.2461A.04688.04688,0,0,1,13.51008,15.96422Z"/><path class="e" d="M14.33137,15.03843c.00293.06543.01855.10352.04687.11524l.05567.02344a.05646.05646,0,0,1,.02441.02734.11514.11514,0,0,1,.00879.04492l.002.12207a.06734.06734,0,0,1-.02636.05664.08482.08482,0,0,1-.06446.01563l-.08007-.01465a.25159.25159,0,0,1-.16993-.13281.56779.56779,0,0,1-.0664-.28711v-.33789a.08131.08131,0,0,1,.0166-.043.03916.03916,0,0,1,.03223-.01758h.39746a.46079.46079,0,0,1,.38476.16211.773.773,0,0,1,.13867.45508.62834.62834,0,0,1,.002.06738.87512.87512,0,0,1-.126.50488.45314.45314,0,0,1-.39941.18067h-.374a.0484.0484,0,0,1-.03613-.0166.06375.06375,0,0,1-.01465-.043v-.22071a.06906.06906,0,0,1,.01465-.04492.04621.04621,0,0,1,.03613-.01758h.36426a.20754.20754,0,0,0,.16406-.07129.30664.30664,0,0,0,.07032-.20019c.001-.01563.002-.04.002-.07129s-.001-.05371-.002-.07031a.30471.30471,0,0,0-.06836-.2002.21265.21265,0,0,0-.166-.07031h-.167Z"/><path class="e" d="M9.72,23.23277v.41016a.03425.03425,0,0,1-.00683.02246.0227.0227,0,0,1-.01856.00879h-.0459a.02267.02267,0,0,1-.01855-.00879.03419.03419,0,0,1-.00684-.02246v-.40332c0-.15528-.06347-.23243-.19043-.23243H9.35285c-.00781.05664-.01269.10352-.01562.14161a1.02931,1.02931,0,0,0-.00391.12695l.002.36719a.03478.03478,0,0,1-.00782.02246.02087.02087,0,0,1-.01757.00879l-.1543-.00293a.02406.02406,0,0,1-.01856-.00879A.03842.03842,0,0,1,9.1302,23.64V23.6A.04083.04083,0,0,1,9.137,23.5775a.02406.02406,0,0,1,.01856-.00879l.085.002V23.2816q0-.085.00293-.14356a1.05133,1.05133,0,0,1,.01855-.13086H9.20246a.025.025,0,0,1-.01855-.00781.03157.03157,0,0,1-.00684-.02148v-.043a.03366.03366,0,0,1,.00684-.02344.025.025,0,0,1,.01855-.00781h.23633Q9.72,22.90367,9.72,23.23277Z"/><path class="e" d="M10.19563,23.64683a.02565.02565,0,0,1-.00782.01953.02232.02232,0,0,1-.0166.00782h-.2959a.024.024,0,0,1-.01855-.00879.03425.03425,0,0,1-.00684-.02246V23.6a.03425.03425,0,0,1,.00684-.02246.024.024,0,0,1,.01855-.00879h.21778l-.01758-.34278a1.13361,1.13361,0,0,0-.01172-.1289.13223.13223,0,0,0-.02637-.06641.07985.07985,0,0,0-.06543-.02637H9.9261a.02006.02006,0,0,1-.01758-.00781.03039.03039,0,0,1-.00781-.02148v-.043a.03483.03483,0,0,1,.00781-.02246.02087.02087,0,0,1,.01758-.00879H9.972a.1775.1775,0,0,1,.12207.03808.20621.20621,0,0,1,.0586.10645,1.02376,1.02376,0,0,1,.02148.17676l.02149.4209Z"/><path class="e" d="M10.34309,23.66539a.03483.03483,0,0,1-.00781-.02246V23.599a.03385.03385,0,0,1,.00781-.02344.025.025,0,0,1,.01855-.00781h.15821a.16661.16661,0,0,0,.1416-.05957.30291.30291,0,0,0,.0498-.17285c.001-.0127.001-.02832.001-.04688s0-.0332-.001-.04589a.28544.28544,0,0,0-.0498-.17383.16874.16874,0,0,0-.1416-.0586h-.15821a.02267.02267,0,0,1-.01855-.00879.03481.03481,0,0,1-.00781-.02246v-.04394a.03385.03385,0,0,1,.00781-.02344.025.025,0,0,1,.01855-.00781h.16309a.24905.24905,0,0,1,.209.08594.40409.40409,0,0,1,.07227.24707c.001.01269.001.03027.001.05175s0,.03907-.001.05274a.40411.40411,0,0,1-.07227.24707.24905.24905,0,0,1-.209.08594h-.16309A.02267.02267,0,0,1,10.34309,23.66539Z"/><path class="e" d="M11.38313,23.66539a.03478.03478,0,0,1-.00782-.02246v-.40332c0-.15528-.0625-.23243-.18945-.23243h-.20508a.025.025,0,0,1-.01855-.00781.03217.03217,0,0,1-.00781-.02148v-.043a.03385.03385,0,0,1,.00781-.02344.025.025,0,0,1,.01855-.00781h.21094q.28125,0,.28125.332v.40723a.03425.03425,0,0,1-.00683.02246.0227.0227,0,0,1-.01856.00879h-.04687A.02218.02218,0,0,1,11.38313,23.66539Zm-.4209,0a.03483.03483,0,0,1-.00781-.02246V23.1898a.03483.03483,0,0,1,.00781-.02246.02267.02267,0,0,1,.01855-.00879h.0459a.0227.0227,0,0,1,.01856.00879.03425.03425,0,0,1,.00683.02246v.45313a.03425.03425,0,0,1-.00683.02246.0227.0227,0,0,1-.01856.00879h-.0459A.02267.02267,0,0,1,10.96223,23.66539Z"/><path class="e" d="M11.93879,22.93882a.20593.20593,0,0,1,.08594.11133.65614.65614,0,0,1,.02637.20606.45.45,0,0,1-.07032.26855.40347.40347,0,0,1-.18164.14258l-.0459.01855-.00781.002a.01707.01707,0,0,1-.01367-.00684.02431.02431,0,0,1-.00684-.01855v-.05957a.04113.04113,0,0,1,.02442-.03711l.04394-.01953a.26553.26553,0,0,0,.11719-.10157.37141.37141,0,0,0,.041-.19433.46241.46241,0,0,0-.01758-.14258.136.136,0,0,0-.0586-.0752.2368.2368,0,0,0-.11132-.02246h-.03711l-.10254-.001a.02088.02088,0,0,1-.01758-.00879.03042.03042,0,0,1-.00781-.02149v-.23242a.03217.03217,0,0,1,.00781-.02148.02088.02088,0,0,1,.01758-.00879h.04492a.02218.02218,0,0,1,.01758.00879.03754.03754,0,0,1,.00683.02148v.15723h.085A.31416.31416,0,0,1,11.93879,22.93882Z"/><path class="e" d="M12.89778,23.66539a.03478.03478,0,0,1-.00782-.02246v-.40332c0-.15528-.0625-.23243-.18945-.23243h-.20508a.025.025,0,0,1-.01855-.00781.03213.03213,0,0,1-.00782-.02148v-.043a.03381.03381,0,0,1,.00782-.02344.025.025,0,0,1,.01855-.00781h.21094q.28125,0,.28125.332v.40723a.03419.03419,0,0,1-.00684.02246.02267.02267,0,0,1-.01855.00879h-.04688A.02217.02217,0,0,1,12.89778,23.66539Zm-.4209,0a.03478.03478,0,0,1-.00782-.02246V23.1898a.03478.03478,0,0,1,.00782-.02246.02267.02267,0,0,1,.01855-.00879h.0459a.0227.0227,0,0,1,.01856.00879.03425.03425,0,0,1,.00683.02246v.45313a.03425.03425,0,0,1-.00683.02246.0227.0227,0,0,1-.01856.00879h-.0459A.02267.02267,0,0,1,12.47688,23.66539Z"/><path class="e" d="M13.38215,23.68785a.01707.01707,0,0,1-.01367-.00684.02812.02812,0,0,1-.00586-.01855v-.05957a.03956.03956,0,0,1,.02441-.03711l.043-.01953a.26553.26553,0,0,0,.11719-.10157.37141.37141,0,0,0,.041-.19433.46241.46241,0,0,0-.01758-.14258.13193.13193,0,0,0-.0586-.0752.23137.23137,0,0,0-.11132-.02246H13.18a.02267.02267,0,0,1-.01855-.00879.03476.03476,0,0,1-.00781-.02246V22.933a.03215.03215,0,0,1,.00781-.02149.025.025,0,0,1,.01855-.00781h.23438a.3181.3181,0,0,1,.16113.03515.20154.20154,0,0,1,.08594.11133.65618.65618,0,0,1,.02636.20606.45712.45712,0,0,1-.06933.26855.41424.41424,0,0,1-.18164.14258l-.04688.01855Zm-.2207.23633a.03561.03561,0,0,1-.00781-.02344V23.1898a.03478.03478,0,0,1,.00781-.02246.02267.02267,0,0,1,.01855-.00879h.04492a.02268.02268,0,0,1,.01856.00879.03425.03425,0,0,1,.00683.02246v.71094a.03425.03425,0,0,1-.00683.02246.02268.02268,0,0,1-.01856.00879H13.18A.025.025,0,0,1,13.16145,23.92418Z"/><path class="e" d="M13.82453,23.66539a.03425.03425,0,0,1-.00683-.02246V23.6a.03425.03425,0,0,1,.00683-.02246.0222.0222,0,0,1,.01758-.00879h.32031v-.3291c0-.1543-.06347-.23047-.19043-.23047h-.11816a.02267.02267,0,0,1-.01855-.00879.04042.04042,0,0,1-.00586-.02246v-.043a.03825.03825,0,0,1,.00586-.02246.02267.02267,0,0,1,.01855-.00879h.124q.28272,0,.28321.33008v.335h.042a.02219.02219,0,0,1,.01758.00879.03425.03425,0,0,1,.00683.02246v.043a.03425.03425,0,0,1-.00683.02246.02219.02219,0,0,1-.01758.00879h-.46094A.0222.0222,0,0,1,13.82453,23.66539Z"/><path class="e" d="M14.94856,23.64683a.02817.02817,0,0,1-.00684.01953.01854.01854,0,0,1-.01465.00782h-.0498a.0258.0258,0,0,1-.02246-.00977l-.00879-.01172-.25293-.43359a.22012.22012,0,0,0-.06445.09961.42687.42687,0,0,0-.01758.126v.19825a.03425.03425,0,0,1-.00684.02246.02267.02267,0,0,1-.01855.00879h-.041a.02219.02219,0,0,1-.01758-.00879.03483.03483,0,0,1-.00781-.02246V23.4398a.55.55,0,0,1,.02539-.1748.298.298,0,0,1,.09766-.13379l-.10254-.17481A.05025.05025,0,0,1,14.432,22.93a.02741.02741,0,0,1,.00683-.01856.01856.01856,0,0,1,.01465-.00781h.04883a.03838.03838,0,0,1,.03125.02246l.23242.39551a.19854.19854,0,0,0,.05859-.05957.17708.17708,0,0,0,.02246-.06055.5901.5901,0,0,0,.00391-.0791v-.1875a.033.033,0,0,1,.00781-.02246.0227.0227,0,0,1,.01856-.00879h.043a.02087.02087,0,0,1,.01757.00879.03291.03291,0,0,1,.00782.02246v.19238a.41687.41687,0,0,1-.02637.15723.28038.28038,0,0,1-.10449.12207l.126.21484A.041.041,0,0,1,14.94856,23.64683Z"/><path class="e" d="M8.71321,24.49644a.30022.30022,0,0,0,.00976.08692.05746.05746,0,0,0,.03418.041l.043.01367a.02335.02335,0,0,1,.01367.01368.0816.0816,0,0,1,.00488.02832v.0332a.023.023,0,0,1-.01171.02051.032.032,0,0,1-.02344.0039l-.04688-.01172c-.07422-.0205-.11035-.09765-.11035-.23437v-.207a.03361.03361,0,0,1,.00684-.02344.025.025,0,0,1,.01855-.00781h.17383a.24633.24633,0,0,1,.207.08594.39563.39563,0,0,1,.06934.24707l.001.57421A.03159.03159,0,0,1,9.096,25.182a.02268.02268,0,0,1-.01856.00879H9.03254A.02267.02267,0,0,1,9.014,25.182a.03154.03154,0,0,1-.00684-.02149v-.56836c0-.15527-.06348-.23242-.19043-.23242H8.71321Z"/><path class="e" d="M9.26789,24.70152A.03158.03158,0,0,1,9.26106,24.68v-.39551a.03366.03366,0,0,1,.00683-.02344.025.025,0,0,1,.01856-.00781H9.3343a.02267.02267,0,0,1,.01855.00879.03291.03291,0,0,1,.00782.02246V24.68a.03215.03215,0,0,1-.00782.02148.02267.02267,0,0,1-.01855.00879H9.28645A.0227.0227,0,0,1,9.26789,24.70152Z"/><path class="e" d="M9.53156,25.015a.03485.03485,0,0,1-.00781-.02246v-.708a.03385.03385,0,0,1,.00781-.02344.025.025,0,0,1,.01856-.00781H9.762a.26153.26153,0,0,1,.21289.083.37518.37518,0,0,1,.06934.249v.40723a.03421.03421,0,0,1-.00684.02246.02267.02267,0,0,1-.01855.00879H9.973a.02267.02267,0,0,1-.01855-.00879.03421.03421,0,0,1-.00684-.02246v-.40332c0-.15528-.06348-.23243-.19043-.23243H9.62141v.63575a.03421.03421,0,0,1-.00684.02246.02267.02267,0,0,1-.01855.00879h-.0459A.0227.0227,0,0,1,9.53156,25.015Z"/><path class="e" d="M10.52668,25.015a.03426.03426,0,0,1-.00683-.02246v-.40332c0-.15528-.06348-.23243-.19043-.23243h-.14356a.02449.02449,0,0,1-.01758-.00781.03217.03217,0,0,1-.00781-.02148v-.043a.033.033,0,0,1,.00781-.02246.0222.0222,0,0,1,.01758-.00879h.15039q.28125,0,.28125.3291v.41016a.03485.03485,0,0,1-.00781.02246.02267.02267,0,0,1-.01855.00879h-.0459A.02268.02268,0,0,1,10.52668,25.015Z"/><path class="e" d="M11.345,24.58238v.41016a.03426.03426,0,0,1-.00683.02246.0227.0227,0,0,1-.01856.00879h-.0459a.02267.02267,0,0,1-.01855-.00879.03421.03421,0,0,1-.00684-.02246v-.40332c0-.15528-.06347-.23243-.19043-.23243h-.08008c-.00781.05664-.01269.10352-.01562.1416a1.02954,1.02954,0,0,0-.00391.127l.002.36719a.0348.0348,0,0,1-.00782.02246.02087.02087,0,0,1-.01757.00879l-.1543-.00293a.02406.02406,0,0,1-.01856-.00879.03842.03842,0,0,1-.00683-.02246v-.04a.04083.04083,0,0,1,.00683-.02246.02406.02406,0,0,1,.01856-.00879l.085.00195v-.28906q0-.085.00293-.14356a1.05107,1.05107,0,0,1,.01855-.13086h-.05957a.025.025,0,0,1-.01855-.00781.03157.03157,0,0,1-.00684-.02148v-.043a.03366.03366,0,0,1,.00684-.02344.025.025,0,0,1,.01855-.00781h.23633Q11.345,24.25328,11.345,24.58238Z"/><path class="e" d="M12.08039,24.28843a.20584.20584,0,0,1,.08594.11133.65614.65614,0,0,1,.02637.20606.45.45,0,0,1-.07031.26855.40362.40362,0,0,1-.18165.14258l-.04589.01855-.00782.002a.01707.01707,0,0,1-.01367-.00684.02431.02431,0,0,1-.00683-.01855V24.9525a.04111.04111,0,0,1,.02441-.03711l.04395-.01953a.2655.2655,0,0,0,.11718-.10157.37133.37133,0,0,0,.041-.19433.46241.46241,0,0,0-.01758-.14258.13606.13606,0,0,0-.05859-.0752.23688.23688,0,0,0-.11133-.02246h-.03711l-.10254-.001a.02088.02088,0,0,1-.01758-.00879.03044.03044,0,0,1-.00781-.02149v-.23242a.03217.03217,0,0,1,.00781-.02148.02088.02088,0,0,1,.01758-.00879h.04492a.02218.02218,0,0,1,.01758.00879.03747.03747,0,0,1,.00684.02148v.15723h.085A.31416.31416,0,0,1,12.08039,24.28843Z"/><path class="e" d="M12.31477,24.3148a.027.027,0,0,1-.00488-.01562l.00292-.02149.05762-.18164a.06452.06452,0,0,1,.0127-.02344.02386.02386,0,0,1,.01953-.00683h.03418a.0162.0162,0,0,1,.01465.00781.02831.02831,0,0,1,.002.02051l-.02441.18847c-.002.02637-.01172.03907-.03028.03907h-.07129A.01424.01424,0,0,1,12.31477,24.3148Zm.17383,0a.027.027,0,0,1-.00489-.01562l.00293-.02149.05762-.18164a.06452.06452,0,0,1,.0127-.02344.02386.02386,0,0,1,.01953-.00683h.03418a.01618.01618,0,0,1,.01464.00781.02831.02831,0,0,1,.002.02051l-.02442.18847c-.002.02637-.01171.03907-.03027.03907h-.07129A.01424.01424,0,0,1,12.4886,24.3148Z"/><path class="e" d="M13.17707,24.29332a.2526.2526,0,0,1,.084.11328.46021.46021,0,0,1,.03027.17578v.41016a.03421.03421,0,0,1-.00684.02246.02267.02267,0,0,1-.01855.00879h-.28516a.0197.0197,0,0,1-.01757-.00879.03421.03421,0,0,1-.00684-.02246v-.043a.03419.03419,0,0,1,.00684-.02246.0197.0197,0,0,1,.01757-.00879h.21387v-.32813a.29267.29267,0,0,0-.043-.166.12618.12618,0,0,0-.1084-.06446H12.9261l-.085.63184a.03647.03647,0,0,1-.00977.02246.02194.02194,0,0,1-.01758.00977h-.04687a.01958.01958,0,0,1-.01758-.00977.0403.0403,0,0,1-.00488-.02246l.08886-.63184h-.05664a.0209.0209,0,0,1-.01758-.00879.03483.03483,0,0,1-.00781-.02246v-.04394a.033.033,0,0,1,.00781-.02246.0209.0209,0,0,1,.01758-.00879H13.055A.19493.19493,0,0,1,13.17707,24.29332Z"/><path class="e" d="M13.83039,24.99351a.27872.27872,0,0,1-.09863-.11816.38839.38839,0,0,1-.0332-.16211.50044.50044,0,0,1,.07617-.248l.21094-.35937.00683-.00977a.03926.03926,0,0,1,.0127-.01269.03343.03343,0,0,1,.01758-.00391h.05371a.0192.0192,0,0,1,.0166.00879.03614.03614,0,0,1,.00586.02051.03711.03711,0,0,1-.00586.01757l-.16113.2754a.21582.21582,0,0,1,.06445-.00782.24278.24278,0,0,1,.1416.043.29408.29408,0,0,1,.0957.11621.37494.37494,0,0,1,.03321.15918.387.387,0,0,1-.03321.16113.28153.28153,0,0,1-.09863.11915.25231.25231,0,0,1-.15137.04492A.267.267,0,0,1,13.83039,24.99351Zm.24219-.09277a.16918.16918,0,0,0,.06543-.07227.25753.25753,0,0,0,.02441-.11523A.24639.24639,0,0,0,14.137,24.599a.18114.18114,0,0,0-.06543-.07226.17022.17022,0,0,0-.08886-.0254.16772.16772,0,0,0-.08887.0254.18121.18121,0,0,0-.06543.07226.28189.28189,0,0,0,0,.22949.16918.16918,0,0,0,.06543.07227.16688.16688,0,0,0,.08887.02441A.17025.17025,0,0,0,14.07258,24.90074Z"/><path class="e" d="M14.44953,24.93492a.50564.50564,0,0,1-.07031-.26563l-.002-.11621.002-.12011a.49058.49058,0,0,1,.07031-.26563.2658.2658,0,0,1,.418,0,.49058.49058,0,0,1,.07031.26563c.001.02441.001.06445.001.12011,0,.05274,0,.0918-.001.11621a.50546.50546,0,0,1-.07031.26563.26423.26423,0,0,1-.418,0Zm.33692-.07813a.38083.38083,0,0,0,.04492-.19433c.001-.02637.001-.06348.001-.11231,0-.0498,0-.08691-.001-.11035a.37311.37311,0,0,0-.0459-.19433.14221.14221,0,0,0-.12793-.06934.14064.14064,0,0,0-.12695.06934.38276.38276,0,0,0-.0459.19433l-.001.11035.001.11231a.38013.38013,0,0,0,.0459.19433.13982.13982,0,0,0,.12695.06836A.143.143,0,0,0,14.78645,24.85679Z"/><polyline class="f" points="1.458 26.135 16.873 26.135 21.061 23.03"/><polyline class="f" points="1.458 40.973 16.873 40.973 21.061 37.869"/><polygon class="g" points="14.575 27.316 11.667 27.316 10.116 39.797 13.024 39.797 14.575 27.316"/><polygon class="g" points="11.26 27.316 8.351 27.316 6.8 39.797 9.709 39.797 11.26 27.316"/><polygon class="g" points="7.944 27.316 5.036 27.316 3.485 39.797 6.393 39.797 7.944 27.316"/><polygon class="g" points="18.934 7.326 17.098 7.326 15.744 8.259 17.581 8.259 18.934 7.326"/><polygon class="g" points="16.84 7.326 15.004 7.326 13.65 8.259 15.487 8.259 16.84 7.326"/><polygon class="g" points="14.746 7.326 12.909 7.326 11.556 8.259 13.392 8.259 14.746 7.326"/><polygon class="g" points="20.615 24.583 19.779 25.231 19.333 38.059 20.169 37.41 20.615 24.583"/><polygon class="g" points="19.662 25.322 18.827 25.971 18.381 38.799 19.216 38.15 19.662 25.322"/><polygon class="g" points="18.71 26.062 17.874 26.711 17.428 39.539 18.264 38.89 18.71 26.062"/><polygon class="h" points="13.183 42.232 13.686 43.295 13.845 43.295 14.253 44.275 15.391 44.275 15.391 42.232 14.502 42.232 14.502 43.019 14.502 42.232 13.183 42.232"/><polyline class="h" points="13.183 42.232 12.017 42.232 12.017 43.292 12.906 43.292 12.017 43.292 12.017 44.275 14.253 44.275"/><polyline class="h" points="12.017 42.232 11.325 42.232 11.325 42.981 11.325 42.232 10.629 42.232 10.629 43.253 10.321 43.253 10.321 44.275 12.017 44.275"/><line class="i" x1="17.42847" y1="24.46052" x2="19.15612" y2="23.26689"/><line class="i" x1="17.6873" y1="11.50291" x2="19.15612" y2="10.26724"/><line class="i" x1="17.6873" y1="12.53508" x2="19.15612" y2="11.29941"/><line class="i" x1="17.6873" y1="13.56725" x2="19.974" y2="11.64352"/><line class="i" x1="17.6873" y1="14.59942" x2="19.33346" y2="13.21456"/><line class="i" x1="17.6873" y1="15.63159" x2="19.87303" y2="13.79281"/><line class="i" x1="17.25657" y1="8.54543" x2="11.00978" y2="8.54543"/><line class="i" x1="16.77312" y1="8.87189" x2="10.52633" y2="8.87189"/><line class="i" x1="16.27433" y1="9.19018" x2="10.02754" y2="9.19018"/><circle class="j" cx="15.14506" cy="7.50617" r="3.44991"/><g class="k"><circle class="l" cx="14.62196" cy="7.0327" r="0.93066"/><path class="m" d="M12.17576,9.26172s.42841.33929,2.71585.30179a11.80986,11.80986,0,0,0,3.9733-.74328v5.39986H12.17576Z"/></g><circle class="n" cx="15.14506" cy="7.50617" r="3.44991"/><ellipse class="j" cx="4.95117" cy="7.50617" rx="3.1897" ry="3.44991"/><g class="o"><circle class="l" cx="4.42808" cy="7.0327" r="0.93066"/><path class="m" d="M2.23413,9.45375s.35662.33929,2.47153.30179a10.58677,10.58677,0,0,0,3.71311-.74328v5.39986H2.23413Z"/></g><ellipse class="n" cx="4.95117" cy="7.50617" rx="3.1897" ry="3.44991"/><path class="p" d="M14.15463.58748s3.51167.21158,5.313,2.81055"/><path class="p" d="M5.44307,1.24572S1.62536,1.89252.58748,4.228"/></svg>