<svg xmlns="http://www.w3.org/2000/svg" xmlns:xlink="http://www.w3.org/1999/xlink" viewBox="0 0 83.57755 18.19109"><defs><style>.a,.n{fill:#f6f6f6;}.a,.m,.q,.r{stroke:#2d2a28;stroke-miterlimit:10;}.a,.q,.r{stroke-width:0.68035px;}.b{fill:#00aed6;}.c{fill:#009ac4;}.d{fill:#808285;}.e{fill:#f1f2f2;}.f{fill:#e6e7e8;}.g{fill:#05bce7;}.h{fill:#fff;}.i{fill:#758985;}.j{fill:#9eb7b2;}.k{fill:#f7f7f7;}.l{fill:#939598;}.m,.r{fill:none;}.m{stroke-linecap:round;stroke-width:1.27566px;}.o{clip-path:url(#a);}.p{fill:#2d2a28;}.q{fill:#1286e9;}.s{clip-path:url(#b);}</style><clipPath id="a"><circle class="a" cx="59.05087" cy="8.29491" r="3.74554"/></clipPath><clipPath id="b"><ellipse class="a" cx="47.98344" cy="8.29491" rx="3.46304" ry="3.74554"/></clipPath></defs><path class="b" d="M73.55845,9.66575h7.30736a2.71174,2.71174,0,0,1,2.71174,2.71174v3.10186a2.71173,2.71173,0,0,1-2.71174,2.71174H73.55845V9.66575Z"/><polygon class="c" points="74.815 10.759 82.098 11.146 80.991 9.884 74.815 9.884 74.815 10.759"/><path class="d" d="M.97914,12.94474H5.00049V14.903H.97914A.97915.97915,0,0,1,0,13.92387H0A.97914.97914,0,0,1,.97914,12.94474Z"/><path class="e" d="M74.50572,18.19109H40.878V9.66575H74.50572c.40244,0,.72869.3279.72869,1.29337v6.08433C75.2344,17.88141,74.90815,18.19109,74.50572,18.19109Z"/><path class="e" d="M4.26263,14.91211c11.11211.18217,28.69109,3.279,36.61528,3.279V9.66575c-8.14279,0-24.30088,3.02394-36.61528,3.279C3.77092,12.95488,3.77089,14.90405,4.26263,14.91211Z"/><rect class="f" x="47.27196" y="11.14605" width="24.22803" height="5.30971" rx="2.65485"/><rect class="e" x="47.70461" y="11.44103" width="23.63805" height="4.87707" rx="2.43853"/><ellipse class="f" cx="67.87706" cy="13.89432" rx="1.59291" ry="0.94275"/><path class="g" d="M80.663,9.88434H79.29679A2.64124,2.64124,0,0,1,81.938,12.52558v2.8056a2.64133,2.64133,0,0,1-2.64124,2.64134H80.663a2.64133,2.64133,0,0,0,2.64124-2.64134v-2.8056A2.64124,2.64124,0,0,0,80.663,9.88434Z"/><path class="h" d="M50.1398,12.48468s-.33612-.0227-.445.15037v2.24973s.0623.24527.445.24527"/><ellipse class="h" cx="67.91593" cy="13.80091" rx="1.46017" ry="0.82595"/><rect class="i" x="49.93665" y="12.47175" width="7.58109" height="2.65831" rx="0.27896"/><rect class="j" x="50.04605" y="12.57567" width="7.47169" height="2.55438" rx="0.27147"/><path class="f" d="M40.16728,10.04218l-2.65029.2905s22.83662.32725,31.39588.32725c3.4433,0,6.32154.12106,6.32154.12106s-.02489-.678-.26812-.89665Z"/><path class="k" d="M35.90483,11.441a5.59356,5.59356,0,0,1,0,4.87707L4.59057,14.36561a.62324.62324,0,0,1-.02733-.71045C4.84381,13.16,35.90483,11.441,35.90483,11.441Z"/><path class="l" d="M3.80725,13.18154H.929a.70409.70409,0,0,0-.63758.47364"/><path class="m" d="M58.3372.63783a34.81576,34.81576,0,0,0,6.05664,2.34948"/><path class="m" d="M48.94953.66079S45.86708,3.51937,43.17,2.86776"/><circle class="n" cx="59.05087" cy="8.29491" r="3.74554"/><g class="o"><circle class="p" cx="59.05087" cy="8.29491" r="1.01041"/><path class="q" d="M55.82712,10.2009s.46512.36837,2.94858.32766a12.82212,12.82212,0,0,0,4.3138-.807v5.86259H55.82712Z"/></g><circle class="r" cx="59.05087" cy="8.29491" r="3.74554"/><ellipse class="n" cx="47.98344" cy="8.29491" rx="3.46304" ry="3.74554"/><g class="s"><circle class="p" cx="47.98344" cy="8.29491" r="1.01041"/><path class="q" d="M45.03356,10.40939s.38718.36837,2.68333.32765a11.4939,11.4939,0,0,0,4.03129-.807v5.86259H45.03356Z"/></g><ellipse class="r" cx="47.98344" cy="8.29491" rx="3.46304" ry="3.74554"/></svg>