<svg xmlns="http://www.w3.org/2000/svg" xmlns:xlink="http://www.w3.org/1999/xlink" viewBox="0 0 46.46221 25.81261"><defs><style>.a,.l{fill:#f6f6f6;}.a,.o,.p,.q{stroke:#2d2a28;}.a,.o,.q{stroke-miterlimit:10;}.a,.o,.p{stroke-width:0.5869px;}.b{fill:url(#a);}.c{fill:#558b99;}.d{fill:#71b4c6;}.e{fill:#662483;}.f{fill:#29235c;}.g{fill:#175672;}.h,.k,.o,.p,.q{fill:none;}.h{stroke:#175672;stroke-width:0.05624px;}.h,.k,.p,.q{stroke-linecap:round;}.h,.k,.p{stroke-linejoin:round;}.i{fill:#154d60;}.j{fill:#fff;}.k{stroke:#fff;stroke-width:0.22495px;}.m{clip-path:url(#b);}.n{fill:#2d2a28;}.q{stroke-width:1.10045px;}.r{clip-path:url(#c);}</style><linearGradient id="a" x1="4.36615" y1="17.81801" x2="46.46199" y2="17.81801" gradientUnits="userSpaceOnUse"><stop offset="0" stop-color="#63a2b3"/><stop offset="0.63077" stop-color="#fff"/></linearGradient><clipPath id="b"><ellipse class="a" cx="18.76358" cy="7.81017" rx="2.98739" ry="3.2311"/></clipPath><clipPath id="c"><circle class="a" cx="28.31092" cy="7.81017" r="3.2311"/></clipPath></defs><rect class="b" x="4.36615" y="9.82342" width="42.09584" height="15.98918"/><polygon class="c" points="0.021 6.405 4.366 9.823 4.366 25.813 0.021 22.394 0.021 6.405"/><polygon class="d" points="0 6.346 42.096 6.346 46.462 9.823 4.366 9.823 0 6.346"/><rect class="e" x="4.36615" y="24.65137" width="42.09584" height="1.16123"/><polygon class="f" points="0 22.374 4.366 25.813 4.366 24.651 0 21.213 0 22.374"/><path class="g" d="M39.81069,13.95574a.023.023,0,0,1-.00586-.0166v-.669a.02731.02731,0,0,1,.00586-.01758.02309.02309,0,0,1,.01563-.00683h.05273a.02309.02309,0,0,1,.01563.00683.019.019,0,0,1,.00781.01758v.669a.01837.01837,0,0,1-.00781.0166.01945.01945,0,0,1-.01563.00683h-.05273A.01945.01945,0,0,1,39.81069,13.95574Z"/><path class="g" d="M40.1603,13.89519v.044a.01837.01837,0,0,1-.00781.0166.01945.01945,0,0,1-.01563.00683h-.043a.02089.02089,0,0,1-.01758-.00683.023.023,0,0,1-.00586-.0166v-.67969a.02072.02072,0,0,1,.02344-.02344h.04492a.02089.02089,0,0,1,.01758.00684.023.023,0,0,1,.00585.0166v.23633a.22247.22247,0,0,1,.32813-.00586.29962.29962,0,0,1,.05664.17578v.06152a.29962.29962,0,0,1-.05664.17578.19213.19213,0,0,1-.16211.06934A.19583.19583,0,0,1,40.1603,13.89519Zm.25586-.04785a.20975.20975,0,0,0,.03711-.12109c0-.00684.00195-.01661.00195-.0293,0-.13184-.04882-.19727-.14648-.19727a.13189.13189,0,0,0-.10742.0459.18745.18745,0,0,0-.03907.1084v.07812a.20021.20021,0,0,0,.03907.11329.12783.12783,0,0,0,.10742.04785A.12437.12437,0,0,0,40.41616,13.84734Z"/><path class="g" d="M40.72475,13.90984a.25246.25246,0,0,1-.05468-.167v-.28907a.02433.02433,0,0,1,.00781-.0166.01944.01944,0,0,1,.01562-.00683h.04883a.01945.01945,0,0,1,.01563.00683.02437.02437,0,0,1,.00781.0166V13.737c0,.10449.04492.15625.13477.15625a.13261.13261,0,0,0,.10351-.042.1619.1619,0,0,0,.03906-.11426v-.28321a.023.023,0,0,1,.00586-.0166.02091.02091,0,0,1,.01758-.00683h.04688a.01941.01941,0,0,1,.01562.00683.01837.01837,0,0,1,.00781.0166v.48536a.01837.01837,0,0,1-.00781.0166.01941.01941,0,0,1-.01562.00683H41.0685a.01944.01944,0,0,1-.01562-.00683.01837.01837,0,0,1-.00781-.0166v-.0459a.20657.20657,0,0,1-.06836.05957.22444.22444,0,0,1-.10156.01953A.18575.18575,0,0,1,40.72475,13.90984Z"/><path class="g" d="M41.297,14.15105a.02387.02387,0,0,1-.00586-.01758v-.67969a.02544.02544,0,0,1,.00586-.01757.03148.03148,0,0,1,.01758-.00586h.043a.02387.02387,0,0,1,.01758.00586.02549.02549,0,0,1,.00585.01757v.04493a.19774.19774,0,0,1,.16993-.07813.19246.19246,0,0,1,.16015.06738.27883.27883,0,0,1,.05664.17383.16371.16371,0,0,1,.002.03516.1584.1584,0,0,1-.002.03418.278.278,0,0,1-.05664.17285.2194.2194,0,0,1-.32617-.00879v.23828a.01835.01835,0,0,1-.00781.0166.01943.01943,0,0,1-.01563.00684H41.3146A.03148.03148,0,0,1,41.297,14.15105Zm.3418-.30371a.22531.22531,0,0,0,.03711-.12109V13.697c0-.13184-.04883-.19727-.14453-.19727a.13173.13173,0,0,0-.10938.04785.18673.18673,0,0,0-.03711.11231.19781.19781,0,0,0-.002.04.20884.20884,0,0,0,.002.04.16333.16333,0,0,0,.03906.10742.13191.13191,0,0,0,.10743.0459A.12682.12682,0,0,0,41.63882,13.84734Z"/><path class="g" d="M41.90444,13.95574a.023.023,0,0,1-.00586-.0166v-.48438a.02733.02733,0,0,1,.00586-.01758.0332.0332,0,0,1,.01758-.00683h.043a.02091.02091,0,0,1,.01758.00683.02008.02008,0,0,1,.00781.01758v.04492a.15183.15183,0,0,1,.14258-.06933H42.172a.02387.02387,0,0,1,.01758.00586.02549.02549,0,0,1,.00586.01757v.03809a.023.023,0,0,1-.00586.0166.02092.02092,0,0,1-.01758.00684h-.05859a.11557.11557,0,0,0-.08789.0332.12009.12009,0,0,0-.03321.08887v.30176a.023.023,0,0,1-.00586.0166.02679.02679,0,0,1-.01757.00683H41.922A.0268.0268,0,0,1,41.90444,13.95574Z"/><path class="g" d="M42.32632,13.90984a.24386.24386,0,0,1-.06446-.169l-.002-.04394.002-.04492a.24138.24138,0,0,1,.06446-.168.26706.26706,0,0,1,.3457,0,.25182.25182,0,0,1,.06641.168c0,.01562.002.03027.002.04492,0,.01367-.002.02832-.002.04394a.25441.25441,0,0,1-.06641.169.22507.22507,0,0,1-.17187.0625A.22968.22968,0,0,1,42.32632,13.90984Zm.27734-.05566a.1801.1801,0,0,0,.041-.11915c0-.00683.002-.01953.002-.03808,0-.01953-.002-.03223-.002-.03906a.18.18,0,0,0-.041-.11914.13262.13262,0,0,0-.10351-.042.13688.13688,0,0,0-.10547.042.18.18,0,0,0-.041.11914V13.735a.18.18,0,0,0,.041.11915.13687.13687,0,0,0,.10547.042A.13261.13261,0,0,0,42.60366,13.85418Z"/><path class="g" d="M42.92788,13.95574a.023.023,0,0,1-.00586-.0166v-.42969h-.08789a.02089.02089,0,0,1-.01758-.00684.02063.02063,0,0,1-.00586-.01562v-.03321a.023.023,0,0,1,.00586-.0166.02091.02091,0,0,1,.01758-.00683H42.922v-.05078a.19534.19534,0,0,1,.03906-.12891.172.172,0,0,1,.13282-.04492h.06054a.02387.02387,0,0,1,.01758.00586.02724.02724,0,0,1,.00586.01758v.03222a.02293.02293,0,0,1-.00586.0166.02387.02387,0,0,1-.01758.00586h-.05859a.07629.07629,0,0,0-.06445.02442.13179.13179,0,0,0-.01954.07617v.0459h.13282a.02351.02351,0,0,1,.01757.00683.023.023,0,0,1,.00586.0166V13.487a.02059.02059,0,0,1-.00586.01562.02348.02348,0,0,1-.01757.00684h-.13282v.42969a.023.023,0,0,1-.00586.0166.02088.02088,0,0,1-.01757.00683h-.043A.02091.02091,0,0,1,42.92788,13.95574Z"/><path class="g" d="M43.29507,13.90789a.27036.27036,0,0,1-.07032-.17774v-.06836a.26714.26714,0,0,1,.07032-.17578.21486.21486,0,0,1,.166-.06543.21708.21708,0,0,1,.17383.07129.28842.28842,0,0,1,.0625.19434v.01855a.02293.02293,0,0,1-.00586.0166.02676.02676,0,0,1-.01758.00684H43.3185V13.737a.189.189,0,0,0,.041.11426.12219.12219,0,0,0,.09961.04687.152.152,0,0,0,.08008-.01855.16744.16744,0,0,0,.04492-.04.05026.05026,0,0,1,.01367-.01465.04088.04088,0,0,1,.01758-.00293h.04492a.02218.02218,0,0,1,.01563.00586.01338.01338,0,0,1,.00781.01269.09526.09526,0,0,1-.02734.05469.24519.24519,0,0,1-.08008.05469.26993.26993,0,0,1-.11524.02246A.21773.21773,0,0,1,43.29507,13.90789Zm.30859-.249v-.00293a.167.167,0,0,0-.03906-.11718.12851.12851,0,0,0-.10352-.04493.12336.12336,0,0,0-.10351.04493.17666.17666,0,0,0-.03907.11718v.00293Z"/><path class="g" d="M43.82241,13.95574a.023.023,0,0,1-.00586-.0166v-.48536a.023.023,0,0,1,.00586-.0166.0268.0268,0,0,1,.01758-.00683h.04492a.03148.03148,0,0,1,.01758.00586.02544.02544,0,0,1,.00586.01757v.04493a.19914.19914,0,0,1,.07031-.05762.22391.22391,0,0,1,.10156-.02051.19254.19254,0,0,1,.15235.0625.25158.25158,0,0,1,.05468.166v.29a.02433.02433,0,0,1-.00781.0166.01941.01941,0,0,1-.01562.00683H44.215a.01945.01945,0,0,1-.01563-.00683.01837.01837,0,0,1-.00781-.0166v-.28321a.17116.17116,0,0,0-.03515-.11523.12822.12822,0,0,0-.10157-.041.13406.13406,0,0,0-.10547.042.16186.16186,0,0,0-.03906.11425v.28321a.023.023,0,0,1-.00586.0166.02089.02089,0,0,1-.01758.00683H43.84A.0268.0268,0,0,1,43.82241,13.95574Z"/><path class="g" d="M38.24429,19.18816a.05666.05666,0,0,1-.01758-.04395V17.53777a.05453.05453,0,0,1,.01758-.043.064.064,0,0,1,.043-.0166h.19922a.05545.05545,0,0,1,.0586.05957v1.60644a.0633.0633,0,0,1-.01563.04395.05983.05983,0,0,1-.043.01562h-.19922A.06308.06308,0,0,1,38.24429,19.18816Z"/><path class="g" d="M39.14858,17.89812c0,.10059.02735.15918.08008.17383l.07813.02246a.0587.0587,0,0,1,.03125.02832.09768.09768,0,0,1,.01171.04883l.002.09179a.05269.05269,0,0,1-.0293.04883.10442.10442,0,0,1-.07031.0127l-.10156-.01953a.28385.28385,0,0,1-.19727-.13282.51833.51833,0,0,1-.07617-.29492v-.33984a.06336.06336,0,0,1,.01953-.043.05294.05294,0,0,1,.041-.0166h.47851a.58778.58778,0,0,1,.45313.16406.71507.71507,0,0,1,.16406.46192c0,.0166.002.04394.002.082,0,.03906-.002.06738-.002.084a.715.715,0,0,1-.16406.46191.58775.58775,0,0,1-.45313.16407h-.44922a.05318.05318,0,0,1-.041-.01758.05679.05679,0,0,1-.01758-.042v-.15625a.05531.05531,0,0,1,.01758-.042.0532.0532,0,0,1,.041-.01757h.4375a.309.309,0,0,0,.23828-.09375.38612.38612,0,0,0,.09375-.26172.692.692,0,0,0,.00391-.0791.66522.66522,0,0,0-.00391-.07715.376.376,0,0,0-.09179-.26172.31337.31337,0,0,0-.24024-.09375h-.25586Z"/><path class="g" d="M40.338,18.87859a.05679.05679,0,0,1-.01758-.042V17.53777a.05453.05453,0,0,1,.01758-.043.064.064,0,0,1,.043-.0166h.209a.05737.05737,0,0,1,.043.0166.05334.05334,0,0,1,.01562.043V18.8366a.05511.05511,0,0,1-.01562.042.05454.05454,0,0,1-.043.01758h-.209A.06056.06056,0,0,1,40.338,18.87859Z"/><path class="g" d="M40.95327,18.87859a.05511.05511,0,0,1-.01562-.042v-.14649a.05549.05549,0,0,1,.01562-.04394.06312.06312,0,0,1,.043-.01563h.668v-.53125a.313.313,0,0,0-.35352-.35547h-.28906a.05745.05745,0,0,1-.043-.01757.05531.05531,0,0,1-.01758-.042v-.14648a.05453.05453,0,0,1,.01758-.043.06055.06055,0,0,1,.043-.0166h.30273a.7359.7359,0,0,1,.502.15039.59636.59636,0,0,1,.168.46582v.53613h.08984a.05682.05682,0,0,1,.043.01563.05549.05549,0,0,1,.01562.04394v.14649a.05511.05511,0,0,1-.01562.042.05454.05454,0,0,1-.043.01758H40.99624A.06058.06058,0,0,1,40.95327,18.87859Z"/><path class="g" d="M42.36929,18.29753a.05677.05677,0,0,1-.01758-.042v-.71777a.05453.05453,0,0,1,.01758-.043.06053.06053,0,0,1,.043-.0166h.21094a.05735.05735,0,0,1,.043.0166.05334.05334,0,0,1,.01563.043v.71777a.05511.05511,0,0,1-.01563.042.05453.05453,0,0,1-.043.01758h-.21094A.0574.0574,0,0,1,42.36929,18.29753Z"/><path class="g" d="M44.23647,18.84441a.05166.05166,0,0,1-.01562.03711.056.056,0,0,1-.03711.01465h-.207a.07085.07085,0,0,1-.041-.00977.12671.12671,0,0,1-.02734-.02148l-.01172-.01367-.502-.7129a.34741.34741,0,0,0-.11328.16016.59012.59012,0,0,0-.03125.19824v.33692a.059.059,0,0,1-.01563.04492.05454.05454,0,0,1-.043.01758h-.16992a.05621.05621,0,0,1-.041-.01758.06036.06036,0,0,1-.01757-.04492v-.33985a.87124.87124,0,0,1,.05664-.333.59993.59993,0,0,1,.21875-.24512l-.24414-.3457a.0874.0874,0,0,1-.01172-.04.05337.05337,0,0,1,.01562-.03711.0469.0469,0,0,1,.03321-.01465h.20117a.09819.09819,0,0,1,.08008.04687l.46289.64844a.26445.26445,0,0,0,.12109-.12988A.525.525,0,0,0,43.924,17.863V17.5407a.0677.0677,0,0,1,.01563-.04492.05743.05743,0,0,1,.043-.01758h.17968a.05776.05776,0,0,1,.043.01855.071.071,0,0,1,.01563.044v.335a.66848.66848,0,0,1-.0586.28809.58827.58827,0,0,1-.23046.23046l.28906.41016A.06918.06918,0,0,1,44.23647,18.84441Z"/><path class="g" d="M37.79507,15.25652a.01837.01837,0,0,1-.00782-.0166v-.30567a.15507.15507,0,0,0-.17382-.17675H37.422a.02218.02218,0,0,1-.01562-.00586.01838.01838,0,0,1-.00782-.01661v-.03222a.01905.01905,0,0,1,.00782-.01758.02214.02214,0,0,1,.01562-.00586h.19531c.17383,0,.25977.084.25977.251v.30957a.023.023,0,0,1-.00586.0166.02091.02091,0,0,1-.01758.00683h-.043A.01941.01941,0,0,1,37.79507,15.25652Zm-.38867,0a.01837.01837,0,0,1-.00782-.0166v-.34375a.02121.02121,0,0,1,.00782-.01758.02214.02214,0,0,1,.01562-.00586h.043a.02387.02387,0,0,1,.01758.00586.02729.02729,0,0,1,.00586.01758v.34375a.023.023,0,0,1-.00586.0166.02091.02091,0,0,1-.01758.00683h-.043A.01941.01941,0,0,1,37.4064,15.25652Z"/><path class="g" d="M38.0314,15.01921a.02429.02429,0,0,1-.00782-.0166v-.2998a.02476.02476,0,0,1,.00782-.01758.02383.02383,0,0,1,.01757-.00586h.04493a.02217.02217,0,0,1,.01562.00586.02905.02905,0,0,1,.00781.01758v.2998a.02428.02428,0,0,1-.00781.0166.01942.01942,0,0,1-.01562.00684H38.049A.02085.02085,0,0,1,38.0314,15.01921Z"/><path class="g" d="M38.5646,14.70574a.15894.15894,0,0,1,.07812.085.38452.38452,0,0,1,.02539.15527.29746.29746,0,0,1-.06445.2041.38581.38581,0,0,1-.168.1084l-.043.01367-.00781.001-.01172-.00488a.0164.0164,0,0,1-.00586-.01367v-.0459a.0306.0306,0,0,1,.02149-.02735l.041-.01562a.224.224,0,0,0,.10742-.07617.24132.24132,0,0,0,.03907-.14746.27248.27248,0,0,0-.01758-.1084A.09722.09722,0,0,0,38.506,14.777a.24694.24694,0,0,0-.10351-.01758h-.03516l-.09375-.001a.02214.02214,0,0,1-.01562-.00586.01835.01835,0,0,1-.00781-.0166v-.17578a.01835.01835,0,0,1,.00781-.0166.01942.01942,0,0,1,.01562-.00684h.041a.02092.02092,0,0,1,.01758.00684.023.023,0,0,1,.00586.0166v.11914h.07812A.34838.34838,0,0,1,38.5646,14.70574Z"/><path class="g" d="M38.88491,14.84148a.19269.19269,0,0,0,.00781.06445.05042.05042,0,0,0,.03125.03028l.03907.00976a.02435.02435,0,0,1,.01367.01074.03709.03709,0,0,1,.0039.02149v.02344a.01739.01739,0,0,1-.00976.01562.04649.04649,0,0,1-.02539.00391l-.03906-.00879c-.06836-.01465-.10352-.07324-.10352-.17383v-.13574a.019.019,0,0,1,.00781-.01758.02218.02218,0,0,1,.01563-.00586h.18945a.21513.21513,0,0,1,.16992.06543.27945.27945,0,0,1,.0625.18652c0,.00684.002.02051.002.03907,0,.0205-.002.0332-.002.04a.28415.28415,0,0,1-.0625.1875.21516.21516,0,0,1-.16992.06542H38.838a.01945.01945,0,0,1-.01563-.00683.02433.02433,0,0,1-.00781-.0166v-.03418a.02648.02648,0,0,1,.00781-.0166.01943.01943,0,0,1,.01563-.00684h.17187a.14283.14283,0,0,0,.11133-.0459.21.21,0,0,0,.041-.12988c0-.00684.002-.01856.002-.03613,0-.01563-.002-.02735-.002-.03418a.208.208,0,0,0-.041-.12989.14034.14034,0,0,0-.11133-.04687h-.125Z"/><path class="g" d="M39.59585,15.27312l-.01172-.00488a.01637.01637,0,0,1-.00586-.01367v-.0459a.02809.02809,0,0,1,.02148-.02735l.041-.01562a.23383.23383,0,0,0,.10742-.07617.24138.24138,0,0,0,.03906-.14746.2725.2725,0,0,0-.01757-.1084.10362.10362,0,0,0-.05274-.05664.25317.25317,0,0,0-.10351-.01758h-.20508a.02218.02218,0,0,1-.01563-.00586.0212.0212,0,0,1-.00781-.01758v-.03418a.01837.01837,0,0,1,.00781-.0166.02218.02218,0,0,1,.01563-.00586h.2168a.34233.34233,0,0,1,.14843.02637.15529.15529,0,0,1,.08008.085.42152.42152,0,0,1,.02539.15527.29746.29746,0,0,1-.06445.2041.38581.38581,0,0,1-.168.1084l-.043.01367Zm-.20313.17969a.019.019,0,0,1-.00781-.01758v-.53906a.0212.0212,0,0,1,.00781-.01758.02218.02218,0,0,1,.01563-.00586h.043a.02214.02214,0,0,1,.01562.00586.0212.0212,0,0,1,.00781.01758v.53906a.01835.01835,0,0,1-.00781.0166.01942.01942,0,0,1-.01562.00684h-.043A.02222.02222,0,0,1,39.39272,15.45281Z"/><path class="g" d="M40.32046,14.70574a.15894.15894,0,0,1,.07812.085.38452.38452,0,0,1,.02539.15527.29746.29746,0,0,1-.06445.2041.38581.38581,0,0,1-.168.1084l-.043.01367-.00781.001-.01172-.00488a.0164.0164,0,0,1-.00586-.01367v-.0459a.03059.03059,0,0,1,.02149-.02735l.041-.01562a.224.224,0,0,0,.10742-.07617.24138.24138,0,0,0,.03907-.14746.27248.27248,0,0,0-.01758-.1084.09725.09725,0,0,0-.05274-.05664.24694.24694,0,0,0-.10351-.01758h-.03516l-.09375-.001a.02214.02214,0,0,1-.01562-.00586.01835.01835,0,0,1-.00782-.0166v-.17578a.01835.01835,0,0,1,.00782-.0166.01942.01942,0,0,1,.01562-.00684h.041a.02092.02092,0,0,1,.01758.00684.023.023,0,0,1,.00586.0166v.11914H40.172A.34838.34838,0,0,1,40.32046,14.70574Z"/><path class="g" d="M41.14858,15.24382a.01978.01978,0,0,1-.00781.01368.02221.02221,0,0,1-.01562.00585h-.04493q-.0205,0-.02343-.02343l-.02344-.12012a.31721.31721,0,0,1-.08789.0918.52828.52828,0,0,1-.07031.03906.39629.39629,0,0,1-.06836.02051l-.00782.001c-.01172,0-.01757-.00488-.01757-.01562v-.04883c0-.01074.00781-.01953.02148-.02539l.041-.01367a.3487.3487,0,0,0,.0664-.03223.29907.29907,0,0,0,.06055-.05371.22384.22384,0,0,0,.041-.06543l-.01757-.0918a.75931.75931,0,0,0-.02539-.0957.13461.13461,0,0,0-.03907-.05371.09719.09719,0,0,0-.06054-.01855h-.03711a.02388.02388,0,0,1-.01758-.00586.023.023,0,0,1-.00586-.01661v-.03418a.02723.02723,0,0,1,.00586-.01757.02384.02384,0,0,1,.01758-.00586h.03711a.19906.19906,0,0,1,.10742.02636.17883.17883,0,0,1,.0664.07911.5749.5749,0,0,1,.043.13769l.0625.31934Z"/><path class="g" d="M41.20132,14.72625a.0172.0172,0,0,1-.00586-.0127l.0039-.0166.05274-.13672a.068.068,0,0,1,.01172-.01758.02593.02593,0,0,1,.01953-.00586h.03125a.01183.01183,0,0,1,.01172.00586.02109.02109,0,0,1,.0039.01563l-.02343.14355q-.00294.0293-.0293.0293H41.213A.01331.01331,0,0,1,41.20132,14.72625Zm.16015,0-.0039-.0127.002-.0166.05469-.13672a.03783.03783,0,0,1,.00976-.01758.0292.0292,0,0,1,.01953-.00586h.03125a.01777.01777,0,0,1,.01368.00586.0208.0208,0,0,1,.002.01563l-.02344.14355c-.002.01953-.01172.0293-.02734.0293h-.06641Z"/><path class="g" d="M41.99819,14.70964a.20894.20894,0,0,1,.07813.08594.286.286,0,0,1,.02734.13281v.31153a.023.023,0,0,1-.00586.0166.02089.02089,0,0,1-.01758.00683h-.26367a.01941.01941,0,0,1-.01562-.00683.023.023,0,0,1-.00586-.0166v-.03321a.02464.02464,0,0,1,.00586-.0166.023.023,0,0,1,.01562-.00683h.19727v-.248a.18978.18978,0,0,0-.03907-.127.12123.12123,0,0,0-.0996-.04883h-.10743l-.08007.47949a.02906.02906,0,0,1-.00782.01758.0268.0268,0,0,1-.01758.00683h-.043a.01945.01945,0,0,1-.01563-.00683.01873.01873,0,0,1-.00391-.01758l.08008-.47949h-.05078a.02387.02387,0,0,1-.01758-.00586.02729.02729,0,0,1-.00586-.01758v-.0332a.02729.02729,0,0,1,.00586-.01758.02387.02387,0,0,1,.01758-.00586h.25586A.20931.20931,0,0,1,41.99819,14.70964Z"/><path class="g" d="M42.82436,15.25652a.01837.01837,0,0,1-.00781-.0166V15.0905h-.332a.0268.0268,0,0,1-.01758-.00683.023.023,0,0,1-.00586-.0166V15.029a.0516.0516,0,0,1,.01172-.03027l.30664-.43457a.04966.04966,0,0,1,.01563-.0127.06708.06708,0,0,1,.02343-.00488h.06836a.02423.02423,0,0,1,.01758.00683.02476.02476,0,0,1,.00781.01758v.4336h.0918a.02091.02091,0,0,1,.01758.00683.023.023,0,0,1,.00586.0166v.03907a.023.023,0,0,1-.00586.0166.02091.02091,0,0,1-.01758.00683h-.0918v.14942a.02433.02433,0,0,1-.00781.0166.02089.02089,0,0,1-.01758.00683H42.84A.01945.01945,0,0,1,42.82436,15.25652Zm-.25781-.25h.252v-.35645Z"/><path class="g" d="M43.1935,15.196a.3378.3378,0,0,1-.0664-.20215v-.17871a.315.315,0,0,1,.0664-.20117.23.23,0,0,1,.19141-.07715.23816.23816,0,0,1,.19531.07715.32585.32585,0,0,1,.06446.20117v.17871a.35066.35066,0,0,1-.06446.20215.23307.23307,0,0,1-.19531.07715A.225.225,0,0,1,43.1935,15.196Zm.31055-.05957a.2472.2472,0,0,0,.043-.14746V14.82a.24624.24624,0,0,0-.043-.14649.15876.15876,0,0,0-.23633,0,.23333.23333,0,0,0-.041.14649l-.002.084.002.085a.23441.23441,0,0,0,.041.14746.16076.16076,0,0,0,.23633,0Z"/><path class="g" d="M43.84,15.196a.32458.32458,0,0,1-.06445-.20215l-.002-.08789.002-.09082a.32578.32578,0,0,1,.06445-.20117.28088.28088,0,0,1,.38672,0,.32584.32584,0,0,1,.06445.20117c.002.01953.002.04981.002.09082,0,.04,0,.07032-.002.08789a.32464.32464,0,0,1-.06445.20215.28088.28088,0,0,1-.38672,0Zm.3125-.05957a.26183.26183,0,0,0,.041-.14746c0-.01953.002-.04785.002-.085s-.002-.06543-.002-.084a.24631.24631,0,0,0-.043-.14649.13724.13724,0,0,0-.11719-.05273.13486.13486,0,0,0-.11719.05273.24638.24638,0,0,0-.043.14649v.16894a.24734.24734,0,0,0,.043.14746.13426.13426,0,0,0,.11719.05176A.14037.14037,0,0,0,44.15249,15.1364Z"/><line class="h" x1="44.28457" y1="16.14737" x2="39.80307" y2="16.14737"/><path class="e" d="M31.58413,19.04265a.16352.16352,0,0,1-.02539-.09472V18.237h-1.082a.0682.0682,0,0,1-.0586-.03809.18177.18177,0,0,1-.02343-.09472v-.38379a.37212.37212,0,0,1,.03711-.166l1.00781-2.2666a.157.157,0,0,1,.05078-.06934.1297.1297,0,0,1,.07617-.02539h.375a.06858.06858,0,0,1,.06055.03614.179.179,0,0,1,.02148.09765v2.249h.3086a.06538.06538,0,0,1,.05859.03614.17836.17836,0,0,1,.02344.09765v.39454a.18168.18168,0,0,1-.02344.09472.06392.06392,0,0,1-.05859.03809h-.3086v.71094a.17912.17912,0,0,1-.02148.09472.068.068,0,0,1-.06055.03906h-.30078A.06706.06706,0,0,1,31.58413,19.04265Zm-.709-1.44433h.69531V16.00457Z"/><path class="e" d="M32.96108,18.72625a2.42247,2.42247,0,0,1-.24414-1.07813c-.002-.09961-.0039-.26953-.0039-.51074,0-.24414.002-.418.0039-.52246a2.31725,2.31725,0,0,1,.2461-1.06641.769.769,0,0,1,1.36132,0,2.31725,2.31725,0,0,1,.2461,1.06641c.0039.208.00586.38183.00586.52246s-.002.31152-.00586.51074a2.395,2.395,0,0,1-.2461,1.07813.77063.77063,0,0,1-1.36328,0Zm1-.46387a1.64213,1.64213,0,0,0,.11328-.6416c.002-.10743.00391-.27246.00391-.49414,0-.22266-.002-.38379-.00391-.4834a1.63187,1.63187,0,0,0-.11328-.63379.33249.33249,0,0,0-.63476,0,1.56232,1.56232,0,0,0-.11328.63379c-.002.09961-.00391.26074-.00391.4834,0,.22168.002.38671.00391.49414a1.57318,1.57318,0,0,0,.11328.6416.33654.33654,0,0,0,.63476,0Z"/><path class="e" d="M35.21108,18.72625a2.39622,2.39622,0,0,1-.24414-1.07813c-.002-.09961-.0039-.26953-.0039-.51074,0-.24414.002-.418.0039-.52246a2.31725,2.31725,0,0,1,.2461-1.06641.7674.7674,0,0,1,1.35937,0,2.31726,2.31726,0,0,1,.24609,1.06641c.00391.208.00782.38183.00782.52246s-.00391.31152-.00782.51074a2.42233,2.42233,0,0,1-.24414,1.07813.77063.77063,0,0,1-1.36328,0Zm1-.46387a1.61122,1.61122,0,0,0,.11133-.6416c.002-.10743.00391-.27246.00391-.49414,0-.22266-.002-.38379-.00391-.4834a1.60027,1.60027,0,0,0-.11133-.63379.33382.33382,0,0,0-.63672,0,1.63205,1.63205,0,0,0-.11328.63379c-.002.09961-.002.26074-.002.4834,0,.22168,0,.38671.002.49414a1.64231,1.64231,0,0,0,.11328.6416.33793.33793,0,0,0,.63672,0Z"/><path class="i" d="M42.08022,22.696l-.20117.22852h-.23828l.25195-.28516v-.16894H41.4396V22.1989h.18555v.085h.45507Z"/><path class="i" d="M42.78921,22.7448l-.168.17969h-.47266v-.64063h.64063Zm-.18555-.06348v-.21093h-.26758V22.738h.20508Z"/><path class="i" d="M43.49819,22.73308l-.14062.19141h-.22852l.1836-.249v-.20507h-.45508v-.18653h.64062Zm-.45312.30762h-.1875v-.44434h.1875Z"/><path class="i" d="M44.20327,22.47039h-.07422v.4541h-.1875v-.4541h-.373v-.18653h.63477Z"/><path class="g" d="M41.83218,23.6989a.01637.01637,0,0,1-.00586-.01367v-.252a.12788.12788,0,0,0-.14453-.14453h-.15625a.0212.0212,0,0,1-.01368-.00489.01774.01774,0,0,1-.00586-.01367v-.02734a.01639.01639,0,0,1,.00586-.01367.017.017,0,0,1,.01368-.00489h.16015c.14258,0,.21485.06836.21485.207v.25391a.0164.0164,0,0,1-.00586.01367.01774.01774,0,0,1-.01368.00586h-.03515A.01519.01519,0,0,1,41.83218,23.6989Zm-.32032,0a.0164.0164,0,0,1-.00586-.01367V23.402a.01932.01932,0,0,1,.00586-.01368.017.017,0,0,1,.01368-.00488h.03515a.017.017,0,0,1,.01367.00488.01928.01928,0,0,1,.00586.01368v.2832a.01637.01637,0,0,1-.00586.01367.0177.0177,0,0,1-.01367.00586h-.03515A.01774.01774,0,0,1,41.51186,23.6989Z"/><path class="g" d="M42.41421,23.24871a.16963.16963,0,0,1,.06445.07129.2406.2406,0,0,1,.02344.10937v.25586a.01637.01637,0,0,1-.00586.01367.01772.01772,0,0,1-.01367.00586h-.2168a.0177.0177,0,0,1-.01367-.00586.01637.01637,0,0,1-.00586-.01367v-.02637a.01987.01987,0,0,1,.00586-.01465.02115.02115,0,0,1,.01367-.00488h.16211v-.20508a.16038.16038,0,0,0-.0332-.10351.099.099,0,0,0-.082-.04h-.0879l-.0664.39355a.01985.01985,0,0,1-.00586.01465l-.01367.00586h-.03516A.01519.01519,0,0,1,42.09,23.6989a.01866.01866,0,0,1-.00391-.01465l.06641-.39355h-.043l-.01367-.00586a.01647.01647,0,0,1-.00391-.01367v-.02832l.00391-.01367.01367-.00489h.21289A.16983.16983,0,0,1,42.41421,23.24871Z"/><path class="g" d="M42.94741,23.6989a.01637.01637,0,0,1-.00586-.01367v-.252a.12788.12788,0,0,0-.14453-.14453h-.10937l-.01368-.00489a.01774.01774,0,0,1-.00586-.01367v-.02734a.01928.01928,0,0,1,.00586-.01367l.01368-.00489h.11523c.14258,0,.21289.06836.21289.20508v.25586a.01637.01637,0,0,1-.00586.01367.01772.01772,0,0,1-.01367.00586h-.03516A.01772.01772,0,0,1,42.94741,23.6989Z"/><path class="g" d="M43.60366,23.68816l-.00391.01172-.01171.00488H43.549a.02383.02383,0,0,1-.01757-.00586l-.00586-.00781-.19141-.27051a.11921.11921,0,0,0-.04883.0625.20237.20237,0,0,0-.01367.07813v.124a.01637.01637,0,0,1-.00586.01367.01772.01772,0,0,1-.01367.00586h-.03125a.0177.0177,0,0,1-.01367-.00586.01637.01637,0,0,1-.00586-.01367v-.127a.26227.26227,0,0,1,.01953-.1084.18591.18591,0,0,1,.07422-.084l-.07813-.10937a.03124.03124,0,0,1-.00586-.01563l.00391-.01171.01172-.00489h.03711a.0255.0255,0,0,1,.02343.01367l.17774.24707a.1622.1622,0,0,0,.04492-.0371.10532.10532,0,0,0,.01563-.03809.18353.18353,0,0,0,.0039-.04981v-.11718a.01928.01928,0,0,1,.00586-.01367.017.017,0,0,1,.01367-.00489h.03321a.017.017,0,0,1,.01367.00489.01928.01928,0,0,1,.00586.01367v.12109a.24477.24477,0,0,1-.01953.09766.202.202,0,0,1-.08008.07617l.0957.13379A.02863.02863,0,0,1,43.60366,23.68816Z"/><path class="g" d="M43.85952,23.35808a.17729.17729,0,0,0,.00781.05274.0382.0382,0,0,0,.02735.02441l.03125.00879a.01442.01442,0,0,1,.00976.00879.02481.02481,0,0,1,.00391.0166v.01953a.01307.01307,0,0,1-.00781.01367.0412.0412,0,0,1-.02149.00293l-.0332-.00683c-.05469-.0127-.084-.06055-.084-.14356v-.1123a.01639.01639,0,0,1,.00586-.01367.017.017,0,0,1,.01368-.00489h.15625a.18113.18113,0,0,1,.14062.05371.239.239,0,0,1,.05078.1543v.06445a.241.241,0,0,1-.05078.1543.18113.18113,0,0,1-.14062.05371h-.14649l-.01367-.00586c-.00391-.00293-.00391-.00781-.00391-.01367v-.02734a.01866.01866,0,0,1,.00391-.01465l.01367-.00489H43.963a.11183.11183,0,0,0,.09179-.03808.17108.17108,0,0,0,.03516-.10645v-.05859a.169.169,0,0,0-.03516-.10645.11183.11183,0,0,0-.09179-.03808h-.10352Z"/><path class="e" d="M25.00073,15.40259a1.38662,1.38662,0,0,0,.57139,1.12477l-1.04381,1.046a.73448.73448,0,0,1-1.037,0L21.84018,15.92a.7318.7318,0,0,1,0-1.03479L23.4913,13.234a.73044.73044,0,0,1,1.037,0l1.04381,1.04379A1.38661,1.38661,0,0,0,25.00073,15.40259Z"/><path class="e" d="M26.17954,15.92l-.117.117a.71345.71345,0,0,1,0-1.26873l.117.117A.7318.7318,0,0,1,26.17954,15.92Z"/><circle class="e" cx="26.39365" cy="15.40285" r="0.71715"/><path class="c" d="M19.28552,23.42118a.62061.62061,0,0,0,.25128.49609l-.45993.45988a.32508.32508,0,0,1-.45773,0L17.891,23.649a.32242.32242,0,0,1,0-.45564l.72814-.73028a.32508.32508,0,0,1,.45773,0l.45993.462A.62061.62061,0,0,0,19.28552,23.42118Z"/><path class="c" d="M19.805,23.649l-.051.05109a.31347.31347,0,0,1,0-.55782l.051.05109A.32242.32242,0,0,1,19.805,23.649Z"/><path class="c" d="M20.216,23.42118a.31621.31621,0,0,1-.31729.3151.29753.29753,0,0,1-.14471-.03619.31347.31347,0,0,1,0-.55782.27727.27727,0,0,1,.14471-.03832A.318.318,0,0,1,20.216,23.42118Z"/><path class="c" d="M16.86092,23.88235l-.4284.42794a.30142.30142,0,0,1-.42537,0l-.67749-.677a.29986.29986,0,0,1,0-.42412l.67749-.67876a.30144.30144,0,0,1,.42537,0l.428.42965a.57141.57141,0,0,0,.00042.92234Z"/><path class="c" d="M17.11,23.63324l-.04722.04726a.29105.29105,0,0,1,0-.51864l.04722.04726A.30058.30058,0,0,1,17.11,23.63324Z"/><path class="c" d="M17.19712,23.12616a.29411.29411,0,1,1,0,.58821.27892.27892,0,0,1-.13494-.03369.29193.29193,0,0,1-.00006-.5191A.26237.26237,0,0,1,17.19712,23.12616Z"/><path class="c" d="M14.185,23.84743l-.39688.396a.27776.27776,0,0,1-.393,0l-.62684-.62595a.27729.27729,0,0,1,0-.39261l.62684-.62724a.27776.27776,0,0,1,.393,0l.39605.39729a.52749.52749,0,0,0,.00083.8525Z"/><path class="c" d="M14.415,23.61749l-.0434.04343a.26866.26866,0,0,1,0-.47947l.0434.04343A.27874.27874,0,0,1,14.415,23.61749Z"/><path class="c" d="M14.49556,23.14837a.272.272,0,1,1,0,.54408.26041.26041,0,0,1-.12517-.03118.2704.2704,0,0,1-.00013-.48037A.24761.24761,0,0,1,14.49556,23.14837Z"/><path class="c" d="M11.50916,23.81251l-.36536.36408a.25411.25411,0,0,1-.36061,0l-.5762-.57486a.25473.25473,0,0,1,0-.3611l.5762-.57571a.25411.25411,0,0,1,.36061,0l.36411.36493a.48357.48357,0,0,0,.00125.78266Z"/><path class="c" d="M11.71993,23.60173l-.03957.0396a.24627.24627,0,0,1,0-.4403l.03957.0396A.25688.25688,0,0,1,11.71993,23.60173Z"/><path class="c" d="M11.794,23.17059a.25.25,0,1,1,0,.49994.24183.24183,0,0,1-.11539-.02867.24886.24886,0,0,1-.00019-.44165A.23313.23313,0,0,1,11.794,23.17059Z"/><path class="c" d="M8.83328,23.7776l-.33383.33213a.23047.23047,0,0,1-.32825,0L7.64566,23.586a.23216.23216,0,0,1,0-.32959l.52554-.52419a.23049.23049,0,0,1,.32825,0l.33217.33257a.43965.43965,0,0,0,.00166.71283Z"/><path class="c" d="M9.0249,23.586l-.03574.03576a.22387.22387,0,0,1,0-.40112l.03574.03577A.235.235,0,0,1,9.0249,23.586Z"/><path class="c" d="M9.09243,23.1928a.22791.22791,0,1,1,0,.45582.2233.2233,0,0,1-.10562-.02617.22734.22734,0,0,1-.00025-.40293A.21882.21882,0,0,1,9.09243,23.1928Z"/><path class="c" d="M6.15741,23.74268l-.30232.3002a.20684.20684,0,0,1-.29587,0l-.47489-.47266a.20961.20961,0,0,1,0-.29808l.47489-.47266a.20685.20685,0,0,1,.29587,0l.30024.3002a.39217.39217,0,0,0-.16395.3215A.39728.39728,0,0,0,6.15741,23.74268Z"/><path class="c" d="M6.32988,23.57022l-.03192.03193a.20149.20149,0,0,1,0-.36194l.03192.03193A.21324.21324,0,0,1,6.32988,23.57022Z"/><path class="c" d="M6.39087,23.6267a.20585.20585,0,1,1,.20577-.20577A.206.206,0,0,1,6.39087,23.6267Z"/><path class="c" d="M19.28552,20.9645a.62061.62061,0,0,0,.25128.49609l-.45993.45988a.32508.32508,0,0,1-.45773,0l-.72814-.72815a.32241.32241,0,0,1,0-.45563l.72814-.73029a.32508.32508,0,0,1,.45773,0l.45993.462A.62061.62061,0,0,0,19.28552,20.9645Z"/><path class="c" d="M19.805,21.19232l-.051.0511a.31348.31348,0,0,1,0-.55783l.051.0511A.32241.32241,0,0,1,19.805,21.19232Z"/><path class="c" d="M20.216,20.9645a.31622.31622,0,0,1-.31729.31511.29764.29764,0,0,1-.14471-.03619.31348.31348,0,0,1,0-.55783.27727.27727,0,0,1,.14471-.03832A.318.318,0,0,1,20.216,20.9645Z"/><path class="c" d="M16.86092,21.42567l-.4284.42795a.30144.30144,0,0,1-.42537,0l-.67749-.67706a.29986.29986,0,0,1,0-.42412l.67749-.67876a.30144.30144,0,0,1,.42537,0l.428.42965a.57141.57141,0,0,0,.00042.92234Z"/><path class="c" d="M17.11,21.17656l-.04722.04727a.29106.29106,0,0,1,0-.51865l.04722.04726A.30058.30058,0,0,1,17.11,21.17656Z"/><path class="c" d="M17.19712,20.66948a.29411.29411,0,1,1,0,.58821.279.279,0,0,1-.13494-.03368.29194.29194,0,0,1-.00006-.51911A.26237.26237,0,0,1,17.19712,20.66948Z"/><path class="c" d="M14.185,21.39075l-.39688.396a.27776.27776,0,0,1-.393,0l-.62684-.62595a.27729.27729,0,0,1,0-.39261l.62684-.62723a.27776.27776,0,0,1,.393,0l.39605.39728a.52749.52749,0,0,0,.00083.8525Z"/><path class="c" d="M14.415,21.16081l-.0434.04343a.26866.26866,0,0,1,0-.47947l.0434.04343A.27874.27874,0,0,1,14.415,21.16081Z"/><path class="c" d="M14.49556,20.6917a.272.272,0,1,1,0,.54407.26041.26041,0,0,1-.12517-.03117.27041.27041,0,0,1-.00013-.48038A.2477.2477,0,0,1,14.49556,20.6917Z"/><path class="c" d="M11.50916,21.35584l-.36536.36407a.25411.25411,0,0,1-.36061,0l-.5762-.57486a.25473.25473,0,0,1,0-.3611l.5762-.5757a.25409.25409,0,0,1,.36061,0l.36411.36492a.48358.48358,0,0,0,.00125.78267Z"/><path class="c" d="M11.71993,21.14505l-.03957.0396a.24627.24627,0,0,1,0-.44029l.03957.03959A.25688.25688,0,0,1,11.71993,21.14505Z"/><path class="c" d="M11.794,20.71391a.25.25,0,1,1,0,.49994.24194.24194,0,0,1-.11539-.02866.24887.24887,0,0,1-.00019-.44166A.23313.23313,0,0,1,11.794,20.71391Z"/><path class="c" d="M8.83328,21.32092l-.33383.33213a.23047.23047,0,0,1-.32825,0l-.52554-.52375a.23216.23216,0,0,1,0-.32959l.52554-.52418a.23047.23047,0,0,1,.32825,0l.33217.33256a.43965.43965,0,0,0,.00166.71283Z"/><path class="c" d="M9.0249,21.1293l-.03574.03576a.22387.22387,0,0,1,0-.40111l.03574.03576A.235.235,0,0,1,9.0249,21.1293Z"/><path class="c" d="M9.09243,20.73612a.22791.22791,0,1,1,0,.45582.22341.22341,0,0,1-.10562-.02616.22734.22734,0,0,1-.00025-.40293A.21871.21871,0,0,1,9.09243,20.73612Z"/><path class="c" d="M6.15741,21.286l-.30232.3002a.20684.20684,0,0,1-.29587,0l-.47489-.47266a.20961.20961,0,0,1,0-.29808l.47489-.47265a.20684.20684,0,0,1,.29587,0l.30024.3002a.39213.39213,0,0,0-.16395.32149A.39725.39725,0,0,0,6.15741,21.286Z"/><path class="c" d="M6.32988,21.11354l-.03192.03193a.20149.20149,0,0,1,0-.36194l.03192.03193A.21324.21324,0,0,1,6.32988,21.11354Z"/><path class="c" d="M6.39087,21.17a.20584.20584,0,1,1,.20577-.20577A.206.206,0,0,1,6.39087,21.17Z"/><path class="c" d="M19.28552,18.50782a.62061.62061,0,0,0,.25128.49609l-.45993.45988a.32506.32506,0,0,1-.45773,0l-.72814-.72815a.32241.32241,0,0,1,0-.45563l.72814-.73028a.32506.32506,0,0,1,.45773,0l.45993.462A.62061.62061,0,0,0,19.28552,18.50782Z"/><path class="c" d="M19.805,18.73564l-.051.0511a.31348.31348,0,0,1,0-.55783l.051.0511A.32241.32241,0,0,1,19.805,18.73564Z"/><path class="c" d="M20.216,18.50782a.31622.31622,0,0,1-.31729.31511.29764.29764,0,0,1-.14471-.03619.31348.31348,0,0,1,0-.55783.27727.27727,0,0,1,.14471-.03832A.318.318,0,0,1,20.216,18.50782Z"/><path class="c" d="M16.86092,18.969l-.4284.42795a.30144.30144,0,0,1-.42537,0l-.67749-.67705a.29987.29987,0,0,1,0-.42413l.67749-.67875a.30142.30142,0,0,1,.42537,0l.428.42965a.5714.5714,0,0,0,.00042.92233Z"/><path class="c" d="M17.11,18.71989l-.04722.04726a.29106.29106,0,0,1,0-.51865l.04722.04726A.3006.3006,0,0,1,17.11,18.71989Z"/><path class="c" d="M17.19712,18.2128a.29411.29411,0,1,1,0,.58821.279.279,0,0,1-.13494-.03368.29193.29193,0,0,1-.00006-.5191A.26238.26238,0,0,1,17.19712,18.2128Z"/><path class="c" d="M14.185,18.93408l-.39688.396a.27776.27776,0,0,1-.393,0l-.62684-.62595a.27729.27729,0,0,1,0-.39261l.62684-.62723a.27776.27776,0,0,1,.393,0l.39605.39728a.5275.5275,0,0,0,.00083.85251Z"/><path class="c" d="M14.415,18.70413l-.0434.04343a.26866.26866,0,0,1,0-.47947l.0434.04343A.27874.27874,0,0,1,14.415,18.70413Z"/><path class="c" d="M14.49556,18.235a.272.272,0,1,1,0,.54407.26041.26041,0,0,1-.12517-.03117.27041.27041,0,0,1-.00013-.48038A.2477.2477,0,0,1,14.49556,18.235Z"/><path class="c" d="M11.50916,18.89916l-.36536.36407a.25411.25411,0,0,1-.36061,0l-.5762-.57485a.25474.25474,0,0,1,0-.36111l.5762-.5757a.25411.25411,0,0,1,.36061,0l.36411.36492a.48358.48358,0,0,0,.00125.78267Z"/><path class="c" d="M11.71993,18.68838l-.03957.03959a.24627.24627,0,0,1,0-.44029l.03957.03959A.25689.25689,0,0,1,11.71993,18.68838Z"/><path class="c" d="M11.794,18.25723a.25.25,0,1,1,0,.5.24183.24183,0,0,1-.11539-.02867.24887.24887,0,0,1-.00019-.44166A.23313.23313,0,0,1,11.794,18.25723Z"/><path class="c" d="M8.83328,18.86424l-.33383.33214a.23049.23049,0,0,1-.32825,0l-.52554-.52376a.23216.23216,0,0,1,0-.32959l.52554-.52418a.23047.23047,0,0,1,.32825,0l.33217.33256a.43965.43965,0,0,0,.00166.71283Z"/><path class="c" d="M9.0249,18.67262l-.03574.03576a.22387.22387,0,0,1,0-.40111l.03574.03576A.235.235,0,0,1,9.0249,18.67262Z"/><path class="c" d="M9.09243,18.27944a.22791.22791,0,1,1,0,.45582.22341.22341,0,0,1-.10562-.02616.22734.22734,0,0,1-.00025-.40293A.21871.21871,0,0,1,9.09243,18.27944Z"/><path class="c" d="M6.15741,18.82932l-.30232.3002a.20684.20684,0,0,1-.29587,0l-.47489-.47265a.20963.20963,0,0,1,0-.29809l.47489-.47265a.20684.20684,0,0,1,.29587,0l.30024.3002a.39213.39213,0,0,0-.16395.32149A.39725.39725,0,0,0,6.15741,18.82932Z"/><path class="c" d="M6.32988,18.65687l-.03192.03192a.20148.20148,0,0,1,0-.36193l.03192.03192A.21325.21325,0,0,1,6.32988,18.65687Z"/><path class="c" d="M6.39087,18.71334a.20584.20584,0,1,1,.20577-.20577A.206.206,0,0,1,6.39087,18.71334Z"/><path class="c" d="M19.28552,16.05115a.62061.62061,0,0,0,.25128.49608l-.45993.45988a.32506.32506,0,0,1-.45773,0L17.891,16.279a.32241.32241,0,0,1,0-.45563l.72814-.73028a.32506.32506,0,0,1,.45773,0l.45993.462A.62061.62061,0,0,0,19.28552,16.05115Z"/><path class="c" d="M19.805,16.279l-.051.0511a.31348.31348,0,0,1,0-.55783l.051.0511A.32241.32241,0,0,1,19.805,16.279Z"/><path class="c" d="M20.216,16.05115a.31621.31621,0,0,1-.31729.3151.29753.29753,0,0,1-.14471-.03619.31348.31348,0,0,1,0-.55783.27736.27736,0,0,1,.14471-.03832A.318.318,0,0,1,20.216,16.05115Z"/><path class="c" d="M16.86092,16.51232l-.4284.42794a.30142.30142,0,0,1-.42537,0l-.67749-.677a.29986.29986,0,0,1,0-.42412l.67749-.67876a.30142.30142,0,0,1,.42537,0l.428.42965a.57141.57141,0,0,0,.00042.92234Z"/><path class="c" d="M17.11,16.26321l-.04722.04726a.29106.29106,0,0,1,0-.51865l.04722.04727A.30058.30058,0,0,1,17.11,16.26321Z"/><path class="c" d="M17.19712,15.75613a.2941.2941,0,1,1,0,.5882.279.279,0,0,1-.13494-.03368.29193.29193,0,0,1-.00006-.5191A.26237.26237,0,0,1,17.19712,15.75613Z"/><path class="c" d="M14.185,16.4774l-.39688.396a.27776.27776,0,0,1-.393,0l-.62684-.626a.27729.27729,0,0,1,0-.39261l.62684-.62723a.27776.27776,0,0,1,.393,0l.39605.39729a.52749.52749,0,0,0,.00083.8525Z"/><path class="c" d="M14.415,16.24745l-.0434.04343a.26866.26866,0,0,1,0-.47947l.0434.04343A.27874.27874,0,0,1,14.415,16.24745Z"/><path class="c" d="M14.49556,15.77834a.272.272,0,1,1,0,.54408.26041.26041,0,0,1-.12517-.03118.27041.27041,0,0,1-.00013-.48038A.2477.2477,0,0,1,14.49556,15.77834Z"/><path class="c" d="M11.50916,16.44248l-.36536.36407a.25411.25411,0,0,1-.36061,0l-.5762-.57485a.25473.25473,0,0,1,0-.3611l.5762-.57571a.25411.25411,0,0,1,.36061,0l.36411.36492a.48358.48358,0,0,0,.00125.78267Z"/><path class="c" d="M11.71993,16.2317l-.03957.03959a.24627.24627,0,0,1,0-.44029l.03957.0396A.25688.25688,0,0,1,11.71993,16.2317Z"/><path class="c" d="M11.794,15.80055a.25.25,0,1,1,0,.5.24183.24183,0,0,1-.11539-.02867.24886.24886,0,0,1-.00019-.44165A.233.233,0,0,1,11.794,15.80055Z"/><path class="c" d="M8.83328,16.40756l-.33383.33214a.23049.23049,0,0,1-.32825,0l-.52554-.52376a.23216.23216,0,0,1,0-.32959l.52554-.52418a.23049.23049,0,0,1,.32825,0l.33217.33256a.43965.43965,0,0,0,.00166.71283Z"/><path class="c" d="M9.0249,16.21594l-.03574.03576a.22387.22387,0,0,1,0-.40111l.03574.03576A.235.235,0,0,1,9.0249,16.21594Z"/><path class="c" d="M9.09243,15.82277a.22791.22791,0,1,1,0,.45581.22341.22341,0,0,1-.10562-.02616.22734.22734,0,0,1-.00025-.40293A.21871.21871,0,0,1,9.09243,15.82277Z"/><path class="c" d="M6.15741,16.37264l-.30232.3002a.20684.20684,0,0,1-.29587,0l-.47489-.47265a.20961.20961,0,0,1,0-.29808l.47489-.47266a.20684.20684,0,0,1,.29587,0l.30024.3002a.39214.39214,0,0,0-.16395.3215A.39724.39724,0,0,0,6.15741,16.37264Z"/><path class="c" d="M6.32988,16.20019l-.03192.03193a.20149.20149,0,0,1,0-.36194l.03192.03193A.21324.21324,0,0,1,6.32988,16.20019Z"/><path class="c" d="M6.39087,16.25666a.20584.20584,0,1,1,.20577-.20577A.206.206,0,0,1,6.39087,16.25666Z"/><path class="c" d="M19.28552,13.59447a.62061.62061,0,0,0,.25128.49609l-.45993.45988a.32508.32508,0,0,1-.45773,0l-.72814-.72815a.32242.32242,0,0,1,0-.45564l.72814-.73028a.32508.32508,0,0,1,.45773,0l.45993.462A.62061.62061,0,0,0,19.28552,13.59447Z"/><path class="c" d="M19.805,13.82229l-.051.05109a.31347.31347,0,0,1,0-.55782l.051.05109A.32242.32242,0,0,1,19.805,13.82229Z"/><path class="c" d="M20.216,13.59447a.31621.31621,0,0,1-.31729.3151.29753.29753,0,0,1-.14471-.03619.31347.31347,0,0,1,0-.55782.27728.27728,0,0,1,.14471-.03833A.318.318,0,0,1,20.216,13.59447Z"/><path class="c" d="M16.86092,14.05564l-.4284.42794a.30142.30142,0,0,1-.42537,0l-.67749-.677a.29986.29986,0,0,1,0-.42412l.67749-.67876a.30142.30142,0,0,1,.42537,0l.428.42965a.57141.57141,0,0,0,.00042.92234Z"/><path class="c" d="M17.11,13.80653l-.04722.04726a.29105.29105,0,0,1,0-.51864l.04722.04726A.30058.30058,0,0,1,17.11,13.80653Z"/><path class="c" d="M17.19712,13.29945a.29411.29411,0,1,1,0,.58821.27892.27892,0,0,1-.13494-.03369.29193.29193,0,0,1-.00006-.5191A.26237.26237,0,0,1,17.19712,13.29945Z"/><path class="c" d="M14.185,14.02072l-.39688.396a.27776.27776,0,0,1-.393,0l-.62684-.626a.27729.27729,0,0,1,0-.39261l.62684-.62723a.27776.27776,0,0,1,.393,0l.39605.39729a.52749.52749,0,0,0,.00083.8525Z"/><path class="c" d="M14.415,13.79077l-.0434.04343a.26866.26866,0,0,1,0-.47947l.0434.04343A.27874.27874,0,0,1,14.415,13.79077Z"/><path class="c" d="M14.49556,13.32166a.272.272,0,1,1,0,.54408.26041.26041,0,0,1-.12517-.03118.27041.27041,0,0,1-.00013-.48038A.2477.2477,0,0,1,14.49556,13.32166Z"/><path class="c" d="M11.50916,13.9858l-.36536.36407a.25409.25409,0,0,1-.36061,0L10.207,13.775a.25473.25473,0,0,1,0-.3611l.5762-.57571a.25411.25411,0,0,1,.36061,0l.36411.36493a.48357.48357,0,0,0,.00125.78266Z"/><path class="c" d="M11.71993,13.775l-.03957.0396a.24627.24627,0,0,1,0-.4403l.03957.0396A.25688.25688,0,0,1,11.71993,13.775Z"/><path class="c" d="M11.794,13.34388a.25.25,0,1,1,0,.49994.24183.24183,0,0,1-.11539-.02867.24886.24886,0,0,1-.00019-.44165A.233.233,0,0,1,11.794,13.34388Z"/><path class="c" d="M8.83328,13.95088l-.33383.33214a.23049.23049,0,0,1-.32825,0l-.52554-.52376a.23216.23216,0,0,1,0-.32959l.52554-.52418a.23049.23049,0,0,1,.32825,0l.33217.33256a.43965.43965,0,0,0,.00166.71283Z"/><path class="c" d="M9.0249,13.75926l-.03574.03577a.22387.22387,0,0,1,0-.40112l.03574.03576A.235.235,0,0,1,9.0249,13.75926Z"/><path class="c" d="M9.09243,13.36609a.22791.22791,0,1,1,0,.45581.22329.22329,0,0,1-.10562-.02616.22734.22734,0,0,1-.00025-.40293A.21882.21882,0,0,1,9.09243,13.36609Z"/><path class="c" d="M6.15741,13.916l-.30232.3002a.20685.20685,0,0,1-.29587,0l-.47489-.47266a.20961.20961,0,0,1,0-.29808l.47489-.47266a.20684.20684,0,0,1,.29587,0l.30024.3002a.39217.39217,0,0,0-.16395.3215A.39728.39728,0,0,0,6.15741,13.916Z"/><path class="c" d="M6.32988,13.74351l-.03192.03193a.20149.20149,0,0,1,0-.36194l.03192.03193A.21324.21324,0,0,1,6.32988,13.74351Z"/><path class="c" d="M6.39087,13.8a.20585.20585,0,1,1,.20577-.20578A.206.206,0,0,1,6.39087,13.8Z"/><path class="c" d="M19.28552,11.13779a.62061.62061,0,0,0,.25128.49609l-.45993.45988a.32508.32508,0,0,1-.45773,0l-.72814-.72815a.32242.32242,0,0,1,0-.45564l.72814-.73028a.32508.32508,0,0,1,.45773,0l.45993.462A.62058.62058,0,0,0,19.28552,11.13779Z"/><path class="c" d="M19.805,11.36561l-.051.05109a.31347.31347,0,0,1,0-.55782l.051.05109A.32242.32242,0,0,1,19.805,11.36561Z"/><path class="c" d="M20.216,11.13779a.31621.31621,0,0,1-.31729.3151.29753.29753,0,0,1-.14471-.03619.31347.31347,0,0,1,0-.55782.27727.27727,0,0,1,.14471-.03832A.318.318,0,0,1,20.216,11.13779Z"/><path class="c" d="M16.86092,11.599l-.4284.42794a.30142.30142,0,0,1-.42537,0l-.67749-.677a.29986.29986,0,0,1,0-.42412l.67749-.67876a.30144.30144,0,0,1,.42537,0l.428.42965a.57141.57141,0,0,0,.00042.92234Z"/><path class="c" d="M17.11,11.34985l-.04722.04727a.29106.29106,0,0,1,0-.51865l.04722.04726A.30058.30058,0,0,1,17.11,11.34985Z"/><path class="c" d="M17.19712,10.84277a.29411.29411,0,1,1,0,.58821.27892.27892,0,0,1-.13494-.03369.29193.29193,0,0,1-.00006-.5191A.26237.26237,0,0,1,17.19712,10.84277Z"/><path class="c" d="M14.185,11.564l-.39688.396a.27776.27776,0,0,1-.393,0l-.62684-.626a.27729.27729,0,0,1,0-.39261l.62684-.62724a.27776.27776,0,0,1,.393,0l.39605.39729a.52749.52749,0,0,0,.00083.8525Z"/><path class="c" d="M14.415,11.3341l-.0434.04343a.26866.26866,0,0,1,0-.47947l.0434.04343A.27874.27874,0,0,1,14.415,11.3341Z"/><path class="c" d="M14.49556,10.865a.272.272,0,1,1,0,.54408.26041.26041,0,0,1-.12517-.03118.2704.2704,0,0,1-.00013-.48037A.24761.24761,0,0,1,14.49556,10.865Z"/><path class="c" d="M11.50916,11.52912l-.36536.36408a.25411.25411,0,0,1-.36061,0l-.5762-.57486a.25473.25473,0,0,1,0-.3611l.5762-.57571a.25411.25411,0,0,1,.36061,0l.36411.36493a.48357.48357,0,0,0,.00125.78266Z"/><path class="c" d="M11.71993,11.31834l-.03957.0396a.24627.24627,0,0,1,0-.4403l.03957.0396A.25688.25688,0,0,1,11.71993,11.31834Z"/><path class="c" d="M11.794,10.8872a.25.25,0,1,1,0,.49994.24183.24183,0,0,1-.11539-.02867.24886.24886,0,0,1-.00019-.44165A.23313.23313,0,0,1,11.794,10.8872Z"/><path class="c" d="M8.83328,11.49421l-.33383.33213a.23047.23047,0,0,1-.32825,0l-.52554-.52375a.23216.23216,0,0,1,0-.32959l.52554-.52419a.23049.23049,0,0,1,.32825,0l.33217.33257a.43965.43965,0,0,0,.00166.71283Z"/><path class="c" d="M9.0249,11.30259l-.03574.03576a.22387.22387,0,0,1,0-.40112l.03574.03577A.235.235,0,0,1,9.0249,11.30259Z"/><path class="c" d="M9.09243,10.90941a.22791.22791,0,1,1,0,.45582.2233.2233,0,0,1-.10562-.02617.22734.22734,0,0,1-.00025-.40293A.21882.21882,0,0,1,9.09243,10.90941Z"/><path class="c" d="M6.15741,11.45929l-.30232.3002a.20684.20684,0,0,1-.29587,0l-.47489-.47266a.20961.20961,0,0,1,0-.29808l.47489-.47266a.20685.20685,0,0,1,.29587,0l.30024.3002a.39217.39217,0,0,0-.16395.3215A.39728.39728,0,0,0,6.15741,11.45929Z"/><path class="c" d="M6.32988,11.28683l-.03192.03193a.20149.20149,0,0,1,0-.36194l.03192.03193A.21324.21324,0,0,1,6.32988,11.28683Z"/><path class="c" d="M6.39087,11.34331a.20585.20585,0,1,1,.20577-.20577A.206.206,0,0,1,6.39087,11.34331Z"/><path class="e" d="M4.36615,13.083h6.95648a.891.891,0,0,1,.891.891v.0404a.891.891,0,0,1-.891.891H4.36615a0,0,0,0,1,0,0V13.083a0,0,0,0,1,0,0Z"/><path class="j" d="M6.22475,13.75261a.29372.29372,0,0,1,.0879.23438v.38086a.03136.03136,0,0,1-.00977.02148.02894.02894,0,0,1-.02344.00977H6.131a.03173.03173,0,0,1-.0332-.03125v-.374a.12689.12689,0,0,0-.14258-.14453h-.082a.80422.80422,0,0,0-.01953.18653l.01172.332a.03173.03173,0,0,1-.0332.03125l-.26758-.001a.03167.03167,0,0,1-.02344-.00879.03234.03234,0,0,1-.00976-.02344v-.09961a.03171.03171,0,0,1,.0332-.03125h.10156v-.19824a.62926.62926,0,0,1,.01953-.1875H5.61147A.03167.03167,0,0,1,5.588,13.8405a.02454.02454,0,0,1-.00977-.02246v-.1084a.02455.02455,0,0,1,.00977-.02246.03167.03167,0,0,1,.02343-.00879H5.963A.39652.39652,0,0,1,6.22475,13.75261Z"/><path class="j" d="M6.463,14.39031a.03179.03179,0,0,1-.00977-.02246v-.65821a.03012.03012,0,0,1,.00977-.02246.03167.03167,0,0,1,.02343-.00879h.15821a.03167.03167,0,0,1,.02343.00879.02886.02886,0,0,1,.00782.02246v.65821a.02937.02937,0,0,1-.00782.02148.02893.02893,0,0,1-.02343.00977H6.48647A.03167.03167,0,0,1,6.463,14.39031Z"/><path class="j" d="M6.83022,14.0905a.0301.0301,0,0,1-.00976-.02246v-.3584a.03011.03011,0,0,1,.00976-.02246.03169.03169,0,0,1,.02344-.00879h.1582a.03167.03167,0,0,1,.02344.00879.02885.02885,0,0,1,.00781.02246v.3584a.02873.02873,0,0,1-.03125.03125h-.1582A.03169.03169,0,0,1,6.83022,14.0905Z"/><path class="j" d="M7.66811,13.75652a.34107.34107,0,0,1,.07227.23828.37312.37312,0,0,1-.09375.2627.50319.50319,0,0,1-.23828.14257l-.05078.01563a.02184.02184,0,0,1-.02344-.00879.036.036,0,0,1-.01172-.02539v-.12793a.04059.04059,0,0,1,.00977-.02344.07078.07078,0,0,1,.02148-.0166l.041-.0166a.19207.19207,0,0,0,.09179-.06738.21694.21694,0,0,0,.03321-.12793.17438.17438,0,0,0-.02735-.11133.13385.13385,0,0,0-.10351-.03223H7.35561l-.16992-.001a.03028.03028,0,0,1-.02148-.00878.03181.03181,0,0,1-.00977-.02247v-.292a.03179.03179,0,0,1,.00977-.02246.03029.03029,0,0,1,.02148-.00879h.13672a.03167.03167,0,0,1,.02344.00879.03021.03021,0,0,1,.00781.02246v.14453h.07813A.30206.30206,0,0,1,7.66811,13.75652Z"/><path class="j" d="M8.02944,13.903c.002.03418.01172.05469.03125.06055l.03516.0127a.02805.02805,0,0,1,.01562.01464.04637.04637,0,0,1,.00586.02344v.06445a.03572.03572,0,0,1-.01562.0293.06366.06366,0,0,1-.041.00781L8.008,14.10906a.15792.15792,0,0,1-.10742-.07031.24988.24988,0,0,1-.043-.15137v-.17774a.03011.03011,0,0,1,.00976-.02246.02727.02727,0,0,1,.02149-.00879h.2539a.32907.32907,0,0,1,.248.085.35121.35121,0,0,1,.08789.23926.17968.17968,0,0,1,.002.03516.403.403,0,0,1-.08007.26562.32269.32269,0,0,1-.25782.09571H7.90249a.039.039,0,0,1-.02344-.00879.03021.03021,0,0,1-.00781-.02246v-.11621a.03113.03113,0,0,1,.00781-.02344.035.035,0,0,1,.02344-.00977h.23437a.15266.15266,0,0,0,.10547-.03711.14665.14665,0,0,0,.04492-.10547c0-.00878.002-.02148.002-.03808,0-.01563-.002-.02832-.002-.03613a.14207.14207,0,0,0-.043-.10547.1538.1538,0,0,0-.10743-.03809H8.02944Z"/><path class="j" d="M8.91811,14.40691a.04342.04342,0,0,1-.00976-.02539v-.12793a.03819.03819,0,0,1,.00976-.02344.04951.04951,0,0,1,.02149-.0166l.03906-.0166a.20779.20779,0,0,0,.09375-.06738.21694.21694,0,0,0,.0332-.12793.17439.17439,0,0,0-.02734-.11133.13891.13891,0,0,0-.10547-.03223H8.63686a.03167.03167,0,0,1-.02343-.00879.036.036,0,0,1-.00977-.02344v-.11718a.0257.0257,0,0,1,.01172-.02149.03029.03029,0,0,1,.02148-.00879h.38086a.30774.30774,0,0,1,.23633.07813.3508.3508,0,0,1,.07227.23828.37438.37438,0,0,1-.09571.2627.49707.49707,0,0,1-.23632.14257l-.05274.01563A.02437.02437,0,0,1,8.91811,14.40691Zm-.30468.22461a.03179.03179,0,0,1-.00977-.02246v-.61035a.03173.03173,0,0,1,.0332-.03125H8.7814a.03167.03167,0,0,1,.02343.00879.0302.0302,0,0,1,.00782.02246v.61035a.03022.03022,0,0,1-.00782.02246.03167.03167,0,0,1-.02343.00879H8.63686A.03167.03167,0,0,1,8.61343,14.63152Z"/><path class="j" d="M9.8478,14.37664a.28523.28523,0,0,1-.125-.09766.23594.23594,0,0,1-.04492-.13281.0231.0231,0,0,1,.00781-.01856.02569.02569,0,0,1,.01953-.00781H9.883a.04126.04126,0,0,1,.041.02441.13131.13131,0,0,0,.04688.06055.13506.13506,0,0,0,.07422.01856.12671.12671,0,0,0,.08984-.03223.12852.12852,0,0,0,.002-.17871.12852.12852,0,0,0-.09179-.03418.12472.12472,0,0,0-.05078.00879.254.254,0,0,0-.03711.02148.05172.05172,0,0,1-.03125.01563H9.75015a.026.026,0,0,1-.01954-.00879.0238.0238,0,0,1-.00781-.01953l.04688-.44239a.03476.03476,0,0,1,.01172-.02832.04257.04257,0,0,1,.02929-.00976h.51367a.03167.03167,0,0,1,.02344.00879.03021.03021,0,0,1,.00781.02246v.126a.03023.03023,0,0,1-.00781.02247.03238.03238,0,0,1-.02344.00976H9.95718L9.94155,13.86a.20079.20079,0,0,1,.06836-.03222.346.346,0,0,1,.09766-.01074.3244.3244,0,0,1,.15234.03613.29076.29076,0,0,1,.11328.10156.27924.27924,0,0,1,.043.15039.28654.28654,0,0,1-.17383.26758.43907.43907,0,0,1-.19726.04A.48426.48426,0,0,1,9.8478,14.37664Z"/><path class="j" d="M10.62515,14.32a.358.358,0,0,1-.09961-.24024c-.002-.0459-.002-.08691-.002-.12305,0-.03711,0-.0791.002-.126a.39508.39508,0,0,1,.04687-.169.30118.30118,0,0,1,.12305-.11621.401.401,0,0,1,.19531-.043.40618.40618,0,0,1,.19531.043.28956.28956,0,0,1,.123.11621.36941.36941,0,0,1,.04687.169c.002.02344.00391.06543.00391.126,0,.05957-.00195.10059-.00391.12305a.358.358,0,0,1-.0996.24024.43023.43023,0,0,1-.53125,0Zm.35351-.1377a.18906.18906,0,0,0,.03125-.10937c.002-.02442.002-.06348.002-.11817s0-.09375-.002-.11621a.19285.19285,0,0,0-.03125-.1084.10266.10266,0,0,0-.08789-.04c-.07617,0-.11719.04981-.12109.14844v.23438c.0039.09863.04492.14843.12109.14843A.102.102,0,0,0,10.97866,14.1823Z"/><line class="k" x1="41.29829" y1="7.01607" x2="27.1108" y2="7.01607"/><line class="k" x1="42.04661" y1="7.55028" x2="14.79921" y2="7.55028"/><line class="k" x1="42.79494" y1="8.08449" x2="17.79673" y2="8.08449"/><line class="k" x1="43.54327" y1="8.61871" x2="16.29587" y2="8.61871"/><line class="k" x1="44.2916" y1="9.15292" x2="20.78801" y2="9.15292"/><ellipse class="l" cx="18.76358" cy="7.81017" rx="2.98739" ry="3.2311"/><g class="m"><circle class="n" cx="18.45744" cy="9.1407" r="0.87163"/></g><ellipse class="o" cx="18.76358" cy="7.81017" rx="2.98739" ry="3.2311"/><path class="p" d="M15.98326,6.62852a1.31944,1.31944,0,0,1-1.56018-1.27938"/><path class="p" d="M16.41293,5.81741s-1.01658.02708-1.10323-1.36016"/><path class="q" d="M28.25307.55282a7.12411,7.12411,0,0,1,4.976,2.63229"/><path class="q" d="M19.18376.55022s-3.57558.60578-4.54763,2.79314"/><circle class="l" cx="28.31092" cy="7.81017" r="3.2311"/><g class="r"><circle class="n" cx="28.00478" cy="9.1407" r="0.87163"/></g><circle class="o" cx="28.31092" cy="7.81017" r="3.2311"/><path class="p" d="M31.38385,6.62852A1.31945,1.31945,0,0,0,32.944,5.34914"/><path class="p" d="M30.95419,5.81741s1.01658.02708,1.10323-1.36016"/></svg>