<svg xmlns="http://www.w3.org/2000/svg" xmlns:xlink="http://www.w3.org/1999/xlink" viewBox="0 0 17.61933 55.65575"><defs><style>.a,.n{fill:#f6f6f6;}.a,.q,.r,.t{stroke:#2d2a28;}.a,.h,.o,.r,.t{stroke-miterlimit:10;}.a,.q,.r{stroke-width:0.59549px;}.b{fill:#ededed;}.c{fill:#6ab8e2;}.d{fill:#1d71b8;}.e{fill:#154d60;}.f{fill:#e30613;}.g{fill:#fff;}.h,.k,.o,.r,.t{fill:none;}.h,.k{stroke:#fff;}.h{stroke-width:0.12576px;}.i{fill:#175672;}.j{fill:#2d2a28;}.k,.q,.t{stroke-linecap:round;}.k,.q{stroke-linejoin:round;}.k{stroke-width:0.22495px;}.l{fill:#dadada;}.m{fill:#c6c6c6;}.o{stroke:#c6c6c6;stroke-width:0.21792px;}.p{clip-path:url(#a);}.q{fill:#1286e9;}.s{clip-path:url(#b);}.t{stroke-width:1.11655px;}</style><clipPath id="a"><circle class="a" cx="13.81808" cy="9.2342" r="3.27838"/></clipPath><clipPath id="b"><ellipse class="a" cx="4.13103" cy="9.2342" rx="3.03111" ry="3.27838"/></clipPath></defs><rect class="b" x="4.27725" y="22.66676" width="11.76523" height="27.35255"/><path class="b" d="M17.61933,18.24148V20.554a1.71374,1.71374,0,0,1-.84233,1.49369l-.73452.61907H4.27725l-.73389-.61907A1.71374,1.71374,0,0,1,2.701,20.554V18.24148a1.2331,1.2331,0,0,1,.51929-1.01679.46539.46539,0,0,0,.10555-.11248l.00206-.0045c.1542-.21369.32716-.60287.51084-.60287H16.48158c.16451,0,.32283.49715.46446.62312l.02742.02025A1.224,1.224,0,0,1,17.61933,18.24148Z"/><path class="b" d="M16.984,52.133v2.31028a1.1761,1.1761,0,0,1-1.13795,1.2125H4.47207a1.17741,1.17741,0,0,1-1.13775-1.2125V52.133a1.74548,1.74548,0,0,1,.05484-.43416,1.71879,1.71879,0,0,1,.12039-.33743,1.64251,1.64251,0,0,1,.40529-.53539,5.10735,5.10735,0,0,0,.724-.80757H15.67945a5.2235,5.2235,0,0,0,.72606.80757,1.6084,1.6084,0,0,1,.40323.53539A1.77383,1.77383,0,0,1,16.984,52.133Z"/><rect class="c" x="4.27725" y="24.93161" width="11.76523" height="23.26386"/><rect class="d" x="4.27725" y="46.51246" width="11.76523" height="1.68301"/><path class="e" d="M11.24387,31.644a4.90888,4.90888,0,0,1,1.14331-1.51465,1.28839,1.28839,0,0,1,1.25-.22363,1.17072,1.17072,0,0,1,.53784,1.20557,3.11247,3.11247,0,0,1-1.002,1.74609A8.07427,8.07427,0,0,1,11.76438,34.059l-.00464.00342-.21191-.35156a2.52493,2.52493,0,0,1,1.46728-.29639,1.43356,1.43356,0,0,1,.72412.41357,1.45961,1.45961,0,0,1,.4209.71534,2.06694,2.06694,0,0,1-.28442,1.5166,3.15764,3.15764,0,0,1-1.0066,1.05664.19162.19162,0,0,1-.23632-.29981l.00586-.00586a3.54305,3.54305,0,0,0,.75415-1.01123,1.62079,1.62079,0,0,0,.19262-1.11132,1.101,1.101,0,0,0-.6853-.73291,2.50975,2.50975,0,0,0-1.19727.14111.21117.21117,0,0,1-.219-.34375l.00708-.00733.00366-.00439c.40308-.436.78589-.88037,1.14282-1.3418a2.97076,2.97076,0,0,0,.71509-1.35986.66543.66543,0,0,0-.07666-.38623l.01441.00342-.05957-.0044a.53368.53368,0,0,0-.12281.00977.83561.83561,0,0,0-.282.11279,12.7649,12.7649,0,0,0-1.2727,1.146.20935.20935,0,0,1-.31495-.26807Z"/><path class="e" d="M9.55344,30.26264A20.48354,20.48354,0,0,1,9.614,33.74116a.208.208,0,0,1-.415-.02,19.97535,19.97535,0,0,0-.36792-3.3667.36454.36454,0,0,1,.718-.12646C9.551,30.23872,9.55246,30.2519,9.55344,30.26264Z"/><path class="e" d="M7.42478,29.09761l.2793,7.45312a.20769.20769,0,0,1-.41456.02441l-.59814-7.43408a.36752.36752,0,1,1,.73267-.05908Z"/><circle class="e" cx="7.58697" cy="37.94909" r="0.41834"/><path class="e" d="M11.9841,37.84077l1.93921.10986a.20769.20769,0,0,1-.01318.415L11.96775,38.353a.25636.25636,0,0,1,.00341-.5127Z"/><rect class="f" x="11.46678" y="24.93161" width="2.91875" height="2.50806"/><path class="g" d="M12.27751,26.88717h-.23843v-.81861h.23843Z"/><path class="g" d="M12.74,26.88717h-.37172v-.23843h.13346v-.58018H12.74Z"/><path class="g" d="M13.56144,26.74793l-.03751.04a.31423.31423,0,0,1-.22919.09926h-.34151a.12534.12534,0,0,1-.12534-.12535v-.69326h.69326a.12534.12534,0,0,1,.12534.12534v.339A.31426.31426,0,0,1,13.56144,26.74793Zm-.15321-.17141V26.307h-.34192v.34175h.26381Z"/><line class="h" x1="13.02161" y1="27.01571" x2="13.4314" y2="27.01571"/><line class="h" x1="12.03908" y1="25.93022" x2="12.27751" y2="25.93022"/><path class="i" d="M6.01845,41.5196a.03284.03284,0,0,1-.01172-.02539v-.78613a.03084.03084,0,0,1,.01172-.02637.04259.04259,0,0,1,.02929-.00976h.34375a.49609.49609,0,0,1,.32422.08886.33619.33619,0,0,1,.10742.27735v.45508a.03342.03342,0,0,1-.01171.02636.042.042,0,0,1-.02735.01075H6.04774A.04321.04321,0,0,1,6.01845,41.5196Zm.59961-.15039V41.046q0-.21387-.23438-.21387H6.20009v.53711Z"/><path class="i" d="M7.04384,41.168a.03289.03289,0,0,1-.01172-.02539v-.43457a.03087.03087,0,0,1,.01172-.02637.03767.03767,0,0,1,.02734-.00976h.14063a.04257.04257,0,0,1,.02929.00976.02976.02976,0,0,1,.00977.02637v.43457a.03111.03111,0,0,1-.00977.02539.04318.04318,0,0,1-.02929.01074H7.07118A.03832.03832,0,0,1,7.04384,41.168Z"/><path class="i" d="M8.46571,40.68269a.03148.03148,0,0,1,.01172.02539v.40527a.41721.41721,0,0,1-.06055.22754.41182.41182,0,0,1-.17187.14942.542.542,0,0,1-.24609.05078H7.85829a.48043.48043,0,0,1-.21289-.0459.34146.34146,0,0,1-.14062-.127.32826.32826,0,0,1-.05079-.18262v-.47754a.03087.03087,0,0,1,.01172-.02637.03771.03771,0,0,1,.02735-.00976H7.6122a.04257.04257,0,0,1,.02929.00976.02976.02976,0,0,1,.00977.02637l.00391.39355a.23549.23549,0,0,0,.168-.0664A.2523.2523,0,0,0,7.87,40.87312v-.16406a.03345.03345,0,0,1,.01172-.02637A.039.039,0,0,1,7.911,40.672h.11914a.0375.0375,0,0,1,.02734.01074.03345.03345,0,0,1,.01172.02637V40.878a.34206.34206,0,0,1-.09961.25488.44243.44243,0,0,1-.28906.1084.22542.22542,0,0,0,.09375.10352.288.288,0,0,0,.14453.03515h.04687a.34985.34985,0,0,0,.16407-.0332.243.243,0,0,0,.10937-.09765.2736.2736,0,0,0,.03906-.14454v-.39648a.03151.03151,0,0,1,.01172-.02539.039.039,0,0,1,.0293-.01074h.11914A.03468.03468,0,0,1,8.46571,40.68269Z"/><path class="i" d="M8.69032,41.5196a.03287.03287,0,0,1-.01172-.02539v-.78613a.03087.03087,0,0,1,.01172-.02637.0426.0426,0,0,1,.0293-.00976h.13867a.0426.0426,0,0,1,.0293.00976.03614.03614,0,0,1,.00976.02637v.78613a.039.039,0,0,1-.00976.02539.04321.04321,0,0,1-.0293.01075H8.71962A.04321.04321,0,0,1,8.69032,41.5196Z"/><path class="i" d="M9.93251,40.76277a.33348.33348,0,0,1,.10937.27539v.45605a.039.039,0,0,1-.00976.02539.04321.04321,0,0,1-.0293.01075H9.87a.03833.03833,0,0,1-.02734-.01075.03284.03284,0,0,1-.01172-.02539V41.046c0-.14258-.08008-.21387-.23633-.21387H9.48134a.81736.81736,0,0,0-.02344.125.96549.96549,0,0,0-.00391.13379l.00782.40332a.03287.03287,0,0,1-.01172.02539.04321.04321,0,0,1-.0293.01075l-.291-.002a.041.041,0,0,1-.02735-.00976.0329.0329,0,0,1-.01172-.02539v-.083a.03346.03346,0,0,1,.01172-.02637.041.041,0,0,1,.02735-.00976l.13085.001v-.27929c0-.05079,0-.09668.00391-.13575a.67271.67271,0,0,1,.02539-.12793h-.0957a.041.041,0,0,1-.02735-.00976.03289.03289,0,0,1-.01171-.02539v-.08887a.03086.03086,0,0,1,.01171-.02637.041.041,0,0,1,.02735-.00976h.41015A.50212.50212,0,0,1,9.93251,40.76277Z"/><path class="i" d="M10.26259,41.168a.03289.03289,0,0,1-.01172-.02539v-.43457a.03087.03087,0,0,1,.01172-.02637.041.041,0,0,1,.02734-.00976h.14258a.0348.0348,0,0,1,.02734.00976.03084.03084,0,0,1,.01172.02637v.43457a.03285.03285,0,0,1-.01172.02539.03522.03522,0,0,1-.02734.01074h-.14258A.04194.04194,0,0,1,10.26259,41.168Z"/><path class="i" d="M11.69618,41.5196a.03287.03287,0,0,1-.01172-.02539V41.046c0-.14258-.07812-.21387-.23633-.21387h-.34179a.03771.03771,0,0,1-.02735-.00976.03289.03289,0,0,1-.01171-.02539v-.08887a.03086.03086,0,0,1,.01171-.02637.03771.03771,0,0,1,.02735-.00976h.35156c.291,0,.4375.124.4375.373v.44922a.039.039,0,0,1-.00977.02539.04319.04319,0,0,1-.02929.01075h-.13281A.042.042,0,0,1,11.69618,41.5196Zm-.61719,0a.03286.03286,0,0,1-.01171-.02539v-.47168a.03084.03084,0,0,1,.01171-.02636.03767.03767,0,0,1,.02735-.00977h.13281a.04257.04257,0,0,1,.0293.00977.03611.03611,0,0,1,.00976.02636v.47168a.039.039,0,0,1-.00976.02539.04323.04323,0,0,1-.0293.01075h-.13281A.03837.03837,0,0,1,11.079,41.5196Z"/><path class="i" d="M12.12587,41.5196a.03287.03287,0,0,1-.01172-.02539v-.78613a.03087.03087,0,0,1,.01172-.02637.0426.0426,0,0,1,.0293-.00976h.35351a.51637.51637,0,0,1,.332.08984.34759.34759,0,0,1,.10742.2832v.44922a.039.039,0,0,1-.00976.02539.04321.04321,0,0,1-.0293.01075h-.13281a.04193.04193,0,0,1-.02734-.01075.03284.03284,0,0,1-.01172-.02539V41.046c0-.14258-.08008-.21387-.23633-.21387H12.327v.66211a.03287.03287,0,0,1-.01172.02539.03686.03686,0,0,1-.02929.01075h-.13086A.04321.04321,0,0,1,12.12587,41.5196Z"/><path class="i" d="M13.1786,41.5196a.03287.03287,0,0,1-.01172-.02539v-.78613a.03087.03087,0,0,1,.01172-.02637.04261.04261,0,0,1,.0293-.00976h.13867a.0426.0426,0,0,1,.0293.00976.03614.03614,0,0,1,.00976.02637v.78613a.039.039,0,0,1-.00976.02539.04321.04321,0,0,1-.0293.01075H13.2079A.04323.04323,0,0,1,13.1786,41.5196Z"/><path class="i" d="M14.34853,40.68269a.0315.0315,0,0,1,.01171.02539V40.797a.03289.03289,0,0,1-.01171.02539.04452.04452,0,0,1-.03125.00976h-.0879a.16871.16871,0,0,0-.03125.07422.45.45,0,0,0-.01171.10645v.48437a.03307.03307,0,0,1-.01368.02344.05006.05006,0,0,1-.02929.00977h-.13282a.04177.04177,0,0,1-.02734-.00879.03469.03469,0,0,1-.00976-.02442v-.498a.27159.27159,0,0,1,.03906-.167h-.418a.03767.03767,0,0,1-.02734-.00976.03287.03287,0,0,1-.01172-.02539v-.08887a.03084.03084,0,0,1,.01172-.02637.03767.03767,0,0,1,.02734-.00976h.72266A.04077.04077,0,0,1,14.34853,40.68269Z"/><path class="j" d="M10.64735,43.90535a.026.026,0,0,1-.00976-.02051V42.64949a.026.026,0,0,1,.00976-.02051.02569.02569,0,0,1,.01953-.00781h.07618a.03032.03032,0,0,1,.02148.00878.03211.03211,0,0,1,.00781.01954v1.23535a.03773.03773,0,0,1-.00781.02051.03414.03414,0,0,1-.02148.00781h-.07618A.02267.02267,0,0,1,10.64735,43.90535Z"/><path class="j" d="M11.76845,43.07234a.27478.27478,0,0,1,.07812.21484v.35449a.02716.02716,0,0,1-.00781.02051.029.029,0,0,1-.01953.00781h-.09375a.02568.02568,0,0,1-.01953-.00781.02918.02918,0,0,1-.00977-.02051V43.293a.1466.1466,0,0,0-.166-.166h-.08008a.6205.6205,0,0,0-.01563.09667.59234.59234,0,0,0-.0039.1045l.00586.31347a.03771.03771,0,0,1-.00782.02051.03414.03414,0,0,1-.02148.00781l-.20508-.001a.02329.02329,0,0,1-.01953-.00879.0238.0238,0,0,1-.00781-.01953v-.06446a.02458.02458,0,0,1,.00781-.0205.02566.02566,0,0,1,.01953-.00782l.0918.002V43.3321a.89375.89375,0,0,1,.0039-.10644.66245.66245,0,0,1,.01563-.09863H11.247a.029.029,0,0,1-.01953-.00782.02716.02716,0,0,1-.00781-.02051v-.06835a.02461.02461,0,0,1,.00781-.02051A.02507.02507,0,0,1,11.247,43.002H11.536A.33413.33413,0,0,1,11.76845,43.07234Z"/><path class="j" d="M12.00087,43.38777a.02382.02382,0,0,1-.00781-.01953v-.33789a.02461.02461,0,0,1,.00781-.02051.02507.02507,0,0,1,.01953-.00781H12.12a.02666.02666,0,0,1,.02148.00781.03259.03259,0,0,1,.00782.02051v.33789a.03211.03211,0,0,1-.00782.01953.02725.02725,0,0,1-.02148.00879H12.0204A.026.026,0,0,1,12.00087,43.38777Z"/><path class="j" d="M12.64735,43.66218a.02917.02917,0,0,1-.00976-.02051V43.293a.14661.14661,0,0,0-.166-.166h-.16406a.03034.03034,0,0,1-.02148-.00782.02717.02717,0,0,1-.00782-.02051v-.06835a.02717.02717,0,0,1,.00782-.02051.03033.03033,0,0,1,.02148-.00781h.16992a.348.348,0,0,1,.23438.06933.27913.27913,0,0,1,.07617.21582v.35449a.02716.02716,0,0,1-.00781.02051.0257.0257,0,0,1-.01954.00781h-.09375A.02569.02569,0,0,1,12.64735,43.66218Z"/><path class="j" d="M12.95009,43.66218a.02716.02716,0,0,1-.00781-.02051v-.61132a.02461.02461,0,0,1,.00781-.02051.02507.02507,0,0,1,.01953-.00781h.09961a.02265.02265,0,0,1,.01953.00781.02461.02461,0,0,1,.00781.02051v.61132a.02716.02716,0,0,1-.00781.02051.02569.02569,0,0,1-.01953.00781h-.09961A.029.029,0,0,1,12.95009,43.66218Z"/><path class="j" d="M13.77626,43.00984a.02918.02918,0,0,1,.00977.02051v.06835a.02918.02918,0,0,1-.00977.02051.02566.02566,0,0,1-.01953.00782h-.0625a.1599.1599,0,0,0-.02344.05761.36346.36346,0,0,0-.00781.083v.37695a.0233.0233,0,0,1-.00977.01758.03414.03414,0,0,1-.02148.00781H13.538a.02091.02091,0,0,1-.01758-.00683.02188.02188,0,0,1-.00781-.01856v-.38769a.231.231,0,0,1,.02734-.12988H13.245a.029.029,0,0,1-.01953-.00782.02716.02716,0,0,1-.00781-.02051v-.06835a.02461.02461,0,0,1,.00781-.02051A.02507.02507,0,0,1,13.245,43.002h.51172A.02566.02566,0,0,1,13.77626,43.00984Z"/><path class="j" d="M13.91493,43.66218a.02716.02716,0,0,1-.00781-.02051v-.07324a.02462.02462,0,0,1,.00781-.02051.029.029,0,0,1,.01953-.00781h.168a.17045.17045,0,0,0,.127-.043.18131.18131,0,0,0,.04493-.124c0-.01074.002-.02344.002-.03809s-.002-.02636-.002-.03613a.15275.15275,0,0,0-.17188-.167h-.168a.026.026,0,0,1-.01953-.00879.0238.0238,0,0,1-.00781-.01953v-.07324a.02461.02461,0,0,1,.00781-.02051.02507.02507,0,0,1,.01953-.00781h.17383a.30625.30625,0,0,1,.23047.07617.31422.31422,0,0,1,.082.21875v.07812a.31422.31422,0,0,1-.082.21875.30625.30625,0,0,1-.23047.07617h-.17383A.029.029,0,0,1,13.91493,43.66218Z"/><path class="j" d="M5.89931,43.6612a.03206.03206,0,0,1-.00782-.01953v-.77441a.038.038,0,0,1,.00782-.02148.03037.03037,0,0,1,.02148-.00782h.30859a.35388.35388,0,0,1,.22852.06739.23521.23521,0,0,1,.082.19238.24621.24621,0,0,1-.041.14551.226.226,0,0,1-.11719.08593l.17187.30274a.01747.01747,0,0,1,.00391.01269.02188.02188,0,0,1-.00781.01856.02091.02091,0,0,1-.01758.00683H6.42274a.04744.04744,0,0,1-.02929-.00879.078.078,0,0,1-.01953-.02343l-.15235-.28125H6.05946v.28515a.02379.02379,0,0,1-.00781.01953.03029.03029,0,0,1-.02148.00879H5.92079A.03029.03029,0,0,1,5.89931,43.6612Zm.32617-.44042a.1515.1515,0,0,0,.10547-.03223.11.11,0,0,0,.03711-.0918.1146.1146,0,0,0-.03711-.09277.147.147,0,0,0-.10547-.0332h-.166v.25Z"/><path class="j" d="M6.72938,43.61042a.2762.2762,0,0,1-.082-.19726v-.10449a.27153.27153,0,0,1,.084-.19727.302.302,0,0,1,.21484-.07129.30531.30531,0,0,1,.21485.07129.278.278,0,0,1,.082.19727.335.335,0,0,1,.00195.05175.35018.35018,0,0,1-.00195.05274.2762.2762,0,0,1-.082.19726.29884.29884,0,0,1-.21485.07129A.30391.30391,0,0,1,6.72938,43.61042Zm.31446-.08789A.19016.19016,0,0,0,7.079,43.4073a.26427.26427,0,0,0,.002-.04688.25739.25739,0,0,0-.002-.04589.18129.18129,0,0,0-.03711-.11622.11824.11824,0,0,0-.0957-.04.12515.12515,0,0,0-.09765.04.18129.18129,0,0,0-.03711.11622v.09277a.17832.17832,0,0,0,.03711.11523.12448.12448,0,0,0,.09765.03907A.12178.12178,0,0,0,7.04384,43.52253Z"/><path class="j" d="M7.38563,43.6612a.02382.02382,0,0,1-.00781-.01953v-.78711a.028.028,0,0,1,.00781-.02148.03332.03332,0,0,1,.02149-.00684h.09961a.02519.02519,0,0,1,.01953.00684.028.028,0,0,1,.00781.02148v.78711a.02379.02379,0,0,1-.00781.01953.02329.02329,0,0,1-.01953.00879H7.40712A.03031.03031,0,0,1,7.38563,43.6612Z"/><path class="j" d="M7.702,43.6612a.02379.02379,0,0,1-.00781-.01953v-.78711a.028.028,0,0,1,.00781-.02148.0333.0333,0,0,1,.02149-.00684h.0996a.0252.0252,0,0,1,.01954.00684.028.028,0,0,1,.00781.02148v.78711a.02379.02379,0,0,1-.00781.01953.02329.02329,0,0,1-.01954.00879h-.0996A.0303.0303,0,0,1,7.702,43.6612Z"/><path class="j" d="M8.01259,43.3741a.02718.02718,0,0,1-.00781-.02051v-.08106a.0238.0238,0,0,1,.00781-.01953.03029.03029,0,0,1,.02148-.00879h.36524a.03037.03037,0,0,1,.02148.00782.03256.03256,0,0,1,.00781.0205v.08106a.02919.02919,0,0,1-.00976.02051.02267.02267,0,0,1-.01953.00781H8.03407A.0294.0294,0,0,1,8.01259,43.3741Z"/><path class="j" d="M8.663,43.59968a.32761.32761,0,0,1-.0957-.24316v-.2041a.32538.32538,0,0,1,.09765-.24219.417.417,0,0,1,.502,0,.32542.32542,0,0,1,.09766.24219c.00195.04589.00195.08007.00195.10253,0,.02149,0,.05469-.00195.10157a.32769.32769,0,0,1-.0957.24316.431.431,0,0,1-.50586,0Zm.3789-.10351a.21878.21878,0,0,0,.05079-.14649c.002-.04687.002-.0791.002-.0957,0-.01856,0-.05078-.002-.09668a.222.222,0,0,0-.05079-.14551.18975.18975,0,0,0-.252,0,.20255.20255,0,0,0-.04883.14551c-.00195.02344-.00195.05566-.00195.09668,0,.04,0,.07226.00195.0957a.20349.20349,0,0,0,.04883.14649.17007.17007,0,0,0,.127.04785A.16484.16484,0,0,0,9.04188,43.49617Z"/><path class="j" d="M9.41493,43.6612a.02379.02379,0,0,1-.00781-.01953v-.56152a.02462.02462,0,0,1,.00781-.02051.02668.02668,0,0,1,.02149-.00781h.09765a.02668.02668,0,0,1,.02149.00781.03267.03267,0,0,1,.00781.02051V43.129a.23716.23716,0,0,1,.19726-.08887.21981.21981,0,0,1,.17383.07129.27975.27975,0,0,1,.06446.19629v.334a.0238.0238,0,0,1-.00782.01953.0247.0247,0,0,1-.02148.00879H9.86415a.03029.03029,0,0,1-.02148-.00879.03206.03206,0,0,1-.00782-.01953v-.32714a.16239.16239,0,0,0-.0332-.10743A.12181.12181,0,0,0,9.704,43.168a.13087.13087,0,0,0-.09765.03906.1573.1573,0,0,0-.03711.10743v.32714a.02379.02379,0,0,1-.00781.01953.02329.02329,0,0,1-.01954.00879H9.43642A.02727.02727,0,0,1,9.41493,43.6612Z"/><line class="k" x1="15.22908" y1="47.0828" x2="5.09065" y2="47.0828"/><line class="k" x1="15.22908" y1="47.62512" x2="7.68647" y2="47.62512"/><rect class="l" x="4.27725" y="22.66676" width="11.76523" height="0.97729"/><rect class="l" x="4.27725" y="49.04834" width="11.76523" height="0.97729"/><path class="m" d="M16.80874,51.36138H3.50955a1.64251,1.64251,0,0,1,.40529-.53539c.27027-.2362.14513-.51423.36241-.80667H16.04248c.21934.29244.09277.57047.363.80667A1.6084,1.6084,0,0,1,16.80874,51.36138Z"/><path class="n" d="M4.63884,50.01842l.39733,1.343.48757.12234a18.27708,18.27708,0,0,0,8.96712-.014l.426-.1083.76257-1.343Z"/><path class="o" d="M3.33432,54.44325l2.16332-.41259a24.85746,24.85746,0,0,1,9.32446.00018l2.16187.41241"/><path class="o" d="M16.64835,51.36138H14.91688l-.45722.16774a20.68528,20.68528,0,0,1-8.63277.1017l-.79072-.26944H3.67653"/><path class="m" d="M5.403,55.65575h-.931a1.17741,1.17741,0,0,1-1.13775-1.2125V52.133a1.74548,1.74548,0,0,1,.05484-.43416s.12039-.33743.23852,1.30024A3.912,3.912,0,0,0,5.403,55.65575Z"/><path class="m" d="M14.91688,55.65575h.931a1.17741,1.17741,0,0,0,1.13774-1.2125V52.133a1.74547,1.74547,0,0,0-.05483-.43416s-.1204-.33743-.23852,1.30024A3.912,3.912,0,0,1,14.91688,55.65575Z"/><path class="m" d="M4.8229,17.02938H3.86807A1.20759,1.20759,0,0,0,2.70116,18.273v2.36948a1.7902,1.7902,0,0,0,.05624.44529s.12348.34608.24463-1.33356A4.01225,4.01225,0,0,1,4.8229,17.02938Z"/><path class="m" d="M15.49686,16.97876h.95484a1.20759,1.20759,0,0,1,1.16691,1.24358v2.36948a1.79021,1.79021,0,0,1-.05625.44529s-.12347.34608-.24463-1.33356A4.01222,4.01222,0,0,0,15.49686,16.97876Z"/><path class="g" d="M16.61735,16.50484H3.50288a1.00191,1.00191,0,0,1-.99845-1.08512l.71492-8.57888A7.25331,7.25331,0,0,1,9.41436.03375H9.419A6.05252,6.05252,0,0,1,10.06,0a7.17416,7.17416,0,0,1,6.84087,6.84084l.71493,8.57888A1.00191,1.00191,0,0,1,16.61735,16.50484Z"/><path class="n" d="M16.2749,16.50484H3.90179a1.369,1.369,0,0,1-1.36423-1.48265l.68179-8.18135A7.25331,7.25331,0,0,1,9.41436.03375H9.419L7.22568,2.31253A13.06742,13.06742,0,0,0,3.68705,9.646a57.86308,57.86308,0,0,0-.614,5.79255C3.21254,16.13592,16.2749,16.50484,16.2749,16.50484Z"/><path class="m" d="M16.94136,17.128l-.65834-.48589H3.76434l-.43478.46564c.15413-.21369.327-.60287.51061-.60287H16.47712C16.64155,16.50484,16.7998,17.002,16.94136,17.128Z"/><circle class="n" cx="13.81808" cy="9.2342" r="3.27838"/><g class="p"><path class="q" d="M10.63979,7.41967s.40711-.32242,2.58082-.28679a11.22283,11.22283,0,0,1,3.77576.70633V2.70783H10.63979Z"/><circle class="j" cx="13.81808" cy="9.2342" r="0.88438"/></g><circle class="r" cx="13.81808" cy="9.2342" r="3.27838"/><ellipse class="n" cx="4.13103" cy="9.2342" rx="3.03111" ry="3.27838"/><g class="s"><path class="q" d="M1.19246,7.23719s.33889-.32242,2.34865-.28679a10.06044,10.06044,0,0,1,3.52849.70633V2.52535H1.19246Z"/><circle class="j" cx="4.13103" cy="9.2342" r="0.88438"/></g><ellipse class="r" cx="4.13103" cy="9.2342" rx="3.03111" ry="3.27838"/><path class="t" d="M11.12649,6.173a7.22835,7.22835,0,0,0,5.0222-2.72052"/><path class="t" d="M5.51975,5.91622S1.84173,5.80871.55828,3.7469"/></svg>