<svg xmlns="http://www.w3.org/2000/svg" viewBox="0 0 45.40564 60.28612"><defs><style>.a{fill:#fff;}.b{fill:none;stroke:#e2e6e8;stroke-linecap:round;stroke-linejoin:round;}.c{fill:#2d2a28;}</style></defs><rect class="a" width="45.40564" height="60.28612"/><line class="b" x1="23.8161" y1="44.86083" x2="40.9851" y2="44.86083"/><line class="b" x1="14.58663" y1="42.79202" x2="40.9851" y2="42.79202"/><line class="b" x1="10.98086" y1="40.81982" x2="40.9851" y2="40.81982"/><line class="b" x1="7.61843" y1="51.50476" x2="40.9851" y2="51.50476"/><line class="b" x1="5.08646" y1="49.53256" x2="40.9851" y2="49.53256"/><line class="b" x1="5.08646" y1="53.68313" x2="40.9851" y2="53.68313"/><line class="b" x1="17.25603" y1="38.84762" x2="40.9851" y2="38.84762"/><path class="c" d="M17.50192,7.16513a2.71422,2.71422,0,0,1,.57031,1.88476,2.94088,2.94088,0,0,1-.75,2.08008,3.97874,3.97874,0,0,1-1.88086,1.12988l-.4082.12012a.1917.1917,0,0,1-.18555-.07031.28373.28373,0,0,1-.08593-.19922V11.0997a.28364.28364,0,0,1,.07031-.18457.5009.5009,0,0,1,.17969-.13477l.32031-.12988a1.61046,1.61046,0,0,0,.72461-.53516,1.66636,1.66636,0,0,0,.26562-1.01562,1.34718,1.34718,0,0,0-.2207-.87989,1.06645,1.06645,0,0,0-.81836-.25h-.26172l-1.33984-.00976a.24437.24437,0,0,1-.17969-.07031.24129.24129,0,0,1-.07031-.17969V5.40048a.23532.23532,0,0,1,.07617-.18067.2468.2468,0,0,1,.17383-.06933h1.08008a.24135.24135,0,0,1,.17968.06933.24509.24509,0,0,1,.07032.18067V6.54013h.62109A2.42471,2.42471,0,0,1,17.50192,7.16513Z"/><path class="c" d="M22.78317,12.17978a.24129.24129,0,0,1-.07031-.17969v-2.96A1.00345,1.00345,0,0,0,21.582,7.90048H19.3027a.26143.26143,0,0,1-.18555-.07031.23854.23854,0,0,1-.07421-.17969V6.79013a.237.237,0,0,1,.07421-.17969.26139.26139,0,0,1,.18555-.07031h2.33008a3.06067,3.06067,0,0,1,2.07422.61035,2.39332,2.39332,0,0,1,.69531,1.89941v2.9502a.237.237,0,0,1-.07422.17969.26142.26142,0,0,1-.18555.07031H22.96286A.24131.24131,0,0,1,22.78317,12.17978Zm-3.666,0a.237.237,0,0,1-.07421-.17969V9.08017a.237.237,0,0,1,.07421-.17969.26139.26139,0,0,1,.18555-.07031h1.17969a.24069.24069,0,0,1,.25.25v2.91992a.24749.24749,0,0,1-.07031.1748.23433.23433,0,0,1-.17969.0752H19.3027A.26143.26143,0,0,1,19.11715,12.17978Z"/><path class="c" d="M25.59762,12.17978a.23179.23179,0,0,1-.07617-.17969v-5.21a.23178.23178,0,0,1,.07617-.17969.25669.25669,0,0,1,.1836-.07031h1.25a.23784.23784,0,0,1,.25.25v5.21a.25422.25422,0,0,1-.06836.1748.23857.23857,0,0,1-.18164.0752h-1.25A.25674.25674,0,0,1,25.59762,12.17978Z"/><path class="c" d="M31.8984,12.17489a.25652.25652,0,0,1-.18554.0752H28.50192a.2567.2567,0,0,1-.18359-.07031.23177.23177,0,0,1-.07618-.17969v-.86035a.23317.23317,0,0,1,.07618-.17969.25665.25665,0,0,1,.18359-.07031h1.66016L30.07223,8.92a1.75106,1.75106,0,0,0-.19922-.83984.68494.68494,0,0,0-.62109-.25977h-.50977a.25891.25891,0,0,1-.25-.25V6.73056a.25975.25975,0,0,1,.07032-.18555.23728.23728,0,0,1,.17968-.0752h.541a2.62539,2.62539,0,0,1,1.9043.58985A2.73233,2.73233,0,0,1,31.832,8.95028l.13086,3.04981A.21345.21345,0,0,1,31.8984,12.17489Z"/><path class="c" d="M14.19137,22.17978a.237.237,0,0,1-.07422-.17969v-2.96a1.00345,1.00345,0,0,0-1.13086-1.13965H11.46676a.25525.25525,0,0,1-.25-.25v-.86035a.237.237,0,0,1,.07422-.17969.25142.25142,0,0,1,.17578-.07031h1.58008a3.18837,3.18837,0,0,1,2.07422.57031,2.30212,2.30212,0,0,1,.68555,1.87012v3.01953a.24745.24745,0,0,1-.07032.1748.23429.23429,0,0,1-.17968.0752H14.37692A.26142.26142,0,0,1,14.19137,22.17978Z"/><path class="c" d="M17.01169,22.17978a.237.237,0,0,1-.07422-.17969v-5.21a.237.237,0,0,1,.07422-.17969.26135.26135,0,0,1,.18554-.07031h1.25a.24435.24435,0,0,1,.17969.07031.24131.24131,0,0,1,.07031.17969v5.21a.24749.24749,0,0,1-.07031.1748.23726.23726,0,0,1-.17969.0752h-1.25A.26139.26139,0,0,1,17.01169,22.17978Z"/><path class="c" d="M22.36715,22.30966a.28551.28551,0,0,1-.08007-.19922V21.0997a.30213.30213,0,0,1,.07031-.18946.37364.37364,0,0,1,.17969-.12988l.30859-.12988a1.46892,1.46892,0,0,0,1-1.55078,1.32228,1.32228,0,0,0-.22461-.87989,1.08469,1.08469,0,0,0-.82422-.25H20.13669a.24961.24961,0,0,1-.18555-.07519.25418.25418,0,0,1-.07422-.18457v-.92969a.21291.21291,0,0,1,.08008-.16992.2642.2642,0,0,1,.17969-.07031h3.00976a2.42948,2.42948,0,0,1,1.87109.625,2.72367,2.72367,0,0,1,.56836,1.88476,2.94088,2.94088,0,0,1-.75,2.08008,3.982,3.982,0,0,1-1.8789,1.12988l-.41016.12012A.181.181,0,0,1,22.36715,22.30966Zm-2.416,1.78027a.23848.23848,0,0,1-.07422-.17969V19.08017a.237.237,0,0,1,.07422-.17969.26137.26137,0,0,1,.18555-.07031h1.14062a.24435.24435,0,0,1,.17969.07031.24131.24131,0,0,1,.07031.17969v4.83007a.24069.24069,0,0,1-.25.25H20.13669A.26137.26137,0,0,1,19.95114,24.08993Z"/><path class="c" d="M26.582,19.80966a.23179.23179,0,0,1-.07617-.17969V16.79013a.23178.23178,0,0,1,.07617-.17969.25669.25669,0,0,1,.18359-.07031h1.25a.23784.23784,0,0,1,.25.25V19.63a.25425.25425,0,0,1-.06836.17481.23517.23517,0,0,1-.18164.07519h-1.25A.25673.25673,0,0,1,26.582,19.80966Z"/><path class="c" d="M29.291,22.17489a.24332.24332,0,0,1-.07422-.1748v-.86035a.23848.23848,0,0,1,.07422-.17969.25142.25142,0,0,1,.17578-.07031h2.50977V19.04013a.99865.99865,0,0,0-1.12891-1.12989H29.56637a.23727.23727,0,0,1-.17968-.07519.259.259,0,0,1-.07032-.18457v-.86035a.23178.23178,0,0,1,.07617-.17969.24356.24356,0,0,1,.17383-.07031h1.33008a3.25765,3.25765,0,0,1,2.11524.58984,2.34092,2.34092,0,0,1,.71484,1.91016v1.84961h.34961a.24579.24579,0,0,1,.18164.07031.24924.24924,0,0,1,.06836.17969v.86035a.25422.25422,0,0,1-.06836.1748.23857.23857,0,0,1-.18164.0752H29.46676A.24424.24424,0,0,1,29.291,22.17489Z"/><path class="c" d="M18.27145,32.04013a.20268.20268,0,0,1-.06055.14453.19263.19263,0,0,1-.15039.06543H16.832a.34025.34025,0,0,1-.27149-.09473c-.05273-.06348-.082-.09863-.08984-.10547l-1.75-2.53027a1.14538,1.14538,0,0,0-.33984.55078,2.6579,2.6579,0,0,0-.08008.66016v1.25a.26746.26746,0,0,1-.07422.19433.25336.25336,0,0,1-.18555.0752h-.98047a.22787.22787,0,0,1-.17382-.08008.264.264,0,0,1-.07618-.18945V30.74032a3.52106,3.52106,0,0,1,.23047-1.37988,2.548,2.548,0,0,1,.8711-1l-1.02149-1.4707a.2102.2102,0,0,1-.04883-.13965.22307.22307,0,0,1,.209-.21h1.17969a.343.343,0,0,1,.21679.05957.81184.81184,0,0,1,.14453.16015l1.60938,2.28028a.88538.88538,0,0,0,.35547-.44043,1.95464,1.95464,0,0,0,.07422-.56934v-1.2207a.27312.27312,0,0,1,.07031-.19434.23728.23728,0,0,1,.17969-.07519h1.05078a.24621.24621,0,0,1,.18554.08008.27227.27227,0,0,1,.07422.18945V28.0704a2.63409,2.63409,0,0,1-.25586,1.165,2.39585,2.39585,0,0,1-.92382.94434l1.21875,1.7207A.24019.24019,0,0,1,18.27145,32.04013Z"/><path class="c" d="M20.63083,28.3204q.02051.41016.24023.47949l.2793.10059a.223.223,0,0,1,.125.11426.37794.37794,0,0,1,.04492.18554l.00976.50977a.26539.26539,0,0,1-.13476.23535.49107.49107,0,0,1-.32422.06445l-.41016-.05957a1.26846,1.26846,0,0,1-.85937-.55566,2.0008,2.0008,0,0,1-.33984-1.19434V26.79013a.33555.33555,0,0,1,.084-.17969.214.214,0,0,1,.166-.07031h2.01953a2.5852,2.5852,0,0,1,1.95507.6748,2.85406,2.85406,0,0,1,.70508,1.89551c.00586.06641.00977.15918.00977.2793a3.1522,3.1522,0,0,1-.64063,2.10547,2.51858,2.51858,0,0,1-2.02929.75488H19.63083a.26142.26142,0,0,1-.18555-.07031.237.237,0,0,1-.07422-.17969v-.91992a.258.258,0,0,1,.07422-.18555.25252.25252,0,0,1,.18555-.07422h1.84961a1.19909,1.19909,0,0,0,.83593-.29492,1.17054,1.17054,0,0,0,.35547-.835c.00586-.06739.00977-.167.00977-.30078,0-.126-.00391-.22266-.00977-.29a1.13345,1.13345,0,0,0-.3457-.835,1.21077,1.21077,0,0,0-.8457-.29493h-.84961Z"/><path class="c" d="M25.25583,32.17978a.237.237,0,0,1-.07422-.17969v-5.21a.237.237,0,0,1,.07422-.17969.26135.26135,0,0,1,.18554-.07031h1.25a.24433.24433,0,0,1,.17969.07031.24127.24127,0,0,1,.07031.17969v5.21a.24744.24744,0,0,1-.07031.1748.23725.23725,0,0,1-.17969.0752h-1.25A.26139.26139,0,0,1,25.25583,32.17978Z"/><path class="c" d="M30.90622,32.17978a.2318.2318,0,0,1-.07618-.17969v-2.96a1.00285,1.00285,0,0,0-1.1289-1.13965H28.18161a.241.241,0,0,1-.17578-.0752.23572.23572,0,0,1-.07422-.1748v-.86035a.23021.23021,0,0,1,.07422-.17969.24806.24806,0,0,1,.17578-.07031h1.58008a3.192,3.192,0,0,1,2.07421.57031,2.30209,2.30209,0,0,1,.68555,1.87012v3.01953a.24749.24749,0,0,1-.07031.1748.23726.23726,0,0,1-.17969.0752H31.08981A.2567.2567,0,0,1,30.90622,32.17978Z"/></svg>