<svg xmlns="http://www.w3.org/2000/svg" viewBox="0 0 45.40564 60.28612"><defs><style>.a{fill:#fff;}.b{fill:none;stroke:#e2e6e8;stroke-linecap:round;stroke-linejoin:round;}.c{fill:#2d2a28;}</style></defs><rect class="a" width="45.40564" height="60.28612"/><line class="b" x1="23.8161" y1="44.86083" x2="40.9851" y2="44.86083"/><line class="b" x1="14.58663" y1="42.79202" x2="40.9851" y2="42.79202"/><line class="b" x1="10.98086" y1="40.81982" x2="40.9851" y2="40.81982"/><line class="b" x1="7.61843" y1="51.50476" x2="40.9851" y2="51.50476"/><line class="b" x1="5.08646" y1="49.53256" x2="40.9851" y2="49.53256"/><line class="b" x1="5.08646" y1="53.68313" x2="40.9851" y2="53.68313"/><line class="b" x1="17.25603" y1="38.84762" x2="40.9851" y2="38.84762"/><path class="c" d="M13.67184,7.136a2.31389,2.31389,0,0,1,.69531,1.85547v3.00976a.24747.24747,0,0,1-.07031.17481.23728.23728,0,0,1-.17969.07519H12.93747a.26142.26142,0,0,1-.18555-.07031.23026.23026,0,0,1-.07422-.17969v-2.96a1.00345,1.00345,0,0,0-1.13086-1.13965h-.65039A6.07481,6.07481,0,0,0,10.748,9.37139l.07813,2.62988a.23026.23026,0,0,1-.07422.17969.26142.26142,0,0,1-.18555.07031l-2.11914-.00976a.26136.26136,0,0,1-.18554-.07032.23847.23847,0,0,1-.07422-.17968v-.79a.24067.24067,0,0,1,.07422-.18067.26489.26489,0,0,1,.18554-.06933h.81055V9.38115a5.39149,5.39149,0,0,1,.14844-1.47949H8.81637a.25673.25673,0,0,1-.18359-.07031.23323.23323,0,0,1-.07617-.17969V6.79131a.23179.23179,0,0,1,.07617-.17969.25673.25673,0,0,1,.18359-.07031h2.791A3.10318,3.10318,0,0,1,13.67184,7.136Z"/><path class="c" d="M20.53708,7.15166a2.41712,2.41712,0,0,1,.63867,1.83008v3.01953a.25425.25425,0,0,1-.06836.17481.23859.23859,0,0,1-.18164.07519H18.19723a.25524.25524,0,0,1-.25-.25v-.86035a.23851.23851,0,0,1,.07422-.17969.25147.25147,0,0,1,.17578-.07031h1.28906V9.06084a1.2056,1.2056,0,0,0-.25-.80957.81627.81627,0,0,0-.65039-.29h-.77929L16.957,11.99151a.30712.30712,0,0,1-.08008.18457.23729.23729,0,0,1-.17969.07519H15.54684a.2534.2534,0,0,1-.18555-.07519.198.198,0,0,1-.05468-.18457L16.28708,7.971h-.66016a.231.231,0,0,1-.17969-.0752.25906.25906,0,0,1-.07031-.18457V6.79131a.237.237,0,0,1,.07422-.17969.25145.25145,0,0,1,.17578-.07031h3.209A2.3636,2.3636,0,0,1,20.53708,7.15166Z"/><path class="c" d="M22.332,9.81084a.23178.23178,0,0,1-.07617-.17969V6.79131a.23179.23179,0,0,1,.07617-.17969.25673.25673,0,0,1,.18359-.07031h1.25a.23784.23784,0,0,1,.25.25V9.63115a.25425.25425,0,0,1-.06836.17481.23517.23517,0,0,1-.18164.07519h-1.25A.25669.25669,0,0,1,22.332,9.81084Z"/><path class="c" d="M31.59762,6.61162a.24767.24767,0,0,1,.06836.17969V9.41143a2.947,2.947,0,0,1-.39844,1.54492,2.7265,2.7265,0,0,1-1.08984,1.02539,3.18535,3.18535,0,0,1-1.53125.34961h-.959a3.00824,3.00824,0,0,1-1.40039-.31055,2.21792,2.21792,0,0,1-.916-.83984,2.254,2.254,0,0,1-.31445-1.16992V6.79131a.23179.23179,0,0,1,.07617-.17969.25673.25673,0,0,1,.18359-.07031h1.05078a.24437.24437,0,0,1,.17969.07031.24129.24129,0,0,1,.07031.17969l.00977,2.40039a.92436.92436,0,0,0,.75977-.415,2.044,2.044,0,0,0,.2207-1.04492v-.9209a.26746.26746,0,0,1,.07422-.19433.25335.25335,0,0,1,.18554-.0752h1.03907a.23487.23487,0,0,1,.17578.08008.26385.26385,0,0,1,.07422.18945v.94043a2.596,2.596,0,0,1-.58985,1.79981,2.47493,2.47493,0,0,1-1.66992.7705,1.29427,1.29427,0,0,0,.50586.48926,1.42683,1.42683,0,0,0,.69531.1709h.22852a1.98167,1.98167,0,0,0,.91992-.21094,1.58175,1.58175,0,0,0,.64063-.5791,1.53348,1.53348,0,0,0,.23046-.83008V6.79131a.24071.24071,0,0,1,.25-.25H31.416A.24581.24581,0,0,1,31.59762,6.61162Z"/><path class="c" d="M35.48239,12.181a.23179.23179,0,0,1-.07617-.17969v-2.96a1.00286,1.00286,0,0,0-1.12891-1.13965H32.75778a.241.241,0,0,1-.17578-.07519.23577.23577,0,0,1-.07422-.17481V6.79131a.23026.23026,0,0,1,.07422-.17969.2481.2481,0,0,1,.17578-.07031h1.58008a3.192,3.192,0,0,1,2.07422.57031,2.30213,2.30213,0,0,1,.68554,1.87012v3.01953a.24747.24747,0,0,1-.07031.17481.23728.23728,0,0,1-.17969.07519H35.666A.25673.25673,0,0,1,35.48239,12.181Z"/><path class="c" d="M14.68161,17.136a2.31389,2.31389,0,0,1,.69531,1.85547v3.00976a.24751.24751,0,0,1-.07031.17481.23729.23729,0,0,1-.17969.07519H13.94723a.26139.26139,0,0,1-.18554-.07031.23023.23023,0,0,1-.07422-.17969v-2.96a1.00345,1.00345,0,0,0-1.13086-1.13965h-.65039a6.07481,6.07481,0,0,0-.14844,1.46973l.07812,2.62988a.23025.23025,0,0,1-.07421.17969.26143.26143,0,0,1-.18555.07031L9.457,22.24151a.26138.26138,0,0,1-.18555-.07032.23847.23847,0,0,1-.07422-.17968v-.79a.24067.24067,0,0,1,.07422-.18067.26492.26492,0,0,1,.18555-.06933h.81054V19.38115a5.39149,5.39149,0,0,1,.14844-1.47949H9.82614a.25674.25674,0,0,1-.1836-.07031.23323.23323,0,0,1-.07617-.17969v-.86035a.23179.23179,0,0,1,.07617-.17969.25674.25674,0,0,1,.1836-.07031h2.791A3.10321,3.10321,0,0,1,14.68161,17.136Z"/><path class="c" d="M20.207,17.16631a2.72389,2.72389,0,0,1,.57031,1.88477,2.94085,2.94085,0,0,1-.75,2.08007A3.97876,3.97876,0,0,1,18.14645,22.261l-.41016.12011a.19309.19309,0,0,1-.18554-.07031.28148.28148,0,0,1-.084-.19922V21.10088a.28365.28365,0,0,1,.07032-.18457.46931.46931,0,0,1,.17968-.13477l.32032-.12988a1.62122,1.62122,0,0,0,.72461-.53515,1.67972,1.67972,0,0,0,.26562-1.01563,1.34713,1.34713,0,0,0-.2207-.87988,1.06857,1.06857,0,0,0-.82032-.25h-.25976l-1.33984-.00977a.24069.24069,0,0,1-.25-.25V15.40166a.24068.24068,0,0,1,.07421-.18066.25485.25485,0,0,1,.17579-.06934h1.08007a.24752.24752,0,0,1,.17969.06934.245.245,0,0,1,.07031.18066v1.13965h.61914A2.42956,2.42956,0,0,1,20.207,17.16631Z"/><path class="c" d="M21.82223,22.181a.23179.23179,0,0,1-.07617-.17969v-5.21a.23179.23179,0,0,1,.07617-.17969.25674.25674,0,0,1,.1836-.07031h1.25a.23784.23784,0,0,1,.25.25v5.21a.25425.25425,0,0,1-.06836.17481.23861.23861,0,0,1-.18164.07519h-1.25A.25674.25674,0,0,1,21.82223,22.181Z"/><path class="c" d="M24.70114,22.181a.23026.23026,0,0,1-.07422-.17969v-.91992a.25366.25366,0,0,1,.25977-.25977H26.3359a1.066,1.066,0,0,0,1.20118-1.12988c.00586-.08008.00976-.18066.00976-.30078,0-.11328-.0039-.21-.00976-.29A1.066,1.066,0,0,0,26.3359,17.971H24.88669a.24962.24962,0,0,1-.18555-.0752.24661.24661,0,0,1-.07422-.18457v-.91992a.23026.23026,0,0,1,.07422-.17969.26142.26142,0,0,1,.18555-.07031h1.5a2.43085,2.43085,0,0,1,2.76953,2.57031c.00586.07324.00976.166.00976.2793a3.111,3.111,0,0,1-.65429,2.11035,2.68921,2.68921,0,0,1-2.125.75h-1.5A.26142.26142,0,0,1,24.70114,22.181Z"/><path class="c" d="M35.39059,17.136a2.31389,2.31389,0,0,1,.69531,1.85547v3.00976a.24747.24747,0,0,1-.07031.17481.23728.23728,0,0,1-.17969.07519H34.65622a.26142.26142,0,0,1-.18555-.07031.23026.23026,0,0,1-.07422-.17969v-2.96a1.00345,1.00345,0,0,0-1.13086-1.13965H32.6152a6.07481,6.07481,0,0,0-.14844,1.46973l.07813,2.62988a.23026.23026,0,0,1-.07422.17969.26142.26142,0,0,1-.18555.07031L30.166,22.24151a.26136.26136,0,0,1-.18554-.07032.23847.23847,0,0,1-.07422-.17968v-.79a.24067.24067,0,0,1,.07422-.18067.26489.26489,0,0,1,.18554-.06933h.81055V19.38115a5.39149,5.39149,0,0,1,.14844-1.47949h-.58985a.25673.25673,0,0,1-.18359-.07031.23323.23323,0,0,1-.07617-.17969v-.86035a.23179.23179,0,0,1,.07617-.17969.25673.25673,0,0,1,.18359-.07031h2.791A3.10318,3.10318,0,0,1,35.39059,17.136Z"/><path class="c" d="M19.25192,26.61162a.24133.24133,0,0,1,.07031.17969v.86035a.24751.24751,0,0,1-.07031.17481.23729.23729,0,0,1-.17969.07519h-.46094a1.51091,1.51091,0,0,0-.18359.50977,3.45481,3.45481,0,0,0-.06641.71v2.91015a.18591.18591,0,0,1-.09375.1543.34168.34168,0,0,1-.19531.06543H16.90231a.20667.20667,0,0,1-.2207-.21973V29.011a2.13626,2.13626,0,0,1,.20117-1.10938H14.60153a.25889.25889,0,0,1-.25-.25v-.86035a.23179.23179,0,0,1,.07617-.17969.24358.24358,0,0,1,.17383-.07031h4.4707A.24439.24439,0,0,1,19.25192,26.61162Z"/><path class="c" d="M20.30661,32.181a.237.237,0,0,1-.07422-.17969v-5.21a.237.237,0,0,1,.07422-.17969.26141.26141,0,0,1,.18554-.07031h1.25a.24437.24437,0,0,1,.17969.07031.24129.24129,0,0,1,.07031.17969v5.21a.24747.24747,0,0,1-.07031.17481.23728.23728,0,0,1-.17969.07519h-1.25A.26141.26141,0,0,1,20.30661,32.181Z"/><path class="c" d="M23.207,29.81084a.23178.23178,0,0,1-.07617-.17969V26.79131a.23179.23179,0,0,1,.07617-.17969.25673.25673,0,0,1,.18359-.07031h1.25a.23784.23784,0,0,1,.25.25v2.83984a.25425.25425,0,0,1-.06836.17481.23517.23517,0,0,1-.18164.07519h-1.25A.25669.25669,0,0,1,23.207,29.81084Z"/><path class="c" d="M30.56247,28.886a2.47031,2.47031,0,0,1-.88086.90527l.77929,1.07031a.94253.94253,0,0,1,.09571.14942.405.405,0,0,1,.03515.18066v.80957a.24747.24747,0,0,1-.07031.17481.23434.23434,0,0,1-.17969.07519H26.28122a.25889.25889,0,0,1-.25-.25v-.88965a.23529.23529,0,0,1,.07617-.18066.24677.24677,0,0,1,.17383-.06934h2.35156l-2.91016-3.96a.33579.33579,0,0,1-.06054-.16015.18216.18216,0,0,1,.06445-.14551.23623.23623,0,0,1,.15625-.05469h1.23828a.36638.36638,0,0,1,.32031.17969l1.40039,1.91992a1.57813,1.57813,0,0,0,.46094-1.26953v-.56055a.25976.25976,0,0,1,.07422-.19433.25336.25336,0,0,1,.18555-.0752h1.04882a.23489.23489,0,0,1,.17579.08008.2723.2723,0,0,1,.07421.18945v.86035A2.48253,2.48253,0,0,1,30.56247,28.886Z"/></svg>