<svg xmlns="http://www.w3.org/2000/svg" viewBox="0 0 45.40564 60.28612"><defs><style>.a{fill:#d2d2d2;}.b{fill:none;stroke:#b6b9bb;stroke-linecap:round;stroke-linejoin:round;}</style></defs><rect class="a" width="45.40564" height="60.28612"/><line class="b" x1="23.8161" y1="44.86083" x2="40.9851" y2="44.86083"/><line class="b" x1="14.58663" y1="42.79202" x2="40.9851" y2="42.79202"/><line class="b" x1="10.98086" y1="40.81982" x2="40.9851" y2="40.81982"/><line class="b" x1="7.61843" y1="51.50476" x2="40.9851" y2="51.50476"/><line class="b" x1="5.08646" y1="49.53256" x2="40.9851" y2="49.53256"/><line class="b" x1="5.08646" y1="53.68313" x2="40.9851" y2="53.68313"/><line class="b" x1="17.25603" y1="38.84762" x2="40.9851" y2="38.84762"/><path d="M17.50252,7.16513a2.719,2.719,0,0,1,.57031,1.88476,2.94088,2.94088,0,0,1-.75,2.08008A3.97874,3.97874,0,0,1,15.442,12.25985L15.0328,12.38a.19241.19241,0,0,1-.18555-.07031.28259.28259,0,0,1-.085-.19922V11.0997a.28364.28364,0,0,1,.07031-.18457.48463.48463,0,0,1,.17969-.13477l.32031-.12988a1.6158,1.6158,0,0,0,.72461-.53516,1.673,1.673,0,0,0,.26562-1.01562,1.34712,1.34712,0,0,0-.2207-.87989,1.06751,1.06751,0,0,0-.81933-.25h-.26075l-1.33984-.00976a.24069.24069,0,0,1-.25-.25V5.40048a.238.238,0,0,1,.07519-.18067.25082.25082,0,0,1,.17481-.06933h1.08008a.23926.23926,0,0,1,.25.25V6.54013h.62011A2.42709,2.42709,0,0,1,17.50252,7.16513Z"/><path d="M22.7828,12.17978a.2413.2413,0,0,1-.07032-.17969v-2.96A1.00315,1.00315,0,0,0,21.5826,7.90048H19.30233a.259.259,0,0,1-.18457-.07031.2358.2358,0,0,1-.0752-.17969V6.79013a.23431.23431,0,0,1,.0752-.17969.259.259,0,0,1,.18457-.07031H21.6324a3.06347,3.06347,0,0,1,2.0752.61035,2.3966,2.3966,0,0,1,.69531,1.89941v2.9502a.23436.23436,0,0,1-.07519.17969.25907.25907,0,0,1-.18457.07031H22.96248A.24282.24282,0,0,1,22.7828,12.17978Zm-3.665,0a.23433.23433,0,0,1-.0752-.17969V9.08017a.23431.23431,0,0,1,.0752-.17969.259.259,0,0,1,.18457-.07031H20.483a.24069.24069,0,0,1,.25.25v2.91992a.24749.24749,0,0,1-.07031.1748.2358.2358,0,0,1-.17969.0752H19.30233A.259.259,0,0,1,19.11776,12.17978Z"/><path d="M25.59725,12.17978a.23433.23433,0,0,1-.0752-.17969v-5.21a.23431.23431,0,0,1,.0752-.17969.259.259,0,0,1,.18457-.07031h1.25a.23926.23926,0,0,1,.25.25v5.21a.25076.25076,0,0,1-.06934.1748.23789.23789,0,0,1-.18066.0752h-1.25A.25906.25906,0,0,1,25.59725,12.17978Z"/><path d="M31.898,12.17489a.25494.25494,0,0,1-.18555.0752h-3.21a.25907.25907,0,0,1-.18457-.07031.231.231,0,0,1-.07519-.17969v-.86035a.2324.2324,0,0,1,.07519-.17969.259.259,0,0,1,.18457-.07031h1.66016L30.07283,8.92a1.761,1.761,0,0,0-.20019-.83984.68418.68418,0,0,0-.62012-.25977h-.50976a.24051.24051,0,0,1-.17481-.07519.23676.23676,0,0,1-.07519-.17481V6.73056a.25974.25974,0,0,1,.07031-.18555.23435.23435,0,0,1,.17969-.0752h.54a2.62957,2.62957,0,0,1,1.90527.58985,2.73228,2.73228,0,0,1,.64453,1.89062l.12988,3.04981A.20747.20747,0,0,1,31.898,12.17489Z"/><path d="M14.192,22.17978a.23436.23436,0,0,1-.07519-.17969v-2.96a1.00315,1.00315,0,0,0-1.12988-1.13965H11.46737a.24264.24264,0,0,1-.17579-.0752.23948.23948,0,0,1-.07421-.1748v-.86035a.23357.23357,0,0,1,.07421-.17969.24975.24975,0,0,1,.17579-.07031h1.58007a3.19018,3.19018,0,0,1,2.07422.57031,2.30212,2.30212,0,0,1,.68555,1.87012v3.01953a.24749.24749,0,0,1-.07031.1748.2358.2358,0,0,1-.17969.0752H14.37655A.25908.25908,0,0,1,14.192,22.17978Z"/><path d="M17.01229,22.17978a.23433.23433,0,0,1-.0752-.17969v-5.21a.23431.23431,0,0,1,.0752-.17969.259.259,0,0,1,.18457-.07031h1.25a.23926.23926,0,0,1,.25.25v5.21a.25076.25076,0,0,1-.06934.1748.23789.23789,0,0,1-.18066.0752h-1.25A.25906.25906,0,0,1,17.01229,22.17978Z"/><path d="M22.36678,22.30966a.28987.28987,0,0,1-.08008-.19922V21.0997a.30219.30219,0,0,1,.07031-.18946.38306.38306,0,0,1,.17969-.12988l.30957-.12988a1.46892,1.46892,0,0,0,1-1.55078,1.32228,1.32228,0,0,0-.22461-.87989,1.08723,1.08723,0,0,0-.82519-.25H20.13631a.24744.24744,0,0,1-.18457-.07519.25118.25118,0,0,1-.07519-.18457v-.92969a.21586.21586,0,0,1,.08007-.16992.266.266,0,0,1,.17969-.07031h3.01074a2.42855,2.42855,0,0,1,1.87012.625,2.719,2.719,0,0,1,.56934,1.88476,2.94088,2.94088,0,0,1-.75,2.08008,3.98041,3.98041,0,0,1-1.87989,1.12988l-.41015.12012A.18094.18094,0,0,1,22.36678,22.30966Zm-2.415,1.78027a.23579.23579,0,0,1-.07519-.17969V19.08017a.23434.23434,0,0,1,.07519-.17969.259.259,0,0,1,.18457-.07031h1.14063a.24071.24071,0,0,1,.25.25v4.83007a.24071.24071,0,0,1-.25.25H20.13631A.259.259,0,0,1,19.95174,24.08993Z"/><path d="M26.58162,19.80966a.23436.23436,0,0,1-.07519-.17969V16.79013a.23434.23434,0,0,1,.07519-.17969.259.259,0,0,1,.18457-.07031h1.25a.23924.23924,0,0,1,.25.25V19.63a.25077.25077,0,0,1-.06933.17481.23451.23451,0,0,1-.18067.07519h-1.25A.25907.25907,0,0,1,26.58162,19.80966Z"/><path d="M29.29158,22.17489a.23948.23948,0,0,1-.07421-.1748v-.86035a.235.235,0,0,1,.07421-.17969.24975.24975,0,0,1,.17579-.07031h2.50976V19.04013a.999.999,0,0,0-1.12988-1.12989H29.567a.23433.23433,0,0,1-.17968-.07519.259.259,0,0,1-.07032-.18457v-.86035a.23435.23435,0,0,1,.0752-.17969.24744.24744,0,0,1,.1748-.07031h1.33008a3.25763,3.25763,0,0,1,2.11524.58984,2.34092,2.34092,0,0,1,.71484,1.91016v1.84961h.34961a.23926.23926,0,0,1,.25.25v.86035a.25076.25076,0,0,1-.06934.1748.23789.23789,0,0,1-.18066.0752H29.46737A.24264.24264,0,0,1,29.29158,22.17489Z"/><path d="M18.27108,32.04013a.20573.20573,0,0,1-.05957.14453.19406.19406,0,0,1-.15039.06543h-1.2295a.3366.3366,0,0,1-.2705-.09473c-.05274-.06348-.083-.09863-.08985-.10547l-1.75-2.53027a1.13092,1.13092,0,0,0-.33984.55078,2.61307,2.61307,0,0,0-.08008.66016v1.25a.26422.26422,0,0,1-.0752.19433.25112.25112,0,0,1-.18457.0752h-.98046a.23137.23137,0,0,1-.17481-.08008.26724.26724,0,0,1-.07519-.18945V30.74032a3.50324,3.50324,0,0,1,.23046-1.37988,2.5447,2.5447,0,0,1,.87012-1l-1.02051-1.4707a.211.211,0,0,1-.0498-.13965.225.225,0,0,1,.21-.21H14.231a.34.34,0,0,1,.21582.05957.78314.78314,0,0,1,.14453.16015l1.61035,2.28028a.88292.88292,0,0,0,.35449-.44043,1.91973,1.91973,0,0,0,.0752-.56934v-1.2207a.27316.27316,0,0,1,.07031-.19434.23436.23436,0,0,1,.17969-.07519h1.0498a.24474.24474,0,0,1,.18555.08008.268.268,0,0,1,.07422.18945V28.0704a2.63373,2.63373,0,0,1-.25488,1.165,2.39239,2.39239,0,0,1-.92481.94434l1.21973,1.7207A.23957.23957,0,0,1,18.27108,32.04013Z"/><path d="M20.63143,28.3204q.019.41016.23926.47949l.28027.10059a.22913.22913,0,0,1,.125.11426.38892.38892,0,0,1,.04492.18554l.00977.50977a.2654.2654,0,0,1-.13477.23535.4939.4939,0,0,1-.32519.06445l-.40918-.05957a1.27036,1.27036,0,0,1-.86036-.55566,2.0008,2.0008,0,0,1-.33984-1.19434V26.79013a.33668.33668,0,0,1,.085-.17969.21339.21339,0,0,1,.165-.07031h2.01953a2.58523,2.58523,0,0,1,1.95508.6748,2.84918,2.84918,0,0,1,.70508,1.89551c.00683.06641.00976.15918.00976.2793a3.15727,3.15727,0,0,1-.63964,2.10547,2.5208,2.5208,0,0,1-2.03028.75488H19.63143a.2598.2598,0,0,1-.18555-.07031.23436.23436,0,0,1-.07519-.17969v-.91992a.255.255,0,0,1,.07519-.18555.251.251,0,0,1,.18555-.07422H21.481a1.19664,1.19664,0,0,0,.835-.29492,1.16663,1.16663,0,0,0,.35547-.835c.00586-.06739.00976-.167.00976-.30078,0-.126-.0039-.22266-.00976-.29a1.13346,1.13346,0,0,0-.34571-.835,1.20989,1.20989,0,0,0-.84472-.29493h-.84961Z"/><path d="M25.25643,32.17978a.23433.23433,0,0,1-.0752-.17969v-5.21a.23431.23431,0,0,1,.0752-.17969.259.259,0,0,1,.18457-.07031h1.25a.23926.23926,0,0,1,.25.25v5.21a.25076.25076,0,0,1-.06934.1748.23789.23789,0,0,1-.18066.0752h-1.25A.25906.25906,0,0,1,25.25643,32.17978Z"/><path d="M30.90584,32.17978a.23436.23436,0,0,1-.07519-.17969v-2.96a1.00316,1.00316,0,0,0-1.12989-1.13965H28.18123a.24261.24261,0,0,1-.17578-.0752.23949.23949,0,0,1-.07422-.1748v-.86035a.23358.23358,0,0,1,.07422-.17969.24973.24973,0,0,1,.17578-.07031h1.58008a3.1902,3.1902,0,0,1,2.07422.57031,2.30212,2.30212,0,0,1,.68555,1.87012v3.01953a.24745.24745,0,0,1-.07032.1748.23576.23576,0,0,1-.17968.0752H31.09041A.25907.25907,0,0,1,30.90584,32.17978Z"/></svg>