<svg xmlns="http://www.w3.org/2000/svg" viewBox="0 0 45.40564 60.28612"><defs><style>.a{fill:#efefef;}.b{fill:none;stroke:#d2d6d8;stroke-linecap:round;stroke-linejoin:round;}.c{fill:#1d1b19;}</style></defs><rect class="a" width="45.40564" height="60.28612"/><line class="b" x1="23.8161" y1="46.92878" x2="40.9851" y2="46.92878"/><line class="b" x1="7.61843" y1="51.50476" x2="40.9851" y2="51.50476"/><line class="b" x1="5.08646" y1="49.53256" x2="40.9851" y2="49.53256"/><line class="b" x1="5.08646" y1="53.68313" x2="40.9851" y2="53.68313"/><path class="c" d="M24.79973,7.16471A2.71423,2.71423,0,0,1,25.37,9.04948a2.94088,2.94088,0,0,1-.75,2.08008,3.97882,3.97882,0,0,1-1.88086,1.12988l-.4082.12012a.19171.19171,0,0,1-.18555-.07032.28372.28372,0,0,1-.08594-.19922V11.09928a.28367.28367,0,0,1,.07032-.18457.50093.50093,0,0,1,.17968-.13476l.32032-.12989a1.61041,1.61041,0,0,0,.7246-.53515A1.66632,1.66632,0,0,0,23.62,9.09928a1.34713,1.34713,0,0,0-.2207-.87988,1.06643,1.06643,0,0,0-.81836-.25h-.26172l-1.33985-.00977a.24432.24432,0,0,1-.17968-.07031.24128.24128,0,0,1-.07032-.17969V5.40006a.23529.23529,0,0,1,.07618-.18066.24674.24674,0,0,1,.17382-.06934h1.08008a.24132.24132,0,0,1,.17969.06934.245.245,0,0,1,.07031.18066V6.53971h.6211A2.42475,2.42475,0,0,1,24.79973,7.16471Z"/><path class="c" d="M30.081,12.17936a.2413.2413,0,0,1-.07032-.17969v-2.96a1.00345,1.00345,0,0,0-1.13085-1.13965h-2.2793a.26137.26137,0,0,1-.18555-.07031.23848.23848,0,0,1-.07422-.17969V6.78971A.237.237,0,0,1,26.415,6.61a.26142.26142,0,0,1,.18555-.07031h2.33008a3.06074,3.06074,0,0,1,2.07422.61035,2.39332,2.39332,0,0,1,.69531,1.89942v2.95019a.237.237,0,0,1-.07422.17969.26142.26142,0,0,1-.18555.07031H30.26066A.2413.2413,0,0,1,30.081,12.17936Zm-3.666,0a.237.237,0,0,1-.07422-.17969V9.07975a.237.237,0,0,1,.07422-.17969.26142.26142,0,0,1,.18555-.07031H27.7802a.24071.24071,0,0,1,.25.25v2.91992a.24748.24748,0,0,1-.07032.17481.23433.23433,0,0,1-.17968.07519H26.60051A.26142.26142,0,0,1,26.415,12.17936Z"/><path class="c" d="M32.89543,12.17936a.23179.23179,0,0,1-.07617-.17969v-5.21A.23179.23179,0,0,1,32.89543,6.61a.25673.25673,0,0,1,.18359-.07031h1.25a.23784.23784,0,0,1,.25.25v5.21a.2542.2542,0,0,1-.06836.17481.23858.23858,0,0,1-.18164.07519h-1.25A.25673.25673,0,0,1,32.89543,12.17936Z"/><path class="c" d="M39.19621,12.17448a.25656.25656,0,0,1-.18555.07519H35.79973a.25674.25674,0,0,1-.1836-.07031.23179.23179,0,0,1-.07617-.17969v-.86035a.23323.23323,0,0,1,.07617-.17969.25674.25674,0,0,1,.1836-.07031h1.66015L37.37,8.91959a1.75113,1.75113,0,0,0-.19922-.83984A.68494.68494,0,0,0,36.54973,7.82H36.04a.25889.25889,0,0,1-.25-.25V6.73014a.2598.2598,0,0,1,.07031-.18555A.23731.23731,0,0,1,36.04,6.4694h.541a2.62536,2.62536,0,0,1,1.90429.58984,2.73231,2.73231,0,0,1,.64454,1.89063l.13085,3.0498A.21346.21346,0,0,1,39.19621,12.17448Z"/><path class="c" d="M20.51066,17.16471a2.72384,2.72384,0,0,1,.57032,1.88477,2.94088,2.94088,0,0,1-.75,2.08008,3.97887,3.97887,0,0,1-1.88086,1.12988l-.41016.12012a.19315.19315,0,0,1-.18555-.07032.28145.28145,0,0,1-.084-.19922V21.09928a.28371.28371,0,0,1,.07031-.18457.46922.46922,0,0,1,.17969-.13476l.32031-.12989a1.62109,1.62109,0,0,0,.72461-.53515,1.67972,1.67972,0,0,0,.26563-1.01563,1.34707,1.34707,0,0,0-.22071-.87988,1.06854,1.06854,0,0,0-.82031-.25H18.0302l-1.33985-.00977a.24069.24069,0,0,1-.25-.25V15.40006a.24065.24065,0,0,1,.07422-.18066.25482.25482,0,0,1,.17578-.06934h1.08008a.23926.23926,0,0,1,.25.25v1.13965h.61914A2.42952,2.42952,0,0,1,20.51066,17.16471Z"/><path class="c" d="M22.1259,22.17936a.23179.23179,0,0,1-.07617-.17969v-5.21A.23179.23179,0,0,1,22.1259,16.61a.25673.25673,0,0,1,.18359-.07031h1.25a.23784.23784,0,0,1,.25.25v5.21a.2542.2542,0,0,1-.06836.17481.23858.23858,0,0,1-.18164.07519h-1.25A.25673.25673,0,0,1,22.1259,22.17936Z"/><path class="c" d="M26.29973,18.32q.02051.41016.24023.4795l.2793.10058a.22292.22292,0,0,1,.125.11426.378.378,0,0,1,.04492.18555l.00977.50976a.2654.2654,0,0,1-.13477.23535.49107.49107,0,0,1-.32422.06446l-.41015-.05957a1.26844,1.26844,0,0,1-.85938-.55567,2.00077,2.00077,0,0,1-.33984-1.19433V16.78971a.33566.33566,0,0,1,.084-.17969.21407.21407,0,0,1,.166-.07031h2.01953a2.58521,2.58521,0,0,1,1.95508.67481,2.85408,2.85408,0,0,1,.70507,1.8955c.00586.06641.00977.15918.00977.2793a3.1522,3.1522,0,0,1-.64063,2.10547,2.51854,2.51854,0,0,1-2.02929.75488H25.29973a.26142.26142,0,0,1-.18555-.07031.237.237,0,0,1-.07422-.17969v-.91992a.258.258,0,0,1,.07422-.18555.25256.25256,0,0,1,.18555-.07422h1.84961a1.19909,1.19909,0,0,0,.83593-.29492,1.1705,1.1705,0,0,0,.35547-.835c.00586-.06738.00977-.167.00977-.30078,0-.126-.00391-.22266-.00977-.29a1.13348,1.13348,0,0,0-.3457-.835,1.21076,1.21076,0,0,0-.8457-.29492h-.84961Z"/><path class="c" d="M30.88566,19.80924a.23177.23177,0,0,1-.07617-.17968V16.78971a.23179.23179,0,0,1,.07617-.17969.25674.25674,0,0,1,.1836-.07031h1.25a.23784.23784,0,0,1,.25.25v2.83985a.25422.25422,0,0,1-.06836.1748.23519.23519,0,0,1-.18164.0752h-1.25A.2567.2567,0,0,1,30.88566,19.80924Z"/><path class="c" d="M34.35441,21.69987A2.39842,2.39842,0,0,1,33.6591,19.86V16.78971a.23179.23179,0,0,1,.07617-.17969.2436.2436,0,0,1,.17383-.07031h1.041a.25673.25673,0,0,1,.18359.07031.23179.23179,0,0,1,.07617.17969v3.01953a1.0301,1.0301,0,0,0,.32422.835,1.36153,1.36153,0,0,0,.90625.27539q1.11915,0,1.12891-1.07031a2.2123,2.2123,0,0,0,.00586-.26953c-.00391-.11328-.00586-.20019-.00586-.25977v-.2207a1.80718,1.80718,0,0,0-.18945-.875.57179.57179,0,0,0-.51954-.30469,1.18155,1.18155,0,0,0-.29492.04.95788.95788,0,0,0-.25586.09961.30682.30682,0,0,1-.08984.02051.20672.20672,0,0,1-.1543-.06543.21713.21713,0,0,1-.0664-.165v-.79a.39232.39232,0,0,1,.1914-.36914,1.87422,1.87422,0,0,1,.959-.19043,1.93677,1.93677,0,0,1,1.57617.5752,2.83321,2.83321,0,0,1,.49414,1.77441v1.05078q-.11133,2.44923-2.7793,2.44922A2.95353,2.95353,0,0,1,34.35441,21.69987Z"/><path class="c" d="M14.68059,32.17936a.2413.2413,0,0,1-.07032-.17969v-2.96a1.00345,1.00345,0,0,0-1.13086-1.13965H11.20012a.26137.26137,0,0,1-.18555-.07031.23848.23848,0,0,1-.07422-.17969v-.86035a.237.237,0,0,1,.07422-.17969.26142.26142,0,0,1,.18555-.07031H13.5302a3.06069,3.06069,0,0,1,2.07421.61035,2.39329,2.39329,0,0,1,.69532,1.89942v2.95019a.237.237,0,0,1-.07422.17969.26142.26142,0,0,1-.18555.07031H14.86027A.2413.2413,0,0,1,14.68059,32.17936Zm-3.666,0a.237.237,0,0,1-.07422-.17969V29.07975a.237.237,0,0,1,.07422-.17969.26142.26142,0,0,1,.18555-.07031h1.17969a.24071.24071,0,0,1,.25.25v2.91992a.24748.24748,0,0,1-.07032.17481.23433.23433,0,0,1-.17968.07519H11.20012A.26142.26142,0,0,1,11.01457,32.17936Z"/><path class="c" d="M18.72941,28.32q.02052.41016.24024.4795l.2793.10058a.223.223,0,0,1,.125.11426.378.378,0,0,1,.04492.18555l.00976.50976a.26539.26539,0,0,1-.13476.23535.49108.49108,0,0,1-.32422.06446l-.41016-.05957a1.26844,1.26844,0,0,1-.85937-.55567,2.00078,2.00078,0,0,1-.33985-1.19433V26.78971a.33567.33567,0,0,1,.084-.17969.21405.21405,0,0,1,.166-.07031h2.01954a2.58517,2.58517,0,0,1,1.95507.67481A2.854,2.854,0,0,1,22.29,29.11c.00586.06641.00977.15918.00977.2793a3.1522,3.1522,0,0,1-.64063,2.10547,2.51854,2.51854,0,0,1-2.02929.75488h-1.9004a.26141.26141,0,0,1-.18554-.07031.237.237,0,0,1-.07422-.17969v-.91992a.258.258,0,0,1,.07422-.18555.25256.25256,0,0,1,.18554-.07422H19.579a1.19912,1.19912,0,0,0,.83594-.29492,1.1705,1.1705,0,0,0,.35547-.835c.00586-.06738.00977-.167.00977-.30078,0-.126-.00391-.22266-.00977-.29a1.13352,1.13352,0,0,0-.3457-.835,1.21077,1.21077,0,0,0-.84571-.29492h-.84961Z"/><path class="c" d="M23.31535,29.80924a.23177.23177,0,0,1-.07617-.17968V26.78971a.23179.23179,0,0,1,.07617-.17969.25674.25674,0,0,1,.1836-.07031h1.25a.23784.23784,0,0,1,.25.25v2.83985a.25422.25422,0,0,1-.06836.1748.2352.2352,0,0,1-.18164.0752h-1.25A.2567.2567,0,0,1,23.31535,29.80924Z"/><path class="c" d="M32.581,26.61a.24767.24767,0,0,1,.06836.17969v2.62012a2.94711,2.94711,0,0,1-.39844,1.54492,2.72663,2.72663,0,0,1-1.08984,1.02539,3.18537,3.18537,0,0,1-1.53125.34961h-.959a3.00827,3.00827,0,0,1-1.40039-.31055,2.21785,2.21785,0,0,1-.916-.83984A2.25394,2.25394,0,0,1,26.04,30.00944V26.78971a.23179.23179,0,0,1,.07617-.17969.25674.25674,0,0,1,.1836-.07031h1.05078a.2444.2444,0,0,1,.17969.07031.24133.24133,0,0,1,.07031.17969l.00976,2.40039a.92433.92433,0,0,0,.75977-.415,2.044,2.044,0,0,0,.2207-1.04492v-.9209a.26746.26746,0,0,1,.07422-.19433.25336.25336,0,0,1,.18555-.0752h1.03906a.23485.23485,0,0,1,.17578.08008.26385.26385,0,0,1,.07422.18945v.94043a2.596,2.596,0,0,1-.58984,1.79981,2.47493,2.47493,0,0,1-1.66992.7705,1.29425,1.29425,0,0,0,.50585.48926,1.42686,1.42686,0,0,0,.69532.1709h.22851a1.98161,1.98161,0,0,0,.91992-.21094,1.58155,1.58155,0,0,0,.64063-.5791,1.5334,1.5334,0,0,0,.23047-.83008V26.78971a.24069.24069,0,0,1,.25-.25h1.04883A.24583.24583,0,0,1,32.581,26.61Z"/><path class="c" d="M33.75481,32.17936a.237.237,0,0,1-.07422-.17969v-5.21a.237.237,0,0,1,.07422-.17969.26139.26139,0,0,1,.18554-.07031h2.35938a3.14591,3.14591,0,0,1,2.0957.585,2.42805,2.42805,0,0,1,.67578,1.92481v2.95019a.24751.24751,0,0,1-.07031.17481.23729.23729,0,0,1-.17969.07519H37.63957a.25673.25673,0,0,1-.18359-.07031.23179.23179,0,0,1-.07617-.17969v-2.96a1.00286,1.00286,0,0,0-1.12891-1.13965H35.37v4.09961a.24751.24751,0,0,1-.07031.17481.23436.23436,0,0,1-.17969.07519H33.94035A.26139.26139,0,0,1,33.75481,32.17936Z"/><path class="c" d="M23.124,42.17936a.237.237,0,0,1-.07422-.17969v-5.21A.237.237,0,0,1,23.124,36.61a.26139.26139,0,0,1,.18554-.07031H25.579a3.03308,3.03308,0,0,1,2.02539.5752,2.35608,2.35608,0,0,1,.66407,1.875v3a.24662.24662,0,0,1-.07422.18457.25339.25339,0,0,1-.18555.07519H23.30949A.26139.26139,0,0,1,23.124,42.17936Zm3.53515-1.29V39.03971a1.00286,1.00286,0,0,0-1.1289-1.13965h-.96094v2.98926Z"/><path class="c" d="M33.86027,36.61a.24763.24763,0,0,1,.06836.17969v.86035a.2542.2542,0,0,1-.06836.17481.23858.23858,0,0,1-.18164.07519h-.459a1.509,1.509,0,0,0-.18555.50977,3.6033,3.6033,0,0,0-.06445.71V42.03a.18388.18388,0,0,1-.0957.15429.33718.33718,0,0,1-.19532.06543H31.50871A.20387.20387,0,0,1,31.29,42.03V39.00944a2.161,2.161,0,0,1,.19922-1.10938h-2.2793a.25524.25524,0,0,1-.25-.25v-.86035A.237.237,0,0,1,29.0341,36.61a.25147.25147,0,0,1,.17578-.07031h4.46875A.24581.24581,0,0,1,33.86027,36.61Z"/><path class="c" d="M38.6591,37.16471a2.71423,2.71423,0,0,1,.57031,1.88477,2.94088,2.94088,0,0,1-.75,2.08008,3.97883,3.97883,0,0,1-1.88085,1.12988l-.40821.12012a.19169.19169,0,0,1-.18554-.07032.28368.28368,0,0,1-.08594-.19922V41.09928a.28371.28371,0,0,1,.07031-.18457.501.501,0,0,1,.17969-.13476l.32031-.12989a1.61044,1.61044,0,0,0,.72461-.53515,1.66639,1.66639,0,0,0,.26562-1.01563,1.34707,1.34707,0,0,0-.2207-.87988,1.0664,1.0664,0,0,0-.81836-.25h-.26172l-1.33984-.00977a.24435.24435,0,0,1-.17969-.07031.24131.24131,0,0,1-.07031-.17969V35.40006a.23529.23529,0,0,1,.07617-.18066.24677.24677,0,0,1,.17383-.06934h1.08008a.24134.24134,0,0,1,.17969.06934.24508.24508,0,0,1,.07031.18066v1.13965H36.79A2.42472,2.42472,0,0,1,38.6591,37.16471Z"/></svg>