<svg xmlns="http://www.w3.org/2000/svg" viewBox="0 0 45.40564 60.28612"><defs><style>.a{fill:#d4d4d4;}.b{fill:none;stroke:#b8bbbd;stroke-linecap:round;stroke-linejoin:round;}.c{fill:#020202;}</style></defs><rect class="a" width="45.40564" height="60.28612"/><line class="b" x1="23.8161" y1="46.92878" x2="40.9851" y2="46.92878"/><line class="b" x1="7.61843" y1="51.50476" x2="40.9851" y2="51.50476"/><line class="b" x1="5.08646" y1="49.53256" x2="40.9851" y2="49.53256"/><line class="b" x1="5.08646" y1="53.68313" x2="40.9851" y2="53.68313"/><path class="c" d="M24.79973,7.16468A2.71423,2.71423,0,0,1,25.37,9.04945a2.94088,2.94088,0,0,1-.75,2.08008,3.97874,3.97874,0,0,1-1.88086,1.12988l-.4082.12012a.19171.19171,0,0,1-.18555-.07032.28371.28371,0,0,1-.08594-.19921V11.09925a.28367.28367,0,0,1,.07032-.18457.50093.50093,0,0,1,.17968-.13476l.32032-.12989a1.61034,1.61034,0,0,0,.7246-.53515A1.66632,1.66632,0,0,0,23.62,9.09925a1.34713,1.34713,0,0,0-.2207-.87988,1.06643,1.06643,0,0,0-.81836-.25h-.26172L20.97941,7.9596a.24432.24432,0,0,1-.17968-.07031.24128.24128,0,0,1-.07032-.17969V5.4a.23531.23531,0,0,1,.07618-.18066A.24674.24674,0,0,1,20.97941,5.15h1.08008a.24132.24132,0,0,1,.17969.06934A.24506.24506,0,0,1,22.30949,5.4V6.53968h.6211A2.42475,2.42475,0,0,1,24.79973,7.16468Z"/><path class="c" d="M30.081,12.17933a.24128.24128,0,0,1-.07032-.17969v-2.96A1.00345,1.00345,0,0,0,28.87981,7.9h-2.2793a.26137.26137,0,0,1-.18555-.07031A.23848.23848,0,0,1,26.34074,7.65V6.78968A.237.237,0,0,1,26.415,6.61a.26138.26138,0,0,1,.18555-.07032h2.33008A3.06074,3.06074,0,0,1,31.00481,7.15a2.39332,2.39332,0,0,1,.69531,1.89942v2.95019a.237.237,0,0,1-.07422.17969.26137.26137,0,0,1-.18555.07031H30.26066A.24126.24126,0,0,1,30.081,12.17933Zm-3.666,0a.237.237,0,0,1-.07422-.17969V9.07972A.237.237,0,0,1,26.415,8.9a.26142.26142,0,0,1,.18555-.07031H27.7802a.24071.24071,0,0,1,.25.25v2.91992a.24748.24748,0,0,1-.07032.17481.23433.23433,0,0,1-.17968.07519H26.60051A.26137.26137,0,0,1,26.415,12.17933Z"/><path class="c" d="M32.89543,12.17933a.23178.23178,0,0,1-.07617-.17969v-5.21A.23176.23176,0,0,1,32.89543,6.61a.25669.25669,0,0,1,.18359-.07032h1.25a.23785.23785,0,0,1,.25.25v5.21a.2542.2542,0,0,1-.06836.17481.23858.23858,0,0,1-.18164.07519h-1.25A.25669.25669,0,0,1,32.89543,12.17933Z"/><path class="c" d="M39.19621,12.17445a.25656.25656,0,0,1-.18555.07519H35.79973a.25669.25669,0,0,1-.1836-.07031.23178.23178,0,0,1-.07617-.17969v-.86035a.23323.23323,0,0,1,.07617-.17969.25674.25674,0,0,1,.1836-.07031h1.66015L37.37,8.91957a1.75114,1.75114,0,0,0-.19922-.83985A.68494.68494,0,0,0,36.54973,7.82H36.04a.25891.25891,0,0,1-.25-.25V6.73011a.25976.25976,0,0,1,.07031-.18554.23728.23728,0,0,1,.17969-.0752h.541a2.62541,2.62541,0,0,1,1.90429.58984,2.73231,2.73231,0,0,1,.64454,1.89063l.13085,3.0498A.21346.21346,0,0,1,39.19621,12.17445Z"/><path class="c" d="M20.51066,17.16468a2.72384,2.72384,0,0,1,.57032,1.88477,2.94088,2.94088,0,0,1-.75,2.08008,3.97879,3.97879,0,0,1-1.88086,1.12988l-.41016.12012a.19315.19315,0,0,1-.18555-.07032.28145.28145,0,0,1-.084-.19921V21.09925a.28371.28371,0,0,1,.07031-.18457.46922.46922,0,0,1,.17969-.13476l.32031-.12989a1.621,1.621,0,0,0,.72461-.53515,1.67972,1.67972,0,0,0,.26563-1.01563,1.34707,1.34707,0,0,0-.22071-.87988,1.06854,1.06854,0,0,0-.82031-.25H18.0302l-1.33985-.00977a.24069.24069,0,0,1-.25-.25V15.4a.24066.24066,0,0,1,.07422-.18066.25482.25482,0,0,1,.17578-.06934h1.08008a.23926.23926,0,0,1,.25.25v1.13965h.61914A2.42952,2.42952,0,0,1,20.51066,17.16468Z"/><path class="c" d="M22.1259,22.17933a.23178.23178,0,0,1-.07617-.17969v-5.21A.23176.23176,0,0,1,22.1259,16.61a.25669.25669,0,0,1,.18359-.07032h1.25a.23785.23785,0,0,1,.25.25v5.21a.2542.2542,0,0,1-.06836.17481.23858.23858,0,0,1-.18164.07519h-1.25A.25669.25669,0,0,1,22.1259,22.17933Z"/><path class="c" d="M26.29973,18.32q.02051.41015.24023.47949l.2793.10058a.223.223,0,0,1,.125.11426.378.378,0,0,1,.04492.18555l.00977.50976a.26541.26541,0,0,1-.13477.23536.49113.49113,0,0,1-.32422.06445l-.41015-.05957a1.26844,1.26844,0,0,1-.85938-.55567,2.00077,2.00077,0,0,1-.33984-1.19433V16.78968a.33559.33559,0,0,1,.084-.17968.214.214,0,0,1,.166-.07032h2.01953a2.58521,2.58521,0,0,1,1.95508.67481A2.85408,2.85408,0,0,1,29.86027,19.11c.00586.0664.00977.15917.00977.27929a3.1522,3.1522,0,0,1-.64063,2.10547,2.51854,2.51854,0,0,1-2.02929.75488H25.29973a.26137.26137,0,0,1-.18555-.07031.237.237,0,0,1-.07422-.17969v-.91992a.25806.25806,0,0,1,.07422-.18555.25255.25255,0,0,1,.18555-.07421h1.84961a1.1991,1.1991,0,0,0,.83593-.29493,1.1705,1.1705,0,0,0,.35547-.835c.00586-.06738.00977-.167.00977-.30078,0-.126-.00391-.22265-.00977-.29a1.13348,1.13348,0,0,0-.3457-.835,1.21076,1.21076,0,0,0-.8457-.29492h-.84961Z"/><path class="c" d="M30.88566,19.80921a.23176.23176,0,0,1-.07617-.17968V16.78968a.23176.23176,0,0,1,.07617-.17968.2567.2567,0,0,1,.1836-.07032h1.25a.23785.23785,0,0,1,.25.25v2.83985a.25422.25422,0,0,1-.06836.1748.23519.23519,0,0,1-.18164.0752h-1.25A.2567.2567,0,0,1,30.88566,19.80921Z"/><path class="c" d="M34.35441,21.69984A2.3984,2.3984,0,0,1,33.6591,19.86V16.78968a.23176.23176,0,0,1,.07617-.17968.24357.24357,0,0,1,.17383-.07032h1.041a.25669.25669,0,0,1,.18359.07032.23176.23176,0,0,1,.07617.17968v3.01953a1.0301,1.0301,0,0,0,.32422.835,1.36154,1.36154,0,0,0,.90625.2754q1.11915,0,1.12891-1.07032a2.2123,2.2123,0,0,0,.00586-.26953c-.00391-.11328-.00586-.20019-.00586-.25976v-.22071a1.80718,1.80718,0,0,0-.18945-.875.57178.57178,0,0,0-.51954-.30468,1.18152,1.18152,0,0,0-.29492.04.95788.95788,0,0,0-.25586.09961.30649.30649,0,0,1-.08984.02051.20672.20672,0,0,1-.1543-.06543.21711.21711,0,0,1-.0664-.165v-.79a.39233.39233,0,0,1,.1914-.36914,1.87422,1.87422,0,0,1,.959-.19043,1.93677,1.93677,0,0,1,1.57617.5752,2.83321,2.83321,0,0,1,.49414,1.77441V19.9q-.11133,2.44923-2.7793,2.44922A2.95353,2.95353,0,0,1,34.35441,21.69984Z"/><path class="c" d="M14.68059,32.17933a.24128.24128,0,0,1-.07032-.17969v-2.96A1.00345,1.00345,0,0,0,13.47941,27.9H11.20012a.26137.26137,0,0,1-.18555-.07031.23848.23848,0,0,1-.07422-.17969v-.86035a.237.237,0,0,1,.07422-.17968.26138.26138,0,0,1,.18555-.07032H13.5302a3.06069,3.06069,0,0,1,2.07421.61035,2.39329,2.39329,0,0,1,.69532,1.89942v2.95019a.237.237,0,0,1-.07422.17969.26137.26137,0,0,1-.18555.07031H14.86027A.24126.24126,0,0,1,14.68059,32.17933Zm-3.666,0a.237.237,0,0,1-.07422-.17969V29.07972A.237.237,0,0,1,11.01457,28.9a.26142.26142,0,0,1,.18555-.07031h1.17969a.24071.24071,0,0,1,.25.25v2.91992a.24748.24748,0,0,1-.07032.17481.23433.23433,0,0,1-.17968.07519H11.20012A.26137.26137,0,0,1,11.01457,32.17933Z"/><path class="c" d="M18.72941,28.32q.02052.41015.24024.47949L19.249,28.9a.223.223,0,0,1,.125.11426.378.378,0,0,1,.04492.18555l.00976.50976a.26541.26541,0,0,1-.13476.23536.49114.49114,0,0,1-.32422.06445l-.41016-.05957a1.26844,1.26844,0,0,1-.85937-.55567,2.00078,2.00078,0,0,1-.33985-1.19433V26.78968a.3356.3356,0,0,1,.084-.17968.214.214,0,0,1,.166-.07032h2.01954a2.58517,2.58517,0,0,1,1.95507.67481A2.854,2.854,0,0,1,22.29,29.11c.00586.0664.00977.15917.00977.27929a3.1522,3.1522,0,0,1-.64063,2.10547,2.51854,2.51854,0,0,1-2.02929.75488h-1.9004a.26137.26137,0,0,1-.18554-.07031.237.237,0,0,1-.07422-.17969v-.91992a.25806.25806,0,0,1,.07422-.18555.25255.25255,0,0,1,.18554-.07421H19.579A1.19912,1.19912,0,0,0,20.415,30.525a1.1705,1.1705,0,0,0,.35547-.835c.00586-.06738.00977-.167.00977-.30078,0-.126-.00391-.22265-.00977-.29a1.13352,1.13352,0,0,0-.3457-.835,1.21077,1.21077,0,0,0-.84571-.29492h-.84961Z"/><path class="c" d="M23.31535,29.80921a.23176.23176,0,0,1-.07617-.17968V26.78968a.23176.23176,0,0,1,.07617-.17968.2567.2567,0,0,1,.1836-.07032h1.25a.23785.23785,0,0,1,.25.25v2.83985a.25422.25422,0,0,1-.06836.1748.2352.2352,0,0,1-.18164.0752h-1.25A.2567.2567,0,0,1,23.31535,29.80921Z"/><path class="c" d="M32.581,26.61a.24763.24763,0,0,1,.06836.17968V29.4098a2.94711,2.94711,0,0,1-.39844,1.54492,2.72663,2.72663,0,0,1-1.08984,1.02539,3.18537,3.18537,0,0,1-1.53125.34961h-.959a3.00814,3.00814,0,0,1-1.40039-.31055,2.21785,2.21785,0,0,1-.916-.83984A2.25394,2.25394,0,0,1,26.04,30.00941V26.78968a.23176.23176,0,0,1,.07617-.17968.2567.2567,0,0,1,.1836-.07032h1.05078a.24437.24437,0,0,1,.17969.07032.24129.24129,0,0,1,.07031.17968l.00976,2.40039a.92433.92433,0,0,0,.75977-.415,2.044,2.044,0,0,0,.2207-1.04492v-.9209a.26746.26746,0,0,1,.07422-.19433.25336.25336,0,0,1,.18555-.0752h1.03906a.23485.23485,0,0,1,.17578.08008.26385.26385,0,0,1,.07422.18945v.94043a2.596,2.596,0,0,1-.58984,1.79981,2.475,2.475,0,0,1-1.66992.77051,1.29429,1.29429,0,0,0,.50585.48925,1.42686,1.42686,0,0,0,.69532.1709h.22851a1.98161,1.98161,0,0,0,.91992-.21094,1.58155,1.58155,0,0,0,.64063-.5791,1.53337,1.53337,0,0,0,.23047-.83007V26.78968a.24071.24071,0,0,1,.25-.25h1.04883A.24579.24579,0,0,1,32.581,26.61Z"/><path class="c" d="M33.75481,32.17933a.237.237,0,0,1-.07422-.17969v-5.21a.237.237,0,0,1,.07422-.17968.26136.26136,0,0,1,.18554-.07032h2.35938a3.146,3.146,0,0,1,2.0957.585,2.42805,2.42805,0,0,1,.67578,1.92481v2.95019a.24751.24751,0,0,1-.07031.17481.23729.23729,0,0,1-.17969.07519H37.63957a.25669.25669,0,0,1-.18359-.07031.23178.23178,0,0,1-.07617-.17969v-2.96A1.00286,1.00286,0,0,0,36.2509,27.9H35.37v4.09961a.24751.24751,0,0,1-.07031.17481.23436.23436,0,0,1-.17969.07519H33.94035A.26135.26135,0,0,1,33.75481,32.17933Z"/><path class="c" d="M23.124,42.17933a.237.237,0,0,1-.07422-.17969v-5.21A.237.237,0,0,1,23.124,36.61a.26136.26136,0,0,1,.18554-.07032H25.579a3.03308,3.03308,0,0,1,2.02539.5752,2.35608,2.35608,0,0,1,.66407,1.875v3a.24662.24662,0,0,1-.07422.18457.25339.25339,0,0,1-.18555.07519H23.30949A.26135.26135,0,0,1,23.124,42.17933Zm3.53515-1.29V39.03968A1.00286,1.00286,0,0,0,25.5302,37.9h-.96094v2.98926Z"/><path class="c" d="M33.86027,36.61a.24759.24759,0,0,1,.06836.17968V37.65a.2542.2542,0,0,1-.06836.17481.23858.23858,0,0,1-.18164.07519h-.459a1.509,1.509,0,0,0-.18555.50977,3.60338,3.60338,0,0,0-.06445.71v2.91016a.18387.18387,0,0,1-.0957.15429.33718.33718,0,0,1-.19532.06543H31.50871a.20387.20387,0,0,1-.21875-.21972V39.00941A2.161,2.161,0,0,1,31.48918,37.9h-2.2793a.25524.25524,0,0,1-.25-.25v-.86035A.237.237,0,0,1,29.0341,36.61a.25143.25143,0,0,1,.17578-.07032h4.46875A.24578.24578,0,0,1,33.86027,36.61Z"/><path class="c" d="M38.6591,37.16468a2.71423,2.71423,0,0,1,.57031,1.88477,2.94088,2.94088,0,0,1-.75,2.08008,3.97876,3.97876,0,0,1-1.88085,1.12988l-.40821.12012a.19169.19169,0,0,1-.18554-.07032.28367.28367,0,0,1-.08594-.19921V41.09925a.28371.28371,0,0,1,.07031-.18457.501.501,0,0,1,.17969-.13476l.32031-.12989a1.61037,1.61037,0,0,0,.72461-.53515,1.66639,1.66639,0,0,0,.26562-1.01563,1.34707,1.34707,0,0,0-.2207-.87988,1.0664,1.0664,0,0,0-.81836-.25h-.26172l-1.33984-.00977a.24435.24435,0,0,1-.17969-.07031.24131.24131,0,0,1-.07031-.17969V35.4a.2353.2353,0,0,1,.07617-.18066.24677.24677,0,0,1,.17383-.06934h1.08008a.24134.24134,0,0,1,.17969.06934.2451.2451,0,0,1,.07031.18066v1.13965H36.79A2.42472,2.42472,0,0,1,38.6591,37.16468Z"/></svg>