<svg xmlns="http://www.w3.org/2000/svg" viewBox="0 0 45.40564 60.28612"><defs><style>.a{fill:#efefef;}.b{fill:none;stroke:#d2d6d8;stroke-linecap:round;stroke-linejoin:round;}.c{fill:#1d1b19;}</style></defs><rect class="a" width="45.40564" height="60.28612"/><line class="b" x1="23.8161" y1="44.86083" x2="40.9851" y2="44.86083"/><line class="b" x1="14.58663" y1="42.79202" x2="40.9851" y2="42.79202"/><line class="b" x1="10.98086" y1="40.81982" x2="40.9851" y2="40.81982"/><line class="b" x1="7.61843" y1="51.50476" x2="40.9851" y2="51.50476"/><line class="b" x1="5.08646" y1="49.53256" x2="40.9851" y2="49.53256"/><line class="b" x1="5.08646" y1="53.68313" x2="40.9851" y2="53.68313"/><line class="b" x1="17.25603" y1="38.84762" x2="40.9851" y2="38.84762"/><path class="c" d="M16.624,7.13541a2.31392,2.31392,0,0,1,.69532,1.85547v3.00977a.24744.24744,0,0,1-.07032.1748.23724.23724,0,0,1-.17968.0752H15.88959a.26142.26142,0,0,1-.18555-.07031.23026.23026,0,0,1-.07422-.17969v-2.96A1.00345,1.00345,0,0,0,14.499,7.901h-.65039a6.07476,6.07476,0,0,0-.14844,1.46973l.07813,2.62988a.23026.23026,0,0,1-.07422.17969.26142.26142,0,0,1-.18555.07031l-2.11914-.00977a.26135.26135,0,0,1-.18554-.07031.23848.23848,0,0,1-.07422-.17969v-.79a.24066.24066,0,0,1,.07422-.18066.2649.2649,0,0,1,.18554-.06934h.81055V9.38053A5.39149,5.39149,0,0,1,12.35834,7.901h-.58985a.25673.25673,0,0,1-.18359-.07031.23323.23323,0,0,1-.07617-.17969V6.79069A.23179.23179,0,0,1,11.5849,6.611a.25673.25673,0,0,1,.18359-.07031h2.791A3.10324,3.10324,0,0,1,16.624,7.13541Z"/><path class="c" d="M18.52435,12.18034a.23179.23179,0,0,1-.07617-.17969v-5.21a.23179.23179,0,0,1,.07617-.17969.25674.25674,0,0,1,.1836-.07031h1.25a.23784.23784,0,0,1,.25.25v5.21a.25421.25421,0,0,1-.06836.1748.23857.23857,0,0,1-.18164.0752h-1.25A.25674.25674,0,0,1,18.52435,12.18034Z"/><path class="c" d="M26.54974,6.611a.2413.2413,0,0,1,.07032.17969v2.96a2.16929,2.16929,0,0,1-.69141,1.64453,3.65486,3.65486,0,0,1-1.93945.875l-2.56055.54a.22828.22828,0,0,1-.19531-.04981.2216.2216,0,0,1-.084-.17968v-.87012a.25981.25981,0,0,1,.06446-.1748.2859.2859,0,0,1,.166-.09473l1.10938-.27051L21.30951,6.94108a1.358,1.358,0,0,1-.05078-.2002.19694.19694,0,0,1,.06055-.14062.189.189,0,0,1,.14062-.05957h1.29883a.23946.23946,0,0,1,.15039.04492.21586.21586,0,0,1,.08008.10547l1,4.08984a1.37724,1.37724,0,0,0,.74023-.56543,1.977,1.977,0,0,0,.19922-.96484v-2.46A.24133.24133,0,0,1,24.999,6.611a.24439.24439,0,0,1,.17969-.07031h1.19141A.24436.24436,0,0,1,26.54974,6.611Z"/><path class="c" d="M34.17865,6.611a.24129.24129,0,0,1,.07031.17969V9.41081a2.92988,2.92988,0,0,1-.40039,1.54492,2.7017,2.7017,0,0,1-1.08984,1.02539,3.17774,3.17774,0,0,1-1.5293.34961h-.96094a3.00827,3.00827,0,0,1-1.40039-.31055,2.21256,2.21256,0,0,1-.91406-.83984,2.23557,2.23557,0,0,1-.31445-1.16993V6.79069a.23026.23026,0,0,1,.07422-.17969.26139.26139,0,0,1,.18554-.07031h1.04883a.23784.23784,0,0,1,.25.25L29.208,9.19108a.92807.92807,0,0,0,.76172-.415,2.04566,2.04566,0,0,0,.21875-1.04492v-.9209a.26119.26119,0,0,1,.07617-.19434.249.249,0,0,1,.18359-.07519h1.041a.22791.22791,0,0,1,.17383.08008.26567.26567,0,0,1,.07617.18945v.94043a2.60538,2.60538,0,0,1-.58985,1.7998,2.48331,2.48331,0,0,1-1.66992.77051,1.30245,1.30245,0,0,0,.50391.48926,1.43222,1.43222,0,0,0,.69531.1709h.23047a1.98167,1.98167,0,0,0,.91992-.21094,1.59434,1.59434,0,0,0,.64063-.5791,1.549,1.549,0,0,0,.22851-.83008V6.79069a.24133.24133,0,0,1,.07031-.17969.2444.2444,0,0,1,.17969-.07031H33.999A.24437.24437,0,0,1,34.17865,6.611Z"/><path class="c" d="M13.35443,17.13541a2.31313,2.31313,0,0,1,.69336,1.85547v3.00977a.25421.25421,0,0,1-.06836.1748.23855.23855,0,0,1-.18164.0752H12.6181a.25673.25673,0,0,1-.18359-.07031.23179.23179,0,0,1-.07617-.17969v-2.96A1.00286,1.00286,0,0,0,11.22943,17.901H10.579a6.07235,6.07235,0,0,0-.15039,1.46973l.08008,2.62988a.237.237,0,0,1-.07422.17969.26472.26472,0,0,1-.18555.07031l-2.12109-.00977a.25665.25665,0,0,1-.18359-.07031.23317.23317,0,0,1-.07618-.17969v-.79a.23527.23527,0,0,1,.07618-.18066.26011.26011,0,0,1,.18359-.06934h.81055V19.38053A5.38779,5.38779,0,0,1,9.08881,17.901H8.499a.26139.26139,0,0,1-.18554-.07031A.23851.23851,0,0,1,8.2392,17.651v-.86035a.237.237,0,0,1,.07422-.17969.26139.26139,0,0,1,.18554-.07031H11.288A3.109,3.109,0,0,1,13.35443,17.13541Z"/><path class="c" d="M15.25287,22.18034a.237.237,0,0,1-.07422-.17969v-5.21a.237.237,0,0,1,.07422-.17969.26142.26142,0,0,1,.18555-.07031h1.25a.24436.24436,0,0,1,.17968.07031.2413.2413,0,0,1,.07032.17969v5.21a.24744.24744,0,0,1-.07032.1748.23724.23724,0,0,1-.17968.0752h-1.25A.26142.26142,0,0,1,15.25287,22.18034Z"/><path class="c" d="M21.93842,17.16569a2.71422,2.71422,0,0,1,.57031,1.88476,2.94088,2.94088,0,0,1-.75,2.08008,3.97874,3.97874,0,0,1-1.88086,1.12988l-.4082.12012a.1917.1917,0,0,1-.18555-.07031.28374.28374,0,0,1-.08594-.19922V21.10026a.28369.28369,0,0,1,.07031-.18457.50119.50119,0,0,1,.17969-.13477l.32031-.12988a1.61046,1.61046,0,0,0,.72461-.53516,1.66627,1.66627,0,0,0,.26563-1.01562,1.34713,1.34713,0,0,0-.2207-.87988,1.06643,1.06643,0,0,0-.81836-.25H19.458l-1.33985-.00977a.24436.24436,0,0,1-.17968-.07031.2413.2413,0,0,1-.07032-.17969V15.401a.23526.23526,0,0,1,.07618-.18066.24674.24674,0,0,1,.17382-.06934h1.08008a.24132.24132,0,0,1,.17969.06934.24508.24508,0,0,1,.07031.18066v1.13965h.6211A2.42475,2.42475,0,0,1,21.93842,17.16569Z"/><path class="c" d="M23.51263,19.81022a.237.237,0,0,1-.07421-.17969V16.79069a.237.237,0,0,1,.07421-.17969.26143.26143,0,0,1,.18555-.07031h1.25a.24439.24439,0,0,1,.17969.07031.24133.24133,0,0,1,.07031.17969v2.83984a.24751.24751,0,0,1-.07031.17481.23385.23385,0,0,1-.17969.07519h-1.25A.26143.26143,0,0,1,23.51263,19.81022Z"/><path class="c" d="M31.499,16.611a.2413.2413,0,0,1,.07032.17969v2.96a2.16929,2.16929,0,0,1-.69141,1.64453,3.65489,3.65489,0,0,1-1.93945.875l-2.56055.54a.22828.22828,0,0,1-.19531-.04981.2216.2216,0,0,1-.084-.17968v-.87012a.25981.25981,0,0,1,.06446-.1748.28584.28584,0,0,1,.166-.09473l1.10938-.27051-1.17969-4.22949a1.358,1.358,0,0,1-.05078-.2002.197.197,0,0,1,.06054-.14062.189.189,0,0,1,.14063-.05957H27.708a.23948.23948,0,0,1,.15039.04492.21592.21592,0,0,1,.08008.10547l1,4.08984a1.37724,1.37724,0,0,0,.74023-.56543,1.977,1.977,0,0,0,.19922-.96484v-2.46a.24133.24133,0,0,1,.07031-.17969.24439.24439,0,0,1,.17969-.07031h1.19141A.24436.24436,0,0,1,31.499,16.611Z"/><path class="c" d="M33.999,18.321c.01172.27344.0918.4336.23828.47949l.28125.10059a.23572.23572,0,0,1,.125.11426.40048.40048,0,0,1,.04493.18554l.00976.50977a.26539.26539,0,0,1-.13476.23535.49679.49679,0,0,1-.32618.06445l-.4082-.05957a1.27222,1.27222,0,0,1-.86133-.55566,2.0008,2.0008,0,0,1-.33984-1.19434V16.79069a.33758.33758,0,0,1,.08594-.17969.21278.21278,0,0,1,.16406-.07031H34.8974a2.58523,2.58523,0,0,1,1.95508.6748,2.84431,2.84431,0,0,1,.70508,1.89551,2.63591,2.63591,0,0,1,.00976.2793,3.16225,3.16225,0,0,1-.63867,2.10547,2.52294,2.52294,0,0,1-2.03125.75488H32.999a.25814.25814,0,0,1-.18554-.07031.23177.23177,0,0,1-.07618-.17969v-.91992A.25685.25685,0,0,1,32.999,20.821h1.84961a1.19415,1.19415,0,0,0,.834-.29492,1.1628,1.1628,0,0,0,.35547-.835c.00585-.06738.00976-.167.00976-.30078,0-.126-.00391-.22266-.00976-.29a1.13349,1.13349,0,0,0-.34571-.835,1.20906,1.20906,0,0,0-.84375-.29492H33.999Z"/></svg>