<svg xmlns="http://www.w3.org/2000/svg" viewBox="0 0 45.40564 60.28612"><defs><style>.a{fill:#efefef;}.b{fill:none;stroke:#d2d6d8;stroke-linecap:round;stroke-linejoin:round;}.c{fill:#1d1b19;}</style></defs><rect class="a" width="45.40564" height="60.28612"/><line class="b" x1="23.8161" y1="44.86083" x2="40.9851" y2="44.86083"/><line class="b" x1="14.58663" y1="42.79202" x2="40.9851" y2="42.79202"/><line class="b" x1="10.98086" y1="40.81982" x2="40.9851" y2="40.81982"/><line class="b" x1="7.61843" y1="51.50476" x2="40.9851" y2="51.50476"/><line class="b" x1="5.08646" y1="49.53256" x2="40.9851" y2="49.53256"/><line class="b" x1="5.08646" y1="53.68313" x2="40.9851" y2="53.68313"/><line class="b" x1="17.25603" y1="38.84762" x2="40.9851" y2="38.84762"/><path class="c" d="M13.67267,7.136A2.3135,2.3135,0,0,1,14.367,8.99151v3.00976a.25078.25078,0,0,1-.06934.17481.23792.23792,0,0,1-.18066.07519H12.93732a.25906.25906,0,0,1-.18457-.07031.231.231,0,0,1-.0752-.17969v-2.96a1.00315,1.00315,0,0,0-1.12988-1.13965h-.65039a6.07361,6.07361,0,0,0-.14941,1.46973l.0791,2.62988a.2336.2336,0,0,1-.07422.17969.26305.26305,0,0,1-.18555.07031l-2.12011-.00976a.259.259,0,0,1-.18457-.07032.23576.23576,0,0,1-.0752-.17968v-.79a.23791.23791,0,0,1,.0752-.18067.26249.26249,0,0,1,.18457-.06933h.81054V9.38115a5.38982,5.38982,0,0,1,.14942-1.47949H8.8172a.25907.25907,0,0,1-.18457-.07031.23582.23582,0,0,1-.07519-.17969V6.79131a.23436.23436,0,0,1,.07519-.17969.25907.25907,0,0,1,.18457-.07031h2.79A3.10607,3.10607,0,0,1,13.67267,7.136Z"/><path class="c" d="M20.53693,7.15166a2.41369,2.41369,0,0,1,.63965,1.83008v3.01953a.25078.25078,0,0,1-.06934.17481.23644.23644,0,0,1-.18066.07519H18.19709a.257.257,0,0,1-.25-.25v-.86035a.23582.23582,0,0,1,.07519-.17969.24751.24751,0,0,1,.17481-.07031h1.29V9.06084a1.20566,1.20566,0,0,0-.25-.80957.819.819,0,0,0-.6504-.29h-.77929l-.85059,4.03028a.30142.30142,0,0,1-.08008.18457.23579.23579,0,0,1-.17968.07519H15.5467a.25115.25115,0,0,1-.18457-.07519.19555.19555,0,0,1-.05469-.18457L16.28693,7.971h-.66016a.2324.2324,0,0,1-.17968-.0752.259.259,0,0,1-.07032-.18457V6.79131a.23433.23433,0,0,1,.0752-.17969.24749.24749,0,0,1,.1748-.07031h3.21A2.35958,2.35958,0,0,1,20.53693,7.15166Z"/><path class="c" d="M22.33185,9.81084a.23434.23434,0,0,1-.07519-.17969V6.79131a.23436.23436,0,0,1,.07519-.17969.25907.25907,0,0,1,.18457-.07031h1.25a.23924.23924,0,0,1,.25.25V9.63115a.25082.25082,0,0,1-.06933.17481.23453.23453,0,0,1-.18067.07519h-1.25A.259.259,0,0,1,22.33185,9.81084Z"/><path class="c" d="M31.59748,6.61162a.2444.2444,0,0,1,.06933.17969V9.41143a2.93846,2.93846,0,0,1-.39941,1.54492,2.714,2.714,0,0,1-1.08985,1.02539,3.18146,3.18146,0,0,1-1.53027.34961h-.96a3.00827,3.00827,0,0,1-1.40039-.31055,2.21521,2.21521,0,0,1-.915-.83984,2.24472,2.24472,0,0,1-.31445-1.16992V6.79131a.231.231,0,0,1,.07519-.17969.25907.25907,0,0,1,.18457-.07031H26.367a.23926.23926,0,0,1,.25.25l.00976,2.40039a.9262.9262,0,0,0,.76075-.415,2.04483,2.04483,0,0,0,.21972-1.04492v-.9209a.26422.26422,0,0,1,.0752-.19433.25114.25114,0,0,1,.18457-.0752h1.04a.23135.23135,0,0,1,.1748.08008.26476.26476,0,0,1,.0752.18945v.94043a2.60068,2.60068,0,0,1-.58985,1.79981,2.47909,2.47909,0,0,1-1.66992.7705,1.29835,1.29835,0,0,0,.50488.48926,1.42957,1.42957,0,0,0,.69532.1709H28.327a1.98167,1.98167,0,0,0,.91992-.21094,1.588,1.588,0,0,0,.64063-.5791,1.54112,1.54112,0,0,0,.22949-.83008V6.79131a.24069.24069,0,0,1,.25-.25h1.0498A.24512.24512,0,0,1,31.59748,6.61162Z"/><path class="c" d="M35.48224,12.181a.23436.23436,0,0,1-.07519-.17969v-2.96a1.00316,1.00316,0,0,0-1.12989-1.13965H32.75763a.24264.24264,0,0,1-.17578-.07519.23951.23951,0,0,1-.07422-.17481V6.79131a.2336.2336,0,0,1,.07422-.17969.24977.24977,0,0,1,.17578-.07031h1.58008a3.19018,3.19018,0,0,1,2.07422.57031,2.30213,2.30213,0,0,1,.68555,1.87012v3.01953a.24748.24748,0,0,1-.07032.17481.23579.23579,0,0,1-.17968.07519H35.66681A.25907.25907,0,0,1,35.48224,12.181Z"/><path class="c" d="M14.68244,17.136a2.31349,2.31349,0,0,1,.69433,1.85547v3.00976a.25077.25077,0,0,1-.06933.17481.23794.23794,0,0,1-.18067.07519H13.94709a.259.259,0,0,1-.18457-.07031.231.231,0,0,1-.0752-.17969v-2.96a1.00315,1.00315,0,0,0-1.12988-1.13965h-.65039a6.0736,6.0736,0,0,0-.14942,1.46973l.0791,2.62988a.23359.23359,0,0,1-.07421.17969.26308.26308,0,0,1-.18555.07031l-2.12012-.00976a.259.259,0,0,1-.18457-.07032.23579.23579,0,0,1-.07519-.17968v-.79a.23794.23794,0,0,1,.07519-.18067.26253.26253,0,0,1,.18457-.06933h.81055V19.38115a5.38984,5.38984,0,0,1,.14941-1.47949H9.827a.25906.25906,0,0,1-.18457-.07031.2358.2358,0,0,1-.0752-.17969v-.86035a.23433.23433,0,0,1,.0752-.17969.25906.25906,0,0,1,.18457-.07031h2.79A3.10609,3.10609,0,0,1,14.68244,17.136Z"/><path class="c" d="M20.20685,17.16631a2.71905,2.71905,0,0,1,.57031,1.88477,2.94085,2.94085,0,0,1-.75,2.08007A3.97876,3.97876,0,0,1,18.1463,22.261l-.40917.12011a.19238.19238,0,0,1-.18555-.07031.28259.28259,0,0,1-.085-.19922V21.10088a.28364.28364,0,0,1,.07031-.18457.48474.48474,0,0,1,.17969-.13477l.32031-.12988a1.61585,1.61585,0,0,0,.72461-.53515,1.673,1.673,0,0,0,.26562-1.01563,1.34707,1.34707,0,0,0-.2207-.87988,1.06747,1.06747,0,0,0-.81933-.25h-.26075l-1.33984-.00977a.24069.24069,0,0,1-.25-.25V15.40166a.23792.23792,0,0,1,.07519-.18066.25078.25078,0,0,1,.17481-.06934h1.08008a.23927.23927,0,0,1,.25.25v1.13965h.62011A2.42713,2.42713,0,0,1,20.20685,17.16631Z"/><path class="c" d="M21.82209,22.181a.23433.23433,0,0,1-.0752-.17969v-5.21a.23433.23433,0,0,1,.0752-.17969.259.259,0,0,1,.18457-.07031h1.25a.23926.23926,0,0,1,.25.25v5.21a.25078.25078,0,0,1-.06934.17481.23792.23792,0,0,1-.18066.07519h-1.25A.259.259,0,0,1,21.82209,22.181Z"/><path class="c" d="M24.702,22.181a.231.231,0,0,1-.0752-.17969v-.91992a.25521.25521,0,0,1,.25977-.25977h1.45019a1.06485,1.06485,0,0,0,1.2002-1.12988c.00586-.08008.00977-.18066.00977-.30078,0-.11328-.00391-.21-.00977-.29a1.06485,1.06485,0,0,0-1.2002-1.12988H24.88654a.25681.25681,0,0,1-.25977-.25977v-.91992a.231.231,0,0,1,.0752-.17969.25906.25906,0,0,1,.18457-.07031h1.5a2.43,2.43,0,0,1,2.76953,2.57031c.00684.07324.01074.166.01074.2793a3.10623,3.10623,0,0,1-.65527,2.11035,2.68643,2.68643,0,0,1-2.125.75h-1.5A.25906.25906,0,0,1,24.702,22.181Z"/><path class="c" d="M35.39142,17.136a2.3135,2.3135,0,0,1,.69434,1.85547v3.00976a.25078.25078,0,0,1-.06934.17481.23792.23792,0,0,1-.18066.07519H34.65607a.25906.25906,0,0,1-.18457-.07031.231.231,0,0,1-.0752-.17969v-2.96a1.00315,1.00315,0,0,0-1.12988-1.13965H32.616a6.07361,6.07361,0,0,0-.14941,1.46973l.0791,2.62988a.2336.2336,0,0,1-.07422.17969.26305.26305,0,0,1-.18555.07031l-2.12011-.00976a.259.259,0,0,1-.18457-.07032.23576.23576,0,0,1-.0752-.17968v-.79a.23791.23791,0,0,1,.0752-.18067.26249.26249,0,0,1,.18457-.06933h.81054V19.38115a5.38982,5.38982,0,0,1,.14942-1.47949H30.536a.25907.25907,0,0,1-.18457-.07031.23582.23582,0,0,1-.07519-.17969v-.86035a.23436.23436,0,0,1,.07519-.17969.25907.25907,0,0,1,.18457-.07031h2.79A3.10607,3.10607,0,0,1,35.39142,17.136Z"/><path class="c" d="M19.25275,26.61162a.24441.24441,0,0,1,.06934.17969v.86035a.25078.25078,0,0,1-.06934.17481.23792.23792,0,0,1-.18066.07519h-.46a1.50985,1.50985,0,0,0-.18458.50977,3.52784,3.52784,0,0,0-.06542.71v2.91015a.18487.18487,0,0,1-.09473.1543.33943.33943,0,0,1-.19531.06543H16.90216a.20526.20526,0,0,1-.21972-.21973V29.011a2.14856,2.14856,0,0,1,.20019-1.10938H14.60236a.257.257,0,0,1-.25-.25v-.86035a.23436.23436,0,0,1,.07519-.17969.24751.24751,0,0,1,.17481-.07031h4.46973A.24508.24508,0,0,1,19.25275,26.61162Z"/><path class="c" d="M20.30744,32.181a.23433.23433,0,0,1-.0752-.17969v-5.21a.23433.23433,0,0,1,.0752-.17969.25906.25906,0,0,1,.18457-.07031h1.25a.23926.23926,0,0,1,.25.25v5.21a.25078.25078,0,0,1-.06934.17481.23792.23792,0,0,1-.18066.07519h-1.25A.25906.25906,0,0,1,20.30744,32.181Z"/><path class="c" d="M23.20685,29.81084a.23434.23434,0,0,1-.07519-.17969V26.79131a.23436.23436,0,0,1,.07519-.17969.25907.25907,0,0,1,.18457-.07031h1.25a.23924.23924,0,0,1,.25.25v2.83984a.25082.25082,0,0,1-.06933.17481.23453.23453,0,0,1-.18067.07519h-1.25A.259.259,0,0,1,23.20685,29.81084Z"/><path class="c" d="M30.56232,28.886a2.45968,2.45968,0,0,1-.87988.90527l.77929,1.07031a1.01809,1.01809,0,0,1,.09571.14942.40489.40489,0,0,1,.03515.18066v.80957a.24747.24747,0,0,1-.07031.17481.23579.23579,0,0,1-.17969.07519H26.28205a.257.257,0,0,1-.25-.25v-.88965a.23792.23792,0,0,1,.07519-.18066.25078.25078,0,0,1,.17481-.06934h2.35058l-2.91015-3.96a.34661.34661,0,0,1-.06055-.16015.18.18,0,0,1,.06543-.14551.23365.23365,0,0,1,.15527-.05469h1.23926a.3675.3675,0,0,1,.32031.17969l1.40039,1.91992a1.57783,1.57783,0,0,0,.46-1.26953v-.56055a.26357.26357,0,0,1,.07422-.19433.25494.25494,0,0,1,.18555-.0752h1.04981a.23135.23135,0,0,1,.1748.08008.26892.26892,0,0,1,.0752.18945v.86035A2.47252,2.47252,0,0,1,30.56232,28.886Z"/></svg>