<svg xmlns="http://www.w3.org/2000/svg" viewBox="0 0 45.40564 61.15213"><defs><style>.a{fill:#d2d2d2;}</style></defs><rect class="a" width="45.40564" height="61.15213"/><path d="M8.90092,10.93965a.16586.16586,0,0,1-.05274-.126V6.298a.16582.16582,0,0,1,.05274-.126.18416.18416,0,0,1,.1289-.04883H9.856a.16732.16732,0,0,1,.17481.1748v4.51563a.1673.1673,0,0,1-.17481.1748H9.02982A.18419.18419,0,0,1,8.90092,10.93965Z"/><path d="M10.88822,8.4123a.16292.16292,0,0,1-.05273-.126V6.298a.16582.16582,0,0,1,.05273-.126.1849.1849,0,0,1,.12988-.04883h.875a.16732.16732,0,0,1,.17481.1748V8.28633a.17284.17284,0,0,1-.04883.12207.16587.16587,0,0,1-.126.05273h-.875A.1849.1849,0,0,1,10.88822,8.4123Z"/><path d="M15.53959,6.56074A1.905,1.905,0,0,1,15.939,7.88008a2.06026,2.06026,0,0,1-.52539,1.45605,2.78861,2.78861,0,0,1-1.31641.791l-.28613.084a.13529.13529,0,0,1-.12988-.04883.198.198,0,0,1-.05957-.13965v-.707a.203.203,0,0,1,.04883-.12988.3634.3634,0,0,1,.126-.09473l.22461-.09082a1.13142,1.13142,0,0,0,.50684-.374,1.17177,1.17177,0,0,0,.18555-.71094A.94523.94523,0,0,0,14.5601,7.299a.74951.74951,0,0,0-.57422-.1748h-.18262l-.9375-.00684a.16732.16732,0,0,1-.17481-.1748V5.32539a.1656.1656,0,0,1,.05176-.126.17688.17688,0,0,1,.123-.04883h.75586a.1673.1673,0,0,1,.1748.17481v.79785H14.231A1.69687,1.69687,0,0,1,15.53959,6.56074Z"/><path d="M20.146,6.55a1.69459,1.69459,0,0,1,.44727,1.28125V9.94551a.17039.17039,0,0,1-.04883.12207.163.163,0,0,1-.126.05273H18.50736a.18031.18031,0,0,1-.1748-.1748V9.343a.16584.16584,0,0,1,.05273-.126.17453.17453,0,0,1,.12207-.04883h.90332V7.88691a.84163.84163,0,0,0-.1748-.5664.57233.57233,0,0,0-.45508-.20313h-.5459l-.5957,2.82129a.21014.21014,0,0,1-.05567.12891.163.163,0,0,1-.126.05273h-.80469a.176.176,0,0,1-.12988-.05273.13565.13565,0,0,1-.03809-.12891l.68555-2.81445h-.46192a.16293.16293,0,0,1-.126-.05274.18416.18416,0,0,1-.04883-.1289V6.298a.16585.16585,0,0,1,.05273-.126.17284.17284,0,0,1,.12207-.04883H18.9556A1.65733,1.65733,0,0,1,20.146,6.55Z"/><path d="M21.43119,10.07148a.16582.16582,0,0,1-.05274-.126V6.298a.16582.16582,0,0,1,.05274-.126.18418.18418,0,0,1,.12891-.04883h.875a.16732.16732,0,0,1,.1748.1748V9.94551a.17035.17035,0,0,1-.04883.12207.163.163,0,0,1-.126.05273h-.875A.18418.18418,0,0,1,21.43119,10.07148Z"/><path d="M26.19388,10.06758a.18753.18753,0,0,1-.13281.05273h-.875a.16285.16285,0,0,1-.11914-.04883.19755.19755,0,0,1-.05566-.126L24.9058,9.427a1.4843,1.4843,0,0,1-.40625.34375,3.96421,3.96421,0,0,1-.50684.26172,2.46849,2.46849,0,0,1-.47265.14355l-.04883.00782c-.08008,0-.11914-.03809-.11914-.11231V9.31562c0-.08008.04883-.13769.14648-.17578.03321-.01367.13965-.04687.31934-.10058a2.863,2.863,0,0,0,.4375-.165,1.38658,1.38658,0,0,0,.46191-.37793l-.13379-.65137a1.5146,1.5146,0,0,0-.21679-.59473.51164.51164,0,0,0-.4336-.1748H23.688a.18033.18033,0,0,1-.17481-.17481V6.25605a.17836.17836,0,0,1,.04883-.1289.163.163,0,0,1,.126-.05274h.26562a2.168,2.168,0,0,1,.95605.17871A1.31968,1.31968,0,0,1,25.48,6.802,3.44992,3.44992,0,0,1,25.816,7.81074l.41993,2.13477A.12438.12438,0,0,1,26.19388,10.06758Z"/><path d="M28.1851,8.4123a.16293.16293,0,0,1-.05274-.126V6.298a.16582.16582,0,0,1,.05274-.126.18487.18487,0,0,1,.12988-.04883h.875a.16732.16732,0,0,1,.1748.1748V8.28633a.17284.17284,0,0,1-.04883.12207.16585.16585,0,0,1-.126.05273h-.875A.18487.18487,0,0,1,28.1851,8.4123Z"/><path d="M30.59623,9.73164a1.71746,1.71746,0,0,1-.47559-1.29785V6.298a.16582.16582,0,0,1,.05274-.126.18416.18416,0,0,1,.1289-.04883h1.78516A2.029,2.029,0,0,1,33.52982,6.55a1.80947,1.80947,0,0,1,.48242,1.26074c.00489.0459.00684.15625.00684.32813,0,.17773-.002.29-.00684.33691a1.81452,1.81452,0,0,1-.5,1.27734,2.10983,2.10983,0,0,1-1.4873.4375A1.98743,1.98743,0,0,1,30.59623,9.73164Zm2.083-.71387a.80233.80233,0,0,0,.19921-.57715c.00489-.04687.00684-.14746.00684-.30175,0-.14844-.002-.24708-.00684-.294a.81871.81871,0,0,0-.21-.58105.86194.86194,0,0,0-.61621-.18848H31.2056V8.4123a.75748.75748,0,0,0,.21.585.861.861,0,0,0,.60157.19239A.982.982,0,0,0,32.67924,9.01777Z"/><path d="M34.7515,10.07148a.16585.16585,0,0,1-.05273-.126V6.298a.16585.16585,0,0,1,.05273-.126.1842.1842,0,0,1,.12891-.04883h1.65234a2.20676,2.20676,0,0,1,1.4668.40918,1.70166,1.70166,0,0,1,.47168,1.34766V9.94551a.17039.17039,0,0,1-.04883.12207.163.163,0,0,1-.126.05273h-.82617a.18416.18416,0,0,1-.1289-.04883.16582.16582,0,0,1-.05274-.126V7.87324a.70207.70207,0,0,0-.791-.79785h-.61622V9.94551a.17038.17038,0,0,1-.04882.12207.163.163,0,0,1-.126.05273h-.82617A.1842.1842,0,0,1,34.7515,10.07148Z"/><path d="M39.28763,8.4123a.163.163,0,0,1-.05273-.126V6.298a.16585.16585,0,0,1,.05273-.126.18491.18491,0,0,1,.12989-.04883h.875a.16732.16732,0,0,1,.1748.1748V8.28633a.17284.17284,0,0,1-.04883.12207.16585.16585,0,0,1-.126.05273h-.875A.18491.18491,0,0,1,39.28763,8.4123Z"/><path d="M8.13431,20.07148a.17.17,0,0,1-.04882-.126V17.87324a.70208.70208,0,0,0-.791-.79785H5.69779a.1842.1842,0,0,1-.12891-.04883.16586.16586,0,0,1-.05273-.126V16.298a.16585.16585,0,0,1,.05273-.126.1842.1842,0,0,1,.12891-.04883H7.32865A2.14976,2.14976,0,0,1,8.78178,16.55a1.68138,1.68138,0,0,1,.48632,1.33008v2.06543a.16582.16582,0,0,1-.05273.126.1842.1842,0,0,1-.12891.04883H8.26029A.17073.17073,0,0,1,8.13431,20.07148Zm-2.56543,0a.16585.16585,0,0,1-.05273-.126V17.90156a.163.163,0,0,1,.05273-.126.18.18,0,0,1,.12891-.04882H6.524a.1673.1673,0,0,1,.17481.1748v2.04395a.17039.17039,0,0,1-.04883.12207.163.163,0,0,1-.126.05273H5.69779A.1842.1842,0,0,1,5.56888,20.07148Z"/><path d="M13.79056,19.97285a.14768.14768,0,0,1-.042.10156.13568.13568,0,0,1-.10547.0459h-.86132a.23591.23591,0,0,1-.18848-.06641c-.03711-.04394-.0586-.06933-.06348-.07324l-1.22461-1.77148a.7886.7886,0,0,0-.23828.38476,1.85918,1.85918,0,0,0-.05566.46192v.875a.184.184,0,0,1-.05274.13672.17535.17535,0,0,1-.1289.05273H10.1431a.161.161,0,0,1-.12207-.05566.18985.18985,0,0,1-.05273-.13379v-.86719a2.45752,2.45752,0,0,1,.16113-.9668,1.78332,1.78332,0,0,1,.6084-.69922L10.024,16.36836a.1482.1482,0,0,1-.03515-.09766.14.14,0,0,1,.04589-.10156.14171.14171,0,0,1,.10157-.0459h.82617a.23378.23378,0,0,1,.15039.042.55028.55028,0,0,1,.10156.11231l1.127,1.5957a.61606.61606,0,0,0,.248-.30762,1.34193,1.34193,0,0,0,.05274-.39941v-.85352A.19364.19364,0,0,1,12.691,16.176a.16589.16589,0,0,1,.126-.05273h.73535a.17288.17288,0,0,1,.12989.05566.19326.19326,0,0,1,.05175.13379v.88184a1.83945,1.83945,0,0,1-.17871.81543,1.65882,1.65882,0,0,1-.64746.66113l.85449,1.2041A.1737.1737,0,0,1,13.79056,19.97285Z"/><path d="M15.44193,17.36933c.00879.19141.06543.30371.168.33594l.19629.07031a.16106.16106,0,0,1,.08691.08008.26947.26947,0,0,1,.03223.12988l.00684.35645a.18718.18718,0,0,1-.09473.165.34856.34856,0,0,1-.22754.04492l-.28711-.042a.8878.8878,0,0,1-.60156-.3877,1.3992,1.3992,0,0,1-.23828-.83691V16.298a.245.245,0,0,1,.05957-.126.15115.15115,0,0,1,.11523-.04883h1.41406A1.80736,1.80736,0,0,1,17.44,16.5959a1.98819,1.98819,0,0,1,.49414,1.32617c.00391.04687.00683.1123.00683.19629a2.21066,2.21066,0,0,1-.44824,1.47363,1.76278,1.76278,0,0,1-1.4209.52832H14.74174a.18087.18087,0,0,1-.12891-.04883.16582.16582,0,0,1-.05273-.126V19.301a.17531.17531,0,0,1,.05273-.1289.17228.17228,0,0,1,.12891-.05274h1.29492a.83764.83764,0,0,0,.585-.20605.81473.81473,0,0,0,.248-.585c.00488-.04688.00683-.11621.00683-.21,0-.08887-.002-.15625-.00683-.20313a.789.789,0,0,0-.24122-.584.84564.84564,0,0,0-.59179-.207h-.59473Z"/><path d="M20.521,20.07148a.16585.16585,0,0,1-.05273-.126V17.87324a.70207.70207,0,0,0-.791-.79785H18.61381a.17852.17852,0,0,1-.17481-.17481V16.298a.16857.16857,0,0,1,.05176-.126.17684.17684,0,0,1,.123-.04883h1.10547a2.23215,2.23215,0,0,1,1.45312.39941,1.61253,1.61253,0,0,1,.47949,1.3086v2.11426a.17453.17453,0,0,1-.04883.12207.16585.16585,0,0,1-.126.05273h-.82617A.18491.18491,0,0,1,20.521,20.07148Z"/><path d="M25.97025,16.55a1.69459,1.69459,0,0,1,.44727,1.28125v2.11426a.17039.17039,0,0,1-.04883.12207.163.163,0,0,1-.126.05273H24.33158a.18031.18031,0,0,1-.1748-.1748V19.343a.16584.16584,0,0,1,.05273-.126.17451.17451,0,0,1,.12207-.04883h.90332V17.88691a.84163.84163,0,0,0-.1748-.5664.57233.57233,0,0,0-.45508-.20313h-.5459l-.5957,2.82129a.21014.21014,0,0,1-.05567.12891.163.163,0,0,1-.126.05273h-.80469a.176.176,0,0,1-.12989-.05273.13567.13567,0,0,1-.03808-.12891l.68555-2.81445h-.46192a.16291.16291,0,0,1-.126-.05274.18416.18416,0,0,1-.04883-.1289V16.298a.16585.16585,0,0,1,.05273-.126.17284.17284,0,0,1,.12207-.04883h2.24707A1.65733,1.65733,0,0,1,25.97025,16.55Z"/><path d="M29.81986,20.07148a.17.17,0,0,1-.04883-.126V17.87324a.70207.70207,0,0,0-.791-.79785H27.38334a.1842.1842,0,0,1-.12891-.04883.16586.16586,0,0,1-.05273-.126V16.298a.16585.16585,0,0,1,.05273-.126.1842.1842,0,0,1,.12891-.04883H29.0142a2.14973,2.14973,0,0,1,1.45312.42676,1.68135,1.68135,0,0,1,.48633,1.33008v2.06543a.16585.16585,0,0,1-.05273.126.1842.1842,0,0,1-.12891.04883h-.82617A.17073.17073,0,0,1,29.81986,20.07148Zm-2.56543,0a.16585.16585,0,0,1-.05273-.126V17.90156a.163.163,0,0,1,.05273-.126.18.18,0,0,1,.12891-.04882h.82617a.16729.16729,0,0,1,.1748.1748v2.04395a.17038.17038,0,0,1-.04882.12207.163.163,0,0,1-.126.05273h-.82617A.1842.1842,0,0,1,27.25443,20.07148Z"/><path d="M33.26029,20.93965a.16585.16585,0,0,1-.05273-.126V16.298a.16582.16582,0,0,1,.05273-.126.1842.1842,0,0,1,.12891-.04883h.82617a.1673.1673,0,0,1,.1748.1748v4.51563a.16729.16729,0,0,1-.1748.1748H33.3892A.18423.18423,0,0,1,33.26029,20.93965Z"/><path d="M35.24857,18.4123a.163.163,0,0,1-.05273-.126V16.298a.16585.16585,0,0,1,.05273-.126.1849.1849,0,0,1,.12988-.04883h.875a.16732.16732,0,0,1,.17481.1748v1.98829a.17284.17284,0,0,1-.04883.12207.16586.16586,0,0,1-.126.05273h-.875A.1849.1849,0,0,1,35.24857,18.4123Z"/><path d="M37.14506,20.06758a.16933.16933,0,0,1-.05176-.12207V19.343a.16859.16859,0,0,1,.05176-.126.17681.17681,0,0,1,.123-.04883h1.75684V17.87324a.69917.69917,0,0,0-.791-.791h-.8955a.16294.16294,0,0,1-.126-.05273.18076.18076,0,0,1-.04981-.12891V16.298a.16582.16582,0,0,1,.05274-.126.17684.17684,0,0,1,.123-.04883h.93066a2.28139,2.28139,0,0,1,1.48047.41309,1.63631,1.63631,0,0,1,.5,1.33691v1.29492h.24512a.16883.16883,0,0,1,.17578.17481v.60254a.17131.17131,0,0,1-.04981.12207.163.163,0,0,1-.126.05273H37.2681A.16864.16864,0,0,1,37.14506,20.06758Z"/><path d="M23.21928,30.07148a.16994.16994,0,0,1-.04883-.126V27.87324a.70207.70207,0,0,0-.791-.79785H20.78275a.18416.18416,0,0,1-.1289-.04883.16583.16583,0,0,1-.05274-.126V26.298a.16582.16582,0,0,1,.05274-.126.18416.18416,0,0,1,.1289-.04883h1.63086a2.14976,2.14976,0,0,1,1.45313.42676,1.68138,1.68138,0,0,1,.48632,1.33008v2.06543a.16582.16582,0,0,1-.05273.126.1842.1842,0,0,1-.12891.04883h-.82617A.1707.1707,0,0,1,23.21928,30.07148Zm-2.56543,0a.16582.16582,0,0,1-.05274-.126V27.90156a.163.163,0,0,1,.05274-.126.17993.17993,0,0,1,.1289-.04882h.82617a.1673.1673,0,0,1,.17481.1748v2.04395a.17039.17039,0,0,1-.04883.12207.163.163,0,0,1-.126.05273h-.82617A.18416.18416,0,0,1,20.65385,30.07148Z"/><path d="M28.25931,26.17207a.16994.16994,0,0,1,.04883.126v.60254a.17032.17032,0,0,1-.04883.12207.16291.16291,0,0,1-.126.05274h-.32227a1.084,1.084,0,0,0-.1289.35644,2.5097,2.5097,0,0,0-.0459.49707V29.966a.12891.12891,0,0,1-.06641.1084.23229.23229,0,0,1-.13672.0459h-.81836a.14456.14456,0,0,1-.15429-.1543V27.85273a1.51609,1.51609,0,0,1,.13964-.77734h-1.5957a.18033.18033,0,0,1-.1748-.17481V26.298a.16582.16582,0,0,1,.05273-.126.17284.17284,0,0,1,.12207-.04883h3.12891A.1707.1707,0,0,1,28.25931,26.17207Z"/><path d="M28.96928,28.4123a.16293.16293,0,0,1-.05274-.126V26.298a.16582.16582,0,0,1,.05274-.126.18487.18487,0,0,1,.12988-.04883h.875a.16732.16732,0,0,1,.1748.1748v1.98829a.17284.17284,0,0,1-.04883.12207.16585.16585,0,0,1-.126.05273h-.875A.18487.18487,0,0,1,28.96928,28.4123Z"/><path d="M30.99955,30.07148a.16582.16582,0,0,1-.05274-.126V26.298a.16582.16582,0,0,1,.05274-.126.18416.18416,0,0,1,.1289-.04883H32.7808a2.20676,2.20676,0,0,1,1.4668.40918,1.70166,1.70166,0,0,1,.47168,1.34766v2.06543a.17039.17039,0,0,1-.04883.12207.163.163,0,0,1-.126.05273H33.7183a.1842.1842,0,0,1-.12891-.04883.16585.16585,0,0,1-.05273-.126V27.87324a.70207.70207,0,0,0-.791-.79785h-.61621v2.87012a.17035.17035,0,0,1-.04883.12207.163.163,0,0,1-.126.05273h-.82618A.18416.18416,0,0,1,30.99955,30.07148Z"/><path d="M35.53568,28.4123a.163.163,0,0,1-.05273-.126V26.298a.16585.16585,0,0,1,.05273-.126.1849.1849,0,0,1,.12988-.04883h.875a.16732.16732,0,0,1,.17481.1748v1.98829a.17284.17284,0,0,1-.04883.12207.16586.16586,0,0,1-.126.05273h-.875A.1849.1849,0,0,1,35.53568,28.4123Z"/><path d="M40.18705,26.56074a1.905,1.905,0,0,1,.39941,1.31934,2.06026,2.06026,0,0,1-.52539,1.45605,2.78863,2.78863,0,0,1-1.3164.791l-.28614.084a.13529.13529,0,0,1-.12988-.04883.198.198,0,0,1-.05957-.13965v-.707a.203.203,0,0,1,.04883-.12988.3634.3634,0,0,1,.126-.09473l.22461-.09082a1.13142,1.13142,0,0,0,.50684-.374,1.17177,1.17177,0,0,0,.18555-.71094.94517.94517,0,0,0-.15332-.61621.74951.74951,0,0,0-.57422-.1748h-.18262l-.9375-.00684a.1673.1673,0,0,1-.1748-.1748V25.32539a.16559.16559,0,0,1,.05175-.126.1769.1769,0,0,1,.123-.04883h.75586a.1673.1673,0,0,1,.1748.17481v.79785h.43457A1.69687,1.69687,0,0,1,40.18705,26.56074Z"/><path d="M20.79447,36.54023a1.61648,1.61648,0,0,1,.48633,1.29785v2.10743a.17453.17453,0,0,1-.04883.12207.16586.16586,0,0,1-.126.05273h-.82617a.18489.18489,0,0,1-.12988-.04883.16582.16582,0,0,1-.05274-.126V37.87324a.70177.70177,0,0,0-.79-.79785h-.45508a4.21314,4.21314,0,0,0-.10547,1.0293l.05566,1.84082a.1686.1686,0,0,1-.05175.126.18491.18491,0,0,1-.12989.04883l-1.48437-.00684a.18423.18423,0,0,1-.12891-.04882.16585.16585,0,0,1-.05273-.126V39.385a.16585.16585,0,0,1,.05273-.126.18424.18424,0,0,1,.12891-.04883h.56738V38.11152a3.73728,3.73728,0,0,1,.10547-1.03613H17.396a.1849.1849,0,0,1-.12988-.04883.16582.16582,0,0,1-.05273-.126V36.298a.16582.16582,0,0,1,.05273-.126.1849.1849,0,0,1,.12988-.04883h1.95313A2.16857,2.16857,0,0,1,20.79447,36.54023Z"/><path d="M25.68412,36.17207a.17385.17385,0,0,1,.04883.126v2.07227a1.52032,1.52032,0,0,1-.4834,1.15137,2.56849,2.56849,0,0,1-1.35742.6123l-1.792.37793a.15924.15924,0,0,1-.13671-.03418.15626.15626,0,0,1-.05957-.126v-.60938a.18229.18229,0,0,1,.04492-.123.20829.20829,0,0,1,.11621-.0664l.77637-.18848-.8252-2.96094a.86445.86445,0,0,1-.03516-.14062.13322.13322,0,0,1,.042-.09766.13164.13164,0,0,1,.09765-.042h.91016a.17023.17023,0,0,1,.10449.03125.15692.15692,0,0,1,.05664.07422l.7002,2.8623a.96043.96043,0,0,0,.51757-.3955,1.372,1.372,0,0,0,.13965-.67481V36.298a.16883.16883,0,0,1,.17578-.1748h.833A.17387.17387,0,0,1,25.68412,36.17207Z"/><path d="M26.54154,38.4123a.16292.16292,0,0,1-.05273-.126V36.298a.16582.16582,0,0,1,.05273-.126.1849.1849,0,0,1,.12988-.04883h.875a.16732.16732,0,0,1,.17481.1748v1.98829a.17284.17284,0,0,1-.04883.12207.16587.16587,0,0,1-.126.05273h-.875A.1849.1849,0,0,1,26.54154,38.4123Z"/><path d="M28.438,40.06758a.16933.16933,0,0,1-.05176-.12207V39.343a.16859.16859,0,0,1,.05176-.126.17681.17681,0,0,1,.123-.04883h1.75684V37.87324a.69917.69917,0,0,0-.791-.791h-.89551a.16292.16292,0,0,1-.126-.05273.18072.18072,0,0,1-.04981-.12891V36.298a.16582.16582,0,0,1,.05274-.126.17681.17681,0,0,1,.123-.04883h.93067a2.28139,2.28139,0,0,1,1.48047.41309,1.63631,1.63631,0,0,1,.5,1.33691v1.29492h.24511a.16883.16883,0,0,1,.17579.17481v.60254a.17135.17135,0,0,1-.04981.12207.163.163,0,0,1-.126.05273H28.56107A.16864.16864,0,0,1,28.438,40.06758Z"/><path d="M34.30033,40.1623a.20316.20316,0,0,1-.05664-.13965v-.707a.21292.21292,0,0,1,.0498-.13379.26991.26991,0,0,1,.126-.09082l.2168-.09082a1.029,1.029,0,0,0,.70019-1.085.9254.9254,0,0,0-.1582-.61621.75862.75862,0,0,0-.57715-.1748h-1.8623a.18007.18007,0,0,1-.18164-.18164v-.65137a.1536.1536,0,0,1,.05566-.11914.18746.18746,0,0,1,.126-.04883h2.10742a1.69685,1.69685,0,0,1,1.30859.4375,1.90017,1.90017,0,0,1,.39942,1.31934,2.056,2.056,0,0,1-.52539,1.456,2.78557,2.78557,0,0,1-1.31543.791l-.28711.084A.12692.12692,0,0,1,34.30033,40.1623ZM32.6099,41.4084a.16585.16585,0,0,1-.05273-.126V37.90156a.16294.16294,0,0,1,.05273-.126.18.18,0,0,1,.12891-.04882h.79785a.16881.16881,0,0,1,.17578.1748v3.38086a.16881.16881,0,0,1-.17578.1748h-.79785A.18423.18423,0,0,1,32.6099,41.4084Z"/><path d="M37.14506,40.06758a.16933.16933,0,0,1-.05176-.12207V39.343a.16859.16859,0,0,1,.05176-.126.17681.17681,0,0,1,.123-.04883h1.75684V37.87324a.69917.69917,0,0,0-.791-.791h-.8955a.16294.16294,0,0,1-.126-.05273.18076.18076,0,0,1-.04981-.12891V36.298a.16582.16582,0,0,1,.05274-.126.17684.17684,0,0,1,.123-.04883h.93066a2.28139,2.28139,0,0,1,1.48047.41309,1.63631,1.63631,0,0,1,.5,1.33691v1.29492h.24512a.16883.16883,0,0,1,.17578.17481v.60254a.17131.17131,0,0,1-.04981.12207.163.163,0,0,1-.126.05273H37.2681A.16864.16864,0,0,1,37.14506,40.06758Z"/><path d="M32.28763,50.07148a.16585.16585,0,0,1-.05273-.126V47.87324a.70207.70207,0,0,0-.791-.79785H30.38041a.17852.17852,0,0,1-.17481-.17481V46.298a.16857.16857,0,0,1,.05176-.126.17684.17684,0,0,1,.12305-.04883h1.10547a2.23215,2.23215,0,0,1,1.45312.39941,1.61253,1.61253,0,0,1,.47949,1.3086v2.11426a.17457.17457,0,0,1-.04882.12207.16589.16589,0,0,1-.126.05273h-.82617A.18491.18491,0,0,1,32.28763,50.07148Z"/><path d="M34.26224,50.07148a.16585.16585,0,0,1-.05273-.126V46.298a.16585.16585,0,0,1,.05273-.126.1842.1842,0,0,1,.12891-.04883h.875a.1673.1673,0,0,1,.1748.1748v3.64747a.17038.17038,0,0,1-.04882.12207.163.163,0,0,1-.126.05273h-.875A.1842.1842,0,0,1,34.26224,50.07148Z"/><path d="M39.98783,46.54023a1.61648,1.61648,0,0,1,.48633,1.29785v2.10743a.17453.17453,0,0,1-.04883.12207.16587.16587,0,0,1-.126.05273h-.82617a.18487.18487,0,0,1-.12988-.04883.16582.16582,0,0,1-.05274-.126V47.87324a.70177.70177,0,0,0-.79-.79785h-.45508a4.21314,4.21314,0,0,0-.10547,1.0293l.05566,1.84082a.16857.16857,0,0,1-.05176.126.18487.18487,0,0,1-.12988.04883l-1.48437-.00684a.18423.18423,0,0,1-.12891-.04882.16585.16585,0,0,1-.05273-.126V49.385a.16585.16585,0,0,1,.05273-.126.18424.18424,0,0,1,.12891-.04883H36.897V48.11152a3.73728,3.73728,0,0,1,.10547-1.03613h-.41309a.18489.18489,0,0,1-.12988-.04883.16582.16582,0,0,1-.05273-.126V46.298a.16582.16582,0,0,1,.05273-.126.18489.18489,0,0,1,.12988-.04883h1.95313A2.16857,2.16857,0,0,1,39.98783,46.54023Z"/></svg>