<svg xmlns="http://www.w3.org/2000/svg" viewBox="0 0 45.40564 60.28612"><defs><style>.a{fill:#fff;}.b{fill:none;stroke:#e2e6e8;stroke-linecap:round;stroke-linejoin:round;}.c{fill:#2d2a28;}</style></defs><rect class="a" width="45.40564" height="60.28612"/><line class="b" x1="23.8161" y1="28.49734" x2="40.9851" y2="28.49734"/><line class="b" x1="14.58663" y1="30.56615" x2="40.9851" y2="30.56615"/><line class="b" x1="10.98086" y1="32.53835" x2="40.9851" y2="32.53835"/><line class="b" x1="17.25603" y1="34.51055" x2="40.9851" y2="34.51055"/><line class="b" x1="23.8161" y1="46.26538" x2="40.9851" y2="46.26538"/><line class="b" x1="14.58663" y1="44.19656" x2="40.9851" y2="44.19656"/><line class="b" x1="10.98086" y1="42.22436" x2="40.9851" y2="42.22436"/><line class="b" x1="7.61843" y1="52.90931" x2="40.9851" y2="52.90931"/><line class="b" x1="5.08646" y1="50.93711" x2="40.9851" y2="50.93711"/><line class="b" x1="5.08646" y1="55.08767" x2="40.9851" y2="55.08767"/><line class="b" x1="17.25603" y1="40.25217" x2="40.9851" y2="40.25217"/><path class="c" d="M13.75574,9.80986a.237.237,0,0,1-.07422-.17968V6.79033a.237.237,0,0,1,.07422-.17968.26138.26138,0,0,1,.18555-.07032h1.25a.24433.24433,0,0,1,.17968.07032.24126.24126,0,0,1,.07032.17968V9.63018a.24745.24745,0,0,1-.07032.1748.23384.23384,0,0,1-.17968.0752h-1.25A.26138.26138,0,0,1,13.75574,9.80986Z"/><path class="c" d="M20.40222,7.16533a2.72387,2.72387,0,0,1,.57032,1.88477,2.94088,2.94088,0,0,1-.75,2.08008,3.97879,3.97879,0,0,1-1.88086,1.12988l-.41016.12012a.19313.19313,0,0,1-.18555-.07032.28145.28145,0,0,1-.084-.19921V11.0999a.28371.28371,0,0,1,.07031-.18457.46922.46922,0,0,1,.17969-.13476l.32031-.12988a1.62111,1.62111,0,0,0,.72461-.53516,1.67972,1.67972,0,0,0,.26563-1.01563A1.34707,1.34707,0,0,0,19.00183,8.22a1.06858,1.06858,0,0,0-.82031-.25h-.25977l-1.33984-.00976a.24071.24071,0,0,1-.25-.25V5.40069A.24067.24067,0,0,1,16.40613,5.22a.2548.2548,0,0,1,.17578-.06933H17.662a.23924.23924,0,0,1,.25.25V6.54033h.61914A2.42953,2.42953,0,0,1,20.40222,7.16533Z"/><path class="c" d="M25.68152,12.18a.24131.24131,0,0,1-.07031-.17969v-2.96a1.00345,1.00345,0,0,0-1.13086-1.13964h-2.2793a.2614.2614,0,0,1-.18555-.07032.2385.2385,0,0,1-.07421-.17968V6.79033a.237.237,0,0,1,.07421-.17968.2614.2614,0,0,1,.18555-.07032h2.33008a3.06067,3.06067,0,0,1,2.07422.61036,2.3933,2.3933,0,0,1,.69531,1.89941v2.95019a.237.237,0,0,1-.07422.17969.26137.26137,0,0,1-.18554.07031H25.86121A.24129.24129,0,0,1,25.68152,12.18Zm-3.666,0a.237.237,0,0,1-.07421-.17969V9.08037a.237.237,0,0,1,.07421-.17968.2614.2614,0,0,1,.18555-.07032h1.17969a.24071.24071,0,0,1,.25.25v2.91992a.24751.24751,0,0,1-.07031.17481.23436.23436,0,0,1-.17969.07519H22.20105A.26139.26139,0,0,1,22.0155,12.18Z"/><path class="c" d="M31.8573,12.1751a.25656.25656,0,0,1-.18555.07519H28.46082a.25669.25669,0,0,1-.1836-.07031.23178.23178,0,0,1-.07617-.17969v-.86035a.23319.23319,0,0,1,.07617-.17968.2567.2567,0,0,1,.1836-.07032H30.121l-.08984-1.96972a1.75114,1.75114,0,0,0-.19922-.83985.68494.68494,0,0,0-.62109-.25976h-.50977a.25891.25891,0,0,1-.25-.25V6.73076a.25976.25976,0,0,1,.07031-.18554.23728.23728,0,0,1,.17969-.0752h.541a2.62541,2.62541,0,0,1,1.90429.58984,2.73231,2.73231,0,0,1,.64454,1.89063l.13085,3.0498A.21346.21346,0,0,1,31.8573,12.1751Z"/><path class="c" d="M13.5409,22.18a.24128.24128,0,0,1-.07032-.17969v-2.96a1.00285,1.00285,0,0,0-1.1289-1.13964H10.06043a.2567.2567,0,0,1-.1836-.07032.23319.23319,0,0,1-.07617-.17968v-.86036a.23176.23176,0,0,1,.07617-.17968.2567.2567,0,0,1,.1836-.07032H12.3905a3.06629,3.06629,0,0,1,2.07618.61036A2.39992,2.39992,0,0,1,15.162,19.0501v2.95019a.23178.23178,0,0,1-.07617.17969.25669.25669,0,0,1-.1836.07031H13.72058A.24432.24432,0,0,1,13.5409,22.18Zm-3.66407,0a.23178.23178,0,0,1-.07617-.17969V19.08037a.23176.23176,0,0,1,.07617-.17968.2567.2567,0,0,1,.1836-.07032h1.18164a.24433.24433,0,0,1,.17968.07032.24126.24126,0,0,1,.07032.17968v2.91992a.24748.24748,0,0,1-.07032.17481.23727.23727,0,0,1-.17968.07519H10.06043A.25669.25669,0,0,1,9.87683,22.18Z"/><path class="c" d="M20.74207,16.61065a.24763.24763,0,0,1,.06836.17968v.86036a.25422.25422,0,0,1-.06836.1748.2386.2386,0,0,1-.18164.0752h-.459a1.5087,1.5087,0,0,0-.18554.50976,3.60334,3.60334,0,0,0-.06446.71v2.91016a.18387.18387,0,0,1-.0957.15429.33717.33717,0,0,1-.19531.06543H18.3905a.20387.20387,0,0,1-.21875-.21972V19.01006a2.16094,2.16094,0,0,1,.19922-1.10937H16.09168a.25525.25525,0,0,1-.25-.25v-.86036a.237.237,0,0,1,.07422-.17968.25141.25141,0,0,1,.17578-.07032h4.46875A.24579.24579,0,0,1,20.74207,16.61065Z"/><path class="c" d="M21.79675,22.18a.23178.23178,0,0,1-.07617-.17969v-5.21a.23176.23176,0,0,1,.07617-.17968.2567.2567,0,0,1,.1836-.07032h1.25a.23785.23785,0,0,1,.25.25v5.21a.25425.25425,0,0,1-.06836.17481.23859.23859,0,0,1-.18164.07519h-1.25A.25669.25669,0,0,1,21.79675,22.18Z"/><path class="c" d="M24.54675,22.1751a.23576.23576,0,0,1-.07421-.17481v-.86035a.23162.23162,0,0,1,.07421-.17968.24811.24811,0,0,1,.17579-.07032H27.2323V19.04033a.99924.99924,0,0,0-1.13086-1.12988H24.82215a.23147.23147,0,0,1-.17969-.07519.259.259,0,0,1-.07031-.18457v-.86036a.237.237,0,0,1,.07421-.17968.25145.25145,0,0,1,.17579-.07032h1.33007a3.25756,3.25756,0,0,1,2.11524.58985,2.34089,2.34089,0,0,1,.71484,1.91015v1.84961h.34961a.24071.24071,0,0,1,.25.25v.86035a.24751.24751,0,0,1-.07031.17481.23729.23729,0,0,1-.17969.07519H24.72254A.24107.24107,0,0,1,24.54675,22.1751Z"/><path class="c" d="M35.59168,16.61065a.24129.24129,0,0,1,.07031.17968v2.96a2.16933,2.16933,0,0,1-.69141,1.64454,3.65493,3.65493,0,0,1-1.93945.875l-2.56055.54a.22825.22825,0,0,1-.19531-.0498.22161.22161,0,0,1-.084-.17969v-.87011a.25985.25985,0,0,1,.06445-.17481.286.286,0,0,1,.166-.09473l1.10938-.2705-1.17969-4.2295a1.35806,1.35806,0,0,1-.05078-.20019.197.197,0,0,1,.06055-.14063.189.189,0,0,1,.14062-.05957h1.29883a.23941.23941,0,0,1,.15039.04493.21582.21582,0,0,1,.08008.10546l1,4.08985a1.37734,1.37734,0,0,0,.74023-.56543,1.9769,1.9769,0,0,0,.19922-.96485v-2.46a.24126.24126,0,0,1,.07032-.17968.24433.24433,0,0,1,.17968-.07032H35.412A.24437.24437,0,0,1,35.59168,16.61065Z"/></svg>