<svg xmlns="http://www.w3.org/2000/svg" viewBox="0 0 45.40564 60.28612"><defs><style>.a{fill:#fff;}.b{fill:#2d2a28;}</style></defs><rect class="a" width="45.40564" height="60.28612"/><path class="b" d="M9.62251,7.4318q0,.37207.168.42774l.19531.0625a.21648.21648,0,0,1,.11914.21679l.00781.40625a.15333.15333,0,0,1-.08105.12989.222.222,0,0,1-.16406.03808l-.36426-.04883a.88122.88122,0,0,1-.60254-.40234,1.58882,1.58882,0,0,1-.2373-.91406V6.298a.1673.1673,0,0,1,.1748-.1748h1.37891a1.77221,1.77221,0,0,1,1.35058.47558A1.95538,1.95538,0,0,1,12.04438,7.922l.00684,2.8916a.16732.16732,0,0,1-.1748.1748h-.791a.17686.17686,0,0,1-.123-.04883.16856.16856,0,0,1-.05175-.126V7.9152a.87982.87982,0,0,0-.21387-.59863.79493.79493,0,0,0-.59863-.20606l-.47559.00684Z"/><path class="b" d="M12.88813,10.07145a.16587.16587,0,0,1-.05273-.126V6.298a.16585.16585,0,0,1,.05273-.126.1842.1842,0,0,1,.12891-.04883h.875a.16732.16732,0,0,1,.17481.1748V9.94547a.17036.17036,0,0,1-.04883.12207.163.163,0,0,1-.126.05274h-.875A.1842.1842,0,0,1,12.88813,10.07145Z"/><path class="b" d="M15.32661,9.73161A1.71748,1.71748,0,0,1,14.851,8.43375V6.298a.16582.16582,0,0,1,.05273-.126.18418.18418,0,0,1,.12891-.04883h1.78515A2.029,2.029,0,0,1,18.2602,6.55a1.8095,1.8095,0,0,1,.48243,1.26074c.00488.0459.00683.15625.00683.32812,0,.17774-.002.29-.00683.33692a1.81461,1.81461,0,0,1-.5,1.27734,2.10988,2.10988,0,0,1-1.48731.4375A1.98744,1.98744,0,0,1,15.32661,9.73161Zm2.083-.71387a.80233.80233,0,0,0,.19922-.57715c.00488-.04687.00683-.14746.00683-.30176,0-.14844-.002-.24707-.00683-.29394a.81878.81878,0,0,0-.21-.58106.862.862,0,0,0-.61621-.18847H15.936V8.41227a.75746.75746,0,0,0,.21.585.861.861,0,0,0,.60156.19238A.982.982,0,0,0,17.40962,9.01774Z"/><path class="b" d="M19.45356,8.41227a.163.163,0,0,1-.05273-.126V6.298a.16585.16585,0,0,1,.05273-.126.18491.18491,0,0,1,.12989-.04883h.875a.16732.16732,0,0,1,.1748.1748V8.28629a.17282.17282,0,0,1-.04883.12207.16582.16582,0,0,1-.126.05274h-.875A.18491.18491,0,0,1,19.45356,8.41227Z"/><path class="b" d="M25.16938,9.97282a.1477.1477,0,0,1-.042.10156.13568.13568,0,0,1-.10547.0459H24.1606a.23591.23591,0,0,1-.18848-.06641c-.03711-.04394-.05859-.06933-.06348-.07324L22.684,8.20914a.78867.78867,0,0,0-.23828.38477,1.85916,1.85916,0,0,0-.05566.46191v.875a.18393.18393,0,0,1-.05274.13672.17532.17532,0,0,1-.1289.05274h-.68653a.161.161,0,0,1-.12207-.05567.18983.18983,0,0,1-.05273-.13379V9.06364a2.45749,2.45749,0,0,1,.16113-.9668,1.78332,1.78332,0,0,1,.6084-.69922l-.71387-1.0293a.14818.14818,0,0,1-.03515-.09765.14.14,0,0,1,.0459-.10156.14164.14164,0,0,1,.10156-.0459h.82617a.23378.23378,0,0,1,.15039.042.55047.55047,0,0,1,.10156.1123l1.127,1.59571a.616.616,0,0,0,.248-.30762,1.342,1.342,0,0,0,.05274-.39941V6.31266a.1936.1936,0,0,1,.04883-.13672.16585.16585,0,0,1,.126-.05273h.73535a.17288.17288,0,0,1,.12989.05566.19324.19324,0,0,1,.05175.13379V7.1945a1.83948,1.83948,0,0,1-.17871.81543,1.65888,1.65888,0,0,1-.64746.66113l.85449,1.2041A.1737.1737,0,0,1,25.16938,9.97282Z"/><path class="b" d="M27.4272,10.93961a.16582.16582,0,0,1-.05274-.126V6.298a.16582.16582,0,0,1,.05274-.126.18416.18416,0,0,1,.1289-.04883h.82618a.16732.16732,0,0,1,.1748.1748v4.51563a.16732.16732,0,0,1-.1748.1748H27.5561A.18416.18416,0,0,1,27.4272,10.93961Z"/><path class="b" d="M30.30708,7.3693c.00879.19141.06543.30371.168.33594l.19629.07031a.16106.16106,0,0,1,.08691.08008.26947.26947,0,0,1,.03223.12988l.00683.35645a.18717.18717,0,0,1-.09472.165.34862.34862,0,0,1-.22754.04492l-.28711-.042a.8878.8878,0,0,1-.60156-.3877,1.39922,1.39922,0,0,1-.23828-.83691V6.298a.2449.2449,0,0,1,.05957-.126.15115.15115,0,0,1,.11523-.04883H30.937a1.80736,1.80736,0,0,1,1.36817.47265A1.98829,1.98829,0,0,1,32.79927,7.922c.0039.04687.00683.1123.00683.19628A2.21067,2.21067,0,0,1,32.35786,9.592a1.76278,1.76278,0,0,1-1.4209.52832H29.60688a.18086.18086,0,0,1-.1289-.04883.16585.16585,0,0,1-.05274-.126V9.30094A.17532.17532,0,0,1,29.478,9.172a.17227.17227,0,0,1,.1289-.05274h1.29493a.83766.83766,0,0,0,.585-.20605.81473.81473,0,0,0,.248-.585c.00489-.04688.00684-.11622.00684-.21,0-.08886-.002-.15625-.00684-.20312a.789.789,0,0,0-.24121-.584.84565.84565,0,0,0-.59179-.207h-.59473Z"/><path class="b" d="M33.54438,10.07145a.16587.16587,0,0,1-.05273-.126V6.298a.16585.16585,0,0,1,.05273-.126.1842.1842,0,0,1,.12891-.04883h.875a.16732.16732,0,0,1,.17481.1748V9.94547a.17036.17036,0,0,1-.04883.12207.163.163,0,0,1-.126.05274h-.875A.1842.1842,0,0,1,33.54438,10.07145Z"/><path class="b" d="M39.28853,9.97282a.14771.14771,0,0,1-.042.10156.13568.13568,0,0,1-.10547.0459h-.86132a.23593.23593,0,0,1-.18848-.06641c-.03711-.04394-.05859-.06933-.06348-.07324L36.80317,8.20914a.78867.78867,0,0,0-.23828.38477,1.85916,1.85916,0,0,0-.05566.46191v.875a.18393.18393,0,0,1-.05274.13672.17532.17532,0,0,1-.1289.05274h-.68653a.161.161,0,0,1-.12207-.05567.18983.18983,0,0,1-.05273-.13379V9.06364a2.45749,2.45749,0,0,1,.16113-.9668,1.78332,1.78332,0,0,1,.6084-.69922l-.71387-1.0293a.14818.14818,0,0,1-.03515-.09765.14.14,0,0,1,.0459-.10156.14164.14164,0,0,1,.10156-.0459h.82617a.23378.23378,0,0,1,.15039.042.55047.55047,0,0,1,.10156.1123l1.127,1.59571a.616.616,0,0,0,.248-.30762,1.342,1.342,0,0,0,.05274-.39941V6.31266a.1936.1936,0,0,1,.04883-.13672.16585.16585,0,0,1,.126-.05273h.73535a.17286.17286,0,0,1,.12989.05566.19324.19324,0,0,1,.05175.13379V7.1945a1.83948,1.83948,0,0,1-.17871.81543,1.65888,1.65888,0,0,1-.64746.66113l.85449,1.2041A.17371.17371,0,0,1,39.28853,9.97282Z"/><path class="b" d="M22.99556,16.5402a1.61646,1.61646,0,0,1,.48632,1.29785v2.10742a.17453.17453,0,0,1-.04882.12207.16586.16586,0,0,1-.126.05274h-.82617a.18487.18487,0,0,1-.12988-.04883.16585.16585,0,0,1-.05274-.126V17.87321a.70177.70177,0,0,0-.79-.79785h-.45508a4.2136,4.2136,0,0,0-.10547,1.02929l.05567,1.84082a.16859.16859,0,0,1-.05176.126.18489.18489,0,0,1-.12988.04883l-1.48438-.00684a.18416.18416,0,0,1-.1289-.04883.16582.16582,0,0,1-.05274-.126v-.55371a.16583.16583,0,0,1,.05274-.126.18416.18416,0,0,1,.1289-.04883h.56739V18.11149a3.73764,3.73764,0,0,1,.10546-1.03613h-.41308a.18491.18491,0,0,1-.12988-.04883.16586.16586,0,0,1-.05274-.126V16.298a.16582.16582,0,0,1,.05274-.126.18487.18487,0,0,1,.12988-.04883h1.95312A2.16858,2.16858,0,0,1,22.99556,16.5402Z"/><path class="b" d="M24.32563,20.07145a.16587.16587,0,0,1-.05273-.126V16.298a.16585.16585,0,0,1,.05273-.126.1842.1842,0,0,1,.12891-.04883h.875a.16732.16732,0,0,1,.17481.1748v3.64746a.17036.17036,0,0,1-.04883.12207.163.163,0,0,1-.126.05274h-.875A.1842.1842,0,0,1,24.32563,20.07145Z"/><path class="b" d="M29.85884,16.55a1.69459,1.69459,0,0,1,.44726,1.28125v2.11425a.17035.17035,0,0,1-.04882.12207.163.163,0,0,1-.126.05274H28.22017a.18035.18035,0,0,1-.17481-.17481v-.60254a.16582.16582,0,0,1,.05274-.126.1745.1745,0,0,1,.12207-.04883h.90332V17.88688a.84168.84168,0,0,0-.17481-.56641.57234.57234,0,0,0-.45508-.20312h-.5459l-.5957,2.82129a.21008.21008,0,0,1-.05566.1289.163.163,0,0,1-.126.05274h-.80469a.176.176,0,0,1-.12988-.05274.13565.13565,0,0,1-.03809-.1289l.68555-2.81446h-.46191a.16294.16294,0,0,1-.126-.05273.1842.1842,0,0,1-.04883-.12891V16.298a.16582.16582,0,0,1,.05274-.126.17282.17282,0,0,1,.12207-.04883h2.24707A1.65733,1.65733,0,0,1,29.85884,16.55Z"/><path class="b" d="M31.1147,18.41227a.163.163,0,0,1-.05274-.126V16.298a.16582.16582,0,0,1,.05274-.126.18487.18487,0,0,1,.12988-.04883h.875a.1673.1673,0,0,1,.1748.1748v1.98828a.17286.17286,0,0,1-.04882.12207.16586.16586,0,0,1-.126.05274h-.875A.18487.18487,0,0,1,31.1147,18.41227Z"/><path class="b" d="M35.85005,20.06754a.18751.18751,0,0,1-.13281.05274h-.875a.16281.16281,0,0,1-.11914-.04883.19764.19764,0,0,1-.05567-.126l-.10547-.51855a1.48447,1.48447,0,0,1-.40625.34375,3.96481,3.96481,0,0,1-.50683.26172,2.4693,2.4693,0,0,1-.47266.14355l-.04883.00781c-.08008,0-.11914-.03808-.11914-.1123v-.75586c0-.08008.04883-.1377.14649-.17578.0332-.01367.13964-.04688.31933-.10059a2.86052,2.86052,0,0,0,.4375-.165,1.3866,1.3866,0,0,0,.46192-.37793l-.13379-.65136a1.51459,1.51459,0,0,0-.2168-.59473.51163.51163,0,0,0-.43359-.1748h-.24512a.18035.18035,0,0,1-.17481-.17481V16.256a.17838.17838,0,0,1,.04883-.12891.163.163,0,0,1,.126-.05273h.26562a2.168,2.168,0,0,1,.95606.17871,1.31972,1.31972,0,0,1,.57031.54883,3.45009,3.45009,0,0,1,.33594,1.00879l.41992,2.13476A.12434.12434,0,0,1,35.85005,20.06754Z"/><path class="b" d="M39.33638,16.172a.17.17,0,0,1,.04882.126v.60254a.17035.17035,0,0,1-.04882.12207.163.163,0,0,1-.126.05274h-.32227a1.08383,1.08383,0,0,0-.1289.35644,2.5097,2.5097,0,0,0-.0459.49707V19.966a.1289.1289,0,0,1-.06641.1084.23229.23229,0,0,1-.13672.0459h-.81835a.14457.14457,0,0,1-.1543-.1543V17.8527a1.51591,1.51591,0,0,1,.13965-.77734H36.08149a.18033.18033,0,0,1-.1748-.17481V16.298a.16585.16585,0,0,1,.05273-.126.17284.17284,0,0,1,.12207-.04883H39.2104A.17073.17073,0,0,1,39.33638,16.172Z"/><path class="b" d="M20.45161,30.07145a.17.17,0,0,1-.04883-.126V27.87321a.70207.70207,0,0,0-.791-.79785H18.01509a.18424.18424,0,0,1-.12891-.04883.16589.16589,0,0,1-.05273-.126V26.298a.16585.16585,0,0,1,.05273-.126.1842.1842,0,0,1,.12891-.04883H19.646a2.14973,2.14973,0,0,1,1.45312.42676A1.68134,1.68134,0,0,1,21.5854,27.88v2.06543a.16587.16587,0,0,1-.05273.126.1842.1842,0,0,1-.12891.04883h-.82617A.17073.17073,0,0,1,20.45161,30.07145Zm-2.56543,0a.16587.16587,0,0,1-.05273-.126V27.90153a.163.163,0,0,1,.05273-.126.18.18,0,0,1,.12891-.04883h.82617a.1673.1673,0,0,1,.1748.17481v2.04394a.17035.17035,0,0,1-.04882.12207.163.163,0,0,1-.126.05274h-.82617A.1842.1842,0,0,1,17.88618,30.07145Z"/><path class="b" d="M22.42231,30.07145a.16587.16587,0,0,1-.05273-.126V26.298a.16585.16585,0,0,1,.05273-.126.1842.1842,0,0,1,.12891-.04883h1.65234a2.20676,2.20676,0,0,1,1.4668.40918A1.70162,1.70162,0,0,1,26.142,27.88v2.06543a.17032.17032,0,0,1-.04883.12207.16293.16293,0,0,1-.126.05274h-.82618a.18416.18416,0,0,1-.1289-.04883.16585.16585,0,0,1-.05274-.126V27.87321a.70207.70207,0,0,0-.791-.79785H23.5522v2.87011a.17036.17036,0,0,1-.04883.12207.163.163,0,0,1-.126.05274h-.82617A.1842.1842,0,0,1,22.42231,30.07145Z"/><path class="b" d="M26.95747,28.41227a.16294.16294,0,0,1-.05273-.126V26.298a.16582.16582,0,0,1,.05273-.126.1849.1849,0,0,1,.12988-.04883h.875a.16732.16732,0,0,1,.17481.1748v1.98828a.17282.17282,0,0,1-.04883.12207.16585.16585,0,0,1-.126.05274h-.875A.1849.1849,0,0,1,26.95747,28.41227Z"/><path class="b" d="M31.60884,26.56071A1.905,1.905,0,0,1,32.00825,27.88a2.06027,2.06027,0,0,1-.52539,1.45606,2.78851,2.78851,0,0,1-1.31641.791l-.28613.084a.13532.13532,0,0,1-.12988-.04883.19807.19807,0,0,1-.05957-.13965v-.707a.203.203,0,0,1,.04883-.12988.36328.36328,0,0,1,.126-.09473l.22461-.09082a1.13142,1.13142,0,0,0,.50684-.374,1.17177,1.17177,0,0,0,.18555-.71094.94522.94522,0,0,0-.15332-.61621.74951.74951,0,0,0-.57422-.17481h-.18262l-.9375-.00683a.16732.16732,0,0,1-.17481-.17481V25.32536a.1656.1656,0,0,1,.05176-.126.17684.17684,0,0,1,.123-.04883h.75586a.1673.1673,0,0,1,.1748.17481v.79785h.43457A1.69687,1.69687,0,0,1,31.60884,26.56071Z"/><path class="b" d="M37.19478,26.172a.17388.17388,0,0,1,.04882.126v1.834a2.05958,2.05958,0,0,1-.27929,1.082,1.90059,1.90059,0,0,1-.76368.71679,2.21559,2.21559,0,0,1-1.07031.24512h-.67285a2.10763,2.10763,0,0,1-.97949-.2168,1.54032,1.54032,0,0,1-.86133-1.40722V26.298a.16585.16585,0,0,1,.05273-.126.18491.18491,0,0,1,.12989-.04883h.73437a.16732.16732,0,0,1,.17481.1748l.00781,1.68067a.64289.64289,0,0,0,.53125-.291,1.428,1.428,0,0,0,.1543-.73144v-.64356a.184.184,0,0,1,.05273-.13672.17538.17538,0,0,1,.12891-.05273H35.312a.161.161,0,0,1,.12207.05566.18982.18982,0,0,1,.05274.13379v.65723a1.82439,1.82439,0,0,1-.41309,1.26074,1.73991,1.73991,0,0,1-1.16894.53906.90907.90907,0,0,0,.35351.34278,1.01277,1.01277,0,0,0,.48633.11914h.16113a1.398,1.398,0,0,0,.64453-.14747,1.106,1.106,0,0,0,.44727-.40625,1.0752,1.0752,0,0,0,.16113-.58105V26.298a.16732.16732,0,0,1,.17481-.1748h.73535A.17073.17073,0,0,1,37.19478,26.172Z"/><path class="b" d="M38.018,30.07145a.16585.16585,0,0,1-.05274-.126V26.298a.16582.16582,0,0,1,.05274-.126.18416.18416,0,0,1,.1289-.04883h.875a.16732.16732,0,0,1,.17481.1748v3.64746a.17036.17036,0,0,1-.04883.12207.163.163,0,0,1-.126.05274h-.875A.18416.18416,0,0,1,38.018,30.07145Z"/><path class="b" d="M17.3852,40.07145a.17.17,0,0,1-.04882-.126V37.87321a.70208.70208,0,0,0-.791-.79785H14.94868a.1842.1842,0,0,1-.1289-.04883.16586.16586,0,0,1-.05274-.126V36.298a.16582.16582,0,0,1,.05274-.126.18416.18416,0,0,1,.1289-.04883h1.63086a2.14976,2.14976,0,0,1,1.45313.42676A1.68137,1.68137,0,0,1,18.519,37.88v2.06543a.16584.16584,0,0,1-.05273.126.1842.1842,0,0,1-.12891.04883h-.82617A.17073.17073,0,0,1,17.3852,40.07145Zm-2.56542,0a.16585.16585,0,0,1-.05274-.126V37.90153a.163.163,0,0,1,.05274-.126.17993.17993,0,0,1,.1289-.04883h.82617a.16732.16732,0,0,1,.17481.17481v2.04394a.17036.17036,0,0,1-.04883.12207.163.163,0,0,1-.126.05274h-.82617A.18416.18416,0,0,1,14.81978,40.07145Z"/><path class="b" d="M22.42524,36.172a.16994.16994,0,0,1,.04883.126v.60254a.17032.17032,0,0,1-.04883.12207.16291.16291,0,0,1-.126.05274H21.977a1.08383,1.08383,0,0,0-.1289.35644,2.5097,2.5097,0,0,0-.0459.49707V39.966a.12892.12892,0,0,1-.06641.1084.23229.23229,0,0,1-.13672.0459h-.81836a.14456.14456,0,0,1-.15429-.1543V37.8527a1.516,1.516,0,0,1,.13964-.77734h-1.5957a.18033.18033,0,0,1-.1748-.17481V36.298a.16582.16582,0,0,1,.05273-.126.17284.17284,0,0,1,.12207-.04883h3.12891A.1707.1707,0,0,1,22.42524,36.172Z"/><path class="b" d="M23.02974,40.06754a.16929.16929,0,0,1-.05176-.12207v-.60254a.16857.16857,0,0,1,.05176-.126.17681.17681,0,0,1,.123-.04883h1.75684V37.87321a.69917.69917,0,0,0-.791-.791h-.8955a.163.163,0,0,1-.126-.05273.18078.18078,0,0,1-.04981-.12891V36.298a.16582.16582,0,0,1,.05274-.126.17682.17682,0,0,1,.123-.04883h.93066a2.28139,2.28139,0,0,1,1.48047.41308,1.63634,1.63634,0,0,1,.5,1.33692v1.29492h.24512a.16883.16883,0,0,1,.17578.1748v.60254a.17128.17128,0,0,1-.04981.12207.16293.16293,0,0,1-.126.05274H23.15278A.16862.16862,0,0,1,23.02974,40.06754Z"/><path class="b" d="M30.76216,36.172a.17389.17389,0,0,1,.04883.126v2.07227a1.52028,1.52028,0,0,1-.4834,1.15136,2.56842,2.56842,0,0,1-1.35742.61231l-1.792.37793a.1593.1593,0,0,1-.13672-.03418.15631.15631,0,0,1-.05957-.126v-.60937a.18229.18229,0,0,1,.04493-.123.20837.20837,0,0,1,.11621-.06641l.77636-.18847-.82519-2.96094a.86471.86471,0,0,1-.03516-.14062.13318.13318,0,0,1,.042-.09766.13164.13164,0,0,1,.09765-.042h.91016a.17023.17023,0,0,1,.10449.03125.157.157,0,0,1,.05664.07422l.7002,2.8623a.96044.96044,0,0,0,.51757-.39551,1.37193,1.37193,0,0,0,.13965-.6748V36.298a.16883.16883,0,0,1,.17578-.1748h.833A.17389.17389,0,0,1,30.76216,36.172Z"/><path class="b" d="M35.12349,36.55a1.69459,1.69459,0,0,1,.44726,1.28125v2.11425a.17032.17032,0,0,1-.04883.12207.16293.16293,0,0,1-.126.05274H33.48481a.18033.18033,0,0,1-.1748-.17481v-.60254a.16585.16585,0,0,1,.05273-.126.17453.17453,0,0,1,.12207-.04883h.90332V37.88688a.84168.84168,0,0,0-.1748-.56641.57234.57234,0,0,0-.45508-.20312h-.5459l-.5957,2.82129a.21014.21014,0,0,1-.05566.1289.163.163,0,0,1-.126.05274h-.80469a.176.176,0,0,1-.12988-.05274.13565.13565,0,0,1-.03809-.1289l.68555-2.81446H31.686a.16294.16294,0,0,1-.126-.05273.1842.1842,0,0,1-.04883-.12891V36.298a.16582.16582,0,0,1,.05274-.126.17282.17282,0,0,1,.12207-.04883h2.24707A1.65733,1.65733,0,0,1,35.12349,36.55Z"/><path class="b" d="M38.94478,36.56071A1.905,1.905,0,0,1,39.34419,37.88a2.06027,2.06027,0,0,1-.52539,1.45606,2.78851,2.78851,0,0,1-1.31641.791l-.28613.084a.13531.13531,0,0,1-.12988-.04883.19807.19807,0,0,1-.05957-.13965v-.707a.20305.20305,0,0,1,.04882-.12988.36341.36341,0,0,1,.126-.09473l.22461-.09082a1.13142,1.13142,0,0,0,.50684-.374,1.17177,1.17177,0,0,0,.18554-.71094.94516.94516,0,0,0-.15332-.61621.74948.74948,0,0,0-.57422-.17481h-.18261l-.9375-.00683a.16732.16732,0,0,1-.17481-.17481V35.32536a.1656.1656,0,0,1,.05176-.126.17684.17684,0,0,1,.123-.04883h.75586a.16732.16732,0,0,1,.1748.17481v.79785h.43457A1.69687,1.69687,0,0,1,38.94478,36.56071Z"/><path class="b" d="M16.91255,46.5402a1.61647,1.61647,0,0,1,.48633,1.29785v2.10742a.1745.1745,0,0,1-.04883.12207.16585.16585,0,0,1-.126.05274H16.3979a.18487.18487,0,0,1-.12988-.04883.16585.16585,0,0,1-.05274-.126V47.87321a.70177.70177,0,0,0-.79-.79785h-.45507a4.21262,4.21262,0,0,0-.10547,1.02929l.05566,1.84082a.16859.16859,0,0,1-.05176.126.18487.18487,0,0,1-.12988.04883l-1.48437-.00684a.18418.18418,0,0,1-.12891-.04883.16582.16582,0,0,1-.05274-.126v-.55371a.16583.16583,0,0,1,.05274-.126.18418.18418,0,0,1,.12891-.04883h.56738V48.11149a3.73724,3.73724,0,0,1,.10547-1.03613h-.41309a.18491.18491,0,0,1-.12988-.04883.16586.16586,0,0,1-.05274-.126V46.298a.16582.16582,0,0,1,.05274-.126.18487.18487,0,0,1,.12988-.04883h1.95313A2.16857,2.16857,0,0,1,16.91255,46.5402Z"/><path class="b" d="M18.21431,48.41227a.163.163,0,0,1-.05274-.126V46.298a.16582.16582,0,0,1,.05274-.126.18487.18487,0,0,1,.12988-.04883h.875a.1673.1673,0,0,1,.1748.1748v1.98828a.17286.17286,0,0,1-.04882.12207.16586.16586,0,0,1-.126.05274h-.875A.18487.18487,0,0,1,18.21431,48.41227Z"/><path class="b" d="M22.393,46.172a.16585.16585,0,0,1,.05273.126v.60254a.17366.17366,0,0,1-.18164.17481h-.32226a1.083,1.083,0,0,0-.12989.35644,2.51387,2.51387,0,0,0-.04492.49707V49.966a.13217.13217,0,0,1-.06348.1084.21707.21707,0,0,1-.13281.0459h-.81933a.14871.14871,0,0,1-.11133-.042.151.151,0,0,1-.042-.11231V47.8527a1.50567,1.50567,0,0,1,.13964-.77734h-.52539a.18033.18033,0,0,1-.1748-.17481V46.298a.16585.16585,0,0,1,.05273-.126.17624.17624,0,0,1,.12207-.04883h2.05176A.1842.1842,0,0,1,22.393,46.172Z"/><path class="b" d="M23.12153,50.07145a.16587.16587,0,0,1-.05273-.126v-.64453a.18007.18007,0,0,1,.18164-.18164h1.01562a.74549.74549,0,0,0,.83985-.791c.0039-.05567.00683-.126.00683-.21,0-.0791-.00293-.14746-.00683-.20312a.7455.7455,0,0,0-.83985-.791H23.25044a.18006.18006,0,0,1-.18164-.18164V46.298a.16585.16585,0,0,1,.05273-.126.1842.1842,0,0,1,.12891-.04883h1.0498A1.70139,1.70139,0,0,1,26.2397,47.922c.00488.05175.00683.11718.00683.19628a2.17164,2.17164,0,0,1-.458,1.47657,1.87935,1.87935,0,0,1-1.48829.52539h-1.0498A.1842.1842,0,0,1,23.12153,50.07145Z"/><path class="b" d="M28.80513,50.07145a.16585.16585,0,0,1-.05274-.126V47.87321a.70207.70207,0,0,0-.791-.79785H26.8979a.1785.1785,0,0,1-.1748-.17481V46.298a.16856.16856,0,0,1,.05175-.126.17686.17686,0,0,1,.123-.04883h1.10547a2.23215,2.23215,0,0,1,1.45312.39941,1.61254,1.61254,0,0,1,.4795,1.3086v2.11425a.17454.17454,0,0,1-.04883.12207.16586.16586,0,0,1-.126.05274H28.935A.18487.18487,0,0,1,28.80513,50.07145Z"/><path class="b" d="M34.25532,46.55a1.69459,1.69459,0,0,1,.44727,1.28125v2.11425a.17036.17036,0,0,1-.04883.12207.163.163,0,0,1-.126.05274H32.61665a.18033.18033,0,0,1-.1748-.17481v-.60254a.16582.16582,0,0,1,.05273-.126.17453.17453,0,0,1,.12207-.04883H33.52V47.88688a.84168.84168,0,0,0-.1748-.56641.57235.57235,0,0,0-.45508-.20312h-.5459l-.5957,2.82129a.21009.21009,0,0,1-.05567.1289.16293.16293,0,0,1-.126.05274h-.80469a.176.176,0,0,1-.12988-.05274.13562.13562,0,0,1-.03809-.1289l.68555-2.81446h-.46192a.1629.1629,0,0,1-.126-.05273.1842.1842,0,0,1-.04883-.12891V46.298a.16585.16585,0,0,1,.05273-.126.17284.17284,0,0,1,.12207-.04883h2.24707A1.65733,1.65733,0,0,1,34.25532,46.55Z"/><path class="b" d="M38.10493,50.07145a.17.17,0,0,1-.04883-.126V47.87321a.70207.70207,0,0,0-.791-.79785H35.66841a.18424.18424,0,0,1-.12891-.04883.16589.16589,0,0,1-.05273-.126V46.298a.16585.16585,0,0,1,.05273-.126.1842.1842,0,0,1,.12891-.04883h1.63086a2.14973,2.14973,0,0,1,1.45312.42676A1.68134,1.68134,0,0,1,39.23872,47.88v2.06543a.16587.16587,0,0,1-.05273.126.1842.1842,0,0,1-.12891.04883h-.82617A.17073.17073,0,0,1,38.10493,50.07145Zm-2.56543,0a.16587.16587,0,0,1-.05273-.126V47.90153a.163.163,0,0,1,.05273-.126.18.18,0,0,1,.12891-.04883h.82617a.1673.1673,0,0,1,.1748.17481v2.04394a.17035.17035,0,0,1-.04882.12207.163.163,0,0,1-.126.05274h-.82617A.1842.1842,0,0,1,35.5395,50.07145Z"/></svg>