<svg xmlns="http://www.w3.org/2000/svg" viewBox="0 0 45.40564 60.28612"><defs><style>.a{fill:#efefef;}.b{fill:none;stroke:#d2d6d8;stroke-linecap:round;stroke-linejoin:round;}.c{fill:#1d1b19;}</style></defs><rect class="a" width="45.40564" height="60.28612"/><line class="b" x1="23.8161" y1="28.49734" x2="40.9851" y2="28.49734"/><line class="b" x1="14.58663" y1="30.56615" x2="40.9851" y2="30.56615"/><line class="b" x1="10.98086" y1="32.53835" x2="40.9851" y2="32.53835"/><line class="b" x1="17.25603" y1="34.51055" x2="40.9851" y2="34.51055"/><line class="b" x1="23.8161" y1="46.26538" x2="40.9851" y2="46.26538"/><line class="b" x1="14.58663" y1="44.19656" x2="40.9851" y2="44.19656"/><line class="b" x1="10.98086" y1="42.22436" x2="40.9851" y2="42.22436"/><line class="b" x1="7.61843" y1="52.90931" x2="40.9851" y2="52.90931"/><line class="b" x1="5.08646" y1="50.93711" x2="40.9851" y2="50.93711"/><line class="b" x1="5.08646" y1="55.08767" x2="40.9851" y2="55.08767"/><line class="b" x1="17.25603" y1="40.25217" x2="40.9851" y2="40.25217"/><path class="c" d="M13.75657,9.80986a.23429.23429,0,0,1-.0752-.17968V6.79033a.23429.23429,0,0,1,.0752-.17968.259.259,0,0,1,.18457-.07032h1.25a.23927.23927,0,0,1,.25.25V9.63018a.25076.25076,0,0,1-.06934.1748.2345.2345,0,0,1-.18066.0752h-1.25A.259.259,0,0,1,13.75657,9.80986Z"/><path class="c" d="M20.40208,7.16533a2.71908,2.71908,0,0,1,.57031,1.88477,2.94088,2.94088,0,0,1-.75,2.08008,3.97874,3.97874,0,0,1-1.88086,1.12988l-.40918.12012a.19242.19242,0,0,1-.18555-.07032.28257.28257,0,0,1-.085-.19921V11.0999a.28367.28367,0,0,1,.07032-.18457.48449.48449,0,0,1,.17968-.13476l.32032-.12988a1.61571,1.61571,0,0,0,.7246-.53516,1.673,1.673,0,0,0,.26563-1.01563,1.34713,1.34713,0,0,0-.2207-.87988,1.06755,1.06755,0,0,0-.81934-.25h-.26074l-1.33985-.00976a.24072.24072,0,0,1-.25-.25V5.40069A.238.238,0,0,1,16.407,5.22a.25075.25075,0,0,1,.1748-.06933h1.08008a.23924.23924,0,0,1,.25.25V6.54033H18.532A2.42716,2.42716,0,0,1,20.40208,7.16533Z"/><path class="c" d="M25.68137,12.18a.24131.24131,0,0,1-.07031-.17969v-2.96a1.00315,1.00315,0,0,0-1.12988-1.13964H22.20091a.259.259,0,0,1-.18457-.07032.23576.23576,0,0,1-.0752-.17968V6.79033a.23429.23429,0,0,1,.0752-.17968.259.259,0,0,1,.18457-.07032H24.531a3.06347,3.06347,0,0,1,2.0752.61036,2.39659,2.39659,0,0,1,.69531,1.89941v2.95019a.23434.23434,0,0,1-.07519.17969.259.259,0,0,1-.18457.07031H25.86106A.24282.24282,0,0,1,25.68137,12.18Zm-3.665,0a.23431.23431,0,0,1-.0752-.17969V9.08037a.23429.23429,0,0,1,.0752-.17968.259.259,0,0,1,.18457-.07032h1.18066a.24071.24071,0,0,1,.25.25v2.91992a.24751.24751,0,0,1-.07031.17481.23582.23582,0,0,1-.17969.07519H22.20091A.259.259,0,0,1,22.01634,12.18Z"/><path class="c" d="M31.85716,12.1751a.255.255,0,0,1-.18555.07519h-3.21a.259.259,0,0,1-.18457-.07031.231.231,0,0,1-.0752-.17969v-.86035a.2324.2324,0,0,1,.0752-.17968.259.259,0,0,1,.18457-.07032H30.1218L30.032,8.92022a1.761,1.761,0,0,0-.2002-.83985.68417.68417,0,0,0-.62011-.25976h-.50977a.24046.24046,0,0,1-.1748-.0752.23675.23675,0,0,1-.0752-.1748V6.73076a.25976.25976,0,0,1,.07031-.18554.23433.23433,0,0,1,.17969-.0752h.54a2.6296,2.6296,0,0,1,1.90527.58984,2.73231,2.73231,0,0,1,.64454,1.89063l.12988,3.0498A.20752.20752,0,0,1,31.85716,12.1751Z"/><path class="c" d="M13.54173,22.18a.24128.24128,0,0,1-.07032-.17969v-2.96a1.00315,1.00315,0,0,0-1.12988-1.13964H10.06126a.259.259,0,0,1-.18457-.07032.23576.23576,0,0,1-.0752-.17968v-.86036a.23429.23429,0,0,1,.0752-.17968.259.259,0,0,1,.18457-.07032h2.33008a3.06346,3.06346,0,0,1,2.07519.61036,2.39659,2.39659,0,0,1,.69531,1.89941v2.95019a.23434.23434,0,0,1-.07519.17969.259.259,0,0,1-.18457.07031H13.72141A.24278.24278,0,0,1,13.54173,22.18Zm-3.665,0a.23431.23431,0,0,1-.0752-.17969V19.08037a.23429.23429,0,0,1,.0752-.17968.259.259,0,0,1,.18457-.07032h1.18066a.24071.24071,0,0,1,.25.25v2.91992a.24751.24751,0,0,1-.07031.17481.23582.23582,0,0,1-.17969.07519H10.06126A.259.259,0,0,1,9.87669,22.18Z"/><path class="c" d="M20.74192,16.61065a.24437.24437,0,0,1,.06934.17968v.86036a.25076.25076,0,0,1-.06934.1748.23793.23793,0,0,1-.18066.0752h-.46a1.5095,1.5095,0,0,0-.18457.50976,3.52715,3.52715,0,0,0-.06543.71v2.91016a.18485.18485,0,0,1-.09473.15429.33943.33943,0,0,1-.19531.06543H18.39134a.20526.20526,0,0,1-.21973-.21972V19.01006a2.14849,2.14849,0,0,1,.20019-1.10937H16.09153a.25707.25707,0,0,1-.25-.25v-.86036a.23429.23429,0,0,1,.0752-.17968.24744.24744,0,0,1,.1748-.07032h4.46973A.245.245,0,0,1,20.74192,16.61065Z"/><path class="c" d="M21.79661,22.18a.23431.23431,0,0,1-.0752-.17969v-5.21a.23429.23429,0,0,1,.0752-.17968.259.259,0,0,1,.18457-.07032h1.25a.23927.23927,0,0,1,.25.25v5.21a.25078.25078,0,0,1-.06934.17481.23792.23792,0,0,1-.18066.07519h-1.25A.259.259,0,0,1,21.79661,22.18Z"/><path class="c" d="M24.54661,22.1751a.23947.23947,0,0,1-.07422-.17481v-.86035a.235.235,0,0,1,.07422-.17968.24974.24974,0,0,1,.17578-.07032h2.50977V19.04033a.999.999,0,0,0-1.12989-1.12988H24.822a.23436.23436,0,0,1-.17969-.07519.25907.25907,0,0,1-.07031-.18457v-.86036a.23432.23432,0,0,1,.07519-.17968.24748.24748,0,0,1,.17481-.07032h1.33008a3.25754,3.25754,0,0,1,2.11523.58985,2.3409,2.3409,0,0,1,.71485,1.91015v1.84961h.3496a.23926.23926,0,0,1,.25.25v.86035a.25077.25077,0,0,1-.06933.17481.23794.23794,0,0,1-.18067.07519H24.72239A.24264.24264,0,0,1,24.54661,22.1751Z"/><path class="c" d="M35.59153,16.61065a.24125.24125,0,0,1,.07031.17968v2.96a2.172,2.172,0,0,1-.69043,1.64454,3.662,3.662,0,0,1-1.93945.875l-2.56055.54a.22746.22746,0,0,1-.19531-.0498.2225.2225,0,0,1-.085-.17969v-.87011a.256.256,0,0,1,.06543-.17481.28351.28351,0,0,1,.165-.09473l1.11035-.2705-1.18066-4.2295a1.28977,1.28977,0,0,1-.04981-.20019.196.196,0,0,1,.05957-.14063.19212.19212,0,0,1,.14063-.05957h1.2998a.24329.24329,0,0,1,.15039.04493.22185.22185,0,0,1,.08008.10546l1,4.08985a1.37463,1.37463,0,0,0,.73926-.56543,1.96525,1.96525,0,0,0,.20019-.96485v-2.46a.24072.24072,0,0,1,.25-.25h1.19043A.24279.24279,0,0,1,35.59153,16.61065Z"/></svg>