<svg xmlns="http://www.w3.org/2000/svg" viewBox="0 0 45.40564 60.28612"><defs><style>.a{fill:#fff;}.b{fill:none;stroke:#e2e6e8;stroke-linecap:round;stroke-linejoin:round;}.c{fill:#2d2a28;}</style></defs><rect class="a" width="45.40564" height="60.28612"/><line class="b" x1="23.8161" y1="44.86083" x2="40.9851" y2="44.86083"/><line class="b" x1="14.58663" y1="42.79202" x2="40.9851" y2="42.79202"/><line class="b" x1="10.98086" y1="40.81982" x2="40.9851" y2="40.81982"/><line class="b" x1="7.61843" y1="51.50476" x2="40.9851" y2="51.50476"/><line class="b" x1="5.08646" y1="49.53256" x2="40.9851" y2="49.53256"/><line class="b" x1="5.08646" y1="53.68313" x2="40.9851" y2="53.68313"/><line class="b" x1="17.25603" y1="38.84762" x2="40.9851" y2="38.84762"/><path class="c" d="M16.6245,7.1359a2.31352,2.31352,0,0,1,.69433,1.85547v3.00977a.25079.25079,0,0,1-.06933.1748.23793.23793,0,0,1-.18067.0752H15.88914a.259.259,0,0,1-.18457-.07032.231.231,0,0,1-.07519-.17968v-2.96A1.00315,1.00315,0,0,0,14.4995,7.90153h-.65039a6.07351,6.07351,0,0,0-.14942,1.46972l.0791,2.62989a.23353.23353,0,0,1-.07422.17968.263.263,0,0,1-.18554.07032l-2.12012-.00977a.25906.25906,0,0,1-.18457-.07031.23583.23583,0,0,1-.0752-.17969v-.79a.23793.23793,0,0,1,.0752-.18066.26252.26252,0,0,1,.18457-.06934h.81055V9.381a5.38979,5.38979,0,0,1,.14941-1.47949H11.769a.25906.25906,0,0,1-.18457-.07031.2358.2358,0,0,1-.0752-.17969V6.79118a.23431.23431,0,0,1,.0752-.17969.259.259,0,0,1,.18457-.07031h2.79A3.10614,3.10614,0,0,1,16.6245,7.1359Z"/><path class="c" d="M18.52391,12.18082a.23433.23433,0,0,1-.0752-.17968v-5.21a.23435.23435,0,0,1,.0752-.17969.259.259,0,0,1,.18457-.07031h1.25a.23926.23926,0,0,1,.25.25v5.21a.25076.25076,0,0,1-.06934.1748.23789.23789,0,0,1-.18066.0752h-1.25A.259.259,0,0,1,18.52391,12.18082Z"/><path class="c" d="M26.5493,6.61149a.24127.24127,0,0,1,.07031.17969v2.96a2.172,2.172,0,0,1-.69043,1.64453,3.662,3.662,0,0,1-1.93945.875l-2.56055.54a.2275.2275,0,0,1-.19531-.04981.22248.22248,0,0,1-.085-.17968V11.7111a.256.256,0,0,1,.06543-.17481.28344.28344,0,0,1,.165-.09472l1.11035-.27051L21.30907,6.94157a1.28976,1.28976,0,0,1-.04981-.2002.196.196,0,0,1,.05957-.14062.19212.19212,0,0,1,.14063-.05957h1.2998a.24328.24328,0,0,1,.15039.04492.22183.22183,0,0,1,.08008.10547l1,4.08984A1.37454,1.37454,0,0,0,24.729,10.216a1.96521,1.96521,0,0,0,.20019-.96484v-2.46a.24071.24071,0,0,1,.25-.25h1.19043A.24279.24279,0,0,1,26.5493,6.61149Z"/><path class="c" d="M34.17918,6.61149a.24439.24439,0,0,1,.06934.17969V9.41129a2.93847,2.93847,0,0,1-.39941,1.54493,2.7143,2.7143,0,0,1-1.08985,1.02539,3.18169,3.18169,0,0,1-1.53027.34961h-.96a3.00824,3.00824,0,0,1-1.40039-.31055,2.21517,2.21517,0,0,1-.915-.83985,2.24468,2.24468,0,0,1-.31446-1.16992V6.79118a.231.231,0,0,1,.0752-.17969.259.259,0,0,1,.18457-.07031h1.0498a.23924.23924,0,0,1,.25.25l.00977,2.40039a.92621.92621,0,0,0,.76074-.415A2.04472,2.04472,0,0,0,30.189,7.73161v-.9209a.26429.26429,0,0,1,.07519-.19434.25118.25118,0,0,1,.18457-.07519h1.04a.23136.23136,0,0,1,.17481.08007.26479.26479,0,0,1,.07519.18946v.94043a2.6007,2.6007,0,0,1-.58984,1.7998,2.47912,2.47912,0,0,1-1.66992.77051,1.29835,1.29835,0,0,0,.50488.48926,1.42953,1.42953,0,0,0,.69531.1709h.2295a1.98179,1.98179,0,0,0,.91992-.21094,1.588,1.588,0,0,0,.64062-.5791,1.54112,1.54112,0,0,0,.22949-.83008V6.79118a.24071.24071,0,0,1,.25-.25h1.04981A.245.245,0,0,1,34.17918,6.61149Z"/><path class="c" d="M13.354,17.1359a2.31352,2.31352,0,0,1,.69433,1.85547v3.00977a.25075.25075,0,0,1-.06933.1748.23791.23791,0,0,1-.18067.0752H12.61864a.259.259,0,0,1-.18457-.07032.231.231,0,0,1-.0752-.17968v-2.96A1.00315,1.00315,0,0,0,11.229,17.90153H10.5786a6.07351,6.07351,0,0,0-.14942,1.46972l.07911,2.62989a.23356.23356,0,0,1-.07422.17968.263.263,0,0,1-.18555.07032L8.1284,22.24137a.25907.25907,0,0,1-.18457-.07031.23582.23582,0,0,1-.07519-.17969v-.79a.23792.23792,0,0,1,.07519-.18066.26254.26254,0,0,1,.18457-.06934H8.939V19.381a5.38979,5.38979,0,0,1,.14941-1.47949H8.49852a.25906.25906,0,0,1-.18457-.07031.2358.2358,0,0,1-.0752-.17969v-.86035a.23431.23431,0,0,1,.0752-.17969.259.259,0,0,1,.18457-.07031h2.79A3.10614,3.10614,0,0,1,13.354,17.1359Z"/><path class="c" d="M15.2534,22.18082a.23432.23432,0,0,1-.07519-.17968v-5.21a.23434.23434,0,0,1,.07519-.17969.259.259,0,0,1,.18457-.07031h1.25a.23924.23924,0,0,1,.25.25v5.21a.25075.25075,0,0,1-.06933.1748.23793.23793,0,0,1-.18067.0752h-1.25A.259.259,0,0,1,15.2534,22.18082Z"/><path class="c" d="M21.93895,17.16618a2.719,2.719,0,0,1,.57031,1.88476,2.94088,2.94088,0,0,1-.75,2.08008A3.97874,3.97874,0,0,1,19.8784,22.2609l-.40918.12012a.19242.19242,0,0,1-.18554-.07031.28261.28261,0,0,1-.085-.19922V21.10075a.28365.28365,0,0,1,.07032-.18457.4846.4846,0,0,1,.17968-.13477l.32032-.12988a1.6158,1.6158,0,0,0,.72461-.53516,1.673,1.673,0,0,0,.26562-1.01562,1.34716,1.34716,0,0,0-.2207-.87989,1.06753,1.06753,0,0,0-.81934-.25h-.26074l-1.33984-.00976a.24069.24069,0,0,1-.25-.25V15.40153a.238.238,0,0,1,.07519-.18067.25082.25082,0,0,1,.17481-.06933h1.08007a.23924.23924,0,0,1,.25.25v1.13965h.62012A2.42711,2.42711,0,0,1,21.93895,17.16618Z"/><path class="c" d="M23.51317,19.81071a.23433.23433,0,0,1-.0752-.17969V16.79118a.23431.23431,0,0,1,.0752-.17969.259.259,0,0,1,.18457-.07031h1.25a.23926.23926,0,0,1,.25.25V19.631a.25074.25074,0,0,1-.06934.1748.23447.23447,0,0,1-.18066.0752h-1.25A.25906.25906,0,0,1,23.51317,19.81071Z"/><path class="c" d="M31.49852,16.61149a.24131.24131,0,0,1,.07031.17969v2.96a2.172,2.172,0,0,1-.69043,1.64453,3.662,3.662,0,0,1-1.93945.875l-2.56055.54a.2275.2275,0,0,1-.19531-.04981.22248.22248,0,0,1-.085-.17968V21.7111a.256.256,0,0,1,.06543-.17481.28344.28344,0,0,1,.165-.09472l1.11035-.27051-1.18066-4.22949a1.28976,1.28976,0,0,1-.04981-.2002.196.196,0,0,1,.05957-.14062.1921.1921,0,0,1,.14063-.05957h1.2998a.24328.24328,0,0,1,.15039.04492.22183.22183,0,0,1,.08008.10547l1,4.08984a1.37462,1.37462,0,0,0,.73926-.56543,1.96521,1.96521,0,0,0,.20019-.96484v-2.46a.24069.24069,0,0,1,.25-.25h1.19043A.24282.24282,0,0,1,31.49852,16.61149Z"/><path class="c" d="M33.99852,18.32145q.019.41016.23926.47949l.28027.10059a.22909.22909,0,0,1,.125.11426.38892.38892,0,0,1,.04492.18554l.00977.50977a.26538.26538,0,0,1-.13477.23535.494.494,0,0,1-.32519.06445l-.40918-.05957a1.27032,1.27032,0,0,1-.86035-.55566,2.00076,2.00076,0,0,1-.33985-1.19434V16.79118a.33668.33668,0,0,1,.085-.17969.21339.21339,0,0,1,.165-.07031h2.01953a2.58523,2.58523,0,0,1,1.95508.6748,2.84918,2.84918,0,0,1,.70508,1.89551c.00684.0664.00977.15918.00977.2793a3.15724,3.15724,0,0,1-.63965,2.10546,2.52077,2.52077,0,0,1-2.03028.75489H32.99852a.25976.25976,0,0,1-.18555-.07032.23432.23432,0,0,1-.07519-.17968v-.91992a.255.255,0,0,1,.07519-.18555.251.251,0,0,1,.18555-.07422h1.84961a1.19664,1.19664,0,0,0,.835-.29492,1.16663,1.16663,0,0,0,.35547-.835c.00586-.06739.00976-.167.00976-.30078,0-.126-.0039-.22266-.00976-.29a1.13349,1.13349,0,0,0-.3457-.835,1.20994,1.20994,0,0,0-.84473-.29493h-.84961Z"/></svg>