<svg xmlns="http://www.w3.org/2000/svg" viewBox="0 0 45.40564 60.28612"><defs><style>.a{fill:#fff;}.b{fill:none;stroke:#e2e6e8;stroke-linecap:round;stroke-linejoin:round;}.c{fill:#2d2a28;}</style></defs><rect class="a" width="45.40564" height="60.28612"/><line class="b" x1="23.8161" y1="44.86083" x2="40.9851" y2="44.86083"/><line class="b" x1="14.58663" y1="42.79202" x2="40.9851" y2="42.79202"/><line class="b" x1="10.98086" y1="40.81982" x2="40.9851" y2="40.81982"/><line class="b" x1="7.61843" y1="51.50476" x2="40.9851" y2="51.50476"/><line class="b" x1="5.08646" y1="49.53256" x2="40.9851" y2="49.53256"/><line class="b" x1="5.08646" y1="53.68313" x2="40.9851" y2="53.68313"/><line class="b" x1="17.25603" y1="38.84762" x2="40.9851" y2="38.84762"/><path class="c" d="M17.5028,7.16513a2.72383,2.72383,0,0,1,.57032,1.88476,2.94088,2.94088,0,0,1-.75,2.08008,3.97879,3.97879,0,0,1-1.88086,1.12988L15.0321,12.38a.19314.19314,0,0,1-.18555-.07031.28147.28147,0,0,1-.084-.19922V11.0997a.28369.28369,0,0,1,.07031-.18457.46925.46925,0,0,1,.17969-.13477l.32031-.12988a1.62111,1.62111,0,0,0,.72461-.53516,1.67969,1.67969,0,0,0,.26563-1.01562,1.34712,1.34712,0,0,0-.22071-.87989,1.06858,1.06858,0,0,0-.82031-.25h-.25976l-1.33985-.00976a.24069.24069,0,0,1-.25-.25V5.40048a.24068.24068,0,0,1,.07422-.18067.25486.25486,0,0,1,.17578-.06933h1.08008a.23924.23924,0,0,1,.25.25V6.54013h.61914A2.42948,2.42948,0,0,1,17.5028,7.16513Z"/><path class="c" d="M22.7821,12.17978a.24133.24133,0,0,1-.07031-.17969v-2.96a1.00286,1.00286,0,0,0-1.12891-1.13965H19.30163a.25673.25673,0,0,1-.18359-.07031.23323.23323,0,0,1-.07617-.17969V6.79013a.23178.23178,0,0,1,.07617-.17969.25669.25669,0,0,1,.18359-.07031h2.33008a3.06628,3.06628,0,0,1,2.07617.61035,2.39994,2.39994,0,0,1,.69532,1.89941v2.9502a.2318.2318,0,0,1-.07618.17969.2567.2567,0,0,1-.18359.07031H22.96179A.24439.24439,0,0,1,22.7821,12.17978Zm-3.66406,0a.23179.23179,0,0,1-.07617-.17969V9.08017a.23178.23178,0,0,1,.07617-.17969.25669.25669,0,0,1,.18359-.07031h1.18164a.24433.24433,0,0,1,.17969.07031.24127.24127,0,0,1,.07031.17969v2.91992a.24744.24744,0,0,1-.07031.1748.23725.23725,0,0,1-.17969.0752H19.30163A.25673.25673,0,0,1,19.118,12.17978Z"/><path class="c" d="M25.59655,12.17978a.237.237,0,0,1-.07421-.17969v-5.21a.237.237,0,0,1,.07421-.17969.26139.26139,0,0,1,.18555-.07031h1.25a.24435.24435,0,0,1,.17969.07031.24131.24131,0,0,1,.07031.17969v5.21a.24749.24749,0,0,1-.07031.1748.23726.23726,0,0,1-.17969.0752h-1.25A.26143.26143,0,0,1,25.59655,12.17978Z"/><path class="c" d="M31.89734,12.17489a.25337.25337,0,0,1-.18555.0752h-3.209a.26141.26141,0,0,1-.18554-.07031.23026.23026,0,0,1-.07422-.17969v-.86035a.23163.23163,0,0,1,.07422-.17969.26137.26137,0,0,1,.18554-.07031H30.163L30.07312,8.92a1.77117,1.77117,0,0,0-.20117-.83984.68344.68344,0,0,0-.61915-.25977H28.743a.24425.24425,0,0,1-.17578-.07519A.23577.23577,0,0,1,28.493,7.5704V6.73056a.25978.25978,0,0,1,.07031-.18555.23147.23147,0,0,1,.17969-.0752h.53906a2.63376,2.63376,0,0,1,1.90625.58985,2.73223,2.73223,0,0,1,.64453,1.89062l.12891,3.04981A.20188.20188,0,0,1,31.89734,12.17489Z"/><path class="c" d="M16.19616,17.13485a2.31392,2.31392,0,0,1,.69532,1.85547v3.00977a.24745.24745,0,0,1-.07032.1748.23724.23724,0,0,1-.17968.0752H15.46179a.26142.26142,0,0,1-.18555-.07031.23026.23026,0,0,1-.07422-.17969v-2.96a1.00345,1.00345,0,0,0-1.13086-1.13965h-.65039a6.07427,6.07427,0,0,0-.14843,1.46973l.07812,2.62988a.23026.23026,0,0,1-.07422.17969.26141.26141,0,0,1-.18554.07031l-2.11915-.00977A.26141.26141,0,0,1,10.786,22.17a.23851.23851,0,0,1-.07422-.17969v-.79a.24065.24065,0,0,1,.07422-.18066.26492.26492,0,0,1,.18554-.06934h.81055V19.38a5.39149,5.39149,0,0,1,.14844-1.47949H11.3407a.25674.25674,0,0,1-.1836-.07031.23323.23323,0,0,1-.07617-.17969v-.86035a.23178.23178,0,0,1,.07617-.17969.25669.25669,0,0,1,.1836-.07031h2.791A3.10324,3.10324,0,0,1,16.19616,17.13485Z"/><path class="c" d="M21.72155,17.16513a2.72383,2.72383,0,0,1,.57032,1.88476,2.94088,2.94088,0,0,1-.75,2.08008A3.97879,3.97879,0,0,1,19.661,22.25985l-.41016.12012a.19314.19314,0,0,1-.18555-.07031.28147.28147,0,0,1-.084-.19922V21.0997a.28369.28369,0,0,1,.07031-.18457.46925.46925,0,0,1,.17969-.13477l.32031-.12988a1.62111,1.62111,0,0,0,.72461-.53516,1.67969,1.67969,0,0,0,.26563-1.01562,1.34712,1.34712,0,0,0-.22071-.87989,1.06858,1.06858,0,0,0-.82031-.25h-.25976l-1.33985-.00976a.24069.24069,0,0,1-.25-.25V15.40048a.24068.24068,0,0,1,.07422-.18067.25486.25486,0,0,1,.17578-.06933h1.08008a.23924.23924,0,0,1,.25.25v1.13965h.61914A2.42948,2.42948,0,0,1,21.72155,17.16513Z"/><path class="c" d="M23.14538,22.17489a.24332.24332,0,0,1-.07422-.1748v-.86035a.23848.23848,0,0,1,.07422-.17969.25142.25142,0,0,1,.17578-.07031h2.50977V19.04013A.99865.99865,0,0,0,24.702,17.91024H23.42077a.23727.23727,0,0,1-.17968-.07519.259.259,0,0,1-.07032-.18457v-.86035a.23175.23175,0,0,1,.07618-.17969.24352.24352,0,0,1,.17382-.07031h1.33008a3.25763,3.25763,0,0,1,2.11524.58984,2.34092,2.34092,0,0,1,.71484,1.91016v1.84961h.34961a.24579.24579,0,0,1,.18164.07031.24924.24924,0,0,1,.06836.17969v.86035a.25422.25422,0,0,1-.06836.1748.23857.23857,0,0,1-.18164.0752H23.32116A.24424.24424,0,0,1,23.14538,22.17489Z"/><path class="c" d="M31.52038,22.30966a.29442.29442,0,0,1-.08008-.19922V21.0997a.30214.30214,0,0,1,.07032-.18946.39289.39289,0,0,1,.17968-.12988l.31055-.12988a1.46892,1.46892,0,0,0,1-1.55078,1.32228,1.32228,0,0,0-.22461-.87989,1.08981,1.08981,0,0,0-.82617-.25H29.28991a.24527.24527,0,0,1-.18359-.07519.24829.24829,0,0,1-.07617-.18457v-.92969a.21891.21891,0,0,1,.08008-.16992.26777.26777,0,0,1,.17968-.07031h3.01172a2.42757,2.42757,0,0,1,1.86914.625,2.71422,2.71422,0,0,1,.57032,1.88476,2.94088,2.94088,0,0,1-.75,2.08008,3.97879,3.97879,0,0,1-1.88086,1.12988l-.41016.12012A.18094.18094,0,0,1,31.52038,22.30966Zm-2.41406,1.78027a.2332.2332,0,0,1-.07617-.17969V19.08017a.23178.23178,0,0,1,.07617-.17969.25669.25669,0,0,1,.18359-.07031h1.14063a.24069.24069,0,0,1,.25.25v4.83007a.24069.24069,0,0,1-.25.25H29.28991A.25669.25669,0,0,1,29.10632,24.08993Z"/><path class="c" d="M11.35241,32.17978a.23179.23179,0,0,1-.07617-.17969v-5.21a.23178.23178,0,0,1,.07617-.17969.25669.25669,0,0,1,.1836-.07031h2.27148a3.02733,3.02733,0,0,1,2.02344.57519,2.35662,2.35662,0,0,1,.666,1.875v3a.25521.25521,0,0,1-.25977.25977H11.536A.25674.25674,0,0,1,11.35241,32.17978Zm3.53516-1.29V29.04013a1.00345,1.00345,0,0,0-1.13086-1.13965h-.959v2.98926Z"/><path class="c" d="M17.661,29.80966a.237.237,0,0,1-.07422-.17969V26.79013a.237.237,0,0,1,.07422-.17969.26137.26137,0,0,1,.18554-.07031h1.25a.24433.24433,0,0,1,.17969.07031.24127.24127,0,0,1,.07031.17969V29.63a.24747.24747,0,0,1-.07031.17481.23384.23384,0,0,1-.17969.07519h-1.25A.26141.26141,0,0,1,17.661,29.80966Z"/><path class="c" d="M24.30749,27.16513a2.72383,2.72383,0,0,1,.57031,1.88476,2.94088,2.94088,0,0,1-.75,2.08008,3.97876,3.97876,0,0,1-1.88085,1.12988l-.41016.12012a.19312.19312,0,0,1-.18555-.07031.28147.28147,0,0,1-.084-.19922V31.0997a.28369.28369,0,0,1,.07031-.18457.46925.46925,0,0,1,.17969-.13477l.32031-.12988a1.62111,1.62111,0,0,0,.72461-.53516,1.67969,1.67969,0,0,0,.26562-1.01562,1.34712,1.34712,0,0,0-.2207-.87989,1.06858,1.06858,0,0,0-.82031-.25H21.827l-1.33984-.00976a.24069.24069,0,0,1-.25-.25V25.40048a.24068.24068,0,0,1,.07422-.18067.25484.25484,0,0,1,.17578-.06933h1.08008a.24759.24759,0,0,1,.17969.06933.24512.24512,0,0,1,.07031.18067v1.13965h.61914A2.42949,2.42949,0,0,1,24.30749,27.16513Z"/><path class="c" d="M25.92273,32.17978a.2318.2318,0,0,1-.07618-.17969v-5.21a.23178.23178,0,0,1,.07618-.17969.25665.25665,0,0,1,.18359-.07031h1.25a.23784.23784,0,0,1,.25.25v5.21a.25422.25422,0,0,1-.06836.1748.23855.23855,0,0,1-.18164.0752h-1.25A.2567.2567,0,0,1,25.92273,32.17978Z"/><path class="c" d="M28.86218,32.17978a.23179.23179,0,0,1-.07617-.17969v-5.21a.23178.23178,0,0,1,.07617-.17969.25669.25669,0,0,1,.18359-.07031H31.4071a3.1436,3.1436,0,0,1,2.09375.585,2.42133,2.42133,0,0,1,.67578,1.9248v2.9502a.24744.24744,0,0,1-.07031.1748.23431.23431,0,0,1-.17969.0752H32.747a.26142.26142,0,0,1-.18555-.07031.237.237,0,0,1-.07422-.17969v-2.96a1.00345,1.00345,0,0,0-1.13086-1.13965h-.87891v4.09961a.24744.24744,0,0,1-.07031.1748.23725.23725,0,0,1-.17969.0752H29.04577A.25673.25673,0,0,1,28.86218,32.17978Z"/></svg>