<svg xmlns="http://www.w3.org/2000/svg" viewBox="0 0 45.40564 61.15213"><defs><style>.a{fill:#efefef;}.b{fill:#1d1b19;}</style></defs><rect class="a" width="45.40564" height="61.15213"/><path class="b" d="M8.90114,10.93965a.16589.16589,0,0,1-.05273-.126V6.298a.16585.16585,0,0,1,.05273-.126A.1842.1842,0,0,1,9.03,6.12324h.82617a.16732.16732,0,0,1,.17481.1748v4.51563a.1673.1673,0,0,1-.17481.1748H9.03A.18423.18423,0,0,1,8.90114,10.93965Z"/><path class="b" d="M10.88845,8.4123a.16293.16293,0,0,1-.05274-.126V6.298a.16582.16582,0,0,1,.05274-.126.18489.18489,0,0,1,.12988-.04883h.875a.16732.16732,0,0,1,.17481.1748V8.28633a.17288.17288,0,0,1-.04883.12207.16587.16587,0,0,1-.126.05273h-.875A.18489.18489,0,0,1,10.88845,8.4123Z"/><path class="b" d="M15.53982,6.56074a1.905,1.905,0,0,1,.39941,1.31934,2.06026,2.06026,0,0,1-.52539,1.45605,2.78861,2.78861,0,0,1-1.31641.791l-.28613.084a.13529.13529,0,0,1-.12988-.04883.198.198,0,0,1-.05957-.13965v-.707a.203.203,0,0,1,.04883-.12988.3634.3634,0,0,1,.126-.09473l.22461-.09082a1.13142,1.13142,0,0,0,.50684-.374,1.17177,1.17177,0,0,0,.18554-.71094.94517.94517,0,0,0-.15332-.61621.74947.74947,0,0,0-.57421-.1748h-.18262l-.9375-.00684a.16732.16732,0,0,1-.17481-.1748V5.32539a.1656.1656,0,0,1,.05176-.126.17688.17688,0,0,1,.123-.04883h.75586a.16732.16732,0,0,1,.1748.17481v.79785h.43457A1.69687,1.69687,0,0,1,15.53982,6.56074Z"/><path class="b" d="M20.14626,6.55a1.69459,1.69459,0,0,1,.44727,1.28125V9.94551a.17039.17039,0,0,1-.04883.12207.163.163,0,0,1-.126.05273H18.50759a.18033.18033,0,0,1-.17481-.1748V9.343a.16585.16585,0,0,1,.05274-.126.17451.17451,0,0,1,.12207-.04883h.90332V7.88691a.84163.84163,0,0,0-.1748-.5664.57233.57233,0,0,0-.45508-.20313h-.5459l-.5957,2.82129a.21014.21014,0,0,1-.05567.12891.163.163,0,0,1-.126.05273H16.6531a.176.176,0,0,1-.12989-.05273.13567.13567,0,0,1-.03808-.12891l.68555-2.81445h-.46192a.163.163,0,0,1-.126-.05274.18419.18419,0,0,1-.04882-.1289V6.298a.16582.16582,0,0,1,.05273-.126.17284.17284,0,0,1,.12207-.04883h2.24707A1.65733,1.65733,0,0,1,20.14626,6.55Z"/><path class="b" d="M21.43142,10.07148a.16582.16582,0,0,1-.05274-.126V6.298a.16582.16582,0,0,1,.05274-.126.18416.18416,0,0,1,.1289-.04883h.875a.16732.16732,0,0,1,.17481.1748V9.94551a.17039.17039,0,0,1-.04883.12207.163.163,0,0,1-.126.05273h-.875A.18416.18416,0,0,1,21.43142,10.07148Z"/><path class="b" d="M26.19411,10.06758a.18754.18754,0,0,1-.13281.05273h-.875a.16285.16285,0,0,1-.11914-.04883.19755.19755,0,0,1-.05566-.126L24.906,9.427a1.48444,1.48444,0,0,1-.40625.34375,3.96487,3.96487,0,0,1-.50684.26172,2.46837,2.46837,0,0,1-.47266.14355l-.04882.00782c-.08008,0-.11914-.03809-.11914-.11231V9.31562c0-.08008.04882-.13769.14648-.17578.0332-.01367.13965-.04687.31934-.10058a2.863,2.863,0,0,0,.4375-.165,1.38668,1.38668,0,0,0,.46191-.37793l-.13379-.65137a1.51443,1.51443,0,0,0-.2168-.59473.51161.51161,0,0,0-.43359-.1748h-.24512a.18033.18033,0,0,1-.1748-.17481V6.25605a.17832.17832,0,0,1,.04883-.1289.16293.16293,0,0,1,.126-.05274h.26563a2.168,2.168,0,0,1,.956.17871,1.31968,1.31968,0,0,1,.57032.54883,3.45021,3.45021,0,0,1,.33593,1.00879l.41993,2.13477A.12438.12438,0,0,1,26.19411,10.06758Z"/><path class="b" d="M28.18532,8.4123a.163.163,0,0,1-.05273-.126V6.298a.16585.16585,0,0,1,.05273-.126.18491.18491,0,0,1,.12989-.04883h.875a.16732.16732,0,0,1,.1748.1748V8.28633a.17284.17284,0,0,1-.04883.12207.16585.16585,0,0,1-.126.05273h-.875A.18491.18491,0,0,1,28.18532,8.4123Z"/><path class="b" d="M30.59646,9.73164a1.71743,1.71743,0,0,1-.47559-1.29785V6.298a.16582.16582,0,0,1,.05274-.126.18416.18416,0,0,1,.1289-.04883h1.78516A2.029,2.029,0,0,1,33.53005,6.55a1.80947,1.80947,0,0,1,.48242,1.26074c.00489.0459.00684.15625.00684.32813,0,.17773-.002.29-.00684.33691a1.81452,1.81452,0,0,1-.5,1.27734,2.10985,2.10985,0,0,1-1.4873.4375A1.98743,1.98743,0,0,1,30.59646,9.73164Zm2.083-.71387a.80229.80229,0,0,0,.19922-.57715c.00489-.04687.00684-.14746.00684-.30175,0-.14844-.002-.24708-.00684-.294a.81871.81871,0,0,0-.21-.58105.862.862,0,0,0-.61621-.18848h-.84668V8.4123a.75745.75745,0,0,0,.21.585.861.861,0,0,0,.60157.19239A.98193.98193,0,0,0,32.67946,9.01777Z"/><path class="b" d="M34.75173,10.07148a.16582.16582,0,0,1-.05273-.126V6.298a.16582.16582,0,0,1,.05273-.126.1842.1842,0,0,1,.12891-.04883H36.533a2.20676,2.20676,0,0,1,1.4668.40918,1.70166,1.70166,0,0,1,.47168,1.34766V9.94551a.17039.17039,0,0,1-.04883.12207.163.163,0,0,1-.126.05273h-.82617a.1842.1842,0,0,1-.12891-.04883.16585.16585,0,0,1-.05273-.126V7.87324a.70207.70207,0,0,0-.791-.79785h-.61621V9.94551a.17035.17035,0,0,1-.04883.12207.16294.16294,0,0,1-.126.05273h-.82617A.1842.1842,0,0,1,34.75173,10.07148Z"/><path class="b" d="M39.28786,8.4123a.163.163,0,0,1-.05273-.126V6.298a.16585.16585,0,0,1,.05273-.126.18491.18491,0,0,1,.12989-.04883h.875a.16732.16732,0,0,1,.1748.1748V8.28633a.17284.17284,0,0,1-.04883.12207.16585.16585,0,0,1-.126.05273h-.875A.18491.18491,0,0,1,39.28786,8.4123Z"/><path class="b" d="M8.13454,20.07148a.17.17,0,0,1-.04883-.126V17.87324a.70207.70207,0,0,0-.791-.79785H5.698a.1842.1842,0,0,1-.12891-.04883.16586.16586,0,0,1-.05273-.126V16.298a.16585.16585,0,0,1,.05273-.126.1842.1842,0,0,1,.12891-.04883H7.32888A2.14973,2.14973,0,0,1,8.782,16.55a1.68135,1.68135,0,0,1,.48633,1.33008v2.06543a.16585.16585,0,0,1-.05273.126.1842.1842,0,0,1-.12891.04883H8.26052A.17073.17073,0,0,1,8.13454,20.07148Zm-2.56543,0a.16585.16585,0,0,1-.05273-.126V17.90156a.163.163,0,0,1,.05273-.126.18.18,0,0,1,.12891-.04882h.82617a.1673.1673,0,0,1,.17481.1748v2.04395a.17039.17039,0,0,1-.04883.12207.163.163,0,0,1-.126.05273H5.698A.1842.1842,0,0,1,5.56911,20.07148Z"/><path class="b" d="M13.79079,19.97285a.14772.14772,0,0,1-.042.10156.13569.13569,0,0,1-.10547.0459H12.782a.2359.2359,0,0,1-.18847-.06641c-.03711-.04394-.0586-.06933-.06348-.07324l-1.22461-1.77148a.7886.7886,0,0,0-.23828.38476,1.85918,1.85918,0,0,0-.05566.46192v.875a.184.184,0,0,1-.05274.13672.17535.17535,0,0,1-.1289.05273h-.68653a.161.161,0,0,1-.12207-.05566.18985.18985,0,0,1-.05273-.13379v-.86719a2.45752,2.45752,0,0,1,.16113-.9668,1.78332,1.78332,0,0,1,.6084-.69922l-.71387-1.02929A.14816.14816,0,0,1,9.989,16.2707a.14.14,0,0,1,.0459-.10156.14171.14171,0,0,1,.10157-.0459h.82617a.23378.23378,0,0,1,.15039.042.55057.55057,0,0,1,.10156.11231l1.127,1.5957a.61609.61609,0,0,0,.248-.30762,1.34193,1.34193,0,0,0,.05274-.39941v-.85352a.19364.19364,0,0,1,.04882-.13672.16589.16589,0,0,1,.126-.05273h.73535a.17284.17284,0,0,1,.12988.05566.19327.19327,0,0,1,.05176.13379v.88184a1.83945,1.83945,0,0,1-.17871.81543,1.65882,1.65882,0,0,1-.64746.66113l.85449,1.2041A.1737.1737,0,0,1,13.79079,19.97285Z"/><path class="b" d="M15.44216,17.36933c.00879.19141.06543.30371.168.33594l.19629.07031a.16109.16109,0,0,1,.08691.08008.26947.26947,0,0,1,.03223.12988l.00683.35645a.18717.18717,0,0,1-.09472.165.34856.34856,0,0,1-.22754.04492L15.323,18.51a.8878.8878,0,0,1-.60156-.3877,1.3992,1.3992,0,0,1-.23828-.83691V16.298a.2449.2449,0,0,1,.05957-.126.15115.15115,0,0,1,.11523-.04883H16.072a1.80736,1.80736,0,0,1,1.36817.47266,1.98824,1.98824,0,0,1,.49414,1.32617c.0039.04687.00683.1123.00683.19629a2.21066,2.21066,0,0,1-.44824,1.47363,1.76278,1.76278,0,0,1-1.4209.52832H14.742a.18086.18086,0,0,1-.1289-.04883.16582.16582,0,0,1-.05274-.126V19.301a.17532.17532,0,0,1,.05274-.1289.17227.17227,0,0,1,.1289-.05274h1.29493a.83766.83766,0,0,0,.585-.20605.81473.81473,0,0,0,.248-.585c.00489-.04688.00684-.11621.00684-.21,0-.08887-.00195-.15625-.00684-.20313a.789.789,0,0,0-.24121-.584.84564.84564,0,0,0-.59179-.207h-.59473Z"/><path class="b" d="M20.52126,20.07148a.16585.16585,0,0,1-.05273-.126V17.87324a.70207.70207,0,0,0-.791-.79785H18.614a.17852.17852,0,0,1-.1748-.17481V16.298a.16857.16857,0,0,1,.05176-.126.17681.17681,0,0,1,.123-.04883H19.7195a2.23216,2.23216,0,0,1,1.45313.39941,1.61256,1.61256,0,0,1,.47949,1.3086v2.11426a.17453.17453,0,0,1-.04883.12207.16585.16585,0,0,1-.126.05273h-.82618A.1849.1849,0,0,1,20.52126,20.07148Z"/><path class="b" d="M25.97048,16.55a1.69459,1.69459,0,0,1,.44727,1.28125v2.11426a.17039.17039,0,0,1-.04883.12207.163.163,0,0,1-.126.05273H24.33181a.18033.18033,0,0,1-.17481-.1748V19.343a.16585.16585,0,0,1,.05274-.126.1745.1745,0,0,1,.12207-.04883h.90332V17.88691a.84163.84163,0,0,0-.17481-.5664.5723.5723,0,0,0-.45507-.20313h-.5459l-.59571,2.82129a.21008.21008,0,0,1-.05566.12891.163.163,0,0,1-.126.05273h-.80468a.176.176,0,0,1-.12989-.05273.13567.13567,0,0,1-.03808-.12891l.68554-2.81445H22.533a.163.163,0,0,1-.126-.05274.18419.18419,0,0,1-.04882-.1289V16.298a.16582.16582,0,0,1,.05273-.126.17284.17284,0,0,1,.12207-.04883h2.24707A1.65733,1.65733,0,0,1,25.97048,16.55Z"/><path class="b" d="M29.82009,20.07148a.17.17,0,0,1-.04883-.126V17.87324a.70207.70207,0,0,0-.791-.79785H27.38357a.18418.18418,0,0,1-.12891-.04883.16582.16582,0,0,1-.05273-.126V16.298a.16582.16582,0,0,1,.05273-.126.18418.18418,0,0,1,.12891-.04883h1.63086a2.14973,2.14973,0,0,1,1.45312.42676,1.68135,1.68135,0,0,1,.48633,1.33008v2.06543a.16582.16582,0,0,1-.05274.126.18416.18416,0,0,1-.1289.04883h-.82617A.17073.17073,0,0,1,29.82009,20.07148Zm-2.56543,0a.16582.16582,0,0,1-.05273-.126V17.90156a.16294.16294,0,0,1,.05273-.126.18.18,0,0,1,.12891-.04882h.82617a.1673.1673,0,0,1,.1748.1748v2.04395a.17035.17035,0,0,1-.04883.12207.16294.16294,0,0,1-.126.05273h-.82617A.18418.18418,0,0,1,27.25466,20.07148Z"/><path class="b" d="M33.26052,20.93965a.16586.16586,0,0,1-.05274-.126V16.298a.16582.16582,0,0,1,.05274-.126.18418.18418,0,0,1,.12891-.04883h.82617a.16732.16732,0,0,1,.1748.1748v4.51563a.1673.1673,0,0,1-.1748.1748h-.82617A.18422.18422,0,0,1,33.26052,20.93965Z"/><path class="b" d="M35.2488,18.4123a.16292.16292,0,0,1-.05273-.126V16.298a.16582.16582,0,0,1,.05273-.126.1849.1849,0,0,1,.12988-.04883h.875a.16732.16732,0,0,1,.17481.1748v1.98829a.17284.17284,0,0,1-.04883.12207.16587.16587,0,0,1-.126.05273h-.875A.1849.1849,0,0,1,35.2488,18.4123Z"/><path class="b" d="M37.14528,20.06758a.16936.16936,0,0,1-.05175-.12207V19.343a.16862.16862,0,0,1,.05175-.126.17686.17686,0,0,1,.123-.04883h1.75684V17.87324a.69917.69917,0,0,0-.791-.791h-.89551a.16292.16292,0,0,1-.126-.05273.18072.18072,0,0,1-.04981-.12891V16.298a.16582.16582,0,0,1,.05274-.126.17681.17681,0,0,1,.123-.04883h.93067a2.28139,2.28139,0,0,1,1.48047.41309,1.63631,1.63631,0,0,1,.5,1.33691v1.29492h.24511a.16883.16883,0,0,1,.17579.17481v.60254a.17135.17135,0,0,1-.04981.12207.163.163,0,0,1-.126.05273H37.26833A.16868.16868,0,0,1,37.14528,20.06758Z"/><path class="b" d="M23.2195,30.07148a.17.17,0,0,1-.04882-.126V27.87324a.70208.70208,0,0,0-.791-.79785H20.783a.1842.1842,0,0,1-.12891-.04883.16586.16586,0,0,1-.05273-.126V26.298a.16585.16585,0,0,1,.05273-.126.1842.1842,0,0,1,.12891-.04883h1.63086A2.14971,2.14971,0,0,1,23.867,26.55a1.68135,1.68135,0,0,1,.48633,1.33008v2.06543a.16585.16585,0,0,1-.05273.126.1842.1842,0,0,1-.12891.04883h-.82617A.17073.17073,0,0,1,23.2195,30.07148Zm-2.56543,0a.16585.16585,0,0,1-.05273-.126V27.90156a.163.163,0,0,1,.05273-.126.18.18,0,0,1,.12891-.04882h.82617a.1673.1673,0,0,1,.17481.1748v2.04395a.17039.17039,0,0,1-.04883.12207.163.163,0,0,1-.126.05273H20.783A.1842.1842,0,0,1,20.65407,30.07148Z"/><path class="b" d="M28.25954,26.17207a.16994.16994,0,0,1,.04883.126v.60254a.17032.17032,0,0,1-.04883.12207.16293.16293,0,0,1-.126.05274H27.8113a1.08422,1.08422,0,0,0-.12891.35644,2.51049,2.51049,0,0,0-.04589.49707V29.966a.12891.12891,0,0,1-.06641.1084.23231.23231,0,0,1-.13672.0459H26.615a.14458.14458,0,0,1-.1543-.1543V27.85273a1.51607,1.51607,0,0,1,.13965-.77734h-1.5957a.18033.18033,0,0,1-.1748-.17481V26.298a.16582.16582,0,0,1,.05273-.126.17282.17282,0,0,1,.12207-.04883h3.12891A.17071.17071,0,0,1,28.25954,26.17207Z"/><path class="b" d="M28.9695,28.4123a.163.163,0,0,1-.05273-.126V26.298a.16585.16585,0,0,1,.05273-.126.18491.18491,0,0,1,.12989-.04883h.875a.16732.16732,0,0,1,.1748.1748v1.98829a.17284.17284,0,0,1-.04883.12207.16585.16585,0,0,1-.126.05273h-.875A.18491.18491,0,0,1,28.9695,28.4123Z"/><path class="b" d="M30.99978,30.07148a.16582.16582,0,0,1-.05274-.126V26.298a.16582.16582,0,0,1,.05274-.126.18416.18416,0,0,1,.1289-.04883H32.781a2.20673,2.20673,0,0,1,1.46679.40918,1.70162,1.70162,0,0,1,.47168,1.34766v2.06543a.17038.17038,0,0,1-.04882.12207.163.163,0,0,1-.126.05273h-.82617a.1842.1842,0,0,1-.12891-.04883.16582.16582,0,0,1-.05273-.126V27.87324a.70208.70208,0,0,0-.791-.79785h-.61621v2.87012a.17039.17039,0,0,1-.04883.12207.163.163,0,0,1-.126.05273h-.82618A.18416.18416,0,0,1,30.99978,30.07148Z"/><path class="b" d="M35.53591,28.4123a.16292.16292,0,0,1-.05273-.126V26.298a.16582.16582,0,0,1,.05273-.126.18489.18489,0,0,1,.12988-.04883h.875a.16732.16732,0,0,1,.17481.1748v1.98829a.17284.17284,0,0,1-.04883.12207.16587.16587,0,0,1-.126.05273h-.875A.18489.18489,0,0,1,35.53591,28.4123Z"/><path class="b" d="M40.18728,26.56074a1.905,1.905,0,0,1,.39941,1.31934,2.06026,2.06026,0,0,1-.52539,1.45605,2.78861,2.78861,0,0,1-1.31641.791l-.28613.084a.13529.13529,0,0,1-.12988-.04883.198.198,0,0,1-.05957-.13965v-.707a.203.203,0,0,1,.04883-.12988.3634.3634,0,0,1,.126-.09473l.22461-.09082a1.13142,1.13142,0,0,0,.50684-.374,1.17177,1.17177,0,0,0,.18555-.71094.94517.94517,0,0,0-.15333-.61621.74947.74947,0,0,0-.57421-.1748H38.451l-.9375-.00684a.16732.16732,0,0,1-.17481-.1748V25.32539a.1656.1656,0,0,1,.05176-.126.17688.17688,0,0,1,.123-.04883h.75586a.16732.16732,0,0,1,.1748.17481v.79785h.43457A1.69687,1.69687,0,0,1,40.18728,26.56074Z"/><path class="b" d="M20.7947,36.54023a1.61648,1.61648,0,0,1,.48633,1.29785v2.10743a.17453.17453,0,0,1-.04883.12207.16587.16587,0,0,1-.126.05273h-.82617a.18487.18487,0,0,1-.12988-.04883.16582.16582,0,0,1-.05274-.126V37.87324a.70177.70177,0,0,0-.79-.79785h-.45507a4.21265,4.21265,0,0,0-.10547,1.0293l.05566,1.84082a.16857.16857,0,0,1-.05176.126.18487.18487,0,0,1-.12988.04883l-1.48437-.00684a.18422.18422,0,0,1-.12891-.04882.16585.16585,0,0,1-.05273-.126V39.385a.16585.16585,0,0,1,.05273-.126.18422.18422,0,0,1,.12891-.04883h.56738V38.11152a3.73728,3.73728,0,0,1,.10547-1.03613h-.41309a.18487.18487,0,0,1-.12988-.04883.16583.16583,0,0,1-.05274-.126V36.298a.16582.16582,0,0,1,.05274-.126.18487.18487,0,0,1,.12988-.04883h1.95313A2.16857,2.16857,0,0,1,20.7947,36.54023Z"/><path class="b" d="M25.68435,36.17207a.17389.17389,0,0,1,.04883.126v2.07227a1.52032,1.52032,0,0,1-.4834,1.15137,2.56849,2.56849,0,0,1-1.35742.6123l-1.792.37793a.15927.15927,0,0,1-.13672-.03418.15629.15629,0,0,1-.05957-.126v-.60938a.1823.1823,0,0,1,.04493-.123.20829.20829,0,0,1,.11621-.0664l.77636-.18848-.82519-2.96094a.86445.86445,0,0,1-.03516-.14062.13321.13321,0,0,1,.042-.09766.13167.13167,0,0,1,.09766-.042H23.031a.17023.17023,0,0,1,.10449.03125.157.157,0,0,1,.05664.07422l.7002,2.8623a.96043.96043,0,0,0,.51757-.3955,1.372,1.372,0,0,0,.13965-.67481V36.298a.16883.16883,0,0,1,.17578-.1748h.833A.17389.17389,0,0,1,25.68435,36.17207Z"/><path class="b" d="M26.54177,38.4123a.16293.16293,0,0,1-.05274-.126V36.298a.16582.16582,0,0,1,.05274-.126.18489.18489,0,0,1,.12988-.04883h.875a.16732.16732,0,0,1,.17481.1748v1.98829a.17284.17284,0,0,1-.04883.12207.16587.16587,0,0,1-.126.05273h-.875A.18489.18489,0,0,1,26.54177,38.4123Z"/><path class="b" d="M28.43825,40.06758a.16932.16932,0,0,1-.05175-.12207V39.343a.16858.16858,0,0,1,.05175-.126.17686.17686,0,0,1,.123-.04883h1.75684V37.87324a.69917.69917,0,0,0-.791-.791h-.89551a.16292.16292,0,0,1-.126-.05273.18072.18072,0,0,1-.04981-.12891V36.298a.16582.16582,0,0,1,.05274-.126.17681.17681,0,0,1,.123-.04883h.93067a2.28139,2.28139,0,0,1,1.48047.41309,1.63631,1.63631,0,0,1,.5,1.33691v1.29492h.24511a.16881.16881,0,0,1,.17578.17481v.60254a.17134.17134,0,0,1-.0498.12207.163.163,0,0,1-.126.05273H28.5613A.16868.16868,0,0,1,28.43825,40.06758Z"/><path class="b" d="M34.30056,40.1623a.20316.20316,0,0,1-.05664-.13965v-.707a.21292.21292,0,0,1,.0498-.13379.26991.26991,0,0,1,.126-.09082l.2168-.09082a1.029,1.029,0,0,0,.70019-1.085.9254.9254,0,0,0-.1582-.61621.75862.75862,0,0,0-.57715-.1748H32.739a.18009.18009,0,0,1-.18164-.18164v-.65137a.15361.15361,0,0,1,.05567-.11914.18746.18746,0,0,1,.126-.04883h2.10743a1.69685,1.69685,0,0,1,1.30859.4375,1.90017,1.90017,0,0,1,.39941,1.31934,2.05592,2.05592,0,0,1-.52539,1.456,2.78552,2.78552,0,0,1-1.31543.791l-.28711.084A.12691.12691,0,0,1,34.30056,40.1623Zm-1.69043,1.2461a.16586.16586,0,0,1-.05274-.126V37.90156a.163.163,0,0,1,.05274-.126.17993.17993,0,0,1,.1289-.04882h.79786a.16881.16881,0,0,1,.17578.1748v3.38086a.16881.16881,0,0,1-.17578.1748H32.739A.18419.18419,0,0,1,32.61013,41.4084Z"/><path class="b" d="M37.14528,40.06758a.16936.16936,0,0,1-.05175-.12207V39.343a.16862.16862,0,0,1,.05175-.126.17686.17686,0,0,1,.123-.04883h1.75684V37.87324a.69917.69917,0,0,0-.791-.791h-.89551a.16292.16292,0,0,1-.126-.05273.18072.18072,0,0,1-.04981-.12891V36.298a.16582.16582,0,0,1,.05274-.126.17681.17681,0,0,1,.123-.04883h.93067a2.28139,2.28139,0,0,1,1.48047.41309,1.63631,1.63631,0,0,1,.5,1.33691v1.29492h.24511a.16883.16883,0,0,1,.17579.17481v.60254a.17135.17135,0,0,1-.04981.12207.163.163,0,0,1-.126.05273H37.26833A.16868.16868,0,0,1,37.14528,40.06758Z"/><path class="b" d="M32.28786,50.07148a.16585.16585,0,0,1-.05273-.126V47.87324a.70207.70207,0,0,0-.791-.79785H30.38064a.17852.17852,0,0,1-.17481-.17481V46.298a.16857.16857,0,0,1,.05176-.126.17684.17684,0,0,1,.123-.04883h1.10547a2.23215,2.23215,0,0,1,1.45312.39941,1.61253,1.61253,0,0,1,.47949,1.3086v2.11426a.17453.17453,0,0,1-.04883.12207.16585.16585,0,0,1-.126.05273h-.82617A.18491.18491,0,0,1,32.28786,50.07148Z"/><path class="b" d="M34.26247,50.07148a.16585.16585,0,0,1-.05273-.126V46.298a.16585.16585,0,0,1,.05273-.126.1842.1842,0,0,1,.12891-.04883h.875a.1673.1673,0,0,1,.1748.1748v3.64747a.17038.17038,0,0,1-.04882.12207.163.163,0,0,1-.126.05273h-.875A.1842.1842,0,0,1,34.26247,50.07148Z"/><path class="b" d="M39.98806,46.54023a1.61648,1.61648,0,0,1,.48633,1.29785v2.10743a.17458.17458,0,0,1-.04883.12207.16587.16587,0,0,1-.126.05273h-.82617a.18487.18487,0,0,1-.12988-.04883.16582.16582,0,0,1-.05274-.126V47.87324a.70177.70177,0,0,0-.79-.79785h-.45507a4.21265,4.21265,0,0,0-.10547,1.0293l.05566,1.84082a.16857.16857,0,0,1-.05176.126.18487.18487,0,0,1-.12988.04883l-1.48437-.00684a.18422.18422,0,0,1-.12891-.04882.16586.16586,0,0,1-.05274-.126V49.385a.16586.16586,0,0,1,.05274-.126.18422.18422,0,0,1,.12891-.04883h.56738V48.11152a3.73728,3.73728,0,0,1,.10547-1.03613h-.41309a.18487.18487,0,0,1-.12988-.04883.16583.16583,0,0,1-.05274-.126V46.298a.16582.16582,0,0,1,.05274-.126.18487.18487,0,0,1,.12988-.04883h1.95313A2.16857,2.16857,0,0,1,39.98806,46.54023Z"/></svg>