<svg xmlns="http://www.w3.org/2000/svg" viewBox="0 0 45.40564 60.28612"><defs><style>.a{fill:#d2d2d2;}.b{fill:none;stroke:#b6b9bb;stroke-linecap:round;stroke-linejoin:round;}</style></defs><rect class="a" width="45.40564" height="60.28612"/><line class="b" x1="23.8161" y1="44.86083" x2="40.9851" y2="44.86083"/><line class="b" x1="14.58663" y1="42.79202" x2="40.9851" y2="42.79202"/><line class="b" x1="10.98086" y1="40.81982" x2="40.9851" y2="40.81982"/><line class="b" x1="7.61843" y1="51.50476" x2="40.9851" y2="51.50476"/><line class="b" x1="5.08646" y1="49.53256" x2="40.9851" y2="49.53256"/><line class="b" x1="5.08646" y1="53.68313" x2="40.9851" y2="53.68313"/><line class="b" x1="17.25603" y1="38.84762" x2="40.9851" y2="38.84762"/><path d="M13.67244,7.136a2.3135,2.3135,0,0,1,.69434,1.85547v3.00976a.25078.25078,0,0,1-.06934.17481.23792.23792,0,0,1-.18066.07519H12.93709a.25907.25907,0,0,1-.18457-.07031.231.231,0,0,1-.07519-.17969v-2.96a1.00316,1.00316,0,0,0-1.12989-1.13965h-.65039a6.07361,6.07361,0,0,0-.14941,1.46973l.0791,2.62988a.23356.23356,0,0,1-.07422.17969.26305.26305,0,0,1-.18555.07031l-2.12011-.00976a.259.259,0,0,1-.18457-.07032.23576.23576,0,0,1-.0752-.17968v-.79a.23791.23791,0,0,1,.0752-.18067.26251.26251,0,0,1,.18457-.06933H9.2574V9.38115a5.38982,5.38982,0,0,1,.14942-1.47949H8.817a.25907.25907,0,0,1-.18457-.07031.23582.23582,0,0,1-.07519-.17969V6.79131a.23436.23436,0,0,1,.07519-.17969A.25907.25907,0,0,1,8.817,6.54131h2.79A3.10605,3.10605,0,0,1,13.67244,7.136Z"/><path d="M20.5367,7.15166a2.41369,2.41369,0,0,1,.63965,1.83008v3.01953a.25078.25078,0,0,1-.06934.17481.23644.23644,0,0,1-.18066.07519H18.19686a.257.257,0,0,1-.25-.25v-.86035a.23582.23582,0,0,1,.07519-.17969.24751.24751,0,0,1,.17481-.07031h1.29V9.06084a1.20566,1.20566,0,0,0-.25-.80957.819.819,0,0,0-.65039-.29h-.7793l-.85059,4.03028a.30147.30147,0,0,1-.08007.18457.23582.23582,0,0,1-.17969.07519H15.54647a.25115.25115,0,0,1-.18457-.07519.19555.19555,0,0,1-.05469-.18457L16.2867,7.971h-.66015a.23241.23241,0,0,1-.17969-.0752.259.259,0,0,1-.07031-.18457V6.79131a.23436.23436,0,0,1,.07519-.17969.24751.24751,0,0,1,.17481-.07031h3.21A2.35957,2.35957,0,0,1,20.5367,7.15166Z"/><path d="M22.33162,9.81084a.23434.23434,0,0,1-.07519-.17969V6.79131a.23436.23436,0,0,1,.07519-.17969.25907.25907,0,0,1,.18457-.07031h1.25a.23924.23924,0,0,1,.25.25V9.63115a.25077.25077,0,0,1-.06933.17481.23451.23451,0,0,1-.18067.07519h-1.25A.259.259,0,0,1,22.33162,9.81084Z"/><path d="M31.59725,6.61162a.2444.2444,0,0,1,.06933.17969V9.41143a2.93846,2.93846,0,0,1-.39941,1.54492,2.71407,2.71407,0,0,1-1.08984,1.02539,3.1815,3.1815,0,0,1-1.53028.34961h-.96a3.00827,3.00827,0,0,1-1.40039-.31055,2.21521,2.21521,0,0,1-.915-.83984,2.24472,2.24472,0,0,1-.31445-1.16992V6.79131a.231.231,0,0,1,.07519-.17969.25907.25907,0,0,1,.18457-.07031h1.04981a.23926.23926,0,0,1,.25.25l.00977,2.40039a.92618.92618,0,0,0,.76074-.415A2.04483,2.04483,0,0,0,27.607,7.73174v-.9209a.26422.26422,0,0,1,.0752-.19433.25114.25114,0,0,1,.18457-.0752h1.04a.23135.23135,0,0,1,.1748.08008.26476.26476,0,0,1,.0752.18945v.94043A2.60068,2.60068,0,0,1,28.567,9.55108a2.47909,2.47909,0,0,1-1.66992.7705,1.29838,1.29838,0,0,0,.50489.48926,1.4295,1.4295,0,0,0,.69531.1709h.22949a1.98167,1.98167,0,0,0,.91992-.21094,1.588,1.588,0,0,0,.64063-.5791,1.54112,1.54112,0,0,0,.22949-.83008V6.79131a.24069.24069,0,0,1,.25-.25h1.0498A.2451.2451,0,0,1,31.59725,6.61162Z"/><path d="M35.482,12.181a.23436.23436,0,0,1-.07519-.17969v-2.96a1.00315,1.00315,0,0,0-1.12988-1.13965H32.7574a.24264.24264,0,0,1-.17578-.07519.23951.23951,0,0,1-.07422-.17481V6.79131a.2336.2336,0,0,1,.07422-.17969.24977.24977,0,0,1,.17578-.07031h1.58008a3.19018,3.19018,0,0,1,2.07422.57031,2.30213,2.30213,0,0,1,.68555,1.87012v3.01953a.24751.24751,0,0,1-.07031.17481.23582.23582,0,0,1-.17969.07519H35.66658A.25907.25907,0,0,1,35.482,12.181Z"/><path d="M14.68221,17.136a2.3135,2.3135,0,0,1,.69434,1.85547v3.00976a.25078.25078,0,0,1-.06934.17481.23793.23793,0,0,1-.18066.07519H13.94686a.25906.25906,0,0,1-.18457-.07031.231.231,0,0,1-.0752-.17969v-2.96a1.00315,1.00315,0,0,0-1.12988-1.13965h-.65039a6.0736,6.0736,0,0,0-.14942,1.46973l.07911,2.62988a.2336.2336,0,0,1-.07422.17969.26307.26307,0,0,1-.18555.07031l-2.12012-.00976a.259.259,0,0,1-.18457-.07032.23579.23579,0,0,1-.07519-.17968v-.79a.23794.23794,0,0,1,.07519-.18067.26253.26253,0,0,1,.18457-.06933h.81055V19.38115a5.38984,5.38984,0,0,1,.14941-1.47949H9.82674a.25906.25906,0,0,1-.18457-.07031.23583.23583,0,0,1-.0752-.17969v-.86035a.23436.23436,0,0,1,.0752-.17969.25906.25906,0,0,1,.18457-.07031h2.79A3.10607,3.10607,0,0,1,14.68221,17.136Z"/><path d="M20.20662,17.16631a2.719,2.719,0,0,1,.57032,1.88477,2.94085,2.94085,0,0,1-.75,2.08007A3.9788,3.9788,0,0,1,18.14608,22.261l-.40918.12011a.19238.19238,0,0,1-.18555-.07031.28259.28259,0,0,1-.085-.19922V21.10088a.28369.28369,0,0,1,.07031-.18457.48474.48474,0,0,1,.17969-.13477l.32031-.12988a1.61585,1.61585,0,0,0,.72461-.53515,1.673,1.673,0,0,0,.26563-1.01563,1.34707,1.34707,0,0,0-.22071-.87988,1.06747,1.06747,0,0,0-.81933-.25h-.26075l-1.33984-.00977a.24069.24069,0,0,1-.25-.25V15.40166a.23789.23789,0,0,1,.0752-.18066.25074.25074,0,0,1,.1748-.06934h1.08008a.23926.23926,0,0,1,.25.25v1.13965h.62012A2.42712,2.42712,0,0,1,20.20662,17.16631Z"/><path d="M21.82186,22.181a.23433.23433,0,0,1-.0752-.17969v-5.21a.23433.23433,0,0,1,.0752-.17969.25906.25906,0,0,1,.18457-.07031h1.25a.23926.23926,0,0,1,.25.25v5.21a.25078.25078,0,0,1-.06934.17481.23792.23792,0,0,1-.18066.07519h-1.25A.25906.25906,0,0,1,21.82186,22.181Z"/><path d="M24.70174,22.181a.231.231,0,0,1-.07519-.17969v-.91992a.2552.2552,0,0,1,.25976-.25977h1.4502A1.06484,1.06484,0,0,0,27.5367,19.6917c.00586-.08008.00977-.18066.00977-.30078,0-.11328-.00391-.21-.00977-.29A1.06484,1.06484,0,0,0,26.33651,17.971h-1.4502a.25679.25679,0,0,1-.25976-.25977v-.91992a.231.231,0,0,1,.07519-.17969.25907.25907,0,0,1,.18457-.07031h1.5a2.43,2.43,0,0,1,2.76953,2.57031c.00684.07324.01074.166.01074.2793a3.10623,3.10623,0,0,1-.65527,2.11035,2.68643,2.68643,0,0,1-2.125.75h-1.5A.25907.25907,0,0,1,24.70174,22.181Z"/><path d="M35.39119,17.136a2.3135,2.3135,0,0,1,.69434,1.85547v3.00976a.25078.25078,0,0,1-.06934.17481.23792.23792,0,0,1-.18066.07519H34.65584a.25907.25907,0,0,1-.18457-.07031.231.231,0,0,1-.07519-.17969v-2.96a1.00316,1.00316,0,0,0-1.12989-1.13965H32.6158a6.07361,6.07361,0,0,0-.14941,1.46973l.0791,2.62988a.23356.23356,0,0,1-.07422.17969.26305.26305,0,0,1-.18555.07031l-2.12011-.00976a.259.259,0,0,1-.18457-.07032.23576.23576,0,0,1-.0752-.17968v-.79a.23791.23791,0,0,1,.0752-.18067.26251.26251,0,0,1,.18457-.06933h.81054V19.38115a5.38982,5.38982,0,0,1,.14942-1.47949h-.58985a.25907.25907,0,0,1-.18457-.07031.23582.23582,0,0,1-.07519-.17969v-.86035a.23436.23436,0,0,1,.07519-.17969.25907.25907,0,0,1,.18457-.07031h2.79A3.10605,3.10605,0,0,1,35.39119,17.136Z"/><path d="M19.25252,26.61162a.24441.24441,0,0,1,.06934.17969v.86035a.25078.25078,0,0,1-.06934.17481.23792.23792,0,0,1-.18066.07519h-.46a1.50986,1.50986,0,0,0-.18457.50977,3.52708,3.52708,0,0,0-.06543.71v2.91015a.18487.18487,0,0,1-.09473.1543.33943.33943,0,0,1-.19531.06543H16.90194a.20526.20526,0,0,1-.21973-.21973V29.011a2.14866,2.14866,0,0,1,.20019-1.10938H14.60213a.25705.25705,0,0,1-.25-.25v-.86035a.23433.23433,0,0,1,.0752-.17969.24747.24747,0,0,1,.1748-.07031h4.46973A.24508.24508,0,0,1,19.25252,26.61162Z"/><path d="M20.30721,32.181a.23433.23433,0,0,1-.0752-.17969v-5.21a.23433.23433,0,0,1,.0752-.17969.25906.25906,0,0,1,.18457-.07031h1.25a.23926.23926,0,0,1,.25.25v5.21a.25078.25078,0,0,1-.06934.17481.23792.23792,0,0,1-.18066.07519h-1.25A.25906.25906,0,0,1,20.30721,32.181Z"/><path d="M23.20662,29.81084a.23434.23434,0,0,1-.07519-.17969V26.79131a.23436.23436,0,0,1,.07519-.17969.25907.25907,0,0,1,.18457-.07031h1.25a.23924.23924,0,0,1,.25.25v2.83984a.25077.25077,0,0,1-.06933.17481.23451.23451,0,0,1-.18067.07519h-1.25A.259.259,0,0,1,23.20662,29.81084Z"/><path d="M30.56209,28.886a2.45968,2.45968,0,0,1-.87988.90527l.7793,1.07031a1.018,1.018,0,0,1,.0957.14942.40488.40488,0,0,1,.03516.18066v.80957a.24748.24748,0,0,1-.07032.17481.23579.23579,0,0,1-.17968.07519H26.28182a.257.257,0,0,1-.25-.25v-.88965A.23792.23792,0,0,1,26.107,30.931a.25078.25078,0,0,1,.17481-.06934H28.6324l-2.91015-3.96a.34661.34661,0,0,1-.06055-.16015.18.18,0,0,1,.06543-.14551.23365.23365,0,0,1,.15527-.05469h1.23926a.3675.3675,0,0,1,.32031.17969l1.4004,1.91992a1.57783,1.57783,0,0,0,.46-1.26953v-.56055a.26353.26353,0,0,1,.07422-.19433.25492.25492,0,0,1,.18554-.0752H30.6119a.23135.23135,0,0,1,.1748.08008.26888.26888,0,0,1,.0752.18945v.86035A2.47252,2.47252,0,0,1,30.56209,28.886Z"/></svg>