<svg xmlns="http://www.w3.org/2000/svg" viewBox="0 0 45.40564 60.28612"><defs><style>.a{fill:#efefef;}.b{fill:none;stroke:#d2d6d8;stroke-linecap:round;stroke-linejoin:round;}.c{fill:#1d1b19;}</style></defs><rect class="a" width="45.40564" height="60.28612"/><line class="b" x1="23.8161" y1="44.86083" x2="40.9851" y2="44.86083"/><line class="b" x1="14.58663" y1="42.79202" x2="40.9851" y2="42.79202"/><line class="b" x1="10.98086" y1="40.81982" x2="40.9851" y2="40.81982"/><line class="b" x1="7.61843" y1="51.50476" x2="40.9851" y2="51.50476"/><line class="b" x1="5.08646" y1="49.53256" x2="40.9851" y2="49.53256"/><line class="b" x1="5.08646" y1="53.68313" x2="40.9851" y2="53.68313"/><line class="b" x1="17.25603" y1="38.84762" x2="40.9851" y2="38.84762"/><path class="c" d="M17.50275,7.16513a2.719,2.719,0,0,1,.57031,1.88476,2.94088,2.94088,0,0,1-.75,2.08008,3.97874,3.97874,0,0,1-1.88086,1.12988L15.033,12.38a.1924.1924,0,0,1-.18554-.07031.28259.28259,0,0,1-.085-.19922V11.0997a.28364.28364,0,0,1,.07031-.18457.48455.48455,0,0,1,.17969-.13477l.32031-.12988a1.6158,1.6158,0,0,0,.72461-.53516,1.673,1.673,0,0,0,.26562-1.01562,1.34718,1.34718,0,0,0-.2207-.87989,1.06752,1.06752,0,0,0-.81934-.25h-.26074l-1.33984-.00976a.24069.24069,0,0,1-.25-.25V5.40048a.238.238,0,0,1,.07519-.18067.25082.25082,0,0,1,.17481-.06933h1.08008a.23926.23926,0,0,1,.25.25V6.54013h.62011A2.42711,2.42711,0,0,1,17.50275,7.16513Z"/><path class="c" d="M22.783,12.17978a.24133.24133,0,0,1-.07031-.17969v-2.96a1.00315,1.00315,0,0,0-1.12988-1.13965H19.30255a.25907.25907,0,0,1-.18457-.07031.23582.23582,0,0,1-.07519-.17969V6.79013a.23434.23434,0,0,1,.07519-.17969.259.259,0,0,1,.18457-.07031h2.33008a3.06349,3.06349,0,0,1,2.0752.61035,2.3966,2.3966,0,0,1,.69531,1.89941v2.9502a.23436.23436,0,0,1-.07519.17969.25907.25907,0,0,1-.18457.07031H22.96271A.24286.24286,0,0,1,22.783,12.17978Zm-3.665,0a.23436.23436,0,0,1-.07519-.17969V9.08017a.23434.23434,0,0,1,.07519-.17969.259.259,0,0,1,.18457-.07031h1.18067a.24069.24069,0,0,1,.25.25v2.91992a.24749.24749,0,0,1-.07031.1748.2358.2358,0,0,1-.17969.0752H19.30255A.25907.25907,0,0,1,19.118,12.17978Z"/><path class="c" d="M25.59748,12.17978a.23433.23433,0,0,1-.0752-.17969v-5.21a.23431.23431,0,0,1,.0752-.17969.259.259,0,0,1,.18457-.07031h1.25a.23926.23926,0,0,1,.25.25v5.21a.25076.25076,0,0,1-.06934.1748.23789.23789,0,0,1-.18066.0752h-1.25A.259.259,0,0,1,25.59748,12.17978Z"/><path class="c" d="M31.89826,12.17489a.25494.25494,0,0,1-.18555.0752h-3.21a.25906.25906,0,0,1-.18457-.07031.231.231,0,0,1-.0752-.17969v-.86035a.23241.23241,0,0,1,.0752-.17969.259.259,0,0,1,.18457-.07031h1.66016L30.07306,8.92a1.76107,1.76107,0,0,0-.20019-.83984.68419.68419,0,0,0-.62012-.25977H28.743a.24049.24049,0,0,1-.1748-.07519.23677.23677,0,0,1-.0752-.17481V6.73056A.25975.25975,0,0,1,28.5633,6.545a.23434.23434,0,0,1,.17968-.0752h.54a2.62958,2.62958,0,0,1,1.90528.58985,2.73228,2.73228,0,0,1,.64453,1.89062l.12988,3.04981A.20747.20747,0,0,1,31.89826,12.17489Z"/><path class="c" d="M14.1922,22.17978a.23436.23436,0,0,1-.07519-.17969v-2.96a1.00315,1.00315,0,0,0-1.12988-1.13965H11.46759a.24261.24261,0,0,1-.17578-.0752.23949.23949,0,0,1-.07422-.1748v-.86035a.23358.23358,0,0,1,.07422-.17969.24973.24973,0,0,1,.17578-.07031h1.58008a3.19018,3.19018,0,0,1,2.07422.57031,2.30212,2.30212,0,0,1,.68555,1.87012v3.01953a.24749.24749,0,0,1-.07031.1748.2358.2358,0,0,1-.17969.0752H14.37677A.25907.25907,0,0,1,14.1922,22.17978Z"/><path class="c" d="M17.01252,22.17978a.23433.23433,0,0,1-.0752-.17969v-5.21a.23431.23431,0,0,1,.0752-.17969.259.259,0,0,1,.18457-.07031h1.25a.23926.23926,0,0,1,.25.25v5.21a.25076.25076,0,0,1-.06934.1748.23789.23789,0,0,1-.18066.0752h-1.25A.259.259,0,0,1,17.01252,22.17978Z"/><path class="c" d="M22.367,22.30966a.28987.28987,0,0,1-.08008-.19922V21.0997a.30219.30219,0,0,1,.07031-.18946.38306.38306,0,0,1,.17969-.12988l.30957-.12988a1.46892,1.46892,0,0,0,1-1.55078,1.32228,1.32228,0,0,0-.22461-.87989,1.08723,1.08723,0,0,0-.82519-.25H20.13654a.24743.24743,0,0,1-.18457-.07519.25115.25115,0,0,1-.0752-.18457v-.92969a.21587.21587,0,0,1,.08008-.16992.266.266,0,0,1,.17969-.07031h3.01074a2.42855,2.42855,0,0,1,1.87012.625,2.719,2.719,0,0,1,.56933,1.88476,2.94088,2.94088,0,0,1-.75,2.08008,3.98038,3.98038,0,0,1-1.87988,1.12988L22.5467,22.38A.18094.18094,0,0,1,22.367,22.30966Zm-2.415,1.78027a.23577.23577,0,0,1-.0752-.17969V19.08017a.23431.23431,0,0,1,.0752-.17969.259.259,0,0,1,.18457-.07031h1.14062a.24069.24069,0,0,1,.25.25v4.83007a.24069.24069,0,0,1-.25.25H20.13654A.259.259,0,0,1,19.952,24.08993Z"/><path class="c" d="M26.58185,19.80966a.23436.23436,0,0,1-.07519-.17969V16.79013a.23434.23434,0,0,1,.07519-.17969.259.259,0,0,1,.18457-.07031h1.25a.23924.23924,0,0,1,.25.25V19.63a.25082.25082,0,0,1-.06933.17481.23453.23453,0,0,1-.18067.07519h-1.25A.25907.25907,0,0,1,26.58185,19.80966Z"/><path class="c" d="M29.29181,22.17489a.23949.23949,0,0,1-.07422-.1748v-.86035a.235.235,0,0,1,.07422-.17969.24973.24973,0,0,1,.17578-.07031h2.50977V19.04013a.999.999,0,0,0-1.12988-1.12989H29.5672a.23432.23432,0,0,1-.17968-.07519.259.259,0,0,1-.07032-.18457v-.86035a.23431.23431,0,0,1,.0752-.17969.24744.24744,0,0,1,.1748-.07031h1.33008a3.25763,3.25763,0,0,1,2.11524.58984,2.34092,2.34092,0,0,1,.71484,1.91016v1.84961H34.077a.23926.23926,0,0,1,.25.25v.86035a.25076.25076,0,0,1-.06934.1748.23789.23789,0,0,1-.18066.0752H29.46759A.24261.24261,0,0,1,29.29181,22.17489Z"/><path class="c" d="M18.2713,32.04013a.20573.20573,0,0,1-.05957.14453.194.194,0,0,1-.15039.06543H16.83185a.33662.33662,0,0,1-.27051-.09473c-.05273-.06348-.083-.09863-.08984-.10547l-1.75-2.53027a1.13092,1.13092,0,0,0-.33984.55078,2.61307,2.61307,0,0,0-.08008.66016v1.25a.26422.26422,0,0,1-.0752.19433.25114.25114,0,0,1-.18457.0752h-.98047a.23135.23135,0,0,1-.1748-.08008.26721.26721,0,0,1-.0752-.18945V30.74032a3.50322,3.50322,0,0,1,.23047-1.37988,2.5447,2.5447,0,0,1,.87012-1l-1.02051-1.4707a.211.211,0,0,1-.0498-.13965.225.225,0,0,1,.21-.21h1.17969a.34.34,0,0,1,.21582.05957.78314.78314,0,0,1,.14453.16015L16.202,29.04013a.88292.88292,0,0,0,.35449-.44043,1.91973,1.91973,0,0,0,.0752-.56934v-1.2207a.27312.27312,0,0,1,.07031-.19434.23434.23434,0,0,1,.17969-.07519h1.0498a.24474.24474,0,0,1,.18555.08008.268.268,0,0,1,.07422.18945V28.0704a2.6336,2.6336,0,0,1-.25489,1.165,2.39229,2.39229,0,0,1-.9248.94434l1.21973,1.7207A.23956.23956,0,0,1,18.2713,32.04013Z"/><path class="c" d="M20.63166,28.3204q.019.41016.23925.47949l.28028.10059a.22916.22916,0,0,1,.125.11426.38892.38892,0,0,1,.04492.18554l.00977.50977a.2654.2654,0,0,1-.13477.23535.49391.49391,0,0,1-.3252.06445l-.40918-.05957a1.27036,1.27036,0,0,1-.86035-.55566,2.0008,2.0008,0,0,1-.33984-1.19434V26.79013a.33654.33654,0,0,1,.085-.17969.21339.21339,0,0,1,.165-.07031h2.01953a2.58523,2.58523,0,0,1,1.95508.6748,2.84918,2.84918,0,0,1,.70508,1.89551c.00683.06641.00976.15918.00976.2793a3.15722,3.15722,0,0,1-.63965,2.10547,2.52076,2.52076,0,0,1-2.03027.75488H19.63166a.25978.25978,0,0,1-.18555-.07031.23433.23433,0,0,1-.0752-.17969v-.91992a.25492.25492,0,0,1,.0752-.18555.251.251,0,0,1,.18555-.07422h1.84961a1.19664,1.19664,0,0,0,.835-.29492,1.16667,1.16667,0,0,0,.35547-.835c.00585-.06739.00976-.167.00976-.30078,0-.126-.00391-.22266-.00976-.29a1.13349,1.13349,0,0,0-.34571-.835,1.20989,1.20989,0,0,0-.84472-.29493h-.84961Z"/><path class="c" d="M25.25666,32.17978a.23433.23433,0,0,1-.0752-.17969v-5.21a.23431.23431,0,0,1,.0752-.17969.259.259,0,0,1,.18457-.07031h1.25a.23926.23926,0,0,1,.25.25v5.21a.25076.25076,0,0,1-.06934.1748.23789.23789,0,0,1-.18066.0752h-1.25A.259.259,0,0,1,25.25666,32.17978Z"/><path class="c" d="M30.90607,32.17978a.23436.23436,0,0,1-.07519-.17969v-2.96A1.00316,1.00316,0,0,0,29.701,27.90048H28.18146a.24261.24261,0,0,1-.17578-.0752.23949.23949,0,0,1-.07422-.1748v-.86035a.23358.23358,0,0,1,.07422-.17969.24973.24973,0,0,1,.17578-.07031h1.58008a3.1902,3.1902,0,0,1,2.07422.57031,2.30211,2.30211,0,0,1,.68554,1.87012v3.01953a.24744.24744,0,0,1-.07031.1748.23577.23577,0,0,1-.17969.0752H31.09064A.25907.25907,0,0,1,30.90607,32.17978Z"/></svg>