<svg xmlns="http://www.w3.org/2000/svg" viewBox="0 0 45.40564 60.28612"><defs><style>.a{fill:#d4d4d4;}.b{fill:#020202;}</style></defs><rect class="a" width="45.40564" height="60.28612"/><path class="b" d="M9.622,7.43128c0,.24805.05664.39063.168.42774l.19532.0625a.21649.21649,0,0,1,.11914.2168l.00781.40625a.15428.15428,0,0,1-.08008.12988.22388.22388,0,0,1-.16406.03808l-.36523-.04882a.87947.87947,0,0,1-.60157-.40235A1.58881,1.58881,0,0,1,8.663,7.3473V6.2975a.17.17,0,0,1,.04883-.126.173.173,0,0,1,.127-.04883h1.37891a1.76839,1.76839,0,0,1,1.34961.47559,1.95064,1.95064,0,0,1,.47656,1.32324l.00781,2.8916a.16736.16736,0,0,1-.17578.1748h-.791a.17687.17687,0,0,1-.12305-.04882.17154.17154,0,0,1-.05078-.126V7.91468a.88016.88016,0,0,0-.21485-.59863.794.794,0,0,0-.59765-.206L9.622,7.11683Z"/><path class="b" d="M12.8876,10.07093a.16582.16582,0,0,1-.05273-.126V6.2975a.16582.16582,0,0,1,.05273-.126.1842.1842,0,0,1,.12891-.04883h.875a.173.173,0,0,1,.12695.04883.17.17,0,0,1,.04883.126V9.945a.17039.17039,0,0,1-.04883.12207.16506.16506,0,0,1-.12695.05273h-.875A.1842.1842,0,0,1,12.8876,10.07093Z"/><path class="b" d="M15.32705,9.73109a1.71424,1.71424,0,0,1-.47656-1.29785V6.2975a.16583.16583,0,0,1,.05274-.126.18416.18416,0,0,1,.1289-.04883h1.78516a2.03169,2.03169,0,0,1,1.44336.42676,1.81387,1.81387,0,0,1,.48242,1.26074c.00391.0459.00586.15625.00586.32813q0,.2666-.00586.33691a1.81878,1.81878,0,0,1-.5,1.27734,2.11423,2.11423,0,0,1-1.48828.4375A1.98329,1.98329,0,0,1,15.32705,9.73109Zm2.082-.71387a.80233.80233,0,0,0,.19921-.57715c.00586-.04687.00782-.14746.00782-.30175,0-.14844-.002-.24707-.00782-.294a.81842.81842,0,0,0-.209-.581.863.863,0,0,0-.61719-.18848h-.8457V8.41175a.76067.76067,0,0,0,.209.585.86433.86433,0,0,0,.60157.19239A.97848.97848,0,0,0,17.40909,9.01722Z"/><path class="b" d="M19.454,8.41175a.16293.16293,0,0,1-.05274-.126V6.2975a.16583.16583,0,0,1,.05274-.126.18416.18416,0,0,1,.1289-.04883h.875a.16737.16737,0,0,1,.17578.17481V8.28578a.17715.17715,0,0,1-.04882.12207.168.168,0,0,1-.127.05273h-.875A.18416.18416,0,0,1,19.454,8.41175Z"/><path class="b" d="M25.16885,9.9723a.14665.14665,0,0,1-.041.10156.13857.13857,0,0,1-.10547.0459H24.161a.23819.23819,0,0,1-.18945-.06641c-.03711-.04394-.0586-.06933-.0625-.07324L22.68448,8.20863a.78855.78855,0,0,0-.23829.38476,1.85932,1.85932,0,0,0-.05664.46192v.875a.184.184,0,0,1-.05273.13672.17538.17538,0,0,1-.12891.05273h-.68554a.16449.16449,0,0,1-.123-.05566.18981.18981,0,0,1-.05273-.13379V9.06312a2.456,2.456,0,0,1,.1621-.9668,1.78808,1.78808,0,0,1,.60743-.69922l-.71289-1.02929a.14816.14816,0,0,1-.03516-.09766.15586.15586,0,0,1,.14648-.14746h.82618a.232.232,0,0,1,.15039.042.55057.55057,0,0,1,.10156.11231l1.12695,1.5957a.61609.61609,0,0,0,.24805-.30762,1.342,1.342,0,0,0,.05273-.39941V6.31214a.1981.1981,0,0,1,.04883-.13672.168.168,0,0,1,.127-.05273h.73438a.175.175,0,0,1,.13086.05566.19694.19694,0,0,1,.05078.13379V7.194a1.839,1.839,0,0,1-.17773.81543,1.662,1.662,0,0,1-.64844.66113l.85547,1.2041A.18113.18113,0,0,1,25.16885,9.9723Z"/><path class="b" d="M27.42666,10.9391a.16589.16589,0,0,1-.05273-.126V6.2975a.16586.16586,0,0,1,.05273-.126.1842.1842,0,0,1,.12891-.04883h.82617a.173.173,0,0,1,.127.04883.17.17,0,0,1,.04883.126v4.51562a.17.17,0,0,1-.04883.126.173.173,0,0,1-.127.04882h-.82617A.18423.18423,0,0,1,27.42666,10.9391Z"/><path class="b" d="M30.30752,7.36878c.00782.19141.06446.30372.168.33594l.19531.07031a.16621.16621,0,0,1,.08789.08008.26868.26868,0,0,1,.03125.12989l.00782.35644a.18812.18812,0,0,1-.09571.165.34567.34567,0,0,1-.22656.04492l-.28711-.042a.8878.8878,0,0,1-.60156-.3877,1.39247,1.39247,0,0,1-.23828-.83691V6.2975a.244.244,0,0,1,.05859-.126.15265.15265,0,0,1,.11524-.04883h1.41406a1.80973,1.80973,0,0,1,1.36914.47266,1.998,1.998,0,0,1,.49414,1.32617q.00587.07031.00586.19629a2.21044,2.21044,0,0,1-.44727,1.47363,1.765,1.765,0,0,1-1.42187.52832H29.60635a.1842.1842,0,0,1-.12891-.04883.16585.16585,0,0,1-.05273-.126V9.30042a.18007.18007,0,0,1,.18164-.18164h1.29492a.84014.84014,0,0,0,.58594-.206.81863.81863,0,0,0,.248-.585c.0039-.04688.00586-.11621.00586-.21,0-.08887-.002-.15625-.00586-.20313a.78965.78965,0,0,0-.24219-.584.84236.84236,0,0,0-.5918-.207h-.59375Z"/><path class="b" d="M33.54385,10.07093a.16582.16582,0,0,1-.05273-.126V6.2975a.16582.16582,0,0,1,.05273-.126.1842.1842,0,0,1,.12891-.04883h.875a.173.173,0,0,1,.127.04883.17.17,0,0,1,.04883.126V9.945a.17039.17039,0,0,1-.04883.12207.16506.16506,0,0,1-.127.05273h-.875A.1842.1842,0,0,1,33.54385,10.07093Z"/><path class="b" d="M39.288,9.9723a.14665.14665,0,0,1-.041.10156.13857.13857,0,0,1-.10547.0459h-.86133a.2382.2382,0,0,1-.18945-.06641c-.03711-.04394-.0586-.06933-.0625-.07324L36.80362,8.20863a.78845.78845,0,0,0-.23828.38476,1.85885,1.85885,0,0,0-.05665.46192v.875a.184.184,0,0,1-.05273.13672.17537.17537,0,0,1-.12891.05273h-.68554a.16449.16449,0,0,1-.123-.05566.18981.18981,0,0,1-.05273-.13379V9.06312a2.45585,2.45585,0,0,1,.16211-.9668,1.788,1.788,0,0,1,.60742-.69922l-.71289-1.02929a.14816.14816,0,0,1-.03516-.09766.15586.15586,0,0,1,.14648-.14746h.82618a.232.232,0,0,1,.15039.042.55057.55057,0,0,1,.10156.11231l1.12695,1.5957a.61609.61609,0,0,0,.24805-.30762,1.342,1.342,0,0,0,.05273-.39941V6.31214a.1981.1981,0,0,1,.04883-.13672.168.168,0,0,1,.127-.05273h.73437a.175.175,0,0,1,.13086.05566.19694.19694,0,0,1,.05078.13379V7.194a1.839,1.839,0,0,1-.17773.81543,1.662,1.662,0,0,1-.64844.66113l.85547,1.2041A.18113.18113,0,0,1,39.288,9.9723Z"/><path class="b" d="M22.995,16.53968a1.61648,1.61648,0,0,1,.48633,1.29785V19.945a.17035.17035,0,0,1-.04883.12207.16376.16376,0,0,1-.125.05273h-.82617a.18564.18564,0,0,1-.13086-.04883.16585.16585,0,0,1-.05273-.126V17.87269a.70148.70148,0,0,0-.78907-.79785h-.45507a4.11941,4.11941,0,0,0-.10547,1.0293l.05469,1.84082a.17147.17147,0,0,1-.05079.126.1856.1856,0,0,1-.13086.04883l-1.48437-.00684a.18423.18423,0,0,1-.12891-.04882.16589.16589,0,0,1-.05273-.126v-.55371a.16589.16589,0,0,1,.05273-.126.18424.18424,0,0,1,.12891-.04883h.56836V18.111a3.73728,3.73728,0,0,1,.10547-1.03613h-.41406a.18418.18418,0,0,1-.12891-.04883.16583.16583,0,0,1-.05274-.126V16.2975a.16583.16583,0,0,1,.05274-.126.18418.18418,0,0,1,.12891-.04883h1.95312A2.16857,2.16857,0,0,1,22.995,16.53968Z"/><path class="b" d="M24.3251,20.07093a.16582.16582,0,0,1-.05273-.126V16.2975a.16582.16582,0,0,1,.05273-.126.1842.1842,0,0,1,.12891-.04883h.875a.173.173,0,0,1,.127.04883.17.17,0,0,1,.04883.126V19.945a.17039.17039,0,0,1-.04883.12207.16506.16506,0,0,1-.127.05273h-.875A.1842.1842,0,0,1,24.3251,20.07093Z"/><path class="b" d="M29.8583,16.54945a1.69082,1.69082,0,0,1,.44727,1.28125V19.945a.17039.17039,0,0,1-.04883.12207.16088.16088,0,0,1-.125.05273H28.21963a.16442.16442,0,0,1-.12109-.05273.16652.16652,0,0,1-.05274-.12207v-.60254a.16585.16585,0,0,1,.05274-.126.17221.17221,0,0,1,.12109-.04883h.9043V17.88636a.8368.8368,0,0,0-.17578-.5664.571.571,0,0,0-.45508-.20313h-.54492l-.59571,2.82129a.20573.20573,0,0,1-.05664.12891.16087.16087,0,0,1-.125.05273h-.80468a.17666.17666,0,0,1-.13086-.05273.13517.13517,0,0,1-.03711-.12891l.68554-2.81445H26.4208a.16086.16086,0,0,1-.125-.05274.17993.17993,0,0,1-.04882-.1289V16.2975a.16582.16582,0,0,1,.05273-.126.1689.1689,0,0,1,.12109-.04883h2.248A1.65488,1.65488,0,0,1,29.8583,16.54945Z"/><path class="b" d="M31.11416,18.41175a.163.163,0,0,1-.05273-.126V16.2975a.16586.16586,0,0,1,.05273-.126.18564.18564,0,0,1,.13086-.04883h.875a.16725.16725,0,0,1,.17383.17481v1.98828a.16875.16875,0,0,1-.04883.12207.16376.16376,0,0,1-.125.05273h-.875A.18564.18564,0,0,1,31.11416,18.41175Z"/><path class="b" d="M35.85049,20.067a.18754.18754,0,0,1-.13281.05273h-.875a.16126.16126,0,0,1-.11914-.04883.19368.19368,0,0,1-.05664-.126l-.10547-.51856a1.47018,1.47018,0,0,1-.40625.34375,3.95885,3.95885,0,0,1-.50586.26172,2.48973,2.48973,0,0,1-.47266.14355l-.04882.00782c-.08008,0-.11915-.03809-.11915-.11231v-.75586c0-.08007.04883-.13769.14649-.17578.0332-.01367.13867-.04687.31836-.10058a2.7843,2.7843,0,0,0,.4375-.165,1.39987,1.39987,0,0,0,.46289-.37793l-.13477-.65137a1.48422,1.48422,0,0,0-.21679-.59473.50919.50919,0,0,0-.4336-.1748h-.24414a.16862.16862,0,0,1-.123-.05274A.16649.16649,0,0,1,33.16885,16.9V16.2555a.17836.17836,0,0,1,.04883-.1289.165.165,0,0,1,.127-.05274h.26563a2.16345,2.16345,0,0,1,.95508.17871,1.31448,1.31448,0,0,1,.57031.54883,3.42172,3.42172,0,0,1,.33594,1.00879l.41992,2.13477A.12377.12377,0,0,1,35.85049,20.067Z"/><path class="b" d="M39.33682,16.17152a.17.17,0,0,1,.04883.126V16.9a.17036.17036,0,0,1-.04883.12207.165.165,0,0,1-.127.05274H38.8876a1.13,1.13,0,0,0-.12891.35644,2.59,2.59,0,0,0-.04492.49707v2.03711a.1289.1289,0,0,1-.0664.1084.23453.23453,0,0,1-.13672.0459h-.81836a.14328.14328,0,0,1-.1543-.1543V17.85218a1.52879,1.52879,0,0,1,.13867-.77734H36.081a.16132.16132,0,0,1-.12109-.05274A.16649.16649,0,0,1,35.90713,16.9V16.2975a.16583.16583,0,0,1,.05274-.126.1689.1689,0,0,1,.12109-.04883h3.12891A.173.173,0,0,1,39.33682,16.17152Z"/><path class="b" d="M20.45205,30.07093a.17.17,0,0,1-.04882-.126V27.87269a.70208.70208,0,0,0-.791-.79785H18.01455a.18416.18416,0,0,1-.1289-.04883.16583.16583,0,0,1-.05274-.126V26.2975a.16583.16583,0,0,1,.05274-.126.18416.18416,0,0,1,.1289-.04883h1.63086a2.14976,2.14976,0,0,1,1.45313.42676,1.68135,1.68135,0,0,1,.48633,1.33008V29.945a.16582.16582,0,0,1-.05274.126.18416.18416,0,0,1-.1289.04883h-.82618A.16846.16846,0,0,1,20.45205,30.07093Zm-2.5664,0a.16582.16582,0,0,1-.05274-.126V27.901a.163.163,0,0,1,.05274-.126.17993.17993,0,0,1,.1289-.04882h.82618a.16923.16923,0,0,1,.127.04882.167.167,0,0,1,.04883.126V29.945a.17039.17039,0,0,1-.04883.12207.16506.16506,0,0,1-.127.05273h-.82618A.18416.18416,0,0,1,17.88565,30.07093Z"/><path class="b" d="M22.42276,30.07093a.16582.16582,0,0,1-.05274-.126V26.2975a.16583.16583,0,0,1,.05274-.126.18416.18416,0,0,1,.1289-.04883H24.204a2.20849,2.20849,0,0,1,1.46679.40918,1.70138,1.70138,0,0,1,.47071,1.34766V29.945a.17039.17039,0,0,1-.04883.12207.16088.16088,0,0,1-.125.05273h-.82617a.1842.1842,0,0,1-.12891-.04883.16582.16582,0,0,1-.05273-.126V27.87269a.70208.70208,0,0,0-.791-.79785h-.61719V29.945a.17038.17038,0,0,1-.04882.12207.16088.16088,0,0,1-.125.05273h-.82618A.18416.18416,0,0,1,22.42276,30.07093Z"/><path class="b" d="M26.95791,28.41175a.163.163,0,0,1-.05273-.126V26.2975a.16586.16586,0,0,1,.05273-.126.1842.1842,0,0,1,.12891-.04883h.875a.17617.17617,0,0,1,.127.04883.178.178,0,0,1,.04883.126v1.98828a.17716.17716,0,0,1-.04883.12207.168.168,0,0,1-.127.05273h-.875A.1842.1842,0,0,1,26.95791,28.41175Z"/><path class="b" d="M31.6083,26.56019a1.905,1.905,0,0,1,.40039,1.31934,2.06026,2.06026,0,0,1-.52539,1.45605,2.78863,2.78863,0,0,1-1.3164.791l-.28711.084a.133.133,0,0,1-.12891-.04883.1952.1952,0,0,1-.06054-.13965v-.707a.20855.20855,0,0,1,.04882-.12988.36738.36738,0,0,1,.127-.09473l.22461-.09082a1.13383,1.13383,0,0,0,.50586-.374,1.1651,1.1651,0,0,0,.18554-.71094.95169.95169,0,0,0-.15234-.61621.751.751,0,0,0-.57422-.1748H29.872l-.9375-.00684a.16725.16725,0,0,1-.17383-.1748V25.32484a.16844.16844,0,0,1,.05078-.126.17688.17688,0,0,1,.123-.04883h.75586a.16739.16739,0,0,1,.17578.17481v.79785h.43359A1.69541,1.69541,0,0,1,31.6083,26.56019Z"/><path class="b" d="M37.19424,26.17152a.17.17,0,0,1,.04883.126v1.834a2.05051,2.05051,0,0,1-.2793,1.082,1.90059,1.90059,0,0,1-.76367.7168,2.21029,2.21029,0,0,1-1.07031.24511h-.67188a2.11473,2.11473,0,0,1-.98047-.21679,1.54034,1.54034,0,0,1-.86132-1.40723V26.2975a.16582.16582,0,0,1,.05273-.126.18564.18564,0,0,1,.13086-.04883h.73438a.16724.16724,0,0,1,.17382.17481l.00782,1.68066a.64149.64149,0,0,0,.53125-.291,1.41811,1.41811,0,0,0,.15429-.73144v-.64356a.184.184,0,0,1,.05274-.13672.17535.17535,0,0,1,.1289-.05273h.72852a.16454.16454,0,0,1,.123.05566.18987.18987,0,0,1,.05273.13379v.65723a1.82476,1.82476,0,0,1-.41406,1.26074,1.7374,1.7374,0,0,1-1.168.53906.90255.90255,0,0,0,.35351.34278,1.00731,1.00731,0,0,0,.48633.11914h.16016a1.39819,1.39819,0,0,0,.64453-.14746,1.1062,1.1062,0,0,0,.44727-.40625,1.076,1.076,0,0,0,.16211-.58106V26.2975a.16724.16724,0,0,1,.17382-.17481h.73633A.16846.16846,0,0,1,37.19424,26.17152Z"/><path class="b" d="M38.01846,30.07093a.16582.16582,0,0,1-.05273-.126V26.2975a.16582.16582,0,0,1,.05273-.126.1842.1842,0,0,1,.12891-.04883h.875a.16724.16724,0,0,1,.17382.17481V29.945a.17038.17038,0,0,1-.04882.12207.16088.16088,0,0,1-.125.05273h-.875A.1842.1842,0,0,1,38.01846,30.07093Z"/><path class="b" d="M17.38565,40.07093a.16994.16994,0,0,1-.04883-.126V37.87269a.70207.70207,0,0,0-.791-.79785H14.94815a.1842.1842,0,0,1-.12891-.04883.16586.16586,0,0,1-.05273-.126V36.2975a.16586.16586,0,0,1,.05273-.126.1842.1842,0,0,1,.12891-.04883H16.579a2.14973,2.14973,0,0,1,1.45312.42676,1.68135,1.68135,0,0,1,.48633,1.33008V39.945a.16585.16585,0,0,1-.05273.126.1842.1842,0,0,1-.12891.04883h-.82617A.16846.16846,0,0,1,17.38565,40.07093Zm-2.56641,0a.16585.16585,0,0,1-.05273-.126V37.901a.163.163,0,0,1,.05273-.126.18.18,0,0,1,.12891-.04882h.82617a.16923.16923,0,0,1,.127.04882.167.167,0,0,1,.04883.126v2.044a.17035.17035,0,0,1-.04883.12207.16506.16506,0,0,1-.127.05273h-.82617A.1842.1842,0,0,1,14.81924,40.07093Z"/><path class="b" d="M22.42471,36.17152a.17.17,0,0,1,.04883.126V36.9a.17036.17036,0,0,1-.04883.12207.16086.16086,0,0,1-.125.05274h-.32227a1.0417,1.0417,0,0,0-.1289.35644,2.43582,2.43582,0,0,0-.04688.49707v2.03711a.1289.1289,0,0,1-.0664.1084.23018.23018,0,0,1-.13672.0459h-.81836a.14591.14591,0,0,1-.1543-.1543V37.85218a1.5036,1.5036,0,0,1,.14063-.77734H19.1708a.16862.16862,0,0,1-.123-.05274A.16649.16649,0,0,1,18.995,36.9V36.2975a.16583.16583,0,0,1,.05274-.126.17681.17681,0,0,1,.123-.04883h3.12891A.16846.16846,0,0,1,22.42471,36.17152Z"/><path class="b" d="M23.03018,40.067a.16652.16652,0,0,1-.05274-.12207v-.60254a.16585.16585,0,0,1,.05274-.126.17684.17684,0,0,1,.123-.04883h1.75586V37.87269a.69917.69917,0,0,0-.791-.791h-.89453a.165.165,0,0,1-.127-.05273A.17992.17992,0,0,1,23.04776,36.9V36.2975a.16586.16586,0,0,1,.05273-.126.17684.17684,0,0,1,.123-.04883h.92969a2.27952,2.27952,0,0,1,1.48046.41309,1.63628,1.63628,0,0,1,.5,1.33691v1.29492h.2461a.16846.16846,0,0,1,.125.04883.17153.17153,0,0,1,.05078.126V39.945a.17233.17233,0,0,1-.05078.12207.16088.16088,0,0,1-.125.05273H23.15323A.16867.16867,0,0,1,23.03018,40.067Z"/><path class="b" d="M30.7626,36.17152a.178.178,0,0,1,.04883.126v2.07226a1.52112,1.52112,0,0,1-.48438,1.15137,2.56486,2.56486,0,0,1-1.35742.6123l-1.791.37793a.15847.15847,0,0,1-.13672-.03418.15439.15439,0,0,1-.06055-.126v-.60938a.18731.18731,0,0,1,.04492-.123.21433.21433,0,0,1,.11719-.0664l.77539-.18848L27.09463,36.403a.86387.86387,0,0,1-.03515-.14062.136.136,0,0,1,.041-.09766.13167.13167,0,0,1,.09766-.042h.91015a.17123.17123,0,0,1,.10547.03125.16337.16337,0,0,1,.05664.07422l.69922,2.8623a.96042.96042,0,0,0,.51758-.3955,1.37126,1.37126,0,0,0,.14063-.67481V36.2975a.17.17,0,0,1,.04882-.126.173.173,0,0,1,.127-.04883h.832A.17617.17617,0,0,1,30.7626,36.17152Z"/><path class="b" d="M35.12393,36.54945a1.69838,1.69838,0,0,1,.44726,1.28125V39.945a.17038.17038,0,0,1-.04882.12207.16508.16508,0,0,1-.127.05273H33.48526a.16867.16867,0,0,1-.123-.05273.16651.16651,0,0,1-.05273-.12207v-.60254a.16584.16584,0,0,1,.05273-.126.17684.17684,0,0,1,.123-.04883h.90234V37.88636a.8465.8465,0,0,0-.17383-.5664.57367.57367,0,0,0-.45508-.20313h-.54687l-.5957,2.82129a.21482.21482,0,0,1-.05469.12891.16506.16506,0,0,1-.127.05273h-.80469a.17538.17538,0,0,1-.12891-.05273.13617.13617,0,0,1-.03906-.12891l.68555-2.81445h-.46094a.165.165,0,0,1-.127-.05274.18865.18865,0,0,1-.04883-.1289V36.2975a.16586.16586,0,0,1,.05273-.126.17684.17684,0,0,1,.12305-.04883h2.24609A1.65976,1.65976,0,0,1,35.12393,36.54945Z"/><path class="b" d="M38.94424,36.56019a1.905,1.905,0,0,1,.40039,1.31934,2.06026,2.06026,0,0,1-.52539,1.456,2.78863,2.78863,0,0,1-1.3164.791l-.28711.084a.133.133,0,0,1-.12891-.04883.19517.19517,0,0,1-.06055-.13965v-.707a.20856.20856,0,0,1,.04883-.12988.36725.36725,0,0,1,.127-.09473l.22461-.09082a1.13377,1.13377,0,0,0,.50586-.374,1.1651,1.1651,0,0,0,.18555-.71094.95169.95169,0,0,0-.15234-.61621.751.751,0,0,0-.57422-.1748h-.1836l-.9375-.00684a.16724.16724,0,0,1-.17382-.1748V35.32484a.1684.1684,0,0,1,.05078-.126.17686.17686,0,0,1,.123-.04883h.75586a.16737.16737,0,0,1,.17578.17481v.79785h.4336A1.69541,1.69541,0,0,1,38.94424,36.56019Z"/><path class="b" d="M16.913,46.53968a1.61648,1.61648,0,0,1,.48633,1.29785V49.945a.179.179,0,0,1-.04883.12207.168.168,0,0,1-.127.05273h-.82617a.1842.1842,0,0,1-.12891-.04883.16582.16582,0,0,1-.05273-.126V47.87269a.70208.70208,0,0,0-.791-.79785h-.45508a4.3114,4.3114,0,0,0-.10547,1.0293L14.9208,49.945a.16582.16582,0,0,1-.05273.126.1842.1842,0,0,1-.12891.04883l-1.48437-.00684a.18423.18423,0,0,1-.12891-.04882.16589.16589,0,0,1-.05273-.126v-.55371a.16589.16589,0,0,1,.05273-.126.18424.18424,0,0,1,.12891-.04883h.5664V48.111a3.738,3.738,0,0,1,.10547-1.03613h-.41211a.18564.18564,0,0,1-.13086-.04883A.16586.16586,0,0,1,13.331,46.9V46.2975a.16586.16586,0,0,1,.05273-.126.18564.18564,0,0,1,.13086-.04883h1.95313A2.16857,2.16857,0,0,1,16.913,46.53968Z"/><path class="b" d="M18.21377,48.41175a.163.163,0,0,1-.05273-.126V46.2975a.16586.16586,0,0,1,.05273-.126.18564.18564,0,0,1,.13086-.04883h.875a.16725.16725,0,0,1,.17383.17481v1.98828a.16875.16875,0,0,1-.04883.12207.16376.16376,0,0,1-.125.05273h-.875A.18564.18564,0,0,1,18.21377,48.41175Z"/><path class="b" d="M22.39346,46.17152a.16582.16582,0,0,1,.05273.126V46.9a.1789.1789,0,0,1-.04882.12207.17506.17506,0,0,1-.13282.05274h-.32226a1.0824,1.0824,0,0,0-.13086.35644,2.58917,2.58917,0,0,0-.04492.49707v2.03711a.13344.13344,0,0,1-.0625.1084.21916.21916,0,0,1-.13282.0459h-.82031a.15024.15024,0,0,1-.11133-.042.15435.15435,0,0,1-.041-.11231V47.85218a1.50781,1.50781,0,0,1,.13867-.77734h-.52539A.18041.18041,0,0,1,20.038,46.9V46.2975a.16583.16583,0,0,1,.05274-.126.17564.17564,0,0,1,.12109-.04883h2.05273A.18418.18418,0,0,1,22.39346,46.17152Z"/><path class="b" d="M23.122,50.07093a.16582.16582,0,0,1-.05274-.126v-.64454a.18009.18009,0,0,1,.18164-.18164h1.01563a.74592.74592,0,0,0,.83984-.791c.00391-.05567.00586-.126.00586-.21,0-.0791-.002-.14746-.00586-.20313a.74592.74592,0,0,0-.83984-.791H23.25088a.18009.18009,0,0,1-.18164-.18164V46.2975a.16583.16583,0,0,1,.05274-.126.18416.18416,0,0,1,.1289-.04883h1.04883a1.70052,1.70052,0,0,1,1.93945,1.79883,1.83409,1.83409,0,0,1,.00782.19629,2.1669,2.1669,0,0,1-.459,1.47656,1.87655,1.87655,0,0,1-1.48828.52539H23.25088A.18416.18416,0,0,1,23.122,50.07093Z"/><path class="b" d="M28.80557,50.07093a.16582.16582,0,0,1-.05273-.126V47.87269a.70208.70208,0,0,0-.791-.79785H26.89737a.16864.16864,0,0,1-.123-.05274A.1723.1723,0,0,1,26.72354,46.9V46.2975a.17151.17151,0,0,1,.05078-.126.17684.17684,0,0,1,.123-.04883h1.10547a2.23033,2.23033,0,0,1,1.45312.39941,1.60974,1.60974,0,0,1,.48047,1.3086V49.945a.179.179,0,0,1-.04883.12207.168.168,0,0,1-.127.05273h-.82617A.18418.18418,0,0,1,28.80557,50.07093Z"/><path class="b" d="M34.25479,46.54945a1.69082,1.69082,0,0,1,.44726,1.28125V49.945a.17038.17038,0,0,1-.04882.12207.16088.16088,0,0,1-.125.05273H32.61612a.16444.16444,0,0,1-.1211-.05273.16655.16655,0,0,1-.05273-.12207v-.60254a.16587.16587,0,0,1,.05273-.126.17223.17223,0,0,1,.1211-.04883h.90429V47.88636a.8368.8368,0,0,0-.17578-.5664.571.571,0,0,0-.45508-.20313h-.54492l-.5957,2.82129a.20583.20583,0,0,1-.05664.12891.16088.16088,0,0,1-.125.05273H30.7626a.17669.17669,0,0,1-.13086-.05273.13522.13522,0,0,1-.03711-.12891l.68555-2.81445h-.46289a.16086.16086,0,0,1-.125-.05274.17993.17993,0,0,1-.04883-.1289V46.2975a.16586.16586,0,0,1,.05273-.126.16892.16892,0,0,1,.1211-.04883h2.248A1.6549,1.6549,0,0,1,34.25479,46.54945Z"/><path class="b" d="M38.1044,50.07093a.16994.16994,0,0,1-.04883-.126V47.87269a.70207.70207,0,0,0-.791-.79785h-1.5957a.1842.1842,0,0,1-.12891-.04883.16586.16586,0,0,1-.05273-.126V46.2975a.16586.16586,0,0,1,.05273-.126.1842.1842,0,0,1,.12891-.04883h1.63086a2.14976,2.14976,0,0,1,1.45313.42676,1.68138,1.68138,0,0,1,.48632,1.33008V49.945a.16582.16582,0,0,1-.05273.126.1842.1842,0,0,1-.12891.04883h-.82617A.173.173,0,0,1,38.1044,50.07093Zm-2.56446,0a.16585.16585,0,0,1-.05273-.126V47.901a.163.163,0,0,1,.05273-.126.18.18,0,0,1,.12891-.04882H36.495a.16481.16481,0,0,1,.125.04882.167.167,0,0,1,.04883.126v2.044A.17035.17035,0,0,1,36.62,50.067a.16088.16088,0,0,1-.125.05273h-.82617A.1842.1842,0,0,1,35.53994,50.07093Z"/></svg>