<svg xmlns="http://www.w3.org/2000/svg" viewBox="0 0 45.40564 60.28612"><defs><style>.a{fill:#fff;}.b{fill:none;stroke:#e2e6e8;stroke-linecap:round;stroke-linejoin:round;}.c{fill:#2d2a28;}</style></defs><rect class="a" width="45.40564" height="60.28612"/><line class="b" x1="23.8161" y1="28.49734" x2="40.9851" y2="28.49734"/><line class="b" x1="14.58663" y1="30.56615" x2="40.9851" y2="30.56615"/><line class="b" x1="10.98086" y1="32.53835" x2="40.9851" y2="32.53835"/><line class="b" x1="17.25603" y1="34.51055" x2="40.9851" y2="34.51055"/><line class="b" x1="23.8161" y1="46.26538" x2="40.9851" y2="46.26538"/><line class="b" x1="14.58663" y1="44.19656" x2="40.9851" y2="44.19656"/><line class="b" x1="10.98086" y1="42.22436" x2="40.9851" y2="42.22436"/><line class="b" x1="7.61843" y1="52.90931" x2="40.9851" y2="52.90931"/><line class="b" x1="5.08646" y1="50.93711" x2="40.9851" y2="50.93711"/><line class="b" x1="5.08646" y1="55.08767" x2="40.9851" y2="55.08767"/><line class="b" x1="17.25603" y1="40.25217" x2="40.9851" y2="40.25217"/><path class="c" d="M12.89724,7.13485a2.31349,2.31349,0,0,1,.69434,1.85547v3.00977a.25076.25076,0,0,1-.06934.1748.23789.23789,0,0,1-.18066.0752H12.16189a.25907.25907,0,0,1-.18457-.07031.231.231,0,0,1-.07519-.17969v-2.96a1.00316,1.00316,0,0,0-1.12989-1.13965h-.65039a6.07356,6.07356,0,0,0-.14941,1.46973l.0791,2.62988a.23356.23356,0,0,1-.07422.17969.263.263,0,0,1-.18554.07031l-2.12012-.00977A.25906.25906,0,0,1,7.48709,12.17a.2358.2358,0,0,1-.0752-.17969v-.79a.23789.23789,0,0,1,.0752-.18066.26252.26252,0,0,1,.18457-.06934h.81055V9.38a5.38945,5.38945,0,0,1,.14941-1.47949H8.04178a.259.259,0,0,1-.18457-.07031.2358.2358,0,0,1-.0752-.17969V6.79013a.23431.23431,0,0,1,.0752-.17969.259.259,0,0,1,.18457-.07031h2.79A3.10609,3.10609,0,0,1,12.89724,7.13485Z"/><path class="c" d="M14.79666,12.17978a.23433.23433,0,0,1-.0752-.17969v-5.21a.23431.23431,0,0,1,.0752-.17969.259.259,0,0,1,.18457-.07031h1.25a.23926.23926,0,0,1,.25.25v5.21a.25076.25076,0,0,1-.06934.1748.23789.23789,0,0,1-.18066.0752h-1.25A.25906.25906,0,0,1,14.79666,12.17978Z"/><path class="c" d="M23.00174,12.04013a.20573.20573,0,0,1-.05957.14453.19406.19406,0,0,1-.15039.06543h-1.2295a.3366.3366,0,0,1-.2705-.09473c-.05274-.06348-.083-.09863-.08985-.10547l-1.75-2.53027a1.13092,1.13092,0,0,0-.33984.55078,2.61307,2.61307,0,0,0-.08008.66016v1.25a.26425.26425,0,0,1-.07519.19433.25116.25116,0,0,1-.18458.0752h-.98046A.23137.23137,0,0,1,17.617,12.17a.26724.26724,0,0,1-.07519-.18945V10.74032a3.50324,3.50324,0,0,1,.23046-1.37988,2.54478,2.54478,0,0,1,.87012-1l-1.02051-1.4707a.211.211,0,0,1-.0498-.13965.225.225,0,0,1,.21-.21H18.9617a.34.34,0,0,1,.21582.05957.78314.78314,0,0,1,.14453.16015L20.9324,9.04013a.88292.88292,0,0,0,.35449-.44043,1.91973,1.91973,0,0,0,.0752-.56934V6.80966a.27316.27316,0,0,1,.07031-.19434.23436.23436,0,0,1,.17969-.07519h1.0498a.24473.24473,0,0,1,.18555.08008.268.268,0,0,1,.07422.18945V8.0704a2.63373,2.63373,0,0,1-.25488,1.165,2.39239,2.39239,0,0,1-.92481.94434l1.21973,1.7207A.23957.23957,0,0,1,23.00174,12.04013Z"/><path class="c" d="M26.8367,12.17978a.23433.23433,0,0,1-.0752-.17969v-2.96a1.00315,1.00315,0,0,0-1.12988-1.13965H24.11209a.24261.24261,0,0,1-.17578-.0752.23945.23945,0,0,1-.07422-.1748V6.79013a.23355.23355,0,0,1,.07422-.17969.24973.24973,0,0,1,.17578-.07031h1.58008a3.1902,3.1902,0,0,1,2.07422.57031,2.30211,2.30211,0,0,1,.68554,1.87012v3.01953a.24749.24749,0,0,1-.07031.1748.2358.2358,0,0,1-.17969.0752H27.02127A.25906.25906,0,0,1,26.8367,12.17978Z"/><path class="c" d="M29.657,12.17978a.23436.23436,0,0,1-.07519-.17969v-5.21a.23434.23434,0,0,1,.07519-.17969.259.259,0,0,1,.18457-.07031h1.25a.23926.23926,0,0,1,.25.25v5.21a.25076.25076,0,0,1-.06934.1748.23789.23789,0,0,1-.18066.0752h-1.25A.25907.25907,0,0,1,29.657,12.17978Z"/><path class="c" d="M36.2615,12.17978a.24133.24133,0,0,1-.07031-.17969v-2.96a1.00315,1.00315,0,0,0-1.12988-1.13965H32.781a.25907.25907,0,0,1-.18457-.07031.23582.23582,0,0,1-.07519-.17969V6.79013a.23434.23434,0,0,1,.07519-.17969.259.259,0,0,1,.18457-.07031h2.33008a3.06349,3.06349,0,0,1,2.0752.61035,2.39664,2.39664,0,0,1,.69531,1.89941v2.9502a.23433.23433,0,0,1-.0752.17969.259.259,0,0,1-.18457.07031H36.44119A.24286.24286,0,0,1,36.2615,12.17978Zm-3.665,0a.23436.23436,0,0,1-.07519-.17969V9.08017a.23434.23434,0,0,1,.07519-.17969.259.259,0,0,1,.18457-.07031H33.9617a.24069.24069,0,0,1,.25.25v2.91992a.24749.24749,0,0,1-.07031.1748.2358.2358,0,0,1-.17969.0752H32.781A.25907.25907,0,0,1,32.59646,12.17978Z"/><path class="c" d="M19.59646,17.15048a2.41369,2.41369,0,0,1,.63965,1.83008v3.01953a.25079.25079,0,0,1-.06933.1748.23645.23645,0,0,1-.18067.0752H17.25662a.25707.25707,0,0,1-.25-.25v-.86035a.23577.23577,0,0,1,.0752-.17969.24743.24743,0,0,1,.1748-.07031h1.29V19.05966a1.20566,1.20566,0,0,0-.25-.80957.819.819,0,0,0-.65039-.29H16.867l-.85058,4.03027a.30151.30151,0,0,1-.08008.18457.2358.2358,0,0,1-.17969.0752H14.60623a.25114.25114,0,0,1-.18457-.0752.19555.19555,0,0,1-.05469-.18457l.97949-4.02051h-.66015a.23242.23242,0,0,1-.17969-.07519.259.259,0,0,1-.07031-.18457v-.91992a.23434.23434,0,0,1,.07519-.17969.24747.24747,0,0,1,.17481-.07031h3.21A2.35951,2.35951,0,0,1,19.59646,17.15048Z"/><path class="c" d="M21.032,17.67a.19963.19963,0,0,1-.05566-.13965.28839.28839,0,0,1,.0205-.11035l.76954-1.99023a.62625.62625,0,0,1,.1455-.20508.34264.34264,0,0,1,.23438-.07422h.73047a.17592.17592,0,0,1,.14453.06933.2102.2102,0,0,1,.04492.16016l-.30957,2a.52144.52144,0,0,1-.12012.25.32006.32006,0,0,1-.25.10059H21.16678A.1746.1746,0,0,1,21.032,17.67Zm2.25977,0a.19964.19964,0,0,1-.05567-.13965.28839.28839,0,0,1,.02051-.11035l.76953-1.99023a.62641.62641,0,0,1,.14551-.20508.34359.34359,0,0,1,.23535-.07422h.72949a.17909.17909,0,0,1,.14551.06933.21852.21852,0,0,1,.04492.16016l-.31054,2a.50446.50446,0,0,1-.12012.25.32008.32008,0,0,1-.25.10059H23.42654A.17458.17458,0,0,1,23.29178,17.67Z"/><path class="c" d="M26.14139,22.17489a.23945.23945,0,0,1-.07422-.1748v-.86035a.235.235,0,0,1,.07422-.17969.24971.24971,0,0,1,.17578-.07031h2.50976V19.04013a.999.999,0,0,0-1.12988-1.12989H26.41678a.23434.23434,0,0,1-.17969-.07519.259.259,0,0,1-.07031-.18457v-.86035a.23434.23434,0,0,1,.07519-.17969.24747.24747,0,0,1,.17481-.07031h1.33007a3.25762,3.25762,0,0,1,2.11524.58984,2.34092,2.34092,0,0,1,.71484,1.91016v1.84961h.34961a.23924.23924,0,0,1,.25.25v.86035a.25079.25079,0,0,1-.06933.1748.23793.23793,0,0,1-.18067.0752H26.31717A.2426.2426,0,0,1,26.14139,22.17489Z"/></svg>