<svg xmlns="http://www.w3.org/2000/svg" viewBox="0 0 45.40564 60.28612"><defs><style>.a{fill:#d2d2d2;}.b{fill:none;stroke:#b6b9bb;stroke-linecap:round;stroke-linejoin:round;}</style></defs><rect class="a" width="45.40564" height="60.28612"/><line class="b" x1="23.8161" y1="44.86083" x2="40.9851" y2="44.86083"/><line class="b" x1="14.58663" y1="42.79202" x2="40.9851" y2="42.79202"/><line class="b" x1="10.98086" y1="40.81982" x2="40.9851" y2="40.81982"/><line class="b" x1="7.61843" y1="51.50476" x2="40.9851" y2="51.50476"/><line class="b" x1="5.08646" y1="49.53256" x2="40.9851" y2="49.53256"/><line class="b" x1="5.08646" y1="53.68313" x2="40.9851" y2="53.68313"/><line class="b" x1="17.25603" y1="38.84762" x2="40.9851" y2="38.84762"/><path d="M17.50243,7.16513a2.719,2.719,0,0,1,.57031,1.88476,2.94088,2.94088,0,0,1-.75,2.08008,3.97874,3.97874,0,0,1-1.88086,1.12988L15.0327,12.38a.1924.1924,0,0,1-.18554-.07031.28259.28259,0,0,1-.085-.19922V11.0997a.28364.28364,0,0,1,.07031-.18457.48455.48455,0,0,1,.17969-.13477l.32031-.12988a1.6158,1.6158,0,0,0,.72461-.53516,1.673,1.673,0,0,0,.26562-1.01562,1.34718,1.34718,0,0,0-.2207-.87989,1.06752,1.06752,0,0,0-.81934-.25H15.022l-1.33984-.00976a.24069.24069,0,0,1-.25-.25V5.40048a.238.238,0,0,1,.07519-.18067.25082.25082,0,0,1,.17481-.06933H14.7622a.23926.23926,0,0,1,.25.25V6.54013h.62011A2.42711,2.42711,0,0,1,17.50243,7.16513Z"/><path d="M22.7827,12.17978a.24133.24133,0,0,1-.07031-.17969v-2.96a1.00315,1.00315,0,0,0-1.12988-1.13965H19.30224a.25908.25908,0,0,1-.18458-.07031.23582.23582,0,0,1-.07519-.17969V6.79013a.23434.23434,0,0,1,.07519-.17969.259.259,0,0,1,.18458-.07031h2.33007a3.06347,3.06347,0,0,1,2.0752.61035,2.3966,2.3966,0,0,1,.69531,1.89941v2.9502a.23436.23436,0,0,1-.07519.17969.25907.25907,0,0,1-.18457.07031H22.96239A.24286.24286,0,0,1,22.7827,12.17978Zm-3.665,0a.23436.23436,0,0,1-.07519-.17969V9.08017a.23434.23434,0,0,1,.07519-.17969.259.259,0,0,1,.18458-.07031H20.4829a.24069.24069,0,0,1,.25.25v2.91992a.24749.24749,0,0,1-.07031.1748.2358.2358,0,0,1-.17969.0752H19.30224A.25908.25908,0,0,1,19.11766,12.17978Z"/><path d="M25.59716,12.17978a.23433.23433,0,0,1-.0752-.17969v-5.21a.23431.23431,0,0,1,.0752-.17969.259.259,0,0,1,.18457-.07031h1.25a.23926.23926,0,0,1,.25.25v5.21a.25076.25076,0,0,1-.06934.1748.23789.23789,0,0,1-.18066.0752h-1.25A.25906.25906,0,0,1,25.59716,12.17978Z"/><path d="M31.89794,12.17489a.25494.25494,0,0,1-.18555.0752h-3.21a.25906.25906,0,0,1-.18457-.07031.231.231,0,0,1-.0752-.17969v-.86035a.23241.23241,0,0,1,.0752-.17969.259.259,0,0,1,.18457-.07031h1.66016L30.07274,8.92a1.761,1.761,0,0,0-.20019-.83984.68418.68418,0,0,0-.62012-.25977h-.50977a.24049.24049,0,0,1-.1748-.07519.23677.23677,0,0,1-.0752-.17481V6.73056A.25975.25975,0,0,1,28.563,6.545a.23434.23434,0,0,1,.17968-.0752h.54a2.62958,2.62958,0,0,1,1.90528.58985,2.73228,2.73228,0,0,1,.64453,1.89062l.12988,3.04981A.20747.20747,0,0,1,31.89794,12.17489Z"/><path d="M16.19677,17.13485a2.31352,2.31352,0,0,1,.69433,1.85547v3.00977a.25079.25079,0,0,1-.06933.1748.23793.23793,0,0,1-.18067.0752H15.46141a.25907.25907,0,0,1-.18457-.07031.231.231,0,0,1-.07519-.17969v-2.96a1.00315,1.00315,0,0,0-1.12988-1.13965h-.65039a6.07354,6.07354,0,0,0-.14942,1.46973l.0791,2.62988a.23356.23356,0,0,1-.07422.17969.263.263,0,0,1-.18554.07031l-2.12012-.00977a.25906.25906,0,0,1-.18457-.07031.23583.23583,0,0,1-.0752-.17969v-.79a.23793.23793,0,0,1,.0752-.18066.26252.26252,0,0,1,.18457-.06934h.81055V19.38a5.38984,5.38984,0,0,1,.14941-1.47949H11.3413a.25906.25906,0,0,1-.18457-.07031.2358.2358,0,0,1-.0752-.17969v-.86035a.23431.23431,0,0,1,.0752-.17969.259.259,0,0,1,.18457-.07031h2.79A3.10614,3.10614,0,0,1,16.19677,17.13485Z"/><path d="M21.72118,17.16513a2.719,2.719,0,0,1,.57031,1.88476,2.94088,2.94088,0,0,1-.75,2.08008,3.97874,3.97874,0,0,1-1.88086,1.12988l-.40918.12012a.1924.1924,0,0,1-.18554-.07031.28259.28259,0,0,1-.085-.19922V21.0997a.28364.28364,0,0,1,.07031-.18457.48455.48455,0,0,1,.17969-.13477l.32031-.12988a1.6158,1.6158,0,0,0,.72461-.53516,1.673,1.673,0,0,0,.26562-1.01562,1.34718,1.34718,0,0,0-.2207-.87989,1.06752,1.06752,0,0,0-.81934-.25h-.26074l-1.33984-.00976a.24069.24069,0,0,1-.25-.25V15.40048a.238.238,0,0,1,.07519-.18067.25082.25082,0,0,1,.17481-.06933H18.981a.23926.23926,0,0,1,.25.25v1.13965h.62011A2.42711,2.42711,0,0,1,21.72118,17.16513Z"/><path d="M23.146,22.17489a.23945.23945,0,0,1-.07422-.1748v-.86035a.235.235,0,0,1,.07422-.17969.24971.24971,0,0,1,.17578-.07031h2.50976V19.04013a.999.999,0,0,0-1.12988-1.12989H23.42138a.23434.23434,0,0,1-.17969-.07519.259.259,0,0,1-.07031-.18457v-.86035a.23434.23434,0,0,1,.07519-.17969.24747.24747,0,0,1,.17481-.07031h1.33007a3.25762,3.25762,0,0,1,2.11524.58984,2.34092,2.34092,0,0,1,.71484,1.91016v1.84961h.34961a.23924.23924,0,0,1,.25.25v.86035a.25079.25079,0,0,1-.06933.1748.23793.23793,0,0,1-.18067.0752H23.32177A.2426.2426,0,0,1,23.146,22.17489Z"/><path d="M31.521,22.30966a.28983.28983,0,0,1-.08008-.19922V21.0997a.30213.30213,0,0,1,.07031-.18946.383.383,0,0,1,.17969-.12988l.30957-.12988a1.46892,1.46892,0,0,0,1-1.55078,1.32228,1.32228,0,0,0-.22461-.87989,1.08726,1.08726,0,0,0-.8252-.25H29.29052a.24741.24741,0,0,1-.18457-.07519.25115.25115,0,0,1-.0752-.18457v-.92969a.21587.21587,0,0,1,.08008-.16992.266.266,0,0,1,.17969-.07031h3.01074a2.42855,2.42855,0,0,1,1.87012.625,2.719,2.719,0,0,1,.56933,1.88476,2.94088,2.94088,0,0,1-.75,2.08008,3.98038,3.98038,0,0,1-1.87988,1.12988l-.41016.12012A.18093.18093,0,0,1,31.521,22.30966Zm-2.415,1.78027a.23577.23577,0,0,1-.0752-.17969V19.08017a.23431.23431,0,0,1,.0752-.17969.259.259,0,0,1,.18457-.07031h1.14062a.24069.24069,0,0,1,.25.25v4.83007a.24069.24069,0,0,1-.25.25H29.29052A.259.259,0,0,1,29.106,24.08993Z"/><path d="M11.352,32.17978a.23436.23436,0,0,1-.0752-.17969v-5.21a.23435.23435,0,0,1,.0752-.17969.259.259,0,0,1,.18457-.07031h2.27051a3.0302,3.0302,0,0,1,2.02441.57519,2.35635,2.35635,0,0,1,.665,1.875v3a.2503.2503,0,0,1-.07422.18457.25492.25492,0,0,1-.18554.0752h-4.7002A.25906.25906,0,0,1,11.352,32.17978Zm3.53516-1.29V29.04013a1.00316,1.00316,0,0,0-1.12989-1.13965h-.96v2.98926Z"/><path d="M17.66161,29.80966a.23436.23436,0,0,1-.0752-.17969V26.79013a.23435.23435,0,0,1,.0752-.17969.259.259,0,0,1,.18457-.07031h1.25a.23926.23926,0,0,1,.25.25V29.63a.25078.25078,0,0,1-.06934.17481.23449.23449,0,0,1-.18066.07519h-1.25A.25906.25906,0,0,1,17.66161,29.80966Z"/><path d="M24.30712,27.16513a2.719,2.719,0,0,1,.57031,1.88476,2.94088,2.94088,0,0,1-.75,2.08008,3.97874,3.97874,0,0,1-1.88086,1.12988l-.40918.12012a.19242.19242,0,0,1-.18555-.07031.28259.28259,0,0,1-.085-.19922V31.0997a.28365.28365,0,0,1,.07032-.18457.48451.48451,0,0,1,.17968-.13477l.32032-.12988a1.6158,1.6158,0,0,0,.72461-.53516,1.673,1.673,0,0,0,.26562-1.01562,1.34718,1.34718,0,0,0-.2207-.87989,1.06753,1.06753,0,0,0-.81934-.25h-.26074l-1.33984-.00976a.24069.24069,0,0,1-.25-.25V25.40048a.238.238,0,0,1,.07519-.18067.25082.25082,0,0,1,.17481-.06933h1.08007a.23924.23924,0,0,1,.25.25v1.13965H22.437A2.42711,2.42711,0,0,1,24.30712,27.16513Z"/><path d="M25.92235,32.17978a.23436.23436,0,0,1-.07519-.17969v-5.21a.23434.23434,0,0,1,.07519-.17969.259.259,0,0,1,.18457-.07031h1.25a.23924.23924,0,0,1,.25.25v5.21a.25075.25075,0,0,1-.06933.1748.23793.23793,0,0,1-.18067.0752h-1.25A.25907.25907,0,0,1,25.92235,32.17978Z"/><path d="M28.86181,32.17978a.23433.23433,0,0,1-.0752-.17969v-5.21a.23431.23431,0,0,1,.0752-.17969.259.259,0,0,1,.18457-.07031h2.36035a3.14472,3.14472,0,0,1,2.09472.585,2.42467,2.42467,0,0,1,.67579,1.9248v2.9502a.24745.24745,0,0,1-.07032.1748.23576.23576,0,0,1-.17968.0752H32.74657a.25907.25907,0,0,1-.18457-.07031.23436.23436,0,0,1-.07519-.17969v-2.96a1.00316,1.00316,0,0,0-1.12989-1.13965H30.477v4.09961a.24749.24749,0,0,1-.07031.1748.2358.2358,0,0,1-.17969.0752H29.04638A.259.259,0,0,1,28.86181,32.17978Z"/></svg>