<svg xmlns="http://www.w3.org/2000/svg" viewBox="0 0 45.40564 60.28612"><defs><style>.a{fill:#fff;}.b{fill:none;stroke:#e2e6e8;stroke-linecap:round;stroke-linejoin:round;}.c{fill:#2d2a28;}</style></defs><rect class="a" width="45.40564" height="60.28612"/><line class="b" x1="23.8161" y1="46.92878" x2="40.9851" y2="46.92878"/><line class="b" x1="7.61843" y1="51.50476" x2="40.9851" y2="51.50476"/><line class="b" x1="5.08646" y1="49.53256" x2="40.9851" y2="49.53256"/><line class="b" x1="5.08646" y1="53.68313" x2="40.9851" y2="53.68313"/><path class="c" d="M24.80026,7.1652A2.71905,2.71905,0,0,1,25.37057,9.05a2.94087,2.94087,0,0,1-.75,2.08007,3.97876,3.97876,0,0,1-1.88086,1.12989l-.40918.12011a.19238.19238,0,0,1-.18554-.07031.28259.28259,0,0,1-.085-.19922V11.09977a.28364.28364,0,0,1,.07031-.18457.48466.48466,0,0,1,.17969-.13477l.32031-.12988a1.6158,1.6158,0,0,0,.72461-.53516,1.67294,1.67294,0,0,0,.26562-1.01562,1.34713,1.34713,0,0,0-.2207-.87988,1.06748,1.06748,0,0,0-.81934-.25h-.26074L20.98,7.96012a.24069.24069,0,0,1-.25-.25V5.40055a.23792.23792,0,0,1,.07519-.18066A.25078.25078,0,0,1,20.98,5.15055H22.06a.23927.23927,0,0,1,.25.25V6.5402h.62011A2.42714,2.42714,0,0,1,24.80026,7.1652Z"/><path class="c" d="M30.08053,12.17985a.24133.24133,0,0,1-.07031-.17969v-2.96a1.00315,1.00315,0,0,0-1.12988-1.13965H26.60007a.259.259,0,0,1-.18457-.07031.2358.2358,0,0,1-.0752-.17969V6.7902a.23433.23433,0,0,1,.0752-.17969.259.259,0,0,1,.18457-.07031h2.33007a3.06347,3.06347,0,0,1,2.0752.61035A2.39661,2.39661,0,0,1,31.70065,9.05v2.95019a.23436.23436,0,0,1-.07519.17969.25907.25907,0,0,1-.18457.07031H30.26022A.24286.24286,0,0,1,30.08053,12.17985Zm-3.665,0a.23433.23433,0,0,1-.0752-.17969V9.08024a.23433.23433,0,0,1,.0752-.17969.259.259,0,0,1,.18457-.07031h1.18066a.24069.24069,0,0,1,.25.25v2.91992a.24751.24751,0,0,1-.07031.17481.23582.23582,0,0,1-.17969.07519H26.60007A.259.259,0,0,1,26.4155,12.17985Z"/><path class="c" d="M32.895,12.17985a.23433.23433,0,0,1-.0752-.17969v-5.21a.23433.23433,0,0,1,.0752-.17969.25906.25906,0,0,1,.18457-.07031h1.25a.23926.23926,0,0,1,.25.25v5.21a.25078.25078,0,0,1-.06934.17481.23792.23792,0,0,1-.18066.07519h-1.25A.25906.25906,0,0,1,32.895,12.17985Z"/><path class="c" d="M39.19577,12.175a.255.255,0,0,1-.18555.07519h-3.21a.25907.25907,0,0,1-.18457-.07031.231.231,0,0,1-.07519-.17969v-.86035a.23243.23243,0,0,1,.07519-.17969.25907.25907,0,0,1,.18457-.07031h1.66016l-.08985-1.96973a1.761,1.761,0,0,0-.20019-.83984.68418.68418,0,0,0-.62012-.25977H36.0405a.24051.24051,0,0,1-.17481-.07519.23676.23676,0,0,1-.07519-.17481V6.73063a.25976.25976,0,0,1,.07031-.18555.23434.23434,0,0,1,.17969-.07519h.54a2.62958,2.62958,0,0,1,1.90528.58984,2.73231,2.73231,0,0,1,.64453,1.89063l.12988,3.0498A.20749.20749,0,0,1,39.19577,12.175Z"/><path class="c" d="M20.51022,17.1652A2.71905,2.71905,0,0,1,21.08053,19.05a2.94087,2.94087,0,0,1-.75,2.08007,3.97876,3.97876,0,0,1-1.88086,1.12989L18.0405,22.38a.19238.19238,0,0,1-.18555-.07031.28259.28259,0,0,1-.085-.19922V21.09977a.28364.28364,0,0,1,.07031-.18457.48474.48474,0,0,1,.17969-.13477l.32031-.12988a1.6158,1.6158,0,0,0,.72461-.53516,1.67294,1.67294,0,0,0,.26562-1.01562,1.34707,1.34707,0,0,0-.2207-.87988,1.06747,1.06747,0,0,0-.81933-.25h-.26075l-1.33984-.00977a.24069.24069,0,0,1-.25-.25V15.40055a.23792.23792,0,0,1,.07519-.18066.25078.25078,0,0,1,.17481-.06934H17.77a.23927.23927,0,0,1,.25.25V16.5402h.62011A2.42713,2.42713,0,0,1,20.51022,17.1652Z"/><path class="c" d="M22.12546,22.17985a.23433.23433,0,0,1-.0752-.17969v-5.21a.23433.23433,0,0,1,.0752-.17969A.259.259,0,0,1,22.31,16.5402h1.25a.23926.23926,0,0,1,.25.25v5.21a.25078.25078,0,0,1-.06934.17481.23792.23792,0,0,1-.18066.07519H22.31A.259.259,0,0,1,22.12546,22.17985Z"/><path class="c" d="M26.30026,18.32047q.01905.41016.23926.4795l.28027.10058a.22913.22913,0,0,1,.125.11426.38882.38882,0,0,1,.04492.18555l.00977.50976a.26538.26538,0,0,1-.13477.23535.494.494,0,0,1-.32519.06446l-.40918-.05957a1.27036,1.27036,0,0,1-.86035-.55567,2.00071,2.00071,0,0,1-.33985-1.19433V16.7902a.33672.33672,0,0,1,.085-.17969.21343.21343,0,0,1,.165-.07031h2.01953a2.58521,2.58521,0,0,1,1.95508.6748,2.8492,2.8492,0,0,1,.70508,1.89551c.00684.06641.00977.15918.00977.2793A3.15722,3.15722,0,0,1,29.23,21.49528a2.52076,2.52076,0,0,1-2.03028.75488H25.30026a.2598.2598,0,0,1-.18555-.07031.23436.23436,0,0,1-.07519-.17969v-.91992a.255.255,0,0,1,.07519-.18555.251.251,0,0,1,.18555-.07422h1.84961a1.19664,1.19664,0,0,0,.835-.29492,1.1666,1.1666,0,0,0,.35547-.835c.00586-.06738.00977-.167.00977-.30078,0-.126-.00391-.22266-.00977-.29a1.13349,1.13349,0,0,0-.3457-.835,1.20993,1.20993,0,0,0-.84473-.29492h-.84961Z"/><path class="c" d="M30.88522,19.80973A.23434.23434,0,0,1,30.81,19.63V16.7902a.23436.23436,0,0,1,.07519-.17969.25907.25907,0,0,1,.18457-.07031h1.25a.23924.23924,0,0,1,.25.25V19.63a.25082.25082,0,0,1-.06933.17481.23453.23453,0,0,1-.18067.07519h-1.25A.259.259,0,0,1,30.88522,19.80973Z"/><path class="c" d="M34.355,21.70036a2.39488,2.39488,0,0,1-.69531-1.83985V16.7902a.23436.23436,0,0,1,.07519-.17969.24751.24751,0,0,1,.17481-.07031h1.04a.25908.25908,0,0,1,.18458.07031.231.231,0,0,1,.07519.17969v3.01953a1.03056,1.03056,0,0,0,.3252.835,1.35871,1.35871,0,0,0,.90527.27539q1.11914,0,1.12988-1.07031a2.24516,2.24516,0,0,0,.00488-.26953c-.0039-.11328-.00488-.2002-.00488-.25977v-.2207a1.80609,1.80609,0,0,0-.19043-.875.57072.57072,0,0,0-.51953-.30469,1.18711,1.18711,0,0,0-.29492.04.94988.94988,0,0,0-.25488.09961.3117.3117,0,0,1-.09082.02051.20829.20829,0,0,1-.1543-.06543.22.22,0,0,1-.06543-.165v-.79a.39165.39165,0,0,1,.19043-.36914,1.88074,1.88074,0,0,1,.96-.19043,1.93459,1.93459,0,0,1,1.5752.5752,2.8271,2.8271,0,0,1,.49414,1.77441v1.05078q-.10987,2.44921-2.7793,2.44922A2.95247,2.95247,0,0,1,34.355,21.70036Z"/><path class="c" d="M14.68014,32.17985a.24133.24133,0,0,1-.07031-.17969v-2.96A1.00315,1.00315,0,0,0,13.48,27.90055H11.19967a.25907.25907,0,0,1-.18457-.07031.23582.23582,0,0,1-.07519-.17969V26.7902a.23436.23436,0,0,1,.07519-.17969.25907.25907,0,0,1,.18457-.07031h2.33008a3.06349,3.06349,0,0,1,2.0752.61035A2.39661,2.39661,0,0,1,16.30026,29.05v2.95019a.23436.23436,0,0,1-.07519.17969.25907.25907,0,0,1-.18457.07031H14.85983A.24286.24286,0,0,1,14.68014,32.17985Zm-3.665,0a.23436.23436,0,0,1-.07519-.17969V29.08024a.23436.23436,0,0,1,.07519-.17969.25907.25907,0,0,1,.18457-.07031h1.18067a.24069.24069,0,0,1,.25.25v2.91992A.24751.24751,0,0,1,12.56,32.175a.23582.23582,0,0,1-.17969.07519H11.19967A.25907.25907,0,0,1,11.0151,32.17985Z"/><path class="c" d="M18.73,28.32047q.019.41016.23926.4795l.28027.10058a.22913.22913,0,0,1,.125.11426.38893.38893,0,0,1,.04492.18555l.00977.50976a.26538.26538,0,0,1-.13477.23535.494.494,0,0,1-.32519.06446L18.56,29.95036a1.27041,1.27041,0,0,1-.86036-.55567,2.00077,2.00077,0,0,1-.33984-1.19433V26.7902a.33672.33672,0,0,1,.085-.17969.21343.21343,0,0,1,.165-.07031h2.01953a2.58523,2.58523,0,0,1,1.95508.6748,2.8492,2.8492,0,0,1,.70508,1.89551c.00683.06641.00976.15918.00976.2793a3.15727,3.15727,0,0,1-.63964,2.10547,2.52076,2.52076,0,0,1-2.03028.75488H17.73a.2598.2598,0,0,1-.18555-.07031.23436.23436,0,0,1-.07519-.17969v-.91992a.255.255,0,0,1,.07519-.18555.251.251,0,0,1,.18555-.07422h1.84961a1.19664,1.19664,0,0,0,.835-.29492,1.1666,1.1666,0,0,0,.35547-.835c.00586-.06738.00976-.167.00976-.30078,0-.126-.0039-.22266-.00976-.29a1.13346,1.13346,0,0,0-.34571-.835,1.20989,1.20989,0,0,0-.84472-.29492H18.73Z"/><path class="c" d="M23.31491,29.80973a.23431.23431,0,0,1-.0752-.17969V26.7902a.23433.23433,0,0,1,.0752-.17969.25906.25906,0,0,1,.18457-.07031h1.25a.23926.23926,0,0,1,.25.25V29.63a.25078.25078,0,0,1-.06934.17481.23449.23449,0,0,1-.18066.07519h-1.25A.259.259,0,0,1,23.31491,29.80973Z"/><path class="c" d="M32.58053,26.61051a.24441.24441,0,0,1,.06934.17969v2.62012a2.93846,2.93846,0,0,1-.39941,1.54492,2.71423,2.71423,0,0,1-1.08985,1.02539,3.18158,3.18158,0,0,1-1.53027.34961h-.96A3.00824,3.00824,0,0,1,27.27,32.01969a2.21515,2.21515,0,0,1-.915-.83984,2.24472,2.24472,0,0,1-.31445-1.16992V26.7902a.231.231,0,0,1,.07519-.17969.25907.25907,0,0,1,.18457-.07031h1.04981a.23926.23926,0,0,1,.25.25l.00976,2.40039a.92618.92618,0,0,0,.76074-.415,2.04472,2.04472,0,0,0,.21973-1.04492v-.9209a.26426.26426,0,0,1,.0752-.19434.25115.25115,0,0,1,.18457-.07519h1.04a.23137.23137,0,0,1,.17481.08008.26475.26475,0,0,1,.07519.18945v.94043A2.60068,2.60068,0,0,1,29.55026,29.55a2.47914,2.47914,0,0,1-1.66992.7705,1.29835,1.29835,0,0,0,.50488.48926,1.42953,1.42953,0,0,0,.69531.1709H29.31a1.98167,1.98167,0,0,0,.91992-.21094,1.588,1.588,0,0,0,.64062-.5791,1.54113,1.54113,0,0,0,.2295-.83008V26.7902a.24069.24069,0,0,1,.25-.25h1.0498A.24508.24508,0,0,1,32.58053,26.61051Z"/><path class="c" d="M33.75534,32.17985a.23433.23433,0,0,1-.0752-.17969v-5.21a.23433.23433,0,0,1,.0752-.17969.25906.25906,0,0,1,.18457-.07031h2.36035a3.14476,3.14476,0,0,1,2.09473.585A2.42471,2.42471,0,0,1,39.07077,29.05v2.95019a.24751.24751,0,0,1-.07031.17481.23582.23582,0,0,1-.17969.07519H37.6401a.25907.25907,0,0,1-.18457-.07031.23436.23436,0,0,1-.07519-.17969v-2.96a1.00315,1.00315,0,0,0-1.12988-1.13965h-.87989v4.09961a.24747.24747,0,0,1-.07031.17481.23579.23579,0,0,1-.17969.07519H33.93991A.25906.25906,0,0,1,33.75534,32.17985Z"/><path class="c" d="M23.12448,42.17985a.23433.23433,0,0,1-.0752-.17969v-5.21a.23433.23433,0,0,1,.0752-.17969.25906.25906,0,0,1,.18457-.07031h2.27051a3.03026,3.03026,0,0,1,2.02441.57519,2.35637,2.35637,0,0,1,.665,1.875v3a.25032.25032,0,0,1-.07422.18458.255.255,0,0,1-.18554.07519h-4.7002A.25906.25906,0,0,1,23.12448,42.17985Zm3.53516-1.29V39.0402a1.00316,1.00316,0,0,0-1.12989-1.13965h-.96v2.98926Z"/><path class="c" d="M33.85983,36.61051a.24441.24441,0,0,1,.06934.17969v.86035a.25078.25078,0,0,1-.06934.17481.23792.23792,0,0,1-.18066.07519h-.46a1.50965,1.50965,0,0,0-.18457.50977,3.52708,3.52708,0,0,0-.06543.71v2.91015a.18487.18487,0,0,1-.09473.1543.33943.33943,0,0,1-.19531.06543H31.50925a.20526.20526,0,0,1-.21973-.21973v-3.0205a2.14856,2.14856,0,0,1,.20019-1.10938H29.20944a.25705.25705,0,0,1-.25-.25V36.7902a.23433.23433,0,0,1,.0752-.17969.24747.24747,0,0,1,.1748-.07031h4.46973A.24508.24508,0,0,1,33.85983,36.61051Z"/><path class="c" d="M38.65964,37.1652A2.71905,2.71905,0,0,1,39.23,39.05,2.94087,2.94087,0,0,1,38.48,41.13a3.97876,3.97876,0,0,1-1.88086,1.12989l-.40918.12011a.19239.19239,0,0,1-.18555-.07031.28259.28259,0,0,1-.085-.19922V41.09977a.28369.28369,0,0,1,.07031-.18457.48474.48474,0,0,1,.17969-.13477l.32031-.12988a1.61574,1.61574,0,0,0,.72461-.53516A1.67294,1.67294,0,0,0,37.48,39.09977a1.34713,1.34713,0,0,0-.2207-.87988,1.06751,1.06751,0,0,0-.81934-.25h-.26074l-1.33985-.00977a.24071.24071,0,0,1-.25-.25V35.40055a.23789.23789,0,0,1,.0752-.18066.25076.25076,0,0,1,.1748-.06934H35.9194a.23926.23926,0,0,1,.25.25V36.5402h.62012A2.42716,2.42716,0,0,1,38.65964,37.1652Z"/></svg>