<svg xmlns="http://www.w3.org/2000/svg" viewBox="0 0 45.40564 60.28612"><defs><style>.a{fill:#fff;}.b{fill:none;stroke:#e2e6e8;stroke-linecap:round;stroke-linejoin:round;}.c{fill:#2d2a28;}</style></defs><rect class="a" width="45.40564" height="60.28612"/><line class="b" x1="23.8161" y1="44.86083" x2="40.9851" y2="44.86083"/><line class="b" x1="14.58663" y1="42.79202" x2="40.9851" y2="42.79202"/><line class="b" x1="10.98086" y1="40.81982" x2="40.9851" y2="40.81982"/><line class="b" x1="7.61843" y1="51.50476" x2="40.9851" y2="51.50476"/><line class="b" x1="5.08646" y1="49.53256" x2="40.9851" y2="49.53256"/><line class="b" x1="5.08646" y1="53.68313" x2="40.9851" y2="53.68313"/><line class="b" x1="17.25603" y1="38.84762" x2="40.9851" y2="38.84762"/><path class="c" d="M14.7583,9.81071a.23436.23436,0,0,1-.07519-.17969V6.79118a.23434.23434,0,0,1,.07519-.17969.259.259,0,0,1,.18457-.07031h1.25a.23924.23924,0,0,1,.25.25V9.631a.25077.25077,0,0,1-.06933.1748.2345.2345,0,0,1-.18067.0752h-1.25A.25907.25907,0,0,1,14.7583,9.81071Z"/><path class="c" d="M21.52393,12.17594a.2712.2712,0,0,1-.19043.0752h-1.25a.23147.23147,0,0,1-.16992-.07032.279.279,0,0,1-.08008-.17968l-.14942-.74024a2.15361,2.15361,0,0,1-.58008.49024,5.5968,5.5968,0,0,1-.72558.375,3.61855,3.61855,0,0,1-.67481.20508l-.07031.00976c-.11328,0-.16992-.05371-.16992-.16016V11.10075c0-.11328.07031-.19629.21-.25.04688-.01953.19824-.06836.45508-.14453a3.90947,3.90947,0,0,0,.625-.23536,1.99022,1.99022,0,0,0,.66016-.54l-.18946-.92968a2.15311,2.15311,0,0,0-.31054-.84961.72839.72839,0,0,0-.62012-.25h-.34961a.25705.25705,0,0,1-.25-.25V6.73161a.26329.26329,0,0,1,.06933-.18555.23793.23793,0,0,1,.18067-.0752h.37988a3.10048,3.10048,0,0,1,1.36524.25489,1.88862,1.88862,0,0,1,.81445.78515,4.90171,4.90171,0,0,1,.48047,1.44043l.59961,3.04981A.17938.17938,0,0,1,21.52393,12.17594Z"/><path class="c" d="M22.51807,12.18082a.23429.23429,0,0,1-.0752-.17968v-5.21a.23431.23431,0,0,1,.0752-.17969.259.259,0,0,1,.18457-.07031h1.25a.23926.23926,0,0,1,.25.25v5.21a.25076.25076,0,0,1-.06934.1748.23789.23789,0,0,1-.18066.0752h-1.25A.259.259,0,0,1,22.51807,12.18082Z"/><path class="c" d="M26.00342,11.69645A2.45712,2.45712,0,0,1,25.32373,9.841V6.79118a.231.231,0,0,1,.0752-.17969.259.259,0,0,1,.18457-.07031h2.5498a2.89214,2.89214,0,0,1,2.06055.61035,2.58387,2.58387,0,0,1,.68945,1.7998c.00684.06641.00977.22364.00977.46973,0,.25391-.00293.41308-.00977.48047a2.59313,2.59313,0,0,1-.71484,1.82422,3.00681,3.00681,0,0,1-2.125.625A2.8374,2.8374,0,0,1,26.00342,11.69645ZM28.978,10.67594a1.13769,1.13769,0,0,0,.28515-.82519c.00684-.06641.01075-.21.01075-.42969,0-.21289-.00391-.35352-.01075-.41992a1.16446,1.16446,0,0,0-.2998-.83008,1.23083,1.23083,0,0,0-.87988-.26953h-1.21V9.81071a1.07547,1.07547,0,0,0,.2998.835,1.2274,1.2274,0,0,0,.86035.27539A1.3935,1.3935,0,0,0,28.978,10.67594Z"/><path class="c" d="M11.8042,17.1359a2.31352,2.31352,0,0,1,.69434,1.85547v3.00977a.25076.25076,0,0,1-.06934.1748.23789.23789,0,0,1-.18066.0752H11.06885a.259.259,0,0,1-.18457-.07032.231.231,0,0,1-.0752-.17968v-2.96A1.00315,1.00315,0,0,0,9.6792,17.90153H9.02881a6.073,6.073,0,0,0-.14941,1.46972l.0791,2.62989a.23356.23356,0,0,1-.07422.17968.263.263,0,0,1-.18555.07032l-2.12012-.00977a.25907.25907,0,0,1-.18457-.07031.23582.23582,0,0,1-.07519-.17969v-.79a.23792.23792,0,0,1,.07519-.18066.26254.26254,0,0,1,.18457-.06934h.81055V19.381a5.38939,5.38939,0,0,1,.14942-1.47949H6.94873a.25907.25907,0,0,1-.18457-.07031.23582.23582,0,0,1-.07519-.17969v-.86035a.23434.23434,0,0,1,.07519-.17969.259.259,0,0,1,.18457-.07031h2.79A3.10612,3.10612,0,0,1,11.8042,17.1359Z"/><path class="c" d="M13.70361,22.18082a.23432.23432,0,0,1-.07519-.17968v-5.21a.23434.23434,0,0,1,.07519-.17969.259.259,0,0,1,.18457-.07031h1.25a.23924.23924,0,0,1,.25.25v5.21a.25075.25075,0,0,1-.06933.1748.23791.23791,0,0,1-.18067.0752h-1.25A.259.259,0,0,1,13.70361,22.18082Z"/><path class="c" d="M20.0044,22.17594a.255.255,0,0,1-.18555.0752h-3.21a.259.259,0,0,1-.18457-.07032.231.231,0,0,1-.0752-.17968v-.86035a.23241.23241,0,0,1,.0752-.17969.259.259,0,0,1,.18457-.07031H18.269l-.08984-1.96973a1.76094,1.76094,0,0,0-.2002-.83984.68417.68417,0,0,0-.62011-.25977h-.50977a.24046.24046,0,0,1-.1748-.0752.23674.23674,0,0,1-.0752-.1748v-.83984a.25978.25978,0,0,1,.07031-.18555.23433.23433,0,0,1,.17969-.0752h.54a2.62955,2.62955,0,0,1,1.90527.58985,2.73226,2.73226,0,0,1,.64454,1.89062l.12988,3.04981A.2075.2075,0,0,1,20.0044,22.17594Z"/><path class="c" d="M21.0835,22.18082a.23429.23429,0,0,1-.0752-.17968v-5.21a.23431.23431,0,0,1,.0752-.17969.259.259,0,0,1,.18457-.07031h2.36035a3.14476,3.14476,0,0,1,2.09473.585,2.4247,2.4247,0,0,1,.67578,1.9248v2.9502a.24745.24745,0,0,1-.07032.1748.23576.23576,0,0,1-.17968.0752H24.96826a.259.259,0,0,1-.18457-.07032.23432.23432,0,0,1-.07519-.17968v-2.96a1.00316,1.00316,0,0,0-1.12989-1.13965h-.87988v4.09961a.24749.24749,0,0,1-.07031.1748.2358.2358,0,0,1-.17969.0752H21.26807A.259.259,0,0,1,21.0835,22.18082Z"/><path class="c" d="M27.41358,22.17594a.23945.23945,0,0,1-.07422-.1748v-.86035a.235.235,0,0,1,.07422-.17969.24971.24971,0,0,1,.17578-.07031h2.50976V19.04118a.999.999,0,0,0-1.12988-1.12989H27.689a.23434.23434,0,0,1-.17969-.07519.259.259,0,0,1-.07031-.18457v-.86035a.23434.23434,0,0,1,.07519-.17969.24747.24747,0,0,1,.17481-.07031H29.019a3.25762,3.25762,0,0,1,2.11524.58984,2.3409,2.3409,0,0,1,.71484,1.91016v1.84961h.34961a.23924.23924,0,0,1,.25.25v.86035a.25079.25079,0,0,1-.06933.1748.23793.23793,0,0,1-.18067.0752H27.58936A.2426.2426,0,0,1,27.41358,22.17594Z"/><path class="c" d="M38.33838,17.15153a2.41369,2.41369,0,0,1,.63965,1.83008v3.01953a.25076.25076,0,0,1-.06934.1748.23642.23642,0,0,1-.18066.0752H35.99854a.25705.25705,0,0,1-.25-.25v-.86035a.23579.23579,0,0,1,.07519-.17969.24747.24747,0,0,1,.17481-.07031h1.29V19.06071a1.20564,1.20564,0,0,0-.25-.80957.819.819,0,0,0-.6504-.29h-.77929l-.85059,4.03027a.3014.3014,0,0,1-.08008.18457.23576.23576,0,0,1-.17968.0752H33.34815a.25112.25112,0,0,1-.18457-.0752.19555.19555,0,0,1-.05469-.18457l.97949-4.02051h-.66016a.2324.2324,0,0,1-.17968-.07519.259.259,0,0,1-.07032-.18457v-.91992a.23431.23431,0,0,1,.0752-.17969.24744.24744,0,0,1,.1748-.07031h3.21A2.35954,2.35954,0,0,1,38.33838,17.15153Z"/></svg>