<svg xmlns="http://www.w3.org/2000/svg" viewBox="0 0 45.40564 60.28612"><defs><style>.a{fill:#d2d2d2;}.b{fill:none;stroke:#b6b9bb;stroke-linecap:round;stroke-linejoin:round;}</style></defs><rect class="a" width="45.40564" height="60.28612"/><line class="b" x1="23.8161" y1="28.49734" x2="40.9851" y2="28.49734"/><line class="b" x1="14.58663" y1="30.56615" x2="40.9851" y2="30.56615"/><line class="b" x1="10.98086" y1="32.53835" x2="40.9851" y2="32.53835"/><line class="b" x1="17.25603" y1="34.51055" x2="40.9851" y2="34.51055"/><line class="b" x1="23.8161" y1="46.26538" x2="40.9851" y2="46.26538"/><line class="b" x1="14.58663" y1="44.19656" x2="40.9851" y2="44.19656"/><line class="b" x1="10.98086" y1="42.22436" x2="40.9851" y2="42.22436"/><line class="b" x1="7.61843" y1="52.90931" x2="40.9851" y2="52.90931"/><line class="b" x1="5.08646" y1="50.93711" x2="40.9851" y2="50.93711"/><line class="b" x1="5.08646" y1="55.08767" x2="40.9851" y2="55.08767"/><line class="b" x1="17.25603" y1="40.25217" x2="40.9851" y2="40.25217"/><path d="M12.89687,7.13485a2.31391,2.31391,0,0,1,.69531,1.85547v3.00977a.24744.24744,0,0,1-.07031.1748.23725.23725,0,0,1-.17969.0752H12.1625a.26142.26142,0,0,1-.18555-.07031.23026.23026,0,0,1-.07422-.17969v-2.96a1.00345,1.00345,0,0,0-1.13086-1.13965h-.65039A6.07476,6.07476,0,0,0,9.973,9.37021l.07813,2.62988a.23026.23026,0,0,1-.07422.17969.26142.26142,0,0,1-.18555.07031l-2.11914-.00977A.26143.26143,0,0,1,7.48671,12.17a.23854.23854,0,0,1-.07421-.17969v-.79a.24068.24068,0,0,1,.07421-.18066.26494.26494,0,0,1,.18555-.06934h.81055V9.38a5.3911,5.3911,0,0,1,.14844-1.47949H8.0414a.25673.25673,0,0,1-.18359-.07031.23323.23323,0,0,1-.07617-.17969V6.79013a.23178.23178,0,0,1,.07617-.17969.25669.25669,0,0,1,.18359-.07031h2.791A3.10324,3.10324,0,0,1,12.89687,7.13485Z"/><path d="M14.79726,12.17978a.23179.23179,0,0,1-.07617-.17969v-5.21a.23178.23178,0,0,1,.07617-.17969.25669.25669,0,0,1,.18359-.07031h1.25a.23782.23782,0,0,1,.25.25v5.21a.25421.25421,0,0,1-.06835.1748.23859.23859,0,0,1-.18165.0752h-1.25A.25673.25673,0,0,1,14.79726,12.17978Z"/><path d="M23.00234,12.04013a.20268.20268,0,0,1-.06055.14453.19263.19263,0,0,1-.15039.06543H21.56289a.34025.34025,0,0,1-.27149-.09473c-.05273-.06348-.082-.09863-.08984-.10547l-1.75-2.53027a1.14548,1.14548,0,0,0-.33985.55078,2.65838,2.65838,0,0,0-.08007.66016v1.25a.26746.26746,0,0,1-.07422.19433.25336.25336,0,0,1-.18555.0752H17.7914a.22791.22791,0,0,1-.17383-.08008.264.264,0,0,1-.07617-.18945V10.74032a3.52106,3.52106,0,0,1,.23047-1.37988,2.548,2.548,0,0,1,.87109-1l-1.02148-1.4707a.2102.2102,0,0,1-.04883-.13965.223.223,0,0,1,.209-.21h1.17968a.34305.34305,0,0,1,.2168.05957.81184.81184,0,0,1,.14453.16015L20.932,9.04013a.88543.88543,0,0,0,.35547-.44043,1.955,1.955,0,0,0,.07421-.56934V6.80966a.27312.27312,0,0,1,.07032-.19434.23727.23727,0,0,1,.17968-.07519H22.6625a.24621.24621,0,0,1,.18554.08008.27227.27227,0,0,1,.07422.18945V8.0704a2.63423,2.63423,0,0,1-.25586,1.165,2.39581,2.39581,0,0,1-.92383.94434l1.21875,1.7207A.24012.24012,0,0,1,23.00234,12.04013Z"/><path d="M26.83632,12.17978a.237.237,0,0,1-.07422-.17969v-2.96a1.00345,1.00345,0,0,0-1.13085-1.13965H24.11171a.25525.25525,0,0,1-.25-.25V6.79013a.237.237,0,0,1,.07422-.17969.25142.25142,0,0,1,.17578-.07031h1.58008a3.18837,3.18837,0,0,1,2.07422.57031,2.30212,2.30212,0,0,1,.68555,1.87012v3.01953a.24749.24749,0,0,1-.07031.1748.23433.23433,0,0,1-.17969.0752H27.02187A.26142.26142,0,0,1,26.83632,12.17978Z"/><path d="M29.65664,12.17978a.237.237,0,0,1-.07422-.17969v-5.21a.237.237,0,0,1,.07422-.17969.26135.26135,0,0,1,.18554-.07031h1.25a.24433.24433,0,0,1,.17969.07031.24127.24127,0,0,1,.07031.17969v5.21a.24744.24744,0,0,1-.07031.1748.23725.23725,0,0,1-.17969.0752h-1.25A.26139.26139,0,0,1,29.65664,12.17978Z"/><path d="M36.2621,12.17978a.24133.24133,0,0,1-.07031-.17969v-2.96a1.00345,1.00345,0,0,0-1.13086-1.13965H32.78164a.26142.26142,0,0,1-.18555-.07031.23851.23851,0,0,1-.07422-.17969V6.79013a.237.237,0,0,1,.07422-.17969.26137.26137,0,0,1,.18555-.07031h2.33007a3.06065,3.06065,0,0,1,2.07422.61035,2.39329,2.39329,0,0,1,.69532,1.89941v2.9502a.237.237,0,0,1-.07422.17969.26142.26142,0,0,1-.18555.07031H36.44179A.24133.24133,0,0,1,36.2621,12.17978Zm-3.666,0a.237.237,0,0,1-.07422-.17969V9.08017a.237.237,0,0,1,.07422-.17969.26137.26137,0,0,1,.18555-.07031h1.17968a.24069.24069,0,0,1,.25.25v2.91992a.24744.24744,0,0,1-.07031.1748.23431.23431,0,0,1-.17969.0752H32.78164A.26142.26142,0,0,1,32.59609,12.17978Z"/><path d="M19.59609,17.15048a2.41032,2.41032,0,0,1,.64062,1.83008v3.01953a.24744.24744,0,0,1-.07031.1748.23431.23431,0,0,1-.17969.0752H17.25625a.25891.25891,0,0,1-.25-.25v-.86035a.2332.2332,0,0,1,.07617-.17969.24354.24354,0,0,1,.17383-.07031h1.291V19.05966a1.2056,1.2056,0,0,0-.25-.80957.82175.82175,0,0,0-.65039-.29h-.7793L16.016,21.99032a.296.296,0,0,1-.08008.18457.23431.23431,0,0,1-.17968.0752h-1.1504a.24894.24894,0,0,1-.18359-.0752.19324.19324,0,0,1-.05469-.18457l.97852-4.02051h-.66016a.23383.23383,0,0,1-.17968-.07519.259.259,0,0,1-.07032-.18457v-.91992a.23178.23178,0,0,1,.07617-.17969.24356.24356,0,0,1,.17383-.07031h3.21094A2.35554,2.35554,0,0,1,19.59609,17.15048Z"/><path d="M21.03164,17.67a.19867.19867,0,0,1-.05469-.13965.2882.2882,0,0,1,.01953-.11035l.76953-1.99023a.64268.64268,0,0,1,.14649-.20508.34261.34261,0,0,1,.23437-.07422h.73047a.17855.17855,0,0,1,.14453.06933.21427.21427,0,0,1,.04492.16016l-.31054,2a.52032.52032,0,0,1-.11915.25.3229.3229,0,0,1-.25.10059H21.1664A.17753.17753,0,0,1,21.03164,17.67Zm2.25976,0a.19867.19867,0,0,1-.05469-.13965.288.288,0,0,1,.01954-.11035l.76953-1.99023a.64267.64267,0,0,1,.14648-.20508.34264.34264,0,0,1,.23438-.07422h.73046a.17856.17856,0,0,1,.14454.06933.21427.21427,0,0,1,.04492.16016l-.31055,2a.50325.50325,0,0,1-.11914.25.32292.32292,0,0,1-.25.10059h-1.2207A.17753.17753,0,0,1,23.2914,17.67Z"/><path d="M26.141,22.17489a.24332.24332,0,0,1-.07422-.1748v-.86035a.23848.23848,0,0,1,.07422-.17969.25142.25142,0,0,1,.17578-.07031h2.50977V19.04013a.99865.99865,0,0,0-1.12891-1.12989H26.4164a.23731.23731,0,0,1-.17969-.07519.25907.25907,0,0,1-.07031-.18457v-.86035a.23178.23178,0,0,1,.07617-.17969.24356.24356,0,0,1,.17383-.07031h1.33008a3.2576,3.2576,0,0,1,2.11523.58984,2.34089,2.34089,0,0,1,.71485,1.91016v1.84961h.34961a.24579.24579,0,0,1,.18164.07031.24924.24924,0,0,1,.06836.17969v.86035a.25422.25422,0,0,1-.06836.1748.23857.23857,0,0,1-.18164.0752H26.31679A.24424.24424,0,0,1,26.141,22.17489Z"/></svg>