<svg xmlns="http://www.w3.org/2000/svg" viewBox="0 0 45.40564 60.28612"><defs><style>.a{fill:#efefef;}.b{fill:none;stroke:#d2d6d8;stroke-linecap:round;stroke-linejoin:round;}.c{fill:#1d1b19;}</style></defs><rect class="a" width="45.40564" height="60.28612"/><line class="b" x1="23.8161" y1="44.86083" x2="40.9851" y2="44.86083"/><line class="b" x1="14.58663" y1="42.79202" x2="40.9851" y2="42.79202"/><line class="b" x1="10.98086" y1="40.81982" x2="40.9851" y2="40.81982"/><line class="b" x1="7.61843" y1="51.50476" x2="40.9851" y2="51.50476"/><line class="b" x1="5.08646" y1="49.53256" x2="40.9851" y2="49.53256"/><line class="b" x1="5.08646" y1="53.68313" x2="40.9851" y2="53.68313"/><line class="b" x1="17.25603" y1="38.84762" x2="40.9851" y2="38.84762"/><path class="c" d="M17.50266,7.16513A2.719,2.719,0,0,1,18.073,9.04989a2.94088,2.94088,0,0,1-.75,2.08008,3.97874,3.97874,0,0,1-1.88086,1.12988l-.40918.12012a.1924.1924,0,0,1-.18554-.07031.28256.28256,0,0,1-.085-.19922V11.0997a.28365.28365,0,0,1,.07032-.18457.4846.4846,0,0,1,.17968-.13477l.32032-.12988a1.6158,1.6158,0,0,0,.72461-.53516A1.673,1.673,0,0,0,16.323,9.0997a1.34718,1.34718,0,0,0-.2207-.87989,1.06753,1.06753,0,0,0-.81934-.25h-.26074l-1.33984-.00976a.24069.24069,0,0,1-.25-.25V5.40048a.238.238,0,0,1,.07519-.18067.25082.25082,0,0,1,.17481-.06933h1.08007a.23924.23924,0,0,1,.25.25V6.54013h.62012A2.42711,2.42711,0,0,1,17.50266,7.16513Z"/><path class="c" d="M22.78293,12.17978a.24133.24133,0,0,1-.07031-.17969v-2.96a1.00315,1.00315,0,0,0-1.12988-1.13965H19.30246a.25907.25907,0,0,1-.18457-.07031.23582.23582,0,0,1-.07519-.17969V6.79013a.23434.23434,0,0,1,.07519-.17969.259.259,0,0,1,.18457-.07031h2.33008a3.06349,3.06349,0,0,1,2.0752.61035,2.39664,2.39664,0,0,1,.69531,1.89941v2.9502a.23433.23433,0,0,1-.0752.17969.259.259,0,0,1-.18457.07031H22.96262A.24286.24286,0,0,1,22.78293,12.17978Zm-3.665,0a.23436.23436,0,0,1-.07519-.17969V9.08017a.23434.23434,0,0,1,.07519-.17969.259.259,0,0,1,.18457-.07031h1.18067a.24069.24069,0,0,1,.25.25v2.91992a.24749.24749,0,0,1-.07031.1748.2358.2358,0,0,1-.17969.0752H19.30246A.25907.25907,0,0,1,19.11789,12.17978Z"/><path class="c" d="M25.59739,12.17978a.23433.23433,0,0,1-.0752-.17969v-5.21a.23431.23431,0,0,1,.0752-.17969.259.259,0,0,1,.18457-.07031h1.25a.23926.23926,0,0,1,.25.25v5.21a.25076.25076,0,0,1-.06934.1748.23791.23791,0,0,1-.18066.0752h-1.25A.259.259,0,0,1,25.59739,12.17978Z"/><path class="c" d="M31.89817,12.17489a.25494.25494,0,0,1-.18555.0752h-3.21a.25906.25906,0,0,1-.18457-.07031.231.231,0,0,1-.0752-.17969v-.86035a.23241.23241,0,0,1,.0752-.17969.259.259,0,0,1,.18457-.07031h1.66016L30.073,8.92a1.76107,1.76107,0,0,0-.20019-.83984.6842.6842,0,0,0-.62012-.25977h-.50977a.24049.24049,0,0,1-.1748-.07519.23677.23677,0,0,1-.0752-.17481V6.73056a.25975.25975,0,0,1,.07032-.18555.23433.23433,0,0,1,.17968-.0752h.54a2.62959,2.62959,0,0,1,1.90528.58985,2.73233,2.73233,0,0,1,.64453,1.89062l.12988,3.04981A.20747.20747,0,0,1,31.89817,12.17489Z"/><path class="c" d="M16.197,17.13485a2.31349,2.31349,0,0,1,.69434,1.85547v3.00977a.25076.25076,0,0,1-.06934.1748.23789.23789,0,0,1-.18066.0752H15.46164a.25907.25907,0,0,1-.18457-.07031.231.231,0,0,1-.07519-.17969v-2.96A1.00316,1.00316,0,0,0,14.072,17.90048H13.4216a6.07356,6.07356,0,0,0-.14941,1.46973l.0791,2.62988a.23356.23356,0,0,1-.07422.17969.263.263,0,0,1-.18554.07031l-2.12012-.00977a.25906.25906,0,0,1-.18457-.07031.2358.2358,0,0,1-.0752-.17969v-.79a.23789.23789,0,0,1,.0752-.18066.26252.26252,0,0,1,.18457-.06934H11.782V19.38a5.38945,5.38945,0,0,1,.14941-1.47949h-.58984a.259.259,0,0,1-.18457-.07031.2358.2358,0,0,1-.0752-.17969v-.86035a.23431.23431,0,0,1,.0752-.17969.259.259,0,0,1,.18457-.07031h2.79A3.10609,3.10609,0,0,1,16.197,17.13485Z"/><path class="c" d="M21.72141,17.16513a2.719,2.719,0,0,1,.57031,1.88476,2.94088,2.94088,0,0,1-.75,2.08008,3.97874,3.97874,0,0,1-1.88086,1.12988l-.40918.12012a.1924.1924,0,0,1-.18554-.07031.28256.28256,0,0,1-.085-.19922V21.0997a.28365.28365,0,0,1,.07032-.18457.4846.4846,0,0,1,.17968-.13477l.32032-.12988a1.6158,1.6158,0,0,0,.72461-.53516,1.673,1.673,0,0,0,.26562-1.01562,1.34718,1.34718,0,0,0-.2207-.87989,1.06753,1.06753,0,0,0-.81934-.25h-.26074l-1.33984-.00976a.24069.24069,0,0,1-.25-.25V15.40048a.238.238,0,0,1,.07519-.18067.25082.25082,0,0,1,.17481-.06933h1.08007a.23924.23924,0,0,1,.25.25v1.13965h.62012A2.42711,2.42711,0,0,1,21.72141,17.16513Z"/><path class="c" d="M23.14621,22.17489a.23949.23949,0,0,1-.07422-.1748v-.86035a.235.235,0,0,1,.07422-.17969.24973.24973,0,0,1,.17578-.07031h2.50977V19.04013a.999.999,0,0,0-1.12988-1.12989H23.4216a.23433.23433,0,0,1-.17968-.07519.259.259,0,0,1-.07032-.18457v-.86035a.23431.23431,0,0,1,.0752-.17969.24744.24744,0,0,1,.1748-.07031h1.33008a3.25763,3.25763,0,0,1,2.11524.58984,2.34092,2.34092,0,0,1,.71484,1.91016v1.84961h.34961a.23926.23926,0,0,1,.25.25v.86035a.25076.25076,0,0,1-.06934.1748.23789.23789,0,0,1-.18066.0752H23.322A.24261.24261,0,0,1,23.14621,22.17489Z"/><path class="c" d="M31.52121,22.30966a.28986.28986,0,0,1-.08007-.19922V21.0997a.30213.30213,0,0,1,.07031-.18946.383.383,0,0,1,.17969-.12988l.30957-.12988a1.46895,1.46895,0,0,0,1-1.55078,1.32228,1.32228,0,0,0-.22461-.87989,1.08726,1.08726,0,0,0-.8252-.25H29.29074a.24744.24744,0,0,1-.18457-.07519.25118.25118,0,0,1-.07519-.18457v-.92969a.21587.21587,0,0,1,.08008-.16992.266.266,0,0,1,.17968-.07031h3.01075a2.42853,2.42853,0,0,1,1.87011.625,2.71891,2.71891,0,0,1,.56934,1.88476,2.94088,2.94088,0,0,1-.75,2.08008,3.98038,3.98038,0,0,1-1.87988,1.12988L31.7009,22.38A.18094.18094,0,0,1,31.52121,22.30966Zm-2.415,1.78027a.23579.23579,0,0,1-.07519-.17969V19.08017a.23434.23434,0,0,1,.07519-.17969.259.259,0,0,1,.18457-.07031h1.14063a.24069.24069,0,0,1,.25.25v4.83007a.24069.24069,0,0,1-.25.25H29.29074A.259.259,0,0,1,29.10617,24.08993Z"/><path class="c" d="M11.35227,32.17978a.23433.23433,0,0,1-.0752-.17969v-5.21a.23431.23431,0,0,1,.0752-.17969.259.259,0,0,1,.18457-.07031h2.27051a3.0302,3.0302,0,0,1,2.02441.57519,2.35635,2.35635,0,0,1,.665,1.875v3a.2503.2503,0,0,1-.07422.18457.25492.25492,0,0,1-.18555.0752H11.53684A.25906.25906,0,0,1,11.35227,32.17978Zm3.53515-1.29V29.04013a1.00315,1.00315,0,0,0-1.12988-1.13965h-.96v2.98926Z"/><path class="c" d="M17.66184,29.80966a.23433.23433,0,0,1-.0752-.17969V26.79013a.23431.23431,0,0,1,.0752-.17969.259.259,0,0,1,.18457-.07031h1.25a.23926.23926,0,0,1,.25.25V29.63a.25078.25078,0,0,1-.06934.17481.23449.23449,0,0,1-.18066.07519h-1.25A.25906.25906,0,0,1,17.66184,29.80966Z"/><path class="c" d="M24.30735,27.16513a2.719,2.719,0,0,1,.57031,1.88476,2.94088,2.94088,0,0,1-.75,2.08008,3.97874,3.97874,0,0,1-1.88086,1.12988l-.40918.12012a.19241.19241,0,0,1-.18555-.07031.28259.28259,0,0,1-.085-.19922V31.0997a.28369.28369,0,0,1,.07031-.18457.48463.48463,0,0,1,.17969-.13477l.32031-.12988a1.61569,1.61569,0,0,0,.72461-.53516,1.673,1.673,0,0,0,.26563-1.01562,1.34718,1.34718,0,0,0-.2207-.87989,1.06755,1.06755,0,0,0-.81934-.25h-.26074L20.487,27.96005a.24071.24071,0,0,1-.25-.25V25.40048a.23793.23793,0,0,1,.0752-.18067.25079.25079,0,0,1,.1748-.06933h1.08008a.23924.23924,0,0,1,.25.25v1.13965h.62012A2.42712,2.42712,0,0,1,24.30735,27.16513Z"/><path class="c" d="M25.92258,32.17978a.23436.23436,0,0,1-.07519-.17969v-5.21a.23434.23434,0,0,1,.07519-.17969.259.259,0,0,1,.18457-.07031h1.25a.23924.23924,0,0,1,.25.25v5.21a.25079.25079,0,0,1-.06933.1748.23793.23793,0,0,1-.18067.0752h-1.25A.25907.25907,0,0,1,25.92258,32.17978Z"/><path class="c" d="M28.862,32.17978a.23436.23436,0,0,1-.07519-.17969v-5.21a.23434.23434,0,0,1,.07519-.17969.259.259,0,0,1,.18457-.07031H31.407a3.14475,3.14475,0,0,1,2.09472.585,2.42466,2.42466,0,0,1,.67578,1.9248v2.9502a.24744.24744,0,0,1-.07031.1748.23577.23577,0,0,1-.17969.0752H32.7468a.25906.25906,0,0,1-.18457-.07031.23433.23433,0,0,1-.0752-.17969v-2.96a1.00315,1.00315,0,0,0-1.12988-1.13965h-.87988v4.09961a.24749.24749,0,0,1-.07031.1748.2358.2358,0,0,1-.17969.0752H29.0466A.25907.25907,0,0,1,28.862,32.17978Z"/></svg>