<svg xmlns="http://www.w3.org/2000/svg" viewBox="0 0 45.40564 60.28612"><defs><style>.a{fill:#d4d4d4;}.b{fill:none;stroke:#b8bbbd;stroke-linecap:round;stroke-linejoin:round;}.c{fill:#020202;}</style></defs><rect class="a" width="45.40564" height="60.28612"/><line class="b" x1="23.8161" y1="44.86083" x2="40.9851" y2="44.86083"/><line class="b" x1="14.58663" y1="42.79202" x2="40.9851" y2="42.79202"/><line class="b" x1="10.98086" y1="40.81982" x2="40.9851" y2="40.81982"/><line class="b" x1="7.61843" y1="51.50476" x2="40.9851" y2="51.50476"/><line class="b" x1="5.08646" y1="49.53256" x2="40.9851" y2="49.53256"/><line class="b" x1="5.08646" y1="53.68313" x2="40.9851" y2="53.68313"/><line class="b" x1="17.25603" y1="38.84762" x2="40.9851" y2="38.84762"/><path class="c" d="M14.75875,9.81019a.23175.23175,0,0,1-.07618-.17969V6.79066a.23177.23177,0,0,1,.07618-.17969.2567.2567,0,0,1,.18359-.07031h1.25a.23784.23784,0,0,1,.25.25V9.6305a.25425.25425,0,0,1-.06836.17481.23518.23518,0,0,1-.18164.07519h-1.25A.25665.25665,0,0,1,14.75875,9.81019Z"/><path class="c" d="M21.52437,12.17542a.27353.27353,0,0,1-.19141.0752h-1.25a.23153.23153,0,0,1-.16992-.07031.28413.28413,0,0,1-.08008-.17969l-.14843-.74023a2.18375,2.18375,0,0,1-.58008.49023,5.6644,5.6644,0,0,1-.72656.375,3.63132,3.63132,0,0,1-.67383.20508l-.07031.00976c-.11329,0-.16993-.05371-.16993-.16015V11.10023c0-.11328.07032-.19629.209-.25.04687-.01953.19922-.06836.45508-.14453a3.87341,3.87341,0,0,0,.625-.23535,1.99042,1.99042,0,0,0,.66015-.54l-.18945-.92969A2.153,2.153,0,0,0,18.913,8.151a.72637.72637,0,0,0-.61914-.25h-.34961a.241.241,0,0,1-.17578-.07519.23577.23577,0,0,1-.07422-.17481V6.73109a.26694.26694,0,0,1,.06836-.18555.23859.23859,0,0,1,.18164-.07519h.37891a3.10062,3.10062,0,0,1,1.36523.25488,1.87812,1.87812,0,0,1,.81446.78516,4.84481,4.84481,0,0,1,.48046,1.44043l.59961,3.0498A.17874.17874,0,0,1,21.52437,12.17542Z"/><path class="c" d="M22.51851,12.18031a.23179.23179,0,0,1-.07617-.17969v-5.21a.23179.23179,0,0,1,.07617-.17969.25673.25673,0,0,1,.18359-.07031h1.25a.23782.23782,0,0,1,.25.25v5.21a.2542.2542,0,0,1-.06835.1748.23859.23859,0,0,1-.18165.0752h-1.25A.25673.25673,0,0,1,22.51851,12.18031Z"/><path class="c" d="M26.00289,11.69593a2.45712,2.45712,0,0,1-.67969-1.85547V6.79066a.23179.23179,0,0,1,.07617-.17969.25673.25673,0,0,1,.18359-.07031h2.55079a2.89213,2.89213,0,0,1,2.06054.61035,2.58828,2.58828,0,0,1,.68946,1.79981c.00585.0664.00976.22363.00976.46972,0,.25391-.00391.41309-.00976.48047a2.6016,2.6016,0,0,1-.71485,1.82422,3.00843,3.00843,0,0,1-2.125.625A2.83991,2.83991,0,0,1,26.00289,11.69593Zm2.97461-1.02051a1.12947,1.12947,0,0,0,.28515-.82519c.00781-.06641.01172-.21.01172-.42969,0-.21289-.00391-.35351-.01172-.41992a1.16417,1.16417,0,0,0-.29883-.83008A1.23511,1.23511,0,0,0,28.083,7.901H26.874V9.81019a1.07861,1.07861,0,0,0,.29883.835,1.23,1.23,0,0,0,.86133.27539A1.38875,1.38875,0,0,0,28.9775,10.67542Z"/><path class="c" d="M11.80367,17.13539a2.31388,2.31388,0,0,1,.69531,1.85546v3.00977a.24747.24747,0,0,1-.07031.1748.23726.23726,0,0,1-.17969.0752H11.06929a.26139.26139,0,0,1-.18554-.07031.23023.23023,0,0,1-.07422-.17969v-2.96A1.00345,1.00345,0,0,0,9.67867,17.901H9.02828a6.07481,6.07481,0,0,0-.14844,1.46973L8.958,22.00062a.23025.23025,0,0,1-.07421.17969.26143.26143,0,0,1-.18555.07031l-2.11914-.00977a.26137.26137,0,0,1-.18555-.07031.23848.23848,0,0,1-.07422-.17969v-.79a.24067.24067,0,0,1,.07422-.18067.26492.26492,0,0,1,.18555-.06933H7.3896V19.3805A5.39149,5.39149,0,0,1,7.538,17.901H6.9482a.25674.25674,0,0,1-.1836-.07031.23323.23323,0,0,1-.07617-.17969v-.86035A.23179.23179,0,0,1,6.7646,16.611a.25674.25674,0,0,1,.1836-.07031h2.791A3.10321,3.10321,0,0,1,11.80367,17.13539Z"/><path class="c" d="M13.70406,22.18031a.23179.23179,0,0,1-.07617-.17969v-5.21a.23179.23179,0,0,1,.07617-.17969.25673.25673,0,0,1,.18359-.07031h1.25a.23784.23784,0,0,1,.25.25v5.21a.25421.25421,0,0,1-.06836.1748.23855.23855,0,0,1-.18164.0752h-1.25A.25673.25673,0,0,1,13.70406,22.18031Z"/><path class="c" d="M20.00484,22.17542a.25652.25652,0,0,1-.18555.0752H16.60835a.25673.25673,0,0,1-.18359-.07031.23179.23179,0,0,1-.07617-.17969v-.86035a.23323.23323,0,0,1,.07617-.17969.25673.25673,0,0,1,.18359-.07031h1.66016l-.08984-1.96973a1.7511,1.7511,0,0,0-.19922-.83984.68495.68495,0,0,0-.6211-.25977h-.50976a.25889.25889,0,0,1-.25-.25v-.83984a.2598.2598,0,0,1,.07031-.18555.23729.23729,0,0,1,.17969-.07519h.541a2.62538,2.62538,0,0,1,1.9043.58984,2.73226,2.73226,0,0,1,.64453,1.89063l.13086,3.0498A.21343.21343,0,0,1,20.00484,22.17542Z"/><path class="c" d="M21.083,22.18031a.237.237,0,0,1-.07421-.17969v-5.21A.237.237,0,0,1,21.083,16.611a.26143.26143,0,0,1,.18555-.07031h2.35938a3.14591,3.14591,0,0,1,2.0957.585,2.428,2.428,0,0,1,.67578,1.9248v2.9502a.24747.24747,0,0,1-.07031.1748.23726.23726,0,0,1-.17969.0752H24.96773a.2567.2567,0,0,1-.18359-.07031.23177.23177,0,0,1-.07618-.17969v-2.96a1.00285,1.00285,0,0,0-1.1289-1.13965H22.6982v4.09961a.24747.24747,0,0,1-.07031.1748.23433.23433,0,0,1-.17969.0752H21.26851A.26143.26143,0,0,1,21.083,22.18031Z"/><path class="c" d="M27.413,22.17542a.2433.2433,0,0,1-.07422-.1748v-.86035a.23851.23851,0,0,1,.07422-.17969.25147.25147,0,0,1,.17578-.07031h2.50977V19.04066a.99864.99864,0,0,0-1.12891-1.12988H27.68843a.23724.23724,0,0,1-.17968-.0752.259.259,0,0,1-.07032-.18457v-.86035a.23179.23179,0,0,1,.07617-.17969.2436.2436,0,0,1,.17383-.07031h1.33008a3.25765,3.25765,0,0,1,2.11524.58984,2.34093,2.34093,0,0,1,.71484,1.91016v1.84961h.34961a.24583.24583,0,0,1,.18164.07031.24927.24927,0,0,1,.06836.17969v.86035a.25421.25421,0,0,1-.06836.1748.23857.23857,0,0,1-.18164.0752H27.58882A.24424.24424,0,0,1,27.413,22.17542Z"/><path class="c" d="M38.33882,17.151a2.41712,2.41712,0,0,1,.63868,1.83008v3.01953a.25421.25421,0,0,1-.06836.1748.23858.23858,0,0,1-.18164.0752H35.999a.25525.25525,0,0,1-.25-.25v-.86035a.23851.23851,0,0,1,.07422-.17969.25145.25145,0,0,1,.17578-.07031H37.288V19.06019a1.2056,1.2056,0,0,0-.25-.80957.81627.81627,0,0,0-.65039-.29h-.7793l-.8496,4.03027a.30713.30713,0,0,1-.08008.18457.23726.23726,0,0,1-.17969.0752H33.34859a.25336.25336,0,0,1-.18555-.0752.19794.19794,0,0,1-.05469-.18457l.98047-4.0205h-.66015a.231.231,0,0,1-.17969-.0752.259.259,0,0,1-.07031-.18457v-.91992a.237.237,0,0,1,.07422-.17969.25145.25145,0,0,1,.17578-.07031h3.209A2.36353,2.36353,0,0,1,38.33882,17.151Z"/></svg>