<svg xmlns="http://www.w3.org/2000/svg" viewBox="0 0 45.40564 60.28612"><defs><style>.a{fill:#efefef;}.b{fill:none;stroke:#d2d6d8;stroke-linecap:round;stroke-linejoin:round;}.c{fill:#1d1b19;}</style></defs><rect class="a" width="45.40564" height="60.28612"/><line class="b" x1="23.8161" y1="28.49734" x2="40.9851" y2="28.49734"/><line class="b" x1="14.58663" y1="30.56615" x2="40.9851" y2="30.56615"/><line class="b" x1="10.98086" y1="32.53835" x2="40.9851" y2="32.53835"/><line class="b" x1="17.25603" y1="34.51055" x2="40.9851" y2="34.51055"/><line class="b" x1="23.8161" y1="46.26538" x2="40.9851" y2="46.26538"/><line class="b" x1="14.58663" y1="44.19656" x2="40.9851" y2="44.19656"/><line class="b" x1="10.98086" y1="42.22436" x2="40.9851" y2="42.22436"/><line class="b" x1="7.61843" y1="52.90931" x2="40.9851" y2="52.90931"/><line class="b" x1="5.08646" y1="50.93711" x2="40.9851" y2="50.93711"/><line class="b" x1="5.08646" y1="55.08767" x2="40.9851" y2="55.08767"/><line class="b" x1="17.25603" y1="40.25217" x2="40.9851" y2="40.25217"/><path class="c" d="M12.89808,7.13485a2.31313,2.31313,0,0,1,.69335,1.85547v3.00977a.25421.25421,0,0,1-.06835.1748.23859.23859,0,0,1-.18165.0752H12.16175a.25674.25674,0,0,1-.1836-.07031.23179.23179,0,0,1-.07617-.17969v-2.96a1.00285,1.00285,0,0,0-1.1289-1.13965h-.6504a6.07235,6.07235,0,0,0-.15039,1.46973l.08008,2.62988a.237.237,0,0,1-.07422.17969.26471.26471,0,0,1-.18554.07031l-2.1211-.00977A.25673.25673,0,0,1,7.48792,12.17a.23323.23323,0,0,1-.07617-.17969v-.79a.23529.23529,0,0,1,.07617-.18066.26014.26014,0,0,1,.18359-.06934h.81055V9.38a5.38817,5.38817,0,0,1,.15039-1.47949H8.04261a.26142.26142,0,0,1-.18555-.07031.23851.23851,0,0,1-.07422-.17969V6.79013a.237.237,0,0,1,.07422-.17969.26137.26137,0,0,1,.18555-.07031h2.78906A3.109,3.109,0,0,1,12.89808,7.13485Z"/><path class="c" d="M14.79651,12.17978a.237.237,0,0,1-.07422-.17969v-5.21a.237.237,0,0,1,.07422-.17969.26137.26137,0,0,1,.18555-.07031h1.25a.24435.24435,0,0,1,.17969.07031.24131.24131,0,0,1,.07031.17969v5.21a.24749.24749,0,0,1-.07031.1748.23726.23726,0,0,1-.17969.0752h-1.25A.26142.26142,0,0,1,14.79651,12.17978Z"/><path class="c" d="M23.00159,12.04013a.209.209,0,0,1-.05859.14453.1955.1955,0,0,1-.15039.06543H21.56214a.333.333,0,0,1-.26953-.09473c-.05274-.06348-.084-.09863-.08985-.10547l-1.75-2.53027a1.1167,1.1167,0,0,0-.33984.55078,2.5693,2.5693,0,0,0-.08008.66016v1.25a.26115.26115,0,0,1-.07617.19433.24894.24894,0,0,1-.18359.0752h-.98047a.23485.23485,0,0,1-.17578-.08008.27056.27056,0,0,1-.07422-.18945V10.74032a3.48557,3.48557,0,0,1,.23047-1.37988,2.54132,2.54132,0,0,1,.86914-1l-1.01954-1.4707a.21189.21189,0,0,1-.05078-.13965.227.227,0,0,1,.21094-.21h1.17969a.337.337,0,0,1,.21484.05957.75563.75563,0,0,1,.14453.16015l1.61133,2.28028a.88051.88051,0,0,0,.35352-.44043,1.88647,1.88647,0,0,0,.07617-.56934V6.80966a.27316.27316,0,0,1,.07031-.19434.23147.23147,0,0,1,.17969-.07519h1.04883a.24324.24324,0,0,1,.18554.08008.26381.26381,0,0,1,.07422.18945V8.0704a2.63324,2.63324,0,0,1-.2539,1.165,2.3889,2.3889,0,0,1-.92578.94434l1.2207,1.7207A.239.239,0,0,1,23.00159,12.04013Z"/><path class="c" d="M26.83753,12.17978a.23179.23179,0,0,1-.07617-.17969v-2.96a1.00286,1.00286,0,0,0-1.12891-1.13965H24.11292a.241.241,0,0,1-.17578-.0752.23575.23575,0,0,1-.07422-.1748V6.79013a.23025.23025,0,0,1,.07422-.17969.24806.24806,0,0,1,.17578-.07031H25.693a3.192,3.192,0,0,1,2.07422.57031,2.30211,2.30211,0,0,1,.68554,1.87012v3.01953a.24744.24744,0,0,1-.07031.1748.23725.23725,0,0,1-.17969.0752H27.02112A.25673.25673,0,0,1,26.83753,12.17978Z"/><path class="c" d="M29.65784,12.17978a.23179.23179,0,0,1-.07617-.17969v-5.21a.23178.23178,0,0,1,.07617-.17969.25669.25669,0,0,1,.18359-.07031h1.25a.23782.23782,0,0,1,.25.25v5.21a.25421.25421,0,0,1-.06835.1748.23859.23859,0,0,1-.18165.0752h-1.25A.25673.25673,0,0,1,29.65784,12.17978Z"/><path class="c" d="M36.26136,12.17978a.2413.2413,0,0,1-.07032-.17969v-2.96a1.00285,1.00285,0,0,0-1.1289-1.13965H32.78089a.25674.25674,0,0,1-.1836-.07031.23323.23323,0,0,1-.07617-.17969V6.79013a.23178.23178,0,0,1,.07617-.17969.25669.25669,0,0,1,.1836-.07031H35.111a3.06628,3.06628,0,0,1,2.07617.61035,2.39994,2.39994,0,0,1,.69531,1.89941v2.9502a.23179.23179,0,0,1-.07617.17969.25674.25674,0,0,1-.1836.07031H36.441A.24436.24436,0,0,1,36.26136,12.17978Zm-3.66407,0a.23179.23179,0,0,1-.07617-.17969V9.08017a.23178.23178,0,0,1,.07617-.17969.25669.25669,0,0,1,.1836-.07031h1.18164a.24436.24436,0,0,1,.17969.07031.24131.24131,0,0,1,.07031.17969v2.91992a.24749.24749,0,0,1-.07031.1748.23728.23728,0,0,1-.17969.0752H32.78089A.25674.25674,0,0,1,32.59729,12.17978Z"/><path class="c" d="M19.59729,17.15048a2.41708,2.41708,0,0,1,.63868,1.83008v3.01953a.25422.25422,0,0,1-.06836.1748.23858.23858,0,0,1-.18164.0752H17.25745a.25525.25525,0,0,1-.25-.25v-.86035a.23848.23848,0,0,1,.07422-.17969.2514.2514,0,0,1,.17578-.07031h1.28906V19.05966a1.2056,1.2056,0,0,0-.25-.80957.81627.81627,0,0,0-.65039-.29h-.77929l-.84961,4.03027a.30715.30715,0,0,1-.08008.18457.23726.23726,0,0,1-.17969.0752H14.60706a.25336.25336,0,0,1-.18555-.0752.19792.19792,0,0,1-.05468-.18457l.98046-4.02051h-.66015a.231.231,0,0,1-.17969-.07519.25907.25907,0,0,1-.07031-.18457v-.91992a.237.237,0,0,1,.07422-.17969.2514.2514,0,0,1,.17578-.07031h3.209A2.36353,2.36353,0,0,1,19.59729,17.15048Z"/><path class="c" d="M21.03284,17.67a.20062.20062,0,0,1-.05664-.13965.28865.28865,0,0,1,.02148-.11035l.76954-1.99023a.61065.61065,0,0,1,.14453-.20508.34261.34261,0,0,1,.23437-.07422h.73047a.17337.17337,0,0,1,.14453.06933A.2063.2063,0,0,1,23.066,15.38l-.30859,2a.52258.52258,0,0,1-.12109.25.31728.31728,0,0,1-.25.10059H21.16761A.17176.17176,0,0,1,21.03284,17.67Zm2.25977,0a.20062.20062,0,0,1-.05664-.13965.28865.28865,0,0,1,.02148-.11035l.76953-1.99023a.61065.61065,0,0,1,.14453-.20508.3446.3446,0,0,1,.23633-.07422h.72852a.17963.17963,0,0,1,.14648.06933.22292.22292,0,0,1,.04492.16016l-.31054,2a.50561.50561,0,0,1-.1211.25.31727.31727,0,0,1-.25.10059H23.42737A.17172.17172,0,0,1,23.29261,17.67Z"/><path class="c" d="M26.14222,22.17489a.23572.23572,0,0,1-.07422-.1748v-.86035a.2316.2316,0,0,1,.07422-.17969.24806.24806,0,0,1,.17578-.07031h2.50976V19.04013a.99925.99925,0,0,0-1.13086-1.12989H26.41761a.23147.23147,0,0,1-.17969-.07519.259.259,0,0,1-.07031-.18457v-.86035a.237.237,0,0,1,.07422-.17969.2514.2514,0,0,1,.17578-.07031h1.33007a3.25762,3.25762,0,0,1,2.11524.58984,2.34092,2.34092,0,0,1,.71484,1.91016v1.84961h.34961a.24069.24069,0,0,1,.25.25v.86035a.24749.24749,0,0,1-.07031.1748.23726.23726,0,0,1-.17969.0752H26.318A.241.241,0,0,1,26.14222,22.17489Z"/></svg>