<svg xmlns="http://www.w3.org/2000/svg" viewBox="0 0 45.40564 61.15213"><defs><style>.a{fill:#fff;}.b{fill:#2d2a28;}</style></defs><rect class="a" width="45.40564" height="61.15213"/><path class="b" d="M8.90129,10.93965a.16585.16585,0,0,1-.05273-.126V6.298a.16582.16582,0,0,1,.05273-.126.1842.1842,0,0,1,.12891-.04883h.82617a.16725.16725,0,0,1,.17383.1748v4.51563a.16724.16724,0,0,1-.17383.1748H9.0302A.18423.18423,0,0,1,8.90129,10.93965Z"/><path class="b" d="M10.88762,8.4123a.16293.16293,0,0,1-.05274-.126V6.298a.16582.16582,0,0,1,.05274-.126.1856.1856,0,0,1,.13086-.04883h.875a.16725.16725,0,0,1,.17383.1748V8.28633a.16879.16879,0,0,1-.04883.12207.16377.16377,0,0,1-.125.05273h-.875A.1856.1856,0,0,1,10.88762,8.4123Z"/><path class="b" d="M15.54,6.56074a1.90486,1.90486,0,0,1,.39844,1.31934A2.06026,2.06026,0,0,1,15.413,9.33613a2.78861,2.78861,0,0,1-1.31641.791l-.28515.084a.13762.13762,0,0,1-.13086-.04883.20107.20107,0,0,1-.0586-.13965v-.707a.19782.19782,0,0,1,.04883-.12988.35962.35962,0,0,1,.125-.09473l.22461-.09082a1.129,1.129,0,0,0,.50781-.374,1.17845,1.17845,0,0,0,.18555-.71094.93878.93878,0,0,0-.1543-.61621.748.748,0,0,0-.57422-.1748h-.18164l-.9375-.00684a.173.173,0,0,1-.127-.04883.17.17,0,0,1-.04883-.126V5.32539a.163.163,0,0,1,.05274-.126.17686.17686,0,0,1,.123-.04883H13.622a.16725.16725,0,0,1,.17383.17481v.79785h.43555A1.69828,1.69828,0,0,1,15.54,6.56074Z"/><path class="b" d="M20.14543,6.55a1.69082,1.69082,0,0,1,.44727,1.28125V9.94551a.17039.17039,0,0,1-.04883.12207.16088.16088,0,0,1-.125.05273H18.50676a.1644.1644,0,0,1-.12109-.05273.16652.16652,0,0,1-.05274-.12207V9.343a.16585.16585,0,0,1,.05274-.126.17219.17219,0,0,1,.12109-.04883h.9043V7.88691a.8368.8368,0,0,0-.17579-.5664.57093.57093,0,0,0-.45507-.20313h-.54493l-.5957,2.82129a.20578.20578,0,0,1-.05664.12891.16088.16088,0,0,1-.125.05273h-.80469a.17669.17669,0,0,1-.13086-.05273.13522.13522,0,0,1-.03711-.12891l.68555-2.81445h-.46289a.16086.16086,0,0,1-.125-.05274.17993.17993,0,0,1-.04883-.1289V6.298a.16582.16582,0,0,1,.05274-.126.1689.1689,0,0,1,.12109-.04883h2.248A1.6549,1.6549,0,0,1,20.14543,6.55Z"/><path class="b" d="M21.43059,10.07148a.16582.16582,0,0,1-.05274-.126V6.298a.16582.16582,0,0,1,.05274-.126.18416.18416,0,0,1,.1289-.04883h.875a.173.173,0,0,1,.127.04883.17.17,0,0,1,.04882.126V9.94551a.17038.17038,0,0,1-.04882.12207.16508.16508,0,0,1-.127.05273h-.875A.18416.18416,0,0,1,21.43059,10.07148Z"/><path class="b" d="M26.19426,10.06758a.18754.18754,0,0,1-.13281.05273h-.875a.16126.16126,0,0,1-.11914-.04883.19363.19363,0,0,1-.05664-.126L24.9052,9.427a1.47033,1.47033,0,0,1-.40625.34375,3.95885,3.95885,0,0,1-.50586.26172,2.49,2.49,0,0,1-.47266.14355l-.04883.00782c-.08008,0-.11914-.03809-.11914-.11231V9.31562c0-.08008.04883-.13769.14649-.17578.0332-.01367.13867-.04687.31836-.10058a2.78569,2.78569,0,0,0,.4375-.165,1.4,1.4,0,0,0,.46289-.37793l-.13477-.65137a1.4842,1.4842,0,0,0-.2168-.59473.50917.50917,0,0,0-.43359-.1748H23.6884a.16864.16864,0,0,1-.12305-.05274.16652.16652,0,0,1-.05273-.12207V6.25605a.17832.17832,0,0,1,.04883-.1289.165.165,0,0,1,.127-.05274H23.954a2.16339,2.16339,0,0,1,.95508.17871,1.3145,1.3145,0,0,1,.57032.54883,3.42145,3.42145,0,0,1,.33593,1.00879l.41992,2.13477A.12374.12374,0,0,1,26.19426,10.06758Z"/><path class="b" d="M28.18449,8.4123a.163.163,0,0,1-.05273-.126V6.298a.16585.16585,0,0,1,.05273-.126.18564.18564,0,0,1,.13086-.04883h.875a.16725.16725,0,0,1,.17383.1748V8.28633a.16875.16875,0,0,1-.04883.12207.16376.16376,0,0,1-.125.05273h-.875A.18564.18564,0,0,1,28.18449,8.4123Z"/><path class="b" d="M30.5966,9.73164A1.71424,1.71424,0,0,1,30.12,8.43379V6.298a.16585.16585,0,0,1,.05273-.126.1842.1842,0,0,1,.12891-.04883h1.78516A2.03171,2.03171,0,0,1,33.5302,6.55a1.81391,1.81391,0,0,1,.48242,1.26074c.0039.0459.00586.15625.00586.32813q0,.26659-.00586.33691a1.81882,1.81882,0,0,1-.5,1.27734,2.11424,2.11424,0,0,1-1.48828.4375A1.98329,1.98329,0,0,1,30.5966,9.73164Zm2.082-.71387a.80229.80229,0,0,0,.19922-.57715c.00586-.04687.00782-.14746.00782-.30175,0-.14844-.002-.24708-.00782-.294a.81842.81842,0,0,0-.209-.58105.863.863,0,0,0-.61719-.18848H31.206V8.4123a.76067.76067,0,0,0,.209.585.86432.86432,0,0,0,.60156.19239A.97846.97846,0,0,0,32.67863,9.01777Z"/><path class="b" d="M34.7509,10.07148a.16582.16582,0,0,1-.05273-.126V6.298a.16582.16582,0,0,1,.05273-.126.18418.18418,0,0,1,.12891-.04883h1.65234a2.205,2.205,0,0,1,1.4668.40918,1.7019,1.7019,0,0,1,.47265,1.34766V9.94551a.17035.17035,0,0,1-.04883.12207.165.165,0,0,1-.127.05273h-.82617a.1842.1842,0,0,1-.12891-.04883.16585.16585,0,0,1-.05273-.126V7.87324a.70207.70207,0,0,0-.791-.79785h-.61523V9.94551a.17039.17039,0,0,1-.04883.12207.16506.16506,0,0,1-.127.05273h-.82617A.18418.18418,0,0,1,34.7509,10.07148Z"/><path class="b" d="M39.288,8.4123a.16293.16293,0,0,1-.05274-.126V6.298a.16582.16582,0,0,1,.05274-.126.18418.18418,0,0,1,.12891-.04883h.875a.17617.17617,0,0,1,.127.04883.178.178,0,0,1,.04883.126V8.28633a.17716.17716,0,0,1-.04883.12207.168.168,0,0,1-.127.05273h-.875A.18418.18418,0,0,1,39.288,8.4123Z"/><path class="b" d="M8.13371,20.07148a.17.17,0,0,1-.04883-.126V17.87324a.70207.70207,0,0,0-.791-.79785H5.69817a.18418.18418,0,0,1-.12891-.04883.16583.16583,0,0,1-.05274-.126V16.298a.16582.16582,0,0,1,.05274-.126.18418.18418,0,0,1,.12891-.04883H7.329A2.14974,2.14974,0,0,1,8.78215,16.55a1.68135,1.68135,0,0,1,.48633,1.33008v2.06543a.16582.16582,0,0,1-.05274.126.18416.18416,0,0,1-.1289.04883H8.26067A.173.173,0,0,1,8.13371,20.07148Zm-2.56445,0a.16582.16582,0,0,1-.05274-.126V17.90156a.163.163,0,0,1,.05274-.126.18.18,0,0,1,.12891-.04882h.82617a.16481.16481,0,0,1,.125.04882.167.167,0,0,1,.04883.126v2.04395a.17039.17039,0,0,1-.04883.12207.16088.16088,0,0,1-.125.05273H5.69817A.18418.18418,0,0,1,5.56926,20.07148Z"/><path class="b" d="M13.79,19.97285a.14665.14665,0,0,1-.041.10156.13857.13857,0,0,1-.10547.0459h-.86133a.2382.2382,0,0,1-.18945-.06641c-.03711-.04394-.0586-.06933-.0625-.07324l-1.22461-1.77148a.78853.78853,0,0,0-.23828.38476,1.85885,1.85885,0,0,0-.05664.46192v.875a.184.184,0,0,1-.05274.13672.17537.17537,0,0,1-.12891.05273h-.68554a.16449.16449,0,0,1-.12305-.05566.18981.18981,0,0,1-.05273-.13379v-.86719a2.45585,2.45585,0,0,1,.16211-.9668,1.788,1.788,0,0,1,.60742-.69922l-.71289-1.02929a.14816.14816,0,0,1-.03516-.09766.15586.15586,0,0,1,.14649-.14746h.82617a.232.232,0,0,1,.15039.042.55057.55057,0,0,1,.10156.11231l1.127,1.5957a.61609.61609,0,0,0,.248-.30762,1.342,1.342,0,0,0,.05273-.39941v-.85352a.1981.1981,0,0,1,.04883-.13672.168.168,0,0,1,.127-.05273h.73437a.175.175,0,0,1,.13086.05566.19694.19694,0,0,1,.05078.13379v.88184a1.839,1.839,0,0,1-.17773.81543,1.662,1.662,0,0,1-.64844.66113l.85547,1.2041A.18113.18113,0,0,1,13.79,19.97285Z"/><path class="b" d="M15.44231,17.36933c.00781.19141.06445.30371.168.33594l.19532.07031a.16625.16625,0,0,1,.08789.08008.26878.26878,0,0,1,.03125.12988l.00781.35645a.18811.18811,0,0,1-.0957.165.34569.34569,0,0,1-.22657.04492l-.2871-.042a.88784.88784,0,0,1-.60157-.3877,1.39254,1.39254,0,0,1-.23828-.83691V16.298a.24392.24392,0,0,1,.0586-.126.15263.15263,0,0,1,.11523-.04883h1.41406a1.80973,1.80973,0,0,1,1.36914.47266,1.998,1.998,0,0,1,.49414,1.32617q.00587.0703.00586.19629a2.21044,2.21044,0,0,1-.44726,1.47363,1.765,1.765,0,0,1-1.42188.52832H14.74113a.18416.18416,0,0,1-.1289-.04883.16582.16582,0,0,1-.05274-.126V19.301a.18009.18009,0,0,1,.18164-.18164h1.29493a.84012.84012,0,0,0,.58593-.20605.81863.81863,0,0,0,.248-.585c.00391-.04688.00586-.11621.00586-.21,0-.08887-.002-.15625-.00586-.20313a.78962.78962,0,0,0-.24219-.584.84233.84233,0,0,0-.59179-.207h-.59375Z"/><path class="b" d="M20.52043,20.07148a.16582.16582,0,0,1-.05273-.126V17.87324a.70208.70208,0,0,0-.791-.79785h-1.0625a.16865.16865,0,0,1-.12305-.05274.16652.16652,0,0,1-.05273-.12207V16.298a.16585.16585,0,0,1,.05273-.126.17686.17686,0,0,1,.12305-.04883h1.10547a2.234,2.234,0,0,1,1.45312.39941,1.61538,1.61538,0,0,1,.47852,1.3086v2.11426a.17035.17035,0,0,1-.04883.12207.16376.16376,0,0,1-.125.05273h-.82617A.18564.18564,0,0,1,20.52043,20.07148Z"/><path class="b" d="M25.96965,16.55a1.69082,1.69082,0,0,1,.44727,1.28125v2.11426a.17039.17039,0,0,1-.04883.12207.16088.16088,0,0,1-.125.05273H24.331a.16444.16444,0,0,1-.1211-.05273.16655.16655,0,0,1-.05273-.12207V19.343a.16587.16587,0,0,1,.05273-.126.17223.17223,0,0,1,.1211-.04883h.90429V17.88691a.8368.8368,0,0,0-.17578-.5664.57093.57093,0,0,0-.45507-.20313h-.54493l-.5957,2.82129a.20583.20583,0,0,1-.05664.12891.16088.16088,0,0,1-.125.05273h-.80469a.17669.17669,0,0,1-.13086-.05273.13522.13522,0,0,1-.03711-.12891l.68555-2.81445h-.46289a.16086.16086,0,0,1-.125-.05274.17993.17993,0,0,1-.04883-.1289V16.298a.16582.16582,0,0,1,.05274-.126.16888.16888,0,0,1,.12109-.04883h2.248A1.6549,1.6549,0,0,1,25.96965,16.55Z"/><path class="b" d="M29.81926,20.07148a.17.17,0,0,1-.04883-.126V17.87324a.70207.70207,0,0,0-.791-.79785H27.38371a.18416.18416,0,0,1-.1289-.04883.16583.16583,0,0,1-.05274-.126V16.298a.16582.16582,0,0,1,.05274-.126.18416.18416,0,0,1,.1289-.04883h1.63086A2.14976,2.14976,0,0,1,30.4677,16.55a1.68134,1.68134,0,0,1,.48632,1.33008v2.06543a.16582.16582,0,0,1-.05273.126.18418.18418,0,0,1-.12891.04883h-.82617A.173.173,0,0,1,29.81926,20.07148Zm-2.56445,0a.16582.16582,0,0,1-.05274-.126V17.90156a.163.163,0,0,1,.05274-.126.17993.17993,0,0,1,.1289-.04882h.82617a.16479.16479,0,0,1,.125.04882.167.167,0,0,1,.04883.126v2.04395a.17035.17035,0,0,1-.04883.12207.16087.16087,0,0,1-.125.05273h-.82617A.18416.18416,0,0,1,27.25481,20.07148Z"/><path class="b" d="M33.26067,20.93965a.16586.16586,0,0,1-.05274-.126V16.298a.16582.16582,0,0,1,.05274-.126.18416.18416,0,0,1,.1289-.04883h.82617a.16725.16725,0,0,1,.17383.1748v4.51563a.16724.16724,0,0,1-.17383.1748h-.82617A.18419.18419,0,0,1,33.26067,20.93965Z"/><path class="b" d="M35.249,18.4123a.16293.16293,0,0,1-.05274-.126V16.298a.16582.16582,0,0,1,.05274-.126.18416.18416,0,0,1,.1289-.04883h.875a.16737.16737,0,0,1,.17578.1748v1.98829a.17715.17715,0,0,1-.04882.12207.168.168,0,0,1-.127.05273h-.875A.18416.18416,0,0,1,35.249,18.4123Z"/><path class="b" d="M37.14543,20.06758a.16651.16651,0,0,1-.05273-.12207V19.343a.16584.16584,0,0,1,.05273-.126.17684.17684,0,0,1,.123-.04883h1.75586V17.87324a.69917.69917,0,0,0-.791-.791h-.89453a.165.165,0,0,1-.127-.05273.17992.17992,0,0,1-.04883-.12891V16.298a.16585.16585,0,0,1,.05273-.126.17686.17686,0,0,1,.12305-.04883h.92969a2.27957,2.27957,0,0,1,1.48047.41309,1.63631,1.63631,0,0,1,.5,1.33691v1.29492H40.495a.16846.16846,0,0,1,.125.04883.17153.17153,0,0,1,.05078.126v.60254a.17233.17233,0,0,1-.05078.12207.16088.16088,0,0,1-.125.05273H37.26848A.16867.16867,0,0,1,37.14543,20.06758Z"/><path class="b" d="M23.21965,30.07148a.17.17,0,0,1-.04883-.126V27.87324a.70207.70207,0,0,0-.791-.79785H20.78215a.1842.1842,0,0,1-.12891-.04883.16586.16586,0,0,1-.05273-.126V26.298a.16585.16585,0,0,1,.05273-.126.1842.1842,0,0,1,.12891-.04883H22.413a2.14971,2.14971,0,0,1,1.45312.42676,1.68135,1.68135,0,0,1,.48633,1.33008v2.06543a.16585.16585,0,0,1-.05273.126.1842.1842,0,0,1-.12891.04883h-.82617A.16846.16846,0,0,1,23.21965,30.07148Zm-2.56641,0a.16585.16585,0,0,1-.05273-.126V27.90156a.163.163,0,0,1,.05273-.126.18.18,0,0,1,.12891-.04882h.82617a.16922.16922,0,0,1,.127.04882.167.167,0,0,1,.04883.126v2.04395a.17035.17035,0,0,1-.04883.12207.165.165,0,0,1-.127.05273h-.82617A.1842.1842,0,0,1,20.65324,30.07148Z"/><path class="b" d="M28.25871,26.17207a.16994.16994,0,0,1,.04883.126v.60254a.17032.17032,0,0,1-.04883.12207.16086.16086,0,0,1-.125.05274h-.32226a1.04169,1.04169,0,0,0-.12891.35644,2.43585,2.43585,0,0,0-.04687.49707V29.966a.12891.12891,0,0,1-.06641.1084.23016.23016,0,0,1-.13672.0459h-.81836a.14591.14591,0,0,1-.1543-.1543V27.85273a1.5036,1.5036,0,0,1,.14063-.77734h-1.5957a.16864.16864,0,0,1-.123-.05274.16649.16649,0,0,1-.05274-.12207V26.298a.16582.16582,0,0,1,.05274-.126.17684.17684,0,0,1,.123-.04883h3.1289A.16846.16846,0,0,1,28.25871,26.17207Z"/><path class="b" d="M28.96965,28.4123a.16292.16292,0,0,1-.05273-.126V26.298a.16582.16582,0,0,1,.05273-.126.18418.18418,0,0,1,.12891-.04883h.875a.17617.17617,0,0,1,.127.04883.178.178,0,0,1,.04883.126v1.98829a.17716.17716,0,0,1-.04883.12207.168.168,0,0,1-.127.05273h-.875A.18418.18418,0,0,1,28.96965,28.4123Z"/><path class="b" d="M30.999,30.07148a.16582.16582,0,0,1-.05274-.126V26.298a.16582.16582,0,0,1,.05274-.126.18416.18416,0,0,1,.1289-.04883H32.7802a2.205,2.205,0,0,1,1.46679.40918,1.70187,1.70187,0,0,1,.47266,1.34766v2.06543a.17039.17039,0,0,1-.04883.12207.16506.16506,0,0,1-.127.05273H33.7177a.1842.1842,0,0,1-.12891-.04883.16582.16582,0,0,1-.05273-.126V27.87324a.70208.70208,0,0,0-.791-.79785h-.61523v2.87012a.17039.17039,0,0,1-.04883.12207.16508.16508,0,0,1-.127.05273h-.82617A.18416.18416,0,0,1,30.999,30.07148Z"/><path class="b" d="M35.53606,28.4123a.16293.16293,0,0,1-.05274-.126V26.298a.16582.16582,0,0,1,.05274-.126.18416.18416,0,0,1,.1289-.04883h.875a.16737.16737,0,0,1,.17578.1748v1.98829a.17715.17715,0,0,1-.04882.12207.168.168,0,0,1-.127.05273h-.875A.18416.18416,0,0,1,35.53606,28.4123Z"/><path class="b" d="M40.18645,26.56074a1.90507,1.90507,0,0,1,.40039,1.31934,2.06026,2.06026,0,0,1-.52539,1.45605,2.78866,2.78866,0,0,1-1.31641.791l-.28711.084a.133.133,0,0,1-.12891-.04883.1952.1952,0,0,1-.06054-.13965v-.707a.20856.20856,0,0,1,.04883-.12988.36725.36725,0,0,1,.127-.09473l.22461-.09082a1.13383,1.13383,0,0,0,.50586-.374,1.1651,1.1651,0,0,0,.18554-.71094.95169.95169,0,0,0-.15234-.61621.751.751,0,0,0-.57422-.1748h-.18359l-.9375-.00684a.16725.16725,0,0,1-.17383-.1748V25.32539a.16844.16844,0,0,1,.05078-.126.17688.17688,0,0,1,.123-.04883h.75586a.16739.16739,0,0,1,.17578.17481v.79785h.43359A1.69545,1.69545,0,0,1,40.18645,26.56074Z"/><path class="b" d="M20.79387,36.54023a1.61648,1.61648,0,0,1,.48633,1.29785v2.10743a.17039.17039,0,0,1-.04883.12207.16376.16376,0,0,1-.125.05273H20.2802a.1856.1856,0,0,1-.13086-.04883.16582.16582,0,0,1-.05274-.126V37.87324a.70148.70148,0,0,0-.78906-.79785h-.45508a4.11983,4.11983,0,0,0-.10547,1.0293l.05469,1.84082a.1715.1715,0,0,1-.05078.126.18564.18564,0,0,1-.13086.04883l-1.48437-.00684a.18422.18422,0,0,1-.12891-.04882.16586.16586,0,0,1-.05274-.126V39.385a.16586.16586,0,0,1,.05274-.126.18422.18422,0,0,1,.12891-.04883H17.704V38.11152a3.738,3.738,0,0,1,.10547-1.03613h-.41406a.1842.1842,0,0,1-.12891-.04883.16586.16586,0,0,1-.05273-.126V36.298a.16585.16585,0,0,1,.05273-.126.1842.1842,0,0,1,.12891-.04883h1.95313A2.16857,2.16857,0,0,1,20.79387,36.54023Z"/><path class="b" d="M25.68449,36.17207a.178.178,0,0,1,.04883.126v2.07227a1.52115,1.52115,0,0,1-.48437,1.15137,2.56493,2.56493,0,0,1-1.35743.6123l-1.791.37793a.15847.15847,0,0,1-.13672-.03418.15439.15439,0,0,1-.06055-.126v-.60938a.18727.18727,0,0,1,.04493-.123.2143.2143,0,0,1,.11718-.0664l.77539-.18848-.82422-2.96094a.86505.86505,0,0,1-.03515-.14062.136.136,0,0,1,.041-.09766.13167.13167,0,0,1,.09766-.042h.91016a.17125.17125,0,0,1,.10547.03125.1635.1635,0,0,1,.05664.07422l.69921,2.8623a.96042.96042,0,0,0,.51758-.3955,1.37126,1.37126,0,0,0,.14063-.67481V36.298a.16994.16994,0,0,1,.04883-.126.173.173,0,0,1,.127-.04883h.832A.17617.17617,0,0,1,25.68449,36.17207Z"/><path class="b" d="M26.54192,38.4123a.16293.16293,0,0,1-.05274-.126V36.298a.16582.16582,0,0,1,.05274-.126.18416.18416,0,0,1,.1289-.04883h.875a.17617.17617,0,0,1,.127.04883.178.178,0,0,1,.04883.126v1.98829a.17716.17716,0,0,1-.04883.12207.168.168,0,0,1-.127.05273h-.875A.18416.18416,0,0,1,26.54192,38.4123Z"/><path class="b" d="M28.4384,40.06758a.16651.16651,0,0,1-.05273-.12207V39.343a.16584.16584,0,0,1,.05273-.126.17684.17684,0,0,1,.123-.04883h1.75586V37.87324a.69917.69917,0,0,0-.791-.791h-.89453a.165.165,0,0,1-.127-.05273.17992.17992,0,0,1-.04883-.12891V36.298a.16585.16585,0,0,1,.05273-.126.17684.17684,0,0,1,.123-.04883h.92969a2.27957,2.27957,0,0,1,1.48047.41309,1.63631,1.63631,0,0,1,.5,1.33691v1.29492H31.788a.16846.16846,0,0,1,.125.04883.17153.17153,0,0,1,.05078.126v.60254a.17233.17233,0,0,1-.05078.12207.16088.16088,0,0,1-.125.05273H28.56145A.16867.16867,0,0,1,28.4384,40.06758Z"/><path class="b" d="M34.29973,40.1623a.20773.20773,0,0,1-.05664-.13965v-.707a.21418.21418,0,0,1,.05078-.13379.26715.26715,0,0,1,.125-.09082l.2168-.09082a1.02826,1.02826,0,0,0,.70117-1.085.9254.9254,0,0,0-.15821-.61621.76115.76115,0,0,0-.57812-.1748H32.73918a.18007.18007,0,0,1-.18164-.18164v-.65137a.15262.15262,0,0,1,.05469-.11914.18988.18988,0,0,1,.127-.04883H34.8466a1.69832,1.69832,0,0,1,1.3086.4375,1.90491,1.90491,0,0,1,.39843,1.31934,2.05159,2.05159,0,0,1-.52539,1.456,2.78248,2.78248,0,0,1-1.31445.791l-.28711.084A.12846.12846,0,0,1,34.29973,40.1623Zm-1.68946,1.2461a.16589.16589,0,0,1-.05273-.126V37.90156a.163.163,0,0,1,.05273-.126.18.18,0,0,1,.12891-.04882h.79688a.16923.16923,0,0,1,.127.04882.167.167,0,0,1,.04883.126v3.38086a.17.17,0,0,1-.04883.126.173.173,0,0,1-.127.04882h-.79688A.18423.18423,0,0,1,32.61027,41.4084Z"/><path class="b" d="M37.14543,40.06758a.16651.16651,0,0,1-.05273-.12207V39.343a.16584.16584,0,0,1,.05273-.126.17684.17684,0,0,1,.123-.04883h1.75586V37.87324a.69917.69917,0,0,0-.791-.791h-.89453a.165.165,0,0,1-.127-.05273.17992.17992,0,0,1-.04883-.12891V36.298a.16585.16585,0,0,1,.05273-.126.17686.17686,0,0,1,.12305-.04883h.92969a2.27957,2.27957,0,0,1,1.48047.41309,1.63631,1.63631,0,0,1,.5,1.33691v1.29492H40.495a.16846.16846,0,0,1,.125.04883.17153.17153,0,0,1,.05078.126v.60254a.17233.17233,0,0,1-.05078.12207.16088.16088,0,0,1-.125.05273H37.26848A.16867.16867,0,0,1,37.14543,40.06758Z"/><path class="b" d="M32.288,50.07148a.16582.16582,0,0,1-.05274-.126V47.87324a.70207.70207,0,0,0-.791-.79785H30.37981a.16864.16864,0,0,1-.123-.05274.1723.1723,0,0,1-.05078-.12207V46.298a.1715.1715,0,0,1,.05078-.126.17684.17684,0,0,1,.123-.04883h1.10546a2.23034,2.23034,0,0,1,1.45313.39941,1.60974,1.60974,0,0,1,.48047,1.3086v2.11426a.179.179,0,0,1-.04883.12207.168.168,0,0,1-.127.05273h-.82617A.18418.18418,0,0,1,32.288,50.07148Z"/><path class="b" d="M34.26262,50.07148a.16582.16582,0,0,1-.05274-.126V46.298a.16582.16582,0,0,1,.05274-.126.18416.18416,0,0,1,.1289-.04883h.875a.16725.16725,0,0,1,.17383.1748v3.64747a.17035.17035,0,0,1-.04883.12207.16087.16087,0,0,1-.125.05273h-.875A.18416.18416,0,0,1,34.26262,50.07148Z"/><path class="b" d="M39.98723,46.54023a1.61648,1.61648,0,0,1,.48633,1.29785v2.10743a.17039.17039,0,0,1-.04883.12207.16377.16377,0,0,1-.125.05273h-.82617a.1856.1856,0,0,1-.13086-.04883.16582.16582,0,0,1-.05274-.126V47.87324a.70148.70148,0,0,0-.78906-.79785h-.45508a4.11983,4.11983,0,0,0-.10547,1.0293l.05469,1.84082a.1715.1715,0,0,1-.05078.126.18564.18564,0,0,1-.13086.04883L36.329,50.11347a.18419.18419,0,0,1-.1289-.04882.16586.16586,0,0,1-.05274-.126V49.385a.16586.16586,0,0,1,.05274-.126.1842.1842,0,0,1,.1289-.04883h.56836V48.11152a3.73766,3.73766,0,0,1,.10547-1.03613h-.41406a.1842.1842,0,0,1-.12891-.04883.16586.16586,0,0,1-.05273-.126V46.298a.16585.16585,0,0,1,.05273-.126.1842.1842,0,0,1,.12891-.04883h1.95313A2.16857,2.16857,0,0,1,39.98723,46.54023Z"/></svg>