<svg xmlns="http://www.w3.org/2000/svg" xmlns:xlink="http://www.w3.org/1999/xlink" viewBox="0 0 111.18134 73.36914"><defs><style>.a{fill:#1786e0;}.b{fill:#a2b4bc;}.c{fill:#8dc1f1;}.aj,.d{fill:#2d2a28;}.am,.ao,.ap,.ar,.at,.d,.e{stroke:#2d2a28;}.ah,.ai,.am,.ar,.at,.d,.t,.u,.v{stroke-linecap:round;}.ah,.ai,.am,.d{stroke-linejoin:round;}.am,.ao,.ap,.ar,.d,.e{stroke-width:1.23559px;}.al,.e{fill:#f6f6f6;}.ao,.ap,.ar,.at,.e,.i,.j,.k,.l,.m,.t,.u,.v{stroke-miterlimit:10;}.ar,.f{fill:#1286e9;}.g{fill:#31437c;}.h{clip-path:url(#a);}.ah,.ai,.am,.ap,.at,.i,.j,.k,.l,.m,.t,.u,.v{fill:none;}.i{stroke:#2174bf;}.i,.k,.m{stroke-width:0.78346px;}.j{stroke:#1496ed;}.j,.l,.u{stroke-width:0.75px;}.k{stroke:#207ee2;}.l{stroke:#417bd8;}.m{stroke:#1f99dc;}.n{fill:#2378dc;}.ad,.o{fill:#fff;}.p{fill:#ced3d6;}.q{fill:#1182c6;}.r{clip-path:url(#b);}.s{fill:#7eb0e1;}.t,.v{stroke:#9facb7;}.u{stroke:#8dc1f1;}.v{stroke-width:0.25px;}.w{fill:#9facb7;}.ab,.x{fill:#596168;}.x{opacity:0.42;}.y{clip-path:url(#c);}.ac,.z{fill:#9da8b2;}.aa{fill:#d0dae2;}.ac{opacity:0.46;}.ad{opacity:0.44;}.ae{clip-path:url(#d);}.af{fill:#0b76e0;}.ag{fill:#0097ea;}.ah,.ai{stroke:#e2e6e8;}.ah{stroke-width:2px;}.ak{clip-path:url(#e);}.an{clip-path:url(#f);}.ao{fill:#395dba;}.aq{clip-path:url(#g);}.as{fill:#1b46b5;}.at{stroke-width:1.85469px;}</style><clipPath id="a"><rect class="a" x="2.00003" y="1.99978" width="55.52488" height="69.36941"/></clipPath><clipPath id="b"><rect class="b" x="52.66874" y="25.62486" width="2.72055" height="22.11925" rx="1.36027"/></clipPath><clipPath id="c"><path class="c" d="M57.89345,29.78839a.25186.25186,0,0,1-.13281-.03809,7.70991,7.70991,0,0,0-3.21973-.75293c-.60742,0-1.626.05469-1.626.418a.25.25,0,0,1-.5,0c0-.81348,1.13575-.918,2.126-.918a8.1791,8.1791,0,0,1,3.48535.8291.25.25,0,0,1-.13281.46192Z"/></clipPath><clipPath id="d"><path class="c" d="M57.89345,44.21a.25185.25185,0,0,1-.13281-.03808,7.70975,7.70975,0,0,0-3.21973-.75293c-.60742,0-1.626.05469-1.626.418a.25.25,0,1,1-.5,0c0-.81348,1.13575-.918,2.126-.918a8.1791,8.1791,0,0,1,3.48535.8291.25.25,0,0,1-.13281.46191Z"/></clipPath><clipPath id="e"><path class="d" d="M37.31756,38.68613c-.30339,5.76879-2.776,8.38265-7.85813,8.39576-.989.00256-1.97685-.05846-2.96559-.07215-.57185-.00791-2.0545-.05475-2.0545-.05475s1.34295-2.99365-.23427-5.29281a.15833.15833,0,0,1-.03871-.11874c.016-.06946.1073-.084.17857-.08254,1.10874.02261,2.24342.068,3.35917.02886,3.51393-.12342,3.34034-.2956,6.69144-1.3832.63869-.20728,2.91289-.93463,2.9346-1.7383Q37.32591,38.52677,37.31756,38.68613Z"/></clipPath><clipPath id="f"><circle class="e" cx="37.33014" cy="31.65218" r="6.80231"/></clipPath><clipPath id="g"><ellipse class="e" cx="17.23049" cy="31.65218" rx="6.28925" ry="6.80231"/></clipPath></defs><rect class="f" x="1.00008" y="1.00001" width="109.18164" height="71.36914" rx="1"/><path class="g" d="M109.18136,1.99979V71.36921H2.00008V1.99979H109.18136m0-2H2.00008a2,2,0,0,0-2,2V71.36921a2,2,0,0,0,2,2H109.18136a2,2,0,0,0,2-2V1.99979a2,2,0,0,0-2-2Z"/><rect class="a" x="2.00003" y="1.99978" width="55.52488" height="69.36941"/><g class="h"><rect class="i" x="52.03722" y="1.99978" width="5.98824" height="69.36941"/></g><line class="j" x1="58.46366" y1="1.99978" x2="58.46366" y2="71.36919"/><line class="k" x1="59.40238" y1="1.99978" x2="59.40238" y2="71.36919"/><line class="l" x1="51.39405" y1="1.99978" x2="51.39405" y2="71.36919"/><line class="m" x1="2.00003" y1="70.9073" x2="57.52492" y2="70.9073"/><rect class="n" x="58.91575" y="8.30703" width="45.40564" height="60.28612"/><rect class="o" x="56.91575" y="6.30703" width="45.40564" height="60.28612"/><circle class="p" cx="58.1479" cy="44.074" r="0.68931"/><circle class="p" cx="58.1479" cy="29.54747" r="0.68931"/><rect class="q" x="52.41177" y="25.62486" width="3.23449" height="22.75093" rx="1.61724"/><rect class="b" x="52.66874" y="25.62486" width="2.72055" height="22.11925" rx="1.36027"/><g class="r"><path class="s" d="M53.73,46.62883a.72278.72278,0,0,1-.44169-.57165l.03443-19.28273.29441.52668Z"/><line class="t" x1="54.02902" y1="27.11379" x2="54.02902" y2="46.25518"/><line class="u" x1="54.02902" y1="27.11379" x2="54.02902" y2="46.25518"/><line class="v" x1="54.02902" y1="27.11379" x2="54.02902" y2="46.25518"/><path class="c" d="M54.02938,27.49805a.7081.7081,0,0,1-.707-.707v-.97754a.70654.70654,0,1,1,1.41308,0V26.791A.70726.70726,0,0,1,54.02938,27.49805Z"/><path class="w" d="M54.029,25.15668a.65648.65648,0,0,1,.6565.65644v.97827a.6565.6565,0,0,1-1.313,0v-.97827a.65647.65647,0,0,1,.65649-.65644m0-.1a.75728.75728,0,0,0-.75647.75641v.97827a.75647.75647,0,0,0,1.51294,0v-.97827a.75727.75727,0,0,0-.75647-.75641Z"/><circle class="s" cx="54.02902" cy="26.76249" r="0.2549"/><path class="c" d="M54.02938,48.26759a.70727.70727,0,0,1-.707-.70606V46.583a.70654.70654,0,0,1,1.41308,0v.97852A.70643.70643,0,0,1,54.02938,48.26759Z"/><path class="w" d="M54.029,45.92664a.65653.65653,0,0,1,.6565.6565v.97821a.6565.6565,0,0,1-1.313,0v-.97821a.65652.65652,0,0,1,.65649-.6565m0-.1a.75733.75733,0,0,0-.75647.75647v.97821a.75647.75647,0,0,0,1.51294,0v-.97821a.75733.75733,0,0,0-.75647-.75647Z"/><circle class="s" cx="54.02902" cy="46.61201" r="0.2549"/><rect class="c" x="54.72994" y="24.67989" width="0.43475" height="24.42126"/><rect class="c" x="52.78584" y="24.97131" width="0.43475" height="24.42126"/></g><path class="x" d="M52.94209,29.3909a5.80876,5.80876,0,0,1,1.84459.35519c.32541.26575-2.12118.198-2.30558-.07859S52.94209,29.3909,52.94209,29.3909Z"/><path class="c" d="M57.89345,29.78839a.25186.25186,0,0,1-.13281-.03809,7.70991,7.70991,0,0,0-3.21973-.75293c-.60742,0-1.626.05469-1.626.418a.25.25,0,0,1-.5,0c0-.81348,1.13575-.918,2.126-.918a8.1791,8.1791,0,0,1,3.48535.8291.25.25,0,0,1-.13281.46192Z"/><g class="y"><path class="z" d="M55.80493,28.49737a1.687,1.687,0,0,0,.52058.10182l.50012.20563-.125.66678-1.13776.06251Z"/><path class="z" d="M52.87958,28.63313s.1036.25967.88866.12113a2.92531,2.92531,0,0,0,1.44343-.49255c.13684-.17784.06-.28665.06-.28665L53.309,28.206Z"/><path class="aa" d="M54.852,28.4687a1.45566,1.45566,0,0,0-.30041.41037l-.15684.2569c-.01035.017-.04927.10823-.06944.11374l.15537-.04242a.73978.73978,0,0,0,.12723-.03781,1.10743,1.10743,0,0,0,.12182-.08154c.12633-.08448.2621-.14484.3907-.22382a.98659.98659,0,0,0,.22966-.259l.29619-.37014-.35572.08557c-.09012.02168-.18049.04251-.2704.065A.44826.44826,0,0,0,54.852,28.4687Z"/><path class="aa" d="M57.42557,29.31775a.37772.37772,0,0,1-.07762.07573c-.19567.14834-.41863.26429-.62326.40046l.68548-.27872a.95691.95691,0,0,0,.27677-.15081,1.0171,1.0171,0,0,0,.17985-.28988q.086-.15042.172-.30084a1.45176,1.45176,0,0,1-.21826.21028c-.09345.09086-.27358-.06484-.34067.07895-.0247.05293-.00276.10825-.01324.16226A.2274.2274,0,0,1,57.42557,29.31775Z"/><path class="aa" d="M52.54051,29.67782a.99628.99628,0,0,1,.50045-.98334l.597-.32486-.98774.12775-.6058.75023.18.38632Z"/><path class="ab" d="M57.70041,29.63456a8.56812,8.56812,0,0,0-3.71569-.70771c-.88052.06158-1.14551.24484-1.15062.4238s.092.21475.092.21475l4.61782.223Z"/><path class="s" d="M57.18839,29.60583a3.45661,3.45661,0,0,0,.59435.00479c.09913-.01275.229-.0448.23517-.16534a.27425.27425,0,0,0-.14186-.23527l.50011.20563-.125.66678-1.13777.06251Z"/><polygon class="ac" points="55.876 28.291 54.155 30.013 50.087 30.226 51.017 26.951 54.277 27.331 55.876 28.291"/><path class="ad" d="M56.76543,28.7022a.96873.96873,0,0,0,.50273.55029,3.957,3.957,0,0,0,.96471.17663l.197-.56387-1.59651-.89677Z"/><path class="ad" d="M53.1158,28.63933a5.02719,5.02719,0,0,1,1.17653-.14977c.10476-.00126.20957.00109.31412.00781a9.79569,9.79569,0,0,1,1.11341.10116q-.18715-.01567-.3745-.0292c-.2383-.01756-.47677-.03386-.71547-.04475-.09817-.00448-.1965-.00845-.29479-.00817a4.80382,4.80382,0,0,0-.52476.045Q53.46309,28.60063,53.1158,28.63933Z"/></g><ellipse class="ad" cx="52.59848" cy="29.18652" rx="0.21501" ry="0.08965" transform="translate(6.31287 67.6065) rotate(-68.7204)"/><path class="x" d="M52.94209,43.81253a5.80847,5.80847,0,0,1,1.84459.35519c.32541.26575-2.12118.198-2.30558-.0786S52.94209,43.81253,52.94209,43.81253Z"/><path class="c" d="M57.89345,44.21a.25185.25185,0,0,1-.13281-.03808,7.70975,7.70975,0,0,0-3.21973-.75293c-.60742,0-1.626.05469-1.626.418a.25.25,0,1,1-.5,0c0-.81348,1.13575-.918,2.126-.918a8.1791,8.1791,0,0,1,3.48535.8291.25.25,0,0,1-.13281.46191Z"/><g class="ae"><path class="z" d="M55.80493,42.919a1.687,1.687,0,0,0,.52058.10182l.50012.20563-.125.66678-1.13776.06251Z"/><path class="z" d="M52.87958,43.05475s.1036.25968.88866.12114a2.92542,2.92542,0,0,0,1.44343-.49255c.13684-.17785.06-.28665.06-.28665l-1.96265.2309Z"/><path class="aa" d="M54.852,42.89033a1.45566,1.45566,0,0,0-.30041.41037l-.15684.2569c-.01035.01694-.04927.10823-.06944.11374l.15537-.04243a.73889.73889,0,0,0,.12723-.03781,1.1046,1.1046,0,0,0,.12182-.08154c.12633-.08448.2621-.14483.3907-.22381a.98674.98674,0,0,0,.22966-.259l.29619-.37014-.35572.08557c-.09012.02167-.18049.0425-.2704.065A.44826.44826,0,0,0,54.852,42.89033Z"/><path class="aa" d="M57.42557,43.73937a.37747.37747,0,0,1-.07762.07573c-.19567.14834-.41863.2643-.62326.40047l.68548-.27873a.95664.95664,0,0,0,.27677-.1508,1.01729,1.01729,0,0,0,.17985-.28989q.086-.15041.172-.30083a1.45225,1.45225,0,0,1-.21826.21028c-.09345.09086-.27358-.06484-.34067.07895-.0247.05292-.00276.10825-.01324.16225A.22728.22728,0,0,1,57.42557,43.73937Z"/><path class="aa" d="M52.54051,44.09944a.99629.99629,0,0,1,.50045-.98334l.597-.32485-.98774.12775-.6058.75023.18.38631Z"/><path class="ab" d="M57.70041,44.05619a8.568,8.568,0,0,0-3.71569-.70771c-.88052.06158-1.14551.24484-1.15062.42379s.092.21475.092.21475l4.61782.223Z"/><path class="s" d="M57.18839,44.02746a3.45661,3.45661,0,0,0,.59435.00479c.09913-.01275.229-.04481.23517-.16535a.27427.27427,0,0,0-.14186-.23527l.50011.20563-.125.66678-1.13777.06252Z"/><polygon class="ac" points="55.876 42.713 54.155 44.434 50.087 44.647 51.017 41.372 54.277 41.753 55.876 42.713"/><path class="ad" d="M56.76543,43.12382a.96873.96873,0,0,0,.50273.55029,3.95671,3.95671,0,0,0,.96471.17664l.197-.56388-1.59651-.89676Z"/><path class="ad" d="M53.1158,43.061a5.02772,5.02772,0,0,1,1.17653-.14977c.10476-.00126.20957.0011.31412.00782a9.79569,9.79569,0,0,1,1.11341.10116q-.18715-.01567-.3745-.0292c-.2383-.01756-.47677-.03386-.71547-.04475-.09817-.00448-.1965-.00845-.29479-.00817a4.80628,4.80628,0,0,0-.52476.045Q53.46309,43.02227,53.1158,43.061Z"/></g><ellipse class="ad" cx="52.59848" cy="43.60815" rx="0.21501" ry="0.08965" transform="translate(-7.1255 76.79424) rotate(-68.7204)"/><path class="af" d="M51.40183,69.83589H4.37156a.69971.69971,0,0,1-.69971-.69971V3.96589a.94143.94143,0,0,1,.56983-.86H51.12156v.86H5.11024a.48868.48868,0,0,0-.48868.48869V68.18586a.7.7,0,0,0,.7.7h46.07Z"/><path class="ag" d="M59.832,3.10591v.87378h46.48406a.33868.33868,0,0,1,.33869.33869V68.18324a.70556.70556,0,0,1-.70556.70556H59.84129l-.00928.94758h47.0708a.70558.70558,0,0,0,.70557-.70557V3.64111a.55242.55242,0,0,0-.55262-.55242Z"/><line class="ah" x1="71.50238" y1="11.82274" x2="86.7351" y2="11.82274"/><line class="ah" x1="67.51255" y1="15.84119" x2="90.72494" y2="15.84119"/><line class="ai" x1="80.73186" y1="22.2389" x2="97.90085" y2="22.2389"/><line class="ai" x1="70.53425" y1="61.96206" x2="87.70324" y2="61.96206"/><line class="ai" x1="71.50238" y1="24.30771" x2="97.90085" y2="24.30771"/><line class="ai" x1="67.89661" y1="26.27991" x2="97.90085" y2="26.27991"/><line class="ai" x1="74.17179" y1="28.25211" x2="97.90085" y2="28.25211"/><line class="ai" x1="80.73186" y1="40.00693" x2="97.90085" y2="40.00693"/><line class="ai" x1="71.50238" y1="37.93812" x2="97.90085" y2="37.93812"/><line class="ai" x1="67.89661" y1="35.96592" x2="97.90085" y2="35.96592"/><line class="ai" x1="71.50238" y1="51.8195" x2="97.90085" y2="51.8195"/><line class="ai" x1="67.89661" y1="49.8473" x2="97.90085" y2="49.8473"/><line class="ai" x1="74.17179" y1="33.99372" x2="97.90085" y2="33.99372"/><line class="ah" x1="97.36362" y1="45.76394" x2="74.36583" y2="45.76394"/><path class="aj" d="M37.31756,38.68613c-.30339,5.76879-2.776,8.38265-7.85813,8.39576-.989.00256-1.97685-.05846-2.96559-.07215-.57185-.00791-2.0545-.05475-2.0545-.05475s1.34295-2.99365-.23427-5.29281a.15833.15833,0,0,1-.03871-.11874c.016-.06946.1073-.084.17857-.08254,1.10874.02261,2.24342.068,3.35917.02886,3.51393-.12342,3.34034-.2956,6.69144-1.3832.63869-.20728,2.91289-.93463,2.9346-1.7383Q37.32591,38.52677,37.31756,38.68613Z"/><g class="ak"><path class="al" d="M23.84772,43.9005S31.84,44.91019,37.33014,40.87144V38.36826L23.19452,41.69181Z"/></g><path class="am" d="M37.31756,38.68613c-.30339,5.76879-2.776,8.38265-7.85813,8.39576-.989.00256-1.97685-.05846-2.96559-.07215-.57185-.00791-2.0545-.05475-2.0545-.05475s1.34295-2.99365-.23427-5.29281a.15833.15833,0,0,1-.03871-.11874c.016-.06946.1073-.084.17857-.08254,1.10874.02261,2.24342.068,3.35917.02886,3.51393-.12342,3.34034-.2956,6.69144-1.3832.63869-.20728,2.91289-.93463,2.9346-1.7383Q37.32591,38.52677,37.31756,38.68613Z"/><circle class="al" cx="37.33014" cy="31.65218" r="6.80231"/><g class="an"><circle class="aj" cx="37.33014" cy="31.65218" r="1.83501"/><path class="ao" d="M31.47546,35.11366s.84471.669,5.35493.59505a23.286,23.286,0,0,0,7.83431-1.46555V44.89025H31.47546Z"/></g><circle class="ap" cx="37.33014" cy="31.65218" r="6.80231"/><ellipse class="al" cx="17.23049" cy="31.65218" rx="6.28925" ry="6.80231"/><g class="aq"><circle class="aj" cx="17.23049" cy="31.65218" r="1.83501"/><path class="ao" d="M11.87321,35.49229s.70316.669,4.87321.59505a20.874,20.874,0,0,0,7.32125-1.46555V45.26888H11.87321Z"/></g><ellipse class="ap" cx="17.23049" cy="31.65218" rx="6.28925" ry="6.80231"/><path class="ar" d="M25.77533,33.02535c-1.84531-1.3748-4.22125.0676-4.48816,2.20108-.30584,2.44463,2.50171,3.43551,4.48816,3.06722"/><path class="as" d="M67.10555,32.89649a.20291.20291,0,0,1-.0332-.19238l1.50781-7.09473a.30974.30974,0,0,1,.12109-.19824A.35316.35316,0,0,1,68.922,25.334h1.29687a.211.211,0,0,1,.18164.083.23481.23481,0,0,1,.03907.19238l-1.50782,7.09473a.3714.3714,0,0,1-.13086.19824.34184.34184,0,0,1-.209.07715H67.293A.22714.22714,0,0,1,67.10555,32.89649Z"/><path class="as" d="M76.836,25.41114a.24682.24682,0,0,1,.03906.19824l-.19922.94629a.33837.33837,0,0,1-.11523.19238.32843.32843,0,0,1-.22461.082h-.49609a2.21724,2.21724,0,0,0-.32422.56152,4.7548,4.7548,0,0,0-.248.78027l-.66992,3.20117a.27589.27589,0,0,1-.14453.1709.44773.44773,0,0,1-.23047.07129H72.93563a.18571.18571,0,0,1-.1582-.0664.2084.2084,0,0,1-.02735-.17579l.70313-3.32226a2.72666,2.72666,0,0,1,.48437-1.2207H71.418a.19953.19953,0,0,1-.16992-.07715.23066.23066,0,0,1-.03906-.19727l.19726-.94629a.34562.34562,0,0,1,.1211-.19238.33617.33617,0,0,1,.2207-.083h4.918A.20718.20718,0,0,1,76.836,25.41114Z"/><path class="as" d="M80.168,25.53809a1.50578,1.50578,0,0,1,.71484.86328,4.75351,4.75351,0,0,1,.19336,1.584l-.05468,3.35449a.23833.23833,0,0,1-.11133.19336.3782.3782,0,0,1-.23047.082h-1.375a.216.216,0,0,1-.17578-.07715.227.227,0,0,1-.04492-.19824l.01172-.80273a3.52043,3.52043,0,0,1-.748.52832,7.85586,7.85586,0,0,1-.88477.41211,4.81021,4.81021,0,0,1-.78711.22558l-.07617.01074c-.125,0-.17773-.05859-.1543-.17578l.24219-1.1875c.02149-.125.1211-.21679.29688-.27539l.21875-.0664q.08788-.03224.457-.13672a3.97622,3.97622,0,0,0,.59961-.21485,2.78284,2.78284,0,0,0,.84765-.59375l.00977-1.02343a1.96372,1.96372,0,0,0-.14258-.93457.65636.65636,0,0,0-.62695-.27539H77.963a.19953.19953,0,0,1-.16992-.07715.2307.2307,0,0,1-.03906-.19727l.209-1.01269a.3306.3306,0,0,1,.1211-.20313.33747.33747,0,0,1,.2207-.083h.42773A3.00733,3.00733,0,0,1,80.168,25.53809Z"/><path class="as" d="M82.00594,31.53809a.23209.23209,0,0,1-.03906-.19824l1.2207-5.73047a.30971.30971,0,0,1,.1211-.19824.35312.35312,0,0,1,.2207-.07715h1.375a.20716.20716,0,0,1,.16992.07715.24679.24679,0,0,1,.03906.19824l-1.21093,5.73047a.32788.32788,0,0,1-.1211.19336.33519.33519,0,0,1-.21875.082h-1.375A.21258.21258,0,0,1,82.00594,31.53809Z"/><path class="as" d="M92.15829,25.42188a.24087.24087,0,0,1,.02734.209l-.28516,1.38672a3.7338,3.7338,0,0,1-.56054,1.2871,3.6748,3.6748,0,0,1-1.23243,1.04493l.9336,1.88086a.19661.19661,0,0,1,.02344.15332.29262.29262,0,0,1-.10547.165.28371.28371,0,0,1-.18164.0664H89.42586a.32247.32247,0,0,1-.2207-.06055.61946.61946,0,0,1-.12109-.15918l-1.3418-2.7832a1.69192,1.69192,0,0,0-.50586.60449,2.94327,2.94327,0,0,0-.24219.72657l-.29687,1.375a.34878.34878,0,0,1-.1211.21484.34019.34019,0,0,1-.2207.082H85.27743a.20743.20743,0,0,1-.18164-.08789.27024.27024,0,0,1-.03711-.209l.29687-1.36426a4.48,4.48,0,0,1,.57617-1.51758,3.8869,3.8869,0,0,1,1.19336-1.10059l-.77929-1.61718a.18226.18226,0,0,1-.03321-.09864.26823.26823,0,0,1,.09375-.19824.28659.28659,0,0,1,.20313-.08789h1.29687a.315.315,0,0,1,.22656.07129.572.572,0,0,1,.11524.1709L89.49032,28.084a1.319,1.319,0,0,0,.49023-.4834,2.53389,2.53389,0,0,0,.21484-.627l.28516-1.34277a.3439.3439,0,0,1,.12109-.21387.33253.33253,0,0,1,.22071-.083h1.15429A.20746.20746,0,0,1,92.15829,25.42188Z"/><path class="as" d="M62.89461,44.73829a.23213.23213,0,0,1-.03906-.19824l.68164-3.21192a.31571.31571,0,0,1,.1211-.19726.33189.33189,0,0,1,.209-.07715h1.30859a.21278.21278,0,0,1,.18164.082.23557.23557,0,0,1,.03907.19238l-.68164,3.21192a.36009.36009,0,0,1-.3418.27539H63.07625A.21259.21259,0,0,1,62.89461,44.73829Zm4.02539,0a.23882.23882,0,0,1-.03906-.19824l.69336-3.25586a1.9694,1.9694,0,0,0,.04492-.40723q0-.84667-1.02343-.84668H64.088a.20806.20806,0,0,1-.18164-.082.22866.22866,0,0,1-.03906-.19238l.209-.94629a.30971.30971,0,0,1,.1211-.19824.35306.35306,0,0,1,.2207-.07715h2.5625a3.20393,3.20393,0,0,1,1.9082.47363,1.67986,1.67986,0,0,1,.64258,1.45117,3.9976,3.9976,0,0,1-.09765.83692l-.69336,3.24414a.31538.31538,0,0,1-.1211.19824.34741.34741,0,0,1-.2207.07715H67.10164A.21259.21259,0,0,1,66.92,44.73829Z"/><path class="as" d="M76.09383,38.61134a.24677.24677,0,0,1,.03906.19824l-.19921.94629a.33844.33844,0,0,1-.11524.19238.32842.32842,0,0,1-.22461.082h-.49609a2.21742,2.21742,0,0,0-.32422.56152,4.75492,4.75492,0,0,0-.24805.78028l-.66992,3.20117a.27586.27586,0,0,1-.14453.1709.44773.44773,0,0,1-.23047.07129H72.19344a.1857.1857,0,0,1-.1582-.06641.20841.20841,0,0,1-.02735-.17578L72.711,41.251a2.72683,2.72683,0,0,1,.48437-1.2207H70.67586a.19951.19951,0,0,1-.16992-.07715.23068.23068,0,0,1-.03906-.19726l.19726-.94629a.3457.3457,0,0,1,.1211-.19239.33616.33616,0,0,1,.2207-.083h4.918A.20712.20712,0,0,1,76.09383,38.61134Z"/><path class="as" d="M75.754,44.73829a.23207.23207,0,0,1-.03906-.19824l.19726-.94532a.31793.31793,0,0,1,.1211-.19824.33592.33592,0,0,1,.209-.07715H79.004l.42773-2.03515a1.769,1.769,0,0,0,.04492-.40723q0-.835-1.02343-.83594H77.05672a.21279.21279,0,0,1-.18164-.082.25417.25417,0,0,1-.03906-.20312l.19922-.94629a.36311.36311,0,0,1,.33984-.27539H78.838a3.48185,3.48185,0,0,1,1.96485.457,1.63994,1.63994,0,0,1,.66406,1.457,4.115,4.115,0,0,1-.09766.83594l-.4414,2.03515h.38672a.205.205,0,0,1,.17968.083.228.228,0,0,1,.03907.19238l-.19727.94532a.36007.36007,0,0,1-.3418.27539H75.92391A.19951.19951,0,0,1,75.754,44.73829Z"/><path class="as" d="M89.19539,38.61134a.23927.23927,0,0,1,.03711.19824l-.6914,3.25586A3.06919,3.06919,0,0,1,87.39657,43.875a5.09746,5.09746,0,0,1-2.34375.96289l-2.93555.59375h-.05664a.182.182,0,0,1-.15234-.07129.21125.21125,0,0,1-.03321-.18164l.19727-.957a.37591.37591,0,0,1,.30859-.29688L83.668,43.627l-.30859-4.65234a.88756.88756,0,0,1-.01172-.21973.29456.29456,0,0,1,.10547-.1543.26927.26927,0,0,1,.16992-.0664h1.42969a.22212.22212,0,0,1,.15429.0498.1492.1492,0,0,1,.05469.11524l.14258,4.50976a2.002,2.002,0,0,0,.95312-.627,2.66217,2.66217,0,0,0,.44532-1.06641l.57226-2.70605a.30966.30966,0,0,1,.1211-.19824.34771.34771,0,0,1,.21875-.07715h1.30859A.20837.20837,0,0,1,89.19539,38.61134Z"/><path class="as" d="M95.73446,39.002a1.73159,1.73159,0,0,1,.56054,1.41309,3.70444,3.70444,0,0,1-.08789.80371L95.504,44.54005a.36009.36009,0,0,1-.3418.27539H92.16024a.20572.20572,0,0,1-.17188-.07715.23859.23859,0,0,1-.03711-.19824l.19727-.94532a.31792.31792,0,0,1,.12109-.19824.33194.33194,0,0,1,.209-.07715h1.41992l.42773-2.01269a1.539,1.539,0,0,0,.04493-.374.86084.86084,0,0,0-.209-.61621.75407.75407,0,0,0-.57226-.21972h-.84766L90.86141,44.5293a.4022.4022,0,0,1-.13086.20411.34027.34027,0,0,1-.2207.082H89.24422a.23851.23851,0,0,1-.15429-.05469.16914.16914,0,0,1-.06446-.13184.31393.31393,0,0,1,.02149-.09961l2.002-4.42187h-.71484a.20806.20806,0,0,1-.18164-.082.25645.25645,0,0,1-.03907-.2041l.22071-1.01172a.3257.3257,0,0,1,.12109-.19239.33126.33126,0,0,1,.21875-.083h3.53125A2.31344,2.31344,0,0,1,95.73446,39.002Z"/><path class="at" d="M34.81857,18.42215s5.54318.334,8.38653,4.43645"/><path class="at" d="M19.53315,18.41777s-6.02626,1.021-7.66456,4.70754"/></svg>