<svg xmlns="http://www.w3.org/2000/svg" xmlns:xlink="http://www.w3.org/1999/xlink" viewBox="0 0 111.18134 73.36914"><defs><style>.a{fill:#1786e0;}.b{fill:#a2b4bc;}.c{fill:#8dc1f1;}.aj,.d{fill:#2d2a28;}.am,.ao,.ap,.ar,.at,.d,.e{stroke:#2d2a28;}.ah,.ai,.am,.ar,.at,.d,.t,.u,.v{stroke-linecap:round;}.ah,.ai,.am,.d{stroke-linejoin:round;}.am,.ao,.ap,.ar,.d,.e{stroke-width:1.23559px;}.al,.e{fill:#f6f6f6;}.ao,.ap,.ar,.at,.e,.i,.j,.k,.l,.m,.t,.u,.v{stroke-miterlimit:10;}.ar,.f{fill:#1286e9;}.g{fill:#31437c;}.h{clip-path:url(#a);}.ah,.ai,.am,.ap,.at,.i,.j,.k,.l,.m,.t,.u,.v{fill:none;}.i{stroke:#2174bf;}.i,.k,.m{stroke-width:0.78346px;}.j{stroke:#1496ed;}.j,.l,.u{stroke-width:0.75px;}.k{stroke:#207ee2;}.l{stroke:#417bd8;}.m{stroke:#1f99dc;}.n{fill:#2378dc;}.ad,.o{fill:#fff;}.p{fill:#ced3d6;}.q{fill:#1182c6;}.r{clip-path:url(#b);}.s{fill:#7eb0e1;}.t,.v{stroke:#9facb7;}.u{stroke:#8dc1f1;}.v{stroke-width:0.25px;}.w{fill:#9facb7;}.ab,.x{fill:#596168;}.x{opacity:0.42;}.y{clip-path:url(#c);}.ac,.z{fill:#9da8b2;}.aa{fill:#d0dae2;}.ac{opacity:0.46;}.ad{opacity:0.44;}.ae{clip-path:url(#d);}.af{fill:#0b76e0;}.ag{fill:#0097ea;}.ah,.ai{stroke:#e2e6e8;}.ah{stroke-width:2px;}.ak{clip-path:url(#e);}.an{clip-path:url(#f);}.ao{fill:#395dba;}.aq{clip-path:url(#g);}.as{fill:#1b46b5;}.at{stroke-width:1.85469px;}</style><clipPath id="a"><rect class="a" x="2.00003" y="1.99978" width="55.52488" height="69.36941"/></clipPath><clipPath id="b"><rect class="b" x="52.66874" y="25.62486" width="2.72055" height="22.11925" rx="1.36027"/></clipPath><clipPath id="c"><path class="c" d="M57.89345,29.78839a.25186.25186,0,0,1-.13281-.03809,7.70991,7.70991,0,0,0-3.21973-.75293c-.60742,0-1.626.05469-1.626.418a.25.25,0,0,1-.5,0c0-.81348,1.13575-.918,2.126-.918a8.1791,8.1791,0,0,1,3.48535.8291.25.25,0,0,1-.13281.46192Z"/></clipPath><clipPath id="d"><path class="c" d="M57.89345,44.21a.25185.25185,0,0,1-.13281-.03808,7.70975,7.70975,0,0,0-3.21973-.75293c-.60742,0-1.626.05469-1.626.418a.25.25,0,1,1-.5,0c0-.81348,1.13575-.918,2.126-.918a8.1791,8.1791,0,0,1,3.48535.8291.25.25,0,0,1-.13281.46191Z"/></clipPath><clipPath id="e"><path class="d" d="M37.31756,38.68613c-.30339,5.76879-2.776,8.38265-7.85813,8.39576-.989.00256-1.97685-.05846-2.96559-.07215-.57185-.00791-2.0545-.05475-2.0545-.05475s1.34295-2.99365-.23427-5.29281a.15833.15833,0,0,1-.03871-.11874c.016-.06946.1073-.084.17857-.08254,1.10874.02261,2.24342.068,3.35917.02886,3.51393-.12342,3.34034-.2956,6.69144-1.3832.63869-.20728,2.91289-.93463,2.9346-1.7383Q37.32591,38.52677,37.31756,38.68613Z"/></clipPath><clipPath id="f"><circle class="e" cx="37.33014" cy="31.65218" r="6.80231"/></clipPath><clipPath id="g"><ellipse class="e" cx="17.23049" cy="31.65218" rx="6.28925" ry="6.80231"/></clipPath></defs><rect class="f" x="0.99973" y="1.00001" width="109.18164" height="71.36914" rx="1"/><path class="g" d="M109.18137,1.99979V71.36921H2V1.99979h107.1814m0-2H2a2,2,0,0,0-2,2V71.36921a2,2,0,0,0,2,2h107.1814a2,2,0,0,0,2-2V1.99979a2,2,0,0,0-2-2Z"/><rect class="a" x="2.00003" y="1.99978" width="55.52488" height="69.36941"/><g class="h"><rect class="i" x="52.03722" y="1.99978" width="5.98824" height="69.36941"/></g><line class="j" x1="58.46366" y1="1.99978" x2="58.46366" y2="71.36919"/><line class="k" x1="59.40238" y1="1.99978" x2="59.40238" y2="71.36919"/><line class="l" x1="51.39405" y1="1.99978" x2="51.39405" y2="71.36919"/><line class="m" x1="2.00003" y1="70.9073" x2="57.52492" y2="70.9073"/><rect class="n" x="58.91575" y="8.30703" width="45.40564" height="60.28612"/><rect class="o" x="56.91575" y="6.30703" width="45.40564" height="60.28612"/><circle class="p" cx="58.1479" cy="44.074" r="0.68931"/><circle class="p" cx="58.1479" cy="29.54747" r="0.68931"/><rect class="q" x="52.41177" y="25.62486" width="3.23449" height="22.75093" rx="1.61724"/><rect class="b" x="52.66874" y="25.62486" width="2.72055" height="22.11925" rx="1.36027"/><g class="r"><path class="s" d="M53.73,46.62883a.72278.72278,0,0,1-.44169-.57165l.03443-19.28273.29441.52668Z"/><line class="t" x1="54.02902" y1="27.11379" x2="54.02902" y2="46.25518"/><line class="u" x1="54.02902" y1="27.11379" x2="54.02902" y2="46.25518"/><line class="v" x1="54.02902" y1="27.11379" x2="54.02902" y2="46.25518"/><path class="c" d="M54.029,27.49805a.70727.70727,0,0,1-.70606-.707v-.97754a.70606.70606,0,1,1,1.41211,0V26.791A.70726.70726,0,0,1,54.029,27.49805Z"/><path class="w" d="M54.029,25.15668a.65647.65647,0,0,1,.65649.65644v.97827a.6565.6565,0,0,1-1.313,0v-.97827a.65648.65648,0,0,1,.6565-.65644m0-.1a.75727.75727,0,0,0-.75647.75641v.97827a.75647.75647,0,0,0,1.51294,0v-.97827a.75728.75728,0,0,0-.75647-.75641Z"/><circle class="s" cx="54.02902" cy="26.76249" r="0.2549"/><path class="c" d="M54.029,48.26759a.70644.70644,0,0,1-.70606-.70606V46.583a.70606.70606,0,0,1,1.41211,0v.97852A.70643.70643,0,0,1,54.029,48.26759Z"/><path class="w" d="M54.029,45.92664a.65652.65652,0,0,1,.65649.6565v.97821a.6565.6565,0,0,1-1.313,0v-.97821a.65653.65653,0,0,1,.6565-.6565m0-.1a.75733.75733,0,0,0-.75647.75647v.97821a.75647.75647,0,0,0,1.51294,0v-.97821a.75733.75733,0,0,0-.75647-.75647Z"/><circle class="s" cx="54.02902" cy="46.61201" r="0.2549"/><rect class="c" x="54.72994" y="24.67989" width="0.43475" height="24.42126"/><rect class="c" x="52.78584" y="24.97131" width="0.43475" height="24.42126"/></g><path class="x" d="M52.94209,29.3909a5.80876,5.80876,0,0,1,1.84459.35519c.32541.26575-2.12118.198-2.30558-.07859S52.94209,29.3909,52.94209,29.3909Z"/><path class="c" d="M57.89345,29.78839a.25186.25186,0,0,1-.13281-.03809,7.70991,7.70991,0,0,0-3.21973-.75293c-.60742,0-1.626.05469-1.626.418a.25.25,0,0,1-.5,0c0-.81348,1.13575-.918,2.126-.918a8.1791,8.1791,0,0,1,3.48535.8291.25.25,0,0,1-.13281.46192Z"/><g class="y"><path class="z" d="M55.80493,28.49737a1.687,1.687,0,0,0,.52058.10182l.50012.20563-.125.66678-1.13776.06251Z"/><path class="z" d="M52.87958,28.63313s.1036.25967.88866.12113a2.92531,2.92531,0,0,0,1.44343-.49255c.13684-.17784.06-.28665.06-.28665L53.309,28.206Z"/><path class="aa" d="M54.852,28.4687a1.45566,1.45566,0,0,0-.30041.41037l-.15684.2569c-.01035.017-.04927.10823-.06944.11374l.15537-.04242a.73978.73978,0,0,0,.12723-.03781,1.10743,1.10743,0,0,0,.12182-.08154c.12633-.08448.2621-.14484.3907-.22382a.98659.98659,0,0,0,.22966-.259l.29619-.37014-.35572.08557c-.09012.02168-.18049.04251-.2704.065A.44826.44826,0,0,0,54.852,28.4687Z"/><path class="aa" d="M57.42557,29.31775a.37772.37772,0,0,1-.07762.07573c-.19567.14834-.41863.26429-.62326.40046l.68548-.27872a.95691.95691,0,0,0,.27677-.15081,1.0171,1.0171,0,0,0,.17985-.28988q.086-.15042.172-.30084a1.45176,1.45176,0,0,1-.21826.21028c-.09345.09086-.27358-.06484-.34067.07895-.0247.05293-.00276.10825-.01324.16226A.2274.2274,0,0,1,57.42557,29.31775Z"/><path class="aa" d="M52.54051,29.67782a.99628.99628,0,0,1,.50045-.98334l.597-.32486-.98774.12775-.6058.75023.18.38632Z"/><path class="ab" d="M57.70041,29.63456a8.56812,8.56812,0,0,0-3.71569-.70771c-.88052.06158-1.14551.24484-1.15062.4238s.092.21475.092.21475l4.61782.223Z"/><path class="s" d="M57.18839,29.60583a3.45661,3.45661,0,0,0,.59435.00479c.09913-.01275.229-.0448.23517-.16534a.27425.27425,0,0,0-.14186-.23527l.50011.20563-.125.66678-1.13777.06251Z"/><polygon class="ac" points="55.876 28.291 54.155 30.013 50.087 30.226 51.017 26.951 54.277 27.331 55.876 28.291"/><path class="ad" d="M56.76543,28.7022a.96873.96873,0,0,0,.50273.55029,3.957,3.957,0,0,0,.96471.17663l.197-.56387-1.59651-.89677Z"/><path class="ad" d="M53.1158,28.63933a5.02719,5.02719,0,0,1,1.17653-.14977c.10476-.00126.20957.00109.31412.00781a9.79569,9.79569,0,0,1,1.11341.10116q-.18715-.01567-.3745-.0292c-.2383-.01756-.47677-.03386-.71547-.04475-.09817-.00448-.1965-.00845-.29479-.00817a4.80382,4.80382,0,0,0-.52476.045Q53.46309,28.60063,53.1158,28.63933Z"/></g><ellipse class="ad" cx="52.59848" cy="29.18652" rx="0.21501" ry="0.08965" transform="translate(6.31287 67.6065) rotate(-68.7204)"/><path class="x" d="M52.94209,43.81253a5.80847,5.80847,0,0,1,1.84459.35519c.32541.26575-2.12118.198-2.30558-.0786S52.94209,43.81253,52.94209,43.81253Z"/><path class="c" d="M57.89345,44.21a.25185.25185,0,0,1-.13281-.03808,7.70975,7.70975,0,0,0-3.21973-.75293c-.60742,0-1.626.05469-1.626.418a.25.25,0,1,1-.5,0c0-.81348,1.13575-.918,2.126-.918a8.1791,8.1791,0,0,1,3.48535.8291.25.25,0,0,1-.13281.46191Z"/><g class="ae"><path class="z" d="M55.80493,42.919a1.687,1.687,0,0,0,.52058.10182l.50012.20563-.125.66678-1.13776.06251Z"/><path class="z" d="M52.87958,43.05475s.1036.25968.88866.12114a2.92542,2.92542,0,0,0,1.44343-.49255c.13684-.17785.06-.28665.06-.28665l-1.96265.2309Z"/><path class="aa" d="M54.852,42.89033a1.45566,1.45566,0,0,0-.30041.41037l-.15684.2569c-.01035.01694-.04927.10823-.06944.11374l.15537-.04243a.73889.73889,0,0,0,.12723-.03781,1.1046,1.1046,0,0,0,.12182-.08154c.12633-.08448.2621-.14483.3907-.22381a.98674.98674,0,0,0,.22966-.259l.29619-.37014-.35572.08557c-.09012.02167-.18049.0425-.2704.065A.44826.44826,0,0,0,54.852,42.89033Z"/><path class="aa" d="M57.42557,43.73937a.37747.37747,0,0,1-.07762.07573c-.19567.14834-.41863.2643-.62326.40047l.68548-.27873a.95664.95664,0,0,0,.27677-.1508,1.01729,1.01729,0,0,0,.17985-.28989q.086-.15041.172-.30083a1.45225,1.45225,0,0,1-.21826.21028c-.09345.09086-.27358-.06484-.34067.07895-.0247.05292-.00276.10825-.01324.16225A.22728.22728,0,0,1,57.42557,43.73937Z"/><path class="aa" d="M52.54051,44.09944a.99629.99629,0,0,1,.50045-.98334l.597-.32485-.98774.12775-.6058.75023.18.38631Z"/><path class="ab" d="M57.70041,44.05619a8.568,8.568,0,0,0-3.71569-.70771c-.88052.06158-1.14551.24484-1.15062.42379s.092.21475.092.21475l4.61782.223Z"/><path class="s" d="M57.18839,44.02746a3.45661,3.45661,0,0,0,.59435.00479c.09913-.01275.229-.04481.23517-.16535a.27427.27427,0,0,0-.14186-.23527l.50011.20563-.125.66678-1.13777.06252Z"/><polygon class="ac" points="55.876 42.713 54.155 44.434 50.087 44.647 51.017 41.372 54.277 41.753 55.876 42.713"/><path class="ad" d="M56.76543,43.12382a.96873.96873,0,0,0,.50273.55029,3.95671,3.95671,0,0,0,.96471.17664l.197-.56388-1.59651-.89676Z"/><path class="ad" d="M53.1158,43.061a5.02772,5.02772,0,0,1,1.17653-.14977c.10476-.00126.20957.0011.31412.00782a9.79569,9.79569,0,0,1,1.11341.10116q-.18715-.01567-.3745-.0292c-.2383-.01756-.47677-.03386-.71547-.04475-.09817-.00448-.1965-.00845-.29479-.00817a4.80628,4.80628,0,0,0-.52476.045Q53.46309,43.02227,53.1158,43.061Z"/></g><ellipse class="ad" cx="52.59848" cy="43.60815" rx="0.21501" ry="0.08965" transform="translate(-7.1255 76.79424) rotate(-68.7204)"/><path class="af" d="M51.40183,69.83589H4.37156a.69971.69971,0,0,1-.69971-.69971V3.96589a.94143.94143,0,0,1,.56983-.86H51.12156v.86H5.11024a.48868.48868,0,0,0-.48868.48869V68.18586a.7.7,0,0,0,.7.7h46.07Z"/><path class="ag" d="M59.832,3.10591v.87378h46.48406a.33868.33868,0,0,1,.33869.33869V68.18324a.70556.70556,0,0,1-.70556.70556H59.84129l-.00928.94758h47.0708a.70558.70558,0,0,0,.70557-.70557V3.64111a.55242.55242,0,0,0-.55262-.55242Z"/><line class="ah" x1="71.50238" y1="11.82274" x2="86.7351" y2="11.82274"/><line class="ah" x1="67.51255" y1="15.84119" x2="90.72494" y2="15.84119"/><line class="ai" x1="80.73186" y1="22.2389" x2="97.90085" y2="22.2389"/><line class="ai" x1="70.53425" y1="61.96206" x2="87.70324" y2="61.96206"/><line class="ai" x1="71.50238" y1="24.30771" x2="97.90085" y2="24.30771"/><line class="ai" x1="67.89661" y1="26.27991" x2="97.90085" y2="26.27991"/><line class="ai" x1="74.17179" y1="28.25211" x2="97.90085" y2="28.25211"/><line class="ai" x1="80.73186" y1="40.00693" x2="97.90085" y2="40.00693"/><line class="ai" x1="71.50238" y1="37.93812" x2="97.90085" y2="37.93812"/><line class="ai" x1="67.89661" y1="35.96592" x2="97.90085" y2="35.96592"/><line class="ai" x1="71.50238" y1="51.8195" x2="97.90085" y2="51.8195"/><line class="ai" x1="67.89661" y1="49.8473" x2="97.90085" y2="49.8473"/><line class="ai" x1="74.17179" y1="33.99372" x2="97.90085" y2="33.99372"/><line class="ah" x1="97.36362" y1="45.76394" x2="74.36583" y2="45.76394"/><path class="aj" d="M37.31756,38.68613c-.30339,5.76879-2.776,8.38265-7.85813,8.39576-.989.00256-1.97685-.05846-2.96559-.07215-.57185-.00791-2.0545-.05475-2.0545-.05475s1.34295-2.99365-.23427-5.29281a.15833.15833,0,0,1-.03871-.11874c.016-.06946.1073-.084.17857-.08254,1.10874.02261,2.24342.068,3.35917.02886,3.51393-.12342,3.34034-.2956,6.69144-1.3832.63869-.20728,2.91289-.93463,2.9346-1.7383Q37.32591,38.52677,37.31756,38.68613Z"/><g class="ak"><path class="al" d="M23.84772,43.9005S31.84,44.91019,37.33014,40.87144V38.36826L23.19452,41.69181Z"/></g><path class="am" d="M37.31756,38.68613c-.30339,5.76879-2.776,8.38265-7.85813,8.39576-.989.00256-1.97685-.05846-2.96559-.07215-.57185-.00791-2.0545-.05475-2.0545-.05475s1.34295-2.99365-.23427-5.29281a.15833.15833,0,0,1-.03871-.11874c.016-.06946.1073-.084.17857-.08254,1.10874.02261,2.24342.068,3.35917.02886,3.51393-.12342,3.34034-.2956,6.69144-1.3832.63869-.20728,2.91289-.93463,2.9346-1.7383Q37.32591,38.52677,37.31756,38.68613Z"/><circle class="al" cx="37.33014" cy="31.65218" r="6.80231"/><g class="an"><circle class="aj" cx="37.33014" cy="31.65218" r="1.83501"/><path class="ao" d="M31.47546,35.11366s.84471.669,5.35493.59505a23.286,23.286,0,0,0,7.83431-1.46555V44.89025H31.47546Z"/></g><circle class="ap" cx="37.33014" cy="31.65218" r="6.80231"/><ellipse class="al" cx="17.23049" cy="31.65218" rx="6.28925" ry="6.80231"/><g class="aq"><circle class="aj" cx="17.23049" cy="31.65218" r="1.83501"/><path class="ao" d="M11.87321,35.49229s.70316.669,4.87321.59505a20.874,20.874,0,0,0,7.32125-1.46555V45.26888H11.87321Z"/></g><ellipse class="ap" cx="17.23049" cy="31.65218" rx="6.28925" ry="6.80231"/><path class="ar" d="M25.77533,33.02535c-1.84531-1.3748-4.22125.0676-4.48816,2.20108-.30584,2.44463,2.50171,3.43551,4.48816,3.06722"/><path class="as" d="M65.96946,33.72364a.2198.2198,0,0,1-.03614-.21l1.64453-7.74024a.33958.33958,0,0,1,.13184-.21582.37536.37536,0,0,1,.24024-.084h1.415a.22756.22756,0,0,1,.19825.08984.2528.2528,0,0,1,.042.21l-1.64356,7.74024a.40419.40419,0,0,1-.14453.21582.36482.36482,0,0,1-.22754.084h-1.416A.24748.24748,0,0,1,65.96946,33.72364Z"/><path class="as" d="M76.58371,25.55762a.26038.26038,0,0,1,.042.21582l-.21582,1.03223a.38269.38269,0,0,1-.126.21.36234.36234,0,0,1-.24609.08985h-.54a2.39705,2.39705,0,0,0-.3545.61132,5.20519,5.20519,0,0,0-.26953.85254l-.73242,3.49219a.29924.29924,0,0,1-.15625.18555.48969.48969,0,0,1-.25195.07812H72.32981a.20238.20238,0,0,1-.17383-.07226.22818.22818,0,0,1-.03027-.19141l.76757-3.624a2.98087,2.98087,0,0,1,.52832-1.332h-2.748a.2247.2247,0,0,1-.18653-.084.26119.26119,0,0,1-.042-.21582l.2168-1.03223a.35854.35854,0,0,1,.13184-.21.36234.36234,0,0,1,.24023-.08984h5.36328A.222.222,0,0,1,76.58371,25.55762Z"/><path class="as" d="M80.21946,25.69532a1.64978,1.64978,0,0,1,.78027.94141,5.23352,5.23352,0,0,1,.21,1.72851l-.05957,3.66016a.26.26,0,0,1-.12012.21.41658.41658,0,0,1-.252.08984h-1.5a.24167.24167,0,0,1-.19238-.084.24841.24841,0,0,1-.04785-.21582l.01171-.876a3.8239,3.8239,0,0,1-.81543.57617,8.63033,8.63033,0,0,1-.96582.44922,5.14424,5.14424,0,0,1-.85839.2461l-.084.01269c-.13574,0-.19238-.06445-.168-.19238l.26367-1.2959c.02442-.13574.13282-.23633.32422-.29981l.24024-.07226q.09521-.03662.498-.15039a4.22847,4.22847,0,0,0,.6543-.2334,3.05728,3.05728,0,0,0,.92383-.64844l.01172-1.11621a2.15708,2.15708,0,0,0-.15625-1.01953.714.714,0,0,0-.6836-.2998h-.41992a.22466.22466,0,0,1-.18652-.084.26112.26112,0,0,1-.042-.21582l.22851-1.10449a.3876.3876,0,0,1,.37207-.31152H78.654A3.28948,3.28948,0,0,1,80.21946,25.69532Z"/><path class="as" d="M82.22336,32.24122a.25364.25364,0,0,1-.042-.21582l1.332-6.252a.33954.33954,0,0,1,.13184-.21582.37534.37534,0,0,1,.24023-.084h1.5a.22141.22141,0,0,1,.18555.084.26037.26037,0,0,1,.042.21582l-1.32031,6.252a.36149.36149,0,0,1-.13184.21.36925.36925,0,0,1-.24023.08984h-1.5A.23592.23592,0,0,1,82.22336,32.24122Z"/><path class="as" d="M93.29953,25.56934a.26057.26057,0,0,1,.0293.22754l-.31152,1.5127A4.036,4.036,0,0,1,92.405,28.7129a3.96884,3.96884,0,0,1-1.34375,1.14062l1.02051,2.05176a.21509.21509,0,0,1,.02344.168.30586.30586,0,0,1-.11426.17969.30955.30955,0,0,1-.19726.07226H90.31711a.34817.34817,0,0,1-.24023-.0664A.68192.68192,0,0,1,89.945,32.085l-1.46386-3.03613a1.86619,1.86619,0,0,0-.55176.66015,3.283,3.283,0,0,0-.26367.792l-.32422,1.5a.3809.3809,0,0,1-.13184.23438.36925.36925,0,0,1-.24023.08984H85.79368a.22465.22465,0,0,1-.19825-.0957.2937.2937,0,0,1-.042-.22852l.32422-1.4873a4.86683,4.86683,0,0,1,.62988-1.65625,4.20321,4.20321,0,0,1,1.30176-1.2002l-.85156-1.76367a.21217.21217,0,0,1-.03614-.1084.28915.28915,0,0,1,.10157-.21582.31589.31589,0,0,1,.22168-.0957h1.416a.33653.33653,0,0,1,.2461.07715.593.593,0,0,1,.126.18652l1.35645,2.73633a1.44576,1.44576,0,0,0,.53418-.52832,2.69006,2.69006,0,0,0,.2334-.68457l.3125-1.46387a.36957.36957,0,0,1,.13183-.2334.36423.36423,0,0,1,.24024-.08984h1.25976A.22355.22355,0,0,1,93.29953,25.56934Z"/><path class="as" d="M65.36985,46.64161a.25364.25364,0,0,1-.042-.21582l.74317-3.50391a.345.345,0,0,1,.13281-.21582.35917.35917,0,0,1,.22754-.084H67.8591a.22869.22869,0,0,1,.19825.08984.25632.25632,0,0,1,.042.21l-.74414,3.50391a.36149.36149,0,0,1-.13184.21.36925.36925,0,0,1-.24023.08984h-1.416A.23589.23589,0,0,1,65.36985,46.64161Zm4.3916,0a.26034.26034,0,0,1-.042-.21582l.75586-3.55176a2.146,2.146,0,0,0,.04785-.44434q0-.92431-1.11524-.92382H66.6716a.23114.23114,0,0,1-.19824-.08985.25707.25707,0,0,1-.042-.21l.22852-1.03222a.33952.33952,0,0,1,.13183-.21583.37536.37536,0,0,1,.24024-.084h2.79589a3.50053,3.50053,0,0,1,2.082.51563,1.83611,1.83611,0,0,1,.70117,1.584,4.36723,4.36723,0,0,1-.10742.91211l-.75586,3.54a.34782.34782,0,0,1-.13184.21582.38492.38492,0,0,1-.24023.084h-1.416A.23787.23787,0,0,1,69.76145,46.64161Z"/><path class="as" d="M78.4802,40.36524a1.82028,1.82028,0,0,1,.57617,1.46387,4.968,4.968,0,0,1-.12012,1.05664,4.4515,4.4515,0,0,1-1.43457,2.49609,6.27775,6.27775,0,0,1-2.53711,1.35547l-.5166.14453a.19047.19047,0,0,1-.2041-.07812.32235.32235,0,0,1-.04785-.2461l.25195-1.21191a.46062.46062,0,0,1,.13184-.22852.63824.63824,0,0,1,.252-.15527l.4082-.15625a2.589,2.589,0,0,0,1.00782-.6416,2.46147,2.46147,0,0,0,.57617-1.21875,3.186,3.186,0,0,0,.084-.59961.66983.66983,0,0,0-.24023-.582,1.4064,1.4064,0,0,0-.80371-.17383h-.31153l-1.60839-.01269a.219.219,0,0,1-.19239-.084.27092.27092,0,0,1-.03515-.21582l.57519-2.77148a.40068.40068,0,0,1,.14453-.21582.36117.36117,0,0,1,.22754-.084h1.2959a.22751.22751,0,0,1,.19824.08985.25276.25276,0,0,1,.042.21L75.91184,39.874H76.656A2.78278,2.78278,0,0,1,78.4802,40.36524Z"/><path class="as" d="M79.18137,46.64161a.26037.26037,0,0,1-.042-.21582l.21582-1.03223a.34785.34785,0,0,1,.13183-.21582.36949.36949,0,0,1,.22852-.084h3.01172L83.195,42.874a1.92959,1.92959,0,0,0,.04883-.44434q0-.91258-1.11621-.9121H80.60325a.22811.22811,0,0,1-.19727-.08985.2706.2706,0,0,1-.042-.22168l.21582-1.03222a.35856.35856,0,0,1,.13183-.21.36239.36239,0,0,1,.24024-.08984h1.5957a3.79063,3.79063,0,0,1,2.1416.498,1.78913,1.78913,0,0,1,.72657,1.58984,4.38816,4.38816,0,0,1-.1084.91211l-.4795,2.21973h.41993a.22927.22927,0,0,1,.19726.08984.25273.25273,0,0,1,.042.21l-.21582,1.03223a.36148.36148,0,0,1-.13183.21.3693.3693,0,0,1-.24024.08984H79.36789A.22471.22471,0,0,1,79.18137,46.64161Z"/><path class="as" d="M85.84739,48.9336a.24539.24539,0,0,1-.04786-.21582l1.23536-5.7959a.345.345,0,0,1,.13281-.21582.35917.35917,0,0,1,.22754-.084h1.37988a.22867.22867,0,0,1,.19824.08984.25624.25624,0,0,1,.042.21L87.779,48.71778a.33951.33951,0,0,1-.13184.21582.369.369,0,0,1-.22754.084H86.05149A.25527.25527,0,0,1,85.84739,48.9336Zm3.35351-2.12988a.30821.30821,0,0,1-.05371-.2461l.252-1.21191A.42363.42363,0,0,1,89.531,45.124a.8266.8266,0,0,1,.25195-.16211l.40821-.15625a2.65146,2.65146,0,0,0,1.01464-.6416,2.44047,2.44047,0,0,0,.582-1.21875,2.94612,2.94612,0,0,0,.07128-.57617.70181.70181,0,0,0-.24023-.59961,1.36756,1.36756,0,0,0-.80371-.17969H87.62375A.23.23,0,0,1,87.42551,41.5a.27654.27654,0,0,1-.042-.22266l.24023-1.11621a.32862.32862,0,0,1,.1377-.20313.38762.38762,0,0,1,.23437-.084h3.61133a2.79787,2.79787,0,0,1,1.83008.48535,1.81162,1.81162,0,0,1,.57031,1.458,5.13863,5.13863,0,0,1-.12011,1.06836,4.45157,4.45157,0,0,1-1.43458,2.49609,6.27777,6.27777,0,0,1-2.5371,1.35547l-.51661.14453A.18977.18977,0,0,1,89.2009,46.80372Z"/><path class="at" d="M34.81857,18.42215s5.54318.334,8.38653,4.43645"/><path class="at" d="M19.53315,18.41777s-6.02626,1.021-7.66456,4.70754"/></svg>