<svg xmlns="http://www.w3.org/2000/svg" viewBox="0 0 15.59523 15.51894"><defs><style>.a{opacity:0.5;}.b{fill:#878787;}.c{fill:#ededed;}.d{fill:#fff;}.e{fill:#dadada;}</style></defs><g class="a"><path class="b" d="M8.24513,15.495c.42006,0,.70163-1.59882,1.09863-1.67736.40916-.08095,1.39993,1.57584,1.77637,1.41971.38292-.15882-.28051-2.317.05984-2.54492.3429-.22961,1.84342.96575,2.13415.675s-.7096-1.6604-.48005-2.00333a4.99609,4.99609,0,0,0,.624-.90593c.15605-.37631,2.03252-.29369,2.11344-.70269.07854-.397-.42352-1.03624-.42352-1.4563a8.28622,8.28622,0,0,0,.06236-1.38484,7.88617,7.88617,0,0,0-.62328-1.24286A7.78712,7.78712,0,0,0,14.06659,4.408a8.19228,8.19228,0,0,0-.75412-1.17692c-.29076-.29072-1.48113.44224-1.824.21269-.34026-.22777-.16655-1.48885-.54934-1.64759-.37631-.15605-1.09776.61784-1.50676.53692-.397-.07854-.76713-1.28334-1.18719-1.28334s-.84158.945-1.23858,1.02349c-.40916.081-.43044,1.13161-.80688,1.28775-.38292.15882-.9831-.33125-1.32344-.10335-.3429.22961-1.53459-.44272-1.82532-.15195s-.228,1.07413-.45758,1.41705A7.31235,7.31235,0,0,0,2.054,5.73452a7.5794,7.5794,0,0,0-.62766,1.20874c-.07854.397.70368.93582.70368,1.35588S.85423,9.35565.93277,9.75266c.08094.40915,1.88427.35395,2.04041.73039A5.28172,5.28172,0,0,0,3.44,11.50973c.22961.3429-.19233,1.206.09844,1.49675s.26438,1.19733.60731,1.42688c.34025.22777,1.11266-.00716,1.49545.15157a7.29782,7.29782,0,0,0,1.28351.35353C7.32176,15.017,7.82507,15.495,8.24513,15.495Z"/></g><path class="c" d="M7.30247,13.31257c.42006,0,.997.714,1.394.6355.40916-.08094.85058-.52951,1.227-.68565.38292-.15882-.09579-1.80809.24455-2.036.3429-.22961,1.65738.81391,1.9481.52314s-.56025-1.47605-.3307-1.819c.22777-.34026,1.81781.06473,1.97654-.31806.15605-.37632-.22749-1.01111-.14658-1.42012a6.71867,6.71867,0,0,0-.00753-1.2558c0-.42006-.53909-.73512-.61763-1.13212-.08094-.40916.26848-.89441.11234-1.27085a6.19184,6.19184,0,0,0-.70592-1.0012c-.22961-.3429.102-1.21125-.18875-1.502s-1.61845.72733-1.96138.49777a4.48713,4.48713,0,0,0-.90064-.52581C8.96957,1.84638,9.0865.102,8.6775.02107c-.397-.07854-.955.22032-1.375.22032S6.68321,1.7559,6.2862,1.83444C5.877,1.91539,5.25739.93565,4.881,1.09178a6.28051,6.28051,0,0,0-1.01855.697c-.3429.22961-1.01394.113-1.30467.40374s.63448,1.503.40493,1.84589c-.22777.34025-.68123.37012-.84.75291-.15605.37631-.01588.68546-.09679,1.09446-.07854.397-1.56652.63072-1.56652,1.05079S-.05137,7.9858.02717,8.3828c.08094.40916,1.79753.3819,1.95366.75833.15882.38292-.39819,1.12566-.17029,1.466.22961.3429,1.41652-.17605,1.70729.11468s-.14124,1.34806.20169,1.57761c.34025.22777.34287,1.37533.72567,1.53407a8.81152,8.81152,0,0,0,1.41987.334C6.26207,14.24607,6.88241,13.31257,7.30247,13.31257Z"/><path class="d" d="M9.79008,10.75492a6.69584,6.69584,0,0,1-1.06576.56174c-.3461.082-.866-.70547-1.21771-.70985-.3539-.00441-.55941-.38874-.89811-.49842-.45517-.14741-1.41755.608-1.80136.32145C4.42767,10.1465,4.637,9.58927,4.29446,9.263c.12536.4367.722.12533.99325.48992.26912.36168.34.735.69016,1.01877.45122.36562.51126,1.59212,1.07009,1.75017a4.54869,4.54869,0,0,0,1.34839.15244c.37938-.0292.72588-.68056,1.09087-.81708.35679-.13344.40988-.78092.73486-.99151.3246-.21034.39841-.558.67347-.82032.13608-.12975,1.5383.25028,1.77457-.18473.26036-.47937-.12966-1.74571-.63794-1.78154-.326-.023-.56189,1.609-.80817,1.79786A8.443,8.443,0,0,1,9.79008,10.75492Z"/><path class="e" d="M5.03794,1.56679a2.64144,2.64144,0,0,0-1.26213.58165c-.38437.29168-.53949.771-.84122,1.14635-.2595.32282-1.25631.18641-1.46267.553-.20887.371.02825,1.016-.07246,1.41632a1.47712,1.47712,0,0,0,.0186.85465,1.33379,1.33379,0,0,1,.56343-.83583c.27216-.23868.84515-.11295,1.14216-.32028.29855-.20841.72949.06277,1.072-.06008.33859-.12143.4633-.268.82218-.24194a2.59489,2.59489,0,0,1,1.22944.25193c-.03349-.34289.20929-1.10918.01906-1.39643.14482-.29252-.01057.1063.31584.104.39591-.00276.81019-.60811,1.19253-.554.38318.0542,1.07976.69349,1.46611.76057a3.91759,3.91759,0,0,0-.95733-1.31913c-.27341-.25437-.32423-1.1008-.69112-1.26739a6.35164,6.35164,0,0,0-1.318-.1671C5.85262.99263,5.37536,1.51909,5.03794,1.56679Z"/><path class="e" d="M6.60662,6.44621a1.00584,1.00584,0,0,0-.64772-.06092.69082.69082,0,0,0-.35764.54548c-.005.18546.3688.275.4463.4436.11328.24637.09045.52278.33522.63945.04009.01911.03447-.07051.07873-.07416.05989-.005.11437.11643.16546.08478.31473-.19493.524.16014.82254.37909.22421.16445.55615.15758.775.32913A.43643.43643,0,0,0,8.87383,8.575c.07889-.12917-.26024-.40246-.20246-.54236.08339-.20191.70225-.463.91755-.5s.56969.61277.78176.56038c.47464-.11723.96692-1.01175.39235-1.34169a1.63608,1.63608,0,0,0-1.51374-.06056c-.43125.35609-.53642,1.55461-1.144,1.39939-.30411-.07768-.615-.48209-.90089-.70523C6.92186,7.16446,6.86606,6.60832,6.60662,6.44621Z"/><path class="d" d="M7.20016,5.87627a1.176,1.176,0,0,0,.147.667,2.079,2.079,0,0,0,.61251.76539c.33172.24825,1.19329.3615,1.00392-.21737a2.163,2.163,0,0,0-.792-.8237C7.82812,6.04087,7.39111,6.01775,7.20016,5.87627Z"/><path class="d" d="M1.99359,6.30535a3.55417,3.55417,0,0,0,.13348.97069,1.70177,1.70177,0,0,0,.42285.953c-.12354-.44332.31941-.785.62621-1.128.31518-.35239.368-.93947.68316-1.29186.04933-.05515.06218.04542.0769-.0271.03771-.18585.0753-.1443-.108-.19292-.3429-.09095-.41705-.301-.583-.57252C2.785,5.30235,2.09052,5.7636,1.99359,6.30535Z"/></svg>