<svg xmlns="http://www.w3.org/2000/svg" viewBox="0 0 13.53882 13.48682"><defs><style>.a{opacity:0.5;}.b{fill:#878787;}.c{fill:#ededed;}.d{fill:#fff;}.e{fill:#dadada;}</style></defs><g class="a"><path class="b" d="M.6167,4.9482c-.219.56222.84869,1.22751.81586,1.799-.034.59215-.86994,1.05415-.72189,1.61572.14952.56716.64156.85852.95823,1.35223A4.44591,4.44591,0,0,0,2.814,10.763c.44309.36226.95194.03121,1.51408.25015.56222.219.71717.73757,1.28863.7704.59214.034,1.14929.83664,1.71085.6886a5.65735,5.65735,0,0,0,1.51558-.87458c.48881-.31351.42551-1.06575.8009-1.5249a4.2224,4.2224,0,0,0,.59856-1.37537,3.83723,3.83723,0,0,0,.24492-1.43216c.034-.59214,1.92751-1.37776,1.77947-1.93933a7.69089,7.69089,0,0,0-.93-1.82259c-.31352-.48881-1.59389-.2748-2.053-.6502C8.84093,2.49071,8.80343,1.18469,8.24129.96576A7.21231,7.21231,0,0,0,6.23905.91127,6.91749,6.91749,0,0,0,4.29767.94308c-.56716.14952-.87652,1.13145-1.37024,1.44812-.48881.31351-.345,1.139-.72037,1.59813C1.8448,4.43241.83564,4.38606.6167,4.9482Z"/></g><path class="c" d="M.85806,3.60041c-.219.56222.64489,1.33272.61206,1.90418-.034.59215-.834,1.22317-.686,1.78474a6.16892,6.16892,0,0,0,.99466,1.5253c.31351.48881,1.18145.34772,1.64061.72311.44308.36226.54,1.073,1.10211,1.29189.56222.219,1.10917-.14942,1.68063-.11659.59214.034.82138-.57791,1.38294-.726.56717-.14952,1.84315,1.47313,2.33687,1.15647.4888-.31352-.374-2.07933.00134-2.53849.36226-.44308,1.645-.18587,1.86392-.748.219-.56222,1.47834-1.10375,1.51117-1.67522.034-.59214-2.25692-.98657-2.405-1.54814a3.70341,3.70341,0,0,0-.65977-1.25281c-.31351-.48881.92158-2.3644.46242-2.7398C10.253.27883,9.18893.50809,8.62679.28915A5.9927,5.9927,0,0,0,6.80384.20039C6.21169.16637,5.95752,1.49916,5.396,1.6472c-.56716.14952-1.19629-.49483-1.69-.17816A4.734,4.734,0,0,0,2.48083,2.51729C2.11858,2.96037,1.077,3.03827.85806,3.60041Z"/><path class="d" d="M2.91267,6.59338c-.06433-.94195-.162-2.26659.435-2.998C3.88268,2.94,5.58681,2.835,6.35282,2.476c-.80126-.07381-2.48719-.4124-3.18611-.01369-.4485.25585-.2971,1.37231-.60835,1.78429-.41866.55415-.968,1.07067-.97734,1.7659C1.572,6.68929,2.62589,7.08469,2.88307,7.71c.13367.325.91273,2.48538,1.28219,1.70422.12425-.26269-.69022-1.23647-.76721-1.50145A6.73735,6.73735,0,0,1,2.91267,6.59338Z"/><path class="e" d="M12.35209,5.81c.19833-.84344-.70092-1.88884-1.13318-2.63977-.27589-.47928-.89344-.68219-1.29225-1.06688-.40933-.39483-.34176-.1662-.89621-.28768.31728.21846.63035-.34152.76192.02054.22042.60655-.87878,1.38508-.89622,2.0302S9.91,5.49465,9.36031,5.83278c.29488.0829-.01044.27764.28892.21272.19562.21438.275.08439.17155.35554-.25121.65851.20675.87677-.15333,1.473.64623.09351.81254.42532,1.35023-.09956A5.37071,5.37071,0,0,0,12.35209,5.81Z"/><path class="e" d="M7.11638,5.43128c.12775-.10143.44251-.38564.46012-.55.01849-.17251-.612.04123-.762-.02228s-.15027-.47128-.31461-.45711c-.24019.0207-.15487.41933-.33381.59651-.02931.029-.21793-.22914-.23-.18921-.01638.054-.414.091-.40556.14584.05212.33773.39553,1.08.11459,1.27163-.211.144-.6679-.0971-.88289.03987s-.92758.66537-.78287.86789c.07877.11025.78-.27616.87474-.181a1.14968,1.14968,0,0,1,.33318.72343c-.04315.20032-.99562.24311-1.02509.44552-.066.453.7565,1.19072,1.22241.79268.34582-.29545.76452-.91766.66172-1.26772-.14423-.49112-.44128-.46578-.10705-.94843A5.94269,5.94269,0,0,1,7.11638,5.43128Z"/><path class="d" d="M7.4254,6.03835A1.17422,1.17422,0,0,0,6.79215,5.918a1.88649,1.88649,0,0,0-.82848.29821c-.31271.19472-.68823.93524-.14755.96513C6.25414,7.20556,7.06255,6.26674,7.4254,6.03835Z"/><path class="d" d="M8.62791,1.74725c-.22881-.13979-.59693.12154-.85717.05693-.322-.07993-.69768-.36644-1.0093-.25267a1.63539,1.63539,0,0,1,1.19925.62533c.19025.37482.33648.772.52672,1.14682.02978.05866-.04315.05756.01219.09315.1418.09121.06665.02679.16607-.10938.186-.25474.3493-.24069.62781-.29055A1.81537,1.81537,0,0,0,8.62791,1.74725Z"/></svg>