<svg xmlns="http://www.w3.org/2000/svg" viewBox="0 0 15.40538 15.19263"><defs><style>.a{opacity:0.5;}.b{fill:#878787;}.c{fill:#ededed;}.d{fill:#fff;}.e{fill:#dadada;}</style></defs><g class="a"><path class="b" d="M13.74139,8.18678c0-.42338-.31261-.71078-.40269-1.10689-.093-.40888.51131-1.01879.33328-1.38767a5.92657,5.92657,0,0,0-.83017-.97343c-.25841-.32352-.228-1.0343-.55158-1.29263-.322-.257-1.26695.46661-1.64174.2858-.36881-.17792-.32793-1.64634-.73671-1.73926-.39592-.09-.99444.174-1.4176.174-.42339,0-.79931.71623-1.19542.80631-.40888.093-.47895.81306-.84783.99109-.37485.18092-.17637.79775-.49834,1.05492-.32353.2584-.49111.24136-.74944.565-.257.32195-.5729.30119-.75371.676-.17792.36881-2.96294-.08105-3.05586.32773-.09.39592,1.49244,1.19594,1.49244,1.6191,0,.42339-1.18328,1.13307-1.0932,1.52918.093.40888.82255.84891,1.00058,1.21779.18091.37485.70792.709.96509,1.031.2584.32353,1.28706-.11615,1.61064.14218.322.257.156,1.28575.53085,1.46656.36881.17792,1.25815-1.42275,1.66693-1.32983.39592.09.5041,2.94552.92727,2.94552.42338,0,.64384-2.3621,1.03995-2.45218a3.893,3.893,0,0,0,.98164-.35236c.37486-.18091,1.05774.32349,1.37971.06632.32353-.25841,1.90156.49462,2.15989.171.257-.32195-1.07334-1.81256-.89254-2.18736.17792-.36881,2.16994-.25836,2.26286-.66714C15.51568,9.37154,13.74139,8.61,13.74139,8.18678Z"/></g><path class="c" d="M12.9069,7.09812c0-.42339,1.33112-1.16733,1.241-1.56344-.093-.40888-1.38485-.616-1.56288-.98484-.18092-.37486-1.19917-.18652-1.45633-.50849-.25841-.32353-.9213.06781-1.24489-.19052-.32195-.257-.33631-.47146-.7111-.65227-.36881-.17791.14949-3.10106-.25929-3.194-.39592-.09-1.19434,3.1042-1.61751,3.1042a2.82776,2.82776,0,0,0-.86736.19807c-.40887.093-1.245-1.537-1.61391-1.359-.37485.18091-1.29333-.24153-1.61531.01564-.32352.2584,1.27007,2.35283,1.01174,2.67642-.257.32195-1.72986-.32208-1.91066.05271a5.66582,5.66582,0,0,0-.53212,1.14393c-.09.39592-1.76309.83841-1.76309,1.26157,0,.42338,1.35405.93867,1.44414,1.33478.093.40888-.74348,1.38657-.56545,1.75545.18092.37486,2.28324-.32442,2.54041-.00244.2584.32352.30516.72158.62875.97991.322.257-.1203,1.95524.2545,2.136.36881.17791,1.28331-.61639,1.69209-.52347.39592.09.87311-1.51754,1.29627-1.51754.42339,0,1.01687,2.11777,1.413,2.02768.40887-.093.84339-.56381,1.21226-.74184.37486-.18091-.28306-1.85018.03892-2.10735.32352-.2584.68742-.14025.94575-.46383.257-.322,2.74961.64813,2.93041.27333.17792-.3688-1.06548-1.47126-.97256-1.88A5.946,5.946,0,0,0,12.9069,7.09812Z"/><path class="d" d="M11.13135,4.6859c.19777.42055-1.58867,1.42494-1.53463,1.88661.05455.466,1.71056,1.03852,1.566,1.48484-.12964.4003-1.02.54134-1.272.87887-.24918.33372-.14766.44791-.4346.74912.384-.11024-.29177-.96343.02887-1.202.31807-.23667,1.2423.33736,1.49182.02941.32153-.39682.1067-.978.24569-1.46943a2.04134,2.04134,0,0,0,.04256-1.11063c-.07908-.43641.07-.85046-.15262-1.25048-.21972-.39487.27394-1.42229-.03327-1.74447a6.31945,6.31945,0,0,0-1.06833-.82411c-.42158-.229-1.83842.3668-1.86994.8138-.02022.28672,1.71568.39738,1.88176.614C10.302,3.90568,10.93569,4.26985,11.13135,4.6859Z"/><path class="e" d="M1.65474,9.21952c.06069.42924.97037.78387,1.23292,1.12986a5.77,5.77,0,0,0,.86105,1.01854c.2839.22821.79352.1698,1.11593.35129a4.29963,4.29963,0,0,0,.96812.5397,6.47307,6.47307,0,0,0,1.69482.015,3.78877,3.78877,0,0,1-1.4509-.70252c-.2099-.23934-.57975-.36583-.76208-.627-.18328-.26256.34832-.83.24029-1.13118-.1068-.29776-.63834-.416-.61547-.73165.02328-.32127-.85689-.21435-.66255-.4711-.30155.02945.24738-.97562-.00523-.80832-.25726-.12736-.14959.21827-.15159-.06878-.00242-.34818-.26248-.71247-.21492-1.04871.04766-.337.35346-.702.41246-1.04179-.329.07624-.08074.87823-.32609,1.14195-.2237.24045-.501.21594-.64752.53859-.14335.3157-1.4104.29977-1.473.62764A5.59757,5.59757,0,0,0,1.65474,9.21952Z"/><path class="e" d="M7.14157,7.8831c-.08237.13182-.796.36978-.75268.51907.04546.15669.7344.349.8975.35347a1.87358,1.87358,0,0,0,.63828-.02377c.21666-.09962.25281-.59213.35542-.8074.0168-.03525.736-.1168.73282-.15573-.00435-.05267-.97387.11787-1.00169.07294-.17143-.27678.08-.832.27258-1.09451.14462-.19717.33574-.3498.4866-.54224s.16578-.346-.04291-.47343c-.1136-.06938-.27238.03871-.39541-.0121-.17757-.07334-.18673-.493-.21928-.68236s.46346-.50435.41739-.69085c-.1031-.41741-1.18411-.841-1.47427-.33568a1.75558,1.75558,0,0,0-.09281,1.47187c.31316.37926,1.60437.40618,1.46786.94053-.06832.26744-1.243-.03518-1.43919.21619C6.79782,6.88756,7.28413,7.65494,7.14157,7.8831Z"/><path class="d" d="M6.27575,7.2297c.21478.0226.4428-.153.637-.2475a1.682,1.682,0,0,0,.655-.50354c.21833-.29173.37052-1.0166-.13855-.85006-.20924.06845-.40741.4666-.61267.77755C6.61715,6.70808,6.40013,7.06183,6.27575,7.2297Z"/><path class="d" d="M6.82049,11.32141c.26107.04671.50368.306.76673.27209.32545-.0419.45552.09133.7019-.1254-.38987.10864-.7717-.21995-1.07337-.48977-.3099-.27718-.291-.922-.60088-1.19919-.0485-.04339-.16666-.21908-.23043-.232-.16344-.03317-.54294.36236-.5857.52356a.852.852,0,0,1-.41615.60059C5.63379,11.076,6.34406,11.23617,6.82049,11.32141Z"/></svg>