<svg xmlns="http://www.w3.org/2000/svg" xmlns:xlink="http://www.w3.org/1999/xlink" viewBox="0 0 689.34725 617.57916"><defs><style>.a{fill:url(#a);}.b{fill:url(#b);}.c{fill:url(#c);}.d{fill:url(#d);}.e{fill:url(#e);}.f{fill:url(#f);}</style><radialGradient id="a" cx="209.0028" cy="272.47177" r="52.14173" gradientUnits="userSpaceOnUse"><stop offset="0" stop-color="#fff"/><stop offset="1" stop-color="#eafbff"/></radialGradient><radialGradient id="b" cx="256.95386" cy="459.77673" r="52.73293" xlink:href="#a"/><radialGradient id="c" cx="487.67107" cy="379.02345" r="39.59152" xlink:href="#a"/><radialGradient id="d" cx="475.37613" cy="227.04769" r="25.159" xlink:href="#a"/><radialGradient id="e" cx="390.10428" cy="192.318" r="7.25332" xlink:href="#a"/><radialGradient id="f" cx="425.18033" cy="455.41506" r="5.5106" xlink:href="#a"/></defs><path class="a" d="M194.15085,240.0257c-.83342,4.00939-.70506,8.30549-2.54772,11.9626-3.37039,6.68915-11.74435,8.7061-18.04243,12.76054-18.1805,11.70379-15.60959,42.3058,1.73887,55.21083s42.67582,10.12615,61.02818-1.30626c4.2085-2.62164,8.38946-5.94573,9.9187-10.66228,2.31479-7.13942-2.14656-14.612-2.58073-22.10528-1.32035-22.79785,27.17187-42.407,4.473-62.62472C231.94678,208.83915,198.59115,218.66441,194.15085,240.0257Z"/><path class="b" d="M257.15675,491.43464c9.00364,5.48853,18.346,11.07077,28.787,12.54556s22.35951-2.22109,27.42416-11.47048c18.13492-33.12146-41.03521-45.25935-57.72778-56.288-16.25159-10.73732-41.46267-37.25138-56.43-6.79507C186.17518,455.95087,237.69629,479.57155,257.15675,491.43464Z"/><path class="c" d="M476.43425,361.716c-17.25944,2.82979-34.56713,19.49515-28.5502,35.91747,3.17233,8.65843,11.83413,14.17526,20.63158,16.93879,15.56566,4.88963,33.31294,2.79649,46.97617-6.12059,6.31279-4.11993,12.00941-10.15986,13.01828-17.6303.96648-7.15649-2.48346-14.06785-4.13112-21.09891-1.65579-7.06577,13.16411-38.30009-10.89588-25.97371-5.64114,2.89006-5.673,9.00528-10.05407,12.71184C496.41967,362.39077,485.00494,360.3109,476.43425,361.716Z"/><path class="d" d="M466.40694,232.19733c7.90512,7.04413,16.22183,14.3147,26.46625,16.991a9.88989,9.88989,0,0,0,5.83824.14512c3.88566-1.41672,5.04992-6.78145,3.27966-10.51931s-5.51532-6.10417-9.21724-7.94841c-3.70187-1.84421-7.65638-3.44517-10.55831-6.392-7.77736-7.89768-12.99326-26.11682-28.47757-18.10543C438.09989,214.45927,458.23793,224.91806,466.40694,232.19733Z"/><path class="e" d="M385.623,188.6707c-.83629-2.19816-4.70472-.571-4.594,1.77829s2.41223,3.94985,4.58905,4.8402a24.34529,24.34529,0,0,0,8.69581,1.80189,6.08212,6.08212,0,0,0,3.22038-.60377c2.66839-1.56155,1.86057-6.03274-.741-7.70319s-5.97009-1.34425-9.01614-.81482"/><path class="f" d="M425.40739,460.91774c5.05719-.84509,7.63232-8.0956,1.94574-10.64225C419.82257,446.90305,415.834,462.51742,425.40739,460.91774Z"/></svg>