<svg xmlns="http://www.w3.org/2000/svg" xmlns:xlink="http://www.w3.org/1999/xlink" viewBox="0 0 39.95281 21.08714"><defs><style>.a,.q{fill:#f6f6f6;}.a,.p,.s,.u,.v{stroke:#2d2a28;}.a,.i,.l,.m,.p,.u{stroke-miterlimit:10;}.a,.s,.u,.v{stroke-width:0.47723px;}.b,.s{fill:#662483;}.c{fill:#ffed00;}.d{fill:#dadada;}.e{fill:#9f6cba;}.f{fill:#fff;}.g{fill:#fcea10;}.h{fill:#1ac179;}.i,.l,.m,.n,.o,.p,.u,.v{fill:none;}.i{stroke:#17995e;}.i,.n,.o{stroke-width:0.18566px;}.j{fill:#c6c6c6;}.k{fill:#ededed;}.l,.m{stroke:#c6c6c6;}.l{stroke-width:0.09283px;}.m{stroke-width:0.04642px;}.n{stroke:#fcea10;}.n,.o,.p,.s,.v{stroke-linecap:round;}.n,.o,.s,.v{stroke-linejoin:round;}.o{stroke:#be1622;}.p{stroke-width:0.89481px;}.r{clip-path:url(#a);}.t{fill:#2d2a28;}.w{clip-path:url(#b);}</style><clipPath id="a"><circle class="a" cx="11.85157" cy="6.66466" r="2.62732"/></clipPath><clipPath id="b"><ellipse class="a" cx="4.08828" cy="6.66466" rx="2.42916" ry="2.62732"/></clipPath></defs><rect class="b" x="0.34354" y="6.29947" width="36.83087" height="14.70329"/><rect class="c" x="0.34354" y="14.42132" width="36.83087" height="6.58144"/><path class="b" d="M20.93181,16.34058a.0292.0292,0,0,1-.00977-.02051V15.741a.026.026,0,0,1,.00977-.02051.02568.02568,0,0,1,.01953-.00781h.252a.34276.34276,0,0,1,.22656.06348.26506.26506,0,0,1,.07422.209v.334a.02917.02917,0,0,1-.00976.0205.02329.02329,0,0,1-.01953.00879h-.52344A.02568.02568,0,0,1,20.93181,16.34058Zm.39257-.14355V15.991a.111.111,0,0,0-.125-.127H21.092v.333Z"/><path class="b" d="M21.633,16.07691a.02718.02718,0,0,1-.00781-.02051V15.741a.02462.02462,0,0,1,.00781-.02051.029.029,0,0,1,.01953-.00781h.14062a.02905.02905,0,0,1,.01954.00781.03267.03267,0,0,1,.00781.02051v.31543a.03475.03475,0,0,1-.00781.01953.026.026,0,0,1-.01954.00879h-.14062A.029.029,0,0,1,21.633,16.07691Z"/><path class="b" d="M22.22478,16.35425a.03136.03136,0,0,1-.00977-.02148v-.11328a.03019.03019,0,0,1,.00781-.02051.047.047,0,0,1,.01953-.01465l.03516-.01465a.19414.19414,0,0,0,.082-.05957.18534.18534,0,0,0,.0293-.1123.14423.14423,0,0,0-.02539-.09864.12244.12244,0,0,0-.0918-.02734h-.29492a.02727.02727,0,0,1-.02149-.00879.02461.02461,0,0,1-.00781-.02051V15.739a.0231.0231,0,0,1,.00781-.01856.03416.03416,0,0,1,.02149-.00781h.334a.27624.27624,0,0,1,.209.06934.30985.30985,0,0,1,.0625.21.32466.32466,0,0,1-.084.23144.447.447,0,0,1-.209.126l-.04492.01269A.0182.0182,0,0,1,22.22478,16.35425Zm-.26954.19824a.02379.02379,0,0,1-.00781-.01953v-.53808a.02379.02379,0,0,1,.00781-.01953.03038.03038,0,0,1,.02149-.00782h.127a.029.029,0,0,1,.01953.00782.0238.0238,0,0,1,.00782.01953V16.533a.0238.0238,0,0,1-.00782.01953.029.029,0,0,1-.01953.00782h-.127A.03038.03038,0,0,1,21.95524,16.55249Z"/><path class="b" d="M23.03923,15.72046a.02462.02462,0,0,1,.00781.02051v.0957a.02309.02309,0,0,1-.00781.01856.02472.02472,0,0,1-.02149.00879H22.967a.1737.1737,0,0,0-.01953.05664.32907.32907,0,0,0-.00781.0791V16.323a.0233.0233,0,0,1-.00977.01758.03872.03872,0,0,1-.02148.00781h-.13086a.0332.0332,0,0,1-.01758-.00683.02822.02822,0,0,1-.00586-.01856v-.33594a.25483.25483,0,0,1,.02149-.123h-.082a.02329.02329,0,0,1-.01954-.00879.02515.02515,0,0,1-.00976-.01856V15.741a.026.026,0,0,1,.00976-.02051.0257.0257,0,0,1,.01954-.00781h.32421A.03042.03042,0,0,1,23.03923,15.72046Z"/><path class="b" d="M23.16228,16.34058a.0292.0292,0,0,1-.00977-.02051V15.741a.026.026,0,0,1,.00977-.02051.02566.02566,0,0,1,.01953-.00781h.26367a.34929.34929,0,0,1,.23242.06543.26573.26573,0,0,1,.07422.21387v.32812a.02507.02507,0,0,1-.00781.01953.02329.02329,0,0,1-.01953.00879h-.13086a.03414.03414,0,0,1-.02149-.00781.03781.03781,0,0,1-.00781-.02051V15.991a.111.111,0,0,0-.125-.127H23.342v.45605a.03468.03468,0,0,1-.00781.01953.02727.02727,0,0,1-.02148.00879h-.13086A.02566.02566,0,0,1,23.16228,16.34058Z"/><path class="b" d="M24.59978,15.72046a.02465.02465,0,0,1,.00781.02051v.0957a.02838.02838,0,0,1-.02735.02735h-.05078a.17178.17178,0,0,0-.02148.05664.48354.48354,0,0,0-.00586.0791V16.323a.02088.02088,0,0,1-.01172.01758.03414.03414,0,0,1-.02148.00781H24.34a.03379.03379,0,0,1-.01953-.00683.02817.02817,0,0,1-.00586-.01856v-.33594a.255.255,0,0,1,.02148-.123h-.25195a.02329.02329,0,0,1-.01953-.00879.02516.02516,0,0,1-.00977-.01856V15.741a.026.026,0,0,1,.00977-.02051.02569.02569,0,0,1,.01953-.00781h.49609A.0257.0257,0,0,1,24.59978,15.72046Z"/><path class="b" d="M25.27751,15.72046a.02462.02462,0,0,1,.00781.02051v.3291a.24248.24248,0,0,1-.07617.18262.407.407,0,0,1-.2168.09766l-.2832.05957a.02276.02276,0,0,1-.02148-.00489.02222.02222,0,0,1-.00977-.0205v-.09668a.033.033,0,0,1,.00586-.01954.0389.0389,0,0,1,.01953-.01074l.123-.03027-.13086-.46973-.00586-.02246a.02168.02168,0,0,1,.02148-.02246h.14453a.029.029,0,0,1,.01758.00488l.00782.01172.11132.45508a.15664.15664,0,0,0,.084-.0625.23534.23534,0,0,0,.02148-.10742V15.741a.02465.02465,0,0,1,.00781-.02051.02905.02905,0,0,1,.01954-.00781H25.258A.02569.02569,0,0,1,25.27751,15.72046Z"/><path class="b" d="M25.65251,16.34058a.02718.02718,0,0,1-.00781-.02051V15.741a.02462.02462,0,0,1,.00781-.02051.03041.03041,0,0,1,.02148-.00781h.252a.33693.33693,0,0,1,.22461.06348.25847.25847,0,0,1,.07422.209v.334a.02839.02839,0,0,1-.0293.02929H25.674A.03041.03041,0,0,1,25.65251,16.34058Zm.39258-.14355V15.991a.111.111,0,0,0-.125-.127h-.10742v.333Z"/><path class="b" d="M26.35368,16.07691a.03781.03781,0,0,1-.00781-.02051V15.741a.03267.03267,0,0,1,.00781-.02051.03414.03414,0,0,1,.02149-.00781h.13867a.02569.02569,0,0,1,.01953.00781.02462.02462,0,0,1,.00781.02051v.31543a.02507.02507,0,0,1-.00781.01953.02329.02329,0,0,1-.01953.00879h-.13867A.03414.03414,0,0,1,26.35368,16.07691Z"/><path class="b" d="M26.672,16.07691a.03773.03773,0,0,1-.00781-.02051V15.741a.03261.03261,0,0,1,.00781-.02051.03414.03414,0,0,1,.02149-.00781h.13867a.02569.02569,0,0,1,.01953.00781.02462.02462,0,0,1,.00781.02051v.31543a.02507.02507,0,0,1-.00781.01953.02329.02329,0,0,1-.01953.00879h-.13867A.03414.03414,0,0,1,26.672,16.07691Z"/><path class="b" d="M27.36931,16.3396a.03031.03031,0,0,1-.02149.00879H26.9904a.02569.02569,0,0,1-.01953-.00781.0292.0292,0,0,1-.00977-.02051v-.0957a.0292.0292,0,0,1,.00977-.02051.02519.02519,0,0,1,.01953-.00683H27.176l-.00977-.21973a.203.203,0,0,0-.02344-.09375.07563.07563,0,0,0-.06836-.02832h-.05664a.026.026,0,0,1-.01953-.00879.0238.0238,0,0,1-.00781-.01953v-.09278a.0246.0246,0,0,1,.00781-.0205.02329.02329,0,0,1,.01953-.00879h.06055a.29644.29644,0,0,1,.21094.06543.30277.30277,0,0,1,.07226.21094l.01368.33886A.02364.02364,0,0,1,27.36931,16.3396Z"/><path class="b" d="M27.48845,16.34058a.02718.02718,0,0,1-.00782-.02051V15.741a.02462.02462,0,0,1,.00782-.02051.03041.03041,0,0,1,.02148-.00781h.13867a.029.029,0,0,1,.01953.00781.02462.02462,0,0,1,.00782.02051v.5791a.02508.02508,0,0,1-.00782.01953.026.026,0,0,1-.01953.00879h-.13867A.03041.03041,0,0,1,27.48845,16.34058Z"/><path class="b" d="M28.18962,16.3396a.02727.02727,0,0,1-.02149.00879h-.35546a.03042.03042,0,0,1-.02149-.00781.02718.02718,0,0,1-.00781-.02051v-.0957a.02718.02718,0,0,1,.00781-.02051.03.03,0,0,1,.02149-.00683h.18359l-.00977-.21973a.20642.20642,0,0,0-.02148-.09375.08188.08188,0,0,0-.07031-.02832h-.05664a.02941.02941,0,0,1-.01953-.00879.02381.02381,0,0,1-.00782-.01953v-.09278a.0246.0246,0,0,1,.00782-.0205.026.026,0,0,1,.01953-.00879h.06054a.2985.2985,0,0,1,.21289.06543.31214.31214,0,0,1,.07032.21094l.01562.33886A.02507.02507,0,0,1,28.18962,16.3396Z"/><path class="b" d="M28.30485,16.07691a.03781.03781,0,0,1-.00781-.02051V15.741a.03267.03267,0,0,1,.00781-.02051.03416.03416,0,0,1,.02149-.00781H28.465a.02569.02569,0,0,1,.01953.00781.02462.02462,0,0,1,.00781.02051v.31543a.02507.02507,0,0,1-.00781.01953.02329.02329,0,0,1-.01953.00879h-.13867A.03416.03416,0,0,1,28.30485,16.07691Z"/><path class="b" d="M28.60759,16.3396a.02507.02507,0,0,1-.00781-.01953v-.0957a.02718.02718,0,0,1,.00781-.02051.02816.02816,0,0,1,.01953-.00683h.2793V15.991a.112.112,0,0,0-.127-.126h-.14258a.02605.02605,0,0,1-.01953-.00878.03217.03217,0,0,1-.00781-.01954V15.741a.026.026,0,0,1,.00977-.02051.02445.02445,0,0,1,.01757-.00781h.14844a.37046.37046,0,0,1,.23633.06543.26223.26223,0,0,1,.07813.21289V16.197h.03906a.03.03,0,0,1,.02148.00683.03773.03773,0,0,1,.00781.02051v.0957a.03468.03468,0,0,1-.00781.01953.02727.02727,0,0,1-.02148.00879h-.51172A.026.026,0,0,1,28.60759,16.3396Z"/><path class="b" d="M29.49626,16.34058a.02718.02718,0,0,1-.00781-.02051V15.741a.02462.02462,0,0,1,.00781-.02051.03041.03041,0,0,1,.02148-.00781h.252a.33693.33693,0,0,1,.22461.06348.25847.25847,0,0,1,.07422.209v.334a.02839.02839,0,0,1-.0293.02929h-.52149A.03041.03041,0,0,1,29.49626,16.34058Zm.39258-.14355V15.991a.111.111,0,0,0-.125-.127h-.10742v.333Z"/><path class="b" d="M30.19938,16.07691a.02721.02721,0,0,1-.00781-.02051V15.741a.02465.02465,0,0,1,.00781-.02051.02905.02905,0,0,1,.01954-.00781h.14062a.029.029,0,0,1,.01953.00781.03261.03261,0,0,1,.00781.02051v.31543a.03468.03468,0,0,1-.00781.01953.026.026,0,0,1-.01953.00879h-.14062A.02905.02905,0,0,1,30.19938,16.07691Z"/><path class="b" d="M30.50017,16.3396a.02508.02508,0,0,1-.00782-.01953v-.0957a.02718.02718,0,0,1,.00782-.02051.02814.02814,0,0,1,.01953-.00683H30.799V15.991a.11066.11066,0,0,0-.125-.126h-.14257a.02331.02331,0,0,1-.01954-.00878.02385.02385,0,0,1-.00781-.01954V15.741a.02465.02465,0,0,1,.00781-.02051.02905.02905,0,0,1,.01954-.00781h.14843a.36445.36445,0,0,1,.23438.06543.26293.26293,0,0,1,.08008.21289V16.197h.03906a.02816.02816,0,0,1,.01953.00683.02718.02718,0,0,1,.00781.02051v.0957a.02507.02507,0,0,1-.00781.01953.026.026,0,0,1-.01953.00879H30.5197A.026.026,0,0,1,30.50017,16.3396Z"/><path class="b" d="M31.75017,16.325a.02658.02658,0,0,1-.00782.01562.02037.02037,0,0,1-.01562.00781h-.13867a.03686.03686,0,0,1-.0293-.01074l-.00977-.01172-.19531-.28222a.12776.12776,0,0,0-.03711.06152.30108.30108,0,0,0-.00976.07324v.13965a.028.028,0,0,1-.00782.02148.026.026,0,0,1-.01953.00879h-.10937a.03015.03015,0,0,1-.02735-.03027v-.1377a.38273.38273,0,0,1,.02539-.15429.27659.27659,0,0,1,.09571-.11133l-.11328-.16309a.02391.02391,0,0,1-.00586-.01562.02061.02061,0,0,1,.00781-.0166.023.023,0,0,1,.01562-.00684H31.299a.03751.03751,0,0,1,.02539.00684l.01563.01757.17969.25391a.106.106,0,0,0,.03906-.04883.2052.2052,0,0,0,.00781-.06347v-.13575a.02669.02669,0,0,1,.00781-.02148.026.026,0,0,1,.01954-.00879h.11718a.0303.0303,0,0,1,.02149.00879.02936.02936,0,0,1,.00781.02148v.13965a.28543.28543,0,0,1-.0293.12989.25937.25937,0,0,1-.10156.10546l.13477.19141A.02222.02222,0,0,1,31.75017,16.325Z"/><path class="b" d="M31.86735,16.34058a.02718.02718,0,0,1-.00781-.02051v-.10254a.02714.02714,0,0,1,.00781-.0205.03411.03411,0,0,1,.02149-.00782H32.049a.11952.11952,0,0,0,.13477-.126v-.06543a.11952.11952,0,0,0-.13477-.126h-.16015a.03031.03031,0,0,1-.02149-.00879.02461.02461,0,0,1-.00781-.02051V15.741a.02462.02462,0,0,1,.00781-.02051.03416.03416,0,0,1,.02149-.00781h.166a.27106.27106,0,0,1,.3086.28613c0,.00782.002.01856.002.03125a.34414.34414,0,0,1-.07422.23438.29851.29851,0,0,1-.23633.084h-.166A.03416.03416,0,0,1,31.86735,16.34058Z"/><path class="b" d="M32.85954,15.864h-.17773a.026.026,0,0,1-.01953-.00879.02309.02309,0,0,1-.00782-.01856V15.741a.02462.02462,0,0,1,.00782-.02051.029.029,0,0,1,.01953-.00781h.18359a.36089.36089,0,0,1,.23242.0625.25717.25717,0,0,1,.07422.209v.47364a.02462.02462,0,0,1-.00781.02051.02569.02569,0,0,1-.01953.00781h-.13086a.03416.03416,0,0,1-.02149-.00781.03267.03267,0,0,1-.00781-.02051V15.991A.111.111,0,0,0,32.85954,15.864Z"/><path class="b" d="M33.30681,16.34058a.02718.02718,0,0,1-.00782-.02051V15.741a.02462.02462,0,0,1,.00782-.02051.03041.03041,0,0,1,.02148-.00781H33.467a.029.029,0,0,1,.01953.00781.02462.02462,0,0,1,.00782.02051v.5791a.02508.02508,0,0,1-.00782.01953.026.026,0,0,1-.01953.00879h-.13867A.03041.03041,0,0,1,33.30681,16.34058Z"/><path class="b" d="M33.62712,16.34058a.02718.02718,0,0,1-.00781-.02051v-.10254a.02714.02714,0,0,1,.00781-.0205.03409.03409,0,0,1,.02148-.00782h.16016a.11952.11952,0,0,0,.13477-.126v-.06543a.11952.11952,0,0,0-.13477-.126H33.6486a.03029.03029,0,0,1-.02148-.00879.02461.02461,0,0,1-.00781-.02051V15.741a.02462.02462,0,0,1,.00781-.02051.03414.03414,0,0,1,.02148-.00781h.166a.27105.27105,0,0,1,.30859.28613c0,.00782.002.01856.002.03125a.34414.34414,0,0,1-.07422.23438.29853.29853,0,0,1-.23633.084h-.166A.03414.03414,0,0,1,33.62712,16.34058Z"/><path class="b" d="M34.23649,16.07691a.03781.03781,0,0,1-.00781-.02051V15.741a.03267.03267,0,0,1,.00781-.02051.03416.03416,0,0,1,.02149-.00781h.13867a.02568.02568,0,0,1,.01953.00781.02462.02462,0,0,1,.00781.02051v.31543a.02507.02507,0,0,1-.00781.01953.02327.02327,0,0,1-.01953.00879H34.258A.03416.03416,0,0,1,34.23649,16.07691Z"/><path class="b" d="M35.26774,15.72046a.02462.02462,0,0,1,.00782.02051v.291a.312.312,0,0,1-.166.28613.36285.36285,0,0,1-.16992.03906H34.8322a.32691.32691,0,0,1-.1543-.03515.24078.24078,0,0,1-.10156-.09278.25275.25275,0,0,1-.03516-.13086V15.741a.02462.02462,0,0,1,.00781-.02051.02905.02905,0,0,1,.01954-.00781h.11718a.03414.03414,0,0,1,.02149.00781.03267.03267,0,0,1,.00781.02051v.2666a.101.101,0,0,0,.084-.0459.21607.21607,0,0,0,.02539-.11621v-.10254a.02666.02666,0,0,1,.00782-.02148.03029.03029,0,0,1,.02148-.00879h.11524a.026.026,0,0,1,.01953.00879.02936.02936,0,0,1,.00781.02148v.1045a.29189.29189,0,0,1-.06445.20019.2866.2866,0,0,1-.1875.08594.16825.16825,0,0,0,.05664.05469.17072.17072,0,0,0,.07812.01855h.02539a.21624.21624,0,0,0,.10157-.02344.17841.17841,0,0,0,.07226-.06445.18577.18577,0,0,0,.02539-.09277V15.741a.02462.02462,0,0,1,.00781-.02051.02905.02905,0,0,1,.01954-.00781h.11718A.02566.02566,0,0,1,35.26774,15.72046Z"/><path class="b" d="M35.81462,15.782a.3002.3002,0,0,1,.06445.21.32465.32465,0,0,1-.084.23144.44706.44706,0,0,1-.209.126l-.04492.01269a.02114.02114,0,0,1-.02148-.00781.03136.03136,0,0,1-.00977-.02148v-.11328a.0446.0446,0,0,1,.00781-.02051.05962.05962,0,0,1,.02149-.01465l.03515-.01465a.177.177,0,0,0,.08008-.05957.18534.18534,0,0,0,.0293-.1123.1569.1569,0,0,0-.02344-.09864.12553.12553,0,0,0-.09179-.02734h-.0293l-.14844-.001a.02569.02569,0,0,1-.01953-.00781.02461.02461,0,0,1-.00781-.02051V15.5857a.02379.02379,0,0,1,.00781-.01953.02508.02508,0,0,1,.01953-.00782h.11914a.02669.02669,0,0,1,.02149.00782.03211.03211,0,0,1,.00781.01953v.127h.06836A.26847.26847,0,0,1,35.81462,15.782Z"/><path class="b" d="M22.16423,18.00855a.02646.02646,0,0,1-.00781-.01953v-.09571a.02715.02715,0,0,1,.00781-.0205.029.029,0,0,1,.01953-.00782h.2793v-.20507a.11066.11066,0,0,0-.125-.126h-.14258a.02327.02327,0,0,1-.01953-.00879.02461.02461,0,0,1-.00782-.02051v-.0957a.02381.02381,0,0,1,.00782-.01953.02507.02507,0,0,1,.01953-.00781h.14844a.35869.35869,0,0,1,.23437.06543.26155.26155,0,0,1,.08008.21289V17.865h.03906a.029.029,0,0,1,.01953.00782.02716.02716,0,0,1,.00782.0205V17.989a.02647.02647,0,0,1-.00782.01953.029.029,0,0,1-.01953.00781h-.51367A.029.029,0,0,1,22.16423,18.00855Z"/><path class="b" d="M22.81267,17.74488a.03211.03211,0,0,1-.00782-.01953v-.31641a.03209.03209,0,0,1,.00782-.01953.02936.02936,0,0,1,.02148-.00781h.13867a.02264.02264,0,0,1,.01953.00781.02381.02381,0,0,1,.00782.01953v.31641a.02647.02647,0,0,1-.00782.01953.02568.02568,0,0,1-.01953.00781h-.13867A.02936.02936,0,0,1,22.81267,17.74488Z"/><path class="b" d="M23.56657,18.00855a.03414.03414,0,0,1-.02148.00781h-.13867a.02508.02508,0,0,1-.01954-.00781.02383.02383,0,0,1-.00781-.01953l-.01758-.082a.27744.27744,0,0,1-.06445.05371.537.537,0,0,1-.08008.042.449.449,0,0,1-.07617.02246l-.00781.001a.01554.01554,0,0,1-.01758-.01758v-.12012a.02963.02963,0,0,1,.02148-.02734c.00586-.00293.02344-.00781.05079-.0166a.37824.37824,0,0,0,.07031-.02539.247.247,0,0,0,.07422-.06055l-.02149-.10352a.25957.25957,0,0,0-.03515-.09472.07989.07989,0,0,0-.06836-.02735h-.03907a.026.026,0,0,1-.01953-.00879.02506.02506,0,0,1-.00781-.01953V17.4021a.02715.02715,0,0,1,.00781-.0205.02566.02566,0,0,1,.01953-.00782h.043a.34108.34108,0,0,1,.15039.02832.21259.21259,0,0,1,.0918.08692.57846.57846,0,0,1,.05274.16015l.0664.33985A.01928.01928,0,0,1,23.56657,18.00855Z"/><path class="b" d="M24.22868,17.449a.27237.27237,0,0,1,.07031.2041V17.989a.02646.02646,0,0,1-.00781.01953.02568.02568,0,0,1-.01953.00781h-.30273a.03014.03014,0,0,1-.0293-.02734v-.09571a.03.03,0,0,1,.0293-.02832h.14257v-.20312a.137.137,0,0,0-.02734-.08984.09285.09285,0,0,0-.07227-.03223H23.924l-.09375.44824a.02919.02919,0,0,1-.00976.02051.02569.02569,0,0,1-.01953.00781h-.127a.03414.03414,0,0,1-.02148-.00781.02036.02036,0,0,1-.00586-.02051l.10938-.44726h-.07422a.026.026,0,0,1-.01953-.00879.02718.02718,0,0,1-.00782-.02051v-.10254a.02381.02381,0,0,1,.00782-.01953.025.025,0,0,1,.01953-.00781h.35742A.26449.26449,0,0,1,24.22868,17.449Z"/><path class="b" d="M24.66618,18.00855a.0238.0238,0,0,1-.00781-.01953v-.58008a.0238.0238,0,0,1,.00781-.01953.02668.02668,0,0,1,.02149-.00781h.13867a.02507.02507,0,0,1,.01953.00781.0238.0238,0,0,1,.00781.01953V17.989a.02646.02646,0,0,1-.00781.01953.029.029,0,0,1-.01953.00781h-.13867A.02668.02668,0,0,1,24.66618,18.00855Z"/><path class="b" d="M25.36735,18.00855a.03041.03041,0,0,1-.02148.00781H24.9904a.02666.02666,0,0,1-.02148-.00781.02381.02381,0,0,1-.00782-.01953v-.09571a.02716.02716,0,0,1,.00782-.0205.03036.03036,0,0,1,.02148-.00782H25.174l-.00976-.21875a.20647.20647,0,0,0-.02149-.09375.0819.0819,0,0,0-.07031-.02832h-.05664a.02942.02942,0,0,1-.01953-.00879.025.025,0,0,1-.00781-.01953V17.4021a.02715.02715,0,0,1,.00781-.0205.029.029,0,0,1,.01953-.00782h.06055a.29413.29413,0,0,1,.21289.06543.31124.31124,0,0,1,.07031.21l.01563.33985A.02647.02647,0,0,1,25.36735,18.00855Z"/><path class="b" d="M25.48259,17.74488a.0321.0321,0,0,1-.00781-.01953v-.31641a.03208.03208,0,0,1,.00781-.01953.02936.02936,0,0,1,.02148-.00781h.13867a.02266.02266,0,0,1,.01954.00781.02383.02383,0,0,1,.00781.01953v.31641a.0265.0265,0,0,1-.00781.01953.0257.0257,0,0,1-.01954.00781h-.13867A.02936.02936,0,0,1,25.48259,17.74488Z"/><path class="b" d="M26.39274,17.99292a.02913.02913,0,0,1-.00781.01661.01941.01941,0,0,1-.01562.00683h-.13868a.03389.03389,0,0,1-.02929-.01074l-.00977-.01074-.19531-.28223a.12355.12355,0,0,0-.03711.06152.29482.29482,0,0,0-.00977.07325v.13964a.028.028,0,0,1-.00781.02149.029.029,0,0,1-.01953.00781h-.10937a.026.026,0,0,1-.01954-.00879.0272.0272,0,0,1-.00781-.02051v-.13867a.38064.38064,0,0,1,.02539-.15332.27665.27665,0,0,1,.09571-.11133l-.11329-.16308a.024.024,0,0,1-.00585-.01563.02061.02061,0,0,1,.00781-.0166.01941.01941,0,0,1,.01562-.00683h.13086a.03758.03758,0,0,1,.02539.00683l.01563.01758.17969.25391a.10811.10811,0,0,0,.03906-.04981.1987.1987,0,0,0,.00781-.0625v-.13672a.028.028,0,0,1,.00781-.02148.029.029,0,0,1,.01953-.00781h.11719a.03034.03034,0,0,1,.02149.00878.02718.02718,0,0,1,.00781.02051v.14063a.28535.28535,0,0,1-.0293.12988.25764.25764,0,0,1-.10156.10449l.13476.19141A.02391.02391,0,0,1,26.39274,17.99292Z"/><path class="b" d="M27.22478,17.38941a.02383.02383,0,0,1,.00781.01953v.292a.31389.31389,0,0,1-.04492.17188.31.31,0,0,1-.1211.11425.35085.35085,0,0,1-.16992.03809h-.10742a.32651.32651,0,0,1-.1543-.03418.24278.24278,0,0,1-.10156-.09375.24678.24678,0,0,1-.03516-.12988v-.3584a.02381.02381,0,0,1,.00782-.01953.025.025,0,0,1,.01953-.00781h.11718a.02937.02937,0,0,1,.02149.00781.03214.03214,0,0,1,.00781.01953v.26758a.09948.09948,0,0,0,.084-.04688.21171.21171,0,0,0,.02539-.11621v-.10254a.028.028,0,0,1,.00781-.02148.03414.03414,0,0,1,.02148-.00781H26.926a.02605.02605,0,0,1,.01953.00878.02718.02718,0,0,1,.00781.02051v.10547a.29534.29534,0,0,1-.06445.2002.28129.28129,0,0,1-.1875.085.15165.15165,0,0,0,.05664.05469.15991.15991,0,0,0,.07812.01953h.02539a.21636.21636,0,0,0,.10157-.02344.17848.17848,0,0,0,.07226-.06445.18583.18583,0,0,0,.02539-.09278v-.28613a.02381.02381,0,0,1,.00782-.01953.025.025,0,0,1,.01953-.00781h.11718A.02266.02266,0,0,1,27.22478,17.38941Z"/><path class="b" d="M27.99626,18.00855a.03208.03208,0,0,1-.00781-.01953v-.3291a.111.111,0,0,0-.125-.127h-.25391a.02569.02569,0,0,1-.01953-.00781.02749.02749,0,0,1-.00977-.02051v-.0957a.02549.02549,0,0,1,.00977-.01953.02265.02265,0,0,1,.01953-.00781h.25977a.3418.3418,0,0,1,.23047.06738.272.272,0,0,1,.07812.21191V17.989a.02549.02549,0,0,1-.00977.01953.02262.02262,0,0,1-.01953.00781h-.13086A.02667.02667,0,0,1,27.99626,18.00855Zm-.40625,0a.02549.02549,0,0,1-.00977-.01953v-.3252a.02549.02549,0,0,1,.00977-.01953.02265.02265,0,0,1,.01953-.00781h.13086a.02665.02665,0,0,1,.02148.00781.03209.03209,0,0,1,.00782.01953v.3252a.0377.0377,0,0,1-.00782.01953.03038.03038,0,0,1-.02148.00781h-.13086A.02265.02265,0,0,1,27.59,18.00855Z"/><path class="b" d="M28.31071,18.00855A.02548.02548,0,0,1,28.301,17.989v-.58008a.02548.02548,0,0,1,.00976-.01953.02265.02265,0,0,1,.01953-.00781h.13868a.02667.02667,0,0,1,.02148.00781.03208.03208,0,0,1,.00781.01953V17.989a.03769.03769,0,0,1-.00781.01953.03041.03041,0,0,1-.02148.00781h-.13868A.02265.02265,0,0,1,28.31071,18.00855Z"/><path class="b" d="M28.6154,18.00855a.02646.02646,0,0,1-.00781-.01953v-.09571a.02715.02715,0,0,1,.00781-.0205.029.029,0,0,1,.01953-.00782h.2793v-.20507a.11066.11066,0,0,0-.125-.126h-.14258a.02329.02329,0,0,1-.01953-.00879.02461.02461,0,0,1-.00781-.02051v-.0957a.0238.0238,0,0,1,.00781-.01953.02507.02507,0,0,1,.01953-.00781h.14844a.35869.35869,0,0,1,.23437.06543.26155.26155,0,0,1,.08008.21289V17.865h.03906a.029.029,0,0,1,.01953.00782.02716.02716,0,0,1,.00782.0205V17.989a.02647.02647,0,0,1-.00782.01953.029.029,0,0,1-.01953.00781h-.51367A.029.029,0,0,1,28.6154,18.00855Z"/><path class="b" d="M29.70915,18.00855a.03414.03414,0,0,1-.02148.00781H29.549a.02507.02507,0,0,1-.01953-.00781.0238.0238,0,0,1-.00781-.01953l-.01758-.082a.27744.27744,0,0,1-.06445.05371.537.537,0,0,1-.08008.042.449.449,0,0,1-.07617.02246l-.00781.001a.01554.01554,0,0,1-.01758-.01758v-.12012a.02963.02963,0,0,1,.02148-.02734c.00586-.00293.02344-.00781.05078-.0166a.3781.3781,0,0,0,.07032-.02539.24714.24714,0,0,0,.07422-.06055l-.02149-.10352a.25936.25936,0,0,0-.03516-.09472.07986.07986,0,0,0-.06835-.02735h-.03907a.026.026,0,0,1-.01953-.00879.02506.02506,0,0,1-.00781-.01953V17.4021a.02715.02715,0,0,1,.00781-.0205.02566.02566,0,0,1,.01953-.00782h.043a.34108.34108,0,0,1,.15039.02832.21265.21265,0,0,1,.0918.08692.57849.57849,0,0,1,.05273.16015l.06641.33985A.01928.01928,0,0,1,29.70915,18.00855Z"/><path class="b" d="M30.02946,18.00855a.0238.0238,0,0,1-.00781-.01953v-.58008a.0238.0238,0,0,1,.00781-.01953.02668.02668,0,0,1,.02149-.00781h.252a.337.337,0,0,1,.22461.06347.2585.2585,0,0,1,.07422.209v.334a.02718.02718,0,0,1-.00781.02051.03042.03042,0,0,1-.02149.00781H30.051A.02668.02668,0,0,1,30.02946,18.00855ZM30.422,17.865v-.20507a.111.111,0,0,0-.125-.127h-.10742v.332Z"/><path class="b" d="M30.73649,18.00855a.02548.02548,0,0,1-.00976-.01953v-.58008a.02548.02548,0,0,1,.00976-.01953.02266.02266,0,0,1,.01954-.00781h.13867a.02667.02667,0,0,1,.02148.00781.03208.03208,0,0,1,.00781.01953V17.989a.03769.03769,0,0,1-.00781.01953.03041.03041,0,0,1-.02148.00781H30.756A.02266.02266,0,0,1,30.73649,18.00855Z"/><path class="b" d="M31.06267,18.00855a.02381.02381,0,0,1-.00782-.01953v-.58008a.02381.02381,0,0,1,.00782-.01953.02666.02666,0,0,1,.02148-.00781h.26172a.34776.34776,0,0,1,.23242.06445.26982.26982,0,0,1,.07617.21484V17.989a.02646.02646,0,0,1-.00781.01953.029.029,0,0,1-.01953.00781h-.13281a.025.025,0,0,1-.01953-.00781A.02381.02381,0,0,1,31.467,17.989v-.3291a.11235.11235,0,0,0-.127-.127h-.09766V17.989a.02646.02646,0,0,1-.00781.01953.029.029,0,0,1-.01953.00781h-.13086A.02666.02666,0,0,1,31.06267,18.00855Z"/><path class="b" d="M32.60563,17.448a.25782.25782,0,0,1,.07618.20606v.335a.02647.02647,0,0,1-.00782.01953.02566.02566,0,0,1-.01953.00781H32.5236a.02936.02936,0,0,1-.02148-.00781.0238.0238,0,0,1-.00781-.01953v-.3291a.11175.11175,0,0,0-.125-.127H32.297a.61924.61924,0,0,0-.01758.16309l.00977.293a.02549.02549,0,0,1-.00977.01953.02507.02507,0,0,1-.01953.00781l-.23633-.001a.03408.03408,0,0,1-.02148-.00781.03208.03208,0,0,1-.00781-.01953v-.08789a.035.035,0,0,1,.00781-.02051.03414.03414,0,0,1,.02148-.00781h.08985V17.697A.5423.5423,0,0,1,32.131,17.533h-.06641a.02568.02568,0,0,1-.01953-.00781.02749.02749,0,0,1-.00977-.02051v-.0957a.02549.02549,0,0,1,.00977-.01953.02264.02264,0,0,1,.01953-.00781h.31055A.3452.3452,0,0,1,32.60563,17.448Z"/><path class="b" d="M33.30485,17.38941a.02381.02381,0,0,1,.00782.01953v.0957a.02507.02507,0,0,1-.00782.01953.026.026,0,0,1-.01953.00879h-.05273a.16557.16557,0,0,0-.01953.05664.32913.32913,0,0,0-.00782.07911V17.992a.02332.02332,0,0,1-.00976.01758.042.042,0,0,1-.02149.00683h-.13086a.02088.02088,0,0,1-.01757-.00683.02476.02476,0,0,1-.00782-.01758V17.656a.22973.22973,0,0,1,.02344-.123h-.2539a.026.026,0,0,1-.01954-.00879.02506.02506,0,0,1-.00781-.01953v-.0957a.0238.0238,0,0,1,.00781-.01953.02508.02508,0,0,1,.01954-.00781h.498A.02507.02507,0,0,1,33.30485,17.38941Z"/><path class="b" d="M33.72282,18.00855A.0238.0238,0,0,1,33.715,17.989v-.3291a.11235.11235,0,0,0-.127-.127h-.168a.026.026,0,0,1-.01953-.00879.02507.02507,0,0,1-.00782-.01953v-.0957a.02381.02381,0,0,1,.00782-.01953.02507.02507,0,0,1,.01953-.00781h.17578a.34911.34911,0,0,1,.23047.06347.25555.25555,0,0,1,.07617.208V17.989a.02646.02646,0,0,1-.00781.01953.029.029,0,0,1-.01953.00781h-.13086A.02668.02668,0,0,1,33.72282,18.00855Z"/><path class="b" d="M34.03728,18.00855a.02549.02549,0,0,1-.00977-.01953v-.58008a.02549.02549,0,0,1,.00977-.01953.02262.02262,0,0,1,.01953-.00781h.13867a.02667.02667,0,0,1,.02148.00781.03209.03209,0,0,1,.00782.01953V17.989a.0377.0377,0,0,1-.00782.01953.03041.03041,0,0,1-.02148.00781h-.13867A.02262.02262,0,0,1,34.03728,18.00855Z"/><path class="b" d="M34.77165,18.00855a.0238.0238,0,0,1-.00781-.01953v-.3291a.11175.11175,0,0,0-.125-.127h-.25391a.03041.03041,0,0,1-.02148-.00781.02585.02585,0,0,1-.00782-.02051v-.0957a.02381.02381,0,0,1,.00782-.01953.02667.02667,0,0,1,.02148-.00781h.25781a.34749.34749,0,0,1,.23243.06738.27131.27131,0,0,1,.07617.21191V17.989a.02383.02383,0,0,1-.00781.01953.02668.02668,0,0,1-.02149.00781h-.13086A.02507.02507,0,0,1,34.77165,18.00855Zm-.4082,0a.02381.02381,0,0,1-.00782-.01953v-.3252a.02381.02381,0,0,1,.00782-.01953.02667.02667,0,0,1,.02148-.00781h.13086a.02507.02507,0,0,1,.01953.00781.0238.0238,0,0,1,.00781.01953v.3252a.02646.02646,0,0,1-.00781.01953.029.029,0,0,1-.01953.00781h-.13086A.02667.02667,0,0,1,34.36345,18.00855Z"/><path class="b" d="M35.48649,17.45093a.29857.29857,0,0,1,.06446.21.3247.3247,0,0,1-.084.23145.43772.43772,0,0,1-.209.125l-.04492.01367a.02118.02118,0,0,1-.02149-.00781.03364.03364,0,0,1-.00976-.02246v-.11231a.04457.04457,0,0,1,.00781-.02051.05952.05952,0,0,1,.02148-.01464l.03516-.01465a.18437.18437,0,0,0,.08008-.05957.18657.18657,0,0,0,.02929-.11328.15558.15558,0,0,0-.02343-.09766.12135.12135,0,0,0-.0918-.02734h-.0293l-.14843-.001a.0257.0257,0,0,1-.01954-.00781.02721.02721,0,0,1-.00781-.02051v-.25684a.02721.02721,0,0,1,.00781-.02051.02817.02817,0,0,1,.01954-.00683h.11914a.03.03,0,0,1,.02148.00683.03773.03773,0,0,1,.00781.02051v.127h.06836A.26843.26843,0,0,1,35.48649,17.45093Z"/><path class="b" d="M35.66813,18.00855a.02551.02551,0,0,1-.00976-.01953v-.58008a.02551.02551,0,0,1,.00976-.01953.02266.02266,0,0,1,.01954-.00781h.13867a.02667.02667,0,0,1,.02148.00781.03208.03208,0,0,1,.00781.01953V17.989a.03769.03769,0,0,1-.00781.01953.03041.03041,0,0,1-.02148.00781h-.13867A.02266.02266,0,0,1,35.66813,18.00855Z"/><path class="b" d="M26.11345,19.67749a.02594.02594,0,0,1-.00977-.0205v-.57911a.02918.02918,0,0,1,.00977-.0205.02565.02565,0,0,1,.01953-.00782h.252a.33734.33734,0,0,1,.22656.06446.26506.26506,0,0,1,.07422.209v.333a.026.026,0,0,1-.00976.02051.02329.02329,0,0,1-.01953.00879H26.133A.02565.02565,0,0,1,26.11345,19.67749Zm.39258-.14355v-.20606a.11066.11066,0,0,0-.125-.126H26.2736v.332Z"/><path class="b" d="M26.81462,19.41382a.02461.02461,0,0,1-.00781-.02051v-.31543a.02715.02715,0,0,1,.00781-.0205.029.029,0,0,1,.01953-.00782h.14063a.029.029,0,0,1,.01953.00782.03778.03778,0,0,1,.00781.0205v.31543a.03217.03217,0,0,1-.00781.01954.026.026,0,0,1-.01953.00878h-.14063A.029.029,0,0,1,26.81462,19.41382Z"/><path class="b" d="M27.43767,19.67749a.03256.03256,0,0,1-.00782-.0205v-.32911a.11066.11066,0,0,0-.125-.126h-.16992a.026.026,0,0,1-.01953-.00879.02507.02507,0,0,1-.00781-.01953v-.09571a.02715.02715,0,0,1,.00781-.0205.029.029,0,0,1,.01953-.00782h.17578a.349.349,0,0,1,.23047.06446.25467.25467,0,0,1,.07617.207V19.657a.02382.02382,0,0,1-.00781.01953.02329.02329,0,0,1-.01953.00879h-.13086A.03409.03409,0,0,1,27.43767,19.67749Z"/><path class="b" d="M27.75212,19.67749a.02458.02458,0,0,1-.00781-.0205v-.57911a.02715.02715,0,0,1,.00781-.0205.03037.03037,0,0,1,.02148-.00782h.26172a.34764.34764,0,0,1,.23242.06543.26892.26892,0,0,1,.07618.21387V19.657a.02382.02382,0,0,1-.00782.01953.026.026,0,0,1-.01953.00879h-.13281a.029.029,0,0,1-.01953-.00782.02458.02458,0,0,1-.00781-.0205v-.32911a.112.112,0,0,0-.127-.126h-.09765V19.657a.02382.02382,0,0,1-.00782.01953.026.026,0,0,1-.01953.00879H27.7736A.03037.03037,0,0,1,27.75212,19.67749Z"/><path class="b" d="M29.06462,19.66187a.02914.02914,0,0,1-.00781.0166.02305.02305,0,0,1-.01563.00684h-.13867a.03688.03688,0,0,1-.0293-.01075l-.00976-.01171-.19532-.28125a.11938.11938,0,0,0-.0371.06152.2886.2886,0,0,0-.00977.07324V19.655a.02669.02669,0,0,1-.00781.02149.026.026,0,0,1-.01953.00879h-.10938a.026.026,0,0,1-.01953-.00879.028.028,0,0,1-.00781-.02149v-.13769a.37749.37749,0,0,1,.02539-.15332.27662.27662,0,0,1,.0957-.11133l-.11328-.16406a.02218.02218,0,0,1-.00586-.01563.01887.01887,0,0,1,.00781-.01562.02039.02039,0,0,1,.01563-.00782h.13086a.04376.04376,0,0,1,.02539.00684l.01562.01856.17969.25292a.106.106,0,0,0,.03906-.04882.20525.20525,0,0,0,.00782-.06348v-.13574a.028.028,0,0,1,.00781-.02149.026.026,0,0,1,.01953-.00879h.11719a.03136.03136,0,0,1,.02148.00977.02718.02718,0,0,1,.00781.02051v.14062a.28542.28542,0,0,1-.02929.12989.26373.26373,0,0,1-.10157.10449l.13477.1914A.024.024,0,0,1,29.06462,19.66187Z"/><path class="b" d="M29.81657,19.11988a.29753.29753,0,0,1,.06446.209.32149.32149,0,0,1-.084.23145.43181.43181,0,0,1-.209.126L29.54313,19.7a.02324.02324,0,0,1-.02148-.00782.03571.03571,0,0,1-.00977-.02246v-.1123a.03771.03771,0,0,1,.00782-.02051.0425.0425,0,0,1,.02148-.01465l.03516-.01465a.18435.18435,0,0,0,.08008-.05957.18856.18856,0,0,0,.02929-.11328.15371.15371,0,0,0-.02343-.09766.12139.12139,0,0,0-.0918-.02734h-.0293l-.14844-.002A.02267.02267,0,0,1,29.37321,19.2a.02382.02382,0,0,1-.00781-.01954v-.25683a.02584.02584,0,0,1,.00781-.02051.029.029,0,0,1,.01953-.00781h.11914a.03042.03042,0,0,1,.02149.00781.035.035,0,0,1,.00781.02051v.126h.06836A.265.265,0,0,1,29.81657,19.11988Z"/><path class="b" d="M29.99821,19.67749a.02593.02593,0,0,1-.00976-.0205v-.57911a.02917.02917,0,0,1,.00976-.0205.02566.02566,0,0,1,.01953-.00782h.13868a.03037.03037,0,0,1,.02148.00782.0377.0377,0,0,1,.00781.0205V19.657a.0321.0321,0,0,1-.00781.01953.02727.02727,0,0,1-.02148.00879h-.13868A.02566.02566,0,0,1,29.99821,19.67749Z"/><path class="b" d="M30.4611,19.24781c.002.03027.01172.04882.02735.05371l.03125.01074a.034.034,0,0,1,.01367.0127.04176.04176,0,0,1,.00586.02148v.05664a.02746.02746,0,0,1-.01367.02539.05818.05818,0,0,1-.03711.00781l-.04492-.00683a.14058.14058,0,0,1-.09571-.06153.22279.22279,0,0,1-.03906-.13281v-.15723a.06634.06634,0,0,1,.00977-.0205.029.029,0,0,1,.01953-.00782h.22461a.28775.28775,0,0,1,.21679.0752.3119.3119,0,0,1,.07813.21094.14374.14374,0,0,1,.002.03125.34364.34364,0,0,1-.07226.23437.27715.27715,0,0,1-.22461.084h-.21094a.03038.03038,0,0,1-.02149-.00782.02458.02458,0,0,1-.00781-.0205v-.10157a.02458.02458,0,0,1,.00781-.0205.02727.02727,0,0,1,.02149-.00879h.20508a.12788.12788,0,0,0,.09179-.03321.12359.12359,0,0,0,.041-.09277v-.06543a.13147.13147,0,0,0-.03906-.09277.13332.13332,0,0,0-.09375-.03223H30.4611Z"/><path class="b" d="M30.97087,19.41382a.03259.03259,0,0,1-.00781-.02051v-.31543a.0377.0377,0,0,1,.00781-.0205.03409.03409,0,0,1,.02148-.00782H31.131a.02566.02566,0,0,1,.01953.00782.02715.02715,0,0,1,.00781.0205v.31543a.02382.02382,0,0,1-.00781.01954.02328.02328,0,0,1-.01953.00878h-.13868A.03408.03408,0,0,1,30.97087,19.41382Z"/><path class="b" d="M31.35759,19.62378a.26738.26738,0,0,1-.07617-.2041v-.3418a.02715.02715,0,0,1,.00781-.0205.029.029,0,0,1,.01953-.00782H31.424a.03409.03409,0,0,1,.02149.00782.03778.03778,0,0,1,.00781.0205v.33594a.11586.11586,0,0,0,.03516.09278.1558.1558,0,0,0,.10156.03125c.082,0,.125-.04.125-.11914a.078.078,0,0,0,0-.03028v-.05371a.1931.1931,0,0,0-.02148-.09766.05959.05959,0,0,0-.05665-.0332.1286.1286,0,0,0-.0332.00391.10171.10171,0,0,0-.0293.01172l-.00976.002a.02676.02676,0,0,1-.01758-.00684.03.03,0,0,1-.00586-.01855v-.08789a.04061.04061,0,0,1,.02149-.041.198.198,0,0,1,.10546-.02148.21492.21492,0,0,1,.17579.06445.31485.31485,0,0,1,.05468.19727v.11621c-.00781.18164-.11132.27246-.30859.27246A.32512.32512,0,0,1,31.35759,19.62378Z"/><path class="b" d="M32.24626,19.41382a.02461.02461,0,0,1-.00781-.02051v-.31543a.02715.02715,0,0,1,.00781-.0205.029.029,0,0,1,.01953-.00782h.14063a.029.029,0,0,1,.01953.00782.03778.03778,0,0,1,.00781.0205v.31543a.03217.03217,0,0,1-.00781.01954.026.026,0,0,1-.01953.00878h-.14063A.029.029,0,0,1,32.24626,19.41382Z"/><path class="b" d="M33.133,19.05738a.02715.02715,0,0,1,.00781.0205V19.407a.2446.2446,0,0,1-.07617.18359.40645.40645,0,0,1-.2168.09668l-.2832.06055a.02591.02591,0,0,1-.02149-.00586.0207.0207,0,0,1-.00976-.01953v-.09668a.03094.03094,0,0,1,.00586-.01953.03273.03273,0,0,1,.01953-.01075l.123-.03027-.13086-.4707-.00586-.02246a.02393.02393,0,0,1,.00586-.01563.02761.02761,0,0,1,.01562-.00684h.14453a.02388.02388,0,0,1,.01758.00586.016.016,0,0,1,.00781.01172l.11133.45508a.15776.15776,0,0,0,.084-.06348.23244.23244,0,0,0,.02148-.10742v-.27344a.02715.02715,0,0,1,.00781-.0205.029.029,0,0,1,.01953-.00782h.13282A.02566.02566,0,0,1,33.133,19.05738Z"/><path class="b" d="M33.7697,19.31128a.27439.27439,0,0,1-.09766.10059l.08789.11914a.0738.0738,0,0,1,.00977.0166.05319.05319,0,0,1,.0039.01953V19.657a.02382.02382,0,0,1-.00781.01953.026.026,0,0,1-.01953.00879h-.45117a.02327.02327,0,0,1-.01953-.00879.02551.02551,0,0,1-.00977-.01953v-.09864a.02551.02551,0,0,1,.00977-.01953.02264.02264,0,0,1,.01953-.00781h.25976l-.32226-.44043a.03144.03144,0,0,1-.00781-.01855.022.022,0,0,1,.00781-.01563.0242.0242,0,0,1,.01758-.00684h.13671a.04323.04323,0,0,1,.03711.02051l.1543.21387a.17386.17386,0,0,0,.05274-.1416v-.0625a.028.028,0,0,1,.00781-.02149.026.026,0,0,1,.01953-.00879h.11719a.03015.03015,0,0,1,.02734.03028v.0957A.26654.26654,0,0,1,33.7697,19.31128Z"/><path class="b" d="M34.48259,19.11792a.26333.26333,0,0,1,.07226.20313V19.657a.02382.02382,0,0,1-.00781.01953.026.026,0,0,1-.01953.00879h-.30469a.026.026,0,0,1-.01953-.00879.02382.02382,0,0,1-.00781-.01953v-.09571a.0238.0238,0,0,1,.00781-.01953.029.029,0,0,1,.01953-.00781h.14453v-.20313a.13024.13024,0,0,0-.02929-.09082.0875.0875,0,0,0-.07227-.03222h-.08594l-.09375.44824a.03389.03389,0,0,1-.00976.02051.026.026,0,0,1-.01953.00879H33.9279a.026.026,0,0,1-.01953-.00879.01924.01924,0,0,1-.00586-.02051l.10742-.44629h-.07226a.02329.02329,0,0,1-.01954-.00879.0272.0272,0,0,1-.00781-.02051v-.10254a.02719.02719,0,0,1,.00781-.0205.029.029,0,0,1,.01954-.00782h.35742A.26024.26024,0,0,1,34.48259,19.11792Z"/><path class="b" d="M35.2736,19.66187a.02649.02649,0,0,1-.00586.0166.03311.03311,0,0,1-.01757.00684h-.13672a.03688.03688,0,0,1-.0293-.01075l-.01172-.01171-.19336-.28125a.12321.12321,0,0,0-.03906.06152.29058.29058,0,0,0-.00781.07324V19.655a.03556.03556,0,0,1-.00782.02149.03027.03027,0,0,1-.02148.00879h-.10937a.026.026,0,0,1-.01954-.00879.028.028,0,0,1-.00781-.02149v-.13769a.37749.37749,0,0,1,.02539-.15332.2832.2832,0,0,1,.09766-.11133l-.11328-.16406a.02218.02218,0,0,1-.00586-.01563.02391.02391,0,0,1,.00586-.01562.0283.0283,0,0,1,.01758-.00782h.13085a.04164.04164,0,0,1,.02344.00684.05855.05855,0,0,1,.01563.01856l.17968.25292a.09479.09479,0,0,0,.03907-.04882.20167.20167,0,0,0,.00976-.06348v-.13574a.028.028,0,0,1,.00782-.02149.02326.02326,0,0,1,.01953-.00879h.11718a.03015.03015,0,0,1,.02735.03028v.14062a.28435.28435,0,0,1-.02735.12989.27009.27009,0,0,1-.10351.10449l.13672.1914A.04105.04105,0,0,1,35.2736,19.66187Z"/><path class="b" d="M35.81462,19.11988a.29732.29732,0,0,1,.0625.209.32882.32882,0,0,1-.082.23145.441.441,0,0,1-.209.126L35.53923,19.7a.02.02,0,0,1-.01953-.00782.02775.02775,0,0,1-.00977-.02246v-.1123a.02716.02716,0,0,1,.00781-.02051.047.047,0,0,1,.01954-.01465l.03515-.01465a.17944.17944,0,0,0,.082-.05957.18856.18856,0,0,0,.0293-.11328.1413.1413,0,0,0-.02539-.09766.11849.11849,0,0,0-.0918-.02734h-.02734l-.15039-.002A.02511.02511,0,0,1,35.36931,19.2a.02383.02383,0,0,1-.00782-.01954v-.25683a.035.035,0,0,1,.00782-.02051.03327.03327,0,0,1,.01953-.00781h.12109a.029.029,0,0,1,.01953.00781.02585.02585,0,0,1,.00782.02051v.126h.06835A.26978.26978,0,0,1,35.81462,19.11988Z"/><rect class="d" x="0.34354" y="13.49693" width="36.83087" height="0.92439"/><path class="c" d="M24.13493,10.52417a.0758.0758,0,0,1-.02344-.05761V8.39136a.07583.07583,0,0,1,.02344-.05762.08646.08646,0,0,1,.06055-.02246h.3789a.07876.07876,0,0,1,.0586.02246.08223.08223,0,0,1,.02148.05762v2.0752a.0822.0822,0,0,1-.02148.05761.07872.07872,0,0,1-.0586.02246h-.3789A.08642.08642,0,0,1,24.13493,10.52417Z"/><path class="c" d="M25.049,9.363a.07582.07582,0,0,1-.02343-.05762V8.39136a.07582.07582,0,0,1,.02343-.05762.0833.0833,0,0,1,.06055-.02246h.40234a.07162.07162,0,0,1,.05665.02246.07582.07582,0,0,1,.02343.05762v.91406a.07607.07607,0,0,1-.02343.05567.06991.06991,0,0,1-.05665.02441h-.40234A.08754.08754,0,0,1,25.049,9.363Z"/><path class="c" d="M27.22478,10.12378a.08483.08483,0,0,1-.06055.02442h-.40235a.07682.07682,0,0,1-.05468-.02246.09794.09794,0,0,1-.02539-.0586l-.04883-.2373a.69725.69725,0,0,1-.18555.15722,1.80919,1.80919,0,0,1-.23437.1211,1.11684,1.11684,0,0,1-.2168.06543l-.02148.00293c-.03711,0-.05469-.0166-.05469-.05078V9.77808a.08491.08491,0,0,1,.0664-.08008q.02345-.01025.14649-.04687a1.27746,1.27746,0,0,0,.20117-.07617.64478.64478,0,0,0,.21289-.17383l-.06055-.29883a.7526.7526,0,0,0-.09961-.27344.23613.23613,0,0,0-.20117-.08008h-.11133a.07549.07549,0,0,1-.05664-.02441.07987.07987,0,0,1-.02343-.05664v-.2959a.08174.08174,0,0,1,.02148-.05957.07949.07949,0,0,1,.05859-.02344h.1211a.99068.99068,0,0,1,.43945.082.60266.60266,0,0,1,.26172.252,1.53883,1.53883,0,0,1,.1543.46386l.19336.98047A.058.058,0,0,1,27.22478,10.12378Z"/><path class="c" d="M28.64079,8.51246a.86973.86973,0,0,1,.18359.60644.94062.94062,0,0,1-.24218.669,1.27137,1.27137,0,0,1-.60352.36328l-.13281.03906a.06134.06134,0,0,1-.05859-.02344.08374.08374,0,0,1-.02735-.06347v-.3252a.099.099,0,0,1,.02149-.05957.17788.17788,0,0,1,.05859-.044l.10352-.041A.52527.52527,0,0,0,28.176,9.4607a.5363.5363,0,0,0,.08593-.32617.43631.43631,0,0,0-.07031-.28321.34952.34952,0,0,0-.26562-.08008h-.082l-.43164-.00293a.07953.07953,0,0,1-.0586-.02343.08223.08223,0,0,1-.02148-.05762V7.9441a.07582.07582,0,0,1,.02343-.05762.08141.08141,0,0,1,.05665-.02246h.34765a.075.075,0,0,1,.05664.02246A.07579.07579,0,0,1,27.84,7.9441v.36718h.19922A.77579.77579,0,0,1,28.64079,8.51246Z"/><path class="c" d="M29.34392,9.97144a.7739.7739,0,0,1-.22266-.59277V8.39136a.07579.07579,0,0,1,.02344-.05762.0773.0773,0,0,1,.05664-.02246h.334a.08646.08646,0,0,1,.06055.02246.07583.07583,0,0,1,.02344.05762V9.363a.33012.33012,0,0,0,.10547.26856.43548.43548,0,0,0,.291.08886q.36036,0,.36328-.34472c.002-.02149.002-.05078.002-.08692-.002-.03613-.002-.06445-.002-.083V9.13453a.57109.57109,0,0,0-.0625-.28125.1814.1814,0,0,0-.166-.09864.37163.37163,0,0,0-.09571.01367.29439.29439,0,0,0-.082.03125.07745.07745,0,0,1-.02929.00684.06564.06564,0,0,1-.04883-.02051.07607.07607,0,0,1-.02149-.05371v-.2539a.12935.12935,0,0,1,.06055-.11915.60762.60762,0,0,1,.31055-.06152.62325.62325,0,0,1,.50586.18555.92213.92213,0,0,1,.16015.57129v.33789c-.02539.52539-.32226.78808-.89453.78808A.95479.95479,0,0,1,29.34392,9.97144Z"/><path class="c" d="M31.64665,8.88355c.00391.08789.0293.13965.07617.1543l.08985.03222a.07579.07579,0,0,1,.041.03711.12427.12427,0,0,1,.01367.05957l.00391.16406a.08257.08257,0,0,1-.043.0752.16282.16282,0,0,1-.10547.02148L31.592,9.408a.409.409,0,0,1-.27734-.17871.647.647,0,0,1-.10938-.38476V8.39136a.1099.1099,0,0,1,.02735-.05762.06607.06607,0,0,1,.05273-.02246h.65039a.8327.8327,0,0,1,.62891.2168.90675.90675,0,0,1,.22656.60938c.002.02148.00391.05175.00391.09082a1.00862,1.00862,0,0,1-.207.67675.80653.80653,0,0,1-.65235.24317h-.61133a.08277.08277,0,0,1-.05859-.02246.07294.07294,0,0,1-.02539-.0586v-.2959a.0777.0777,0,0,1,.02539-.05957.07952.07952,0,0,1,.05859-.02343h.59571A.3607.3607,0,0,0,32.3029,9.324c.002-.02051.002-.05371.002-.0957,0-.041,0-.07227-.002-.09375a.35968.35968,0,0,0-.11133-.26856.38822.38822,0,0,0-.27148-.09473h-.27344Z"/><path class="c" d="M33.133,10.12574a.078.078,0,0,1-.02344-.0586V8.39136a.07579.07579,0,0,1,.02344-.05762.08646.08646,0,0,1,.06055-.02246h.40234a.07158.07158,0,0,1,.05664.02246.07583.07583,0,0,1,.02344.05762v1.67578a.07823.07823,0,0,1-.02344.05664.07294.07294,0,0,1-.05664.02442h-.40234A.09114.09114,0,0,1,33.133,10.12574Z"/><path class="c" d="M35.7736,10.08081a.0629.0629,0,0,1-.01953.0459.06038.06038,0,0,1-.04883.02149h-.39453a.1136.1136,0,0,1-.08789-.03028c-.01562-.0205-.02539-.03222-.02734-.03418L34.631,9.26929a.37211.37211,0,0,0-.10938.17774.82366.82366,0,0,0-.02539.21191v.40234a.082.082,0,0,1-.084.08692h-.31446a.0741.0741,0,0,1-.05664-.02637.08568.08568,0,0,1-.02344-.06055V9.66187a1.09867,1.09867,0,0,1,.07422-.44336.8131.8131,0,0,1,.2793-.32227l-.32813-.47265a.06894.06894,0,0,1,.00391-.0918.06454.06454,0,0,1,.04688-.02051h.38086a.10192.10192,0,0,1,.06835.01953A.26692.26692,0,0,1,34.59,8.3816l.51758.73339a.29117.29117,0,0,0,.11523-.1416.63072.63072,0,0,0,.02344-.18359V8.3982a.09585.09585,0,0,1,.02148-.06348.07954.07954,0,0,1,.0586-.02344h.33789a.07428.07428,0,0,1,.05859.02539.08184.08184,0,0,1,.02539.06153v.40527a.85111.85111,0,0,1-.082.375.7683.7683,0,0,1-.29883.30371l.39258.55371A.07023.07023,0,0,1,35.7736,10.08081Z"/><path class="c" d="M18.44157,9.12964a.47394.47394,0,0,1,.13086.36621v.6045a.04925.04925,0,0,1-.01172.0332.048.048,0,0,1-.03515.01465H18.3654a.04374.04374,0,0,1-.0332-.01465.04282.04282,0,0,1-.01367-.0332V9.50562a.25158.25158,0,0,0-.28516-.2832h-.13672a1.42985,1.42985,0,0,0-.02734.166,1.25289,1.25289,0,0,0-.00586.17676l.00976.53516a.04282.04282,0,0,1-.01367.0332.048.048,0,0,1-.03516.01465l-.3496-.002a.048.048,0,0,1-.03516-.01464.051.051,0,0,1-.01367-.03321V9.988a.04776.04776,0,0,1,.01367-.03418.05114.05114,0,0,1,.03516-.01367l.15625.002V9.57105c0-.06738.002-.12695.00585-.17969a.94568.94568,0,0,1,.0293-.16894H17.5529a.05119.05119,0,0,1-.03516-.01368.04492.04492,0,0,1-.01367-.03418V9.05738a.04433.04433,0,0,1,.01367-.03516.05035.05035,0,0,1,.03516-.01269h.49219A.573.573,0,0,1,18.44157,9.12964Z"/><path class="c" d="M18.84978,10.13355a.05094.05094,0,0,1-.01368-.0332v-1.043a.052.052,0,0,1,.01368-.03516.05031.05031,0,0,1,.03515-.01269h.166a.04537.04537,0,0,1,.04883.04785v1.043a.04283.04283,0,0,1-.01368.0332.04232.04232,0,0,1-.03515.01465h-.166A.048.048,0,0,1,18.84978,10.13355Z"/><path class="c" d="M19.37712,9.66773a.04491.04491,0,0,1-.01367-.03418V9.05738a.04429.04429,0,0,1,.01367-.03516.04271.04271,0,0,1,.0332-.01269h.16992a.05033.05033,0,0,1,.03516.01269.051.051,0,0,1,.01172.03516v.57617a.05189.05189,0,0,1-.01172.03418.05116.05116,0,0,1-.03516.01367h-.16992A.04335.04335,0,0,1,19.37712,9.66773Z"/><path class="c" d="M20.60563,9.13062a.56624.56624,0,0,1,.11133.38965.58722.58722,0,0,1-.13867.40625.73517.73517,0,0,1-.34961.21777l-.082.02539a.03512.03512,0,0,1-.03516-.00781.04356.04356,0,0,1-.01757-.03613V9.98023a.06065.06065,0,0,1,.01367-.03418.07209.07209,0,0,1,.03515-.02344l.07032-.02832a.39689.39689,0,0,0,.17773-.12891.40788.40788,0,0,0,.0625-.24316.46118.46118,0,0,0-.02539-.17285.157.157,0,0,0-.082-.09082.39617.39617,0,0,0-.16406-.02832h-.06055l-.22461-.002a.05035.05035,0,0,1-.03516-.0127.04151.04151,0,0,1-.01367-.0332V8.78a.04495.04495,0,0,1,.01367-.03418.05118.05118,0,0,1,.03516-.01367h.14648a.05032.05032,0,0,1,.03516.0127A.051.051,0,0,1,20.09,8.78v.2295h.13867A.49481.49481,0,0,1,20.60563,9.13062Z"/><path class="c" d="M20.91813,10.13355a.051.051,0,0,1-.01367-.0332V9.98218a.04776.04776,0,0,1,.01367-.03418.05118.05118,0,0,1,.03516-.01367h.53516V9.50757a.2508.2508,0,0,0-.28321-.28515h-.23242a.04336.04336,0,0,1-.0332-.01368.04675.04675,0,0,1-.01563-.03418V9.05738a.04573.04573,0,0,1,.01563-.03516.04271.04271,0,0,1,.0332-.01269H21.217a.593.593,0,0,1,.40235.12011.47825.47825,0,0,1,.13476.374v.43066h.07227a.05114.05114,0,0,1,.03515.01367.04772.04772,0,0,1,.01368.03418v.11817a.05094.05094,0,0,1-.01368.0332.048.048,0,0,1-.03515.01465h-.873A.048.048,0,0,1,20.91813,10.13355Z"/><path class="c" d="M22.176,10.0398a.48906.48906,0,0,1-.12891-.36426V9.05738a.04433.04433,0,0,1,.01367-.03516.05035.05035,0,0,1,.03516-.01269h.14258a.04438.04438,0,0,1,.03515.01269.052.052,0,0,1,.01368.03516V9.6648a.28123.28123,0,0,0,.07226.21.30075.30075,0,0,0,.2168.07129.27575.27575,0,0,0,.20508-.06641.29325.29325,0,0,0,.07226-.20215V9.49976a.35728.35728,0,0,0-.05469-.208.16655.16655,0,0,0-.14257-.07129.256.256,0,0,0-.06836.00977.24583.24583,0,0,0-.06446.02637.033.033,0,0,1-.01953.00586.03833.03833,0,0,1-.02734-.01075.04154.04154,0,0,1-.01367-.02929V9.113a.11185.11185,0,0,1,.00781-.04.04326.04326,0,0,1,.02539-.02539.29185.29185,0,0,1,.084-.03418.42339.42339,0,0,1,.11719-.01269.38032.38032,0,0,1,.30469.11328.53879.53879,0,0,1,.09961.34961c.002.01367.002.05078.002.1123,0,.06055,0,.09766-.002.11133a.49612.49612,0,0,1-.13281.35937.5416.5416,0,0,1-.39258.1211A.551.551,0,0,1,22.176,10.0398Z"/><circle class="e" cx="5.1741" cy="14.52554" r="2.85966"/><path class="f" d="M.34354,12.19A75.55863,75.55863,0,0,0,11.191,21.02961H.34354Z"/><path class="g" d="M25.87126,12.18238a.028.028,0,0,1-.00781-.02149v-.7998a.03021.03021,0,0,1,.00781-.02246.02727.02727,0,0,1,.02148-.00879h.30079c.24023,0,.36523.1123.36914.335.002.04687.002.0791.002.0957,0,.01563,0,.04688-.002.09473a.349.349,0,0,1-.0918.2539.38907.38907,0,0,1-.27149.082h-.30664A.03029.03029,0,0,1,25.87126,12.18238Zm.32227-.13379a.201.201,0,0,0,.14648-.0459.21378.21378,0,0,0,.04883-.15137c.002-.04883.002-.08008.002-.09179,0-.01368,0-.044-.002-.09082a.1753.1753,0,0,0-.20313-.19629h-.14843v.57617Z"/><path class="g" d="M26.717,11.43824a.02919.02919,0,0,1-.00976-.02051v-.08985a.0318.0318,0,0,1,.00976-.02246.026.026,0,0,1,.01953-.00879h.11329a.03167.03167,0,0,1,.02343.00879.03023.03023,0,0,1,.00782.02246v.08985a.0292.0292,0,0,1-.00977.02051.02727.02727,0,0,1-.02148.00879h-.11329A.026.026,0,0,1,26.717,11.43824Zm.00391.74414a.028.028,0,0,1-.00781-.02149v-.58008a.028.028,0,0,1,.00781-.02148.03414.03414,0,0,1,.02148-.00781h.10352a.02727.02727,0,0,1,.02148.00879.02918.02918,0,0,1,.00977.0205v.58008a.0296.0296,0,0,1-.00977.02149.02727.02727,0,0,1-.02148.00879h-.10352A.03029.03029,0,0,1,26.72087,12.18238Z"/><path class="g" d="M27.049,12.41675a.02957.02957,0,0,1-.00976-.02148v-.81446a.02958.02958,0,0,1,.00976-.02148.03042.03042,0,0,1,.02149-.00781h.09765a.02727.02727,0,0,1,.02149.00879.02917.02917,0,0,1,.00976.0205v.04981a.22117.22117,0,0,1,.19532-.0918.23415.23415,0,0,1,.18945.07813.33529.33529,0,0,1,.07227.21v.08887a.32156.32156,0,0,1-.07032.208.2385.2385,0,0,1-.1914.0791.22342.22342,0,0,1-.18946-.08691v.2793a.028.028,0,0,1-.00781.02148.02728.02728,0,0,1-.02148.00781h-.10547A.03042.03042,0,0,1,27.049,12.41675Zm.43946-.50879v-.07324c-.00586-.1084-.05274-.16309-.14063-.16309a.12542.12542,0,0,0-.10547.0459.20437.20437,0,0,0-.03711.11035v.09473a.17332.17332,0,0,0,.03907.10449.12487.12487,0,0,0,.10351.043C27.43571,12.07007,27.48259,12.01636,27.48845,11.908Z"/><path class="g" d="M27.8654,12.41675a.01942.01942,0,0,1-.00781-.0166.077.077,0,0,1,.0039-.01953l.09766-.22754-.23633-.55762a.03076.03076,0,0,1-.0039-.0166.03468.03468,0,0,1,.00781-.01953.02834.02834,0,0,1,.01758-.00781h.10351a.03273.03273,0,0,1,.03125.02344l.16406.40039.166-.40039a.03695.03695,0,0,1,.0332-.02344H28.342a.02506.02506,0,0,1,.01953.00781.02651.02651,0,0,1,.00782.0166.04052.04052,0,0,1-.00586.01953l-.34766.80567a.03417.03417,0,0,1-.03516.02343H27.883A.02386.02386,0,0,1,27.8654,12.41675Z"/><path class="g" d="M28.48259,12.18238a.028.028,0,0,1-.00781-.02149v-.57812a.02884.02884,0,0,1,.00781-.02246.03029.03029,0,0,1,.02148-.00879h.10156a.0303.0303,0,0,1,.02149.00879.02884.02884,0,0,1,.00781.02246v.0498a.20964.20964,0,0,1,.17774-.081h.05078a.02728.02728,0,0,1,.02148.00781.028.028,0,0,1,.00781.02148v.08985a.02936.02936,0,0,1-.00781.02148.02725.02725,0,0,1-.02148.00782h-.09571a.12562.12562,0,0,0-.09179.0332.12723.12723,0,0,0-.03321.0918v.33593a.028.028,0,0,1-.00781.02149.03029.03029,0,0,1-.02148.00879h-.10938A.03029.03029,0,0,1,28.48259,12.18238Z"/><path class="g" d="M29.04118,12.12964a.28428.28428,0,0,1-.084-.2041l-.002-.05469.002-.05371a.27574.27574,0,0,1,.08593-.20312.36434.36434,0,0,1,.44336,0,.28328.28328,0,0,1,.08594.20312.358.358,0,0,1,.002.05371.37328.37328,0,0,1-.002.05469.28428.28428,0,0,1-.084.2041.378.378,0,0,1-.44727,0Zm.32422-.09082a.19118.19118,0,0,0,.03711-.12011.27254.27254,0,0,0,.002-.04786.28537.28537,0,0,0-.002-.04785.1882.1882,0,0,0-.03711-.11914.12171.12171,0,0,0-.09961-.042.12315.12315,0,0,0-.10156.042.1773.1773,0,0,0-.03711.11914l-.002.04785.002.04786a.18007.18007,0,0,0,.03711.12011.12809.12809,0,0,0,.10156.04A.12658.12658,0,0,0,29.3654,12.03882Z"/><path class="g" d="M29.71892,12.18238a.028.028,0,0,1-.00782-.02149v-.58008a.028.028,0,0,1,.00782-.02148.03414.03414,0,0,1,.02148-.00781H29.842a.03042.03042,0,0,1,.02149.00781.028.028,0,0,1,.00781.02148v.05079a.2525.2525,0,0,1,.20508-.09278.22837.22837,0,0,1,.17969.07422.28944.28944,0,0,1,.0664.20313v.34472a.028.028,0,0,1-.00781.02149.02727.02727,0,0,1-.02149.00879h-.10937a.02724.02724,0,0,1-.02148-.00879.0296.0296,0,0,1-.00977-.02149V11.823a.1758.1758,0,0,0-.0332-.11133.14508.14508,0,0,0-.20118.001.15514.15514,0,0,0-.03906.11035v.33789a.028.028,0,0,1-.00781.02149.02727.02727,0,0,1-.02148.00879H29.7404A.03029.03029,0,0,1,29.71892,12.18238Z"/><path class="g" d="M30.53728,12.12476a.32176.32176,0,0,1-.08594-.22363v-.03125a.34983.34983,0,0,1,.08008-.24219.32825.32825,0,0,1,.44921,0,.34013.34013,0,0,1,.07813.23633v.02539a.028.028,0,0,1-.00781.02148.02938.02938,0,0,1-.02149.00782h-.4082v.00976a.19235.19235,0,0,0,.03711.11426.11334.11334,0,0,0,.0957.04492.13891.13891,0,0,0,.11524-.05664.081.081,0,0,1,.01757-.0166.04506.04506,0,0,1,.01954-.00293h.10937a.033.033,0,0,1,.01953.00586.02472.02472,0,0,1,.00781.01758.11364.11364,0,0,1-.03515.06933.28516.28516,0,0,1-.10156.06934.36252.36252,0,0,1-.15039.02929A.30434.30434,0,0,1,30.53728,12.12476Zm.35351-.30957v-.00293a.18.18,0,0,0-.03711-.11621.12023.12023,0,0,0-.09961-.04395.11893.11893,0,0,0-.09765.04395.17929.17929,0,0,0-.03516.11621v.00293Z"/><path class="g" d="M31.59,12.16968a.26012.26012,0,0,1-.11133-.09082.23073.23073,0,0,1-.041-.12109v-.00293a.01942.01942,0,0,1,.00781-.0166.02676.02676,0,0,1,.01758-.00684h.11718a.03344.03344,0,0,1,.03516.02441.15026.15026,0,0,0,.05664.08008.171.171,0,0,0,.0957.02539.165.165,0,0,0,.11329-.041.1537.1537,0,0,0,.04492-.11621.1414.1414,0,0,0-.04492-.10743.165.165,0,0,0-.11329-.041.151.151,0,0,0-.06054.00976.23348.23348,0,0,0-.04688.02735l-.00976.00683-.01563.00879-.01367.00293h-.11719a.02447.02447,0,0,1-.01758-.00781.02507.02507,0,0,1-.00781-.01953l.041-.41895a.03019.03019,0,0,1,.01172-.02539.03616.03616,0,0,1,.02539-.00976h.46289a.03029.03029,0,0,1,.02148.00879.03325.03325,0,0,1,.00781.02148v.083a.038.038,0,0,1-.00781.02148.03409.03409,0,0,1-.02148.00782h-.35547l-.01953.19921a.2472.2472,0,0,1,.06445-.03027.36979.36979,0,0,1,.0957-.01074.33081.33081,0,0,1,.14844.0332.27775.27775,0,0,1,.10938.09766.26241.26241,0,0,1,.041.14648.29722.29722,0,0,1-.041.15723.28637.28637,0,0,1-.11914.10352.45605.45605,0,0,1-.35352.001Z"/><path class="g" d="M32.31267,12.11206a.36387.36387,0,0,1-.08789-.23828c-.002-.02246-.002-.05957-.002-.11328s0-.09277.002-.11523a.36256.36256,0,0,1,.08789-.23633.37618.37618,0,0,1,.49023,0,.36262.36262,0,0,1,.08789.23633c.002.0459.002.084.002.11523s0,.06934-.002.11328a.38569.38569,0,0,1-.08789.23828.31219.31219,0,0,1-.24609.09082A.30772.30772,0,0,1,32.31267,12.11206Zm.35937-.10253a.244.244,0,0,0,.041-.14161v-.21679a.24527.24527,0,0,0-.041-.14063.13734.13734,0,0,0-.11523-.05078.13353.13353,0,0,0-.11328.05078.24512.24512,0,0,0-.041.14063c0,.02246-.002.05761-.002.10742,0,.04883.002.085.002.10937a.2438.2438,0,0,0,.041.14161.1329.1329,0,0,0,.11328.0498A.13672.13672,0,0,0,32.672,12.00953Z"/><path class="g" d="M33.12126,12.11206a.38569.38569,0,0,1-.08789-.23828v-.22851a.354.354,0,0,1,.08984-.23633.37356.37356,0,0,1,.48828,0,.36256.36256,0,0,1,.08789.23633c.002.0459.00391.084.00391.11523s-.002.06934-.00391.11328a.36387.36387,0,0,1-.08789.23828.30772.30772,0,0,1-.24414.09082A.315.315,0,0,1,33.12126,12.11206Zm.35937-.10253a.2438.2438,0,0,0,.041-.14161c.002-.02441.002-.06054.002-.10937,0-.04981,0-.085-.002-.10742a.24512.24512,0,0,0-.041-.14063.13353.13353,0,0,0-.11328-.05078.13734.13734,0,0,0-.11523.05078.23125.23125,0,0,0-.03906.14063c-.002.02246-.002.05761-.002.10742,0,.04883,0,.085.002.10937a.23038.23038,0,0,0,.03906.14161.13672.13672,0,0,0,.11523.0498A.1329.1329,0,0,0,33.48063,12.00953Z"/><path class="g" d="M34.14274,12.18238a.028.028,0,0,1-.00781-.02149v-.58008a.028.028,0,0,1,.00781-.02148.03416.03416,0,0,1,.02149-.00781h.09765a.03414.03414,0,0,1,.02149.00781.03807.03807,0,0,1,.00781.02148v.042a.21417.21417,0,0,1,.17774-.084.19608.19608,0,0,1,.1914.11035.22272.22272,0,0,1,.082-.08007.24919.24919,0,0,1,.11719-.03028.21662.21662,0,0,1,.166.06934.29085.29085,0,0,1,.0625.20019v.35254a.028.028,0,0,1-.00782.02149.02469.02469,0,0,1-.02148.00879H34.9572a.0303.0303,0,0,1-.02149-.00879.028.028,0,0,1-.00781-.02149v-.34277a.15789.15789,0,0,0-.0332-.11133.1119.1119,0,0,0-.08594-.03516.10519.10519,0,0,0-.08008.03516.15224.15224,0,0,0-.03515.11133v.34277a.028.028,0,0,1-.00782.02149.02727.02727,0,0,1-.02148.00879h-.10352a.02329.02329,0,0,1-.01953-.00879.02959.02959,0,0,1-.00976-.02149v-.34277a.16122.16122,0,0,0-.03321-.11133.11055.11055,0,0,0-.084-.03516.10638.10638,0,0,0-.082.03516.1521.1521,0,0,0-.03321.11133v.34277a.02959.02959,0,0,1-.00976.02149.02472.02472,0,0,1-.02149.00879h-.10351A.03031.03031,0,0,1,34.14274,12.18238Z"/><path class="g" d="M35.35759,12.42554a.25507.25507,0,0,1-.09766-.083.17654.17654,0,0,1-.02734-.08007.02461.02461,0,0,1,.00781-.02051.03409.03409,0,0,1,.02148-.00782h.10938a.04129.04129,0,0,1,.01953.00489.04183.04183,0,0,1,.01367.02051.12862.12862,0,0,0,.03907.05468.13037.13037,0,0,0,.084.02344.15434.15434,0,0,0,.10937-.0332.15841.15841,0,0,0,.03321-.11328v-.084a.233.233,0,0,1-.1875.0791.23712.23712,0,0,1-.19336-.07812.33044.33044,0,0,1-.06836-.21094l-.002-.0332.002-.03321a.33079.33079,0,0,1,.07031-.21191.23386.23386,0,0,1,.19141-.08008.24237.24237,0,0,1,.11328.02539.21863.21863,0,0,1,.082.06641v-.04785a.02454.02454,0,0,1,.00977-.02246.02725.02725,0,0,1,.02148-.00879h.09961a.03029.03029,0,0,1,.02148.00879.02885.02885,0,0,1,.00782.02246l.002.59179a.28293.28293,0,0,1-.07617.21192.31621.31621,0,0,1-.23047.07519A.37932.37932,0,0,1,35.35759,12.42554Zm.27539-.41406a.19508.19508,0,0,0,.03711-.1084.18663.18663,0,0,0,.002-.03906.18132.18132,0,0,0-.002-.03906.195.195,0,0,0-.03711-.1084.12339.12339,0,0,0-.10352-.04493c-.08984,0-.13672.05469-.14062.16309l-.002.0293c0,.12793.04688.1914.14258.1914A.12551.12551,0,0,0,35.633,12.01148Z"/><path class="h" d="M11.50683,21.00276S2.95061,14.85006.34354,9.02414v4.02518S7.00085,19.89673,11.50683,21.00276Z"/><path class="i" d="M.34354,11.16914s5.52274,7.24742,11.16329,9.83362"/><circle class="g" cx="4.82934" cy="15.02139" r="2.07866"/><path class="b" d="M3.967,15.01246A.02846.02846,0,0,1,3.9572,14.989v-.12989a.07527.07527,0,0,1,.03125-.06738l.01367-.01074.04687-.0332c.09375-.06739.16211-.11817.207-.15332a.86666.86666,0,0,0,.10351-.09375.11358.11358,0,0,0,.03711-.07422.06413.06413,0,0,0-.00781-.03614.04142.04142,0,0,0-.03711-.01367.06189.06189,0,0,0-.03711.01075.04572.04572,0,0,0-.01758.0205.26945.26945,0,0,0-.01367.03321.03732.03732,0,0,1-.01953.02246.06856.06856,0,0,1-.03125.00586H3.99821a.029.029,0,0,1-.01953-.00782.03472.03472,0,0,1-.00781-.01953.2907.2907,0,0,1,.05078-.16308.33888.33888,0,0,1,.13672-.10938.46517.46517,0,0,1,.19141-.03808.44772.44772,0,0,1,.27343.07421.24152.24152,0,0,1,.10157.20508.26326.26326,0,0,1-.06836.17481.97307.97307,0,0,1-.20118.17285l-.00976.00683h.26367a.02894.02894,0,0,1,.02344.00977.036.036,0,0,1,.00976.02344V14.989a.036.036,0,0,1-.00976.02344.029.029,0,0,1-.02344.00976H3.9904A.029.029,0,0,1,3.967,15.01246Z"/><path class="b" d="M4.95524,14.94605a.32969.32969,0,0,1-.11132-.23047c-.002-.03418-.00391-.07812-.00391-.13086,0-.05469.00195-.09863.00391-.13379a.328.328,0,0,1,.05468-.16308.34511.34511,0,0,1,.13477-.11133.53525.53525,0,0,1,.40625,0,.31551.31551,0,0,1,.18945.27441c.002.03516.002.0791.002.13379,0,.05274,0,.09668-.002.13086a.32966.32966,0,0,1-.11133.23047.48948.48948,0,0,1-.5625,0Zm.34766-.23731c.00195-.02343.00391-.06543.00391-.126s-.002-.10156-.00391-.125c-.00195-.05274-.02539-.08008-.06641-.08106-.041.001-.06445.02832-.06836.08106,0,.04492-.00195.08691-.00195.125,0,.03613.00195.07812.00195.126.00391.05469.02735.08106.06836.08106S5.301,14.76343,5.3029,14.70874Z"/><path class="b" d="M3.90446,15.57886a.22522.22522,0,0,1,.06836.1836v.29785a.02723.02723,0,0,1-.00586.01757.02676.02676,0,0,1-.01758.00684H3.8322a.02811.02811,0,0,1-.01953-.00684.02723.02723,0,0,1-.00586-.01757v-.293a.1.1,0,0,0-.11328-.11328H3.62907a.58071.58071,0,0,0-.01367.1455l.00781.26075a.02119.02119,0,0,1-.00781.01757.02352.02352,0,0,1-.01758.00684l-.21094-.001a.02088.02088,0,0,1-.01757-.00683.01905.01905,0,0,1-.00782-.01758v-.07812a.019.019,0,0,1,.00782-.01758.02085.02085,0,0,1,.01757-.00684H3.467v-.15527a.57427.57427,0,0,1,.01563-.14746H3.424a.02088.02088,0,0,1-.01757-.00684.019.019,0,0,1-.00782-.01758v-.085a.02009.02009,0,0,1,.00782-.01758.02088.02088,0,0,1,.01757-.00683h.27539A.306.306,0,0,1,3.90446,15.57886Z"/><path class="b" d="M4.092,16.07788a.02728.02728,0,0,1-.00586-.01757v-.51563A.02554.02554,0,0,1,4.092,15.5271a.02816.02816,0,0,1,.01953-.00683h.12305a.02091.02091,0,0,1,.01758.00683.02008.02008,0,0,1,.00781.01758v.51563a.02119.02119,0,0,1-.00781.01757.02089.02089,0,0,1-.01758.00684H4.11149A.02812.02812,0,0,1,4.092,16.07788Z"/><path class="b" d="M4.37907,15.84351a.02729.02729,0,0,1-.00586-.01758v-.28125a.02554.02554,0,0,1,.00586-.01758.02816.02816,0,0,1,.01953-.00683h.12305a.02091.02091,0,0,1,.01758.00683.02008.02008,0,0,1,.00781.01758v.28125a.01835.01835,0,0,1-.00781.0166.01905.01905,0,0,1-.01758.00782H4.3986A.02817.02817,0,0,1,4.37907,15.84351Z"/><path class="b" d="M5.03728,15.58179a.26188.26188,0,0,1,.05664.18652.2946.2946,0,0,1-.07422.20606.38349.38349,0,0,1-.18555.11133l-.041.01269a.02069.02069,0,0,1-.01757-.00781.02713.02713,0,0,1-.00977-.01953v-.09961a.03473.03473,0,0,1,.00781-.01856.04268.04268,0,0,1,.01758-.01367l.03125-.01269a.15536.15536,0,0,0,.07227-.05274.16474.16474,0,0,0,.02539-.10058.126.126,0,0,0-.02149-.08692.10182.10182,0,0,0-.08007-.02539H4.66032a.02148.02148,0,0,1-.01758-.00781.019.019,0,0,1-.00781-.01758V15.407a.02006.02006,0,0,1,.00781-.01758.02092.02092,0,0,1,.01758-.00684h.10547a.02817.02817,0,0,1,.01953.00684.02545.02545,0,0,1,.00586.01758v.11328h.06055A.24125.24125,0,0,1,5.03728,15.58179Z"/><path class="b" d="M5.1779,16.07788a.02723.02723,0,0,1-.00586-.01757v-.085a.02384.02384,0,0,1,.00586-.01758A.02828.02828,0,0,1,5.19548,15.95h.24805v-.18262A.0991.0991,0,0,0,5.3322,15.655h-.127a.02351.02351,0,0,1-.01757-.00683.02815.02815,0,0,1-.00586-.01856v-.085a.02549.02549,0,0,1,.00586-.01758.02677.02677,0,0,1,.01757-.00683h.13282a.32709.32709,0,0,1,.209.05761.23372.23372,0,0,1,.07031.18946V15.95h.03516a.02145.02145,0,0,1,.01758.00781.02476.02476,0,0,1,.00781.01758v.085a.02911.02911,0,0,1-.00781.01757.02089.02089,0,0,1-.01758.00684h-.457A.02676.02676,0,0,1,5.1779,16.07788Z"/><path class="b" d="M5.82048,16.031a.23512.23512,0,0,1-.06836-.18262v-.30371A.02549.02549,0,0,1,5.758,15.5271a.0268.0268,0,0,1,.01758-.00683h.10351a.02091.02091,0,0,1,.01758.00683.02008.02008,0,0,1,.00781.01758v.29883a.10376.10376,0,0,0,.03321.083.137.137,0,0,0,.08984.02734.09818.09818,0,0,0,.11133-.10644V15.7732a.1972.1972,0,0,0-.01953-.08692.05663.05663,0,0,0-.05078-.02929.10076.10076,0,0,0-.0293.0039.07662.07662,0,0,0-.02539.00977l-.00977.002a.01584.01584,0,0,1-.01367-.00683.01837.01837,0,0,1-.00781-.01661v-.07812a.03681.03681,0,0,1,.01953-.03613.18574.18574,0,0,1,.0957-.01856.18771.18771,0,0,1,.1543.05664.27355.27355,0,0,1,.04883.17578v.10352c-.00586.16211-.09766.24219-.27344.24219A.29673.29673,0,0,1,5.82048,16.031Z"/><circle class="e" cx="6.9714" cy="18.06737" r="1.52445"/><circle class="g" cx="6.9714" cy="18.06737" r="1.06236"/><ellipse class="j" cx="7.31422" cy="17.89187" rx="0.42788" ry="0.28991"/><ellipse class="d" cx="7.31422" cy="17.81558" rx="0.42788" ry="0.28991"/><ellipse class="j" cx="6.66768" cy="18.35279" rx="0.49318" ry="0.33415"/><ellipse class="k" cx="6.66768" cy="18.26485" rx="0.49318" ry="0.33415"/><line class="l" x1="6.59399" y1="17.93455" x2="6.82295" y2="18.58195"/><line class="m" x1="7.5864" y1="17.5922" x2="7.00085" y2="18.01864"/><polygon class="e" points="39.92 18.521 37.174 21.003 37.174 6.299 39.92 3.817 39.92 18.521"/><polygon class="g" points="39.953 3.817 3.122 3.817 0.344 6.299 37.174 6.299 39.953 3.817"/><line class="n" x1="37.91191" y1="6.50366" x2="37.91191" y2="16.35508"/><line class="n" x1="38.79997" y1="5.76973" x2="38.79997" y2="9.84131"/><line class="n" x1="39.51219" y1="4.88515" x2="39.51219" y2="14.15538"/><line class="o" x1="3.62858" y1="4.2954" x2="10.20005" y2="4.2954"/><line class="o" x1="2.92469" y1="4.93466" x2="9.49616" y2="4.93466"/><line class="o" x1="2.11526" y1="5.62434" x2="8.68673" y2="5.62434"/><line class="o" x1="13.24177" y1="4.2954" x2="19.81324" y2="4.2954"/><line class="o" x1="12.53788" y1="4.93466" x2="19.10935" y2="4.93466"/><line class="o" x1="23.16091" y1="4.2954" x2="29.73238" y2="4.2954"/><line class="o" x1="22.45702" y1="4.93466" x2="29.02849" y2="4.93466"/><line class="o" x1="11.72845" y1="5.62434" x2="18.29992" y2="5.62434"/><path class="p" d="M11.25227.44741a5.79287,5.79287,0,0,1,4.04615,2.1404"/><path class="p" d="M4.14524.94869S1.23782,1.44127.44741,3.21989"/><circle class="q" cx="11.85157" cy="6.66466" r="2.62732"/><g class="r"><path class="s" d="M9.30446,5.21048s.32626-.25839,2.06829-.22983a8.99378,8.99378,0,0,1,3.02592.56605V1.43437H9.30446Z"/><circle class="t" cx="12.10673" cy="6.29946" r="0.70875"/></g><circle class="u" cx="11.85157" cy="6.66466" r="2.62732"/><path class="v" d="M14.35148,5.46461A1.07288,1.07288,0,0,0,15.62012,4.4243"/><path class="v" d="M13.13446,5.14333s.82661.022.89708-1.106"/><ellipse class="q" cx="4.08828" cy="6.66466" rx="2.42916" ry="2.62732"/><g class="w"><path class="s" d="M1.73329,5.06424s.27159-.2584,1.88222-.22984a8.06242,8.06242,0,0,1,2.82776.56606V1.28812h-4.71Z"/><circle class="t" cx="4.34345" cy="6.29946" r="0.70875"/></g><ellipse class="u" cx="4.08828" cy="6.66466" rx="2.42916" ry="2.62732"/><path class="v" d="M2.46629,4.84085A1.07289,1.07289,0,0,1,1.19765,3.80053"/><path class="v" d="M3.6347,4.83544s-.82618-.03479-.819-1.165"/></svg>