<svg xmlns="http://www.w3.org/2000/svg" xmlns:xlink="http://www.w3.org/1999/xlink" viewBox="0 0 44.07682 34.6572"><defs><style>.a,.b{fill:#f6f6f6;}.a,.j,.l,.n{stroke:#2d2a28;}.a,.l,.n{stroke-miterlimit:10;}.a,.j,.l{stroke-width:0.69035px;}.c{fill:#c6c6c6;}.d{fill:#dadada;}.e{fill:#e30613;}.f{opacity:0.5;}.g,.h,.l,.n{fill:none;}.g,.h{stroke:#e30613;}.g,.h,.j,.n{stroke-linecap:round;}.g,.h,.j{stroke-linejoin:round;}.g{stroke-width:0.36673px;}.h{stroke-width:0.18336px;}.i{clip-path:url(#a);}.j{fill:#cc3232;}.k{fill:#2d2a28;}.m{clip-path:url(#b);}.n{stroke-width:1.29441px;}</style><clipPath id="a"><circle class="a" cx="28.66599" cy="8.41687" r="3.80061"/></clipPath><clipPath id="b"><ellipse class="a" cx="17.43584" cy="8.41687" rx="3.51395" ry="3.80061"/></clipPath></defs><rect class="b" x="3.96142" y="10.76433" width="40.1154" height="23.89288"/><polygon class="c" points="0 8.926 3.961 10.764 3.961 34.657 0 32.819 0 8.926"/><polygon class="d" points="40.196 8.926 0.08 8.926 3.961 10.764 44.077 10.764 40.196 8.926"/><path class="e" d="M8.20167,16.94264a.44383.44383,0,0,0-.14258-.14161.34956.34956,0,0,0-.17187-.041.26593.26593,0,0,0-.14649.05371.43112.43112,0,0,0-.13867.18066.80473.80473,0,0,0-.05859.333.76078.76078,0,0,0,.05468.30567.4054.4054,0,0,0,.14453.18164.344.344,0,0,0,.19629.05957.4263.4263,0,0,0,.18946-.04v-.32813a.046.046,0,0,0-.01075-.03222.11546.11546,0,0,0-.04785-.02832.65513.65513,0,0,0-.11426-.02735V17.3401h.53516v.07812c-.06933.0166-.10351.0459-.10351.08789v.32422a1.0237,1.0237,0,0,1-.26758.167.62182.62182,0,0,1-.22949.04688.64065.64065,0,0,1-.30274-.0752.56486.56486,0,0,1-.22851-.22363A.6924.6924,0,0,1,7.272,17.386a.81595.81595,0,0,1,.09668-.40528.65614.65614,0,0,1,.26758-.26367.79077.79077,0,0,1,.38379-.0918.65475.65475,0,0,1,.11914.01368.84587.84587,0,0,1,.13769.03808.43067.43067,0,0,1,.11231.0586c.00586.00488.002.02246-.0127.05371a.88276.88276,0,0,1-.05566.09961.34326.34326,0,0,1-.05078.06835Z"/><path class="e" d="M9.23878,17.9983a.26888.26888,0,0,1-.03223-.125.58887.58887,0,0,1-.18359.12988.42732.42732,0,0,1-.17285.041.252.252,0,0,1-.11817-.0293.22689.22689,0,0,1-.09082-.084.2484.2484,0,0,1-.03515-.13574A.28514.28514,0,0,1,8.6294,17.676a.35273.35273,0,0,1,.06836-.0957.43579.43579,0,0,1,.0918-.06933.7155.7155,0,0,1,.15137-.05762,2.26967,2.26967,0,0,1,.26367-.05371v-.126a.18573.18573,0,0,0-.03028-.11328.12691.12691,0,0,0-.10644-.041.14728.14728,0,0,0-.06641.01563.12407.12407,0,0,0-.05175.043.11152.11152,0,0,0-.02051.0664l.001.0127c0,.00879-.01953.02051-.05957.03516-.041.01464-.085.02734-.13183.03906a.27047.27047,0,0,1-.08789.01172l-.02246-.05762a.39238.39238,0,0,1,.11816-.15332.65785.65785,0,0,1,.19922-.11133.68058.68058,0,0,1,.23144-.041.29014.29014,0,0,1,.21387.07128.2495.2495,0,0,1,.07129.18653v.51855c0,.05567.01465.083.043.083a.12621.12621,0,0,0,.03613-.00586c.01367-.0039.03418-.01172.0625-.02246l.02344.08008a1.27819,1.27819,0,0,1-.18652.10742.3857.3857,0,0,1-.13477.0459A.08021.08021,0,0,1,9.23878,17.9983Zm-.03418-.49316a1.08964,1.08964,0,0,0-.17774.041.21258.21258,0,0,0-.08593.04981.23715.23715,0,0,0-.04688.0625.16423.16423,0,0,0-.01562.07519.12459.12459,0,0,0,.03125.09375.10312.10312,0,0,0,.06836.02832.23222.23222,0,0,0,.09863-.02441.557.557,0,0,0,.12793-.08789Z"/><path class="e" d="M10.48292,18.00514a.29781.29781,0,0,1-.042-.13965.87338.87338,0,0,1-.20508.14258.41352.41352,0,0,1-.16211.03613A.273.273,0,0,1,9.87843,17.97a.35363.35363,0,0,1-.07618-.25781v-.44141a.57393.57393,0,0,0-.00585-.10254.04552.04552,0,0,0-.0293-.03418.38986.38986,0,0,0-.0957-.0166v-.07519c.07812-.00684.14257-.01465.19238-.02344a.9813.9813,0,0,0,.1582-.03906l.03809.0498v.61426a.47127.47127,0,0,0,.01367.13281.10622.10622,0,0,0,.041.06445.13235.13235,0,0,0,.06934.01661.26808.26808,0,0,0,.11328-.02832.61961.61961,0,0,0,.14356-.09961v-.459a.45223.45223,0,0,0-.00782-.09863.06052.06052,0,0,0-.03711-.04.31125.31125,0,0,0-.09668-.01465v-.07519a2.37482,2.37482,0,0,0,.35938-.0625l.04.0498v.67676a.62251.62251,0,0,0,.00488.0918.05449.05449,0,0,0,.01953.0371.03519.03519,0,0,0,.01953.00586.312.312,0,0,0,.09473-.03027l.02734.08008a1.72243,1.72243,0,0,1-.18164.10254.44348.44348,0,0,1-.126.05078A.09315.09315,0,0,1,10.48292,18.00514Z"/><path class="e" d="M10.96729,18.011l-.02832-.04786.56836-.82226H11.228a.11438.11438,0,0,0-.08985.05566.50443.50443,0,0,0-.06836.16992l-.07617-.02148.02734-.34961a.42385.42385,0,0,0,.07715.01465c.02246.001.06055.002.11133.002H11.811l.02442.04688-.57129.82324h.36914a.04905.04905,0,0,0,.042-.02734.27258.27258,0,0,0,.03125-.07129c.00879-.03028.02246-.07813.03906-.14551l.0752.01758c0,.05761-.001.125-.00293.2041-.00293.07812-.00586.1289-.00977.15137Z"/><path class="e" d="M12.24073,17.509a.54786.54786,0,0,0,.03613.1836.28665.28665,0,0,0,.09278.125.22784.22784,0,0,0,.1416.04589.38359.38359,0,0,0,.0918-.00976.4144.4144,0,0,0,.09765-.03711,1.163,1.163,0,0,0,.13672-.083.10061.10061,0,0,1,.0293.0293c.01074.01562.02051.02832.02636.03906a1.30874,1.30874,0,0,1-.17187.15137.51157.51157,0,0,1-.14258.07129.584.584,0,0,1-.1582.01953.41143.41143,0,0,1-.22363-.06445.45978.45978,0,0,1-.16211-.17969.56663.56663,0,0,1-.05957-.26367.594.594,0,0,1,.05566-.26075.53633.53633,0,0,1,.30371-.2666.45283.45283,0,0,1,.1582-.02929.40384.40384,0,0,1,.22657.06054.367.367,0,0,1,.13574.16016.52334.52334,0,0,1,.04492.21973.28922.28922,0,0,1-.06445.04687c-.03125.0166-.05957.03125-.08594.042Zm.36133-.12109a.04592.04592,0,0,0,.03223-.00781.04.04,0,0,0,.00878-.03028.3259.3259,0,0,0-.01855-.10644.2225.2225,0,0,0-.06055-.09473.15631.15631,0,0,0-.11035-.04.16724.16724,0,0,0-.14648.07227.42913.42913,0,0,0-.0625.207Z"/><path class="e" d="M13.46632,17.93287a.42678.42678,0,0,0,.1084-.03223c.02636-.01171.03906-.02343.03906-.0332V16.76686c-.05176.00683-.10059.01367-.14746.02148l-.01367-.09863a2.30623,2.30623,0,0,1,.27734-.0459,2.80674,2.80674,0,0,1,.30273-.01856.88482.88482,0,0,1,.293.04395.413.413,0,0,1,.19336.13086.31841.31841,0,0,1,.06934.20605.41525.41525,0,0,1-.07032.24121.48094.48094,0,0,1-.38281.20508.54528.54528,0,0,1-.09863-.00781.32709.32709,0,0,1-.084-.02441l-.03418-.11231a.33995.33995,0,0,0,.07519.02539.35543.35543,0,0,0,.07422.00684.24635.24635,0,0,0,.123-.03223.22605.22605,0,0,0,.09179-.09668.33338.33338,0,0,0,.03516-.16113.32279.32279,0,0,0-.043-.16992.26861.26861,0,0,0-.12207-.10547.43675.43675,0,0,0-.18164-.03516c-.01758,0-.04688.001-.08887.002v1.126c0,.02344.06055.0459.18067.06543V18.011h-.59668Z"/><path class="e" d="M15.37061,17.9983a.269.269,0,0,1-.03222-.125.58891.58891,0,0,1-.1836.12988.42728.42728,0,0,1-.17285.041.252.252,0,0,1-.11816-.0293.22689.22689,0,0,1-.09082-.084.2484.2484,0,0,1-.03516-.13574.285.285,0,0,1,.02344-.11915.35252.35252,0,0,1,.06836-.0957.43579.43579,0,0,1,.0918-.06933.71538.71538,0,0,1,.15136-.05762,2.27056,2.27056,0,0,1,.26367-.05371v-.126a.18573.18573,0,0,0-.03027-.11328.12691.12691,0,0,0-.10644-.041.14722.14722,0,0,0-.06641.01563.1241.1241,0,0,0-.05176.043.11159.11159,0,0,0-.02051.0664l.001.0127c0,.00879-.01953.02051-.05957.03516-.041.01464-.085.02734-.13184.03906a.27042.27042,0,0,1-.08789.01172l-.02246-.05762a.39232.39232,0,0,1,.11817-.15332.65773.65773,0,0,1,.19922-.11133.68058.68058,0,0,1,.23144-.041.29014.29014,0,0,1,.21387.07128.2495.2495,0,0,1,.07129.18653v.51855c0,.05567.01465.083.043.083a.12627.12627,0,0,0,.03613-.00586c.01367-.0039.03418-.01172.0625-.02246l.02344.08008a1.27776,1.27776,0,0,1-.18653.10742.38567.38567,0,0,1-.13476.0459A.08024.08024,0,0,1,15.37061,17.9983Zm-.03418-.49316a1.08972,1.08972,0,0,0-.17773.041.21262.21262,0,0,0-.08594.04981.23732.23732,0,0,0-.04687.0625.16423.16423,0,0,0-.01563.07519.12459.12459,0,0,0,.03125.09375.10316.10316,0,0,0,.06836.02832.23215.23215,0,0,0,.09863-.02441.55653.55653,0,0,0,.12793-.08789Z"/><path class="e" d="M16.57472,17.85572a1.2185,1.2185,0,0,1-.1211.11035.38755.38755,0,0,1-.10449.0586.34643.34643,0,0,1-.11914.01953.33213.33213,0,0,1-.18848-.0625.45749.45749,0,0,1-.14746-.17871.60046.60046,0,0,1-.05664-.26856.57241.57241,0,0,1,.06641-.27148.53252.53252,0,0,1,.18652-.20508.48305.48305,0,0,1,.26856-.07812.41049.41049,0,0,1,.10546.01367.34451.34451,0,0,1,.10352.0498v-.36816a.81168.81168,0,0,0-.00586-.123.05772.05772,0,0,0-.03516-.04394.332.332,0,0,0-.10644-.01758v-.07422c.07226-.00781.14062-.01758.2041-.03027a1.52465,1.52465,0,0,0,.16016-.04l.041.04v1.30468a.79.79,0,0,0,.00488.10254.05938.05938,0,0,0,.01954.04.03693.03693,0,0,0,.02148.00488.28312.28312,0,0,0,.0918-.02734l.02929.07813a1.45547,1.45547,0,0,1-.1914.10937.41526.41526,0,0,1-.127.0459C16.62257,18.0442,16.58936,17.98072,16.57472,17.85572Zm-.10352-.70019a.25364.25364,0,0,0-.12891-.03321.21643.21643,0,0,0-.18066.08789.43611.43611,0,0,0-.06641.26661.48009.48009,0,0,0,.03516.19043.31355.31355,0,0,0,.0918.12793.18593.18593,0,0,0,.11621.04394.23.23,0,0,0,.10937-.02734.6436.6436,0,0,0,.12012-.08985v-.46875A.28051.28051,0,0,0,16.4712,17.15553Z"/><path class="e" d="M17.49757,17.93287a.42678.42678,0,0,0,.1084-.03223c.02636-.01171.03906-.02343.03906-.0332V16.803c0-.01074-.0127-.02149-.03711-.03418a.43248.43248,0,0,0-.11035-.03223v-.0791H18.062v.0791a.51879.51879,0,0,0-.10937.03223c-.02637.01172-.03907.02344-.03907.03418v.501l.39942-.47265c.02734-.03125.041-.05274.041-.06543,0-.00879-.00683-.01563-.02148-.01953a.49072.49072,0,0,0-.0752-.00977v-.0791h.4834v.0791a.48279.48279,0,0,0-.10351.02051.16743.16743,0,0,0-.0625.0459l-.46094.48242.51758.54883a.1324.1324,0,0,0,.05078.03613.16037.16037,0,0,0,.06347.01074c.01075,0,.0293-.001.05664-.0039l.00782.07812-.02246.00781c-.05957.01954-.11036.03516-.15332.0459a.43238.43238,0,0,1-.10743.01758.15778.15778,0,0,1-.05566-.00976.14946.14946,0,0,1-.04492-.03614l-.5127-.64062v.52734c0,.00977.0127.02149.03809.03418a.43761.43761,0,0,0,.11035.03125V18.011h-.56445Z"/><path class="e" d="M18.8589,17.93287a.42656.42656,0,0,0,.10839-.03223c.02637-.01171.03907-.02343.03907-.0332V16.76686c-.05176.00683-.10059.01367-.14746.02148l-.01368-.09863a2.30677,2.30677,0,0,1,.27735-.0459,2.80659,2.80659,0,0,1,.30273-.01856.88482.88482,0,0,1,.293.04395.413.413,0,0,1,.19336.13086.31841.31841,0,0,1,.06934.20605.41525.41525,0,0,1-.07032.24121.48094.48094,0,0,1-.38281.20508.5452.5452,0,0,1-.09863-.00781.32729.32729,0,0,1-.084-.02441l-.03418-.11231a.33984.33984,0,0,0,.0752.02539.35543.35543,0,0,0,.07422.00684.24628.24628,0,0,0,.123-.03223.22607.22607,0,0,0,.0918-.09668.33338.33338,0,0,0,.03516-.16113.32279.32279,0,0,0-.043-.16992.26861.26861,0,0,0-.12207-.10547.43678.43678,0,0,0-.18164-.03516c-.01758,0-.04688.001-.08887.002v1.126c0,.02344.06055.0459.18066.06543V18.011H18.8589Z"/><path class="e" d="M20.106,17.93287a.326.326,0,0,0,.11035-.02832c.02441-.01269.03711-.02539.03711-.03711V16.81471a.2769.2769,0,0,0-.14746-.07813v-.0791h.2998a.08267.08267,0,0,1,.03418.00586.08988.08988,0,0,1,.02539.02051c.00879.01074.02344.03027.04395.05761l.65722.91114V16.803c0-.01172-.01172-.02344-.03515-.03711a.33592.33592,0,0,0-.11231-.0293v-.0791h.457v.0791a.32367.32367,0,0,0-.10937.0293c-.02637.01269-.03906.02539-.03906.03711V18.0442a.46393.46393,0,0,1-.16016-.03906.24788.24788,0,0,1-.09668-.07325l-.65625-.90918v.84473c0,.01074.01269.02246.03711.03613a.31087.31087,0,0,0,.11133.0293V18.011h-.457Z"/><path class="e" d="M22.09132,17.41236a2.58444,2.58444,0,0,1,.14062-.28027c.03223-.05664.06055-.10547.08692-.14648s.05566-.08594.08886-.13379l.0293-.04395a.24333.24333,0,0,1,.03125-.03516l.03613-.02734a1.612,1.612,0,0,1,.14356-.07715.32875.32875,0,0,1,.11328-.03711.05035.05035,0,0,1,.03516.0127.03921.03921,0,0,1,.01367.02832.03966.03966,0,0,1-.00489.02051.08.08,0,0,1-.01171.01953l-.00977.01562c-.02344.03418-.05664.082-.10156.14258-.04785.06641-.08789.123-.12207.17188q-.04981.07323-.085.13769l-.00391.00781.002.00489.00489.001.01171-.0039a.1818.1818,0,0,1,.05762-.02051.35991.35991,0,0,1,.084-.01074.2744.2744,0,0,1,.16113.05078.37606.37606,0,0,1,.11328.13086.35715.35715,0,0,1,.041.16308.51353.51353,0,0,1-.03809.19922.61145.61145,0,0,1-.11426.17481.55806.55806,0,0,1-.14453.11914.343.343,0,0,1-.17871.0498.45639.45639,0,0,1-.165-.0332.4114.4114,0,0,1-.13184-.082.53117.53117,0,0,1-.09472-.1211.3442.3442,0,0,1-.041-.17578A.56451.56451,0,0,1,22.09132,17.41236Zm.36523.335a.16986.16986,0,0,0,.0625.01563.17871.17871,0,0,0,.12988-.04395.16619.16619,0,0,0,.04395-.12109.20739.20739,0,0,0-.02051-.085.20226.20226,0,0,0-.06543-.0791.1843.1843,0,0,0-.11035-.03223.17142.17142,0,0,0-.13086.05078.18445.18445,0,0,0-.04785.12891.14452.14452,0,0,0,.01855.06933.17978.17978,0,0,0,.04981.05567A.277.277,0,0,0,22.45655,17.74732Z"/><path class="e" d="M23.28272,17.79908a.68.68,0,0,1,.06641-.07715.10565.10565,0,0,1,.01953-.01855.02344.02344,0,0,1,.01465-.00586.06955.06955,0,0,1,.03711.01465.40909.40909,0,0,0,.07812.02734.34778.34778,0,0,0,.09571.01367.14089.14089,0,0,0,.0664-.01757.15066.15066,0,0,0,.05371-.04883.12379.12379,0,0,0,.02051-.07032.11014.11014,0,0,0-.03515-.07714.17768.17768,0,0,0-.083-.04981.57417.57417,0,0,0-.15235-.02539.06314.06314,0,0,1-.03125-.00586.02636.02636,0,0,1-.00879-.02344.22318.22318,0,0,1,.02247-.08007.54313.54313,0,0,1,.06054-.09961.33037.33037,0,0,1,.08008-.07422.29982.29982,0,0,0,.07715-.06348.13027.13027,0,0,0,.02441-.08008c0-.05371-.03515-.09082-.10449-.1123a.5549.5549,0,0,0-.11523-.01856c-.04981-.0039-.09082-.00586-.125-.00586a.0602.0602,0,0,1-.02637-.00488.01688.01688,0,0,1-.00977-.01758.34106.34106,0,0,1,.05664-.10547.8517.8517,0,0,1,.08692-.11718.11245.11245,0,0,1,.01953-.01563.04241.04241,0,0,1,.02051-.00488,1.025,1.025,0,0,1,.14941.01758.70149.70149,0,0,1,.15918.04.247.247,0,0,1,.1582.23144.30612.30612,0,0,1-.03906.15332.58072.58072,0,0,1-.08691.12207.03215.03215,0,0,0-.01172.02051l.00293.00879.00586.00391.00488.00293c.00488.0039.02539.01562.06055.03515a.26351.26351,0,0,1,.09277.09961.31079.31079,0,0,1,.04.16309.43892.43892,0,0,1-.05273.21093.6958.6958,0,0,1-.13086.17286.46152.46152,0,0,1-.15625.0957.50987.50987,0,0,1-.165.0332.5278.5278,0,0,1-.13867-.02148.74628.74628,0,0,1-.14551-.06153.07.07,0,0,1-.01953-.01367.02558.02558,0,0,1-.00879-.01855.08085.08085,0,0,1,.01172-.03906A.49781.49781,0,0,1,23.28272,17.79908Z"/><path class="e" d="M24.55323,17.83228c.03223-.0498.06348-.09765.09473-.14453.043-.06445.07129-.10839.08594-.13183l.00585-.01563c0-.00683-.00488-.00976-.01367-.00976l-.03222.00879a.22955.22955,0,0,1-.0586.00781.34575.34575,0,0,1-.248-.11133.33024.33024,0,0,1-.07422-.11816.429.429,0,0,1-.02344-.14551.38406.38406,0,0,1,.02441-.12988.72294.72294,0,0,1,.05664-.127.54927.54927,0,0,1,.05567-.08593.73079.73079,0,0,1,.14844-.13575.35862.35862,0,0,1,.207-.05859.43423.43423,0,0,1,.16211.03516.48947.48947,0,0,1,.15625.10156.3312.3312,0,0,1,.08789.13965.57336.57336,0,0,1,.02343.166.41648.41648,0,0,1-.01464.11231.73155.73155,0,0,1-.041.10742c-.03418.07129-.083.16113-.14746.26855-.06445.1084-.12207.19922-.17383.27246l-.01562.02442a.35017.35017,0,0,1-.08106.09277.71012.71012,0,0,1-.11035.05957.67412.67412,0,0,1-.12988.043l-.01563.00195a.04272.04272,0,0,1-.02832-.00879.0258.0258,0,0,1-.00976-.0205.10174.10174,0,0,1,.01757-.043l.02051-.03516C24.49757,17.92115,24.522,17.88111,24.55323,17.83228Zm.35156-.63281a.189.189,0,0,0,.01661-.08008.20227.20227,0,0,0-.01758-.07617.18151.18151,0,0,0-.04883-.06933.17938.17938,0,0,0-.06152-.03614.27.27,0,0,0-.07813-.01074.1485.1485,0,0,0-.11426.041.17931.17931,0,0,0-.04394.123.21073.21073,0,0,0,.02539.10547.1658.1658,0,0,0,.06738.06739.18514.18514,0,0,0,.09082.02343.23691.23691,0,0,0,.06348-.00879.18972.18972,0,0,0,.05273-.02343A.146.146,0,0,0,24.90479,17.19947Z"/><g class="f"><path class="e" d="M18.09522,14.06471a.09025.09025,0,0,0-.07715-.03028h-.582q-.04687,0-.04687-.02929a.079.079,0,0,1,.00586-.02344.3489.3489,0,0,1,.01465-.03613l.01269-.03223a1.02437,1.02437,0,0,1,.0625-.11426,1.20771,1.20771,0,0,1,.07227-.10742.03931.03931,0,0,1,.01367-.01074.076.076,0,0,1,.02148-.00391.02674.02674,0,0,1,.02637.02051.18822.18822,0,0,1,.00781.02637.08547.08547,0,0,0,.01465.02832.03176.03176,0,0,0,.02442.01074h.46289a.16272.16272,0,0,1,.12793.05176.242.242,0,0,1,.05664.13379,1.98965,1.98965,0,0,1,.01465.21093c.0039.09571.00488.20313.00488.32325a.13374.13374,0,0,1-.00391.03515.4725.4725,0,0,1-.05078.09863.412.412,0,0,1-.07129.08985.057.057,0,0,1-.0293.01465.01849.01849,0,0,1-.0166-.01172.06242.06242,0,0,1-.00683-.03321c-.002-.09179-.00586-.1875-.01172-.28808q-.01026-.14942-.02051-.25781A.12283.12283,0,0,0,18.09522,14.06471Zm-.57324.2666.00977-.02539a.71385.71385,0,0,1,.04394-.07422.55812.55812,0,0,1,.05274-.07227.2254.2254,0,0,1,.02832-.02734.03018.03018,0,0,1,.0205-.00781.018.018,0,0,1,.01563.00586l.00488.01074.001.00683c.00391.01954.00976.07227.0166.16016.00684.08691.00977.14453.00977.17285l-.001.02442-.00879.02734a.40372.40372,0,0,1-.05664.09863.5028.5028,0,0,1-.07324.084.03458.03458,0,0,1-.01856.00586c-.00683,0-.01172-.002-.01367-.00684l-.00391-.02148c-.00585-.03907-.01269-.09766-.01953-.17969-.00781-.08008-.01074-.13379-.01074-.15918A.07382.07382,0,0,1,17.522,14.33131Z"/><path class="e" d="M18.67432,14.4026h.18946c.01855,0,.02832-.01172.02832-.03418a.80514.80514,0,0,0-.00488-.09668.6691.6691,0,0,0-.01368-.07227.35469.35469,0,0,0-.01953-.05957.20172.20172,0,0,0-.02636-.04394.45361.45361,0,0,0-.08106-.083.56544.56544,0,0,0-.12207-.07422.0294.0294,0,0,1-.01953-.02734.04018.04018,0,0,1,.00781-.02442c.02832-.04687.05274-.08594.07324-.11621a.54791.54791,0,0,1,.06348-.0791l.01367-.01074.0127-.00391a.07083.07083,0,0,1,.03222.01465.728.728,0,0,1,.14649.11719.30432.30432,0,0,1,.05566.085.53344.53344,0,0,1,.03809.11328,1.21683,1.21683,0,0,1,.02441.22852.79958.79958,0,0,1-.02344.21386c-.00878.03418-.01953.06934-.03222.10449a.84446.84446,0,0,1-.03516.08594.09739.09739,0,0,1-.02246.0293.04611.04611,0,0,1-.0293.00976h-.35449a.02553.02553,0,0,1-.01758-.00585.02083.02083,0,0,1-.00683-.01563.56457.56457,0,0,1,.03125-.10449.907.907,0,0,1,.05078-.124A.04419.04419,0,0,1,18.67432,14.4026Z"/><path class="e" d="M19.30518,14.51783a.45389.45389,0,0,1,.04981-.09472.02823.02823,0,0,1,.01465-.01172.04715.04715,0,0,1,.01758-.00293h.1123a.02661.02661,0,0,0,.01953-.00684.02511.02511,0,0,0,.00684-.01562,1.08585,1.08585,0,0,0-.03125-.126,1.87124,1.87124,0,0,0-.05762-.18164.04344.04344,0,0,0-.02539-.02832.12853.12853,0,0,0-.041-.00684h-.0625a.035.035,0,0,1-.02343-.00879.034.034,0,0,1-.01172-.02734.13939.13939,0,0,1,.00976-.03516,1.14926,1.14926,0,0,1,.06543-.14257,1.42,1.42,0,0,1,.08106-.125.054.054,0,0,1,.04394-.0254.02879.02879,0,0,1,.02149.01075.04837.04837,0,0,1,.01269.01855.11239.11239,0,0,0,.02246.044.04823.04823,0,0,0,.03321.01269h.47754a.14091.14091,0,0,1,.085.02539.22315.22315,0,0,1,.06054.06055.145.145,0,0,1,.01953.05273c.00391.02051.00782.05274.0127.09473a3.76179,3.76179,0,0,1,.02246.39551.80793.80793,0,0,1-.00293.08594.15481.15481,0,0,1-.01367.04589c-.01074.01954-.02734.04786-.05078.083-.02246.03613-.0459.06934-.06934.10059l-.01172.01074a.02351.02351,0,0,1-.01464.00391c-.01172,0-.01758-.01075-.01758-.03321,0-.07324-.00489-.16992-.01465-.292-.01074-.12109-.02246-.21484-.03516-.28223a.09083.09083,0,0,0-.02636-.05761.09994.09994,0,0,0-.0625-.01563h-.24512a.02486.02486,0,0,0-.01563.00489l-.00488.00976.00586.02734c.01758.06836.03125.127.043.17579a.57975.57975,0,0,1,.0166.10449.27038.27038,0,0,1-.00293.041l-.00977.04493a.897.897,0,0,1-.0332.09863,1.02555,1.02555,0,0,1-.04883.10937.03535.03535,0,0,1-.01465.0166.04179.04179,0,0,1-.02343.00489h-.292c-.02247,0-.03321-.00879-.03321-.02832l.00391-.01758A.73517.73517,0,0,1,19.30518,14.51783Z"/><path class="e" d="M20.71729,14.70631a.10939.10939,0,0,1-.00879-.03809c-.00293-.0664-.00878-.15625-.01953-.26855s-.01953-.19043-.02636-.23535a.20234.20234,0,0,0-.02442-.06543.19589.19589,0,0,0-.04883-.0625.89306.89306,0,0,0-.10546-.08106l-.01758-.01269a.03019.03019,0,0,1-.01172-.02246.048.048,0,0,1,.00683-.02247.83823.83823,0,0,1,.15723-.21191.03443.03443,0,0,1,.02051-.00684l.0166.00489a.40384.40384,0,0,1,.08594.07715.59578.59578,0,0,1,.07519.09277.42665.42665,0,0,1,.03907.0791.45464.45464,0,0,1,.02246.12207c.00683.07031.00976.16016.00976.26953,0,.06446,0,.10938-.002.13379l-.001.02344a.15112.15112,0,0,1-.0039.03027.14741.14741,0,0,1-.00977.0293.45409.45409,0,0,1-.04687.084.77151.77151,0,0,1-.05762.07911.03867.03867,0,0,1-.03028.0166A.02237.02237,0,0,1,20.71729,14.70631Z"/><path class="e" d="M21.19483,14.40553a.08474.08474,0,0,1,.02735-.00489h.31738a.09042.09042,0,0,0,.04883-.01562.1153.1153,0,0,0,.03808-.04688.16437.16437,0,0,0,.01465-.07226.25092.25092,0,0,0-.02539-.11621.1939.1939,0,0,0-.07226-.08106.21054.21054,0,0,0-.11133-.02929h-.25782a.18179.18179,0,0,1-.06445-.00879.031.031,0,0,1-.02246-.03028.27222.27222,0,0,1,.03027-.08691,1.37067,1.37067,0,0,1,.06934-.12793.57025.57025,0,0,1,.05859-.083.14576.14576,0,0,1,.02246-.01953.031.031,0,0,1,.01954-.00586.025.025,0,0,1,.01757.01074.04969.04969,0,0,1,.00977.02442.08059.08059,0,0,0,.01465.04.03634.03634,0,0,0,.02832.00879h.2207a.23291.23291,0,0,1,.15528.05371.33184.33184,0,0,1,.09765.13867.44984.44984,0,0,1,.0332.16992A.80938.80938,0,0,1,21.855,14.26a.66536.66536,0,0,1-.03906.13379.997.997,0,0,1-.07813.14941.5585.5585,0,0,1-.08691.11133.11367.11367,0,0,1-.02832.01953.09985.09985,0,0,1-.03809.00488h-.47754a.05056.05056,0,0,1-.02734-.00488.0259.0259,0,0,1-.00781-.02148.39443.39443,0,0,1,.03906-.10938.96958.96958,0,0,1,.05957-.11426A.06784.06784,0,0,1,21.19483,14.40553Z"/><path class="e" d="M22.61182,14.0901a.1715.1715,0,0,1-.11718-.041.22934.22934,0,0,1-.06836-.10254.37994.37994,0,0,1-.02149-.1289.29925.29925,0,0,1,.01368-.09961.28949.28949,0,0,1,.03222-.06739.68362.68362,0,0,1,.0752-.08593.46047.46047,0,0,1,.09277-.07325.18238.18238,0,0,1,.03613-.01562.15551.15551,0,0,1,.042-.00586.14047.14047,0,0,1,.08691.02832.22252.22252,0,0,1,.07227.0957.30246.30246,0,0,1,.02734.12305.50073.50073,0,0,1-.01563.13477.358.358,0,0,1-.04589.10156.411.411,0,0,1-.08887.0918A.19032.19032,0,0,1,22.61182,14.0901Zm-.10546.55566c.02539-.04785.06543-.11914.11914-.21191.05371-.09375.1123-.19239.17382-.29785.06446-.10645.126-.21485.1836-.3252.05762-.10937.0957-.18652.11523-.22949a.09539.09539,0,0,1,.01172-.02442.05644.05644,0,0,1,.01953-.0166c.01075-.00781.02442-.01758.04-.02734s.02832-.01758.03613-.02344l.01172-.00683.00879-.00489a.05143.05143,0,0,1,.02246-.00586.00937.00937,0,0,1,.01075.01075l-.00293.01464-.00489.00977c-.00683.02148-.05664.1123-.14746.27148-.09082.16016-.15234.26758-.18554.32227-.03125.05176-.07325.126-.127.22461s-.09082.17285-.1123.22266a.16534.16534,0,0,1-.05274.07617.30185.30185,0,0,1-.04687.03027c-.02051.01074-.03613.01856-.04785.02344l-.0127.001c-.01172,0-.01855-.00488-.01855-.0166A.034.034,0,0,1,22.50636,14.64576Zm.14062-.72949q.07325,0,.07324-.10547a.55726.55726,0,0,0-.00293-.0625.28907.28907,0,0,0-.01757-.05762.07892.07892,0,0,0-.08106-.05175.043.043,0,0,0-.042.03515.35614.35614,0,0,0-.01074.09473.26065.26065,0,0,0,.01953.10547A.06519.06519,0,0,0,22.647,13.91627Zm.45215.76269a.1709.1709,0,0,1-.11719-.04.231.231,0,0,1-.06933-.10254.38165.38165,0,0,1-.02149-.12989.30573.30573,0,0,1,.01465-.09961.27386.27386,0,0,1,.03125-.06543.61333.61333,0,0,1,.0752-.08691.46039.46039,0,0,1,.09277-.07324.15474.15474,0,0,1,.03613-.01563.164.164,0,0,1,.042-.00683.13941.13941,0,0,1,.08692.02929.23206.23206,0,0,1,.07324.09571.31918.31918,0,0,1,.02734.123.41544.41544,0,0,1-.0625.23633.42543.42543,0,0,1-.08789.0918A.19672.19672,0,0,1,23.09913,14.679Zm.03516-.17187c.04882,0,.07324-.03516.07324-.10645a.54785.54785,0,0,0-.00391-.0625.35338.35338,0,0,0-.01562-.05859.08117.08117,0,0,0-.03321-.04.11661.11661,0,0,0-.0498-.01074c-.02051,0-.03418.01172-.041.03613a.30493.30493,0,0,0-.01172.09375.24781.24781,0,0,0,.02051.10547A.06435.06435,0,0,0,23.13429,14.50709Z"/><path class="e" d="M23.67335,14.40748a.06305.06305,0,0,1,.02539-.00391h.08691a.02417.02417,0,0,0,.02246-.01074.03991.03991,0,0,0,.00684-.02441c0-.043-.002-.10547-.00391-.18653q-.00439-.123-.00879-.17871a.408.408,0,0,0-.0166-.10937.11632.11632,0,0,0-.05664-.07227.23186.23186,0,0,0-.07812-.02636l-.0586-.01172a.03131.03131,0,0,1-.01953-.01075.0363.0363,0,0,1-.00586-.02246.105.105,0,0,1,.043-.07422,1.08055,1.08055,0,0,1,.21192-.15625.30994.30994,0,0,1,.14062-.042.07412.07412,0,0,1,.05274.01856.08074.08074,0,0,1,.02441.0498.97046.97046,0,0,1,.01855.15821c.00293.05273.00391.11914.00391.19824,0,.14355.00586.28125.01563.41113l.00292.03711a.08729.08729,0,0,0,.01075.041.03041.03041,0,0,0,.02734.01171h.13184a.03093.03093,0,0,1,.02246.00879.029.029,0,0,1,.00976.02344.06638.06638,0,0,1-.0039.02051.0908.0908,0,0,1-.00782.02148l-.01855.03907a.80434.80434,0,0,1-.07813.14257.05258.05258,0,0,1-.01855.01563.08088.08088,0,0,1-.03027.0039h-.52442a.05587.05587,0,0,1-.0332-.00781.02254.02254,0,0,1-.0127-.02148.22.22,0,0,1,.01954-.06446c.01367-.03222.02832-.06445.04492-.09668.01758-.0332.02929-.05468.03613-.06542A.08432.08432,0,0,1,23.67335,14.40748Z"/><path class="e" d="M24.50147,13.91334a1.44091,1.44091,0,0,1,.03907-.15234.4586.4586,0,0,1,.08691-.15625.32233.32233,0,0,1,.10937-.08985.27359.27359,0,0,1,.248.00488.41262.41262,0,0,1,.11914.09668.46864.46864,0,0,1,.09864.20118,1.14534,1.14534,0,0,1,.03125.27441.95387.95387,0,0,1-.03907.25586.62657.62657,0,0,1-.1084.22168.45467.45467,0,0,1-.11523.10742.234.234,0,0,1-.12109.03223.30024.30024,0,0,1-.23926-.13086.40591.40591,0,0,1-.0586-.11035.89554.89554,0,0,1-.04785-.17188,1.10853,1.10853,0,0,1-.01953-.21777A.79518.79518,0,0,1,24.50147,13.91334Zm.45118.51953a.06093.06093,0,0,0,.02929-.0293.2317.2317,0,0,0,.02344-.0791.75875.75875,0,0,0,.00781-.10644,1.297,1.297,0,0,0-.01172-.15039c-.00781-.06446-.01562-.11328-.02343-.14746a.31225.31225,0,0,0-.02832-.07618.13641.13641,0,0,0-.04786-.05566.14277.14277,0,0,0-.04492-.02344.18373.18373,0,0,0-.07031-.01269.06291.06291,0,0,0-.04395.01757.11253.11253,0,0,0-.02636.05176.67841.67841,0,0,0-.0127.10059c-.0039.041-.00488.07617-.00488.10547a1.17313,1.17313,0,0,0,.01367.18847.44629.44629,0,0,0,.03711.13575.16751.16751,0,0,0,.06543.06738.19671.19671,0,0,0,.08984.02148A.1325.1325,0,0,0,24.95265,14.43287Z"/><path class="e" d="M25.45948,13.91334a1.441,1.441,0,0,1,.03906-.15234.45879.45879,0,0,1,.08692-.15625.32215.32215,0,0,1,.10937-.08985.27359.27359,0,0,1,.248.00488.41275.41275,0,0,1,.11914.09668.46851.46851,0,0,1,.09863.20118,1.14483,1.14483,0,0,1,.03125.27441.95384.95384,0,0,1-.03906.25586.62674.62674,0,0,1-.1084.22168.45467.45467,0,0,1-.11523.10742.23407.23407,0,0,1-.1211.03223.30022.30022,0,0,1-.23925-.13086.40591.40591,0,0,1-.0586-.11035.89554.89554,0,0,1-.04785-.17188,1.10853,1.10853,0,0,1-.01953-.21777A.79518.79518,0,0,1,25.45948,13.91334Zm.45117.51953a.06094.06094,0,0,0,.0293-.0293.2317.2317,0,0,0,.02344-.0791.75875.75875,0,0,0,.00781-.10644,1.29927,1.29927,0,0,0-.01172-.15039c-.00781-.06446-.01562-.11328-.02344-.14746a.31184.31184,0,0,0-.02832-.07618.13632.13632,0,0,0-.04785-.05566.14289.14289,0,0,0-.04492-.02344.18373.18373,0,0,0-.07031-.01269.06291.06291,0,0,0-.04395.01757.11244.11244,0,0,0-.02637.05176.68.68,0,0,0-.01269.10059c-.00391.041-.00488.07617-.00488.10547a1.172,1.172,0,0,0,.01367.18847.446.446,0,0,0,.03711.13575.16751.16751,0,0,0,.06543.06738.19671.19671,0,0,0,.08984.02148A.1324.1324,0,0,0,25.91065,14.43287Z"/><path class="e" d="M27.16163,14.03932h-.36914a.04608.04608,0,0,1-.0293-.00977.03532.03532,0,0,1-.01367-.03125.26092.26092,0,0,1,.0293-.084q.0293-.063.06738-.12891a.90182.90182,0,0,1,.05273-.084.06147.06147,0,0,1,.01465-.01856.023.023,0,0,1,.0166-.00586.03667.03667,0,0,1,.02539.01465l.00684.0166.00293.01172a.07975.07975,0,0,0,.01367.03027.03736.03736,0,0,0,.03125.01075h.20508a.0287.0287,0,0,0,.0166-.00586.12356.12356,0,0,0,.02051-.01758.22746.22746,0,0,1,.02637-.02344.14807.14807,0,0,1,.07812-.03711c.0166,0,.02539.0127.02539.03809v.0332c0,.00879.00684.0127.01953.0127h.09961a.03344.03344,0,0,1,.02637.01171.061.061,0,0,1,.01074.03809.38859.38859,0,0,1-.02051.10645.50645.50645,0,0,1-.04492.10937.03848.03848,0,0,1-.03613.01465h-.02148a.01775.01775,0,0,0-.01563.00781.02867.02867,0,0,0-.00391.01563c.00293.08007.00586.1455.00782.19824s.00293.1123.0039.17969a.22346.22346,0,0,1-.01074.06543.44557.44557,0,0,1-.05078.10351.75735.75735,0,0,1-.06836.09766.03372.03372,0,0,1-.02246.01172c-.01465,0-.02344-.0127-.02539-.04l-.0127-.22071c-.00879-.19433-.0166-.32519-.02441-.3955A.028.028,0,0,0,27.16163,14.03932Z"/><path class="e" d="M27.82276,14.40748a.04307.04307,0,0,1,.02539-.00684h.39356c.02344,0,.03515-.01367.03515-.04a.89907.89907,0,0,0-.00879-.10547.85227.85227,0,0,0-.02246-.11817.22922.22922,0,0,0-.04589-.07226.29541.29541,0,0,0-.06934-.05664.54263.54263,0,0,0-.083-.041.18273.18273,0,0,0-.05957-.01562.02219.02219,0,0,0-.02051.01562.09271.09271,0,0,0-.00683.03418.08721.08721,0,0,0,.01953.04883.12894.12894,0,0,0,.05078.043.04985.04985,0,0,1,.02344.01367.02532.02532,0,0,1,.00879.01758l-.00293.00976-.00391.00879a.84787.84787,0,0,1-.04785.082.57811.57811,0,0,1-.04981.07227.03069.03069,0,0,1-.01367.01074.03348.03348,0,0,1-.01562.00391.069.069,0,0,1-.03028-.01465.58586.58586,0,0,1-.0664-.05078.25641.25641,0,0,1-.04981-.06348.17822.17822,0,0,1-.02246-.08789.34615.34615,0,0,1,.04492-.15625.7292.7292,0,0,1,.09961-.13867.58094.58094,0,0,1,.11426-.1084l.00977-.00684a.04169.04169,0,0,1,.02343-.00586.26357.26357,0,0,1,.0752.02247,1.10018,1.10018,0,0,1,.11523.05468.53836.53836,0,0,1,.09278.06348.52971.52971,0,0,1,.04687.04687.2831.2831,0,0,1,.03711.06543.41346.41346,0,0,1,.02637.10157,1.79287,1.79287,0,0,1,.01758.2666.45935.45935,0,0,1-.02051.13379c-.01172.03711-.02637.07812-.04395.12207a.52529.52529,0,0,1-.05273.10547.04556.04556,0,0,1-.01367.01367.047.047,0,0,1-.02149.0039H27.7378c-.02051,0-.03125-.00683-.03125-.02148a.32624.32624,0,0,1,.03418-.1084.95479.95479,0,0,1,.06445-.12207A.08788.08788,0,0,1,27.82276,14.40748Z"/><path class="e" d="M29.08839,14.10279a.23522.23522,0,0,0-.16407-.05957h-.248a.04882.04882,0,0,1-.02539-.00586.02172.02172,0,0,1-.01074-.0166.29524.29524,0,0,1,.02734-.09668,1.17685,1.17685,0,0,1,.06641-.13086.52925.52925,0,0,1,.07128-.09863l.0127-.01172.01172-.00586a.03318.03318,0,0,1,.01562.00391.02143.02143,0,0,1,.00782.01465.12166.12166,0,0,0,.01757.0498.03259.03259,0,0,0,.02637.01758h.18067a.27485.27485,0,0,1,.15625.04687.265.265,0,0,1,.09863.11914.81994.81994,0,0,1,.03808.19532c.00684.081.01075.15136.01075.209a.7675.7675,0,0,1-.00684.13477.54074.54074,0,0,1-.0459.10937,1.34085,1.34085,0,0,1-.07422.124.08561.08561,0,0,1-.0166.0166l-.01367.0039c-.0166,0-.02539-.01953-.02734-.05761-.001-.02246-.002-.05469-.00391-.09766-.00195-.07129-.00488-.12988-.00781-.1748a1.21636,1.21636,0,0,0-.01465-.12793A.27781.27781,0,0,0,29.08839,14.10279Z"/><path class="e" d="M29.71339,14.46021l.01074-.0371c.01172-.03907.02148-.08106.03125-.127a.52875.52875,0,0,0,.01465-.10742.18269.18269,0,0,0-.01465-.06738.4971.4971,0,0,0-.042-.07813,1.09106,1.09106,0,0,0-.06446-.09179l-.00488-.00586-.00488-.00782-.002-.00879a.042.042,0,0,1,.00683-.02148.83008.83008,0,0,1,.0586-.09473q.04394-.06591.09082-.123l.01074-.00879.01172-.00391a.03537.03537,0,0,1,.02343.01465.62972.62972,0,0,1,.06446.0957.70338.70338,0,0,1,.0459.09668c.00781.02246.01464.05078.02246.082a.39723.39723,0,0,1,.01074.05469l.001.001.002.001.00879-.00585.00879-.02051c.02148-.04688.042-.08789.06054-.12207a.355.355,0,0,1,.0586-.082.26472.26472,0,0,1,.07812-.05469.24278.24278,0,0,1,.09082-.0166.25361.25361,0,0,1,.125.03418.34053.34053,0,0,1,.10742.10156.66478.66478,0,0,1,.09766.39258,1.34758,1.34758,0,0,1-.00684.14062.51754.51754,0,0,1-.03418.13379.673.673,0,0,1-.05957.12695.05778.05778,0,0,1-.02246.02344.07447.07447,0,0,1-.03222.00488h-.47364a.04341.04341,0,0,1-.02441-.00488.02356.02356,0,0,1-.00879-.02148l.00488-.01856.01172-.02636c.01465-.03223.03321-.06836.05469-.10645a.69136.69136,0,0,1,.05273-.085.05182.05182,0,0,1,.01563-.0127.05845.05845,0,0,1,.02246-.00293h.27734c.01661,0,.02539-.00683.02539-.01855a.48718.48718,0,0,0-.0039-.06836l-.01563-.08984a.42586.42586,0,0,0-.02539-.08106.27181.27181,0,0,0-.03906-.07129.19016.19016,0,0,0-.06836-.05078.22178.22178,0,0,0-.08594-.01758.17316.17316,0,0,0-.11328.03614.393.393,0,0,0-.083.11132,1.47569,1.47569,0,0,0-.09375.24317l-.00683.02441a.14632.14632,0,0,1-.01465.03711.81827.81827,0,0,1-.07422.11524,1.15565,1.15565,0,0,1-.10058.11914.0494.0494,0,0,1-.03125.0166l-.00977-.00488-.00391-.01075A2.21692,2.21692,0,0,1,29.71339,14.46021Z"/></g><g class="f"><path class="e" d="M19.25147,21.13307a.40668.40668,0,0,0,.09375-.02735c.02149-.01074.03321-.02051.03321-.02929v-.94922c-.04493.00586-.08692.01172-.127.01855l-.01269-.085a1.97712,1.97712,0,0,1,.24023-.04,2.269,2.269,0,0,1,.26074-.01562.76145.76145,0,0,1,.25293.03808.35441.35441,0,0,1,.167.11231.27148.27148,0,0,1,.05957.17773.35994.35994,0,0,1-.06055.208.40474.40474,0,0,1-.15234.13281.39666.39666,0,0,1-.17871.04492.62367.62367,0,0,1-.085-.00683.28647.28647,0,0,1-.07226-.02149L19.6421,20.594a.29936.29936,0,0,0,.06445.02246.41924.41924,0,0,0,.06348.00489.21338.21338,0,0,0,.10644-.02735.20952.20952,0,0,0,.0791-.083.30119.30119,0,0,0,.03028-.13965.27652.27652,0,0,0-.03711-.14649.23436.23436,0,0,0-.10547-.09082.37168.37168,0,0,0-.15625-.03125c-.01562,0-.041.001-.07715.002v.97168c0,.0205.05176.04.15625.05664v.06738h-.51465Z"/><path class="e" d="M20.59034,21.15943a.52356.52356,0,0,1-.18262-.19922.63812.63812,0,0,1-.06933-.30273.72722.72722,0,0,1,.07715-.34082.58092.58092,0,0,1,.21093-.23047.56581.56581,0,0,1,.29785-.081.72157.72157,0,0,1,.19336.02636.43154.43154,0,0,1,.14551.06641c.00391.00293,0,.01953-.01172.04785a.951.951,0,0,1-.04492.08887.31688.31688,0,0,1-.041.06055l-.06055-.0127a.26848.26848,0,0,0-.24024-.15527.24236.24236,0,0,0-.13769.04785.34293.34293,0,0,0-.10938.15722.78156.78156,0,0,0-.04492.291.5658.5658,0,0,0,.05078.251.36757.36757,0,0,0,.12989.15234.315.315,0,0,0,.166.04883.436.436,0,0,0,.14356-.0293.607.607,0,0,0,.16894-.10351.148.148,0,0,1,.03418.042.14257.14257,0,0,0,.01465.02051.63142.63142,0,0,1-.4502.22363A.459.459,0,0,1,20.59034,21.15943Z"/><path class="e" d="M21.61475,21.20338a.557.557,0,0,1-.16015-.06543q-.00586-.00439-.00879-.03223c-.002-.01953-.00293-.043-.00293-.07129a.92431.92431,0,0,1,.00488-.10254.45682.45682,0,0,1,.01465-.08691l.06543.00488a.44133.44133,0,0,0,.12207.17871.2562.2562,0,0,0,.1709.06739.25925.25925,0,0,0,.10644-.02149.17339.17339,0,0,0,.07911-.0625.16288.16288,0,0,0,.02929-.09765.18635.18635,0,0,0-.03613-.11524.31521.31521,0,0,0-.09082-.08105,1.61583,1.61583,0,0,0-.14648-.0752,1.59659,1.59659,0,0,1-.16309-.085.365.365,0,0,1-.10547-.09961.24507.24507,0,0,1,.00391-.2832.36355.36355,0,0,1,.14355-.12012.50821.50821,0,0,1,.23535-.0498.733.733,0,0,1,.18848.02343.266.266,0,0,1,.12207.06153l.00293.00976a.16661.16661,0,0,1-.01465.05274.47222.47222,0,0,1-.03515.07031.19156.19156,0,0,1-.03321.0459l-.06054-.00488a.25268.25268,0,0,0-.09668-.11622.22587.22587,0,0,0-.12012-.03613.22.22,0,0,0-.09766.01953.14094.14094,0,0,0-.05859.05274.14441.14441,0,0,0-.01856.06933.13207.13207,0,0,0,.03223.08789.30778.30778,0,0,0,.08105.06641c.03321.01953.07715.043.13282.07031a1.74454,1.74454,0,0,1,.17871.09961.41958.41958,0,0,1,.11621.11133.27331.27331,0,0,1,.04883.16309.33588.33588,0,0,1-.05274.1748.39453.39453,0,0,1-.15625.14453.5204.5204,0,0,1-.25293.05762A.7019.7019,0,0,1,21.61475,21.20338Z"/><path class="e" d="M22.95753,20.929a.06307.06307,0,0,1,.02539-.0039h.08691a.0242.0242,0,0,0,.02246-.01074.03994.03994,0,0,0,.00684-.02442c0-.043-.00195-.10547-.00391-.18652q-.0044-.123-.00879-.17871a.40807.40807,0,0,0-.0166-.10938.1163.1163,0,0,0-.05664-.07226.23183.23183,0,0,0-.07812-.02637l-.0586-.01172a.0313.0313,0,0,1-.01953-.01074.03632.03632,0,0,1-.00586-.02246.105.105,0,0,1,.043-.07422,1.07974,1.07974,0,0,1,.21192-.15625.30994.30994,0,0,1,.14062-.042.07413.07413,0,0,1,.05273.01855.08075.08075,0,0,1,.02442.04981.97034.97034,0,0,1,.01855.1582c.00293.05273.00391.11914.00391.19824,0,.14356.00586.28125.01562.41113l.00293.03711a.08722.08722,0,0,0,.01075.041.03041.03041,0,0,0,.02734.01172h.13184a.03093.03093,0,0,1,.02246.00879.029.029,0,0,1,.00976.02343.06633.06633,0,0,1-.0039.02051.09089.09089,0,0,1-.00782.02149l-.01855.03906a.80494.80494,0,0,1-.07813.14258.05265.05265,0,0,1-.01855.01562.08084.08084,0,0,1-.03027.00391h-.52442a.05587.05587,0,0,1-.0332-.00781.02255.02255,0,0,1-.0127-.02149.22.22,0,0,1,.01954-.06445c.01367-.03223.02832-.06445.04492-.09668.01758-.0332.02929-.05469.03613-.06543A.08432.08432,0,0,1,22.95753,20.929Z"/><path class="e" d="M23.78565,20.43482a1.44217,1.44217,0,0,1,.03907-.15234.45869.45869,0,0,1,.08691-.15625.32218.32218,0,0,1,.10937-.08984.27351.27351,0,0,1,.248.00488.41228.41228,0,0,1,.11914.09668.46842.46842,0,0,1,.09863.20117,1.145,1.145,0,0,1,.03125.27441.95384.95384,0,0,1-.03906.25586.62657.62657,0,0,1-.1084.22168.45473.45473,0,0,1-.11523.10743.23412.23412,0,0,1-.12109.03222.30021.30021,0,0,1-.23926-.13086.40591.40591,0,0,1-.0586-.11035.89543.89543,0,0,1-.04785-.17187,1.10863,1.10863,0,0,1-.01953-.21778A.79531.79531,0,0,1,23.78565,20.43482Zm.45117.51954a.061.061,0,0,0,.0293-.0293.23185.23185,0,0,0,.02344-.0791.7589.7589,0,0,0,.00781-.10645,1.29718,1.29718,0,0,0-.01172-.15039c-.00781-.06445-.01562-.11328-.02343-.14746a.312.312,0,0,0-.02832-.07617.13645.13645,0,0,0-.04786-.05567.14279.14279,0,0,0-.04492-.02343.18373.18373,0,0,0-.07031-.0127.06288.06288,0,0,0-.044.01758.11253.11253,0,0,0-.02636.05176.67825.67825,0,0,0-.0127.10058c-.0039.041-.00488.07617-.00488.10547a1.1721,1.1721,0,0,0,.01367.18848.44583.44583,0,0,0,.03711.13574.16751.16751,0,0,0,.06543.06738.19659.19659,0,0,0,.08984.02149A.1324.1324,0,0,0,24.23682,20.95436Z"/><path class="e" d="M24.74366,20.43482a1.43979,1.43979,0,0,1,.03906-.15234.45888.45888,0,0,1,.08692-.15625.322.322,0,0,1,.10937-.08984.27351.27351,0,0,1,.24805.00488.41242.41242,0,0,1,.11914.09668.46853.46853,0,0,1,.09863.20117,1.145,1.145,0,0,1,.03125.27441.95384.95384,0,0,1-.03906.25586.62674.62674,0,0,1-.1084.22168.45473.45473,0,0,1-.11523.10743.23416.23416,0,0,1-.1211.03222.30019.30019,0,0,1-.23925-.13086.40591.40591,0,0,1-.0586-.11035.89543.89543,0,0,1-.04785-.17187,1.10863,1.10863,0,0,1-.01953-.21778A.79531.79531,0,0,1,24.74366,20.43482Zm.45117.51954a.061.061,0,0,0,.0293-.0293.23185.23185,0,0,0,.02344-.0791.7589.7589,0,0,0,.00781-.10645,1.29943,1.29943,0,0,0-.01172-.15039c-.00781-.06445-.01562-.11328-.02344-.14746a.31162.31162,0,0,0-.02832-.07617.13636.13636,0,0,0-.04785-.05567.14291.14291,0,0,0-.04492-.02343.18373.18373,0,0,0-.07031-.0127.06288.06288,0,0,0-.04395.01758.11244.11244,0,0,0-.02637.05176.67979.67979,0,0,0-.01269.10058c-.00391.041-.00488.07617-.00488.10547a1.1721,1.1721,0,0,0,.01367.18848.44583.44583,0,0,0,.03711.13574.16751.16751,0,0,0,.06543.06738.19659.19659,0,0,0,.08984.02149A.1324.1324,0,0,0,25.19483,20.95436Z"/><path class="e" d="M26.22413,20.93775l.01367-.00293a.0903.0903,0,0,1,.0332.00782.62546.62546,0,0,0,.07911.02636.32451.32451,0,0,0,.084.01075.11479.11479,0,0,0,.08691-.03321.113.113,0,0,0,.03223-.08008.16855.16855,0,0,0-.01269-.06445.10521.10521,0,0,0-.08692-.06933.44185.44185,0,0,0-.082-.00586h-.12988a.05579.05579,0,0,1-.06446-.05567,1.35225,1.35225,0,0,1-.01757-.14941q-.00294-.07325-.00293-.21973a.26716.26716,0,0,1,.0205-.0918.49809.49809,0,0,1,.05274-.10742.35474.35474,0,0,1,.06738-.083.03572.03572,0,0,1,.02344-.01074.01585.01585,0,0,1,.01367.00489l.00684.01074.00293.00781a.07153.07153,0,0,0,.02148.03613.06688.06688,0,0,0,.041.00977h.35254a.07247.07247,0,0,1,.03711.00781.03041.03041,0,0,1,.01171.02734.35411.35411,0,0,1-.02832.11329.64342.64342,0,0,1-.05371.1123.04112.04112,0,0,1-.02148.01953.14733.14733,0,0,1-.04981.00488h-.22558a.0376.0376,0,0,0-.02344.00586.03066.03066,0,0,0-.00684.02344l.002.03711.002.03516a.018.018,0,0,0,.00586.01562.056.056,0,0,0,.02344.00391h.06836a.26856.26856,0,0,1,.05078.00683.41355.41355,0,0,1,.07422.02149.22472.22472,0,0,1,.06738.03808.28187.28187,0,0,1,.10449.22461.40718.40718,0,0,1-.02246.12891.59084.59084,0,0,1-.05469.11719.56814.56814,0,0,1-.05761.083.38535.38535,0,0,1-.12793.09765.33581.33581,0,0,1-.13672.02832.73759.73759,0,0,1-.26758-.06152.061.061,0,0,1-.02344-.01367.01723.01723,0,0,1-.00586-.0127.169.169,0,0,1,.02051-.05078.7902.7902,0,0,1,.0459-.083.36292.36292,0,0,1,.04394-.06054Z"/><path class="e" d="M27.35108,20.28834a1.494,1.494,0,0,0-.06152.19043.84769.84769,0,0,0-.01367.13574.05492.05492,0,0,1-.00293.01953.07046.07046,0,0,1-.01172.01856.50277.50277,0,0,1-.06641.06933.39057.39057,0,0,1-.08008.06153.06758.06758,0,0,1-.04.01465c-.00489-.001-.01172-.00684-.01758-.01856a.1755.1755,0,0,1-.0166-.0459.31575.31575,0,0,1-.00586-.0625.41543.41543,0,0,1,.02148-.13281.90843.90843,0,0,1,.07422-.1582.6764.6764,0,0,1,.082-.11133.574.574,0,0,1,.0957-.08985.12282.12282,0,0,1,.02637-.01464.08511.08511,0,0,1,.03027-.00489.02188.02188,0,0,1,.01465.00782.02391.02391,0,0,1,.00586.01562.08606.08606,0,0,1-.00683.03027l-.00879.02442Zm.36328.00781c-.0166.04688-.02929.084-.03808.10938a.67322.67322,0,0,0-.01856.07324.7423.7423,0,0,0-.01465.13574.055.055,0,0,1-.00292.01953.07046.07046,0,0,1-.01172.01856.54847.54847,0,0,1-.06543.06836.52325.52325,0,0,1-.08008.0625.075.075,0,0,1-.04.01465c-.00586-.001-.0127-.00684-.01856-.01856a.14663.14663,0,0,1-.0166-.0459.25566.25566,0,0,1-.00683-.0625.41543.41543,0,0,1,.02148-.13281.90843.90843,0,0,1,.07422-.1582.83258.83258,0,0,1,.084-.11133.61184.61184,0,0,1,.09473-.08985.09745.09745,0,0,1,.02637-.01562.10589.10589,0,0,1,.0293-.00391.022.022,0,0,1,.01562.00782.0208.0208,0,0,1,.00684.01562.08712.08712,0,0,1-.00684.02832l-.01074.02637C27.73,20.25514,27.72315,20.27467,27.71436,20.29615Z"/><path class="e" d="M28.11573,20.93775l.01367-.00293a.09039.09039,0,0,1,.03321.00782.62475.62475,0,0,0,.0791.02636.32451.32451,0,0,0,.084.01075.11483.11483,0,0,0,.08692-.03321.113.113,0,0,0,.03222-.08008.16836.16836,0,0,0-.01269-.06445.10521.10521,0,0,0-.08692-.06933.44185.44185,0,0,0-.082-.00586h-.12988a.05577.05577,0,0,1-.06445-.05567,1.34992,1.34992,0,0,1-.01758-.14941q-.00294-.07325-.00293-.21973a.267.267,0,0,1,.02051-.0918.49758.49758,0,0,1,.05273-.10742.355.355,0,0,1,.06738-.083.03572.03572,0,0,1,.02344-.01074.01585.01585,0,0,1,.01367.00489l.00684.01074.00293.00781a.07153.07153,0,0,0,.02148.03613.06688.06688,0,0,0,.041.00977h.35254a.07247.07247,0,0,1,.03711.00781.03041.03041,0,0,1,.01172.02734.35438.35438,0,0,1-.02832.11329.64333.64333,0,0,1-.05372.1123.04112.04112,0,0,1-.02148.01953.1473.1473,0,0,1-.0498.00488h-.22559a.0376.0376,0,0,0-.02344.00586.03066.03066,0,0,0-.00683.02344l.002.03711.002.03516a.018.018,0,0,0,.00586.01562.056.056,0,0,0,.02344.00391h.06836a.26856.26856,0,0,1,.05078.00683.41355.41355,0,0,1,.07422.02149.22448.22448,0,0,1,.06738.03808.28187.28187,0,0,1,.10449.22461.40718.40718,0,0,1-.02246.12891.59084.59084,0,0,1-.05469.11719.56737.56737,0,0,1-.05761.083.38535.38535,0,0,1-.12793.09765.33578.33578,0,0,1-.13672.02832.73759.73759,0,0,1-.26758-.06152.061.061,0,0,1-.02344-.01367.01723.01723,0,0,1-.00586-.0127.169.169,0,0,1,.02051-.05078.7902.7902,0,0,1,.0459-.083.36227.36227,0,0,1,.04395-.06054Z"/></g><path class="e" d="M32.22218,17.04029a.12573.12573,0,0,0-.1045-.042h-.79c-.043,0-.06446-.01269-.06446-.03906A.12192.12192,0,0,1,31.271,16.927c.00586-.01562.01172-.03125.01954-.04883l.01757-.043a1.30231,1.30231,0,0,1,.085-.15625c.03223-.05273.06543-.10156.09766-.14453a.03852.03852,0,0,1,.01953-.01465.07017.07017,0,0,1,.02832-.00585.03718.03718,0,0,1,.03711.02734l.01074.03516a.08185.08185,0,0,0,.01954.03906.039.039,0,0,0,.03222.01465h.62988a.221.221,0,0,1,.17383.07031.33471.33471,0,0,1,.07715.18262c.00781.06152.01465.15625.01953.28613.00391.12988.00684.27637.00684.43945a.195.195,0,0,1-.00684.04785.61083.61083,0,0,1-.06836.13282.50534.50534,0,0,1-.09668.12207.07977.07977,0,0,1-.04.0205.02555.02555,0,0,1-.02246-.01562.09826.09826,0,0,1-.00879-.0459c-.00293-.124-.00781-.25488-.0166-.39062s-.01758-.25293-.02734-.35157A.16486.16486,0,0,0,32.22218,17.04029Zm-.7793.36231c.00293-.00782.00684-.01953.01367-.03516a1.1335,1.1335,0,0,1,.05957-.10058.91789.91789,0,0,1,.07129-.09766.38067.38067,0,0,1,.03906-.03711.04455.04455,0,0,1,.02832-.01172.025.025,0,0,1,.02051.00781.03214.03214,0,0,1,.00684.01563l.002.00976c.00586.02637.0127.09864.02246.2168.00879.11816.01367.19727.01367.23535a.16743.16743,0,0,1-.00293.03321.14746.14746,0,0,1-.01074.0371.53575.53575,0,0,1-.07812.13282.614.614,0,0,1-.09864.11426.0422.0422,0,0,1-.02539.00878c-.00976,0-.01562-.00293-.01855-.00976a.10019.10019,0,0,1-.00488-.0293c-.00879-.05176-.01758-.13281-.02735-.24316q-.01464-.16407-.01465-.2168A.12029.12029,0,0,1,31.44288,17.4026Z"/><path class="e" d="M33.01417,17.22291a.169.169,0,0,1,.002-.03418.216.216,0,0,1,.00879-.02734l.00781-.02442.02637-.06738a.41487.41487,0,0,0,.03809-.11621.03478.03478,0,0,0-.00489-.01856.03809.03809,0,0,0-.01562-.01464.77736.77736,0,0,0-.1084-.04981l-.03223-.01562a.04656.04656,0,0,1-.02636-.02149.0589.0589,0,0,1-.00684-.0293.18609.18609,0,0,1,.0332-.07324c.02246-.03613.04786-.07324.07618-.1123.02929-.03906.0498-.06543.06445-.08106a.06833.06833,0,0,1,.04883-.0205.09866.09866,0,0,1,.0459.01074,1.52376,1.52376,0,0,1,.207.12207,1.28452,1.28452,0,0,1,.17578.15527.08.08,0,0,1,.02344.04785l-.00293.0127-.00391.01269c-.01074.0293-.02832.07227-.05371.127a.99856.99856,0,0,1-.07227.13574.02422.02422,0,0,1-.02051.01269.0379.0379,0,0,1-.02539-.00976.90659.90659,0,0,0-.07324-.06543c-.02929-.02442-.04785-.03711-.05762-.03711a.01663.01663,0,0,0-.01269.00781.0374.0374,0,0,0-.00488.01856l.001.01757.00293.01661a1.03462,1.03462,0,0,0,.03614.13769c.01562.05078.03808.11133.06543.18457.02929.08106.04492.123.04589.126l.00879.02637a.10679.10679,0,0,1,.00782.03222.10113.10113,0,0,1-.00391.02149l-.00684.01953a1.00026,1.00026,0,0,1-.05664.15429.75069.75069,0,0,1-.05761.10743c-.01075.01367-.01954.0205-.0254.0205-.01757,0-.0332-.01855-.04785-.05664l-.05273-.14941c-.04492-.126-.07813-.22266-.10156-.293a1.4137,1.4137,0,0,1-.0459-.16113A.19107.19107,0,0,1,33.01417,17.22291Z"/><path class="e" d="M33.91358,17.75514a.22639.22639,0,0,0,.01367-.06543,1.15937,1.15937,0,0,1,.01172-.14356c.00782-.05859.01563-.10547.02246-.14062a.7668.7668,0,0,1,.0586-.16895.89724.89724,0,0,1,.0957-.15625l.00488-.00683.002-.00782c0-.00293-.002-.00683-.00782-.01269l-.01562-.01563c-.02539-.02246-.08008-.06933-.16406-.13965l-.06446-.05371-.01464-.0166a.02659.02659,0,0,1-.00391-.01562.02936.02936,0,0,1,.00391-.01758,1.37513,1.37513,0,0,1,.17871-.2627.059.059,0,0,1,.03515-.01757.0383.0383,0,0,1,.01758.0039l.01074.00488a2.66184,2.66184,0,0,1,.31055.25293q.20508.186.39258.375c.01074.01075.01855.01563.02344.01563.01269,0,.01953-.01465.01953-.043a.82707.82707,0,0,0-.00782-.12012.39445.39445,0,0,0-.02636-.10156l-.01172-.02539a.1392.1392,0,0,1-.0166-.04395.06664.06664,0,0,1,.01074-.03417c.02832-.043.06152-.08985.09961-.13965a1.19824,1.19824,0,0,1,.11621-.13086l.00879-.00782a.02653.02653,0,0,1,.0166-.00585.01722.01722,0,0,1,.0127.00585l.01464.01954a.60761.60761,0,0,1,.05957.13379.54315.54315,0,0,1,.02149.15332.49663.49663,0,0,1-.0127.11621.73351.73351,0,0,1-.03906.10742,1.20379,1.20379,0,0,1-.13769.23047l-.002.01269a.024.024,0,0,0,.00586.01563c.041.041.09375.09765.15723.16992s.09765.1123.10351.12012a.04383.04383,0,0,1,.00879.01953.0383.0383,0,0,1-.0039.01758l-.00489.01367a1.241,1.241,0,0,1-.0791.15722.77262.77262,0,0,1-.06933.11133l-.00879.00781a.024.024,0,0,1-.01563.00586l-.01269-.00488-.00684-.00683q-.18311-.20948-.4082-.43067-.1582-.15087-.3252-.2959l-.01562-.01269a.02877.02877,0,0,0-.01563-.00977c-.0039,0-.00879.00293-.01367.00977a.08849.08849,0,0,0-.01367.02734.62628.62628,0,0,0-.01953.083.56548.56548,0,0,0-.00977.10254.16929.16929,0,0,0,.0166.0957.0387.0387,0,0,0,.01758.01074.06272.06272,0,0,0,.01953.00489h.1377c.02051,0,.03027.01172.03027.03613a.51715.51715,0,0,1-.04687.13574.976.976,0,0,1-.08594.16406.05991.05991,0,0,1-.05762.03418h-.33008c-.0166,0-.02539-.00683-.02539-.0205a.081.081,0,0,1,.00782-.02442A.59238.59238,0,0,0,33.91358,17.75514Z"/><path class="e" d="M35.4419,17.78053c.0127-.05567.02539-.10742.03809-.15332a.06973.06973,0,0,1,.03711-.04785l.01562-.00879.01953-.01172a1.50743,1.50743,0,0,0,.18946-.126c.07617-.06641.11426-.11133.11426-.13672a.37874.37874,0,0,0-.01563-.08008c-.01074-.03906-.01855-.0664-.02441-.081a.29223.29223,0,0,0-.0625-.08887,1.20286,1.20286,0,0,0-.11719-.0957c-.05274-.03809-.10254-.07324-.15039-.10449a.03.03,0,0,1-.0127-.02246.04677.04677,0,0,1,.00879-.02539c.03125-.05176.06055-.09766.08789-.13672.02735-.04.05762-.08106.09278-.124a.05566.05566,0,0,1,.01757-.01562.04949.04949,0,0,1,.01856-.00781l.01562.00488a1.01461,1.01461,0,0,1,.123.082.71435.71435,0,0,1,.11621.10352.444.444,0,0,1,.06153.09765.61179.61179,0,0,1,.04394.11524c.01465.05175.0293.125.0459.21972s.03125.19824.04492.30957l.00488.043c.00293.02344.00489.03906.00489.04688a.21382.21382,0,0,1-.00586.05664,1.17886,1.17886,0,0,1-.041.15527,1.272,1.272,0,0,1-.05762.15723.0537.0537,0,0,1-.0166.01953.03947.03947,0,0,1-.02148.00683.02935.02935,0,0,1-.02442-.02539c-.01074-.05175-.02539-.126-.04589-.22363-.02149-.09668-.03711-.16992-.04786-.2207l-.002-.00684-.00391-.00488q-.01172,0-.01757.02344c-.00586.02539-.01563.05957-.0293.10058q-.02051.063-.0293.085a.34416.34416,0,0,1-.03515.07227.3205.3205,0,0,1-.04981.06152.67343.67343,0,0,1-.14062.0918.34458.34458,0,0,1-.127.04687.05652.05652,0,0,1-.03222-.00683.02972.02972,0,0,1-.00879-.02442A.63011.63011,0,0,1,35.4419,17.78053Z"/><path class="e" d="M37.21827,17.45045c.02832-.04883.05078-.09082.06641-.124a.21751.21751,0,0,0,.02441-.082.2217.2217,0,0,0-.05664-.16113.82038.82038,0,0,0-.08008-.07226c-.02832-.02247-.06347-.04883-.10449-.07813l-.041-.03027a.45393.45393,0,0,1-.05078-.041.06374.06374,0,0,1-.01758-.0332.08858.08858,0,0,1,.01368-.03613.90589.90589,0,0,1,.09082-.13086,1.17558,1.17558,0,0,1,.10742-.12207.12081.12081,0,0,1,.02539-.01856.03346.03346,0,0,1,.01562-.0039.051.051,0,0,1,.02149.00585,1.37147,1.37147,0,0,1,.17969.13184.88419.88419,0,0,1,.15527.15527.49129.49129,0,0,1,.05566.09668.27.27,0,0,1,.02051.10743.42835.42835,0,0,1-.0332.15625.73988.73988,0,0,1-.07324.14453.53159.53159,0,0,1-.1377.14843.75742.75742,0,0,1-.18457.1045.096.096,0,0,1-.03125.01074.01784.01784,0,0,1-.02051-.01953l.00293-.01074C37.18018,17.52076,37.19679,17.48853,37.21827,17.45045Z"/><path class="e" d="M38.40186,17.00611h-.50293a.0655.0655,0,0,1-.03906-.01367.04864.04864,0,0,1-.01855-.043.36175.36175,0,0,1,.04-.11426c.02734-.05664.05761-.11425.09179-.17382a1.23055,1.23055,0,0,1,.07129-.11524.09165.09165,0,0,1,.01953-.02441.03485.03485,0,0,1,.02246-.00781.04663.04663,0,0,1,.03418.0205.05241.05241,0,0,1,.00977.02246l.00391.01465a.15615.15615,0,0,0,.01855.042.05256.05256,0,0,0,.042.01368h.28028a.03724.03724,0,0,0,.02148-.00684c.00586-.00488.01563-.01269.02832-.02441a.41264.41264,0,0,1,.03516-.03223.20373.20373,0,0,1,.10644-.0498c.02344,0,.03516.0166.03516.05175v.04493c0,.01074.00879.0166.02637.0166h.13476a.04544.04544,0,0,1,.03613.0166.078.078,0,0,1,.01368.05176.53653.53653,0,0,1-.02637.14355.73511.73511,0,0,1-.06152.14941.05184.05184,0,0,1-.04883.02051h-.03028a.02229.02229,0,0,0-.0205.00977.04176.04176,0,0,0-.00586.02148c.00488.1084.00879.19824.01074.26953q.0044.10694.00586.24317a.28386.28386,0,0,1-.01563.08887.5989.5989,0,0,1-.06836.1416,1.09989,1.09989,0,0,1-.09277.13183.04538.04538,0,0,1-.03027.0166c-.02051,0-.03223-.01855-.03516-.05371l-.0166-.30175c-.01172-.2627-.02246-.44141-.03418-.53614A.03644.03644,0,0,0,38.40186,17.00611Z"/><path class="e" d="M39.3003,17.50514a.05908.05908,0,0,1,.03418-.00879h.53418c.03223,0,.04785-.01856.04785-.05469a1.28158,1.28158,0,0,0-.01172-.14355,1.19442,1.19442,0,0,0-.03125-.16016.31076.31076,0,0,0-.06152-.09766.40621.40621,0,0,0-.09473-.07715.63828.63828,0,0,0-.11328-.05566A.26608.26608,0,0,0,39.523,16.887a.0284.0284,0,0,0-.02637.02051.10188.10188,0,0,0-.00977.0459.11833.11833,0,0,0,.02637.06738.17183.17183,0,0,0,.06836.05762.06968.06968,0,0,1,.03223.01953.03372.03372,0,0,1,.01172.02246.02757.02757,0,0,1-.00391.01465l-.00488.01074c-.0127.02637-.03418.06348-.06446.11231-.03125.04882-.05371.08105-.06738.09863a.0545.0545,0,0,1-.01953.01367.04748.04748,0,0,1-.02148.00586.11387.11387,0,0,1-.041-.01953.98986.98986,0,0,1-.09082-.07031.3656.3656,0,0,1-.06738-.08594.24318.24318,0,0,1-.0293-.12012.48019.48019,0,0,1,.05957-.21191,1.08258,1.08258,0,0,1,.13574-.1875.77225.77225,0,0,1,.15528-.14649l.01367-.00976a.05264.05264,0,0,1,.03222-.00781.3556.3556,0,0,1,.10157.02929,1.50735,1.50735,0,0,1,.15625.0752.77245.77245,0,0,1,.126.085.56356.56356,0,0,1,.06348.06543.31573.31573,0,0,1,.05078.08789.52043.52043,0,0,1,.03613.13769,2.49273,2.49273,0,0,1,.02344.36329.61972.61972,0,0,1-.02734.18066c-.0166.05078-.03613.10644-.06055.167a.73141.73141,0,0,1-.07031.1416.053.053,0,0,1-.01953.01953.06083.06083,0,0,1-.02832.00586h-.77832c-.0293,0-.043-.00976-.043-.03027a.453.453,0,0,1,.0459-.14746,1.29227,1.29227,0,0,1,.08691-.165A.11507.11507,0,0,1,39.3003,17.50514Z"/><line class="g" x1="10.90818" y1="23.34658" x2="37.13006" y2="23.34658"/><line class="g" x1="14.28912" y1="24.6483" x2="33.74912" y2="24.6483"/><line class="g" x1="13.07041" y1="25.95002" x2="34.96783" y2="25.95002"/><line class="g" x1="17.39525" y1="27.25174" x2="30.64299" y2="27.25174"/><line class="g" x1="14.52499" y1="28.55346" x2="33.51325" y2="28.55346"/><rect class="e" x="21.01319" y="29.60532" width="0.30357" height="2.76245"/><rect class="e" x="21.45315" y="29.60532" width="0.15178" height="2.76245"/><rect class="e" x="25.53858" y="29.60532" width="0.15178" height="2.76245"/><rect class="e" x="21.72552" y="29.60532" width="0.62192" height="2.76245"/><rect class="e" x="24.2501" y="29.60532" width="0.62192" height="2.76245"/><rect class="e" x="22.57403" y="29.60532" width="0.31096" height="2.76245"/><rect class="e" x="25.08599" y="29.60532" width="0.31096" height="2.76245"/><rect class="e" x="23.20255" y="29.60532" width="0.15548" height="2.76245"/><rect class="e" x="23.47491" y="29.60532" width="0.15548" height="2.76245"/><rect class="e" x="26.72149" y="29.60532" width="0.30357" height="2.76245"/><rect class="e" x="23.80932" y="29.60532" width="0.30357" height="2.76245"/><rect class="e" x="25.88694" y="29.60532" width="0.15548" height="2.76245"/><rect class="e" x="26.22134" y="29.60532" width="0.30357" height="2.76245"/><line class="h" x1="20.32801" y1="32.94762" x2="27.71023" y2="32.94762"/><circle class="b" cx="28.66599" cy="8.41687" r="3.80061"/><g class="i"><path class="j" d="M24.98142,6.3133s.472-.37379,2.99193-.33248a13.01044,13.01044,0,0,1,4.37722.81884V.85088H24.98142Z"/><circle class="k" cx="29.01965" cy="9.10208" r="1.02526"/></g><circle class="l" cx="28.66599" cy="8.41687" r="3.80061"/><ellipse class="b" cx="17.43584" cy="8.41687" rx="3.51395" ry="3.80061"/><g class="m"><path class="j" d="M14.02917,6.10174S14.422,5.728,16.752,5.76927a11.66292,11.66292,0,0,1,4.09056.81884V.63932H14.02917Z"/><circle class="k" cx="17.78949" cy="9.10208" r="1.02526"/></g><ellipse class="l" cx="17.43584" cy="8.41687" rx="3.51395" ry="3.80061"/><path class="n" d="M27.82483.64721a35.32739,35.32739,0,0,0,6.14569,2.384"/><path class="n" d="M18.29914.6705s-3.12777,2.90062-5.86456,2.23943"/></svg>