<svg xmlns="http://www.w3.org/2000/svg" xmlns:xlink="http://www.w3.org/1999/xlink" viewBox="0 0 50.91634 19.47013"><defs><style>.a{fill:#fff;}.b,.o{fill:#f6f6f6;}.b,.n,.r,.s{stroke:#2d2a28;stroke-miterlimit:10;}.b,.r,.s{stroke-width:0.56598px;}.c{clip-path:url(#a);}.d,.r{fill:#951b81;}.e{fill:#29235c;}.f{fill:#1f3366;}.g{fill:#17995e;}.h{fill:#95c11f;}.i{fill:#063;}.j{fill:#2fac66;}.k{fill:#1ac179;}.l{fill:#dadada;}.m{fill:#662483;}.n,.s{fill:none;}.n{stroke-linecap:round;stroke-width:1.06121px;}.p{clip-path:url(#b);}.q{fill:#2d2a28;}.t{clip-path:url(#c);}</style><clipPath id="a"><rect class="a" y="7.37116" width="48.00042" height="12.09896"/></clipPath><clipPath id="b"><circle class="b" cx="14.85047" cy="6.90047" r="3.11589"/></clipPath><clipPath id="c"><ellipse class="b" cx="5.64356" cy="6.90047" rx="2.88087" ry="3.11589"/></clipPath></defs><rect class="a" y="7.37116" width="48.00042" height="12.09896"/><g class="c"><path class="d" d="M46.11592,19.60451l.02148-.15332a52.21517,52.21517,0,0,0,.44043-6.03027,55.002,55.002,0,0,0-.44043-6.03223l-.0205-.15234h2.01855V19.60451Z"/><path class="e" d="M48.00044,7.37118V19.47011H46.26985a51.78117,51.78117,0,0,0,.44226-6.04943,54.48878,54.48878,0,0,0-.44226-6.0495h1.73059m.2688-.26886H45.96272l.04065.30444a54.60829,54.60829,0,0,1,.43994,6.01392,51.89142,51.89142,0,0,1-.43982,6.01263l-.04223.30566h2.308V7.10232Z"/><path class="f" d="M22.0085,9.45315a.09792.09792,0,0,1,.02734.07226V10.7217a.88011.88011,0,0,1-.27832.665,1.48217,1.48217,0,0,1-.78418.35352l-1.03418.21777a.09405.09405,0,0,1-.11328-.09277v-.35157a.105.105,0,0,1,.02637-.07031.10954.10954,0,0,1,.0664-.03809l.44825-.10937-.47657-1.71a.49272.49272,0,0,1-.02051-.08106.08354.08354,0,0,1,.08106-.08007h.52539a.099.099,0,0,1,.06055.01757.084.084,0,0,1,.03222.043l.4043,1.65235a.55374.55374,0,0,0,.29883-.22754.79937.79937,0,0,0,.08105-.39063V9.52541a.097.097,0,0,1,.10157-.10058h.48046A.10253.10253,0,0,1,22.0085,9.45315Z"/><path class="f" d="M22.44307,11.70217a.09682.09682,0,0,1-.03028-.07129v-.34766a.093.093,0,0,1,.03028-.07226.0989.0989,0,0,1,.07031-.02832H23.528v-.748a.40366.40366,0,0,0-.457-.456h-.51758a.09646.09646,0,0,1-.07227-.03028.10728.10728,0,0,1-.02832-.07519V9.52541a.093.093,0,0,1,.03028-.07226.10229.10229,0,0,1,.07031-.02832h.53808a1.315,1.315,0,0,1,.8545.23828.94605.94605,0,0,1,.28906.77148v.748h.1416a.09693.09693,0,0,1,.10059.10058v.34766a.103.103,0,0,1-.02832.07129.09645.09645,0,0,1-.07227.03027H22.51338A.09683.09683,0,0,1,22.44307,11.70217Z"/><path class="f" d="M25.06123,11.50979a.96659.96659,0,0,1-.28125-.74317V9.52541a.09378.09378,0,0,1,.03125-.07226.0989.0989,0,0,1,.07031-.02832h.41993a.10726.10726,0,0,1,.07519.02832.093.093,0,0,1,.03027.07226v1.2207a.41626.41626,0,0,0,.13086.33692.5506.5506,0,0,0,.36621.11133q.45264,0,.457-.43164c.002-.02735.00293-.06348.002-.10938-.002-.0459-.002-.081-.002-.10547V10.459a.72725.72725,0,0,0-.07715-.35352.23178.23178,0,0,0-.21-.123.47028.47028,0,0,0-.11914.01563.38077.38077,0,0,0-.10352.041.14178.14178,0,0,1-.03613.00782.08488.08488,0,0,1-.0625-.02637.089.089,0,0,1-.02637-.06641V9.63479a.15832.15832,0,0,1,.07617-.14942.76881.76881,0,0,1,.38867-.07715.78622.78622,0,0,1,.63672.23243,1.14394,1.14394,0,0,1,.19922.71777v.42383q-.04395.99023-1.123.99023A1.19564,1.19564,0,0,1,25.06123,11.50979Z"/><path class="f" d="M28.30244,12.2051a.09709.09709,0,0,1-.03027-.07324V9.52541a.09641.09641,0,0,1,.03027-.07226.10726.10726,0,0,1,.0752-.02832h.47656a.10251.10251,0,0,1,.07324.02832.09859.09859,0,0,1,.02832.07226v2.60645a.09934.09934,0,0,1-.02832.07324.10255.10255,0,0,1-.07324.02832h-.47656A.10731.10731,0,0,1,28.30244,12.2051Z"/><path class="f" d="M29.4499,10.74611a.09369.09369,0,0,1-.03027-.07324V9.52541a.093.093,0,0,1,.03027-.07226.10487.10487,0,0,1,.07422-.02832H30.029a.097.097,0,0,1,.10157.10058v1.14746a.10294.10294,0,0,1-.02832.07129.0937.0937,0,0,1-.07325.03028h-.50488A.10488.10488,0,0,1,29.4499,10.74611Z"/><path class="f" d="M30.84248,11.50783a.99241.99241,0,0,1-.27539-.75V9.52541a.09641.09641,0,0,1,.03027-.07226.109.109,0,0,1,.0752-.02832h1.03027a1.17147,1.17147,0,0,1,.833.24609,1.04624,1.04624,0,0,1,.27832.72754c.00293.02734.00391.09082.00391.19043,0,.10156-.001.167-.00391.19336a1.0483,1.0483,0,0,1-.28906.73828,1.21691,1.21691,0,0,1-.8584.25195A1.14383,1.14383,0,0,1,30.84248,11.50783Zm1.20215-.41211a.46318.46318,0,0,0,.11523-.333c.00293-.02735.00391-.085.00391-.17383,0-.08692-.001-.14356-.00391-.16992a.47587.47587,0,0,0-.12109-.33594.50217.50217,0,0,0-.35645-.1084H31.194v.77148a.43172.43172,0,0,0,.1211.33692.4957.4957,0,0,0,.34765.11133A.564.564,0,0,0,32.04463,11.09572Z"/><path class="f" d="M33.24092,11.70412a.09861.09861,0,0,1-.03027-.07324V9.52541a.09641.09641,0,0,1,.03027-.07226.10726.10726,0,0,1,.07519-.02832H33.821a.10253.10253,0,0,1,.07324.02832.09792.09792,0,0,1,.02734.07226v2.10547a.102.102,0,0,1-.02734.07129.10019.10019,0,0,1-.07324.03027h-.50489A.10726.10726,0,0,1,33.24092,11.70412Z"/><path class="f" d="M35.52412,11.70412a.09509.09509,0,0,1-.03027-.07324V10.43459a.40526.40526,0,0,0-.457-.46h-.61426a.10346.10346,0,0,1-.10059-.10156V9.52541a.093.093,0,0,1,.03028-.07226.0989.0989,0,0,1,.07031-.02832h.63867a1.28737,1.28737,0,0,1,.83887.23046.93347.93347,0,0,1,.27637.75586v1.21973a.103.103,0,0,1-.02832.07129.09645.09645,0,0,1-.07227.03027h-.47754A.10487.10487,0,0,1,35.52412,11.70412Z"/><path class="f" d="M36.64815,10.74611a.09367.09367,0,0,1-.03028-.07324V9.52541a.093.093,0,0,1,.03028-.07226.10486.10486,0,0,1,.07421-.02832h.50489a.097.097,0,0,1,.10156.10058v1.14746a.10294.10294,0,0,1-.02832.07129.09369.09369,0,0,1-.07324.03028h-.50489A.10487.10487,0,0,1,36.64815,10.74611Z"/><path class="f" d="M38.31807,10.14358c.00586.11132.03808.17578.09765.19433l.11231.04a.09507.09507,0,0,1,.05078.04688.15328.15328,0,0,1,.01855.07519l.00391.20606a.107.107,0,0,1-.05469.09472.20512.20512,0,0,1-.13086.02637l-.166-.02441a.514.514,0,0,1-.34766-.22461.8073.8073,0,0,1-.13769-.48243V9.52541a.14383.14383,0,0,1,.03515-.07226.08555.08555,0,0,1,.06641-.02832h.8164a1.04636,1.04636,0,0,1,.79.27246,1.15228,1.15228,0,0,1,.28516.76562c.002.02735.00391.06543.00391.11328a1.27743,1.27743,0,0,1-.25879.85059,1.017,1.017,0,0,1-.82032.30566h-.76855a.10656.10656,0,0,1-.07422-.02832.09509.09509,0,0,1-.03027-.07324v-.37109a.10339.10339,0,0,1,.10449-.10547h.748a.48566.48566,0,0,0,.33789-.11914.47119.47119,0,0,0,.14258-.33789,1.1818,1.1818,0,0,0,.00488-.1211,1.14949,1.14949,0,0,0-.00488-.11718.455.455,0,0,0-.13868-.33692.48776.48776,0,0,0-.34179-.11914h-.34375Z"/><path class="f" d="M40.18721,11.70412a.09862.09862,0,0,1-.03028-.07324V9.52541a.09642.09642,0,0,1,.03028-.07226.10726.10726,0,0,1,.07519-.02832h.50489a.10253.10253,0,0,1,.07324.02832.09792.09792,0,0,1,.02734.07226v2.10547a.102.102,0,0,1-.02734.07129.10019.10019,0,0,1-.07324.03027H40.2624A.10726.10726,0,0,1,40.18721,11.70412Z"/><path class="f" d="M43.38252,9.67092a.97865.97865,0,0,1,.25879.74023v1.21973a.103.103,0,0,1-.02832.07129.09861.09861,0,0,1-.07324.03027H42.43623a.10018.10018,0,0,1-.07031-.03027.09681.09681,0,0,1-.03027-.07129v-.34766a.093.093,0,0,1,.03027-.07226.10231.10231,0,0,1,.07031-.02832h.52149v-.73926a.48391.48391,0,0,0-.10059-.32715.33186.33186,0,0,0-.2627-.11816H42.279l-.34375,1.6289a.11523.11523,0,0,1-.03222.0752.09645.09645,0,0,1-.07227.03027h-.46484a.10471.10471,0,0,1-.0752-.03027.08029.08029,0,0,1-.02148-.0752l.39551-1.624h-.2666a.09738.09738,0,0,1-.07325-.03125.10491.10491,0,0,1-.02832-.07422V9.52541a.09378.09378,0,0,1,.03125-.07226.0989.0989,0,0,1,.07032-.02832H42.695A.9564.9564,0,0,1,43.38252,9.67092Z"/><path class="f" d="M38.74092,18.40432a.025.025,0,0,1-.00781-.01856V18.043a.1741.1741,0,0,0-.19727-.19727h-.14746a.03148.03148,0,0,1-.01953-.00683.02432.02432,0,0,1-.00684-.01856v-.03711a.02579.02579,0,0,1,.00684-.01855.02727.02727,0,0,1,.01953-.00781h.1543c.19433,0,.292.09375.292.28027v.34863a.025.025,0,0,1-.00781.01856.02671.02671,0,0,1-.01856.00781h-.04883A.025.025,0,0,1,38.74092,18.40432Z"/><path class="f" d="M39.01338,18.40432a.02432.02432,0,0,1-.00684-.01856v-.60254a.02663.02663,0,0,1,.00684-.01953.03148.03148,0,0,1,.01953-.00683h.04981a.02729.02729,0,0,1,.01953.00781.02578.02578,0,0,1,.00683.01855v.60254a.02432.02432,0,0,1-.00683.01856.02729.02729,0,0,1-.01953.00781h-.04981A.02727.02727,0,0,1,39.01338,18.40432Z"/><path class="f" d="M39.76924,17.76369a.02662.02662,0,0,1,.00683.01953v.31739a.28371.28371,0,0,1-.0664.18164.35285.35285,0,0,1-.17774.11328l-.25.08008-.00976.001a.024.024,0,0,1-.01563-.00586.01755.01755,0,0,1-.00683-.01464v-.03614c0-.01758.00586-.02832.01855-.03222l.15039-.04981-.14941-.53515-.00586-.02247a.02287.02287,0,0,1,.00684-.0166.02515.02515,0,0,1,.01562-.00683h.05273a.02545.02545,0,0,1,.01758.00586.02274.02274,0,0,1,.00977.01172l.14648.53222a.23476.23476,0,0,0,.127-.09082.28062.28062,0,0,0,.03613-.14648v-.28614a.02578.02578,0,0,1,.00683-.01855.0273.0273,0,0,1,.01954-.00781h.04785A.02943.02943,0,0,1,39.76924,17.76369Z"/><path class="f" d="M40.281,17.78713a.17953.17953,0,0,1,.08886.09473.45514.45514,0,0,1,.02735.1748.33575.33575,0,0,1-.07227.22852.42892.42892,0,0,1-.18847.12109l-.04786.0166-.00781.001a.01987.01987,0,0,1-.01465-.00586.0215.0215,0,0,1-.00586-.0166v-.04981a.03337.03337,0,0,1,.02442-.03125l.04492-.01757a.25926.25926,0,0,0,.12207-.08594.27085.27085,0,0,0,.042-.165.31526.31526,0,0,0-.01855-.12109.11526.11526,0,0,0-.05957-.06348.28476.28476,0,0,0-.11524-.01953h-.03906l-.10547-.001a.02657.02657,0,0,1-.01953-.00684.02431.02431,0,0,1-.00683-.01855V17.624a.02431.02431,0,0,1,.00683-.01855.02727.02727,0,0,1,.01953-.00781h.0459a.02288.02288,0,0,1,.01758.00781.025.025,0,0,1,.00781.01855v.13282h.08789A.37636.37636,0,0,1,40.281,17.78713Z"/><path class="f" d="M41.27412,18.40432a.025.025,0,0,1-.00781-.01856V18.043a.1738.1738,0,0,0-.19629-.19727h-.21289a.03148.03148,0,0,1-.01953-.00683.02432.02432,0,0,1-.00684-.01856v-.03711a.02663.02663,0,0,1,.00684-.01953.03148.03148,0,0,1,.01953-.00683h.21875a.25354.25354,0,0,1,.291.28222v.34668a.02432.02432,0,0,1-.00684.01856.02727.02727,0,0,1-.01953.00781h-.04785A.025.025,0,0,1,41.27412,18.40432Zm-.43652,0a.02432.02432,0,0,1-.00684-.01856V18a.02579.02579,0,0,1,.00684-.01855.02724.02724,0,0,1,.01953-.00782H40.905a.025.025,0,0,1,.01856.00782A.02668.02668,0,0,1,40.93135,18v.38574a.02667.02667,0,0,1-.02637.02637h-.04785A.02727.02727,0,0,1,40.8376,18.40432Z"/><path class="f" d="M41.54658,18.40432a.02432.02432,0,0,1-.00683-.01856v-.60254a.02662.02662,0,0,1,.00683-.01953.03151.03151,0,0,1,.01953-.00683h.21973a.30713.30713,0,0,1,.2207.07031.287.287,0,0,1,.07227.21191v.34668a.02667.02667,0,0,1-.02637.02637h-.04883a.02668.02668,0,0,1-.01855-.00781.025.025,0,0,1-.00781-.01856V18.043a.1741.1741,0,0,0-.19727-.19727h-.13965v.54a.02667.02667,0,0,1-.02636.02637h-.04786A.02729.02729,0,0,1,41.54658,18.40432Z"/><path class="f" d="M42.89326,17.76467a.02664.02664,0,0,1,.00781.01855v.31934a.34851.34851,0,0,1-.04.16895.26612.26612,0,0,1-.11133.11132.32259.32259,0,0,1-.16406.03614h-.085a.271.271,0,0,1-.13476-.03418.2524.2524,0,0,1-.09277-.09668.29025.29025,0,0,1-.03418-.14453v-.36036a.02382.02382,0,0,1,.00781-.01953.02868.02868,0,0,1,.01855-.00683h.04492a.025.025,0,0,1,.01856.00781.02668.02668,0,0,1,.00781.01855l.00293.32618a.20592.20592,0,0,0,.14551-.05664.188.188,0,0,0,.041-.126v-.14356a.02579.02579,0,0,1,.00684-.01855.02727.02727,0,0,1,.01953-.00781h.044a.02727.02727,0,0,1,.01953.00781.02578.02578,0,0,1,.00683.01855v.14844a.2444.2444,0,0,1-.06933.18067.29431.29431,0,0,1-.20606.07812.17991.17991,0,0,0,.06836.10254.19693.19693,0,0,0,.12012.03613H42.573a.21906.21906,0,0,0,.16992-.0625.24036.24036,0,0,0,.06055-.1709v-.3125a.02578.02578,0,0,1,.00683-.01855.02905.02905,0,0,1,.01954-.00781h.04492A.02668.02668,0,0,1,42.89326,17.76467Z"/><path class="f" d="M43.48311,17.791a.23489.23489,0,0,1,.08789.09668.33722.33722,0,0,1,.03125.14941v.34863a.02669.02669,0,0,1-.02637.02637H43.28a.025.025,0,0,1-.01855-.00781.02428.02428,0,0,1-.00684-.01856v-.03711a.02574.02574,0,0,1,.00684-.01855.025.025,0,0,1,.01855-.00781h.22168V18.044a.21761.21761,0,0,0-.04492-.14161.13779.13779,0,0,0-.11133-.05468h-.12207l-.08789.53711a.03133.03133,0,0,1-.00977.01953.031.031,0,0,1-.01953.00781H43.0583a.02148.02148,0,0,1-.01758-.00781.0269.0269,0,0,1-.00488-.01953l.0918-.53711H43.069a.02726.02726,0,0,1-.01953-.00782.02431.02431,0,0,1-.00683-.01855v-.03809a.02578.02578,0,0,1,.00683-.01855.02729.02729,0,0,1,.01953-.00781h.28809A.23884.23884,0,0,1,43.48311,17.791Z"/><path class="g" d="M12.6521,20.59363a44.725,44.725,0,0,0-4.98242-2.57812,29.53719,29.53719,0,0,1-5.05322-3.04,19.3988,19.3988,0,0,1-4.56055-4.69141c-.34521-.48047-.59326-1.04931-.90283-1.58886a8.91007,8.91007,0,0,1-.7583-1.75831,17.01336,17.01336,0,0,1-.86963-3.96484L5.7815,4.14051a5.25879,5.25879,0,0,0-.8916,3.29931,11.45348,11.45348,0,0,0,1.31591,4.37012A21.60075,21.60075,0,0,0,9.1316,16.09559a11.50664,11.50664,0,0,0,4.126,3.29785Z"/><path class="h" d="M2.42576,7.62539S1.28886,12.679,11.35251,19.5"/><path class="f" d="M1.1042,18.48635V18.249H1.00264a.02967.02967,0,0,1-.02246-.00976.03179.03179,0,0,1-.00977-.02246v-.11035A.03177.03177,0,0,1,.98018,18.084a.03257.03257,0,0,1,.02246-.00879H1.1042V17.8633a.03341.03341,0,0,1,.03223-.03222h.15722a.029.029,0,0,1,.02344.00976.03093.03093,0,0,1,.00879.02246v.21192H1.486a.03326.03326,0,0,1,.02343.00879.02826.02826,0,0,1,.00977.02246v.11035a.029.029,0,0,1-.00977.02344A.0333.0333,0,0,1,1.486,18.249H1.32588v.21778a.11959.11959,0,0,0,.0166.06836.06322.06322,0,0,0,.05371.02246h.10156a.0318.0318,0,0,1,.02247.00976.035.035,0,0,1,.00878.02344V18.709a.031.031,0,0,1-.00878.02246.02831.02831,0,0,1-.02247.00976H1.37568C1.195,18.74123,1.1042,18.65627,1.1042,18.48635Z"/><path class="f" d="M1.6999,18.66994a.32224.32224,0,0,1-.09179-.24414v-.04a.32627.32627,0,0,1,.09472-.23828.33806.33806,0,0,1,.24219-.08594.36872.36872,0,0,1,.18652.04493.27639.27639,0,0,1,.11328.12109.39808.39808,0,0,1,.03809.17676v.03222a.03175.03175,0,0,1-.00976.02344.03236.03236,0,0,1-.02344.00977H1.84346v.00781a.15828.15828,0,0,0,.02734.09277.08343.08343,0,0,0,.07227.03516.08573.08573,0,0,0,.0498-.0127.14961.14961,0,0,0,.03516-.03125.07344.07344,0,0,1,.01855-.01562A.062.062,0,0,1,2.069,18.543h.168a.02812.02812,0,0,1,.01953.00684.02087.02087,0,0,1,.00879.01757.13287.13287,0,0,1-.03808.07813.30517.30517,0,0,1-.11035.07617.41688.41688,0,0,1-.1709.03223A.34646.34646,0,0,1,1.6999,18.66994Zm.34766-.33105V18.336a.14989.14989,0,0,0-.02734-.09473.08806.08806,0,0,0-.0752-.03418.0869.0869,0,0,0-.0752.03418.14985.14985,0,0,0-.02636.09473v.00293Z"/><path class="f" d="M2.58369,18.73342a.06713.06713,0,0,1-.0166-.02441l-.24316-.59473-.001-.00977a.027.027,0,0,1,.0293-.02929h.15234a.03948.03948,0,0,1,.03809.02636l.13964.38379.14161-.38379a.04522.04522,0,0,1,.01269-.01855.03211.03211,0,0,1,.02442-.00781h.15332a.02715.02715,0,0,1,.0205.00781.0287.0287,0,0,1,.00879.02148l-.00195.00977-.24219.59473a.067.067,0,0,1-.0166.02441.04871.04871,0,0,1-.02832.00781H2.611A.04346.04346,0,0,1,2.58369,18.73342Z"/><path class="f" d="M3.18818,18.72756a.20543.20543,0,0,1-.08691-.07227A.17818.17818,0,0,1,3.07,18.55373a.17186.17186,0,0,1,.07227-.1416.44552.44552,0,0,1,.19921-.07422l.15918-.02441v-.01563a.10488.10488,0,0,0-.01953-.06933.08243.08243,0,0,0-.06543-.02149.09634.09634,0,0,0-.043.00879.19234.19234,0,0,0-.03906.02735.13873.13873,0,0,1-.02929.01953c-.00391.00683-.00782.00976-.0127.00976H3.14326a.0287.0287,0,0,1-.02148-.00879.02064.02064,0,0,1-.00684-.01953.13594.13594,0,0,1,.03418-.07715.25448.25448,0,0,1,.10156-.07422.40308.40308,0,0,1,.168-.03125.339.339,0,0,1,.23535.07032.24167.24167,0,0,1,.07715.18945v.3877a.031.031,0,0,1-.00879.02246.029.029,0,0,1-.02343.00976H3.5417a.03341.03341,0,0,1-.03223-.03222v-.04493a.217.217,0,0,1-.07812.06543.2648.2648,0,0,1-.11914.02442A.28507.28507,0,0,1,3.18818,18.72756Zm.2793-.16211a.14983.14983,0,0,0,.03516-.10742V18.4424l-.10645.01856c-.07129.01367-.10742.03906-.10742.07617a.05559.05559,0,0,0,.02539.04785.104.104,0,0,0,.06152.01758A.11792.11792,0,0,0,3.46748,18.56545Z"/><path class="i" d="M-1.67872,10.92947s6.04025,1.899,8.4655,5.01067"/><path class="j" d="M3.35232,12.08016S1.92764,5.93205-2.00933,6.56283"/><circle class="k" cx="3.0959" cy="13.05694" r="2.38763"/><path class="a" d="M2.55732,13.05569a.03394.03394,0,0,1-.00976-.02442v-.65918l-.18945.14453a.03655.03655,0,0,1-.02051.00684.03607.03607,0,0,1-.03028-.0166l-.08691-.11231a.04176.04176,0,0,1-.00586-.02148.03669.03669,0,0,1,.01563-.03125l.32714-.252a.05067.05067,0,0,1,.03223-.00976H2.7751a.03538.03538,0,0,1,.02637.00976.03389.03389,0,0,1,.01074.0254v.916a.03546.03546,0,0,1-.01074.02539.0397.0397,0,0,1-.02637.00977H2.58272A.03726.03726,0,0,1,2.55732,13.05569Z"/><path class="a" d="M3.13545,13.041a.33229.33229,0,0,1-.13965-.1084.273.273,0,0,1-.0498-.14844.02661.02661,0,0,1,.00879-.02051.02809.02809,0,0,1,.0205-.00879h.19922a.04556.04556,0,0,1,.0459.02637.13234.13234,0,0,0,.13574.08887.143.143,0,0,0,.10059-.03613.13057.13057,0,0,0,.04-.10352.1274.1274,0,0,0-.03906-.0957.14093.14093,0,0,0-.10157-.03809.15141.15141,0,0,0-.05664.00977.18156.18156,0,0,0-.041.02441.065.065,0,0,1-.03614.0166H3.02607a.03029.03029,0,0,1-.02148-.00879.03093.03093,0,0,1-.00879-.02246l.05176-.49414a.04512.04512,0,0,1,.01465-.03125.05124.05124,0,0,1,.03222-.01074h.57325a.03462.03462,0,0,1,.02539.00976.03714.03714,0,0,1,.00976.0254v.14062a.03648.03648,0,0,1-.00976.02441.032.032,0,0,1-.02539.01075H3.25752l-.0166.17382a.22855.22855,0,0,1,.07617-.03613.41492.41492,0,0,1,.10938-.01172.35907.35907,0,0,1,.16894.04.31383.31383,0,0,1,.126.11328.297.297,0,0,1,.04785.168.32406.32406,0,0,1-.04981.17676.3316.3316,0,0,1-.14257.12207.50034.50034,0,0,1-.22071.04492A.53973.53973,0,0,1,3.13545,13.041Z"/><path class="a" d="M2.39424,14.128a.02215.02215,0,0,1-.00586-.01562v-.52442a.02387.02387,0,0,1,.00586-.01758.02466.02466,0,0,1,.0166-.00586h.18945a.2586.2586,0,0,1,.18946.06153.24214.24214,0,0,1,.0625.18261v.30372a.0222.0222,0,0,1-.00586.01562.02145.02145,0,0,1-.0166.00684h-.419A.02142.02142,0,0,1,2.39424,14.128Zm.37207-.07129V13.8135a.15141.15141,0,0,0-.17188-.17188h-.123v.415Z"/><path class="a" d="M3.28779,14.128a.0222.0222,0,0,1-.00586-.01562V13.8135a.15178.15178,0,0,0-.17187-.17188H2.98115a.023.023,0,0,1-.0166-.00586.02011.02011,0,0,1-.00683-.0166v-.03125a.02334.02334,0,0,1,.02343-.02344h.13477c.16894,0,.2539.08106.2539.24414v.30372A.023.023,0,0,1,3.363,14.128a.02143.02143,0,0,1-.0166.00684h-.042A.02145.02145,0,0,1,3.28779,14.128Z"/><path class="a" d="M3.84639,14.11623a.01578.01578,0,0,1-.00586.0127.024.024,0,0,1-.01563.00586H3.781c-.0127,0-.02051-.00782-.02344-.02246l-.02246-.11719a.32314.32314,0,0,1-.085.08887.36233.36233,0,0,1-.13672.05859l-.00781.001c-.01075,0-.0166-.00489-.0166-.01563v-.04687c0-.01172.00683-.01954.02148-.02539l.03906-.01368a.26987.26987,0,0,0,.06543-.03125.28575.28575,0,0,0,.0586-.05273.21378.21378,0,0,0,.041-.0625L3.697,13.80569a.58687.58687,0,0,0-.02539-.09375.1142.1142,0,0,0-.03711-.05274.094.094,0,0,0-.05957-.01758H3.53779a.02462.02462,0,0,1-.0166-.00586.023.023,0,0,1-.00586-.0166V13.586a.023.023,0,0,1,.00586-.0166.0214.0214,0,0,1,.0166-.00684H3.5749a.18845.18845,0,0,1,.1045.02637.17145.17145,0,0,1,.06542.07715.60281.60281,0,0,1,.042.13379l.05957.3125Z"/><circle class="e" cx="7.63111" cy="16.66821" r="1.9927"/><polygon class="a" points="7.475 17.936 6.724 17.547 7.668 15.898 8.276 16.213 7.475 17.936"/><rect class="a" x="7.88419" y="15.61976" width="0.56182" height="0.34981" transform="translate(8.99125 -1.96646) rotate(30)"/></g><polygon class="l" points="50.916 5.482 2.916 5.482 0 7.371 48 7.371 50.916 5.482"/><polygon class="m" points="50.916 5.516 48 7.371 48 19.47 50.916 17.615 50.916 5.516"/><path class="n" d="M14.25677.5306a28.96236,28.96236,0,0,0,5.03847,1.95452"/><path class="n" d="M6.44724.5497s-2.56426,2.378-4.808,1.836"/><circle class="o" cx="14.85047" cy="6.90047" r="3.11589"/><g class="p"><circle class="q" cx="14.85047" cy="6.90047" r="0.84055"/><path class="r" d="M12.16866,8.48605s.38693.30644,2.4529.27257a10.66651,10.66651,0,0,0,3.58861-.67132v4.877H12.16866Z"/></g><circle class="s" cx="14.85047" cy="6.90047" r="3.11589"/><ellipse class="o" cx="5.64356" cy="6.90047" rx="2.88087" ry="3.11589"/><g class="t"><circle class="q" cx="5.64356" cy="6.90047" r="0.84055"/><path class="r" d="M3.18959,8.65948s.32209.30645,2.23223.27258a9.56168,9.56168,0,0,0,3.3536-.67132v4.877H3.18959Z"/></g><ellipse class="s" cx="5.64356" cy="6.90047" rx="2.88087" ry="3.11589"/></svg>