<svg xmlns="http://www.w3.org/2000/svg" viewBox="0 0 18.41901 35.41771"><defs><style>.a{opacity:0.14;}.b,.c,.j{fill:none;stroke-miterlimit:10;}.b{stroke:#29235c;stroke-width:4px;}.c{stroke:#fff;stroke-width:3px;}.d{fill:#ebf1f4;}.e{fill:#c6c6c6;}.f{fill:#dadada;}.g{fill:#b3b8bc;}.h{fill:#1d1d1b;}.i{fill:#3c3c3b;}.j{stroke:#3c3c3b;stroke-linecap:round;}</style></defs><g class="a"><path class="b" d="M14.19925,17.57668H11.49662V14.00881l-.8125-7.00489.12012-.65332.2124-1.15381a2.32468,2.32468,0,0,0-.05761-1.085l-.15918-.53857-.26026-.87793a.83438.83438,0,0,0-.80029-.59717H8.72514a.83467.83467,0,0,0-.80029.59766l-.41944,1.416A2.32955,2.32955,0,0,0,7.44779,5.1963l.123.66846.146.79541a2.32278,2.32278,0,0,1,.02295.69043l-.45655,3.93848L6.9683,14.0088v3.56787H4.21976A2.177,2.177,0,0,0,2.04545,19.751l0,6.40478a7.16407,7.16407,0,0,0,14.32813,0V19.751A2.177,2.177,0,0,0,14.19925,17.57668Zm-.65918,9.936c-.00683.04346-.01465.0835-.02344.124A4.17589,4.17589,0,0,1,11.524,30.33791a4.87281,4.87281,0,0,1-2.35352.57568,4.72327,4.72327,0,0,1-2.7334-.80567,4.10393,4.10393,0,0,1-1.65478-2.59423.46813.46813,0,0,1,.38525-.53711.52228.52228,0,0,1,.07862-.00635.46464.46464,0,0,1,.45752.38818,2.76891,2.76891,0,0,0,.166.55811,3.37837,3.37837,0,0,0,3.30371,2.05469,4.613,4.613,0,0,0,.86377-.08252,3.22489,3.22489,0,0,0,2.58057-2.52442.465.465,0,0,1,.541-.38232A.46531.46531,0,0,1,13.54007,27.51271Z"/></g><path class="c" d="M14.19925,17.57668H11.49662V14.00881l-.8125-7.00489.12012-.65332.2124-1.15381a2.32468,2.32468,0,0,0-.05761-1.085l-.15918-.53857-.26026-.87793a.83438.83438,0,0,0-.80029-.59717H8.72514a.83467.83467,0,0,0-.80029.59766l-.41944,1.416A2.32955,2.32955,0,0,0,7.44779,5.1963l.123.66846.146.79541a2.32278,2.32278,0,0,1,.02295.69043l-.45655,3.93848L6.9683,14.0088v3.56787H4.21976A2.177,2.177,0,0,0,2.04545,19.751l0,6.40478a7.16407,7.16407,0,0,0,14.32813,0V19.751A2.177,2.177,0,0,0,14.19925,17.57668Zm-.65918,9.936c-.00683.04346-.01465.0835-.02344.124A4.17589,4.17589,0,0,1,11.524,30.33791a4.87281,4.87281,0,0,1-2.35352.57568,4.72327,4.72327,0,0,1-2.7334-.80567,4.10393,4.10393,0,0,1-1.65478-2.59423.46813.46813,0,0,1,.38525-.53711.52228.52228,0,0,1,.07862-.00635.46464.46464,0,0,1,.45752.38818,2.76891,2.76891,0,0,0,.166.55811,3.37837,3.37837,0,0,0,3.30371,2.05469,4.613,4.613,0,0,0,.86377-.08252,3.22489,3.22489,0,0,0,2.58057-2.52442.465.465,0,0,1,.541-.38232A.46531.46531,0,0,1,13.54007,27.51271Z"/><path class="d" d="M14.19925,17.57668H11.49662V14.00881l-.8125-7.00489.12012-.65332.2124-1.15381a2.32468,2.32468,0,0,0-.05761-1.085l-.15918-.53857-.26026-.87793a.83438.83438,0,0,0-.80029-.59717H8.72514a.83467.83467,0,0,0-.80029.59766l-.41944,1.416A2.32955,2.32955,0,0,0,7.44779,5.1963l.123.66846.146.79541a2.32278,2.32278,0,0,1,.02295.69043l-.45655,3.93848L6.9683,14.0088v3.56787H4.21976A2.177,2.177,0,0,0,2.04545,19.751l0,6.40478a7.16407,7.16407,0,0,0,14.32813,0V19.751A2.177,2.177,0,0,0,14.19925,17.57668Zm-.65918,9.936c-.00683.04346-.01465.0835-.02344.124A4.17589,4.17589,0,0,1,11.524,30.33791a4.87281,4.87281,0,0,1-2.35352.57568,4.72327,4.72327,0,0,1-2.7334-.80567,4.10393,4.10393,0,0,1-1.65478-2.59423.46813.46813,0,0,1,.38525-.53711.52228.52228,0,0,1,.07862-.00635.46464.46464,0,0,1,.45752.38818,2.76891,2.76891,0,0,0,.166.55811,3.37837,3.37837,0,0,0,3.30371,2.05469,4.613,4.613,0,0,0,.86377-.08252,3.22489,3.22489,0,0,0,2.58057-2.52442.465.465,0,0,1,.541-.38232A.46531.46531,0,0,1,13.54007,27.51271Z"/><path class="e" d="M10.684,7.00377h0l.33285-1.80689a2.332,2.332,0,0,0-.05762-1.08531l-.41987-1.41613A.83471.83471,0,0,0,9.73911,2.098H8.72524a.8347.8347,0,0,0-.80031.59757L7.50524,4.112a2.33182,2.33182,0,0,0-.05758,1.08446L7.717,6.66024a2.33193,2.33193,0,0,1,.023.6905L6.9682,14.00865l0,5.75782h4.52832l0-5.75782Z"/><path class="f" d="M9.61572,3.098l.38476,1.298a1.33908,1.33908,0,0,1,.033.61975L9.70056,6.82264l-.0271.14743.01733.14891.80579,6.94747-.00013,4.7H7.96813l.00013-4.7.76513-6.60078a3.33714,3.33714,0,0,0-.03283-.98642L8.43115,5.01555A1.33988,1.33988,0,0,1,8.464,4.39608L8.84863,3.098h.76709m.12341-1H8.72521a.83468.83468,0,0,0-.80029.59758L7.50524,4.112a2.3323,2.3323,0,0,0-.05761,1.08445L7.717,6.66024a2.33462,2.33462,0,0,1,.02295.6905l-.77172,6.65791-.00013,5.75781h4.52832l.00013-5.75781-.8125-7.00488.33276-1.80689a2.33119,2.33119,0,0,0-.05762-1.08531l-.4198-1.41614A.83475.83475,0,0,0,9.73913,2.098Z"/><path class="g" d="M9.73913,2.598a.33682.33682,0,0,1,.32092.23954l.4198,1.41626a1.8398,1.8398,0,0,1,.04529.85252L10.19238,6.9132l-.01368.07372.00867.07445.80921,6.97618-.00013,5.22891H7.46813l.00013-5.229.76843-6.6293a2.83149,2.83149,0,0,0-.028-.83846L7.93932,5.106a1.84109,1.84109,0,0,1,.04529-.852l.41968-1.41646A.33681.33681,0,0,1,8.72521,2.598H9.73913m0-.5H8.72521a.83468.83468,0,0,0-.80029.59758L7.50524,4.112a2.3323,2.3323,0,0,0-.05761,1.08445L7.717,6.66024a2.33462,2.33462,0,0,1,.02295.6905l-.77172,6.65791-.00013,5.75781h4.52832l.00013-5.75781-.8125-7.00488.33276-1.80689a2.33119,2.33119,0,0,0-.05762-1.08531l-.4198-1.41614A.83475.83475,0,0,0,9.73913,2.098Z"/><path class="h" d="M9.20934,33.06991a6.92179,6.92179,0,0,1-6.91406-6.91406V19.75106a1.92664,1.92664,0,0,1,1.92481-1.92431h9.97949a1.92644,1.92644,0,0,1,1.92383,1.92431v6.40479A6.9218,6.9218,0,0,1,9.20934,33.06991ZM5.24645,26.7203a.766.766,0,0,0-.12011.00977.71753.71753,0,0,0-.58985.82422,4.35764,4.35764,0,0,0,1.75489,2.75732,4.97712,4.97712,0,0,0,2.87988.852,5.12233,5.12233,0,0,0,2.47558-.60791,4.43345,4.43345,0,0,0,2.11426-2.8667l.02539-.13379a.71608.71608,0,0,0-.585-.81982.78059.78059,0,0,0-.125-.01074.72076.72076,0,0,0-.7041.59375,2.97508,2.97508,0,0,1-2.38281,2.3247,4.35326,4.35326,0,0,1-.81641.07813,3.13634,3.13634,0,0,1-3.07129-1.897,2.58268,2.58268,0,0,1-.15136-.50879A.71465.71465,0,0,0,5.24645,26.7203Z"/><path class="i" d="M14.19921,18.07652a1.67408,1.67408,0,0,1,1.6742,1.67432v6.40478a6.66407,6.66407,0,0,1-13.32813,0V19.75084a1.67429,1.67429,0,0,1,1.67444-1.67432h9.97949M9.17053,31.41366a5.35016,5.35016,0,0,0,2.59887-.64036,4.65877,4.65877,0,0,0,2.23633-3.03321c.01025-.04834.01953-.09668.02734-.1455a.96265.96265,0,0,0-.78906-1.10547.984.984,0,0,0-.16772-.0145.96981.96981,0,0,0-.95044.79819,2.71841,2.71841,0,0,1-2.18311,2.12451,4.10041,4.10041,0,0,1-.76965.07358,2.90915,2.90915,0,0,1-2.83923-1.7396,2.30739,2.30739,0,0,1-.1377-.45752.96264.96264,0,0,0-.95032-.80351.99808.99808,0,0,0-.16.013.96742.96742,0,0,0-.79688,1.11133,4.63141,4.63141,0,0,0,1.85694,2.91992,5.25019,5.25019,0,0,0,3.02466.89915m5.02868-13.83714H4.21972a2.17685,2.17685,0,0,0-2.17444,2.17432v6.40478a7.16407,7.16407,0,0,0,14.32813,0V19.75084a2.17672,2.17672,0,0,0-2.1742-2.17432ZM9.17053,30.91366a4.72343,4.72343,0,0,1-2.73377-.80584,4.10282,4.10282,0,0,1-1.65442-2.59453.4675.4675,0,0,1,.38489-.53672.495.495,0,0,1,.07861-.0063.46444.46444,0,0,1,.45752.38817,2.75537,2.75537,0,0,0,.166.558A3.37838,3.37838,0,0,0,9.17309,29.9709a4.60556,4.60556,0,0,0,.86365-.08249,3.22389,3.22389,0,0,0,2.58069-2.52452.47081.47081,0,0,1,.459-.38927.48252.48252,0,0,1,.08227.00717.46527.46527,0,0,1,.38111.531c-.007.04338-.01465.08348-.02319.12361A4.17751,4.17751,0,0,1,11.524,30.33767a4.86993,4.86993,0,0,1-2.35351.576Z"/><line class="j" x1="4.39052" y1="19.55329" x2="12.46578" y2="19.5533"/></svg>