<svg xmlns="http://www.w3.org/2000/svg" viewBox="0 0 54.4718 53.92427"><defs><style>.a{fill:#fce0f5;}.b{fill:#ddafd3;}.c,.d,.e,.f{fill:none;stroke-miterlimit:10;}.c{stroke:#be1622;stroke-width:0.73281px;}.d{stroke:#fff;}.d,.e,.f{stroke-width:2.19843px;}.e{stroke:#f9b233;}.f{stroke:#c6c6c6;}.g{fill:#5e4b58;}.h{fill:#fff;opacity:0.5;}</style></defs><rect class="a" x="0.24972" y="2.55834" width="53.97168" height="51.11572"/><path class="b" d="M53.97177,2.8085V53.42427H.5V2.8085h53.4718m.5-.5H0V53.92427h54.4718V2.3085Z"/><circle class="c" cx="27.23587" cy="40.08598" r="8.51308"/><line class="d" x1="32.16405" y1="45.01416" x2="22.30769" y2="35.1578"/><line class="e" x1="29.9811" y1="42.83121" x2="32.16405" y2="45.01416"/><line class="f" x1="23.04501" y1="35.89512" x2="22.30769" y2="35.1578"/><line class="c" x1="33.74285" y1="34.55373" x2="20.81234" y2="45.62753"/><path class="g" d="M6.4548,14.50609a.14807.14807,0,0,1-.04492-.10547v-.77344a.15485.15485,0,0,1,.04492-.11132.14417.14417,0,0,1,.10547-.04493h.77442a.14362.14362,0,0,1,.10449.04493.151.151,0,0,1,.04492.11132v.77344a.14915.14915,0,0,1-.042.10547.13942.13942,0,0,1-.10742.04492H6.56027A.1442.1442,0,0,1,6.4548,14.50609Zm.01856-1.35644a.14725.14725,0,0,1-.04492-.11036V10.50121a.14148.14148,0,0,1,.04492-.1084.15912.15912,0,0,1,.11133-.042h.72558a.16084.16084,0,0,1,.11133.042.145.145,0,0,1,.04492.1084v2.53808a.15343.15343,0,0,1-.15625.15528H6.58469A.14943.14943,0,0,1,6.47336,13.14965Z"/><path class="g" d="M8.23117,15.25316a.14232.14232,0,0,1-.0459-.1084V11.27465a.1388.1388,0,0,1,.0459-.10743.15257.15257,0,0,1,.11035-.042h.708a.14382.14382,0,0,1,.15039.14942v3.87011a.14389.14389,0,0,1-.15039.15039h-.708A.15675.15675,0,0,1,8.23117,15.25316Z"/><path class="g" d="M9.95969,14.509a.14083.14083,0,0,1-.0459-.1084v-3.126a.13876.13876,0,0,1,.0459-.10743.15254.15254,0,0,1,.11035-.042h.75a.14382.14382,0,0,1,.15039.14942v3.126a.15349.15349,0,0,1-.042.10547.14155.14155,0,0,1-.1084.04492h-.75A.15254.15254,0,0,1,9.95969,14.509Z"/><path class="g" d="M11.69894,13.08715a.14155.14155,0,0,1-.04492-.1084v-1.7041a.138.138,0,0,1,.04492-.10743.15651.15651,0,0,1,.11133-.042h.75a.14377.14377,0,0,1,.14942.14942v1.7041a.14917.14917,0,0,1-.042.10547.138.138,0,0,1-.10742.04492h-.75A.15651.15651,0,0,1,11.69894,13.08715Z"/><path class="g" d="M14.88742,14.58715a.18048.18048,0,0,1-.04785-.12012v-.60645a.18723.18723,0,0,1,.042-.11328.23569.23569,0,0,1,.1084-.07812l.18555-.07813a.88226.88226,0,0,0,.60058-.92969.7897.7897,0,0,0-.13574-.52832.6506.6506,0,0,0-.49414-.15039H13.54953a.155.155,0,0,1-.15625-.15527v-.55859a.129.129,0,0,1,.04883-.10157.15544.15544,0,0,1,.10742-.042h1.80664a1.45817,1.45817,0,0,1,1.12207.375,1.633,1.633,0,0,1,.3418,1.13086,1.76617,1.76617,0,0,1-.4502,1.248,2.385,2.385,0,0,1-1.12793.67773l-.24609.07227A.1108.1108,0,0,1,14.88742,14.58715Zm-1.44824,1.06738a.13876.13876,0,0,1-.0459-.10742V12.64867a.13873.13873,0,0,1,.0459-.10742.15254.15254,0,0,1,.11035-.042h.68457a.14377.14377,0,0,1,.14941.14942v2.89844a.14529.14529,0,0,1-.14941.15039h-.68457A.1533.1533,0,0,1,13.43918,15.65453Z"/><path class="g" d="M17.41672,13.08715a.14152.14152,0,0,1-.04493-.1084v-1.7041a.138.138,0,0,1,.04493-.10743.15647.15647,0,0,1,.11132-.042h.75a.14376.14376,0,0,1,.14942.14942v1.7041a.14916.14916,0,0,1-.042.10547.138.138,0,0,1-.10743.04492h-.75A.15647.15647,0,0,1,17.41672,13.08715Z"/><path class="g" d="M21.17355,14.50609a.151.151,0,0,1-.11133.04492H19.13644a.15651.15651,0,0,1-.11133-.042.14353.14353,0,0,1-.04492-.1084V13.885a.145.145,0,0,1,.04492-.1084.16083.16083,0,0,1,.11133-.042h.9961L20.07883,12.553a1.071,1.071,0,0,0-.12012-.50391.41089.41089,0,0,0-.37207-.15625H19.281a.14417.14417,0,0,1-.10546-.04492.14206.14206,0,0,1-.04493-.10449v-.50391a.15489.15489,0,0,1,.042-.11133.14007.14007,0,0,1,.10839-.04492h.32325a1.57838,1.57838,0,0,1,1.14355.35351,1.64517,1.64517,0,0,1,.38672,1.13379l.07812,1.83008A.12554.12554,0,0,1,21.17355,14.50609Z"/><path class="g" d="M24.01926,14.509a.14875.14875,0,0,1-.042-.1084V12.62523a.60208.60208,0,0,0-.67773-.68457H21.93136a.15257.15257,0,0,1-.11035-.042.13879.13879,0,0,1-.0459-.10742v-.5166a.1388.1388,0,0,1,.0459-.10743.15257.15257,0,0,1,.11035-.042H23.3298a1.8405,1.8405,0,0,1,1.24512.36621,1.44043,1.44043,0,0,1,.417,1.13965v1.76953a.14349.14349,0,0,1-.04492.1084.15648.15648,0,0,1-.11133.042h-.708A.14643.14643,0,0,1,24.01926,14.509Zm-2.19825,0a.14086.14086,0,0,1-.0459-.1084v-1.752a.13876.13876,0,0,1,.0459-.10742.15258.15258,0,0,1,.11035-.042h.708a.14384.14384,0,0,1,.15039.14942v1.752a.15349.15349,0,0,1-.042.10547.14152.14152,0,0,1-.1084.04492h-.708A.15257.15257,0,0,1,21.821,14.509Z"/><path class="g" d="M29.10226,11.50023a1.633,1.633,0,0,1,.3418,1.13086,1.76617,1.76617,0,0,1-.4502,1.248,2.38507,2.38507,0,0,1-1.12792.67773l-.2461.07227a.117.117,0,0,1-.11133-.042.17051.17051,0,0,1-.05078-.12012v-.60645a.16985.16985,0,0,1,.042-.11035.29343.29343,0,0,1,.1084-.081l.19141-.07813a.96686.96686,0,0,0,.43555-.32129,1.00547,1.00547,0,0,0,.15918-.6084.8082.8082,0,0,0-.13282-.52832.64.64,0,0,0-.49121-.15039H27.614l-.80469-.00586a.14421.14421,0,0,1-.10742-.042.14271.14271,0,0,1-.042-.10742V10.44066a.138.138,0,0,1,.04492-.10742.14855.14855,0,0,1,.10449-.042h.64844a.14382.14382,0,0,1,.15039.14941v.68457h.37207A1.45816,1.45816,0,0,1,29.10226,11.50023Z"/><path class="g" d="M33.10422,11.16722a.1465.1465,0,0,1,.042.10743V13.051a1.307,1.307,0,0,1-.41406.98731,2.20478,2.20478,0,0,1-1.16407.52441L30.032,14.887a.1375.1375,0,0,1-.11719-.03027.131.131,0,0,1-.05078-.10743v-.52246a.15112.15112,0,0,1,.03906-.10449.17574.17574,0,0,1,.09864-.05762l.666-.16211-.708-2.5371a.79768.79768,0,0,1-.0293-.12012.12171.12171,0,0,1,.12012-.12012h.77929a.14634.14634,0,0,1,.08985.02637.13662.13662,0,0,1,.04882.06347l.59961,2.45411a.8291.8291,0,0,0,.44434-.33887,1.19506,1.19506,0,0,0,.11914-.5791V11.27465a.14382.14382,0,0,1,.15039-.14942h.71387A.14646.14646,0,0,1,33.10422,11.16722Z"/><path class="g" d="M35.12277,14.509a.14086.14086,0,0,1-.0459-.1084v-3.126a.1388.1388,0,0,1,.0459-.10743.15257.15257,0,0,1,.11035-.042h.75a.14382.14382,0,0,1,.15039.14942v3.126a.15349.15349,0,0,1-.042.10547.14152.14152,0,0,1-.1084.04492h-.75A.15257.15257,0,0,1,35.12277,14.509Z"/><path class="g" d="M38.5134,14.509a.14007.14007,0,0,1-.04493-.1084V12.62523a.60276.60276,0,0,0-.67871-.68457h-.91211a.14207.14207,0,0,1-.10449-.04492.14052.14052,0,0,1-.04492-.10449v-.5166a.138.138,0,0,1,.04492-.10743.14689.14689,0,0,1,.10449-.042h.94825a1.9193,1.9193,0,0,1,1.24511.3418,1.37977,1.37977,0,0,1,.41114,1.12207v1.81152a.15345.15345,0,0,1-.042.10547.14151.14151,0,0,1-.10839.04492h-.708A.15254.15254,0,0,1,38.5134,14.509Z"/><path class="g" d="M43.18332,11.49144a1.44686,1.44686,0,0,1,.38379,1.09766v1.81152a.14911.14911,0,0,1-.042.10547.138.138,0,0,1-.10742.04492H41.779a.14205.14205,0,0,1-.10449-.04492.14418.14418,0,0,1-.04492-.10547V13.885a.14152.14152,0,0,1,.04492-.1084.15109.15109,0,0,1,.10449-.042h.77442V12.637a.71932.71932,0,0,0-.1504-.48633.49138.49138,0,0,0-.38964-.17383h-.46778l-.50976,2.418a.18777.18777,0,0,1-.04883.11133.138.138,0,0,1-.10742.04492h-.69043a.14725.14725,0,0,1-.11035-.04492.11889.11889,0,0,1-.03321-.11133l.58789-2.41211H40.237a.138.138,0,0,1-.10742-.04492.15258.15258,0,0,1-.042-.11035v-.55273a.138.138,0,0,1,.04493-.10743.14687.14687,0,0,1,.10449-.042h1.92676A1.41545,1.41545,0,0,1,43.18332,11.49144Z"/><path class="g" d="M48.10324,11.16722a.14273.14273,0,0,1,.042.10743v1.57226a1.759,1.759,0,0,1-.24023.92676,1.61781,1.61781,0,0,1-.65332.61523,1.89986,1.89986,0,0,1-.918.21h-.57617a1.80451,1.80451,0,0,1-.83985-.18554,1.329,1.329,0,0,1-.54883-.50391,1.34971,1.34971,0,0,1-.18945-.70215V11.27465a.138.138,0,0,1,.04492-.10743.15651.15651,0,0,1,.11133-.042h.62988a.14384.14384,0,0,1,.1504.14942l.00585,1.44042a.55465.55465,0,0,0,.45606-.249,1.22538,1.22538,0,0,0,.13184-.62695v-.55176a.15824.15824,0,0,1,.04492-.11719.14943.14943,0,0,1,.11133-.04492h.623a.14011.14011,0,0,1,.10547.04785.16089.16089,0,0,1,.04492.11426v.56348a1.56425,1.56425,0,0,1-.35351,1.08008,1.49065,1.49065,0,0,1-1.002.46191.76774.76774,0,0,0,.30274.29394.85911.85911,0,0,0,.417.10254h.1377a1.19221,1.19221,0,0,0,.55175-.126.95743.95743,0,0,0,.38477-.34864.923.923,0,0,0,.13769-.498v-1.542a.14274.14274,0,0,1,.042-.10743.14493.14493,0,0,1,.1084-.042h.62988A.14271.14271,0,0,1,48.10324,11.16722Z"/><path class="g" d="M13.154,25.50609a.148.148,0,0,1-.04492-.10547v-.77344a.15481.15481,0,0,1,.04492-.11132.14415.14415,0,0,1,.10547-.04493h.77441a.14362.14362,0,0,1,.1045.04493.151.151,0,0,1,.04492.11132v.77344a.14915.14915,0,0,1-.042.10547.13943.13943,0,0,1-.10743.04492h-.77441A.14418.14418,0,0,1,13.154,25.50609Zm.01856-1.35644a.14725.14725,0,0,1-.04493-.11036V21.50121a.14149.14149,0,0,1,.04493-.1084.15911.15911,0,0,1,.11132-.042h.72559a.16085.16085,0,0,1,.11133.042.145.145,0,0,1,.04492.1084v2.53808a.15343.15343,0,0,1-.15625.15528H13.2839A.14942.14942,0,0,1,13.17258,24.14965Z"/><path class="g" d="M14.93039,26.25316a.14228.14228,0,0,1-.0459-.1084V22.27465a.13876.13876,0,0,1,.0459-.10743.15255.15255,0,0,1,.11035-.042h.708a.14382.14382,0,0,1,.15039.14942v3.87011a.14389.14389,0,0,1-.15039.15039h-.708A.15673.15673,0,0,1,14.93039,26.25316Z"/><path class="g" d="M20.47726,22.16722a.14274.14274,0,0,1,.042.10743v1.57226a1.75889,1.75889,0,0,1-.24024.92676,1.61781,1.61781,0,0,1-.65332.61523,1.89986,1.89986,0,0,1-.918.21h-.57617a1.80447,1.80447,0,0,1-.83984-.18554,1.32885,1.32885,0,0,1-.54883-.50391,1.34962,1.34962,0,0,1-.18945-.70215V22.27465a.138.138,0,0,1,.04492-.10743.15648.15648,0,0,1,.11133-.042h.62988a.14382.14382,0,0,1,.15039.14942l.00586,1.44042a.55462.55462,0,0,0,.45605-.249,1.22538,1.22538,0,0,0,.13184-.627v-.55176a.15828.15828,0,0,1,.04492-.11719.14944.14944,0,0,1,.11133-.04492h.623a.14011.14011,0,0,1,.10546.04785.16086.16086,0,0,1,.04493.11426v.56348a1.56425,1.56425,0,0,1-.35352,1.08008,1.49063,1.49063,0,0,1-1.002.46191.76771.76771,0,0,0,.30273.29394.85914.85914,0,0,0,.417.10254h.1377a1.19228,1.19228,0,0,0,.55176-.126.95747.95747,0,0,0,.38476-.34864.923.923,0,0,0,.1377-.498v-1.542a.14273.14273,0,0,1,.042-.10743.14494.14494,0,0,1,.1084-.042h.62988A.14269.14269,0,0,1,20.47726,22.16722Z"/><path class="g" d="M24.21554,22.16722a.14646.14646,0,0,1,.042.10743V24.051a1.307,1.307,0,0,1-.41407.98731,2.20471,2.20471,0,0,1-1.16406.52441l-1.53613.32422a.1375.1375,0,0,1-.11719-.03027.131.131,0,0,1-.05078-.10743v-.52246a.15112.15112,0,0,1,.03906-.10449.17574.17574,0,0,1,.09864-.05762l.666-.16211-.708-2.5371a.79837.79837,0,0,1-.02929-.12012.12171.12171,0,0,1,.12011-.12012h.7793a.14631.14631,0,0,1,.08984.02637.13665.13665,0,0,1,.04883.06347l.59961,2.45411a.8291.8291,0,0,0,.44434-.33887,1.19506,1.19506,0,0,0,.11914-.5791V22.27465a.14382.14382,0,0,1,.15039-.14942h.71387A.14643.14643,0,0,1,24.21554,22.16722Z"/><path class="g" d="M27.2214,22.50023a1.633,1.633,0,0,1,.3418,1.13086,1.7662,1.7662,0,0,1-.45019,1.248,2.38514,2.38514,0,0,1-1.12793.67773l-.2461.07227a.117.117,0,0,1-.11133-.042.17051.17051,0,0,1-.05078-.12012v-.60645a.16985.16985,0,0,1,.042-.11035.29351.29351,0,0,1,.1084-.081l.19141-.07813a.96686.96686,0,0,0,.43555-.32129,1.0054,1.0054,0,0,0,.15918-.6084.8082.8082,0,0,0-.13282-.52832.64.64,0,0,0-.49121-.15039h-.15625l-.80468-.00586a.14421.14421,0,0,1-.10743-.042.14271.14271,0,0,1-.042-.10742V21.44066a.138.138,0,0,1,.04492-.10742.14856.14856,0,0,1,.1045-.042h.64843a.14382.14382,0,0,1,.15039.14941v.68457h.37207A1.45816,1.45816,0,0,1,27.2214,22.50023Z"/><path class="g" d="M30.9509,25.509a.14007.14007,0,0,1-.04493-.1084V23.62523a.60276.60276,0,0,0-.67871-.68457h-.91211a.14207.14207,0,0,1-.10449-.04492.14052.14052,0,0,1-.04492-.10449v-.5166a.138.138,0,0,1,.04492-.10743.14689.14689,0,0,1,.10449-.042h.94825a1.9193,1.9193,0,0,1,1.24511.3418,1.37977,1.37977,0,0,1,.41114,1.12207v1.81152a.15345.15345,0,0,1-.042.10547.14151.14151,0,0,1-.10839.04492h-.708A.15254.15254,0,0,1,30.9509,25.509Z"/><path class="g" d="M32.6423,25.509a.14086.14086,0,0,1-.0459-.1084v-3.126a.1388.1388,0,0,1,.0459-.10743.15257.15257,0,0,1,.11035-.042h.75a.14382.14382,0,0,1,.15039.14942v3.126a.15344.15344,0,0,1-.042.10547.14152.14152,0,0,1-.1084.04492h-.75A.15257.15257,0,0,1,32.6423,25.509Z"/><path class="g" d="M34.73312,25.218a1.4743,1.4743,0,0,1-.40722-1.11328V22.27465a.138.138,0,0,1,.04492-.10743.15254.15254,0,0,1,.11035-.042h1.53027a1.73556,1.73556,0,0,1,1.23633.36621,1.55058,1.55058,0,0,1,.41406,1.0791c.00391.04.00586.13477.00586.28223,0,.15234-.002.248-.00586.28809a1.55288,1.55288,0,0,1-.42968,1.09472,1.80371,1.80371,0,0,1-1.27442.375A1.70549,1.70549,0,0,1,34.73312,25.218Zm1.78516-.6123a.68086.68086,0,0,0,.1709-.49512c.0039-.03906.00683-.126.00683-.25781,0-.12793-.00293-.21191-.00683-.252a.6992.6992,0,0,0-.17969-.498.742.742,0,0,0-.52832-.16211h-.72559v1.14649a.64744.64744,0,0,0,.17969.501.73618.73618,0,0,0,.5166.165A.83392.83392,0,0,0,36.51828,24.6057Z"/><path class="g" d="M41.43527,25.425a.12687.12687,0,0,1-.03516.08691.1183.1183,0,0,1-.09082.03906H40.572a.20147.20147,0,0,1-.16211-.05664c-.03223-.03808-.0498-.05957-.05469-.06347l-1.0498-1.51758a.67831.67831,0,0,0-.2041.33008,1.61334,1.61334,0,0,0-.04785.3955v.75a.15823.15823,0,0,1-.04493.11719.14942.14942,0,0,1-.11132.04492h-.5879a.13811.13811,0,0,1-.10449-.04785.16088.16088,0,0,1-.04492-.11426v-.74414a2.11,2.11,0,0,1,.1377-.82812A1.52319,1.52319,0,0,1,38.82,23.217l-.61231-.88184a.12517.12517,0,0,1-.03027-.084.11761.11761,0,0,1,.03906-.08692.11922.11922,0,0,1,.08692-.03906h.708a.197.197,0,0,1,.12891.03613.419.419,0,0,1,.08691.09571l.9668,1.36816a.533.533,0,0,0,.21289-.26465,1.17413,1.17413,0,0,0,.04492-.34179v-.73145a.16437.16437,0,0,1,.042-.11719.138.138,0,0,1,.10743-.04492h.62988a.145.145,0,0,1,.11133.04785.16089.16089,0,0,1,.04492.11426v.75586a1.58559,1.58559,0,0,1-.15234.69922,1.43736,1.43736,0,0,1-.55567.5664l.73242,1.03223A.15085.15085,0,0,1,41.43527,25.425Z"/><rect class="h" x="20.25839" width="14.03841" height="5.61702"/></svg>