<svg xmlns="http://www.w3.org/2000/svg" xmlns:xlink="http://www.w3.org/1999/xlink" viewBox="0 0 54.4718 53.92427"><defs><style>.a,.g,.j,.k,.l,.m{fill:none;}.b{clip-path:url(#a);}.c{fill:#b3f4ff;}.d{opacity:0.4;}.e,.o{fill:#fff;}.f{fill:#34353a;opacity:0.12;}.g{stroke:#88939e;stroke-opacity:0.3;stroke-width:2.95715px;}.g,.j,.k,.l,.m{stroke-miterlimit:10;}.h{fill:#fcc8ef;}.i{fill:#dd9ace;}.j{stroke:#be0411;stroke-width:0.73281px;}.k{stroke:#fff;}.k,.l,.m{stroke-width:2.19843px;}.l{stroke:#f9aa1c;}.m{stroke:#c6b3b3;}.n{fill:#5e4255;}.o{opacity:0.5;}</style><clipPath id="a"><rect class="a" x="20.54887" y="165.48699" width="384" height="216" transform="translate(425.09773 546.97398) rotate(-180)"/></clipPath></defs><g class="b"><rect class="c" x="-52.05485" y="-20.20199" width="162.74533" height="81.30815" transform="translate(58.63563 40.90416) rotate(-180)"/><g class="d"><ellipse class="e" cx="66.82342" cy="2.85302" rx="28.9064" ry="17.48833"/><ellipse class="e" cx="46.11791" cy="-11.99169" rx="28.9064" ry="17.48833"/><ellipse class="e" cx="-2.0942" cy="7.94603" rx="28.9064" ry="17.48833"/><ellipse class="e" cx="36.75157" cy="9.90727" rx="20.42152" ry="17.48833"/><ellipse class="e" cx="4.94699" cy="-11.99169" rx="20.42152" ry="17.48833"/></g><polygon class="f" points="26.66 61.106 38.516 -23.471 82.755 -23.471 71.689 61.106 26.66 61.106"/><polyline class="g" points="96.597 -12.555 96.597 59.571 -51.07 59.571 -51.07 -13.037"/></g><rect class="h" x="0.24961" y="2.55834" width="53.97168" height="51.11572"/><path class="i" d="M53.97178,2.8085V53.42427H.5V2.8085h53.4718m.5-.5H0V53.92427h54.4718V2.3085Z"/><circle class="j" cx="27.23587" cy="40.08598" r="8.51308"/><line class="k" x1="32.16405" y1="45.01416" x2="22.30769" y2="35.1578"/><line class="l" x1="29.9811" y1="42.83121" x2="32.16405" y2="45.01416"/><line class="m" x1="23.04501" y1="35.89512" x2="22.30769" y2="35.1578"/><line class="j" x1="33.74285" y1="34.55373" x2="20.81234" y2="45.62753"/><path class="n" d="M6.45566,14.50609a.14807.14807,0,0,1-.04492-.10547v-.77344a.15485.15485,0,0,1,.04492-.11132.14417.14417,0,0,1,.10547-.04493h.77442a.1436.1436,0,0,1,.10449.04493.151.151,0,0,1,.04492.11132v.77344a.14915.14915,0,0,1-.042.10547.13942.13942,0,0,1-.10742.04492H6.56113A.1442.1442,0,0,1,6.45566,14.50609Zm.01856-1.35644a.14728.14728,0,0,1-.04492-.11036V10.50121a.14152.14152,0,0,1,.04492-.1084.15912.15912,0,0,1,.11133-.042h.72558a.16084.16084,0,0,1,.11133.042.145.145,0,0,1,.04492.1084v2.53808a.15343.15343,0,0,1-.15625.15528H6.58555A.14943.14943,0,0,1,6.47422,13.14965Z"/><path class="n" d="M8.232,15.25316a.14232.14232,0,0,1-.0459-.1084V11.27465a.1388.1388,0,0,1,.0459-.10743.15257.15257,0,0,1,.11035-.042h.708a.14382.14382,0,0,1,.15039.14942v3.87011a.14389.14389,0,0,1-.15039.15039h-.708A.15675.15675,0,0,1,8.232,15.25316Z"/><path class="n" d="M9.96055,14.509a.14083.14083,0,0,1-.0459-.1084v-3.126a.13876.13876,0,0,1,.0459-.10743.15254.15254,0,0,1,.11035-.042h.75a.14382.14382,0,0,1,.15039.14942v3.126a.15349.15349,0,0,1-.042.10547.14153.14153,0,0,1-.1084.04492h-.75A.15254.15254,0,0,1,9.96055,14.509Z"/><path class="n" d="M11.6998,13.08715a.14155.14155,0,0,1-.04492-.1084v-1.7041a.138.138,0,0,1,.04492-.10743.15651.15651,0,0,1,.11133-.042h.75a.14377.14377,0,0,1,.14942.14942v1.7041a.14917.14917,0,0,1-.042.10547.138.138,0,0,1-.10742.04492h-.75A.15651.15651,0,0,1,11.6998,13.08715Z"/><path class="n" d="M14.88828,14.58715a.18048.18048,0,0,1-.04785-.12012v-.60645a.18723.18723,0,0,1,.042-.11328.23569.23569,0,0,1,.1084-.07812l.18555-.07813a.88226.88226,0,0,0,.60058-.92969.7897.7897,0,0,0-.13574-.52832.6506.6506,0,0,0-.49414-.15039H13.55039a.155.155,0,0,1-.15625-.15527v-.55859a.129.129,0,0,1,.04883-.10157.15544.15544,0,0,1,.10742-.042H15.357a1.45816,1.45816,0,0,1,1.12207.375,1.633,1.633,0,0,1,.3418,1.13086,1.76617,1.76617,0,0,1-.4502,1.248,2.385,2.385,0,0,1-1.12793.67773l-.24609.07227A.1108.1108,0,0,1,14.88828,14.58715ZM13.44,15.65453a.13879.13879,0,0,1-.0459-.10742V12.64867a.13876.13876,0,0,1,.0459-.10742.15258.15258,0,0,1,.11035-.042H14.235a.14377.14377,0,0,1,.14941.14942v2.89844a.14529.14529,0,0,1-.14941.15039h-.68457A.15333.15333,0,0,1,13.44,15.65453Z"/><path class="n" d="M17.41758,13.08715a.14151.14151,0,0,1-.04492-.1084v-1.7041a.138.138,0,0,1,.04492-.10743.15648.15648,0,0,1,.11133-.042h.75a.14376.14376,0,0,1,.14941.14942v1.7041a.14916.14916,0,0,1-.042.10547.138.138,0,0,1-.10742.04492h-.75A.15648.15648,0,0,1,17.41758,13.08715Z"/><path class="n" d="M21.17441,14.50609a.151.151,0,0,1-.11132.04492H19.1373a.15647.15647,0,0,1-.11132-.042.1435.1435,0,0,1-.04493-.1084V13.885a.145.145,0,0,1,.04493-.1084.16078.16078,0,0,1,.11132-.042h.9961L20.07969,12.553a1.071,1.071,0,0,0-.12012-.50391.41089.41089,0,0,0-.37207-.15625h-.30566a.14418.14418,0,0,1-.10547-.04492.142.142,0,0,1-.04492-.10449v-.50391a.15488.15488,0,0,1,.042-.11133.14008.14008,0,0,1,.1084-.04492h.32324a1.57838,1.57838,0,0,1,1.14355.35351,1.64517,1.64517,0,0,1,.38672,1.13379l.07813,1.83008A.12558.12558,0,0,1,21.17441,14.50609Z"/><path class="n" d="M24.02012,14.509a.14875.14875,0,0,1-.042-.1084V12.62523a.60208.60208,0,0,0-.67773-.68457H21.93223a.15258.15258,0,0,1-.11036-.042.13878.13878,0,0,1-.04589-.10742v-.5166a.13879.13879,0,0,1,.04589-.10743.15258.15258,0,0,1,.11036-.042h1.39843a1.8405,1.8405,0,0,1,1.24512.36621,1.44043,1.44043,0,0,1,.417,1.13965v1.76953a.14349.14349,0,0,1-.04492.1084.15648.15648,0,0,1-.11133.042h-.708A.14644.14644,0,0,1,24.02012,14.509Zm-2.19825,0a.14086.14086,0,0,1-.04589-.1084v-1.752a.13875.13875,0,0,1,.04589-.10742.15258.15258,0,0,1,.11036-.042h.708a.14384.14384,0,0,1,.15039.14942v1.752a.15344.15344,0,0,1-.042.10547.14152.14152,0,0,1-.1084.04492h-.708A.15258.15258,0,0,1,21.82187,14.509Z"/><path class="n" d="M29.10312,11.50023a1.633,1.633,0,0,1,.3418,1.13086,1.7662,1.7662,0,0,1-.45019,1.248,2.3851,2.3851,0,0,1-1.12793.67773l-.2461.07227a.117.117,0,0,1-.11133-.042.17056.17056,0,0,1-.05078-.12012v-.60645a.16987.16987,0,0,1,.042-.11035.29339.29339,0,0,1,.10839-.081l.19141-.07813a.96686.96686,0,0,0,.43555-.32129,1.0054,1.0054,0,0,0,.15918-.6084.80814.80814,0,0,0-.13282-.52832.64.64,0,0,0-.49121-.15039h-.15625l-.80468-.00586a.14421.14421,0,0,1-.10743-.042.14271.14271,0,0,1-.042-.10742V10.44066a.138.138,0,0,1,.04492-.10742.14856.14856,0,0,1,.1045-.042h.64843a.14382.14382,0,0,1,.15039.14941v.68457h.37207A1.45814,1.45814,0,0,1,29.10312,11.50023Z"/><path class="n" d="M33.10508,11.16722a.1465.1465,0,0,1,.042.10743V13.051a1.307,1.307,0,0,1-.41406.98731,2.20475,2.20475,0,0,1-1.16406.52441l-1.53614.32422a.1375.1375,0,0,1-.11719-.03027.131.131,0,0,1-.05078-.10743v-.52246a.15108.15108,0,0,1,.03907-.10449.17568.17568,0,0,1,.09863-.05762l.666-.16211-.708-2.5371a.79908.79908,0,0,1-.0293-.12012.12173.12173,0,0,1,.12012-.12012h.77929a.14634.14634,0,0,1,.08985.02637.13671.13671,0,0,1,.04883.06347l.59961,2.45411a.82907.82907,0,0,0,.44433-.33887,1.19506,1.19506,0,0,0,.11914-.5791V11.27465a.14382.14382,0,0,1,.15039-.14942h.71387A.14646.14646,0,0,1,33.10508,11.16722Z"/><path class="n" d="M35.12363,14.509a.14086.14086,0,0,1-.0459-.1084v-3.126a.1388.1388,0,0,1,.0459-.10743.15257.15257,0,0,1,.11035-.042h.75a.14382.14382,0,0,1,.15039.14942v3.126a.15344.15344,0,0,1-.042.10547.14152.14152,0,0,1-.1084.04492h-.75A.15257.15257,0,0,1,35.12363,14.509Z"/><path class="n" d="M38.51426,14.509a.14006.14006,0,0,1-.04492-.1084V12.62523a.60277.60277,0,0,0-.67872-.68457h-.9121a.14209.14209,0,0,1-.1045-.04492.14052.14052,0,0,1-.04492-.10449v-.5166a.138.138,0,0,1,.04492-.10743.14691.14691,0,0,1,.1045-.042h.94824a1.9193,1.9193,0,0,1,1.24511.3418A1.37977,1.37977,0,0,1,39.483,12.5891v1.81152a.15349.15349,0,0,1-.042.10547.14153.14153,0,0,1-.1084.04492h-.708A.15254.15254,0,0,1,38.51426,14.509Z"/><path class="n" d="M43.18418,11.49144A1.44686,1.44686,0,0,1,43.568,12.5891v1.81152a.14915.14915,0,0,1-.042.10547.138.138,0,0,1-.10743.04492H41.77988a.14205.14205,0,0,1-.10449-.04492.14418.14418,0,0,1-.04492-.10547V13.885a.14152.14152,0,0,1,.04492-.1084.15109.15109,0,0,1,.10449-.042h.77442V12.637a.71937.71937,0,0,0-.15039-.48633.49141.49141,0,0,0-.38965-.17383h-.46778l-.50976,2.418a.18771.18771,0,0,1-.04883.11133.138.138,0,0,1-.10742.04492H40.19a.14725.14725,0,0,1-.11035-.04492.11889.11889,0,0,1-.03321-.11133l.58789-2.41211h-.39648a.138.138,0,0,1-.10742-.04492.15257.15257,0,0,1-.042-.11035v-.55273a.138.138,0,0,1,.04492-.10743.14687.14687,0,0,1,.10449-.042h1.92676A1.41543,1.41543,0,0,1,43.18418,11.49144Z"/><path class="n" d="M48.1041,11.16722a.14273.14273,0,0,1,.042.10743v1.57226a1.75888,1.75888,0,0,1-.24023.92676,1.61781,1.61781,0,0,1-.65332.61523,1.89986,1.89986,0,0,1-.918.21H45.7584a1.80454,1.80454,0,0,1-.83985-.18554,1.32888,1.32888,0,0,1-.54882-.50391,1.34962,1.34962,0,0,1-.18946-.70215V11.27465a.138.138,0,0,1,.04493-.10743.15647.15647,0,0,1,.11132-.042h.62989a.14384.14384,0,0,1,.15039.14942l.00586,1.44042a.55464.55464,0,0,0,.456-.249,1.22538,1.22538,0,0,0,.13184-.62695v-.55176a.15828.15828,0,0,1,.04492-.11719.14943.14943,0,0,1,.11133-.04492h.623a.14011.14011,0,0,1,.10547.04785.16085.16085,0,0,1,.04492.11426v.56348a1.56425,1.56425,0,0,1-.35351,1.08008,1.49063,1.49063,0,0,1-1.002.46191.76765.76765,0,0,0,.30273.29394.85914.85914,0,0,0,.417.10254h.1377a1.19228,1.19228,0,0,0,.55176-.126.95747.95747,0,0,0,.38476-.34864.923.923,0,0,0,.1377-.498v-1.542a.14273.14273,0,0,1,.042-.10743.14493.14493,0,0,1,.1084-.042h.62988A.14271.14271,0,0,1,48.1041,11.16722Z"/><path class="n" d="M13.15488,25.50609a.14807.14807,0,0,1-.04492-.10547v-.77344a.15485.15485,0,0,1,.04492-.11132.14417.14417,0,0,1,.10547-.04493h.77442a.14362.14362,0,0,1,.10449.04493.151.151,0,0,1,.04492.11132v.77344a.14915.14915,0,0,1-.042.10547.13942.13942,0,0,1-.10742.04492h-.77442A.1442.1442,0,0,1,13.15488,25.50609Zm.01856-1.35644a.14725.14725,0,0,1-.04492-.11036V21.50121a.14148.14148,0,0,1,.04492-.1084.15912.15912,0,0,1,.11133-.042h.72558a.16084.16084,0,0,1,.11133.042.145.145,0,0,1,.04492.1084v2.53808a.15343.15343,0,0,1-.15625.15528h-.72558A.14943.14943,0,0,1,13.17344,24.14965Z"/><path class="n" d="M14.93125,26.25316a.14232.14232,0,0,1-.0459-.1084V22.27465a.1388.1388,0,0,1,.0459-.10743.15257.15257,0,0,1,.11035-.042h.708a.14382.14382,0,0,1,.15039.14942v3.87011a.14389.14389,0,0,1-.15039.15039h-.708A.15675.15675,0,0,1,14.93125,26.25316Z"/><path class="n" d="M20.47812,22.16722a.1427.1427,0,0,1,.042.10743v1.57226a1.75889,1.75889,0,0,1-.24024.92676,1.61781,1.61781,0,0,1-.65332.61523,1.89984,1.89984,0,0,1-.918.21h-.57617a1.80447,1.80447,0,0,1-.83984-.18554,1.32891,1.32891,0,0,1-.54883-.50391,1.34962,1.34962,0,0,1-.18945-.70215V22.27465a.138.138,0,0,1,.04492-.10743.15648.15648,0,0,1,.11133-.042h.62988a.14382.14382,0,0,1,.15039.14942l.00586,1.44042a.55462.55462,0,0,0,.456-.249,1.22538,1.22538,0,0,0,.13184-.627v-.55176a.15828.15828,0,0,1,.04492-.11719.14946.14946,0,0,1,.11133-.04492h.623a.14013.14013,0,0,1,.10547.04785.16089.16089,0,0,1,.04492.11426v.56348a1.56425,1.56425,0,0,1-.35352,1.08008,1.49063,1.49063,0,0,1-1.002.46191.76771.76771,0,0,0,.30273.29394.85915.85915,0,0,0,.417.10254h.13769a1.19225,1.19225,0,0,0,.55176-.126.95747.95747,0,0,0,.38476-.34864.923.923,0,0,0,.1377-.498v-1.542a.14273.14273,0,0,1,.042-.10743.14494.14494,0,0,1,.1084-.042h.62988A.14269.14269,0,0,1,20.47812,22.16722Z"/><path class="n" d="M24.21641,22.16722a.1465.1465,0,0,1,.042.10743V24.051a1.307,1.307,0,0,1-.41406.98731,2.20478,2.20478,0,0,1-1.16407.52441l-1.53613.32422a.1375.1375,0,0,1-.11719-.03027.131.131,0,0,1-.05078-.10743v-.52246a.15112.15112,0,0,1,.03906-.10449.17574.17574,0,0,1,.09864-.05762l.666-.16211-.708-2.5371a.79837.79837,0,0,1-.02929-.12012.12171.12171,0,0,1,.12012-.12012H21.942a.14636.14636,0,0,1,.08985.02637.13669.13669,0,0,1,.04882.06347l.59961,2.45411a.8291.8291,0,0,0,.44434-.33887,1.19506,1.19506,0,0,0,.11914-.5791V22.27465a.14382.14382,0,0,1,.15039-.14942H24.108A.14646.14646,0,0,1,24.21641,22.16722Z"/><path class="n" d="M27.22227,22.50023a1.633,1.633,0,0,1,.34179,1.13086,1.7662,1.7662,0,0,1-.45019,1.248,2.3851,2.3851,0,0,1-1.12793.67773l-.2461.07227a.117.117,0,0,1-.11132-.042.17053.17053,0,0,1-.05079-.12012v-.60645a.16987.16987,0,0,1,.042-.11035.29339.29339,0,0,1,.10839-.081l.19141-.07813a.96686.96686,0,0,0,.43555-.32129,1.0054,1.0054,0,0,0,.15918-.6084.80821.80821,0,0,0-.13281-.52832.64006.64006,0,0,0-.49122-.15039H25.734l-.80468-.00586a.14423.14423,0,0,1-.10743-.042.14271.14271,0,0,1-.042-.10742V21.44066a.138.138,0,0,1,.04492-.10742.14856.14856,0,0,1,.1045-.042h.64843a.14382.14382,0,0,1,.15039.14941v.68457h.37208A1.45817,1.45817,0,0,1,27.22227,22.50023Z"/><path class="n" d="M30.95176,25.509a.14006.14006,0,0,1-.04492-.1084V23.62523a.60277.60277,0,0,0-.67872-.68457H29.316a.14209.14209,0,0,1-.1045-.04492.14052.14052,0,0,1-.04492-.10449v-.5166a.138.138,0,0,1,.04492-.10743.14691.14691,0,0,1,.1045-.042h.94824a1.9193,1.9193,0,0,1,1.24511.3418,1.37977,1.37977,0,0,1,.41114,1.12207v1.81152a.15349.15349,0,0,1-.042.10547.14153.14153,0,0,1-.1084.04492h-.708A.15254.15254,0,0,1,30.95176,25.509Z"/><path class="n" d="M32.64316,25.509a.14086.14086,0,0,1-.04589-.1084v-3.126a.13879.13879,0,0,1,.04589-.10743.15258.15258,0,0,1,.11036-.042h.75a.14384.14384,0,0,1,.15039.14942v3.126a.15345.15345,0,0,1-.042.10547.14151.14151,0,0,1-.10839.04492h-.75A.15258.15258,0,0,1,32.64316,25.509Z"/><path class="n" d="M34.734,25.218a1.4743,1.4743,0,0,1-.40722-1.11328V22.27465a.138.138,0,0,1,.04492-.10743.15257.15257,0,0,1,.11035-.042H36.0123a1.73556,1.73556,0,0,1,1.23633.36621,1.55058,1.55058,0,0,1,.41407,1.0791c.0039.04.00585.13477.00585.28223,0,.15234-.002.248-.00585.28809a1.55292,1.55292,0,0,1-.42969,1.09472,1.80371,1.80371,0,0,1-1.27442.375A1.70551,1.70551,0,0,1,34.734,25.218Zm1.78516-.6123a.68077.68077,0,0,0,.1709-.49512c.00391-.03906.00683-.126.00683-.25781,0-.12793-.00292-.21191-.00683-.252a.69911.69911,0,0,0-.17969-.498.742.742,0,0,0-.52832-.16211h-.72558v1.14649a.64747.64747,0,0,0,.17968.501.73618.73618,0,0,0,.5166.165A.83392.83392,0,0,0,36.51914,24.6057Z"/><path class="n" d="M41.43613,25.425a.12691.12691,0,0,1-.03515.08691.11833.11833,0,0,1-.09082.03906h-.73731a.20147.20147,0,0,1-.16211-.05664c-.03222-.03808-.0498-.05957-.05469-.06347l-1.0498-1.51758a.67831.67831,0,0,0-.2041.33008,1.61334,1.61334,0,0,0-.04785.3955v.75a.15823.15823,0,0,1-.04493.11719.14942.14942,0,0,1-.11132.04492h-.58789a.13811.13811,0,0,1-.1045-.04785.16088.16088,0,0,1-.04492-.11426v-.74414a2.11,2.11,0,0,1,.1377-.82812,1.52319,1.52319,0,0,1,.52246-.59961l-.61231-.88184a.12522.12522,0,0,1-.03027-.084.11765.11765,0,0,1,.03906-.08692.11922.11922,0,0,1,.08692-.03906h.708a.197.197,0,0,1,.12891.03613.419.419,0,0,1,.08691.09571l.9668,1.36816a.533.533,0,0,0,.21289-.26465,1.17413,1.17413,0,0,0,.04492-.34179v-.73145a.16437.16437,0,0,1,.042-.11719.138.138,0,0,1,.10742-.04492H41.232a.145.145,0,0,1,.11133.04785.16089.16089,0,0,1,.04492.11426v.75586a1.58559,1.58559,0,0,1-.15234.69922,1.43736,1.43736,0,0,1-.55567.5664l.73243,1.03223A.15093.15093,0,0,1,41.43613,25.425Z"/><rect class="o" x="20.25839" width="14.03841" height="5.61702"/></svg>