<svg xmlns="http://www.w3.org/2000/svg" xmlns:xlink="http://www.w3.org/1999/xlink" viewBox="0 0 74.42468 57.05318"><defs><style>.a,.f{fill:none;}.b{clip-path:url(#a);}.c{fill:#b3f4ff;}.d{opacity:0.4;}.e{fill:#fff;}.f{stroke:#88939e;stroke-miterlimit:10;stroke-opacity:0.3;stroke-width:2.95715px;}.g{fill:#34353a;opacity:0.22;}.h,.l{fill:#ead4d4;}.i{fill:#c5a1a1;}.j{fill:#ce9d9d;}.k{fill:#181311;}.l{opacity:0.5;}</style><clipPath id="a"><rect class="a" x="204.01864" y="165.48699" width="384" height="216" transform="translate(792.03727 546.97398) rotate(-180)"/></clipPath></defs><g class="b"><rect class="c" x="-39.8092" y="-20.20199" width="167.06182" height="81.30815" transform="translate(87.44341 40.90416) rotate(-180)"/><g class="d"><ellipse class="e" cx="18.02175" cy="23.37141" rx="18.03872" ry="10.9134"/><ellipse class="e" cx="5.10071" cy="32.63509" rx="18.03872" ry="10.9134"/><ellipse class="e" cx="-0.74425" cy="18.96929" rx="12.74382" ry="10.9134"/></g><polyline class="f" points="125.774 -12.398 125.774 59.727 -23.828 59.727 -23.828 -12.88"/><polygon class="g" points="63.329 61.106 76.258 -31.116 171.784 -31.116 159.718 61.106 63.329 61.106"/><polygon class="g" points="6.75 -13.407 25.035 -13.407 15.286 61.106 6.75 61.106 -10.993 61.106 -39.683 61.106 -39.683 -13.407 6.75 -13.407"/></g><rect class="h" x="0.24965" y="2.55834" width="73.9248" height="54.24463"/><path class="i" d="M73.9247,2.8085V56.55319H.5V2.8085H73.9247m.5-.5H0V57.05319H74.4247V2.3085Z"/><rect class="j" x="7.21863" y="32.29787" width="59.98743" height="2.55319" rx="1.1819"/><rect class="j" x="7.21863" y="38.68085" width="59.98743" height="2.55319" rx="1.1819"/><rect class="j" x="41.94881" y="45.06383" width="25.25725" height="2.55319" rx="1.27659"/><path class="k" d="M11.28188,11.48168a1.38687,1.38687,0,0,1,.417,1.11328v1.80566a.14915.14915,0,0,1-.042.10547.14152.14152,0,0,1-.1084.04492h-.708a.15417.15417,0,0,1-.11035-.042.14009.14009,0,0,1-.04492-.1084V12.62523a.60276.60276,0,0,0-.67871-.68457H9.61684a3.68123,3.68123,0,0,0-.08984.88281l.04785,1.57715a.14009.14009,0,0,1-.04492.1084.15651.15651,0,0,1-.11133.042l-1.27149-.00586a.15647.15647,0,0,1-.11132-.042.14149.14149,0,0,1-.04493-.1084v-.47363a.14149.14149,0,0,1,.04493-.1084.16083.16083,0,0,1,.11132-.042h.48536v-.94141a3.24293,3.24293,0,0,1,.09082-.88867h-.3545a.15647.15647,0,0,1-.11132-.042.14136.14136,0,0,1-.04493-.10742v-.5166a.14137.14137,0,0,1,.04493-.10743.15647.15647,0,0,1,.11132-.042h1.67383A1.86685,1.86685,0,0,1,11.28188,11.48168Z"/><path class="k" d="M12.42251,14.509a.14083.14083,0,0,1-.0459-.1084v-3.126a.13876.13876,0,0,1,.0459-.10743.15254.15254,0,0,1,.11035-.042h.75a.14382.14382,0,0,1,.15039.14942v3.126a.15349.15349,0,0,1-.042.10547.14153.14153,0,0,1-.1084.04492h-.75A.15254.15254,0,0,1,12.42251,14.509Z"/><path class="k" d="M14.18618,14.509a.14083.14083,0,0,1-.0459-.1084v-3.126a.13876.13876,0,0,1,.0459-.10743.15254.15254,0,0,1,.11035-.042h.75a.14382.14382,0,0,1,.15039.14942v3.126a.15349.15349,0,0,1-.042.10547.14153.14153,0,0,1-.1084.04492h-.75A.15254.15254,0,0,1,14.18618,14.509Z"/><path class="k" d="M18.6227,12.53246a1.47791,1.47791,0,0,1-.52832.543l.46777.6416a.67745.67745,0,0,1,.05762.08984.24955.24955,0,0,1,.02051.1084v.48535a.14915.14915,0,0,1-.042.10547.13943.13943,0,0,1-.10743.04492H16.05434a.14052.14052,0,0,1-.10449-.04492.14521.14521,0,0,1-.0459-.10547v-.5332a.14232.14232,0,0,1,.0459-.1084.14527.14527,0,0,1,.10449-.042H17.4645l-1.7461-2.376a.20243.20243,0,0,1-.03613-.0957.10634.10634,0,0,1,.03906-.08692.137.137,0,0,1,.09278-.0332h.74414a.22212.22212,0,0,1,.19238.10742l.83984,1.15235a.94943.94943,0,0,0,.27637-.76172v-.33594a.15828.15828,0,0,1,.04492-.11719.14728.14728,0,0,1,.11035-.04492H18.652a.14013.14013,0,0,1,.10547.04785.16089.16089,0,0,1,.04492.11426V11.803A1.48724,1.48724,0,0,1,18.6227,12.53246Z"/><path class="k" d="M21.68813,14.509a.14878.14878,0,0,1-.042-.1084V12.62523a.60208.60208,0,0,0-.67774-.68457H19.60024a.15255.15255,0,0,1-.11035-.042.13876.13876,0,0,1-.0459-.10742v-.5166a.13876.13876,0,0,1,.0459-.10743.15255.15255,0,0,1,.11035-.042h1.39844a1.84047,1.84047,0,0,1,1.24511.36621,1.44039,1.44039,0,0,1,.417,1.13965v1.76953a.1435.1435,0,0,1-.04493.1084.15647.15647,0,0,1-.11132.042h-.708A.14644.14644,0,0,1,21.68813,14.509Zm-2.19824,0a.14083.14083,0,0,1-.0459-.1084v-1.752a.13873.13873,0,0,1,.0459-.10742.15256.15256,0,0,1,.11035-.042h.708a.14384.14384,0,0,1,.15039.14942v1.752a.15349.15349,0,0,1-.042.10547.14153.14153,0,0,1-.1084.04492h-.708A.15255.15255,0,0,1,19.48989,14.509Z"/><path class="k" d="M24.63833,14.509a.14083.14083,0,0,1-.0459-.1084v-3.126a.13876.13876,0,0,1,.0459-.10743.15254.15254,0,0,1,.11035-.042H26.111a1.822,1.822,0,0,1,1.21485.34473,1.41747,1.41747,0,0,1,.39941,1.125v1.7998a.15486.15486,0,0,1-.04492.11133.151.151,0,0,1-.11133.04492H24.74868A.15254.15254,0,0,1,24.63833,14.509Zm2.12011-.77441V12.62523a.60208.60208,0,0,0-.67773-.68457h-.57617v1.794Z"/><path class="k" d="M31.49868,11.16722a.1465.1465,0,0,1,.042.10743V13.051a1.307,1.307,0,0,1-.41406.98731,2.20478,2.20478,0,0,1-1.16407.52441l-1.53613.32422a.1375.1375,0,0,1-.11719-.03027.131.131,0,0,1-.05078-.10743v-.52246a.15108.15108,0,0,1,.03907-.10449.17568.17568,0,0,1,.09863-.05762l.666-.16211-.708-2.5371a.79768.79768,0,0,1-.0293-.12012.12173.12173,0,0,1,.12012-.12012h.77929a.14634.14634,0,0,1,.08985.02637.13671.13671,0,0,1,.04883.06347l.5996,2.45411a.8291.8291,0,0,0,.44434-.33887,1.19506,1.19506,0,0,0,.11914-.5791V11.27465a.14382.14382,0,0,1,.15039-.14942h.71387A.14646.14646,0,0,1,31.49868,11.16722Z"/><path class="k" d="M36.66176,11.48168a1.38688,1.38688,0,0,1,.417,1.11328v1.80566a.14916.14916,0,0,1-.042.10547.14152.14152,0,0,1-.1084.04492h-.708a.15413.15413,0,0,1-.11035-.042.14007.14007,0,0,1-.04493-.1084V12.62523a.60276.60276,0,0,0-.67871-.68457h-.38965a3.68174,3.68174,0,0,0-.08984.88281l.04785,1.57715a.14009.14009,0,0,1-.04492.1084.15648.15648,0,0,1-.11133.042L33.527,14.54515a.15648.15648,0,0,1-.11133-.042.14152.14152,0,0,1-.04492-.1084v-.47363a.14152.14152,0,0,1,.04492-.1084.16084.16084,0,0,1,.11133-.042h.48535v-.94141a3.24332,3.24332,0,0,1,.09082-.88867h-.35449a.15648.15648,0,0,1-.11133-.042.14135.14135,0,0,1-.04492-.10742v-.5166a.14136.14136,0,0,1,.04492-.10743.15648.15648,0,0,1,.11133-.042h1.67383A1.86682,1.86682,0,0,1,36.66176,11.48168Z"/><path class="k" d="M39.3434,14.509a.14009.14009,0,0,1-.04492-.1084V12.62523a.60276.60276,0,0,0-.67871-.68457h-.91211a.14205.14205,0,0,1-.10449-.04492.14052.14052,0,0,1-.04492-.10449v-.5166a.138.138,0,0,1,.04492-.10743.14687.14687,0,0,1,.10449-.042h.94824a1.91931,1.91931,0,0,1,1.24512.3418,1.37977,1.37977,0,0,1,.41113,1.12207v1.81152a.15344.15344,0,0,1-.042.10547.14152.14152,0,0,1-.1084.04492h-.708A.15258.15258,0,0,1,39.3434,14.509Z"/><path class="k" d="M41.03579,14.509a.14083.14083,0,0,1-.0459-.1084v-3.126a.13876.13876,0,0,1,.0459-.10743.15254.15254,0,0,1,.11035-.042h.75a.14382.14382,0,0,1,.15039.14942v3.126a.15349.15349,0,0,1-.042.10547.14153.14153,0,0,1-.1084.04492h-.75A.15254.15254,0,0,1,41.03579,14.509Z"/><path class="k" d="M46.61782,11.16722a.14273.14273,0,0,1,.042.10743v1.57226a1.759,1.759,0,0,1-.24023.92676,1.61781,1.61781,0,0,1-.65332.61523,1.89989,1.89989,0,0,1-.918.21h-.57618a1.8045,1.8045,0,0,1-.83984-.18554,1.329,1.329,0,0,1-.54883-.50391,1.34971,1.34971,0,0,1-.18945-.70215V11.27465a.138.138,0,0,1,.04492-.10743.1565.1565,0,0,1,.11133-.042h.62988a.14382.14382,0,0,1,.15039.14942l.00586,1.44042a.55465.55465,0,0,0,.45606-.249,1.22539,1.22539,0,0,0,.13183-.62695v-.55176a.15824.15824,0,0,1,.04493-.11719.14942.14942,0,0,1,.11132-.04492h.623a.14011.14011,0,0,1,.10547.04785.16089.16089,0,0,1,.04492.11426v.56348a1.56425,1.56425,0,0,1-.35351,1.08008,1.49065,1.49065,0,0,1-1.002.46191.76774.76774,0,0,0,.30274.29394.85909.85909,0,0,0,.417.10254h.13769a1.19222,1.19222,0,0,0,.55176-.126.95756.95756,0,0,0,.38477-.34864.92306.92306,0,0,0,.13769-.498v-1.542a.14273.14273,0,0,1,.042-.10743.145.145,0,0,1,.1084-.042h.62989A.14272.14272,0,0,1,46.61782,11.16722Z"/><path class="k" d="M48.77211,14.58715a.18048.18048,0,0,1-.04785-.12012v-.60645a.18718.18718,0,0,1,.042-.11328.23572.23572,0,0,1,.10839-.07812l.18555-.07813a.88226.88226,0,0,0,.60059-.92969A.78969.78969,0,0,0,49.525,12.133a.6506.6506,0,0,0-.49414-.15039H47.43422a.155.155,0,0,1-.15625-.15527v-.55859a.129.129,0,0,1,.04883-.10157.15545.15545,0,0,1,.10742-.042h1.80664a1.45818,1.45818,0,0,1,1.12208.375,1.633,1.633,0,0,1,.34179,1.13086,1.7662,1.7662,0,0,1-.45019,1.248,2.3851,2.3851,0,0,1-1.12793.67773l-.2461.07227A.1108.1108,0,0,1,48.77211,14.58715Zm-1.44824,1.06738a.13879.13879,0,0,1-.0459-.10742V12.64867a.13876.13876,0,0,1,.0459-.10742.15258.15258,0,0,1,.11035-.042h.68457a.14377.14377,0,0,1,.14942.14942v2.89844a.14529.14529,0,0,1-.14942.15039h-.68457A.15333.15333,0,0,1,47.32387,15.65453Z"/><path class="k" d="M54.46938,11.48168a1.38687,1.38687,0,0,1,.417,1.11328v1.80566a.14915.14915,0,0,1-.042.10547.14152.14152,0,0,1-.1084.04492h-.708a.15417.15417,0,0,1-.11035-.042.14009.14009,0,0,1-.04492-.1084V12.62523a.60276.60276,0,0,0-.67871-.68457h-.38965a3.68123,3.68123,0,0,0-.08984.88281l.04785,1.57715a.14009.14009,0,0,1-.04492.1084.15651.15651,0,0,1-.11133.042l-1.27149-.00586a.15647.15647,0,0,1-.11132-.042.14149.14149,0,0,1-.04493-.1084v-.47363a.14149.14149,0,0,1,.04493-.1084.16083.16083,0,0,1,.11132-.042H51.82v-.94141a3.24293,3.24293,0,0,1,.09082-.88867h-.3545a.15647.15647,0,0,1-.11132-.042A.14136.14136,0,0,1,51.4,11.79125v-.5166a.14137.14137,0,0,1,.04493-.10743.15647.15647,0,0,1,.11132-.042h1.67383A1.86685,1.86685,0,0,1,54.46938,11.48168Z"/><path class="k" d="M56.84536,13.08715a.14151.14151,0,0,1-.04492-.1084v-1.7041a.138.138,0,0,1,.04492-.10743.15648.15648,0,0,1,.11133-.042h.75a.14376.14376,0,0,1,.14941.14942v1.7041a.14916.14916,0,0,1-.042.10547.138.138,0,0,1-.10742.04492h-.75A.15648.15648,0,0,1,56.84536,13.08715Z"/><path class="k" d="M58.54946,14.509a.14009.14009,0,0,1-.04492-.1084v-.55176a.15345.15345,0,0,1,.15527-.15625h.87012a.63912.63912,0,0,0,.7207-.67773c.00391-.04785.00586-.10742.00586-.17969,0-.06836-.002-.126-.00586-.17383a.63983.63983,0,0,0-.7207-.67871h-.87012a.15341.15341,0,0,1-.15527-.15527v-.55273a.138.138,0,0,1,.04492-.10743.15255.15255,0,0,1,.11035-.042h.90039a1.4585,1.4585,0,0,1,1.66211,1.542c.00391.04395.00586.09961.00586.168a1.8633,1.8633,0,0,1-.39258,1.26563,1.61434,1.61434,0,0,1-1.27539.45019h-.90039A.15255.15255,0,0,1,58.54946,14.509Z"/><path class="k" d="M63.42251,14.509a.14007.14007,0,0,1-.04493-.1084V12.62523a.60276.60276,0,0,0-.67871-.68457h-.91211a.14205.14205,0,0,1-.10449-.04492.14052.14052,0,0,1-.04492-.10449v-.5166a.138.138,0,0,1,.04492-.10743.14687.14687,0,0,1,.10449-.042H62.735a1.9193,1.9193,0,0,1,1.24511.3418,1.37977,1.37977,0,0,1,.41114,1.12207v1.81152a.15345.15345,0,0,1-.042.10547.14152.14152,0,0,1-.1084.04492h-.708A.15254.15254,0,0,1,63.42251,14.509Z"/><path class="k" d="M67.74477,11.16722a.1465.1465,0,0,1,.042.10743v.5166a.14942.14942,0,0,1-.042.10449.14152.14152,0,0,1-.1084.04492H67.361a.89339.89339,0,0,0-.11133.30664,2.1143,2.1143,0,0,0-.03906.42578v1.7461a.11348.11348,0,0,1-.05664.09277.20294.20294,0,0,1-.11719.03906h-.70215a.12421.12421,0,0,1-.13183-.13183v-1.8125a1.29628,1.29628,0,0,1,.12012-.666H64.95473a.15351.15351,0,0,1-.15039-.14941v-.5166a.1414.1414,0,0,1,.04492-.10743.14916.14916,0,0,1,.10547-.042h2.68164A.14644.14644,0,0,1,67.74477,11.16722Z"/><path class="k" d="M15.54262,23.509a.14086.14086,0,0,1-.0459-.1084v-3.126a.1388.1388,0,0,1,.0459-.10743.15257.15257,0,0,1,.11035-.042h1.36231a1.82194,1.82194,0,0,1,1.21484.34473,1.41744,1.41744,0,0,1,.39942,1.125v1.7998a.15482.15482,0,0,1-.04493.11133.151.151,0,0,1-.11132.04492H15.653A.15257.15257,0,0,1,15.54262,23.509Zm2.12012-.77441V21.62523a.60208.60208,0,0,0-.67773-.68457h-.57618v1.79395Z"/><path class="k" d="M19.35219,23.509a.14086.14086,0,0,1-.0459-.1084v-3.126a.1388.1388,0,0,1,.0459-.10743.15257.15257,0,0,1,.11035-.042h.75a.14384.14384,0,0,1,.1504.14942v3.126a.15345.15345,0,0,1-.042.10547.14152.14152,0,0,1-.1084.04492h-.75A.15257.15257,0,0,1,19.35219,23.509Z"/><path class="k" d="M22.74282,23.509a.14006.14006,0,0,1-.04492-.1084V21.62523a.60277.60277,0,0,0-.67871-.68457h-.91211a.14209.14209,0,0,1-.1045-.04492.14052.14052,0,0,1-.04492-.10449v-.5166a.138.138,0,0,1,.04492-.10743.14691.14691,0,0,1,.1045-.042h.94824a1.91935,1.91935,0,0,1,1.24512.3418,1.3798,1.3798,0,0,1,.41113,1.12207v1.81152a.15349.15349,0,0,1-.042.10547.14153.14153,0,0,1-.1084.04492h-.708A.15254.15254,0,0,1,22.74282,23.509Z"/><path class="k" d="M24.40981,22.08715a.14155.14155,0,0,1-.04492-.1084v-1.7041a.138.138,0,0,1,.04492-.10743.15648.15648,0,0,1,.11133-.042h.75a.14376.14376,0,0,1,.14941.14942v1.7041a.14916.14916,0,0,1-.042.10547.138.138,0,0,1-.10742.04492h-.75A.15648.15648,0,0,1,24.40981,22.08715Z"/><path class="k" d="M26.15,23.509a.14086.14086,0,0,1-.04589-.1084v-3.126a.13879.13879,0,0,1,.04589-.10743.15258.15258,0,0,1,.11036-.042h1.416a1.888,1.888,0,0,1,1.25684.35059,1.45514,1.45514,0,0,1,.40527,1.15527v1.76953a.14915.14915,0,0,1-.042.10547.13942.13942,0,0,1-.10742.04492h-.708a.15488.15488,0,0,1-.11133-.042.14009.14009,0,0,1-.04492-.1084V21.62523a.60247.60247,0,0,0-.67774-.68457h-.52832v2.46a.15344.15344,0,0,1-.042.10547.14152.14152,0,0,1-.1084.04492h-.708A.15258.15258,0,0,1,26.15,23.509Z"/><path class="k" d="M34.46547,20.48168a1.38688,1.38688,0,0,1,.417,1.11328v1.80566a.14916.14916,0,0,1-.042.10547.14151.14151,0,0,1-.10839.04492h-.708a.15413.15413,0,0,1-.11035-.042.14007.14007,0,0,1-.04493-.1084V21.62523a.60276.60276,0,0,0-.67871-.68457h-.38964a3.68173,3.68173,0,0,0-.08985.88281l.04785,1.57715a.14009.14009,0,0,1-.04492.1084.15648.15648,0,0,1-.11133.042l-1.27148-.00586a.15648.15648,0,0,1-.11133-.042.14152.14152,0,0,1-.04492-.1084v-.47363a.14152.14152,0,0,1,.04492-.1084.16084.16084,0,0,1,.11133-.042h.48535v-.94141a3.24332,3.24332,0,0,1,.09082-.88867h-.35449a.15648.15648,0,0,1-.11133-.042.14135.14135,0,0,1-.04492-.10742v-.5166a.14136.14136,0,0,1,.04492-.10743.15648.15648,0,0,1,.11133-.042h1.67383A1.86682,1.86682,0,0,1,34.46547,20.48168Z"/><path class="k" d="M35.6061,23.509a.14086.14086,0,0,1-.0459-.1084v-3.126a.1388.1388,0,0,1,.0459-.10743.15257.15257,0,0,1,.11035-.042h.75a.14382.14382,0,0,1,.15039.14942v3.126a.15349.15349,0,0,1-.042.10547.14152.14152,0,0,1-.1084.04492h-.75A.15257.15257,0,0,1,35.6061,23.509Z"/><path class="k" d="M40.42153,20.16722a.1465.1465,0,0,1,.042.10743V22.051a1.307,1.307,0,0,1-.41406.98731,2.20475,2.20475,0,0,1-1.16406.52441l-1.53614.32422a.13748.13748,0,0,1-.11718-.03027.131.131,0,0,1-.05079-.10743v-.52246a.15108.15108,0,0,1,.03907-.10449.17568.17568,0,0,1,.09863-.05762l.666-.16211-.708-2.5371a.79908.79908,0,0,1-.0293-.12012.12173.12173,0,0,1,.12012-.12012h.77929a.14634.14634,0,0,1,.08985.02637.13671.13671,0,0,1,.04883.06347l.59961,2.45411a.82907.82907,0,0,0,.44433-.33887,1.19506,1.19506,0,0,0,.11914-.5791V20.27465a.14382.14382,0,0,1,.15039-.14942h.71387A.14644.14644,0,0,1,40.42153,20.16722Z"/><path class="k" d="M44.99868,20.16722a.14273.14273,0,0,1,.042.10743v1.57226a1.759,1.759,0,0,1-.24023.92676,1.61777,1.61777,0,0,1-.65333.61523,1.89983,1.89983,0,0,1-.918.21H42.653a1.80447,1.80447,0,0,1-.83984-.18554,1.329,1.329,0,0,1-.54883-.50391,1.34971,1.34971,0,0,1-.18945-.70215V20.27465a.138.138,0,0,1,.04492-.10743.15648.15648,0,0,1,.11133-.042H41.861a.14382.14382,0,0,1,.15039.14942l.00586,1.44042a.55465.55465,0,0,0,.45606-.249,1.22539,1.22539,0,0,0,.13183-.627v-.55176a.15828.15828,0,0,1,.04492-.11719.14946.14946,0,0,1,.11133-.04492h.623a.14013.14013,0,0,1,.10547.04785.16089.16089,0,0,1,.04492.11426v.56348a1.5642,1.5642,0,0,1-.35352,1.08008,1.49061,1.49061,0,0,1-1.00195.46191.76774.76774,0,0,0,.30274.29394.85909.85909,0,0,0,.417.10254h.13769a1.19225,1.19225,0,0,0,.55176-.126.95756.95756,0,0,0,.38477-.34864.92306.92306,0,0,0,.13769-.498v-1.542a.14273.14273,0,0,1,.042-.10743.14494.14494,0,0,1,.1084-.042h.62989A.14272.14272,0,0,1,44.99868,20.16722Z"/><path class="k" d="M45.5895,23.50609a.14414.14414,0,0,1-.04492-.10547V22.885a.14148.14148,0,0,1,.04492-.1084.15109.15109,0,0,1,.10449-.042h1.50684V21.62523a.59947.59947,0,0,0-.67872-.67773h-.76757a.14232.14232,0,0,1-.1084-.0459.1567.1567,0,0,1-.042-.11035v-.5166a.14136.14136,0,0,1,.04492-.10743.14915.14915,0,0,1,.10547-.042h.79785a1.957,1.957,0,0,1,1.26855.35352,1.40477,1.40477,0,0,1,.42969,1.14648v1.10938h.21A.14384.14384,0,0,1,48.61,22.885v.51562a.14916.14916,0,0,1-.042.10547.138.138,0,0,1-.10742.04492H45.694A.14205.14205,0,0,1,45.5895,23.50609Z"/><path class="k" d="M50.36586,22.08715a.14155.14155,0,0,1-.04492-.1084v-1.7041a.138.138,0,0,1,.04492-.10743.15651.15651,0,0,1,.11133-.042h.75a.14377.14377,0,0,1,.14942.14942v1.7041a.14913.14913,0,0,1-.042.10547.138.138,0,0,1-.10742.04492h-.75A.15651.15651,0,0,1,50.36586,22.08715Z"/><path class="k" d="M55.2643,23.425a.12691.12691,0,0,1-.03515.08691.11833.11833,0,0,1-.09082.03906H54.401a.20147.20147,0,0,1-.16211-.05664c-.03222-.03808-.0498-.05957-.05469-.06347l-1.0498-1.51758a.67831.67831,0,0,0-.2041.33008,1.61334,1.61334,0,0,0-.04785.3955v.75a.15823.15823,0,0,1-.04493.11719.14942.14942,0,0,1-.11132.04492h-.58789a.13811.13811,0,0,1-.1045-.04785.16088.16088,0,0,1-.04492-.11426v-.74414a2.11,2.11,0,0,1,.1377-.82812,1.52319,1.52319,0,0,1,.52246-.59961l-.61231-.88184a.12522.12522,0,0,1-.03027-.084.11765.11765,0,0,1,.03906-.08692.11922.11922,0,0,1,.08692-.03906h.708a.197.197,0,0,1,.12891.03613.419.419,0,0,1,.08691.09571l.9668,1.36816a.533.533,0,0,0,.21289-.26465,1.17413,1.17413,0,0,0,.04492-.34179v-.73145a.16437.16437,0,0,1,.042-.11719.138.138,0,0,1,.10742-.04492h.62988a.145.145,0,0,1,.11133.04785.16089.16089,0,0,1,.04492.11426v.75586a1.58559,1.58559,0,0,1-.15234.69922,1.43736,1.43736,0,0,1-.55567.5664l.73242,1.03223A.15085.15085,0,0,1,55.2643,23.425Z"/><path class="k" d="M55.94008,23.509a.14086.14086,0,0,1-.04589-.1084v-3.126a.13879.13879,0,0,1,.04589-.10743.15258.15258,0,0,1,.11036-.042h.75a.14384.14384,0,0,1,.15039.14942v3.126a.15345.15345,0,0,1-.042.10547.14151.14151,0,0,1-.10839.04492h-.75A.15258.15258,0,0,1,55.94008,23.509Z"/><path class="k" d="M58.444,21.19261c.00879.16407.05664.26075.14453.28809l.168.06055a.14175.14175,0,0,1,.0752.06836.23993.23993,0,0,1,.02636.11132l.00586.30567a.15784.15784,0,0,1-.081.1416.2951.2951,0,0,1-.19434.03906l-.24609-.03613a.76476.76476,0,0,1-.51563-.333,1.19617,1.19617,0,0,1-.2041-.7168v-.84667a.20125.20125,0,0,1,.05078-.10743.12641.12641,0,0,1,.09863-.042H58.984a1.55185,1.55185,0,0,1,1.17285.4043,1.70842,1.70842,0,0,1,.42383,1.13769c.0039.04.00586.09571.00586.168a1.89407,1.89407,0,0,1-.38379,1.2627A1.51411,1.51411,0,0,1,58.984,23.551H57.84438a.15651.15651,0,0,1-.11133-.042.14353.14353,0,0,1-.04492-.1084v-.55176a.15347.15347,0,0,1,.15625-.15625h1.11035a.71874.71874,0,0,0,.501-.17675.7014.7014,0,0,0,.21289-.501c.00391-.04.00586-.09961.00586-.17969,0-.07617-.002-.13379-.00586-.17383a.67887.67887,0,0,0-.207-.501.72425.72425,0,0,0-.50684-.17774H58.444Z"/><path class="k" d="M62.79848,23.509a.14009.14009,0,0,1-.04492-.1084V21.62523a.60276.60276,0,0,0-.67871-.68457h-.91211a.14205.14205,0,0,1-.10449-.04492.14048.14048,0,0,1-.04492-.10449v-.5166a.138.138,0,0,1,.04492-.10743.14687.14687,0,0,1,.10449-.042H62.111a1.91931,1.91931,0,0,1,1.24512.3418,1.3798,1.3798,0,0,1,.41113,1.12207v1.81152a.15349.15349,0,0,1-.042.10547.14152.14152,0,0,1-.1084.04492h-.708A.15257.15257,0,0,1,62.79848,23.509Z"/><path class="k" d="M66.68813,23.509a.14878.14878,0,0,1-.042-.1084V21.62523a.60208.60208,0,0,0-.67774-.68457H64.60024a.15255.15255,0,0,1-.11035-.042.13876.13876,0,0,1-.0459-.10742v-.5166a.13876.13876,0,0,1,.0459-.10743.15255.15255,0,0,1,.11035-.042h1.39844a1.84047,1.84047,0,0,1,1.24511.36621,1.44039,1.44039,0,0,1,.417,1.13965v1.76953a.1435.1435,0,0,1-.04493.1084.15647.15647,0,0,1-.11132.042h-.708A.14644.14644,0,0,1,66.68813,23.509Zm-2.19824,0a.14083.14083,0,0,1-.0459-.1084v-1.752a.13873.13873,0,0,1,.0459-.10742.15256.15256,0,0,1,.11035-.042h.708a.14384.14384,0,0,1,.15039.14942v1.752a.15349.15349,0,0,1-.042.10547.14153.14153,0,0,1-.1084.04492h-.708A.15255.15255,0,0,1,64.48989,23.509Z"/><rect class="l" x="28.5543" width="14.03841" height="5.61702"/></svg>