<svg xmlns="http://www.w3.org/2000/svg" viewBox="0 0 47.06396 68.1596"><defs><style>.a{fill:#d6dfe5;}.b{fill:#b4c2cc;}.c{fill:#2fac66;}.d{fill:none;stroke:#fff;stroke-miterlimit:10;stroke-width:2.66726px;}.e{fill:#2d2a28;}.f{fill:#a2b4bc;}.g{fill:#fff;opacity:0.5;}</style></defs><rect class="a" x="0.2496" y="2.55868" width="46.56445" height="65.35107"/><path class="b" d="M46.56393,2.80851V67.65957H.5V2.80851h46.064m.5-.5H0V68.15957h47.064V2.30851Z"/><circle class="c" cx="23.53194" cy="19.30619" r="8.65125"/><polyline class="d" points="17.985 16.415 26.497 16.415 26.497 24.445"/><path class="e" d="M15.402,35.6827a.12688.12688,0,0,1-.03516.08692.11832.11832,0,0,1-.09082.03906h-.73731a.20143.20143,0,0,1-.1621-.05664c-.03223-.03809-.04981-.05957-.05469-.06348L13.27206,34.171a.67847.67847,0,0,0-.2041.33007,1.61348,1.61348,0,0,0-.04785.39551v.75a.15826.15826,0,0,1-.04492.11719.14946.14946,0,0,1-.11133.04492H12.276a.13808.13808,0,0,1-.10449-.04785.16083.16083,0,0,1-.04492-.11426v-.74414a2.11,2.11,0,0,1,.13769-.82812,1.52335,1.52335,0,0,1,.52246-.59961l-.6123-.88184a.12518.12518,0,0,1-.03028-.084.11762.11762,0,0,1,.03907-.08692.11919.11919,0,0,1,.08691-.03906h.708a.197.197,0,0,1,.1289.03613.419.419,0,0,1,.08692.09571l.96679,1.36816a.53312.53312,0,0,0,.2129-.26465,1.17449,1.17449,0,0,0,.04492-.3418V32.545a.16437.16437,0,0,1,.042-.11719.138.138,0,0,1,.10742-.04492h.62988a.14494.14494,0,0,1,.11133.04785.16083.16083,0,0,1,.04492.11426v.75586a1.58559,1.58559,0,0,1-.15234.69922,1.43739,1.43739,0,0,1-.55566.5664l.73242,1.03223A.1509.1509,0,0,1,15.402,35.6827Z"/><path class="e" d="M16.818,33.45028c.00879.16407.05664.26075.14453.28809l.168.06055a.14171.14171,0,0,1,.0752.06836.23988.23988,0,0,1,.02636.11132l.00586.30567a.15783.15783,0,0,1-.08105.1416.2951.2951,0,0,1-.19434.03906l-.24609-.03613a.76478.76478,0,0,1-.51563-.333,1.19624,1.19624,0,0,1-.2041-.7168v-.84668a.20132.20132,0,0,1,.05078-.10742.12642.12642,0,0,1,.09864-.042H17.358a1.55185,1.55185,0,0,1,1.17285.4043,1.70835,1.70835,0,0,1,.42383,1.13769c.00391.04.00586.09571.00586.168a1.89407,1.89407,0,0,1-.38379,1.2627,1.51414,1.51414,0,0,1-1.21875.45312H16.21835a.15651.15651,0,0,1-.11133-.042.14353.14353,0,0,1-.04492-.1084v-.55176a.15346.15346,0,0,1,.15625-.15625H17.3287a.71874.71874,0,0,0,.501-.17675.70136.70136,0,0,0,.21289-.501c.00391-.04.00586-.09961.00586-.17969,0-.07617-.002-.13379-.00586-.17383a.67887.67887,0,0,0-.207-.501.72425.72425,0,0,0-.50684-.17774H16.818Z"/><path class="e" d="M19.59335,35.76669a.14086.14086,0,0,1-.0459-.1084v-3.126a.13879.13879,0,0,1,.0459-.10742.15257.15257,0,0,1,.11035-.042h.75a.14382.14382,0,0,1,.15039.14941v3.126a.15344.15344,0,0,1-.042.10547.14152.14152,0,0,1-.1084.04492h-.75A.15257.15257,0,0,1,19.59335,35.76669Z"/><path class="e" d="M22.984,35.76669a.14006.14006,0,0,1-.04492-.1084V33.8829a.60277.60277,0,0,0-.67872-.68457h-.91211a.14208.14208,0,0,1-.10449-.04492.14054.14054,0,0,1-.04492-.10449v-.51661a.138.138,0,0,1,.04492-.10742.14691.14691,0,0,1,.10449-.042h.94825a1.9193,1.9193,0,0,1,1.24511.3418,1.37977,1.37977,0,0,1,.41114,1.12207v1.81152a.15345.15345,0,0,1-.042.10547.14151.14151,0,0,1-.10839.04492h-.708A.15254.15254,0,0,1,22.984,35.76669Z"/><path class="e" d="M24.67538,35.76669a.14086.14086,0,0,1-.0459-.1084v-3.126a.13879.13879,0,0,1,.0459-.10742.15257.15257,0,0,1,.11035-.042h.75a.14384.14384,0,0,1,.1504.14941v3.126a.15345.15345,0,0,1-.042.10547.14152.14152,0,0,1-.1084.04492h-.75A.15257.15257,0,0,1,24.67538,35.76669Z"/><path class="e" d="M27.8873,35.84481a.18044.18044,0,0,1-.04785-.12011v-.60645a.18716.18716,0,0,1,.042-.11328.23569.23569,0,0,1,.1084-.07812l.18554-.07813A.88226.88226,0,0,0,28.776,33.919a.7897.7897,0,0,0-.13574-.52832.65063.65063,0,0,0-.49414-.15039H26.54941a.155.155,0,0,1-.15625-.15527v-.5586a.129.129,0,0,1,.04882-.10156.15546.15546,0,0,1,.10743-.042h1.80664a1.45817,1.45817,0,0,1,1.12207.375,1.633,1.633,0,0,1,.34179,1.13086,1.7662,1.7662,0,0,1-.45019,1.248,2.3851,2.3851,0,0,1-1.12793.67773l-.24609.07227A.11078.11078,0,0,1,27.8873,35.84481ZM26.43906,36.9122a.13876.13876,0,0,1-.0459-.10742V33.90634a.13873.13873,0,0,1,.0459-.10742.15254.15254,0,0,1,.11035-.042H27.234a.14377.14377,0,0,1,.14941.14942v2.89844a.14529.14529,0,0,1-.14941.15039h-.68457A.1533.1533,0,0,1,26.43906,36.9122Z"/><path class="e" d="M30.41659,34.34481a.14151.14151,0,0,1-.04492-.10839V32.53231a.138.138,0,0,1,.04492-.10742.15651.15651,0,0,1,.11133-.042h.75a.14377.14377,0,0,1,.14942.14941v1.70411a.14915.14915,0,0,1-.042.10546.138.138,0,0,1-.10742.04493h-.75A.15652.15652,0,0,1,30.41659,34.34481Z"/><path class="e" d="M32.04355,35.76376a.14414.14414,0,0,1-.04492-.10547v-.51562a.14148.14148,0,0,1,.04492-.1084.15109.15109,0,0,1,.10449-.042h1.50684V33.8829a.59947.59947,0,0,0-.67872-.67773h-.76757a.14232.14232,0,0,1-.1084-.0459.1567.1567,0,0,1-.042-.11035v-.51661a.14135.14135,0,0,1,.04492-.10742.14915.14915,0,0,1,.10547-.042h.79785a1.95691,1.95691,0,0,1,1.26855.35352,1.40477,1.40477,0,0,1,.42969,1.14648v1.10938h.21a.14384.14384,0,0,1,.14942.15039v.51562a.14916.14916,0,0,1-.042.10547.138.138,0,0,1-.10742.04492H32.148A.14205.14205,0,0,1,32.04355,35.76376Z"/><rect class="f" x="8.21279" y="41.04281" width="30.12766" height="2.04349" rx="1.02175"/><rect class="f" x="8.21279" y="45.71816" width="30.12766" height="2.04349" rx="1.02175"/><rect class="f" x="8.21279" y="50.39351" width="30.12766" height="2.04349" rx="1.02175"/><rect class="f" x="8.21279" y="55.06886" width="30.12766" height="2.04349" rx="1.02175"/><rect class="f" x="21.55322" y="59.74421" width="16.78723" height="2.04349" rx="1.02175"/><rect class="g" x="16.51273" width="14.03841" height="5.61702"/></svg>