<svg xmlns="http://www.w3.org/2000/svg" viewBox="0 0 74.42468 57.05318"><defs><style>.a,.e{fill:#fff;}.b{fill:#dadada;}.c{fill:#d6dfe5;}.d{fill:#2d2a28;}.e{opacity:0.5;}</style></defs><rect class="a" x="0.24997" y="2.55834" width="73.9248" height="54.24463"/><path class="b" d="M73.92465,2.8085V56.55319H.50009V2.8085H73.92465m.5-.5H.00009V57.05319H74.42465V2.3085Z"/><rect class="c" x="7.21863" y="32.29787" width="59.98743" height="2.55319" rx="1.1819"/><rect class="c" x="7.21863" y="38.68085" width="59.98743" height="2.55319" rx="1.1819"/><rect class="c" x="41.94881" y="45.06383" width="25.25725" height="2.55319" rx="1.27659"/><path class="d" d="M11.28122,11.48168a1.38687,1.38687,0,0,1,.417,1.11328v1.80566a.14915.14915,0,0,1-.042.10547.14152.14152,0,0,1-.1084.04492h-.708a.15415.15415,0,0,1-.11035-.042.14009.14009,0,0,1-.04492-.1084V12.62523a.60276.60276,0,0,0-.67871-.68457H9.61618a3.68123,3.68123,0,0,0-.08984.88281l.04785,1.57715a.14009.14009,0,0,1-.04492.1084.15651.15651,0,0,1-.11133.042l-1.27149-.00586a.15651.15651,0,0,1-.11133-.042.14152.14152,0,0,1-.04492-.1084v-.47363a.14152.14152,0,0,1,.04492-.1084.16087.16087,0,0,1,.11133-.042H8.6318v-.94141a3.24371,3.24371,0,0,1,.09082-.88867H8.36813a.15651.15651,0,0,1-.11133-.042.14139.14139,0,0,1-.04492-.10742v-.5166a.1414.1414,0,0,1,.04492-.10743.15651.15651,0,0,1,.11133-.042H10.042A1.86685,1.86685,0,0,1,11.28122,11.48168Z"/><path class="d" d="M12.42184,14.509a.14086.14086,0,0,1-.0459-.1084v-3.126a.1388.1388,0,0,1,.0459-.10743.15257.15257,0,0,1,.11035-.042h.75a.14384.14384,0,0,1,.1504.14942v3.126a.15345.15345,0,0,1-.042.10547.14152.14152,0,0,1-.1084.04492h-.75A.15257.15257,0,0,1,12.42184,14.509Z"/><path class="d" d="M14.18552,14.509a.14083.14083,0,0,1-.0459-.1084v-3.126a.13876.13876,0,0,1,.0459-.10743.15254.15254,0,0,1,.11035-.042h.75a.14382.14382,0,0,1,.15039.14942v3.126a.15349.15349,0,0,1-.042.10547.14155.14155,0,0,1-.1084.04492h-.75A.15254.15254,0,0,1,14.18552,14.509Z"/><path class="d" d="M18.622,12.53246a1.47791,1.47791,0,0,1-.52832.543l.46777.6416a.67745.67745,0,0,1,.05762.08984.24955.24955,0,0,1,.02051.1084v.48535a.14916.14916,0,0,1-.042.10547.13941.13941,0,0,1-.10742.04492H16.05368a.14051.14051,0,0,1-.10449-.04492.14517.14517,0,0,1-.0459-.10547v-.5332a.14228.14228,0,0,1,.0459-.1084.14525.14525,0,0,1,.10449-.042h1.41016l-1.7461-2.376a.20243.20243,0,0,1-.03613-.0957.10632.10632,0,0,1,.03906-.08692.137.137,0,0,1,.09277-.0332h.74415a.22213.22213,0,0,1,.19238.10742l.83984,1.15235a.94943.94943,0,0,0,.27637-.76172v-.33594a.15828.15828,0,0,1,.04492-.11719.14728.14728,0,0,1,.11035-.04492h.62989a.14011.14011,0,0,1,.10546.04785.16086.16086,0,0,1,.04493.11426V11.803A1.48724,1.48724,0,0,1,18.622,12.53246Z"/><path class="d" d="M21.68747,14.509a.14874.14874,0,0,1-.042-.1084V12.62523a.60208.60208,0,0,0-.67774-.68457H19.59958a.15254.15254,0,0,1-.11035-.042.13876.13876,0,0,1-.0459-.10742v-.5166a.13876.13876,0,0,1,.0459-.10743.15254.15254,0,0,1,.11035-.042H20.998a1.84049,1.84049,0,0,1,1.24511.36621,1.44039,1.44039,0,0,1,.417,1.13965v1.76953a.14349.14349,0,0,1-.04492.1084.15648.15648,0,0,1-.11133.042h-.708A.14644.14644,0,0,1,21.68747,14.509Zm-2.19824,0a.14083.14083,0,0,1-.0459-.1084v-1.752a.13873.13873,0,0,1,.0459-.10742.15254.15254,0,0,1,.11035-.042h.708a.14385.14385,0,0,1,.15039.14942v1.752a.15345.15345,0,0,1-.042.10547.14151.14151,0,0,1-.10839.04492h-.708A.15254.15254,0,0,1,19.48923,14.509Z"/><path class="d" d="M24.63766,14.509a.14086.14086,0,0,1-.04589-.1084v-3.126a.13879.13879,0,0,1,.04589-.10743.15258.15258,0,0,1,.11036-.042h1.3623a1.82193,1.82193,0,0,1,1.21484.34473,1.41744,1.41744,0,0,1,.39942,1.125v1.7998a.15486.15486,0,0,1-.04492.11133.151.151,0,0,1-.11133.04492H24.748A.15258.15258,0,0,1,24.63766,14.509Zm2.12012-.77441V12.62523a.60208.60208,0,0,0-.67773-.68457h-.57618v1.794Z"/><path class="d" d="M31.498,11.16722a.1465.1465,0,0,1,.042.10743V13.051a1.307,1.307,0,0,1-.41407.98731,2.20471,2.20471,0,0,1-1.16406.52441l-1.53613.32422a.1375.1375,0,0,1-.11719-.03027.131.131,0,0,1-.05078-.10743v-.52246a.15112.15112,0,0,1,.03906-.10449.17574.17574,0,0,1,.09864-.05762l.666-.16211-.708-2.5371a.79837.79837,0,0,1-.02929-.12012.12171.12171,0,0,1,.12011-.12012h.7793a.14631.14631,0,0,1,.08984.02637.13665.13665,0,0,1,.04883.06347l.59961,2.45411a.8291.8291,0,0,0,.44434-.33887,1.19506,1.19506,0,0,0,.11914-.5791V11.27465a.14382.14382,0,0,1,.15039-.14942h.71387A.14647.14647,0,0,1,31.498,11.16722Z"/><path class="d" d="M36.6611,11.48168a1.38687,1.38687,0,0,1,.417,1.11328v1.80566a.14915.14915,0,0,1-.042.10547.14152.14152,0,0,1-.1084.04492h-.708a.15417.15417,0,0,1-.11035-.042.14009.14009,0,0,1-.04492-.1084V12.62523a.60276.60276,0,0,0-.67871-.68457h-.38965a3.68174,3.68174,0,0,0-.08984.88281l.04785,1.57715a.14009.14009,0,0,1-.04492.1084.1565.1565,0,0,1-.11133.042l-1.27148-.00586a.15648.15648,0,0,1-.11133-.042.14148.14148,0,0,1-.04492-.1084v-.47363a.14148.14148,0,0,1,.04492-.1084.16084.16084,0,0,1,.11133-.042h.48535v-.94141a3.24293,3.24293,0,0,1,.09082-.88867H33.748a.15648.15648,0,0,1-.11133-.042.14135.14135,0,0,1-.04492-.10742v-.5166a.14136.14136,0,0,1,.04492-.10743.15648.15648,0,0,1,.11133-.042h1.67382A1.86685,1.86685,0,0,1,36.6611,11.48168Z"/><path class="d" d="M39.34274,14.509a.14009.14009,0,0,1-.04492-.1084V12.62523a.60276.60276,0,0,0-.67871-.68457H37.707a.14205.14205,0,0,1-.10449-.04492.14048.14048,0,0,1-.04492-.10449v-.5166a.138.138,0,0,1,.04492-.10743.14687.14687,0,0,1,.10449-.042h.94824a1.91933,1.91933,0,0,1,1.24512.3418,1.3798,1.3798,0,0,1,.41113,1.12207v1.81152a.15349.15349,0,0,1-.042.10547.14152.14152,0,0,1-.1084.04492h-.708A.15257.15257,0,0,1,39.34274,14.509Z"/><path class="d" d="M41.03512,14.509a.14086.14086,0,0,1-.04589-.1084v-3.126a.13879.13879,0,0,1,.04589-.10743.15258.15258,0,0,1,.11036-.042h.75a.14384.14384,0,0,1,.15039.14942v3.126a.15345.15345,0,0,1-.042.10547.14151.14151,0,0,1-.10839.04492h-.75A.15258.15258,0,0,1,41.03512,14.509Z"/><path class="d" d="M46.61716,11.16722a.14273.14273,0,0,1,.042.10743v1.57226a1.75889,1.75889,0,0,1-.24024.92676,1.61781,1.61781,0,0,1-.65332.61523,1.89984,1.89984,0,0,1-.918.21h-.57617a1.80447,1.80447,0,0,1-.83984-.18554,1.32891,1.32891,0,0,1-.54883-.50391,1.34962,1.34962,0,0,1-.18945-.70215V11.27465a.138.138,0,0,1,.04492-.10743.15648.15648,0,0,1,.11133-.042h.62988a.14382.14382,0,0,1,.15039.14942l.00586,1.44042a.55465.55465,0,0,0,.45606-.249,1.22539,1.22539,0,0,0,.13183-.62695v-.55176a.15828.15828,0,0,1,.04492-.11719.14946.14946,0,0,1,.11133-.04492h.623a.14013.14013,0,0,1,.10547.04785.16089.16089,0,0,1,.04492.11426v.56348a1.56425,1.56425,0,0,1-.35352,1.08008,1.49063,1.49063,0,0,1-1.002.46191.76778.76778,0,0,0,.30273.29394.85915.85915,0,0,0,.417.10254h.13769a1.19225,1.19225,0,0,0,.55176-.126.95756.95756,0,0,0,.38477-.34864.92306.92306,0,0,0,.13769-.498v-1.542a.14273.14273,0,0,1,.042-.10743.14494.14494,0,0,1,.1084-.042h.62988A.14273.14273,0,0,1,46.61716,11.16722Z"/><path class="d" d="M48.77145,14.58715a.18048.18048,0,0,1-.04785-.12012v-.60645a.18723.18723,0,0,1,.042-.11328.23574.23574,0,0,1,.1084-.07812l.18555-.07813a.88223.88223,0,0,0,.60058-.92969.7897.7897,0,0,0-.13574-.52832.6506.6506,0,0,0-.49414-.15039H47.43356a.155.155,0,0,1-.15625-.15527v-.55859a.129.129,0,0,1,.04883-.10157.15544.15544,0,0,1,.10742-.042H49.2402a1.45816,1.45816,0,0,1,1.12207.375,1.633,1.633,0,0,1,.3418,1.13086,1.76617,1.76617,0,0,1-.4502,1.248,2.385,2.385,0,0,1-1.12793.67773l-.24609.07227A.1108.1108,0,0,1,48.77145,14.58715Zm-1.44824,1.06738a.13879.13879,0,0,1-.0459-.10742V12.64867a.13876.13876,0,0,1,.0459-.10742.15258.15258,0,0,1,.11035-.042h.68457a.14379.14379,0,0,1,.14942.14942v2.89844a.14531.14531,0,0,1-.14942.15039h-.68457A.15333.15333,0,0,1,47.32321,15.65453Z"/><path class="d" d="M54.46872,11.48168a1.38687,1.38687,0,0,1,.417,1.11328v1.80566a.14915.14915,0,0,1-.042.10547.14152.14152,0,0,1-.1084.04492h-.708a.15415.15415,0,0,1-.11035-.042.14009.14009,0,0,1-.04492-.1084V12.62523a.60276.60276,0,0,0-.67871-.68457h-.38965a3.68123,3.68123,0,0,0-.08984.88281l.04785,1.57715a.14009.14009,0,0,1-.04492.1084.15651.15651,0,0,1-.11133.042L51.334,14.54515a.15651.15651,0,0,1-.11133-.042.14152.14152,0,0,1-.04492-.1084v-.47363a.14152.14152,0,0,1,.04492-.1084.16087.16087,0,0,1,.11133-.042h.48535v-.94141a3.24371,3.24371,0,0,1,.09082-.88867h-.35449a.15651.15651,0,0,1-.11133-.042.14139.14139,0,0,1-.04492-.10742v-.5166a.1414.1414,0,0,1,.04492-.10743.15651.15651,0,0,1,.11133-.042h1.67383A1.86685,1.86685,0,0,1,54.46872,11.48168Z"/><path class="d" d="M56.84469,13.08715a.14155.14155,0,0,1-.04492-.1084v-1.7041a.138.138,0,0,1,.04492-.10743.15651.15651,0,0,1,.11133-.042h.75a.14377.14377,0,0,1,.14942.14942v1.7041a.14913.14913,0,0,1-.042.10547.138.138,0,0,1-.10742.04492h-.75A.15651.15651,0,0,1,56.84469,13.08715Z"/><path class="d" d="M58.5488,14.509a.14007.14007,0,0,1-.04493-.1084v-.55176a.15346.15346,0,0,1,.15528-.15625h.87012a.63912.63912,0,0,0,.7207-.67773c.0039-.04785.00586-.10742.00586-.17969,0-.06836-.002-.126-.00586-.17383a.63983.63983,0,0,0-.7207-.67871h-.87012a.15342.15342,0,0,1-.15528-.15527v-.55273a.138.138,0,0,1,.04493-.10743.15254.15254,0,0,1,.11035-.042h.90039a1.4585,1.4585,0,0,1,1.66211,1.542c.0039.04395.00586.09961.00586.168a1.8633,1.8633,0,0,1-.39258,1.26563,1.61436,1.61436,0,0,1-1.27539.45019h-.90039A.15254.15254,0,0,1,58.5488,14.509Z"/><path class="d" d="M63.42184,14.509a.14009.14009,0,0,1-.04492-.1084V12.62523a.60276.60276,0,0,0-.67871-.68457H61.7861a.14205.14205,0,0,1-.10449-.04492.14052.14052,0,0,1-.04492-.10449v-.5166a.138.138,0,0,1,.04492-.10743.14687.14687,0,0,1,.10449-.042h.94824a1.91931,1.91931,0,0,1,1.24512.3418,1.3798,1.3798,0,0,1,.41113,1.12207v1.81152a.15349.15349,0,0,1-.042.10547.14152.14152,0,0,1-.1084.04492h-.708A.15257.15257,0,0,1,63.42184,14.509Z"/><path class="d" d="M67.74411,11.16722a.1465.1465,0,0,1,.042.10743v.5166a.14942.14942,0,0,1-.042.10449.14152.14152,0,0,1-.1084.04492h-.27539a.89339.89339,0,0,0-.11133.30664,2.11357,2.11357,0,0,0-.03906.42578v1.7461a.11348.11348,0,0,1-.05664.09277.20294.20294,0,0,1-.11719.03906H66.334a.12421.12421,0,0,1-.13183-.13183v-1.8125a1.29641,1.29641,0,0,1,.12011-.666H64.95407a.15351.15351,0,0,1-.15039-.14941v-.5166a.14136.14136,0,0,1,.04492-.10743.14915.14915,0,0,1,.10547-.042h2.68164A.14644.14644,0,0,1,67.74411,11.16722Z"/><path class="d" d="M15.542,23.509a.14086.14086,0,0,1-.0459-.1084v-3.126a.1388.1388,0,0,1,.0459-.10743.15257.15257,0,0,1,.11035-.042h1.36231a1.82194,1.82194,0,0,1,1.21484.34473,1.41744,1.41744,0,0,1,.39941,1.125v1.7998a.15482.15482,0,0,1-.04492.11133.151.151,0,0,1-.11133.04492H15.65231A.15257.15257,0,0,1,15.542,23.509Zm2.12012-.77441V21.62523a.60208.60208,0,0,0-.67774-.68457h-.57617v1.79395Z"/><path class="d" d="M19.35153,23.509a.14086.14086,0,0,1-.0459-.1084v-3.126a.1388.1388,0,0,1,.0459-.10743.15257.15257,0,0,1,.11035-.042h.75a.14382.14382,0,0,1,.15039.14942v3.126a.15349.15349,0,0,1-.042.10547.14152.14152,0,0,1-.1084.04492h-.75A.15257.15257,0,0,1,19.35153,23.509Z"/><path class="d" d="M22.74216,23.509a.14007.14007,0,0,1-.04493-.1084V21.62523a.60276.60276,0,0,0-.67871-.68457h-.91211a.14205.14205,0,0,1-.10449-.04492.14052.14052,0,0,1-.04492-.10449v-.5166a.138.138,0,0,1,.04492-.10743.14687.14687,0,0,1,.10449-.042h.94825a1.9193,1.9193,0,0,1,1.24511.3418,1.37977,1.37977,0,0,1,.41114,1.12207v1.81152a.15345.15345,0,0,1-.042.10547.14151.14151,0,0,1-.10839.04492h-.708A.15254.15254,0,0,1,22.74216,23.509Z"/><path class="d" d="M24.40915,22.08715a.14151.14151,0,0,1-.04492-.1084v-1.7041a.138.138,0,0,1,.04492-.10743.15648.15648,0,0,1,.11133-.042h.75a.14376.14376,0,0,1,.14941.14942v1.7041a.14916.14916,0,0,1-.042.10547.138.138,0,0,1-.10742.04492h-.75A.15648.15648,0,0,1,24.40915,22.08715Z"/><path class="d" d="M26.14938,23.509a.14086.14086,0,0,1-.0459-.1084v-3.126a.1388.1388,0,0,1,.0459-.10743.15257.15257,0,0,1,.11035-.042h1.416a1.888,1.888,0,0,1,1.25684.35059,1.45517,1.45517,0,0,1,.40527,1.15527v1.76953a.14915.14915,0,0,1-.042.10547.13943.13943,0,0,1-.10743.04492h-.708a.15488.15488,0,0,1-.11133-.042.14009.14009,0,0,1-.04492-.1084V21.62523a.60247.60247,0,0,0-.67774-.68457h-.52832v2.46a.15349.15349,0,0,1-.042.10547.14152.14152,0,0,1-.1084.04492h-.708A.15257.15257,0,0,1,26.14938,23.509Z"/><path class="d" d="M34.46481,20.48168a1.38687,1.38687,0,0,1,.417,1.11328v1.80566a.14915.14915,0,0,1-.042.10547.14152.14152,0,0,1-.1084.04492h-.708a.15417.15417,0,0,1-.11036-.042.14009.14009,0,0,1-.04492-.1084V21.62523a.60276.60276,0,0,0-.67871-.68457h-.38965a3.68174,3.68174,0,0,0-.08984.88281l.04785,1.57715a.14009.14009,0,0,1-.04492.1084.15648.15648,0,0,1-.11133.042l-1.27148-.00586a.15648.15648,0,0,1-.11133-.042.14148.14148,0,0,1-.04492-.1084v-.47363a.14148.14148,0,0,1,.04492-.1084.16084.16084,0,0,1,.11133-.042h.48535v-.94141a3.24332,3.24332,0,0,1,.09082-.88867h-.35449a.15648.15648,0,0,1-.11133-.042.14135.14135,0,0,1-.04492-.10742v-.5166a.14136.14136,0,0,1,.04492-.10743.15648.15648,0,0,1,.11133-.042h1.67382A1.86684,1.86684,0,0,1,34.46481,20.48168Z"/><path class="d" d="M35.60544,23.509a.14083.14083,0,0,1-.0459-.1084v-3.126a.13876.13876,0,0,1,.0459-.10743.15254.15254,0,0,1,.11035-.042h.75a.14382.14382,0,0,1,.15039.14942v3.126a.15349.15349,0,0,1-.042.10547.14153.14153,0,0,1-.1084.04492h-.75A.15254.15254,0,0,1,35.60544,23.509Z"/><path class="d" d="M40.42087,20.16722a.1465.1465,0,0,1,.042.10743V22.051a1.307,1.307,0,0,1-.41406.98731,2.20478,2.20478,0,0,1-1.16407.52441L37.3486,23.887a.1375.1375,0,0,1-.11719-.03027.131.131,0,0,1-.05078-.10743v-.52246a.15112.15112,0,0,1,.03906-.10449.17574.17574,0,0,1,.09864-.05762l.666-.16211-.708-2.5371a.79768.79768,0,0,1-.0293-.12012.12171.12171,0,0,1,.12012-.12012h.77929a.14634.14634,0,0,1,.08985.02637.13662.13662,0,0,1,.04882.06347l.59961,2.45411a.8291.8291,0,0,0,.44434-.33887,1.19506,1.19506,0,0,0,.11914-.5791V20.27465a.14382.14382,0,0,1,.15039-.14942h.71387A.14646.14646,0,0,1,40.42087,20.16722Z"/><path class="d" d="M44.998,20.16722a.14273.14273,0,0,1,.042.10743v1.57226a1.75889,1.75889,0,0,1-.24024.92676,1.61781,1.61781,0,0,1-.65332.61523,1.89984,1.89984,0,0,1-.918.21h-.57617a1.80447,1.80447,0,0,1-.83984-.18554,1.32891,1.32891,0,0,1-.54883-.50391,1.34962,1.34962,0,0,1-.18945-.70215V20.27465a.138.138,0,0,1,.04492-.10743.15648.15648,0,0,1,.11133-.042h.62988a.14382.14382,0,0,1,.15039.14942l.00586,1.44042a.55462.55462,0,0,0,.456-.249,1.22528,1.22528,0,0,0,.13184-.627v-.55176a.15828.15828,0,0,1,.04492-.11719.14946.14946,0,0,1,.11133-.04492h.623a.14013.14013,0,0,1,.10547.04785.16089.16089,0,0,1,.04492.11426v.56348a1.56425,1.56425,0,0,1-.35352,1.08008,1.49063,1.49063,0,0,1-1.002.46191.76771.76771,0,0,0,.30273.29394.85915.85915,0,0,0,.417.10254h.13769a1.19225,1.19225,0,0,0,.55176-.126.95747.95747,0,0,0,.38476-.34864.923.923,0,0,0,.1377-.498v-1.542a.14273.14273,0,0,1,.042-.10743.14494.14494,0,0,1,.1084-.042h.62988A.14273.14273,0,0,1,44.998,20.16722Z"/><path class="d" d="M45.58884,23.50609a.14415.14415,0,0,1-.04493-.10547V22.885a.14149.14149,0,0,1,.04493-.1084.15109.15109,0,0,1,.10449-.042h1.50683V21.62523a.59947.59947,0,0,0-.67871-.67773h-.76758a.14231.14231,0,0,1-.10839-.0459.15671.15671,0,0,1-.042-.11035v-.5166a.14137.14137,0,0,1,.04493-.10743.14914.14914,0,0,1,.10546-.042h.79786a1.957,1.957,0,0,1,1.26855.35352A1.40481,1.40481,0,0,1,48.25,21.62523v1.10938h.21a.14382.14382,0,0,1,.14941.15039v.51562a.14915.14915,0,0,1-.042.10547.138.138,0,0,1-.10742.04492h-2.7666A.14205.14205,0,0,1,45.58884,23.50609Z"/><path class="d" d="M50.3652,22.08715a.14155.14155,0,0,1-.04492-.1084v-1.7041a.138.138,0,0,1,.04492-.10743.15651.15651,0,0,1,.11133-.042h.75a.14376.14376,0,0,1,.14941.14942v1.7041a.14916.14916,0,0,1-.042.10547.138.138,0,0,1-.10742.04492h-.75A.15651.15651,0,0,1,50.3652,22.08715Z"/><path class="d" d="M55.26364,23.425a.12687.12687,0,0,1-.03516.08691.1183.1183,0,0,1-.09082.03906h-.7373a.20147.20147,0,0,1-.16211-.05664c-.03223-.03808-.04981-.05957-.05469-.06347l-1.0498-1.51758a.67831.67831,0,0,0-.2041.33008,1.61333,1.61333,0,0,0-.04786.3955v.75a.15822.15822,0,0,1-.04492.11719.14943.14943,0,0,1-.11133.04492h-.58789a.13808.13808,0,0,1-.10449-.04785.16088.16088,0,0,1-.04492-.11426v-.74414a2.11018,2.11018,0,0,1,.13769-.82812,1.5233,1.5233,0,0,1,.52247-.59961l-.61231-.88184a.12517.12517,0,0,1-.03027-.084.11761.11761,0,0,1,.03906-.08692.11922.11922,0,0,1,.08691-.03906h.708a.197.197,0,0,1,.12891.03613.419.419,0,0,1,.08691.09571l.9668,1.36816a.533.533,0,0,0,.21289-.26465,1.17413,1.17413,0,0,0,.04492-.34179v-.73145a.16437.16437,0,0,1,.042-.11719.138.138,0,0,1,.10743-.04492h.62988a.145.145,0,0,1,.11133.04785.16089.16089,0,0,1,.04492.11426v.75586a1.58546,1.58546,0,0,1-.15235.69922,1.43726,1.43726,0,0,1-.55566.5664l.73242,1.03223A.15085.15085,0,0,1,55.26364,23.425Z"/><path class="d" d="M55.93942,23.509a.14086.14086,0,0,1-.0459-.1084v-3.126a.1388.1388,0,0,1,.0459-.10743.15257.15257,0,0,1,.11035-.042h.75a.14382.14382,0,0,1,.15039.14942v3.126a.15344.15344,0,0,1-.042.10547.14152.14152,0,0,1-.1084.04492h-.75A.15257.15257,0,0,1,55.93942,23.509Z"/><path class="d" d="M58.44333,21.19261c.00879.16407.05664.26075.14453.28809l.168.06055a.14173.14173,0,0,1,.07519.06836.23982.23982,0,0,1,.02637.11132l.00586.30567a.15783.15783,0,0,1-.08106.1416.29507.29507,0,0,1-.19433.03906l-.24609-.03613a.76476.76476,0,0,1-.51563-.333,1.19617,1.19617,0,0,1-.2041-.7168v-.84667a.20125.20125,0,0,1,.05078-.10743.1264.1264,0,0,1,.09863-.042h1.21192a1.55185,1.55185,0,0,1,1.17285.4043,1.70842,1.70842,0,0,1,.42383,1.13769c.0039.04.00586.09571.00586.168a1.89407,1.89407,0,0,1-.38379,1.2627,1.51411,1.51411,0,0,1-1.21875.45312H57.84372a.15648.15648,0,0,1-.11133-.042.14349.14349,0,0,1-.04492-.1084v-.55176a.15347.15347,0,0,1,.15625-.15625h1.11035a.71876.71876,0,0,0,.501-.17675.7014.7014,0,0,0,.21289-.501c.0039-.04.00586-.09961.00586-.17969,0-.07617-.002-.13379-.00586-.17383a.67887.67887,0,0,0-.207-.501.72427.72427,0,0,0-.50684-.17774h-.51074Z"/><path class="d" d="M62.79782,23.509a.14009.14009,0,0,1-.04492-.1084V21.62523a.60276.60276,0,0,0-.67871-.68457h-.91211a.14205.14205,0,0,1-.10449-.04492.14049.14049,0,0,1-.04493-.10449v-.5166a.138.138,0,0,1,.04493-.10743.14687.14687,0,0,1,.10449-.042h.94824a1.91935,1.91935,0,0,1,1.24512.3418,1.3798,1.3798,0,0,1,.41113,1.12207v1.81152a.15349.15349,0,0,1-.042.10547.14153.14153,0,0,1-.1084.04492h-.708A.15257.15257,0,0,1,62.79782,23.509Z"/><path class="d" d="M66.68747,23.509a.14874.14874,0,0,1-.042-.1084V21.62523a.60208.60208,0,0,0-.67774-.68457H64.59958a.15254.15254,0,0,1-.11035-.042.13876.13876,0,0,1-.0459-.10742v-.5166a.13876.13876,0,0,1,.0459-.10743.15254.15254,0,0,1,.11035-.042H65.998a1.84049,1.84049,0,0,1,1.24511.36621,1.44039,1.44039,0,0,1,.417,1.13965v1.76953a.14349.14349,0,0,1-.04492.1084.15648.15648,0,0,1-.11133.042h-.708A.14644.14644,0,0,1,66.68747,23.509Zm-2.19824,0a.14083.14083,0,0,1-.0459-.1084v-1.752a.13873.13873,0,0,1,.0459-.10742.15254.15254,0,0,1,.11035-.042h.708a.14385.14385,0,0,1,.15039.14942v1.752a.15345.15345,0,0,1-.042.10547.14151.14151,0,0,1-.10839.04492h-.708A.15254.15254,0,0,1,64.48923,23.509Z"/><rect class="e" x="28.5543" width="14.03841" height="5.61702"/></svg>