<svg xmlns="http://www.w3.org/2000/svg" viewBox="0 0 56.21094 62.68959"><defs><style>.a{fill:#efeed5;}.b{fill:#d6d3b9;}.c{opacity:0.17;}.d{fill:#e42922;}.e{fill:#fefefe;}.f{fill:#23906e;}.g{fill:#2d2a28;}.h{fill:#dbd8bd;}.i{fill:#fff;opacity:0.5;}</style></defs><rect class="a" x="0.24948" y="2.55834" width="55.71191" height="59.88135"/><path class="b" d="M55.711,2.8085V62.18958H.5V2.8085H55.711m.5-.5H0V62.68958H56.211V2.3085Z"/><g class="c"><path class="d" d="M43.81424,5.78756c3.2343,0,5.88334-.00036,8.53238.00049.30793.0001.61591.01194.92374.00787.10651-.00141.11976.042.11908.13117-.00381.50218-.00311,1.0044-.00352,1.50661-.00265,3.247-.01159,6.494-.00454,9.741a13.35337,13.35337,0,0,1-.52872,3.64371,16.33764,16.33764,0,0,1-3.87665,6.722,18.17586,18.17586,0,0,1-4.2696,3.43386c-.35254.20374-.35617.20427-.71057-.00169a18.2156,18.2156,0,0,1-4.19579-3.38512,17.20483,17.20483,0,0,1-3.1978-4.78372,14.44608,14.44608,0,0,1-1.11535-4.12333,16.912,16.912,0,0,1-.0648-2.01094q-.00512-5.34036-.00862-10.68072c-.00014-.219-.02765-.18783.18966-.18983C38.53523,5.77182,41.46739,5.79769,43.81424,5.78756ZM49.32736,23.8673l-.00995-.0098c.00049-.0445-.00025-.08905.00166-.13348a1.51675,1.51675,0,0,0-.24488-.93291c-.08381-.12572-.09348-.12932-.19233-.0189a1.55028,1.55028,0,0,0-.35744,1.50786.63029.63029,0,0,0,.69421.50235,1.60158,1.60158,0,0,0,1.2878-1.09346c.01574-.06856.00309-.10253-.06945-.11142a1.51629,1.51629,0,0,0-.37032-.0005A2.017,2.017,0,0,0,49.32736,23.8673Zm-9.79433.00024c-.044-.00012-.06994-.03447-.10322-.05473a1.54983,1.54983,0,0,0-.96458-.24222c-.09982.00893-.13984.03758-.10042.14941a1.54634,1.54634,0,0,0,1.123,1.03374.64173.64173,0,0,0,.86138-.52514,1.52767,1.52767,0,0,0-.28268-1.351c-.204-.26393-.19469-.23422-.347.02664a1.65965,1.65965,0,0,0-.176.95287Zm5.88468-1.83288a1.81584,1.81584,0,0,0,1.1212-1.85663,3.78687,3.78687,0,0,0-.93047-2.07309,5.93109,5.93109,0,0,0-.87185-.7668,4.33615,4.33615,0,0,1-1.11328-1.32607.72193.72193,0,0,1-.09485-.36705c.00631-.52189.00256-1.04391.00255-1.56588,0-.02982-.00071-.05967.00007-.08947.00129-.05005-.01056-.08059-.06745-.04806a1.748,1.748,0,0,0-.94663.91887,4.911,4.911,0,0,0-.16228.57188,2.23808,2.23808,0,0,0,.35119,1.87063c.14.187.28313.3715.4391.54549a19.299,19.299,0,0,0,2.14459,1.98.31067.31067,0,0,1,.13108.27282C45.41433,20.74232,45.41771,21.38339,45.41771,22.03466Zm-.1165-9.09157c0,.33257-.00013.61093.0002.88929,0,.02863-.00819.0716.00662.083.0357.02755.06141-.01631.08674-.0346a6.29325,6.29325,0,0,0,.9138-.78555,3.091,3.091,0,0,0,.63438-.89342.94143.94143,0,0,0-.332-1.185,1.97182,1.97182,0,0,0-.6009-.28509,6.30084,6.30084,0,0,0-1.81186-.187c-.46687-.00053-.93237.02685-1.39744.064a.69571.69571,0,0,1-.29131-.03872,3.6122,3.6122,0,0,0-.763-.18437.3261.3261,0,0,0-.39173.18294c-.08811.18991-.23059.19748-.35016.02243a.32362.32362,0,0,0-.26582-.15511,1.96322,1.96322,0,0,0-.67833.05478.52968.52968,0,0,0-.27927.15858.1491.1491,0,0,0-.03121.1398c.0183.06368.07595.031.11417.03147a4.3221,4.3221,0,0,1,.57942.03052c.07356.01077.17.00715.19711.0768.02415.06193-.04985.1241-.093.17658a2.76449,2.76449,0,0,1-.45825.42456c-.06692.0516-.08683.08525-.00621.14015a1.16115,1.16115,0,0,0,.87117.21076c.26445-.044.51-.15492.76774-.22086a10.99237,10.99237,0,0,1,1.37172-.24872,8.49468,8.49468,0,0,1,1.64476-.07919.55513.55513,0,0,1,.58147.654C45.29214,12.32307,45.31452,12.66013,45.30121,12.94309ZM44.488,19.27626v.18431q0,1.48411,0,2.96822c0,.0348-.00092.06961-.00024.1044.00106.0545-.033.06467-.07775.0656-.04966.001-.09048-.006-.089-.06971.00079-.03478-.00021-.0696-.00021-.1044q0-1.58106-.00068-3.16212c-.00006-.06232.016-.1282-.04261-.18065-.21307-.19084-.42391-.38416-.649-.58874-.00326.03552-.00633.05338-.00634.07124q-.00035,2.05836-.00181,4.11672a.19736.19736,0,0,0,.07725.16623.54023.54023,0,0,0,.26687.12222,4.09909,4.09909,0,0,0,.81768.01739.58641.58641,0,0,0,.35685-.13319.21473.21473,0,0,0,.08814-.17765q-.00321-1.3424-.00107-2.68482a.15192.15192,0,0,0-.04655-.13373C44.95578,19.67149,44.73381,19.48327,44.488,19.27626Zm0-5.05158q0,1.32644.00015,2.65288c0,.06337-.0101.12711.051.17665.20043.16249.39825.32821.5968.493.06049.05021.08648.031.08713-.04185q.00052-.05961.00041-.11923c-.00237-1.32094.00509-2.64189-.01258-3.96283-.00664-.4965-.00885-.99331.00707-1.49006a.44485.44485,0,0,0-.47443-.51937c-.02473-.00208-.04946-.0043-.07422-.00593-.1811-.01195-.18128-.01191-.18129.16385Q44.488,12.89824,44.488,14.22468Zm-.16727-.121q0-.7236,0-1.4472c0-.378-.00238-.756.00172-1.13388.001-.08889-.02021-.12675-.11618-.11814-.14825.01332-.29747.02173-.44624.02127-.11967-.00038-.14087.05415-.14052.163q.00661,2.05887.00524,4.11777a.30741.30741,0,0,0,.01706.14622,4.149,4.149,0,0,0,.60521.89949c.01511.017.0299.04722.058.02989.01156-.00713.01363-.03425.01483-.05262.00228-.03467.00087-.06958.00087-.10439Q44.32077,15.36438,44.32076,14.10367Zm-1.73932,9.93125a1.24,1.24,0,0,0,.23205.81374A3.19,3.19,0,0,0,43.854,25.91725a3.07773,3.07773,0,0,1,1.28647,1.83534.79328.79328,0,0,0,.09326.20123c.04239.06833.091.06862.14375.012a.203.203,0,0,0,.06809-.14343,2.855,2.855,0,0,0-.57729-1.83858,10.23388,10.23388,0,0,0-.73464-.74063,1.14926,1.14926,0,0,1-.40337-.7565,1.65215,1.65215,0,0,0-.04266-.18844.18384.18384,0,0,0-.11224-.14389.83665.83665,0,0,1-.38271-.322.31935.31935,0,0,0-.36006-.18381.44941.44941,0,0,1-.0594-.00263c-.18027-.00039-.18834.00759-.19162.19515C42.58049,23.90562,42.58144,23.97028,42.58144,24.03492ZM44.3205,9.7171c0-.22376.002-.44754-.00164-.67124-.00075-.0462-.001-.06664.05445-.07492.09956-.0149.11685.02821.11617.1154-.00324.41765.00131.83537-.00352,1.253-.00111.09568.02315.12807.123.12694a4.63755,4.63755,0,0,1,.49069.02513c.09475.009.125-.01226.1294-.11564a4.98491,4.98491,0,0,0-.18961-1.35254,3.36178,3.36178,0,0,0-.51484-1.1796c-.08516-.12133-.117-.12019-.20622-.00134-.02382.03173-.04527.06532-.06668.09877a3.87521,3.87521,0,0,0-.50557,1.32761,4.24737,4.24737,0,0,0-.12689,1.09182c.00456.08433.02688.1107.11011.10708q.24559-.01067.49178-.00522c.0795.0017.10219-.028.10087-.10384C44.31828,10.14476,44.32071,9.9309,44.3205,9.7171Zm4.01418,15.02122a1.4568,1.4568,0,0,0-.084-.47862c-.051-.13955-.05331-.1423-.17965-.06092a1.56337,1.56337,0,0,0-.73284,1.31143.64541.64541,0,0,0,.59763.7253,1.62769,1.62769,0,0,0,1.4784-.7461c.03555-.07035.01562-.09124-.04832-.11745a1.50018,1.50018,0,0,0-1.049-.02145c-.02982.00931-.06607.04414-.0944.01259-.02555-.02844.0016-.06494.01273-.09659A1.80309,1.80309,0,0,0,48.33468,24.73832Zm-8.30715.52706a1.61008,1.61008,0,0,0-.49551.08952c-.10724.035-.12805.07571-.0593.17618a1.56856,1.56856,0,0,0,1.33766.71056.651.651,0,0,0,.7117-.72064,1.54336,1.54336,0,0,0-.66261-1.27336c-.21444-.15089-.19419-.16466-.27671.10112a1.42407,1.42407,0,0,0,.02467.865c.01533.049.06831.10786.02583.14978-.03113.03073-.08946-.01592-.13559-.02842A1.91314,1.91314,0,0,0,40.02753,25.26538Zm1.06953,1.28078a1.22805,1.22805,0,0,0-.32926.05517c-.15585.04577-.164.05866-.07922.1991a1.57768,1.57768,0,0,0,1.31357.77886.64015.64015,0,0,0,.6955-.52327,1.5986,1.5986,0,0,0-.641-1.53754c-.09336-.06126-.12269-.03388-.15918.05228a1.52458,1.52458,0,0,0-.062,1.00554c.0093.03589.0491.07741.01533.11026-.03464.03369-.07285-.009-.107-.02186A1.76385,1.76385,0,0,0,41.09706,26.54616Zm5.98619-.38762a1.60914,1.60914,0,0,0-.12171-.59354c-.03929-.0994-.08195-.10023-.16172-.04178a1.56157,1.56157,0,0,0-.65936,1.36235.63564.63564,0,0,0,.62094.68546,1.60283,1.60283,0,0,0,1.4146-.77518c.07548-.1388.07075-.14972-.089-.1961a1.4902,1.4902,0,0,0-.97565.06769c-.03171.01223-.06854.04553-.09616.02556-.04189-.0303.00007-.07218.00769-.10808A2.03273,2.03273,0,0,0,47.08325,26.15854ZM38.342,9.56085a3.04333,3.04333,0,0,0-.04751-.36048c-.02063-.10292-.06016-.11567-.15068-.07176a1.56438,1.56438,0,0,0-.72444.72243c-.01634.032-.01457.08984-.06269.08691-.01906-.00115-.03688-.0522-.05213-.08212a1.52952,1.52952,0,0,0-.69569-.71012c-.14686-.07179-.15876-.06978-.18957.09353a1.5511,1.5511,0,0,0,.44058,1.43357.63159.63159,0,0,0,.9557.04234A1.609,1.609,0,0,0,38.342,9.56085ZM52.47956,9.5474a3.2116,3.2116,0,0,0-.04987-.35668c-.02141-.09971-.0639-.102-.1436-.06388a1.55015,1.55015,0,0,0-.733.73333c-.01427.0286-.01381.07968-.05407.07956-.04-.00013-.03951-.05114-.054-.07974a1.56809,1.56809,0,0,0-.7198-.72714c-.09214-.04506-.13683-.042-.16041.07275a1.53543,1.53543,0,0,0,.46321,1.49252.62875.62875,0,0,0,.95569-.00825A1.63127,1.63127,0,0,0,52.47956,9.5474ZM38.376,14.46918a1.96519,1.96519,0,0,0-.06763-.42744c-.02367-.09951-.06453-.11248-.15228-.06376a1.53008,1.53008,0,0,0-.68149.76263c-.01433.03368-.01187.094-.05759.09347-.03894-.00044-.04643-.05718-.06568-.09a1.51889,1.51889,0,0,0-.78009-.68242c-.07786-.02979-.10867-.00985-.12244.066a1.33672,1.33672,0,0,0-.01213.48866,1.48515,1.48515,0,0,0,.71927,1.10875.55958.55958,0,0,0,.64314-.04851A1.57038,1.57038,0,0,0,38.376,14.46918Zm12.92684,3.94664c-.02833-.07276-.04772-.12345-.06776-.17388a1.5283,1.5283,0,0,0-.61193-.74607c-.08284-.05272-.12087-.04784-.16.04981a1.61352,1.61352,0,0,0,.317,1.58343.64218.64218,0,0,0,.91153.06874,1.58471,1.58471,0,0,0,.63719-1.2708c.00506-.29876-.027-.31576-.29263-.19551a1.47053,1.47053,0,0,0-.39381.263A2.11691,2.11691,0,0,0,51.30285,18.41582Zm-12.962-7.28328a2.66834,2.66834,0,0,0-.05114-.367c-.01977-.09535-.06267-.09344-.13434-.05979a1.54583,1.54583,0,0,0-.74315.74269c-.01337.02707-.011.08066-.0574.0723-.0188-.00339-.03222-.04549-.04511-.07145a1.55186,1.55186,0,0,0-.72852-.73745c-.0847-.04076-.12728-.04117-.15081.06819a1.52979,1.52979,0,0,0,.45424,1.49447.64817.64817,0,0,0,1.0105-.04814A1.68023,1.68023,0,0,0,38.3409,11.13254Zm14.13757,0a2.67317,2.67317,0,0,0-.05114-.367c-.01977-.09537-.06269-.09342-.13435-.05978a1.54581,1.54581,0,0,0-.74314.74269c-.01337.02707-.011.08066-.05741.0723-.0188-.00339-.03222-.04549-.0451-.07146a1.5519,1.5519,0,0,0-.72853-.73744c-.08472-.04078-.12728-.04115-.15081.0682a1.5298,1.5298,0,0,0,.45425,1.49446.64816.64816,0,0,0,1.0105-.04814A1.68024,1.68024,0,0,0,52.47847,11.1325ZM38.34251,12.688c-.01121-.07742-.02108-.18639-.04377-.29261-.0336-.1573-.03783-.15721-.17867-.0891a1.52676,1.52676,0,0,0-.6995.706c-.01675.03257-.01722.09236-.06151.08952-.03943-.00252-.04171-.06061-.0593-.09423a1.56542,1.56542,0,0,0-.72775-.7189c-.08368-.03954-.11908-.02718-.1402.06845a1.529,1.529,0,0,0,.44932,1.496.649.649,0,0,0,1.01084-.042A1.70282,1.70282,0,0,0,38.34251,12.688Zm12.17714.02295a1.68226,1.68226,0,0,0,.44436,1.09549.65294.65294,0,0,0,1.0217.0413,1.532,1.532,0,0,0,.44488-1.48417c-.02286-.10516-.0608-.11422-.14958-.0713a1.56171,1.56171,0,0,0-.72414.72237c-.01632.032-.01444.09-.06281.08666-.01923-.00133-.03678-.05235-.05206-.08229a1.55869,1.55869,0,0,0-.70808-.7182c-.09442-.04657-.1491-.05586-.16974.07331C50.54618,12.48682,50.52816,12.59891,50.51965,12.711ZM37.56078,18.41784c-.04625-.06743-.07588-.11264-.10749-.15641a1.55683,1.55683,0,0,0-.6703-.54827c-.22081-.09144-.243-.08222-.25028.15505a1.55709,1.55709,0,0,0,.51267,1.22341.70192.70192,0,0,0,1.19813-.17485,1.57768,1.57768,0,0,0,.21913-1.12776c-.02221-.11553-.02561-.28067-.12421-.31824-.10089-.03844-.19942.0971-.29245.16724l-.01076.01028A1.66291,1.66291,0,0,0,37.56078,18.41784Zm12.92685-3.90327a1.66934,1.66934,0,0,0,.39185,1.00371.64742.64742,0,0,0,.97147.11569,1.5451,1.5451,0,0,0,.56594-1.48419c-.01351-.09491-.05094-.12079-.14793-.08118a1.5328,1.5328,0,0,0-.75459.66711c-.02127.03607-.03086.101-.075.09648-.04326-.00442-.04314-.07047-.06043-.1097a1.52113,1.52113,0,0,0-.65135-.73131c-.1233-.07006-.142-.06138-.18107.0784A1.56585,1.56585,0,0,0,50.48763,14.51457Zm.90756,2.11952c-.0554-.04-.05266-.10053-.07061-.15a1.55843,1.55843,0,0,0-.58739-.76859c-.09575-.06662-.1378-.05027-.1762.05718a1.54357,1.54357,0,0,0,.23915,1.52054.63886.63886,0,0,0,.96836.13234,1.52733,1.52733,0,0,0,.64715-1.17517c.02427-.38391.00944-.39845-.35149-.23563A1.5689,1.5689,0,0,0,51.39519,16.63409Zm-13.92008.0149c-.04-.05886-.06368-.09661-.09014-.13232a1.531,1.531,0,0,0-.775-.57767c-.13428-.0425-.15128-.02952-.16749.11112a1.60962,1.60962,0,0,0,.75623,1.44493.61613.61613,0,0,0,.76645-.09881,1.58278,1.58278,0,0,0,.32053-1.65883c-.0338-.07147-.06472-.08374-.13089-.04109a1.54083,1.54083,0,0,0-.49116.51144A3.18086,3.18086,0,0,0,37.47511,16.649Zm1.1697,5.51894-.04123.02868a.79277.79277,0,0,0-.08614-.12021,1.4774,1.4774,0,0,0-.85233-.422c-.1531-.01956-.17246-.00378-.1497.14363a1.54217,1.54217,0,0,0,.97013,1.26.61933.61933,0,0,0,.80331-.26185.95629.95629,0,0,0,.09754-.18389,1.56389,1.56389,0,0,0-.0308-1.3008c-.14538-.29057-.133-.29351-.35326-.04392A1.57951,1.57951,0,0,0,38.64481,22.16793Zm11.57849.02239c-.01408-.07989-.02483-.14238-.03614-.20478a1.51753,1.51753,0,0,0-.44263-.84284c-.06634-.06429-.10187-.06525-.15775.01573a1.59112,1.59112,0,0,0-.01194,1.6419.617.617,0,0,0,.692.29139,1.20342,1.20342,0,0,0,.519-.279,1.58614,1.58614,0,0,0,.55677-.97518c.02957-.18194.001-.21045-.18213-.18015a1.52134,1.52134,0,0,0-.55312.21A2.44861,2.44861,0,0,0,50.2233,22.19032ZM37.89158,20.30324c-.01434-.00667-.02565-.0085-.03127-.01514-.02564-.03029-.049-.06251-.0744-.093a1.5386,1.5386,0,0,0-.83926-.53366c-.06846-.01635-.11859-.02193-.12632.082a1.61061,1.61061,0,0,0,.80021,1.42141.62222.62222,0,0,0,.80957-.13777,1.586,1.586,0,0,0,.20665-1.66361c-.03832-.06842-.06905-.08195-.13552-.03351a1.50125,1.50125,0,0,0-.47006.568A2.97789,2.97789,0,0,0,37.89158,20.30324ZM50.973,20.326c-.01984-.07315-.03174-.12123-.04592-.16863a1.55031,1.55031,0,0,0-.53565-.80477c-.08959-.06989-.13441-.06922-.18284.04317a1.5446,1.5446,0,0,0,.1324,1.52017.64415.64415,0,0,0,.97949.19858,1.50335,1.50335,0,0,0,.70594-1.12371c.03992-.37594.07354-.40784-.34286-.2516A1.57349,1.57349,0,0,0,50.973,20.326ZM37.835,8.205a1.4443,1.4443,0,0,0-.41245-1.01936c-.05962-.06068-.09485-.05849-.15268.00116a1.39878,1.39878,0,0,0-.40319,1.12747.99449.99449,0,0,0,.36286.75511.1628.1628,0,0,0,.2353-.001A1.08286,1.08286,0,0,0,37.835,8.205Zm14.16732-.00241A1.4569,1.4569,0,0,0,51.619,7.215c-.07506-.08153-.12333-.09557-.20594-.00518a1.41841,1.41841,0,0,0-.38234,1.0634,1.02308,1.02308,0,0,0,.20392.62745c.25114.30165.30927.2984.5546.005A1.14046,1.14046,0,0,0,52.00229,8.20258ZM44.44352,23.62651c-.36192,0-.72384-.00058-1.08575.00077-.04263.00016-.1081-.024-.08827.06826a.47622.47622,0,0,0,.55692.36382,2.98359,2.98359,0,0,1,1.21025-.00088.36146.36146,0,0,0,.40917-.15135c.04766-.0632.09046-.13.136-.19488.049-.06974.02787-.0878-.05254-.08711C45.16738,23.62825,44.80544,23.6265,44.44352,23.62651Zm-.04643-.07276c.36283,0,.72567.0008,1.08849-.00148.02934-.00018.09031.03128.08028-.04538a.53546.53546,0,0,0-.43909-.36309,5.47289,5.47289,0,0,1-1.24922.0048.5638.5638,0,0,0-.59678.29481c-.01839.02709-.0556.054-.03723.09047.01922.03818.06277.01884.09487.019C43.6913,23.55428,44.04419,23.55375,44.39709,23.55375Zm-.047,4.75764c.18857,0,.37721-.00329.56565.00155.07951.002.11663-.0142.112-.10443-.0073-.1436-.00606-.288-.00032-.43175.00313-.07853-.02245-.1015-.10045-.10077q-.57309.00532-1.14624-.00021c-.08325-.00091-.09858.03206-.09643.10459.00426.14385.00537.28808-.00037.43182-.00314.07852.0223.10286.10047.10079C43.97289,28.308,44.16155,28.31136,44.35011,28.31139ZM43.531,22.62365h.00251c0-.10938-.00218-.21881.00074-.3281.00208-.07774-.019-.08735-.081-.04112a4.65965,4.65965,0,0,0-.59185.499,1.149,1.149,0,0,0-.29575.69984c-.00878.08071.02152.1063.10126.09843a2.4311,2.4311,0,0,1,.31211-.01278.1371.1371,0,0,0,.13951-.08351c.05537-.0991.09385-.22273.19726-.27491a.41411.41411,0,0,0,.21563-.4823A.64085.64085,0,0,1,43.531,22.62365Zm1.71054,1.89676a1.51094,1.51094,0,0,1,.00107-.16339c.01014-.0927-.022-.10654-.10606-.078a4.00433,4.00433,0,0,0-.96181.45582c-.21859.14692-.22595.21208-.03763.39879.02457.02435.05182.046.077.06977a.09382.09382,0,0,0,.14864.00561,2.24337,2.24337,0,0,1,.65957-.3631C45.244,24.76077,45.244,24.761,45.24154,24.52041Zm-.74468,2.23016c-.02919.01624-.05526.02964-.08024.04483a2.88238,2.88238,0,0,1-.38447.19066c-.3298.13853-.32692.13849-.312.49461.0037.08812.02484.10081.10311.06623.26644-.11768.53216-.23634.7917-.36907.078-.0399.09731-.07947.06225-.16155a.607.607,0,0,0-.12233-.21715C44.53757,26.78258,44.51813,26.76825,44.49686,26.75057ZM45.02,24.19208a6.94344,6.94344,0,0,0-.76382.00036c-.28067.02425-.37132.13778-.34218.42107.0167.16237.02054.1679.1539.07525a3.05324,3.05324,0,0,1,.92384-.462C45.00348,24.2235,45.02305,24.22308,45.02,24.19208Zm-.68212,1.14725a.652.652,0,0,1,.18768.15261c.04661.05453.08647.06337.14472.01073a.88858.88858,0,0,1,.3779-.194c.22656-.06.22108-.06322.21764-.3017-.00134-.09277-.03048-.10474-.11338-.08707A2.49128,2.49128,0,0,0,44.33785,25.33933ZM39.12793,10.99287a1.15771,1.15771,0,0,0,.333.24611c.0715.053.0774.10075-.00844.14073-.0898.04182-.18236.07773-.272.11984-.054.02536-.15319.043-.1229.11265.02588.05954.11846.01883.17453-.00779a7.05836,7.05836,0,0,1,.794-.29027,1.41229,1.41229,0,0,0,.34439-.174.27559.27559,0,0,0,.12281-.13194,2.1457,2.1457,0,0,1-.67183.18173A3.47885,3.47885,0,0,1,39.12793,10.99287Zm4.61446,15.6926a1.34155,1.34155,0,0,1-.00093.14823c-.01172.10477.029.11265.11823.08287a5.48511,5.48511,0,0,0,.515-.22447c.05923-.02673.059-.05239.03054-.11159-.08451-.17556-.23492-.16528-.3906-.16308C43.74242,26.42127,43.74238,26.41849,43.74239,26.68547Zm1.51371-1.03374.00714,0c0-.05469-.00378-.1097.00088-.164.00713-.08318-.02108-.11912-.10912-.10621a1.06951,1.06951,0,0,0-.43815.21077c-.02527.01709-.02908.0423-.004.06073a2.66186,2.66186,0,0,0,.3755.31447c.09543.04645.15236.01567.166-.09246A1.7968,1.7968,0,0,0,45.2561,25.65173Zm-1.18072,1.90394.00948.02656q.34844,0,.69687,0c.17125-.00012.1994-.04167.1179-.19715-.03285-.06266-.062-.16652-.1673-.12279C44.51093,27.35421,44.29409,27.4572,44.07538,27.55567Zm.07436-1.266a.5298.5298,0,0,0-.33285-.21946c-.05226-.01029-.10657-.01227-.09459.06425.00882.05633-.0501.15126.07113.15457C43.90427,26.29207,44.01526,26.28969,44.14974,26.28969Z"/><path class="e" d="M45.41771,22.03466c0-.65127-.00338-1.29234.003-1.93332a.31067.31067,0,0,0-.13108-.27282,19.299,19.299,0,0,1-2.14459-1.98c-.156-.174-.2991-.35845-.4391-.54549a2.23808,2.23808,0,0,1-.35119-1.87063,4.911,4.911,0,0,1,.16228-.57188,1.748,1.748,0,0,1,.94663-.91887c.05689-.03253.06874-.002.06745.04806-.00078.0298-.00007.05965-.00007.08947,0,.522.00376,1.044-.00255,1.56588a.72193.72193,0,0,0,.09485.36705,4.33615,4.33615,0,0,0,1.11328,1.32607,5.93109,5.93109,0,0,1,.87185.7668,3.78687,3.78687,0,0,1,.93047,2.07309A1.81584,1.81584,0,0,1,45.41771,22.03466Z"/><path class="e" d="M45.30121,12.94309c.01331-.283-.00907-.62.0188-.958a.55513.55513,0,0,0-.58147-.654,8.49468,8.49468,0,0,0-1.64476.07919,10.99237,10.99237,0,0,0-1.37172.24872c-.25774.06594-.50329.17682-.76774.22086a1.16115,1.16115,0,0,1-.87117-.21076c-.08062-.0549-.06071-.08855.00621-.14015a2.76449,2.76449,0,0,0,.45825-.42456c.04313-.05248.11713-.11465.093-.17658-.02716-.06965-.12355-.066-.19711-.0768a4.3221,4.3221,0,0,0-.57942-.03052c-.03822-.00044-.09587.03221-.11417-.03147a.1491.1491,0,0,1,.03121-.1398.52968.52968,0,0,1,.27927-.15858,1.96322,1.96322,0,0,1,.67833-.05478.32362.32362,0,0,1,.26582.15511c.11957.175.26205.16748.35016-.02243a.3261.3261,0,0,1,.39173-.18294,3.6122,3.6122,0,0,1,.763.18437.69571.69571,0,0,0,.29131.03872c.46507-.03718.93057-.06456,1.39744-.064a6.30084,6.30084,0,0,1,1.81186.187,1.97182,1.97182,0,0,1,.6009.28509.94143.94143,0,0,1,.332,1.185,3.091,3.091,0,0,1-.63438.89342,6.29325,6.29325,0,0,1-.9138.78555c-.02533.01829-.051.06215-.08674.0346-.01481-.01142-.00658-.05439-.00662-.083C45.30108,13.554,45.30121,13.27566,45.30121,12.94309Z"/><path class="e" d="M44.488,19.27626c.24578.207.46775.39523.69147.58132a.15192.15192,0,0,1,.04655.13373q-.0006,1.34241.00107,2.68482a.21473.21473,0,0,1-.08814.17765.58641.58641,0,0,1-.35685.13319,4.09909,4.09909,0,0,1-.81768-.01739.54023.54023,0,0,1-.26687-.12222.19736.19736,0,0,1-.07725-.16623q.00321-2.05836.00181-4.11672c0-.01786.00308-.03572.00634-.07124.2251.20458.43594.3979.649.58874.05856.05245.04255.11833.04261.18065q.00138,1.58106.00068,3.16212c0,.0348.001.06962.00021.1044-.00145.06372.03937.07073.089.06971.04471-.00093.07881-.0111.07775-.0656-.00068-.03479.00024-.0696.00024-.1044q0-1.48411,0-2.96822Z"/><path class="e" d="M44.488,14.22468q0-1.32645,0-2.65288c0-.17576.00019-.1758.18129-.16385.02476.00163.04949.00385.07422.00593a.44485.44485,0,0,1,.47443.51937c-.01592.49675-.01371.99356-.00707,1.49006.01767,1.32094.01021,2.64189.01258,3.96283q.0001.05961-.00041.11923c-.00065.07289-.02664.09206-.08713.04185-.19855-.1648-.39637-.33052-.5968-.493-.06109-.04954-.051-.11328-.051-.17665Q44.48785,15.55111,44.488,14.22468Z"/><path class="e" d="M44.32076,14.10367q0,1.26072,0,2.52143c0,.03481.00141.06972-.00087.10439-.0012.01837-.00327.04549-.01483.05262-.0281.01733-.04289-.01284-.058-.02989a4.149,4.149,0,0,1-.60521-.89949.30741.30741,0,0,1-.01706-.14622q-.002-2.05888-.00524-4.11777c-.00035-.10887.02085-.1634.14052-.163.14877.00046.298-.00795.44624-.02127.096-.00861.11714.02925.11618.11814-.0041.37792-.00172.75591-.00172,1.13388Q44.32078,13.38007,44.32076,14.10367Z"/><path class="e" d="M42.58144,24.03492c0-.06464-.001-.1293.00018-.19392.00328-.18756.01135-.19554.19162-.19515a.44941.44941,0,0,0,.0594.00263.31935.31935,0,0,1,.36006.18381.83665.83665,0,0,0,.38271.322.18384.18384,0,0,1,.11224.14389,1.65215,1.65215,0,0,1,.04266.18844,1.14926,1.14926,0,0,0,.40337.7565,10.23388,10.23388,0,0,1,.73464.74063,2.855,2.855,0,0,1,.57729,1.83858.203.203,0,0,1-.06809.14343c-.05276.05666-.10136.05637-.14375-.012a.79328.79328,0,0,1-.09326-.20123A3.07773,3.07773,0,0,0,43.854,25.91725a3.19,3.19,0,0,1-1.04055-1.06859A1.24,1.24,0,0,1,42.58144,24.03492Z"/><path class="e" d="M44.32061,9.7171c.0001.2138-.00233.42766.00141.6414.00132.07581-.02137.10554-.10087.10384q-.24578-.00528-.49178.00522c-.08323.00362-.10555-.02275-.11011-.10708a4.24737,4.24737,0,0,1,.12689-1.09182,3.87521,3.87521,0,0,1,.50557-1.32761c.02141-.03345.04286-.067.06668-.09877.08924-.11885.12106-.12.20622.00134a3.36178,3.36178,0,0,1,.51484,1.1796,4.98491,4.98491,0,0,1,.18961,1.35254c-.00443.10338-.03465.12465-.1294.11564a4.63755,4.63755,0,0,0-.49069-.02513c-.09987.00113-.12413-.03126-.123-.12694.00483-.41762.00028-.83534.00352-1.253.00068-.08719-.01661-.1303-.11617-.1154-.0554.00828-.0552.02872-.05445.07492C44.3225,9.26956,44.3205,9.49334,44.32061,9.7171Z"/><path class="f" d="M39.5436,23.85707a1.65965,1.65965,0,0,1,.176-.95287c.15226-.26086.143-.29057.347-.02664a1.52767,1.52767,0,0,1,.28268,1.351.64173.64173,0,0,1-.86138.52514,1.54634,1.54634,0,0,1-1.123-1.03374c-.03942-.11183.0006-.14048.10042-.14941a1.54983,1.54983,0,0,1,.96458.24222c.03328.02026.05924.05461.10322.05473l.02023.00968Z"/><path class="f" d="M49.32736,23.8673a2.017,2.017,0,0,1,.7393-.29026,1.51629,1.51629,0,0,1,.37032.0005c.07254.00889.08519.04286.06945.11142a1.60158,1.60158,0,0,1-1.2878,1.09346.63029.63029,0,0,1-.69421-.50235,1.55028,1.55028,0,0,1,.35744-1.50786c.09885-.11042.10852-.10682.19233.0189a1.51675,1.51675,0,0,1,.24488.93291c-.00191.04443-.00117.089-.00166.13348l-.00994.01975Z"/><path class="f" d="M48.33468,24.73832a1.80309,1.80309,0,0,1-.09941.52819c-.01113.03165-.03828.06815-.01273.09659.02833.03155.06458-.00328.0944-.01259a1.50018,1.50018,0,0,1,1.049.02145c.06394.02621.08387.0471.04832.11745a1.62769,1.62769,0,0,1-1.4784.7461.64541.64541,0,0,1-.59763-.7253,1.56337,1.56337,0,0,1,.73284-1.31143c.12634-.08138.12866-.07863.17965.06092A1.4568,1.4568,0,0,1,48.33468,24.73832Z"/><path class="f" d="M40.02759,25.26547a1.90871,1.90871,0,0,1,.47008.06964c.04613.0125.10446.05915.13559.02842.04248-.04192-.0105-.10074-.02583-.14978a1.42407,1.42407,0,0,1-.02467-.865c.08252-.26578.06227-.252.27671-.10112a1.54336,1.54336,0,0,1,.66261,1.27336.651.651,0,0,1-.7117.72064,1.56856,1.56856,0,0,1-1.33766-.71056c-.06875-.10047-.04794-.1412.0593-.17618A1.60737,1.60737,0,0,1,40.02759,25.26547Z"/><path class="f" d="M41.09706,26.54616a1.76385,1.76385,0,0,1,.64684.11854c.03415.01287.07236.05555.107.02186.03377-.03285-.006-.07437-.01533-.11026a1.52458,1.52458,0,0,1,.062-1.00554c.03649-.08616.06582-.11354.15918-.05228a1.5986,1.5986,0,0,1,.641,1.53754.64015.64015,0,0,1-.6955.52327,1.57768,1.57768,0,0,1-1.31357-.77886c-.08478-.14044-.07663-.15333.07922-.1991A1.22805,1.22805,0,0,1,41.09706,26.54616Z"/><path class="f" d="M47.08325,26.15854a2.03273,2.03273,0,0,1-.0604.42638c-.00762.0359-.04958.07778-.00769.10808.02762.02.06445-.01333.09616-.02556a1.4902,1.4902,0,0,1,.97565-.06769c.15978.04638.16451.0573.089.1961a1.60283,1.60283,0,0,1-1.4146.77518.63564.63564,0,0,1-.62094-.68546,1.56157,1.56157,0,0,1,.65936-1.36235c.07977-.05845.12243-.05762.16172.04178A1.60914,1.60914,0,0,1,47.08325,26.15854Z"/><path class="f" d="M38.342,9.56085a1.609,1.609,0,0,1-.52643,1.1543.63159.63159,0,0,1-.9557-.04234,1.5511,1.5511,0,0,1-.44058-1.43357c.03081-.16331.04271-.16532.18957-.09353a1.52952,1.52952,0,0,1,.69569.71012c.01525.02992.03307.081.05213.08212.04812.00293.04635-.05487.06269-.08691a1.56438,1.56438,0,0,1,.72444-.72243c.09052-.04391.13005-.03116.15068.07176A3.04333,3.04333,0,0,1,38.342,9.56085Z"/><path class="f" d="M52.47956,9.5474a1.63127,1.63127,0,0,1-.49593,1.14247.62875.62875,0,0,1-.95569.00825,1.53543,1.53543,0,0,1-.46321-1.49252c.02358-.11473.06827-.11781.16041-.07275a1.56809,1.56809,0,0,1,.7198.72714c.01453.0286.014.07961.054.07974.04026.00012.0398-.051.05407-.07956a1.55015,1.55015,0,0,1,.733-.73333c.0797-.03809.12219-.03583.1436.06388A3.2116,3.2116,0,0,1,52.47956,9.5474Z"/><path class="f" d="M38.376,14.46918a1.57038,1.57038,0,0,1-.57692,1.20737.55958.55958,0,0,1-.64314.04851,1.48515,1.48515,0,0,1-.71927-1.10875,1.33672,1.33672,0,0,1,.01213-.48866c.01377-.07587.04458-.09581.12244-.066a1.51889,1.51889,0,0,1,.78009.68242c.01925.03285.02674.08959.06568.09.04572.00051.04326-.05979.05759-.09347a1.53008,1.53008,0,0,1,.68149-.76263c.08775-.04872.12861-.03575.15228.06376A1.96519,1.96519,0,0,1,38.376,14.46918Z"/><path class="f" d="M51.30285,18.41582a2.11691,2.11691,0,0,1,.33963-.42132,1.47053,1.47053,0,0,1,.39381-.263c.26565-.12025.29769-.10325.29263.19551a1.58471,1.58471,0,0,1-.63719,1.2708.64218.64218,0,0,1-.91153-.06874,1.61352,1.61352,0,0,1-.317-1.58343c.03908-.09765.07711-.10253.16-.04981a1.5283,1.5283,0,0,1,.61193.74607C51.25513,18.29237,51.27452,18.34306,51.30285,18.41582Z"/><path class="f" d="M38.3409,11.13254a1.68023,1.68023,0,0,1-.44573,1.09381.64817.64817,0,0,1-1.0105.04814A1.52979,1.52979,0,0,1,36.43043,10.78c.02353-.10936.06611-.109.15081-.06819a1.55186,1.55186,0,0,1,.72852.73745c.01289.026.02631.06806.04511.07145.04636.00836.044-.04523.0574-.0723a1.54583,1.54583,0,0,1,.74315-.74269c.07167-.03365.11457-.03556.13434.05979A2.66834,2.66834,0,0,1,38.3409,11.13254Z"/><path class="f" d="M52.47847,11.1325a1.68024,1.68024,0,0,1-.44573,1.09385.64816.64816,0,0,1-1.0105.04814A1.5298,1.5298,0,0,1,50.568,10.78c.02353-.10935.06609-.109.15081-.0682a1.5519,1.5519,0,0,1,.72853.73744c.01288.026.0263.06807.0451.07146.04637.00836.044-.04523.05741-.0723a1.54581,1.54581,0,0,1,.74314-.74269c.07166-.03364.11458-.03559.13435.05978A2.67317,2.67317,0,0,1,52.47847,11.1325Z"/><path class="f" d="M38.34251,12.688a1.70282,1.70282,0,0,1-.45054,1.12314.649.649,0,0,1-1.01084.042,1.529,1.529,0,0,1-.44932-1.496c.02112-.09563.05652-.108.1402-.06845a1.56542,1.56542,0,0,1,.72775.7189c.01759.03362.01987.09171.0593.09423.04429.00284.04476-.057.06151-.08952a1.52676,1.52676,0,0,1,.6995-.706c.14084-.06811.14507-.0682.17867.0891C38.32143,12.50162,38.3313,12.61059,38.34251,12.688Z"/><path class="f" d="M50.51965,12.711c.00851-.112.02653-.22414.04453-.33683.02064-.12917.07532-.11988.16974-.07331a1.55869,1.55869,0,0,1,.70808.7182c.01528.02994.03283.081.05206.08229.04837.00332.04649-.05468.06281-.08666a1.56171,1.56171,0,0,1,.72414-.72237c.08878-.04292.12672-.03386.14958.0713a1.532,1.532,0,0,1-.44488,1.48417.65294.65294,0,0,1-1.0217-.0413A1.68226,1.68226,0,0,1,50.51965,12.711Z"/><path class="f" d="M37.56078,18.41784a1.66291,1.66291,0,0,1,.47444-.76955L38.046,17.638c.093-.07014.19156-.20568.29245-.16724.0986.03757.102.20271.12421.31824a1.57768,1.57768,0,0,1-.21913,1.12776.70192.70192,0,0,1-1.19813.17485,1.55709,1.55709,0,0,1-.51267-1.22341c.00727-.23727.02947-.24649.25028-.15505a1.55683,1.55683,0,0,1,.6703.54827C37.4849,18.3052,37.51453,18.35041,37.56078,18.41784Z"/><path class="f" d="M50.48763,14.51457a1.56585,1.56585,0,0,1,.05893-.445c.03907-.13978.05777-.14846.18107-.0784a1.52113,1.52113,0,0,1,.65135.73131c.01729.03923.01717.10528.06043.1097.0441.0045.05369-.06041.075-.09648a1.5328,1.5328,0,0,1,.75459-.66711c.097-.03961.13442-.01373.14793.08118A1.5451,1.5451,0,0,1,51.851,15.634a.64742.64742,0,0,1-.97147-.11569A1.66934,1.66934,0,0,1,50.48763,14.51457Z"/><path class="f" d="M51.39519,16.63409a1.5689,1.5689,0,0,1,.669-.61928c.36093-.16282.37576-.14828.35149.23563a1.52733,1.52733,0,0,1-.64715,1.17517.63886.63886,0,0,1-.96836-.13234,1.54357,1.54357,0,0,1-.23915-1.52054c.0384-.10745.08045-.1238.1762-.05718a1.55843,1.55843,0,0,1,.58739.76859C51.34253,16.53356,51.33979,16.59414,51.39519,16.63409Z"/><path class="f" d="M37.47511,16.649a3.18086,3.18086,0,0,1,.1885-.44123,1.54083,1.54083,0,0,1,.49116-.51144c.06617-.04265.09709-.03038.13089.04109a1.58278,1.58278,0,0,1-.32053,1.65883.61613.61613,0,0,1-.76645.09881,1.60962,1.60962,0,0,1-.75623-1.44493c.01621-.14064.03321-.15362.16749-.11112a1.531,1.531,0,0,1,.775.57767C37.41143,16.55238,37.43515,16.59013,37.47511,16.649Z"/><path class="f" d="M38.64481,22.16793a1.57951,1.57951,0,0,1,.35752-.9003c.22029-.24959.20788-.24665.35326.04392a1.56389,1.56389,0,0,1,.0308,1.3008.95629.95629,0,0,1-.09754.18389.61933.61933,0,0,1-.80331.26185,1.54217,1.54217,0,0,1-.97013-1.26c-.02276-.14741-.0034-.16319.1497-.14363a1.4774,1.4774,0,0,1,.85233.422.79277.79277,0,0,1,.08614.12021Z"/><path class="f" d="M50.2233,22.19032a2.44861,2.44861,0,0,1,.38414-.32291,1.52134,1.52134,0,0,1,.55312-.21c.18312-.0303.2117-.00179.18213.18015a1.58614,1.58614,0,0,1-.55677.97518,1.20342,1.20342,0,0,1-.519.279.617.617,0,0,1-.692-.29139,1.59112,1.59112,0,0,1,.01194-1.6419c.05588-.081.09141-.08.15775-.01573a1.51753,1.51753,0,0,1,.44263.84284C50.19847,22.04794,50.20922,22.11043,50.2233,22.19032Z"/><path class="f" d="M37.89158,20.30324a2.97789,2.97789,0,0,1,.1396-.40522,1.50125,1.50125,0,0,1,.47006-.568c.06647-.04844.0972-.03491.13552.03351a1.586,1.586,0,0,1-.20665,1.66361.62222.62222,0,0,1-.80957.13777,1.61061,1.61061,0,0,1-.80021-1.42141c.00773-.10395.05786-.09837.12632-.082a1.5386,1.5386,0,0,1,.83926.53366c.02541.03048.04876.0627.0744.093C37.86593,20.29474,37.87724,20.29657,37.89158,20.30324Z"/><path class="f" d="M50.973,20.326a1.57349,1.57349,0,0,1,.71056-.58679c.4164-.15624.38278-.12434.34286.2516a1.50335,1.50335,0,0,1-.70594,1.12371.64415.64415,0,0,1-.97949-.19858,1.5446,1.5446,0,0,1-.1324-1.52017c.04843-.11239.09325-.11306.18284-.04317a1.55031,1.55031,0,0,1,.53565.80477C50.9413,20.20476,50.9532,20.25284,50.973,20.326Z"/><path class="f" d="M37.835,8.205a1.08286,1.08286,0,0,1-.37016.86334.1628.1628,0,0,1-.2353.001.99449.99449,0,0,1-.36286-.75511,1.39878,1.39878,0,0,1,.40319-1.12747c.05783-.05965.09306-.06184.15268-.00116A1.4443,1.4443,0,0,1,37.835,8.205Z"/><path class="f" d="M52.00229,8.20258a1.14046,1.14046,0,0,1-.21305.70305c-.24533.29342-.30346.29667-.5546-.005a1.02308,1.02308,0,0,1-.20392-.62745,1.41841,1.41841,0,0,1,.38234-1.0634c.08261-.09039.13088-.07635.20594.00518A1.4569,1.4569,0,0,1,52.00229,8.20258Z"/><path class="e" d="M44.44352,23.6265c.36192,0,.72386.00175,1.08576-.00136.08041-.00069.10152.01737.05254.08711-.04552.06483-.08832.13168-.136.19488a.36146.36146,0,0,1-.40917.15135,2.98359,2.98359,0,0,0-1.21025.00088.47622.47622,0,0,1-.55692-.36382c-.01983-.09222.04564-.0681.08827-.06826C43.71968,23.62593,44.0816,23.62651,44.44352,23.6265Z"/><path class="e" d="M44.39709,23.55375c-.3529,0-.70579.00053-1.05868-.00089-.0321-.00014-.07565.0192-.09487-.019-.01837-.0365.01884-.06338.03723-.09047a.5638.5638,0,0,1,.59678-.29481,5.47289,5.47289,0,0,0,1.24922-.0048.53546.53546,0,0,1,.43909.36309c.01.07666-.05094.0452-.08028.04538C45.12276,23.55455,44.75992,23.55375,44.39709,23.55375Z"/><path class="e" d="M44.35011,28.31137c-.18856,0-.37722-.0034-.56565.00161-.07817.00207-.10361-.02227-.10047-.10079.00574-.14374.00463-.288.00037-.43182-.00215-.07253.01318-.1055.09643-.10459q.57306.00622,1.14624.00021c.078-.00073.10358.02224.10045.10077-.00574.14374-.007.28815.00032.43175.00459.09023-.03253.10647-.112.10443C44.72732,28.3081,44.53868,28.31139,44.35011,28.31137Z"/><path class="e" d="M43.531,22.62365a.64085.64085,0,0,0,.0004.07453.41411.41411,0,0,1-.21563.4823c-.10341.05218-.14189.17581-.19726.27491a.1371.1371,0,0,1-.13951.08351,2.4311,2.4311,0,0,0-.31211.01278c-.07974.00787-.11-.01772-.10126-.09843a1.149,1.149,0,0,1,.29575-.69984,4.65965,4.65965,0,0,1,.59185-.499c.062-.04623.0831-.03662.081.04112-.00292.10929-.00074.21872-.00074.3281Z"/><path class="e" d="M45.24154,24.52041c.0025.24057.00242.24036-.21925.32545a2.24337,2.24337,0,0,0-.65957.3631.09382.09382,0,0,1-.14864-.00561c-.02515-.0238-.0524-.04542-.077-.06977-.18832-.18671-.181-.25187.03763-.39879a4.00433,4.00433,0,0,1,.96181-.45582c.0841-.02849.1162-.01465.10606.078A1.51094,1.51094,0,0,0,45.24154,24.52041Z"/><path class="e" d="M44.49686,26.75057c.02127.01768.04071.032.058.04856a.607.607,0,0,1,.12233.21715c.03506.08208.01579.12165-.06225.16155-.25954.13273-.52526.25139-.7917.36907-.07827.03458-.09941.02189-.10311-.06623-.01493-.35612-.01781-.35608.312-.49461a2.88238,2.88238,0,0,0,.38447-.19066C44.4416,26.78021,44.46767,26.76681,44.49686,26.75057Z"/><path class="e" d="M45.02,24.19208c.00308.031-.01649.03142-.02826.03467a3.05324,3.05324,0,0,0-.92384.462c-.13336.09265-.1372.08712-.1539-.07525-.02914-.28329.06151-.39682.34218-.42107A6.94344,6.94344,0,0,1,45.02,24.19208Z"/><path class="e" d="M44.33785,25.33933a2.49128,2.49128,0,0,1,.81456-.41947c.0829-.01767.112-.0057.11338.08707.00344.23848.00892.2417-.21764.3017a.88858.88858,0,0,0-.3779.194c-.05825.05264-.09811.0438-.14472-.01073A.652.652,0,0,0,44.33785,25.33933Z"/><path class="e" d="M39.12793,10.99287a3.47885,3.47885,0,0,0,.69355.19708,2.1457,2.1457,0,0,0,.67183-.18173.27559.27559,0,0,1-.12281.13194,1.41229,1.41229,0,0,1-.34439.174,7.05836,7.05836,0,0,0-.794.29027c-.05607.02662-.14865.06733-.17453.00779-.03029-.06967.06894-.08729.1229-.11265.08965-.04211.18221-.078.272-.11984.08584-.04.07994-.08772.00844-.14073A1.15771,1.15771,0,0,1,39.12793,10.99287Z"/><path class="e" d="M43.74238,26.68547c0-.267,0-.2642.27221-.268.15568-.0022.30609-.01248.3906.16308.0285.0592.02869.08486-.03054.11159a5.48511,5.48511,0,0,1-.515.22447c-.08928.02978-.13.0219-.11823-.08287A1.33911,1.33911,0,0,0,43.74238,26.68547Z"/><path class="e" d="M45.2561,25.65173a1.7968,1.7968,0,0,1-.00177.22329c-.01363.10813-.07056.13891-.166.09246a2.66186,2.66186,0,0,1-.3755-.31447c-.02507-.01843-.02126-.04364.004-.06073a1.06951,1.06951,0,0,1,.43815-.21077c.088-.01291.11625.023.10912.10621-.00466.0543-.00088.10931-.00088.164Z"/><path class="e" d="M44.07538,27.55567c.21871-.09847.43555-.20146.65695-.29343.10526-.04373.13445.06013.1673.12279.0815.15548.05335.197-.1179.19715q-.34844.00026-.69687,0Z"/><path class="e" d="M44.14974,26.28969c-.13448,0-.24547.00238-.35631-.00064-.12123-.00331-.06231-.09824-.07113-.15457-.012-.07652.04233-.07454.09459-.06425A.5298.5298,0,0,1,44.14974,26.28969Z"/><path class="d" d="M39.5436,23.85707l.00966.02015-.02023-.00968Z"/><path class="d" d="M49.32736,23.8673l-.01989.00995.00994-.01975Z"/></g><path class="g" d="M13.8403,11.76341a1.38691,1.38691,0,0,1,.417,1.11329v1.80566a.14915.14915,0,0,1-.042.10547.14152.14152,0,0,1-.1084.04492h-.708a.15417.15417,0,0,1-.11035-.042.14009.14009,0,0,1-.04492-.1084V12.907a.60276.60276,0,0,0-.67871-.68457h-.38965a3.68123,3.68123,0,0,0-.08984.88281l.04785,1.57715a.14009.14009,0,0,1-.04492.1084.15651.15651,0,0,1-.11133.042l-1.27149-.00586a.15647.15647,0,0,1-.11132-.042.14149.14149,0,0,1-.04493-.1084v-.47363a.14149.14149,0,0,1,.04493-.1084.16083.16083,0,0,1,.11132-.042h.48536v-.94141a3.24293,3.24293,0,0,1,.09082-.88867h-.3545a.15647.15647,0,0,1-.11132-.042A.14136.14136,0,0,1,10.771,12.073v-.51661a.14136.14136,0,0,1,.04493-.10742.15647.15647,0,0,1,.11132-.042H12.601A1.86691,1.86691,0,0,1,13.8403,11.76341Z"/><path class="g" d="M14.98093,14.79076a.14083.14083,0,0,1-.0459-.1084v-3.126a.13876.13876,0,0,1,.0459-.10742.15254.15254,0,0,1,.11035-.042h.75a.14382.14382,0,0,1,.15039.14941v3.126a.15349.15349,0,0,1-.042.10547.14153.14153,0,0,1-.1084.04492h-.75A.15254.15254,0,0,1,14.98093,14.79076Z"/><path class="g" d="M18.37057,14.79076a.14009.14009,0,0,1-.04492-.1084V12.907a.60276.60276,0,0,0-.67871-.68457h-.91211a.14205.14205,0,0,1-.10449-.04492.14054.14054,0,0,1-.04492-.10449v-.51661a.138.138,0,0,1,.04492-.10742.14687.14687,0,0,1,.10449-.042h.94824a1.91931,1.91931,0,0,1,1.24512.3418,1.37977,1.37977,0,0,1,.41113,1.12207v1.81152a.15344.15344,0,0,1-.042.10547.14152.14152,0,0,1-.1084.04492h-.708A.15258.15258,0,0,1,18.37057,14.79076Z"/><path class="g" d="M20.03854,13.36888a.14151.14151,0,0,1-.04492-.10839V11.55638a.138.138,0,0,1,.04492-.10742.15651.15651,0,0,1,.11133-.042h.75a.14376.14376,0,0,1,.14941.14941v1.70411a.14914.14914,0,0,1-.042.10546.138.138,0,0,1-.10742.04493h-.75A.15652.15652,0,0,1,20.03854,13.36888Z"/><path class="g" d="M25.59714,11.449a.14272.14272,0,0,1,.042.10742v1.57227a1.75889,1.75889,0,0,1-.24024.92676,1.61781,1.61781,0,0,1-.65332.61523,1.89983,1.89983,0,0,1-.918.21h-.57618a1.80447,1.80447,0,0,1-.83984-.18554,1.329,1.329,0,0,1-.54883-.50391,1.34962,1.34962,0,0,1-.18945-.70215V11.55638a.138.138,0,0,1,.04492-.10742.15648.15648,0,0,1,.11133-.042h.62988a.14382.14382,0,0,1,.15039.14941l.00586,1.44043a.55468.55468,0,0,0,.45606-.249,1.22539,1.22539,0,0,0,.13183-.627v-.55176a.15826.15826,0,0,1,.04492-.11719.14946.14946,0,0,1,.11133-.04492h.62305a.14009.14009,0,0,1,.10547.04785.16088.16088,0,0,1,.04492.11426v.56348a1.56416,1.56416,0,0,1-.35352,1.08007,1.49057,1.49057,0,0,1-1.002.46192.76778.76778,0,0,0,.30273.29394.85915.85915,0,0,0,.417.10254h.13769a1.19225,1.19225,0,0,0,.55176-.126.95756.95756,0,0,0,.38477-.34864.92306.92306,0,0,0,.13769-.498v-1.542a.14272.14272,0,0,1,.042-.10742.14494.14494,0,0,1,.1084-.042h.62988A.14273.14273,0,0,1,25.59714,11.449Z"/><path class="g" d="M28.50046,14.79076a.14875.14875,0,0,1-.042-.1084V12.907a.60207.60207,0,0,0-.67773-.68457H26.41257a.15258.15258,0,0,1-.11036-.042.13878.13878,0,0,1-.04589-.10742v-.51661a.13878.13878,0,0,1,.04589-.10742.15258.15258,0,0,1,.11036-.042H27.811a1.8405,1.8405,0,0,1,1.24512.36621,1.4404,1.4404,0,0,1,.417,1.13965v1.76953a.14349.14349,0,0,1-.04492.1084.15648.15648,0,0,1-.11133.042h-.708A.14644.14644,0,0,1,28.50046,14.79076Zm-2.19825,0a.14086.14086,0,0,1-.04589-.1084V12.93041a.13875.13875,0,0,1,.04589-.10742.15254.15254,0,0,1,.11036-.042h.708a.14384.14384,0,0,1,.15039.14942v1.75195a.15344.15344,0,0,1-.042.10547.14152.14152,0,0,1-.1084.04492h-.708A.15258.15258,0,0,1,26.30221,14.79076Z"/><path class="g" d="M34.59421,11.76341a1.38691,1.38691,0,0,1,.417,1.11329v1.80566a.14915.14915,0,0,1-.042.10547.14153.14153,0,0,1-.1084.04492h-.708a.15415.15415,0,0,1-.11035-.042.14009.14009,0,0,1-.04492-.1084V12.907a.60276.60276,0,0,0-.67871-.68457h-.38965a3.68173,3.68173,0,0,0-.08985.88281l.04786,1.57715a.14007.14007,0,0,1-.04493.1084.15647.15647,0,0,1-.11132.042l-1.27149-.00586a.15651.15651,0,0,1-.11133-.042.14152.14152,0,0,1-.04492-.1084v-.47363a.14152.14152,0,0,1,.04492-.1084.16087.16087,0,0,1,.11133-.042h.48535v-.94141a3.24332,3.24332,0,0,1,.09082-.88867h-.35449a.15651.15651,0,0,1-.11133-.042.14139.14139,0,0,1-.04492-.10742v-.51661a.14139.14139,0,0,1,.04492-.10742.15651.15651,0,0,1,.11133-.042H33.355A1.86691,1.86691,0,0,1,34.59421,11.76341Z"/><path class="g" d="M37.75046,14.78783a.151.151,0,0,1-.11133.04492H35.71335a.15648.15648,0,0,1-.11133-.042.14349.14349,0,0,1-.04492-.1084v-.51562a.145.145,0,0,1,.04492-.1084.1608.1608,0,0,1,.11133-.042h.99609l-.05371-1.18164a1.07086,1.07086,0,0,0-.12012-.5039.41089.41089,0,0,0-.37207-.15625h-.30566a.14418.14418,0,0,1-.10547-.04492.14209.14209,0,0,1-.04492-.1045v-.5039a.15488.15488,0,0,1,.042-.11133.14009.14009,0,0,1,.1084-.04492h.32324a1.57842,1.57842,0,0,1,1.14356.35351,1.64517,1.64517,0,0,1,.38671,1.13379l.07813,1.83008A.12557.12557,0,0,1,37.75046,14.78783Z"/><path class="g" d="M41.37643,11.77318a1.44685,1.44685,0,0,1,.38379,1.09766v1.81152a.14915.14915,0,0,1-.042.10547.138.138,0,0,1-.10742.04492H39.97214a.14209.14209,0,0,1-.1045-.04492.14418.14418,0,0,1-.04492-.10547v-.51562a.14152.14152,0,0,1,.04492-.1084.15114.15114,0,0,1,.1045-.042h.77441V12.91869a.71932.71932,0,0,0-.15039-.48633.4914.4914,0,0,0-.38965-.17383h-.46777l-.50977,2.418a.18771.18771,0,0,1-.04883.11133.138.138,0,0,1-.10742.04492h-.69043a.14728.14728,0,0,1-.11035-.04492.11891.11891,0,0,1-.0332-.11133l.58789-2.41211h-.39649a.138.138,0,0,1-.10742-.04492.15257.15257,0,0,1-.042-.11035v-.55274a.138.138,0,0,1,.04492-.10742.14691.14691,0,0,1,.10449-.042H40.3569A1.41543,1.41543,0,0,1,41.37643,11.77318Z"/><path class="g" d="M45.6362,14.70677a.12688.12688,0,0,1-.03516.08692.1183.1183,0,0,1-.09082.03906h-.7373a.20146.20146,0,0,1-.16211-.05664c-.03223-.03809-.04981-.05957-.05469-.06348l-1.0498-1.51757a.67842.67842,0,0,0-.20411.33007,1.61348,1.61348,0,0,0-.04785.39551v.75a.15826.15826,0,0,1-.04492.11719.14944.14944,0,0,1-.11133.04492h-.58789a.13808.13808,0,0,1-.10449-.04785.16088.16088,0,0,1-.04492-.11426V13.9265a2.11018,2.11018,0,0,1,.13769-.82812,1.52335,1.52335,0,0,1,.52246-.59961l-.6123-.88184a.12517.12517,0,0,1-.03027-.084.11761.11761,0,0,1,.03906-.08692.11918.11918,0,0,1,.08691-.03906h.708a.197.197,0,0,1,.12891.03613.419.419,0,0,1,.08691.09571L44.395,12.907a.533.533,0,0,0,.21289-.26465,1.17415,1.17415,0,0,0,.04492-.3418v-.73144a.16435.16435,0,0,1,.042-.11719.138.138,0,0,1,.10742-.04492h.62989a.14493.14493,0,0,1,.11133.04785.16088.16088,0,0,1,.04492.11426v.75586a1.58546,1.58546,0,0,1-.15235.69922,1.43746,1.43746,0,0,1-.55566.5664l.73242,1.03223A.15082.15082,0,0,1,45.6362,14.70677Z"/><path class="g" d="M11.185,23.79076a.14875.14875,0,0,1-.042-.1084V21.907a.60207.60207,0,0,0-.67773-.68457H9.09714a.15258.15258,0,0,1-.11036-.042.13878.13878,0,0,1-.04589-.10742v-.51661a.13878.13878,0,0,1,.04589-.10742.15258.15258,0,0,1,.11036-.042h1.39843a1.8405,1.8405,0,0,1,1.24512.36621,1.4404,1.4404,0,0,1,.417,1.13965v1.76953a.14349.14349,0,0,1-.04492.1084.15648.15648,0,0,1-.11133.042h-.708A.14644.14644,0,0,1,11.185,23.79076Zm-2.19825,0a.14086.14086,0,0,1-.04589-.1084v-1.752a.13875.13875,0,0,1,.04589-.10742.15254.15254,0,0,1,.11036-.042h.708a.14384.14384,0,0,1,.15039.14942v1.752a.15344.15344,0,0,1-.042.10547.14152.14152,0,0,1-.1084.04492h-.708A.15258.15258,0,0,1,8.98678,23.79076Z"/><path class="g" d="M16.03268,23.70677a.12691.12691,0,0,1-.03515.08692.11833.11833,0,0,1-.09082.03906H15.1694a.20147.20147,0,0,1-.16211-.05664c-.03222-.03809-.0498-.05957-.05468-.06348L13.9028,22.19506a.6784.6784,0,0,0-.2041.33007,1.61348,1.61348,0,0,0-.04785.39551v.75a.15826.15826,0,0,1-.04492.11719.14946.14946,0,0,1-.11133.04492h-.58789a.13811.13811,0,0,1-.1045-.04785.16088.16088,0,0,1-.04492-.11426V22.9265a2.11,2.11,0,0,1,.1377-.82812,1.52319,1.52319,0,0,1,.52246-.59961l-.61231-.88184a.12522.12522,0,0,1-.03027-.084.11765.11765,0,0,1,.03906-.08692.11918.11918,0,0,1,.08692-.03906h.708a.197.197,0,0,1,.1289.03613.41927.41927,0,0,1,.08692.09571l.96679,1.36816a.533.533,0,0,0,.21289-.26465,1.17415,1.17415,0,0,0,.04492-.3418v-.73144a.16436.16436,0,0,1,.042-.11719.138.138,0,0,1,.10742-.04492h.62988a.14492.14492,0,0,1,.11133.04785.16088.16088,0,0,1,.04492.11426v.75586a1.58559,1.58559,0,0,1-.15234.69922,1.43742,1.43742,0,0,1-.55567.5664l.73243,1.03223A.1509.1509,0,0,1,16.03268,23.70677Z"/><path class="g" d="M16.70846,23.79076a.14086.14086,0,0,1-.04589-.1084v-3.126a.13878.13878,0,0,1,.04589-.10742.15258.15258,0,0,1,.11036-.042h.75a.14384.14384,0,0,1,.15039.14941v3.126a.15345.15345,0,0,1-.042.10547.14151.14151,0,0,1-.10839.04492h-.75A.15258.15258,0,0,1,16.70846,23.79076Z"/><path class="g" d="M19.21335,21.47435c.00879.16406.05664.26074.14453.28809l.168.06055a.14171.14171,0,0,1,.07519.06835.23983.23983,0,0,1,.02637.11133l.00586.30567a.15784.15784,0,0,1-.08106.1416.29507.29507,0,0,1-.19433.03906l-.2461-.03613a.76476.76476,0,0,1-.51562-.333,1.19617,1.19617,0,0,1-.2041-.7168v-.84668a.20125.20125,0,0,1,.05078-.10742.1264.1264,0,0,1,.09863-.042h1.21192a1.55185,1.55185,0,0,1,1.17285.4043,1.7084,1.7084,0,0,1,.42383,1.13769c.0039.04.00586.0957.00586.168a1.89407,1.89407,0,0,1-.38379,1.2627,1.51414,1.51414,0,0,1-1.21875.45312H18.61374a.15648.15648,0,0,1-.11133-.042.14349.14349,0,0,1-.04492-.1084V23.1306a.15346.15346,0,0,1,.15625-.15625h1.11035a.71872.71872,0,0,0,.501-.17676.70136.70136,0,0,0,.21289-.501c.0039-.04.00586-.09961.00586-.17969,0-.07617-.002-.13379-.00586-.17383a.67887.67887,0,0,0-.207-.501.72427.72427,0,0,0-.50684-.17774h-.51074Z"/><path class="g" d="M23.56686,23.79076a.14009.14009,0,0,1-.04492-.1084V21.907a.60276.60276,0,0,0-.67871-.68457h-.91211a.14205.14205,0,0,1-.10449-.04492.14054.14054,0,0,1-.04492-.10449v-.51661a.138.138,0,0,1,.04492-.10742.14687.14687,0,0,1,.10449-.042h.94824a1.91931,1.91931,0,0,1,1.24512.3418,1.3798,1.3798,0,0,1,.41113,1.12207v1.81152a.15349.15349,0,0,1-.042.10547.14152.14152,0,0,1-.1084.04492h-.708A.15257.15257,0,0,1,23.56686,23.79076Z"/><path class="g" d="M27.45651,23.79076a.14878.14878,0,0,1-.042-.1084V21.907a.60208.60208,0,0,0-.67774-.68457H25.36862a.15257.15257,0,0,1-.11035-.042.13879.13879,0,0,1-.0459-.10742v-.51661a.13879.13879,0,0,1,.0459-.10742.15257.15257,0,0,1,.11035-.042h1.39844a1.8405,1.8405,0,0,1,1.24512.36621,1.4404,1.4404,0,0,1,.417,1.13965v1.76953a.14353.14353,0,0,1-.04492.1084.15651.15651,0,0,1-.11133.042h-.708A.14644.14644,0,0,1,27.45651,23.79076Zm-2.19824,0a.14086.14086,0,0,1-.0459-.1084v-1.752a.13876.13876,0,0,1,.0459-.10742.15253.15253,0,0,1,.11035-.042h.708a.14384.14384,0,0,1,.15039.14942v1.752a.15349.15349,0,0,1-.042.10547.14153.14153,0,0,1-.1084.04492h-.708A.15257.15257,0,0,1,25.25827,23.79076Z"/><path class="g" d="M32.53952,20.782a1.633,1.633,0,0,1,.3418,1.13086,1.76617,1.76617,0,0,1-.4502,1.248,2.38513,2.38513,0,0,1-1.12793.67773l-.24609.07227a.117.117,0,0,1-.11133-.042.17047.17047,0,0,1-.05078-.12011v-.60645a.16985.16985,0,0,1,.042-.11035.29348.29348,0,0,1,.1084-.08106l.1914-.07812a.96682.96682,0,0,0,.43555-.32129,1.00542,1.00542,0,0,0,.15918-.6084.80821.80821,0,0,0-.13281-.52832.64.64,0,0,0-.49121-.15039h-.15625l-.80469-.00586a.14421.14421,0,0,1-.10742-.042.14271.14271,0,0,1-.042-.10742V19.7224a.138.138,0,0,1,.04492-.10742.14853.14853,0,0,1,.10449-.042H30.895a.14382.14382,0,0,1,.15039.14941V20.407h.37207A1.45817,1.45817,0,0,1,32.53952,20.782Z"/><path class="g" d="M33.48386,22.36888a.14148.14148,0,0,1-.04493-.10839V20.55638a.138.138,0,0,1,.04493-.10742.15647.15647,0,0,1,.11132-.042h.75a.14376.14376,0,0,1,.14942.14941v1.70411a.14914.14914,0,0,1-.042.10546.138.138,0,0,1-.10743.04493h-.75A.15648.15648,0,0,1,33.48386,22.36888Z"/><path class="g" d="M35.22409,23.79076a.14086.14086,0,0,1-.0459-.1084v-3.126a.13879.13879,0,0,1,.0459-.10742.15257.15257,0,0,1,.11035-.042h1.416a1.888,1.888,0,0,1,1.25683.35059,1.45514,1.45514,0,0,1,.40528,1.15527v1.76953a.14916.14916,0,0,1-.042.10547.13941.13941,0,0,1-.10742.04492h-.708a.15486.15486,0,0,1-.11132-.042.14007.14007,0,0,1-.04493-.1084V21.907a.60246.60246,0,0,0-.67773-.68457h-.52832v2.46a.15349.15349,0,0,1-.042.10547.14153.14153,0,0,1-.1084.04492h-.708A.15257.15257,0,0,1,35.22409,23.79076Z"/><path class="g" d="M42.52878,20.782a1.633,1.633,0,0,1,.34179,1.13086,1.7662,1.7662,0,0,1-.45019,1.248,2.38518,2.38518,0,0,1-1.12793.67773l-.24609.07227a.117.117,0,0,1-.11133-.042.17047.17047,0,0,1-.05078-.12011v-.60645a.16985.16985,0,0,1,.042-.11035.29348.29348,0,0,1,.1084-.08106l.1914-.07812a.96693.96693,0,0,0,.43555-.32129,1.00542,1.00542,0,0,0,.15918-.6084.80821.80821,0,0,0-.13281-.52832.64.64,0,0,0-.49121-.15039H41.0405l-.80469-.00586a.14419.14419,0,0,1-.10742-.042.14272.14272,0,0,1-.042-.10742V19.7224a.138.138,0,0,1,.04493-.10742.14853.14853,0,0,1,.10449-.042h.64844a.14384.14384,0,0,1,.15039.14941V20.407h.37207A1.45817,1.45817,0,0,1,42.52878,20.782Z"/><path class="g" d="M47.31686,20.449a.14273.14273,0,0,1,.042.10742v1.57227a1.75889,1.75889,0,0,1-.24024.92676,1.61781,1.61781,0,0,1-.65332.61523,1.89986,1.89986,0,0,1-.918.21h-.57617a1.80447,1.80447,0,0,1-.83984-.18554,1.32885,1.32885,0,0,1-.54883-.50391A1.34962,1.34962,0,0,1,43.393,22.489V20.55638A.138.138,0,0,1,43.438,20.449a.15647.15647,0,0,1,.11132-.042h.62989a.14382.14382,0,0,1,.15039.14941l.00586,1.44043a.55465.55465,0,0,0,.456-.249,1.22538,1.22538,0,0,0,.13184-.62695v-.55176a.15826.15826,0,0,1,.04492-.11719.14944.14944,0,0,1,.11133-.04492h.623a.14007.14007,0,0,1,.10546.04785.16084.16084,0,0,1,.04493.11426v.56348a1.56421,1.56421,0,0,1-.35352,1.08007,1.49059,1.49059,0,0,1-1.002.46192.76765.76765,0,0,0,.30273.29394.85914.85914,0,0,0,.417.10254h.1377a1.19228,1.19228,0,0,0,.55176-.126.95747.95747,0,0,0,.38476-.34864.923.923,0,0,0,.1377-.498v-1.542a.14272.14272,0,0,1,.042-.10742.14494.14494,0,0,1,.1084-.042h.62988A.14269.14269,0,0,1,47.31686,20.449Z"/><rect class="h" x="5.66779" y="40.31704" width="44.87535" height="2.55319" rx="1.19469"/><rect class="h" x="5.66779" y="34.39214" width="44.87535" height="2.55319" rx="1.19469"/><rect class="h" x="5.66779" y="46.70001" width="44.87535" height="2.55319" rx="1.19469"/><rect class="h" x="31.64871" y="53.08299" width="18.89442" height="2.55319" rx="1.27659"/><rect class="i" x="21.37388" width="14.03841" height="5.61702"/></svg>