<svg xmlns="http://www.w3.org/2000/svg" xmlns:xlink="http://www.w3.org/1999/xlink" viewBox="0 0 57.98938 59.97492"><defs><style>.a,.e,.l,.m,.n{fill:none;}.b{isolation:isolate;}.c{clip-path:url(#a);}.d{fill:#b3f4ff;}.e{stroke:#575756;}.e,.j,.k,.l,.m,.n{stroke-miterlimit:10;}.e,.n{stroke-width:2.95715px;}.e,.m,.n{opacity:0.31;}.f{mix-blend-mode:soft-light;fill:url(#b);}.g,.h{fill:#34353a;}.g{opacity:0.12;}.h{opacity:0.22;}.i,.j,.k{fill:#a2b4bc;}.j,.k,.m{stroke:#6d8393;}.j,.k{stroke-opacity:0.3;}.j{stroke-width:2.0236px;}.k{stroke-width:1.70683px;}.l{stroke:#a2b4bc;stroke-width:7.88574px;}.m{stroke-width:1.97143px;}.n{stroke:#88939e;}.o{fill:#9ad4ea;}.p{fill:#7ec0ce;}.q{fill:#83bacc;}.r{fill:#3c5860;}.s{fill:#fff;opacity:0.5;}</style><clipPath id="a"><rect class="a" x="89.58671" y="95.2576" width="384" height="216" transform="translate(563.17341 406.5152) rotate(-180)"/></clipPath><linearGradient id="b" x1="576.3491" y1="61.16423" x2="764.375" y2="61.16423" gradientTransform="matrix(1, 0, 0, -1, -685.06402, 122.32846)" gradientUnits="userSpaceOnUse"><stop offset="0" stop-color="#fff" stop-opacity="0"/><stop offset="1" stop-color="#fff"/></linearGradient></defs><g class="b"><g class="c"><rect class="d" x="20.40449" y="26.10766" width="137.31761" height="119.52986" transform="translate(178.12659 171.74518) rotate(-180)"/><rect class="d" x="-125.70522" y="26.21096" width="133.80852" height="116.47532" transform="translate(-117.60193 168.89725) rotate(-180)"/><polyline class="e" points="150.031 269.964 150.031 29.365 -122.406 29.365 -122.406 273.234"/><rect class="f" x="-108.71492" y="55.38617" width="188.0259" height="11.55611" transform="translate(-29.40393 122.32846) rotate(-180)"/><polygon class="g" points="134.679 30.117 102.968 272.48 56.464 272.48 90.44 30.117 134.679 30.117"/><polygon class="h" points="41.112 30.117 9.402 272.48 -88.39 272.48 -54.414 30.117 41.112 30.117"/><rect class="i" x="7.21009" y="-128.62592" width="16.86206" height="299.94033" transform="translate(36.98537 5.70312) rotate(90)"/><polyline class="j" points="24.926 11.748 10.339 11.748 10.339 289.846 24.926 289.846"/><polyline class="k" points="4.516 289.72 14.893 289.72 14.893 12.125 4.516 12.125"/><line class="k" x1="4.51555" y1="27.48129" x2="4.51555" y2="269.96375"/><polyline class="l" points="184.007 299.867 184.007 -4.733 -158.14 -4.733 -158.14 298.906"/><rect class="i" x="-155.24782" y="-1.02475" width="335.60533" height="12.59774" transform="translate(25.10968 10.54823) rotate(-180)"/><polyline class="m" points="167.145 299.867 167.145 11.81 -140.147 11.81 -140.147 299.867"/><polyline class="n" points="178.385 298.916 178.385 -1.025 -153.275 -1.025 -153.275 298.916"/><line class="j" x1="24.82388" y1="269.96375" x2="24.82388" y2="27.48129"/></g><rect class="o" x="0.25034" y="2.23569" width="57.48926" height="57.48926"/><path class="p" d="M57.48936,2.48547V59.47491H.5V2.48547H57.48936m.5-.5H0V59.97491H57.98936V1.98547Z"/><rect class="q" x="8.15953" y="30.04358" width="41.61725" height="2.55319" rx="0.98443"/><rect class="q" x="8.15953" y="36.42656" width="41.61725" height="2.55319" rx="0.98443"/><rect class="q" x="8.15953" y="49.22523" width="41.61725" height="2.55319" rx="0.98443"/><rect class="q" x="24.51953" y="42.80953" width="25.25725" height="2.55319" rx="1.27659"/><path class="r" d="M25.75034,10.15805a1.38689,1.38689,0,0,1,.417,1.11328V13.077a.14914.14914,0,0,1-.042.10546.14149.14149,0,0,1-.1084.04493h-.708a.15418.15418,0,0,1-.11036-.042.14007.14007,0,0,1-.04492-.10839V11.3016A.60276.60276,0,0,0,24.475,10.617H24.0853a3.68182,3.68182,0,0,0-.08984.88282l.04785,1.57715a.14007.14007,0,0,1-.04492.10839.15649.15649,0,0,1-.11133.042l-1.27148-.00586a.15649.15649,0,0,1-.11133-.042.14147.14147,0,0,1-.04492-.10839V12.5975a.14151.14151,0,0,1,.04492-.1084.16084.16084,0,0,1,.11133-.042h.48535v-.9414a3.24335,3.24335,0,0,1,.09082-.88868h-.35449a.15648.15648,0,0,1-.11133-.042.14132.14132,0,0,1-.04492-.10742V9.951a.14132.14132,0,0,1,.04492-.10742.15649.15649,0,0,1,.11133-.042h1.67382A1.86689,1.86689,0,0,1,25.75034,10.15805Z"/><path class="r" d="M29.06577,10.1766a1.633,1.633,0,0,1,.3418,1.13086,1.76615,1.76615,0,0,1-.4502,1.248,2.38506,2.38506,0,0,1-1.12793.67774l-.24609.07226a.117.117,0,0,1-.11133-.042.17048.17048,0,0,1-.05078-.12012V12.537a.16986.16986,0,0,1,.042-.11036.29354.29354,0,0,1,.1084-.08105l.19141-.07812a.96692.96692,0,0,0,.43554-.32129,1.00544,1.00544,0,0,0,.15918-.6084.80819.80819,0,0,0-.13281-.52832.64.64,0,0,0-.49121-.15039h-.15625l-.80469-.00586a.14421.14421,0,0,1-.10742-.042.14273.14273,0,0,1-.042-.10743V9.117a.138.138,0,0,1,.04492-.10742.14853.14853,0,0,1,.10449-.042h.64844a.14382.14382,0,0,1,.15039.14941V9.8016h.37207A1.45816,1.45816,0,0,1,29.06577,10.1766Z"/><path class="r" d="M29.92026,13.18246a.14417.14417,0,0,1-.04492-.10546v-.51563a.14153.14153,0,0,1,.04492-.1084.15118.15118,0,0,1,.1045-.042h1.50683V11.3016a.59947.59947,0,0,0-.67871-.67773H30.0853a.1423.1423,0,0,1-.1084-.0459.15671.15671,0,0,1-.042-.11035V9.951a.14136.14136,0,0,1,.04492-.10742.14917.14917,0,0,1,.10547-.042h.79785a1.957,1.957,0,0,1,1.26856.35352,1.40482,1.40482,0,0,1,.42969,1.14648V12.411h.21a.14382.14382,0,0,1,.14941.15039V13.077a.14914.14914,0,0,1-.042.10546.138.138,0,0,1-.10742.04493h-2.7666A.14206.14206,0,0,1,29.92026,13.18246Z"/><path class="r" d="M34.94468,13.26352a.18044.18044,0,0,1-.04785-.12012V12.537a.18714.18714,0,0,1,.042-.11328.23571.23571,0,0,1,.1084-.07813l.18554-.07812a.88226.88226,0,0,0,.60059-.92969.78968.78968,0,0,0-.13574-.52832.65063.65063,0,0,0-.49414-.15039H33.60679a.15506.15506,0,0,1-.15625-.15528V9.94516a.129.129,0,0,1,.04883-.10156.15545.15545,0,0,1,.10742-.042h1.80664a1.45817,1.45817,0,0,1,1.12207.375,1.633,1.633,0,0,1,.34179,1.13086,1.76619,1.76619,0,0,1-.45019,1.248,2.38511,2.38511,0,0,1-1.12793.67774l-.24609.07226A.11079.11079,0,0,1,34.94468,13.26352ZM33.49644,14.3309a.13873.13873,0,0,1-.0459-.10742V11.325a.13874.13874,0,0,1,.0459-.10742.15254.15254,0,0,1,.11035-.042h.68457a.14376.14376,0,0,1,.14941.14941v2.89844a.14529.14529,0,0,1-.14941.15039h-.68457A.1533.1533,0,0,1,33.49644,14.3309Z"/><path class="r" d="M40.891,10.1766a1.633,1.633,0,0,1,.34179,1.13086,1.76619,1.76619,0,0,1-.45019,1.248,2.38511,2.38511,0,0,1-1.12793.67774l-.2461.07226a.117.117,0,0,1-.11132-.042.17048.17048,0,0,1-.05078-.12012V12.537a.16986.16986,0,0,1,.042-.11036.29345.29345,0,0,1,.1084-.08105l.1914-.07812a.967.967,0,0,0,.43555-.32129,1.00544,1.00544,0,0,0,.15918-.6084.80819.80819,0,0,0-.13281-.52832.64.64,0,0,0-.49121-.15039h-.15625l-.80469-.00586a.14419.14419,0,0,1-.10742-.042.14274.14274,0,0,1-.042-.10743V9.117a.138.138,0,0,1,.04493-.10742.14853.14853,0,0,1,.10449-.042h.64844a.14384.14384,0,0,1,.15039.14941V9.8016h.37207A1.45817,1.45817,0,0,1,40.891,10.1766Z"/><path class="r" d="M44.05894,13.18539a.14872.14872,0,0,1-.042-.10839V11.3016a.60208.60208,0,0,0-.67773-.68457H41.971a.15257.15257,0,0,1-.11035-.042.13876.13876,0,0,1-.0459-.10742V9.951a.13876.13876,0,0,1,.0459-.10742.15258.15258,0,0,1,.11035-.042h1.39844a1.8405,1.8405,0,0,1,1.24512.36622,1.44039,1.44039,0,0,1,.417,1.13964V13.077a.14347.14347,0,0,1-.04492.10839.15649.15649,0,0,1-.11133.042h-.708A.14644.14644,0,0,1,44.05894,13.18539Zm-2.19825,0a.14084.14084,0,0,1-.0459-.10839V11.325a.13878.13878,0,0,1,.0459-.10742.15257.15257,0,0,1,.11035-.042h.708a.14382.14382,0,0,1,.15039.14941v1.752a.15348.15348,0,0,1-.042.10546.14149.14149,0,0,1-.1084.04493h-.708A.15258.15258,0,0,1,41.86069,13.18539Z"/><path class="r" d="M45.74839,13.18539a.14084.14084,0,0,1-.0459-.10839V9.951a.13876.13876,0,0,1,.0459-.10742.15256.15256,0,0,1,.11035-.042h.75a.14384.14384,0,0,1,.15039.14942v3.126a.15348.15348,0,0,1-.042.10546.14149.14149,0,0,1-.1084.04493h-.75A.15256.15256,0,0,1,45.74839,13.18539Z"/><path class="r" d="M49.52769,13.18246a.151.151,0,0,1-.11133.04493H47.49058a.15649.15649,0,0,1-.11133-.042.14347.14347,0,0,1-.04492-.10839v-.51563a.145.145,0,0,1,.04492-.1084.16084.16084,0,0,1,.11133-.042h.99609L48.433,11.22934a1.071,1.071,0,0,0-.12012-.50391.41089.41089,0,0,0-.37207-.15625h-.30566a.14418.14418,0,0,1-.10547-.04492.14205.14205,0,0,1-.04492-.10449V9.91586a.1549.1549,0,0,1,.042-.11133.14009.14009,0,0,1,.1084-.04492h.32324a1.57838,1.57838,0,0,1,1.14355.35352,1.64512,1.64512,0,0,1,.38672,1.13379l.07813,1.83008A.12559.12559,0,0,1,49.52769,13.18246Z"/><path class="r" d="M14.96519,22.18539a.14872.14872,0,0,1-.042-.10839V20.3016a.60208.60208,0,0,0-.67773-.68457H12.87729a.15257.15257,0,0,1-.11035-.042.13876.13876,0,0,1-.0459-.10742V18.951a.13876.13876,0,0,1,.0459-.10742.15258.15258,0,0,1,.11035-.042h1.39844a1.8405,1.8405,0,0,1,1.24512.36622,1.44039,1.44039,0,0,1,.417,1.13964V22.077a.14347.14347,0,0,1-.04492.10839.15649.15649,0,0,1-.11133.042h-.708A.14644.14644,0,0,1,14.96519,22.18539Zm-2.19825,0a.14084.14084,0,0,1-.0459-.10839V20.325a.13878.13878,0,0,1,.0459-.10742.15257.15257,0,0,1,.11035-.042h.708a.14382.14382,0,0,1,.15039.14941v1.752a.15348.15348,0,0,1-.042.10546.14149.14149,0,0,1-.1084.04493h-.708A.15258.15258,0,0,1,12.76694,22.18539Z"/><path class="r" d="M19.81284,22.10141a.12687.12687,0,0,1-.03515.08691.11834.11834,0,0,1-.09082.03907h-.73731a.2015.2015,0,0,1-.16211-.05664c-.03223-.03809-.0498-.05957-.05469-.06348L17.683,20.58969a.67835.67835,0,0,0-.2041.33008,1.61342,1.61342,0,0,0-.04785.39551v.75a.1582.1582,0,0,1-.04493.11718.14939.14939,0,0,1-.11132.04493h-.58789a.13813.13813,0,0,1-.1045-.04786.16085.16085,0,0,1-.04492-.11425v-.74414a2.11,2.11,0,0,1,.1377-.82813,1.52332,1.52332,0,0,1,.52246-.59961l-.61231-.88183a.12519.12519,0,0,1-.03027-.084.11759.11759,0,0,1,.03906-.08691.1192.1192,0,0,1,.08692-.03907h.708a.197.197,0,0,1,.12891.03614.419.419,0,0,1,.08691.0957l.9668,1.36816a.533.533,0,0,0,.21289-.26464,1.1742,1.1742,0,0,0,.04492-.3418v-.73145a.16433.16433,0,0,1,.042-.11718.138.138,0,0,1,.10742-.04493h.62988a.14494.14494,0,0,1,.11133.04786.16085.16085,0,0,1,.04492.11425v.75586a1.58559,1.58559,0,0,1-.15234.69922,1.43744,1.43744,0,0,1-.55567.56641l.73242,1.03223A.1508.1508,0,0,1,19.81284,22.10141Z"/><path class="r" d="M21.22886,19.869c.00879.16406.05664.26074.14453.28808l.168.06055a.14177.14177,0,0,1,.07519.06836.23983.23983,0,0,1,.02637.11133l.00586.30566a.15783.15783,0,0,1-.08106.1416.29507.29507,0,0,1-.19433.03907l-.2461-.03614a.76471.76471,0,0,1-.51562-.333,1.19619,1.19619,0,0,1-.2041-.7168V18.951a.20118.20118,0,0,1,.05078-.10742.12641.12641,0,0,1,.09863-.042H21.7689a1.55185,1.55185,0,0,1,1.17285.4043,1.70845,1.70845,0,0,1,.42383,1.1377c.0039.04.00586.0957.00586.168a1.89406,1.89406,0,0,1-.38379,1.26269,1.51411,1.51411,0,0,1-1.21875.45313H20.62925a.15649.15649,0,0,1-.11133-.042A.14347.14347,0,0,1,20.473,22.077v-.55176a.15346.15346,0,0,1,.15625-.15625H21.7396a.71876.71876,0,0,0,.501-.17676.70139.70139,0,0,0,.21289-.501c.0039-.04.00586-.09961.00586-.17968,0-.07618-.002-.13379-.00586-.17383a.67889.67889,0,0,0-.207-.501.72431.72431,0,0,0-.50684-.17773h-.51074Z"/><path class="r" d="M25.58335,22.18539a.14007.14007,0,0,1-.04492-.10839V20.3016a.60276.60276,0,0,0-.67871-.68457h-.91211a.142.142,0,0,1-.10449-.04492.14048.14048,0,0,1-.04493-.10449V18.951a.138.138,0,0,1,.04493-.10742.14688.14688,0,0,1,.10449-.042h.94824a1.91935,1.91935,0,0,1,1.24512.3418,1.3798,1.3798,0,0,1,.41113,1.12207V22.077a.15348.15348,0,0,1-.042.10546.1415.1415,0,0,1-.1084.04493h-.708A.15258.15258,0,0,1,25.58335,22.18539Z"/><path class="r" d="M30.25327,19.16782a1.44683,1.44683,0,0,1,.38379,1.09765V22.077a.14914.14914,0,0,1-.042.10546.138.138,0,0,1-.10742.04493H28.849a.14206.14206,0,0,1-.10449-.04493.14417.14417,0,0,1-.04492-.10546v-.51563a.14153.14153,0,0,1,.04492-.1084.15117.15117,0,0,1,.10449-.042h.77442V20.31332A.71936.71936,0,0,0,29.473,19.827a.49137.49137,0,0,0-.38965-.17383h-.46777l-.50977,2.418a.18771.18771,0,0,1-.04883.11132.138.138,0,0,1-.10742.04493h-.69043a.14725.14725,0,0,1-.11035-.04493.11887.11887,0,0,1-.0332-.11132l.58789-2.41211H27.307a.138.138,0,0,1-.10742-.04493.15254.15254,0,0,1-.042-.11035V18.951a.138.138,0,0,1,.04492-.10742.14688.14688,0,0,1,.10449-.042h1.92676A1.41544,1.41544,0,0,1,30.25327,19.16782Z"/><path class="r" d="M33.52964,19.1766a1.633,1.633,0,0,1,.3418,1.13086,1.76619,1.76619,0,0,1-.4502,1.24805,2.38506,2.38506,0,0,1-1.12793.67774l-.24609.07226a.117.117,0,0,1-.11133-.042.17048.17048,0,0,1-.05078-.12012V21.537a.16986.16986,0,0,1,.042-.11036.29345.29345,0,0,1,.1084-.08105l.1914-.07812a.967.967,0,0,0,.43555-.32129,1.00544,1.00544,0,0,0,.15918-.6084.80819.80819,0,0,0-.13281-.52832.64.64,0,0,0-.49121-.15039h-.15625l-.80469-.00586a.14419.14419,0,0,1-.10742-.042.14273.14273,0,0,1-.042-.10743V18.117a.138.138,0,0,1,.04492-.10742.14853.14853,0,0,1,.10449-.042h.64844a.14382.14382,0,0,1,.15039.14941v.68457h.37207A1.45817,1.45817,0,0,1,33.52964,19.1766Z"/><path class="r" d="M35.75913,22.18539a.14084.14084,0,0,1-.0459-.10839V18.951a.13876.13876,0,0,1,.0459-.10742.15258.15258,0,0,1,.11035-.042h1.36231a1.82194,1.82194,0,0,1,1.21484.34473,1.41744,1.41744,0,0,1,.39941,1.125v1.79981a.15481.15481,0,0,1-.04492.11132.15093.15093,0,0,1-.11133.04493H35.86948A.15258.15258,0,0,1,35.75913,22.18539Zm2.12012-.77441V20.3016a.60208.60208,0,0,0-.67774-.68457h-.57617V21.411Z"/><path class="r" d="M39.54429,20.76352a.14148.14148,0,0,1-.04492-.1084V18.951a.138.138,0,0,1,.04492-.10742.15649.15649,0,0,1,.11133-.042h.75a.14377.14377,0,0,1,.14941.14942v1.7041a.14915.14915,0,0,1-.042.10547.138.138,0,0,1-.10742.04492h-.75A.15648.15648,0,0,1,39.54429,20.76352Z"/><path class="r" d="M43.53159,19.1766a1.633,1.633,0,0,1,.3418,1.13086,1.76615,1.76615,0,0,1-.4502,1.24805,2.38506,2.38506,0,0,1-1.12793.67774l-.24609.07226a.117.117,0,0,1-.11133-.042.17048.17048,0,0,1-.05078-.12012V21.537a.16986.16986,0,0,1,.042-.11036.29354.29354,0,0,1,.1084-.08105l.19141-.07812a.96692.96692,0,0,0,.43554-.32129,1.00544,1.00544,0,0,0,.15918-.6084.80819.80819,0,0,0-.13281-.52832.64.64,0,0,0-.49121-.15039h-.15625l-.80469-.00586a.14421.14421,0,0,1-.10742-.042.14273.14273,0,0,1-.042-.10743V18.117a.138.138,0,0,1,.04492-.10742.14853.14853,0,0,1,.10449-.042h.64844a.14382.14382,0,0,1,.15039.14941v.68457h.37207A1.45816,1.45816,0,0,1,43.53159,19.1766Z"/><path class="r" d="M44.50034,22.18539a.14084.14084,0,0,1-.0459-.10839V18.951a.13876.13876,0,0,1,.0459-.10742.15258.15258,0,0,1,.11035-.042h.75a.14384.14384,0,0,1,.15039.14942v3.126a.15343.15343,0,0,1-.042.10546.14149.14149,0,0,1-.1084.04493h-.75A.15258.15258,0,0,1,44.50034,22.18539Z"/><path class="r" d="M46.265,22.18539a.14084.14084,0,0,1-.0459-.10839V18.951a.13876.13876,0,0,1,.0459-.10742.15258.15258,0,0,1,.11035-.042h1.416a1.888,1.888,0,0,1,1.25683.35059,1.45515,1.45515,0,0,1,.40528,1.15527V22.077a.14915.14915,0,0,1-.042.10546.13938.13938,0,0,1-.10742.04493h-.708a.15487.15487,0,0,1-.11132-.042.14.14,0,0,1-.04493-.10839V20.3016a.60247.60247,0,0,0-.67773-.68457h-.52832v2.46a.15348.15348,0,0,1-.042.10546.1415.1415,0,0,1-.1084.04493h-.708A.15258.15258,0,0,1,46.265,22.18539Z"/><rect class="s" x="21.08625" width="14.03841" height="5.61702"/></g></svg>