<svg xmlns="http://www.w3.org/2000/svg" viewBox="0 0 73.96973 68.08154"><defs><style>.a{fill:#e6ebed;}.b{fill:#c6c6c6;}.c{fill:#2d2a28;}.d{fill:#78a05f;}.e{fill:#aed694;}.f{fill:#d2eac3;}.g{fill:#fff;opacity:0.5;}</style></defs><rect class="a" x="0.25046" y="2.48056" width="73.46973" height="65.35107"/><path class="b" d="M73.46969,2.73046V67.58154H.5V2.73046H73.46969m.5-.5H0V68.08154H73.96969V2.23046Z"/><path class="c" d="M10.74069,14.43026a.14876.14876,0,0,1-.042-.10839v-1.7754a.60208.60208,0,0,0-.67774-.68457H8.6528a.15257.15257,0,0,1-.11035-.042.13876.13876,0,0,1-.0459-.10742v-.5166a.13876.13876,0,0,1,.0459-.10742.15258.15258,0,0,1,.11035-.042h1.39844a1.84047,1.84047,0,0,1,1.24512.36622,1.44039,1.44039,0,0,1,.417,1.13964v1.76954a.14351.14351,0,0,1-.04492.10839.15652.15652,0,0,1-.11133.042h-.708A.14645.14645,0,0,1,10.74069,14.43026Zm-2.19824,0a.14084.14084,0,0,1-.0459-.10839v-1.752a.13878.13878,0,0,1,.0459-.10742.15257.15257,0,0,1,.11035-.042h.708a.14382.14382,0,0,1,.15039.14941v1.752a.15348.15348,0,0,1-.042.10546.1415.1415,0,0,1-.1084.04493h-.708A.15258.15258,0,0,1,8.54245,14.43026Z"/><path class="c" d="M15.58835,14.34628a.12684.12684,0,0,1-.03516.08691.11833.11833,0,0,1-.09082.03907h-.7373a.20148.20148,0,0,1-.16211-.05664c-.03223-.03809-.04981-.05958-.05469-.06348l-1.04981-1.51758a.6785.6785,0,0,0-.2041.33008,1.61342,1.61342,0,0,0-.04785.39551v.75a.15824.15824,0,0,1-.04492.11718.14941.14941,0,0,1-.11133.04493h-.58789a.13809.13809,0,0,1-.10449-.04786.16085.16085,0,0,1-.04492-.11425V13.566a2.1102,2.1102,0,0,1,.13769-.82813,1.52348,1.52348,0,0,1,.52246-.59961l-.6123-.88183a.1252.1252,0,0,1-.03028-.084.1176.1176,0,0,1,.03907-.08691.11916.11916,0,0,1,.08691-.03907h.708a.197.197,0,0,1,.12891.03614.41874.41874,0,0,1,.08691.0957l.9668,1.36816a.53309.53309,0,0,0,.21289-.26464A1.17454,1.17454,0,0,0,14.605,11.94v-.73145a.16433.16433,0,0,1,.042-.11718.138.138,0,0,1,.10742-.04493h.62989a.14491.14491,0,0,1,.11132.04786.16082.16082,0,0,1,.04493.11425v.75586a1.5856,1.5856,0,0,1-.15235.69922,1.43748,1.43748,0,0,1-.55566.56641l.73242,1.03222A.15094.15094,0,0,1,15.58835,14.34628Z"/><path class="c" d="M17.00436,12.11386c.00879.16406.05664.26074.14453.28808l.168.06055a.14179.14179,0,0,1,.0752.06836.23983.23983,0,0,1,.02637.11133l.00585.30566a.15782.15782,0,0,1-.08105.1416.29509.29509,0,0,1-.19434.03907l-.24609-.03614a.76469.76469,0,0,1-.51562-.333,1.19619,1.19619,0,0,1-.20411-.7168v-.84668a.20126.20126,0,0,1,.05079-.10742.12641.12641,0,0,1,.09863-.042H17.5444a1.55184,1.55184,0,0,1,1.17285.4043,1.7084,1.7084,0,0,1,.42383,1.1377c.00391.04.00586.0957.00586.168a1.89406,1.89406,0,0,1-.38379,1.26269,1.5141,1.5141,0,0,1-1.21875.45313H16.40475a.15648.15648,0,0,1-.11132-.042.14348.14348,0,0,1-.04493-.10839v-.55176a.15347.15347,0,0,1,.15625-.15625h1.11036a.71874.71874,0,0,0,.501-.17676.70135.70135,0,0,0,.21289-.501c.00391-.04.00586-.09961.00586-.17968,0-.07618-.00195-.13379-.00586-.17383a.67889.67889,0,0,0-.207-.501.72429.72429,0,0,0-.50683-.17773h-.51075Z"/><path class="c" d="M21.35886,14.43026a.14.14,0,0,1-.04493-.10839v-1.7754a.60276.60276,0,0,0-.67871-.68457h-.91211a.142.142,0,0,1-.10449-.04492.14051.14051,0,0,1-.04492-.10449v-.5166a.138.138,0,0,1,.04492-.10742.14688.14688,0,0,1,.10449-.042h.94825a1.9193,1.9193,0,0,1,1.24511.3418,1.37977,1.37977,0,0,1,.41114,1.12207v1.81153a.15344.15344,0,0,1-.042.10546.14149.14149,0,0,1-.1084.04493h-.708A.15254.15254,0,0,1,21.35886,14.43026Z"/><path class="c" d="M26.02878,11.41269a1.44683,1.44683,0,0,1,.38379,1.09765v1.81153a.14915.14915,0,0,1-.042.10546.138.138,0,0,1-.10742.04493H24.62448a.142.142,0,0,1-.10449-.04493.14414.14414,0,0,1-.04492-.10546v-.51563a.14148.14148,0,0,1,.04492-.1084.15114.15114,0,0,1,.10449-.042h.77441V12.55819a.71931.71931,0,0,0-.15039-.48632.49136.49136,0,0,0-.38964-.17383h-.46778l-.50976,2.418a.18777.18777,0,0,1-.04883.11132.138.138,0,0,1-.10742.04493h-.69043a.14725.14725,0,0,1-.11036-.04493.1189.1189,0,0,1-.0332-.11132L23.479,11.9039h-.39648a.138.138,0,0,1-.10742-.04493.15254.15254,0,0,1-.042-.11035v-.55273a.138.138,0,0,1,.04493-.10742.14688.14688,0,0,1,.10449-.042h1.92676A1.41541,1.41541,0,0,1,26.02878,11.41269Z"/><path class="c" d="M29.32858,14.43026a.14876.14876,0,0,1-.042-.10839v-1.7754a.60208.60208,0,0,0-.67773-.68457H27.24069a.15257.15257,0,0,1-.11035-.042.13876.13876,0,0,1-.0459-.10742v-.5166a.13876.13876,0,0,1,.0459-.10742.15258.15258,0,0,1,.11035-.042h1.39844a1.84045,1.84045,0,0,1,1.24512.36622,1.44039,1.44039,0,0,1,.417,1.13964v1.76954a.14351.14351,0,0,1-.04492.10839.15652.15652,0,0,1-.11133.042h-.708A.14645.14645,0,0,1,29.32858,14.43026Zm-2.19824,0a.14084.14084,0,0,1-.0459-.10839v-1.752a.13878.13878,0,0,1,.0459-.10742.15257.15257,0,0,1,.11035-.042h.708a.14382.14382,0,0,1,.15039.14941v1.752a.15348.15348,0,0,1-.042.10546.1415.1415,0,0,1-.1084.04493h-.708A.15258.15258,0,0,1,27.13034,14.43026Z"/><path class="c" d="M35.42136,11.40292a1.38687,1.38687,0,0,1,.417,1.11328v1.80567a.14914.14914,0,0,1-.042.10546.14152.14152,0,0,1-.1084.04493H34.98a.15414.15414,0,0,1-.11035-.042.14.14,0,0,1-.04492-.10839v-1.7754a.60277.60277,0,0,0-.67872-.68457h-.38964a3.68181,3.68181,0,0,0-.08985.88282l.04785,1.57715a.14.14,0,0,1-.04492.10839.15649.15649,0,0,1-.11133.042l-1.27148-.00586a.15649.15649,0,0,1-.11133-.042.14151.14151,0,0,1-.04492-.10839v-.47364a.14153.14153,0,0,1,.04492-.1084.16084.16084,0,0,1,.11133-.042h.48535v-.9414a3.24335,3.24335,0,0,1,.09082-.88868h-.35449a.15648.15648,0,0,1-.11133-.042.14132.14132,0,0,1-.04492-.10742v-.5166a.14132.14132,0,0,1,.04492-.10742.15649.15649,0,0,1,.11133-.042H34.1821A1.86693,1.86693,0,0,1,35.42136,11.40292Z"/><path class="c" d="M36.562,14.43026a.14084.14084,0,0,1-.0459-.10839v-3.126a.13876.13876,0,0,1,.0459-.10742.15258.15258,0,0,1,.11035-.042h.75a.14384.14384,0,0,1,.15039.14942v3.126a.15348.15348,0,0,1-.042.10546.14149.14149,0,0,1-.1084.04493h-.75A.15258.15258,0,0,1,36.562,14.43026Z"/><path class="c" d="M40.57272,11.42147a1.633,1.633,0,0,1,.3418,1.13086,1.76615,1.76615,0,0,1-.4502,1.24805,2.38506,2.38506,0,0,1-1.12793.67774l-.24609.07226a.117.117,0,0,1-.11133-.042.17048.17048,0,0,1-.05078-.12012v-.60644a.16986.16986,0,0,1,.042-.11036.29343.29343,0,0,1,.1084-.081l.19141-.07813a.96683.96683,0,0,0,.43554-.32128,1.00544,1.00544,0,0,0,.15918-.6084.80819.80819,0,0,0-.13281-.52832.64.64,0,0,0-.49121-.15039h-.15625l-.80469-.00586a.14418.14418,0,0,1-.10742-.042.14269.14269,0,0,1-.042-.10742V10.3619a.138.138,0,0,1,.04492-.10742.14853.14853,0,0,1,.10449-.042h.64844a.14382.14382,0,0,1,.15039.14941v.68457h.37207A1.45816,1.45816,0,0,1,40.57272,11.42147Z"/><path class="c" d="M41.518,13.00839a.14152.14152,0,0,1-.04492-.1084v-1.7041a.138.138,0,0,1,.04492-.10742.15652.15652,0,0,1,.11133-.042h.75a.14379.14379,0,0,1,.14942.14942V12.9a.14911.14911,0,0,1-.042.10547.138.138,0,0,1-.10742.04492h-.75A.15651.15651,0,0,1,41.518,13.00839Z"/><path class="c" d="M46.30905,11.08847a.14646.14646,0,0,1,.042.10742v1.77637a1.307,1.307,0,0,1-.41406.9873,2.20475,2.20475,0,0,1-1.16406.52441l-1.53614.32422a.13745.13745,0,0,1-.11718-.03027.131.131,0,0,1-.05078-.10742V14.148a.1511.1511,0,0,1,.03906-.1045.1757.1757,0,0,1,.09863-.05761l.666-.16211-.708-2.53711a.79908.79908,0,0,1-.0293-.12012.12175.12175,0,0,1,.12012-.12012h.7793a.14633.14633,0,0,1,.08984.02637.13674.13674,0,0,1,.04883.06348l.59961,2.4541a.829.829,0,0,0,.44433-.33887,1.19494,1.19494,0,0,0,.11914-.5791V11.19589a.14385.14385,0,0,1,.15039-.14942h.71387A.14645.14645,0,0,1,46.30905,11.08847Z"/><path class="c" d="M47.80807,12.11386c.00879.16406.05664.26074.14454.28808l.168.06055a.14179.14179,0,0,1,.0752.06836.23983.23983,0,0,1,.02637.11133l.00586.30566a.15783.15783,0,0,1-.08106.1416.29507.29507,0,0,1-.19433.03907l-.2461-.03614a.76469.76469,0,0,1-.51562-.333,1.19619,1.19619,0,0,1-.20411-.7168v-.84668a.20126.20126,0,0,1,.05079-.10742.12641.12641,0,0,1,.09863-.042h1.21191a1.55184,1.55184,0,0,1,1.17285.4043,1.7084,1.7084,0,0,1,.42383,1.1377c.00391.04.00586.0957.00586.168a1.89406,1.89406,0,0,1-.38379,1.26269,1.5141,1.5141,0,0,1-1.21875.45313H47.20846a.15648.15648,0,0,1-.11132-.042.14348.14348,0,0,1-.04493-.10839v-.55176a.15347.15347,0,0,1,.15625-.15625h1.11036a.71874.71874,0,0,0,.501-.17676.70131.70131,0,0,0,.21289-.501c.00391-.04.00586-.09961.00586-.17968,0-.07618-.002-.13379-.00586-.17383a.67889.67889,0,0,0-.207-.501.72429.72429,0,0,0-.50683-.17773h-.51075Z"/><path class="c" d="M54.98776,11.40292a1.38687,1.38687,0,0,1,.417,1.11328v1.80567a.14914.14914,0,0,1-.042.10546.14149.14149,0,0,1-.1084.04493h-.708a.15418.15418,0,0,1-.11036-.042.14007.14007,0,0,1-.04492-.10839v-1.7754a.60276.60276,0,0,0-.67871-.68457h-.38965a3.68182,3.68182,0,0,0-.08984.88282l.04785,1.57715a.14007.14007,0,0,1-.04492.10839.1565.1565,0,0,1-.11133.042L51.853,14.4664a.15649.15649,0,0,1-.11133-.042.14147.14147,0,0,1-.04492-.10839v-.47364a.1415.1415,0,0,1,.04492-.1084.16084.16084,0,0,1,.11133-.042h.48535v-.9414a3.243,3.243,0,0,1,.09082-.88868h-.35449a.15648.15648,0,0,1-.11133-.042.14132.14132,0,0,1-.04492-.10742v-.5166a.14132.14132,0,0,1,.04492-.10742.15649.15649,0,0,1,.11133-.042H53.7485A1.86689,1.86689,0,0,1,54.98776,11.40292Z"/><path class="c" d="M56.12741,14.43026a.14084.14084,0,0,1-.0459-.10839v-3.126a.13876.13876,0,0,1,.0459-.10742.15258.15258,0,0,1,.11035-.042h.75a.14384.14384,0,0,1,.15039.14942v3.126a.15348.15348,0,0,1-.042.10546.14149.14149,0,0,1-.1084.04493h-.75A.15258.15258,0,0,1,56.12741,14.43026Z"/><path class="c" d="M60.94284,11.08847a.14646.14646,0,0,1,.042.10742v1.77637a1.307,1.307,0,0,1-.41406.9873,2.20475,2.20475,0,0,1-1.16406.52441l-1.53614.32422a.13745.13745,0,0,1-.11718-.03027.131.131,0,0,1-.05078-.10742V14.148a.1511.1511,0,0,1,.03906-.1045.17566.17566,0,0,1,.09863-.05761l.666-.16211-.708-2.53711a.79908.79908,0,0,1-.0293-.12012.12175.12175,0,0,1,.12012-.12012h.7793a.14633.14633,0,0,1,.08984.02637.13674.13674,0,0,1,.04883.06348l.59961,2.4541a.829.829,0,0,0,.44433-.33887,1.19506,1.19506,0,0,0,.11914-.5791V11.19589a.14385.14385,0,0,1,.15039-.14942h.71387A.14645.14645,0,0,1,60.94284,11.08847Z"/><path class="c" d="M65.52,11.08847a.14269.14269,0,0,1,.042.10742v1.57226a1.759,1.759,0,0,1-.24023.92676,1.6179,1.6179,0,0,1-.65332.61524,1.9,1.9,0,0,1-.918.21h-.57618a1.8045,1.8045,0,0,1-.83984-.18555,1.32884,1.32884,0,0,1-.54883-.50391,1.34967,1.34967,0,0,1-.18945-.70214V11.19589a.138.138,0,0,1,.04492-.10742.1565.1565,0,0,1,.11133-.042h.62988a.14384.14384,0,0,1,.15039.14942l.00586,1.44043a.55469.55469,0,0,0,.45606-.249,1.22539,1.22539,0,0,0,.13183-.627v-.55176a.1582.1582,0,0,1,.04493-.11718.14939.14939,0,0,1,.11132-.04493h.623a.14009.14009,0,0,1,.10547.04786.16085.16085,0,0,1,.04492.11425v.56348a1.56421,1.56421,0,0,1-.35351,1.08008,1.49061,1.49061,0,0,1-1.002.46191.76776.76776,0,0,0,.30274.294.85909.85909,0,0,0,.417.10254h.13769a1.19223,1.19223,0,0,0,.55176-.126.95747.95747,0,0,0,.38477-.34863.92309.92309,0,0,0,.13769-.498v-1.542a.14269.14269,0,0,1,.042-.10742.145.145,0,0,1,.1084-.042h.62989A.14273.14273,0,0,1,65.52,11.08847Z"/><rect class="d" x="37.07416" y="34.77302" width="28.48806" height="1.91489"/><rect class="d" x="8.40747" y="48.73753" width="57.15475" height="5.56741"/><rect class="d" x="8.49679" y="19.83685" width="57.06543" height="2.88656"/><rect class="e" x="36.98484" y="22.7234" width="28.57737" height="12.04962"/><rect class="f" x="8.49679" y="22.7234" width="28.57737" height="12.04962"/><rect class="f" x="37.0295" y="36.68791" width="28.57737" height="12.04962"/><rect class="f" x="8.40747" y="36.68791" width="28.57737" height="12.04962"/><rect class="e" x="8.49679" y="34.77302" width="28.48806" height="4.65863"/><rect class="e" x="36.98484" y="39.43165" width="28.57737" height="1.46903"/><rect class="f" x="36.98484" y="30.17727" width="28.57737" height="1.46903"/><rect class="e" x="36.98484" y="47.2685" width="28.57737" height="1.46903"/><rect class="e" x="8.49679" y="43.51676" width="28.57737" height="1.46903"/><rect class="e" x="8.40747" y="54.30493" width="57.1994" height="6.38298"/><rect class="f" x="36.98484" y="58.26238" width="28.62203" height="2.42553"/><rect class="g" x="29.96564" width="14.03841" height="5.61702"/></svg>