<svg xmlns="http://www.w3.org/2000/svg" xmlns:xlink="http://www.w3.org/1999/xlink" viewBox="0 0 47.06396 68.1596"><defs><style>.a,.d,.f,.g,.l{fill:none;}.b{clip-path:url(#a);}.c{fill:#a2b4bc;}.d{stroke:#a2b4bc;stroke-width:7.88574px;}.d,.f,.g,.l{stroke-miterlimit:10;}.e{fill:#575756;}.e,.f,.g{opacity:0.31;}.f{stroke:#6d8393;stroke-width:1.97143px;}.g{stroke:#88939e;stroke-width:2.95715px;}.h{fill:#3c3c3b;}.i{fill:#c0d6e5;}.j{fill:#a1bacc;}.k{fill:#1fac5d;}.l{stroke:#fff;stroke-width:2.66726px;}.m{fill:#2d2724;}.n{fill:#90afbc;}.o{fill:#fff;opacity:0.5;}</style><clipPath id="a"><rect class="a" x="-74.11044" y="103.10403" width="384" height="216" transform="translate(235.77913 422.20807) rotate(-180)"/></clipPath></defs><g class="b"><rect class="c" x="-156.48705" y="-120.77949" width="16.86206" height="299.94033" transform="translate(-118.86534 177.24669) rotate(90)"/><polyline class="d" points="20.31 307.713 20.31 3.113 -321.837 3.113 -321.837 306.753"/><rect class="e" x="24.18277" y="-75.78973" width="4.93539" height="383.5029" transform="translate(53.30092 231.92344) rotate(-180)"/><rect class="c" x="3.44755" y="6.82168" width="12.8353" height="299.94033" transform="translate(19.73041 313.58368) rotate(-180)"/><rect class="c" x="-13.66618" y="6.82168" width="16.86206" height="299.94033" transform="translate(-10.4703 313.58368) rotate(-180)"/><rect class="c" x="-318.94497" y="6.82168" width="335.60533" height="12.59774" transform="translate(-302.2846 26.24109) rotate(-180)"/><polyline class="f" points="3.448 307.713 3.448 19.656 -303.845 19.656 -303.845 307.713"/><polyline class="g" points="14.688 306.762 14.688 6.822 -316.972 6.822 -316.972 306.762"/><rect class="h" x="20.30962" y="-75.78973" width="3.87315" height="381.15721" transform="translate(44.49238 229.57775) rotate(-180)"/></g><rect class="i" x="0.24949" y="2.55868" width="46.56445" height="65.35107"/><path class="j" d="M46.56394,2.80851V67.65957H.5V2.80851h46.064m.5-.5H0V68.15957h47.064V2.30851Z"/><circle class="k" cx="23.53194" cy="19.30619" r="8.65125"/><polyline class="l" points="17.985 16.415 26.497 16.415 26.497 24.445"/><path class="m" d="M15.40183,35.6827a.12688.12688,0,0,1-.03516.08692.1183.1183,0,0,1-.09082.03906h-.7373a.20147.20147,0,0,1-.16211-.05664c-.03223-.03809-.0498-.05957-.05469-.06348L13.272,34.171a.67832.67832,0,0,0-.2041.33007,1.61348,1.61348,0,0,0-.04785.39551v.75a.15823.15823,0,0,1-.04493.11719.14942.14942,0,0,1-.11132.04492h-.5879a.13811.13811,0,0,1-.10449-.04785.16088.16088,0,0,1-.04492-.11426v-.74414a2.11,2.11,0,0,1,.1377-.82812,1.52319,1.52319,0,0,1,.52246-.59961l-.61231-.88184a.12517.12517,0,0,1-.03027-.084.11761.11761,0,0,1,.03906-.08692A.11922.11922,0,0,1,12.27,32.3829h.708a.197.197,0,0,1,.12891.03613.419.419,0,0,1,.08691.09571l.9668,1.36816a.533.533,0,0,0,.21289-.26465,1.17415,1.17415,0,0,0,.04492-.3418V32.545a.16437.16437,0,0,1,.042-.11719.138.138,0,0,1,.10743-.04492h.62988a.145.145,0,0,1,.11133.04785.16088.16088,0,0,1,.04492.11426v.75586a1.58559,1.58559,0,0,1-.15234.69922,1.43736,1.43736,0,0,1-.55567.5664l.73242,1.03223A.15082.15082,0,0,1,15.40183,35.6827Z"/><path class="m" d="M16.81785,33.45028c.00879.16407.05664.26075.14453.28809l.168.06055a.14169.14169,0,0,1,.07519.06836.23976.23976,0,0,1,.02637.11132l.00586.30567a.15784.15784,0,0,1-.08106.1416.29507.29507,0,0,1-.19433.03906l-.2461-.03613a.76476.76476,0,0,1-.51562-.333,1.19617,1.19617,0,0,1-.2041-.7168v-.84668a.20125.20125,0,0,1,.05078-.10742.1264.1264,0,0,1,.09863-.042h1.21192a1.55187,1.55187,0,0,1,1.17285.4043,1.7084,1.7084,0,0,1,.42383,1.13769c.0039.04.00585.09571.00585.168a1.89407,1.89407,0,0,1-.38378,1.2627,1.51414,1.51414,0,0,1-1.21875.45312H16.21824a.15648.15648,0,0,1-.11133-.042.14349.14349,0,0,1-.04492-.1084v-.55176a.15346.15346,0,0,1,.15625-.15625h1.11035a.71876.71876,0,0,0,.501-.17675.7014.7014,0,0,0,.21289-.501c.0039-.04.00586-.09961.00586-.17969,0-.07617-.002-.13379-.00586-.17383a.67884.67884,0,0,0-.207-.501.72423.72423,0,0,0-.50683-.17774h-.51074Z"/><path class="m" d="M19.59324,35.76669a.14083.14083,0,0,1-.0459-.1084v-3.126a.13876.13876,0,0,1,.0459-.10742.15254.15254,0,0,1,.11035-.042h.75a.14382.14382,0,0,1,.15039.14941v3.126a.15349.15349,0,0,1-.042.10547.14153.14153,0,0,1-.1084.04492h-.75A.15254.15254,0,0,1,19.59324,35.76669Z"/><path class="m" d="M22.98386,35.76669a.14009.14009,0,0,1-.04492-.1084V33.8829a.60276.60276,0,0,0-.67871-.68457h-.91211a.14205.14205,0,0,1-.10449-.04492.1405.1405,0,0,1-.04492-.10449v-.51661a.138.138,0,0,1,.04492-.10742.14687.14687,0,0,1,.10449-.042h.94824a1.91931,1.91931,0,0,1,1.24512.3418,1.3798,1.3798,0,0,1,.41113,1.12207v1.81152a.15349.15349,0,0,1-.042.10547.14152.14152,0,0,1-.1084.04492h-.708A.15257.15257,0,0,1,22.98386,35.76669Z"/><path class="m" d="M24.67527,35.76669a.14086.14086,0,0,1-.0459-.1084v-3.126a.13879.13879,0,0,1,.0459-.10742.15255.15255,0,0,1,.11035-.042h.75a.14382.14382,0,0,1,.15039.14941v3.126a.15349.15349,0,0,1-.042.10547.14152.14152,0,0,1-.1084.04492h-.75A.15255.15255,0,0,1,24.67527,35.76669Z"/><path class="m" d="M27.88718,35.84481a.18044.18044,0,0,1-.04785-.12011v-.60645a.18723.18723,0,0,1,.042-.11328.23574.23574,0,0,1,.1084-.07812l.18555-.07813a.88223.88223,0,0,0,.60058-.92969.7897.7897,0,0,0-.13574-.52832.6506.6506,0,0,0-.49414-.15039H26.54929a.155.155,0,0,1-.15625-.15527v-.5586a.129.129,0,0,1,.04883-.10156.15544.15544,0,0,1,.10742-.042h1.80664a1.45816,1.45816,0,0,1,1.12207.375,1.633,1.633,0,0,1,.3418,1.13086,1.76617,1.76617,0,0,1-.4502,1.248,2.385,2.385,0,0,1-1.12793.67773l-.24609.07227A.11079.11079,0,0,1,27.88718,35.84481ZM26.43894,36.9122a.13879.13879,0,0,1-.0459-.10742V33.90634a.13876.13876,0,0,1,.0459-.10742.15258.15258,0,0,1,.11035-.042h.68457a.14379.14379,0,0,1,.14942.14942v2.89844a.14531.14531,0,0,1-.14942.15039h-.68457A.15333.15333,0,0,1,26.43894,36.9122Z"/><path class="m" d="M30.41648,34.34481a.14151.14151,0,0,1-.04492-.10839V32.53231a.138.138,0,0,1,.04492-.10742.15648.15648,0,0,1,.11133-.042h.75a.14376.14376,0,0,1,.14941.14941v1.70411a.14914.14914,0,0,1-.042.10546.138.138,0,0,1-.10742.04493h-.75A.15649.15649,0,0,1,30.41648,34.34481Z"/><path class="m" d="M32.04343,35.76376a.14418.14418,0,0,1-.04492-.10547v-.51562a.14152.14152,0,0,1,.04492-.1084.15113.15113,0,0,1,.10449-.042h1.50684V33.8829a.59947.59947,0,0,0-.67871-.67773h-.76758a.14233.14233,0,0,1-.1084-.0459.15675.15675,0,0,1-.042-.11035v-.51661a.14139.14139,0,0,1,.04492-.10742.14916.14916,0,0,1,.10547-.042h.79785a1.957,1.957,0,0,1,1.26856.35352,1.40481,1.40481,0,0,1,.42969,1.14648v1.10938h.21a.14382.14382,0,0,1,.14941.15039v.51562a.14915.14915,0,0,1-.042.10547.138.138,0,0,1-.10742.04492H32.14792A.14208.14208,0,0,1,32.04343,35.76376Z"/><rect class="n" x="8.21279" y="41.04281" width="30.12766" height="2.04349" rx="1.02175"/><rect class="n" x="8.21279" y="45.71816" width="30.12766" height="2.04349" rx="1.02175"/><rect class="n" x="8.21279" y="50.39351" width="30.12766" height="2.04349" rx="1.02175"/><rect class="n" x="8.21279" y="55.06886" width="30.12766" height="2.04349" rx="1.02175"/><rect class="n" x="21.55322" y="59.74421" width="16.78723" height="2.04349" rx="1.02175"/><rect class="o" x="16.51273" width="14.03841" height="5.61702"/></svg>