<svg xmlns="http://www.w3.org/2000/svg" xmlns:xlink="http://www.w3.org/1999/xlink" viewBox="0 0 73.96973 68.08154"><defs><style>.a,.e,.i,.j,.k{fill:none;}.b{isolation:isolate;}.c{clip-path:url(#a);}.d{fill:#b3f4ff;}.e{stroke:#575756;}.e,.i,.j,.k{stroke-miterlimit:10;}.e,.k{stroke-width:2.95715px;}.e,.j,.k{opacity:0.31;}.f{mix-blend-mode:soft-light;fill:url(#b);}.g{fill:#34353a;opacity:0.12;}.h{fill:#a2b4bc;}.i{stroke:#a2b4bc;stroke-width:7.88574px;}.j{stroke:#6d8393;stroke-width:1.97143px;}.k{stroke:#88939e;}.l{fill:#d0e5ed;}.m{fill:#c6b3b3;}.n{fill:#2d2724;}.o{fill:#6fa050;}.p{fill:#a2d680;}.q{fill:#c4eaad;}.r{fill:#fff;opacity:0.5;}</style><clipPath id="a"><rect class="a" x="15.72831" y="103.10403" width="384" height="216" transform="translate(415.45662 422.20807) rotate(-180)"/></clipPath><linearGradient id="b" x1="502.4907" y1="69.01066" x2="690.5166" y2="69.01066" gradientTransform="matrix(1, 0, 0, -1, -685.06402, 138.02132)" gradientUnits="userSpaceOnUse"><stop offset="0" stop-color="#fff" stop-opacity="0"/><stop offset="1" stop-color="#fff"/></linearGradient></defs><g class="b"><g class="c"><rect class="d" x="-53.45391" y="33.95409" width="137.31761" height="119.52986" transform="translate(30.40979 187.43805) rotate(-180)"/><polyline class="e" points="76.173 277.81 76.173 37.211 -196.264 37.211 -196.264 281.08"/><rect class="f" x="-182.57331" y="63.2326" width="188.0259" height="11.55611" transform="translate(-177.12073 138.02132) rotate(-180)"/><polygon class="g" points="60.82 37.963 29.11 280.327 -17.394 280.327 16.582 37.963 60.82 37.963"/><rect class="h" x="-66.6483" y="-120.77949" width="16.86206" height="299.94033" transform="translate(-29.0266 87.40795) rotate(90)"/><polyline class="i" points="110.148 307.713 110.148 3.113 -231.998 3.113 -231.998 306.753"/><rect class="h" x="-229.10622" y="6.82168" width="335.60533" height="12.59774" transform="translate(-122.60711 26.24109) rotate(-180)"/><polyline class="j" points="93.286 307.713 93.286 19.656 -214.006 19.656 -214.006 307.713"/><polyline class="k" points="104.526 306.762 104.526 6.822 -227.134 6.822 -227.134 306.762"/></g><rect class="l" x="0.25034" y="2.48056" width="73.46973" height="65.35107"/><path class="m" d="M73.4697,2.73046V67.58154H.5V2.73046H73.4697m.5-.5H0V68.08154H73.9697V2.23046Z"/><path class="n" d="M10.74155,14.43026a.14876.14876,0,0,1-.042-.10839v-1.7754a.60208.60208,0,0,0-.67773-.68457H8.65366a.15257.15257,0,0,1-.11035-.042.13876.13876,0,0,1-.0459-.10742v-.5166a.13876.13876,0,0,1,.0459-.10742.15258.15258,0,0,1,.11035-.042H10.0521a1.84045,1.84045,0,0,1,1.24512.36622,1.44039,1.44039,0,0,1,.417,1.13964v1.76954a.14351.14351,0,0,1-.04492.10839.15652.15652,0,0,1-.11133.042H10.85A.14646.14646,0,0,1,10.74155,14.43026Zm-2.19824,0a.14084.14084,0,0,1-.0459-.10839v-1.752a.13878.13878,0,0,1,.0459-.10742.15257.15257,0,0,1,.11035-.042h.708a.14382.14382,0,0,1,.15039.14941v1.752a.15348.15348,0,0,1-.042.10546.14149.14149,0,0,1-.1084.04493h-.708A.15258.15258,0,0,1,8.54331,14.43026Z"/><path class="n" d="M15.58921,14.34628a.12684.12684,0,0,1-.03516.08691.11831.11831,0,0,1-.09082.03907h-.7373a.20149.20149,0,0,1-.16211-.05664c-.03223-.03809-.04981-.05958-.05469-.06348l-1.0498-1.51758a.67845.67845,0,0,0-.20411.33008,1.61342,1.61342,0,0,0-.04785.39551v.75a.15824.15824,0,0,1-.04492.11718.14941.14941,0,0,1-.11133.04493h-.58789a.13809.13809,0,0,1-.10449-.04786.16085.16085,0,0,1-.04492-.11425V13.566a2.1102,2.1102,0,0,1,.13769-.82813,1.52348,1.52348,0,0,1,.52246-.59961l-.6123-.88183a.12519.12519,0,0,1-.03027-.084.11759.11759,0,0,1,.03906-.08691.11919.11919,0,0,1,.08691-.03907h.708a.197.197,0,0,1,.12891.03614.41874.41874,0,0,1,.08691.0957l.9668,1.36816a.533.533,0,0,0,.21289-.26464,1.1742,1.1742,0,0,0,.04492-.3418v-.73145a.16433.16433,0,0,1,.042-.11718.138.138,0,0,1,.10742-.04493h.62989a.14494.14494,0,0,1,.11133.04786.16085.16085,0,0,1,.04492.11425v.75586a1.58546,1.58546,0,0,1-.15235.69922,1.43748,1.43748,0,0,1-.55566.56641l.73242,1.03222A.15085.15085,0,0,1,15.58921,14.34628Z"/><path class="n" d="M17.00522,12.11386c.00879.16406.05665.26074.14454.28808l.168.06055a.14176.14176,0,0,1,.0752.06836.23983.23983,0,0,1,.02637.11133l.00586.30566a.15783.15783,0,0,1-.08106.1416.29507.29507,0,0,1-.19433.03907l-.2461-.03614a.76469.76469,0,0,1-.51562-.333,1.19619,1.19619,0,0,1-.2041-.7168v-.84668a.20118.20118,0,0,1,.05078-.10742.12641.12641,0,0,1,.09863-.042h1.21191a1.55188,1.55188,0,0,1,1.17286.4043,1.70845,1.70845,0,0,1,.42382,1.1377c.00391.04.00586.0957.00586.168a1.89406,1.89406,0,0,1-.38379,1.26269,1.5141,1.5141,0,0,1-1.21875.45313H16.40562a.15649.15649,0,0,1-.11133-.042.14347.14347,0,0,1-.04492-.10839v-.55176a.15346.15346,0,0,1,.15625-.15625H17.516a.71874.71874,0,0,0,.501-.17676.70131.70131,0,0,0,.21289-.501c.00391-.04.00586-.09961.00586-.17968,0-.07618-.002-.13379-.00586-.17383a.67885.67885,0,0,0-.207-.501.72429.72429,0,0,0-.50683-.17773h-.51075Z"/><path class="n" d="M21.35972,14.43026a.14.14,0,0,1-.04493-.10839v-1.7754a.60276.60276,0,0,0-.67871-.68457H19.724a.142.142,0,0,1-.10449-.04492.14051.14051,0,0,1-.04492-.10449v-.5166a.138.138,0,0,1,.04492-.10742.14692.14692,0,0,1,.10449-.042h.94825a1.9193,1.9193,0,0,1,1.24511.3418,1.37977,1.37977,0,0,1,.41114,1.12207v1.81153a.15344.15344,0,0,1-.042.10546.14148.14148,0,0,1-.10839.04493h-.708A.15254.15254,0,0,1,21.35972,14.43026Z"/><path class="n" d="M26.02964,11.41269a1.44683,1.44683,0,0,1,.38379,1.09765v1.81153a.14914.14914,0,0,1-.042.10546.138.138,0,0,1-.10743.04493H24.62534a.142.142,0,0,1-.10449-.04493.14417.14417,0,0,1-.04492-.10546v-.51563a.14152.14152,0,0,1,.04492-.1084.15114.15114,0,0,1,.10449-.042h.77442V12.55819a.71936.71936,0,0,0-.15039-.48632.49138.49138,0,0,0-.38965-.17383h-.46778l-.50976,2.418a.18777.18777,0,0,1-.04883.11132.138.138,0,0,1-.10742.04493H23.0355a.14722.14722,0,0,1-.11035-.04493.11888.11888,0,0,1-.03321-.11132l.58789-2.41211h-.39648a.138.138,0,0,1-.10742-.04493.15254.15254,0,0,1-.042-.11035v-.55273a.138.138,0,0,1,.04492-.10742.14688.14688,0,0,1,.10449-.042h1.92676A1.41539,1.41539,0,0,1,26.02964,11.41269Z"/><path class="n" d="M29.32944,14.43026a.14876.14876,0,0,1-.042-.10839v-1.7754a.60208.60208,0,0,0-.67773-.68457H27.24155a.15257.15257,0,0,1-.11035-.042.13876.13876,0,0,1-.0459-.10742v-.5166a.13876.13876,0,0,1,.0459-.10742.15258.15258,0,0,1,.11035-.042H28.64a1.84045,1.84045,0,0,1,1.24512.36622,1.44039,1.44039,0,0,1,.417,1.13964v1.76954a.14351.14351,0,0,1-.04492.10839.15652.15652,0,0,1-.11133.042h-.708A.14646.14646,0,0,1,29.32944,14.43026Zm-2.19824,0a.14084.14084,0,0,1-.0459-.10839v-1.752a.13878.13878,0,0,1,.0459-.10742.15257.15257,0,0,1,.11035-.042h.708a.14382.14382,0,0,1,.15039.14941v1.752a.15348.15348,0,0,1-.042.10546.14149.14149,0,0,1-.1084.04493h-.708A.15258.15258,0,0,1,27.1312,14.43026Z"/><path class="n" d="M35.42222,11.40292a1.38687,1.38687,0,0,1,.417,1.11328v1.80567a.14914.14914,0,0,1-.042.10546.1415.1415,0,0,1-.1084.04493h-.708a.15416.15416,0,0,1-.11035-.042.14007.14007,0,0,1-.04492-.10839v-1.7754a.60277.60277,0,0,0-.67871-.68457h-.38965a3.68181,3.68181,0,0,0-.08985.88282l.04786,1.57715a.14.14,0,0,1-.04493.10839.15648.15648,0,0,1-.11132.042l-1.27149-.00586a.15652.15652,0,0,1-.11133-.042.14151.14151,0,0,1-.04492-.10839v-.47364a.14153.14153,0,0,1,.04492-.1084.16087.16087,0,0,1,.11133-.042h.48535v-.9414a3.24335,3.24335,0,0,1,.09082-.88868h-.35449a.15651.15651,0,0,1-.11133-.042.14136.14136,0,0,1-.04492-.10742v-.5166a.14136.14136,0,0,1,.04492-.10742.15652.15652,0,0,1,.11133-.042H34.183A1.86691,1.86691,0,0,1,35.42222,11.40292Z"/><path class="n" d="M36.56284,14.43026a.14084.14084,0,0,1-.0459-.10839v-3.126a.13876.13876,0,0,1,.0459-.10742.15258.15258,0,0,1,.11035-.042h.75a.14384.14384,0,0,1,.15039.14942v3.126a.15343.15343,0,0,1-.042.10546.14149.14149,0,0,1-.1084.04493h-.75A.15258.15258,0,0,1,36.56284,14.43026Z"/><path class="n" d="M40.57358,11.42147a1.633,1.633,0,0,1,.3418,1.13086,1.76619,1.76619,0,0,1-.45019,1.24805,2.38516,2.38516,0,0,1-1.12793.67774l-.2461.07226a.117.117,0,0,1-.11133-.042.17048.17048,0,0,1-.05078-.12012v-.60644a.16986.16986,0,0,1,.042-.11036.29351.29351,0,0,1,.1084-.081l.19141-.07813a.96691.96691,0,0,0,.43555-.32128,1.00544,1.00544,0,0,0,.15918-.6084.80818.80818,0,0,0-.13282-.52832.64.64,0,0,0-.49121-.15039H39.0853l-.80468-.00586a.14418.14418,0,0,1-.10743-.042.14269.14269,0,0,1-.042-.10742V10.3619a.138.138,0,0,1,.04492-.10742.14856.14856,0,0,1,.1045-.042H38.929a.14382.14382,0,0,1,.15039.14941v.68457h.37207A1.45816,1.45816,0,0,1,40.57358,11.42147Z"/><path class="n" d="M41.5189,13.00839A.14149.14149,0,0,1,41.474,12.9v-1.7041a.138.138,0,0,1,.04493-.10742.15648.15648,0,0,1,.11132-.042h.75a.14377.14377,0,0,1,.14942.14942V12.9a.14915.14915,0,0,1-.042.10547.138.138,0,0,1-.10743.04492h-.75A.15647.15647,0,0,1,41.5189,13.00839Z"/><path class="n" d="M46.30991,11.08847a.14642.14642,0,0,1,.042.10742v1.77637a1.307,1.307,0,0,1-.41406.9873,2.20475,2.20475,0,0,1-1.16406.52441l-1.53613.32422a.13746.13746,0,0,1-.11719-.03027.131.131,0,0,1-.05078-.10742V14.148a.1511.1511,0,0,1,.03906-.1045.1757.1757,0,0,1,.09863-.05761l.666-.16211-.708-2.53711a.79908.79908,0,0,1-.0293-.12012.12175.12175,0,0,1,.12012-.12012h.7793a.14633.14633,0,0,1,.08984.02637.13667.13667,0,0,1,.04883.06348l.59961,2.4541a.82905.82905,0,0,0,.44434-.33887,1.19506,1.19506,0,0,0,.11914-.5791V11.19589a.14384.14384,0,0,1,.15039-.14942h.71386A.14645.14645,0,0,1,46.30991,11.08847Z"/><path class="n" d="M47.80894,12.11386c.00878.16406.05664.26074.14453.28808l.168.06055a.14177.14177,0,0,1,.07519.06836.23983.23983,0,0,1,.02637.11133l.00586.30566a.15783.15783,0,0,1-.08106.1416.29507.29507,0,0,1-.19433.03907l-.2461-.03614a.76471.76471,0,0,1-.51562-.333,1.19619,1.19619,0,0,1-.2041-.7168v-.84668a.20118.20118,0,0,1,.05078-.10742.12641.12641,0,0,1,.09863-.042H48.349a1.55188,1.55188,0,0,1,1.17286.4043,1.7084,1.7084,0,0,1,.42382,1.1377c.00391.04.00586.0957.00586.168a1.89406,1.89406,0,0,1-.38379,1.26269,1.51408,1.51408,0,0,1-1.21875.45313H47.20933a.15649.15649,0,0,1-.11133-.042.14347.14347,0,0,1-.04492-.10839v-.55176a.15346.15346,0,0,1,.15625-.15625h1.11035a.71874.71874,0,0,0,.501-.17676.70131.70131,0,0,0,.21289-.501c.00391-.04.00586-.09961.00586-.17968,0-.07618-.002-.13379-.00586-.17383a.67882.67882,0,0,0-.207-.501.72427.72427,0,0,0-.50683-.17773h-.51074Z"/><path class="n" d="M54.98862,11.40292a1.38688,1.38688,0,0,1,.417,1.11328v1.80567a.14915.14915,0,0,1-.042.10546.14149.14149,0,0,1-.1084.04493h-.708a.15414.15414,0,0,1-.11035-.042.14.14,0,0,1-.04493-.10839v-1.7754a.60276.60276,0,0,0-.67871-.68457h-.38965a3.68182,3.68182,0,0,0-.08984.88282l.04785,1.57715a.14007.14007,0,0,1-.04492.10839.15649.15649,0,0,1-.11133.042l-1.27148-.00586a.15649.15649,0,0,1-.11133-.042.14151.14151,0,0,1-.04492-.10839v-.47364a.14153.14153,0,0,1,.04492-.1084.16084.16084,0,0,1,.11133-.042h.48535v-.9414A3.24335,3.24335,0,0,1,52.43,11.8619h-.35449a.15648.15648,0,0,1-.11133-.042.14132.14132,0,0,1-.04492-.10742v-.5166a.14132.14132,0,0,1,.04492-.10742.15649.15649,0,0,1,.11133-.042h1.67383A1.86688,1.86688,0,0,1,54.98862,11.40292Z"/><path class="n" d="M56.12827,14.43026a.14084.14084,0,0,1-.0459-.10839v-3.126a.13876.13876,0,0,1,.0459-.10742.15258.15258,0,0,1,.11035-.042h.75a.14384.14384,0,0,1,.15039.14942v3.126a.15343.15343,0,0,1-.042.10546.14149.14149,0,0,1-.1084.04493h-.75A.15258.15258,0,0,1,56.12827,14.43026Z"/><path class="n" d="M60.9437,11.08847a.14646.14646,0,0,1,.042.10742v1.77637a1.307,1.307,0,0,1-.41406.9873,2.20475,2.20475,0,0,1-1.16406.52441l-1.53613.32422a.13746.13746,0,0,1-.11719-.03027.131.131,0,0,1-.05078-.10742V14.148a.1511.1511,0,0,1,.03906-.1045.1757.1757,0,0,1,.09863-.05761l.666-.16211-.708-2.53711a.79908.79908,0,0,1-.0293-.12012.12175.12175,0,0,1,.12012-.12012h.7793a.14633.14633,0,0,1,.08984.02637.13674.13674,0,0,1,.04883.06348l.59961,2.4541a.829.829,0,0,0,.44433-.33887,1.19494,1.19494,0,0,0,.11914-.5791V11.19589a.14385.14385,0,0,1,.1504-.14942h.71386A.14645.14645,0,0,1,60.9437,11.08847Z"/><path class="n" d="M65.52085,11.08847a.14269.14269,0,0,1,.042.10742v1.57226a1.759,1.759,0,0,1-.24023.92676,1.6179,1.6179,0,0,1-.65332.61524,1.9,1.9,0,0,1-.918.21h-.57617a1.80452,1.80452,0,0,1-.83985-.18555,1.32884,1.32884,0,0,1-.54883-.50391,1.34967,1.34967,0,0,1-.18945-.70214V11.19589a.138.138,0,0,1,.04492-.10742.15652.15652,0,0,1,.11133-.042h.62988a.14384.14384,0,0,1,.15039.14942l.00586,1.44043a.55469.55469,0,0,0,.45606-.249,1.22539,1.22539,0,0,0,.13183-.627v-.55176a.1582.1582,0,0,1,.04493-.11718.14939.14939,0,0,1,.11132-.04493h.623a.14009.14009,0,0,1,.10547.04786.16085.16085,0,0,1,.04492.11425v.56348a1.56421,1.56421,0,0,1-.35351,1.08008,1.49061,1.49061,0,0,1-1.002.46191.76776.76776,0,0,0,.30274.294.85911.85911,0,0,0,.417.10254h.1377a1.19222,1.19222,0,0,0,.55175-.126.95734.95734,0,0,0,.38477-.34863.923.923,0,0,0,.13769-.498v-1.542a.1427.1427,0,0,1,.042-.10742.14493.14493,0,0,1,.10839-.042h.62989A.14272.14272,0,0,1,65.52085,11.08847Z"/><rect class="o" x="37.07416" y="34.77302" width="28.48806" height="1.91489"/><rect class="o" x="8.40747" y="48.73753" width="57.15475" height="5.56741"/><rect class="o" x="8.49679" y="19.83685" width="57.06543" height="2.88656"/><rect class="p" x="36.98484" y="22.7234" width="28.57737" height="12.04962"/><rect class="q" x="8.49679" y="22.7234" width="28.57737" height="12.04962"/><rect class="q" x="37.0295" y="36.68791" width="28.57737" height="12.04962"/><rect class="q" x="8.40747" y="36.68791" width="28.57737" height="12.04962"/><rect class="p" x="8.49679" y="34.77302" width="28.48806" height="4.65863"/><rect class="p" x="36.98484" y="39.43165" width="28.57737" height="1.46903"/><rect class="q" x="36.98484" y="30.17727" width="28.57737" height="1.46903"/><rect class="p" x="36.98484" y="47.2685" width="28.57737" height="1.46903"/><rect class="p" x="8.49679" y="43.51676" width="28.57737" height="1.46903"/><rect class="p" x="8.40747" y="54.30493" width="57.1994" height="6.38298"/><rect class="q" x="36.98484" y="58.26238" width="28.62203" height="2.42553"/><rect class="r" x="29.96564" width="14.03841" height="5.61702"/></g></svg>