<svg xmlns="http://www.w3.org/2000/svg" viewBox="0 0 57.98938 59.97492"><defs><style>.a{fill:#b0daea;}.b{fill:#91c3ce;}.c{fill:#96bfcc;}.d{fill:#455a60;}.e{fill:#fff;opacity:0.5;}</style></defs><rect class="a" x="0.24948" y="2.23569" width="57.49023" height="57.48926"/><path class="b" d="M57.48935,2.48547V59.47491H.5V2.48547H57.48935m.5-.5H0V59.97491H57.98935V1.98547Z"/><rect class="c" x="8.15953" y="30.04358" width="41.61725" height="2.55319" rx="0.98443"/><rect class="c" x="8.15953" y="36.42656" width="41.61725" height="2.55319" rx="0.98443"/><rect class="c" x="8.15953" y="49.22523" width="41.61725" height="2.55319" rx="0.98443"/><rect class="c" x="24.51953" y="42.80953" width="25.25725" height="2.55319" rx="1.27659"/><path class="d" d="M25.75046,10.15805a1.38689,1.38689,0,0,1,.417,1.11328V13.077a.14914.14914,0,0,1-.042.10546.1415.1415,0,0,1-.1084.04493h-.708a.15416.15416,0,0,1-.11035-.042.14007.14007,0,0,1-.04492-.10839V11.3016a.60277.60277,0,0,0-.67871-.68457h-.38965a3.68181,3.68181,0,0,0-.08985.88282l.04786,1.57715a.14.14,0,0,1-.04493.10839.15648.15648,0,0,1-.11132.042l-1.27149-.00586a.15652.15652,0,0,1-.11133-.042.14151.14151,0,0,1-.04492-.10839V12.5975a.14155.14155,0,0,1,.04492-.1084.16087.16087,0,0,1,.11133-.042H23.101v-.9414a3.24335,3.24335,0,0,1,.09082-.88868h-.35449a.15651.15651,0,0,1-.11133-.042.14136.14136,0,0,1-.04492-.10742V9.951A.14136.14136,0,0,1,22.726,9.8436a.15652.15652,0,0,1,.11133-.042H24.5112A1.86691,1.86691,0,0,1,25.75046,10.15805Z"/><path class="d" d="M29.06589,10.1766a1.633,1.633,0,0,1,.34179,1.13086,1.76619,1.76619,0,0,1-.45019,1.248,2.38511,2.38511,0,0,1-1.12793.67774l-.2461.07226a.117.117,0,0,1-.11132-.042.17048.17048,0,0,1-.05078-.12012V12.537a.16986.16986,0,0,1,.042-.11036.29345.29345,0,0,1,.1084-.08105l.1914-.07812a.967.967,0,0,0,.43555-.32129,1.00544,1.00544,0,0,0,.15918-.6084.80819.80819,0,0,0-.13281-.52832.64.64,0,0,0-.49121-.15039h-.15625l-.80469-.00586a.14419.14419,0,0,1-.10742-.042.14274.14274,0,0,1-.042-.10743V9.117a.138.138,0,0,1,.04493-.10742.14853.14853,0,0,1,.10449-.042h.64844a.14384.14384,0,0,1,.15039.14941V9.8016h.37207A1.45817,1.45817,0,0,1,29.06589,10.1766Z"/><path class="d" d="M29.92038,13.18246a.14417.14417,0,0,1-.04492-.10546v-.51563a.14153.14153,0,0,1,.04492-.1084.15114.15114,0,0,1,.10449-.042h1.50684V11.3016a.59947.59947,0,0,0-.67871-.67773h-.76758a.14228.14228,0,0,1-.1084-.0459.15671.15671,0,0,1-.042-.11035V9.951A.14132.14132,0,0,1,29.98,9.8436a.14916.14916,0,0,1,.10547-.042h.79785a1.957,1.957,0,0,1,1.26855.35352,1.40479,1.40479,0,0,1,.42969,1.14648V12.411h.21a.14384.14384,0,0,1,.14942.15039V13.077a.14915.14915,0,0,1-.042.10546.138.138,0,0,1-.10742.04493h-2.7666A.142.142,0,0,1,29.92038,13.18246Z"/><path class="d" d="M34.94479,13.26352a.18044.18044,0,0,1-.04785-.12012V12.537a.1872.1872,0,0,1,.042-.11328.23576.23576,0,0,1,.1084-.07813l.18555-.07812a.88223.88223,0,0,0,.60058-.92969.78968.78968,0,0,0-.13574-.52832.6506.6506,0,0,0-.49414-.15039H33.6069a.15506.15506,0,0,1-.15625-.15528V9.94516a.129.129,0,0,1,.04883-.10156.15545.15545,0,0,1,.10742-.042h1.80664a1.45816,1.45816,0,0,1,1.12207.375,1.633,1.633,0,0,1,.3418,1.13086,1.76615,1.76615,0,0,1-.4502,1.248,2.38506,2.38506,0,0,1-1.12793.67774l-.24609.07226A.1108.1108,0,0,1,34.94479,13.26352ZM33.49655,14.3309a.13876.13876,0,0,1-.0459-.10742V11.325a.13878.13878,0,0,1,.0459-.10742.15257.15257,0,0,1,.11035-.042h.68457a.14377.14377,0,0,1,.14942.14941v2.89844a.14531.14531,0,0,1-.14942.15039H33.6069A.15333.15333,0,0,1,33.49655,14.3309Z"/><path class="d" d="M40.89108,10.1766a1.633,1.633,0,0,1,.3418,1.13086,1.76615,1.76615,0,0,1-.4502,1.248,2.38506,2.38506,0,0,1-1.12793.67774l-.24609.07226a.117.117,0,0,1-.11133-.042.17048.17048,0,0,1-.05078-.12012V12.537a.16986.16986,0,0,1,.042-.11036.29354.29354,0,0,1,.1084-.08105l.19141-.07812a.96692.96692,0,0,0,.43554-.32129,1.00544,1.00544,0,0,0,.15918-.6084.80819.80819,0,0,0-.13281-.52832.64.64,0,0,0-.49121-.15039H39.4028l-.80469-.00586a.14421.14421,0,0,1-.10742-.042.14273.14273,0,0,1-.042-.10743V9.117a.138.138,0,0,1,.04492-.10742.14853.14853,0,0,1,.10449-.042h.64844a.14382.14382,0,0,1,.15039.14941V9.8016H39.769A1.45816,1.45816,0,0,1,40.89108,10.1766Z"/><path class="d" d="M44.05905,13.18539a.14876.14876,0,0,1-.042-.10839V11.3016a.60208.60208,0,0,0-.67774-.68457H41.97116a.15255.15255,0,0,1-.11035-.042.13873.13873,0,0,1-.0459-.10742V9.951a.13873.13873,0,0,1,.0459-.10742.15256.15256,0,0,1,.11035-.042H43.3696a1.84047,1.84047,0,0,1,1.24511.36622,1.44036,1.44036,0,0,1,.417,1.13964V13.077a.14348.14348,0,0,1-.04493.10839.15648.15648,0,0,1-.11132.042h-.708A.14645.14645,0,0,1,44.05905,13.18539Zm-2.19824,0a.14081.14081,0,0,1-.0459-.10839V11.325a.13874.13874,0,0,1,.0459-.10742.15255.15255,0,0,1,.11035-.042h.708a.14382.14382,0,0,1,.15039.14941v1.752a.15348.15348,0,0,1-.042.10546.1415.1415,0,0,1-.1084.04493h-.708A.15256.15256,0,0,1,41.86081,13.18539Z"/><path class="d" d="M45.7485,13.18539a.14084.14084,0,0,1-.04589-.10839V9.951a.13875.13875,0,0,1,.04589-.10742.15258.15258,0,0,1,.11036-.042h.75a.14385.14385,0,0,1,.15039.14942v3.126a.15344.15344,0,0,1-.042.10546.14148.14148,0,0,1-.10839.04493h-.75A.15258.15258,0,0,1,45.7485,13.18539Z"/><path class="d" d="M49.5278,13.18246a.15093.15093,0,0,1-.11133.04493H47.49069a.15652.15652,0,0,1-.11133-.042.14351.14351,0,0,1-.04492-.10839v-.51563a.14505.14505,0,0,1,.04492-.1084.16087.16087,0,0,1,.11133-.042h.99609l-.05371-1.18164a1.07093,1.07093,0,0,0-.12011-.50391.4109.4109,0,0,0-.37207-.15625h-.30567a.1442.1442,0,0,1-.10547-.04492.14205.14205,0,0,1-.04492-.10449V9.91586a.1549.1549,0,0,1,.042-.11133.14009.14009,0,0,1,.1084-.04492h.32324a1.57839,1.57839,0,0,1,1.14356.35352,1.64522,1.64522,0,0,1,.38672,1.13379l.07812,1.83008A.12556.12556,0,0,1,49.5278,13.18246Z"/><path class="d" d="M14.9653,22.18539a.14876.14876,0,0,1-.042-.10839V20.3016a.60208.60208,0,0,0-.67774-.68457H12.87741a.15255.15255,0,0,1-.11035-.042.13873.13873,0,0,1-.0459-.10742V18.951a.13873.13873,0,0,1,.0459-.10742.15256.15256,0,0,1,.11035-.042h1.39844a1.84047,1.84047,0,0,1,1.24511.36622,1.44036,1.44036,0,0,1,.417,1.13964V22.077a.14348.14348,0,0,1-.04493.10839.15648.15648,0,0,1-.11132.042h-.708A.14645.14645,0,0,1,14.9653,22.18539Zm-2.19824,0a.14081.14081,0,0,1-.0459-.10839V20.325a.13874.13874,0,0,1,.0459-.10742.15255.15255,0,0,1,.11035-.042h.708a.14382.14382,0,0,1,.15039.14941v1.752a.15348.15348,0,0,1-.042.10546.1415.1415,0,0,1-.1084.04493h-.708A.15256.15256,0,0,1,12.76706,22.18539Z"/><path class="d" d="M19.813,22.10141a.12684.12684,0,0,1-.03516.08691.11833.11833,0,0,1-.09082.03907h-.7373a.20148.20148,0,0,1-.16211-.05664c-.03223-.03809-.04981-.05957-.05469-.06348l-1.04981-1.51758a.6785.6785,0,0,0-.2041.33008,1.61342,1.61342,0,0,0-.04785.39551v.75a.15824.15824,0,0,1-.04492.11718.14941.14941,0,0,1-.11133.04493H16.687a.13809.13809,0,0,1-.10449-.04786.16081.16081,0,0,1-.04492-.11425v-.74414a2.11,2.11,0,0,1,.13769-.82813,1.52348,1.52348,0,0,1,.52246-.59961l-.6123-.88183a.1252.1252,0,0,1-.03028-.084.1176.1176,0,0,1,.03907-.08691.11916.11916,0,0,1,.08691-.03907h.708a.19691.19691,0,0,1,.1289.03614.41875.41875,0,0,1,.08692.0957l.9668,1.36816a.53309.53309,0,0,0,.21289-.26464,1.17454,1.17454,0,0,0,.04492-.3418v-.73145a.16433.16433,0,0,1,.042-.11718.138.138,0,0,1,.10742-.04493h.62989a.14491.14491,0,0,1,.11132.04786.16082.16082,0,0,1,.04493.11425v.75586a1.5856,1.5856,0,0,1-.15235.69922,1.43748,1.43748,0,0,1-.55566.56641l.73242,1.03223A.15088.15088,0,0,1,19.813,22.10141Z"/><path class="d" d="M21.229,19.869c.00879.16406.05664.26074.14453.28808l.168.06055a.14179.14179,0,0,1,.0752.06836.23982.23982,0,0,1,.02636.11133l.00586.30566a.15782.15782,0,0,1-.08105.1416.29509.29509,0,0,1-.19434.03907l-.24609-.03614a.76473.76473,0,0,1-.51563-.333,1.19626,1.19626,0,0,1-.2041-.7168V18.951a.20132.20132,0,0,1,.05078-.10742.12644.12644,0,0,1,.09864-.042H21.769a1.55184,1.55184,0,0,1,1.17285.4043,1.7084,1.7084,0,0,1,.42383,1.1377c.00391.04.00586.0957.00586.168a1.89406,1.89406,0,0,1-.38379,1.26269,1.5141,1.5141,0,0,1-1.21875.45313H20.62936a.15652.15652,0,0,1-.11133-.042.14351.14351,0,0,1-.04492-.10839v-.55176a.15346.15346,0,0,1,.15625-.15625h1.11035a.71875.71875,0,0,0,.501-.17676.70135.70135,0,0,0,.21289-.501c.00391-.04.00586-.09961.00586-.17968,0-.07618-.002-.13379-.00586-.17383a.67889.67889,0,0,0-.207-.501.72429.72429,0,0,0-.50684-.17773H21.229Z"/><path class="d" d="M25.58346,22.18539a.14007.14007,0,0,1-.04492-.10839V20.3016a.60276.60276,0,0,0-.67871-.68457h-.91211a.142.142,0,0,1-.10449-.04492.14051.14051,0,0,1-.04492-.10449V18.951a.138.138,0,0,1,.04492-.10742.14688.14688,0,0,1,.10449-.042H24.896a1.91931,1.91931,0,0,1,1.24512.3418,1.37977,1.37977,0,0,1,.41113,1.12207V22.077a.15343.15343,0,0,1-.042.10546.14149.14149,0,0,1-.1084.04493h-.708A.15258.15258,0,0,1,25.58346,22.18539Z"/><path class="d" d="M30.25339,19.16782a1.44683,1.44683,0,0,1,.38379,1.09765V22.077a.14915.14915,0,0,1-.042.10546.138.138,0,0,1-.10742.04493H28.84909a.142.142,0,0,1-.10449-.04493.14414.14414,0,0,1-.04492-.10546v-.51563a.1415.1415,0,0,1,.04492-.1084.15114.15114,0,0,1,.10449-.042h.77441V20.31332a.71931.71931,0,0,0-.15039-.48632.49137.49137,0,0,0-.38965-.17383h-.46777l-.50976,2.418a.18777.18777,0,0,1-.04883.11132.138.138,0,0,1-.10742.04493h-.69043a.14725.14725,0,0,1-.11036-.04493.1189.1189,0,0,1-.0332-.11132l.58789-2.41211H27.3071a.138.138,0,0,1-.10742-.04493.15254.15254,0,0,1-.042-.11035V18.951a.138.138,0,0,1,.04493-.10742.14688.14688,0,0,1,.10449-.042h1.92676A1.41545,1.41545,0,0,1,30.25339,19.16782Z"/><path class="d" d="M33.52975,19.1766a1.633,1.633,0,0,1,.3418,1.13086,1.76619,1.76619,0,0,1-.45019,1.24805,2.38516,2.38516,0,0,1-1.12793.67774l-.2461.07226a.117.117,0,0,1-.11133-.042.17048.17048,0,0,1-.05078-.12012V21.537a.16986.16986,0,0,1,.042-.11036.29354.29354,0,0,1,.1084-.08105l.19141-.07812a.967.967,0,0,0,.43555-.32129,1.00551,1.00551,0,0,0,.15918-.6084.80818.80818,0,0,0-.13282-.52832.64.64,0,0,0-.49121-.15039h-.15625l-.80469-.00586a.14421.14421,0,0,1-.10742-.042.14273.14273,0,0,1-.042-.10743V18.117a.138.138,0,0,1,.04492-.10742.14855.14855,0,0,1,.10449-.042h.64844a.14382.14382,0,0,1,.15039.14941v.68457h.37207A1.45816,1.45816,0,0,1,33.52975,19.1766Z"/><path class="d" d="M35.75925,22.18539a.14081.14081,0,0,1-.0459-.10839V18.951a.13873.13873,0,0,1,.0459-.10742.15254.15254,0,0,1,.11035-.042h1.3623a1.822,1.822,0,0,1,1.21485.34473,1.41747,1.41747,0,0,1,.39941,1.125v1.79981a.15485.15485,0,0,1-.04492.11132.15094.15094,0,0,1-.11133.04493H35.8696A.15254.15254,0,0,1,35.75925,22.18539Zm2.12011-.77441V20.3016a.60208.60208,0,0,0-.67773-.68457h-.57617V21.411Z"/><path class="d" d="M39.5444,20.76352a.14152.14152,0,0,1-.04492-.1084V18.951a.138.138,0,0,1,.04492-.10742.1565.1565,0,0,1,.11133-.042h.75a.14377.14377,0,0,1,.14941.14942v1.7041a.14915.14915,0,0,1-.042.10547.138.138,0,0,1-.10742.04492h-.75A.1565.1565,0,0,1,39.5444,20.76352Z"/><path class="d" d="M43.53171,19.1766a1.633,1.633,0,0,1,.34179,1.13086,1.76619,1.76619,0,0,1-.45019,1.24805,2.38511,2.38511,0,0,1-1.12793.67774l-.2461.07226a.117.117,0,0,1-.11132-.042.17048.17048,0,0,1-.05078-.12012V21.537a.16986.16986,0,0,1,.042-.11036.29345.29345,0,0,1,.1084-.08105l.1914-.07812a.967.967,0,0,0,.43555-.32129,1.00544,1.00544,0,0,0,.15918-.6084.80819.80819,0,0,0-.13281-.52832.64.64,0,0,0-.49121-.15039h-.15625l-.80469-.00586a.14419.14419,0,0,1-.10742-.042.14274.14274,0,0,1-.042-.10743V18.117a.138.138,0,0,1,.04493-.10742.14853.14853,0,0,1,.10449-.042h.64844a.14384.14384,0,0,1,.15039.14941v.68457h.37207A1.45817,1.45817,0,0,1,43.53171,19.1766Z"/><path class="d" d="M44.50046,22.18539a.14081.14081,0,0,1-.0459-.10839V18.951a.13873.13873,0,0,1,.0459-.10742.15254.15254,0,0,1,.11035-.042h.75a.14384.14384,0,0,1,.15039.14942v3.126a.15348.15348,0,0,1-.042.10546.1415.1415,0,0,1-.1084.04493h-.75A.15254.15254,0,0,1,44.50046,22.18539Z"/><path class="d" d="M46.26511,22.18539a.14081.14081,0,0,1-.0459-.10839V18.951a.13873.13873,0,0,1,.0459-.10742.15254.15254,0,0,1,.11035-.042h1.416a1.888,1.888,0,0,1,1.25684.35059,1.45515,1.45515,0,0,1,.40527,1.15527V22.077a.14914.14914,0,0,1-.042.10546.1394.1394,0,0,1-.10742.04493h-.708a.15491.15491,0,0,1-.11133-.042.14007.14007,0,0,1-.04492-.10839V20.3016a.60247.60247,0,0,0-.67773-.68457h-.52832v2.46a.15344.15344,0,0,1-.042.10546.14149.14149,0,0,1-.1084.04493h-.708A.15254.15254,0,0,1,46.26511,22.18539Z"/><rect class="e" x="21.08625" width="14.03841" height="5.61702"/></svg>