<svg xmlns="http://www.w3.org/2000/svg" viewBox="0 0 57.98938 59.97492"><defs><style>.a{fill:#7dbcd5;}.b{fill:#65aab9;}.c{fill:#69a3b7;}.d{fill:#2a434b;}.e{fill:#ead4d4;opacity:0.5;}</style></defs><rect class="a" x="0.25014" y="2.23569" width="57.48926" height="57.48926"/><path class="b" d="M57.4894,2.48547V59.47491H.5V2.48547H57.4894m.5-.5H0V59.97491H57.9894V1.98547Z"/><rect class="c" x="8.15953" y="30.04358" width="41.61725" height="2.55319" rx="0.98443"/><rect class="c" x="8.15953" y="36.42656" width="41.61725" height="2.55319" rx="0.98443"/><rect class="c" x="8.15953" y="49.22523" width="41.61725" height="2.55319" rx="0.98443"/><rect class="c" x="24.51953" y="42.80953" width="25.25725" height="2.55319" rx="1.27659"/><path class="d" d="M25.75014,10.15805a1.38689,1.38689,0,0,1,.417,1.11328V13.077a.14914.14914,0,0,1-.042.10546.14149.14149,0,0,1-.1084.04493h-.708a.15418.15418,0,0,1-.11036-.042.14007.14007,0,0,1-.04492-.10839V11.3016a.60276.60276,0,0,0-.67871-.68457H24.0851a3.68182,3.68182,0,0,0-.08984.88282l.04785,1.57715a.14007.14007,0,0,1-.04492.10839.15649.15649,0,0,1-.11133.042l-1.27148-.00586a.15649.15649,0,0,1-.11133-.042.14147.14147,0,0,1-.04492-.10839V12.5975a.14151.14151,0,0,1,.04492-.1084.16084.16084,0,0,1,.11133-.042h.48535v-.9414a3.24335,3.24335,0,0,1,.09082-.88868h-.35449a.15648.15648,0,0,1-.11133-.042.14132.14132,0,0,1-.04492-.10742V9.951a.14132.14132,0,0,1,.04492-.10742.15649.15649,0,0,1,.11133-.042h1.67382A1.86689,1.86689,0,0,1,25.75014,10.15805Z"/><path class="d" d="M29.06557,10.1766a1.633,1.633,0,0,1,.3418,1.13086,1.76615,1.76615,0,0,1-.4502,1.248,2.38506,2.38506,0,0,1-1.12793.67774l-.24609.07226a.117.117,0,0,1-.11133-.042.17048.17048,0,0,1-.05078-.12012V12.537a.16986.16986,0,0,1,.042-.11036.29354.29354,0,0,1,.1084-.08105l.19141-.07812a.96692.96692,0,0,0,.43554-.32129,1.00544,1.00544,0,0,0,.15918-.6084.80819.80819,0,0,0-.13281-.52832.64.64,0,0,0-.49121-.15039h-.15625l-.80469-.00586a.14421.14421,0,0,1-.10742-.042.14273.14273,0,0,1-.042-.10743V9.117a.138.138,0,0,1,.04492-.10742.14853.14853,0,0,1,.10449-.042H27.421a.14382.14382,0,0,1,.15039.14941V9.8016h.37207A1.45816,1.45816,0,0,1,29.06557,10.1766Z"/><path class="d" d="M29.92006,13.18246a.14417.14417,0,0,1-.04492-.10546v-.51563a.14153.14153,0,0,1,.04492-.1084.15118.15118,0,0,1,.1045-.042h1.50683V11.3016a.59947.59947,0,0,0-.67871-.67773H30.0851a.1423.1423,0,0,1-.1084-.0459.15671.15671,0,0,1-.042-.11035V9.951a.14136.14136,0,0,1,.04492-.10742.14917.14917,0,0,1,.10547-.042H30.883a1.957,1.957,0,0,1,1.26856.35352,1.40482,1.40482,0,0,1,.42969,1.14648V12.411h.21a.14382.14382,0,0,1,.14941.15039V13.077a.14914.14914,0,0,1-.042.10546.138.138,0,0,1-.10742.04493h-2.7666A.14206.14206,0,0,1,29.92006,13.18246Z"/><path class="d" d="M34.94448,13.26352a.18044.18044,0,0,1-.04785-.12012V12.537a.18714.18714,0,0,1,.042-.11328.23571.23571,0,0,1,.1084-.07813l.18554-.07812a.88226.88226,0,0,0,.60059-.92969.78968.78968,0,0,0-.13574-.52832.65063.65063,0,0,0-.49414-.15039H33.60659a.15506.15506,0,0,1-.15625-.15528V9.94516a.129.129,0,0,1,.04883-.10156.15545.15545,0,0,1,.10742-.042h1.80664a1.45817,1.45817,0,0,1,1.12207.375,1.633,1.633,0,0,1,.3418,1.13086,1.76619,1.76619,0,0,1-.4502,1.248,2.38506,2.38506,0,0,1-1.12793.67774l-.24609.07226A.11079.11079,0,0,1,34.94448,13.26352ZM33.49624,14.3309a.13873.13873,0,0,1-.0459-.10742V11.325a.13874.13874,0,0,1,.0459-.10742.15254.15254,0,0,1,.11035-.042h.68457a.14376.14376,0,0,1,.14941.14941v2.89844a.14529.14529,0,0,1-.14941.15039h-.68457A.1533.1533,0,0,1,33.49624,14.3309Z"/><path class="d" d="M40.89077,10.1766a1.633,1.633,0,0,1,.34179,1.13086,1.76619,1.76619,0,0,1-.45019,1.248,2.38511,2.38511,0,0,1-1.12793.67774l-.24609.07226a.117.117,0,0,1-.11133-.042.17048.17048,0,0,1-.05078-.12012V12.537a.16986.16986,0,0,1,.042-.11036.29345.29345,0,0,1,.1084-.08105l.1914-.07812a.967.967,0,0,0,.43555-.32129,1.00544,1.00544,0,0,0,.15918-.6084.80819.80819,0,0,0-.13281-.52832.64.64,0,0,0-.49121-.15039h-.15625l-.80469-.00586a.14419.14419,0,0,1-.10742-.042.14274.14274,0,0,1-.042-.10743V9.117a.138.138,0,0,1,.04493-.10742.14853.14853,0,0,1,.10449-.042h.64844a.14384.14384,0,0,1,.15039.14941V9.8016h.37207A1.45817,1.45817,0,0,1,40.89077,10.1766Z"/><path class="d" d="M44.05874,13.18539a.14872.14872,0,0,1-.042-.10839V11.3016A.60208.60208,0,0,0,43.339,10.617H41.97085a.15258.15258,0,0,1-.11036-.042.13875.13875,0,0,1-.04589-.10742V9.951a.13875.13875,0,0,1,.04589-.10742.15258.15258,0,0,1,.11036-.042h1.39843a1.8405,1.8405,0,0,1,1.24512.36622,1.44039,1.44039,0,0,1,.417,1.13964V13.077a.14347.14347,0,0,1-.04492.10839.15649.15649,0,0,1-.11133.042h-.708A.14644.14644,0,0,1,44.05874,13.18539Zm-2.19825,0a.14084.14084,0,0,1-.04589-.10839V11.325a.13877.13877,0,0,1,.04589-.10742.15258.15258,0,0,1,.11036-.042h.708a.14382.14382,0,0,1,.15039.14941v1.752a.15343.15343,0,0,1-.042.10546.14149.14149,0,0,1-.1084.04493h-.708A.15258.15258,0,0,1,41.86049,13.18539Z"/><path class="d" d="M45.74819,13.18539a.14084.14084,0,0,1-.0459-.10839V9.951a.13876.13876,0,0,1,.0459-.10742.15258.15258,0,0,1,.11035-.042h.75a.14384.14384,0,0,1,.15039.14942v3.126a.15348.15348,0,0,1-.042.10546.14149.14149,0,0,1-.1084.04493h-.75A.15258.15258,0,0,1,45.74819,13.18539Z"/><path class="d" d="M49.52749,13.18246a.151.151,0,0,1-.11133.04493H47.49038a.15649.15649,0,0,1-.11133-.042.14347.14347,0,0,1-.04492-.10839v-.51563a.145.145,0,0,1,.04492-.1084.16084.16084,0,0,1,.11133-.042h.99609l-.05371-1.18164a1.071,1.071,0,0,0-.12012-.50391.41089.41089,0,0,0-.37207-.15625h-.30566a.14418.14418,0,0,1-.10547-.04492.14205.14205,0,0,1-.04492-.10449V9.91586a.1549.1549,0,0,1,.042-.11133.14009.14009,0,0,1,.1084-.04492h.32324a1.57838,1.57838,0,0,1,1.14355.35352,1.64512,1.64512,0,0,1,.38672,1.13379l.07813,1.83008A.12559.12559,0,0,1,49.52749,13.18246Z"/><path class="d" d="M14.965,22.18539a.14872.14872,0,0,1-.042-.10839V20.3016a.60208.60208,0,0,0-.67773-.68457H12.8771a.15258.15258,0,0,1-.11036-.042.13875.13875,0,0,1-.04589-.10742V18.951a.13875.13875,0,0,1,.04589-.10742.15258.15258,0,0,1,.11036-.042h1.39843a1.8405,1.8405,0,0,1,1.24512.36622,1.44039,1.44039,0,0,1,.417,1.13964V22.077a.14347.14347,0,0,1-.04492.10839.15649.15649,0,0,1-.11133.042h-.708A.14644.14644,0,0,1,14.965,22.18539Zm-2.19825,0a.14084.14084,0,0,1-.04589-.10839V20.325a.13877.13877,0,0,1,.04589-.10742.15258.15258,0,0,1,.11036-.042h.708a.14382.14382,0,0,1,.15039.14941v1.752a.15343.15343,0,0,1-.042.10546.14149.14149,0,0,1-.1084.04493h-.708A.15258.15258,0,0,1,12.76674,22.18539Z"/><path class="d" d="M19.81264,22.10141a.12687.12687,0,0,1-.03515.08691.11834.11834,0,0,1-.09082.03907h-.73731a.2015.2015,0,0,1-.16211-.05664c-.03223-.03809-.0498-.05957-.05469-.06348l-1.0498-1.51758a.67835.67835,0,0,0-.2041.33008,1.61342,1.61342,0,0,0-.04785.39551v.75a.1582.1582,0,0,1-.04493.11718.14939.14939,0,0,1-.11132.04493h-.58789a.13813.13813,0,0,1-.1045-.04786.16085.16085,0,0,1-.04492-.11425v-.74414a2.11,2.11,0,0,1,.1377-.82813,1.52332,1.52332,0,0,1,.52246-.59961l-.61231-.88183a.12524.12524,0,0,1-.03027-.084.11759.11759,0,0,1,.03906-.08691.1192.1192,0,0,1,.08692-.03907h.708a.197.197,0,0,1,.12891.03614.419.419,0,0,1,.08691.0957l.9668,1.36816a.533.533,0,0,0,.21289-.26464,1.1742,1.1742,0,0,0,.04492-.3418v-.73145a.16433.16433,0,0,1,.042-.11718.138.138,0,0,1,.10742-.04493h.62988a.14493.14493,0,0,1,.11133.04786.16085.16085,0,0,1,.04492.11425v.75586a1.58559,1.58559,0,0,1-.15234.69922,1.43744,1.43744,0,0,1-.55567.56641l.73242,1.03223A.1508.1508,0,0,1,19.81264,22.10141Z"/><path class="d" d="M21.22866,19.869c.00879.16406.05664.26074.14453.28808l.168.06055a.14177.14177,0,0,1,.07519.06836.23983.23983,0,0,1,.02637.11133l.00586.30566a.15783.15783,0,0,1-.08106.1416.29507.29507,0,0,1-.19433.03907l-.24609-.03614a.76471.76471,0,0,1-.51563-.333,1.19619,1.19619,0,0,1-.2041-.7168V18.951a.20118.20118,0,0,1,.05078-.10742.12641.12641,0,0,1,.09863-.042H21.7687a1.55185,1.55185,0,0,1,1.17285.4043,1.70845,1.70845,0,0,1,.42383,1.1377c.0039.04.00586.0957.00586.168a1.89406,1.89406,0,0,1-.38379,1.26269,1.51411,1.51411,0,0,1-1.21875.45313H20.62905a.15649.15649,0,0,1-.11133-.042.14347.14347,0,0,1-.04492-.10839v-.55176a.15346.15346,0,0,1,.15625-.15625H21.7394a.71876.71876,0,0,0,.501-.17676.70139.70139,0,0,0,.21289-.501c.0039-.04.00586-.09961.00586-.17968,0-.07618-.002-.13379-.00586-.17383a.67889.67889,0,0,0-.207-.501.72431.72431,0,0,0-.50684-.17773h-.51074Z"/><path class="d" d="M25.58315,22.18539a.14007.14007,0,0,1-.04492-.10839V20.3016a.60276.60276,0,0,0-.67871-.68457h-.91211a.142.142,0,0,1-.10449-.04492.14048.14048,0,0,1-.04493-.10449V18.951a.138.138,0,0,1,.04493-.10742.14688.14688,0,0,1,.10449-.042h.94824a1.91935,1.91935,0,0,1,1.24512.3418,1.3798,1.3798,0,0,1,.41113,1.12207V22.077a.15348.15348,0,0,1-.042.10546.1415.1415,0,0,1-.1084.04493h-.708A.15258.15258,0,0,1,25.58315,22.18539Z"/><path class="d" d="M30.25307,19.16782a1.44683,1.44683,0,0,1,.38379,1.09765V22.077a.14914.14914,0,0,1-.042.10546.138.138,0,0,1-.10742.04493H28.84877a.14206.14206,0,0,1-.10449-.04493.14417.14417,0,0,1-.04492-.10546v-.51563a.14153.14153,0,0,1,.04492-.1084.15117.15117,0,0,1,.10449-.042h.77442V20.31332a.71936.71936,0,0,0-.15039-.48632.49137.49137,0,0,0-.38965-.17383h-.46777l-.50977,2.418a.18771.18771,0,0,1-.04883.11132.138.138,0,0,1-.10742.04493h-.69043a.14725.14725,0,0,1-.11035-.04493.11887.11887,0,0,1-.0332-.11132l.58789-2.41211h-.39649a.138.138,0,0,1-.10742-.04493.15254.15254,0,0,1-.042-.11035V18.951a.138.138,0,0,1,.04492-.10742.14688.14688,0,0,1,.10449-.042h1.92676A1.41544,1.41544,0,0,1,30.25307,19.16782Z"/><path class="d" d="M33.52944,19.1766a1.633,1.633,0,0,1,.3418,1.13086,1.76615,1.76615,0,0,1-.4502,1.24805,2.38506,2.38506,0,0,1-1.12793.67774l-.24609.07226a.117.117,0,0,1-.11133-.042.17048.17048,0,0,1-.05078-.12012V21.537a.16986.16986,0,0,1,.042-.11036.29345.29345,0,0,1,.1084-.08105l.1914-.07812a.967.967,0,0,0,.43555-.32129,1.00544,1.00544,0,0,0,.15918-.6084.80819.80819,0,0,0-.13281-.52832.64.64,0,0,0-.49121-.15039h-.15625l-.80469-.00586a.14419.14419,0,0,1-.10742-.042.14273.14273,0,0,1-.042-.10743V18.117a.138.138,0,0,1,.04492-.10742.14853.14853,0,0,1,.10449-.042h.64844a.14382.14382,0,0,1,.15039.14941v.68457h.37207A1.45817,1.45817,0,0,1,33.52944,19.1766Z"/><path class="d" d="M35.75893,22.18539a.14084.14084,0,0,1-.0459-.10839V18.951a.13876.13876,0,0,1,.0459-.10742.15258.15258,0,0,1,.11035-.042h1.36231a1.82194,1.82194,0,0,1,1.21484.34473,1.41744,1.41744,0,0,1,.39942,1.125v1.79981a.15482.15482,0,0,1-.04493.11132.15092.15092,0,0,1-.11132.04493H35.86928A.15258.15258,0,0,1,35.75893,22.18539Zm2.12012-.77441V20.3016a.60208.60208,0,0,0-.67774-.68457h-.57617V21.411Z"/><path class="d" d="M39.54409,20.76352a.14148.14148,0,0,1-.04492-.1084V18.951a.138.138,0,0,1,.04492-.10742.15649.15649,0,0,1,.11133-.042h.75a.14377.14377,0,0,1,.14941.14942v1.7041a.14915.14915,0,0,1-.042.10547.138.138,0,0,1-.10742.04492h-.75A.15648.15648,0,0,1,39.54409,20.76352Z"/><path class="d" d="M43.53139,19.1766a1.633,1.633,0,0,1,.3418,1.13086,1.76615,1.76615,0,0,1-.4502,1.24805,2.38506,2.38506,0,0,1-1.12793.67774l-.24609.07226a.117.117,0,0,1-.11133-.042.17048.17048,0,0,1-.05078-.12012V21.537a.16986.16986,0,0,1,.042-.11036.29354.29354,0,0,1,.1084-.08105l.19141-.07812a.96692.96692,0,0,0,.43554-.32129,1.00544,1.00544,0,0,0,.15918-.6084.80819.80819,0,0,0-.13281-.52832.64.64,0,0,0-.49121-.15039h-.15625l-.80469-.00586a.14421.14421,0,0,1-.10742-.042.14273.14273,0,0,1-.042-.10743V18.117a.138.138,0,0,1,.04492-.10742.14853.14853,0,0,1,.10449-.042h.64844a.14382.14382,0,0,1,.15039.14941v.68457h.37207A1.45816,1.45816,0,0,1,43.53139,19.1766Z"/><path class="d" d="M44.50014,22.18539a.14084.14084,0,0,1-.0459-.10839V18.951a.13876.13876,0,0,1,.0459-.10742.15258.15258,0,0,1,.11035-.042h.75a.14384.14384,0,0,1,.15039.14942v3.126a.15343.15343,0,0,1-.042.10546.14149.14149,0,0,1-.1084.04493h-.75A.15258.15258,0,0,1,44.50014,22.18539Z"/><path class="d" d="M46.26479,22.18539a.14084.14084,0,0,1-.0459-.10839V18.951a.13876.13876,0,0,1,.0459-.10742.15258.15258,0,0,1,.11035-.042h1.416a1.888,1.888,0,0,1,1.25683.35059,1.45515,1.45515,0,0,1,.40528,1.15527V22.077a.14911.14911,0,0,1-.042.10546.13938.13938,0,0,1-.10742.04493h-.708a.15487.15487,0,0,1-.11133-.042.14.14,0,0,1-.04492-.10839V20.3016a.60247.60247,0,0,0-.67774-.68457h-.52832v2.46a.15348.15348,0,0,1-.042.10546.14149.14149,0,0,1-.1084.04493h-.708A.15258.15258,0,0,1,46.26479,22.18539Z"/><rect class="e" x="21.08625" width="14.03841" height="5.61702"/></svg>