<svg xmlns="http://www.w3.org/2000/svg" xmlns:xlink="http://www.w3.org/1999/xlink" viewBox="0 0 62.38666 81.70611"><defs><style>.a,.be,.bg,.bi,.j{fill:none;}.b,.bb{fill:#f6f6f6;}.b,.bd,.be,.bg,.bi,.c{stroke:#2d2a28;stroke-width:0.78012px;}.b,.be,.bg{stroke-miterlimit:10;}.ba,.c{fill:#2d2a28;}.bd,.bg,.bi,.c{stroke-linecap:round;}.bd,.bi,.c,.j{stroke-linejoin:round;}.d{fill:#939699;}.e{fill:#b2b2b2;}.f{fill:#706f6f;}.g{clip-path:url(#a);}.h{clip-path:url(#b);}.i{clip-path:url(#c);}.j{stroke:#818180;stroke-width:0.66743px;}.k{clip-path:url(#d);}.l{clip-path:url(#e);}.m{clip-path:url(#f);}.n{clip-path:url(#g);}.o{clip-path:url(#h);}.p{clip-path:url(#i);}.q{clip-path:url(#j);}.r{clip-path:url(#k);}.s{clip-path:url(#l);}.t{clip-path:url(#m);}.u{clip-path:url(#n);}.v{clip-path:url(#o);}.w{clip-path:url(#p);}.x{clip-path:url(#q);}.y{clip-path:url(#r);}.z{clip-path:url(#s);}.aa{clip-path:url(#t);}.ab{clip-path:url(#u);}.ac{clip-path:url(#v);}.ad{clip-path:url(#w);}.ae{clip-path:url(#x);}.af{clip-path:url(#y);}.ag{clip-path:url(#z);}.ah{clip-path:url(#aa);}.ai{clip-path:url(#ab);}.aj{clip-path:url(#ac);}.ak{clip-path:url(#ad);}.al{clip-path:url(#ae);}.am{clip-path:url(#af);}.an{clip-path:url(#ag);}.ao{clip-path:url(#ah);}.ap{clip-path:url(#ai);}.aq{clip-path:url(#aj);}.ar{clip-path:url(#ak);}.as{clip-path:url(#al);}.at{clip-path:url(#am);}.au{clip-path:url(#an);}.av{clip-path:url(#ao);}.aw{clip-path:url(#ap);}.ax{clip-path:url(#aq);}.ay{clip-path:url(#ar);}.az{fill:#dadada;}.bc{clip-path:url(#as);}.bd{fill:#575756;}.bf{clip-path:url(#at);}.bh{clip-path:url(#au);}</style><clipPath id="a"><path class="a" d="M29.407,12.6487c-14.75634,0-26.71924,3.59814-26.71924,8.03668a2.49594,2.49594,0,0,0,.06348.52655L8.616,69.96724h0c0,3.45331,9.30713,6.25275,20.78857,6.25275,11.48047,0,20.78809-2.79944,20.78809-6.25275h0l5.87011-48.75488a2.49986,2.49986,0,0,0,.06348-.527C56.12625,16.24684,44.16336,12.6487,29.407,12.6487Z"/></clipPath><clipPath id="b"><path class="a" d="M51.93587,68.4412Q46.45516,84.08088,27.95515,76.883,9.72115,82.04,7.21162,62.773c-.54931-7.82294-10.67724-45.33557.43494-46.40039,4.95129-7.8725,11.913-8.60047,20.49975-8.76069,15.8534-.29583,18.91236,1.69581,30.9646,13.809C59.80635,34.32658,57.65266,57.18742,51.93587,68.4412Z"/></clipPath><clipPath id="c"><path class="a" d="M54.74092,12.99723c3.479,3.99646,1.51208,2.19043,3.7926,4.89044,2.28284,5.4115,2.14075,3.63477,3.27844,7.6991-2.53955-2.881-1.22876-1.42523-4.792-5.506C56.0096,16.306,56.40693,18.07749,54.74092,12.99723Z"/></clipPath><clipPath id="d"><path class="a" d="M57.02,20.08073c3.56323,4.08081,2.25244,2.625,4.792,5.506,1.13782,4.06427-.91479,2.67468-1.93859,9.64538a62.69349,62.69349,0,0,1-3.30152-7.15881C57.97127,20.99491,58.03035,23.85544,57.02,20.08073Z"/></clipPath><clipPath id="e"><path class="a" d="M56.57185,28.07334a62.69349,62.69349,0,0,0,3.30152,7.15881c-1.02381,6.97071.91845,2.37891.63024,6.83808-5.406-.28913-5.06713.14612-7.881-.85791C53.66438,35.73868,55.17232,35.15171,56.57185,28.07334Z"/></clipPath><clipPath id="f"><path class="a" d="M52.62263,41.21232c2.81385,1.004,2.475.56878,7.881.85791-.2882,4.45917,1.03553,7.33154.8617,11.46039-6.02136-.0235-5.60816-.19281-8.829.13836C52.71,49.17332,51.581,46.68589,52.62263,41.21232Z"/></clipPath><clipPath id="g"><path class="a" d="M52.53633,53.669c3.22082-.33117,2.80762-.16186,8.829-.13836-.17395,4.12878-1.57654,6.85223-3.09375,10.23443-5.82654.032-6.32251-.90509-7.63745.99262C51.45686,60.862,52.36262,58.16465,52.53633,53.669Z"/></clipPath><clipPath id="h"><path class="a" d="M50.63411,64.75767c1.31494-1.89771,1.81091-.96057,7.63745-.99262-1.51734,3.3822-1.18347,3.0091-2.62134,8.36847-5.88232,0-6.85657-1.31708-7.10034,1.27222C49.893,68.08958,49.81135,68.65336,50.63411,64.75767Z"/></clipPath><clipPath id="i"><path class="a" d="M45.17573,2.0073c5.08155,3.06378,6.08619,6.99347,9.56519,10.98993,1.666,5.08026,1.26868,3.30878,2.279,7.0835C53.45674,16,50.91182,12.86,45.44478,10.18388,44.65718,5.55546,45.26021,7.82542,45.17573,2.0073Z"/></clipPath><clipPath id="j"><path class="a" d="M45.44478,10.18388C50.91182,12.86,53.45674,16,57.02,20.08073c1.01038,3.77471.9513.91418-.44812,7.99261-1.91015-4.59723-2.5758-7.64581-8.272-7.90008C48.36641,14.15641,46.2325,14.81223,45.44478,10.18388Z"/></clipPath><clipPath id="k"><path class="a" d="M48.29988,20.17326c5.69617.25427,6.36182,3.30285,8.272,7.90008-1.39953,7.07837-2.90747,7.66534-3.94922,13.139-2.81384-1.004-1.85717-2.17768-7.4823-2.05329C45.89827,32.22916,48.23335,26.1901,48.29988,20.17326Z"/></clipPath><clipPath id="l"><path class="a" d="M45.14033,39.159c5.62513-.12439,4.66846,1.04926,7.4823,2.05329-1.04162,5.47357.08741,7.961-.0863,12.45666-3.22083.33118-2.30664.81647-8.05689.82727C44.7325,48.42136,44.38228,46.08884,45.14033,39.159Z"/></clipPath><clipPath id="m"><path class="a" d="M44.47944,54.49625c5.75025-.0108,4.83606-.49609,8.05689-.82727-.17371,4.49567-1.07947,7.19306-1.90222,11.08869-1.31494,1.89776,2.09472,4.52844-3.29541,4.741C45.12654,63.46665,44.22627,60.57114,44.47944,54.49625Z"/></clipPath><clipPath id="n"><path class="a" d="M47.3387,69.49863c5.39013-.21252,1.98047-2.8432,3.29541-4.741-.82276,3.89569-.74109,3.33191-2.08423,8.64807-.24378,2.58929,5.66113,6.625.32434,6.87549C48.84749,74.3743,49.551,75.53062,47.3387,69.49863Z"/></clipPath><clipPath id="o"><path class="a" d="M32.90913,1.06565c5.421-1.03186,7.18506-2.12219,12.2666.94165.08448,5.81812-.51855,3.54816.26905,8.17658-5.467-2.67621-7.27405-1.14765-12.69959-.09192C32.57869,4.00132,32.74885,7.32334,32.90913,1.06565Z"/></clipPath><clipPath id="p"><path class="a" d="M32.74519,10.092c5.42554-1.05573,7.23255-2.58429,12.69959.09192.78772,4.62835,2.92163,3.97253,2.8551,9.98938-5.69617-.25428-8.81629,2.65-14.6958,4.91131C33.41365,19.468,32.9117,16.18253,32.74519,10.092Z"/></clipPath><clipPath id="q"><path class="a" d="M33.60408,25.08457c5.87951-2.26135,8.99963-5.16559,14.6958-4.91131-.06653,6.01684-2.40161,12.0559-3.15955,18.98577-5.62524.12433-6.34741-.75915-10.16-1.3706C34.57832,32.48618,33.79439,30.70115,33.60408,25.08457Z"/></clipPath><clipPath id="r"><path class="a" d="M34.9803,37.78843c3.81262.61145,4.53479,1.49493,10.16,1.3706-.758,6.92981-.40783,9.26233-.66089,15.33722-5.75036.01087-6.33679-.43512-10.09973-.81372C34.71773,47.16019,35.38215,43.09067,34.9803,37.78843Z"/></clipPath><clipPath id="s"><path class="a" d="M34.37971,53.68253c3.76294.3786,4.34937.82459,10.09973.81372-.25317,6.07489.6471,8.9704,2.85926,15.00238-5.39.21259-8.01026.08136-13.19593.13892C34.15828,63.04288,34.0417,60.20481,34.37971,53.68253Z"/></clipPath><clipPath id="t"><path class="a" d="M34.14277,69.63755c5.18567-.05756,7.80591.07367,13.19593-.13892,2.21228,6.032,1.50879,4.87567,1.53552,10.7826-5.33691.25048-9.00513.3023-14.93945.54229C34.10945,74.89872,34.12739,76.23221,34.14277,69.63755Z"/></clipPath><clipPath id="u"><path class="a" d="M23.13313,3.65836c1.852.53125,4.35486-1.56091,9.776-2.59271-.16028,6.25769-.33044,2.93567-.16394,9.02631-5.42554,1.05572-8.98535.34954-11.00024-.6648C21.67219,4.5134,21.99946,7.4885,23.13313,3.65836Z"/></clipPath><clipPath id="v"><path class="a" d="M21.745,9.42716c2.01489,1.01434,5.5747,1.72052,11.00024.6648.16651,6.09057.66846,9.376.85889,14.99261-5.87964,2.26141-9.172,1.34656-11.18128.05841C23.96663,19.87717,21.8177,14.34092,21.745,9.42716Z"/></clipPath><clipPath id="w"><path class="a" d="M22.4228,25.143c2.00928,1.28815,5.30164,2.203,11.18128-.05841.19031,5.61658.97424,7.40161,1.37622,12.70386a46.57622,46.57622,0,0,0-12.90308-.04621C22.421,31.25834,20.8791,30.40879,22.4228,25.143Z"/></clipPath><clipPath id="x"><path class="a" d="M22.07722,37.74222a46.57622,46.57622,0,0,1,12.90308.04621c.40185,5.30224-.26257,9.37176-.60059,15.8941a32.61432,32.61432,0,0,0-12.61413,1.56128C21.35493,49.78751,21.73347,44.22605,22.07722,37.74222Z"/></clipPath><clipPath id="y"><path class="a" d="M21.76558,55.24381a32.61432,32.61432,0,0,1,12.61413-1.56128c-.338,6.52228-.22143,9.36035-.23694,15.955-5.18554.05756-8.60022.06287-12.6499.111C21.78059,63.44688,22.1761,60.70011,21.76558,55.24381Z"/></clipPath><clipPath id="z"><path class="a" d="M21.49287,69.74851c4.04968-.04809,7.46436-.0534,12.6499-.111-.01538,6.59466-.03332,5.26117-.208,11.186a96.99086,96.99086,0,0,1-12.66492-.12866C21.29671,74.7902,21.205,76.05021,21.49287,69.74851Z"/></clipPath><clipPath id="aa"><path class="a" d="M18.09578,7.61771c3.05615-1.8114,3.18554-4.49054,5.03735-3.95935-1.13367,3.83014-1.46094.855-1.38818,5.7688-2.01465-1.01428-4.36023-1.32281-7.86011.66065C14.91194,6.89414,14.86812,9.07908,18.09578,7.61771Z"/></clipPath><clipPath id="ab"><path class="a" d="M13.88484,10.08781c3.49988-1.98346,5.84546-1.67493,7.86011-.66065.07275,4.91376,2.22168,10.45.67785,15.71582-2.009-1.288-2.57336-.582-10.5216-.30688C15.17244,21.11545,12.85786,13.28153,13.88484,10.08781Z"/></clipPath><clipPath id="ac"><path class="a" d="M11.9012,24.8361c7.94824-.27509,8.51257-.98114,10.5216.30688-1.5437,5.26581-.00183,6.11536-.34558,12.59924-5.28161.57184-9.33642,1.21406-13.51709.88691C9.86262,30.77915,8.63,28.55674,11.9012,24.8361Z"/></clipPath><clipPath id="ad"><path class="a" d="M8.56013,38.62913c4.18067.32715,8.23548-.31507,13.51709-.88691-.34375,6.48383-.72229,12.04529-.31164,17.50159-4.929,1.43433-9.20862,3.8858-12.68531,1.75287C7.64827,52.95487,7.25764,46.4791,8.56013,38.62913Z"/></clipPath><clipPath id="ae"><path class="a" d="M9.08027,56.99668c3.47669,2.13293,7.75635-.31854,12.68531-1.75287.41052,5.4563.015,8.20307-.27271,14.5047-4.04944.04816-7.66821,1.532-11.49695-.259C9.68428,64.04471,10.51228,61.03843,9.08027,56.99668Z"/></clipPath><clipPath id="af"><path class="a" d="M9.99592,69.48948c3.82874,1.791,7.44751.30719,11.497.259-.28784,6.3017-.19616,5.04169-.223,10.94635-3.72693-.28015-7.0896,1.28766-11.10327-1.59534A87.67533,87.67533,0,0,0,9.99592,69.48948Z"/></clipPath><clipPath id="ag"><path class="a" d="M10.60957,13.7197a27.4903,27.4903,0,0,1,7.48621-6.102c-3.22766,1.46137-3.18384-.72357-4.21094,2.4701a16.34155,16.34155,0,0,0-6.22888,5.815C9.69136,14.8917,8.56758,15.31534,10.60957,13.7197Z"/></clipPath><clipPath id="ah"><path class="a" d="M7.656,15.90281a16.34155,16.34155,0,0,1,6.22888-5.815c-1.027,3.19372,1.2876,11.02764-1.98364,14.74829-7.949.27508-9.01416-2.65125-10.3512-3.82441C2.28743,18.59659,5.62044,16.91392,7.656,15.90281Z"/></clipPath><clipPath id="ai"><path class="a" d="M1.55,21.01169c1.337,1.17316,2.40222,4.09949,10.3512,3.82441C8.63,28.55674,9.86262,30.77915,8.56013,38.62913,4.3791,38.302,5.726,36.758,4.7989,35.67838,3.76436,28.73557.81245,23.4268,1.55,21.01169Z"/></clipPath><clipPath id="aj"><path class="a" d="M4.7989,35.67838C5.726,36.758,4.3791,38.302,8.56013,38.62913c-1.30249,7.85-.91186,14.32574.52014,18.36755C5.60335,54.8635,7.53767,51.625,6.794,49.903,5.80635,44.88438,5.83345,42.62119,4.7989,35.67838Z"/></clipPath><clipPath id="ak"><path class="a" d="M6.794,49.903c.74365,1.722-1.19067,4.96051,2.28625,7.09369,1.432,4.04175.604,7.048.91565,12.4928-3.8291-1.7912-2.56775-6.72486-2.78637-8.09967C7.12752,58.4683,7.78169,54.92167,6.794,49.903Z"/></clipPath><clipPath id="al"><path class="a" d="M7.20955,61.38981c.21862,1.37481-1.04273,6.30847,2.78637,8.09967a87.67533,87.67533,0,0,1,.17066,9.61C6.15266,76.21635,6.83552,66.59336,6.99946,63.894,7.23567,63.22282,7.2917,64.31126,7.20955,61.38981Z"/></clipPath><clipPath id="am"><path class="a" d="M7.50093,16.32859c1.6289-1.8479,1.22668-.287,3.10864-2.60889-2.042,1.59564-.91821,1.172-2.95361,2.18311-1.57483,2.22394-.68421,1.0133-1.962,2.9884C7.53267,18.07578,6.06306,18.15861,7.50093,16.32859Z"/></clipPath><clipPath id="an"><path class="a" d="M5.69392,18.89121c1.27783-1.9751.38721-.76446,1.962-2.9884-2.03552,1.01111-5.36853,2.69378-6.106,5.10888-1.33716-1.17315-.49548-.29321-1.26868-.3081C1.08308,18.63645,3.85518,19.70664,5.69392,18.89121Z"/></clipPath><clipPath id="ao"><path class="a" d="M.28132,20.70359c.7732.01489-.06848-.86505,1.26868.3081C.81245,23.4268,3.76436,28.73557,4.7989,35.67838c-.92712-1.07959-.62561-.40545-2.33471-.995C1.53047,28.01462-.52056,22.77073.28132,20.70359Z"/></clipPath><clipPath id="ap"><path class="a" d="M2.46419,34.68339c1.7091.58954,1.40759-.0846,2.33471.995C5.83345,42.62119,5.80635,44.88438,6.794,49.903c-.74365-1.722-.60718-.52508-2.42261-.96924C3.49409,43.41318,3.3979,41.35221,2.46419,34.68339Z"/></clipPath><clipPath id="aq"><path class="a" d="M4.37141,48.93375c1.81543.44416,1.679-.75274,2.42261.96924.98767,5.01868.3335,8.56531.41553,11.48682-.21851-1.37488-.22339-.12293-.97242.76745C5.92561,59.51816,5.24885,54.45432,4.37141,48.93375Z"/></clipPath><clipPath id="ar"><path class="a" d="M6.23713,62.15726c.749-.89038.75391-2.14233.97242-.76745.08215,2.92145.02612,1.833-.21009,2.50421.16407-2.69934.21216-1.121.21216-1.121S6.54866,64.79636,6.23713,62.15726Z"/></clipPath><clipPath id="as"><circle class="b" cx="35.58756" cy="28.32491" r="4.2948"/></clipPath><clipPath id="at"><path class="b" d="M26.27013,29.00357a5.72427,5.72427,0,0,0,.48888-1.68235,4.04992,4.04992,0,0,0-3.86185-3.2911,4.14237,4.14237,0,0,0-3.97086,4.2948,4.14238,4.14238,0,0,0,3.97086,4.2948,3.844,3.844,0,0,0,3-1.481A16.3436,16.3436,0,0,1,26.27013,29.00357Z"/></clipPath><clipPath id="au"><path class="c" d="M28.5581,33.94755a47.28947,47.28947,0,0,0,4.84465-1.8616c.45374,1.42319-.05161,3.44722-1.55963,4.00158a3.68684,3.68684,0,0,1-2.518-.18382c-.52376-.19307-1.60258-.62308-1.83858-1.19635-.11819-.28811.0928-.36129.38941-.50491C27.93659,34.17312,28.19027,34.0798,28.5581,33.94755Z"/></clipPath></defs><ellipse class="d" cx="34.70275" cy="72.52495" rx="8.81046" ry="25.55334" transform="translate(-41.12715 99.24525) rotate(-83.84017)"/><ellipse class="e" cx="29.40413" cy="69.96744" rx="20.28809" ry="5.75293"/><path class="f" d="M29.40437,64.71451c12.26,0,19.78809,3.05939,19.78809,5.25275S41.66438,75.22,29.40437,75.22c-12.26013,0-19.78821-3.05939-19.78821-5.25275s7.52808-5.25275,19.78821-5.25275m0-1c-11.48108,0-20.78821,2.79944-20.78821,6.25275S17.92329,76.22,29.40437,76.22c11.481,0,20.78809-2.79944,20.78809-6.25275s-9.30713-6.25275-20.78809-6.25275Z"/><g class="g"><g class="h"><g class="i"><path class="j" d="M56.71016,15.72886c2.28283,5.4115,1.93359,3.49011,3.07129,7.55444"/><path class="j" d="M56.128,14.84c1.99537,5.25757,1.65442,3.40839,2.69422,7.335"/><path class="j" d="M55.30952,13.72855c1.773,5.13495,1.40393,3.3407,2.41114,7.16077"/><path class="j" d="M56.78291,19.255c3.547,4.03992,2.22437,2.58252,4.65833,5.37317"/></g><g class="k"><path class="j" d="M59.78145,23.2833c1.13781,4.06427-.48291,1.77753-1.50672,8.74829"/><path class="j" d="M58.82222,22.175c1.03967,3.92652.05835,1.37513-1.21961,8.39185"/><path class="j" d="M57.72066,20.88932c1.00708,3.82007.62316,1.05377-.76709,8.11334"/><path class="j" d="M57.19453,20.79325c3.53,4.11792,2.24573,2.66486,4.84168,5.63245"/><path class="j" d="M57.36543,21.82114c3.37756,4.176,2.16748,2.72943,4.76514,5.84034"/><path class="j" d="M57.39717,22.69767c3.13574,4.23151,2.02685,2.79211,4.53686,6.04376"/><path class="j" d="M57.31917,23.53928c2.84094,4.2898,1.84912,2.85688,4.21838,6.252"/><path class="j" d="M57.16035,24.46262C59.68989,28.819,58.82,27.38993,61.03193,30.9368"/><path class="j" d="M56.95027,25.58427c2.23755,4.4364,1.48389,3.00726,3.558,6.71948"/><path class="j" d="M56.71785,27.02067a74.94079,74.94079,0,0,0,3.33935,6.99707"/></g><g class="l"><path class="j" d="M58.27473,32.03159c-1.02392,6.97083-1.8053,5.34833-2.09338,9.8075"/><path class="j" d="M57.60261,30.56681c-1.27807,7.01672-2.39563,6.2522-3.08423,11.10834"/><path class="j" d="M56.95357,29.00266c-1.39014,7.05951-2.77247,7.152-3.71985,12.40259"/><path class="j" d="M56.27424,29.44761a38.87566,38.87566,0,0,0,3.5542,7.03467"/><path class="j" d="M55.70942,31.56364c1.972,4.22631,1.4646,2.88055,4.0785,6.486"/><path class="j" d="M55.10335,33.43473c2.08325,3.73035,1.61792,2.52332,4.69238,5.61591"/><path class="j" d="M54.48543,35.14426c2.23083,3.11536,1.79663,2.08271,5.36828,4.54352"/><path class="j" d="M53.885,36.77561c2.39893,2.45123,1.98975,1.60779,6.079,3.38757"/><path class="j" d="M53.33125,38.412c2.57141,1.808,2.18591,1.14747,6.79712,2.26716"/><path class="j" d="M52.85359,40.13694c2.73218,1.25555,2.3739.75073,7.49536,1.30115"/></g><g class="m"><path class="j" d="M56.18135,41.83909c-.28821,4.45917.54358,7.54388.36975,11.67267"/><path class="j" d="M54.51838,41.67515c-.68859,4.85614.33643,7.64355.17066,11.85858"/><path class="j" d="M53.23372,41.40525c-.94739,5.25061.1687,7.82654.00036,12.20227"/><path class="j" d="M52.43306,42.362c2.88293.82043,2.56714.43444,8.24524.53021"/><path class="j" d="M52.32686,44.39432c2.9342.70795,2.63488.37012,8.511.44172"/><path class="j" d="M52.37471,46.24241c2.97278.60785,2.657.335,8.54638.48407"/><path class="j" d="M52.442,47.97159c3.03271.45038,2.69385.25983,8.6178.429"/><path class="j" d="M52.50874,49.61332c3.10059.2522,2.73633.15613,8.70288.30462"/><path class="j" d="M52.55476,51.19919c3.16345.02973,2.77539.03541,8.77942.1391"/><path class="j" d="M52.56,52.76072c3.20825-.20044,2.80176-.0907,8.8252-.03967"/></g><g class="n"><path class="j" d="M56.5511,53.51176c-.17395,4.12878-1.42078,6.89672-2.93811,10.27893"/><path class="j" d="M54.689,53.53373c-.16577,4.215-1.36609,6.9165-2.72461,10.42676"/><path class="j" d="M53.23408,53.60752c-.16833,4.37567-1.20825,7.06268-2.26123,10.79535"/><path class="j" d="M52.48823,54.58579c3.22034-.45569,2.80445-.2287,8.81043-.22662"/><path class="j" d="M52.33662,56.20243c3.1814-.64606,2.7721-.327,8.71387-.33771"/><path class="j" d="M52.026,57.97416c3.04444-.76447,2.70484-.37055,8.65479-.30054"/><path class="j" d="M51.6656,59.69077c2.76648-.911,2.57947-.42877,8.60193-.28009"/><path class="j" d="M51.35432,61.21885c2.40747-1.13837,2.39722-.54352,8.41126-.39716"/><path class="j" d="M51.07185,62.62449c1.99683-1.41809,2.179-.695,8.13306-.60327"/><path class="j" d="M50.79756,63.97379c1.56457-1.72174,1.94543-.86316,7.81787-.84991"/></g><g class="o"><path class="j" d="M53.613,63.79069c-1.51721,3.3822-1.228,2.98346-2.66589,8.34277"/><path class="j" d="M51.96443,63.96049a64.54246,64.54246,0,0,0-2.64026,8.33288"/><path class="j" d="M50.97285,64.40287c-1.05285,3.73267-.91052,3.215-2.34875,8.49347"/><path class="j" d="M50.4626,65.55778c1.07385-2.06653,1.68225-1.05292,7.47131-1.12311"/><path class="j" d="M50.13692,67.011c.69519-2.32416,1.48632-1.1889,7.24719-1.29156"/><path class="j" d="M49.75532,68.61668c.38794-2.51539,1.34034-1.27839,7.14466-1.34717"/></g><g class="p"><path class="j" d="M54.11275,12.212c1.57055,5.03888,1.13842,3.2829,2.16357,7.02564"/><path class="j" d="M52.91426,10.75779c1.422,5.002.92126,3.25366,1.98755,6.97571"/><path class="j" d="M51.60042,9.20805c1.27612,5.01293.7052,3.24578,1.8153,6.99493"/><path class="j" d="M50.2093,7.6027c1.11292,5.07678.48157,3.26172,1.61817,7.09082"/><path class="j" d="M48.77864,5.98136c.91272,5.19873.24121,3.30359,1.36743,7.27087"/><path class="j" d="M47.34736,4.38468c.65564,5.38391-.02453,3.37378,1.03418,7.54242"/><path class="j" d="M45.95344,2.85227c.32166,5.63739-.32483,3.47461.58973,7.9129"/><path class="j" d="M45.3177,9.19016c5.29663,2.87695,7.91821,6.0249,11.46521,10.06482"/></g><g class="q"><path class="j" d="M56.27632,19.23765c1.02527,3.74279,1.27344.81469-.1,7.90478"/><path class="j" d="M54.90181,17.7335c1.06628,3.722,1.79883.75183.53943,7.8385"/><path class="j" d="M53.41572,16.203c1.11011,3.74914,2.265.84668,1.18653,7.89026"/><path class="j" d="M51.82747,14.69352c1.13672,3.82916,2.64648,1.12323,1.79162,8.07269"/><path class="j" d="M50.14607,13.25223c1.12622,3.96729,2.91711,1.60578,2.30505,8.39838"/><path class="j" d="M48.38154,11.9271c1.05884,4.16858,3.05127,2.31824,2.677,8.87976"/><path class="j" d="M46.54317,10.76517c.91455,4.4383,3.02282,3.28479,2.85754,9.52954"/><path class="j" d="M45.63313,11.07371c5.58789,2.47174,8.03137,5.60168,11.5614,9.71954"/><path class="j" d="M46.06563,12.4213c5.70105,2.11383,7.92212,5.22382,11.2998,9.39984"/><path class="j" d="M46.58247,13.62412c5.72473,1.75336,7.679,4.842,10.8147,9.07355"/><path class="j" d="M47.1219,14.78507c5.69543,1.39563,7.3562,4.46442,10.19727,8.75421"/><path class="j" d="M47.62251,16.00724c5.64929,1.04614,7.00842,4.09912,9.53784,8.45538"/><path class="j" d="M48.02278,17.39359c5.6228.71027,6.68982,3.75427,8.92749,8.19068"/><path class="j" d="M48.26106,19.04716c5.65222.39343,6.4552,3.43792,8.45679,7.97351"/></g><g class="r"><path class="j" d="M56.17634,27.14243c-1.37329,7.09009-2.98938,8.16822-4.09021,13.85773"/><path class="j" d="M55.44124,25.572c-1.2594,7.08661-3.0271,8.99847-4.16028,15.03607"/><path class="j" d="M54.60225,24.09324c-1.07862,7.04364-2.96436,9.76929-4.06336,16.11542"/><path class="j" d="M53.61909,22.76621c-.85486,6.94946-2.83728,10.46338-3.859,17.0669"/><path class="j" d="M52.45112,21.65061c-.61206,6.79254-2.68164,11.06354-3.60705,17.86182"/><path class="j" d="M51.05855,20.80686C50.68428,27.36838,48.5251,32.35923,47.691,39.278"/><path class="j" d="M49.40071,20.29471c-.16516,6.24482-2.42847,11.9126-3.20007,18.86615"/><path class="j" d="M48.24092,21.45292c5.6206.45105,6.11975,3.46136,8.03332,7.99469"/><path class="j" d="M47.95564,23.89847c5.54285.593,5.78174,3.43885,7.75378,7.66517"/><path class="j" d="M47.49751,26.57157c5.51795.54584,5.52271,3.13281,7.60584,6.86316"/><path class="j" d="M46.93611,29.38071c5.52954.3797,5.31848,2.6482,7.54932,5.76355"/><path class="j" d="M46.34114,32.23447c5.5614.16443,5.1449,2.08991,7.54382,4.54114"/><path class="j" d="M45.78181,35.04105c5.5979-.03,4.978,1.563,7.54944,3.371"/><path class="j" d="M45.32808,37.70914c5.62243-.13354,4.79333,1.17224,7.52551,2.4278"/></g><g class="s"><path class="j" d="M52.08613,41.00016c-1.1007,5.68951.01624,8.11-.16479,12.74078"/><path class="j" d="M51.281,40.60807c-1.1333,6.03766-.08509,8.386-.28247,13.27393"/><path class="j" d="M50.53889,40.20866c-1.09887,6.34613-.16443,8.66473-.38037,13.825"/><path class="j" d="M49.76008,39.83311c-1.02172,6.60351-.22778,8.92071-.46167,14.34954"/><path class="j" d="M48.84407,39.51243c-.92554,6.79828-.28052,9.1286-.5293,14.80371"/><path class="j" d="M47.691,39.278c-.8341,6.91882-.32837,9.2627-.58594,15.14288"/><path class="j" d="M46.20064,39.16086c-.77173,6.95362-.377,9.29767-.63489,15.32306"/><path class="j" d="M45.02522,40.51328c5.61511-.04724,4.5249,1.02826,7.40784,1.8487"/><path class="j" d="M44.9864,42.62559c5.59156.13311,4.40637,1.06079,7.34046,1.76873"/><path class="j" d="M44.93757,44.72373c5.6073.19336,4.46424.91089,7.43714,1.51868"/><path class="j" d="M44.8553,46.84617c5.64429.19635,4.55408.675,7.58667,1.12542"/><path class="j" d="M44.75227,48.98307a62.59786,62.59786,0,0,1,7.75647.63025"/><path class="j" d="M44.64119,51.12479c5.72912.0965,4.75012.04468,7.91357.0744"/><path class="j" d="M44.53438,53.26139c5.75109.02673,4.81726-.30023,8.02563-.50067"/></g><g class="t"><path class="j" d="M51.92134,53.74094c-.18115,4.63074-.92969,7.34919-1.49243,11.427"/><path class="j" d="M50.99849,53.882c-.19751,4.888-.6377,7.65985-.70423,12.08251"/><path class="j" d="M50.15852,54.03361a80.29152,80.29152,0,0,0,.13477,12.78271"/><path class="j" d="M49.29841,54.18265a49.69719,49.69719,0,0,0,.96143,13.47205"/><path class="j" d="M48.31477,54.31614a39.55307,39.55307,0,0,0,1.713,14.095"/><path class="j" d="M47.10505,54.42087c-.25756,5.88019.47974,8.84015,2.32593,14.59565"/><path class="j" d="M45.56575,54.48392c-.25794,6.02539.61633,8.96015,2.73755,14.91852"/><path class="j" d="M44.43257,55.72416c5.73657-.04218,4.83533-.68268,8.05566-1.13837"/><path class="j" d="M44.37837,57.81657c5.67468-.07221,4.77686-.968,7.95825-1.61414"/><path class="j" d="M44.40986,59.88389c5.66883-.01068,4.57166-1.14521,7.61609-1.90973"/><path class="j" d="M44.744,61.96622c5.70752.04615,4.15527-1.3645,6.92163-2.27545"/><path class="j" d="M45.32966,64.06242c5.66517.02209,3.61731-1.70521,6.02466-2.84357"/><path class="j" d="M46.07271,66.167c5.57129-.05432,3.00219-2.12445,4.99914-3.54254"/><path class="j" d="M46.87886,68.27494c5.45556-.1546,2.35425-2.57941,3.9187-4.30115"/></g><g class="u"><path class="j" d="M50.42891,65.16794a68.71464,68.71464,0,0,1-1.76563,8.83722"/><path class="j" d="M50.29426,65.96451c-.06652,4.42261-.17443,3.71753-1.1289,9.21949"/><path class="j" d="M50.29329,66.81632c.45947,4.7865.22253,3.98627-.43848,9.63635"/><path class="j" d="M50.25984,67.6547c.97815,5.14575.61377,4.25128.239,10.04486"/><path class="j" d="M50.02778,68.41111c1.45276,5.47674.96912,4.49335.83643,10.402"/><path class="j" d="M49.431,69.01652c1.84607,5.75549,1.25855,4.693,1.28662,10.66467"/><path class="j" d="M48.3033,69.40244c2.12121,5.95832,1.45215,4.83118,1.523,10.78986"/><path class="j" d="M47.76973,70.72062c5.33288-.26331,1.619-3.09625,2.69287-5.16284"/><path class="j" d="M48.39021,72.81742c5.27075-.31757,1.05164-3.48224,1.74671-5.80646"/><path class="j" d="M48.77583,74.90079c5.28027-.30548.59143-3.76867.97949-6.28411"/></g><g class="v"><path class="j" d="M44.31355,1.35166c-.02417,5.92975-.57727,3.55042.11414,8.35083"/><path class="j" d="M42.71528.62009c-.07922,6.04322-.55517,3.48548.02222,8.54566"/><path class="j" d="M41.07625.22227c-.12366,6.14154-.52832,3.41381-.05457,8.71844"/><path class="j" d="M39.39131.10093c-.15662,6.21972-.49622,3.33313-.1145,8.86218"/><path class="j" d="M37.65535.19926c-.17652,6.2727-.45838,3.24108-.15564,8.96936"/><path class="j" d="M35.86458.46012c-.1825,6.29553-.41431,3.13562-.17664,9.0329"/><path class="j" d="M34.01375.82664c-.1731,6.28308-.36329,3.01434-.17542,9.04541"/><path class="j" d="M32.72664,8.84928c5.41479-1.0227,7.29443-2.53607,12.59106.34088"/></g><g class="w"><path class="j" d="M44.42769,9.70249c.69152,4.80042,2.79516,4.45758,2.68493,10.49182"/><path class="j" d="M42.7375,9.16575c.57739,5.06012,2.53211,5.161,2.3197,11.33722"/><path class="j" d="M41.02168,8.94071c.47376,5.30469,2.2041,5.95313,1.98206,12.14282"/><path class="j" d="M39.27681,8.96311c.38183,5.529,1.8396,6.78626,1.67456,12.89673"/><path class="j" d="M37.49971,9.16862c.30261,5.72827,1.46679,7.61279,1.39953,13.58746"/><path class="j" d="M35.68794,9.493c.23767,5.89728,1.11462,8.3844,1.15991,14.20263"/><path class="j" d="M33.83833,9.87205c.18787,6.03106.81116,9.05334.95789,14.73059"/><path class="j" d="M32.79219,11.32c5.45117-1.12518,7.25293-2.71795,12.84094-.24627"/><path class="j" d="M32.924,13.40842c5.52112-1.30993,7.44068-3.10089,13.14161-.98712"/><path class="j" d="M33.09566,15.4766c5.61193-1.54572,7.7622-3.60577,13.48681-1.85248"/><path class="j" d="M33.27876,17.53873c5.70874-1.79626,8.14783-4.14929,13.84314-2.75366"/><path class="j" d="M33.44514,19.60941C39.242,17.584,41.97322,14.9611,47.62251,16.00724"/><path class="j" d="M33.56672,21.70316c5.8617-2.197,8.83313-5.01977,14.45606-4.30957"/><path class="j" d="M33.61494,23.83433c5.88855-2.27466,8.99378-5.18055,14.64612-4.78717"/></g><g class="x"><path class="j" d="M47.11262,20.19431C47.00252,26.22855,44.77681,32.19675,44,39.13743"/><path class="j" d="M45.0572,20.503c-.2124,6.17633-2.05456,11.61157-2.80017,18.50879"/><path class="j" d="M43.00374,21.08353c-.22205,6.1897-1.63453,11.02777-2.25635,17.75293"/><path class="j" d="M40.95137,21.85984c-.165,6.11053-1.1145,10.30511-1.5459,16.76556"/><path class="j" d="M38.89924,22.75608c-.06726,5.97467-.53344,9.49731-.73352,15.63635"/><path class="j" d="M36.84785,23.69565c.04517,5.81818.06983,8.65876.11573,14.45594"/><path class="j" d="M34.79622,24.60264c.14673,5.67718.65649,7.84338.93725,13.314"/><path class="j" d="M33.6562,26.2031c5.81934-2.17761,8.96424-5.20123,14.58472-4.75018"/><path class="j" d="M33.80122,28.0471c5.616-1.895,8.61157-4.74158,14.15442-4.14863"/><path class="j" d="M33.99812,29.81394c5.31885-1.482,7.98145-3.78821,13.49939-3.24237"/><path class="j" d="M34.226,31.53464c4.96557-.991,7.18066-2.53357,12.71008-2.15393"/><path class="j" d="M34.46431,33.24009c4.59375-.47412,6.31531-1.17005,11.87683-1.00562"/><path class="j" d="M34.69209,34.961c4.24072.01648,5.49194.11,11.08972.08"/><path class="j" d="M34.88862,36.72843c3.94422.42871,4.8169,1.11426,10.43946.98071"/></g><g class="y"><path class="j" d="M44,39.13743c-.77685,6.94073-.43567,9.26855-.68738,15.35833"/><path class="j" d="M42.257,39.01176c-.7456,6.89721-.4552,9.31976-.71325,15.44085"/><path class="j" d="M40.74739,38.83646c-.62183,6.72516-.446,9.3487-.7146,15.52271"/><path class="j" d="M39.40547,38.6254c-.4314,6.46045-.41626,9.3617-.69849,15.604"/><path class="j" d="M38.16572,38.39243c-.20019,6.1391-.3739,9.36487-.67151,15.68506"/><path class="j" d="M36.96358,38.15159c.04577,5.79718-.32679,9.36444-.64075,15.76587"/><path class="j" d="M35.73347,37.91666c.28076,5.47071-.2832,9.3667-.61279,15.84687"/><path class="j" d="M35.05025,38.88053c3.72033.73993,4.35974,1.68,9.975,1.63275"/><path class="j" d="M35.07588,40.90745c3.682.78454,4.31909,1.585,9.91052,1.71814"/><path class="j" d="M35.0074,43.09434c3.691.73956,4.32287,1.436,9.93017,1.62939"/><path class="j" d="M34.89326,45.36423c3.70447.67206,4.31787,1.28559,9.962,1.48194"/><path class="j" d="M34.75117,47.68485c3.72058.59076,4.31189,1.13965,10.0011,1.29822"/><path class="j" d="M34.59871,50.02427c3.73791.50433,4.31323,1.004,10.04248,1.10052"/><path class="j" d="M34.45357,52.35026c3.75439.42157,4.32971.8844,10.08081.91113"/></g><g class="z"><path class="j" d="M43.31257,54.49576c-.2517,6.08973.66443,8.95575,2.84949,15.01441"/><path class="j" d="M41.54378,54.45261c-.25794,6.12116.6444,8.96515,2.63952,15.07007"/><path class="j" d="M40.03279,54.35917c-.26856,6.174.55261,9.00708,2.26733,15.18023"/><path class="j" d="M38.707,54.22941c-.2821,6.24237.40931,9.07257,1.77857,15.32989"/><path class="j" d="M37.49421,54.07749c-.29772,6.32019.23426,9.15241,1.21827,15.5036"/><path class="j" d="M36.32283,53.91746c-.31384,6.40149.04785,9.23755.6322,15.68609"/><path class="j" d="M35.12068,53.76353c-.32959,6.48016-.12988,9.31872.06555,15.862"/><path class="j" d="M34.3177,54.993c3.77039.34149,4.3783.77331,10.11487.73114"/><path class="j" d="M34.24885,57.18052c3.77942.29638,4.45484.70825,10.12952.636"/><path class="j" d="M34.212,59.27921a86.66245,86.66245,0,0,0,10.19787.60468"/><path class="j" d="M34.17463,61.44675c3.99988.23127,4.86182.47339,10.56934.51947"/><path class="j" d="M34.15559,63.6915c4.27686.16382,5.50891.34888,11.17407.37092"/><path class="j" d="M34.148,65.98453c4.61512.08143,6.3534.23688,11.92469.1825"/><path class="j" d="M34.14509,68.297c4.978-.007,7.27808.13263,12.73377-.022"/></g><g class="aa"><path class="j" d="M46.16206,69.51017c2.18494,6.05865,1.49622,4.88855,1.56848,10.75317"/><path class="j" d="M44.1833,69.52268c1.99512,6.10486,1.381,4.91663,1.56018,10.75513"/><path class="j" d="M42.30012,69.5394c1.71485,6.17322,1.19251,4.96259,1.38819,10.79712"/><path class="j" d="M40.48555,69.5593c1.36938,6.25733.951,5.02136,1.09826,10.86774"/><path class="j" d="M38.71248,69.58109c.98413,6.3512.67736,5.08808.736,10.95593"/><path class="j" d="M36.955,69.60355a66.72642,66.72642,0,0,1,.34778,11.05054"/><path class="j" d="M35.18623,69.62553c.19544,6.54327.11524,5.225-.021,11.14032"/><path class="j" d="M34.13838,70.96921c5.382-.10534,8.29846.01471,13.63135-.24859"/><path class="j" d="M34.1219,73.22477c5.67273-.17615,8.99744-.08978,14.26831-.40735"/><path class="j" d="M34.08833,75.40836c5.87207-.22479,9.40711-.20208,14.6875-.50757"/></g><g class="ab"><path class="j" d="M31.78206,1.30967c-.14148,6.21777-.2948,2.85065-.14392,8.98627"/><path class="j" d="M29.78511,1.70994c-.09522,6.11206-.2273,2.68756-.08911,8.86364"/><path class="j" d="M27.7137,2.03562c-.02979,5.9552-.15125,2.50153-.00672,8.66705"/><path class="j" d="M25.91292,2.3964c-.16382,5.60437-.31751,2.20428-.17261,8.19537"/><path class="j" d="M24.70711,2.774c-.42981,5.13672-.63453,1.84-.505,7.558"/><path class="j" d="M23.894,3.11478c-.7,4.64478-.95362,1.46473-.84339,6.8855"/><path class="j" d="M23.36018,3.45145C22.38667,7.5853,22.086,4.53251,22.17341,9.63694"/><path class="j" d="M21.78535,8.48289c1.967.79461,5.52637,1.38916,10.94129.36639"/></g><g class="ac"><path class="j" d="M31.63814,10.29594c.15075,6.13562.55749,9.63836.77392,15.21868"/><path class="j" d="M29.696,10.57358c.13806,6.17609.45678,9.92194.66211,15.51764"/><path class="j" d="M27.707,10.70267c.14453,6.16547.49488,9.95136.59607,15.69172"/><path class="j" d="M25.74031,10.59177c.14477,5.99109.67236,10.12818.61133,15.78711"/><path class="j" d="M24.2021,10.332c.12952,5.71808.98328,10.37121.64417,15.83478"/><path class="j" d="M23.05061,10.00028c.11011,5.42078,1.407,10.47406.66492,15.82385"/><path class="j" d="M22.17341,9.63694c.08741,5.10443,1.90845,10.47754.67554,15.76617"/><path class="j" d="M21.80708,10.47105c2.002,1.182,5.53406,1.97418,10.98511.84893"/><path class="j" d="M22.08589,12.46317c1.87866,1.366,5.31689,2.25519,10.83813.94525"/><path class="j" d="M22.47969,14.64408c1.68957,1.44336,5.0039,2.37817,10.616.83252"/><path class="j" d="M22.86921,16.94614c1.50721,1.44458,4.70081,2.38886,10.40955.59259"/><path class="j" d="M23.13521,19.302c1.40356,1.4,4.51306,2.33282,10.30993.30737"/><path class="j" d="M23.15816,21.64439c1.45129,1.33972,4.54687,2.25579,10.40856.05877"/><path class="j" d="M22.819,23.90574c1.72229,1.29413,4.90735,2.20324,10.7959-.07141"/></g><g class="ad"><path class="j" d="M32.41206,25.51462c.21631,5.58039,1.26575,6.99665,1.77112,12.155"/><path class="j" d="M30.35811,26.09122c.20532,5.59571,1.68371,6.41565,2.31152,11.40381"/><path class="j" d="M28.30305,26.39439c.10132,5.74029,1.96216,6.02868,2.61939,10.976"/><path class="j" d="M26.35164,26.37888c-.061,5.65894,1.93213,5.8324,2.56543,10.93793"/><path class="j" d="M24.84627,26.16679c-.33912,5.46362,1.59606,5.78314,2.0924,11.188"/><path class="j" d="M23.71553,25.82413c-.74219,5.34986,1.07263,5.85614,1.30725,11.642"/><path class="j" d="M22.84895,25.40311c-1.23291,5.28864.41748,6.008.30249,12.2273"/><path class="j" d="M22.1573,26.18168c2.32056,1.29071,5.67957,2.199,11.4989.02142"/><path class="j" d="M21.89509,27.86277c2.8313,1.21527,6.29016,2.07922,11.90613.18433"/><path class="j" d="M21.823,29.46677a19.34723,19.34723,0,0,0,12.17517.34717"/><path class="j" d="M21.87507,31.06193c3.7721.801,7.38538,1.4638,12.351.47271"/><path class="j" d="M21.98567,32.71653c4.21082.48456,7.88489.99768,12.47864.52356"/><path class="j" d="M22.08894,34.49863c4.63416.11035,8.36243.44593,12.60315.46241"/><path class="j" d="M22.11921,36.4766a71.31762,71.31762,0,0,1,12.76941.25183"/></g><g class="ae"><path class="j" d="M34.18318,37.66965c.50549,5.15833-.24744,9.38086-.593,15.94129"/><path class="j" d="M32.66963,37.495c.62793,4.98816-.23865,9.41022-.59485,16.0232"/><path class="j" d="M30.92244,37.3704c.65735,4.94726-.25891,9.46185-.6211,16.10571"/><path class="j" d="M28.91707,37.31681c.63318,5.10547-.33826,9.861-.62806,16.35559"/><path class="j" d="M26.93867,37.35477c.49646,5.40479-.44177,10.46521-.57617,16.69208"/><path class="j" d="M25.02278,37.4661c.23462,5.78577-.54858,11.07581-.4906,17.01453"/><path class="j" d="M23.15144,37.63041c-.11487,6.2193-.65784,11.689-.38171,17.32525"/><path class="j" d="M21.97554,39.11027c5.51648-.84308,9.35449-.96967,13.07471-.22974"/><path class="j" d="M21.64827,41.7183c5.8-1.25958,9.7456-1.59534,13.42761-.81085"/><path class="j" d="M21.42927,44.38834c5.84973-1.548,9.88709-2.03351,13.57813-1.294"/><path class="j" d="M21.36275,47.01206c5.76135-1.73242,9.826-2.31988,13.53051-1.64783"/><path class="j" d="M21.40864,49.53794c5.57532-1.80591,9.62183-2.44385,13.34253-1.85309"/><path class="j" d="M21.52717,51.915c5.33216-1.76172,9.33362-2.39509,13.07154-1.89075"/><path class="j" d="M21.67842,54.09165c5.07214-1.59265,9.02075-2.163,12.77515-1.74139"/></g><g class="af"><path class="j" d="M33.59016,53.61094c-.3457,6.56036-.29919,9.396-.50842,16.03784"/><path class="j" d="M32.07478,53.51823c-.35608,6.61291-.38977,9.43743-.87793,16.14727"/><path class="j" d="M30.30134,53.47611c-.3623,6.64392-.40857,9.44611-1.08471,16.20172"/><path class="j" d="M28.289,53.6724c-.28979,6.49457-.38818,9.29352-1.07543,16.01813"/><path class="j" d="M26.3625,54.04685c-.1344,6.22693-.32959,9.02594-.93725,15.65924"/><path class="j" d="M24.53218,54.48063a146.72522,146.72522,0,0,1-.72009,15.24164"/><path class="j" d="M22.76973,54.95566c.27624,5.63624-.07813,8.399-.44727,14.78315"/><path class="j" d="M21.84236,56.30088A36.11931,36.11931,0,0,1,34.3177,54.993"/><path class="j" d="M21.92781,57.86942a50.06685,50.06685,0,0,1,12.321-.6889"/><path class="j" d="M21.91841,59.574a69.10154,69.10154,0,0,1,12.29358-.2948"/><path class="j" d="M21.853,61.78873a74.89294,74.89294,0,0,1,12.32165-.342"/><path class="j" d="M21.7635,64.01633a93.81026,93.81026,0,0,1,12.39209-.32483"/><path class="j" d="M21.66011,66.24595c4.27917-.271,7.87292-.34284,12.48791-.26142"/><path class="j" d="M21.55293,68.4669c4.13379-.13215,7.61426-.163,12.59216-.16993"/></g><g class="ag"><path class="j" d="M33.08174,69.64878c-.20911,6.64185-.16785,5.29395-.364,11.22388"/><path class="j" d="M31.19685,69.6655c-.48828,6.70978-.35547,5.3396-.53369,11.2652"/><path class="j" d="M29.21663,69.67783a74.8778,74.8778,0,0,0-.5387,11.26648"/><path class="j" d="M27.21358,69.69053a68.98837,68.98837,0,0,0-.50916,11.25879"/><path class="j" d="M25.42525,69.70609a82.19191,82.19191,0,0,0-.48719,11.22016"/><path class="j" d="M23.81209,69.72227A100.63911,100.63911,0,0,0,23.40022,80.859"/><path class="j" d="M22.32246,69.73881c-.369,6.38409-.25415,5.10211-.29919,11.022"/><path class="j" d="M21.43684,71.02152c3.96936.03388,7.3197.0531,12.70154-.05231"/><path class="j" d="M21.35579,73.18668c3.84765.15961,7.0935.2143,12.76611.03809"/><path class="j" d="M21.30281,75.309a109.37833,109.37833,0,0,0,12.78552.09936"/></g><g class="ah"><path class="j" d="M22.93977,3.88151c-1.2948,3.52264-1.64807.62738-1.59082,5.34674"/><path class="j" d="M22.62031,4.32285c-1.57373,2.98706-1.97107.23267-1.942,4.611"/><path class="j" d="M22.22,4.86509c-1.85437,2.44763-2.29479-.16382-2.29577,3.86975"/><path class="j" d="M21.62544,5.54105c-2.13611,1.90967-2.619-.55963-2.65088,3.13062"/><path class="j" d="M20.72249,6.38395c-2.41809,1.378-2.94324-.95264-3.0066,2.40051"/><path class="j" d="M19.39729,7.42716c-2.70007.85724-3.2677-1.34076-3.36218,1.68634"/><path class="j" d="M18.55733,7.50809c-3.06958,1.24176-3.25367-.97076-3.94471,2.19117"/><path class="j" d="M14.19331,9.52451c3.22913-1.94128,5.62512-1.83618,7.592-1.04162"/></g><g class="ai"><path class="j" d="M21.34895,9.22825c.05737,4.7193,2.5426,10.41052.678,15.65588"/><path class="j" d="M20.6783,8.93381c.02893,4.3783,3.09314,10.33814.67382,15.53724"/><path class="j" d="M19.92427,8.73484c-.001,4.03357,3.61169,10.295.66626,15.40887"/><path class="j" d="M18.97456,8.67167c-.032,3.69024,4.063,10.32165.65711,15.28265"/><path class="j" d="M17.71589,8.78446c-.06323,3.35315,4.4126,10.45886.64881,15.17029"/><path class="j" d="M16.03511,9.1135c-.09448,3.0271,4.62536,10.74744.64294,15.08362"/><path class="j" d="M14.61262,9.69926c-.691,3.16192,2.54846,11.09442-1.01965,15.01294"/><path class="j" d="M13.7624,10.81364c3.84558-1.94373,6.04285-1.52454,8.04468-.34259"/><path class="j" d="M13.86067,12.39243c4.57007-1.72571,6.3468-1.295,8.22522.07074"/><path class="j" d="M14.159,14.30979c5.38647-1.38251,6.63135-1.109,8.32068.33429"/><path class="j" d="M14.4355,16.47507c6.21155-.98852,6.92676-.97338,8.43371.47107"/><path class="j" d="M14.468,18.79777c6.96252-.61829,7.26379-.89557,8.66724.50427"/><path class="j" d="M14.03425,21.18748c7.55652-.34626,7.67286-.88263,9.12391.45691"/><path class="j" d="M12.91243,23.55338c7.91052-.24689,8.18445-.94171,9.90661.35236"/></g><g class="aj"><path class="j" d="M22.02693,24.88413c-1.86462,5.24536-.436,6.2262-1.01856,12.97687"/><path class="j" d="M21.35212,24.47105c-2.41931,5.199-1.18713,6.40039-2.18322,13.59942"/><path class="j" d="M20.59053,24.14371c-2.94544,5.114-1.89527,6.51642-3.27625,14.12507"/><path class="j" d="M19.63167,23.95432c-3.40577,4.961-2.50476,6.53076-4.205,14.48114"/><path class="j" d="M18.3647,23.95475c-3.7638,4.71149-2.9607,6.4-4.87769,14.59552"/><path class="j" d="M16.67805,24.19712c-3.9823,4.33612-3.20752,6.08081-5.20178,14.39575"/><path class="j" d="M13.593,24.7122c-3.56812,3.91851-2.52063,5.93676-4.104,13.95227"/><path class="j" d="M11.29854,25.61185c7.64782-.12054,8.53845-.72082,10.85876.56983"/><path class="j" d="M10.51216,27.05717c7.1189.032,8.55188-.40961,11.38293.8056"/><path class="j" d="M9.977,28.66c6.58081.0816,8.53247-.24139,11.84595.80682"/><path class="j" d="M9.61543,30.44211c6.03992.07587,8.48779-.18109,12.25964.61982"/><path class="j" d="M9.34981,32.42564c5.5028.06237,8.42541-.19367,12.63586.29089"/><path class="j" d="M9.10261,34.63224c4.9762.08862,8.35266-.244,12.98633-.13361"/><path class="j" d="M8.79609,37.084c4.46631.20227,8.27735-.29693,13.32312-.60742"/></g><g class="ak"><path class="j" d="M21.00837,37.861A93.66611,93.66611,0,0,0,20.769,55.53617"/><path class="j" d="M19.1689,38.07047A60.76336,60.76336,0,0,0,19.054,56.04032"/><path class="j" d="M17.31428,38.26878a46.24061,46.24061,0,0,0,.00061,18.26129"/><path class="j" d="M15.42671,38.43546c-1.7002,7.95044-1.12158,14.19342.0968,18.55188"/><path class="j" d="M13.487,38.55027c-1.91687,8.19549-1.23071,14.765.1637,18.84436"/><path class="j" d="M11.47627,38.59287c-1.99414,8.315-1.3374,15.31763.19055,19.14148"/><path class="j" d="M9.489,38.66447C7.90547,46.68,8.39534,53.43,9.8697,57.38511"/><path class="j" d="M8.26277,40.26859c3.9043.5069,8.19665-.31537,13.71277-1.15832"/><path class="j" d="M7.60554,43.38456c3.56214.93481,8.24317-.40674,14.04273-1.66626"/><path class="j" d="M7.29146,46.4824c3.40222,1.351,8.28857-.54621,14.13781-2.09406"/><path class="j" d="M7.36128,49.35593c3.33081,1.70819,8.2406-.61169,14.00147-2.34387"/><path class="j" d="M7.70479,51.95188c3.32666,1.98236,8.129-.60815,13.70385-2.41394"/><path class="j" d="M8.21223,54.21769c3.36841,2.14874,7.9834-.5412,13.31494-2.30267"/><path class="j" d="M8.77327,56.10007c3.43506,2.18323,7.83349-.41589,12.90515-2.00842"/></g><g class="al"><path class="j" d="M20.769,55.53617c.54772,5.275.11218,8.00476-.092,14.22217"/><path class="j" d="M19.054,56.04032c.78406,4.9624.27966,7.66284.2196,13.7348"/><path class="j" d="M17.31489,56.53007c1.01136,4.65478.43494,7.3291.51184,13.26178"/><path class="j" d="M15.52351,56.98734c1.21851,4.35846.56311,7.0141.76074,12.82086"/><path class="j" d="M13.65071,57.39463c1.39429,4.07947.64917,6.72766.94263,12.42944"/><path class="j" d="M11.66682,57.73435c1.52808,3.82379.67847,6.47992,1.03418,12.105"/><path class="j" d="M9.8697,57.38511c1.47425,3.95508.63855,6.84015.97937,12.38476"/><path class="j" d="M9.34675,57.73563c3.51526,2.02521,7.69336-.20434,12.49561-1.43475"/><path class="j" d="M9.64766,58.6088c3.56262,1.69092,7.63574.02857,12.28015-.73938"/><path class="j" d="M9.67378,59.93418c3.5896,1.41992,7.656.11273,12.24463-.36017"/><path class="j" d="M9.67634,62.20859c3.63367,1.43049,7.656.0401,12.17664-.41986"/><path class="j" d="M9.73189,64.36014c3.68347,1.47022,7.619.04267,12.03161-.34381"/><path class="j" d="M9.823,66.40928c3.73755,1.55084,7.55835.10766,11.83716-.16333"/><path class="j" d="M9.93159,68.3765c3.7948,1.68439,7.4878.22248,11.62134.0904"/></g><g class="am"><path class="j" d="M20.677,69.75834c-.20422,6.21734-.1361,4.97955-.14257,10.86712"/><path class="j" d="M19.27363,69.77512c-.06018,6.072-.03271,4.87262-.00378,10.73053"/><path class="j" d="M17.82673,69.79185c.07679,5.93261.06482,4.7705.12195,10.60479"/><path class="j" d="M16.28425,69.8082c.19764,5.80677.14942,4.67939.21863,10.5036"/><path class="j" d="M14.59334,69.82407c.29358,5.70185.21386,4.60523.27026,10.44013"/><path class="j" d="M12.701,69.83933a103.0904,103.0904,0,0,1,.26074,10.42786"/><path class="j" d="M10.84907,69.76987a93.34144,93.34144,0,0,1,.22058,9.99652"/><path class="j" d="M10.05684,70.58567c3.863,1.92187,7.411.402,11.38.43585"/><path class="j" d="M10.14375,72.44541c3.92163,2.21063,7.36475.58167,11.212.74127"/><path class="j" d="M10.19258,74.2877c3.97888,2.59014,7.3512.77148,11.11023,1.0213"/></g><g class="an"><path class="j" d="M17.59907,7.84464c-3.33667,1.61792-3.092-.50451-4.406,2.65778"/><path class="j" d="M16.67207,8.46427c-3.41736,1.764-2.886-.1828-4.58716,2.80206"/><path class="j" d="M15.66951,9.30454c-3.376,1.7909-2.62537.08545-4.59143,2.77374"/><path class="j" d="M14.60884,10.28519c-3.2273,1.74158-2.31641.31971-4.44019,2.63514"/><path class="j" d="M13.5085,11.32548c-2.98621,1.659-1.96631.539-4.15528,2.44836"/><path class="j" d="M12.38594,12.34519a33.40477,33.40477,0,0,0-3.75806,2.2757"/><path class="j" d="M11.25886,13.2642a22.51969,22.51969,0,0,1-3.27,2.17938"/><path class="j" d="M8.06807,15.6735c1.68847-2.32,2.89587-4.20758,6.12524-6.149"/></g><g class="ao"><path class="j" d="M13.19307,10.50242c-1.314,3.16235.1488,10.77594-2.82593,14.327"/><path class="j" d="M12.08491,11.26633c-1.70105,2.98493-1.53515,9.98188-4.011,13.29651"/><path class="j" d="M11.07808,12.07828C9.112,14.76658,8.1916,20.918,6.18513,24.04911"/><path class="j" d="M10.16865,12.92033c-2.12378,2.31536-3.9248,7.47515-5.5094,10.45605"/><path class="j" d="M9.35322,13.77384C7.16426,15.6832,4.6844,19.789,3.456,22.63322"/><path class="j" d="M8.62788,14.62089c-2.17663,1.51312-5.13855,4.58539-6.094,7.2868"/><path class="j" d="M7.98884,15.44358C5.887,16.613,2.63557,18.75529,1.85188,21.288"/><path class="j" d="M7.24165,16.08976c1.53626-2.046,2.67481-3.33228,6.52075-5.27612"/><path class="j" d="M6.51509,16.36674c1.599-1.59,2.77515-2.24848,7.34558-3.97431"/><path class="j" d="M5.75911,16.66923c1.75342-1.00873,3.01306-.97681,8.3999-2.35944"/><path class="j" d="M4.95906,17.09287c1.91687-.37677,3.2644.37085,9.47644-.6178"/><path class="j" d="M4.10029,17.73319c2.00611.23151,3.40454,1.683,10.36768,1.06458"/><path class="j" d="M3.16817,18.68589c1.93823.74158,3.309,2.84784,10.86608,2.50159"/><path class="j" d="M2.148,20.04648c1.63025,1.07905,2.8534,3.75373,10.76441,3.5069"/></g><g class="ap"><path class="j" d="M10.36714,24.82944C7.39229,28.38059,8.81,30.82157,7.788,38.53434"/><path class="j" d="M8.07393,24.56284c-2.47571,3.31458-.74536,6.15943-1.29578,13.69129"/><path class="j" d="M6.18513,24.04911c-2.00634,3.1311.02173,6.40625-.08679,13.81024"/><path class="j" d="M4.65925,23.37638c-1.58459,2.98083.71766,6.70306,1.00342,14.01245"/><path class="j" d="M3.456,22.63322c-1.2284,2.84417,1.31506,7.02014,1.92968,14.24853"/><path class="j" d="M2.53389,21.90769c-.95545,2.70142,1.78772,7.32807,2.6477,14.4693"/><path class="j" d="M1.85188,21.288c-.78369,2.53272,2.10852,7.59717,3.11279,14.62531"/><path class="j" d="M1.4687,21.594c1.30908,1.27136,2.18128,4.13837,9.82984,4.01788"/><path class="j" d="M1.60969,22.99033c1.2489,1.32666,1.78284,4.03491,8.90247,4.06684"/><path class="j" d="M2.025,24.80137c1.17956,1.27905,1.3706,3.777,7.952,3.85858"/><path class="j" d="M2.62068,26.93009c1.10754,1.17621.95435,3.43622,6.99475,3.512"/><path class="j" d="M3.30281,29.27958c1.03931,1.06549.5437,3.08374,6.047,3.14606"/><path class="j" d="M3.97725,31.75266c.98144.99463.1488,2.791,5.12536,2.87958"/><path class="j" d="M4.55,34.25254c.94055,1.01111-.2207,2.62915,4.24609,2.83148"/></g><g class="aq"><path class="j" d="M7.788,38.53434c-1.022,7.71271-.727,13.87781.6654,17.9906"/><path class="j" d="M6.77815,38.25413c-.55041,7.53186-.40723,13.09771.92261,17.30676"/><path class="j" d="M6.09834,37.85935c-.10864,7.404-.09326,12.31915,1.1781,16.609"/><path class="j" d="M5.66267,37.38883c.28577,7.30939.20569,11.5575,1.42029,15.93231"/><path class="j" d="M5.38569,36.88175c.61463,7.22839.47986,10.82843,1.63709,15.31262"/><path class="j" d="M5.18159,36.377c.86,7.14117.72,10.14728,1.81665,14.78485"/><path class="j" d="M4.96467,35.91331c1.00428,7.02813.91675,9.52948,1.94678,14.38452"/><path class="j" d="M4.96333,37.0615c.9231,1.20294-.6051,2.70019,3.29944,3.20709"/><path class="j" d="M4.99116,39.26243c.79908,1.49237-.948,3.18725,2.61438,4.12213"/><path class="j" d="M5.09724,41.32419C5.7419,43.05924,3.889,45.13138,7.29146,46.4824"/><path class="j" d="M5.366,43.30869c.57861,1.91876-1.33594,4.33881,1.99524,6.04724"/><path class="j" d="M5.74055,45.22379c.57984,2.01929-1.36267,4.74567,1.96424,6.72809"/><path class="j" d="M6.16389,47.07767c.627,2.01221-1.32043,4.991,2.04834,7.14"/><path class="j" d="M6.57905,48.87833c.699,1.873-1.24121,5.03839,2.19422,7.22174"/></g><g class="ar"><path class="j" d="M8.45344,56.52494c1.39258,4.11279.5647,7.21771.83814,12.5274"/><path class="j" d="M7.70076,55.56089C9.03047,59.77,8.1916,63.00034,8.38618,68.01"/><path class="j" d="M7.27644,54.4683c1.27136,4.28979.41712,7.602.52881,12.24908"/><path class="j" d="M7.083,53.32114c1.21472,4.37488.35266,7.74042.39148,11.98822"/><path class="j" d="M7.02278,52.19437c1.15735,4.48413.30615,7.889.297,11.7276"/><path class="j" d="M6.99824,51.16184c1.09656,4.63757.28675,8.08277.26844,11.52838"/><path class="j" d="M6.91145,50.29783c1.03,4.8551.30359,8.35626.32971,11.45135"/><path class="j" d="M6.9759,50.91392c.7854,1.51342-1.14477,4.79632,2.37085,6.82171"/><path class="j" d="M7.179,52.62723c.83813,1.0055-1.09424,4.29053,2.46863,5.98157"/><path class="j" d="M7.17927,54.46409c.788.67242-1.09533,4.05011,2.49451,5.47009"/><path class="j" d="M7.1385,56.34049c.65552.75531-1.09607,4.43744,2.53784,5.8681"/><path class="j" d="M7.1363,58.0214c.52894.86737-1.08813,4.86847,2.59559,6.33874"/><path class="j" d="M7.15864,59.49741c.4065,1.02027-1.07373,5.3609,2.66431,6.91187"/><path class="j" d="M7.19136,60.75907c.28711,1.22626-1.05481,5.93286,2.74023,7.61743"/></g><g class="as"><path class="j" d="M9.29158,69.05234A80.50433,80.50433,0,0,1,9.39595,78.212"/><path class="j" d="M8.38618,68.01a65.11969,65.11969,0,0,1-.03357,8.26226"/><path class="j" d="M7.80525,66.71738a47.87448,47.87448,0,0,1-.17908,7.25135"/><path class="j" d="M7.47444,65.30936a31.62724,31.62724,0,0,1-.30591,6.17426"/><path class="j" d="M7.31978,63.922a18.65813,18.65813,0,0,1-.38819,5.07917"/><path class="j" d="M7.26668,62.69022c-.01831,3.44562-.05518,2.35553-.39954,4.01331"/><path class="j" d="M7.24116,61.74918c.02613,3.0951-.01928,2.00959-.31433,3.02429"/><path class="j" d="M7.22371,61.94315c.15027,1.54767-1.03015,6.72052,2.83313,8.64252"/><path class="j" d="M7.23067,62.70933c.03247,1.90881-1.00892,7.5252,2.91308,9.73608"/><path class="j" d="M7.20344,63.23142c-.08691,2.3606-.99,8.46594,2.98914,11.05628"/></g><g class="at"><path class="j" d="M9.96809,14.09843c-1.78442,1.66589-.66211,1.35235-2.618,2.24578"/><path class="j" d="M5.90877,18.66184c1.41406-1.95587.4707-.66839,2.1593-2.98834"/></g><g class="au"><path class="j" d="M7.35005,16.34421c-1.95593.89338-5.308,2.19574-6.043,4.47388"/><path class="j" d="M5.36555,18.9567a20.11275,20.11275,0,0,1,1.8761-2.86694"/><path class="j" d="M4.59566,18.803c1.24072-1.65478.32055-.84625,1.91943-2.43621"/><path class="j" d="M3.66011,18.48911c1.35644-1.27191.34558-.81116,2.099-1.81988"/><path class="j" d="M2.66743,18.22123c1.48108-.83838.37488-.75165,2.29163-1.12836"/><path class="j" d="M1.72578,18.20518c1.53162-.42847.36841-.70349,2.37451-.472"/><path class="j" d="M.94368,18.647c1.42492-.11682.28625-.7027,2.22449.03888"/><path class="j" d="M.4294,19.75266c1.07824.02216.08837-.78515,1.71862.29382"/></g><g class="av"><path class="j" d="M1.30708,20.81809c-.735,2.27814,2.25488,7.82178,3.276,14.66"/><path class="j" d="M.10591,21.07346c.85425.16724.05383-.75079,1.36279.52051"/><path class="j" d="M.10212,22.27256c.98218.31586.25855-.60889,1.50757.71777"/><path class="j" d="M.38655,24.03879c1.10071.36158.45886-.51654,1.63843.76258"/><path class="j" d="M.85542,26.20475c1.21655.352.65772-.45087,1.76526.72534"/><path class="j" d="M1.40486,28.60294c1.3363.33466.85864-.38891,1.898.67664"/><path class="j" d="M1.93135,31.06577c1.46643.35712,1.06433-.30774,2.0459.68689"/><path class="j" d="M2.33113,33.42594c1.6134.46686,1.27832-.18457,2.21887.8266"/></g><g class="aw"><path class="j" d="M4.58308,35.47806c1.02112,6.8382,1.07837,8.912,2.02039,14.12641"/><path class="j" d="M2.4991,35.81687c1.81408.767,1.54126.04175,2.46423,1.24463"/><path class="j" d="M2.59285,37.63273c1.78479,1.02118,1.59912.13727,2.39831,1.6297"/><path class="j" d="M2.90889,39.51432c1.64575,1.11926,1.54382.07489,2.18835,1.80987"/><path class="j" d="M3.25654,41.4058c1.5951,1.15845,1.531-.01587,2.1095,1.90289"/><path class="j" d="M3.61006,43.35123c1.61182,1.11444,1.55078-.14672,2.13049,1.87256"/><path class="j" d="M3.94441,45.39493c1.67432.96283,1.59253-.3294,2.21948,1.68274"/><path class="j" d="M4.23384,47.58109c1.76172.67914,1.64636-.5758,2.34521,1.29724"/></g><g class="ax"><path class="j" d="M6.60347,49.60447c.942,5.21448.38037,8.81994.54419,11.59613"/><path class="j" d="M4.48042,50.358c1.866.15161,1.71008-.9574,2.49548.556"/><path class="j" d="M4.58638,53.00327c1.93408-.50085,1.75451-1.38159,2.59265-.376"/><path class="j" d="M4.71467,55.50754c1.8407-.97418,1.67664-1.71588,2.4646-1.04345"/><path class="j" d="M5.01179,57.428C6.606,56.40171,6.483,55.58512,7.1385,56.34049"/><path class="j" d="M5.33894,59.11C6.69233,58.06065,6.6075,57.15409,7.1363,58.0214"/><path class="j" d="M5.684,60.52622c1.11719-1.03137,1.06812-2.04913,1.47461-1.02881"/><path class="j" d="M6.03511,61.64982c.88379-.96057.86914-2.11695,1.15625-.89075"/></g><g class="ay"><path class="j" d="M7.14766,61.2006c.16382,2.77612.09228,1.67938-.05921,2.03534"/><path class="j" d="M6.43464,62.55143c.61463-.796.6388-2.156.78907-.60828"/><path class="j" d="M6.75789,62.94944c.38257-.56989.44043-2.14893.47278-.24011"/><path class="j" d="M7.049,62.96891c.1493-.25311.24146-2.09815.15442.26251"/></g></g></g><path class="f" d="M29.40706,13.64872c15.15661,0,25.71911,3.70843,25.71911,7.03668,0,3.32831-10.5625,7.03674-25.71911,7.03674S3.68794,24.01371,3.68794,20.6854c0-3.32825,10.5625-7.03668,25.71912-7.03668m0-1c-14.7566,0-26.71912,3.59814-26.71912,8.03668s11.96252,8.03674,26.71912,8.03674c14.75647,0,26.71911-3.5982,26.71911-8.03674s-11.96264-8.03668-26.71911-8.03668Z"/><path class="az" d="M44.26683,56.62408a.76593.76593,0,0,1-.499.68294,44.17453,44.17453,0,0,1-14.35744,2.58861,55.75963,55.75963,0,0,1-14.45119-2.19316.76837.76837,0,0,1-.552-.70722L13.53062,38.095a.77073.77073,0,0,1,.90716-.79987,85.82039,85.82039,0,0,0,14.9726,1.20368,102.15165,102.15165,0,0,0,14.97908-1.235.77385.77385,0,0,1,.89362.80877Z"/><path class="ba" d="M18.02522,46.37174a.55743.55743,0,0,1,.39063-.16406h.34765a10.95076,10.95076,0,0,1,.38477-2.29981.50365.50365,0,0,1-.168-.27929.48055.48055,0,0,1,.00976-.32715.49561.49561,0,0,1,.50782-.35352h.19531a.44253.44253,0,0,1,.17383-.03125.60038.60038,0,0,1,.17969.03125l2.24609-.03125a.5458.5458,0,0,1,.51172.74317,11.03041,11.03041,0,0,0-.56446,3.1123.53114.53114,0,0,1-.19531.35352.516.516,0,0,1-.38476.14258.54426.54426,0,0,1-.502-.585,13.77483,13.77483,0,0,1,.39063-2.66992l-1.3086.0166a10.86439,10.86439,0,0,0-.41015,2.373.50473.50473,0,0,1,.05859.5752.548.548,0,0,1-.502.29H19.3553a.4574.4574,0,0,1-.13672,0,2.84957,2.84957,0,0,0-.28516.01074c-.13086.00683-.30273.01074-.51757.01074a.55743.55743,0,0,1-.39063-.16406.51189.51189,0,0,1-.1582-.374A.5.5,0,0,1,18.02522,46.37174Z"/><path class="ba" d="M23.79671,43.05338a9.624,9.624,0,0,1,.41015-1.40332.48519.48519,0,0,1,.48633-.34765.49473.49473,0,0,1,.47656.22949.554.554,0,0,1,.06055.53027,7.37657,7.37657,0,0,0-.2793.86524l1.83594-.01075a.28518.28518,0,0,1,.07812-.01074.17928.17928,0,0,1,.10547.01074.48332.48332,0,0,1,.50782.36426.49434.49434,0,0,1-.16993.60645,11.71334,11.71334,0,0,0-.48437,2.8955.5342.5342,0,0,1-.19336.37207.51589.51589,0,0,1-.75977-.05566.55378.55378,0,0,1-.13867-.39551,14.03031,14.03031,0,0,1,.38477-2.70019l-1.96289.02636a.51393.51393,0,0,1-.53321-.37011A.50135.50135,0,0,1,23.79671,43.05338Z"/><path class="ba" d="M28.84944,43.25944a.50087.50087,0,0,1,.48633-.34278.53485.53485,0,0,1,.47461.22657.5167.5167,0,0,1,.05273.52734,10.95155,10.95155,0,0,0-.57031,3.1123.51142.51142,0,0,1-.18359.36426.52695.52695,0,0,1-.77149-.05273.54458.54458,0,0,1-.13672-.39063A11.846,11.846,0,0,1,28.84944,43.25944Z"/><path class="ba" d="M30.71272,43.75553a.52378.52378,0,0,1,0-.54883.53306.53306,0,0,1,.48047-.26953l2.80469-.02051a.50093.50093,0,0,1,.44336.2002.55515.55515,0,0,1,.084.49023.31564.31564,0,0,1-.01953.11621l-.98242,3.18653a.51406.51406,0,0,1-.20508.27441.54367.54367,0,0,1-.32227.10547H31.619a.56532.56532,0,0,1-.36328-.14258.51731.51731,0,0,1-.17383-.34277l-.36914-3.002Zm1.39649,2.45215h.48632l.69141-2.2041-1.44141.02636Z"/><path class="ba" d="M35.36506,46.361a.48051.48051,0,0,1,.37891-.15332q.791,0,1.33984-.02051.73243-.01025.96094-.01074a11.54005,11.54005,0,0,1,.36914-2.18359l-1.62109.0205-.10938.55469.543.042a.5277.5277,0,0,1,.36328.20508.502.502,0,0,1,.13282.39063.5842.5842,0,0,1-.60743.49609l-1.15429-.12109a.5428.5428,0,0,1-.39063-.2168.50662.50662,0,0,1-.084-.42676l.31055-1.53516.00976-.01074v-.01074a.51123.51123,0,0,1,.19531-.31641.57625.57625,0,0,1,.33789-.13671l2.80664-.02149a.5205.5205,0,0,1,.45313.23731.49741.49741,0,0,1,.06836.50683,9.46333,9.46333,0,0,0-.543,2.71094.48044.48044,0,0,1,.08984.58008.51669.51669,0,0,1-.5.32715h-.05273a1.04717,1.04717,0,0,1-.207,0q-.53613,0-1.22852.01074-.63867.01024-1.48242.01074a.51516.51516,0,0,1-.37891-.16406.49526.49526,0,0,1-.16992-.374A.5167.5167,0,0,1,35.36506,46.361Z"/><path class="ba" d="M19.67171,53.29069a.54776.54776,0,0,1,.18554-.34375.55174.55174,0,0,1,.7793.06347.54762.54762,0,0,1,.11719.43262c-.043.31641-.084.76367-.127,1.33984a.51142.51142,0,0,1-.18359.36426.52693.52693,0,0,1-.77148-.05273.54454.54454,0,0,1-.13672-.39063Q19.59945,53.8073,19.67171,53.29069Zm.29492-2.18457a.53554.53554,0,0,1,.38672-.16895l2.81054-.02051a.53287.53287,0,0,1,.51758.74317,11.09528,11.09528,0,0,0-.57031,3.123.49163.49163,0,0,1-.19531.36426.48206.48206,0,0,1-.39063.14258.50269.50269,0,0,1-.36914-.19531.512.512,0,0,1-.127-.39063,13.85437,13.85437,0,0,1,.39062-2.69043l-2.05664.0166a.50868.50868,0,0,1-.38476-.15332.56665.56665,0,0,1-.17383-.39062A.52758.52758,0,0,1,19.96663,51.10612Z"/><path class="ba" d="M24.67366,51.05338a9.624,9.624,0,0,1,.41015-1.40332.4852.4852,0,0,1,.48633-.34765.49475.49475,0,0,1,.47657.22949.554.554,0,0,1,.06054.53027,7.37472,7.37472,0,0,0-.27929.86524l1.83593-.01075a.2852.2852,0,0,1,.07813-.01074.17929.17929,0,0,1,.10547.01074.48331.48331,0,0,1,.50781.36426.49435.49435,0,0,1-.16992.60645,11.71279,11.71279,0,0,0-.48438,2.8955.5342.5342,0,0,1-.19336.37207.51588.51588,0,0,1-.75976-.05566.55373.55373,0,0,1-.13867-.39551,14.03043,14.03043,0,0,1,.38476-2.70019l-1.96289.02636a.51391.51391,0,0,1-.5332-.37011A.50135.50135,0,0,1,24.67366,51.05338Z"/><path class="ba" d="M29.59358,51.31217a.50531.50531,0,0,1,.207-.2793.6772.6772,0,0,1,.32031-.10546.57587.57587,0,0,1,.51172.25781.55813.55813,0,0,1,.06446.55957,7.03159,7.03159,0,0,0-.42188,1.49316.557.557,0,0,1-.248.37891.557.557,0,0,1-.8125-.15235.56822.56822,0,0,1-.10546-.44335A9.449,9.449,0,0,1,29.59358,51.31217Z"/><path class="ba" d="M31.62483,53.20573a.51639.51639,0,0,1,.16992-.33789.56328.56328,0,0,1,.36914-.13672h2.07227c.05273-.2461.11133-.48926.17383-.72754l-2.05078.02636a.53132.53132,0,0,1-.39063-.16406.50087.50087,0,0,1-.17383-.37988.52758.52758,0,0,1,.16211-.37988.55073.55073,0,0,1,.39063-.16895l2.80664-.02051a.52468.52468,0,0,1,.45312.22657.5585.5585,0,0,1,.07031.5166,7.73674,7.73674,0,0,0-.43359,1.66211.14967.14967,0,0,1-.00976.05761c-.04688.34473-.08985.80957-.13282,1.39258a.53935.53935,0,0,1-.19531.36426.51324.51324,0,0,1-.38477.14258.49608.49608,0,0,1-.36914-.19531.53345.53345,0,0,1-.14257-.39063c.02539-.32324.05078-.61523.08007-.875H32.62678c-.07031.4502-.10742.76856-.11523.9541a.50963.50963,0,0,1-.18359.36426.52128.52128,0,0,1-.39063.15332.5913.5913,0,0,1-.38086-.1748.55613.55613,0,0,1-.13672-.4004Z"/><path class="ba" d="M36.5096,51.10612a.58988.58988,0,0,1,.39062-.16895l2.8125-.02051a.55177.55177,0,0,1,.46289.22657.543.543,0,0,1,.05274.5166,10.93661,10.93661,0,0,0-.57422,3.123.47834.47834,0,0,1-.18946.36426.48428.48428,0,0,1-.39062.14258.49606.49606,0,0,1-.36914-.19531.54638.54638,0,0,1-.13867-.39063,14.09614,14.09614,0,0,1,.39648-2.69043l-2.05273.0166a.51428.51428,0,0,1-.38868-.15332.589.589,0,0,1-.16992-.39062A.50137.50137,0,0,1,36.5096,51.10612Z"/><circle class="bb" cx="35.58756" cy="28.32491" r="4.2948"/><g class="bc"><path class="bd" d="M31.42388,25.94782s.53333-.42239,3.381-.37571a14.70241,14.70241,0,0,1,4.94638.92531V19.77513H31.42388Z"/><circle class="ba" cx="36.85337" cy="27.99522" r="1.15857"/></g><circle class="be" cx="35.58756" cy="28.32491" r="4.2948"/><path class="bb" d="M26.27013,29.00357a5.72427,5.72427,0,0,0,.48888-1.68235,4.04992,4.04992,0,0,0-3.86185-3.2911,4.14237,4.14237,0,0,0-3.97086,4.2948,4.14238,4.14238,0,0,0,3.97086,4.2948,3.844,3.844,0,0,0,3-1.481A16.3436,16.3436,0,0,1,26.27013,29.00357Z"/><g class="bf"><path class="bd" d="M19.04753,25.70876s.444-.42239,3.07682-.37571a13.17965,13.17965,0,0,1,4.62245.92531V19.53607H19.04753Z"/><circle class="ba" cx="24.16298" cy="27.99523" r="1.15857"/></g><path class="be" d="M26.27013,29.00357a5.72427,5.72427,0,0,0,.48888-1.68235,4.04992,4.04992,0,0,0-3.86185-3.2911,4.14237,4.14237,0,0,0-3.97086,4.2948,4.14238,4.14238,0,0,0,3.97086,4.2948,3.844,3.844,0,0,0,3-1.481A16.3436,16.3436,0,0,1,26.27013,29.00357Z"/><path class="bg" d="M27.0614,24.61048c.29117,2.37077-1.3258,4.64033-1.15333,7.02268a1.16971,1.16971,0,0,0,.16582.59286,1.20966,1.20966,0,0,0,.45178.34826,6.595,6.595,0,0,0,1.31524.518"/><path class="ba" d="M28.5581,33.94755a47.28947,47.28947,0,0,0,4.84465-1.8616c.45374,1.42319-.05161,3.44722-1.55963,4.00158a3.68684,3.68684,0,0,1-2.518-.18382c-.52376-.19307-1.60258-.62308-1.83858-1.19635-.11819-.28811.0928-.36129.38941-.50491C27.93659,34.17312,28.19027,34.0798,28.5581,33.94755Z"/><g class="bh"><polygon class="bb" points="27.678 36.503 36.608 32.086 34.656 30.002 23.025 32.086 24.738 36.933 27.678 36.503"/></g><path class="bi" d="M28.5581,33.94755a47.28947,47.28947,0,0,0,4.84465-1.8616c.45374,1.42319-.05161,3.44722-1.55963,4.00158a3.68684,3.68684,0,0,1-2.518-.18382c-.52376-.19307-1.60258-.62308-1.83858-1.19635-.11819-.28811.0928-.36129.38941-.50491C27.93659,34.17312,28.19027,34.0798,28.5581,33.94755Z"/></svg>