<svg xmlns="http://www.w3.org/2000/svg" xmlns:xlink="http://www.w3.org/1999/xlink" viewBox="0 0 40.06409 45.37029"><defs><style>.a,.l{fill:#f6f6f6;}.a,.n,.o,.q,.r{stroke:#2d2a28;stroke-width:0.60219px;}.a,.n,.o,.q{stroke-miterlimit:10;}.b{fill:#939699;}.c,.q{fill:#ca4c31;}.d{fill:#f9d812;}.e,.r{fill:#2d2a28;}.f{fill:#ed5139;}.g,.h,.o{fill:none;}.g{stroke:#ed5139;}.g,.h,.q,.r{stroke-linecap:round;}.g,.h,.r{stroke-linejoin:round;}.g,.h{stroke-dasharray:9.71626 9.71626;}.h{stroke:#a8402a;}.i{fill:#fff;}.j{fill:#d45135;}.k{fill:#ba462e;}.m{clip-path:url(#a);}.n{fill:#cc3232;}.p{clip-path:url(#b);}</style><clipPath id="a"><circle class="a" cx="22.41176" cy="13.78171" r="3.31524"/></clipPath><clipPath id="b"><ellipse class="a" cx="12.61579" cy="13.78171" rx="3.06519" ry="3.31524"/></clipPath></defs><ellipse class="b" cx="22.50365" cy="39.02877" rx="6.08548" ry="17.64997" transform="translate(-18.71448 57.21461) rotate(-83.84017)"/><path class="c" d="M34.57471,5.46448c-.0127-.04212-.02881-.08386-.04444-.12567a2.06362,2.06362,0,0,0-.18652-.36713c-.01855-.02918-.03223-.05878-.05225-.08777a3.11693,3.11693,0,0,0-.36377-.42584c-.03613-.03552-.07714-.07031-.11523-.10547a4.93366,4.93366,0,0,0-.40137-.33c-.0459-.03381-.08935-.06787-.1372-.10131-.19336-.13471-.40284-.26673-.63282-.39508-.02783-.01539-.05908-.03-.08691-.04535-.21338-.11591-.44287-.22858-.68408-.33875-.05908-.02685-.11817-.05359-.17871-.08008a17.48976,17.48976,0,0,0-1.90381-.69256c-.04834-.01471-.09815-.029-.147-.04352-.34521-.10248-.70263-.20093-1.07568-.29413L28.523,2.021q-.61011-.15135-1.26709-.285L27.207,1.72656c-.41308-.08362-.84033-.16119-1.27832-.23364-.0415-.00684-.082-.01392-.12353-.02063-.10108-.0163-.19776-.03448-.29981-.05017-.17187-.02637-.35693-.04572-.53223-.07037-.30322-.04285-.60839-.08448-.92187-.12195-.24072-.02875-.48438-.055-.731-.08051q-.50976-.05292-1.0332-.09558c-.24316-.02008-.48584-.03986-.7334-.0567-.37549-.02545-.75732-.0448-1.14209-.06256-.23291-.0108-.4624-.02417-.69873-.03205-.519-.01733-1.04639-.02594-1.5791-.02868-.09815-.00049-.19238-.00525-.29053-.00525A46.5961,46.5961,0,0,0,7.68018,1.90485C4.50537,2.6322,2.20508,3.68732,1.376,4.90662a1.79788,1.79788,0,0,0-.34229,1.01977,1.402,1.402,0,0,0,.04443.32715l3.686,30.67462c0,2.17035,5.85693,3.93189,13.0791,3.93189s13.07862-1.76154,13.07862-3.93189L34.61475,6.25354a1.39815,1.39815,0,0,0,.03759-.32715A1.60308,1.60308,0,0,0,34.57471,5.46448Z"/><path class="d" d="M26.7255,35.62793a.61167.61167,0,0,1-.4777.55017,19.99126,19.99126,0,0,1-8.39817,1.50747c-6.7349,0-7.10706-1.06592-8.40972-1.26868a.61213.61213,0,0,1-.516-.56587L7.88756,19.46019a.61449.61449,0,0,1,.71815-.65209,54.62292,54.62292,0,0,0,9.24392.72578,64.14492,64.14492,0,0,0,9.24532-.74914.61547.61547,0,0,1,.70688.66228Z"/><path class="e" d="M10.78526,24.487a.352.352,0,0,1,.2461-.10254h.21875a6.83158,6.83158,0,0,1,.24218-1.44726.32507.32507,0,0,1-.10644-.17579.30329.30329,0,0,1,.00683-.20605.31071.31071,0,0,1,.31836-.22168h.123a.26987.26987,0,0,1,.10937-.02051.34819.34819,0,0,1,.11329.02051l1.41308-.02051a.3428.3428,0,0,1,.32227.46778,6.95493,6.95493,0,0,0-.35547,1.958.338.338,0,0,1-.12207.22266.327.327,0,0,1-.24219.08984.33663.33663,0,0,1-.23242-.11621.3325.3325,0,0,1-.083-.252,8.57619,8.57619,0,0,1,.24512-1.67969l-.82227.00977a6.83793,6.83793,0,0,0-.25879,1.49316.31809.31809,0,0,1,.03614.36231.34453.34453,0,0,1-.31543.18261h-.01953a.32315.32315,0,0,1-.08692,0,1.63044,1.63044,0,0,0-.17871.00684q-.123.00587-.32519.00586a.352.352,0,0,1-.2461-.10254.33246.33246,0,0,1,0-.47461Z"/><path class="e" d="M14.41612,22.40011a6.0874,6.0874,0,0,1,.25879-.88282.30526.30526,0,0,1,.30566-.21972.31175.31175,0,0,1,.29981.14453.3469.3469,0,0,1,.03808.334,4.74269,4.74269,0,0,0-.17578.54395l1.15528-.00684a.20461.20461,0,0,1,.0498-.00683.1208.1208,0,0,1,.06641.00683.30331.30331,0,0,1,.31836.22949.31172.31172,0,0,1-.10645.38184,7.284,7.284,0,0,0-.30469,1.82129.33754.33754,0,0,1-.12109.23437.32482.32482,0,0,1-.47852-.03515.35536.35536,0,0,1-.08789-.249,8.97077,8.97077,0,0,1,.24219-1.69922l-1.23437.0166a.32114.32114,0,0,1-.335-.23242A.31511.31511,0,0,1,14.41612,22.40011Z"/><path class="e" d="M17.59483,22.529a.316.316,0,0,1,.30567-.21582.33642.33642,0,0,1,.29882.14258.32512.32512,0,0,1,.03321.332,6.86373,6.86373,0,0,0-.3584,1.958.32319.32319,0,0,1-.11621.22949.332.332,0,0,1-.48438-.0332.34434.34434,0,0,1-.08691-.24609A7.45614,7.45614,0,0,1,17.59483,22.529Z"/><path class="e" d="M18.76671,22.84151a.34187.34187,0,0,1,.30175-.51465l1.76563-.01367a.31815.31815,0,0,1,.27832.126.35144.35144,0,0,1,.05273.30859.19214.19214,0,0,1-.01269.07325l-.61719,2.00488a.32235.32235,0,0,1-.12988.17187.33437.33437,0,0,1-.20215.06641H19.337a.35571.35571,0,0,1-.22852-.08887.3296.3296,0,0,1-.11035-.21582l-.23144-1.88867Zm.8789,1.543h.30567l.43457-1.38769-.90625.0166Z"/><path class="e" d="M21.69346,24.48018a.30419.30419,0,0,1,.23926-.0957c.332,0,.61231-.00488.84278-.01367.30761-.00391.50878-.00684.60351-.00684a7.43912,7.43912,0,0,1,.23242-1.373l-1.01855.01269-.06934.34864.3418.02636a.33351.33351,0,0,1,.22852.12989.3104.3104,0,0,1,.083.24511.36328.36328,0,0,1-.38183.31153l-.72657-.07618a.33605.33605,0,0,1-.24511-.13574.32236.32236,0,0,1-.05371-.26855l.19629-.96582.00683-.00684v-.00684a.32073.32073,0,0,1,.12207-.19921.36665.36665,0,0,1,.21289-.08594l1.76563-.01367a.32764.32764,0,0,1,.28515.14941.31546.31546,0,0,1,.043.31934,5.93554,5.93554,0,0,0-.34179,1.70507.30381.30381,0,0,1,.05664.36524.32548.32548,0,0,1-.31543.206h-.03321a.7194.7194,0,0,1-.12988,0q-.33838,0-.77246.00684c-.26758.00391-.5791.00586-.93262.00586a.32845.32845,0,0,1-.23926-.10254.31384.31384,0,0,1-.10644-.23535A.32921.32921,0,0,1,21.69346,24.48018Z"/><path class="e" d="M10.36632,29.487a.352.352,0,0,1,.24609-.10254h.21875a6.83152,6.83152,0,0,1,.24219-1.44726.32508.32508,0,0,1-.10645-.17579.30329.30329,0,0,1,.00684-.20605.31071.31071,0,0,1,.31836-.22168h.123a.26992.26992,0,0,1,.10938-.02051.34818.34818,0,0,1,.11328.02051l1.41309-.02051a.34279.34279,0,0,1,.32226.46778,6.95493,6.95493,0,0,0-.35547,1.958.33792.33792,0,0,1-.12207.22266.327.327,0,0,1-.24218.08984.33663.33663,0,0,1-.23243-.11621.3325.3325,0,0,1-.083-.252,8.57629,8.57629,0,0,1,.24511-1.67969l-.82226.00977a6.83793,6.83793,0,0,0-.25879,1.49316.31809.31809,0,0,1,.03613.36231.34453.34453,0,0,1-.31543.18261h-.01953a.32307.32307,0,0,1-.08691,0,1.6302,1.6302,0,0,0-.17871.00684q-.12306.00587-.3252.00586a.352.352,0,0,1-.24609-.10254.33246.33246,0,0,1,0-.47461Z"/><path class="e" d="M14.13975,27.56222a.32067.32067,0,0,1,.12989-.17579.43128.43128,0,0,1,.20214-.0664.36489.36489,0,0,1,.32227.16308.347.347,0,0,1,.03906.35157,4.51825,4.51825,0,0,0-.26465.93847.348.348,0,0,1-.15625.23926.35.35,0,0,1-.51074-.0957.358.358,0,0,1-.0664-.2793A5.97268,5.97268,0,0,1,14.13975,27.56222Z"/><path class="e" d="M15.18565,28.35909a5.32618,5.32618,0,0,1-.29883-.57812.29515.29515,0,0,1,.02637-.31153.2895.2895,0,0,1,.26563-.15625.29885.29885,0,0,1,.31152.20313,4.58338,4.58338,0,0,0,.57715.96484,1.9157,1.9157,0,0,0,.51855-.89844.37046.37046,0,0,1,.12207-.19629.29172.29172,0,0,1,.20313-.07324.32775.32775,0,0,1,.32519.39844,2.78231,2.78231,0,0,1-.7207,1.25781c.16406.14844.34277.29785.53809.44824a.318.318,0,0,1,.1289.21192.3127.3127,0,0,1-.05957.252.32485.32485,0,0,1-.21875.12988.35343.35343,0,0,1-.24609-.06347,5.86391,5.86391,0,0,1-1.06543-1.01856,1.48023,1.48023,0,0,0-.32813.80957.3078.3078,0,0,1-.09961.2295.32827.32827,0,0,1-.23242.0957.34117.34117,0,0,1-.23828-.10254.32389.32389,0,0,1-.09375-.22852A2.38186,2.38186,0,0,1,15.18565,28.35909Z"/><path class="e" d="M18.05186,27.529a.316.316,0,0,1,.30567-.21582.33645.33645,0,0,1,.29883.14258.32514.32514,0,0,1,.0332.332,6.86373,6.86373,0,0,0-.3584,1.958.32319.32319,0,0,1-.11621.22949.332.332,0,0,1-.48438-.0332.34434.34434,0,0,1-.08691-.24609A7.45648,7.45648,0,0,1,18.05186,27.529Z"/><path class="e" d="M19.23643,29.48018a.30419.30419,0,0,1,.23926-.0957c.332,0,.61231-.00488.84277-.01367.30762-.00391.50879-.00684.60352-.00684a7.43912,7.43912,0,0,1,.23242-1.373l-1.01855.01269-.06934.34864.3418.02636a.33347.33347,0,0,1,.22851.12989.31037.31037,0,0,1,.083.24511.36328.36328,0,0,1-.38183.31153l-.72657-.07618a.336.336,0,0,1-.24511-.13574.32236.32236,0,0,1-.05371-.26855l.19628-.96582.00684-.00684v-.00684a.32073.32073,0,0,1,.12207-.19921.36665.36665,0,0,1,.21289-.08594l1.76563-.01367a.32764.32764,0,0,1,.28515.14941.31549.31549,0,0,1,.043.31934,5.93584,5.93584,0,0,0-.3418,1.70507.30378.30378,0,0,1,.05664.36524.32545.32545,0,0,1-.31542.206h-.03321a.7194.7194,0,0,1-.12988,0q-.33838,0-.77246.00684c-.26758.00391-.5791.00586-.93262.00586a.32845.32845,0,0,1-.23926-.10254.31384.31384,0,0,1-.10644-.23535A.32917.32917,0,0,1,19.23643,29.48018Z"/><path class="e" d="M22.47569,27.43331a.366.366,0,0,1,.24609-.10645l1.76856-.01367a.35029.35029,0,0,1,.292.14258.34282.34282,0,0,1,.0332.3252,6.86335,6.86335,0,0,0-.36132,1.96484.359.359,0,0,1-.36524.31836.31216.31216,0,0,1-.23242-.12207.34349.34349,0,0,1-.08594-.24609,8.6536,8.6536,0,0,1,.249-1.69239l-1.291.00977a.32516.32516,0,0,1-.24609-.09571.36853.36853,0,0,1-.10645-.24609A.31605.31605,0,0,1,22.47569,27.43331Z"/><path class="e" d="M14.10069,33.80636a.33848.33848,0,0,1,.11621-.21485.311.311,0,0,1,.23145-.083.32421.32421,0,0,1,.25879.12207.346.346,0,0,1,.07324.27246q-.03956.29883-.0791.84277a.32323.32323,0,0,1-.11621.22949.332.332,0,0,1-.48438-.0332.34434.34434,0,0,1-.08691-.24609Q14.05332,34.132,14.10069,33.80636Zm.18555-1.373a.33089.33089,0,0,1,.24219-.10645l1.76855-.01367a.33933.33933,0,0,1,.292.14258.34285.34285,0,0,1,.03321.3252,6.98186,6.98186,0,0,0-.3584,1.96484.30775.30775,0,0,1-.123.22949.302.302,0,0,1-.24512.08887.31216.31216,0,0,1-.23242-.12207.31773.31773,0,0,1-.0791-.24609,8.62151,8.62151,0,0,1,.24512-1.69239l-1.294.00977a.31821.31821,0,0,1-.24219-.09571.3543.3543,0,0,1-.10937-.24609A.32631.32631,0,0,1,14.28624,32.43331Z"/><path class="e" d="M17.15636,32.43331a.35731.35731,0,0,1,.24609-.09961l.97266-.01367a.557.557,0,0,1,.082-.00684.1966.1966,0,0,1,.08691.00684l.627-.00684a.3215.3215,0,0,1,.24219.09961.31777.31777,0,0,1,.10938.23926.34508.34508,0,0,1-.34473.34473l-.47168.00683a7.6629,7.6629,0,0,0-.28516,1.74219.281.281,0,0,1-.1123.22949.31669.31669,0,0,1-.24609.08887.35654.35654,0,0,1-.31836-.36816,8.50416,8.50416,0,0,1,.23535-1.68262l-.57715.00683a.34508.34508,0,0,1-.23926-.10254.362.362,0,0,1-.10644-.23925A.33684.33684,0,0,1,17.15636,32.43331Z"/><path class="e" d="M20.17,32.93722a.30769.30769,0,0,1-.10938-.17579.32317.32317,0,0,1,0-.206.336.336,0,0,1,.12891-.16211.35785.35785,0,0,1,.19629-.05957h.123a.24657.24657,0,0,1,.10254-.02051.39214.39214,0,0,1,.12891.02051l1.41406-.02051a.3154.3154,0,0,1,.28516.15625.34026.34026,0,0,1,.04.31836,6.713,6.713,0,0,0-.36133,1.958.30926.30926,0,0,1-.11328.22949.32192.32192,0,0,1-.252.08887.31218.31218,0,0,1-.23242-.12207.33919.33919,0,0,1-.08593-.24609,8.70684,8.70684,0,0,1,.248-1.68262h-.81933a7.81083,7.81083,0,0,0-.27832,1.73242.32323.32323,0,0,1-.11621.22949.332.332,0,0,1-.48438-.0332.34434.34434,0,0,1-.08691-.24609A8.80707,8.80707,0,0,1,20.17,32.93722Z"/><path class="c" d="M35.68994,5.61005a1.61027,1.61027,0,0,1-.06006.44c-.71,2.9-8.3999,5.17-17.79,5.17C8.46,11.22.76953,8.95.05957,6.05005A1.61,1.61,0,0,1,0,5.61005C0,2.51,7.98975,0,17.83984,0,27.69971,0,35.68994,2.51,35.68994,5.61005Z"/><path class="f" d="M35.68994,6.48c0,3.1-7.99023,5.61-17.8501,5.61C7.98975,12.09,0,9.58,0,6.48a1.538,1.538,0,0,1,.05957-.43c.71,2.9,8.40039,5.17,17.78027,5.17,9.39014,0,17.08008-2.27,17.79-5.17A1.53832,1.53832,0,0,1,35.68994,6.48Z"/><ellipse class="g" cx="17.84501" cy="5.60992" rx="13.45959" ry="3.68164"/><ellipse class="h" cx="17.84501" cy="6.02496" rx="13.45959" ry="3.68164"/><path class="i" d="M24.0324,7.71443c-.07866.01311-.17011.01311-.2622.02622h-.01279A46.20561,46.20561,0,0,1,11.7867,7.68821l-.05244-.0131a2.06838,2.06838,0,0,1-.3012-.05236.39939.39939,0,0,1-.20975-.1048.515.515,0,0,1-.02558-.75956l2.462-2.30506A.47539.47539,0,0,1,14,4.3092h7.22949a.56063.56063,0,0,1,.3012.11791l2.77669,2.39675A.51.51,0,0,1,24.0324,7.71443Z"/><path class="j" d="M13.65978,4.45333v1.074L11.7867,7.68821l-.05244-.0131-.2763-.04577L11.31758,7.6,11.22331,7.518a.515.515,0,0,1-.02558-.75956Z"/><path class="k" d="M21.22949,4.3092V5.52728H13.65978V4.45333A.47539.47539,0,0,1,14,4.3092Z"/><path class="j" d="M24.0324,7.71443c-.07866.01311-.17011.01311-.2622.02622h-.01279L21.22949,5.52728V4.3092a.56063.56063,0,0,1,.3012.11791l2.77669,2.39675A.51.51,0,0,1,24.0324,7.71443Z"/><polygon class="f" points="13.66 5.527 13.228 6.025 21.85 6.025 21.229 5.527 13.66 5.527"/><polygon class="k" points="13.228 6.025 13.228 6.212 11.955 7.718 11.787 7.688 13.228 6.025"/><polygon class="k" points="21.85 6.025 21.85 6.212 23.543 7.764 23.77 7.764 21.85 6.025"/><rect class="j" x="13.22843" y="6.02493" width="8.62179" height="0.18697"/><circle class="l" cx="22.41176" cy="13.78171" r="3.31524"/><g class="m"><circle class="e" cx="23.04171" cy="13.28336" r="0.89433"/><path class="n" d="M19.55836,15.46873s.41169.326,2.60984.29a11.34885,11.34885,0,0,0,3.81821-.71426v5.18907h-6.428Z"/></g><circle class="o" cx="22.41176" cy="13.78171" r="3.31524"/><ellipse class="l" cx="12.61579" cy="13.78171" rx="3.06519" ry="3.31524"/><g class="p"><circle class="e" cx="13.24575" cy="13.28336" r="0.89433"/><path class="n" d="M10.00481,15.65327s.3427.326,2.37506.29A10.17359,10.17359,0,0,0,15.948,15.229v5.18908H10.00481Z"/></g><ellipse class="o" cx="12.61579" cy="13.78171" rx="3.06519" ry="3.31524"/><path class="q" d="M18.29085,17.09711s-3.23526.04135-3.33945-1.20788,2.16908-4.27008,2.16908-4.27008"/><path class="r" d="M17.16877,18.33746a2.602,2.602,0,0,0,2.38959-.81353"/></svg>