<svg xmlns="http://www.w3.org/2000/svg" xmlns:xlink="http://www.w3.org/1999/xlink" viewBox="0 0 55.85104 60.76961"><defs><style>.a,.j{fill:#f6f6f6;}.a,.b,.l,.m,.p{stroke:#2d2a28;stroke-width:0.82202px;}.a,.m{stroke-miterlimit:10;}.b,.n{fill:#a52929;}.b,.l,.p{stroke-linecap:round;stroke-linejoin:round;}.c{fill:#939699;}.d{fill:#575756;}.e{fill:#3c3c3b;}.f{fill:#353535;}.g{fill:#dadada;}.h{fill:#2d2a28;}.i{fill:#706f6f;}.k{clip-path:url(#a);}.l{fill:#878787;}.m,.p{fill:none;}.o{clip-path:url(#b);}.q{clip-path:url(#c);}</style><clipPath id="a"><ellipse class="a" cx="15.52421" cy="14.17308" rx="4.18417" ry="4.5255"/></clipPath><clipPath id="b"><path class="b" d="M27.24023,17.77394a6.96341,6.96341,0,0,1-2.43253,3.95691,3.66759,3.66759,0,0,1-3.26456.56214,4.39319,4.39319,0,0,1-3.24429-4.249c.0024-.02842-.02174-.05642-.01013-.08247.01932-.04331.08078-.04115.12713-.03111.72105.15624,1.45613.33069,2.18977.44749a12.71978,12.71978,0,0,0,5.39538-.26351A10.17232,10.17232,0,0,0,27.24023,17.77394Z"/></clipPath><clipPath id="c"><circle class="a" cx="28.89629" cy="14.17308" r="4.5255"/></clipPath></defs><ellipse class="c" cx="30.42731" cy="51.58844" rx="8.81046" ry="25.55334" transform="translate(-24.12821 76.30452) rotate(-83.84017)"/><ellipse class="d" cx="23.23623" cy="6.9899" rx="23.23517" ry="6.98879"/><path class="e" d="M33.82763.76526A70.61667,70.61667,0,0,0,23.23608,0C10.40938,0,0,3.13056,0,6.99162a1.95289,1.95289,0,0,0,.06114.45221L5.15692,49.84588c0,3.0001,8.09609,5.435,18.07916,5.435s18.07917-2.43494,18.07917-5.435l5.10469-42.402a1.94723,1.94723,0,0,0,.0518-.45221C46.47174,4.27845,41.33266,1.9218,33.82763.76526ZM33.27138,12.018a55.30405,55.30405,0,0,1-10.0353.92179c-11.84414,0-21.45313-3.261-21.45313-5.94814,0-3.56537,11.06116-5.89591,21.45313-5.89591a70.64657,70.64657,0,0,1,9.6264.6348c6.731.91308,11.82674,2.79146,11.82674,5.26111C44.68922,8.4352,40.06306,10.73962,33.27138,12.018Z"/><path class="f" d="M46.47174,6.99162a1.94723,1.94723,0,0,1-.0518.45221L41.31525,49.84588c0,3.0001-8.09609,5.435-18.07917,5.435,16.54844-13.12239,10.0353-43.263,10.0353-43.263,6.79168-1.27835,11.41784-3.58277,11.41784-5.02635,0-2.46965-5.09578-4.348-11.82674-5.26111l.96515-.96525C41.33266,1.9218,46.47174,4.27845,46.47174,6.99162Z"/><path class="g" d="M36.19261,35.28228a.84552.84552,0,0,1-.66034.76051A60.31666,60.31666,0,0,1,23.245,37.38125a86.0657,86.0657,0,0,1-12.35913-1.00839.84612.84612,0,0,1-.71321-.78221l-.69839-9.89109a.84942.84942,0,0,1,.99272-.90139,75.50612,75.50612,0,0,0,12.778,1.00325,88.66952,88.66952,0,0,0,12.77995-1.03554.85078.85078,0,0,1,.97712.91548Z"/><path class="h" d="M14.4359,31.7077a.48015.48015,0,0,1,.16211-.29785.43608.43608,0,0,1,.32031-.11524.44658.44658,0,0,1,.35742.16993.4827.4827,0,0,1,.10156.376q-.05565.41309-.11132,1.166a.48579.48579,0,0,1-.5.43945.44364.44364,0,0,1-.33008-.16894.47413.47413,0,0,1-.11914-.33985Q14.37243,32.15789,14.4359,31.7077Zm.25781-1.89844a.45736.45736,0,0,1,.334-.14746l2.44531-.01855a.46315.46315,0,0,1,.44922.64746,9.60234,9.60234,0,0,0-.49414,2.71582.43441.43441,0,0,1-.16993.3164.41962.41962,0,0,1-.33984.123A.43092.43092,0,0,1,16.598,33.277a.44332.44332,0,0,1-.11133-.33985,11.97236,11.97236,0,0,1,.33984-2.33984l-1.78906.01465a.4414.4414,0,0,1-.334-.13379.49365.49365,0,0,1-.15235-.33887A.44853.44853,0,0,1,14.69371,29.80926Z"/><path class="h" d="M18.6527,30.37274a.45493.45493,0,0,1,0-.47656.46479.46479,0,0,1,.418-.23438l2.43946-.01855a.43711.43711,0,0,1,.38476.1748.48706.48706,0,0,1,.07422.42676.2434.2434,0,0,1-.01953.10059L21.098,33.1159a.45423.45423,0,0,1-.17969.23926.47667.47667,0,0,1-.2793.09082H19.44176a.49038.49038,0,0,1-.31641-.123.44572.44572,0,0,1-.15234-.29882l-.32031-2.60938Zm1.21484,2.13379h.42187l.60157-1.918-1.252.02344Z"/><path class="h" d="M23.01012,29.988a.4396.4396,0,0,1,.17968-.24316.58148.58148,0,0,1,.2793-.0918.503.503,0,0,1,.44531.22461.48658.48658,0,0,1,.05469.48633,6.215,6.215,0,0,0-.36719,1.29785.477.477,0,0,1-.21679.33008.48281.48281,0,0,1-.70508-.13281.4956.4956,0,0,1-.0918-.38477A8.35151,8.35151,0,0,1,23.01012,29.988Z"/><path class="h" d="M24.72691,29.80926a.50612.50612,0,0,1,.33789-.14746l2.44532-.01855a.48722.48722,0,0,1,.40429.19726.47005.47005,0,0,1,.04493.4502,9.57182,9.57182,0,0,0-.5,2.71582.40862.40862,0,0,1-.16407.3164.41962.41962,0,0,1-.33984.123.43092.43092,0,0,1-.32031-.16894.476.476,0,0,1-.1211-.33985,12.213,12.213,0,0,1,.34571-2.33984l-1.78516.01465a.454.454,0,0,1-.33984-.13379.50482.50482,0,0,1-.14649-.33887A.43045.43045,0,0,1,24.72691,29.80926Z"/><path class="h" d="M28.7484,31.63446a.44647.44647,0,0,1,.14648-.294.48838.48838,0,0,1,.32032-.11914h1.80273q.07031-.3208.15234-.63281l-1.78515.02344a.45987.45987,0,0,1-.33789-.14258.43924.43924,0,0,1-.15235-.33008.44853.44853,0,0,1,.14258-.33008.47.47,0,0,1,.33984-.14746l2.43946-.01855a.45979.45979,0,0,1,.39453.19726.48488.48488,0,0,1,.06055.4502,6.54356,6.54356,0,0,0-.377,1.44433.117.117,0,0,1-.00976.05078c-.03907.29981-.07813.70313-.11328,1.21094a.48726.48726,0,0,1-.16993.31641.453.453,0,0,1-.33593.124.42891.42891,0,0,1-.32032-.16992.46091.46091,0,0,1-.125-.33887q.03224-.42187.07032-.76172H29.61949c-.06054.39161-.09375.668-.10156.83008a.43611.43611,0,0,1-.16016.31641.44382.44382,0,0,1-.33984.13281.50966.50966,0,0,1-.33008-.15137.48475.48475,0,0,1-.11914-.34863Z"/><path class="i" d="M44.68922,6.99162c0,1.44358-4.62615,3.748-11.41783,5.02635a26.59755,26.59755,0,0,0,4.01955-1.25507c1.81816-.65885,4.23221-1.44022,5.49467-3.00562,1.56217-1.937-1.66934-3.124-3.04746-3.573a46.04106,46.04106,0,0,0-7.7518-1.61448C24.47226,1.49509,16.09558,1.1929,8.79563,3.61063a23.47084,23.47084,0,0,0-6.8905,3.287c-.04107.03085-.08235.06155-.12218.094l.04331-.37392c.73925-3.35667,11.383-5.522,21.40982-5.522a70.64657,70.64657,0,0,1,9.6264.6348C39.59344,2.64359,44.68922,4.522,44.68922,6.99162Z"/><ellipse class="j" cx="15.52421" cy="14.17308" rx="4.18417" ry="4.5255"/><g class="k"><path class="l" d="M11.46779,11.41639s.46781-.44508,3.24209-.39589a13.88729,13.88729,0,0,1,4.87075.975V4.91212H11.46779Z"/><circle class="h" cx="14.68466" cy="13.51215" r="1.22081"/></g><ellipse class="m" cx="15.52421" cy="14.17308" rx="4.18417" ry="4.5255"/><path class="n" d="M27.24023,17.77394a6.96341,6.96341,0,0,1-2.43253,3.95691,3.66759,3.66759,0,0,1-3.26456.56214,4.39319,4.39319,0,0,1-3.24429-4.249c.0024-.02842-.02174-.05642-.01013-.08247.01932-.04331.08078-.04115.12713-.03111.72105.15624,1.45613.33069,2.18977.44749a12.71978,12.71978,0,0,0,5.39538-.26351A10.17232,10.17232,0,0,0,27.24023,17.77394Z"/><g class="o"><path class="j" d="M17.38038,19.01a16.22922,16.22922,0,0,0,4.08086.93659c.054.00522.0409-1.38724.09549-1.38256a2.32748,2.32748,0,0,0,.66576-.097A11.057,11.057,0,0,0,22.251,20.0015a10.58241,10.58241,0,0,0,4.31625-.64866l.42539-1.61009-9.6571-.26444Z"/></g><path class="p" d="M27.24023,17.77394a6.96341,6.96341,0,0,1-2.43253,3.95691,3.66759,3.66759,0,0,1-3.26456.56214,4.39319,4.39319,0,0,1-3.24429-4.249c.0024-.02842-.02174-.05642-.01013-.08247.01932-.04331.08078-.04115.12713-.03111.72105.15624,1.45613.33069,2.18977.44749a12.71978,12.71978,0,0,0,5.39538-.26351A10.17232,10.17232,0,0,0,27.24023,17.77394Z"/><circle class="j" cx="28.89629" cy="14.17308" r="4.5255"/><g class="q"><path class="l" d="M24.509,11.66829s.562-.44508,3.56259-.39589a15.49187,15.49187,0,0,1,5.21208.975V5.164H24.509Z"/><circle class="h" cx="28.05673" cy="13.51214" r="1.22081"/></g><circle class="m" cx="28.89629" cy="14.17308" r="4.5255"/><path class="l" d="M21.93117,13.51214l-1.71447.90452a.62709.62709,0,0,0-.43852.92093l.77716,1.329h1.02785"/></svg>