<svg xmlns="http://www.w3.org/2000/svg" xmlns:xlink="http://www.w3.org/1999/xlink" viewBox="0 0 56.18416 61.16614"><defs><style>.a,.i{fill:#f6f6f6;}.a,.k,.l,.m,.o{stroke:#2d2a28;stroke-width:0.78004px;}.a,.e,.k,.m,.o{stroke-miterlimit:10;}.b{fill:#939699;}.c{fill:#a8402a;}.d,.m{fill:#ca4c31;}.e,.k,.l,.o{fill:none;}.e{stroke:#ea563d;stroke-width:2px;}.f{fill:#dadada;}.g{fill:#2d2a28;}.h{fill:#ea563d;}.j{clip-path:url(#a);}.l,.m,.o{stroke-linecap:round;}.l{stroke-linejoin:round;}.n{clip-path:url(#b);}</style><clipPath id="a"><ellipse class="a" cx="17.49308" cy="14.94695" rx="3.97045" ry="4.29435"/></clipPath><clipPath id="b"><circle class="a" cx="30.18214" cy="14.94695" r="4.29435"/></clipPath></defs><ellipse class="b" cx="30.98609" cy="52.06646" rx="8.73226" ry="25.32654" transform="translate(-24.10465 77.2868) rotate(-83.84017)"/><ellipse class="c" cx="24.23517" cy="7.56013" rx="23.23517" ry="6.98879"/><path class="d" d="M34.82656,1.33549A70.61654,70.61654,0,0,0,24.235.57023C11.40832.57023.99894,3.7008.99894,7.56185a1.95244,1.95244,0,0,0,.06114.45222l5.09578,42.402c0,3.0001,8.09609,5.435,18.07916,5.435s18.07916-2.43494,18.07916-5.435l5.1047-42.402a1.94732,1.94732,0,0,0,.0518-.45222C47.47068,4.84868,42.33159,2.492,34.82656,1.33549Zm-.55624,11.25272A55.30516,55.30516,0,0,1,24.235,13.51c-11.84415,0-21.45314-3.261-21.45314-5.94814,0-3.56536,11.06117-5.89591,21.45314-5.89591a70.64838,70.64838,0,0,1,9.6264.6348c6.731.91308,11.82674,2.79146,11.82674,5.26111C45.68816,9.00543,41.062,11.30986,34.27032,12.58821Z"/><path class="c" d="M47.47068,7.56185a1.94732,1.94732,0,0,1-.0518.45222l-5.1047,42.402c0,3.0001-8.09609,5.435-18.07916,5.435,16.54843-13.12239,10.0353-43.26294,10.0353-43.26294C41.062,11.30986,45.68816,9.00543,45.68816,7.56185c0-2.46965-5.09578-4.348-11.82674-5.26111l.96514-.96525C42.33159,2.492,47.47068,4.84868,47.47068,7.56185Z"/><ellipse class="e" cx="24.23517" cy="7.56013" rx="23.23517" ry="6.56013"/><path class="f" d="M39.095,42.06794a.76592.76592,0,0,1-.499.68294,44.17445,44.17445,0,0,1-14.35743,2.58861,55.75973,55.75973,0,0,1-14.4512-2.19316.76837.76837,0,0,1-.552-.70723l-.8766-18.90027a.77074.77074,0,0,1,.90717-.79988,85.81924,85.81924,0,0,0,14.9726,1.20368,102.15186,102.15186,0,0,0,14.97907-1.235.77385.77385,0,0,1,.89362.80877Z"/><path class="g" d="M12.42912,31.09043a.55522.55522,0,0,1,.38965-.16406h.34863a10.88859,10.88859,0,0,1,.38477-2.29981.51064.51064,0,0,1-.16894-.27929.47475.47475,0,0,1,.01074-.32715.49444.49444,0,0,1,.50683-.35352h.19532a.44587.44587,0,0,1,.17382-.03125.59027.59027,0,0,1,.17969.03125l2.24707-.03125a.54579.54579,0,0,1,.51172.74317,10.96014,10.96014,0,0,0-.56445,3.1123.53926.53926,0,0,1-.19532.35352.5182.5182,0,0,1-.38574.14258.5426.5426,0,0,1-.501-.585,13.69918,13.69918,0,0,1,.39062-2.66992l-1.30859.0166a10.91581,10.91581,0,0,0-.41114,2.37305.50472.50472,0,0,1,.0586.5752.547.547,0,0,1-.502.29h-.03125a.45786.45786,0,0,1-.13672,0c-.127,0-.22168.0039-.28516.01074-.12988.00683-.30273.01074-.51758.01074a.55522.55522,0,0,1-.38965-.16406.51189.51189,0,0,1-.1582-.374A.5.5,0,0,1,12.42912,31.09043Z"/><path class="g" d="M18.19963,27.77207a9.62458,9.62458,0,0,1,.41113-1.40332.48484.48484,0,0,1,.48536-.34765.49625.49625,0,0,1,.47753.22949.55659.55659,0,0,1,.06055.53027,7.37657,7.37657,0,0,0-.2793.86524l1.835-.01075a.29235.29235,0,0,1,.0791-.01074.17929.17929,0,0,1,.10547.01074.48223.48223,0,0,1,.50683.36426.49518.49518,0,0,1-.16894.60645,11.65979,11.65979,0,0,0-.48535,2.8955.533.533,0,0,1-.19239.37207.51964.51964,0,0,1-.39258.13965.51365.51365,0,0,1-.36718-.19531.559.559,0,0,1-.13965-.39551,14.18763,14.18763,0,0,1,.38476-2.70019l-1.96191.02636a.51321.51321,0,0,1-.5332-.37011A.501.501,0,0,1,18.19963,27.77207Z"/><path class="g" d="M23.25334,27.97813a.50053.50053,0,0,1,.48535-.34278.53272.53272,0,0,1,.47461.22657.51233.51233,0,0,1,.05274.52734,10.92209,10.92209,0,0,0-.56934,3.1123.51256.51256,0,0,1-.18457.36426.52577.52577,0,0,1-.77051-.05273.54037.54037,0,0,1-.13672-.39063A11.81388,11.81388,0,0,1,23.25334,27.97813Z"/><path class="g" d="M25.11565,28.47422a.528.528,0,0,1,0-.54883.53518.53518,0,0,1,.48047-.26953l2.80566-.02051a.502.502,0,0,1,.44336.2002.5582.5582,0,0,1,.084.49023.31562.31562,0,0,1-.0205.11621l-.98145,3.18653a.511.511,0,0,1-.20605.27441.54082.54082,0,0,1-.32129.10547h-1.377a.56973.56973,0,0,1-.36425-.14258.51727.51727,0,0,1-.17383-.34277l-.36914-3.002Zm1.39746,2.45215h.48535l.69141-2.2041-1.44043.02636Z"/><path class="g" d="M29.768,31.07969a.48307.48307,0,0,1,.37891-.15332q.79248,0,1.33984-.02051.73389-.01025.96094-.01074a11.69848,11.69848,0,0,1,.36914-2.18359l-1.62012.0205-.11035.55469.543.042a.52973.52973,0,0,1,.36426.20508.5012.5012,0,0,1,.13183.39063.58233.58233,0,0,1-.60644.49609l-1.15528-.12109a.5446.5446,0,0,1-.39062-.2168.51.51,0,0,1-.084-.42676l.31055-1.53516.01074-.01074v-.01074a.5112.5112,0,0,1,.19532-.31641.57373.57373,0,0,1,.33789-.13671l2.80664-.02149a.52047.52047,0,0,1,.45312.23731.49962.49962,0,0,1,.06836.50683,9.43029,9.43029,0,0,0-.543,2.71094.48183.48183,0,0,1,.08985.58008.518.518,0,0,1-.501.32715h-.05273a1.03712,1.03712,0,0,1-.20606,0q-.5376,0-1.22949.01074-.63722.01024-1.48242.01074a.51829.51829,0,0,1-.37891-.16406.49424.49424,0,0,1-.16894-.374A.51906.51906,0,0,1,29.768,31.07969Z"/><path class="g" d="M10.4594,39.09043a.5552.5552,0,0,1,.38965-.16406h.34863a10.888,10.888,0,0,1,.38476-2.29981.51064.51064,0,0,1-.16894-.27929.47475.47475,0,0,1,.01074-.32715.49446.49446,0,0,1,.50684-.35352h.19531a.44592.44592,0,0,1,.17383-.03125.59021.59021,0,0,1,.17968.03125l2.24708-.03125a.54579.54579,0,0,1,.51171.74317,10.96085,10.96085,0,0,0-.56445,3.1123.53928.53928,0,0,1-.19531.35352.5182.5182,0,0,1-.38574.14258.54261.54261,0,0,1-.501-.585,13.7,13.7,0,0,1,.39062-2.66992l-1.30859.0166a10.91528,10.91528,0,0,0-.41113,2.373.50473.50473,0,0,1,.05859.5752.547.547,0,0,1-.50195.29H11.7885a.45786.45786,0,0,1-.13672,0c-.127,0-.22168.0039-.28516.01074-.12988.00683-.30273.01074-.51757.01074a.5552.5552,0,0,1-.38965-.16406.5119.5119,0,0,1-.15821-.374A.5.5,0,0,1,10.4594,39.09043Z"/><path class="g" d="M16.45647,36.03086a.50812.50812,0,0,1,.20605-.2793.67732.67732,0,0,1,.32129-.10546.57694.57694,0,0,1,.51172.25781.5556.5556,0,0,1,.06348.55957,7.14806,7.14806,0,0,0-.42188,1.49316.55372.55372,0,0,1-.248.37891.55737.55737,0,0,1-.8125-.15235.57618.57618,0,0,1-.10546-.44335A9.44936,9.44936,0,0,1,16.45647,36.03086Z"/><path class="g" d="M17.40666,37.92442a.51077.51077,0,0,1,.169-.33789.56326.56326,0,0,1,.36914-.13672H20.018c.05274-.2461.11035-.48926.17383-.72754l-2.05176.02636a.53285.53285,0,0,1-.39062-.16406.50425.50425,0,0,1-.17383-.37988.52476.52476,0,0,1,.16308-.37988.549.549,0,0,1,.39063-.169l2.80664-.02051a.52585.52585,0,0,1,.45312.22657.55819.55819,0,0,1,.06934.5166,7.681,7.681,0,0,0-.43262,1.66211.1315.1315,0,0,1-.01074.05761q-.06885.5171-.13183,1.39258a.54738.54738,0,0,1-.19532.36426.516.516,0,0,1-.38476.14258.49606.49606,0,0,1-.36914-.19531.5295.5295,0,0,1-.14258-.39063q.03662-.48486.0791-.875H18.40862a9.40862,9.40862,0,0,0-.11524.9541.51077.51077,0,0,1-.18457.36426.51847.51847,0,0,1-.39062.15332.589.589,0,0,1-.37989-.1748.55193.55193,0,0,1-.13672-.4004Z"/><path class="g" d="M22.7924,35.97813a.50054.50054,0,0,1,.48536-.34278.53274.53274,0,0,1,.47461.22657.51233.51233,0,0,1,.05273.52734,10.92209,10.92209,0,0,0-.56934,3.1123.51256.51256,0,0,1-.18457.36426.52576.52576,0,0,1-.7705-.05273.54029.54029,0,0,1-.13672-.39063A11.81359,11.81359,0,0,1,22.7924,35.97813Z"/><path class="g" d="M24.80705,35.77207a9.62333,9.62333,0,0,1,.41114-1.40332.48483.48483,0,0,1,.48535-.34765.49627.49627,0,0,1,.47754.22949.55658.55658,0,0,1,.06054.53027,7.37472,7.37472,0,0,0-.27929.86524l1.835-.01075a.29235.29235,0,0,1,.0791-.01074.17928.17928,0,0,1,.10547.01074.48223.48223,0,0,1,.50683.36426.49518.49518,0,0,1-.16894.60645,11.65979,11.65979,0,0,0-.48535,2.8955.533.533,0,0,1-.19239.37207.51963.51963,0,0,1-.39257.13965.51366.51366,0,0,1-.36719-.19531.559.559,0,0,1-.13965-.39551,14.18668,14.18668,0,0,1,.38477-2.70019l-1.96192.02636a.51321.51321,0,0,1-.5332-.37011A.501.501,0,0,1,24.80705,35.77207Z"/><path class="g" d="M29.86076,35.97813a.50053.50053,0,0,1,.48536-.34278.53274.53274,0,0,1,.47461.22657.51233.51233,0,0,1,.05273.52734,10.92209,10.92209,0,0,0-.56934,3.1123.51256.51256,0,0,1-.18457.36426.52576.52576,0,0,1-.7705-.05273.54029.54029,0,0,1-.13672-.39063A11.81359,11.81359,0,0,1,29.86076,35.97813Z"/><path class="g" d="M32.103,36.03086a.50818.50818,0,0,1,.20606-.2793.67729.67729,0,0,1,.32129-.10546.57693.57693,0,0,1,.51171.25781.55557.55557,0,0,1,.06348.55957,7.14806,7.14806,0,0,0-.42187,1.49316.55379.55379,0,0,1-.248.37891.55737.55737,0,0,1-.8125-.15235.57619.57619,0,0,1-.10547-.44335A9.44936,9.44936,0,0,1,32.103,36.03086Z"/><path class="g" d="M34.07561,39.09043a.503.503,0,0,1,.38965-.16406q.83349,0,2.05273-.02051a12.23081,12.23081,0,0,1,.3584-2.18359l-2.041.02636a.53131.53131,0,0,1-.39062-.16406.502.502,0,0,1,0-.75976.52814.52814,0,0,1,.37988-.15821l2.7959-.03125a.52585.52585,0,0,1,.45312.22657.543.543,0,0,1,.05274.5166,9.139,9.139,0,0,0-.5166,2.5166h.20508a.52158.52158,0,0,1,.37988.16308.49093.49093,0,0,1,.1748.375.57832.57832,0,0,1-.55468.55372H36.9926q-2.70117.022-2.52734.02148a.5552.5552,0,0,1-.38965-.16406.5119.5119,0,0,1-.15821-.374A.5.5,0,0,1,34.07561,39.09043Z"/><path class="h" d="M46.66033,38.80068c-.79394,0-1.15527-.873-1.28223-1.17871-2.38964-5.7627-5.11523-24.11036-5.23046-24.8877l1.97851-.293c.02246.15527,1.90918,12.85352,3.85547,20.42383-.05176-1.85547-.14648-4.05078-.23633-6.12012-.046-1.06067-.09394-2.16709-.13928-3.28724,0,0,.44025-4.0421.79069-6.953,0,0,.49929,6.95976.64089,10.23417.47363,10.93262,1.11786,11.758-.11652,12.03243A1.25476,1.25476,0,0,1,46.66033,38.80068Z"/><ellipse class="i" cx="17.49308" cy="14.94695" rx="3.97045" ry="4.29435"/><g class="j"><circle class="g" cx="16.64274" cy="14.54892" r="1.15845"/></g><ellipse class="k" cx="17.49308" cy="14.94695" rx="3.97045" ry="4.29435"/><path class="l" d="M13.79785,13.37646a1.75362,1.75362,0,0,1-2.07358-1.70039"/><path class="l" d="M14.36891,12.29844s-1.3511.036-1.46627-1.80774"/><path class="m" d="M22.98726,15.81385a1.82251,1.82251,0,0,0-2.83341,1.38955c-.19307,1.54332,1.57935,2.16887,2.83341,1.93636"/><circle class="i" cx="30.18214" cy="14.94695" r="4.29435"/><g class="n"><circle class="g" cx="29.33179" cy="14.54892" r="1.15845"/></g><circle class="k" cx="30.18214" cy="14.94695" r="4.29435"/><path class="l" d="M34.26628,13.37646a1.75361,1.75361,0,0,0,2.07358-1.70039"/><path class="l" d="M33.69522,12.29844s1.3511.036,1.46627-1.80774"/><path class="o" d="M22.72249,20.5928s3.218.42232,4.334-.7144"/></svg>