<svg xmlns="http://www.w3.org/2000/svg" viewBox="0 0 29.12069 36.83466"><defs><style>.a{fill:#ededed;}.b{opacity:0.15;}.c{fill:#1f3366;}.d{fill:#fff;}.e{fill:#9d9d9c;}.f{fill:#2d2a28;}.g{fill:none;stroke:#c6c6c6;stroke-linecap:round;stroke-miterlimit:10;stroke-width:0.89077px;}</style></defs><polygon class="a" points="26.433 34.335 2.5 34.335 2.688 2.5 26.621 2.5 26.433 34.335"/><g class="b"><path class="c" d="M2.68753,2.5l23.9331,0-.18774,31.83462-23.933,0L2.68753,2.5m0-2.5a2.50007,2.50007,0,0,0-2.5,2.48528L-.0001,34.31988a2.50012,2.50012,0,0,0,2.5,2.51472l23.933,0a2.50005,2.50005,0,0,0,2.5-2.48526l.18774-31.83462A2.50012,2.50012,0,0,0,26.62063,0L2.68753,0Z"/></g><path class="d" d="M2.68753,2.5l23.9331,0-.18774,31.83462-23.933,0L2.68753,2.5m0-2a2,2,0,0,0-2,1.98821L.4999,34.32281a2.00013,2.00013,0,0,0,2,2.01179l23.933,0a2,2,0,0,0,2-1.98822L28.62063,2.5118a2.00013,2.00013,0,0,0-2-2.01179L2.68753.5Z"/><path class="e" d="M2.68753,2.5l23.9331,0-.18774,31.83462-23.933,0L2.68753,2.5m0-.5a.5.5,0,0,0-.5.49706L1.9999,34.33166a.5.5,0,0,0,.5.50294l23.933,0a.5.5,0,0,0,.5-.497L27.12063,2.503a.5.5,0,0,0-.5-.503L2.68753,2Z"/><path class="f" d="M8.90713,7.78861H7.9833a.12714.12714,0,0,1-.09765-.044.13415.13415,0,0,1-.03711-.10254l.03711-.498a.15122.15122,0,0,1,.05078-.10547.1598.1598,0,0,1,.10547-.04h.957a1.75628,1.75628,0,0,1,1.18359.32812A1.25662,1.25662,0,0,1,10.497,8.41458l-.18164,2.47364a.15763.15763,0,0,1-.04883.10547.15409.15409,0,0,1-.10742.04H9.47354a.13831.13831,0,0,1-.10352-.04.133.133,0,0,1-.03711-.10547L9.5126,8.44974Q9.5624,7.78763,8.90713,7.78861Z"/><path class="f" d="M14.15909,7.35208a1.31976,1.31976,0,0,1,.293,1.0625l-.13086,1.75391a.15556.15556,0,0,1-.15625.14551H12.581a.13856.13856,0,0,1-.13477-.14551l.03711-.499a.14355.14355,0,0,1,.05079-.1045.156.156,0,0,1,.10546-.041h.74805l.08008-1.0625a.6632.6632,0,0,0-.11133-.4707.43931.43931,0,0,0-.36523-.168H12.538l-.666,2.33984a.18382.18382,0,0,1-.05469.10742.14508.14508,0,0,1-.10742.044h-.668a.13082.13082,0,0,1-.10352-.044.10572.10572,0,0,1-.02344-.10742l.74024-2.334h-.38281a.12915.12915,0,0,1-.10157-.043.14763.14763,0,0,1-.0332-.1084l.03906-.5332a.15329.15329,0,0,1,.05274-.10547.15489.15489,0,0,1,.10351-.04h1.86524A1.28362,1.28362,0,0,1,14.15909,7.35208Z"/><path class="f" d="M15.34463,9.99173a1.33484,1.33484,0,0,1-.31445-1.07715l.13086-1.7705a.15122.15122,0,0,1,.05078-.10547.16749.16749,0,0,1,.11133-.04h1.48047a1.58531,1.58531,0,0,1,1.16992.35351A1.40436,1.40436,0,0,1,18.2958,8.398a2.7,2.7,0,0,1-.01367.27246c-.00976.14746-.01953.24024-.02539.2793a1.63573,1.63573,0,0,1-.49414,1.05957,1.85912,1.85912,0,0,1-1.26172.36328A1.551,1.551,0,0,1,15.34463,9.99173ZM17.11612,9.399a.70539.70539,0,0,0,.20117-.47852c.00781-.03906.01562-.12207.02539-.25.00781-.123.01172-.20507.01172-.24414a.63783.63783,0,0,0-.13867-.48047.67027.67027,0,0,0-.5-.15722h-.70118l-.082,1.1084a.58309.58309,0,0,0,.13672.48437.673.673,0,0,0,.48828.16016A.85531.85531,0,0,0,17.11612,9.399Z"/><path class="f" d="M21.829,7.35208a1.31976,1.31976,0,0,1,.293,1.0625l-.13086,1.75391a.15558.15558,0,0,1-.15625.14551h-1.584a.13856.13856,0,0,1-.13476-.14551l.03711-.499A.14351.14351,0,0,1,20.204,9.565a.156.156,0,0,1,.10547-.041h.748l.08008-1.0625a.66315.66315,0,0,0-.11133-.4707.43931.43931,0,0,0-.36523-.168h-.45313l-.666,2.33984a.18382.18382,0,0,1-.05469.10742.14508.14508,0,0,1-.10742.044h-.668a.13082.13082,0,0,1-.10352-.044.10569.10569,0,0,1-.02343-.10742l.74023-2.334h-.38281a.12913.12913,0,0,1-.10156-.043.14763.14763,0,0,1-.03321-.1084l.03907-.5332a.15324.15324,0,0,1,.05273-.10547.1549.1549,0,0,1,.10352-.04h1.86523A1.2836,1.2836,0,0,1,21.829,7.35208Z"/><line class="g" x1="23.30272" y1="14.60089" x2="12.01021" y2="14.6009"/><line class="g" x1="23.26587" y1="16.35093" x2="9.65818" y2="16.35095"/><line class="g" x1="23.22903" y1="18.10097" x2="13.77361" y2="18.10098"/><line class="g" x1="23.19218" y1="19.85102" x2="7.84321" y2="19.85103"/><line class="g" x1="23.15533" y1="21.60106" x2="11.86282" y2="21.60107"/><line class="g" x1="23.11848" y1="23.3511" x2="9.73404" y2="23.35111"/><line class="g" x1="23.08164" y1="25.10114" x2="11.08128" y2="25.10115"/><line class="g" x1="23.04479" y1="26.85118" x2="11.75227" y2="26.85119"/><line class="g" x1="23.00794" y1="28.60122" x2="11.71543" y2="28.60123"/><line class="g" x1="22.97109" y1="30.35126" x2="8.02396" y2="30.35127"/></svg>