<svg xmlns="http://www.w3.org/2000/svg" xmlns:xlink="http://www.w3.org/1999/xlink" viewBox="0 0 25.38732 25.52078"><defs><style>.a,.i,.n{fill:none;}.b{isolation:isolate;}.c{fill:#ededed;}.d{opacity:0.15;}.e{fill:#1f3366;}.f{fill:#fff;}.g{fill:#9d9d9c;}.h{fill:#be1622;}.i{stroke:#a52929;stroke-width:0.87413px;}.i,.n{stroke-miterlimit:10;}.j{mix-blend-mode:color-burn;}.k{clip-path:url(#a);}.l{clip-path:url(#b);}.m{clip-path:url(#c);}.n{stroke:#9d9d9c;stroke-width:0.13229px;}.o{clip-path:url(#d);}.p{clip-path:url(#e);}.q{clip-path:url(#f);}.r{clip-path:url(#g);}.s{clip-path:url(#h);}.t{clip-path:url(#i);}.u{clip-path:url(#j);}.v{clip-path:url(#k);}.w{clip-path:url(#l);}.x{clip-path:url(#m);}.y{clip-path:url(#n);}.z{clip-path:url(#o);}.aa{clip-path:url(#p);}.ab{clip-path:url(#q);}.ac{clip-path:url(#r);}.ad{clip-path:url(#s);}.ae{clip-path:url(#t);}.af{clip-path:url(#u);}.ag{clip-path:url(#v);}.ah{clip-path:url(#w);}.ai{clip-path:url(#x);}.aj{clip-path:url(#y);}.ak{clip-path:url(#z);}</style><clipPath id="a"><path class="a" d="M21.59244,23.47918c-2.90711,0-2.90711.53912-5.81422.53912-2.90911,0-2.90911-.90525-5.81821-.90525S7.0509,24.15939,4.1418,24.1594c-1.21421,0-1.88066-1.6019-1.88066-2.8161,0-2.90711.145-2.90711.145-5.81422,0-2.90911-1.08678-2.90911-1.08678-5.81821s.7265-2.90911.7265-5.81822A1.99087,1.99087,0,0,1,4.1418,1.8423c2.9071,0,2.9071.35513,5.81421.35513,2.90911,0,2.90911.02964,5.81821.02964s2.90911-.97861,5.81822-.97861A2.70862,2.70862,0,0,1,23.891,3.89265c0,2.90711-.00468,2.90711-.00468,5.81422,0,2.90911-.40618,2.90911-.40618,5.81821s.64329,2.90911.64329,5.81822A2.45579,2.45579,0,0,1,21.59244,23.47918Z"/></clipPath><clipPath id="b"><path class="a" d="M27.50608,25.02485C12.99692,27.80958,9.75254,24.71662-4.682,31.366q8.74658-9.76287,0-17.72971,7.02008-8.33731,0-17.72971H28.43223C23.70493,8.62838,26.941,12.43467,27.50608,25.02485Z"/></clipPath><clipPath id="c"><path class="a" d="M25.30747,1.0699C28.27.92982,26.19126,1.05,29.24363.99363c-1.61414,2.51462-.79041,4.4374-1.30774,7.23689-3.1333-.04484-.98145-.01274-4.04138-.05789C24.42026,5.3914,23.70041,3.59112,25.30747,1.0699Z"/></clipPath><clipPath id="d"><path class="a" d="M23.89451,8.17263c3.05993.04515.90808.013,4.04138.05789-.51734,2.79955-.84607,4.16645,1.59558,8.30739-3.08569.03759-.82886.23377-3.98584.03893C23.12546,12.46548,23.36887,10.9539,23.89451,8.17263Z"/></clipPath><clipPath id="e"><path class="a" d="M20.39255-4.87743c3.11231,0,4.6781.00854,7.79041.00854-.01868,3.09526-1.26843,3.4175-2.87549,5.93879-2.962.14-3.33435,1.24418-6.30017,1.38075C19.78855-.84055,20.4105-1.748,20.39255-4.87743Z"/></clipPath><clipPath id="f"><path class="a" d="M19.0073,2.45065c2.96582-.13657,3.33813-1.24071,6.30017-1.38075-1.60706,2.52122-.88721,4.3215-1.413,7.10273-3.05945-.04516-3.68311-.0717-6.74561-.11683C18.37754,6.81558,18.22605,5.74179,19.0073,2.45065Z"/></clipPath><clipPath id="g"><path class="a" d="M17.1489,8.0558c3.0625.04513,3.68616.07167,6.74561.11683-.52564,2.78127-.769,4.29285,1.65112,8.40421-3.15637-.19481-5.616-3.1651-8.76941-3.35024C16.10337,11.534,15.92026,9.296,17.1489,8.0558Z"/></clipPath><clipPath id="h"><path class="a" d="M16.77622,13.2266c3.15344.18514,5.613,3.15543,8.76941,3.35024,2.42029,4.11128,2.79456,7.0468,2.37707,7.211-3.32727-.43677-6.3673-3.91884-9.68994-4.34459C16.91965,16.39651,17.449,14.91915,16.77622,13.2266Z"/></clipPath><clipPath id="i"><path class="a" d="M18.23276,19.44325c3.32264.42575,6.36267,3.90782,9.68994,4.34459-.41748.16418-.64257-.88776-.67944,2.16348-3.05591.01523-3.86584.24768-6.92407.26227C20.28367,23.042,19.54575,22.49,18.23276,19.44325Z"/></clipPath><clipPath id="j"><path class="a" d="M12.612-4.86223c3.11279,0,4.66772-.0152,7.78051-.0152.01795,3.12939-.604,4.03688-1.38525,7.32808-2.96631.13658-4.33423-1.11983-7.35986-1.42053C12.1915-1.47207,12.62485-1.79349,12.612-4.86223Z"/></clipPath><clipPath id="k"><path class="a" d="M11.64744,1.03012c3.02563.3007,4.39355,1.55711,7.35986,1.42053-.78125,3.29114-.62976,4.36493-1.8584,5.60515-3.063-.04515-3.81726-.63536-6.72485-.76413C11.232,5.19712,11.10337,3.53224,11.64744,1.03012Z"/></clipPath><clipPath id="l"><path class="a" d="M10.42405,7.29167c2.90759.12877,3.66186.719,6.72485.76413-1.22864,1.24025-1.04553,3.47824-.37268,5.1708-3.15393-.18515-2.78784.86367-5.47668,1.05049C9.57065,11.26988,9.61619,9.38626,10.42405,7.29167Z"/></clipPath><clipPath id="m"><path class="a" d="M11.29954,14.27709c2.68884-.18682,2.32275-1.23564,5.47668-1.05049.67273,1.69255.14343,3.16991,1.45654,6.21665-3.32324-.42584-2.39062,1.93579-4.9292,2.39705C13.05405,18.961,13.0283,17.28427,11.29954,14.27709Z"/></clipPath><clipPath id="n"><path class="a" d="M13.30356,21.8403c2.53858-.46126,1.606-2.82289,4.9292-2.397,1.313,3.04672,2.05091,3.59875,2.08643,6.77034-3.05884.0146-3.76148,1.694-6.65845,2.09062A44.01357,44.01357,0,0,0,13.30356,21.8403Z"/></clipPath><clipPath id="o"><path class="a" d="M4.81565-4.88265c3.11279,0,4.68359.02042,7.79639.02042.01281,3.06874-.42054,3.39016-.9646,5.89235C8.6218.7294,8.12729,1.58439,5.54563,1.864A45.46784,45.46784,0,0,1,4.81565-4.88265Z"/></clipPath><clipPath id="p"><path class="a" d="M5.54563,1.864C8.12729,1.58439,8.6218.7294,11.64744,1.03012c-.54407,2.50212-.41541,4.167-1.22339,6.26155-2.90747-.12877-2.90613.38965-5.25257.5601A12.33992,12.33992,0,0,0,5.54563,1.864Z"/></clipPath><clipPath id="q"><path class="a" d="M5.17148,7.85177c2.34644-.17045,2.3451-.68887,5.25257-.5601-.80786,2.09459-.8534,3.97821.87549,6.98542-2.689.18685-3.19263-.26329-5.67359-.38249A8.65607,8.65607,0,0,1,5.17148,7.85177Z"/></clipPath><clipPath id="r"><path class="a" d="M5.62595,13.8946c2.481.1192,2.98462.56934,5.67359.38249,1.72876,3.00718,1.75451,4.68393,2.004,7.56321-2.53857.46125-3.98779-1.06617-6.82043-1.54068A10.86591,10.86591,0,0,0,5.62595,13.8946Z"/></clipPath><clipPath id="s"><path class="a" d="M6.48313,20.29962c2.83264.47451,4.28186,2.00193,6.82043,1.54068a44.01357,44.01357,0,0,1,.35718,6.46391c-2.89685.39661-4.62182-1.812-7.72778-2.6238A25.33532,25.33532,0,0,1,6.48313,20.29962Z"/></clipPath><clipPath id="t"><path class="a" d="M-2.9678-4.88624c3.11231,0,4.67114.00359,7.78345.00359a45.46784,45.46784,0,0,0,.73,6.7466c-2.5813.27951-3.60486.67291-6.019,1.12433C-1.85085-.60007-2.8876-1.72168-2.9678-4.88624Z"/></clipPath><clipPath id="u"><path class="a" d="M-.47341,2.98828c2.41418-.45142,3.43774-.84482,6.019-1.12433a12.33992,12.33992,0,0,1-.37415,5.98782c-2.34619.17043-4.07995,1.3177-6.88928,2.25714C-.13833,7.77162.904,6.57656-.47341,2.98828Z"/></clipPath><clipPath id="v"><path class="a" d="M-1.7178,10.10891C1.09153,9.16947,2.82529,8.0222,5.17148,7.85177a8.65607,8.65607,0,0,0,.45447,6.04283c-2.48034-.11917-4.05139,1.57556-6.81665,2.73892C-3.22817,14.36549-3.29727,12.44627-1.7178,10.10891Z"/></clipPath><clipPath id="w"><path class="a" d="M-1.1907,16.63352c2.76526-1.16336,4.33631-2.85809,6.81665-2.73892a10.86591,10.86591,0,0,1,.85718,6.405C3.651,19.82516,2.58677,22.32432.00791,23.84475,1.78415,20.21047.84678,18.9015-1.1907,16.63352Z"/></clipPath><clipPath id="x"><path class="a" d="M.00791,23.84475c2.57886-1.52043,3.64307-4.01959,6.47522-3.54513A25.33532,25.33532,0,0,0,5.933,25.68041C2.82749,24.86872.671,29.04473-2.857,31.57952-2.74075,28.34271-1.76821,27.479.00791,23.84475Z"/></clipPath><clipPath id="y"><path class="a" d="M-4.92715,3.18493c3.03735-.04878,2.03931.25484,4.45374-.19665C.904,6.57656-.13833,7.77162-1.7178,10.10891c-2.80981.93959-1.56164.29006-4.7113.31316C-4.66323,7.96807-3.41067,6.86315-4.92715,3.18493Z"/></clipPath><clipPath id="z"><path class="a" d="M-5.86758,16.98634c3.13245-.00006,1.91113.81071,4.67688-.35282,2.03748,2.268,2.97485,3.577,1.19861,7.21123-2.57922,1.52066-1.46191.43813-4.47974.33663C-2.47354,20.30972-3.64224,19.25364-5.86758,16.98634Z"/></clipPath></defs><g class="b"><path class="c" d="M20.621,22.29928c-2.58877,0-2.58877.48008-5.17755.48008-2.59056,0-2.59056-.80612-5.18111-.80612s-2.59056.93177-5.18111.93177C4,22.905,3.40655,21.47852,3.40655,20.39727c0-2.58877.1291-2.58877.1291-5.17755,0-2.59055-.96778-2.59055-.96778-5.18111s.64695-2.59056.64695-5.18111A1.77287,1.77287,0,0,1,5.08127,3.03166c2.58877,0,2.58877.31624,5.17755.31624,2.59056,0,2.59056.0264,5.18111.0264s2.59056-.87145,5.18111-.87145A2.412,2.412,0,0,1,22.66786,4.8575c0,2.58878-.00417,2.58878-.00417,5.17755,0,2.59056-.36169,2.59056-.36169,5.18111s.57284,2.59056.57284,5.18111A2.18688,2.18688,0,0,1,20.621,22.29928Z"/><g class="d"><path class="e" d="M20.62107,2.50285a2.412,2.412,0,0,1,2.04675,2.35464c0,2.58878-.00415,2.58878-.00415,5.17757,0,2.59055-.36169,2.59055-.36169,5.18111s.57287,2.59054.57287,5.1811a2.1869,2.1869,0,0,1-2.25378,1.902c-2.58875,0-2.58875.48007-5.17761.48007-2.59058,0-2.59058-.8061-5.181-.8061-2.59058,0-2.59058.93176-5.18116.93176C4,22.905,3.40659,21.47853,3.40659,20.39727c0-2.58877.129-2.58877.129-5.17755,0-2.59056-.96777-2.59056-.96777-5.18111s.647-2.59056.647-5.18112A1.77285,1.77285,0,0,1,5.08127,3.03166c2.58875,0,2.58875.31624,5.17749.31624,2.59058,0,2.59058.02639,5.18116.02639s2.59057-.87144,5.18115-.87144m0-2.5A9.39,9.39,0,0,0,17.23337.569a4.554,4.554,0,0,1-1.79345.30525c-1.2826,0-1.92383-.00653-2.56507-.01307C12.2208.85456,11.56675.8479,10.25876.8479A15.87021,15.87021,0,0,1,7.97312.70823,20.79113,20.79113,0,0,0,5.08127.53166,4.25093,4.25093,0,0,0,.71482,4.85749a6.75684,6.75684,0,0,1-.249,1.98482,11.65281,11.65281,0,0,0-.398,3.1963,8.865,8.865,0,0,0,.642,3.46544,3.97971,3.97971,0,0,1,.32581,1.71567c0,1.23213-.02979,1.83066-.0614,2.46433C.941,18.351.90659,19.04061.90659,20.39727c0,2.46158,1.56152,5.00774,4.17468,5.00774a8.975,8.975,0,0,0,3.43665-.61342,4.17982,4.17982,0,0,1,1.74451-.31834,5.08384,5.08384,0,0,1,1.84765.29014,9.912,9.912,0,0,0,3.33338.516,14.56275,14.56275,0,0,0,3.04467-.282,9.74447,9.74447,0,0,1,2.13294-.19812,4.66132,4.66132,0,0,0,4.75378-4.402,12.79875,12.79875,0,0,0-.34546-3.13037,7.91708,7.91708,0,0,1-.22741-2.05073,13.65982,13.65982,0,0,1,.15686-2.24488,18.52751,18.52751,0,0,0,.20483-2.93623l.00208-2.58478.00207-2.59279c0-2.29162-1.94446-4.85464-4.54675-4.85464Z"/></g><path class="f" d="M20.62107,2.50285a2.412,2.412,0,0,1,2.04675,2.35464c0,2.58878-.00415,2.58878-.00415,5.17757,0,2.59055-.36169,2.59055-.36169,5.18111s.57287,2.59054.57287,5.1811a2.1869,2.1869,0,0,1-2.25378,1.902c-2.58875,0-2.58875.48007-5.17761.48007-2.59058,0-2.59058-.8061-5.181-.8061-2.59058,0-2.59058.93176-5.18116.93176C4,22.905,3.40659,21.47853,3.40659,20.39727c0-2.58877.129-2.58877.129-5.17755,0-2.59056-.96777-2.59056-.96777-5.18111s.647-2.59056.647-5.18112A1.77285,1.77285,0,0,1,5.08127,3.03166c2.58875,0,2.58875.31624,5.17749.31624,2.59058,0,2.59058.02639,5.18116.02639s2.59057-.87144,5.18115-.87144m0-2a8.95052,8.95052,0,0,0-3.22827.5401,5.066,5.066,0,0,1-1.95288.33134c-1.28516,0-1.92762-.00656-2.57019-.01309-.65271-.00665-1.30555-.0133-2.611-.0133a16.28876,16.28876,0,0,1-2.34619-.14336,20.35824,20.35824,0,0,0-2.8313-.17288A3.76191,3.76191,0,0,0,1.21482,4.85749a7.247,7.247,0,0,1-.26392,2.106,11.07405,11.07405,0,0,0-.383,3.07514,8.31491,8.31491,0,0,0,.61035,3.29046,4.42858,4.42858,0,0,1,.35742,1.89065c0,1.24458-.03015,1.84915-.062,2.48921-.033.66083-.067,1.34415-.067,2.68834,0,2.21579,1.37451,4.50774,3.67468,4.50774a8.53641,8.53641,0,0,0,3.26746-.58391,4.631,4.631,0,0,1,1.9137-.34785,5.55133,5.55133,0,0,1,1.99621.31273,9.473,9.473,0,0,0,3.18482.49337,14.12742,14.12742,0,0,0,2.95349-.27357,10.27656,10.27656,0,0,1,2.22412-.2065,4.15549,4.15549,0,0,0,4.25378-3.902,12.2107,12.2107,0,0,0-.33362-3.0224,8.33211,8.33211,0,0,1-.23925-2.1587,14.09663,14.09663,0,0,1,.16162-2.314,18.0832,18.0832,0,0,0,.20007-2.8671l.00208-2.58559.00207-2.592A4.38511,4.38511,0,0,0,20.62107.50285Z"/><path class="g" d="M20.62107,2.50285a2.412,2.412,0,0,1,2.04675,2.35464c0,2.58878-.00415,2.58878-.00415,5.17757,0,2.59055-.36169,2.59055-.36169,5.18111s.57287,2.59054.57287,5.1811a2.1869,2.1869,0,0,1-2.25378,1.902c-2.58875,0-2.58875.48007-5.17761.48007-2.59058,0-2.59058-.8061-5.181-.8061-2.59058,0-2.59058.93176-5.18116.93176C4,22.905,3.40659,21.47853,3.40659,20.39727c0-2.58877.129-2.58877.129-5.17755,0-2.59056-.96777-2.59056-.96777-5.18111s.647-2.59056.647-5.18112A1.77285,1.77285,0,0,1,5.08127,3.03166c2.58875,0,2.58875.31624,5.17749.31624,2.59058,0,2.59058.02639,5.18116.02639s2.59057-.87144,5.18115-.87144m0-.5a7.44978,7.44978,0,0,0-2.75.46182,6.51508,6.51508,0,0,1-2.43115.40962c-1.29273,0-1.93909-.00659-2.58545-.01317-.64893-.00662-1.29785-.01322-2.59571-.01322a17.75214,17.75214,0,0,1-2.52807-.15444,18.82855,18.82855,0,0,0-2.64942-.1618A2.26943,2.26943,0,0,0,2.71482,4.85749a8.69067,8.69067,0,0,1-.30859,2.46942,9.65185,9.65185,0,0,0-.33838,2.7117,6.83225,6.83225,0,0,0,.5155,2.76552,5.906,5.906,0,0,1,.45227,2.41559c0,1.28194-.03247,1.93364-.06384,2.56389-.03211.64247-.06519,1.30682-.06519,2.61366,0,1.44651.83142,3.00774,2.17468,3.00774A7.04724,7.04724,0,0,0,7.841,22.90962a6.11754,6.11754,0,0,1,2.42139-.43637,7.01746,7.01746,0,0,1,2.44189.38046,7.95885,7.95885,0,0,0,2.73914.42564,12.66847,12.66847,0,0,0,2.68-.24843,11.67119,11.67119,0,0,1,2.49756-.23164,2.67505,2.67505,0,0,0,2.75378-2.402,10.77691,10.77691,0,0,0-.29821-2.69851,9.79973,9.79973,0,0,1-.27466-2.48259,15.5397,15.5397,0,0,1,.176-2.52143,16.56871,16.56871,0,0,0,.18567-2.65968l.00208-2.588.00207-2.58957a2.90817,2.90817,0,0,0-2.54675-2.85464Z"/><path class="h" d="M17.883,12.81234c0-.51765.81532-1.44791.6209-1.90932a7.09554,7.09554,0,0,0-.88308-1.7423c-.33727-.35873-2.14923,1.01461-2.60126.7591-.42781-.24183-.30355-1.84017-.80811-1.96759-.47572-.12013-1.14089-.90271-1.663-.90271a8.77365,8.77365,0,0,0-1.76891.4815c-.50462.1274-.91584,1.01161-1.3437,1.25344-.45251.25577-1.20959.40722-1.54711.76641-.35253.37518.84855,1.71489.65491,2.17474-.19422.46119-.86105.56937-.86105,1.08673a3.03094,3.03094,0,0,0,.35662,1.3c.19381.46.04357,1.07438.39634,1.4496.33728.35873,1.38808-.46335,1.8401-.20784a3.41138,3.41138,0,0,0,1.10133.3721c.47572.12013.64938,2.84867,1.17147,2.84867.522,0,1.135-.98818,1.61058-1.10826.50462-.1274.29567-1.76185.72353-2.00368.45252-.25577,2.03227,1.01164,2.36979.65244.35253-.37518-1.15267-1.86587-.959-2.32571C16.48754,13.32842,17.883,13.3297,17.883,12.81234Z"/><path class="i" d="M17.883,12.81234c0-.51765.81532-1.44791.6209-1.90932a7.09554,7.09554,0,0,0-.88308-1.7423c-.33727-.35873-2.14923,1.01461-2.60126.7591-.42781-.24183-.30355-1.84017-.80811-1.96759-.47572-.12013-1.14089-.90271-1.663-.90271a8.77365,8.77365,0,0,0-1.76891.4815c-.50462.1274-.91584,1.01161-1.3437,1.25344-.45251.25577-1.20959.40722-1.54711.76641-.35253.37518.84855,1.71489.65491,2.17474-.19422.46119-.86105.56937-.86105,1.08673a3.03094,3.03094,0,0,0,.35662,1.3c.19381.46.04357,1.07438.39634,1.4496.33728.35873,1.38808-.46335,1.8401-.20784a3.41138,3.41138,0,0,0,1.10133.3721c.47572.12013.64938,2.84867,1.17147,2.84867.522,0,1.135-.98818,1.61058-1.10826.50462-.1274.29567-1.76185.72353-2.00368.45252-.25577,2.03227,1.01164,2.36979.65244.35253-.37518-1.15267-1.86587-.959-2.32571C16.48754,13.32842,17.883,13.3297,17.883,12.81234Z"/><g class="j"><g class="k"><g class="l"><g class="m"><path class="n" d="M25.00693,1.5899c2.94544-.156.88086-.02238,3.925-.08635"/><path class="n" d="M24.63743,2.53927c2.94543-.15594.88476-.01874,3.94458-.06813"/><path class="n" d="M24.522,3.58193c2.97778-.13511.89709-.01052,4.00085-.03041"/><path class="n" d="M24.47117,4.64173c2.95263-.19036.88684-.03288,3.95385-.13324"/><path class="n" d="M24.35239,5.656c2.96143-.17082.8866-.03349,3.95093-.13954"/><path class="n" d="M24.1887,6.64018c2.99292-.102.89282-.01979,3.97717-.08225"/><path class="n" d="M24.00339,7.60986c3.03516-.00945.90222.00082,4.01734.00572"/></g><g class="o"><path class="n" d="M23.79172,8.73872c3.0824.09415.91272.02363,4.06165.10281"/><path class="n" d="M23.63914,9.73025c3.10827.15088.91723.03383,4.08056.14452"/><path class="n" d="M23.53818,10.75651c3.10828.15065.91443.02747,4.06617.1127"/><path class="n" d="M23.51707,11.83508c3.06066.06146.89709-.00528,3.9873-.03653"/><path class="n" d="M23.77122,13.03456a38.18187,38.18187,0,0,0,3.873-.19457"/><path class="n" d="M24.32065,14.35186A29.1375,29.1375,0,0,0,28.187,14.148"/><path class="n" d="M25.06455,15.74685a24.47162,24.47162,0,0,0,3.93042-.11531"/></g><g class="p"><path class="n" d="M27.56052-4.86155c-.05029,3.06589-1.25757,3.42751-2.83227,5.979"/><path class="n" d="M26.4769-4.85843C26.41331-1.805,25.289-1.36594,23.81125,1.27589"/><path class="n" d="M25.38474-4.86377C25.34409-1.789,24.31186-1.26415,22.967,1.50172"/><path class="n" d="M24.28806-4.87333c.00025,3.11287-.93542,3.7278-2.12915,6.63451"/><path class="n" d="M23.19089-4.88286c.04114,3.15094-.798,3.85591-1.84057,6.90348"/><path class="n" d="M22.09885-4.88813c.0636,3.172-.68347,3.96273-1.59326,7.13408"/><path class="n" d="M21.01584-4.88491c.04993,3.15914-.61425,4.02719-1.42761,7.28842"/><path class="n" d="M19.49448.62306c3.04761-.06075,3.76673-.8411,6.81177-.90425"/><path class="n" d="M19.17551,1.78129C22.16746,1.6686,22.66465.68136,25.6533.56568"/></g><g class="q"><path class="n" d="M24.72825,1.11746c-1.57471,2.55145-.87928,4.33392-1.43653,7.0459"/><path class="n" d="M23.81125,1.27589c-1.47778,2.64177-.85009,4.34476-1.49194,6.87128"/><path class="n" d="M22.967,1.50172c-1.34473,2.76579-.8075,4.34625-1.56055,6.629"/><path class="n" d="M22.15891,1.76118c-1.1936,2.90666-.7583,4.34309-1.63574,6.353"/><path class="n" d="M21.35032,2.02062c-1.04261,3.04751-.70911,4.33994-1.71106,6.077"/><path class="n" d="M20.50559,2.246c-.90979,3.1713-.66663,4.34151-1.77966,5.83522"/><path class="n" d="M19.58823,2.40351c-.81335,3.26119-.63782,4.35247-1.835,5.66149"/><path class="n" d="M18.86143,3.11531c2.94946-.15229,3.2-1.36947,6.1455-1.52541"/><path class="n" d="M18.685,4.24473c2.95008-.1517,3.00684-1.54951,5.9524-1.70546"/><path class="n" d="M18.6323,5.34239C21.61509,5.21186,21.54416,3.717,24.522,3.58193"/><path class="n" d="M18.50242,6.22891c2.95715-.18679,3.01611-1.39681,5.96875-1.58718"/><path class="n" d="M18.21921,6.88287c2.96558-.16824,3.17163-1.056,6.13318-1.22687"/><path class="n" d="M17.83506,7.38357c2.99646-.10043,3.36072-.64139,6.35364-.74339"/><path class="n" d="M17.40207,7.81042c3.03833-.00887,3.56617-.19113,6.60132-.20056"/></g><g class="r"><path class="n" d="M23.29172,8.16336c-.55725,2.712-.74243,4.31935,1.59815,8.3204"/><path class="n" d="M22.31931,8.14717c-.64184,2.52652-.75476,4.25515,1.375,7.96431"/><path class="n" d="M21.40647,8.13073c-.753,2.28278-.8186,4.09384,1.03528,7.42119"/><path class="n" d="M20.52317,8.11418c-.87756,2.00988-.9082,3.884.63733,6.78471"/><path class="n" d="M19.63926,8.09761c-1.00208,1.737-.99768,3.6744.23962,6.14839"/><path class="n" d="M18.72593,8.08117c-1.113,1.49372-1.06116,3.5138-.09925,5.60663"/><path class="n" d="M17.75327,8.065c-1.19726,1.309-1.07287,3.45077-.32092,5.25288"/><path class="n" d="M16.90732,8.31852c3.085.09357,3.802.326,6.8844.4202"/><path class="n" d="M16.548,8.85687c3.11035.14926,3.98291.72252,7.09119.87338"/><path class="n" d="M16.30527,9.57223c3.10987.148,4.12476,1.03363,7.23291,1.18428"/><path class="n" d="M16.22947,10.53675c3.06189.05777,4.2268,1.23687,7.2876,1.29833"/><path class="n" d="M16.28989,11.468c2.99951-.02858,4.48181,1.58989,7.48133,1.56656"/><path class="n" d="M16.43748,12.22906c3.02038.00029,4.86169,2.11572,7.88317,2.1228"/><path class="n" d="M16.64243,12.87809c3.09607.105,5.32385,2.75539,8.42212,2.86876"/></g><g class="s"><path class="n" d="M24.88987,16.48376c2.34057,4.00111,2.67859,6.87039,2.33325,7.15486"/><path class="n" d="M23.69431,16.11148c2.12964,3.70921,2.36121,6.40258,2.22119,7.029"/><path class="n" d="M22.44175,15.55192a16.17022,16.17022,0,0,1,2.07678,6.87763"/><path class="n" d="M21.1605,14.89889c1.54565,2.90071,1.46765,5.10637,1.91638,6.71355"/><path class="n" d="M19.87888,14.246c1.23731,2.474.99487,4.42227,1.75586,6.54948"/><path class="n" d="M18.62668,13.6878c.962,2.09287.57471,3.81123,1.61182,6.39832"/><path class="n" d="M17.43235,13.31788c.752,1.80216.25867,3.34532,1.50012,6.27278"/><path class="n" d="M16.91331,13.56822c3.21521.26985,5.90747,3.56312,9.12609,3.84314"/><path class="n" d="M17.14072,14.17366c3.31214.40411,6.40149,4.24705,9.71826,4.66287"/><path class="n" d="M17.33127,14.85078c3.37415.48981,6.843,4.85812,10.2229,5.36117"/><path class="n" d="M17.45542,15.65776c3.37244.48759,7.18921,5.33732,10.56848,5.83973"/><path class="n" d="M17.49106,16.65513c3.32129.42249,7.348,5.5491,10.67676,5.98738"/><path class="n" d="M17.64866,17.74815c3.3894.536,7.06738,5.08172,10.46313,5.63153"/><path class="n" d="M17.982,18.82391c3.36621.49751,6.64978,4.38626,10.02124,4.89546"/></g><g class="t"><path class="n" d="M24.51853,22.42955a11.9036,11.9036,0,0,1,.16455,3.56918"/><path class="n" d="M23.07688,21.61244a9.65943,9.65943,0,0,1,.70581,4.47073"/><path class="n" d="M21.63474,20.79548c.761,2.12717,1.166,2.1246,1.24695,5.37206"/><path class="n" d="M20.2385,20.08612c1.03711,2.587,1.58337,2.81971,1.70886,6.14138"/><path class="n" d="M18.93247,19.59066c1.24146,2.9274,1.9148,3.37183,2.01306,6.64821"/><path class="n" d="M18.5106,20.05978c3.266.3306,6.0548,3.39513,9.32446,3.735"/><path class="n" d="M19.01865,21.11848c3.15222.141,5.50122,2.473,8.65589,2.62129"/><path class="n" d="M19.51255,22.17857c3.04565-.03632,4.95862,1.56944,8.00561,1.53834"/><path class="n" d="M19.932,23.246c2.97791-.14929,4.47412.76229,7.452.61617"/><path class="n" d="M20.21689,24.32647c2.98-.14593,4.09436.12966,7.073-.01517"/></g><g class="u"><path class="n" d="M19.768-4.87993c-.00769,3.13925-.60791,4.03689-1.3789,7.32231"/><path class="n" d="M18.68418-4.88878c-.018,3.17459-.59607,3.99618-1.346,7.20866"/><path class="n" d="M17.59665-4.88669c-.0155,3.16621-.56835,3.9008-1.28454,6.99655"/><path class="n" d="M16.50779-4.8781c-.00562,3.13192-.5315,3.77308-1.20618,6.72625"/><path class="n" d="M15.41831-4.86748c.00671,3.08955-.49158,3.63527-1.12268,6.4378"/><path class="n" d="M14.329-4.85932c.01624,3.057-.45507,3.50963-1.04541,6.1712"/><path class="n" d="M13.24216-4.85805c.0177,3.05192-.42871,3.41847-.98608,5.96676"/><path class="n" d="M11.98728-.31092c3.06079.17757,4.46008.99472,7.5072.934"/><path class="n" d="M11.76511.52975c3.03711.2597,4.41895,1.36421,7.4104,1.25154"/></g><g class="v"><path class="n" d="M18.38914,2.44238c-.771,3.28535-.63367,4.36743-1.86158,5.60774"/><path class="n" d="M17.33823,2.31988c-.74988,3.21242-.62585,4.34764-1.8114,5.674"/><path class="n" d="M16.31211,2.10986c-.71594,3.09569-.59387,4.31773-1.7168,5.77176"/><path class="n" d="M15.30161,1.84815c-.6748,2.95313-.54785,4.28182-1.596,5.888"/><path class="n" d="M14.29563,1.57032c-.6311,2.80248-.49731,4.24405-1.4668,6.01"/><path class="n" d="M13.28354,1.31188c-.59021,2.66153-.452,4.20852-1.34741,6.12511"/><path class="n" d="M12.25608,1.10871C11.69858,3.657,11.834,5.2881,10.99973,7.32907"/><path class="n" d="M11.54636,1.5462c3.01575.33325,4.36609,1.72136,7.31507,1.56911"/><path class="n" d="M11.42356,2.488c3.00793.36,4.31189,1.90838,7.26147,1.75671"/><path class="n" d="M11.3884,3.52256c3.01538.34943,4.26148,1.95032,7.2439,1.81983"/><path class="n" d="M11.31016,4.51448c3.01867.356,4.23559,1.90118,7.19226,1.71443"/><path class="n" d="M11.12742,5.37272C14.128,5.692,15.254,7.05108,18.21921,6.88287"/><path class="n" d="M10.87583,6.14283c2.96863.25409,3.96313,1.34116,6.95923,1.24074"/><path class="n" d="M10.59116,6.87049c2.92969.17516,3.77307.9488,6.81091.93993"/></g><g class="w"><path class="n" d="M16.52756,8.05012c-1.228,1.2403-1.04431,3.48308-.36963,5.17514"/><path class="n" d="M15.52683,7.99392c-1.18567,1.32639-1.05713,3.486-.27539,5.31168"/><path class="n" d="M14.59531,7.88162c-1.1228,1.454-1.03015,3.55755-.09082,5.57983"/><path class="n" d="M13.70566,7.73616c-1.048,1.60617-.97973,3.66981.14685,5.92575"/><path class="n" d="M12.82883,7.58035c-.96936,1.766-.92212,3.79475.40113,6.29593"/><path class="n" d="M11.93613,7.437c-.89538,1.91661-.87329,3.90441.63538,6.63692"/><path class="n" d="M10.99973,7.32907c-.83423,2.041-.84949,3.97065.81275,6.89479"/><path class="n" d="M10.26584,7.72282c2.88575.08577,3.55689.50217,6.64148.5957"/><path class="n" d="M10.03123,8.51457c2.857.02757,3.40673.193,6.51672.3423"/><path class="n" d="M9.87607,9.40809c2.84473.00229,3.31971.01611,6.4292.16414"/><path class="n" d="M9.83933,10.4477c2.85913.0262,3.32874.0313,6.39014.08905"/><path class="n" d="M10.02744,11.53915c2.86694.03586,3.26331-.04257,6.26245-.07115"/><path class="n" d="M10.42332,12.60974c2.82214-.01986,2.99426-.381,6.01416-.38068"/><path class="n" d="M10.95579,13.66665c2.743-.11862,2.59106-.89357,5.68664-.78856"/></g><g class="x"><path class="n" d="M16.15793,13.22526c.67456,1.69209.14661,3.14073,1.4574,6.21152"/><path class="n" d="M15.25144,13.3056c.78174,1.82577.3064,3.27254,1.51489,6.32484"/><path class="n" d="M14.50449,13.46145c.93933,2.02232.54651,3.50191,1.59668,6.52567"/><path class="n" d="M13.85251,13.66191c1.12659,2.256.83411,3.78891,1.69288,6.77813"/><path class="n" d="M13.23,13.87628c1.32324,2.50123,1.13647,4.09391,1.79357,7.04675"/><path class="n" d="M12.57151,14.07391c1.50867,2.73256,1.42114,4.37729,1.88879,7.296"/><path class="n" d="M11.81248,14.22386c1.66235,2.92418,1.655,4.599,1.96875,7.48994"/><path class="n" d="M11.6522,14.88648c2.63147-.25784,2.04651-1.58808,5.26111-1.31826"/><path class="n" d="M12.23789,15.938c2.53882-.37333,1.59119-2.16844,4.90283-1.76438"/><path class="n" d="M12.73618,16.99835c2.46826-.46129,1.22168-2.6373,4.59509-2.14757"/><path class="n" d="M13.0759,18.07456c2.43775-.49937,1.00757-2.90432,4.37952-2.4168"/><path class="n" d="M13.18479,19.169c2.44861-.47754.98572-2.9363,4.30627-2.51389"/><path class="n" d="M13.19993,20.22673c2.44018-.47905,1.05993-3.01455,4.44873-2.47858"/><path class="n" d="M13.25706,21.25364c2.49011-.47006,1.35925-2.92715,4.725-2.42973"/></g><g class="y"><path class="n" d="M17.61533,19.43678c1.31091,3.07071,2.0481,3.65634,2.08215,6.77508"/><path class="n" d="M16.76633,19.63044c1.2085,3.05226,1.87024,3.62427,1.94947,6.75118"/><path class="n" d="M16.10117,19.98712c1.05017,3.02369,1.62537,3.58007,1.69385,6.705"/><path class="n" d="M15.54539,20.44c.85876,2.98917,1.34082,3.52878,1.36547,6.64583"/><path class="n" d="M15.02353,20.923c.657,2.95277,1.04407,3.47523,1.01453,6.58252"/><path class="n" d="M14.4603,21.36987a25.94293,25.94293,0,0,1,.6908,6.52412"/><path class="n" d="M13.78123,21.7138a34.80937,34.80937,0,0,1,.44482,6.47974"/><path class="n" d="M13.3574,22.42192c2.5946-.45121,1.88769-2.69266,5.1532-2.36214"/><path class="n" d="M13.4564,23.41833c2.70214-.43181,2.41052-2.44081,5.56225-2.29985"/><path class="n" d="M13.552,24.41723c2.80505-.41325,2.91528-2.20236,5.96057-2.23866"/><path class="n" d="M13.62986,25.42918C16.513,25.03,16.95457,23.39524,19.932,23.246"/><path class="n" d="M13.67539,26.46456c2.91711-.393,3.562-1.99217,6.5415-2.13809"/></g><g class="z"><path class="n" d="M11.98386-4.87119c.00232,3.10435-.41919,3.38538-.95532,5.86026"/><path class="n" d="M10.91392-4.86487c-.0636,3.07916-.40625,3.39431-.88672,5.89558"/><path class="n" d="M9.83042-4.86336a35.75611,35.75611,0,0,1-.67725,6.00584"/><path class="n" d="M8.73594-4.86733c-.045,3.08894-.17627,3.51538-.37439,6.1653"/><path class="n" d="M7.63706-4.87389c.00476,3.11516-.01074,3.60252-.0271,6.34805"/><path class="n" d="M6.53867-4.88021c.05249,3.14034.15235,3.6884.31568,6.52852"/><path class="n" d="M5.44565-4.8834a57.16325,57.16325,0,0,0,.60547,6.681"/><path class="n" d="M5.30808.24392c2.77722-.17666,3.6178-.73245,6.6792-.55484"/><path class="n" d="M5.46287,1.26608C8.11118,1.0216,8.72751.27,11.76511.52975"/></g><g class="aa"><path class="n" d="M11.02854.98907c-.53626,2.47485-.41931,4.159-1.2096,6.28926"/><path class="n" d="M10.0272,1.03071c-.48047,2.50122-.42115,4.1655-1.18909,6.26848"/><path class="n" d="M9.15317,1.14248c-.3601,2.56461-.36047,4.1839-1.0896,6.22705"/><path class="n" d="M8.36155,1.298a22.49223,22.49223,0,0,1-.93579,6.17529"/><path class="n" d="M7.61,1.47416a17.86077,17.86077,0,0,1-.75659,6.11868"/><path class="n" d="M6.85435,1.64831a14.8901,14.8901,0,0,1-.57972,6.06253"/><path class="n" d="M6.05112,1.79763a13.04018,13.04018,0,0,1-.43371,6.01224"/><path class="n" d="M5.62021,2.46684C8.14548,2.1576,8.53013,1.2129,11.54636,1.5462"/><path class="n" d="M5.718,3.523c2.464-.34156,2.697-1.39512,5.70557-1.035"/><path class="n" d="M5.76133,4.60339c2.45984-.34531,2.6112-1.43031,5.62707-1.08083"/><path class="n" d="M5.71494,5.53549c2.45422-.33672,2.57617-1.377,5.59522-1.021"/><path class="n" d="M5.60349,6.29133c2.43347-.30475,2.523-1.23791,5.52393-.91861"/><path class="n" d="M5.44919,6.931C7.8519,6.67359,7.907,5.88873,10.87583,6.14283"/><path class="n" d="M5.27415,7.51464c2.36718-.20259,2.38684-.81935,5.317-.64415"/></g><g class="ab"><path class="n" d="M9.81894,7.27833c-.7904,2.13022-.87463,3.95618.89905,7.0193"/><path class="n" d="M8.83811,7.29919c-.76794,2.103-.84265,3.96631.88135,6.98444"/><path class="n" d="M8.06357,7.36953c-.729,2.04315-.79419,3.94367.82642,6.86478"/><path class="n" d="M7.42576,7.47326c-.67871,1.96582-.74109,3.89168.74633,6.688"/><path class="n" d="M6.85337,7.59284a7.81528,7.81528,0,0,0,.65442,6.484"/><path class="n" d="M6.27463,7.71084a8.08316,8.08316,0,0,0,.56372,6.28278"/><path class="n" d="M5.61741,7.80987a8.43033,8.43033,0,0,0,.48718,6.114"/><path class="n" d="M5.07432,8.202c2.32653-.14018,2.30529-.56493,5.19152-.47914"/><path class="n" d="M4.93052,8.87014c2.29821-.0966,2.243-.38316,5.10071-.35557"/><path class="n" d="M4.83628,9.67251c2.28149-.07082,2.19458-.26672,5.03979-.26442"/><path class="n" d="M4.81113,10.66409c2.27808-.07077,2.1687-.24259,5.0282-.21639"/><path class="n" d="M4.90061,11.66069c2.29272-.057,2.25964-.1574,5.12683-.12154"/><path class="n" d="M5.1207,12.568c2.34693-.00607,2.48.06158,5.30262.04172"/><path class="n" d="M5.42673,13.41664a50.50138,50.50138,0,0,0,5.52906.25"/></g><g class="ac"><path class="n" d="M10.718,14.29763c1.77368,3.06319,1.81958,4.72684,2.02906,7.59893"/><path class="n" d="M9.71946,14.28363c1.724,3.0182,1.818,4.7297,1.98877,7.55851"/><path class="n" d="M8.89,14.23431a13.80723,13.80723,0,0,1,1.844,7.4118"/><path class="n" d="M8.17209,14.16122a13.12955,13.12955,0,0,1,1.63172,7.19524"/><path class="n" d="M7.50779,14.07685a12.35572,12.35572,0,0,1,1.38733,6.94554"/><path class="n" d="M6.83835,13.99362a11.63253,11.63253,0,0,1,1.14612,6.69911"/><path class="n" d="M6.10459,13.92388A11.07377,11.07377,0,0,1,7.048,20.41629"/><path class="n" d="M5.83127,14.36889c2.5354.17069,3.18909.77547,5.82093.51759"/><path class="n" d="M6.17075,15.19465c2.626.25553,3.528,1.11679,6.06714.74339"/><path class="n" d="M6.4553,16.058c2.6997.32474,3.81213,1.40175,6.28088.94039"/><path class="n" d="M6.64011,16.98939c2.74329.36563,3.99756,1.58463,6.43579,1.08517"/><path class="n" d="M6.68284,18.01591c2.745.36673,4.05285,1.63072,6.502,1.15311"/><path class="n" d="M6.6356,18.98806c2.75647.38085,4.12365,1.71779,6.56433,1.23867"/><path class="n" d="M6.54783,19.842c2.79834.4325,4.21887,1.88183,6.70923,1.41167"/></g><g class="ad"><path class="n" d="M12.74705,21.89656a60.13875,60.13875,0,0,1,.32263,6.45768"/><path class="n" d="M11.70823,21.84214c.17077,2.82877.25537,3.26206.29028,6.41783"/><path class="n" d="M10.734,21.64611c.1,2.74128.14161,3.12159.18287,6.28514"/><path class="n" d="M9.80381,21.35646c.0061,2.62561.00036,2.94738.02514,6.09056"/><path class="n" d="M8.89512,21.02239c-.09839,2.49659-.15381,2.75722-.15638,5.86664"/><path class="n" d="M7.98447,20.69273a49.2539,49.2539,0,0,0-.33557,5.64561"/><path class="n" d="M7.048,20.41629a30.95464,30.95464,0,0,0-.48621,5.45977"/><path class="n" d="M6.41306,20.739c2.87146.52271,4.34924,2.13422,6.94434,1.68293"/><path class="n" d="M6.28489,21.47549c2.9436.61169,4.46887,2.37471,7.17151,1.94284"/><path class="n" d="M6.16,22.22157c3.01318.69763,4.58655,2.609,7.392,2.19566"/><path class="n" d="M6.05222,23.01766c3.07007.7677,4.69385,2.81072,7.57764,2.41152"/><path class="n" d="M5.97556,23.90412c3.10352.809,4.78235,2.95356,7.69983,2.56044"/></g><g class="ae"><path class="n" d="M4.1915-4.87938a38.00677,38.00677,0,0,0,.81031,6.78886"/><path class="n" d="M3.12632-4.86675c-.04029,3.08662.36523,3.80005.8551,6.81454"/><path class="n" d="M2.04978-4.86039c-.07959,3.06125.42383,3.838,1.01184,6.916"/><path class="n" d="M.95969-4.86271C.89451-1.7922,1.50925-.94352,2.249,2.23258"/><path class="n" d="M-.13857-4.87C-.15847-1.77025.57529-.84459,1.4979,2.44969"/><path class="n" d="M-1.23843-4.87873C-1.20474-1.74428-.34988-.74035.76365,2.67742"/><path class="n" d="M-2.33462-4.88509C-2.26174-1.72526-1.28933-.64534.00083,2.88667"/><path class="n" d="M-1.32449.97833C1.33372.68446,2.531.4206,5.30808.24392"/><path class="n" d="M-.76858,2.25546c2.49866-.397,3.58313-.74489,6.23145-.98938"/></g><g class="af"><path class="n" d="M5.00181,1.90948a11.86127,11.86127,0,0,1-.34009,5.96837"/><path class="n" d="M3.98142,1.94779a11.04123,11.04123,0,0,1-.36121,5.96457"/><path class="n" d="M3.06162,2.05558A9.43566,9.43566,0,0,1,2.59751,8.127"/><path class="n" d="M2.249,2.23258a8.06192,8.06192,0,0,1-.61585,6.26653"/><path class="n" d="M1.4979,2.44969c.92249,3.2942.23755,4.51739-.79565,6.51278"/><path class="n" d="M.76365,2.67742c1.11352,3.4177.27771,4.635-.98291,6.77266"/><path class="n" d="M.00083,2.88667C1.29111,6.4186.31638,7.62513-1.15627,9.89561"/><path class="n" d="M-.21438,3.7091A53.02245,53.02245,0,0,1,5.62021,2.46684"/><path class="n" d="M.11008,4.91065A42.88274,42.88274,0,0,1,5.718,3.523"/><path class="n" d="M.21616,6.043A39.05733,39.05733,0,0,1,5.76133,4.60339"/><path class="n" d="M.03232,7.06288c2.27576-.60527,3.2284-1.19068,5.68262-1.52739"/><path class="n" d="M-.33987,7.97817C2.047,7.30337,3.17,6.59608,5.60349,6.29133"/><path class="n" d="M-.83633,8.82455C1.70225,8.0548,3.04648,7.18836,5.44919,6.931"/><path class="n" d="M-1.3926,9.63772C1.31711,8.7608,2.90708,7.71725,5.27415,7.51464"/></g><g class="ag"><path class="n" d="M4.66172,7.87785a8.88515,8.88515,0,0,0,.43359,5.99852"/><path class="n" d="M3.62021,7.91236a8.69869,8.69869,0,0,0,.4303,5.98961"/><path class="n" d="M2.59751,8.127a7.55549,7.55549,0,0,0,.44238,6.03723"/><path class="n" d="M1.63315,8.49911a6.48649,6.48649,0,0,0,.45911,6.12732"/><path class="n" d="M.70225,8.96247a5.68368,5.68368,0,0,0,.47839,6.242"/><path class="n" d="M-.21926,9.45008c-1.2605,2.13771-1.22119,4.094.49853,6.36318"/><path class="n" d="M-2.02883,10.58786C.87644,9.58848,2.74778,8.34216,5.07432,8.202"/><path class="n" d="M-2.49478,11.45114c3.047-1.08806,5.12708-2.48438,7.4253-2.581"/><path class="n" d="M-2.81716,12.394C.32468,11.24659,2.55491,9.74333,4.83628,9.67251"/><path class="n" d="M-2.92214,13.446c3.16906-1.165,5.4552-2.7112,7.73327-2.78195"/><path class="n" d="M-2.69448,14.44671c3.12036-1.16482,5.30224-2.72906,7.59509-2.786"/><path class="n" d="M-2.225,15.34291C.78611,14.17849,2.77366,12.57409,5.1207,12.568"/><path class="n" d="M-1.59634,16.17037c2.86231-1.16387,4.5957-2.823,7.02307-2.75373"/></g><g class="ah"><path class="n" d="M5.09531,13.87637a10.76824,10.76824,0,0,1,.803,6.35069"/><path class="n" d="M4.05051,13.902a10.2488,10.2488,0,0,1,.80677,6.33229"/><path class="n" d="M3.03989,14.16419a8.68468,8.68468,0,0,1,.863,6.40023"/><path class="n" d="M2.09226,14.62643c1.27612,2.27078,1.73792,3.94916.93164,6.547"/><path class="n" d="M1.18064,15.20445c1.49365,2.27,2.09131,3.84483,1.00732,6.73939"/><path class="n" d="M.27927,15.81326c1.71985,2.26918,2.4585,3.73991,1.085,6.944"/><path class="n" d="M-.63894,16.36863c1.931,2.26842,2.80163,3.63606,1.15918,7.12746"/><path class="n" d="M-.77554,17.09236c2.66675-1.16318,4.07129-2.89415,6.60681-2.72347"/><path class="n" d="M-.085,17.89306c2.50245-1.16258,3.62977-2.95395,6.25574-2.69841"/><path class="n" d="M.50376,18.73774c2.3634-1.16209,3.25183-3.00451,5.95154-2.67978"/><path class="n" d="M.90793,19.66212c2.27063-1.16174,2.9889-3.03836,5.73218-2.67273"/><path class="n" d="M1.03464,20.70774c2.24463-1.163,2.9032-3.05856,5.6482-2.69183"/><path class="n" d="M.80552,21.88288c2.3125-1.23561,3.07361-3.27565,5.83008-2.89482"/><path class="n" d="M.34788,23.11265c2.46411-1.39761,3.40161-3.70319,6.2-3.27068"/></g><g class="ai"><path class="n" d="M5.89829,20.22706a21.6289,21.6289,0,0,0-.59045,5.3311"/><path class="n" d="M4.85728,20.23426a16.671,16.671,0,0,0-.62134,5.33707"/><path class="n" d="M3.90293,20.56442c-.57361,2.34906-.94507,2.57031-.82983,5.55983"/><path class="n" d="M3.0239,21.17341c-.8064,2.59776-1.30322,2.953-1.20874,5.96469"/><path class="n" d="M2.188,21.94384C1.104,24.83836.473,25.33705.50181,28.41883"/><path class="n" d="M1.36423,22.75721c-1.37353,3.204-2.14111,3.8486-2.18994,7.01334"/><path class="n" d="M.52024,23.49609c-1.64234,3.4913-2.54236,4.2775-2.64807,7.503"/><path class="n" d="M-.36733,24.58518c2.70739-1.65756,3.90905-4.36889,6.78039-3.84619"/><path class="n" d="M-1.0519,25.86929C1.89,23.961,3.34128,20.8638,6.28489,21.47549"/><path class="n" d="M-1.718,27.149c3.1698-2.15181,4.86487-5.625,7.87805-4.92741"/><path class="n" d="M-2.2875,28.40559C1.0748,26.048,2.98228,22.25,6.05222,23.01766"/><path class="n" d="M-2.68215,29.6203c3.49072-2.49494,5.5542-6.5252,8.65771-5.71618"/></g><g class="aj"><path class="n" d="M-4.30569,5.13172C-1.25942,5.089-2.1415,5.46716.11008,4.91065"/><path class="n" d="M-4.25271,6.20458c3.096.01024,2.243.41265,4.46887-.16154"/><path class="n" d="M-4.37039,7.183c3.02979.0517,2.12745.485,4.40271-.12013"/></g><g class="ak"><path class="n" d="M-1.76211,16.835C.36423,19.10267,1.35776,20.354-.52761,24.10507"/><path class="n" d="M-3.91738,19.08964c3.023.00032,2.058.81,4.42114-.3519"/><path class="n" d="M-3.51028,20.014c3.04358.00026,2.14795.80968,4.41821-.35188"/><path class="n" d="M-3.43142,21.03c3.08911.02471,2.22192.84049,4.46606-.32228"/><path class="n" d="M-3.57156,22.10992c2.99964.12039,2.06494,1.00838,4.37708-.227"/><path class="n" d="M-4.0679,23.381c2.99378.12676,1.952,1.129,4.41578-.26837"/></g></g></g></g></g></svg>