<svg xmlns="http://www.w3.org/2000/svg" viewBox="0 0 23.14404 22.61637"><defs><style>.a{fill:#cc3232;}.b{opacity:0.15;}.c{fill:#1f3366;}.d{fill:#fff;}.e{fill:#a52929;}.f{fill:none;stroke:#17995e;stroke-miterlimit:10;stroke-width:0.9169px;}.g{fill:#ef3a4c;}.h{fill:#1ac179;}.i{fill:#17995e;}</style></defs><path class="a" d="M20.6441,10.28935c0-6.26861-4.06165-6.31938-9.072-6.31938s-9.072.05077-9.072,6.31938c0,4.52414,2.1156,7.97584,5.17655,9.5466,1.18027.60567,2.5011-.07277,3.8954-.07277,1.34954,0,2.63025.699,3.7813.13023C18.4758,18.35048,20.6441,14.86949,20.6441,10.28935Z"/><g class="b"><path class="c" d="M11.57213,3.97c5.01037,0,9.072.05077,9.072,6.31938,0,4.58014-2.16834,8.06113-5.29065,9.60407a2.27216,2.27216,0,0,1-1.02966.22294c-.8678,0-1.79248-.35319-2.75171-.35319-.964,0-1.89283.32431-2.76453.32431A2.417,2.417,0,0,1,7.67674,19.836c-3.06091-1.57075-5.17651-5.02246-5.17651-9.5466,0-6.26861,4.06164-6.31938,9.0719-6.31938m0-2.5C6.964,1.47.00023,1.47.00023,10.28935c0,5.2706,2.443,9.67092,6.53515,11.77083a4.92533,4.92533,0,0,0,2.27222.5273,9.8642,9.8642,0,0,0,1.74548-.19376,6.58516,6.58516,0,0,1,1.01905-.13055,5.90928,5.90928,0,0,1,.97253.13826,9.18819,9.18819,0,0,0,1.77918.21493,4.77852,4.77852,0,0,0,2.13708-.48163c4.18494-2.068,6.68323-6.49615,6.68323-11.84538,0-8.81938-6.96387-8.81938-11.572-8.81938Z"/></g><path class="d" d="M11.57213,3.97c5.01037,0,9.072.05077,9.072,6.31938,0,4.58014-2.16834,8.06113-5.29065,9.60407a2.27216,2.27216,0,0,1-1.02966.22294c-.8678,0-1.79248-.35319-2.75171-.35319-.964,0-1.89283.32431-2.76453.32431A2.417,2.417,0,0,1,7.67674,19.836c-3.06091-1.57075-5.17651-5.02246-5.17651-9.5466,0-6.26861,4.06164-6.31938,9.0719-6.31938m0-2c-4.67261,0-11.0719,0-11.0719,8.31938,0,5.07936,2.34143,9.31337,6.26343,11.326a4.37073,4.37073,0,0,0,2.04394.47214,9.46245,9.46245,0,0,0,1.65894-.18622,6.8818,6.8818,0,0,1,1.10559-.13809,6.1845,6.1845,0,0,1,1.067.14726,8.7845,8.7845,0,0,0,1.6847.20593,4.28392,4.28392,0,0,0,1.91565-.42988c4.01037-1.98183,6.40466-6.24242,6.40466-11.39713,0-8.31938-6.39942-8.31938-11.072-8.31938Z"/><path class="e" d="M11.57213,3.97c5.01037,0,9.072.05077,9.072,6.31938,0,4.58014-2.16834,8.06113-5.29065,9.60407a2.27216,2.27216,0,0,1-1.02966.22294c-.8678,0-1.79248-.35319-2.75171-.35319-.964,0-1.89283.32431-2.76453.32431A2.417,2.417,0,0,1,7.67674,19.836c-3.06091-1.57075-5.17651-5.02246-5.17651-9.5466,0-6.26861,4.06164-6.31938,9.0719-6.31938m0-.5c-4.92249,0-9.5719,0-9.5719,6.81938,0,4.50565,2.03674,8.24077,5.44824,9.99146a2.908,2.908,0,0,0,1.35913.30667,8.16908,8.16908,0,0,0,1.39929-.16358,8.03093,8.03093,0,0,1,1.36524-.16073,7.30525,7.30525,0,0,1,1.35022.17424,7.49921,7.49921,0,0,0,1.40149.179,2.76072,2.76072,0,0,0,1.25109-.27469c3.48731-1.72326,5.56922-5.48114,5.56922-10.05232,0-6.81938-4.64954-6.81938-9.572-6.81938Z"/><path class="e" d="M9.89233,5.75262a15.94957,15.94957,0,0,0,3.23425.76364C14.42927,6.6061,12.318,5.25849,9.89233,5.75262Z"/><path class="f" d="M11.57215,6.17731s.70552-3.66192,3.00595-3.84971"/><path class="g" d="M13.46787,18.683c-.53321-.1512-.65391-.65773-.33123-1.19876a3.79286,3.79286,0,0,1,1.36646-1.24583A26.74313,26.74313,0,0,0,16.962,14.97385a9.16747,9.16747,0,0,0,2.04856-2.01512,5.23975,5.23975,0,0,0-.36418.92346q-.21447.48677-.46916.95444a12.87108,12.87108,0,0,1-1.21089,1.83211c-.83964,1.061-1.70791,2.10755-3.19316,2.05889A1.27317,1.27317,0,0,1,13.46787,18.683Z"/><path class="g" d="M4.96655,6.99138a.64436.64436,0,0,0-.12331.70883.63062.63062,0,0,0,.5116.21247c1.17473.04988,2.19678-.80947,3.35709-.9996a4.74732,4.74732,0,0,1,2.16091.24736c.011-.17873-.16646-.30517-.32459-.3892C8.90465,5.89777,6.30418,5.16271,4.96655,6.99138Z"/><path class="e" d="M12.148,18.596c-.07568.23285.09958.47972.20388.67565a2.10138,2.10138,0,0,0,.69256.80265,2.55182,2.55182,0,0,1-1.41822.009c-.27715-.05918-.88106-.28478-1.14694-.1224.30635-.1871.649-.341.94834-.54994A1.76879,1.76879,0,0,0,12.148,18.596Z"/><path class="e" d="M15.53715,5.82183a1.59106,1.59106,0,0,1-1.188.6703,4.413,4.413,0,0,1-2.1856-.28478C13.1072,6.68506,14.6072,6.12013,15.53715,5.82183Z"/><path class="h" d="M12.61328,2.17076a3.14073,3.14073,0,0,1-.8597-2.14957A.22535.22535,0,0,0,11.63679.092c-.76267.7295-1.5,2.05066-1.07727,3.12267a1.02933,1.02933,0,0,0,.244.37377,1.6056,1.6056,0,0,0,1.53135.30548C13.202,3.60039,13.05879,2.79822,12.61328,2.17076Z"/><path class="i" d="M12.53125,3.94455a1.52138,1.52138,0,0,1-1.01611-.65869,2.432,2.432,0,0,1-.39844-1.10638,2.55908,2.55908,0,0,1,.106-1.15381c.16308-.34808.353-.68036.52734-1.01837a.01347.01347,0,0,1,.01807-.0058.01534.01534,0,0,1,.00537.01917c-.15381.34674-.32276.68719-.46192,1.03375a2.44664,2.44664,0,0,0-.03662,1.10126,2.24849,2.24849,0,0,0,.42237.99548,1.25915,1.25915,0,0,0,.8706.50232.14678.14678,0,1,1-.02588.29242Z"/></svg>