<svg xmlns="http://www.w3.org/2000/svg" xmlns:xlink="http://www.w3.org/1999/xlink" viewBox="0 0 31.95584 31.04019"><defs><style>.a,.i,.k,.m,.p{fill:none;}.b{fill:#1f3366;}.c{fill:#fff;}.d{fill:#9d9d9c;}.e{fill:#ededed;}.f{clip-path:url(#a);}.g{opacity:0.15;}.h{clip-path:url(#b);}.i{stroke:#1f3366;stroke-width:2.5px;}.i,.k,.m{stroke-linecap:round;stroke-linejoin:round;}.j{clip-path:url(#c);}.k{stroke:#fff;stroke-width:2px;}.l{clip-path:url(#d);}.m{stroke:#9d9d9c;stroke-width:0.5px;}.n{fill:#e6e7e8;}.o{fill:#00aed6;}.p{stroke:#037c99;stroke-miterlimit:10;stroke-width:0.38686px;}</style><clipPath id="a"><path class="a" d="M19.84585,8.012,7.045,20.81418A2.80305,2.80305,0,0,0,7.883,23.14839a2.55814,2.55814,0,0,0,2.33545.83884L23.01924,11.18509Z"/></clipPath><clipPath id="b"><path class="b" d="M19.84587,8.01205l3.17334,3.173L10.21843,23.98723A2.55754,2.55754,0,0,1,7.883,23.14838a2.8032,2.8032,0,0,1-.838-2.33419L19.84587,8.01205m0-2.5h-.00012a2.4997,2.4997,0,0,0-1.7677.73231L5.27715,19.0465a2.49939,2.49939,0,0,0-.71607,1.48442,5.337,5.337,0,0,0,1.5116,4.34326,5.05763,5.05763,0,0,0,4.54785,1.58051,2.5,2.5,0,0,0,1.36573-.69979L24.787,12.95275a2.5,2.5,0,0,0-.00013-3.53552l-3.17334-3.173a2.50014,2.50014,0,0,0-1.7677-.73214Z"/></clipPath><clipPath id="c"><path class="c" d="M19.84587,8.01205l3.17334,3.173L10.21843,23.98723A2.55754,2.55754,0,0,1,7.883,23.14838a2.8032,2.8032,0,0,1-.838-2.33419L19.84587,8.01205m0-2h-.00012a2.00018,2.00018,0,0,0-1.41418.58584L5.63066,19.4a1.99939,1.99939,0,0,0-.57275,1.18755A4.83319,4.83319,0,0,0,6.43462,24.529a4.55744,4.55744,0,0,0,4.10547,1.43218,2,2,0,0,0,1.09265-.55982L24.43352,12.59922A2.00007,2.00007,0,0,0,24.4334,9.7708l-3.17334-3.173a2.00024,2.00024,0,0,0-1.41419-.58572Z"/></clipPath><clipPath id="d"><path class="d" d="M19.84587,8.01205l3.17334,3.173L10.21843,23.98723A2.55754,2.55754,0,0,1,7.883,23.14838a2.8032,2.8032,0,0,1-.838-2.33419L19.84587,8.01205m0-.5h0a.5.5,0,0,0-.35351.14645L6.69146,20.46064a.5.5,0,0,0-.14332.29689,3.32342,3.32342,0,0,0,.98755,2.75055,3.029,3.029,0,0,0,2.271,1.01251,3.06856,3.06856,0,0,0,.49219-.03987.4999.4999,0,0,0,.27307-.14L23.37273,11.53861a.49989.49989,0,0,0,0-.70709l-3.17334-3.173a.5.5,0,0,0-.35352-.14642Z"/></clipPath></defs><ellipse class="e" cx="5.02008" cy="26.09019" rx="1.90223" ry="2.89336" transform="translate(-16.97898 11.19251) rotate(-45.00296)"/><path class="e" d="M7.69272,21.03323,3.47778,25.24858s-.14271.69407.77367,1.61039a2.31073,2.31073,0,0,0,1.53153.69458l4.21488-4.21536a2.21223,2.21223,0,0,0-2.11546-2.305Q7.7876,21.02917,7.69272,21.03323Z"/><ellipse class="e" cx="8.63155" cy="22.47835" rx="1.90223" ry="2.89336" transform="translate(-13.36698 12.68832) rotate(-45.00296)"/><path class="e" d="M19.84585,8.012,7.045,20.81418A2.80305,2.80305,0,0,0,7.883,23.14839a2.55814,2.55814,0,0,0,2.33545.83884L23.01924,11.18509Z"/><ellipse class="e" cx="21.47128" cy="9.63729" rx="1.52692" ry="2.89336" transform="translate(-0.52537 18.00632) rotate(-45.00296)"/><path class="e" d="M23.1444,11.05991a3.85038,3.85038,0,0,0,.44116-3.588,3.38539,3.38539,0,0,0-3.41315.61633A3.12183,3.12183,0,0,0,23.1444,11.05991Z"/><g class="f"><path class="e" d="M15.91092,11.20744a3.11062,3.11062,0,0,0,1.14728,2.284"/><path class="e" d="M14.49679,12.74631a2.88019,2.88019,0,0,0,1.03831,2.29817"/><path class="e" d="M13.0156,14.2397a2.60167,2.60167,0,0,0,.94853,2.23641"/><path class="e" d="M11.58872,15.64168a2.44615,2.44615,0,0,0,.82038,2.27592"/><path class="e" d="M10.14928,17.04109a2.27734,2.27734,0,0,0,.89793,2.08429"/><path class="e" d="M15.211,12.23911a2.1072,2.1072,0,0,0,.63075,1.41945"/><path class="e" d="M13.66265,13.77505a2.1072,2.1072,0,0,0,.63075,1.41945"/><path class="e" d="M12.13884,14.96426a2.252,2.252,0,0,0,.51878,1.67855"/><path class="e" d="M10.73455,16.41053a2.00644,2.00644,0,0,0,.53574,1.52995"/></g><path class="e" d="M28.76373,2.4065a1.70286,1.70286,0,0,1,1.1638-.2607.96379.96379,0,0,1,.67933.37029.52735.52735,0,0,1-.09424.71115.60861.60861,0,0,1-.61474-.02263,5.52464,5.52464,0,0,1-.51919-.38469,1.77224,1.77224,0,0,0-1.01089-.32273"/><polygon class="e" points="23.207 7.605 23.452 7.851 28.536 2.509 23.207 7.605"/><g class="g"><path class="b" d="M4.04717,23.6415A3.46431,3.46431,0,0,1,6.365,24.74505c1.13,1.12986,1.44385,2.64805.70105,3.391a1.47726,1.47726,0,0,1-1.07312.40288A3.46457,3.46457,0,0,1,3.6751,27.43534c-1.13-1.12987-1.44385-2.64806-.701-3.391a1.47741,1.47741,0,0,1,1.07312-.40288m.00024-2.5H4.04717A3.97414,3.97414,0,0,0,1.2061,22.27679c-1.74536,1.74559-1.43725,4.78805.7013,6.92643A5.91766,5.91766,0,0,0,5.993,31.03889,3.974,3.974,0,0,0,8.834,29.90365c1.74536-1.74565,1.43726-4.78813-.70129-6.92649A5.91711,5.91711,0,0,0,4.04741,21.1415Z"/><path class="b" d="M7.78777,21.0312c.03149,0,.06311.00068.0946.002a2.21222,2.21222,0,0,1,2.11548,2.305L5.783,27.55355A2.31082,2.31082,0,0,1,4.25139,26.859c-.91626-.91632-.77356-1.6104-.77356-1.6104l4.21485-4.21533q.04741-.002.09509-.002m0-2.5q-.10127,0-.20227.00433a2.49989,2.49989,0,0,0-1.66065.73L1.71,23.48092a2.49943,2.49943,0,0,0-.68091,1.26419,4.30626,4.30626,0,0,0,1.45447,3.88156A4.77731,4.77731,0,0,0,5.64971,30.05c.04455.00238.08911.00356.13342.00356a2.49964,2.49964,0,0,0,1.7677-.73233l4.215-4.21538a2.50037,2.50037,0,0,0,.72973-1.66052,4.71225,4.71225,0,0,0-4.5061-4.90981q-.10071-.00429-.20166-.0043Z"/><path class="b" d="M7.65874,20.02965A3.46464,3.46464,0,0,1,9.97661,21.1332c1.12988,1.12988,1.44373,2.64806.70093,3.391a1.47725,1.47725,0,0,1-1.07312.40289,3.46455,3.46455,0,0,1-2.31787-1.10354c-1.13-1.12988-1.44385-2.64806-.70105-3.391a1.47756,1.47756,0,0,1,1.07324-.4029m.00012-2.5H7.65862a3.97442,3.97442,0,0,0-2.84107,1.13524c-1.74536,1.74562-1.43725,4.7881.7013,6.92647A5.91769,5.91769,0,0,0,9.60442,27.427a3.974,3.974,0,0,0,2.84106-1.13524c1.74524-1.74554,1.43726-4.788-.70117-6.92636a5.91731,5.91731,0,0,0-4.08545-1.83577Z"/><path class="b" d="M19.84587,8.01205l3.17334,3.173L10.21843,23.98723A2.55754,2.55754,0,0,1,7.883,23.14838a2.8032,2.8032,0,0,1-.838-2.33419L19.84587,8.01205m0-2.5h-.00012a2.4997,2.4997,0,0,0-1.7677.73231L5.27715,19.0465a2.49939,2.49939,0,0,0-.71607,1.48442,5.337,5.337,0,0,0,1.5116,4.34326,5.05763,5.05763,0,0,0,4.54785,1.58051,2.5,2.5,0,0,0,1.36573-.69979L24.787,12.95275a2.5,2.5,0,0,0-.00013-3.53552l-3.17334-3.173a2.50014,2.50014,0,0,0-1.7677-.73214Z"/><path class="b" d="M20.16387,7.32355a3.76,3.76,0,0,1,2.38708,1.234c1.13,1.12986,1.56262,2.52922.96631,3.12556a1.01088,1.01088,0,0,1-.73852.26792,3.76,3.76,0,0,1-2.38709-1.234c-1.13-1.12987-1.56262-2.52924-.96643-3.12557a1.01146,1.01146,0,0,1,.73865-.26793m0-2.5h0a3.50556,3.50556,0,0,0-2.50647,1.0002c-1.64978,1.65024-1.24329,4.4516.96655,6.66118a6.11819,6.11819,0,0,0,4.15479,1.9661,3.505,3.505,0,0,0,2.50647-1.00036A3.73262,3.73262,0,0,0,26.06987,9.582a6.90773,6.90773,0,0,0-1.75122-2.7923,6.11838,6.11838,0,0,0-4.15478-1.96613Z"/><path class="b" d="M22.3571,7.28359a4.28689,4.28689,0,0,1,1.2284.18834,3.8503,3.8503,0,0,1-.441,3.588,3.12181,3.12181,0,0,1-2.972-2.97166,3.134,3.134,0,0,1,2.18469-.80466m0-2.5a5.59285,5.59285,0,0,0-3.99731,1.5829,2.49965,2.49965,0,0,0-.68457,1.83922,5.59807,5.59807,0,0,0,5.35205,5.35146q.05878.00275.11743.00274a2.50009,2.50009,0,0,0,1.89783-.87292,6.31465,6.31465,0,0,0,.92871-5.96234A2.5002,2.5002,0,0,0,24.3,5.07619a6.80388,6.80388,0,0,0-1.94288-.2926Z"/><path class="b" d="M19.84587,8.01205l3.17334,3.173L10.21843,23.98723A2.55754,2.55754,0,0,1,7.883,23.14838a2.8032,2.8032,0,0,1-.838-2.33419L19.84587,8.01205m0-2.5h-.00012a2.4997,2.4997,0,0,0-1.7677.73231L5.27715,19.0465a2.49939,2.49939,0,0,0-.71607,1.48442,5.337,5.337,0,0,0,1.5116,4.34326,5.05763,5.05763,0,0,0,4.54785,1.58051,2.5,2.5,0,0,0,1.36573-.69979L24.787,12.95275a2.5,2.5,0,0,0-.00013-3.53552l-3.17334-3.173a2.50014,2.50014,0,0,0-1.7677-.73214Z"/><g class="h"><path class="i" d="M15.91092,11.20744a3.11062,3.11062,0,0,0,1.14728,2.284"/><path class="i" d="M14.49679,12.74631a2.88019,2.88019,0,0,0,1.03831,2.29817"/><path class="i" d="M13.0156,14.2397a2.60167,2.60167,0,0,0,.94853,2.23641"/><path class="i" d="M11.58872,15.64168a2.44615,2.44615,0,0,0,.82038,2.27592"/><path class="i" d="M10.14928,17.04109a2.27734,2.27734,0,0,0,.89793,2.08429"/><path class="i" d="M15.211,12.23911a2.1072,2.1072,0,0,0,.63075,1.41945"/><path class="i" d="M13.66265,13.77505a2.1072,2.1072,0,0,0,.63075,1.41945"/><path class="i" d="M12.13884,14.96426a2.252,2.252,0,0,0,.51878,1.67855"/><path class="i" d="M10.73455,16.41053a2.00644,2.00644,0,0,0,.53574,1.52995"/></g><path class="i" d="M28.76373,2.4065a1.70286,1.70286,0,0,1,1.1638-.2607.96379.96379,0,0,1,.67933.37029.52735.52735,0,0,1-.09424.71115.60861.60861,0,0,1-.61474-.02263,5.52464,5.52464,0,0,1-.51919-.38469,1.77224,1.77224,0,0,0-1.01089-.32273"/><path class="b" d="M28.5363,2.509h.005m-.005,0L23.4522,7.85093l-.24561-.24564L28.5363,2.509m-.00012-2.5-.012,0H28.5241l-.00367,0-.00073,0-.00317,0-.001,0-.00256,0-.00171,0-.00171,0-.00244,0h-.00049a2.49088,2.49088,0,0,0-1.64807.64634l-.00085.00075-.00123.00116-.00219.002v0l-.04712.044L21.47881,5.79839a2.49989,2.49989,0,0,0-.04,3.57456l.24561.24563a2.50013,2.50013,0,0,0,1.76782.73235l.03088-.00018a2.49988,2.49988,0,0,0,1.78-.7763l5.03857-5.29406A2.49915,2.49915,0,0,0,28.54131.009h-.00513Zm.00012,5h0Z"/></g><path class="c" d="M4.04717,23.6415A3.46431,3.46431,0,0,1,6.365,24.74505c1.13,1.12986,1.44385,2.64805.70105,3.391a1.47726,1.47726,0,0,1-1.07312.40288A3.46457,3.46457,0,0,1,3.6751,27.43534c-1.13-1.12987-1.44385-2.64806-.701-3.391a1.47741,1.47741,0,0,1,1.07312-.40288m.00024-2H4.04729a3.47791,3.47791,0,0,0-2.48755.9888c-1.54712,1.54733-1.23913,4.27921.70117,6.21935A5.4169,5.4169,0,0,0,5.993,30.53889a3.47748,3.47748,0,0,0,2.48743-.98877c1.54711-1.54738,1.23913-4.27925-.7013-6.21938A5.416,5.416,0,0,0,4.04741,21.6415Z"/><path class="c" d="M7.78777,21.0312c.03149,0,.06311.00068.0946.002a2.21222,2.21222,0,0,1,2.11548,2.305L5.783,27.55355A2.31082,2.31082,0,0,1,4.25139,26.859c-.91626-.91632-.77356-1.6104-.77356-1.6104l4.21485-4.21533q.04741-.002.09509-.002m0-2q-.09045,0-.18091.00388a2.00022,2.00022,0,0,0-1.32849.584L2.06353,23.83445a2.00014,2.00014,0,0,0-.54468,1.01135,3.81278,3.81278,0,0,0,1.31824,3.42734,4.28278,4.28278,0,0,0,2.83923,1.27757q.05346.00287.10681.00285a2.00007,2.00007,0,0,0,1.41418-.58587l4.21485-4.21538A2.00035,2.00035,0,0,0,11.996,23.4239a4.21214,4.21214,0,0,0-4.02795-4.38883q-.09009-.00389-.1803-.00386Z"/><path class="c" d="M7.65874,20.02965A3.46464,3.46464,0,0,1,9.97661,21.1332c1.12988,1.12988,1.44373,2.64806.70093,3.391a1.47725,1.47725,0,0,1-1.07312.40289,3.46455,3.46455,0,0,1-2.31787-1.10354c-1.13-1.12988-1.44385-2.64806-.70105-3.391a1.47756,1.47756,0,0,1,1.07324-.4029m.00012-2H7.65874a3.47784,3.47784,0,0,0-2.48755.98877c-1.54712,1.54736-1.23913,4.27924.70117,6.21936A5.4169,5.4169,0,0,0,9.60442,26.927a3.47748,3.47748,0,0,0,2.48743-.98877C13.639,24.391,13.331,21.65914,11.3908,19.719a5.41662,5.41662,0,0,0-3.73194-1.68932Z"/><path class="c" d="M19.84587,8.01205l3.17334,3.173L10.21843,23.98723A2.55754,2.55754,0,0,1,7.883,23.14838a2.8032,2.8032,0,0,1-.838-2.33419L19.84587,8.01205m0-2h-.00012a2.00018,2.00018,0,0,0-1.41418.58584L5.63066,19.4a1.99939,1.99939,0,0,0-.57275,1.18755A4.83319,4.83319,0,0,0,6.43462,24.529a4.55744,4.55744,0,0,0,4.10547,1.43218,2,2,0,0,0,1.09265-.55982L24.43352,12.59922A2.00007,2.00007,0,0,0,24.4334,9.7708l-3.17334-3.173a2.00024,2.00024,0,0,0-1.41419-.58572Z"/><path class="c" d="M20.16387,7.32355a3.76,3.76,0,0,1,2.38708,1.234c1.13,1.12986,1.56262,2.52922.96631,3.12556a1.01088,1.01088,0,0,1-.73852.26792,3.76,3.76,0,0,1-2.38709-1.234c-1.13-1.12987-1.56262-2.52924-.96643-3.12557a1.01146,1.01146,0,0,1,.73865-.26793m0-2h0a3.00958,3.00958,0,0,0-2.153.85376c-1.44494,1.44532-1.03833,3.9493.96656,5.954A5.622,5.622,0,0,0,22.77874,13.951a3.00932,3.00932,0,0,0,2.153-.85386,3.24968,3.24968,0,0,0,.66052-3.3675,6.49833,6.49833,0,0,0-1.62707-2.58641,5.62209,5.62209,0,0,0-3.80127-1.81971Z"/><path class="c" d="M22.3571,7.28359a4.28689,4.28689,0,0,1,1.2284.18834,3.8503,3.8503,0,0,1-.441,3.588,3.12181,3.12181,0,0,1-2.972-2.97166,3.134,3.134,0,0,1,2.18469-.80466m0-2a5.07381,5.07381,0,0,0-3.63476,1.42725,1.99994,1.99994,0,0,0-.54773,1.47137,5.1003,5.1003,0,0,0,4.8761,4.87551q.04706.00219.09387.00219a1.9999,1.9999,0,0,0,1.51831-.69835,5.8004,5.8004,0,0,0,.83118-5.48745,2,2,0,0,0-1.337-1.31876,6.30383,6.30383,0,0,0-1.79993-.27176Z"/><path class="c" d="M19.84587,8.01205l3.17334,3.173L10.21843,23.98723A2.55754,2.55754,0,0,1,7.883,23.14838a2.8032,2.8032,0,0,1-.838-2.33419L19.84587,8.01205m0-2h-.00012a2.00018,2.00018,0,0,0-1.41418.58584L5.63066,19.4a1.99939,1.99939,0,0,0-.57275,1.18755A4.83319,4.83319,0,0,0,6.43462,24.529a4.55744,4.55744,0,0,0,4.10547,1.43218,2,2,0,0,0,1.09265-.55982L24.43352,12.59922A2.00007,2.00007,0,0,0,24.4334,9.7708l-3.17334-3.173a2.00024,2.00024,0,0,0-1.41419-.58572Z"/><g class="j"><path class="k" d="M15.91092,11.20744a3.11062,3.11062,0,0,0,1.14728,2.284"/><path class="k" d="M14.49679,12.74631a2.88019,2.88019,0,0,0,1.03831,2.29817"/><path class="k" d="M13.0156,14.2397a2.60167,2.60167,0,0,0,.94853,2.23641"/><path class="k" d="M11.58872,15.64168a2.44615,2.44615,0,0,0,.82038,2.27592"/><path class="k" d="M10.14928,17.04109a2.27734,2.27734,0,0,0,.89793,2.08429"/><path class="k" d="M15.211,12.23911a2.1072,2.1072,0,0,0,.63075,1.41945"/><path class="k" d="M13.66265,13.77505a2.1072,2.1072,0,0,0,.63075,1.41945"/><path class="k" d="M12.13884,14.96426a2.252,2.252,0,0,0,.51878,1.67855"/><path class="k" d="M10.73455,16.41053a2.00644,2.00644,0,0,0,.53574,1.52995"/></g><path class="k" d="M28.76373,2.4065a1.70286,1.70286,0,0,1,1.1638-.2607.96379.96379,0,0,1,.67933.37029.52735.52735,0,0,1-.09424.71115.60861.60861,0,0,1-.61474-.02263,5.52464,5.52464,0,0,1-.51919-.38469,1.77224,1.77224,0,0,0-1.01089-.32273"/><path class="c" d="M28.5363,2.509h.005m-.005,0L23.4522,7.85093l-.24561-.24564L28.5363,2.509m-.00012-2L28.517.5091h-.00025l-.00256,0h-.00086l-.00158,0a1.99229,1.99229,0,0,0-1.29468.49663c-.02283.02005-.04541.04071-.06726.06177L21.82439,6.15978a2,2,0,0,0-.0321,2.85964l.2456.24563a2,2,0,0,0,1.41431.58588l.02466-.00015a2,2,0,0,0,1.42407-.621l5.04333-5.29912A1.99912,1.99912,0,0,0,28.54131.509h-.00513Zm.00012,4h0Z"/><path class="d" d="M4.04717,23.6415A3.46431,3.46431,0,0,1,6.365,24.74505c1.13,1.12986,1.44385,2.64805.70105,3.391a1.47726,1.47726,0,0,1-1.07312.40288A3.46457,3.46457,0,0,1,3.6751,27.43534c-1.13-1.12987-1.44385-2.64806-.701-3.391a1.47741,1.47741,0,0,1,1.07312-.40288m.00024-.5h0a1.96458,1.96458,0,0,0-1.427.54936c-.95239.95256-.64441,2.75264.70117,4.09806a3.97228,3.97228,0,0,0,2.67139,1.25,1.96408,1.96408,0,0,0,1.42676-.54935c.95239-.95258.64441-2.75267-.70118-4.09807a3.97206,3.97206,0,0,0-2.67114-1.25Z"/><path class="d" d="M7.78777,21.0312c.03149,0,.06311.00068.0946.002a2.21222,2.21222,0,0,1,2.11548,2.305L5.783,27.55355A2.31082,2.31082,0,0,1,4.25139,26.859c-.91626-.91632-.77356-1.6104-.77356-1.6104l4.21485-4.21533q.04741-.002.09509-.002m0-.5-.11658.00249a.49991.49991,0,0,0-.332.146L3.12432,24.895a.49918.49918,0,0,0-.13623.25284,2.40478,2.40478,0,0,0,.90979,2.06464,2.799,2.799,0,0,0,1.85852.84033l.02661.0007a.5004.5004,0,0,0,.35364-.14647l4.21484-4.21536a.5.5,0,0,0,.14587-.33211,2.71208,2.71208,0,0,0-2.59362-2.82593l-.116-.00247Z"/><path class="d" d="M7.65874,20.02965A3.46464,3.46464,0,0,1,9.97661,21.1332c1.12988,1.12988,1.44373,2.64806.70093,3.391a1.47725,1.47725,0,0,1-1.07312.40289,3.46455,3.46455,0,0,1-2.31787-1.10354c-1.13-1.12988-1.44385-2.64806-.70105-3.391a1.47756,1.47756,0,0,1,1.07324-.4029m.00012-.5h0a1.96449,1.96449,0,0,0-1.427.54935c-.95239.95256-.64441,2.75265.70117,4.09805a3.97228,3.97228,0,0,0,2.67139,1.25,1.96408,1.96408,0,0,0,1.42676-.54935c.95239-.95253.64441-2.75261-.70105-4.098a3.97223,3.97223,0,0,0-2.67127-1.25Z"/><path class="d" d="M19.84587,8.01205l3.17334,3.173L10.21843,23.98723A2.55754,2.55754,0,0,1,7.883,23.14838a2.8032,2.8032,0,0,1-.838-2.33419L19.84587,8.01205m0-.5h0a.5.5,0,0,0-.35351.14645L6.69146,20.46064a.5.5,0,0,0-.14332.29689,3.32342,3.32342,0,0,0,.98755,2.75055,3.029,3.029,0,0,0,2.271,1.01251,3.06856,3.06856,0,0,0,.49219-.03987.4999.4999,0,0,0,.27307-.14L23.37273,11.53861a.49989.49989,0,0,0,0-.70709l-3.17334-3.173a.5.5,0,0,0-.35352-.14642Z"/><path class="d" d="M20.16387,7.32355a3.76,3.76,0,0,1,2.38708,1.234c1.13,1.12986,1.56262,2.52922.96631,3.12556a1.01088,1.01088,0,0,1-.73852.26792,3.76,3.76,0,0,1-2.38709-1.234c-1.13-1.12987-1.56262-2.52924-.96643-3.12557a1.01146,1.01146,0,0,1,.73865-.26793m0-.5h0a1.50239,1.50239,0,0,0-1.09217.41439c-.817.8172-.40161,2.46489.96643,3.83268A4.20371,4.20371,0,0,0,22.77874,12.451a1.50255,1.50255,0,0,0,1.09216-.41442,1.78659,1.78659,0,0,0,.28821-1.86389A4.97966,4.97966,0,0,0,22.90447,8.204a4.204,4.204,0,0,0-2.7406-1.38044Z"/><path class="d" d="M22.3571,7.28359a4.28689,4.28689,0,0,1,1.2284.18834,3.8503,3.8503,0,0,1-.441,3.588,3.12181,3.12181,0,0,1-2.972-2.97166,3.134,3.134,0,0,1,2.18469-.80466m0-.5a3.63647,3.63647,0,0,0-2.54724.96031.49967.49967,0,0,0-.13684.36785,3.60644,3.60644,0,0,0,3.448,3.44761l.02344.00055a.5.5,0,0,0,.37964-.17457,4.33216,4.33216,0,0,0,.53857-4.06287.5.5,0,0,0-.33423-.3297,4.80756,4.80756,0,0,0-1.37134-.20918Z"/><path class="d" d="M19.84587,8.01205l3.17334,3.173L10.21843,23.98723A2.55754,2.55754,0,0,1,7.883,23.14838a2.8032,2.8032,0,0,1-.838-2.33419L19.84587,8.01205m0-.5h0a.5.5,0,0,0-.35351.14645L6.69146,20.46064a.5.5,0,0,0-.14332.29689,3.32342,3.32342,0,0,0,.98755,2.75055,3.029,3.029,0,0,0,2.271,1.01251,3.06856,3.06856,0,0,0,.49219-.03987.4999.4999,0,0,0,.27307-.14L23.37273,11.53861a.49989.49989,0,0,0,0-.70709l-3.17334-3.173a.5.5,0,0,0-.35352-.14642Z"/><g class="l"><path class="m" d="M15.91092,11.20744a3.11062,3.11062,0,0,0,1.14728,2.284"/><path class="m" d="M14.49679,12.74631a2.88019,2.88019,0,0,0,1.03831,2.29817"/><path class="m" d="M13.0156,14.2397a2.60167,2.60167,0,0,0,.94853,2.23641"/><path class="m" d="M11.58872,15.64168a2.44615,2.44615,0,0,0,.82038,2.27592"/><path class="m" d="M10.14928,17.04109a2.27734,2.27734,0,0,0,.89793,2.08429"/><path class="m" d="M15.211,12.23911a2.1072,2.1072,0,0,0,.63075,1.41945"/><path class="m" d="M13.66265,13.77505a2.1072,2.1072,0,0,0,.63075,1.41945"/><path class="m" d="M12.13884,14.96426a2.252,2.252,0,0,0,.51878,1.67855"/><path class="m" d="M10.73455,16.41053a2.00644,2.00644,0,0,0,.53574,1.52995"/></g><path class="m" d="M28.76373,2.4065a1.70286,1.70286,0,0,1,1.1638-.2607.96379.96379,0,0,1,.67933.37029.52735.52735,0,0,1-.09424.71115.60861.60861,0,0,1-.61474-.02263,5.52464,5.52464,0,0,1-.51919-.38469,1.77224,1.77224,0,0,0-1.01089-.32273"/><path class="d" d="M28.5363,2.509h.005m-.005,0L23.4522,7.85093l-.24561-.24564L28.5363,2.509m0-.5-.00647,0h0l-.00146,0H28.528l-.0011,0h-.00061l-.00061,0-.001,0h-.00012a.49778.49778,0,0,0-.18775.04124l-.00024.00011-.00074.0003a.50043.50043,0,0,0-.139.09108L28.1967,2.142l-.00085.00087-.00024.00017-.00086.00087-.00024.00017-.00086.00087-.00024.00015-.001.00092v.00009l-.00171.00156L22.861,7.2439a.4999.4999,0,0,0-.00793.71492l.2456.24564a.49972.49972,0,0,0,.35352.14647l.00622,0a.5.5,0,0,0,.356-.15524l5.0647-5.32152a.49917.49917,0,0,0-.33777-.86511h-.005Zm0,1h0Z"/><ellipse class="c" cx="5.02008" cy="26.09019" rx="1.90223" ry="2.89336" transform="translate(-16.97898 11.19251) rotate(-45.00296)"/><path class="n" d="M7.69272,21.03323,3.47778,25.24858s-.14271.69407.77367,1.61039a2.31073,2.31073,0,0,0,1.53153.69458l4.21488-4.21536a2.21223,2.21223,0,0,0-2.11546-2.305Q7.7876,21.02917,7.69272,21.03323Z"/><ellipse class="c" cx="8.63155" cy="22.47835" rx="1.90223" ry="2.89336" transform="translate(-13.36698 12.68832) rotate(-45.00296)"/><path class="o" d="M19.84585,8.012,7.045,20.81418A2.80305,2.80305,0,0,0,7.883,23.14839a2.55814,2.55814,0,0,0,2.33545.83884L23.01924,11.18509Z"/><ellipse class="c" cx="21.47128" cy="9.63729" rx="1.52692" ry="2.89336" transform="translate(-0.52537 18.00632) rotate(-45.00296)"/><path class="n" d="M23.1444,11.05991a3.85038,3.85038,0,0,0,.44116-3.588,3.38539,3.38539,0,0,0-3.41315.61633A3.12183,3.12183,0,0,0,23.1444,11.05991Z"/><g class="f"><path class="p" d="M15.91092,11.20744a3.11062,3.11062,0,0,0,1.14728,2.284"/><path class="p" d="M14.49679,12.74631a2.88019,2.88019,0,0,0,1.03831,2.29817"/><path class="p" d="M13.0156,14.2397a2.60167,2.60167,0,0,0,.94853,2.23641"/><path class="p" d="M11.58872,15.64168a2.44615,2.44615,0,0,0,.82038,2.27592"/><path class="p" d="M10.14928,17.04109a2.27734,2.27734,0,0,0,.89793,2.08429"/><path class="p" d="M15.211,12.23911a2.1072,2.1072,0,0,0,.63075,1.41945"/><path class="p" d="M13.66265,13.77505a2.1072,2.1072,0,0,0,.63075,1.41945"/><path class="p" d="M12.13884,14.96426a2.252,2.252,0,0,0,.51878,1.67855"/><path class="p" d="M10.73455,16.41053a2.00644,2.00644,0,0,0,.53574,1.52995"/></g><path class="o" d="M28.76373,2.4065a1.70286,1.70286,0,0,1,1.1638-.2607.96379.96379,0,0,1,.67933.37029.52735.52735,0,0,1-.09424.71115.60861.60861,0,0,1-.61474-.02263,5.52464,5.52464,0,0,1-.51919-.38469,1.77224,1.77224,0,0,0-1.01089-.32273"/><polygon class="c" points="23.207 7.605 23.452 7.851 28.536 2.509 23.207 7.605"/></svg>