<svg xmlns="http://www.w3.org/2000/svg" viewBox="0 0 61.83294 41.79379"><defs><style>.a{fill:#c6c6c6;}.b{fill:#f6f6f6;}.c{fill:#fff;}.d,.i{fill:none;stroke-linecap:round;stroke-linejoin:round;stroke-width:1.26253px;}.d{stroke:#3c3c3b;}.e{fill:#3c3c3b;}.f{fill:#c6933d;}.g{fill:#f6b951;}.h{fill:#ffd285;}.i{stroke:#133c24;}.j{fill:#133c24;}</style></defs><path class="a" d="M40.51393,25.43246c-.02148-.05469-.04638-.10669-.07129-.15942-.02148-.05463-.04638-.10657-.07129-.15924-.02148-.05469-.04638-.10669-.07129-.15943-.02148-.05462-.04638-.10656-.07128-.15924-.02149-.05469-.04639-.10669-.07129-.15942-.02149-.05463-.04639-.10657-.07129-.15924-.02149-.05457-.04639-.10651-.07129-.15918-.02149-.05469-.04639-.10675-.07129-.15949-.02148-.05468-.04639-.10669-.07129-.15942a2.5141,2.5141,0,0,0-2.34082-1.60352H23.85378a2.5183,2.5183,0,0,0-2.51807,2.51838V37.68209a2.49311,2.49311,0,0,0,.249,1.07422c.021.05451.0459.10645.0708.159.02149.05475.04639.10681.07129.15967.02149.05462.04639.10657.07129.15924.02149.05469.04639.10669.07129.15942.02149.05463.04639.10657.07129.15924.02148.05469.04639.10669.07129.15943.02148.05462.04639.10656.07129.15924.02148.05469.04638.10669.07129.15942.02148.05451.04638.10645.07129.159a2.5141,2.5141,0,0,0,2.34082,1.60382H38.2444a2.51825,2.51825,0,0,0,2.51807-2.51837V26.50656A2.499,2.499,0,0,0,40.51393,25.43246Z"/><rect class="b" x="21.26428" y="22.23557" width="18.71431" height="17.80556" rx="2.51836"/><path class="c" d="M24.25533,39.42579A2.34429,2.34429,0,0,1,21.911,37.0815V25.19522a2.34428,2.34428,0,0,1,2.34429-2.34429H36.98754a2.34428,2.34428,0,0,1,2.34429,2.34429V28.43h0a2.79123,2.79123,0,0,0-4.45708-.484Z"/><line class="d" x1="30.62162" y1="26.78358" x2="30.62162" y2="32.7458"/><polygon class="e" points="28.104 32.009 30.621 36.37 33.139 32.009 28.104 32.009"/><path class="a" d="M40.51393,3.19689c-.02148-.05469-.04638-.10669-.07129-.15943-.02148-.05462-.04638-.10656-.07129-.15924-.02148-.05469-.04638-.10669-.07129-.15942-.02148-.05463-.04638-.10657-.07128-.15924-.02149-.05469-.04639-.10669-.07129-.15943-.02149-.05462-.04639-.10656-.07129-.15924-.02149-.05456-.04639-.1065-.07129-.15918-.02149-.05468-.04639-.10675-.07129-.15948-.02148-.05469-.04639-.10669-.07129-.15943A2.51411,2.51411,0,0,0,37.53151.15929H23.85378a2.51829,2.51829,0,0,0-2.51807,2.51837V15.44652a2.49311,2.49311,0,0,0,.249,1.07422c.021.0545.0459.10644.0708.159.02149.05474.04639.10681.07129.15966.02149.05463.04639.10657.07129.15924.02149.05469.04639.10669.07129.15943.02149.05463.04639.10657.07129.15924.02148.05469.04639.10669.07129.15942.02148.05463.04639.10657.07129.15924.02148.05469.04638.10669.07129.15943.02148.0545.04638.10644.07129.159a2.51411,2.51411,0,0,0,2.34082,1.60383H38.2444a2.51826,2.51826,0,0,0,2.51807-2.51838V4.271A2.49894,2.49894,0,0,0,40.51393,3.19689Z"/><rect class="b" x="21.26428" width="18.71431" height="17.80556" rx="2.51836"/><path class="c" d="M24.25533,17.19021A2.34428,2.34428,0,0,1,21.911,14.84592V2.95964A2.34429,2.34429,0,0,1,24.25533.61535H36.98754a2.34429,2.34429,0,0,1,2.34429,2.34429v3.2348a2.79123,2.79123,0,0,0-4.45708-.484Z"/><line class="d" x1="30.62162" y1="13.42946" x2="30.62162" y2="7.46724"/><polygon class="e" points="33.139 8.204 30.622 3.843 28.104 8.204 33.139 8.204"/><path class="f" d="M18.82478,25.496c-.00977-.02429-.01905-.04852-.02979-.07245-.00977-.02423-.01855-.0484-.0293-.07227-.00976-.02435-.019-.04858-.02929-.07257-.01026-.02429-.01954-.04852-.02979-.07245-.00976-.02435-.019-.04858-.02978-.0725-.00977-.02417-.01856-.04828-.0293-.07209-.00977-.02441-.019-.0487-.0293-.07275-.00976-.02429-.019-.0484-.02978-.07233-.00977-.02423-.01905-.04834-.0293-.0722a2.51585,2.51585,0,0,0-2.3335-1.58045H2.54792A2.51868,2.51868,0,0,0,.02936,25.78231V38.55117a2.50126,2.50126,0,0,0,.21436,1.01044c.00977.02435.019.04859.02979.07257.00976.02436.019.04859.02929.07251.00977.02417.01905.04828.0293.07208.01025.02442.01953.04871.02978.0727.00977.02435.01905.04858.02979.07251.00977.02417.01855.04828.0293.07208.00976.02441.019.04871.02929.07269.01026.02436.01953.04859.02979.07251.00976.02429.019.04846.02978.07233a2.51466,2.51466,0,0,0,2.333,1.5802H16.52058a2.51835,2.51835,0,0,0,2.51855-2.51837V26.50656A2.50182,2.50182,0,0,0,18.82478,25.496Z"/><rect class="g" y="23.19154" width="18.71431" height="17.80556" rx="2.51836"/><path class="h" d="M2.99105,40.38176A2.34429,2.34429,0,0,1,.64676,38.03747V26.15119A2.34428,2.34428,0,0,1,2.99105,23.8069H15.72326a2.34429,2.34429,0,0,1,2.34429,2.34429V29.386h0a2.79123,2.79123,0,0,0-4.45708-.484Z"/><line class="i" x1="13.80114" y1="31.78909" x2="7.83874" y2="31.78909"/><polygon class="j" points="8.576 29.271 4.215 31.789 8.576 34.307 8.576 29.271"/><path class="f" d="M61.61858,25.496c-.00976-.02429-.019-.04852-.02978-.07245-.00977-.02423-.01856-.0484-.0293-.07227-.00977-.02435-.019-.04858-.0293-.07257-.01025-.02429-.01953-.04852-.02978-.07245-.00977-.02435-.01905-.04858-.02979-.0725-.00976-.02417-.01855-.04828-.02929-.07209-.00977-.02441-.01905-.0487-.0293-.07275-.00977-.02429-.019-.0484-.02979-.07233-.00976-.02423-.019-.04834-.02929-.0722a2.51586,2.51586,0,0,0-2.3335-1.58045H45.34173a2.51868,2.51868,0,0,0-2.51856,2.51837V38.55117a2.50126,2.50126,0,0,0,.21436,1.01044c.00976.02435.019.04859.02978.07257.00977.02436.019.04859.0293.07251.00976.02417.019.04828.0293.07208.01025.02442.01953.04871.02978.0727.00977.02435.019.04858.02979.07251.00976.02417.01855.04828.02929.07208.00977.02441.01905.04871.0293.07269.01025.02436.01953.04859.02978.07251.00977.02429.01905.04846.02979.07233a2.51465,2.51465,0,0,0,2.333,1.5802H59.31438a2.51836,2.51836,0,0,0,2.51856-2.51837V26.50656A2.50183,2.50183,0,0,0,61.61858,25.496Z"/><rect class="g" x="42.79381" y="23.19154" width="18.71431" height="17.80556" rx="2.51836"/><path class="h" d="M45.78485,40.38176a2.3443,2.3443,0,0,1-2.34429-2.34429V26.15119a2.34429,2.34429,0,0,1,2.34429-2.34429H58.51706a2.34428,2.34428,0,0,1,2.34429,2.34429V29.386h0a2.79123,2.79123,0,0,0-4.45708-.484Z"/><line class="i" x1="47.00866" y1="31.78909" x2="52.97106" y2="31.78909"/><polygon class="j" points="52.234 34.307 56.595 31.789 52.234 29.271 52.234 34.307"/></svg>