<svg xmlns="http://www.w3.org/2000/svg" viewBox="0 0 62.55723 41.79379"><defs><style>.a{fill:#c6c6c6;}.b{fill:#f6f6f6;}.c{fill:#fff;}.d{fill:none;stroke:#3c3c3b;stroke-linecap:round;stroke-linejoin:round;stroke-width:1.26253px;}.e{fill:#3c3c3b;}</style></defs><path class="a" d="M19.24965,25.43246c-.02149-.05469-.04639-.10669-.07129-.15942-.02148-.05463-.04639-.10657-.07129-.15924-.02148-.05469-.04639-.10669-.07129-.15943-.02148-.05462-.04638-.10656-.07129-.15924-.02148-.05469-.04638-.10669-.07129-.15942-.02148-.05463-.04638-.10657-.07129-.15924-.02148-.05457-.04638-.10651-.07128-.15918-.02149-.05469-.04639-.10675-.07129-.15949-.02149-.05468-.04639-.10669-.07129-.15942a2.5141,2.5141,0,0,0-2.34082-1.60352H2.58949A2.5183,2.5183,0,0,0,.07143,24.91324V37.68209a2.49311,2.49311,0,0,0,.249,1.07422c.021.05451.0459.10645.0708.159.02149.05475.04639.10681.07129.15967.02148.05462.04639.10657.07129.15924.02148.05469.04639.10669.07129.15942.02148.05463.04638.10657.07129.15924.02148.05469.04638.10669.07129.15943.02148.05462.04638.10656.07129.15924.02148.05469.04638.10669.07128.15942.02149.05451.04639.10645.07129.159a2.51411,2.51411,0,0,0,2.34082,1.60382H16.98012a2.51825,2.51825,0,0,0,2.51806-2.51837V26.50656A2.49909,2.49909,0,0,0,19.24965,25.43246Z"/><rect class="b" y="22.23557" width="18.71431" height="17.80556" rx="2.51836"/><path class="c" d="M2.99105,39.42579A2.34429,2.34429,0,0,1,.64676,37.0815V25.19522a2.34428,2.34428,0,0,1,2.34429-2.34429H15.72326a2.34429,2.34429,0,0,1,2.34429,2.34429V28.43h0a2.79123,2.79123,0,0,0-4.45708-.484Z"/><line class="d" x1="13.80124" y1="30.83313" x2="7.83884" y2="30.83313"/><polygon class="e" points="8.576 28.315 4.215 30.833 8.576 33.351 8.576 28.315"/><path class="a" d="M62.3087,25.43246c-.02149-.05469-.04639-.10669-.07129-.15942-.02149-.05463-.04639-.10657-.07129-.15924-.02149-.05469-.04639-.10669-.07129-.15943-.02149-.05462-.04639-.10656-.07129-.15924-.02149-.05469-.04639-.10669-.07129-.15942-.02148-.05463-.04639-.10657-.07129-.15924-.02148-.05457-.04639-.10651-.07129-.15918-.02148-.05469-.04638-.10675-.07129-.15949-.02148-.05468-.04638-.10669-.07129-.15942a2.51409,2.51409,0,0,0-2.34082-1.60352H45.64854a2.5183,2.5183,0,0,0-2.51807,2.51838V37.68209a2.493,2.493,0,0,0,.249,1.07422c.021.05451.04589.10645.0708.159.02148.05475.04638.10681.07129.15967.02148.05462.04638.10657.07128.15924.02149.05469.04639.10669.07129.15942.02149.05463.04639.10657.07129.15924.02149.05469.04639.10669.07129.15943.02149.05462.04639.10656.07129.15924.02149.05469.04639.10669.07129.15942.02148.05451.04639.10645.07129.159a2.51411,2.51411,0,0,0,2.34082,1.60382H60.03916a2.51825,2.51825,0,0,0,2.51807-2.51837V26.50656A2.49909,2.49909,0,0,0,62.3087,25.43246Z"/><rect class="b" x="43.05905" y="22.23557" width="18.71431" height="17.80556" rx="2.51836"/><path class="c" d="M46.05009,39.42579A2.3443,2.3443,0,0,1,43.7058,37.0815V25.19522a2.34429,2.34429,0,0,1,2.34429-2.34429H58.7823a2.34428,2.34428,0,0,1,2.34429,2.34429V28.43h0a2.79123,2.79123,0,0,0-4.45708-.484Z"/><line class="d" x1="47.2739" y1="30.83313" x2="53.2363" y2="30.83313"/><polygon class="e" points="52.499 33.351 56.86 30.833 52.499 28.315 52.499 33.351"/><path class="a" d="M40.77917,25.43246c-.02148-.05469-.04638-.10669-.07129-.15942-.02148-.05463-.04638-.10657-.07129-.15924-.02148-.05469-.04638-.10669-.07128-.15943-.02149-.05462-.04639-.10656-.07129-.15924-.02149-.05469-.04639-.10669-.07129-.15942-.02149-.05463-.04639-.10657-.07129-.15924-.02149-.05457-.04639-.10651-.07129-.15918-.02149-.05469-.04639-.10675-.07129-.15949-.02148-.05468-.04639-.10669-.07129-.15942a2.5141,2.5141,0,0,0-2.34082-1.60352H24.119A2.5183,2.5183,0,0,0,21.601,24.91324V37.68209a2.49311,2.49311,0,0,0,.249,1.07422c.021.05451.0459.10645.0708.159.02149.05475.04639.10681.07129.15967.02149.05462.04639.10657.07129.15924.02149.05469.04639.10669.07129.15942.02149.05463.04639.10657.07129.15924.02148.05469.04639.10669.07129.15943.02148.05462.04639.10656.07129.15924.02148.05469.04638.10669.07129.15942.02148.05451.04638.10645.07129.159a2.5141,2.5141,0,0,0,2.34082,1.60382H38.50964a2.51825,2.51825,0,0,0,2.51807-2.51837V26.50656A2.499,2.499,0,0,0,40.77917,25.43246Z"/><rect class="b" x="21.52952" y="22.23557" width="18.71431" height="17.80556" rx="2.51836"/><path class="c" d="M24.52057,39.42579a2.34429,2.34429,0,0,1-2.34429-2.34429V25.19522a2.34428,2.34428,0,0,1,2.34429-2.34429H37.25278a2.34428,2.34428,0,0,1,2.34429,2.34429V28.43h0A2.79123,2.79123,0,0,0,35.14,27.946Z"/><line class="d" x1="30.88686" y1="26.78358" x2="30.88686" y2="32.7458"/><polygon class="e" points="28.369 32.009 30.886 36.37 33.404 32.009 28.369 32.009"/><path class="a" d="M40.77917,3.19689c-.02148-.05469-.04638-.10669-.07129-.15943-.02148-.05462-.04638-.10656-.07129-.15924-.02148-.05469-.04638-.10669-.07128-.15942-.02149-.05463-.04639-.10657-.07129-.15924-.02149-.05469-.04639-.10669-.07129-.15943-.02149-.05462-.04639-.10656-.07129-.15924-.02149-.05456-.04639-.1065-.07129-.15918-.02149-.05468-.04639-.10675-.07129-.15948-.02148-.05469-.04639-.10669-.07129-.15943A2.51411,2.51411,0,0,0,37.79675.15929H24.119A2.51829,2.51829,0,0,0,21.601,2.67766V15.44652a2.49311,2.49311,0,0,0,.249,1.07422c.021.0545.0459.10644.0708.159.02149.05474.04639.10681.07129.15966.02149.05463.04639.10657.07129.15924.02149.05469.04639.10669.07129.15943.02149.05463.04639.10657.07129.15924.02148.05469.04639.10669.07129.15942.02148.05463.04639.10657.07129.15924.02148.05469.04638.10669.07129.15943.02148.0545.04638.10644.07129.159a2.51411,2.51411,0,0,0,2.34082,1.60383H38.50964a2.51826,2.51826,0,0,0,2.51807-2.51838V4.271A2.49894,2.49894,0,0,0,40.77917,3.19689Z"/><rect class="b" x="21.52952" width="18.71431" height="17.80556" rx="2.51836"/><path class="c" d="M24.52057,17.19021a2.34428,2.34428,0,0,1-2.34429-2.34429V2.95964A2.34429,2.34429,0,0,1,24.52057.61535H37.25278a2.34429,2.34429,0,0,1,2.34429,2.34429v3.2348a2.79123,2.79123,0,0,0-4.45708-.484Z"/><line class="d" x1="30.88686" y1="13.42946" x2="30.88686" y2="7.46724"/><polygon class="e" points="33.404 8.204 30.887 3.843 28.369 8.204 33.404 8.204"/></svg>