<svg xmlns="http://www.w3.org/2000/svg" viewBox="0 0 33.11981 27.3177"><defs><style>.a{fill:#d9d9d9;}.b{fill:#070706;}</style></defs><rect class="a" width="33.11981" height="27.3177"/><path class="b" d="M12.47459,8.75748a.14643.14643,0,0,1,.042.10839v1.57129a1.76483,1.76483,0,0,1-.24024.92774,1.631,1.631,0,0,1-.65332.61523,1.91045,1.91045,0,0,1-.918.209h-.57617a1.80447,1.80447,0,0,1-.83984-.18555,1.32878,1.32878,0,0,1-.54883-.50391,1.34962,1.34962,0,0,1-.18945-.70215V8.86587a.14151.14151,0,0,1,.04492-.10839.1608.1608,0,0,1,.11133-.042h.62988a.1439.1439,0,0,1,.15039.15039l.00586,1.43946a.55225.55225,0,0,0,.456-.249,1.22282,1.22282,0,0,0,.13184-.627V8.87759A.15828.15828,0,0,1,10.126,8.7604a.14946.14946,0,0,1,.11133-.04492h.623a.14362.14362,0,0,1,.10547.04785.16089.16089,0,0,1,.04492.11426v.56446a1.56161,1.56161,0,0,1-.35352,1.0791,1.49134,1.49134,0,0,1-1.00195.46289A.77437.77437,0,0,0,9.958,11.278a.86939.86939,0,0,0,.417.10157h.13769a1.19226,1.19226,0,0,0,.55176-.126.96224.96224,0,0,0,.38476-.34766.92776.92776,0,0,0,.1377-.498v-1.542a.14643.14643,0,0,1,.042-.10839.14875.14875,0,0,1,.1084-.042h.62988A.14646.14646,0,0,1,12.47459,8.75748Z"/><path class="b" d="M13.18064,12.09927a.13876.13876,0,0,1-.0459-.10742v-3.126a.14231.14231,0,0,1,.0459-.10839.15671.15671,0,0,1,.11035-.042h.75a.1439.1439,0,0,1,.15039.15039v3.126a.1494.1494,0,0,1-.042.10449.14148.14148,0,0,1-.1084.04492h-.75A.15257.15257,0,0,1,13.18064,12.09927Z"/><path class="b" d="M17.92283,9.08169a1.4498,1.4498,0,0,1,.38379,1.09766v1.8125a.14526.14526,0,0,1-.042.10449.138.138,0,0,1-.10742.04492H16.51853a.142.142,0,0,1-.10449-.04492.14047.14047,0,0,1-.04492-.10449v-.5166a.13938.13938,0,0,1,.04492-.10742.14688.14688,0,0,1,.10449-.042h.77441V10.22818a.71759.71759,0,0,0-.15039-.48633.48837.48837,0,0,0-.38964-.17383h-.46778l-.50976,2.418a.18245.18245,0,0,1-.04883.11035.138.138,0,0,1-.10742.04492h-.69043a.14721.14721,0,0,1-.11035-.04492.11636.11636,0,0,1-.03321-.11035L15.373,9.57388h-.39648a.14132.14132,0,0,1-.10742-.04492.15649.15649,0,0,1-.042-.11133V8.86587a.14148.14148,0,0,1,.04493-.10839.1511.1511,0,0,1,.10449-.042H16.9033A1.41545,1.41545,0,0,1,17.92283,9.08169Z"/><path class="b" d="M19,10.6774a.138.138,0,0,1-.04493-.10742V8.86587A.14148.14148,0,0,1,19,8.75748a.16079.16079,0,0,1,.11132-.042h.75a.14384.14384,0,0,1,.14942.15039V10.57a.14691.14691,0,0,1-.042.10449.138.138,0,0,1-.10743.04492h-.75A.15647.15647,0,0,1,19,10.6774Z"/><path class="b" d="M24.55857,8.75748a.14643.14643,0,0,1,.042.10839v1.57129a1.76492,1.76492,0,0,1-.24023.92774,1.631,1.631,0,0,1-.65332.61523,1.91048,1.91048,0,0,1-.918.209h-.57617a1.80452,1.80452,0,0,1-.83985-.18555,1.32884,1.32884,0,0,1-.54883-.50391,1.34971,1.34971,0,0,1-.18945-.70215V8.86587a.14151.14151,0,0,1,.04492-.10839.16083.16083,0,0,1,.11133-.042h.62988a.1439.1439,0,0,1,.15039.15039l.00586,1.43946a.55229.55229,0,0,0,.45606-.249,1.22293,1.22293,0,0,0,.13183-.627V8.87759a.15824.15824,0,0,1,.04493-.11719.14942.14942,0,0,1,.11132-.04492h.62305a.1436.1436,0,0,1,.10547.04785.16089.16089,0,0,1,.04492.11426v.56446a1.5616,1.5616,0,0,1-.35351,1.0791,1.49137,1.49137,0,0,1-1.002.46289.7744.7744,0,0,0,.30274.29394.86935.86935,0,0,0,.417.10157h.1377a1.19222,1.19222,0,0,0,.55175-.126.9622.9622,0,0,0,.38477-.34766.92775.92775,0,0,0,.13769-.498v-1.542a.14644.14644,0,0,1,.042-.10839.14872.14872,0,0,1,.10839-.042h.62989A.14644.14644,0,0,1,24.55857,8.75748Z"/><path class="b" d="M4.26072,17.97232a.14148.14148,0,0,1-.04492-.1084v-1.7041a.14148.14148,0,0,1,.04492-.1084.16084.16084,0,0,1,.11133-.042h.75a.14382.14382,0,0,1,.14941.15039v1.7041a.14525.14525,0,0,1-.042.10449.138.138,0,0,1-.10742.04492h-.75A.16006.16006,0,0,1,4.26072,17.97232Z"/><path class="b" d="M8.248,16.38443a1.633,1.633,0,0,1,.3418,1.13086,1.76285,1.76285,0,0,1-.4502,1.248,2.38669,2.38669,0,0,1-1.12793.67872l-.24609.07128a.11621.11621,0,0,1-.11133-.041.17048.17048,0,0,1-.05078-.12012v-.60644a.17043.17043,0,0,1,.042-.11133.30222.30222,0,0,1,.1084-.08008l.19141-.07812a.97405.97405,0,0,0,.43555-.32129A1.00674,1.00674,0,0,0,7.54,17.54556a.80507.80507,0,0,0-.13281-.52734.6362.6362,0,0,0-.49121-.15039H6.75974L5.95505,16.862a.14807.14807,0,0,1-.10742-.042.14647.14647,0,0,1-.042-.1084V15.32583a.14151.14151,0,0,1,.04492-.10839.15289.15289,0,0,1,.10449-.042h.64844a.1439.1439,0,0,1,.15039.15039v.6836H7.126A1.45816,1.45816,0,0,1,8.248,16.38443Z"/><path class="b" d="M12.375,19.31021a.12862.12862,0,0,1-.03516.08691.12179.12179,0,0,1-.09082.03907h-.73731a.2017.2017,0,0,1-.1621-.05762c-.03223-.03809-.04981-.05859-.05469-.0625l-1.04981-1.51856a.68291.68291,0,0,0-.2041.33008,1.61565,1.61565,0,0,0-.04785.39649v.75a.15451.15451,0,0,1-.04492.11621.15028.15028,0,0,1-.11133.0459H9.249a.14156.14156,0,0,1-.10449-.04786.16081.16081,0,0,1-.04492-.11425v-.74414a2.10672,2.10672,0,0,1,.13769-.82813,1.51692,1.51692,0,0,1,.52246-.59961l-.6123-.88183a.12772.12772,0,0,1-.03028-.085.12079.12079,0,0,1,.03907-.08691.123.123,0,0,1,.08691-.03906h.708a.20269.20269,0,0,1,.1289.03613.44736.44736,0,0,1,.08692.09668l.96679,1.36719a.53533.53533,0,0,0,.2129-.26367,1.17454,1.17454,0,0,0,.04492-.3418v-.73242a.16435.16435,0,0,1,.042-.11719.14134.14134,0,0,1,.10742-.04492h.62988a.14578.14578,0,0,1,.11133.04883.15694.15694,0,0,1,.04492.11328v.75586a1.58263,1.58263,0,0,1-.15234.69922,1.43929,1.43929,0,0,1-.55566.56738l.73242,1.03223A.14862.14862,0,0,1,12.375,19.31021Z"/><path class="b" d="M14.67673,19.39419a.14151.14151,0,0,1-.04492-.10839V17.50943a.60246.60246,0,0,0-.67871-.6836H13.041a.142.142,0,0,1-.10449-.04492.14418.14418,0,0,1-.04492-.10547v-.51562a.14152.14152,0,0,1,.04492-.1084.15114.15114,0,0,1,.10449-.042h.94824a1.91352,1.91352,0,0,1,1.24512.34277,1.3798,1.3798,0,0,1,.41113,1.12207V19.2858a.14939.14939,0,0,1-.042.10449.14232.14232,0,0,1-.1084.0459h-.708A.15672.15672,0,0,1,14.67673,19.39419Z"/><path class="b" d="M16.71091,19.10611a1.43787,1.43787,0,0,1-.417-1.10449v-1.8418a.14152.14152,0,0,1,.04492-.1084.15118.15118,0,0,1,.1045-.042h.624a.16087.16087,0,0,1,.11133.042.14152.14152,0,0,1,.04492.1084v1.8125a.61774.61774,0,0,0,.19531.5.81279.81279,0,0,0,.543.166q.67091,0,.67773-.64257a1.35115,1.35115,0,0,0,.00293-.16211c-.002-.06739-.00293-.12012-.00293-.15625v-.13184a1.0767,1.0767,0,0,0-.11425-.52441.3419.3419,0,0,0-.31153-.1836.67505.67505,0,0,0-.17675.02442.58377.58377,0,0,0-.15333.05957.20974.20974,0,0,1-.05371.01269.13154.13154,0,0,1-.09375-.03906.13859.13859,0,0,1-.03906-.09961v-.47363a.23709.23709,0,0,1,.11426-.22266,1.143,1.143,0,0,1,.57617-.11328,1.163,1.163,0,0,1,.94531.34473,1.70268,1.70268,0,0,1,.29688,1.06543V18.026q-.06593,1.46924-1.668,1.46973A1.77173,1.77173,0,0,1,16.71091,19.10611Z"/><path class="b" d="M22.2363,19.39029a.15181.15181,0,0,1-.11132.0459H20.19919a.16079.16079,0,0,1-.11132-.042.145.145,0,0,1-.04493-.10839v-.51563a.145.145,0,0,1,.04493-.1084.16083.16083,0,0,1,.11132-.042h.9961l-.05371-1.18164a1.06445,1.06445,0,0,0-.12012-.50391.41089.41089,0,0,0-.37207-.15625h-.30566a.15347.15347,0,0,1-.15039-.15039v-.5039a.15258.15258,0,0,1,.042-.11036.14084.14084,0,0,1,.1084-.04589H20.667a1.5741,1.5741,0,0,1,1.14355.35449,1.64517,1.64517,0,0,1,.38672,1.13379l.07813,1.83008A.12265.12265,0,0,1,22.2363,19.39029Z"/><path class="b" d="M24.42673,19.39419a.14151.14151,0,0,1-.04492-.10839V17.50943a.60246.60246,0,0,0-.67871-.6836H22.791a.142.142,0,0,1-.10449-.04492.14418.14418,0,0,1-.04492-.10547v-.51562a.14152.14152,0,0,1,.04492-.1084.15114.15114,0,0,1,.10449-.042h.94824a1.91352,1.91352,0,0,1,1.24512.34277,1.3798,1.3798,0,0,1,.41113,1.12207V19.2858a.14939.14939,0,0,1-.042.10449.14232.14232,0,0,1-.1084.0459h-.708A.15672.15672,0,0,1,24.42673,19.39419Z"/><path class="b" d="M26.85935,17.07779c.00879.16406.05664.25976.14453.28808l.168.05957a.14374.14374,0,0,1,.0752.06934.24.24,0,0,1,.02636.11133l.00586.30566a.15529.15529,0,0,1-.08105.14063.28939.28939,0,0,1-.19434.03906l-.24609-.03516a.76274.76274,0,0,1-.51563-.334,1.19412,1.19412,0,0,1-.2041-.7168v-.8457a.208.208,0,0,1,.05078-.1084.12976.12976,0,0,1,.09864-.042h1.21191a1.55215,1.55215,0,0,1,1.17285.40527,1.7077,1.7077,0,0,1,.42383,1.13672c.00391.04.00586.09668.00586.16895a1.89581,1.89581,0,0,1-.38379,1.26269,1.51411,1.51411,0,0,1-1.21875.45313H26.25974a.16083.16083,0,0,1-.11133-.042.145.145,0,0,1-.04492-.10839V18.734a.15486.15486,0,0,1,.04492-.11133.151.151,0,0,1,.11133-.04492h1.11035a.71875.71875,0,0,0,.501-.17676.70139.70139,0,0,0,.21289-.501c.00391-.04.00586-.10058.00586-.17968,0-.07618-.002-.13477-.00586-.17481a.6822.6822,0,0,0-.207-.501.72826.72826,0,0,0-.50684-.17675h-.51074Z"/></svg>