<svg xmlns="http://www.w3.org/2000/svg" viewBox="0 0 33.11981 27.3177"><defs><style>.a{fill:#fff;}.b{fill:#2d2a28;}</style></defs><rect class="a" width="33.11981" height="27.3177"/><path class="b" d="M13.86605,7.03059a.138.138,0,0,1-.04492-.10742V5.21907a.14152.14152,0,0,1,.04492-.1084.15648.15648,0,0,1,.11133-.042h.75a.14271.14271,0,0,1,.10742.042.14644.14644,0,0,1,.042.1084v1.7041a.14853.14853,0,0,1-.042.10449.138.138,0,0,1-.10742.04492h-.75A.15648.15648,0,0,1,13.86605,7.03059Z"/><path class="b" d="M19.42464,5.11067a.14645.14645,0,0,1,.042.1084V6.79035a1.76483,1.76483,0,0,1-.24024.92774,1.6221,1.6221,0,0,1-.65332.61426,1.9,1.9,0,0,1-.918.21h-.57617a1.80447,1.80447,0,0,1-.83984-.18555,1.32872,1.32872,0,0,1-.54883-.50391,1.34958,1.34958,0,0,1-.18945-.70214V5.21907a.14148.14148,0,0,1,.04492-.1084.15648.15648,0,0,1,.11133-.042H16.287a.14646.14646,0,0,1,.1084.042.15037.15037,0,0,1,.042.1084l.00586,1.43945a.55227.55227,0,0,0,.456-.249,1.223,1.223,0,0,0,.13184-.627V5.23078A.15824.15824,0,0,1,17.076,5.1136a.14941.14941,0,0,1,.11133-.04492h.62305a.1436.1436,0,0,1,.10546.04785.16082.16082,0,0,1,.04493.11425v.56348a1.56422,1.56422,0,0,1-.35352,1.08008,1.49134,1.49134,0,0,1-1.002.46289.76522.76522,0,0,0,.30273.293.85914.85914,0,0,0,.417.10254h.1377a1.19216,1.19216,0,0,0,.55176-.126.96209.96209,0,0,0,.38476-.34766.92776.92776,0,0,0,.1377-.498v-1.542a.14644.14644,0,0,1,.042-.1084.14494.14494,0,0,1,.1084-.042h.62988A.14269.14269,0,0,1,19.42464,5.11067Z"/><path class="b" d="M21.75667,8.45246a.138.138,0,0,1-.04492-.10742V6.56868a.60207.60207,0,0,0-.67871-.6836h-.91211a.143.143,0,0,1-.10449-.0459.14051.14051,0,0,1-.04492-.10449V5.21907a.14152.14152,0,0,1,.04492-.1084.14687.14687,0,0,1,.10449-.042h.94824a1.91931,1.91931,0,0,1,1.24512.34179,1.38242,1.38242,0,0,1,.41113,1.12207V8.345a.15109.15109,0,0,1-.042.10449.14149.14149,0,0,1-.1084.04493h-.708A.15258.15258,0,0,1,21.75667,8.45246Z"/><path class="b" d="M23.44808,8.45246a.13876.13876,0,0,1-.0459-.10742v-3.126a.14232.14232,0,0,1,.0459-.1084.15257.15257,0,0,1,.11035-.042h.75a.14644.14644,0,0,1,.1084.042.15037.15037,0,0,1,.042.1084V8.345a.15114.15114,0,0,1-.042.10449.14149.14149,0,0,1-.1084.04493h-.75A.15258.15258,0,0,1,23.44808,8.45246Z"/><path class="b" d="M28.19124,5.43489A1.4483,1.4483,0,0,1,28.575,6.53254V8.345a.14687.14687,0,0,1-.042.10449.138.138,0,0,1-.10742.04493H26.787a.15359.15359,0,0,1-.14942-.14942v-.5166a.138.138,0,0,1,.04493-.10742.14687.14687,0,0,1,.10449-.042h.77441V6.58039A.71488.71488,0,0,0,27.411,6.095a.48838.48838,0,0,0-.38965-.17383h-.46777l-.50977,2.418a.185.185,0,0,1-.04882.11035.138.138,0,0,1-.10743.04493H25.1971a.14725.14725,0,0,1-.11035-.04493.11711.11711,0,0,1-.0332-.11035l.58789-2.41211H25.245a.14136.14136,0,0,1-.10743-.04492.15648.15648,0,0,1-.042-.11133V5.21907a.14152.14152,0,0,1,.04492-.1084.14691.14691,0,0,1,.1045-.042h1.92675A1.41541,1.41541,0,0,1,28.19124,5.43489Z"/><path class="b" d="M17.078,15.82453a.17858.17858,0,0,1-.04785-.12011V15.099a.18772.18772,0,0,1,.042-.11426.24294.24294,0,0,1,.1084-.07812l.18555-.07715a.88247.88247,0,0,0,.60059-.93067.79146.79146,0,0,0-.13575-.52832.65072.65072,0,0,0-.49414-.14941H15.74007a.14728.14728,0,0,1-.11035-.04492.15185.15185,0,0,1-.0459-.11133v-.55762a.1323.1323,0,0,1,.04883-.10254.16.16,0,0,1,.10742-.042h1.80664a1.45816,1.45816,0,0,1,1.12207.375,1.633,1.633,0,0,1,.3418,1.13086,1.76293,1.76293,0,0,1-.45019,1.248,2.38677,2.38677,0,0,1-1.12793.67871l-.2461.07129A.11079.11079,0,0,1,17.078,15.82453Zm-1.44824,1.06836a.14231.14231,0,0,1-.0459-.10839V13.887a.14231.14231,0,0,1,.0459-.10839.15671.15671,0,0,1,.11035-.042h.68457a.14384.14384,0,0,1,.14942.15039V16.7845a.14643.14643,0,0,1-.042.10839.14274.14274,0,0,1-.10743.042h-.68457A.15258.15258,0,0,1,15.62972,16.89289Z"/><path class="b" d="M19.63167,15.74739a.14232.14232,0,0,1-.04589-.1084V12.513a.14232.14232,0,0,1,.04589-.1084.15676.15676,0,0,1,.11036-.042h.75a.1439.1439,0,0,1,.15039.15039v3.126a.14938.14938,0,0,1-.042.10449.14151.14151,0,0,1-.10839.04492h-.75A.156.156,0,0,1,19.63167,15.74739Z"/><path class="b" d="M22.13558,13.431c.00879.16406.05664.25977.14453.28809l.168.05957a.13989.13989,0,0,1,.0752.06933.24.24,0,0,1,.02636.11133l.00586.30566a.15633.15633,0,0,1-.081.14063.2951.2951,0,0,1-.19434.03906l-.24609-.03613a.75806.75806,0,0,1-.51563-.333,1.19412,1.19412,0,0,1-.2041-.7168V12.513a.208.208,0,0,1,.05078-.1084.12976.12976,0,0,1,.09864-.042h1.21191a1.5484,1.5484,0,0,1,1.17285.40527,1.7077,1.7077,0,0,1,.42383,1.13672c.00391.04.00586.09668.00586.168a1.8986,1.8986,0,0,1-.38379,1.26367,1.51374,1.51374,0,0,1-1.21875.45215H21.536a.16009.16009,0,0,1-.11133-.041.14505.14505,0,0,1-.04492-.1084v-.55176a.15487.15487,0,0,1,.04492-.11133A.151.151,0,0,1,21.536,14.931h1.11035a.7187.7187,0,0,0,.501-.17676.70136.70136,0,0,0,.21289-.501c.00391-.04.00586-.10059.00586-.18067,0-.07519-.002-.13379-.00586-.17383a.68216.68216,0,0,0-.207-.501.72368.72368,0,0,0-.50684-.17676h-.51074Z"/><path class="b" d="M24.88753,14.32453a.138.138,0,0,1-.04492-.10742V12.513a.14153.14153,0,0,1,.04492-.1084.16087.16087,0,0,1,.11133-.042h.75a.14384.14384,0,0,1,.14942.15039v1.7041a.14526.14526,0,0,1-.042.10449.138.138,0,0,1-.10742.04493h-.75A.15652.15652,0,0,1,24.88753,14.32453Z"/><path class="b" d="M28.64339,15.74348a.151.151,0,0,1-.11132.04492H26.60628a.16005.16005,0,0,1-.11132-.041A.145.145,0,0,1,26.45,15.639v-.5166A.1444.1444,0,0,1,26.495,15.015a.15647.15647,0,0,1,.11132-.042h.9961l-.05371-1.18262a1.071,1.071,0,0,0-.12012-.5039.41273.41273,0,0,0-.37207-.15527h-.30566a.148.148,0,0,1-.10547-.04493.14415.14415,0,0,1-.04493-.10547v-.5039a.15649.15649,0,0,1,.042-.11133.14348.14348,0,0,1,.1084-.04492h.32324a1.5741,1.5741,0,0,1,1.14355.35449,1.64517,1.64517,0,0,1,.38672,1.13379l.07813,1.83008A.12264.12264,0,0,1,28.64339,15.74348Z"/><path class="b" d="M13.5057,20.014a1.38687,1.38687,0,0,1,.417,1.11328v1.80566a.14915.14915,0,0,1-.042.10547.145.145,0,0,1-.1084.04492h-.708a.15415.15415,0,0,1-.11035-.042.14152.14152,0,0,1-.04492-.1084V21.15754a.60276.60276,0,0,0-.67871-.68457h-.38965a3.67825,3.67825,0,0,0-.08984.88184l.04785,1.57812a.14149.14149,0,0,1-.04493.1084.15647.15647,0,0,1-.11132.042l-1.27149-.00586a.16083.16083,0,0,1-.11133-.042.14152.14152,0,0,1-.04492-.1084v-.47363a.14153.14153,0,0,1,.04492-.1084.15651.15651,0,0,1,.11133-.042h.48535v-.94238a3.24019,3.24019,0,0,1,.09082-.8877h-.35449a.15651.15651,0,0,1-.11133-.042.14138.14138,0,0,1-.04492-.10742V19.807a.145.145,0,0,1,.04492-.1084.16006.16006,0,0,1,.11133-.041h1.67383A1.86685,1.86685,0,0,1,13.5057,20.014Z"/><path class="b" d="M14.64632,23.04133a.14232.14232,0,0,1-.0459-.1084V19.807a.14232.14232,0,0,1,.0459-.1084.156.156,0,0,1,.11035-.041h.75a.14243.14243,0,0,1,.1504.14942v3.126a.15345.15345,0,0,1-.042.10547.145.145,0,0,1-.1084.04492h-.75A.15257.15257,0,0,1,14.64632,23.04133Z"/><path class="b" d="M17.15023,20.72493c.00879.16406.05664.26074.14453.28808l.168.06055a.138.138,0,0,1,.07519.06836.23983.23983,0,0,1,.02637.11133l.00586.30566a.15784.15784,0,0,1-.08105.1416.301.301,0,0,1-.19434.03906l-.24609-.03613a.76472.76472,0,0,1-.51563-.333,1.19924,1.19924,0,0,1-.2041-.71777V19.807a.20788.20788,0,0,1,.05078-.1084.12893.12893,0,0,1,.09863-.041h1.21192a1.55185,1.55185,0,0,1,1.17285.4043,1.70773,1.70773,0,0,1,.42383,1.13672c.0039.041.00586.09668.00586.16894a1.89407,1.89407,0,0,1-.38379,1.2627,1.51411,1.51411,0,0,1-1.21875.45312H16.55062a.1565.1565,0,0,1-.11133-.042.145.145,0,0,1-.04492-.1084v-.55175a.15482.15482,0,0,1,.04492-.11133.15094.15094,0,0,1,.11133-.04492H17.661a.71875.71875,0,0,0,.501-.17676.7014.7014,0,0,0,.21289-.501c.0039-.04.00586-.10059.00586-.17969,0-.07617-.002-.13476-.00586-.1748a.6822.6822,0,0,0-.207-.501A.72823.72823,0,0,0,17.661,20.515h-.51074Z"/><path class="b" d="M19.92562,23.04133a.14232.14232,0,0,1-.0459-.1084V19.807a.14232.14232,0,0,1,.0459-.1084.156.156,0,0,1,.11035-.041h.75a.14242.14242,0,0,1,.15039.14942v3.126a.15349.15349,0,0,1-.042.10547.145.145,0,0,1-.1084.04492h-.75A.15257.15257,0,0,1,19.92562,23.04133Z"/><path class="b" d="M23.31624,23.04133a.14152.14152,0,0,1-.04492-.1084V21.15754a.60276.60276,0,0,0-.67871-.68457H21.6805a.14205.14205,0,0,1-.10449-.04492.14363.14363,0,0,1-.04492-.10449V19.807a.14152.14152,0,0,1,.04492-.1084.15013.15013,0,0,1,.10449-.041h.94824a1.91359,1.91359,0,0,1,1.24512.3418,1.37977,1.37977,0,0,1,.41113,1.12207v1.81152a.15344.15344,0,0,1-.042.10547.145.145,0,0,1-.1084.04492h-.708A.15258.15258,0,0,1,23.31624,23.04133Z"/><path class="b" d="M28.15121,20.014a1.38687,1.38687,0,0,1,.417,1.11328v1.80566a.14915.14915,0,0,1-.042.10547.145.145,0,0,1-.1084.04492h-.708a.15413.15413,0,0,1-.11035-.042.14148.14148,0,0,1-.04492-.1084V21.15754a.60277.60277,0,0,0-.67871-.68457h-.38965a3.67874,3.67874,0,0,0-.08985.88184l.04785,1.57812a.14148.14148,0,0,1-.04492.1084.15648.15648,0,0,1-.11133.042l-1.27148-.00586a.16081.16081,0,0,1-.11133-.042.14152.14152,0,0,1-.04492-.1084v-.47363a.14153.14153,0,0,1,.04492-.1084.1565.1565,0,0,1,.11133-.042h.48535v-.94238a3.24019,3.24019,0,0,1,.09082-.8877h-.35449a.1565.1565,0,0,1-.11133-.042.14134.14134,0,0,1-.04492-.10742V19.807a.145.145,0,0,1,.04492-.1084.16.16,0,0,1,.11133-.041H26.912A1.86685,1.86685,0,0,1,28.15121,20.014Z"/></svg>