<svg xmlns="http://www.w3.org/2000/svg" xmlns:xlink="http://www.w3.org/1999/xlink" viewBox="0 0 53.63878 37.54376"><defs><style>.a{fill:none;}.b{clip-path:url(#a);}.c,.e{fill:#ba8b5f;stroke:#2d2a28;stroke-width:1.24591px;}.c{stroke-miterlimit:10;}.d{fill:#9c6c43;}.e{stroke-linejoin:round;}</style><clipPath id="a"><rect class="a" width="53.63878" height="37.54376"/></clipPath></defs><g class="b"><path class="c" d="M15.35623,30.09239a1.64987,1.64987,0,0,1-.52074.6642c-.68846.50269-2.73453.30581-3.53709.39374q-2.73836.3-5.47684.59962L4.17177,14.99237c3.37452.08011,7.3469-.41326,10.61082.31387a39.4006,39.4006,0,0,0-.03166,7.43974c.17713,1.30653,1.06055,3.62844.7899,4.88823"/><path class="c" d="M14.51583,18.99174,17.4372,7.35026a1.36112,1.36112,0,0,0-1.05741-1.61095h0A1.37648,1.37648,0,0,0,14.8682,6.94883L12.30771,17.60026"/><path class="c" d="M12.21907,17.60026C12.25274,17.5142,14.8388,4.3342,14.8388,4.3342a1.37256,1.37256,0,0,0-1.00115-1.65431h0A1.365,1.365,0,0,0,12.28823,3.8294l-2.541,12.99485"/><path class="c" d="M9.67419,16.82425,12.26677,4.066A1.91089,1.91089,0,0,0,10.873,1.76284h0A1.90041,1.90041,0,0,0,8.71585,3.3632l-2.27732,12.598"/><path class="c" d="M6.392,15.66594l1.80156-11.6A1.9109,1.9109,0,0,0,6.79971,1.76284h0A1.90041,1.90041,0,0,0,4.6426,3.3632l-1.80156,11.6"/><path class="d" d="M11.93,30.6916a2.41352,2.41352,0,0,0,1.148.01682c1.16159-.30886,1.65-1.68857,1.75668-2.88578.46409-5.20715-2.49682-9.25641-6.71862-11.96929a1.90347,1.90347,0,0,0-1.47919-.418,1.336,1.336,0,0,0-.857,1.01422,3.78658,3.78658,0,0,0,.0206,1.38468,6.6671,6.6671,0,0,0,.60407,2.23508,10.497,10.497,0,0,0,1.23377,1.61183,10.56729,10.56729,0,0,1,1.64621,2.80226c.60524,1.53112-.43541,2.60291.15088,3.99936A3.5647,3.5647,0,0,0,11.93,30.6916Z"/><path class="c" d="M15.55757,27.39553c-.16381,2.70093-.82505,5.30554-.95764,8.00412a20.45041,20.45041,0,0,0,.46232,3.74195c.11329.79813,1.688,9.52893,1.57866,9.54167l-9.0644.8924s.2513-10.53058-2.21292-15.1859c-.43742-.82634-1.48269-1.363-2.17473-2.0003a5.09861,5.09861,0,0,1-1.643-3.173A26.18113,26.18113,0,0,1,2.5709,14.24518a5.164,5.164,0,0,1,1.17119-2.01167A2.01429,2.01429,0,0,1,5.9004,11.756a2.10533,2.10533,0,0,1,.95407,1.06416c1.03881,2.28491-.62473,4.92874-.3153,7.41956C6.753,21.96085,8.662,22.11135,9.31762,23.79306a9.60125,9.60125,0,0,1,.25664,3.36422"/><path class="e" d="M36.56581,31.72988a3.70787,3.70787,0,0,1,.70363,2.87749c-.18265,2.08461-.23925,4.12332-.22477,6.2138.00162.23392.01849,3.72089.0357,3.72091h9.16441V35.24031c0-1.35269-.36465-3.07368,1.08264-3.84086a2.61929,2.61929,0,0,0,1.191-.87618,2.773,2.773,0,0,0,.685-1.64557c-.01439-.76951-.07319-1.54578-.09063-2.31789-.03544-1.56843-.04826-3.13732-.04826-4.70613V13.47252H35.20057V25.47988c0,.853.02887,1.70822.0116,2.55877A5.2789,5.2789,0,0,0,36.56581,31.72988Z"/><path class="e" d="M38.221,15.53982,38.0953,2.9562a1.44744,1.44744,0,0,1,1.42981-1.46485h0A1.44744,1.44744,0,0,1,40.99,2.92116L41.98417,15.922"/><path class="e" d="M35.2031,15.922,33.75335,4.84252c-.24791-1.22611,1.34992-1.41177,1.34992-1.41177,1.03388-.21379,1.56378.684,1.54408.49737L38.54707,15.922"/><path class="e" d="M41.98417,15.922,41.71761,2.73244A2.01513,2.01513,0,0,1,43.70819.69307h0a2.01513,2.01513,0,0,1,2.03937,1.99059l.14866,12.28053"/><path class="e" d="M44.96611,15.31815,44.81745,3.03762A2.01511,2.01511,0,0,1,46.808.99826h0A2.01511,2.01511,0,0,1,48.8474,2.98884l.14866,12.28053"/><path class="e" d="M47.6704,31.267a11.13652,11.13652,0,0,0,2.88718-5.99672c.34955-2.4573.08863-4.96359.52991-7.41254a18.76922,18.76922,0,0,1,.59474-3.48635c.415-1.035,1.20921-2.02995,1.11517-3.20347-.0769-.95967-.80287-1.92934-1.79657-1.19762a7.58955,7.58955,0,0,0-2.48467,4.23009c-.52929,1.9083-1.1911,3.18505-1.19115,5.192.00355.05336-1.2684.73784-1.413.8532-.98933.78935-2.72944,2.20219-2.85749,3.57565"/></g></svg>