<svg xmlns="http://www.w3.org/2000/svg" viewBox="0 0 33.11981 27.3177"><defs><style>.a{fill:#d9d9d9;}.b{fill:#070706;}</style></defs><rect class="a" width="33.11981" height="27.3177"/><path class="b" d="M10.40726,15.74673a.14947.14947,0,0,1-.043-.1084V13.86294a.60169.60169,0,0,0-.67773-.68457H8.31937a.15331.15331,0,0,1-.11133-.042.14138.14138,0,0,1-.04492-.10742v-.5166a.14287.14287,0,0,1,.04492-.10742.15332.15332,0,0,1,.11133-.042H9.71781a1.84273,1.84273,0,0,1,1.24414.36524,1.44439,1.44439,0,0,1,.418,1.14062v1.76953a.14352.14352,0,0,1-.04492.1084.1598.1598,0,0,1-.11133.042h-.709A.14424.14424,0,0,1,10.40726,15.74673Zm-2.19922,0a.14352.14352,0,0,1-.04492-.1084V13.88638A.14138.14138,0,0,1,8.208,13.779a.15331.15331,0,0,1,.11133-.042h.707a.14871.14871,0,0,1,.10938.042.14579.14579,0,0,1,.041.10742v1.75195a.15252.15252,0,0,1-.041.10547.14362.14362,0,0,1-.10938.04493h-.707A.15332.15332,0,0,1,8.208,15.74673Z"/><path class="b" d="M15.91508,12.40494a.14733.14733,0,0,1,.041.10742v1.57226a1.759,1.759,0,0,1-.24023.92676,1.60932,1.60932,0,0,1-.65235.61524,1.90256,1.90256,0,0,1-.918.21h-.57617a1.80447,1.80447,0,0,1-.83984-.18555,1.32281,1.32281,0,0,1-.54883-.50391,1.34053,1.34053,0,0,1-.18945-.70214V12.51236a.13614.13614,0,0,1,.04492-.10742.15332.15332,0,0,1,.11133-.042h.6289a.14242.14242,0,0,1,.15039.14942l.00586,1.44043a.55654.55654,0,0,0,.457-.249,1.22379,1.22379,0,0,0,.13085-.627v-.55176a.16055.16055,0,0,1,.04493-.11718.15092.15092,0,0,1,.11132-.04493h.623a.13715.13715,0,0,1,.10547.04786.15679.15679,0,0,1,.04492.11425v.56348a1.55955,1.55955,0,0,1-.35351,1.08008,1.48629,1.48629,0,0,1-1.002.46191.78081.78081,0,0,0,.30274.29395.86563.86563,0,0,0,.418.10254h.13672a1.19346,1.19346,0,0,0,.55273-.126.96389.96389,0,0,0,.38477-.34863.92236.92236,0,0,0,.13671-.49805v-1.542a.14531.14531,0,0,1,.15039-.14942h.63086A.14424.14424,0,0,1,15.91508,12.40494Z"/><path class="b" d="M16.59672,14.32486a.13821.13821,0,0,1-.04493-.1084v-1.7041a.13615.13615,0,0,1,.04493-.10742.15328.15328,0,0,1,.11132-.042h.75a.14424.14424,0,0,1,.10743.042.14733.14733,0,0,1,.041.10742v1.7041a.15254.15254,0,0,1-.041.10547.14287.14287,0,0,1-.10743.04492h-.75A.15327.15327,0,0,1,16.59672,14.32486Z"/><path class="b" d="M18.22172,15.7438a.148.148,0,0,1-.04493-.10547v-.51562a.145.145,0,0,1,.04493-.1084.15349.15349,0,0,1,.10547-.042H19.833V13.86294a.59917.59917,0,0,0-.67773-.67773h-.76758a.14442.14442,0,0,1-.10937-.0459.156.156,0,0,1-.041-.11035v-.5166a.14287.14287,0,0,1,.04492-.10742.14594.14594,0,0,1,.10547-.042h.79688a1.95816,1.95816,0,0,1,1.26953.35352,1.4079,1.4079,0,0,1,.42969,1.14648v1.10938h.209a.14534.14534,0,0,1,.15039.15039v.51562a.146.146,0,0,1-.043.10547.13658.13658,0,0,1-.10742.04493H18.32719A.14415.14415,0,0,1,18.22172,15.7438Z"/><path class="b" d="M21.79789,15.74673a.14348.14348,0,0,1-.04492-.1084v-3.126a.14283.14283,0,0,1,.04492-.10742.15331.15331,0,0,1,.11133-.042h1.416a1.88507,1.88507,0,0,1,1.25586.35059,1.452,1.452,0,0,1,.40625,1.15527v1.76953a.146.146,0,0,1-.043.10547.13658.13658,0,0,1-.10742.04493h-.707a.15332.15332,0,0,1-.11133-.042.13683.13683,0,0,1-.04492-.1084V13.86294a.60247.60247,0,0,0-.67773-.68457h-.5293v2.46a.15248.15248,0,0,1-.041.10547.1436.1436,0,0,1-.10937.04493h-.707A.15331.15331,0,0,1,21.79789,15.74673Z"/></svg>