<svg xmlns="http://www.w3.org/2000/svg" viewBox="0 0 33.11981 27.3177"><defs><style>.a{fill:#eee;}.b{fill:#1c1a19;}</style></defs><rect class="a" width="33.11981" height="27.3177"/><path class="b" d="M12.194,12.09969a.13819.13819,0,0,1-.04493-.1084V10.2159a.60306.60306,0,0,0-.67968-.68457h-.91211a.14.14,0,0,1-.10352-.04492.13848.13848,0,0,1-.04492-.10449V8.86531a.13482.13482,0,0,1,.04492-.10742.14466.14466,0,0,1,.10352-.042h.94922a1.91063,1.91063,0,0,1,1.24414.3418,1.377,1.377,0,0,1,.41211,1.12207v1.81152a.15448.15448,0,0,1-.043.10547.14286.14286,0,0,1-.10742.04492h-.709A.15181.15181,0,0,1,12.194,12.09969Z"/><path class="b" d="M13.88538,12.09969a.145.145,0,0,1-.04492-.1084v-3.126a.14139.14139,0,0,1,.04492-.10742.15331.15331,0,0,1,.11133-.042h.75a.14419.14419,0,0,1,.10742.042.14716.14716,0,0,1,.043.10742v3.126a.15444.15444,0,0,1-.043.10547.14283.14283,0,0,1-.10742.04492h-.75A.15331.15331,0,0,1,13.88538,12.09969Z"/><path class="b" d="M15.97523,11.80867a1.4738,1.4738,0,0,1-.40625-1.11328V8.86531a.13482.13482,0,0,1,.04492-.10742.15183.15183,0,0,1,.10937-.042h1.53125a1.74022,1.74022,0,0,1,1.23633.36523,1.55943,1.55943,0,0,1,.41406,1.08008c.00391.04.00586.13477.00586.28223,0,.15234-.002.248-.00586.28809a1.56317,1.56317,0,0,1-.42968,1.09472,1.80643,1.80643,0,0,1-1.27539.375A1.70865,1.70865,0,0,1,15.97523,11.80867Zm1.78515-.6123a.67679.67679,0,0,0,.17188-.49512q.00585-.06006.00586-.25781,0-.1919-.00586-.252a.70342.70342,0,0,0-.17969-.498.74179.74179,0,0,0-.5293-.16211h-.72461v1.14648a.644.644,0,0,0,.17969.501.7365.7365,0,0,0,.51563.165A.8339.8339,0,0,0,17.76038,11.19637Z"/><path class="b" d="M22.67835,12.0157a.12691.12691,0,0,1-.03515.08692.12041.12041,0,0,1-.0918.03906h-.73633A.20342.20342,0,0,1,21.653,12.085c-.0332-.03809-.05078-.05957-.05469-.06348L20.54749,10.504a.671.671,0,0,0-.20312.3291,1.62694,1.62694,0,0,0-.04883.39648v.75a.15454.15454,0,0,1-.04492.11719.15163.15163,0,0,1-.11133.04492H19.5514a.13613.13613,0,0,1-.10352-.04785.15682.15682,0,0,1-.04492-.11426v-.74414a2.10817,2.10817,0,0,1,.13672-.82812,1.51222,1.51222,0,0,1,.52344-.59961l-.61328-.88184a.12938.12938,0,0,1-.0293-.084A.11416.11416,0,0,1,19.4596,8.755a.11717.11717,0,0,1,.08594-.03906h.709a.20282.20282,0,0,1,.12891.03516.47154.47154,0,0,1,.08594.09668l.96679,1.36816a.52774.52774,0,0,0,.21289-.26465,1.17413,1.17413,0,0,0,.04493-.3418V8.878a.15778.15778,0,0,1,.043-.11719.1366.1366,0,0,1,.10742-.04492h.6289a.14352.14352,0,0,1,.11133.04785.1553.1553,0,0,1,.04492.11426v.75586a1.58863,1.58863,0,0,1-.15234.69922,1.44049,1.44049,0,0,1-.55469.5664l.73242,1.03223A.14859.14859,0,0,1,22.67835,12.0157Z"/><path class="b" d="M10.3307,20.13778a.13982.13982,0,0,1-.04688-.1084V16.15926a.13918.13918,0,0,1,.04688-.10742.15181.15181,0,0,1,.10937-.042h.709a.14423.14423,0,0,1,.10743.042.15046.15046,0,0,1,.043.10742v3.87012a.15115.15115,0,0,1-.043.1084.14423.14423,0,0,1-.10743.042h-.709A.15181.15181,0,0,1,10.3307,20.13778Z"/><path class="b" d="M15.87562,16.05184a.1428.1428,0,0,1,.043.10742v1.57227a1.76482,1.76482,0,0,1-.24024.92773,1.63076,1.63076,0,0,1-.6543.61426,1.89737,1.89737,0,0,1-.918.21h-.57618a1.80447,1.80447,0,0,1-.83984-.18555,1.33491,1.33491,0,0,1-.54883-.5039,1.35894,1.35894,0,0,1-.18945-.70215V16.15926a.14437.14437,0,0,1,.04492-.10742.15979.15979,0,0,1,.11133-.042h.63086a.14419.14419,0,0,1,.10742.042.15046.15046,0,0,1,.043.10742l.00586,1.44043a.55046.55046,0,0,0,.45508-.249,1.22216,1.22216,0,0,0,.13281-.627V16.172a.15451.15451,0,0,1,.04492-.11718.14792.14792,0,0,1,.11133-.04492h.623a.14313.14313,0,0,1,.10546.04785.16512.16512,0,0,1,.04493.11425v.56348a1.56893,1.56893,0,0,1-.35352,1.08008,1.48626,1.48626,0,0,1-1.002.46191.75527.75527,0,0,0,.30273.294.85264.85264,0,0,0,.416.10254h.13867a1.19093,1.19093,0,0,0,.55078-.126.95584.95584,0,0,0,.38477-.34765.92867.92867,0,0,0,.13867-.498v-1.543a.1424.1424,0,0,1,.15039-.14941h.62891A.14125.14125,0,0,1,15.87562,16.05184Z"/><path class="b" d="M19.61585,16.05184a.14888.14888,0,0,1,.041.10742v1.77637a1.30546,1.30546,0,0,1-.41407.9873,2.20128,2.20128,0,0,1-1.16406.52442l-1.53515.32421a.13585.13585,0,0,1-.11719-.03027.12832.12832,0,0,1-.05078-.10742v-.52246a.14672.14672,0,0,1,.03906-.10449.16647.16647,0,0,1,.09766-.05664l.666-.16211-.707-2.53809A.79908.79908,0,0,1,16.442,16.13a.11515.11515,0,0,1,.03516-.084.11392.11392,0,0,1,.084-.03613h.7793a.14433.14433,0,0,1,.08984.02636.125.125,0,0,1,.04883.06348l.59961,2.4541a.82789.82789,0,0,0,.44531-.33887,1.20365,1.20365,0,0,0,.11915-.5791V16.15926a.1424.1424,0,0,1,.15039-.14941h.71289A.1487.1487,0,0,1,19.61585,16.05184Z"/><path class="b" d="M22.62171,16.38485a1.63782,1.63782,0,0,1,.3418,1.13085,1.76248,1.76248,0,0,1-.45117,1.24805,2.38206,2.38206,0,0,1-1.127.67774l-.24609.07226a.11555.11555,0,0,1-.11133-.042.16645.16645,0,0,1-.05078-.12012v-.60547a.17453.17453,0,0,1,.041-.11132.29692.29692,0,0,1,.10937-.08106l.19141-.07812a.97765.97765,0,0,0,.43554-.32129,1.00558,1.00558,0,0,0,.15821-.6084.81.81,0,0,0-.13282-.52832.639.639,0,0,0-.49023-.14942h-.15625l-.80469-.00683a.14529.14529,0,0,1-.15039-.14942V15.32528a.14443.14443,0,0,1,.04492-.10743.15252.15252,0,0,1,.10547-.042h.64844a.14419.14419,0,0,1,.10742.042.15044.15044,0,0,1,.043.10743v.68457h.37109A1.46056,1.46056,0,0,1,22.62171,16.38485Z"/></svg>