<svg xmlns="http://www.w3.org/2000/svg" viewBox="0 0 33.11981 35.69679"><defs><style>.a{fill:#d9d9d9;}.b{fill:#070706;}</style></defs><rect class="a" width="33.11981" height="35.69679"/><path class="b" d="M17.75956,6.55356a.14152.14152,0,0,1-.04492-.1084V4.74106a.13942.13942,0,0,1,.04492-.10742.15648.15648,0,0,1,.11133-.042h.75a.14272.14272,0,0,1,.10742.042.14421.14421,0,0,1,.042.10742v1.7041a.14915.14915,0,0,1-.042.10547.14135.14135,0,0,1-.10742.04492h-.75A.15648.15648,0,0,1,17.75956,6.55356Z"/><path class="b" d="M19.46366,7.97544a.14009.14009,0,0,1-.04492-.1084V7.31528A.155.155,0,0,1,19.574,7.159h.87012a.63912.63912,0,0,0,.7207-.67773c.00391-.04786.00586-.1084.00586-.17969,0-.06836-.002-.126-.00586-.17383a.63982.63982,0,0,0-.7207-.67871H19.574a.15341.15341,0,0,1-.15527-.15527V4.74106a.13942.13942,0,0,1,.04492-.10742.15257.15257,0,0,1,.11035-.042h.90039a1.4585,1.4585,0,0,1,1.66211,1.542c.00391.044.00586.09961.00586.168a1.86328,1.86328,0,0,1-.39258,1.26562,1.61431,1.61431,0,0,1-1.27539.4502H19.574A.15257.15257,0,0,1,19.46366,7.97544Z"/><path class="b" d="M24.33573,7.97544a.14009.14009,0,0,1-.04492-.1084V6.09165a.60276.60276,0,0,0-.67871-.68457H22.7a.15357.15357,0,0,1-.14942-.14942v-.5166a.1394.1394,0,0,1,.04493-.10742.14687.14687,0,0,1,.10449-.042h.94824a1.91369,1.91369,0,0,1,1.24512.34179,1.38114,1.38114,0,0,1,.41113,1.12207V7.867a.1535.1535,0,0,1-.042.10547.14152.14152,0,0,1-.1084.04492h-.708A.15257.15257,0,0,1,24.33573,7.97544Z"/><path class="b" d="M28.659,4.63364a.148.148,0,0,1,.042.10742v.5166a.15113.15113,0,0,1-.042.1045.14152.14152,0,0,1-.1084.04492h-.27539a.89361.89361,0,0,0-.11132.30664,2.11354,2.11354,0,0,0-.03907.42578V7.88559a.1122.1122,0,0,1-.05664.09278.203.203,0,0,1-.11719.03906h-.70214a.12665.12665,0,0,1-.09571-.03613.12814.12814,0,0,1-.03613-.09571V6.07309a1.29624,1.29624,0,0,1,.12012-.666H25.86893a.1442.1442,0,0,1-.10547-.04492.14592.14592,0,0,1-.04492-.1045v-.5166a.14288.14288,0,0,1,.04492-.10742.14916.14916,0,0,1,.10547-.042h2.68164A.14644.14644,0,0,1,28.659,4.63364Z"/><path class="b" d="M10.34354,12.243a1.38338,1.38338,0,0,1,.417,1.11231V15.162a.14526.14526,0,0,1-.042.10449.14148.14148,0,0,1-.1084.04492h-.708a.15413.15413,0,0,1-.11035-.042.138.138,0,0,1-.04493-.10742V13.38559a.60207.60207,0,0,0-.67871-.68359H8.6785a3.66825,3.66825,0,0,0-.08984.88184L8.63651,15.162a.138.138,0,0,1-.04492.10742.15648.15648,0,0,1-.11133.042l-1.27148-.00586a.15648.15648,0,0,1-.11133-.042.138.138,0,0,1-.04492-.10742v-.47461a.138.138,0,0,1,.04492-.10742.15648.15648,0,0,1,.11133-.042h.48535v-.94239A3.23189,3.23189,0,0,1,7.785,12.702H7.43046a.16084.16084,0,0,1-.11133-.042.145.145,0,0,1-.04492-.1084V12.036a.145.145,0,0,1,.04492-.10839.1608.1608,0,0,1,.11133-.042H9.10429A1.86152,1.86152,0,0,1,10.34354,12.243Z"/><path class="b" d="M13.02616,15.26938a.138.138,0,0,1-.04492-.10742V13.38559a.60207.60207,0,0,0-.67871-.68359h-.91211a.14588.14588,0,0,1-.10449-.04492.14417.14417,0,0,1-.04493-.10547V12.036a.14148.14148,0,0,1,.04493-.10839.1511.1511,0,0,1,.10449-.042h.94824a1.91935,1.91935,0,0,1,1.24512.3418,1.38245,1.38245,0,0,1,.41113,1.12207V15.162a.1494.1494,0,0,1-.042.10449.1415.1415,0,0,1-.1084.04492h-.708A.15257.15257,0,0,1,13.02616,15.26938Z"/><path class="b" d="M14.71757,15.26938a.13873.13873,0,0,1-.0459-.10742V12.036a.14228.14228,0,0,1,.0459-.10839.15668.15668,0,0,1,.11035-.042h.75a.1439.1439,0,0,1,.15039.15039v3.126a.1494.1494,0,0,1-.042.10449.1415.1415,0,0,1-.1084.04492h-.75A.15254.15254,0,0,1,14.71757,15.26938Z"/><path class="b" d="M20.30057,11.92759a.14644.14644,0,0,1,.042.10839v1.57129a1.76483,1.76483,0,0,1-.24024.92774,1.631,1.631,0,0,1-.65332.61523,1.91048,1.91048,0,0,1-.918.209h-.57617a1.80447,1.80447,0,0,1-.83984-.18555,1.32878,1.32878,0,0,1-.54883-.50391,1.34962,1.34962,0,0,1-.18945-.70215V12.036a.14147.14147,0,0,1,.04492-.10839.1608.1608,0,0,1,.11133-.042h.62988a.1439.1439,0,0,1,.15039.15039l.00586,1.43946a.55225.55225,0,0,0,.456-.249,1.22293,1.22293,0,0,0,.13184-.62695V12.0477a.15828.15828,0,0,1,.04492-.11719.14944.14944,0,0,1,.11133-.04492h.623a.14362.14362,0,0,1,.10547.04785.16089.16089,0,0,1,.04492.11426v.56446a1.56161,1.56161,0,0,1-.35352,1.0791,1.49134,1.49134,0,0,1-1.002.46289.77437.77437,0,0,0,.30273.29394.86938.86938,0,0,0,.417.10157h.1377a1.19226,1.19226,0,0,0,.55176-.126.96224.96224,0,0,0,.38476-.34766.92776.92776,0,0,0,.1377-.498V12.036a.14643.14643,0,0,1,.042-.10839.14875.14875,0,0,1,.1084-.042h.62988A.14642.14642,0,0,1,20.30057,11.92759Z"/><path class="b" d="M22.45389,15.34751a.18046.18046,0,0,1-.04785-.12012v-.60547a.18769.18769,0,0,1,.042-.11426.24291.24291,0,0,1,.10839-.07812l.18555-.07813a.98475.98475,0,0,0,.43848-.32031.997.997,0,0,0,.16211-.60937.79142.79142,0,0,0-.13575-.52832.65072.65072,0,0,0-.49414-.14942H21.116a.15505.15505,0,0,1-.15625-.15625v-.55762a.13232.13232,0,0,1,.04883-.10253.16.16,0,0,1,.10742-.042h1.80664a1.45814,1.45814,0,0,1,1.12207.375,1.633,1.633,0,0,1,.3418,1.13086,1.76292,1.76292,0,0,1-.45019,1.248,2.39454,2.39454,0,0,1-1.12793.67871l-.2461.07129A.1108.1108,0,0,1,22.45389,15.34751Zm-1.44824,1.06836a.14233.14233,0,0,1-.0459-.1084V13.41a.14232.14232,0,0,1,.0459-.1084.15257.15257,0,0,1,.11035-.042h.68457a.14273.14273,0,0,1,.10743.042.14644.14644,0,0,1,.042.1084v2.89746a.14382.14382,0,0,1-.14942.15039H21.116A.15675.15675,0,0,1,21.00565,16.41587Z"/><path class="b" d="M28.15116,12.243a1.38337,1.38337,0,0,1,.417,1.11231V15.162a.14525.14525,0,0,1-.042.10449.14148.14148,0,0,1-.1084.04492h-.708a.15417.15417,0,0,1-.11035-.042.138.138,0,0,1-.04492-.10742V13.38559a.60207.60207,0,0,0-.67871-.68359h-.38965a3.66774,3.66774,0,0,0-.08984.88184l.04785,1.57812a.138.138,0,0,1-.04492.10742.15651.15651,0,0,1-.11133.042l-1.27149-.00586a.15647.15647,0,0,1-.11132-.042.138.138,0,0,1-.04493-.10742v-.47461a.138.138,0,0,1,.04493-.10742.15647.15647,0,0,1,.11132-.042h.48536v-.94239a3.23151,3.23151,0,0,1,.09082-.88769h-.3545a.16083.16083,0,0,1-.11132-.042.145.145,0,0,1-.04493-.1084V12.036a.145.145,0,0,1,.04493-.10839.16079.16079,0,0,1,.11132-.042H26.9119A1.86154,1.86154,0,0,1,28.15116,12.243Z"/><path class="b" d="M16.84745,21.14243a.14152.14152,0,0,1-.04492-.1084v-1.7041a.14152.14152,0,0,1,.04492-.1084.16084.16084,0,0,1,.11133-.042h.75a.14382.14382,0,0,1,.14941.15039V21.034a.14525.14525,0,0,1-.042.10449.138.138,0,0,1-.10742.04492h-.75A.16006.16006,0,0,1,16.84745,21.14243Z"/><path class="b" d="M21.65311,19.537a1.38689,1.38689,0,0,1,.417,1.11328v1.80567a.14529.14529,0,0,1-.042.10449.14232.14232,0,0,1-.1084.0459h-.708a.15838.15838,0,0,1-.11035-.042.14148.14148,0,0,1-.04493-.10839V20.67954a.60246.60246,0,0,0-.67871-.6836h-.38965a3.67881,3.67881,0,0,0-.08984.88184l.04785,1.57813a.14151.14151,0,0,1-.04492.10839.1608.1608,0,0,1-.11133.042l-1.27148-.00684a.16.16,0,0,1-.11133-.041.14151.14151,0,0,1-.04492-.10839v-.47364a.14011.14011,0,0,1,.04492-.1084.15648.15648,0,0,1,.11133-.042h.48535v-.94238a3.2361,3.2361,0,0,1,.09082-.8877H18.74a.15648.15648,0,0,1-.11133-.042.14348.14348,0,0,1-.04492-.1084v-.51562a.145.145,0,0,1,.04492-.1084.16084.16084,0,0,1,.11133-.042h1.67383A1.86152,1.86152,0,0,1,21.65311,19.537Z"/><path class="b" d="M22.67948,22.5604a.14054.14054,0,0,1-.04492-.10449v-.51563a.14153.14153,0,0,1,.04492-.1084.15114.15114,0,0,1,.10449-.042h1.50684V20.67954a.59986.59986,0,0,0-.67871-.67774h-.76758a.14148.14148,0,0,1-.1084-.04492.15912.15912,0,0,1-.042-.11133v-.51562a.145.145,0,0,1,.04492-.1084.15349.15349,0,0,1,.10547-.042h.79785a1.95125,1.95125,0,0,1,1.26856.35449,1.404,1.404,0,0,1,.42968,1.14551v1.11035h.21a.14382.14382,0,0,1,.14942.15039v.51563a.14528.14528,0,0,1-.042.10449.1388.1388,0,0,1-.10743.0459H22.784A.14308.14308,0,0,1,22.67948,22.5604Z"/><path class="b" d="M28.323,19.55454a1.633,1.633,0,0,1,.34179,1.13086,1.76289,1.76289,0,0,1-.45019,1.248,2.38674,2.38674,0,0,1-1.12793.67872l-.2461.07128a.11618.11618,0,0,1-.11132-.041.17049.17049,0,0,1-.05079-.12012v-.60644a.17045.17045,0,0,1,.042-.11133.30218.30218,0,0,1,.10839-.08008l.19141-.07812a.97405.97405,0,0,0,.43555-.32129,1.00667,1.00667,0,0,0,.15918-.60938.805.805,0,0,0-.13282-.52734.6362.6362,0,0,0-.49121-.15039h-.15625l-.80468-.00586a.14807.14807,0,0,1-.10743-.042.14647.14647,0,0,1-.042-.1084V18.49594a.14151.14151,0,0,1,.04492-.10839.1529.1529,0,0,1,.1045-.042h.64843a.1439.1439,0,0,1,.15039.15039v.6836H27.201A1.45818,1.45818,0,0,1,28.323,19.55454Z"/><path class="b" d="M12.83964,26.83091a1.38687,1.38687,0,0,1,.417,1.11328v1.80566a.14915.14915,0,0,1-.042.10547.145.145,0,0,1-.1084.04492h-.708a.15415.15415,0,0,1-.11035-.042.14152.14152,0,0,1-.04492-.1084V27.97446a.60277.60277,0,0,0-.67871-.68457H11.1746a3.67874,3.67874,0,0,0-.08985.88184l.04786,1.57812a.14149.14149,0,0,1-.04493.1084.15647.15647,0,0,1-.11132.042l-1.27149-.00586a.16087.16087,0,0,1-.11133-.042.14152.14152,0,0,1-.04492-.1084v-.47363a.14152.14152,0,0,1,.04492-.1084.16087.16087,0,0,1,.11133-.042h.48535v-.94238a3.24019,3.24019,0,0,1,.09082-.8877H9.92655a.15651.15651,0,0,1-.11133-.042.14139.14139,0,0,1-.04492-.10742v-.51661a.14139.14139,0,0,1,.04492-.10742.15651.15651,0,0,1,.11133-.042h1.67383A1.86685,1.86685,0,0,1,12.83964,26.83091Z"/><path class="b" d="M13.98026,29.85825a.14232.14232,0,0,1-.0459-.1084v-3.126a.13879.13879,0,0,1,.0459-.10742.15257.15257,0,0,1,.11035-.042h1.416a1.888,1.888,0,0,1,1.25683.35059,1.45514,1.45514,0,0,1,.40528,1.15527v1.76953a.14915.14915,0,0,1-.042.10547.14285.14285,0,0,1-.10743.04492h-.708a.15487.15487,0,0,1-.11133-.042.14148.14148,0,0,1-.04492-.1084V27.97446a.60247.60247,0,0,0-.67774-.68457H14.949v2.46a.15349.15349,0,0,1-.042.10547.145.145,0,0,1-.1084.04492h-.708A.15257.15257,0,0,1,13.98026,29.85825Z"/><path class="b" d="M19.34061,29.93637a.18044.18044,0,0,1-.04785-.12011v-.60645a.18507.18507,0,0,1,.042-.11328.23574.23574,0,0,1,.1084-.07812l.18555-.07813a.88247.88247,0,0,0,.60059-.93066.78666.78666,0,0,0-.13575-.52735.6506.6506,0,0,0-.49414-.15039H18.00272a.15505.15505,0,0,1-.15625-.15625V26.618a.129.129,0,0,1,.04883-.10156.15544.15544,0,0,1,.10742-.042h1.80664a1.45816,1.45816,0,0,1,1.12207.375,1.633,1.633,0,0,1,.3418,1.13086,1.7662,1.7662,0,0,1-.45019,1.24805,2.38514,2.38514,0,0,1-1.12793.67773l-.2461.07227A.11079.11079,0,0,1,19.34061,29.93637Zm-1.44824,1.06739a.13879.13879,0,0,1-.0459-.10742V27.9979a.13876.13876,0,0,1,.0459-.10742.15258.15258,0,0,1,.11035-.042h.68457a.14379.14379,0,0,1,.14942.14942v2.89844a.14377.14377,0,0,1-.14942.14941h-.68457A.15257.15257,0,0,1,17.89237,31.00376Z"/><path class="b" d="M23.5203,29.85825a.14152.14152,0,0,1-.04492-.1084V27.97446a.60276.60276,0,0,0-.67871-.68457h-.91211a.15357.15357,0,0,1-.14942-.14941v-.51661a.138.138,0,0,1,.04493-.10742.14687.14687,0,0,1,.10449-.042h.94824a1.91363,1.91363,0,0,1,1.24512.3418,1.3798,1.3798,0,0,1,.41113,1.12207v1.81152a.15349.15349,0,0,1-.042.10547.145.145,0,0,1-.1084.04492h-.708A.15257.15257,0,0,1,23.5203,29.85825Z"/><path class="b" d="M28.19022,26.83969a1.45072,1.45072,0,0,1,.38379,1.09864v1.81152a.14915.14915,0,0,1-.042.10547.14134.14134,0,0,1-.10742.04492H26.78593a.14588.14588,0,0,1-.1045-.04492.14418.14418,0,0,1-.04492-.10547v-.51562a.14152.14152,0,0,1,.04492-.1084.15113.15113,0,0,1,.1045-.042h.77441V27.98618a.71932.71932,0,0,0-.15039-.48633.4914.4914,0,0,0-.38965-.17383h-.46777l-.50977,2.418a.18771.18771,0,0,1-.04883.11133.14132.14132,0,0,1-.10742.04492h-.69043a.151.151,0,0,1-.11035-.04492.11889.11889,0,0,1-.0332-.11133l.58789-2.41211h-.39649a.138.138,0,0,1-.10742-.04492.15331.15331,0,0,1-.042-.11133v-.55176a.138.138,0,0,1,.04492-.10742.14687.14687,0,0,1,.10449-.042h1.92676A1.41906,1.41906,0,0,1,28.19022,26.83969Z"/></svg>