<svg xmlns="http://www.w3.org/2000/svg" viewBox="0 0 33.11981 27.3177"><defs><style>.a{fill:#eee;}.b{fill:#1c1a19;}</style></defs><rect class="a" width="33.11981" height="27.3177"/><path class="b" d="M10.40726,15.74715a.15112.15112,0,0,1-.043-.1084V13.86238a.601.601,0,0,0-.67773-.68359H8.31937a.15331.15331,0,0,1-.11133-.042.145.145,0,0,1-.04492-.1084v-.51562a.145.145,0,0,1,.04492-.1084.15743.15743,0,0,1,.11133-.042H9.71781a1.83763,1.83763,0,0,1,1.24414.36622,1.44214,1.44214,0,0,1,.418,1.13964v1.77051a.145.145,0,0,1-.04492.1084.16351.16351,0,0,1-.11133.041h-.709A.14738.14738,0,0,1,10.40726,15.74715Zm-2.19922,0a.145.145,0,0,1-.04492-.1084v-1.752a.145.145,0,0,1,.04492-.1084.15747.15747,0,0,1,.11133-.042h.707a.15272.15272,0,0,1,.10938.042.14966.14966,0,0,1,.041.1084v1.752a.14847.14847,0,0,1-.041.10449.14362.14362,0,0,1-.10938.04493h-.707A.15677.15677,0,0,1,8.208,15.74715Z"/><path class="b" d="M15.91508,12.40438a.14966.14966,0,0,1,.041.1084V14.085a1.76384,1.76384,0,0,1-.24023.92676,1.62231,1.62231,0,0,1-.65235.61523,1.91354,1.91354,0,0,1-.918.21h-.57617a1.80465,1.80465,0,0,1-.83984-.18652,1.32281,1.32281,0,0,1-.54883-.50391,1.34051,1.34051,0,0,1-.18945-.70214V12.51278a.13819.13819,0,0,1,.04492-.1084.15743.15743,0,0,1,.11133-.042h.6289a.15268.15268,0,0,1,.10938.042.14966.14966,0,0,1,.041.1084l.00586,1.43945a.55581.55581,0,0,0,.457-.24805,1.23023,1.23023,0,0,0,.13085-.62793v-.55176a.16214.16214,0,0,1,.04493-.11718.15482.15482,0,0,1,.11132-.04493h.623a.1405.1405,0,0,1,.10547.04786.15679.15679,0,0,1,.04492.11425V13.089a1.56123,1.56123,0,0,1-.35351,1.08008,1.49065,1.49065,0,0,1-1.002.46191.78755.78755,0,0,0,.30274.29394.86493.86493,0,0,0,.418.10157h.13672a1.19346,1.19346,0,0,0,.55273-.126.96861.96861,0,0,0,.38477-.34766.92707.92707,0,0,0,.13671-.498v-1.542a.14536.14536,0,0,1,.15039-.1504h.63086A.14806.14806,0,0,1,15.91508,12.40438Z"/><path class="b" d="M16.59672,14.3243a.13483.13483,0,0,1-.04493-.10742v-1.7041a.13819.13819,0,0,1,.04493-.1084.15739.15739,0,0,1,.11132-.042h.75a.14806.14806,0,0,1,.10743.042.14966.14966,0,0,1,.041.1084v1.7041a.14849.14849,0,0,1-.041.10449.13945.13945,0,0,1-.10743.04492h-.75A.15327.15327,0,0,1,16.59672,14.3243Z"/><path class="b" d="M18.22172,15.74324a.1442.1442,0,0,1-.04493-.10449v-.5166a.14437.14437,0,0,1,.04493-.10742.14915.14915,0,0,1,.10547-.042H19.833V13.86238a.59955.59955,0,0,0-.67773-.67773h-.76758a.14362.14362,0,0,1-.10937-.04492.16.16,0,0,1-.041-.11133v-.51562a.145.145,0,0,1,.04492-.1084.15.15,0,0,1,.10547-.042h.79688a1.95239,1.95239,0,0,1,1.26953.3545,1.40573,1.40573,0,0,1,.42969,1.1455v1.11036h.209a.14123.14123,0,0,1,.10742.042.14276.14276,0,0,1,.043.10742v.5166a.14227.14227,0,0,1-.043.10449.13658.13658,0,0,1-.10742.04493H18.32719A.14415.14415,0,0,1,18.22172,15.74324Z"/><path class="b" d="M21.79789,15.74715a.145.145,0,0,1-.04492-.1084v-3.126a.145.145,0,0,1,.04492-.1084.15741.15741,0,0,1,.11133-.042h1.416a1.87956,1.87956,0,0,1,1.25586.35157,1.44975,1.44975,0,0,1,.40625,1.15429v1.77051a.14227.14227,0,0,1-.043.10449.13658.13658,0,0,1-.10742.04493h-.707a.15677.15677,0,0,1-.11133-.041.13819.13819,0,0,1-.04492-.1084V13.86238a.60177.60177,0,0,0-.67773-.68359h-.5293v2.46a.14844.14844,0,0,1-.041.10449.1436.1436,0,0,1-.10937.04493h-.707A.15676.15676,0,0,1,21.79789,15.74715Z"/></svg>