<svg xmlns="http://www.w3.org/2000/svg" viewBox="0 0 33.11981 27.3177"><defs><style>.a{fill:#fff;}.b{fill:#2d2a28;}</style></defs><rect class="a" width="33.11981" height="27.3177"/><path class="b" d="M12.193,12.09993a.14155.14155,0,0,1-.04492-.1084V10.21614a.60276.60276,0,0,0-.67871-.68457h-.91211a.15359.15359,0,0,1-.14942-.14942v-.5166a.138.138,0,0,1,.04493-.10742.14687.14687,0,0,1,.10449-.042h.94824a1.91369,1.91369,0,0,1,1.24512.34179A1.37981,1.37981,0,0,1,13.16175,10.18v1.81153a.1535.1535,0,0,1-.042.10547.14505.14505,0,0,1-.1084.04492h-.708A.15257.15257,0,0,1,12.193,12.09993Z"/><path class="b" d="M13.88538,12.09993a.14235.14235,0,0,1-.0459-.1084v-3.126a.13876.13876,0,0,1,.0459-.10742.15257.15257,0,0,1,.11035-.042h.75a.14382.14382,0,0,1,.15039.14941v3.126a.15346.15346,0,0,1-.042.10547.145.145,0,0,1-.1084.04492h-.75A.15257.15257,0,0,1,13.88538,12.09993Z"/><path class="b" d="M15.97523,11.80891a1.47428,1.47428,0,0,1-.40723-1.11328V8.86555a.138.138,0,0,1,.04492-.10742.15257.15257,0,0,1,.11035-.042h1.53028a1.74021,1.74021,0,0,1,1.23632.36523,1.555,1.555,0,0,1,.41407,1.08008c.0039.04.00586.13476.00586.28223,0,.15234-.002.248-.00586.28808a1.5547,1.5547,0,0,1-.42969,1.09473,1.80368,1.80368,0,0,1-1.27441.375A1.70547,1.70547,0,0,1,15.97523,11.80891Zm1.78515-.61231a.68073.68073,0,0,0,.1709-.49511c.00391-.04.00684-.126.00684-.25781,0-.12793-.00293-.21192-.00684-.252a.69909.69909,0,0,0-.17969-.498.73753.73753,0,0,0-.52832-.16211h-.72558v1.14648a.6475.6475,0,0,0,.17968.501.74086.74086,0,0,0,.51661.165A.83384.83384,0,0,0,17.76038,11.1966Z"/><path class="b" d="M22.67737,12.01594a.12683.12683,0,0,1-.03515.08691.11834.11834,0,0,1-.09082.03907h-.73731a.20481.20481,0,0,1-.16211-.05664c-.03222-.03809-.0498-.05957-.05468-.06348l-1.04981-1.51758a.68024.68024,0,0,0-.2041.3291,1.62734,1.62734,0,0,0-.04785.39649v.75a.15828.15828,0,0,1-.04492.11719.15327.15327,0,0,1-.11133.04492H19.5514a.13811.13811,0,0,1-.10449-.04785.16086.16086,0,0,1-.04493-.11426v-.74414a2.1067,2.1067,0,0,1,.1377-.82813,1.51684,1.51684,0,0,1,.52246-.59961l-.6123-.88183a.1252.1252,0,0,1-.03028-.084.11764.11764,0,0,1,.03906-.08691.11918.11918,0,0,1,.08692-.03906h.708a.20277.20277,0,0,1,.1289.03515.44736.44736,0,0,1,.08692.09668l.96679,1.36817a.533.533,0,0,0,.21289-.26465,1.17418,1.17418,0,0,0,.04493-.3418V8.87825a.16118.16118,0,0,1,.042-.11719.138.138,0,0,1,.10742-.04492h.62988a.1449.1449,0,0,1,.11133.04785.15923.15923,0,0,1,.04492.11426V9.6341a1.5886,1.5886,0,0,1-.15234.69922,1.4437,1.4437,0,0,1-.55566.56641l.73242,1.03223A.14861.14861,0,0,1,22.67737,12.01594Z"/><path class="b" d="M10.32972,20.138a.14232.14232,0,0,1-.0459-.1084V16.1595a.14172.14172,0,0,1,.0459-.10743.15255.15255,0,0,1,.11035-.042h.708a.14646.14646,0,0,1,.1084.042.1497.1497,0,0,1,.042.10743v3.87011a.15037.15037,0,0,1-.042.1084.14646.14646,0,0,1-.1084.042h-.708A.15255.15255,0,0,1,10.32972,20.138Z"/><path class="b" d="M15.87562,16.05207a.14574.14574,0,0,1,.042.10743v1.57226a1.76486,1.76486,0,0,1-.24024.92774,1.62188,1.62188,0,0,1-.65332.61425,1.89983,1.89983,0,0,1-.918.21h-.57618a1.80447,1.80447,0,0,1-.83984-.18554,1.32891,1.32891,0,0,1-.54883-.50391,1.34971,1.34971,0,0,1-.18945-.70215V16.1595a.14088.14088,0,0,1,.04492-.10743.15648.15648,0,0,1,.11133-.042h.62988a.14644.14644,0,0,1,.1084.042.1497.1497,0,0,1,.042.10743l.00586,1.44043a.55231.55231,0,0,0,.45606-.249,1.223,1.223,0,0,0,.13183-.627v-.55176A.15828.15828,0,0,1,13.527,16.055a.14946.14946,0,0,1,.11133-.04492h.623a.14013.14013,0,0,1,.10547.04785.16089.16089,0,0,1,.04492.11426v.56348a1.5642,1.5642,0,0,1-.35352,1.08008,1.48633,1.48633,0,0,1-1.002.46191.76774.76774,0,0,0,.30274.29394.85909.85909,0,0,0,.417.10254h.13769a1.19225,1.19225,0,0,0,.55176-.126.96233.96233,0,0,0,.38477-.34766.92787.92787,0,0,0,.13769-.49805v-1.543a.14382.14382,0,0,1,.15039-.14942h.62989A.14272.14272,0,0,1,15.87562,16.05207Z"/><path class="b" d="M19.61487,16.05207a.14966.14966,0,0,1,.042.10743v1.77636a1.30546,1.30546,0,0,1-.41407.98731,2.20471,2.20471,0,0,1-1.16406.52441l-1.53613.32422a.1375.1375,0,0,1-.11719-.03027.131.131,0,0,1-.05078-.10743v-.52246a.15112.15112,0,0,1,.03906-.10449.169.169,0,0,1,.09864-.05664l.666-.16211-.708-2.53808a.79837.79837,0,0,1-.02929-.12012.12171.12171,0,0,1,.12011-.12012h.7793a.14631.14631,0,0,1,.08984.02637.13662.13662,0,0,1,.04883.06348l.59961,2.4541a.8291.8291,0,0,0,.44434-.33887,1.19243,1.19243,0,0,0,.11914-.5791V16.1595a.1497.1497,0,0,1,.042-.10743.14644.14644,0,0,1,.1084-.042h.71387A.14643.14643,0,0,1,19.61487,16.05207Z"/><path class="b" d="M22.62073,16.38508a1.633,1.633,0,0,1,.3418,1.13086,1.7662,1.7662,0,0,1-.45019,1.248,2.38514,2.38514,0,0,1-1.12793.67773l-.2461.07227a.117.117,0,0,1-.11133-.042.17051.17051,0,0,1-.05078-.12012v-.60547a.17039.17039,0,0,1,.042-.11133.29339.29339,0,0,1,.10839-.081l.19141-.07813a.96686.96686,0,0,0,.43555-.32129,1.0054,1.0054,0,0,0,.15918-.6084.81.81,0,0,0-.13282-.52832.64013.64013,0,0,0-.49121-.14941h-.15625l-.80468-.00684a.14421.14421,0,0,1-.10743-.042.14269.14269,0,0,1-.042-.10742V15.32551a.14086.14086,0,0,1,.04492-.10742.14856.14856,0,0,1,.1045-.042h.64843a.14644.14644,0,0,1,.1084.042.14963.14963,0,0,1,.042.10742v.68457h.37207A1.45814,1.45814,0,0,1,22.62073,16.38508Z"/></svg>