<svg xmlns="http://www.w3.org/2000/svg" viewBox="0 0 33.11981 27.3177"><defs><style>.a{fill:#eee;}.b{fill:#1c1a19;}</style></defs><rect class="a" width="33.11981" height="27.3177"/><path class="b" d="M20.42386,8.45223a.138.138,0,0,1-.04492-.10742V6.56844a.60206.60206,0,0,0-.67871-.68359h-.91211a.14308.14308,0,0,1-.10449-.0459.14052.14052,0,0,1-.04493-.1045V5.21883a.14149.14149,0,0,1,.04493-.1084.14687.14687,0,0,1,.10449-.042h.94824a1.91935,1.91935,0,0,1,1.24512.3418,1.38244,1.38244,0,0,1,.41113,1.12207v1.8125a.15114.15114,0,0,1-.042.10449.14153.14153,0,0,1-.1084.04492h-.708A.15257.15257,0,0,1,20.42386,8.45223Z"/><path class="b" d="M24.7471,5.11043a.15033.15033,0,0,1,.042.1084v.51562a.1494.1494,0,0,1-.042.1045.14232.14232,0,0,1-.1084.0459h-.27539a.88.88,0,0,0-.11132.30566,2.11354,2.11354,0,0,0-.03907.42578V8.36238a.1122.1122,0,0,1-.05664.09278.20292.20292,0,0,1-.11719.03906H23.337a.12421.12421,0,0,1-.13184-.13184V6.55086a1.29378,1.29378,0,0,1,.12012-.666H21.95706a.15529.15529,0,0,1-.15039-.1504V5.21883a.145.145,0,0,1,.04492-.1084.14916.14916,0,0,1,.10547-.042H24.6387A.14644.14644,0,0,1,24.7471,5.11043Z"/><path class="b" d="M25.37991,8.45223a.13878.13878,0,0,1-.04589-.10742v-3.126a.14231.14231,0,0,1,.04589-.1084.15258.15258,0,0,1,.11036-.042h1.416a1.888,1.888,0,0,1,1.25684.35059,1.45514,1.45514,0,0,1,.40527,1.15527V8.34481a.14687.14687,0,0,1-.042.10449.13942.13942,0,0,1-.10742.04492h-.708a.15488.15488,0,0,1-.11133-.042.138.138,0,0,1-.04492-.10742V6.56844a.60176.60176,0,0,0-.67773-.68359h-.52833v2.46a.15109.15109,0,0,1-.042.10449.14152.14152,0,0,1-.1084.04492h-.708A.15258.15258,0,0,1,25.37991,8.45223Z"/><path class="b" d="M17.07816,15.8243a.17861.17861,0,0,1-.04785-.12012v-.60547a.18768.18768,0,0,1,.042-.11426.24288.24288,0,0,1,.1084-.07812l.18554-.07715a.88247.88247,0,0,0,.60059-.93066.79143.79143,0,0,0-.13574-.52832.65075.65075,0,0,0-.49414-.14942H15.74027a.14728.14728,0,0,1-.11036-.04492.15181.15181,0,0,1-.04589-.11133v-.55761a.13232.13232,0,0,1,.04882-.10254.16.16,0,0,1,.10743-.042h1.80664a1.45817,1.45817,0,0,1,1.12207.375,1.633,1.633,0,0,1,.34179,1.13086,1.76292,1.76292,0,0,1-.45019,1.248,2.38672,2.38672,0,0,1-1.12793.67871l-.24609.07129A.11079.11079,0,0,1,17.07816,15.8243Zm-1.44825,1.06836a.14232.14232,0,0,1-.04589-.1084V13.8868a.14231.14231,0,0,1,.04589-.1084.15676.15676,0,0,1,.11036-.042h.68457a.14382.14382,0,0,1,.14941.15039v2.89746a.14646.14646,0,0,1-.042.1084.14272.14272,0,0,1-.10742.042h-.68457A.15258.15258,0,0,1,15.62991,16.89266Z"/><path class="b" d="M19.63187,15.74715a.14228.14228,0,0,1-.0459-.1084v-3.126a.14228.14228,0,0,1,.0459-.1084.15668.15668,0,0,1,.11035-.042h.75a.1439.1439,0,0,1,.15039.1504v3.126a.1494.1494,0,0,1-.042.10449.1415.1415,0,0,1-.1084.04493h-.75A.156.156,0,0,1,19.63187,15.74715Z"/><path class="b" d="M22.13577,13.43074c.00879.16407.05664.25977.14454.28809l.168.05957a.14.14,0,0,1,.0752.06934.23982.23982,0,0,1,.02637.11132l.00586.30567a.15633.15633,0,0,1-.08106.14062.29507.29507,0,0,1-.19433.03907l-.2461-.03614a.758.758,0,0,1-.51562-.333,1.19417,1.19417,0,0,1-.2041-.7168v-.8457a.20788.20788,0,0,1,.05078-.1084.12971.12971,0,0,1,.09863-.042h1.21191a1.54835,1.54835,0,0,1,1.17285.40528,1.70768,1.70768,0,0,1,.42383,1.13672c.00391.04.00586.09668.00586.168a1.89864,1.89864,0,0,1-.38379,1.26367,1.51373,1.51373,0,0,1-1.21875.45215H21.53616a.16006.16006,0,0,1-.11132-.041.145.145,0,0,1-.04493-.1084V15.087a.15482.15482,0,0,1,.04493-.11132.15092.15092,0,0,1,.11132-.04493h1.11036a.71873.71873,0,0,0,.501-.17675.70132.70132,0,0,0,.21289-.501c.00391-.04.00586-.10059.00586-.18066,0-.0752-.002-.13379-.00586-.17383a.68215.68215,0,0,0-.207-.501.72372.72372,0,0,0-.50683-.17676h-.51075Z"/><path class="b" d="M24.88773,14.3243a.138.138,0,0,1-.04492-.10742v-1.7041a.14148.14148,0,0,1,.04492-.1084.1608.1608,0,0,1,.11133-.042h.75a.14384.14384,0,0,1,.14941.1504v1.7041a.14527.14527,0,0,1-.042.10449.138.138,0,0,1-.10742.04492h-.75A.15648.15648,0,0,1,24.88773,14.3243Z"/><path class="b" d="M28.64359,15.74324a.151.151,0,0,1-.11133.04493H26.60648a.16007.16007,0,0,1-.11133-.041.145.145,0,0,1-.04492-.1084v-.5166a.14437.14437,0,0,1,.04492-.10742.15648.15648,0,0,1,.11133-.042h.99609l-.05371-1.18262a1.07088,1.07088,0,0,0-.12012-.50391.41275.41275,0,0,0-.37207-.15527H26.751a.14807.14807,0,0,1-.10547-.04492.1442.1442,0,0,1-.04492-.10547v-.50391a.15651.15651,0,0,1,.042-.11133.14353.14353,0,0,1,.1084-.04492h.32324a1.57418,1.57418,0,0,1,1.14356.35449,1.64517,1.64517,0,0,1,.38671,1.13379l.07813,1.83008A.12262.12262,0,0,1,28.64359,15.74324Z"/><path class="b" d="M13.50589,20.01375a1.38689,1.38689,0,0,1,.417,1.11328V22.9327a.14916.14916,0,0,1-.042.10547.145.145,0,0,1-.1084.04492h-.708a.15417.15417,0,0,1-.11036-.042.14153.14153,0,0,1-.04492-.1084V21.15731a.60276.60276,0,0,0-.67871-.68457h-.38965a3.67867,3.67867,0,0,0-.08984.88183l.04785,1.57813a.14153.14153,0,0,1-.04492.1084.1565.1565,0,0,1-.11133.042l-1.27148-.00586a.16084.16084,0,0,1-.11133-.042.1415.1415,0,0,1-.04492-.1084V22.4532a.14147.14147,0,0,1,.04492-.10839.15649.15649,0,0,1,.11133-.042h.48535v-.94238a3.23968,3.23968,0,0,1,.09082-.88769h-.35449a.15649.15649,0,0,1-.11133-.042.14132.14132,0,0,1-.04492-.10742v-.5166a.145.145,0,0,1,.04492-.1084.16006.16006,0,0,1,.11133-.041h1.67382A1.86689,1.86689,0,0,1,13.50589,20.01375Z"/><path class="b" d="M14.64652,23.0411a.1423.1423,0,0,1-.0459-.1084v-3.126a.1423.1423,0,0,1,.0459-.1084.156.156,0,0,1,.11035-.041h.75a.1424.1424,0,0,1,.15039.14941v3.126a.1535.1535,0,0,1-.042.10547.14505.14505,0,0,1-.1084.04492h-.75A.15254.15254,0,0,1,14.64652,23.0411Z"/><path class="b" d="M17.15042,20.72469c.00879.16406.05664.26074.14453.28809l.168.06054a.138.138,0,0,1,.0752.06836.23983.23983,0,0,1,.02637.11133l.00585.30566a.15783.15783,0,0,1-.08105.14161.30105.30105,0,0,1-.19434.03906l-.24609-.03614a.76469.76469,0,0,1-.51562-.333,1.19927,1.19927,0,0,1-.20411-.71778v-.8457a.20807.20807,0,0,1,.05078-.1084.129.129,0,0,1,.09864-.041h1.21191a1.55183,1.55183,0,0,1,1.17285.40429,1.7077,1.7077,0,0,1,.42383,1.13672c.00391.041.00586.09668.00586.169A1.894,1.894,0,0,1,18.90921,22.63a1.5141,1.5141,0,0,1-1.21875.45313H16.55081a.15647.15647,0,0,1-.11132-.042.145.145,0,0,1-.04493-.1084v-.55176a.15482.15482,0,0,1,.04493-.11133.151.151,0,0,1,.11132-.04492h1.11035a.7187.7187,0,0,0,.501-.17676.70133.70133,0,0,0,.21289-.501c.00391-.04.00586-.10058.00586-.17968,0-.07617-.002-.13477-.00586-.17481a.68216.68216,0,0,0-.207-.501.72822.72822,0,0,0-.50684-.17676h-.51074Z"/><path class="b" d="M19.92581,23.0411a.14233.14233,0,0,1-.0459-.1084v-3.126a.14233.14233,0,0,1,.0459-.1084.156.156,0,0,1,.11035-.041h.75a.14242.14242,0,0,1,.1504.14941v3.126a.15347.15347,0,0,1-.042.10547.145.145,0,0,1-.1084.04492h-.75A.15257.15257,0,0,1,19.92581,23.0411Z"/><path class="b" d="M23.31644,23.0411a.1415.1415,0,0,1-.04492-.1084V21.15731a.60276.60276,0,0,0-.67871-.68457H21.6807a.14206.14206,0,0,1-.1045-.04493.14363.14363,0,0,1-.04492-.10449v-.5166a.14153.14153,0,0,1,.04492-.1084.15021.15021,0,0,1,.1045-.041h.94824a1.91369,1.91369,0,0,1,1.24512.34179,1.37981,1.37981,0,0,1,.41113,1.12207V22.9327a.1535.1535,0,0,1-.042.10547.14505.14505,0,0,1-.1084.04492h-.708A.15255.15255,0,0,1,23.31644,23.0411Z"/><path class="b" d="M28.1514,20.01375a1.38689,1.38689,0,0,1,.417,1.11328V22.9327a.14916.14916,0,0,1-.042.10547.145.145,0,0,1-.1084.04492H27.71a.15415.15415,0,0,1-.11035-.042.14153.14153,0,0,1-.04492-.1084V21.15731a.60276.60276,0,0,0-.67871-.68457h-.38965a3.67816,3.67816,0,0,0-.08984.88183l.04785,1.57813a.14153.14153,0,0,1-.04492.1084.15651.15651,0,0,1-.11133.042l-1.27149-.00586a.16083.16083,0,0,1-.11132-.042.1415.1415,0,0,1-.04493-.1084V22.4532a.14148.14148,0,0,1,.04493-.10839.15648.15648,0,0,1,.11132-.042H25.502v-.94238a3.23968,3.23968,0,0,1,.09082-.88769h-.3545a.15648.15648,0,0,1-.11132-.042.14133.14133,0,0,1-.04493-.10742v-.5166a.145.145,0,0,1,.04493-.1084.16005.16005,0,0,1,.11132-.041h1.67383A1.86691,1.86691,0,0,1,28.1514,20.01375Z"/></svg>