<svg xmlns="http://www.w3.org/2000/svg" viewBox="0 0 33.11981 27.3177"><defs><style>.a{fill:#d9d9d9;}.b{fill:#070706;}</style></defs><rect class="a" width="33.11981" height="27.3177"/><path class="b" d="M12.193,12.09927a.14152.14152,0,0,1-.04492-.1084V10.21548a.60276.60276,0,0,0-.67871-.68457h-.91211a.15357.15357,0,0,1-.14942-.14941V8.8649a.138.138,0,0,1,.04493-.10742.14684.14684,0,0,1,.10449-.042h.94824a1.91363,1.91363,0,0,1,1.24512.3418,1.3798,1.3798,0,0,1,.41113,1.12207v1.81152a.15349.15349,0,0,1-.042.10547.14148.14148,0,0,1-.1084.04492h-.708A.15257.15257,0,0,1,12.193,12.09927Z"/><path class="b" d="M13.88541,12.09927a.14232.14232,0,0,1-.0459-.1084V8.8649a.13876.13876,0,0,1,.0459-.10742.15253.15253,0,0,1,.11035-.042h.75a.14385.14385,0,0,1,.1504.14942v3.126a.15345.15345,0,0,1-.042.10547.14148.14148,0,0,1-.1084.04492h-.75A.15257.15257,0,0,1,13.88541,12.09927Z"/><path class="b" d="M15.97526,11.80826A1.47429,1.47429,0,0,1,15.568,10.695V8.8649a.138.138,0,0,1,.04492-.10742.15253.15253,0,0,1,.11035-.042h1.53028a1.74021,1.74021,0,0,1,1.23633.36524A1.555,1.555,0,0,1,18.904,10.1608c.0039.04.00586.13476.00586.28222,0,.15235-.002.248-.00586.28809a1.55649,1.55649,0,0,1-.42969,1.09472,1.80368,1.80368,0,0,1-1.27441.375A1.70547,1.70547,0,0,1,15.97526,11.80826Zm1.78515-.61231a.68074.68074,0,0,0,.1709-.49512c.00391-.04.00684-.126.00684-.25781,0-.12793-.00293-.21191-.00684-.252a.69913.69913,0,0,0-.17969-.498.742.742,0,0,0-.52832-.16211h-.72558V10.6774a.64744.64744,0,0,0,.17969.501.73612.73612,0,0,0,.5166.165A.8339.8339,0,0,0,17.76041,11.196Z"/><path class="b" d="M22.67741,12.01529a.12687.12687,0,0,1-.03516.08691.11832.11832,0,0,1-.09082.03906h-.73731a.19853.19853,0,0,1-.16211-.05761c-.03222-.03711-.0498-.0586-.05468-.0625l-1.04981-1.51758a.67845.67845,0,0,0-.2041.33008,1.60755,1.60755,0,0,0-.04785.3955v.75a.15824.15824,0,0,1-.04492.11719.14942.14942,0,0,1-.11133.04492h-.58789a.14155.14155,0,0,1-.10449-.04785.16083.16083,0,0,1-.04493-.11426V11.235a2.10665,2.10665,0,0,1,.1377-.82812,1.51692,1.51692,0,0,1,.52246-.59961l-.6123-.88184a.127.127,0,0,1-.03028-.084.1176.1176,0,0,1,.03907-.08691.11916.11916,0,0,1,.08691-.03907h.708a.19691.19691,0,0,1,.1289.03614.41876.41876,0,0,1,.08692.0957l.96679,1.36816a.53312.53312,0,0,0,.2129-.26465A1.17447,1.17447,0,0,0,21.694,9.609V8.87662a.162.162,0,0,1,.042-.11622.138.138,0,0,1,.10742-.04492h.62988a.14494.14494,0,0,1,.11133.04785.16021.16021,0,0,1,.04492.11329v.75683a1.58131,1.58131,0,0,1-.15234.69824,1.43308,1.43308,0,0,1-.55566.56739L22.654,11.9313A.14868.14868,0,0,1,22.67741,12.01529Z"/><path class="b" d="M10.32975,20.13736a.14233.14233,0,0,1-.0459-.1084V16.15982a.14086.14086,0,0,1,.0459-.1084.15257.15257,0,0,1,.11035-.042h.708a.14646.14646,0,0,1,.1084.042.14878.14878,0,0,1,.042.1084V20.029a.15039.15039,0,0,1-.042.1084.14646.14646,0,0,1-.1084.042h-.708A.15257.15257,0,0,1,10.32975,20.13736Z"/><path class="b" d="M15.87565,16.05142a.14494.14494,0,0,1,.042.1084v1.57129a1.759,1.759,0,0,1-.24023.92676,1.61781,1.61781,0,0,1-.65332.61523,1.89989,1.89989,0,0,1-.918.21h-.57618a1.80438,1.80438,0,0,1-.83984-.18555,1.32888,1.32888,0,0,1-.54883-.5039,1.34974,1.34974,0,0,1-.18945-.70215V16.15982a.14009.14009,0,0,1,.04492-.1084.15648.15648,0,0,1,.11133-.042H12.738a.14644.14644,0,0,1,.1084.042.14878.14878,0,0,1,.042.1084l.00586,1.43945a.55231.55231,0,0,0,.45606-.249,1.223,1.223,0,0,0,.13183-.627v-.55176a.15826.15826,0,0,1,.04492-.11719.14946.14946,0,0,1,.11133-.04492h.62305a.14008.14008,0,0,1,.10547.04785.16088.16088,0,0,1,.04492.11426V16.735a1.56417,1.56417,0,0,1-.35352,1.08008,1.48629,1.48629,0,0,1-1.002.46192.76126.76126,0,0,0,.30274.29394.85909.85909,0,0,0,.417.10254h.13769a1.1921,1.1921,0,0,0,.55176-.126.95747.95747,0,0,0,.38477-.34863.92309.92309,0,0,0,.13769-.498v-1.541a.14389.14389,0,0,1,.15039-.15039h.62989A.14272.14272,0,0,1,15.87565,16.05142Z"/><path class="b" d="M19.61491,16.05142a.14878.14878,0,0,1,.042.1084v1.77539a1.30547,1.30547,0,0,1-.41406.9873,2.20479,2.20479,0,0,1-1.16407.52442l-1.53613.32422a.1402.1402,0,0,1-.11719-.0293.13414.13414,0,0,1-.05078-.1084V19.111a.15457.15457,0,0,1,.03906-.10449.17574.17574,0,0,1,.09864-.05762l.666-.16113-.708-2.53809a.79869.79869,0,0,1-.02929-.12011.12171.12171,0,0,1,.12011-.12012h.7793a.14078.14078,0,0,1,.08985.02734.13442.13442,0,0,1,.04882.0625l.59961,2.4541a.829.829,0,0,0,.44434-.33886,1.19507,1.19507,0,0,0,.11914-.57911V16.15982a.14878.14878,0,0,1,.042-.1084.14644.14644,0,0,1,.1084-.042h.71387A.14646.14646,0,0,1,19.61491,16.05142Z"/><path class="b" d="M22.62076,16.38443a1.633,1.633,0,0,1,.3418,1.13086,1.76616,1.76616,0,0,1-.45019,1.248,2.38511,2.38511,0,0,1-1.12793.67774l-.2461.07226a.117.117,0,0,1-.11133-.042.17052.17052,0,0,1-.05078-.12011v-.60547a.17045.17045,0,0,1,.042-.11133.30441.30441,0,0,1,.10839-.08106l.19141-.07812a.96693.96693,0,0,0,.43555-.32129,1.00542,1.00542,0,0,0,.15918-.6084.80814.80814,0,0,0-.13282-.52832.64.64,0,0,0-.49121-.15039h-.15625L20.3278,16.861a.14421.14421,0,0,1-.10743-.042.14272.14272,0,0,1-.042-.10742V15.32583a.14007.14007,0,0,1,.04492-.10839.14857.14857,0,0,1,.1045-.042h.64843a.14645.14645,0,0,1,.1084.042.14872.14872,0,0,1,.042.10839v.6836h.37207A1.45814,1.45814,0,0,1,22.62076,16.38443Z"/></svg>