<svg xmlns="http://www.w3.org/2000/svg" viewBox="0 0 33.11981 27.3177"><defs><style>.a{fill:#eee;}.b{fill:#1c1a19;}</style></defs><rect class="a" width="33.11981" height="27.3177"/><path class="b" d="M12.47425,8.75789a.14273.14273,0,0,1,.042.10742v1.57227a1.75889,1.75889,0,0,1-.24024.92676,1.62439,1.62439,0,0,1-.65332.61523,1.89986,1.89986,0,0,1-.918.21h-.57617a1.80447,1.80447,0,0,1-.83984-.18554,1.32461,1.32461,0,0,1-.54883-.50489,1.34614,1.34614,0,0,1-.18945-.70117V8.86531a.138.138,0,0,1,.04492-.10742.15648.15648,0,0,1,.11133-.042h.62988a.14382.14382,0,0,1,.15039.14941l.00586,1.44043a.557.557,0,0,0,.456-.249,1.22784,1.22784,0,0,0,.13184-.627V8.878a.15527.15527,0,0,1,.04492-.11719A.14946.14946,0,0,1,10.237,8.7159h.623a.14013.14013,0,0,1,.10547.04785.15927.15927,0,0,1,.04492.11426v.56348a1.56421,1.56421,0,0,1-.35352,1.08007,1.49059,1.49059,0,0,1-1.00195.46192.76771.76771,0,0,0,.30273.29394.85915.85915,0,0,0,.417.10254h.13769a1.19225,1.19225,0,0,0,.55176-.126.96443.96443,0,0,0,.38476-.34864.923.923,0,0,0,.1377-.498v-1.542a.14272.14272,0,0,1,.042-.10742.14494.14494,0,0,1,.1084-.042h.62988A.14269.14269,0,0,1,12.47425,8.75789Z"/><path class="b" d="M13.18031,12.09969a.14232.14232,0,0,1-.0459-.1084v-3.126a.13879.13879,0,0,1,.0459-.10742.15257.15257,0,0,1,.11035-.042h.75a.14382.14382,0,0,1,.15039.14941v3.126a.15349.15349,0,0,1-.042.10547.145.145,0,0,1-.1084.04492h-.75A.15257.15257,0,0,1,13.18031,12.09969Z"/><path class="b" d="M17.9225,9.08113a1.45072,1.45072,0,0,1,.38379,1.09864v1.81152a.14916.14916,0,0,1-.042.10547.14132.14132,0,0,1-.10742.04492H16.5182a.14584.14584,0,0,1-.10449-.04492.14414.14414,0,0,1-.04492-.10547v-.51562a.14148.14148,0,0,1,.04492-.1084.15109.15109,0,0,1,.10449-.042h.77441V10.22762a.71932.71932,0,0,0-.15039-.48633.4914.4914,0,0,0-.38965-.17383H16.2848l-.50976,2.418a.18777.18777,0,0,1-.04883.11133.14135.14135,0,0,1-.10742.04492h-.69043a.151.151,0,0,1-.11036-.04492.11891.11891,0,0,1-.0332-.11133l.58789-2.41211h-.39648a.138.138,0,0,1-.10742-.04492.15332.15332,0,0,1-.042-.11133V8.86531a.138.138,0,0,1,.04493-.10742.14687.14687,0,0,1,.10449-.042H16.903A1.41908,1.41908,0,0,1,17.9225,9.08113Z"/><path class="b" d="M18.99965,10.67781a.14148.14148,0,0,1-.04493-.10839V8.86531a.138.138,0,0,1,.04493-.10742.15647.15647,0,0,1,.11132-.042h.75a.14376.14376,0,0,1,.14942.14941v1.70411a.14914.14914,0,0,1-.042.10546.14137.14137,0,0,1-.10743.04493h-.75A.15648.15648,0,0,1,18.99965,10.67781Z"/><path class="b" d="M24.55824,8.75789a.14272.14272,0,0,1,.042.10742v1.57227a1.759,1.759,0,0,1-.24023.92676,1.62439,1.62439,0,0,1-.65332.61523,1.89986,1.89986,0,0,1-.918.21h-.57617a1.80451,1.80451,0,0,1-.83985-.18554,1.32467,1.32467,0,0,1-.54883-.50489,1.34623,1.34623,0,0,1-.18945-.70117V8.86531a.138.138,0,0,1,.04492-.10742.15651.15651,0,0,1,.11133-.042h.62988a.14382.14382,0,0,1,.15039.14941l.00586,1.44043a.55708.55708,0,0,0,.45606-.249,1.22785,1.22785,0,0,0,.13183-.627V8.878a.15524.15524,0,0,1,.04493-.11719.14942.14942,0,0,1,.11132-.04492h.623a.14011.14011,0,0,1,.10547.04785.15927.15927,0,0,1,.04492.11426v.56348a1.56421,1.56421,0,0,1-.35351,1.08007,1.49062,1.49062,0,0,1-1.002.46192.76774.76774,0,0,0,.30274.29394.85911.85911,0,0,0,.417.10254h.13769a1.19222,1.19222,0,0,0,.55176-.126.96446.96446,0,0,0,.38477-.34864.923.923,0,0,0,.13769-.498v-1.542a.14273.14273,0,0,1,.042-.10742.14492.14492,0,0,1,.10839-.042h.62989A.14271.14271,0,0,1,24.55824,8.75789Z"/><path class="b" d="M4.26039,17.97176a.14148.14148,0,0,1-.04492-.1084v-1.7041a.14082.14082,0,0,1,.04492-.10742.15648.15648,0,0,1,.11133-.042h.75a.14272.14272,0,0,1,.10742.042.14572.14572,0,0,1,.042.10742v1.7041a.14915.14915,0,0,1-.042.10547.138.138,0,0,1-.10742.04492h-.75A.15648.15648,0,0,1,4.26039,17.97176Z"/><path class="b" d="M8.24769,16.38485a1.633,1.633,0,0,1,.3418,1.13085,1.76615,1.76615,0,0,1-.4502,1.24805,2.38506,2.38506,0,0,1-1.12793.67774l-.24609.07226a.117.117,0,0,1-.11133-.042.17048.17048,0,0,1-.05078-.12012v-.60547a.17041.17041,0,0,1,.042-.11132.29345.29345,0,0,1,.1084-.08106l.19141-.07812a.96692.96692,0,0,0,.43554-.32129,1.00542,1.00542,0,0,0,.15918-.6084.81.81,0,0,0-.13281-.52832.64013.64013,0,0,0-.49121-.14942H6.75941l-.80469-.00683a.14421.14421,0,0,1-.10742-.042.14273.14273,0,0,1-.042-.10743V15.32528a.14088.14088,0,0,1,.04492-.10743.14853.14853,0,0,1,.10449-.042h.64844a.14644.14644,0,0,1,.1084.042.1497.1497,0,0,1,.042.10743v.68457h.37207A1.45816,1.45816,0,0,1,8.24769,16.38485Z"/><path class="b" d="M12.37465,19.30965a.12511.12511,0,0,1-.03516.08691.11834.11834,0,0,1-.09082.03907h-.73731a.2015.2015,0,0,1-.16211-.05664c-.03222-.03809-.0498-.05957-.05468-.06348l-1.04981-1.51758a.6785.6785,0,0,0-.2041.33008,1.61342,1.61342,0,0,0-.04785.39551v.75a.15824.15824,0,0,1-.04492.11718.14943.14943,0,0,1-.11133.04493H9.24867a.13811.13811,0,0,1-.10449-.04785.16086.16086,0,0,1-.04493-.11426v-.74414a2.10144,2.10144,0,0,1,.1377-.82715,1.51889,1.51889,0,0,1,.52246-.60059l-.6123-.88183a.1252.1252,0,0,1-.03028-.084.13419.13419,0,0,1,.126-.126h.708a.19691.19691,0,0,1,.1289.03613.419.419,0,0,1,.08692.0957l.96679,1.36817a.53523.53523,0,0,0,.21289-.26368,1.18114,1.18114,0,0,0,.04493-.34277V16.172a.16433.16433,0,0,1,.042-.11718.138.138,0,0,1,.10742-.04492h.62988a.1449.1449,0,0,1,.11133.04785.16081.16081,0,0,1,.04492.11425v.75586a1.58559,1.58559,0,0,1-.15234.69922,1.43748,1.43748,0,0,1-.55566.56641l.73242,1.03223A.15088.15088,0,0,1,12.37465,19.30965Z"/><path class="b" d="M14.6764,19.39363a.138.138,0,0,1-.04492-.10742V17.50985a.60276.60276,0,0,0-.67871-.68457h-.91211a.142.142,0,0,1-.10449-.04493.14051.14051,0,0,1-.04492-.10449v-.5166a.14086.14086,0,0,1,.04492-.10742.14687.14687,0,0,1,.10449-.042h.94824a1.91931,1.91931,0,0,1,1.24512.34179,1.38245,1.38245,0,0,1,.41113,1.12207v1.8125a.15289.15289,0,0,1-.042.10449.14149.14149,0,0,1-.1084.04493h-.708A.15258.15258,0,0,1,14.6764,19.39363Z"/><path class="b" d="M16.71058,19.10555a1.43564,1.43564,0,0,1-.417-1.10352V16.15926a.14086.14086,0,0,1,.04492-.10742.14691.14691,0,0,1,.10449-.042h.624a.15651.15651,0,0,1,.11133.042.14086.14086,0,0,1,.04492.10742v1.8125a.6212.6212,0,0,0,.19531.501.81257.81257,0,0,0,.543.165q.67089,0,.67773-.64161a1.35645,1.35645,0,0,0,.00293-.16211c-.00195-.06836-.00293-.12011-.00293-.15625V17.546a1.07815,1.07815,0,0,0-.11425-.52539.341.341,0,0,0-.31153-.18262.71577.71577,0,0,0-.17676.02344.58288.58288,0,0,0-.15332.06054.19762.19762,0,0,1-.05371.01172.12764.12764,0,0,1-.09375-.03906.13628.13628,0,0,1-.03906-.09863v-.47461a.2355.2355,0,0,1,.11426-.22168,1.1312,1.1312,0,0,1,.57617-.11426,1.16023,1.16023,0,0,1,.94531.3457,1.69957,1.69957,0,0,1,.29688,1.06446v.62988q-.06592,1.47071-1.668,1.4707A1.76729,1.76729,0,0,1,16.71058,19.10555Z"/><path class="b" d="M22.236,19.3907a.15092.15092,0,0,1-.11132.04493H20.19886a.15648.15648,0,0,1-.11132-.042.14133.14133,0,0,1-.04493-.10742v-.5166a.145.145,0,0,1,.04493-.1084.16005.16005,0,0,1,.11132-.041h.9961l-.05371-1.18262a1.071,1.071,0,0,0-.12012-.50391.41316.41316,0,0,0-.37207-.15625H20.3434a.14414.14414,0,0,1-.10547-.04492A.142.142,0,0,1,20.193,16.628V16.1241a.15648.15648,0,0,1,.042-.11132.14005.14005,0,0,1,.1084-.04493h.32324a1.57838,1.57838,0,0,1,1.14355.35352,1.64606,1.64606,0,0,1,.38672,1.13476l.07813,1.83008A.12471.12471,0,0,1,22.236,19.3907Z"/><path class="b" d="M24.4264,19.39363a.138.138,0,0,1-.04492-.10742V17.50985a.60276.60276,0,0,0-.67871-.68457h-.91211a.142.142,0,0,1-.10449-.04493.14051.14051,0,0,1-.04492-.10449v-.5166a.14086.14086,0,0,1,.04492-.10742.14687.14687,0,0,1,.10449-.042h.94824a1.91931,1.91931,0,0,1,1.24512.34179,1.38245,1.38245,0,0,1,.41113,1.12207v1.8125a.15289.15289,0,0,1-.042.10449.14149.14149,0,0,1-.1084.04493h-.708A.15258.15258,0,0,1,24.4264,19.39363Z"/><path class="b" d="M26.859,17.07723c.00879.16406.05664.26074.14453.28906l.168.05957a.14.14,0,0,1,.0752.06934.23315.23315,0,0,1,.02636.11035l.00586.30566a.15784.15784,0,0,1-.081.1416.2951.2951,0,0,1-.19434.03907l-.24609-.03614a.76133.76133,0,0,1-.51563-.333,1.19617,1.19617,0,0,1-.2041-.7168v-.84668a.20842.20842,0,0,1,.05078-.10742.12642.12642,0,0,1,.09864-.042h1.21191a1.54836,1.54836,0,0,1,1.17285.40527,1.70379,1.70379,0,0,1,.42383,1.13672c.00391.04.00586.0957.00586.168a1.894,1.894,0,0,1-.38379,1.26269,1.51093,1.51093,0,0,1-1.21875.45313H26.25941a.15652.15652,0,0,1-.11133-.042.14136.14136,0,0,1-.04492-.10742v-.55273a.15505.15505,0,0,1,.15625-.15625h1.11035a.71875.71875,0,0,0,.501-.17676.6996.6996,0,0,0,.21289-.501c.00391-.04.00586-.09961.00586-.17968,0-.07618-.002-.13379-.00586-.17383a.6822.6822,0,0,0-.207-.501.72373.72373,0,0,0-.50684-.17676H26.859Z"/></svg>