<svg xmlns="http://www.w3.org/2000/svg" viewBox="0 0 33.11981 27.3177"><defs><style>.a{fill:#fff;}.b{fill:#2d2a28;}</style></defs><rect class="a" width="33.11981" height="27.3177"/><path class="b" d="M20.42386,8.45246a.138.138,0,0,1-.04492-.10742V6.56868a.60207.60207,0,0,0-.67871-.6836h-.91211a.143.143,0,0,1-.10449-.0459.14048.14048,0,0,1-.04493-.10449V5.21907a.14149.14149,0,0,1,.04493-.1084.14687.14687,0,0,1,.10449-.042h.94824a1.91935,1.91935,0,0,1,1.24512.34179,1.38245,1.38245,0,0,1,.41113,1.12207V8.345a.15114.15114,0,0,1-.042.10449.1415.1415,0,0,1-.1084.04493h-.708A.15258.15258,0,0,1,20.42386,8.45246Z"/><path class="b" d="M24.7471,5.11067a.15033.15033,0,0,1,.042.1084v.51562a.14936.14936,0,0,1-.042.10449.14228.14228,0,0,1-.1084.0459h-.27539a.88015.88015,0,0,0-.11132.30567,2.11354,2.11354,0,0,0-.03907.42578V8.36262a.1122.1122,0,0,1-.05664.09277.20293.20293,0,0,1-.11719.03907H23.337a.12422.12422,0,0,1-.13184-.13184V6.5511a1.29385,1.29385,0,0,1,.12012-.666H21.95706a.15529.15529,0,0,1-.15039-.15039V5.21907a.145.145,0,0,1,.04492-.1084.14916.14916,0,0,1,.10547-.042H24.6387A.14644.14644,0,0,1,24.7471,5.11067Z"/><path class="b" d="M25.37991,8.45246A.13875.13875,0,0,1,25.334,8.345v-3.126a.14231.14231,0,0,1,.04589-.1084.15258.15258,0,0,1,.11036-.042h1.416a1.888,1.888,0,0,1,1.25684.35058,1.45515,1.45515,0,0,1,.40527,1.15527V8.345a.14687.14687,0,0,1-.042.10449.1394.1394,0,0,1-.10742.04493h-.708a.15489.15489,0,0,1-.11133-.042.138.138,0,0,1-.04492-.10742V6.56868a.60177.60177,0,0,0-.67773-.6836h-.52833v2.46a.15109.15109,0,0,1-.042.10449.14149.14149,0,0,1-.1084.04493h-.708A.15258.15258,0,0,1,25.37991,8.45246Z"/><path class="b" d="M17.07816,15.82453a.17858.17858,0,0,1-.04785-.12011V15.099a.18766.18766,0,0,1,.042-.11426.24288.24288,0,0,1,.1084-.07812l.18554-.07715a.88247.88247,0,0,0,.60059-.93067.79147.79147,0,0,0-.13574-.52832A.65075.65075,0,0,0,17.337,13.221H15.74027a.14728.14728,0,0,1-.11036-.04492.15184.15184,0,0,1-.04589-.11133v-.55762a.13232.13232,0,0,1,.04882-.10254.16007.16007,0,0,1,.10743-.042h1.80664a1.45817,1.45817,0,0,1,1.12207.375,1.633,1.633,0,0,1,.34179,1.13086,1.76293,1.76293,0,0,1-.45019,1.248,2.38672,2.38672,0,0,1-1.12793.67871l-.24609.07129A.11078.11078,0,0,1,17.07816,15.82453Zm-1.44825,1.06836a.1423.1423,0,0,1-.04589-.10839V13.887a.1423.1423,0,0,1,.04589-.10839.15672.15672,0,0,1,.11036-.042h.68457a.14384.14384,0,0,1,.14941.15039V16.7845a.14643.14643,0,0,1-.042.10839.14273.14273,0,0,1-.10742.042h-.68457A.15258.15258,0,0,1,15.62991,16.89289Z"/><path class="b" d="M19.63187,15.74739a.1423.1423,0,0,1-.0459-.1084V12.513a.1423.1423,0,0,1,.0459-.1084.15671.15671,0,0,1,.11035-.042h.75a.14389.14389,0,0,1,.15039.15039v3.126a.14942.14942,0,0,1-.042.10449.14153.14153,0,0,1-.1084.04492h-.75A.156.156,0,0,1,19.63187,15.74739Z"/><path class="b" d="M22.13577,13.431c.00879.16406.05664.25977.14454.28809l.168.05957a.13989.13989,0,0,1,.0752.06933.23983.23983,0,0,1,.02637.11133l.00586.30566a.15634.15634,0,0,1-.08106.14063.29507.29507,0,0,1-.19433.03906l-.2461-.03613a.758.758,0,0,1-.51562-.333,1.19412,1.19412,0,0,1-.2041-.7168V12.513a.20792.20792,0,0,1,.05078-.1084.12973.12973,0,0,1,.09863-.042h1.21191a1.54839,1.54839,0,0,1,1.17285.40527,1.7077,1.7077,0,0,1,.42383,1.13672c.00391.04.00586.09668.00586.168a1.8986,1.8986,0,0,1-.38379,1.26367,1.51373,1.51373,0,0,1-1.21875.45215H21.53616a.16005.16005,0,0,1-.11132-.041.145.145,0,0,1-.04493-.1084v-.55176a.15484.15484,0,0,1,.04493-.11133.151.151,0,0,1,.11132-.04492h1.11036a.71869.71869,0,0,0,.501-.17676.70128.70128,0,0,0,.21289-.501c.00391-.04.00586-.10059.00586-.18067,0-.07519-.002-.13379-.00586-.17383a.68212.68212,0,0,0-.207-.501.72367.72367,0,0,0-.50683-.17676h-.51075Z"/><path class="b" d="M24.88773,14.32453a.138.138,0,0,1-.04492-.10742V12.513a.1415.1415,0,0,1,.04492-.1084.16084.16084,0,0,1,.11133-.042h.75a.14382.14382,0,0,1,.14941.15039v1.7041a.14525.14525,0,0,1-.042.10449.138.138,0,0,1-.10742.04493h-.75A.15649.15649,0,0,1,24.88773,14.32453Z"/><path class="b" d="M28.64359,15.74348a.151.151,0,0,1-.11133.04492H26.60648a.16006.16006,0,0,1-.11133-.041.145.145,0,0,1-.04492-.1084v-.5166a.14439.14439,0,0,1,.04492-.10743.15648.15648,0,0,1,.11133-.042h.99609l-.05371-1.18262a1.07086,1.07086,0,0,0-.12012-.5039.41273.41273,0,0,0-.37207-.15527H26.751a.148.148,0,0,1-.10547-.04493.14418.14418,0,0,1-.04492-.10547v-.5039a.15648.15648,0,0,1,.042-.11133.14349.14349,0,0,1,.1084-.04492h.32324a1.57414,1.57414,0,0,1,1.14356.35449,1.64517,1.64517,0,0,1,.38671,1.13379l.07813,1.83008A.12263.12263,0,0,1,28.64359,15.74348Z"/><path class="b" d="M13.50589,20.014a1.38687,1.38687,0,0,1,.417,1.11328v1.80566a.14915.14915,0,0,1-.042.10547.145.145,0,0,1-.1084.04492h-.708a.15417.15417,0,0,1-.11036-.042.14152.14152,0,0,1-.04492-.1084V21.15754a.60276.60276,0,0,0-.67871-.68457h-.38965a3.67876,3.67876,0,0,0-.08984.88184l.04785,1.57812a.14152.14152,0,0,1-.04492.1084.1565.1565,0,0,1-.11133.042l-1.27148-.00586a.16079.16079,0,0,1-.11133-.042.14148.14148,0,0,1-.04492-.1084v-.47363a.1415.1415,0,0,1,.04492-.1084.15648.15648,0,0,1,.11133-.042h.48535v-.94238a3.2398,3.2398,0,0,1,.09082-.8877h-.35449a.15648.15648,0,0,1-.11133-.042.14134.14134,0,0,1-.04492-.10742V19.807a.145.145,0,0,1,.04492-.1084.16.16,0,0,1,.11133-.041h1.67382A1.86684,1.86684,0,0,1,13.50589,20.014Z"/><path class="b" d="M14.64652,23.04133a.14228.14228,0,0,1-.0459-.1084V19.807a.14228.14228,0,0,1,.0459-.1084.15593.15593,0,0,1,.11035-.041h.75a.14242.14242,0,0,1,.15039.14942v3.126a.15349.15349,0,0,1-.042.10547.145.145,0,0,1-.1084.04492h-.75A.15254.15254,0,0,1,14.64652,23.04133Z"/><path class="b" d="M17.15042,20.72493c.00879.16406.05664.26074.14453.28808l.168.06055a.138.138,0,0,1,.0752.06836.23983.23983,0,0,1,.02637.11133l.00585.30566a.15782.15782,0,0,1-.08105.1416.301.301,0,0,1-.19434.03906l-.24609-.03613a.7647.7647,0,0,1-.51562-.333,1.19924,1.19924,0,0,1-.20411-.71777V19.807a.208.208,0,0,1,.05078-.1084.129.129,0,0,1,.09864-.041h1.21191a1.55184,1.55184,0,0,1,1.17285.4043,1.70768,1.70768,0,0,1,.42383,1.13672c.00391.041.00586.09668.00586.16894a1.89407,1.89407,0,0,1-.38379,1.2627,1.51409,1.51409,0,0,1-1.21875.45312H16.55081a.15647.15647,0,0,1-.11132-.042.145.145,0,0,1-.04493-.1084v-.55175a.15482.15482,0,0,1,.04493-.11133.15091.15091,0,0,1,.11132-.04492h1.11035a.71875.71875,0,0,0,.501-.17676.70136.70136,0,0,0,.21289-.501c.00391-.04.00586-.10059.00586-.17969,0-.07617-.002-.13476-.00586-.1748a.6822.6822,0,0,0-.207-.501.72822.72822,0,0,0-.50684-.17676h-.51074Z"/><path class="b" d="M19.92581,23.04133a.14232.14232,0,0,1-.0459-.1084V19.807a.14232.14232,0,0,1,.0459-.1084.156.156,0,0,1,.11035-.041h.75a.14243.14243,0,0,1,.1504.14942v3.126a.15345.15345,0,0,1-.042.10547.145.145,0,0,1-.1084.04492h-.75A.15257.15257,0,0,1,19.92581,23.04133Z"/><path class="b" d="M23.31644,23.04133a.14148.14148,0,0,1-.04492-.1084V21.15754a.60277.60277,0,0,0-.67871-.68457H21.6807a.14209.14209,0,0,1-.1045-.04492.14363.14363,0,0,1-.04492-.10449V19.807a.14152.14152,0,0,1,.04492-.1084.15017.15017,0,0,1,.1045-.041h.94824a1.91363,1.91363,0,0,1,1.24512.3418,1.3798,1.3798,0,0,1,.41113,1.12207v1.81152a.15349.15349,0,0,1-.042.10547.145.145,0,0,1-.1084.04492h-.708A.15255.15255,0,0,1,23.31644,23.04133Z"/><path class="b" d="M28.1514,20.014a1.38687,1.38687,0,0,1,.417,1.11328v1.80566a.14915.14915,0,0,1-.042.10547.145.145,0,0,1-.1084.04492H27.71a.15415.15415,0,0,1-.11035-.042.14152.14152,0,0,1-.04492-.1084V21.15754A.60276.60276,0,0,0,26.876,20.473h-.38965a3.67825,3.67825,0,0,0-.08984.88184l.04785,1.57812a.14152.14152,0,0,1-.04492.1084.15651.15651,0,0,1-.11133.042l-1.27149-.00586a.16078.16078,0,0,1-.11132-.042.14149.14149,0,0,1-.04493-.1084v-.47363a.1415.1415,0,0,1,.04493-.1084.15647.15647,0,0,1,.11132-.042H25.502v-.94238a3.2398,3.2398,0,0,1,.09082-.8877h-.3545a.15647.15647,0,0,1-.11132-.042.14135.14135,0,0,1-.04493-.10742V19.807a.145.145,0,0,1,.04493-.1084.16.16,0,0,1,.11132-.041h1.67383A1.86685,1.86685,0,0,1,28.1514,20.014Z"/></svg>