<svg xmlns="http://www.w3.org/2000/svg" viewBox="0 0 33.11981 35.69679"><defs><style>.a{fill:#eee;}.b{fill:#1c1a19;}</style></defs><rect class="a" width="33.11981" height="35.69679"/><path class="b" d="M17.75921,6.55281a.138.138,0,0,1-.04492-.10742V4.74129a.14153.14153,0,0,1,.04492-.1084.16087.16087,0,0,1,.11133-.042h.75a.14382.14382,0,0,1,.14941.15039v1.7041a.14525.14525,0,0,1-.042.10449.138.138,0,0,1-.10742.04493h-.75A.15652.15652,0,0,1,17.75921,6.55281Z"/><path class="b" d="M19.46331,7.97567a.14153.14153,0,0,1-.04492-.1084V7.31551a.151.151,0,0,1,.04492-.11133.14728.14728,0,0,1,.11036-.04492h.87011a.63959.63959,0,0,0,.72071-.67773c.0039-.04883.00586-.1084.00586-.18067,0-.06738-.002-.126-.00586-.17383a.63912.63912,0,0,0-.72071-.67773h-.87011a.14728.14728,0,0,1-.11036-.04492.151.151,0,0,1-.04492-.11133V4.74129a.14153.14153,0,0,1,.04492-.1084.15676.15676,0,0,1,.11036-.042h.90039a1.459,1.459,0,0,1,1.66211,1.542c.0039.044.00586.10059.00586.168a1.86773,1.86773,0,0,1-.39258,1.2666,1.61406,1.61406,0,0,1-1.27539.44922h-.90039A.156.156,0,0,1,19.46331,7.97567Z"/><path class="b" d="M24.33538,7.97567a.14153.14153,0,0,1-.04492-.1084V6.0909a.60207.60207,0,0,0-.67871-.68359h-.91211a.14585.14585,0,0,1-.10449-.04493.14417.14417,0,0,1-.04492-.10546V4.74129a.14153.14153,0,0,1,.04492-.1084.15114.15114,0,0,1,.10449-.042h.94824a1.91931,1.91931,0,0,1,1.24512.3418,1.38241,1.38241,0,0,1,.41113,1.12207v1.8125a.14937.14937,0,0,1-.042.10449.14152.14152,0,0,1-.1084.04492h-.708A.156.156,0,0,1,24.33538,7.97567Z"/><path class="b" d="M28.65863,4.63289a.15039.15039,0,0,1,.042.1084v.51563a.15348.15348,0,0,1-.042.10546.145.145,0,0,1-.1084.04493h-.27539a.88745.88745,0,0,0-.11133.30566,2.12044,2.12044,0,0,0-.03906.42578v1.7461a.115.115,0,0,1-.05664.09375.20888.20888,0,0,1-.11719.03808h-.70215a.1229.1229,0,0,1-.13184-.13183V6.07332a1.29378,1.29378,0,0,1,.12012-.666H25.86859a.15349.15349,0,0,1-.15039-.15039V4.74129a.145.145,0,0,1,.04492-.1084.15349.15349,0,0,1,.10547-.042h2.68164A.15039.15039,0,0,1,28.65863,4.63289Z"/><path class="b" d="M10.3432,12.24227a1.38687,1.38687,0,0,1,.417,1.11328v1.80566a.14915.14915,0,0,1-.042.10547.145.145,0,0,1-.1084.04492h-.708a.15415.15415,0,0,1-.11035-.042.14152.14152,0,0,1-.04492-.1084V13.38582a.60277.60277,0,0,0-.67871-.68457H8.67816a3.67874,3.67874,0,0,0-.08985.88184l.04786,1.57812a.14149.14149,0,0,1-.04493.1084.15647.15647,0,0,1-.11132.042l-1.27149-.00586a.16083.16083,0,0,1-.11133-.042.14152.14152,0,0,1-.04492-.1084v-.47363a.14153.14153,0,0,1,.04492-.1084.16087.16087,0,0,1,.11133-.042h.48535V13.589a3.24019,3.24019,0,0,1,.09082-.8877H7.43011a.15651.15651,0,0,1-.11133-.042.14138.14138,0,0,1-.04492-.10742v-.5166a.1414.1414,0,0,1,.04492-.10743.15651.15651,0,0,1,.11133-.042H9.10394A1.86685,1.86685,0,0,1,10.3432,12.24227Z"/><path class="b" d="M13.02581,15.26961a.14152.14152,0,0,1-.04492-.1084V13.38582a.60276.60276,0,0,0-.67871-.68457h-.91211a.15355.15355,0,0,1-.14941-.14941v-.5166a.138.138,0,0,1,.04492-.10743.14687.14687,0,0,1,.10449-.042h.94824a1.91359,1.91359,0,0,1,1.24512.3418,1.37977,1.37977,0,0,1,.41113,1.12207v1.81152a.15344.15344,0,0,1-.042.10547.145.145,0,0,1-.1084.04492h-.708A.15258.15258,0,0,1,13.02581,15.26961Z"/><path class="b" d="M14.71722,15.26961a.14232.14232,0,0,1-.0459-.1084v-3.126a.1388.1388,0,0,1,.0459-.10743.15257.15257,0,0,1,.11035-.042h.75a.14382.14382,0,0,1,.15039.14942v3.126a.15349.15349,0,0,1-.042.10547.145.145,0,0,1-.1084.04492h-.75A.15257.15257,0,0,1,14.71722,15.26961Z"/><path class="b" d="M20.30023,11.92781a.14273.14273,0,0,1,.042.10743V13.6075a1.759,1.759,0,0,1-.24023.92676,1.62439,1.62439,0,0,1-.65332.61523,1.89978,1.89978,0,0,1-.918.21h-.57617a1.80451,1.80451,0,0,1-.83985-.18554,1.32465,1.32465,0,0,1-.54883-.50488,1.34629,1.34629,0,0,1-.18945-.70118V12.03524a.138.138,0,0,1,.04492-.10743.1565.1565,0,0,1,.11133-.042h.62988a.14382.14382,0,0,1,.15039.14942l.00586,1.44043a.55711.55711,0,0,0,.45606-.249,1.22785,1.22785,0,0,0,.13183-.62695v-.55176a.15524.15524,0,0,1,.04493-.11719.14942.14942,0,0,1,.11132-.04492H18.686a.14011.14011,0,0,1,.10547.04785.15927.15927,0,0,1,.04492.11426v.56348a1.56425,1.56425,0,0,1-.35351,1.08008,1.49065,1.49065,0,0,1-1.002.46191.76783.76783,0,0,0,.30274.294.85922.85922,0,0,0,.417.10253h.13769a1.19222,1.19222,0,0,0,.55176-.126.96457.96457,0,0,0,.38477-.34863.92312.92312,0,0,0,.13769-.498v-1.542a.1427.1427,0,0,1,.042-.10743.14492.14492,0,0,1,.10839-.042h.62989A.14272.14272,0,0,1,20.30023,11.92781Z"/><path class="b" d="M22.45355,15.34774a.18048.18048,0,0,1-.04785-.12012v-.60645a.18509.18509,0,0,1,.042-.11328.23569.23569,0,0,1,.1084-.07812l.18554-.07813a.88247.88247,0,0,0,.60059-.93066.78669.78669,0,0,0-.13574-.52735.65066.65066,0,0,0-.49414-.15039H21.11566a.15505.15505,0,0,1-.15625-.15625v-.55761a.129.129,0,0,1,.04883-.10157.15544.15544,0,0,1,.10742-.042H22.9223a1.45817,1.45817,0,0,1,1.12207.375,1.633,1.633,0,0,1,.3418,1.13086,1.76617,1.76617,0,0,1-.4502,1.24805,2.385,2.385,0,0,1-1.12793.67773l-.24609.07227A.1108.1108,0,0,1,22.45355,15.34774Zm-1.44824,1.06738a.13874.13874,0,0,1-.0459-.10742V13.40926a.13873.13873,0,0,1,.0459-.10742.15254.15254,0,0,1,.11035-.042h.68457a.14376.14376,0,0,1,.14941.14941V16.3077a.14376.14376,0,0,1-.14941.14941h-.68457A.15254.15254,0,0,1,21.00531,16.41512Z"/><path class="b" d="M28.15081,12.24227a1.38688,1.38688,0,0,1,.417,1.11328v1.80566a.14916.14916,0,0,1-.042.10547.145.145,0,0,1-.10839.04492h-.708a.15413.15413,0,0,1-.11035-.042.14149.14149,0,0,1-.04493-.1084V13.38582a.60276.60276,0,0,0-.67871-.68457h-.38964a3.67874,3.67874,0,0,0-.08985.88184l.04785,1.57812a.14152.14152,0,0,1-.04492.1084.15648.15648,0,0,1-.11133.042l-1.27148-.00586a.16079.16079,0,0,1-.11133-.042.14152.14152,0,0,1-.04492-.1084v-.47363a.14153.14153,0,0,1,.04492-.1084.16084.16084,0,0,1,.11133-.042h.48535V13.589a3.24019,3.24019,0,0,1,.09082-.8877h-.35449a.15648.15648,0,0,1-.11133-.042.14134.14134,0,0,1-.04492-.10742v-.5166a.14136.14136,0,0,1,.04492-.10743.15648.15648,0,0,1,.11133-.042h1.67383A1.86682,1.86682,0,0,1,28.15081,12.24227Z"/><path class="b" d="M16.8471,21.14168a.14152.14152,0,0,1-.04492-.1084v-1.7041a.14086.14086,0,0,1,.04492-.10742.15651.15651,0,0,1,.11133-.042h.75a.14269.14269,0,0,1,.10742.042.14572.14572,0,0,1,.042.10742v1.7041a.14916.14916,0,0,1-.042.10547.138.138,0,0,1-.10742.04492h-.75A.15651.15651,0,0,1,16.8471,21.14168Z"/><path class="b" d="M21.65277,19.53621a1.38689,1.38689,0,0,1,.417,1.11328v1.80664a.14856.14856,0,0,1-.042.1045.14153.14153,0,0,1-.1084.04492h-.708a.15415.15415,0,0,1-.11035-.042.138.138,0,0,1-.04492-.10743V20.67977a.60276.60276,0,0,0-.67871-.68457h-.38965a3.68167,3.68167,0,0,0-.08985.88281l.04786,1.57812a.138.138,0,0,1-.04493.10743.15647.15647,0,0,1-.11132.042L18.518,22.59969a.15651.15651,0,0,1-.11133-.042.14153.14153,0,0,1-.04492-.1084v-.47363a.14152.14152,0,0,1,.04492-.1084.16083.16083,0,0,1,.11133-.042h.48535v-.94141a3.24327,3.24327,0,0,1,.09082-.88867h-.35449a.16006.16006,0,0,1-.11133-.041.145.145,0,0,1-.04492-.1084v-.5166a.1444.1444,0,0,1,.04492-.10742.15651.15651,0,0,1,.11133-.042h1.67383A1.86691,1.86691,0,0,1,21.65277,19.53621Z"/><path class="b" d="M22.67913,22.56063a.14365.14365,0,0,1-.04492-.1045v-.5166a.14153.14153,0,0,1,.04492-.1084.15021.15021,0,0,1,.1045-.041h1.50683V20.67977a.59947.59947,0,0,0-.67871-.67774h-.76758a.14228.14228,0,0,1-.10839-.0459.15668.15668,0,0,1-.042-.11035v-.5166a.1444.1444,0,0,1,.04492-.10742.14916.14916,0,0,1,.10547-.042H23.642a1.957,1.957,0,0,1,1.26855.35351,1.40484,1.40484,0,0,1,.42969,1.14649v1.11035h.21a.14232.14232,0,0,1,.14941.14941v.5166a.14856.14856,0,0,1-.042.1045.138.138,0,0,1-.10742.04492h-2.7666A.14209.14209,0,0,1,22.67913,22.56063Z"/><path class="b" d="M28.32269,19.55477a1.633,1.633,0,0,1,.3418,1.13086,1.76614,1.76614,0,0,1-.4502,1.248,2.38506,2.38506,0,0,1-1.12793.67774l-.24609.07226a.117.117,0,0,1-.11133-.042.17048.17048,0,0,1-.05078-.12012V21.9161a.17043.17043,0,0,1,.042-.11133.29337.29337,0,0,1,.1084-.08106l.1914-.07812a.96682.96682,0,0,0,.43555-.32129,1.00542,1.00542,0,0,0,.15918-.6084.81.81,0,0,0-.13281-.52832.64013.64013,0,0,0-.49121-.14941h-.15625l-.80469-.00684a.14421.14421,0,0,1-.10742-.042.14272.14272,0,0,1-.042-.10742V18.4952a.14082.14082,0,0,1,.04492-.10742.1485.1485,0,0,1,.10449-.042h.64844a.14642.14642,0,0,1,.1084.042.14967.14967,0,0,1,.042.10742v.68457h.37207A1.45817,1.45817,0,0,1,28.32269,19.55477Z"/><path class="b" d="M12.83929,26.83113a1.38472,1.38472,0,0,1,.417,1.11231v1.80664a.14525.14525,0,0,1-.042.10449.14148.14148,0,0,1-.1084.04492h-.708a.15417.15417,0,0,1-.11035-.042.138.138,0,0,1-.04492-.10742V27.97371a.60207.60207,0,0,0-.67871-.68359h-.38965a3.66822,3.66822,0,0,0-.08984.88183l.04785,1.57813a.138.138,0,0,1-.04492.10742.15651.15651,0,0,1-.11133.042l-1.27148-.00586a.15648.15648,0,0,1-.11133-.042.138.138,0,0,1-.04492-.10742v-.47461a.138.138,0,0,1,.04492-.10742.15648.15648,0,0,1,.11133-.042h.48535v-.94239a3.23151,3.23151,0,0,1,.09082-.88769H9.9262a.16083.16083,0,0,1-.11132-.042.145.145,0,0,1-.04493-.1084V26.6241a.145.145,0,0,1,.04493-.1084.15647.15647,0,0,1,.11132-.042H11.6A1.86154,1.86154,0,0,1,12.83929,26.83113Z"/><path class="b" d="M13.97992,29.8575a.13873.13873,0,0,1-.0459-.10742v-3.126a.14231.14231,0,0,1,.0459-.1084.15254.15254,0,0,1,.11035-.042h1.416a1.88248,1.88248,0,0,1,1.25684.35157,1.45284,1.45284,0,0,1,.40527,1.15429v1.77051a.14525.14525,0,0,1-.042.10449.13939.13939,0,0,1-.10742.04492h-.708a.1549.1549,0,0,1-.11133-.042.138.138,0,0,1-.04492-.10742V27.97371a.60177.60177,0,0,0-.67773-.68359h-.52832v2.46a.14937.14937,0,0,1-.042.10449.14147.14147,0,0,1-.10839.04492h-.708A.15254.15254,0,0,1,13.97992,29.8575Z"/><path class="b" d="M19.34027,29.93563a.17863.17863,0,0,1-.04785-.12012V29.21a.18768.18768,0,0,1,.042-.11426.24288.24288,0,0,1,.1084-.07812l.18554-.07813a.98475.98475,0,0,0,.43848-.32031.997.997,0,0,0,.16211-.60937.79143.79143,0,0,0-.13574-.52832.65075.65075,0,0,0-.49414-.14942H18.00238a.15505.15505,0,0,1-.15625-.15625v-.55762a.13233.13233,0,0,1,.04882-.10254.15546.15546,0,0,1,.10743-.042H19.809a1.45817,1.45817,0,0,1,1.12207.375,1.633,1.633,0,0,1,.34179,1.13086,1.7662,1.7662,0,0,1-.45019,1.24805,2.37734,2.37734,0,0,1-1.12793.67773l-.24609.07227A.11079.11079,0,0,1,19.34027,29.93563ZM17.892,31.004a.1423.1423,0,0,1-.0459-.1084V27.99813a.14228.14228,0,0,1,.0459-.1084.15667.15667,0,0,1,.11035-.042H18.687a.14382.14382,0,0,1,.14941.15039v2.89746a.14646.14646,0,0,1-.042.1084.14271.14271,0,0,1-.10742.042h-.68457A.15254.15254,0,0,1,17.892,31.004Z"/><path class="b" d="M23.52,29.8575a.138.138,0,0,1-.04492-.10742V27.97371a.60207.60207,0,0,0-.67871-.68359h-.91211a.14588.14588,0,0,1-.10449-.04492.1442.1442,0,0,1-.04492-.10547V26.6241a.14155.14155,0,0,1,.04492-.1084.14687.14687,0,0,1,.10449-.042h.94824a1.91931,1.91931,0,0,1,1.24512.3418,1.38242,1.38242,0,0,1,.41113,1.12207v1.8125a.14936.14936,0,0,1-.042.10449.14148.14148,0,0,1-.1084.04492h-.708A.15258.15258,0,0,1,23.52,29.8575Z"/><path class="b" d="M28.18988,26.83992a1.4498,1.4498,0,0,1,.38379,1.09766v1.8125a.14526.14526,0,0,1-.042.10449.138.138,0,0,1-.10742.04492H26.78558a.142.142,0,0,1-.10449-.04492.14047.14047,0,0,1-.04492-.10449v-.5166a.138.138,0,0,1,.04492-.10742.14688.14688,0,0,1,.10449-.042H27.56V27.98543a.71831.71831,0,0,0-.15039-.48535.48838.48838,0,0,0-.38965-.17383h-.46777l-.50976,2.418a.18245.18245,0,0,1-.04883.11035.138.138,0,0,1-.10742.04492h-.69043a.14725.14725,0,0,1-.11036-.04492.11638.11638,0,0,1-.0332-.11035l.58789-2.41211h-.39648a.14132.14132,0,0,1-.10742-.04492.15649.15649,0,0,1-.042-.11133V26.6241a.14152.14152,0,0,1,.04493-.1084.14687.14687,0,0,1,.10449-.042h1.92676A1.41545,1.41545,0,0,1,28.18988,26.83992Z"/></svg>