<svg xmlns="http://www.w3.org/2000/svg" viewBox="0 0 33.11981 27.3177"><defs><style>.a{fill:#d9d9d9;}.b{fill:#070706;}</style></defs><rect class="a" width="33.11981" height="27.3177"/><path class="b" d="M20.42356,8.45279a.14153.14153,0,0,1-.04492-.1084V6.568a.60245.60245,0,0,0-.67871-.68359h-.91211A.15353.15353,0,0,1,18.6384,5.734V5.21841a.138.138,0,0,1,.04493-.10742.14786.14786,0,0,1,.10449-.043h.94824a1.9135,1.9135,0,0,1,1.24512.34278,1.37978,1.37978,0,0,1,.41113,1.12207V8.34439a.1535.1535,0,0,1-.042.10547.14505.14505,0,0,1-.1084.04492h-.708A.15675.15675,0,0,1,20.42356,8.45279Z"/><path class="b" d="M24.7468,5.111a.14643.14643,0,0,1,.042.10742V5.734a.15172.15172,0,0,1-.042.10547.14152.14152,0,0,1-.1084.04492H24.363a.88592.88592,0,0,0-.11132.30664,2.11354,2.11354,0,0,0-.03907.42578V8.36294a.1148.1148,0,0,1-.05664.09278.203.203,0,0,1-.11719.03906h-.70214a.13045.13045,0,0,1-.09571-.03613.12814.12814,0,0,1-.03613-.09571V6.55044a1.29383,1.29383,0,0,1,.12012-.666H21.95676a.1442.1442,0,0,1-.10547-.04492.14645.14645,0,0,1-.04492-.10547V5.21841a.14138.14138,0,0,1,.04492-.10742.15014.15014,0,0,1,.10547-.043H24.6384A.14718.14718,0,0,1,24.7468,5.111Z"/><path class="b" d="M25.37961,8.45279a.14232.14232,0,0,1-.04589-.1084v-3.126a.13877.13877,0,0,1,.04589-.10742A.15334.15334,0,0,1,25.49,5.068h1.416a1.88254,1.88254,0,0,1,1.25684.35156,1.45517,1.45517,0,0,1,.40527,1.15528V8.34439a.14916.14916,0,0,1-.042.10547.14288.14288,0,0,1-.10742.04492h-.708a.15914.15914,0,0,1-.11133-.042.14153.14153,0,0,1-.04492-.1084V6.568a.60215.60215,0,0,0-.67773-.68359h-.52833v2.46a.15346.15346,0,0,1-.042.10547.145.145,0,0,1-.1084.04492H25.49A.15676.15676,0,0,1,25.37961,8.45279Z"/><path class="b" d="M17.07786,15.82486a.18044.18044,0,0,1-.04785-.12012v-.60547a.18557.18557,0,0,1,.042-.11426.23569.23569,0,0,1,.1084-.07812l.18554-.07813a.88223.88223,0,0,0,.60059-.92968.78968.78968,0,0,0-.13574-.52832.65063.65063,0,0,0-.49414-.15039H15.74a.155.155,0,0,1-.15625-.15528V12.5065a.1304.1304,0,0,1,.04882-.10156.15547.15547,0,0,1,.10743-.042h1.80664a1.45817,1.45817,0,0,1,1.12207.375,1.633,1.633,0,0,1,.34179,1.13086,1.76619,1.76619,0,0,1-.45019,1.248,2.3851,2.3851,0,0,1-1.12793.67773l-.24609.07227A.11079.11079,0,0,1,17.07786,15.82486Zm-1.44825,1.06738a.13877.13877,0,0,1-.04589-.10742V13.88638a.13877.13877,0,0,1,.04589-.10742.15258.15258,0,0,1,.11036-.042h.68457a.14376.14376,0,0,1,.14941.14941v2.89844a.14529.14529,0,0,1-.14941.15039H15.74A.15334.15334,0,0,1,15.62961,16.89224Z"/><path class="b" d="M19.63157,15.74673a.14082.14082,0,0,1-.0459-.1084v-3.126a.14018.14018,0,0,1,.0459-.10742.15254.15254,0,0,1,.11035-.042h.75a.14646.14646,0,0,1,.1084.042.148.148,0,0,1,.042.10742v3.126a.15349.15349,0,0,1-.042.10547.1415.1415,0,0,1-.1084.04493h-.75A.15254.15254,0,0,1,19.63157,15.74673Z"/><path class="b" d="M22.13547,13.43033c.00879.16406.05664.26074.14454.28808l.168.06055a.14179.14179,0,0,1,.0752.06836.23983.23983,0,0,1,.02637.11133l.00586.30566a.15783.15783,0,0,1-.08106.1416A.29507.29507,0,0,1,22.28,14.445l-.2461-.03614a.76467.76467,0,0,1-.51562-.333,1.19616,1.19616,0,0,1-.2041-.71679v-.84668a.2047.2047,0,0,1,.05078-.10742.12641.12641,0,0,1,.09863-.042h1.21191a1.55184,1.55184,0,0,1,1.17285.4043,1.70838,1.70838,0,0,1,.42383,1.1377c.00391.04.00586.0957.00586.168a1.89407,1.89407,0,0,1-.38379,1.2627,1.511,1.511,0,0,1-1.21875.45313H21.53586a.15648.15648,0,0,1-.11132-.042.14349.14349,0,0,1-.04493-.1084v-.55175a.15507.15507,0,0,1,.15625-.15625h1.11036a.71874.71874,0,0,0,.501-.17676.70132.70132,0,0,0,.21289-.501c.00391-.04.00586-.09961.00586-.17969,0-.07617-.00195-.13378-.00586-.17382a.68051.68051,0,0,0-.207-.501.72429.72429,0,0,0-.50683-.17773h-.51075Z"/><path class="b" d="M24.88743,14.32486a.1415.1415,0,0,1-.04492-.1084v-1.7041a.13938.13938,0,0,1,.04492-.10742.15649.15649,0,0,1,.11133-.042h.75a.14273.14273,0,0,1,.10742.042.14419.14419,0,0,1,.042.10742v1.7041a.14916.14916,0,0,1-.042.10547.14135.14135,0,0,1-.10742.04492h-.75A.15648.15648,0,0,1,24.88743,14.32486Z"/><path class="b" d="M28.64329,15.7438a.151.151,0,0,1-.11133.04493H26.60618a.15649.15649,0,0,1-.11133-.042.14348.14348,0,0,1-.04492-.1084v-.51562a.145.145,0,0,1,.04492-.1084.16084.16084,0,0,1,.11133-.042h.99609l-.05371-1.18164a1.06433,1.06433,0,0,0-.12012-.50391.41316.41316,0,0,0-.37207-.15625h-.30566a.14418.14418,0,0,1-.10547-.04492.14205.14205,0,0,1-.04492-.10449v-.50488a.1558.1558,0,0,1,.042-.11036.14009.14009,0,0,1,.1084-.04492H27.074a1.57842,1.57842,0,0,1,1.14356.35352,1.64517,1.64517,0,0,1,.38671,1.13379l.07813,1.83007A.12557.12557,0,0,1,28.64329,15.7438Z"/><path class="b" d="M13.50559,20.01431a1.38337,1.38337,0,0,1,.417,1.11231v1.80664a.14687.14687,0,0,1-.042.10449.14152.14152,0,0,1-.1084.04492h-.708a.15417.15417,0,0,1-.11036-.042.138.138,0,0,1-.04492-.10742V21.15689a.60206.60206,0,0,0-.67871-.68359h-.38965a3.66822,3.66822,0,0,0-.08984.88183l.04785,1.57813a.138.138,0,0,1-.04492.10742.1565.1565,0,0,1-.11133.042l-1.27148-.00586a.15648.15648,0,0,1-.11133-.042.138.138,0,0,1-.04492-.10742v-.47461a.138.138,0,0,1,.04492-.10742.15728.15728,0,0,1,.11133-.043h.48535V21.361a3.23151,3.23151,0,0,1,.09082-.88769h-.35449a.1608.1608,0,0,1-.11133-.042.145.145,0,0,1-.04492-.1084v-.51562a.145.145,0,0,1,.04492-.1084.15648.15648,0,0,1,.11133-.042h1.67382A1.86153,1.86153,0,0,1,13.50559,20.01431Z"/><path class="b" d="M14.64622,23.04068a.13876.13876,0,0,1-.0459-.10742v-3.126a.14228.14228,0,0,1,.0459-.1084.15254.15254,0,0,1,.11035-.042h.75a.14646.14646,0,0,1,.1084.042.15037.15037,0,0,1,.042.1084v3.126a.15114.15114,0,0,1-.042.10449.14153.14153,0,0,1-.1084.04492h-.75A.15254.15254,0,0,1,14.64622,23.04068Z"/><path class="b" d="M17.15012,20.72525c.00879.16406.05664.25976.14453.28808l.168.05957a.14.14,0,0,1,.0752.06934.233.233,0,0,1,.02637.11035l.00585.30664a.1574.1574,0,0,1-.081.14063.29509.29509,0,0,1-.19434.03906l-.24609-.03613a.76136.76136,0,0,1-.51562-.333,1.19413,1.19413,0,0,1-.20411-.7168v-.8457a.208.208,0,0,1,.05078-.1084.12643.12643,0,0,1,.09864-.042h1.21191a1.54835,1.54835,0,0,1,1.17285.40527,1.70374,1.70374,0,0,1,.42383,1.13672c.00391.04.00586.0957.00586.168a1.89407,1.89407,0,0,1-.38379,1.2627,1.51094,1.51094,0,0,1-1.21875.45312H16.55051a.15647.15647,0,0,1-.11132-.042.14136.14136,0,0,1-.04493-.10742v-.55274a.15258.15258,0,0,1,.04493-.11035.151.151,0,0,1,.11132-.04492h1.11035a.71933.71933,0,0,0,.501-.17774.69778.69778,0,0,0,.21289-.501c.00391-.03906.00586-.09961.00586-.17969,0-.07617-.002-.13379-.00586-.17383a.68216.68216,0,0,0-.207-.501.72368.72368,0,0,0-.50684-.17676h-.51074Z"/><path class="b" d="M19.92551,23.04068a.13879.13879,0,0,1-.0459-.10742v-3.126a.14232.14232,0,0,1,.0459-.1084.15257.15257,0,0,1,.11035-.042h.75a.14644.14644,0,0,1,.1084.042.15034.15034,0,0,1,.042.1084v3.126a.1511.1511,0,0,1-.042.10449.14152.14152,0,0,1-.1084.04492h-.75A.15257.15257,0,0,1,19.92551,23.04068Z"/><path class="b" d="M23.31614,23.04068a.138.138,0,0,1-.04492-.10742V21.15689a.60207.60207,0,0,0-.67871-.68359H21.6804a.14312.14312,0,0,1-.1045-.0459.14054.14054,0,0,1-.04492-.1045v-.51562a.14152.14152,0,0,1,.04492-.1084.14691.14691,0,0,1,.1045-.042h.94824a1.91935,1.91935,0,0,1,1.24512.3418,1.38244,1.38244,0,0,1,.41113,1.12207v1.8125a.15114.15114,0,0,1-.042.10449.14153.14153,0,0,1-.1084.04492h-.708A.15255.15255,0,0,1,23.31614,23.04068Z"/><path class="b" d="M28.1511,20.01431a1.38337,1.38337,0,0,1,.417,1.11231v1.80664a.14687.14687,0,0,1-.042.10449.14152.14152,0,0,1-.1084.04492h-.708a.15415.15415,0,0,1-.11035-.042.138.138,0,0,1-.04492-.10742V21.15689a.60206.60206,0,0,0-.67871-.68359h-.38965a3.66771,3.66771,0,0,0-.08984.88183l.04785,1.57813a.138.138,0,0,1-.04492.10742.15651.15651,0,0,1-.11133.042l-1.27149-.00586a.15647.15647,0,0,1-.11132-.042.138.138,0,0,1-.04493-.10742v-.47461a.138.138,0,0,1,.04493-.10742.15727.15727,0,0,1,.11132-.043h.48536V21.361a3.23151,3.23151,0,0,1,.09082-.88769H25.238a.16079.16079,0,0,1-.11132-.042.145.145,0,0,1-.04493-.1084v-.51562a.145.145,0,0,1,.04493-.1084.15647.15647,0,0,1,.11132-.042h1.67383A1.86154,1.86154,0,0,1,28.1511,20.01431Z"/></svg>