<svg xmlns="http://www.w3.org/2000/svg" viewBox="0 0 33.11981 35.69679"><defs><style>.a{fill:#fff;}.b{fill:#2d2a28;}</style></defs><rect class="a" width="33.11981" height="35.69679"/><path class="b" d="M17.75921,6.55305a.14152.14152,0,0,1-.04492-.1084V4.74055a.13941.13941,0,0,1,.04492-.10742.15651.15651,0,0,1,.11133-.042h.75a.14269.14269,0,0,1,.10742.042.14419.14419,0,0,1,.042.10742v1.7041a.14915.14915,0,0,1-.042.10547.14132.14132,0,0,1-.10742.04492h-.75A.15651.15651,0,0,1,17.75921,6.55305Z"/><path class="b" d="M19.46331,7.97493a.14011.14011,0,0,1-.04492-.1084V7.31477a.155.155,0,0,1,.15528-.15625h.87011a.63913.63913,0,0,0,.72071-.67774c.0039-.04785.00586-.10839.00586-.17968,0-.06836-.002-.126-.00586-.17383a.63983.63983,0,0,0-.72071-.67871h-.87011a.15341.15341,0,0,1-.15528-.15528V4.74055a.13941.13941,0,0,1,.04492-.10742.15258.15258,0,0,1,.11036-.042h.90039a1.45851,1.45851,0,0,1,1.66211,1.542c.0039.04394.00586.09961.00586.168a1.86328,1.86328,0,0,1-.39258,1.26562,1.61433,1.61433,0,0,1-1.27539.4502h-.90039A.15258.15258,0,0,1,19.46331,7.97493Z"/><path class="b" d="M24.33538,7.97493a.14011.14011,0,0,1-.04492-.1084V6.09114a.60276.60276,0,0,0-.67871-.68457h-.91211a.15357.15357,0,0,1-.14941-.14942v-.5166a.13941.13941,0,0,1,.04492-.10742.14687.14687,0,0,1,.10449-.042h.94824a1.91365,1.91365,0,0,1,1.24512.34179A1.3811,1.3811,0,0,1,25.30413,6.055V7.86653a.15346.15346,0,0,1-.042.10547.14152.14152,0,0,1-.1084.04492h-.708A.15258.15258,0,0,1,24.33538,7.97493Z"/><path class="b" d="M28.65863,4.63313a.148.148,0,0,1,.042.10742v.5166a.15114.15114,0,0,1-.042.10449.1415.1415,0,0,1-.1084.04493h-.27539a.89339.89339,0,0,0-.11133.30664,2.11357,2.11357,0,0,0-.03906.42578V7.88508a.1122.1122,0,0,1-.05664.09277.203.203,0,0,1-.11719.03907h-.70215a.12658.12658,0,0,1-.0957-.03614.12807.12807,0,0,1-.03614-.0957V6.07258a1.29624,1.29624,0,0,1,.12012-.666H25.86859a.14415.14415,0,0,1-.10547-.04493.14584.14584,0,0,1-.04492-.10449v-.5166a.14283.14283,0,0,1,.04492-.10742.14915.14915,0,0,1,.10547-.042h2.68164A.14646.14646,0,0,1,28.65863,4.63313Z"/><path class="b" d="M10.3432,12.2425a1.38337,1.38337,0,0,1,.417,1.11231v1.80664a.14527.14527,0,0,1-.042.10449.14153.14153,0,0,1-.1084.04492h-.708a.15415.15415,0,0,1-.11035-.042.138.138,0,0,1-.04492-.10742V13.38508a.60207.60207,0,0,0-.67871-.68359H8.67816a3.6682,3.6682,0,0,0-.08985.88183l.04786,1.57813a.138.138,0,0,1-.04493.10742.15647.15647,0,0,1-.11132.042L7.20843,15.305a.15651.15651,0,0,1-.11133-.042.138.138,0,0,1-.04492-.10742V14.681a.138.138,0,0,1,.04492-.10742.15651.15651,0,0,1,.11133-.042h.48535v-.94239a3.23189,3.23189,0,0,1,.09082-.88769H7.43011a.16087.16087,0,0,1-.11133-.042.14505.14505,0,0,1-.04492-.1084v-.51563a.14505.14505,0,0,1,.04492-.1084.16087.16087,0,0,1,.11133-.042H9.10394A1.86154,1.86154,0,0,1,10.3432,12.2425Z"/><path class="b" d="M13.02581,15.26887a.138.138,0,0,1-.04492-.10742V13.38508a.60207.60207,0,0,0-.67871-.68359h-.91211a.14588.14588,0,0,1-.10449-.04492.1442.1442,0,0,1-.04492-.10547v-.51563a.14153.14153,0,0,1,.04492-.1084.15114.15114,0,0,1,.10449-.042h.94824a1.91931,1.91931,0,0,1,1.24512.3418,1.38241,1.38241,0,0,1,.41113,1.12207v1.8125a.14937.14937,0,0,1-.042.10449.14152.14152,0,0,1-.1084.04492h-.708A.15258.15258,0,0,1,13.02581,15.26887Z"/><path class="b" d="M14.71722,15.26887a.13878.13878,0,0,1-.0459-.10742v-3.126a.14233.14233,0,0,1,.0459-.1084.15675.15675,0,0,1,.11035-.042h.75a.14389.14389,0,0,1,.15039.15039v3.126a.14942.14942,0,0,1-.042.10449.14152.14152,0,0,1-.1084.04492h-.75A.15257.15257,0,0,1,14.71722,15.26887Z"/><path class="b" d="M20.30023,11.92707a.14646.14646,0,0,1,.042.1084v1.57129a1.765,1.765,0,0,1-.24023.92774,1.631,1.631,0,0,1-.65332.61523,1.9105,1.9105,0,0,1-.918.209h-.57617a1.80451,1.80451,0,0,1-.83985-.18554,1.32891,1.32891,0,0,1-.54883-.50391,1.34971,1.34971,0,0,1-.18945-.70215V12.03547a.14153.14153,0,0,1,.04492-.1084.16085.16085,0,0,1,.11133-.042h.62988a.14389.14389,0,0,1,.15039.15039l.00586,1.43946a.55231.55231,0,0,0,.45606-.249,1.223,1.223,0,0,0,.13183-.62695v-.55176A.15824.15824,0,0,1,17.9516,11.93a.14942.14942,0,0,1,.11132-.04492H18.686a.1436.1436,0,0,1,.10547.04785.16089.16089,0,0,1,.04492.11426v.56445a1.56163,1.56163,0,0,1-.35351,1.07911,1.49146,1.49146,0,0,1-1.002.46289.7744.7744,0,0,0,.30274.29394.86945.86945,0,0,0,.417.10156h.13769a1.19222,1.19222,0,0,0,.55176-.126.96233.96233,0,0,0,.38477-.34766.92787.92787,0,0,0,.13769-.498v-1.542a.14642.14642,0,0,1,.042-.1084.14876.14876,0,0,1,.10839-.042h.62989A.14649.14649,0,0,1,20.30023,11.92707Z"/><path class="b" d="M22.45355,15.347a.18048.18048,0,0,1-.04785-.12012v-.60547a.18772.18772,0,0,1,.042-.11426.24288.24288,0,0,1,.1084-.07812l.18554-.07813a.98475.98475,0,0,0,.43848-.32031.997.997,0,0,0,.16211-.60938.79147.79147,0,0,0-.13574-.52832.65073.65073,0,0,0-.49414-.14941H21.11566a.15505.15505,0,0,1-.15625-.15625v-.55762a.1323.1323,0,0,1,.04883-.10254.16.16,0,0,1,.10742-.042H22.9223a1.45817,1.45817,0,0,1,1.12207.375,1.633,1.633,0,0,1,.3418,1.13086,1.76288,1.76288,0,0,1-.4502,1.248,2.39449,2.39449,0,0,1-1.12793.67871L22.562,15.389A.1108.1108,0,0,1,22.45355,15.347Zm-1.44824,1.06835a.14228.14228,0,0,1-.0459-.10839V13.4095a.14228.14228,0,0,1,.0459-.1084.15254.15254,0,0,1,.11035-.042h.68457a.14272.14272,0,0,1,.10742.042.14644.14644,0,0,1,.042.1084V16.307a.14384.14384,0,0,1-.14941.15039h-.68457A.15668.15668,0,0,1,21.00531,16.41535Z"/><path class="b" d="M28.15081,12.2425a1.38338,1.38338,0,0,1,.417,1.11231v1.80664a.14528.14528,0,0,1-.042.10449.14151.14151,0,0,1-.10839.04492h-.708a.15413.15413,0,0,1-.11035-.042.138.138,0,0,1-.04493-.10742V13.38508a.60207.60207,0,0,0-.67871-.68359h-.38964a3.6682,3.6682,0,0,0-.08985.88183l.04785,1.57813a.138.138,0,0,1-.04492.10742.15648.15648,0,0,1-.11133.042L25.01605,15.305a.15648.15648,0,0,1-.11133-.042.138.138,0,0,1-.04492-.10742V14.681a.138.138,0,0,1,.04492-.10742.15648.15648,0,0,1,.11133-.042h.48535v-.94239a3.23189,3.23189,0,0,1,.09082-.88769h-.35449a.16084.16084,0,0,1-.11133-.042.145.145,0,0,1-.04492-.1084v-.51563a.145.145,0,0,1,.04492-.1084.16084.16084,0,0,1,.11133-.042h1.67383A1.86152,1.86152,0,0,1,28.15081,12.2425Z"/><path class="b" d="M16.8471,21.14192a.14153.14153,0,0,1-.04492-.1084v-1.7041a.14152.14152,0,0,1,.04492-.1084.16087.16087,0,0,1,.11133-.042h.75a.14384.14384,0,0,1,.14942.15039v1.7041a.14528.14528,0,0,1-.042.10449.138.138,0,0,1-.10742.04492h-.75A.16009.16009,0,0,1,16.8471,21.14192Z"/><path class="b" d="M21.65277,19.53645a1.38687,1.38687,0,0,1,.417,1.11328v1.80566a.14529.14529,0,0,1-.042.1045.14232.14232,0,0,1-.1084.04589h-.708a.15839.15839,0,0,1-.11035-.042.14152.14152,0,0,1-.04492-.1084V20.679a.60246.60246,0,0,0-.67871-.6836h-.38965a3.67874,3.67874,0,0,0-.08985.88184l.04786,1.57812a.14149.14149,0,0,1-.04493.1084.16078.16078,0,0,1-.11132.042L18.518,22.59895a.16006.16006,0,0,1-.11133-.041.14152.14152,0,0,1-.04492-.1084V21.9759a.14009.14009,0,0,1,.04492-.1084.15651.15651,0,0,1,.11133-.042h.48535v-.94238a3.23605,3.23605,0,0,1,.09082-.8877h-.35449a.15651.15651,0,0,1-.11133-.042.14353.14353,0,0,1-.04492-.1084v-.51562a.145.145,0,0,1,.04492-.1084.16087.16087,0,0,1,.11133-.042h1.67383A1.86154,1.86154,0,0,1,21.65277,19.53645Z"/><path class="b" d="M22.67913,22.55989a.14054.14054,0,0,1-.04492-.1045v-.51562a.14152.14152,0,0,1,.04492-.1084.15118.15118,0,0,1,.1045-.042h1.50683V20.679a.59986.59986,0,0,0-.67871-.67774h-.76758a.14151.14151,0,0,1-.10839-.04492.1591.1591,0,0,1-.042-.11133v-.51562a.145.145,0,0,1,.04492-.1084.1535.1535,0,0,1,.10547-.042H23.642a1.95122,1.95122,0,0,1,1.26855.35449,1.404,1.404,0,0,1,.42969,1.14551v1.11035h.21a.14382.14382,0,0,1,.14941.15039v.51562a.14529.14529,0,0,1-.042.1045.13877.13877,0,0,1-.10742.04589h-2.7666A.14311.14311,0,0,1,22.67913,22.55989Z"/><path class="b" d="M28.32269,19.554a1.633,1.633,0,0,1,.3418,1.13086,1.76285,1.76285,0,0,1-.4502,1.248,2.38668,2.38668,0,0,1-1.12793.67871l-.24609.07129a.11623.11623,0,0,1-.11133-.041.1705.1705,0,0,1-.05078-.12012v-.60645a.17043.17043,0,0,1,.042-.11132.302.302,0,0,1,.1084-.08008l.1914-.07813a.9738.9738,0,0,0,.43555-.32129,1.00661,1.00661,0,0,0,.15918-.60937.80507.80507,0,0,0-.13281-.52734.6362.6362,0,0,0-.49121-.15039h-.15625l-.80469-.00586a.148.148,0,0,1-.10742-.042.14643.14643,0,0,1-.042-.10839V18.49543a.1415.1415,0,0,1,.04492-.1084.15291.15291,0,0,1,.10449-.042h.64844a.14389.14389,0,0,1,.15039.15039v.6836h.37207A1.45817,1.45817,0,0,1,28.32269,19.554Z"/><path class="b" d="M12.83929,26.83039a1.38691,1.38691,0,0,1,.417,1.11329v1.80566a.14916.14916,0,0,1-.042.10547.145.145,0,0,1-.1084.04492h-.708a.15417.15417,0,0,1-.11035-.042.14153.14153,0,0,1-.04492-.1084V27.974a.60276.60276,0,0,0-.67871-.68457h-.38965a3.67867,3.67867,0,0,0-.08984.88183l.04785,1.57813a.14153.14153,0,0,1-.04492.1084.15651.15651,0,0,1-.11133.042l-1.27148-.00586a.16084.16084,0,0,1-.11133-.042.14148.14148,0,0,1-.04492-.1084v-.47363a.14148.14148,0,0,1,.04492-.1084.16079.16079,0,0,1,.11133-.042h.48535v-.94239a3.23977,3.23977,0,0,1,.09082-.88769H9.9262a.15647.15647,0,0,1-.11132-.042A.14137.14137,0,0,1,9.77,27.14v-.5166a.14135.14135,0,0,1,.04493-.10742.15647.15647,0,0,1,.11132-.042H11.6A1.86691,1.86691,0,0,1,12.83929,26.83039Z"/><path class="b" d="M13.97992,29.85774a.1423.1423,0,0,1-.0459-.1084v-3.126a.13874.13874,0,0,1,.0459-.10742.15254.15254,0,0,1,.11035-.042h1.416a1.88806,1.88806,0,0,1,1.25684.35058,1.45517,1.45517,0,0,1,.40527,1.15528v1.76953a.14916.14916,0,0,1-.042.10547.14288.14288,0,0,1-.10742.04492h-.708a.1549.1549,0,0,1-.11133-.042.14153.14153,0,0,1-.04492-.1084V27.974a.60246.60246,0,0,0-.67773-.68457h-.52832v2.46a.15347.15347,0,0,1-.042.10547.145.145,0,0,1-.10839.04492h-.708A.15254.15254,0,0,1,13.97992,29.85774Z"/><path class="b" d="M19.34027,29.93586a.18044.18044,0,0,1-.04785-.12011V29.2093a.185.185,0,0,1,.042-.11328.23578.23578,0,0,1,.1084-.07813l.18554-.07812a.88247.88247,0,0,0,.60059-.93067.78666.78666,0,0,0-.13574-.52734.65063.65063,0,0,0-.49414-.15039H18.00238a.15505.15505,0,0,1-.15625-.15625V26.6175a.129.129,0,0,1,.04882-.10156.15546.15546,0,0,1,.10743-.042H19.809a1.45817,1.45817,0,0,1,1.12207.375,1.633,1.633,0,0,1,.34179,1.13086,1.76616,1.76616,0,0,1-.45019,1.248,2.38511,2.38511,0,0,1-1.12793.67774l-.24609.07226A.11075.11075,0,0,1,19.34027,29.93586ZM17.892,31.00325a.13876.13876,0,0,1-.0459-.10743V27.99739A.13876.13876,0,0,1,17.892,27.89a.15254.15254,0,0,1,.11035-.042H18.687a.14376.14376,0,0,1,.14941.14942v2.89843a.14376.14376,0,0,1-.14941.14942h-.68457A.15254.15254,0,0,1,17.892,31.00325Z"/><path class="b" d="M23.52,29.85774a.14153.14153,0,0,1-.04492-.1084V27.974a.60276.60276,0,0,0-.67871-.68457h-.91211A.15355.15355,0,0,1,21.7348,27.14v-.5166a.138.138,0,0,1,.04492-.10742.14687.14687,0,0,1,.10449-.042h.94824a1.91359,1.91359,0,0,1,1.24512.3418,1.37975,1.37975,0,0,1,.41113,1.12207v1.81152a.15346.15346,0,0,1-.042.10547.145.145,0,0,1-.1084.04492h-.708A.15258.15258,0,0,1,23.52,29.85774Z"/><path class="b" d="M28.18988,26.83918a1.45069,1.45069,0,0,1,.38379,1.09864v1.81152a.14917.14917,0,0,1-.042.10547.14136.14136,0,0,1-.10742.04492H26.78558a.14588.14588,0,0,1-.10449-.04492.14416.14416,0,0,1-.04492-.10547v-.51563a.14147.14147,0,0,1,.04492-.10839.1511.1511,0,0,1,.10449-.042H27.56V27.98567a.71932.71932,0,0,0-.15039-.48633.49137.49137,0,0,0-.38965-.17383h-.46777l-.50976,2.418a.1878.1878,0,0,1-.04883.11133.14139.14139,0,0,1-.10742.04492h-.69043a.151.151,0,0,1-.11036-.04492.11892.11892,0,0,1-.0332-.11133l.58789-2.41211h-.39648a.138.138,0,0,1-.10742-.04492.15332.15332,0,0,1-.042-.11133v-.55176a.138.138,0,0,1,.04493-.10742.14687.14687,0,0,1,.10449-.042h1.92676A1.41908,1.41908,0,0,1,28.18988,26.83918Z"/></svg>