<svg xmlns="http://www.w3.org/2000/svg" viewBox="0 0 33.11981 27.3177"><defs><style>.a{fill:#eee;}.b{fill:#1c1a19;}</style></defs><rect class="a" width="33.11981" height="27.3177"/><path class="b" d="M12.47386,8.75789a.14273.14273,0,0,1,.042.10742v1.57227a1.75889,1.75889,0,0,1-.24024.92676,1.62439,1.62439,0,0,1-.65332.61523,1.89986,1.89986,0,0,1-.918.21h-.57617a1.80447,1.80447,0,0,1-.83984-.18554,1.32455,1.32455,0,0,1-.54883-.50489A1.34615,1.34615,0,0,1,8.55,10.79793V8.86531A.138.138,0,0,1,8.595,8.75789a.15647.15647,0,0,1,.11132-.042h.62989a.14382.14382,0,0,1,.15039.14941l.00586,1.44043a.557.557,0,0,0,.45605-.249,1.22784,1.22784,0,0,0,.13184-.627V8.878a.15527.15527,0,0,1,.04492-.11719.14944.14944,0,0,1,.11133-.04492h.623a.14011.14011,0,0,1,.10546.04785A.15923.15923,0,0,1,11.01,8.878v.56348a1.56421,1.56421,0,0,1-.35352,1.08007,1.49059,1.49059,0,0,1-1.002.46192.76765.76765,0,0,0,.30273.29394.85914.85914,0,0,0,.417.10254h.1377a1.19228,1.19228,0,0,0,.55176-.126.96443.96443,0,0,0,.38476-.34864.923.923,0,0,0,.1377-.498v-1.542a.14272.14272,0,0,1,.042-.10742.14494.14494,0,0,1,.1084-.042h.62988A.14269.14269,0,0,1,12.47386,8.75789Z"/><path class="b" d="M13.17992,12.09969a.14228.14228,0,0,1-.0459-.1084v-3.126a.13876.13876,0,0,1,.0459-.10742.15254.15254,0,0,1,.11035-.042h.75a.14382.14382,0,0,1,.15039.14941v3.126a.15349.15349,0,0,1-.042.10547.145.145,0,0,1-.1084.04492h-.75A.15254.15254,0,0,1,13.17992,12.09969Z"/><path class="b" d="M17.92211,9.08113a1.45075,1.45075,0,0,1,.38378,1.09864v1.81152a.14915.14915,0,0,1-.042.10547.14132.14132,0,0,1-.10742.04492H16.51781a.14584.14584,0,0,1-.10449-.04492.14415.14415,0,0,1-.04493-.10547v-.51562a.14149.14149,0,0,1,.04493-.1084.15109.15109,0,0,1,.10449-.042h.77441V10.22762a.71932.71932,0,0,0-.15039-.48633.4914.4914,0,0,0-.38965-.17383h-.46777l-.50977,2.418a.1877.1877,0,0,1-.04882.11133.14136.14136,0,0,1-.10743.04492H14.928a.151.151,0,0,1-.11035-.04492.11891.11891,0,0,1-.0332-.11133l.58789-2.41211h-.39648a.138.138,0,0,1-.10743-.04492.15331.15331,0,0,1-.042-.11133V8.86531a.138.138,0,0,1,.04492-.10742.14691.14691,0,0,1,.1045-.042h1.92675A1.41909,1.41909,0,0,1,17.92211,9.08113Z"/><path class="b" d="M18.99925,10.67781a.14151.14151,0,0,1-.04492-.10839V8.86531a.138.138,0,0,1,.04492-.10742.15651.15651,0,0,1,.11133-.042h.75a.14377.14377,0,0,1,.14942.14941v1.70411a.14915.14915,0,0,1-.042.10546.14133.14133,0,0,1-.10742.04493h-.75A.15652.15652,0,0,1,18.99925,10.67781Z"/><path class="b" d="M24.55785,8.75789a.14272.14272,0,0,1,.042.10742v1.57227a1.759,1.759,0,0,1-.24023.92676,1.62435,1.62435,0,0,1-.65333.61523,1.89983,1.89983,0,0,1-.918.21h-.57618a1.80447,1.80447,0,0,1-.83984-.18554,1.32467,1.32467,0,0,1-.54883-.50489,1.34623,1.34623,0,0,1-.18945-.70117V8.86531a.138.138,0,0,1,.04492-.10742.15648.15648,0,0,1,.11133-.042h.62988a.14382.14382,0,0,1,.15039.14941l.00586,1.44043a.55708.55708,0,0,0,.45606-.249,1.22785,1.22785,0,0,0,.13183-.627V8.878a.15527.15527,0,0,1,.04492-.11719.14946.14946,0,0,1,.11133-.04492h.623a.14013.14013,0,0,1,.10547.04785A.15927.15927,0,0,1,23.094,8.878v.56348a1.56416,1.56416,0,0,1-.35352,1.08007,1.49057,1.49057,0,0,1-1.00195.46192.76774.76774,0,0,0,.30274.29394.85909.85909,0,0,0,.417.10254h.13769a1.19225,1.19225,0,0,0,.55176-.126.96452.96452,0,0,0,.38477-.34864.92306.92306,0,0,0,.13769-.498v-1.542a.14272.14272,0,0,1,.042-.10742.14494.14494,0,0,1,.1084-.042h.62989A.14272.14272,0,0,1,24.55785,8.75789Z"/><path class="b" d="M10.0891,17.97176a.14148.14148,0,0,1-.04492-.1084v-1.7041a.14082.14082,0,0,1,.04492-.10742.15648.15648,0,0,1,.11133-.042h.75a.14272.14272,0,0,1,.10742.042.14572.14572,0,0,1,.042.10742v1.7041a.14915.14915,0,0,1-.042.10547.138.138,0,0,1-.10742.04492h-.75A.15648.15648,0,0,1,10.0891,17.97176Z"/><path class="b" d="M14.80785,16.37606a1.4483,1.4483,0,0,1,.38379,1.09765v1.8125a.14853.14853,0,0,1-.042.10449.138.138,0,0,1-.10742.04493H13.40355a.142.142,0,0,1-.10449-.04493.14358.14358,0,0,1-.04492-.10449v-.5166a.1415.1415,0,0,1,.04492-.1084.15017.15017,0,0,1,.10449-.041H14.178V17.52156a.71488.71488,0,0,0-.15039-.48535.48918.48918,0,0,0-.38964-.1748h-.46778l-.50976,2.418a.18777.18777,0,0,1-.04883.11132.138.138,0,0,1-.10742.04493h-.69043a.14722.14722,0,0,1-.11035-.04493.11888.11888,0,0,1-.03321-.11132l.58789-2.41114h-.39648a.13875.13875,0,0,1-.10742-.04589.15258.15258,0,0,1-.042-.11036v-.55273a.14083.14083,0,0,1,.04493-.10742.14687.14687,0,0,1,.10449-.042h1.92676A1.41545,1.41545,0,0,1,14.80785,16.37606Z"/><path class="b" d="M15.885,17.97176a.14149.14149,0,0,1-.04493-.1084v-1.7041a.14083.14083,0,0,1,.04493-.10742.15647.15647,0,0,1,.11132-.042h.75a.14273.14273,0,0,1,.10743.042.14572.14572,0,0,1,.042.10742v1.7041a.14915.14915,0,0,1-.042.10547.138.138,0,0,1-.10743.04492h-.75A.15647.15647,0,0,1,15.885,17.97176Z"/><path class="b" d="M19.64086,19.3907a.151.151,0,0,1-.11133.04493H17.60375a.15649.15649,0,0,1-.11133-.042.14132.14132,0,0,1-.04492-.10742v-.5166a.145.145,0,0,1,.04492-.1084.16006.16006,0,0,1,.11133-.041h.99609l-.05371-1.18262a1.071,1.071,0,0,0-.12012-.50391.41316.41316,0,0,0-.37207-.15625h-.30566a.14414.14414,0,0,1-.10547-.04492.142.142,0,0,1-.04492-.10449V16.1241a.15647.15647,0,0,1,.042-.11132.14007.14007,0,0,1,.1084-.04493h.32324a1.57838,1.57838,0,0,1,1.14355.35352,1.64606,1.64606,0,0,1,.38672,1.13476l.07813,1.83008A.12473.12473,0,0,1,19.64086,19.3907Z"/><path class="b" d="M21.02953,17.07723c.00879.16406.05664.26074.14453.28906l.168.05957a.13993.13993,0,0,1,.07519.06934.233.233,0,0,1,.02637.11035l.00586.30566a.15783.15783,0,0,1-.08106.1416.29507.29507,0,0,1-.19433.03907l-.2461-.03614a.76133.76133,0,0,1-.51562-.333,1.19617,1.19617,0,0,1-.2041-.7168v-.84668a.20834.20834,0,0,1,.05078-.10742.1264.1264,0,0,1,.09863-.042h1.21192a1.54836,1.54836,0,0,1,1.17285.40527,1.70379,1.70379,0,0,1,.42383,1.13672c.0039.04.00586.0957.00586.168a1.894,1.894,0,0,1-.38379,1.26269,1.51093,1.51093,0,0,1-1.21875.45313H20.42992a.15649.15649,0,0,1-.11133-.042.14132.14132,0,0,1-.04492-.10742v-.55273a.15505.15505,0,0,1,.15625-.15625h1.11035a.71876.71876,0,0,0,.501-.17676.6996.6996,0,0,0,.21289-.501c.0039-.04.00586-.09961.00586-.17968,0-.07618-.002-.13379-.00586-.17383a.6822.6822,0,0,0-.207-.501.72375.72375,0,0,0-.50684-.17676h-.51074Z"/></svg>