<svg xmlns="http://www.w3.org/2000/svg" viewBox="0 0 33.11981 27.3177"><defs><style>.a{fill:#fff;}.b{fill:#2d2a28;}</style></defs><rect class="a" width="33.11981" height="27.3177"/><path class="b" d="M12.474,8.7576a.14523.14523,0,0,1,.042.108v1.572a1.762,1.762,0,0,1-.24023.927,1.62461,1.62461,0,0,1-.65332.615,1.90544,1.90544,0,0,1-.918.21h-.57617a1.80458,1.80458,0,0,1-.83985-.18591,1.32844,1.32844,0,0,1-.54883-.504,1.34931,1.34931,0,0,1-.18945-.702v-1.932a.14038.14038,0,0,1,.04492-.108.15813.15813,0,0,1,.11133-.042h.62988a.14386.14386,0,0,1,.15039.15l.00586,1.44a.55432.55432,0,0,0,.45606-.2489,1.22564,1.22564,0,0,0,.13183-.62708v-.552a.1571.1571,0,0,1,.04493-.11695.15047.15047,0,0,1,.11132-.045h.623a.14152.14152,0,0,1,.10547.048.16011.16011,0,0,1,.04492.114v.56408a1.56474,1.56474,0,0,1-.35351,1.08,1.48965,1.48965,0,0,1-1.002.462.77105.77105,0,0,0,.30274.29394.86144.86144,0,0,0,.417.10205h.1377a1.19221,1.19221,0,0,0,.55175-.126.96039.96039,0,0,0,.38477-.348.92537.92537,0,0,0,.13769-.498v-1.542a.14388.14388,0,0,1,.15039-.15h.62989A.1441.1441,0,0,1,12.474,8.7576Z"/><path class="b" d="M13.18,12.09964a.14078.14078,0,0,1-.04589-.108v-3.126a.14117.14117,0,0,1,.04589-.108.15412.15412,0,0,1,.11036-.042h.75a.14388.14388,0,0,1,.15039.15v3.126a.15163.15163,0,0,1-.042.105.14246.14246,0,0,1-.10839.045h-.75A.15358.15358,0,0,1,13.18,12.09964Z"/><path class="b" d="M17.92221,9.08158a1.44974,1.44974,0,0,1,.38379,1.098v1.812a.1474.1474,0,0,1-.042.105.13893.13893,0,0,1-.10742.045H16.51791a.15377.15377,0,0,1-.14941-.15v-.516a.14037.14037,0,0,1,.04492-.108.149.149,0,0,1,.10449-.042h.77442V10.2277a.71849.71849,0,0,0-.15039-.48609.48921.48921,0,0,0-.38965-.17395h-.46777l-.50977,2.418a.18539.18539,0,0,1-.04883.111.1389.1389,0,0,1-.10742.045h-.69043a.14828.14828,0,0,1-.11035-.045.11784.11784,0,0,1-.0332-.111l.58789-2.412h-.39649a.1389.1389,0,0,1-.10742-.045.15482.15482,0,0,1-.042-.111v-.552a.14038.14038,0,0,1,.04492-.108.14845.14845,0,0,1,.10449-.042h1.92676A1.41632,1.41632,0,0,1,17.92221,9.08158Z"/><path class="b" d="M18.99936,10.67765a.14.14,0,0,1-.04492-.108v-1.704a.14038.14038,0,0,1,.04492-.108.15809.15809,0,0,1,.11133-.042h.75a.1438.1438,0,0,1,.14941.15v1.704a.14739.14739,0,0,1-.042.105.13891.13891,0,0,1-.10742.045h-.75A.15757.15757,0,0,1,18.99936,10.67765Z"/><path class="b" d="M24.558,8.7576a.14524.14524,0,0,1,.042.108v1.572a1.76187,1.76187,0,0,1-.24024.927,1.62461,1.62461,0,0,1-.65332.615,1.90544,1.90544,0,0,1-.918.21h-.57617a1.80454,1.80454,0,0,1-.83984-.18591,1.32838,1.32838,0,0,1-.54883-.504,1.34921,1.34921,0,0,1-.18945-.702v-1.932a.14035.14035,0,0,1,.04492-.108.15809.15809,0,0,1,.11133-.042h.62988a.14386.14386,0,0,1,.15039.15l.00586,1.44a.55429.55429,0,0,0,.45605-.2489,1.22563,1.22563,0,0,0,.13184-.62708v-.552a.15713.15713,0,0,1,.04492-.11695.15049.15049,0,0,1,.11133-.045h.623a.14151.14151,0,0,1,.10546.048.16008.16008,0,0,1,.04493.114v.56408a1.56474,1.56474,0,0,1-.35352,1.08,1.48962,1.48962,0,0,1-1.002.462.771.771,0,0,0,.30273.29394.86147.86147,0,0,0,.417.10205h.1377a1.19228,1.19228,0,0,0,.55176-.126.96043.96043,0,0,0,.38476-.348.92537.92537,0,0,0,.1377-.498v-1.542a.14386.14386,0,0,1,.15039-.15h.62988A.14409.14409,0,0,1,24.558,8.7576Z"/><path class="b" d="M9.27866,17.97184a.14.14,0,0,1-.04493-.108v-1.704a.14035.14035,0,0,1,.04493-.108.15809.15809,0,0,1,.11132-.042h.75a.1438.1438,0,0,1,.14942.15v1.704a.14739.14739,0,0,1-.042.105.13893.13893,0,0,1-.10743.045H9.39A.15756.15756,0,0,1,9.27866,17.97184Z"/><path class="b" d="M13.03452,19.39078a.152.152,0,0,1-.11133.045H10.99741a.15753.15753,0,0,1-.11133-.042.14342.14342,0,0,1-.04492-.108v-.516a.14379.14379,0,0,1,.04492-.108.15862.15862,0,0,1,.11133-.042h.99609l-.05371-1.182a1.0676,1.0676,0,0,0-.12012-.50391.41192.41192,0,0,0-.37207-.156h-.30566a.14525.14525,0,0,1-.10547-.045.14273.14273,0,0,1-.04492-.105v-.504a.15521.15521,0,0,1,.042-.111.141.141,0,0,1,.1084-.045h.32324a1.5757,1.5757,0,0,1,1.14355.354,1.64466,1.64466,0,0,1,.38672,1.134l.07813,1.83A.12426.12426,0,0,1,13.03452,19.39078Z"/><path class="b" d="M13.683,19.39383a.14078.14078,0,0,1-.04589-.108v-3.126a.14117.14117,0,0,1,.04589-.108.15412.15412,0,0,1,.11036-.042h.75a.14388.14388,0,0,1,.15039.15v3.126a.15163.15163,0,0,1-.042.105.14246.14246,0,0,1-.10839.045h-.75A.15358.15358,0,0,1,13.683,19.39383Z"/><path class="b" d="M18.11948,17.41678a1.47177,1.47177,0,0,1-.52832.54309l.46777.642a.63491.63491,0,0,1,.05762.09.247.247,0,0,1,.02051.108v.486a.14741.14741,0,0,1-.042.105.14034.14034,0,0,1-.10742.045H15.55112a.14153.14153,0,0,1-.10449-.045.14352.14352,0,0,1-.0459-.105v-.53393a.141.141,0,0,1,.0459-.108.14679.14679,0,0,1,.10449-.042h1.41015l-1.74609-2.376a.20087.20087,0,0,1-.03613-.09606.1071.1071,0,0,1,.03906-.08692.13936.13936,0,0,1,.09277-.03308H16.055a.22115.22115,0,0,1,.19239.108l.83984,1.152a.949.949,0,0,0,.27637-.762v-.33606a.15713.15713,0,0,1,.04492-.117.14827.14827,0,0,1,.11035-.045h.62988a.14152.14152,0,0,1,.10547.048.16007.16007,0,0,1,.04492.114v.516A1.48444,1.48444,0,0,1,18.11948,17.41678Z"/><path class="b" d="M18.96225,17.97184a.14.14,0,0,1-.04492-.108v-1.704a.14038.14038,0,0,1,.04492-.108.15809.15809,0,0,1,.11133-.042h.75a.1438.1438,0,0,1,.14941.15v1.704a.14739.14739,0,0,1-.042.105.13891.13891,0,0,1-.10742.045h-.75A.15757.15757,0,0,1,18.96225,17.97184Z"/><path class="b" d="M20.70248,19.39383a.14078.14078,0,0,1-.04589-.108v-3.126a.14117.14117,0,0,1,.04589-.108.15412.15412,0,0,1,.11036-.042h1.416a1.88464,1.88464,0,0,1,1.25684.35107,1.45412,1.45412,0,0,1,.40527,1.15491v1.77a.1474.1474,0,0,1-.042.105.14036.14036,0,0,1-.10742.045h-.708a.15591.15591,0,0,1-.11133-.042.14.14,0,0,1-.04492-.108v-1.776a.60208.60208,0,0,0-.67773-.684h-.52833v2.46a.15162.15162,0,0,1-.042.105.14247.14247,0,0,1-.1084.045h-.708A.15358.15358,0,0,1,20.70248,19.39383Z"/></svg>