<svg xmlns="http://www.w3.org/2000/svg" viewBox="0 0 33.11981 27.3177"><defs><style>.a{fill:#eee;}.b{fill:#1c1a19;}</style></defs><rect class="a" width="33.11981" height="27.3177"/><path class="b" d="M13.86605,7.03035a.138.138,0,0,1-.04492-.10742V5.21883a.14152.14152,0,0,1,.04492-.1084.15648.15648,0,0,1,.11133-.042h.75a.14271.14271,0,0,1,.10742.042.14644.14644,0,0,1,.042.1084v1.7041a.14853.14853,0,0,1-.042.10449.138.138,0,0,1-.10742.04493h-.75A.15649.15649,0,0,1,13.86605,7.03035Z"/><path class="b" d="M19.42464,5.11043a.14645.14645,0,0,1,.042.1084V6.79012a1.7648,1.7648,0,0,1-.24024.92773,1.622,1.622,0,0,1-.65332.61426,1.89986,1.89986,0,0,1-.918.21h-.57617a1.80447,1.80447,0,0,1-.83984-.18554,1.32885,1.32885,0,0,1-.54883-.50391,1.34964,1.34964,0,0,1-.18945-.70215V5.21883a.14148.14148,0,0,1,.04492-.1084.15648.15648,0,0,1,.11133-.042H16.287a.14646.14646,0,0,1,.1084.042.15037.15037,0,0,1,.042.1084l.00586,1.43945a.55227.55227,0,0,0,.456-.249,1.223,1.223,0,0,0,.13184-.62695V5.23055a.15826.15826,0,0,1,.04492-.11719.14944.14944,0,0,1,.11133-.04492h.62305a.1436.1436,0,0,1,.10546.04785.16084.16084,0,0,1,.04493.11426V5.794a1.56421,1.56421,0,0,1-.35352,1.08007,1.49134,1.49134,0,0,1-1.002.46289.76522.76522,0,0,0,.30273.293.85914.85914,0,0,0,.417.10254h.1377a1.19228,1.19228,0,0,0,.55176-.126.96224.96224,0,0,0,.38476-.34766.92779.92779,0,0,0,.1377-.49805v-1.542a.14644.14644,0,0,1,.042-.1084.14494.14494,0,0,1,.1084-.042h.62988A.14269.14269,0,0,1,19.42464,5.11043Z"/><path class="b" d="M21.75667,8.45223a.138.138,0,0,1-.04492-.10742V6.56844a.60206.60206,0,0,0-.67871-.68359h-.91211a.14308.14308,0,0,1-.10449-.0459.14054.14054,0,0,1-.04492-.1045V5.21883a.14152.14152,0,0,1,.04492-.1084.14687.14687,0,0,1,.10449-.042h.94824a1.91931,1.91931,0,0,1,1.24512.3418,1.38241,1.38241,0,0,1,.41113,1.12207v1.8125a.15109.15109,0,0,1-.042.10449.14152.14152,0,0,1-.1084.04492h-.708A.15258.15258,0,0,1,21.75667,8.45223Z"/><path class="b" d="M23.44808,8.45223a.13879.13879,0,0,1-.0459-.10742v-3.126a.14232.14232,0,0,1,.0459-.1084.15257.15257,0,0,1,.11035-.042h.75a.14644.14644,0,0,1,.1084.042.15037.15037,0,0,1,.042.1084v3.126a.15114.15114,0,0,1-.042.10449.14152.14152,0,0,1-.1084.04492h-.75A.15257.15257,0,0,1,23.44808,8.45223Z"/><path class="b" d="M28.19124,5.43465A1.44832,1.44832,0,0,1,28.575,6.53231v1.8125a.14687.14687,0,0,1-.042.10449.138.138,0,0,1-.10742.04492H26.787a.15357.15357,0,0,1-.14942-.14941V7.8282a.138.138,0,0,1,.04493-.10742.14687.14687,0,0,1,.10449-.042h.77441V6.58016a.71485.71485,0,0,0-.15039-.48535.48838.48838,0,0,0-.38965-.17383h-.46777l-.50977,2.418a.185.185,0,0,1-.04882.11035.138.138,0,0,1-.10743.04492H25.1971a.14728.14728,0,0,1-.11035-.04492.11711.11711,0,0,1-.0332-.11035l.58789-2.41211H25.245a.1414.1414,0,0,1-.10743-.04492.15651.15651,0,0,1-.042-.11133V5.21883a.14152.14152,0,0,1,.04492-.1084.14691.14691,0,0,1,.1045-.042h1.92675A1.41541,1.41541,0,0,1,28.19124,5.43465Z"/><path class="b" d="M17.078,15.8243a.17861.17861,0,0,1-.04785-.12012v-.60547a.18774.18774,0,0,1,.042-.11426.24294.24294,0,0,1,.1084-.07812l.18555-.07715a.88247.88247,0,0,0,.60059-.93066.79142.79142,0,0,0-.13575-.52832.65072.65072,0,0,0-.49414-.14942H15.74007a.14728.14728,0,0,1-.11035-.04492.15182.15182,0,0,1-.0459-.11133v-.55761a.1323.1323,0,0,1,.04883-.10254.16.16,0,0,1,.10742-.042h1.80664a1.45816,1.45816,0,0,1,1.12207.375,1.633,1.633,0,0,1,.3418,1.13086,1.76292,1.76292,0,0,1-.45019,1.248,2.38677,2.38677,0,0,1-1.12793.67871l-.2461.07129A.1108.1108,0,0,1,17.078,15.8243Zm-1.44824,1.06836a.14233.14233,0,0,1-.0459-.1084V13.8868a.14232.14232,0,0,1,.0459-.1084.15675.15675,0,0,1,.11035-.042h.68457a.14382.14382,0,0,1,.14942.15039v2.89746a.14646.14646,0,0,1-.042.1084.14273.14273,0,0,1-.10743.042h-.68457A.15257.15257,0,0,1,15.62972,16.89266Z"/><path class="b" d="M19.63167,15.74715a.14231.14231,0,0,1-.04589-.1084v-3.126a.14231.14231,0,0,1,.04589-.1084.15672.15672,0,0,1,.11036-.042h.75a.14392.14392,0,0,1,.15039.1504v3.126a.14937.14937,0,0,1-.042.10449.14148.14148,0,0,1-.10839.04493h-.75A.156.156,0,0,1,19.63167,15.74715Z"/><path class="b" d="M22.13558,13.43074c.00879.16407.05664.25977.14453.28809l.168.05957a.14.14,0,0,1,.0752.06934.23993.23993,0,0,1,.02636.11132l.00586.30567a.15632.15632,0,0,1-.081.14062.2951.2951,0,0,1-.19434.03907l-.24609-.03614a.75808.75808,0,0,1-.51563-.333,1.19417,1.19417,0,0,1-.2041-.7168v-.8457a.208.208,0,0,1,.05078-.1084.12973.12973,0,0,1,.09864-.042h1.21191a1.54837,1.54837,0,0,1,1.17285.40528,1.70768,1.70768,0,0,1,.42383,1.13672c.00391.04.00586.09668.00586.168a1.89864,1.89864,0,0,1-.38379,1.26367,1.51374,1.51374,0,0,1-1.21875.45215H21.536a.1601.1601,0,0,1-.11133-.041.145.145,0,0,1-.04492-.1084V15.087a.15485.15485,0,0,1,.04492-.11132.151.151,0,0,1,.11133-.04493h1.11035a.71874.71874,0,0,0,.501-.17675.7014.7014,0,0,0,.21289-.501c.00391-.04.00586-.10059.00586-.18066,0-.0752-.002-.13379-.00586-.17383a.68219.68219,0,0,0-.207-.501.72373.72373,0,0,0-.50684-.17676h-.51074Z"/><path class="b" d="M24.88753,14.3243a.138.138,0,0,1-.04492-.10742v-1.7041a.14152.14152,0,0,1,.04492-.1084.16083.16083,0,0,1,.11133-.042h.75a.14385.14385,0,0,1,.14942.1504v1.7041a.14528.14528,0,0,1-.042.10449.138.138,0,0,1-.10742.04492h-.75A.15651.15651,0,0,1,24.88753,14.3243Z"/><path class="b" d="M28.64339,15.74324a.15092.15092,0,0,1-.11132.04493H26.60628a.16006.16006,0,0,1-.11132-.041.145.145,0,0,1-.04493-.1084v-.5166a.14437.14437,0,0,1,.04493-.10742.15647.15647,0,0,1,.11132-.042h.9961l-.05371-1.18262a1.071,1.071,0,0,0-.12012-.50391.41275.41275,0,0,0-.37207-.15527h-.30566a.14807.14807,0,0,1-.10547-.04492.14417.14417,0,0,1-.04493-.10547v-.50391a.15652.15652,0,0,1,.042-.11133.14352.14352,0,0,1,.1084-.04492h.32324a1.57414,1.57414,0,0,1,1.14355.35449,1.64517,1.64517,0,0,1,.38672,1.13379l.07813,1.83008A.12263.12263,0,0,1,28.64339,15.74324Z"/><path class="b" d="M13.5057,20.01375a1.38689,1.38689,0,0,1,.417,1.11328V22.9327a.14916.14916,0,0,1-.042.10547.14505.14505,0,0,1-.1084.04492h-.708a.15415.15415,0,0,1-.11035-.042.14153.14153,0,0,1-.04492-.1084V21.15731a.60276.60276,0,0,0-.67871-.68457h-.38965a3.67816,3.67816,0,0,0-.08984.88183l.04785,1.57813a.1415.1415,0,0,1-.04493.1084.15647.15647,0,0,1-.11132.042l-1.27149-.00586a.16087.16087,0,0,1-.11133-.042.14153.14153,0,0,1-.04492-.1084V22.4532a.14151.14151,0,0,1,.04492-.10839.15652.15652,0,0,1,.11133-.042h.48535v-.94238a3.24007,3.24007,0,0,1,.09082-.88769h-.35449a.15652.15652,0,0,1-.11133-.042.14136.14136,0,0,1-.04492-.10742v-.5166a.14505.14505,0,0,1,.04492-.1084.16009.16009,0,0,1,.11133-.041h1.67383A1.86691,1.86691,0,0,1,13.5057,20.01375Z"/><path class="b" d="M14.64632,23.0411a.14233.14233,0,0,1-.0459-.1084v-3.126a.14233.14233,0,0,1,.0459-.1084.156.156,0,0,1,.11035-.041h.75a.14242.14242,0,0,1,.1504.14941v3.126a.15347.15347,0,0,1-.042.10547.145.145,0,0,1-.1084.04492h-.75A.15257.15257,0,0,1,14.64632,23.0411Z"/><path class="b" d="M17.15023,20.72469c.00879.16406.05664.26074.14453.28809l.168.06054a.138.138,0,0,1,.07519.06836.23983.23983,0,0,1,.02637.11133l.00586.30566a.15785.15785,0,0,1-.08105.14161.30106.30106,0,0,1-.19434.03906l-.24609-.03614a.76471.76471,0,0,1-.51563-.333,1.19927,1.19927,0,0,1-.2041-.71778v-.8457a.20792.20792,0,0,1,.05078-.1084.129.129,0,0,1,.09863-.041h1.21192a1.55185,1.55185,0,0,1,1.17285.40429,1.70775,1.70775,0,0,1,.42383,1.13672c.0039.041.00586.09668.00586.169A1.894,1.894,0,0,1,18.909,22.63a1.51411,1.51411,0,0,1-1.21875.45313H16.55062a.1565.1565,0,0,1-.11133-.042.145.145,0,0,1-.04492-.1084v-.55176a.15482.15482,0,0,1,.04492-.11133.151.151,0,0,1,.11133-.04492H17.661a.7187.7187,0,0,0,.501-.17676.70137.70137,0,0,0,.21289-.501c.0039-.04.00586-.10058.00586-.17968,0-.07617-.002-.13477-.00586-.17481a.68216.68216,0,0,0-.207-.501.72823.72823,0,0,0-.50684-.17676h-.51074Z"/><path class="b" d="M19.92562,23.0411a.14233.14233,0,0,1-.0459-.1084v-3.126a.14233.14233,0,0,1,.0459-.1084.156.156,0,0,1,.11035-.041h.75a.1424.1424,0,0,1,.15039.14941v3.126a.1535.1535,0,0,1-.042.10547.145.145,0,0,1-.1084.04492h-.75A.15257.15257,0,0,1,19.92562,23.0411Z"/><path class="b" d="M23.31624,23.0411a.14153.14153,0,0,1-.04492-.1084V21.15731a.60276.60276,0,0,0-.67871-.68457H21.6805a.142.142,0,0,1-.10449-.04493.14363.14363,0,0,1-.04492-.10449v-.5166a.14153.14153,0,0,1,.04492-.1084.15017.15017,0,0,1,.10449-.041h.94824a1.91365,1.91365,0,0,1,1.24512.34179,1.37978,1.37978,0,0,1,.41113,1.12207V22.9327a.15346.15346,0,0,1-.042.10547.145.145,0,0,1-.1084.04492h-.708A.15258.15258,0,0,1,23.31624,23.0411Z"/><path class="b" d="M28.15121,20.01375a1.38689,1.38689,0,0,1,.417,1.11328V22.9327a.14916.14916,0,0,1-.042.10547.14505.14505,0,0,1-.1084.04492h-.708a.15413.15413,0,0,1-.11035-.042.1415.1415,0,0,1-.04492-.1084V21.15731a.60276.60276,0,0,0-.67871-.68457h-.38965a3.67866,3.67866,0,0,0-.08985.88183l.04785,1.57813a.1415.1415,0,0,1-.04492.1084.15648.15648,0,0,1-.11133.042l-1.27148-.00586a.16085.16085,0,0,1-.11133-.042.14153.14153,0,0,1-.04492-.1084V22.4532a.14151.14151,0,0,1,.04492-.10839.1565.1565,0,0,1,.11133-.042h.48535v-.94238a3.24007,3.24007,0,0,1,.09082-.88769h-.35449a.1565.1565,0,0,1-.11133-.042.14132.14132,0,0,1-.04492-.10742v-.5166a.145.145,0,0,1,.04492-.1084.16008.16008,0,0,1,.11133-.041H26.912A1.86691,1.86691,0,0,1,28.15121,20.01375Z"/></svg>