<svg xmlns="http://www.w3.org/2000/svg" viewBox="0 0 33.11981 27.3177"><defs><style>.a{fill:#fff;}.b{fill:#2d2a28;}</style></defs><rect class="a" width="33.11981" height="27.3177"/><path class="b" d="M12.47386,8.75813a.1427.1427,0,0,1,.042.10742v1.57227a1.75885,1.75885,0,0,1-.24024.92675,1.62434,1.62434,0,0,1-.65332.61524,1.89986,1.89986,0,0,1-.918.21h-.57617a1.80435,1.80435,0,0,1-.83984-.18555,1.32446,1.32446,0,0,1-.54883-.50488A1.34615,1.34615,0,0,1,8.55,10.79817V8.86555A.138.138,0,0,1,8.595,8.75813a.15647.15647,0,0,1,.11132-.042h.62989a.14382.14382,0,0,1,.15039.14941L9.49242,10.306a.55709.55709,0,0,0,.45605-.249,1.22788,1.22788,0,0,0,.13184-.627V8.87825a.15526.15526,0,0,1,.04492-.11719.14941.14941,0,0,1,.11133-.04492h.623a.14007.14007,0,0,1,.10546.04785.1592.1592,0,0,1,.04493.11426v.56347a1.56422,1.56422,0,0,1-.35352,1.08008,1.49058,1.49058,0,0,1-1.002.46191.76767.76767,0,0,0,.30273.29395.85914.85914,0,0,0,.417.10254h.1377a1.19216,1.19216,0,0,0,.55176-.126.9644.9644,0,0,0,.38476-.34863.923.923,0,0,0,.1377-.49805v-1.542a.14269.14269,0,0,1,.042-.10742.14494.14494,0,0,1,.1084-.042h.62988A.14269.14269,0,0,1,12.47386,8.75813Z"/><path class="b" d="M13.17992,12.09993a.14231.14231,0,0,1-.0459-.1084v-3.126a.13873.13873,0,0,1,.0459-.10742.15254.15254,0,0,1,.11035-.042h.75a.14382.14382,0,0,1,.15039.14941v3.126a.1535.1535,0,0,1-.042.10547.14505.14505,0,0,1-.1084.04492h-.75A.15254.15254,0,0,1,13.17992,12.09993Z"/><path class="b" d="M17.92211,9.08137A1.45071,1.45071,0,0,1,18.30589,10.18v1.81153a.14916.14916,0,0,1-.042.10547.14136.14136,0,0,1-.10742.04492H16.51781a.14588.14588,0,0,1-.10449-.04492.14417.14417,0,0,1-.04493-.10547V11.4759a.1415.1415,0,0,1,.04493-.1084.15114.15114,0,0,1,.10449-.042h.77441V10.22785a.71931.71931,0,0,0-.15039-.48632.49137.49137,0,0,0-.38965-.17383h-.46777l-.50977,2.418a.18775.18775,0,0,1-.04882.11133.1414.1414,0,0,1-.10743.04492H14.928a.151.151,0,0,1-.11035-.04492.11892.11892,0,0,1-.0332-.11133l.58789-2.41211h-.39648a.138.138,0,0,1-.10743-.04492.15331.15331,0,0,1-.042-.11133V8.86555a.138.138,0,0,1,.04492-.10742.14691.14691,0,0,1,.1045-.042h1.92675A1.41909,1.41909,0,0,1,17.92211,9.08137Z"/><path class="b" d="M18.99925,10.67805a.14152.14152,0,0,1-.04492-.1084V8.86555a.138.138,0,0,1,.04492-.10742.15651.15651,0,0,1,.11133-.042h.75a.14377.14377,0,0,1,.14942.14941v1.7041a.14916.14916,0,0,1-.042.10547.14132.14132,0,0,1-.10742.04492h-.75A.15651.15651,0,0,1,18.99925,10.67805Z"/><path class="b" d="M24.55785,8.75813a.14269.14269,0,0,1,.042.10742v1.57227a1.75894,1.75894,0,0,1-.24023.92675,1.62431,1.62431,0,0,1-.65333.61524,1.89983,1.89983,0,0,1-.918.21h-.57618a1.80435,1.80435,0,0,1-.83984-.18555,1.32458,1.32458,0,0,1-.54883-.50488,1.34623,1.34623,0,0,1-.18945-.70117V8.86555a.138.138,0,0,1,.04492-.10742.15648.15648,0,0,1,.11133-.042h.62988a.14382.14382,0,0,1,.15039.14941L21.5764,10.306a.55713.55713,0,0,0,.45606-.249,1.22789,1.22789,0,0,0,.13183-.627V8.87825a.15526.15526,0,0,1,.04492-.11719.14942.14942,0,0,1,.11133-.04492h.623a.14009.14009,0,0,1,.10547.04785.15923.15923,0,0,1,.04492.11426v.56347a1.56417,1.56417,0,0,1-.35352,1.08008,1.49056,1.49056,0,0,1-1.00195.46191.76776.76776,0,0,0,.30274.29395.85909.85909,0,0,0,.417.10254h.13769a1.19213,1.19213,0,0,0,.55176-.126.9645.9645,0,0,0,.38477-.34863.92309.92309,0,0,0,.13769-.49805v-1.542a.14269.14269,0,0,1,.042-.10742.14494.14494,0,0,1,.1084-.042h.62989A.14272.14272,0,0,1,24.55785,8.75813Z"/><path class="b" d="M10.0891,17.972a.1415.1415,0,0,1-.04492-.1084V16.1595a.14084.14084,0,0,1,.04492-.10743.15648.15648,0,0,1,.11133-.042h.75a.14272.14272,0,0,1,.10742.042.14574.14574,0,0,1,.042.10743v1.7041a.14916.14916,0,0,1-.042.10547.138.138,0,0,1-.10742.04492h-.75A.15648.15648,0,0,1,10.0891,17.972Z"/><path class="b" d="M14.80785,16.37629a1.44832,1.44832,0,0,1,.38379,1.09766v1.8125a.14854.14854,0,0,1-.042.10449.138.138,0,0,1-.10742.04492H13.40355a.14205.14205,0,0,1-.10449-.04492.14359.14359,0,0,1-.04492-.10449v-.5166a.14148.14148,0,0,1,.04492-.1084.15013.15013,0,0,1,.10449-.041H14.178V17.5218a.71485.71485,0,0,0-.15039-.48535.48919.48919,0,0,0-.38964-.17481h-.46778l-.50976,2.418a.18777.18777,0,0,1-.04883.11133.138.138,0,0,1-.10742.04492h-.69043a.14725.14725,0,0,1-.11035-.04492.11889.11889,0,0,1-.03321-.11133l.58789-2.41113h-.39648a.13876.13876,0,0,1-.10742-.0459.15256.15256,0,0,1-.042-.11035V16.1595a.14085.14085,0,0,1,.04493-.10743.14687.14687,0,0,1,.10449-.042h1.92676A1.41545,1.41545,0,0,1,14.80785,16.37629Z"/><path class="b" d="M15.885,17.972a.1415.1415,0,0,1-.04493-.1084V16.1595a.14085.14085,0,0,1,.04493-.10743.15647.15647,0,0,1,.11132-.042h.75a.14273.14273,0,0,1,.10743.042.14574.14574,0,0,1,.042.10743v1.7041a.14916.14916,0,0,1-.042.10547.138.138,0,0,1-.10743.04492h-.75A.15647.15647,0,0,1,15.885,17.972Z"/><path class="b" d="M19.64086,19.39094a.151.151,0,0,1-.11133.04492H17.60375a.15648.15648,0,0,1-.11133-.042.14134.14134,0,0,1-.04492-.10742v-.5166a.145.145,0,0,1,.04492-.1084.16.16,0,0,1,.11133-.041h.99609l-.05371-1.18261a1.071,1.071,0,0,0-.12012-.50391.41314.41314,0,0,0-.37207-.15625h-.30566a.14418.14418,0,0,1-.10547-.04492.142.142,0,0,1-.04492-.10449v-.50391a.15648.15648,0,0,1,.042-.11133.14009.14009,0,0,1,.1084-.04492h.32324a1.57838,1.57838,0,0,1,1.14355.35351,1.64607,1.64607,0,0,1,.38672,1.13477l.07813,1.83008A.12474.12474,0,0,1,19.64086,19.39094Z"/><path class="b" d="M21.02953,17.07746c.00879.16407.05664.26075.14453.28907l.168.05957a.13991.13991,0,0,1,.07519.06933.2331.2331,0,0,1,.02637.11035l.00586.30567a.15783.15783,0,0,1-.08106.1416.295.295,0,0,1-.19433.03906L20.928,18.056a.76138.76138,0,0,1-.51562-.333,1.19616,1.19616,0,0,1-.2041-.71679V16.1595a.20838.20838,0,0,1,.05078-.10743.1264.1264,0,0,1,.09863-.042h1.21192a1.5484,1.5484,0,0,1,1.17285.40527,1.70381,1.70381,0,0,1,.42383,1.13672c.0039.04.00586.09571.00586.168a1.89407,1.89407,0,0,1-.38379,1.2627,1.511,1.511,0,0,1-1.21875.45312H20.42992a.15648.15648,0,0,1-.11133-.042.14134.14134,0,0,1-.04492-.10742v-.55274a.15505.15505,0,0,1,.15625-.15625h1.11035a.71876.71876,0,0,0,.501-.17675.69962.69962,0,0,0,.21289-.501c.0039-.04.00586-.09961.00586-.17969,0-.07617-.002-.13379-.00586-.17383a.68216.68216,0,0,0-.207-.501.7237.7237,0,0,0-.50684-.17676h-.51074Z"/></svg>