<svg xmlns="http://www.w3.org/2000/svg" viewBox="0 0 33.11981 27.3177"><defs><style>.a{fill:#d9d9d9;}.b{fill:#070706;}</style></defs><rect class="a" width="33.11981" height="27.3177"/><path class="b" d="M12.47452,8.75748a.14644.14644,0,0,1,.042.10839v1.57129a1.76483,1.76483,0,0,1-.24024.92774,1.631,1.631,0,0,1-.65332.61523,1.91048,1.91048,0,0,1-.918.209h-.57617a1.80447,1.80447,0,0,1-.83984-.18555,1.32878,1.32878,0,0,1-.54883-.50391,1.34962,1.34962,0,0,1-.18945-.70215V8.86587a.14147.14147,0,0,1,.04492-.10839.1608.1608,0,0,1,.11133-.042h.62988a.1439.1439,0,0,1,.15039.15039l.00586,1.43946a.55225.55225,0,0,0,.456-.249,1.22293,1.22293,0,0,0,.13184-.627V8.87759a.15828.15828,0,0,1,.04492-.11719.14944.14944,0,0,1,.11133-.04492h.623a.14362.14362,0,0,1,.10547.04785.16089.16089,0,0,1,.04492.11426v.56446a1.56161,1.56161,0,0,1-.35352,1.0791,1.49134,1.49134,0,0,1-1.002.46289.77437.77437,0,0,0,.30273.29394.86938.86938,0,0,0,.417.10157h.1377a1.19226,1.19226,0,0,0,.55176-.126.96224.96224,0,0,0,.38476-.34766.92776.92776,0,0,0,.1377-.498v-1.542a.14643.14643,0,0,1,.042-.10839.14875.14875,0,0,1,.1084-.042h.62988A.14642.14642,0,0,1,12.47452,8.75748Z"/><path class="b" d="M13.18058,12.09927a.13876.13876,0,0,1-.0459-.10742v-3.126a.14231.14231,0,0,1,.0459-.10839.15671.15671,0,0,1,.11035-.042h.75a.1439.1439,0,0,1,.15039.15039v3.126a.1494.1494,0,0,1-.042.10449.14148.14148,0,0,1-.1084.04492h-.75A.15257.15257,0,0,1,13.18058,12.09927Z"/><path class="b" d="M17.92277,9.08169a1.4498,1.4498,0,0,1,.38379,1.09766v1.8125a.14526.14526,0,0,1-.042.10449.138.138,0,0,1-.10742.04492H16.51847a.142.142,0,0,1-.10449-.04492.14047.14047,0,0,1-.04492-.10449v-.5166a.13938.13938,0,0,1,.04492-.10742.14688.14688,0,0,1,.10449-.042h.77441V10.22818a.71759.71759,0,0,0-.15039-.48633.48838.48838,0,0,0-.38965-.17383h-.46777l-.50976,2.418a.18245.18245,0,0,1-.04883.11035.138.138,0,0,1-.10742.04492h-.69043a.14725.14725,0,0,1-.11036-.04492.11638.11638,0,0,1-.0332-.11035L15.373,9.57388h-.39648a.14132.14132,0,0,1-.10742-.04492.15649.15649,0,0,1-.042-.11133V8.86587a.14148.14148,0,0,1,.04493-.10839.1511.1511,0,0,1,.10449-.042h1.92676A1.41545,1.41545,0,0,1,17.92277,9.08169Z"/><path class="b" d="M18.99991,10.6774A.138.138,0,0,1,18.955,10.57V8.86587a.14151.14151,0,0,1,.04492-.10839.16083.16083,0,0,1,.11133-.042h.75a.14385.14385,0,0,1,.14942.15039V10.57a.14688.14688,0,0,1-.042.10449.138.138,0,0,1-.10742.04492h-.75A.15651.15651,0,0,1,18.99991,10.6774Z"/><path class="b" d="M24.55851,8.75748a.14643.14643,0,0,1,.042.10839v1.57129a1.76492,1.76492,0,0,1-.24023.92774,1.631,1.631,0,0,1-.65332.61523,1.91051,1.91051,0,0,1-.918.209h-.57617a1.80452,1.80452,0,0,1-.83985-.18555,1.32884,1.32884,0,0,1-.54883-.50391,1.34971,1.34971,0,0,1-.18945-.70215V8.86587a.14151.14151,0,0,1,.04492-.10839.16083.16083,0,0,1,.11133-.042h.62988a.1439.1439,0,0,1,.15039.15039l.00586,1.43946a.55229.55229,0,0,0,.45606-.249,1.22293,1.22293,0,0,0,.13183-.627V8.87759a.15824.15824,0,0,1,.04493-.11719.14942.14942,0,0,1,.11132-.04492h.623a.1436.1436,0,0,1,.10547.04785.16089.16089,0,0,1,.04492.11426v.56446a1.5616,1.5616,0,0,1-.35351,1.0791,1.49137,1.49137,0,0,1-1.002.46289.7744.7744,0,0,0,.30274.29394.86935.86935,0,0,0,.417.10157h.13769a1.19223,1.19223,0,0,0,.55176-.126.96233.96233,0,0,0,.38477-.34766.92784.92784,0,0,0,.13769-.498v-1.542a.14644.14644,0,0,1,.042-.10839.14872.14872,0,0,1,.10839-.042h.62989A.14646.14646,0,0,1,24.55851,8.75748Z"/><path class="b" d="M10.08976,17.97232a.14152.14152,0,0,1-.04492-.1084v-1.7041a.14152.14152,0,0,1,.04492-.1084.16084.16084,0,0,1,.11133-.042h.75a.14382.14382,0,0,1,.14941.15039v1.7041a.14525.14525,0,0,1-.042.10449.138.138,0,0,1-.10742.04492h-.75A.16006.16006,0,0,1,10.08976,17.97232Z"/><path class="b" d="M14.80851,16.37564a1.45068,1.45068,0,0,1,.38379,1.09863V19.2858a.14528.14528,0,0,1-.042.10449.1388.1388,0,0,1-.10743.0459H13.40421a.14308.14308,0,0,1-.10449-.0459.14054.14054,0,0,1-.04492-.10449v-.51563a.14153.14153,0,0,1,.04492-.1084.15114.15114,0,0,1,.10449-.042h.77442V17.52212a.71936.71936,0,0,0-.15039-.48632.48836.48836,0,0,0-.38965-.17383h-.46778l-.50976,2.418a.1825.1825,0,0,1-.04883.11035.13878.13878,0,0,1-.10742.0459h-.69043a.14807.14807,0,0,1-.11035-.0459.11638.11638,0,0,1-.03321-.11035l.58789-2.41211h-.39648a.138.138,0,0,1-.10742-.04493.15647.15647,0,0,1-.042-.11132v-.55176a.14148.14148,0,0,1,.04492-.1084.15114.15114,0,0,1,.10449-.042H13.789A1.41543,1.41543,0,0,1,14.80851,16.37564Z"/><path class="b" d="M15.88566,17.97232a.14148.14148,0,0,1-.04492-.1084v-1.7041a.14148.14148,0,0,1,.04492-.1084.16084.16084,0,0,1,.11133-.042h.75a.14382.14382,0,0,1,.14941.15039v1.7041a.14525.14525,0,0,1-.042.10449.138.138,0,0,1-.10742.04492h-.75A.16006.16006,0,0,1,15.88566,17.97232Z"/><path class="b" d="M19.64152,19.39029a.15185.15185,0,0,1-.11133.0459H17.60441a.1608.1608,0,0,1-.11133-.042.145.145,0,0,1-.04492-.10839v-.51563a.145.145,0,0,1,.04492-.1084.16084.16084,0,0,1,.11133-.042h.99609l-.05371-1.18164a1.06433,1.06433,0,0,0-.12012-.50391.41089.41089,0,0,0-.37207-.15625h-.30566a.15347.15347,0,0,1-.15039-.15039v-.5039a.15258.15258,0,0,1,.042-.11036.14086.14086,0,0,1,.1084-.04589h.32324a1.57414,1.57414,0,0,1,1.14356.35449,1.64517,1.64517,0,0,1,.38671,1.13379l.07813,1.83008A.12264.12264,0,0,1,19.64152,19.39029Z"/><path class="b" d="M21.03019,17.07779c.00879.16406.05664.25976.14453.28808l.168.05957a.14372.14372,0,0,1,.07519.06934.23983.23983,0,0,1,.02637.11133l.00586.30566a.15531.15531,0,0,1-.081.14063.2894.2894,0,0,1-.19434.03906l-.24609-.03516a.76272.76272,0,0,1-.51563-.334,1.19412,1.19412,0,0,1-.2041-.7168v-.8457a.20788.20788,0,0,1,.05078-.1084.12973.12973,0,0,1,.09863-.042h1.21192a1.55215,1.55215,0,0,1,1.17285.40527,1.70775,1.70775,0,0,1,.42383,1.13672c.0039.04.00586.09668.00586.16895a1.89581,1.89581,0,0,1-.38379,1.26269,1.51411,1.51411,0,0,1-1.21875.45313H20.43058a.1608.1608,0,0,1-.11133-.042.145.145,0,0,1-.04492-.10839V18.734a.15482.15482,0,0,1,.04492-.11133.151.151,0,0,1,.11133-.04492h1.11035a.71875.71875,0,0,0,.501-.17676.70139.70139,0,0,0,.21289-.501c.0039-.04.00586-.10058.00586-.17968,0-.07618-.002-.13477-.00586-.17481a.6822.6822,0,0,0-.207-.501.72827.72827,0,0,0-.50684-.17675h-.51074Z"/></svg>