<svg xmlns="http://www.w3.org/2000/svg" viewBox="0 0 33.11981 27.3177"><defs><style>.a{fill:#fff;}.b{fill:#2d2a28;}</style></defs><rect class="a" width="33.11981" height="27.3177"/><path class="b" d="M10.40726,15.74739a.15113.15113,0,0,1-.043-.1084V13.86262a.601.601,0,0,0-.67773-.68359H8.31937a.15332.15332,0,0,1-.11133-.042.145.145,0,0,1-.04492-.10839V12.513a.14505.14505,0,0,1,.04492-.1084.15747.15747,0,0,1,.11133-.042H9.71781a1.83768,1.83768,0,0,1,1.24414.36621,1.44215,1.44215,0,0,1,.418,1.13965V15.639a.14505.14505,0,0,1-.04492.1084.16351.16351,0,0,1-.11133.041h-.709A.14737.14737,0,0,1,10.40726,15.74739Zm-2.19922,0a.14505.14505,0,0,1-.04492-.1084V13.887a.145.145,0,0,1,.04492-.10839.15743.15743,0,0,1,.11133-.042h.707a.15268.15268,0,0,1,.10938.042.14965.14965,0,0,1,.041.10839v1.752a.14849.14849,0,0,1-.041.10449.14364.14364,0,0,1-.10938.04492h-.707A.15676.15676,0,0,1,8.208,15.74739Z"/><path class="b" d="M15.91508,12.40461a.14967.14967,0,0,1,.041.1084v1.57227a1.7638,1.7638,0,0,1-.24023.92675,1.62227,1.62227,0,0,1-.65235.61524,1.91366,1.91366,0,0,1-.918.21h-.57617a1.80465,1.80465,0,0,1-.83984-.18652,1.32294,1.32294,0,0,1-.54883-.50391,1.34054,1.34054,0,0,1-.18945-.70215V12.513a.1382.1382,0,0,1,.04492-.1084.15747.15747,0,0,1,.11133-.042h.6289a.15272.15272,0,0,1,.10938.042.14967.14967,0,0,1,.041.1084l.00586,1.43945a.5558.5558,0,0,0,.457-.248,1.23026,1.23026,0,0,0,.13085-.62793v-.55176a.16218.16218,0,0,1,.04493-.11719.15485.15485,0,0,1,.11132-.04492h.623a.14049.14049,0,0,1,.10547.04785.15682.15682,0,0,1,.04492.11426v.56445a1.56122,1.56122,0,0,1-.35351,1.08008,1.49066,1.49066,0,0,1-1.002.46192.78769.78769,0,0,0,.30274.29394.86492.86492,0,0,0,.418.10156h.13672a1.19345,1.19345,0,0,0,.55273-.126.96876.96876,0,0,0,.38477-.34766.92711.92711,0,0,0,.13671-.49805V12.513a.14534.14534,0,0,1,.15039-.15039h.63086A.14809.14809,0,0,1,15.91508,12.40461Z"/><path class="b" d="M16.59672,14.32453a.1348.1348,0,0,1-.04493-.10742V12.513a.13821.13821,0,0,1,.04493-.1084.15743.15743,0,0,1,.11132-.042h.75a.14809.14809,0,0,1,.10743.042.14967.14967,0,0,1,.041.1084v1.7041a.14847.14847,0,0,1-.041.10449.13942.13942,0,0,1-.10743.04493h-.75A.15328.15328,0,0,1,16.59672,14.32453Z"/><path class="b" d="M18.22172,15.74348a.14422.14422,0,0,1-.04493-.10449v-.5166a.1444.1444,0,0,1,.04493-.10743.14915.14915,0,0,1,.10547-.042H19.833V13.86262a.59955.59955,0,0,0-.67773-.67773h-.76758a.1436.1436,0,0,1-.10937-.04493.16.16,0,0,1-.041-.11132V12.513a.14505.14505,0,0,1,.04492-.1084.15005.15005,0,0,1,.10547-.042h.79688a1.95239,1.95239,0,0,1,1.26953.35449,1.40575,1.40575,0,0,1,.42969,1.14551V14.973h.209a.14123.14123,0,0,1,.10742.042.14278.14278,0,0,1,.043.10743v.5166a.14229.14229,0,0,1-.043.10449.1366.1366,0,0,1-.10742.04492H18.32719A.14418.14418,0,0,1,18.22172,15.74348Z"/><path class="b" d="M21.79789,15.74739a.145.145,0,0,1-.04492-.1084V12.513a.145.145,0,0,1,.04492-.1084.15745.15745,0,0,1,.11133-.042h1.416a1.87962,1.87962,0,0,1,1.25586.35156,1.44976,1.44976,0,0,1,.40625,1.1543V15.639a.14229.14229,0,0,1-.043.10449.1366.1366,0,0,1-.10742.04492h-.707a.15676.15676,0,0,1-.11133-.041.1382.1382,0,0,1-.04492-.1084V13.86262a.60177.60177,0,0,0-.67773-.68359h-.5293v2.46a.14846.14846,0,0,1-.041.10449.14362.14362,0,0,1-.10937.04492h-.707A.15675.15675,0,0,1,21.79789,15.74739Z"/></svg>