<svg xmlns="http://www.w3.org/2000/svg" viewBox="0 0 33.11981 27.3177"><defs><style>.a{fill:#d9d9d9;}.b{fill:#070706;}</style></defs><rect class="a" width="33.11981" height="27.3177"/><path class="b" d="M13.86606,7.03091a.14152.14152,0,0,1-.04492-.1084V5.21841a.138.138,0,0,1,.04492-.10742.15731.15731,0,0,1,.11133-.043h.75a.14531.14531,0,0,1,.14942.15039v1.7041a.14526.14526,0,0,1-.042.1045.13875.13875,0,0,1-.10742.04589h-.75A.16083.16083,0,0,1,13.86606,7.03091Z"/><path class="b" d="M19.42466,5.111a.14271.14271,0,0,1,.042.10742V6.79068a1.76141,1.76141,0,0,1-.24023.92676,1.62439,1.62439,0,0,1-.65332.61523,1.911,1.911,0,0,1-.918.21H17.079a1.81657,1.81657,0,0,1-.83985-.18555,1.32436,1.32436,0,0,1-.73828-1.207V5.21841a.138.138,0,0,1,.04492-.10742.15731.15731,0,0,1,.11133-.043H16.287a.14534.14534,0,0,1,.15039.15039l.00586,1.44043a.5571.5571,0,0,0,.45606-.249,1.22787,1.22787,0,0,0,.13183-.62695V5.23013a.15448.15448,0,0,1,.04493-.11621.15025.15025,0,0,1,.11132-.0459h.62305a.14115.14115,0,0,1,.10547.04883.157.157,0,0,1,.04492.11328v.56445a1.56421,1.56421,0,0,1-.35351,1.08008,1.49066,1.49066,0,0,1-1.002.46192.7744.7744,0,0,0,.30274.29394.85843.85843,0,0,0,.417.10156h.13769a1.19163,1.19163,0,0,0,.55176-.125.9645.9645,0,0,0,.38477-.34863A.92307.92307,0,0,0,18.537,6.7604v-1.542a.14272.14272,0,0,1,.042-.10742.14562.14562,0,0,1,.10839-.043h.62989A.14343.14343,0,0,1,19.42466,5.111Z"/><path class="b" d="M21.75669,8.45279a.14153.14153,0,0,1-.04492-.1084V6.568a.60245.60245,0,0,0-.67871-.68359H20.121a.15353.15353,0,0,1-.14942-.15039V5.21841a.138.138,0,0,1,.04493-.10742.14786.14786,0,0,1,.10449-.043h.94824a1.9135,1.9135,0,0,1,1.24512.34278,1.37978,1.37978,0,0,1,.41113,1.12207V8.34439a.1535.1535,0,0,1-.042.10547.14505.14505,0,0,1-.1084.04492h-.708A.15675.15675,0,0,1,21.75669,8.45279Z"/><path class="b" d="M23.4481,8.45279a.1423.1423,0,0,1-.0459-.1084v-3.126a.13874.13874,0,0,1,.0459-.10742.1533.1533,0,0,1,.11035-.043h.75a.14534.14534,0,0,1,.15039.15039v3.126a.1535.1535,0,0,1-.042.10547.14505.14505,0,0,1-.1084.04492h-.75A.15671.15671,0,0,1,23.4481,8.45279Z"/><path class="b" d="M28.19126,5.43423a1.45069,1.45069,0,0,1,.38379,1.09864V8.34439a.14916.14916,0,0,1-.042.10547.14139.14139,0,0,1-.10742.04492H26.787a.14588.14588,0,0,1-.10449-.04492.1442.1442,0,0,1-.04492-.10547V7.82876a.14151.14151,0,0,1,.04492-.10839.1511.1511,0,0,1,.10449-.042h.77442V6.58072a.71937.71937,0,0,0-.15039-.48633.48839.48839,0,0,0-.38965-.17383h-.46778l-.50976,2.418a.18774.18774,0,0,1-.04883.11133.14138.14138,0,0,1-.10742.04492h-.69043a.151.151,0,0,1-.11035-.04492.1189.1189,0,0,1-.03321-.11133l.5879-2.41211H25.245a.138.138,0,0,1-.10742-.04492.15648.15648,0,0,1-.042-.11133V5.21841a.138.138,0,0,1,.04492-.10742.14786.14786,0,0,1,.10449-.043h1.92676A1.41962,1.41962,0,0,1,28.19126,5.43423Z"/><path class="b" d="M17.078,15.82486a.18044.18044,0,0,1-.04785-.12012v-.60547a.18563.18563,0,0,1,.042-.11426.23569.23569,0,0,1,.1084-.07812l.18554-.07813a.88223.88223,0,0,0,.60059-.92968.78968.78968,0,0,0-.13574-.52832.65062.65062,0,0,0-.49414-.15039H15.74009a.15506.15506,0,0,1-.15625-.15528V12.5065a.13038.13038,0,0,1,.04883-.10156.15545.15545,0,0,1,.10742-.042h1.80664a1.45817,1.45817,0,0,1,1.12207.375,1.633,1.633,0,0,1,.3418,1.13086,1.76615,1.76615,0,0,1-.4502,1.248,2.385,2.385,0,0,1-1.12793.67773l-.24609.07227A.1108.1108,0,0,1,17.078,15.82486Zm-1.44824,1.06738a.13874.13874,0,0,1-.0459-.10742V13.88638a.13874.13874,0,0,1,.0459-.10742.15254.15254,0,0,1,.11035-.042h.68457a.14376.14376,0,0,1,.14941.14941v2.89844a.14529.14529,0,0,1-.14941.15039h-.68457A.1533.1533,0,0,1,15.62974,16.89224Z"/><path class="b" d="M19.63169,15.74673a.14085.14085,0,0,1-.0459-.1084v-3.126a.14021.14021,0,0,1,.0459-.10742.15258.15258,0,0,1,.11035-.042h.75a.14645.14645,0,0,1,.1084.042.148.148,0,0,1,.042.10742v3.126a.15349.15349,0,0,1-.042.10547.14149.14149,0,0,1-.1084.04493h-.75A.15258.15258,0,0,1,19.63169,15.74673Z"/><path class="b" d="M22.1356,13.43033c.00879.16406.05664.26074.14453.28808l.168.06055a.14177.14177,0,0,1,.07519.06836.23983.23983,0,0,1,.02637.11133l.00586.30566a.15783.15783,0,0,1-.08106.1416.29507.29507,0,0,1-.19433.03907l-.2461-.03614a.76469.76469,0,0,1-.51562-.333,1.19616,1.19616,0,0,1-.2041-.71679v-.84668a.2047.2047,0,0,1,.05078-.10742.12641.12641,0,0,1,.09863-.042h1.21192a1.55187,1.55187,0,0,1,1.17285.4043,1.70838,1.70838,0,0,1,.42382,1.1377c.00391.04.00586.0957.00586.168a1.89412,1.89412,0,0,1-.38378,1.2627,1.511,1.511,0,0,1-1.21875.45313H21.536a.15649.15649,0,0,1-.11133-.042.14348.14348,0,0,1-.04492-.1084v-.55175a.15505.15505,0,0,1,.15625-.15625h1.11035a.71872.71872,0,0,0,.501-.17676.70137.70137,0,0,0,.2129-.501c.0039-.04.00585-.09961.00585-.17969,0-.07617-.002-.13378-.00585-.17382a.68051.68051,0,0,0-.207-.501.72427.72427,0,0,0-.50683-.17773H22.1356Z"/><path class="b" d="M24.88755,14.32486a.14153.14153,0,0,1-.04492-.1084v-1.7041a.13941.13941,0,0,1,.04492-.10742.15649.15649,0,0,1,.11133-.042h.75a.14272.14272,0,0,1,.10742.042.14419.14419,0,0,1,.042.10742v1.7041a.14916.14916,0,0,1-.042.10547.14134.14134,0,0,1-.10742.04492h-.75A.15648.15648,0,0,1,24.88755,14.32486Z"/><path class="b" d="M28.64341,15.7438a.15093.15093,0,0,1-.11133.04493H26.6063a.15649.15649,0,0,1-.11133-.042.14348.14348,0,0,1-.04492-.1084v-.51562a.145.145,0,0,1,.04492-.1084.16084.16084,0,0,1,.11133-.042h.99609l-.05371-1.18164a1.06421,1.06421,0,0,0-.12012-.50391.41315.41315,0,0,0-.37207-.15625h-.30566a.1442.1442,0,0,1-.10547-.04492.14205.14205,0,0,1-.04492-.10449v-.50488a.1558.1558,0,0,1,.042-.11036.14009.14009,0,0,1,.1084-.04492h.32324a1.57839,1.57839,0,0,1,1.14356.35352,1.64522,1.64522,0,0,1,.38672,1.13379l.07812,1.83007A.12557.12557,0,0,1,28.64341,15.7438Z"/><path class="b" d="M13.50571,20.01431a1.38338,1.38338,0,0,1,.417,1.11231v1.80664a.14688.14688,0,0,1-.042.10449.14152.14152,0,0,1-.1084.04492h-.708a.15413.15413,0,0,1-.11035-.042.138.138,0,0,1-.04493-.10742V21.15689a.60206.60206,0,0,0-.67871-.68359h-.38965a3.66822,3.66822,0,0,0-.08984.88183l.04785,1.57813a.138.138,0,0,1-.04492.10742.15648.15648,0,0,1-.11133.042L10.371,23.07681a.15648.15648,0,0,1-.11133-.042.138.138,0,0,1-.04492-.10742v-.47461a.138.138,0,0,1,.04492-.10742.15728.15728,0,0,1,.11133-.043h.48535V21.361a3.23189,3.23189,0,0,1,.09082-.88769h-.35449a.1608.1608,0,0,1-.11133-.042.145.145,0,0,1-.04492-.1084v-.51562a.145.145,0,0,1,.04492-.1084.15648.15648,0,0,1,.11133-.042h1.67383A1.86152,1.86152,0,0,1,13.50571,20.01431Z"/><path class="b" d="M14.64634,23.04068a.13876.13876,0,0,1-.0459-.10742v-3.126a.14228.14228,0,0,1,.0459-.1084.15255.15255,0,0,1,.11035-.042h.75a.14644.14644,0,0,1,.1084.042.15037.15037,0,0,1,.042.1084v3.126a.15114.15114,0,0,1-.042.10449.14152.14152,0,0,1-.1084.04492h-.75A.15255.15255,0,0,1,14.64634,23.04068Z"/><path class="b" d="M17.15024,20.72525c.00879.16406.05665.25976.14454.28808l.168.05957a.13991.13991,0,0,1,.0752.06934.233.233,0,0,1,.02637.11035l.00586.30664a.15741.15741,0,0,1-.08106.14063.29507.29507,0,0,1-.19433.03906l-.2461-.03613a.76136.76136,0,0,1-.51562-.333,1.19412,1.19412,0,0,1-.2041-.7168v-.8457a.20788.20788,0,0,1,.05078-.1084.1264.1264,0,0,1,.09863-.042h1.21191a1.54839,1.54839,0,0,1,1.17286.40527,1.70378,1.70378,0,0,1,.42382,1.13672c.00391.04.00586.0957.00586.168a1.89407,1.89407,0,0,1-.38379,1.2627,1.51094,1.51094,0,0,1-1.21875.45312H16.55064a.15648.15648,0,0,1-.11133-.042.14135.14135,0,0,1-.04492-.10742v-.55274a.15257.15257,0,0,1,.04492-.11035.151.151,0,0,1,.11133-.04492H17.661a.71932.71932,0,0,0,.501-.17774.69774.69774,0,0,0,.21289-.501c.00391-.03906.00586-.09961.00586-.17969,0-.07617-.002-.13379-.00586-.17383a.68212.68212,0,0,0-.207-.501.72367.72367,0,0,0-.50683-.17676h-.51075Z"/><path class="b" d="M19.92564,23.04068a.13876.13876,0,0,1-.0459-.10742v-3.126a.14228.14228,0,0,1,.0459-.1084.15254.15254,0,0,1,.11035-.042h.75a.14647.14647,0,0,1,.1084.042.15037.15037,0,0,1,.042.1084v3.126a.15114.15114,0,0,1-.042.10449.14155.14155,0,0,1-.1084.04492h-.75A.15254.15254,0,0,1,19.92564,23.04068Z"/><path class="b" d="M23.31626,23.04068a.138.138,0,0,1-.04492-.10742V21.15689a.60206.60206,0,0,0-.67871-.68359h-.91211a.14308.14308,0,0,1-.10449-.0459.14052.14052,0,0,1-.04493-.1045v-.51562a.14149.14149,0,0,1,.04493-.1084.14687.14687,0,0,1,.10449-.042h.94824a1.91935,1.91935,0,0,1,1.24512.3418,1.38244,1.38244,0,0,1,.41113,1.12207v1.8125a.15114.15114,0,0,1-.042.10449.14153.14153,0,0,1-.1084.04492h-.708A.15257.15257,0,0,1,23.31626,23.04068Z"/><path class="b" d="M28.15122,20.01431a1.38337,1.38337,0,0,1,.417,1.11231v1.80664a.14687.14687,0,0,1-.042.10449.14152.14152,0,0,1-.1084.04492h-.708a.15417.15417,0,0,1-.11035-.042.138.138,0,0,1-.04492-.10742V21.15689a.60206.60206,0,0,0-.67871-.68359h-.38965a3.66822,3.66822,0,0,0-.08984.88183l.04785,1.57813a.138.138,0,0,1-.04492.10742.1565.1565,0,0,1-.11133.042l-1.27148-.00586a.15648.15648,0,0,1-.11133-.042.138.138,0,0,1-.04492-.10742v-.47461a.138.138,0,0,1,.04492-.10742.15728.15728,0,0,1,.11133-.043h.48535V21.361a3.23151,3.23151,0,0,1,.09082-.88769h-.35449a.1608.1608,0,0,1-.11133-.042.145.145,0,0,1-.04492-.1084v-.51562a.145.145,0,0,1,.04492-.1084.15648.15648,0,0,1,.11133-.042H26.912A1.86154,1.86154,0,0,1,28.15122,20.01431Z"/></svg>