<svg xmlns="http://www.w3.org/2000/svg" viewBox="0 0 33.11981 27.3177"><defs><style>.a{fill:#fff;}.b{fill:#2d2a28;}</style></defs><rect class="a" width="33.11981" height="27.3177"/><path class="b" d="M12.47425,8.75813a.1427.1427,0,0,1,.042.10742v1.57227a1.75885,1.75885,0,0,1-.24024.92675,1.62434,1.62434,0,0,1-.65332.61524,1.89986,1.89986,0,0,1-.918.21h-.57617a1.80435,1.80435,0,0,1-.83984-.18555,1.32452,1.32452,0,0,1-.54883-.50488,1.34614,1.34614,0,0,1-.18945-.70117V8.86555a.138.138,0,0,1,.04492-.10742.15648.15648,0,0,1,.11133-.042h.62988a.14382.14382,0,0,1,.15039.14941L9.49281,10.306a.55709.55709,0,0,0,.456-.249,1.22788,1.22788,0,0,0,.13184-.627V8.87825a.15526.15526,0,0,1,.04492-.11719.14942.14942,0,0,1,.11133-.04492h.623a.14009.14009,0,0,1,.10547.04785.15923.15923,0,0,1,.04492.11426v.56347a1.56422,1.56422,0,0,1-.35352,1.08008,1.49058,1.49058,0,0,1-1.00195.46191.76774.76774,0,0,0,.30273.29395.85915.85915,0,0,0,.417.10254h.13769a1.19213,1.19213,0,0,0,.55176-.126.9644.9644,0,0,0,.38476-.34863.923.923,0,0,0,.1377-.49805v-1.542a.14269.14269,0,0,1,.042-.10742.14494.14494,0,0,1,.1084-.042h.62988A.14269.14269,0,0,1,12.47425,8.75813Z"/><path class="b" d="M13.18031,12.09993a.14235.14235,0,0,1-.0459-.1084v-3.126a.13876.13876,0,0,1,.0459-.10742.15257.15257,0,0,1,.11035-.042h.75a.14382.14382,0,0,1,.15039.14941v3.126a.1535.1535,0,0,1-.042.10547.145.145,0,0,1-.1084.04492h-.75A.15257.15257,0,0,1,13.18031,12.09993Z"/><path class="b" d="M17.9225,9.08137A1.45068,1.45068,0,0,1,18.30629,10.18v1.81153a.14917.14917,0,0,1-.042.10547.14136.14136,0,0,1-.10742.04492H16.5182a.14588.14588,0,0,1-.10449-.04492.14416.14416,0,0,1-.04492-.10547V11.4759a.1415.1415,0,0,1,.04492-.1084.15114.15114,0,0,1,.10449-.042h.77441V10.22785a.71931.71931,0,0,0-.15039-.48632.49137.49137,0,0,0-.38965-.17383H16.2848l-.50976,2.418a.18782.18782,0,0,1-.04883.11133.14139.14139,0,0,1-.10742.04492h-.69043A.151.151,0,0,1,14.818,12.097a.11892.11892,0,0,1-.0332-.11133l.58789-2.41211h-.39648a.138.138,0,0,1-.10742-.04492.15332.15332,0,0,1-.042-.11133V8.86555a.138.138,0,0,1,.04493-.10742.14687.14687,0,0,1,.10449-.042H16.903A1.41908,1.41908,0,0,1,17.9225,9.08137Z"/><path class="b" d="M18.99965,10.67805a.14149.14149,0,0,1-.04493-.1084V8.86555a.138.138,0,0,1,.04493-.10742.15647.15647,0,0,1,.11132-.042h.75a.14376.14376,0,0,1,.14942.14941v1.7041a.14915.14915,0,0,1-.042.10547A.14136.14136,0,0,1,19.861,10.72h-.75A.15647.15647,0,0,1,18.99965,10.67805Z"/><path class="b" d="M24.55824,8.75813a.14269.14269,0,0,1,.042.10742v1.57227a1.75894,1.75894,0,0,1-.24023.92675,1.62434,1.62434,0,0,1-.65332.61524,1.89986,1.89986,0,0,1-.918.21h-.57617a1.80439,1.80439,0,0,1-.83985-.18555,1.32458,1.32458,0,0,1-.54883-.50488,1.34623,1.34623,0,0,1-.18945-.70117V8.86555a.138.138,0,0,1,.04492-.10742.15651.15651,0,0,1,.11133-.042h.62988a.14382.14382,0,0,1,.15039.14941l.00586,1.44043a.55713.55713,0,0,0,.45606-.249,1.22789,1.22789,0,0,0,.13183-.627V8.87825a.15523.15523,0,0,1,.04493-.11719.14938.14938,0,0,1,.11132-.04492h.623a.14008.14008,0,0,1,.10547.04785.15923.15923,0,0,1,.04492.11426v.56347a1.56421,1.56421,0,0,1-.35351,1.08008,1.49061,1.49061,0,0,1-1.002.46191.76776.76776,0,0,0,.30274.29395.85911.85911,0,0,0,.417.10254h.13769a1.1921,1.1921,0,0,0,.55176-.126.96443.96443,0,0,0,.38477-.34863.923.923,0,0,0,.13769-.49805v-1.542a.1427.1427,0,0,1,.042-.10742.14492.14492,0,0,1,.10839-.042h.62989A.14271.14271,0,0,1,24.55824,8.75813Z"/><path class="b" d="M4.26039,17.972a.1415.1415,0,0,1-.04492-.1084V16.1595a.14084.14084,0,0,1,.04492-.10743.15648.15648,0,0,1,.11133-.042h.75a.14272.14272,0,0,1,.10742.042.14574.14574,0,0,1,.042.10743v1.7041a.14916.14916,0,0,1-.042.10547.138.138,0,0,1-.10742.04492h-.75A.15648.15648,0,0,1,4.26039,17.972Z"/><path class="b" d="M8.24769,16.38508a1.633,1.633,0,0,1,.3418,1.13086,1.76617,1.76617,0,0,1-.4502,1.248,2.385,2.385,0,0,1-1.12793.67773l-.24609.07227a.117.117,0,0,1-.11133-.042.17051.17051,0,0,1-.05078-.12012v-.60547a.17043.17043,0,0,1,.042-.11133.29343.29343,0,0,1,.1084-.081L6.945,18.4759a.96677.96677,0,0,0,.43554-.32129,1.0054,1.0054,0,0,0,.15918-.6084.81.81,0,0,0-.13281-.52832.64013.64013,0,0,0-.49121-.14941H6.75941l-.80469-.00684a.14421.14421,0,0,1-.10742-.042.14269.14269,0,0,1-.042-.10742V15.32551a.14086.14086,0,0,1,.04492-.10742.14853.14853,0,0,1,.10449-.042h.64844a.14644.14644,0,0,1,.1084.042.14967.14967,0,0,1,.042.10742v.68457h.37207A1.45816,1.45816,0,0,1,8.24769,16.38508Z"/><path class="b" d="M12.37465,19.30989a.12513.12513,0,0,1-.03516.08691.11833.11833,0,0,1-.09082.03906h-.73731a.20147.20147,0,0,1-.16211-.05664c-.03222-.03808-.0498-.05957-.05468-.06347l-1.04981-1.51758a.67845.67845,0,0,0-.2041.33008,1.61334,1.61334,0,0,0-.04785.3955v.75a.15826.15826,0,0,1-.04492.11719.14946.14946,0,0,1-.11133.04492H9.24867a.13808.13808,0,0,1-.10449-.04785.16084.16084,0,0,1-.04493-.11426v-.74414a2.10151,2.10151,0,0,1,.1377-.82715,1.51881,1.51881,0,0,1,.52246-.60058L9.14711,16.22a.12518.12518,0,0,1-.03028-.084.13418.13418,0,0,1,.126-.126h.708a.197.197,0,0,1,.1289.03613.419.419,0,0,1,.08692.09571l.96679,1.36816a.53525.53525,0,0,0,.21289-.26367,1.18114,1.18114,0,0,0,.04493-.34277v-.73145a.16437.16437,0,0,1,.042-.11719.138.138,0,0,1,.10742-.04492h.62988a.14494.14494,0,0,1,.11133.04785.16085.16085,0,0,1,.04492.11426v.75586a1.58559,1.58559,0,0,1-.15234.69922,1.43748,1.43748,0,0,1-.55566.56641l.73242,1.03222A.15094.15094,0,0,1,12.37465,19.30989Z"/><path class="b" d="M14.6764,19.39387a.138.138,0,0,1-.04492-.10742V17.51008a.60276.60276,0,0,0-.67871-.68457h-.91211a.14205.14205,0,0,1-.10449-.04492.14052.14052,0,0,1-.04492-.10449v-.5166a.14088.14088,0,0,1,.04492-.10743.14687.14687,0,0,1,.10449-.042h.94824a1.91931,1.91931,0,0,1,1.24512.3418,1.38244,1.38244,0,0,1,.41113,1.12207v1.8125a.15291.15291,0,0,1-.042.10449.14152.14152,0,0,1-.1084.04492h-.708A.15257.15257,0,0,1,14.6764,19.39387Z"/><path class="b" d="M16.71058,19.10578a1.43562,1.43562,0,0,1-.417-1.10351V16.1595a.14088.14088,0,0,1,.04492-.10743.14691.14691,0,0,1,.10449-.042h.624a.15651.15651,0,0,1,.11133.042.14088.14088,0,0,1,.04492.10743V17.972a.62117.62117,0,0,0,.19531.501.81257.81257,0,0,0,.543.165q.67089,0,.67773-.6416a1.3565,1.3565,0,0,0,.00293-.16211c-.00195-.06836-.00293-.12012-.00293-.15625v-.13184a1.07818,1.07818,0,0,0-.11425-.52539.341.341,0,0,0-.31153-.18261.71622.71622,0,0,0-.17676.02343.58321.58321,0,0,0-.15332.06055.198.198,0,0,1-.05371.01172.12768.12768,0,0,1-.09375-.03906.1363.1363,0,0,1-.03906-.09864V16.3216a.23549.23549,0,0,1,.11426-.22167,1.1311,1.1311,0,0,1,.57617-.11426,1.1602,1.1602,0,0,1,.94531.3457,1.69952,1.69952,0,0,1,.29688,1.06445v.62989q-.06592,1.4707-1.668,1.4707A1.76725,1.76725,0,0,1,16.71058,19.10578Z"/><path class="b" d="M22.236,19.39094a.151.151,0,0,1-.11132.04492H20.19886a.15647.15647,0,0,1-.11132-.042.14135.14135,0,0,1-.04493-.10742v-.5166a.145.145,0,0,1,.04493-.1084.16.16,0,0,1,.11132-.041h.9961l-.05371-1.18261a1.071,1.071,0,0,0-.12012-.50391.41314.41314,0,0,0-.37207-.15625H20.3434a.14418.14418,0,0,1-.10547-.04492.14206.14206,0,0,1-.04493-.10449v-.50391a.15649.15649,0,0,1,.042-.11133.14008.14008,0,0,1,.1084-.04492h.32324a1.57838,1.57838,0,0,1,1.14355.35351,1.64607,1.64607,0,0,1,.38672,1.13477l.07813,1.83008A.12472.12472,0,0,1,22.236,19.39094Z"/><path class="b" d="M24.4264,19.39387a.138.138,0,0,1-.04492-.10742V17.51008a.60276.60276,0,0,0-.67871-.68457h-.91211a.14205.14205,0,0,1-.10449-.04492.14052.14052,0,0,1-.04492-.10449v-.5166a.14088.14088,0,0,1,.04492-.10743.14687.14687,0,0,1,.10449-.042h.94824a1.91931,1.91931,0,0,1,1.24512.3418,1.38244,1.38244,0,0,1,.41113,1.12207v1.8125a.15291.15291,0,0,1-.042.10449.14152.14152,0,0,1-.1084.04492h-.708A.15257.15257,0,0,1,24.4264,19.39387Z"/><path class="b" d="M26.859,17.07746c.00879.16407.05664.26075.14453.28907l.168.05957a.13993.13993,0,0,1,.0752.06933.23321.23321,0,0,1,.02636.11035l.00586.30567a.15784.15784,0,0,1-.081.1416.295.295,0,0,1-.19434.03906l-.24609-.03613a.76138.76138,0,0,1-.51563-.333,1.19616,1.19616,0,0,1-.2041-.71679V16.1595a.20845.20845,0,0,1,.05078-.10743.12642.12642,0,0,1,.09864-.042h1.21191a1.5484,1.5484,0,0,1,1.17285.40527,1.70381,1.70381,0,0,1,.42383,1.13672c.00391.04.00586.09571.00586.168a1.89407,1.89407,0,0,1-.38379,1.2627,1.511,1.511,0,0,1-1.21875.45312H26.25941a.15651.15651,0,0,1-.11133-.042.14138.14138,0,0,1-.04492-.10742v-.55274a.15505.15505,0,0,1,.15625-.15625h1.11035a.71874.71874,0,0,0,.501-.17675.69962.69962,0,0,0,.21289-.501c.00391-.04.00586-.09961.00586-.17969,0-.07617-.002-.13379-.00586-.17383a.68216.68216,0,0,0-.207-.501.72368.72368,0,0,0-.50684-.17676H26.859Z"/></svg>