<svg xmlns="http://www.w3.org/2000/svg" viewBox="0 0 33.11981 27.3177"><defs><style>.a{fill:#eee;}.b{fill:#1c1a19;}</style></defs><rect class="a" width="33.11981" height="27.3177"/><path class="b" d="M12.47445,8.75768a.14524.14524,0,0,1,.042.108v1.572a1.762,1.762,0,0,1-.24023.927,1.62458,1.62458,0,0,1-.65333.615,1.9054,1.9054,0,0,1-.918.21h-.57618a1.80454,1.80454,0,0,1-.83984-.18591,1.32838,1.32838,0,0,1-.54883-.504,1.34931,1.34931,0,0,1-.18945-.702v-1.932a.14039.14039,0,0,1,.04492-.108.15809.15809,0,0,1,.11133-.042h.62988a.14386.14386,0,0,1,.15039.15L9.493,10.30566a.55432.55432,0,0,0,.45606-.2489,1.22562,1.22562,0,0,0,.13183-.62708v-.552a.15712.15712,0,0,1,.04492-.11694.15048.15048,0,0,1,.11133-.045h.623a.14154.14154,0,0,1,.10547.048.16007.16007,0,0,1,.04492.114v.56409a1.56469,1.56469,0,0,1-.35352,1.08,1.4896,1.4896,0,0,1-1.00195.462.77105.77105,0,0,0,.30274.29394.86141.86141,0,0,0,.417.10205h.13769a1.19225,1.19225,0,0,0,.55176-.126.96057.96057,0,0,0,.38477-.348.92549.92549,0,0,0,.13769-.49805v-1.542a.14386.14386,0,0,1,.15039-.15H12.367A.14412.14412,0,0,1,12.47445,8.75768Z"/><path class="b" d="M13.1805,12.09973a.14082.14082,0,0,1-.0459-.108v-3.126a.14118.14118,0,0,1,.0459-.108.15412.15412,0,0,1,.11035-.042h.75a.14386.14386,0,0,1,.15039.15v3.126a.1516.1516,0,0,1-.042.105.14247.14247,0,0,1-.1084.045h-.75A.15361.15361,0,0,1,13.1805,12.09973Z"/><path class="b" d="M17.92269,9.08166a1.44975,1.44975,0,0,1,.38379,1.098v1.812a.14739.14739,0,0,1-.042.105.13893.13893,0,0,1-.10743.045H16.51839a.15377.15377,0,0,1-.14941-.15v-.516a.14038.14038,0,0,1,.04492-.108.149.149,0,0,1,.10449-.042h.77442v-1.0979a.71849.71849,0,0,0-.15039-.48609.48926.48926,0,0,0-.38965-.17395H16.285l-.50976,2.418a.18537.18537,0,0,1-.04883.111.13891.13891,0,0,1-.10742.045h-.69043a.14825.14825,0,0,1-.11035-.045.11784.11784,0,0,1-.03321-.111l.58789-2.412H14.9764a.1389.1389,0,0,1-.10742-.045.1548.1548,0,0,1-.042-.111v-.552a.14035.14035,0,0,1,.04492-.108.14845.14845,0,0,1,.10449-.042h1.92676A1.41632,1.41632,0,0,1,17.92269,9.08166Z"/><path class="b" d="M18.99984,10.67773a.14.14,0,0,1-.04492-.108v-1.704a.14035.14035,0,0,1,.04492-.108.15809.15809,0,0,1,.11133-.042h.75a.1438.1438,0,0,1,.14941.15v1.704a.1474.1474,0,0,1-.042.105.13892.13892,0,0,1-.10742.045h-.75A.15757.15757,0,0,1,18.99984,10.67773Z"/><path class="b" d="M24.55843,8.75768a.14524.14524,0,0,1,.042.108v1.572a1.76186,1.76186,0,0,1-.24023.927,1.62461,1.62461,0,0,1-.65332.615,1.90544,1.90544,0,0,1-.918.21h-.57617a1.80461,1.80461,0,0,1-.83985-.18591,1.32829,1.32829,0,0,1-.54882-.504,1.34922,1.34922,0,0,1-.18946-.702v-1.932a.14036.14036,0,0,1,.04493-.108.15809.15809,0,0,1,.11132-.042h.62989a.14388.14388,0,0,1,.15039.15l.00586,1.43994a.5543.5543,0,0,0,.45605-.2489,1.22561,1.22561,0,0,0,.13184-.62708v-.552a.15712.15712,0,0,1,.04492-.11694.15046.15046,0,0,1,.11133-.045h.623a.14153.14153,0,0,1,.10547.048.16.16,0,0,1,.04492.114v.56409a1.56473,1.56473,0,0,1-.35351,1.08,1.48962,1.48962,0,0,1-1.002.462.771.771,0,0,0,.30273.29394.86147.86147,0,0,0,.417.10205h.1377a1.19228,1.19228,0,0,0,.55176-.126.96048.96048,0,0,0,.38476-.348.92541.92541,0,0,0,.1377-.49805v-1.542a.14386.14386,0,0,1,.15039-.15H24.451A.14409.14409,0,0,1,24.55843,8.75768Z"/><path class="b" d="M9.27913,17.97192a.14.14,0,0,1-.04492-.108v-1.704a.14039.14039,0,0,1,.04492-.108.15813.15813,0,0,1,.11133-.042h.75a.14381.14381,0,0,1,.14942.15v1.704a.14739.14739,0,0,1-.042.105.13889.13889,0,0,1-.10742.045h-.75A.1576.1576,0,0,1,9.27913,17.97192Z"/><path class="b" d="M13.035,19.39086a.152.152,0,0,1-.11132.045H10.99788a.15752.15752,0,0,1-.11132-.042.14343.14343,0,0,1-.04493-.108v-.516a.14383.14383,0,0,1,.04493-.108.15862.15862,0,0,1,.11132-.042h.9961l-.05371-1.182a1.06775,1.06775,0,0,0-.12012-.50391.41192.41192,0,0,0-.37207-.156h-.30566a.14525.14525,0,0,1-.10547-.045.14269.14269,0,0,1-.04492-.105v-.504a.15522.15522,0,0,1,.042-.111.141.141,0,0,1,.1084-.045h.32324a1.5757,1.5757,0,0,1,1.14355.354,1.64472,1.64472,0,0,1,.38672,1.134l.07813,1.83A.12422.12422,0,0,1,13.035,19.39086Z"/><path class="b" d="M13.68343,19.39391a.14079.14079,0,0,1-.0459-.108v-3.126a.14118.14118,0,0,1,.0459-.108.15412.15412,0,0,1,.11035-.042h.75a.14386.14386,0,0,1,.15039.15v3.126a.1516.1516,0,0,1-.042.105.14247.14247,0,0,1-.1084.045h-.75A.15358.15358,0,0,1,13.68343,19.39391Z"/><path class="b" d="M18.12,17.41686a1.47173,1.47173,0,0,1-.52833.54309l.46778.642a.63491.63491,0,0,1,.05762.09.24709.24709,0,0,1,.0205.108v.486a.14739.14739,0,0,1-.042.105.14036.14036,0,0,1-.10742.045H15.5516a.14157.14157,0,0,1-.1045-.045.14353.14353,0,0,1-.04589-.105V18.752a.141.141,0,0,1,.04589-.108.14683.14683,0,0,1,.1045-.042h1.41015l-1.74609-2.376a.20082.20082,0,0,1-.03613-.09607.10713.10713,0,0,1,.03906-.08692.13936.13936,0,0,1,.09277-.03308h.74414a.22114.22114,0,0,1,.19238.108l.83985,1.152a.949.949,0,0,0,.27637-.762v-.33606a.15707.15707,0,0,1,.04492-.11694.14825.14825,0,0,1,.11035-.045h.62988a.14149.14149,0,0,1,.10547.048.16007.16007,0,0,1,.04492.114v.516A1.48442,1.48442,0,0,1,18.12,17.41686Z"/><path class="b" d="M18.96273,17.97192a.14.14,0,0,1-.04492-.108v-1.704a.14039.14039,0,0,1,.04492-.108.15809.15809,0,0,1,.11133-.042h.75a.1438.1438,0,0,1,.14941.15v1.704a.14742.14742,0,0,1-.042.105.13892.13892,0,0,1-.10742.045h-.75A.15757.15757,0,0,1,18.96273,17.97192Z"/><path class="b" d="M20.703,19.39391a.14079.14079,0,0,1-.0459-.108v-3.126a.14118.14118,0,0,1,.0459-.108.15412.15412,0,0,1,.11035-.042h1.416a1.8846,1.8846,0,0,1,1.25684.35108,1.45412,1.45412,0,0,1,.40527,1.1549v1.77a.14739.14739,0,0,1-.042.105.14036.14036,0,0,1-.10742.045h-.708a.15591.15591,0,0,1-.11133-.042.14.14,0,0,1-.04492-.108v-1.776a.60208.60208,0,0,0-.67774-.684h-.52832v2.46a.15165.15165,0,0,1-.042.105.14247.14247,0,0,1-.1084.045h-.708A.15358.15358,0,0,1,20.703,19.39391Z"/></svg>