<svg xmlns="http://www.w3.org/2000/svg" viewBox="0 0 33.11981 27.3177"><defs><style>.a{fill:#d9d9d9;}.b{fill:#070706;}</style></defs><rect class="a" width="33.11981" height="27.3177"/><path class="b" d="M12.47426,8.75765a.14523.14523,0,0,1,.042.108v1.572a1.762,1.762,0,0,1-.24023.927,1.62468,1.62468,0,0,1-.65332.615,1.90555,1.90555,0,0,1-.918.21h-.57617a1.80446,1.80446,0,0,1-.83985-.18592,1.32827,1.32827,0,0,1-.54882-.504,1.34922,1.34922,0,0,1-.18946-.702v-1.932a.14038.14038,0,0,1,.04492-.108.15813.15813,0,0,1,.11133-.042h.62988a.14388.14388,0,0,1,.1504.15l.00585,1.43994a.55426.55426,0,0,0,.45606-.2489,1.22557,1.22557,0,0,0,.13184-.62707v-.552a.15709.15709,0,0,1,.04492-.11695.15044.15044,0,0,1,.11133-.045h.623a.14152.14152,0,0,1,.10547.048.16011.16011,0,0,1,.04492.114v.56408a1.56474,1.56474,0,0,1-.35351,1.08,1.48965,1.48965,0,0,1-1.002.462.77105.77105,0,0,0,.30274.29394.86147.86147,0,0,0,.417.10205h.1377a1.19209,1.19209,0,0,0,.55175-.126.96029.96029,0,0,0,.38477-.348.92537.92537,0,0,0,.13769-.498v-1.542a.14388.14388,0,0,1,.1504-.15h.62988A.1441.1441,0,0,1,12.47426,8.75765Z"/><path class="b" d="M13.18031,12.09969a.14078.14078,0,0,1-.04589-.108v-3.126a.14117.14117,0,0,1,.04589-.108.15412.15412,0,0,1,.11036-.042h.75a.14388.14388,0,0,1,.15039.15v3.126a.15163.15163,0,0,1-.042.105.14245.14245,0,0,1-.10839.045h-.75A.15358.15358,0,0,1,13.18031,12.09969Z"/><path class="b" d="M17.9225,9.08163a1.44974,1.44974,0,0,1,.38379,1.098v1.812a.1474.1474,0,0,1-.042.105.1389.1389,0,0,1-.10742.045H16.51821a.15375.15375,0,0,1-.14942-.15v-.516a.14035.14035,0,0,1,.04492-.108.149.149,0,0,1,.1045-.042h.77441v-1.0979a.71848.71848,0,0,0-.15039-.48608.48921.48921,0,0,0-.38965-.17395h-.46777l-.50977,2.418a.18539.18539,0,0,1-.04883.111.13889.13889,0,0,1-.10742.045h-.69043a.14827.14827,0,0,1-.11035-.045.11784.11784,0,0,1-.0332-.111l.58789-2.412h-.39649a.13892.13892,0,0,1-.10742-.045.15482.15482,0,0,1-.042-.111v-.552a.14038.14038,0,0,1,.04492-.108.14845.14845,0,0,1,.10449-.042H16.903A1.41632,1.41632,0,0,1,17.9225,9.08163Z"/><path class="b" d="M18.99965,10.67769a.14.14,0,0,1-.04492-.108v-1.704a.14038.14038,0,0,1,.04492-.108.15809.15809,0,0,1,.11133-.042h.75a.1438.1438,0,0,1,.14941.15v1.704a.14739.14739,0,0,1-.042.105.13891.13891,0,0,1-.10742.045h-.75A.15753.15753,0,0,1,18.99965,10.67769Z"/><path class="b" d="M24.55824,8.75765a.14524.14524,0,0,1,.042.108v1.572a1.76188,1.76188,0,0,1-.24024.927,1.62468,1.62468,0,0,1-.65332.615,1.90555,1.90555,0,0,1-.918.21h-.57617a1.80442,1.80442,0,0,1-.83984-.18592,1.32829,1.32829,0,0,1-.54883-.504,1.34921,1.34921,0,0,1-.18945-.702v-1.932a.14035.14035,0,0,1,.04492-.108.15809.15809,0,0,1,.11133-.042h.62988a.14386.14386,0,0,1,.15039.15l.00586,1.43994a.55424.55424,0,0,0,.45605-.2489,1.22557,1.22557,0,0,0,.13184-.62707v-.552a.15713.15713,0,0,1,.04492-.11695.15047.15047,0,0,1,.11133-.045h.623a.14153.14153,0,0,1,.10547.048.16011.16011,0,0,1,.04492.114v.56408a1.56474,1.56474,0,0,1-.35352,1.08,1.48962,1.48962,0,0,1-1.002.462.771.771,0,0,0,.30273.29394.86148.86148,0,0,0,.417.10205h.13769a1.19213,1.19213,0,0,0,.55176-.126.96033.96033,0,0,0,.38476-.348.92537.92537,0,0,0,.1377-.498v-1.542a.14386.14386,0,0,1,.15039-.15h.62988A.14409.14409,0,0,1,24.55824,8.75765Z"/><path class="b" d="M9.279,17.97188a.14.14,0,0,1-.04492-.108v-1.704a.14035.14035,0,0,1,.04492-.108.15809.15809,0,0,1,.11133-.042h.75a.1438.1438,0,0,1,.14941.15v1.704a.14739.14739,0,0,1-.042.105.13893.13893,0,0,1-.10742.045h-.75A.15753.15753,0,0,1,9.279,17.97188Z"/><path class="b" d="M13.03481,19.39083a.152.152,0,0,1-.11133.045H10.9977a.15752.15752,0,0,1-.11133-.042.14342.14342,0,0,1-.04492-.108v-.516a.14379.14379,0,0,1,.04492-.108.15859.15859,0,0,1,.11133-.042h.99609l-.05371-1.182a1.06744,1.06744,0,0,0-.12012-.50391.41192.41192,0,0,0-.37207-.156h-.30566a.14524.14524,0,0,1-.10547-.045.14273.14273,0,0,1-.04492-.105v-.504a.15521.15521,0,0,1,.042-.111.141.141,0,0,1,.1084-.045h.32324a1.57573,1.57573,0,0,1,1.14356.354,1.64469,1.64469,0,0,1,.38671,1.134l.07813,1.83A.12423.12423,0,0,1,13.03481,19.39083Z"/><path class="b" d="M13.68324,19.39388a.14078.14078,0,0,1-.04589-.108v-3.126a.14117.14117,0,0,1,.04589-.108.15412.15412,0,0,1,.11036-.042h.75a.14388.14388,0,0,1,.15039.15v3.126a.15163.15163,0,0,1-.042.105.14245.14245,0,0,1-.10839.045h-.75A.15358.15358,0,0,1,13.68324,19.39388Z"/><path class="b" d="M18.11977,17.41683a1.47177,1.47177,0,0,1-.52832.54309l.46777.642a.634.634,0,0,1,.05762.09.24712.24712,0,0,1,.02051.108v.486a.14741.14741,0,0,1-.042.105.14034.14034,0,0,1-.10742.045H15.55141a.14152.14152,0,0,1-.10449-.045.14352.14352,0,0,1-.0459-.105v-.53394a.141.141,0,0,1,.0459-.108.14679.14679,0,0,1,.10449-.042h1.41015l-1.74609-2.376a.20086.20086,0,0,1-.03613-.09607.10709.10709,0,0,1,.03906-.08691.13936.13936,0,0,1,.09277-.03308h.74414a.22115.22115,0,0,1,.19239.108l.83984,1.152a.949.949,0,0,0,.27637-.762v-.33606a.15713.15713,0,0,1,.04492-.11695.14827.14827,0,0,1,.11035-.045h.62988a.14152.14152,0,0,1,.10547.048.16008.16008,0,0,1,.04493.114v.516A1.48434,1.48434,0,0,1,18.11977,17.41683Z"/><path class="b" d="M18.96254,17.97188a.14.14,0,0,1-.04492-.108v-1.704a.14038.14038,0,0,1,.04492-.108.15809.15809,0,0,1,.11133-.042h.75a.1438.1438,0,0,1,.14941.15v1.704a.14739.14739,0,0,1-.042.105.13891.13891,0,0,1-.10742.045h-.75A.15753.15753,0,0,1,18.96254,17.97188Z"/><path class="b" d="M20.70278,19.39388a.14075.14075,0,0,1-.0459-.108v-3.126a.14114.14114,0,0,1,.0459-.108.15408.15408,0,0,1,.11035-.042h1.416a1.88458,1.88458,0,0,1,1.25684.35107,1.45412,1.45412,0,0,1,.40527,1.15491v1.77a.1474.1474,0,0,1-.042.105.14035.14035,0,0,1-.10742.045h-.708a.15592.15592,0,0,1-.11133-.042.14.14,0,0,1-.04492-.108v-1.776a.60208.60208,0,0,0-.67773-.684h-.52832v2.46a.15163.15163,0,0,1-.042.105.14245.14245,0,0,1-.10839.045h-.708A.15354.15354,0,0,1,20.70278,19.39388Z"/></svg>