<svg xmlns="http://www.w3.org/2000/svg" viewBox="0 0 49.23637 65.37226"><defs><style>.a{fill:#fff;}.b{fill:none;stroke:#e2e6e8;stroke-linecap:round;stroke-linejoin:round;stroke-width:1.08437px;}.c{fill:#2d2a28;}</style></defs><rect class="a" width="49.23637" height="65.37226"/><line class="b" x1="25.82539" y1="30.90157" x2="44.44287" y2="30.90157"/><line class="b" x1="15.81725" y1="33.14492" x2="44.44287" y2="33.14492"/><line class="b" x1="11.90727" y1="35.2835" x2="44.44287" y2="35.2835"/><line class="b" x1="18.71187" y1="37.42209" x2="44.44287" y2="37.42209"/><line class="b" x1="25.82539" y1="50.16863" x2="44.44287" y2="50.16863"/><line class="b" x1="15.81725" y1="47.92528" x2="44.44287" y2="47.92528"/><line class="b" x1="11.90727" y1="45.7867" x2="44.44287" y2="45.7867"/><line class="b" x1="8.26118" y1="57.37309" x2="44.44287" y2="57.37309"/><line class="b" x1="5.51559" y1="55.2345" x2="44.44287" y2="55.2345"/><line class="b" x1="5.51559" y1="59.73524" x2="44.44287" y2="59.73524"/><line class="b" x1="18.71187" y1="43.64811" x2="44.44287" y2="43.64811"/><path class="c" d="M14.12787,12.68269a2.66177,2.66177,0,0,1-.73828-2.01172V7.36335a.2551.2551,0,0,1,.082-.19531.28232.28232,0,0,1,.19922-.07519h2.76562a3.13709,3.13709,0,0,1,2.23438.66113,2.80526,2.80526,0,0,1,.748,1.95215c.00782.07226.00977.24218.00977.50976,0,.27442-.002.44824-.00977.52051a2.81431,2.81431,0,0,1-.77539,1.97852,3.265,3.265,0,0,1-2.30468.67773A3.07106,3.07106,0,0,1,14.12787,12.68269Zm3.22461-1.10645a1.2325,1.2325,0,0,0,.30859-.89453q.01172-.10839.01172-.46582c0-.23144-.00391-.38379-.01172-.456a1.26442,1.26442,0,0,0-.32422-.89942,1.33757,1.33757,0,0,0-.95507-.293H15.07123v2.07129a1.17018,1.17018,0,0,0,.32422.90528,1.33484,1.33484,0,0,0,.93359.29785A1.51179,1.51179,0,0,0,17.35248,11.57624Z"/><path class="c" d="M21.90131,9.02253c.01367.29688.10156.46973.25976.52051l.30469.1084a.25.25,0,0,1,.13477.125.4132.4132,0,0,1,.04882.20019l.01172.55372a.28685.28685,0,0,1-.14648.25488.54363.54363,0,0,1-.35352.07031l-.44336-.06543a1.381,1.381,0,0,1-.93359-.60156,2.169,2.169,0,0,1-.36719-1.2959V7.36335a.37606.37606,0,0,1,.0918-.19531.233.233,0,0,1,.17773-.07519h2.19141a2.80112,2.80112,0,0,1,2.11914.73144A3.092,3.092,0,0,1,25.76263,9.879c.00586.07226.00977.17383.00977.30371a3.42373,3.42373,0,0,1-.69336,2.2832,2.73231,2.73231,0,0,1-2.20117.81836H20.81732a.28357.28357,0,0,1-.20117-.07617.25072.25072,0,0,1-.08008-.19531V12.0157a.27082.27082,0,0,1,.08008-.20117.27543.27543,0,0,1,.20117-.08106h2.00586a1.30028,1.30028,0,0,0,.90625-.31934,1.26467,1.26467,0,0,0,.38477-.90625c.00586-.07226.00976-.17968.00976-.32519,0-.13672-.0039-.24219-.00976-.31445a1.23308,1.23308,0,0,0-.375-.90528,1.31255,1.31255,0,0,0-.916-.32031h-.92187Z"/><path class="c" d="M26.91693,13.20808a.25221.25221,0,0,1-.082-.19531V7.36335a.2551.2551,0,0,1,.082-.19531.28713.28713,0,0,1,.20117-.07519h1.35547a.25637.25637,0,0,1,.26953.2705v5.64942a.27637.27637,0,0,1-.07422.19043.25925.25925,0,0,1-.19531.081H27.1181A.28359.28359,0,0,1,26.91693,13.20808Z"/><path class="c" d="M30.72357,12.68757a2.5994,2.5994,0,0,1-.7539-1.99512V7.36335a.2551.2551,0,0,1,.082-.19531.2689.2689,0,0,1,.18945-.07519H31.3681a.28714.28714,0,0,1,.20118.07519.25514.25514,0,0,1,.082.19531v3.27539a1.12232,1.12232,0,0,0,.35156.90528,1.47763,1.47763,0,0,0,.98242.29785q1.21289,0,1.22461-1.16016a2.61419,2.61419,0,0,0,.00586-.293q-.00587-.18456-.00586-.28125V9.86824a1.9509,1.9509,0,0,0-.207-.94825.6176.6176,0,0,0-.5625-.33105,1.30424,1.30424,0,0,0-.32031.043,1.066,1.066,0,0,0-.27735.1084.34438.34438,0,0,1-.09765.02246.22749.22749,0,0,1-.168-.07129.2421.2421,0,0,1-.07031-.17871V7.65632a.42554.42554,0,0,1,.207-.40137,2.04694,2.04694,0,0,1,1.041-.20605,2.09592,2.09592,0,0,1,1.707.624A3.0731,3.0731,0,0,1,35.999,9.59773V10.7364q-.12012,2.65576-3.01367,2.65625A3.2,3.2,0,0,1,30.72357,12.68757Z"/><path class="c" d="M18.372,24.047a.25967.25967,0,0,1-.082-.19043V18.7823l-1.45313,1.11621a.29767.29767,0,0,1-.16211.05469.279.279,0,0,1-.22656-.12989l-.67383-.86816a.31494.31494,0,0,1-.043-.16211.27628.27628,0,0,1,.11915-.23828l2.51562-1.94141a.42536.42536,0,0,1,.25-.07617h1.43164a.27887.27887,0,0,1,.19922.07617.25367.25367,0,0,1,.082.19532v7.04785a.25221.25221,0,0,1-.082.19531.27887.27887,0,0,1-.19922.07617H18.56146A.26191.26191,0,0,1,18.372,24.047Z"/><path class="c" d="M25.04,24.047a.2577.2577,0,0,1-.08008-.19043V22.66413H21.59857a.263.263,0,0,1-.1914-.08105.267.267,0,0,1-.08008-.19043V21.29792a.544.544,0,0,1,.11914-.32519l3.14453-4.251a.493.493,0,0,1,.40039-.18457h1.64844a.28357.28357,0,0,1,.20117.07617.25367.25367,0,0,1,.082.19532v4.1748h.95313a.27059.27059,0,0,1,.207.08106.27571.27571,0,0,1,.07422.18945v1.13867a.27811.27811,0,0,1-.07422.19043.25927.25927,0,0,1-.19532.08105h-.96484v1.19239a.25221.25221,0,0,1-.082.19531.28357.28357,0,0,1-.20117.07617H25.22943A.26191.26191,0,0,1,25.04,24.047Zm-1.7832-2.98731h1.74609V18.61921Z"/><path class="c" d="M31.02631,24.047a.25967.25967,0,0,1-.082-.19043V18.7823l-1.45313,1.11621a.2977.2977,0,0,1-.16211.05469.279.279,0,0,1-.22656-.12989l-.67383-.86816a.31484.31484,0,0,1-.043-.16211.27628.27628,0,0,1,.11914-.23828l2.51563-1.94141a.42534.42534,0,0,1,.25-.07617h1.43164a.2789.2789,0,0,1,.19922.07617.25371.25371,0,0,1,.082.19532v7.04785a.25225.25225,0,0,1-.082.19531.2789.2789,0,0,1-.19922.07617H31.21576A.26188.26188,0,0,1,31.02631,24.047Z"/></svg>