<svg xmlns="http://www.w3.org/2000/svg" viewBox="0 0 49.23637 65.37226"><defs><style>.a{fill:#ebebeb;}.b{fill:none;stroke:#cfd2d4;stroke-linecap:round;stroke-linejoin:round;stroke-width:1.08437px;}.c{fill:#191816;}</style></defs><rect class="a" width="49.23637" height="65.37226"/><line class="b" x1="25.82539" y1="30.90157" x2="44.44287" y2="30.90157"/><line class="b" x1="15.81725" y1="33.14492" x2="44.44287" y2="33.14492"/><line class="b" x1="11.90727" y1="35.2835" x2="44.44287" y2="35.2835"/><line class="b" x1="18.71187" y1="37.42209" x2="44.44287" y2="37.42209"/><line class="b" x1="25.82539" y1="50.16863" x2="44.44287" y2="50.16863"/><line class="b" x1="15.81725" y1="47.92528" x2="44.44287" y2="47.92528"/><line class="b" x1="11.90727" y1="45.7867" x2="44.44287" y2="45.7867"/><line class="b" x1="8.26118" y1="57.37309" x2="44.44287" y2="57.37309"/><line class="b" x1="5.51559" y1="55.2345" x2="44.44287" y2="55.2345"/><line class="b" x1="5.51559" y1="59.73524" x2="44.44287" y2="59.73524"/><line class="b" x1="18.71187" y1="43.64811" x2="44.44287" y2="43.64811"/><path class="c" d="M14.12752,12.6825a2.65833,2.65833,0,0,1-.7373-2.01172V7.36414a.25288.25288,0,0,1,.08105-.19531.28123.28123,0,0,1,.2002-.07617h2.76562a3.13432,3.13432,0,0,1,2.2334.66211,2.80091,2.80091,0,0,1,.748,1.95117c.00781.07226.01074.24219.01074.50976,0,.2754-.00293.44825-.01074.52051a2.81441,2.81441,0,0,1-.77539,1.97949,3.26524,3.26524,0,0,1-2.30371.67774A3.07386,3.07386,0,0,1,14.12752,12.6825ZM17.35311,11.577a1.23587,1.23587,0,0,0,.30859-.89453c.00781-.07226.01172-.22851.01172-.4668,0-.23144-.00391-.38281-.01172-.45507a1.263,1.263,0,0,0-.32519-.90039,1.33331,1.33331,0,0,0-.95411-.293H15.07088v2.07129a1.16768,1.16768,0,0,0,.3252.90527,1.32948,1.32948,0,0,0,.93261.29883A1.51844,1.51844,0,0,0,17.35311,11.577Z"/><path class="c" d="M21.90194,9.02332q.02051.44385.25976.52051l.30371.1084a.2535.2535,0,0,1,.13574.124.42828.42828,0,0,1,.04883.20117l.01074.55274a.28681.28681,0,0,1-.14648.25488.53615.53615,0,0,1-.35254.07031l-.44433-.06445a1.38257,1.38257,0,0,1-.93262-.60254,2.1672,2.1672,0,0,1-.36817-1.2959V7.36414a.37259.37259,0,0,1,.0918-.19531.23259.23259,0,0,1,.17871-.07617h2.19043a2.80381,2.80381,0,0,1,2.12012.73242,3.08961,3.08961,0,0,1,.76465,2.05469c.00683.07226.01074.17383.01074.30371a3.42291,3.42291,0,0,1-.69434,2.28222,2.731,2.731,0,0,1-2.20117.81836H20.817a.28044.28044,0,0,1-.20019-.07519.25432.25432,0,0,1-.08106-.19531v-.998a.27686.27686,0,0,1,.28125-.28125h2.00684a1.294,1.294,0,0,0,.90527-.32031,1.26054,1.26054,0,0,0,.38477-.90528c.00684-.07226.01074-.18066.01074-.32519,0-.1377-.0039-.24219-.01074-.31445a1.22706,1.22706,0,0,0-.374-.90528,1.3097,1.3097,0,0,0-.916-.32031h-.92187Z"/><path class="c" d="M26.91658,13.20887a.25776.25776,0,0,1-.08105-.19531V7.36414a.25628.25628,0,0,1,.08105-.19531.28359.28359,0,0,1,.20118-.07617h1.35546a.25933.25933,0,0,1,.27051.27148v5.64942a.2706.2706,0,0,1-.07519.18945.25432.25432,0,0,1-.19532.081H27.11776A.28283.28283,0,0,1,26.91658,13.20887Z"/><path class="c" d="M30.72322,12.68836a2.5989,2.5989,0,0,1-.75293-1.99512V7.36414a.25288.25288,0,0,1,.08106-.19531.26732.26732,0,0,1,.18945-.07617h1.12793a.28123.28123,0,0,1,.2002.07617.25365.25365,0,0,1,.082.19531v3.27442a1.11706,1.11706,0,0,0,.35254.90527,1.46979,1.46979,0,0,0,.98144.29883q1.2129,0,1.22461-1.16016a2.39463,2.39463,0,0,0,.00586-.293c-.0039-.123-.00586-.21679-.00586-.28222V9.869a1.9449,1.9449,0,0,0-.206-.94922A.62085.62085,0,0,0,33.44,8.58875a1.26763,1.26763,0,0,0-.32031.044,1.07194,1.07194,0,0,0-.27637.1084.33485.33485,0,0,1-.09765.02148.2303.2303,0,0,1-.168-.07031.24211.24211,0,0,1-.07032-.17871V7.65711a.42471.42471,0,0,1,.20606-.40137,2.04157,2.04157,0,0,1,1.041-.20605,2.10092,2.10092,0,0,1,1.708.62305,3.0773,3.0773,0,0,1,.53614,1.9248v1.13867q-.11867,2.65724-3.01368,2.65723A3.20622,3.20622,0,0,1,30.72322,12.68836Z"/><path class="c" d="M18.25838,24.04676a.2603.2603,0,0,1-.081-.18945v-5.0752L16.7242,19.8993a.31133.31133,0,0,1-.16211.05469.28054.28054,0,0,1-.22754-.13086l-.67285-.86719a.31835.31835,0,0,1-.043-.16309.27745.27745,0,0,1,.11914-.23828l2.51563-1.94043a.42233.42233,0,0,1,.249-.07617h1.43164a.28123.28123,0,0,1,.2002.07617.25163.25163,0,0,1,.082.19434v7.04883a.25514.25514,0,0,1-.082.19531.28046.28046,0,0,1-.2002.07519H18.44881A.26022.26022,0,0,1,18.25838,24.04676Z"/><path class="c" d="M22.33065,23.4452a3.05671,3.05671,0,0,1-.85743-2.06055c-.01464-.38965-.02148-.74121-.02148-1.05176q0-.47754.02148-1.084a3.219,3.219,0,0,1,.40723-1.44824,2.58786,2.58786,0,0,1,1.05176-1.00293,3.51624,3.51624,0,0,1,1.6748-.36817,3.553,3.553,0,0,1,1.68164.36817,2.58274,2.58274,0,0,1,1.05664,1.00293,3.219,3.219,0,0,1,.40723,1.44824c.01367.20215.02149.56347.02149,1.084,0,.50586-.00782.85645-.02149,1.05176a3.05665,3.05665,0,0,1-.85742,2.06055,3.13744,3.13744,0,0,1-2.28809.792A3.12041,3.12041,0,0,1,22.33065,23.4452Zm3.03613-1.17676a1.63681,1.63681,0,0,0,.27051-.9375q.022-.31494.02246-1.01953,0-.70459-.02246-.998a1.65273,1.65273,0,0,0-.27051-.92676.8807.8807,0,0,0-.75977-.34179q-.97558,0-1.02929,1.26855-.01173.293-.01172.998,0,.70458.01172,1.01953.05419,1.26855,1.02929,1.26855A.89151.89151,0,0,0,25.36678,22.26844Z"/><path class="c" d="M31.14022,24.04676a.26031.26031,0,0,1-.08106-.18945v-5.0752L29.606,19.8993a.31136.31136,0,0,1-.16211.05469.28052.28052,0,0,1-.22754-.13086l-.67285-.86719a.31835.31835,0,0,1-.043-.16309.27745.27745,0,0,1,.11914-.23828l2.51562-1.94043a.42238.42238,0,0,1,.249-.07617H32.816a.28121.28121,0,0,1,.20019.07617.25159.25159,0,0,1,.082.19434v7.04883a.2551.2551,0,0,1-.082.19531.28044.28044,0,0,1-.20019.07519H31.33065A.26021.26021,0,0,1,31.14022,24.04676Z"/></svg>