<svg xmlns="http://www.w3.org/2000/svg" viewBox="0 0 49.23637 65.37226"><defs><style>.a{fill:#fff;}.b{fill:none;stroke:#e2e6e8;stroke-linecap:round;stroke-linejoin:round;stroke-width:1.08437px;}.c{fill:#2d2a28;}</style></defs><rect class="a" width="49.23637" height="65.37226"/><line class="b" x1="25.82539" y1="30.90157" x2="44.44287" y2="30.90157"/><line class="b" x1="15.81725" y1="33.14492" x2="44.44287" y2="33.14492"/><line class="b" x1="11.90727" y1="35.2835" x2="44.44287" y2="35.2835"/><line class="b" x1="18.71187" y1="37.42209" x2="44.44287" y2="37.42209"/><line class="b" x1="25.82539" y1="50.16863" x2="44.44287" y2="50.16863"/><line class="b" x1="15.81725" y1="47.92528" x2="44.44287" y2="47.92528"/><line class="b" x1="11.90727" y1="45.7867" x2="44.44287" y2="45.7867"/><line class="b" x1="8.26118" y1="57.37309" x2="44.44287" y2="57.37309"/><line class="b" x1="5.51559" y1="55.2345" x2="44.44287" y2="55.2345"/><line class="b" x1="5.51559" y1="59.73524" x2="44.44287" y2="59.73524"/><line class="b" x1="18.71187" y1="43.64811" x2="44.44287" y2="43.64811"/><path class="c" d="M14.12684,12.68269a2.66081,2.66081,0,0,1-.73633-2.01172V7.36335a.25354.25354,0,0,1,.08008-.19531.28712.28712,0,0,1,.20117-.07519h2.76563a3.13167,3.13167,0,0,1,2.23242.66113,2.80526,2.80526,0,0,1,.748,1.95215q.01173.10839.01172.50976c0,.27442-.0039.44824-.01172.52051a2.80587,2.80587,0,0,1-.77539,1.97852,3.25626,3.25626,0,0,1-2.30273.67773A3.07621,3.07621,0,0,1,14.12684,12.68269Zm3.22656-1.10645a1.2325,1.2325,0,0,0,.3086-.89453q.01171-.10839.01171-.46582c0-.23144-.0039-.38379-.01171-.456a1.25658,1.25658,0,0,0-.32618-.89942,1.32909,1.32909,0,0,0-.95312-.293H15.0702v2.07129a1.17091,1.17091,0,0,0,.32617.90528,1.3329,1.3329,0,0,0,.93164.29785A1.5143,1.5143,0,0,0,17.3534,11.57624Z"/><path class="c" d="M21.90223,9.02253c.01367.29688.09961.46973.25977.52051l.30273.1084a.25353.25353,0,0,1,.13672.125.43625.43625,0,0,1,.04883.20019l.00976.55372a.28685.28685,0,0,1-.14648.25488.54043.54043,0,0,1-.35156.07031l-.44532-.06543a1.38148,1.38148,0,0,1-.93164-.60156,2.16967,2.16967,0,0,1-.36914-1.2959V7.36335a.37606.37606,0,0,1,.0918-.19531.23728.23728,0,0,1,.17969-.07519h2.18945a2.80588,2.80588,0,0,1,2.12109.73144A3.091,3.091,0,0,1,25.7616,9.879a3.00885,3.00885,0,0,1,.01172.30371,3.42417,3.42417,0,0,1-.69531,2.2832,2.72964,2.72964,0,0,1-2.20117.81836H20.81629a.2789.2789,0,0,1-.19922-.07617.25225.25225,0,0,1-.082-.19531V12.0157a.27848.27848,0,0,1,.28125-.28223H22.8241a1.29529,1.29529,0,0,0,.9043-.31934,1.26467,1.26467,0,0,0,.38477-.90625c.00781-.07226.01172-.17968.01172-.32519,0-.13672-.00391-.24219-.01172-.31445a1.22434,1.22434,0,0,0-.373-.90528,1.31589,1.31589,0,0,0-.916-.32031h-.92187Z"/><path class="c" d="M26.9159,13.20808a.25754.25754,0,0,1-.08008-.19531V7.36335A.26055.26055,0,0,1,26.9159,7.168a.28713.28713,0,0,1,.20117-.07519h1.35547a.25934.25934,0,0,1,.27149.2705v5.64942a.26957.26957,0,0,1-.07618.19043.25628.25628,0,0,1-.19531.081H27.11707A.28359.28359,0,0,1,26.9159,13.20808Z"/><path class="c" d="M30.72254,12.68757a2.59837,2.59837,0,0,1-.75195-1.99512V7.36335a.25354.25354,0,0,1,.08008-.19531.27228.27228,0,0,1,.18945-.07519H31.369a.28236.28236,0,0,1,.19922.07519.25514.25514,0,0,1,.082.19531v3.27539a1.11712,1.11712,0,0,0,.35351.90528,1.47206,1.47206,0,0,0,.98047.29785c.80859,0,1.21875-.38672,1.22461-1.16016a2.21264,2.21264,0,0,0,.00586-.293q-.00587-.18456-.00586-.28125V9.86824A1.93082,1.93082,0,0,0,34.00379,8.92a.62052.62052,0,0,0-.56445-.33105,1.31657,1.31657,0,0,0-.32031.043,1.0781,1.0781,0,0,0-.27539.1084.34443.34443,0,0,1-.09766.02246.22753.22753,0,0,1-.168-.07129.24214.24214,0,0,1-.07031-.17871V7.65632a.42783.42783,0,0,1,.20508-.40137,2.05685,2.05685,0,0,1,1.041-.20605,2.10033,2.10033,0,0,1,1.709.624,3.07363,3.07363,0,0,1,.53515,1.92481V10.7364q-.11718,2.65576-3.01367,2.65625A3.20326,3.20326,0,0,1,30.72254,12.68757Z"/><path class="c" d="M17.61317,24.047a.25967.25967,0,0,1-.082-.19043V18.7823L16.078,19.89851a.2977.2977,0,0,1-.16211.05469.279.279,0,0,1-.22656-.12989l-.67383-.86816a.31484.31484,0,0,1-.043-.16211.27628.27628,0,0,1,.11914-.23828l2.51563-1.94141a.42534.42534,0,0,1,.25-.07617H19.289a.2789.2789,0,0,1,.19922.07617.25371.25371,0,0,1,.082.19532v7.04785a.25225.25225,0,0,1-.082.19531.2789.2789,0,0,1-.19922.07617H17.80262A.26188.26188,0,0,1,17.61317,24.047Z"/><path class="c" d="M20.7909,24.047a.25967.25967,0,0,1-.082-.19043V23.044a.66693.66693,0,0,1,.27148-.543l1.00782-.98633q1.03125-.78077,1.55664-1.21484a5.46192,5.46192,0,0,0,.80273-.78614,1.10279,1.10279,0,0,0,.27539-.667.70922.70922,0,0,0-.80273-.80176.82818.82818,0,0,0-.65039.25489,1.313,1.313,0,0,0-.30274.63379.33233.33233,0,0,1-.36914.25H21.06629a.2303.2303,0,0,1-.168-.07032.22023.22023,0,0,1-.07031-.1582,2.47039,2.47039,0,0,1,.39649-1.29492,2.62258,2.62258,0,0,1,1.04492-.92188,3.37019,3.37019,0,0,1,1.55078-.34179,3.85507,3.85507,0,0,1,1.57226.293,2.13685,2.13685,0,0,1,1.34571,2.06054,2.26627,2.26627,0,0,1-.48242,1.40918A7.58545,7.58545,0,0,1,24.785,21.52546l-.89844.90039h2.74219a.25936.25936,0,0,1,.27149.27051v1.16016a.26957.26957,0,0,1-.07618.19043.25628.25628,0,0,1-.19531.08105H20.98035A.25872.25872,0,0,1,20.7909,24.047Z"/><path class="c" d="M29.18348,23.93269a2.495,2.495,0,0,1-1.07422-.835,2.07246,2.07246,0,0,1-.38476-1.13867.222.222,0,0,1,.22851-.22754h1.52734a.36419.36419,0,0,1,.35938.20605,1.09454,1.09454,0,0,0,.40625.52051,1.15669,1.15669,0,0,0,.63477.16309,1.10315,1.10315,0,0,0,.77343-.28223,1.01628,1.01628,0,0,0,.31055-.792.98034.98034,0,0,0-.30469-.73731,1.07505,1.07505,0,0,0-.77929-.293,1.11878,1.11878,0,0,0-.43555.07129,1.433,1.433,0,0,0-.31445.18946.47716.47716,0,0,1-.28125.12988H28.34168a.24008.24008,0,0,1-.23828-.23828l.40235-3.80664a.32347.32347,0,0,1,.11328-.23828.3682.3682,0,0,1,.24414-.08692h4.41406a.259.259,0,0,1,.19336.07617.26343.26343,0,0,1,.07617.19532v1.084a.27127.27127,0,0,1-.07617.19043.25207.25207,0,0,1-.19336.08105H30.121l-.13086,1.334a1.92925,1.92925,0,0,1,.58594-.27734,3.22136,3.22136,0,0,1,.8457-.0918,2.83593,2.83593,0,0,1,1.30078.30859,2.46578,2.46578,0,0,1,.97071.873,2.33235,2.33235,0,0,1,.36328,1.291,2.50516,2.50516,0,0,1-.37891,1.36036,2.54839,2.54839,0,0,1-1.10156.94336,3.92251,3.92251,0,0,1-1.69531.34179A4.16324,4.16324,0,0,1,29.18348,23.93269Z"/></svg>