<svg xmlns="http://www.w3.org/2000/svg" viewBox="0 0 49.23637 65.37226"><defs><style>.a{fill:#c5c5c5;}.b{fill:none;stroke:#a9acae;stroke-linecap:round;stroke-linejoin:round;stroke-width:1.08437px;}.c{fill:#060505;}</style></defs><rect class="a" width="49.23637" height="65.37226"/><line class="b" x1="25.82539" y1="30.90157" x2="44.44287" y2="30.90157"/><line class="b" x1="15.81725" y1="33.14492" x2="44.44287" y2="33.14492"/><line class="b" x1="11.90727" y1="35.2835" x2="44.44287" y2="35.2835"/><line class="b" x1="18.71187" y1="37.42209" x2="44.44287" y2="37.42209"/><line class="b" x1="25.82539" y1="50.16863" x2="44.44287" y2="50.16863"/><line class="b" x1="15.81725" y1="47.92528" x2="44.44287" y2="47.92528"/><line class="b" x1="11.90727" y1="45.7867" x2="44.44287" y2="45.7867"/><line class="b" x1="8.26118" y1="57.37309" x2="44.44287" y2="57.37309"/><line class="b" x1="5.51559" y1="55.2345" x2="44.44287" y2="55.2345"/><line class="b" x1="5.51559" y1="59.73524" x2="44.44287" y2="59.73524"/><line class="b" x1="18.71187" y1="43.64811" x2="44.44287" y2="43.64811"/><path class="c" d="M14.12787,12.68269a2.66179,2.66179,0,0,1-.73828-2.01172V7.36335a.2551.2551,0,0,1,.082-.19531.28229.28229,0,0,1,.19922-.0752h2.76562a3.13709,3.13709,0,0,1,2.23438.66114,2.80524,2.80524,0,0,1,.748,1.95215c.00782.07226.00977.24218.00977.50976,0,.27441-.002.44824-.00977.52051a2.81427,2.81427,0,0,1-.77539,1.97851,3.26494,3.26494,0,0,1-2.30468.67774A3.07106,3.07106,0,0,1,14.12787,12.68269Zm3.22461-1.10645a1.23251,1.23251,0,0,0,.30859-.89453q.01172-.10839.01172-.46582c0-.23144-.00391-.38379-.01172-.456a1.26442,1.26442,0,0,0-.32422-.89942,1.33757,1.33757,0,0,0-.95507-.293H15.07123v2.07129a1.17018,1.17018,0,0,0,.32422.90528,1.33484,1.33484,0,0,0,.93359.29785A1.51179,1.51179,0,0,0,17.35248,11.57624Z"/><path class="c" d="M21.90131,9.02253c.01367.29688.10156.46973.25976.52051l.30469.1084a.25.25,0,0,1,.13477.125.4132.4132,0,0,1,.04882.20019l.01172.55371a.28686.28686,0,0,1-.14648.25489.54369.54369,0,0,1-.35352.07031l-.44336-.06543a1.381,1.381,0,0,1-.93359-.60156,2.169,2.169,0,0,1-.36719-1.2959V7.36335a.37606.37606,0,0,1,.0918-.19531.233.233,0,0,1,.17773-.0752h2.19141a2.80112,2.80112,0,0,1,2.11914.73145A3.092,3.092,0,0,1,25.76263,9.879c.00586.07226.00977.17382.00977.30371a3.42373,3.42373,0,0,1-.69336,2.2832,2.73231,2.73231,0,0,1-2.20117.81836H20.81732a.28357.28357,0,0,1-.20117-.07617.25075.25075,0,0,1-.08008-.19531V12.0157a.27086.27086,0,0,1,.08008-.20118.27546.27546,0,0,1,.20117-.081h2.00586a1.30033,1.30033,0,0,0,.90625-.31934,1.26467,1.26467,0,0,0,.38477-.90625c.00586-.07226.00976-.17968.00976-.32519,0-.13672-.0039-.24219-.00976-.31446a1.23307,1.23307,0,0,0-.375-.90527,1.31255,1.31255,0,0,0-.916-.32031h-.92187Z"/><path class="c" d="M26.91693,13.20808a.25224.25224,0,0,1-.082-.19531V7.36335a.2551.2551,0,0,1,.082-.19531.2871.2871,0,0,1,.20117-.0752h1.35547a.25638.25638,0,0,1,.26953.27051v5.64942a.27637.27637,0,0,1-.07422.19043.25925.25925,0,0,1-.19531.081H27.1181A.28359.28359,0,0,1,26.91693,13.20808Z"/><path class="c" d="M30.72357,12.68757a2.59943,2.59943,0,0,1-.7539-1.99512V7.36335a.2551.2551,0,0,1,.082-.19531.26886.26886,0,0,1,.18945-.0752H31.3681a.2871.2871,0,0,1,.20118.0752.25514.25514,0,0,1,.082.19531v3.27539a1.12232,1.12232,0,0,0,.35156.90528,1.47763,1.47763,0,0,0,.98242.29785q1.21289,0,1.22461-1.16016a2.61419,2.61419,0,0,0,.00586-.293q-.00587-.18456-.00586-.28125V9.86823a1.95088,1.95088,0,0,0-.207-.94824.6176.6176,0,0,0-.5625-.33105,1.30424,1.30424,0,0,0-.32031.043,1.06638,1.06638,0,0,0-.27735.10839.34412.34412,0,0,1-.09765.02247.22749.22749,0,0,1-.168-.07129.2421.2421,0,0,1-.07031-.17871V7.65632a.42554.42554,0,0,1,.207-.40137,2.04684,2.04684,0,0,1,1.041-.20605,2.09592,2.09592,0,0,1,1.707.624A3.0731,3.0731,0,0,1,35.999,9.59773V10.7364q-.12012,2.65576-3.01367,2.65625A3.20006,3.20006,0,0,1,30.72357,12.68757Z"/><path class="c" d="M18.372,24.047a.25967.25967,0,0,1-.082-.19043V18.7823l-1.45313,1.11621a.29767.29767,0,0,1-.16211.05469.279.279,0,0,1-.22656-.12989l-.67383-.86816a.315.315,0,0,1-.043-.16211.27628.27628,0,0,1,.11915-.23828l2.51562-1.94141a.42536.42536,0,0,1,.25-.07617h1.43164a.27887.27887,0,0,1,.19922.07617.25367.25367,0,0,1,.082.19531v7.04786a.25224.25224,0,0,1-.082.19531.27887.27887,0,0,1-.19922.07617H18.56146A.26191.26191,0,0,1,18.372,24.047Z"/><path class="c" d="M25.04,24.047a.2577.2577,0,0,1-.08008-.19043V22.66413H21.59857a.263.263,0,0,1-.1914-.08105.267.267,0,0,1-.08008-.19043V21.29792a.544.544,0,0,1,.11914-.32519l3.14453-4.251a.493.493,0,0,1,.40039-.18457h1.64844a.28357.28357,0,0,1,.20117.07617.25367.25367,0,0,1,.082.19531v4.17481h.95313a.27062.27062,0,0,1,.207.08105.27575.27575,0,0,1,.07422.18946v1.13867a.27813.27813,0,0,1-.07422.19043.25927.25927,0,0,1-.19532.08105h-.96484v1.19239a.25224.25224,0,0,1-.082.19531.28357.28357,0,0,1-.20117.07617H25.22943A.26191.26191,0,0,1,25.04,24.047Zm-1.7832-2.98731h1.74609V18.61921Z"/><path class="c" d="M31.02631,24.047a.25967.25967,0,0,1-.082-.19043V18.7823l-1.45313,1.11621a.2977.2977,0,0,1-.16211.05469.279.279,0,0,1-.22656-.12989l-.67383-.86816a.31487.31487,0,0,1-.043-.16211.27628.27628,0,0,1,.11914-.23828l2.51563-1.94141a.42534.42534,0,0,1,.25-.07617h1.43164a.2789.2789,0,0,1,.19922.07617.2537.2537,0,0,1,.082.19531v7.04786a.25228.25228,0,0,1-.082.19531.2789.2789,0,0,1-.19922.07617H31.21576A.26188.26188,0,0,1,31.02631,24.047Z"/></svg>