<svg xmlns="http://www.w3.org/2000/svg" viewBox="0 0 49.23637 65.37226"><defs><style>.a{fill:#ebebeb;}.b{fill:none;stroke:#cfd2d4;stroke-linecap:round;stroke-linejoin:round;stroke-width:1.08437px;}.c{fill:#191816;}</style></defs><rect class="a" width="49.23637" height="65.37226"/><line class="b" x1="25.82539" y1="30.90157" x2="44.44287" y2="30.90157"/><line class="b" x1="15.81725" y1="33.14492" x2="44.44287" y2="33.14492"/><line class="b" x1="11.90727" y1="35.2835" x2="44.44287" y2="35.2835"/><line class="b" x1="18.71187" y1="37.42209" x2="44.44287" y2="37.42209"/><line class="b" x1="25.82539" y1="50.16863" x2="44.44287" y2="50.16863"/><line class="b" x1="15.81725" y1="47.92528" x2="44.44287" y2="47.92528"/><line class="b" x1="11.90727" y1="45.7867" x2="44.44287" y2="45.7867"/><line class="b" x1="8.26118" y1="57.37309" x2="44.44287" y2="57.37309"/><line class="b" x1="5.51559" y1="55.2345" x2="44.44287" y2="55.2345"/><line class="b" x1="5.51559" y1="59.73524" x2="44.44287" y2="59.73524"/><line class="b" x1="18.71187" y1="43.64811" x2="44.44287" y2="43.64811"/><path class="c" d="M14.12684,12.6825a2.65785,2.65785,0,0,1-.73633-2.01172V7.36414a.25212.25212,0,0,1,.08008-.19531.28357.28357,0,0,1,.20117-.07617h2.76563a3.13161,3.13161,0,0,1,2.23242.66211,2.80086,2.80086,0,0,1,.748,1.95117q.01173.10839.01172.50976c0,.2754-.0039.44825-.01172.52051a2.81012,2.81012,0,0,1-.77539,1.97949,3.26084,3.26084,0,0,1-2.30273.67774A3.07642,3.07642,0,0,1,14.12684,12.6825ZM17.3534,11.577a1.23587,1.23587,0,0,0,.3086-.89453c.00781-.07226.01171-.22851.01171-.4668,0-.23144-.0039-.38281-.01171-.45507a1.25909,1.25909,0,0,0-.32618-.90039,1.329,1.329,0,0,0-.95312-.293H15.0702v2.07129a1.168,1.168,0,0,0,.32617.90527,1.32853,1.32853,0,0,0,.93164.29883A1.51967,1.51967,0,0,0,17.3534,11.577Z"/><path class="c" d="M21.90223,9.02332c.01367.2959.09961.46973.25977.52051l.30273.1084a.25534.25534,0,0,1,.13672.124.44031.44031,0,0,1,.04883.20117l.00976.55274a.28683.28683,0,0,1-.14648.25488.53457.53457,0,0,1-.35156.07031l-.44532-.06445a1.38284,1.38284,0,0,1-.93164-.60254,2.16761,2.16761,0,0,1-.36914-1.2959V7.36414a.37244.37244,0,0,1,.0918-.19531.23465.23465,0,0,1,.17969-.07617h2.18945a2.80619,2.80619,0,0,1,2.12109.73242,3.089,3.089,0,0,1,.76367,2.05469,3.00885,3.00885,0,0,1,.01172.30371A3.42313,3.42313,0,0,1,25.078,12.4657a2.72964,2.72964,0,0,1-2.20117.81836H20.81629a.27813.27813,0,0,1-.19922-.07519.25514.25514,0,0,1-.082-.19531v-.998a.2719.2719,0,0,1,.082-.2002.26734.26734,0,0,1,.19922-.081H22.8241a1.2915,1.2915,0,0,0,.9043-.32031,1.26058,1.26058,0,0,0,.38477-.90528q.01171-.10839.01172-.32519c0-.1377-.00391-.24219-.01172-.31445a1.2227,1.2227,0,0,0-.373-.90528,1.31135,1.31135,0,0,0-.916-.32031h-.92187Z"/><path class="c" d="M26.9159,13.20887a.26055.26055,0,0,1-.08008-.19531V7.36414a.259.259,0,0,1,.08008-.19531.28359.28359,0,0,1,.20117-.07617h1.35547a.26085.26085,0,0,1,.27149.27148v5.64942a.26729.26729,0,0,1-.07618.18945.25288.25288,0,0,1-.19531.081H27.11707A.28282.28282,0,0,1,26.9159,13.20887Z"/><path class="c" d="M30.72254,12.68836a2.59838,2.59838,0,0,1-.75195-1.99512V7.36414a.25212.25212,0,0,1,.08008-.19531.269.269,0,0,1,.18945-.07617H31.369a.2789.2789,0,0,1,.19922.07617.25369.25369,0,0,1,.082.19531v3.27442a1.11446,1.11446,0,0,0,.35351.90527,1.467,1.467,0,0,0,.98047.29883c.80859,0,1.21875-.38672,1.22461-1.16016a2.21264,2.21264,0,0,0,.00586-.293c-.00391-.123-.00586-.21679-.00586-.28222V9.869a1.93494,1.93494,0,0,0-.20508-.94922.62231.62231,0,0,0-.56445-.33106,1.27354,1.27354,0,0,0-.32031.044,1.0781,1.0781,0,0,0-.27539.1084.3349.3349,0,0,1-.09766.02148.23033.23033,0,0,1-.168-.07031.24214.24214,0,0,1-.07031-.17871V7.65711a.42584.42584,0,0,1,.20508-.40137,2.04647,2.04647,0,0,1,1.041-.20605,2.10314,2.10314,0,0,1,1.709.62305,3.0776,3.0776,0,0,1,.53515,1.9248v1.13867q-.11718,2.65724-3.01367,2.65723A3.20785,3.20785,0,0,1,30.72254,12.68836Z"/><path class="c" d="M17.61317,24.04676a.25755.25755,0,0,1-.082-.18945v-5.0752L16.078,19.8993a.30594.30594,0,0,1-.16211.05469.28024.28024,0,0,1-.22656-.13086l-.67383-.86719a.31835.31835,0,0,1-.043-.16309.27745.27745,0,0,1,.11914-.23828l2.51563-1.94043a.42534.42534,0,0,1,.25-.07617H19.289a.2789.2789,0,0,1,.19922.07617.25163.25163,0,0,1,.082.19434v7.04883a.25514.25514,0,0,1-.082.19531.27813.27813,0,0,1-.19922.07519H17.80262A.25808.25808,0,0,1,17.61317,24.04676Z"/><path class="c" d="M20.7909,24.04676a.25755.25755,0,0,1-.082-.18945v-.81348a.66514.66514,0,0,1,.27148-.542l1.00782-.98731q1.03125-.77929,1.55664-1.21386a5.51163,5.51163,0,0,0,.80273-.78614,1.105,1.105,0,0,0,.27539-.667.70952.70952,0,0,0-.80273-.80273.82821.82821,0,0,0-.65039.25488,1.31645,1.31645,0,0,0-.30274.63476.33253.33253,0,0,1-.36914.249H21.06629a.23033.23033,0,0,1-.168-.07031.21815.21815,0,0,1-.07031-.15723A2.47105,2.47105,0,0,1,21.2245,17.66a2.62248,2.62248,0,0,1,1.04492-.92187,3.3825,3.3825,0,0,1,1.55078-.3418,3.85523,3.85523,0,0,1,1.57226.293,2.22436,2.22436,0,0,1,1.00391.82422,2.34744,2.34744,0,0,1-.14062,2.6455A7.586,7.586,0,0,1,24.785,21.52625l-.89844.89942h2.74219a.26085.26085,0,0,1,.27149.27148v1.16016a.26729.26729,0,0,1-.07618.18945.25288.25288,0,0,1-.19531.08105H20.98035A.255.255,0,0,1,20.7909,24.04676Z"/><path class="c" d="M29.18348,23.93348a2.50226,2.50226,0,0,1-1.07422-.835,2.07509,2.07509,0,0,1-.38476-1.13867.222.222,0,0,1,.22851-.22852h1.52734a.36347.36347,0,0,1,.35938.207,1.0869,1.0869,0,0,0,.40625.51953,1.14843,1.14843,0,0,0,.63477.16309,1.09875,1.09875,0,0,0,.77343-.28223,1.01269,1.01269,0,0,0,.31055-.791.97884.97884,0,0,0-.30469-.73731,1.07505,1.07505,0,0,0-.77929-.293,1.12037,1.12037,0,0,0-.43555.07032,1.47153,1.47153,0,0,0-.31445.18945.47954.47954,0,0,1-.28125.13086H28.34168a.24179.24179,0,0,1-.23828-.23926l.40235-3.80566a.32181.32181,0,0,1,.11328-.23829.36326.36326,0,0,1,.24414-.08691h4.41406a.26066.26066,0,0,1,.26953.27051v1.085a.269.269,0,0,1-.07617.18945.24874.24874,0,0,1-.19336.08106H30.121l-.13086,1.334a1.90475,1.90475,0,0,1,.58594-.27637,3.18058,3.18058,0,0,1,.8457-.09179,2.82378,2.82378,0,0,1,1.30078.30859,2.45119,2.45119,0,0,1,.97071.873,2.32906,2.32906,0,0,1,.36328,1.29,2.50611,2.50611,0,0,1-.37891,1.36133,2.54831,2.54831,0,0,1-1.10156.94335,3.92236,3.92236,0,0,1-1.69531.3418A4.1796,4.1796,0,0,1,29.18348,23.93348Z"/></svg>