<svg xmlns="http://www.w3.org/2000/svg" viewBox="0 0 17.8245 22.62019"><defs><style>.a{fill:#c6c6c6;}.b{fill:#f6f6f6;}.c{fill:#fff;}</style></defs><path class="a" d="M17.67762,11.296l.00781-.00488-.02978-.05322a1.80259,1.80259,0,0,0-.10352-.1875l-.71-1.32959-.25342.00342c-.043-.03369-.07617-.07422-.123-.105L3.08185.85359a1.84312,1.84312,0,0,0-2.853,1.542V19.92683a1.81463,1.81463,0,0,0,.23779.89258l-.00781.00586.03466.0542c.0083.01367.01709.02685.02637.041L.994,21.6529a1.72355,1.72355,0,0,0,.12744.19922l.0708.11035.01318-.0083a1.82939,1.82939,0,0,0,2.41114.36523l13.38379-8.76562A1.83428,1.83428,0,0,0,17.67762,11.296Z"/><path class="b" d="M16.23683,9.07012,2.85326.30436A1.84331,1.84331,0,0,0,0,1.84636V19.37787a1.8433,1.8433,0,0,0,2.85326,1.542l13.38357-8.76575A1.84331,1.84331,0,0,0,16.23683,9.07012Z"/><path class="c" d="M1.17177,18.45323V3.32965a1.46155,1.46155,0,0,1,.42809-1.0335h0a1.46158,1.46158,0,0,1,1.8373-.18722l9.54629,6.25633L11.29252,7.759A2.75184,2.75184,0,0,0,7.92164,9.081l-5.1524,9.92075a.89291.89291,0,0,1-.957.30793h0A.8929.8929,0,0,1,1.17177,18.45323Z"/></svg>