<svg xmlns="http://www.w3.org/2000/svg" viewBox="0 0 49.23637 65.37226"><defs><style>.a{fill:#fff;}.b{fill:none;stroke:#e2e6e8;stroke-linecap:round;stroke-linejoin:round;stroke-width:1.08437px;}.c{fill:#2d2a28;}</style></defs><rect class="a" width="49.23637" height="65.37226"/><line class="b" x1="25.82539" y1="51.5445" x2="44.44287" y2="51.5445"/><line class="b" x1="8.26118" y1="57.37309" x2="44.44287" y2="57.37309"/><line class="b" x1="5.51559" y1="55.2345" x2="44.44287" y2="55.2345"/><line class="b" x1="5.51559" y1="59.73524" x2="44.44287" y2="59.73524"/><path class="c" d="M18.97964,7.77058a2.9456,2.9456,0,0,1,.61816,2.04395,3.18744,3.18744,0,0,1-.81348,2.25488A4.31523,4.31523,0,0,1,16.74526,13.295l-.44434.12989a.20981.20981,0,0,1-.20019-.0752.31049.31049,0,0,1-.09277-.2168v-1.0957a.30761.30761,0,0,1,.07617-.20019.531.531,0,0,1,.19531-.14649l.34668-.1416a1.74185,1.74185,0,0,0,.78613-.58008,1.81277,1.81277,0,0,0,.28809-1.10058,1.45852,1.45852,0,0,0-.23926-.95411,1.15535,1.15535,0,0,0-.88867-.27148h-.28223l-1.45312-.01074a.25785.25785,0,0,1-.27051-.27051V5.85652a.25438.25438,0,0,1,.08105-.19532.26733.26733,0,0,1,.18946-.07617H16.008a.26084.26084,0,0,1,.27148.27149V7.09285h.67187A2.63165,2.63165,0,0,1,18.97964,7.77058Z"/><path class="c" d="M24.70522,13.20808a.26188.26188,0,0,1-.07617-.19531v-3.209a1.08762,1.08762,0,0,0-1.22461-1.23633H20.93178a.28359.28359,0,0,1-.20117-.07617.25628.25628,0,0,1-.081-.19531V7.36335a.25776.25776,0,0,1,.081-.19531.28713.28713,0,0,1,.20117-.07519h2.52637a3.32113,3.32113,0,0,1,2.25.66113,2.60126,2.60126,0,0,1,.75391,2.06055v3.19824a.25482.25482,0,0,1-.08106.19531.28357.28357,0,0,1-.20117.07617h-1.2793A.26342.26342,0,0,1,24.70522,13.20808Zm-3.97461,0a.25482.25482,0,0,1-.081-.19531v-3.166a.25776.25776,0,0,1,.081-.19531.2871.2871,0,0,1,.20117-.0752h1.2793a.26809.26809,0,0,1,.19531.0752.26494.26494,0,0,1,.07617.19531v3.166a.26961.26961,0,0,1-.07617.19043.25776.25776,0,0,1-.19531.081h-1.2793A.28359.28359,0,0,1,20.73061,13.20808Z"/><path class="c" d="M27.757,13.20808a.25482.25482,0,0,1-.08106-.19531V7.36335A.25777.25777,0,0,1,27.757,7.168a.28712.28712,0,0,1,.20117-.07519h1.35547a.25785.25785,0,0,1,.27051.2705v5.64942a.2729.2729,0,0,1-.0752.19043.25776.25776,0,0,1-.19531.081H27.95815A.28357.28357,0,0,1,27.757,13.20808Z"/><path class="c" d="M34.588,13.2032a.27323.27323,0,0,1-.20019.081H30.90737a.28357.28357,0,0,1-.20117-.07617.25482.25482,0,0,1-.08106-.19531v-.93262a.2542.2542,0,0,1,.08106-.19434.28357.28357,0,0,1,.20117-.07617h1.7998l-.09765-2.13672a1.89442,1.89442,0,0,0-.2168-.91015.7431.7431,0,0,0-.67285-.28223h-.55273a.2787.2787,0,0,1-.27149-.27148V7.2989a.28357.28357,0,0,1,.07617-.20117.25631.25631,0,0,1,.19532-.08106h.58593a2.84529,2.84529,0,0,1,2.06543.63965,2.96355,2.96355,0,0,1,.69922,2.04981l.1416,3.30664A.22689.22689,0,0,1,34.588,13.2032Z"/><path class="c" d="M16.65346,18.61433a2.94555,2.94555,0,0,1,.61817,2.044,3.18744,3.18744,0,0,1-.81348,2.25488,4.31523,4.31523,0,0,1-2.03906,1.22558l-.44434.12989a.20981.20981,0,0,1-.20019-.0752.31046.31046,0,0,1-.09278-.2168v-1.0957a.30757.30757,0,0,1,.07618-.20019.531.531,0,0,1,.19531-.14649l.34668-.1416a1.7419,1.7419,0,0,0,.78613-.58008,1.81277,1.81277,0,0,0,.28809-1.10058,1.45852,1.45852,0,0,0-.23926-.95411,1.15535,1.15535,0,0,0-.88867-.27148H13.964l-1.45312-.01074a.25785.25785,0,0,1-.27051-.27051V16.70027a.25435.25435,0,0,1,.081-.19532.26733.26733,0,0,1,.18946-.07617h1.17089a.26084.26084,0,0,1,.27149.27149V17.9366h.67187A2.63162,2.63162,0,0,1,16.65346,18.61433Z"/><path class="c" d="M18.40444,24.05183a.25482.25482,0,0,1-.08105-.19531V18.2071a.25776.25776,0,0,1,.08105-.19531.28712.28712,0,0,1,.20117-.07519h1.35547a.25785.25785,0,0,1,.27051.2705v5.64942a.2729.2729,0,0,1-.0752.19043.25776.25776,0,0,1-.19531.08105H18.60561A.28357.28357,0,0,1,18.40444,24.05183Z"/><path class="c" d="M22.93178,19.86628c.01368.29688.10059.46973.25977.52051l.30371.1084a.25173.25173,0,0,1,.13574.125.42434.42434,0,0,1,.04883.20019l.01074.55372a.28685.28685,0,0,1-.14648.25488.542.542,0,0,1-.35254.07031l-.44434-.06543a1.38121,1.38121,0,0,1-.93261-.60156,2.16925,2.16925,0,0,1-.36817-1.2959V18.2071a.37606.37606,0,0,1,.0918-.19531.23515.23515,0,0,1,.17871-.07519h2.19043a2.8035,2.8035,0,0,1,2.12012.73144,3.0916,3.0916,0,0,1,.76465,2.05469c.00683.07226.01074.17383.01074.30371a3.424,3.424,0,0,1-.69434,2.2832,2.731,2.731,0,0,1-2.20117.81836H21.84682a.28121.28121,0,0,1-.20019-.07617.25146.25146,0,0,1-.08106-.19531v-.99707a.2769.2769,0,0,1,.28125-.28223h2.00684a1.29778,1.29778,0,0,0,.90527-.31934,1.26467,1.26467,0,0,0,.38477-.90625c.00683-.07226.01074-.17968.01074-.32519,0-.13672-.00391-.24219-.01074-.31445a1.22868,1.22868,0,0,0-.374-.90528,1.31419,1.31419,0,0,0-.916-.32031h-.92188Z"/><path class="c" d="M27.90346,21.48249a.25435.25435,0,0,1-.081-.19531V18.2071a.25435.25435,0,0,1,.081-.19531.28642.28642,0,0,1,.2002-.07519h1.35547a.25933.25933,0,0,1,.27148.2705v3.08008a.26731.26731,0,0,1-.07617.18945.25288.25288,0,0,1-.19531.08106H28.10366A.28205.28205,0,0,1,27.90346,21.48249Z"/><path class="c" d="M31.66616,23.53132a2.59889,2.59889,0,0,1-.75293-1.99512V18.2071a.25435.25435,0,0,1,.08105-.19531.27061.27061,0,0,1,.18946-.07519h1.12793a.28471.28471,0,0,1,.20019.07519.2551.2551,0,0,1,.082.19531v3.27539a1.11972,1.11972,0,0,0,.35254.90528,1.47487,1.47487,0,0,0,.98145.29785q1.21288,0,1.22461-1.16016a2.39666,2.39666,0,0,0,.00586-.293q-.00587-.18456-.00586-.28125V20.712a1.94086,1.94086,0,0,0-.20606-.94825.61905.61905,0,0,0-.56347-.331,1.31046,1.31046,0,0,0-.32032.043,1.07186,1.07186,0,0,0-.27636.1084.34443.34443,0,0,1-.09766.02246.22753.22753,0,0,1-.168-.07129.24214.24214,0,0,1-.07031-.17871v-.85645a.42669.42669,0,0,1,.20605-.40137,2.05194,2.05194,0,0,1,1.041-.20605,2.09812,2.09812,0,0,1,1.708.624,3.0734,3.0734,0,0,1,.53613,1.92481v1.13867q-.11865,2.65577-3.01367,2.65625A3.20162,3.20162,0,0,1,31.66616,23.53132Z"/><path class="c" d="M13.44936,34.89558a.26188.26188,0,0,1-.07617-.19531v-3.21A1.08732,1.08732,0,0,0,12.14858,30.255H9.67592a.28359.28359,0,0,1-.20117-.07617.25628.25628,0,0,1-.081-.19531v-.93262a.25776.25776,0,0,1,.081-.19531.2879.2879,0,0,1,.20117-.07617h2.52637a3.32117,3.32117,0,0,1,2.25.66211A2.60126,2.60126,0,0,1,15.2062,31.502v3.19824a.25482.25482,0,0,1-.08106.19531.28355.28355,0,0,1-.20117.07617h-1.2793A.26342.26342,0,0,1,13.44936,34.89558Zm-3.97461,0a.25482.25482,0,0,1-.081-.19531v-3.166a.25776.25776,0,0,1,.081-.19531.28359.28359,0,0,1,.20117-.07617h1.2793a.26085.26085,0,0,1,.27149.27148v3.166a.2713.2713,0,0,1-.07618.19043.25776.25776,0,0,1-.19531.081H9.67592A.28359.28359,0,0,1,9.47475,34.89558Z"/><path class="c" d="M17.841,30.71c.01368.29688.10059.46973.25977.52051l.30371.1084a.25173.25173,0,0,1,.13574.125.42434.42434,0,0,1,.04883.20019l.01074.55274a.28468.28468,0,0,1-.14648.25488.54221.54221,0,0,1-.35254.07129l-.44434-.06543a1.38121,1.38121,0,0,1-.93261-.60156,2.16925,2.16925,0,0,1-.36817-1.2959v-1.5293a.37606.37606,0,0,1,.0918-.19531.236.236,0,0,1,.17871-.07617h2.19043a2.80383,2.80383,0,0,1,2.12012.73242,3.09154,3.09154,0,0,1,.76464,2.05469c.00684.07226.01075.17383.01075.30371a3.42118,3.42118,0,0,1-.69434,2.28223,2.7282,2.7282,0,0,1-2.20117.81933H16.756a.28121.28121,0,0,1-.20019-.07617.25146.25146,0,0,1-.08106-.19531V33.7032A.2769.2769,0,0,1,16.756,33.421h2.00684a1.29778,1.29778,0,0,0,.90527-.31934,1.26467,1.26467,0,0,0,.38477-.90625c.00683-.07226.01074-.18066.01074-.32519,0-.13672-.00391-.24219-.01074-.31445a1.227,1.227,0,0,0-.374-.90528,1.31419,1.31419,0,0,0-.916-.32031H17.841Z"/><path class="c" d="M22.81264,32.32624a.25435.25435,0,0,1-.081-.19531V29.05085a.25435.25435,0,0,1,.081-.19531.28721.28721,0,0,1,.2002-.07617h1.35547a.26083.26083,0,0,1,.27148.27148v3.08008a.269.269,0,0,1-.07617.18945.25288.25288,0,0,1-.19531.08106H23.01284A.28638.28638,0,0,1,22.81264,32.32624Z"/><path class="c" d="M32.85952,28.85554a.26494.26494,0,0,1,.07617.19531v2.84082a3.18729,3.18729,0,0,1-.43359,1.67578,2.94525,2.94525,0,0,1-1.18262,1.11133,3.43776,3.43776,0,0,1-1.65918.37989h-1.041a3.26707,3.26707,0,0,1-1.51757-.33594,2.41028,2.41028,0,0,1-.99219-.91113,2.44184,2.44184,0,0,1-.3418-1.26856V29.05085a.25774.25774,0,0,1,.08106-.19531.28787.28787,0,0,1,.20117-.07617h1.13867a.25934.25934,0,0,1,.27051.27148l.01074,2.60254a.99759.99759,0,0,0,.82422-.45019,2.20959,2.20959,0,0,0,.23926-1.13282v-.998a.2833.2833,0,0,1,.08105-.21094.2703.2703,0,0,1,.2002-.082h1.12793a.25209.25209,0,0,1,.18945.08691.29174.29174,0,0,1,.082.20606v1.01953a2.82731,2.82731,0,0,1-.63965,1.95215,2.69538,2.69538,0,0,1-1.81152.835,1.40917,1.40917,0,0,0,.54785.53125,1.55826,1.55826,0,0,0,.75391.18457h.249a2.16363,2.16363,0,0,0,.998-.22754,1.73119,1.73119,0,0,0,.69336-.62891,1.67546,1.67546,0,0,0,.25-.90039V29.05085a.25933.25933,0,0,1,.2705-.27148h1.13868A.26727.26727,0,0,1,32.85952,28.85554Z"/><path class="c" d="M34.133,34.89558a.25479.25479,0,0,1-.08106-.19531V29.05085a.25774.25774,0,0,1,.08106-.19531.28787.28787,0,0,1,.20117-.07617h2.55859a3.41288,3.41288,0,0,1,2.27246.63476,2.6343,2.6343,0,0,1,.73145,2.0879v3.19824a.27129.27129,0,0,1-.07617.19043.25419.25419,0,0,1-.19434.081H38.34585a.28122.28122,0,0,1-.2002-.07617.25146.25146,0,0,1-.08105-.19531v-3.21A1.088,1.088,0,0,0,36.839,30.255h-.9541v4.44532a.27129.27129,0,0,1-.07617.19043.25777.25777,0,0,1-.19532.081H34.33413A.28355.28355,0,0,1,34.133,34.89558Z"/><path class="c" d="M16.04018,45.73933a.25482.25482,0,0,1-.081-.19531V39.8946a.25776.25776,0,0,1,.081-.19531.2879.2879,0,0,1,.20117-.07617h2.46094a3.28814,3.28814,0,0,1,2.19629.624,2.55861,2.55861,0,0,1,.7207,2.03321v3.25293a.27687.27687,0,0,1-.28125.28222H16.24135A.28359.28359,0,0,1,16.04018,45.73933Zm3.834-1.39844V42.33406a1.088,1.088,0,0,0-1.22559-1.23536h-1.041v3.24219Z"/><path class="c" d="M27.68178,39.69929a.265.265,0,0,1,.07618.19531v.93262a.26732.26732,0,0,1-.07618.18945.2551.2551,0,0,1-.19531.082h-.499a1.646,1.646,0,0,0-.2002.55274,3.889,3.889,0,0,0-.07031.76953v3.15625a.20407.20407,0,0,1-.10352.168.36868.36868,0,0,1-.21093.07031H25.13393a.22494.22494,0,0,1-.23926-.23828V42.30183a2.34041,2.34041,0,0,1,.2168-1.20313H22.63979a.2787.2787,0,0,1-.27148-.27148V39.8946a.25776.25776,0,0,1,.081-.19531.27563.27563,0,0,1,.19043-.07617h4.84668A.26885.26885,0,0,1,27.68178,39.69929Z"/><path class="c" d="M32.88686,40.30085a2.95,2.95,0,0,1,.61817,2.04493,3.18744,3.18744,0,0,1-.81348,2.25488,4.31523,4.31523,0,0,1-2.03906,1.22558l-.44434.12989a.20981.20981,0,0,1-.20019-.0752.31094.31094,0,0,1-.09278-.21777V44.56843a.312.312,0,0,1,.07617-.20117.53983.53983,0,0,1,.19532-.14551l.34668-.1416a1.742,1.742,0,0,0,.78613-.58008,1.81277,1.81277,0,0,0,.28808-1.10058,1.45853,1.45853,0,0,0-.23925-.95411,1.15535,1.15535,0,0,0-.88867-.27148h-.28223l-1.45313-.01074a.25785.25785,0,0,1-.2705-.27051V38.38777a.25291.25291,0,0,1,.081-.19532.26732.26732,0,0,1,.18945-.07617h1.1709a.26085.26085,0,0,1,.27149.27149v1.23535h.67187A2.63531,2.63531,0,0,1,32.88686,40.30085Z"/></svg>