<svg xmlns="http://www.w3.org/2000/svg" viewBox="0 0 49.23637 65.37226"><defs><style>.a{fill:#fff;}.b{fill:none;stroke:#e2e6e8;stroke-linecap:round;stroke-linejoin:round;stroke-width:1.08437px;}.c{fill:#2d2a28;}</style></defs><rect class="a" width="49.23637" height="65.37226"/><line class="b" x1="25.82539" y1="30.90157" x2="44.44287" y2="30.90157"/><line class="b" x1="15.81725" y1="33.14492" x2="44.44287" y2="33.14492"/><line class="b" x1="11.90727" y1="35.2835" x2="44.44287" y2="35.2835"/><line class="b" x1="18.71187" y1="37.42209" x2="44.44287" y2="37.42209"/><line class="b" x1="25.82539" y1="50.16863" x2="44.44287" y2="50.16863"/><line class="b" x1="15.81725" y1="47.92528" x2="44.44287" y2="47.92528"/><line class="b" x1="11.90727" y1="45.7867" x2="44.44287" y2="45.7867"/><line class="b" x1="8.26118" y1="57.37309" x2="44.44287" y2="57.37309"/><line class="b" x1="5.51559" y1="55.2345" x2="44.44287" y2="55.2345"/><line class="b" x1="5.51559" y1="59.73524" x2="44.44287" y2="59.73524"/><line class="b" x1="18.71187" y1="43.64811" x2="44.44287" y2="43.64811"/><path class="c" d="M14.12752,12.68269a2.66129,2.66129,0,0,1-.7373-2.01172V7.36335a.25431.25431,0,0,1,.08105-.19531.28473.28473,0,0,1,.2002-.07519h2.76562a3.13439,3.13439,0,0,1,2.2334.66113,2.80531,2.80531,0,0,1,.748,1.95215c.00781.07226.01074.24218.01074.50976,0,.27442-.00293.44824-.01074.52051a2.81015,2.81015,0,0,1-.77539,1.97852,3.26065,3.26065,0,0,1-2.30371.67773A3.07366,3.07366,0,0,1,14.12752,12.68269Zm3.22559-1.10645a1.2325,1.2325,0,0,0,.30859-.89453q.01171-.10839.01172-.46582c0-.23144-.00391-.38379-.01172-.456a1.26052,1.26052,0,0,0-.32519-.89942,1.33336,1.33336,0,0,0-.95411-.293H15.07088v2.07129a1.17055,1.17055,0,0,0,.3252.90528,1.33385,1.33385,0,0,0,.93261.29785A1.51308,1.51308,0,0,0,17.35311,11.57624Z"/><path class="c" d="M21.90194,9.02253c.01367.29688.10058.46973.25976.52051l.30371.1084a.25173.25173,0,0,1,.13574.125.42434.42434,0,0,1,.04883.20019l.01074.55372a.28683.28683,0,0,1-.14648.25488.542.542,0,0,1-.35254.07031l-.44433-.06543a1.38121,1.38121,0,0,1-.93262-.60156,2.16925,2.16925,0,0,1-.36817-1.2959V7.36335a.37621.37621,0,0,1,.0918-.19531.23518.23518,0,0,1,.17871-.07519h2.19043a2.8035,2.8035,0,0,1,2.12012.73144A3.0916,3.0916,0,0,1,25.76229,9.879c.00683.07226.01074.17383.01074.30371a3.424,3.424,0,0,1-.69434,2.2832,2.731,2.731,0,0,1-2.20117.81836H20.817a.28121.28121,0,0,1-.20019-.07617.25146.25146,0,0,1-.08106-.19531V12.0157a.2769.2769,0,0,1,.28125-.28223h2.00684a1.29778,1.29778,0,0,0,.90527-.31934,1.26463,1.26463,0,0,0,.38477-.90625c.00684-.07226.01074-.17968.01074-.32519,0-.13672-.0039-.24219-.01074-.31445a1.22871,1.22871,0,0,0-.374-.90528,1.31423,1.31423,0,0,0-.916-.32031h-.92187Z"/><path class="c" d="M26.91658,13.20808a.25482.25482,0,0,1-.08105-.19531V7.36335a.25776.25776,0,0,1,.08105-.19531.28714.28714,0,0,1,.20118-.07519h1.35546a.25783.25783,0,0,1,.27051.2705v5.64942a.27293.27293,0,0,1-.07519.19043.25777.25777,0,0,1-.19532.081H27.11776A.28359.28359,0,0,1,26.91658,13.20808Z"/><path class="c" d="M30.72322,12.68757a2.59889,2.59889,0,0,1-.75293-1.99512V7.36335a.25432.25432,0,0,1,.08106-.19531.2706.2706,0,0,1,.18945-.07519h1.12793a.28473.28473,0,0,1,.2002.07519.2551.2551,0,0,1,.082.19531v3.27539a1.11972,1.11972,0,0,0,.35254.90528,1.47482,1.47482,0,0,0,.98144.29785q1.2129,0,1.22461-1.16016a2.39463,2.39463,0,0,0,.00586-.293q-.00585-.18456-.00586-.28125V9.86824a1.94076,1.94076,0,0,0-.206-.94825A.61906.61906,0,0,0,33.44,8.58894a1.31039,1.31039,0,0,0-.32031.043,1.07194,1.07194,0,0,0-.27637.1084.34438.34438,0,0,1-.09765.02246.22749.22749,0,0,1-.168-.07129.24211.24211,0,0,1-.07032-.17871V7.65632a.42668.42668,0,0,1,.20606-.40137,2.0519,2.0519,0,0,1,1.041-.20605,2.09811,2.09811,0,0,1,1.708.624,3.07333,3.07333,0,0,1,.53614,1.92481V10.7364q-.11867,2.65576-3.01368,2.65625A3.20162,3.20162,0,0,1,30.72322,12.68757Z"/><path class="c" d="M18.25838,24.047a.26246.26246,0,0,1-.081-.19043V18.7823L16.7242,19.89851a.30276.30276,0,0,1-.16211.05469.27935.27935,0,0,1-.22754-.12989l-.67285-.86816a.31484.31484,0,0,1-.043-.16211.27628.27628,0,0,1,.11914-.23828l2.51563-1.94141a.42233.42233,0,0,1,.249-.07617h1.43164a.28123.28123,0,0,1,.2002.07617.25371.25371,0,0,1,.082.19532v7.04785a.25225.25225,0,0,1-.082.19531.28123.28123,0,0,1-.2002.07617H18.44881A.26406.26406,0,0,1,18.25838,24.047Z"/><path class="c" d="M22.33065,23.44538a3.06062,3.06062,0,0,1-.85743-2.06054q-.022-.58595-.02148-1.05176,0-.47754.02148-1.085a3.21849,3.21849,0,0,1,.40723-1.44727,2.58168,2.58168,0,0,1,1.05176-1.00293,3.50479,3.50479,0,0,1,1.6748-.36914,3.54136,3.54136,0,0,1,1.68164.36914,2.57661,2.57661,0,0,1,1.05664,1.00293,3.21849,3.21849,0,0,1,.40723,1.44727c.01367.20312.02149.56445.02149,1.085,0,.50586-.00782.85645-.02149,1.05176a3.06057,3.06057,0,0,1-.85742,2.06054,3.13706,3.13706,0,0,1-2.28809.791A3.12,3.12,0,0,1,22.33065,23.44538Zm3.03613-1.17675a1.63788,1.63788,0,0,0,.27051-.93848q.022-.31347.02246-1.01953,0-.70459-.02246-.99707a1.65026,1.65026,0,0,0-.27051-.92676.87828.87828,0,0,0-.75977-.3418q-.97558,0-1.02929,1.26856-.01173.293-.01172.99707,0,.70605.01172,1.01953.05419,1.26855,1.02929,1.26855A.89091.89091,0,0,0,25.36678,22.26863Z"/><path class="c" d="M31.14022,24.047a.26247.26247,0,0,1-.08106-.19043V18.7823L29.606,19.89851a.30279.30279,0,0,1-.16211.05469.27932.27932,0,0,1-.22754-.12989l-.67285-.86816a.31484.31484,0,0,1-.043-.16211.27628.27628,0,0,1,.11914-.23828l2.51562-1.94141a.42238.42238,0,0,1,.249-.07617H32.816a.28121.28121,0,0,1,.20019.07617.25367.25367,0,0,1,.082.19532v7.04785a.25221.25221,0,0,1-.082.19531.28121.28121,0,0,1-.20019.07617H31.33065A.264.264,0,0,1,31.14022,24.047Z"/></svg>