<svg xmlns="http://www.w3.org/2000/svg" viewBox="0 0 79.53768 62.37713"><defs><style>.a,.c{fill:#ba8b5f;stroke:#2d2a28;stroke-width:1.85219px;}.a{stroke-miterlimit:10;}.b{fill:#9c6c43;}.c{stroke-linejoin:round;}.d{fill:none;}</style></defs><path class="a" d="M22.69426,44.6029a2.45284,2.45284,0,0,1-.77415.98741c-1.02348.7473-4.06519.45461-5.25828.58533q-4.07089.446-8.14195.89141L6.06728,22.155c5.01661.1191,10.922-.61436,15.77419.4666a58.5745,58.5745,0,0,0-.04707,11.06c.26333,1.94231,1.57664,5.39409,1.17429,7.26692"/><path class="a" d="M21.4449,28.10052l4.34295-17.30639a2.02347,2.02347,0,0,0-1.572-2.39486l0,0a2.0463,2.0463,0,0,0-2.24714,1.7981L18.16227,26.03193"/><path class="a" d="M18.0305,26.03193C18.08056,25.904,21.925,6.31041,21.925,6.31041A2.04046,2.04046,0,0,0,20.4367,3.8511v0A2.02927,2.02927,0,0,0,18.13332,5.56L14.3558,24.8783"/><path class="a" d="M14.24726,24.8783,18.10142,5.91167A2.84075,2.84075,0,0,0,16.02936,2.4878h0a2.82515,2.82515,0,0,0-3.20678,2.37912L9.43707,23.5952"/><path class="a" d="M9.36786,23.15634,12.04607,5.91167A2.84075,2.84075,0,0,0,9.974,2.4878h0A2.82516,2.82516,0,0,0,6.76722,4.86692L4.089,22.11158"/><path class="b" d="M17.60075,45.49369a3.588,3.588,0,0,0,1.70662.025c1.72684-.45916,2.45289-2.51026,2.61151-4.29005.68993-7.741-3.71181-13.7607-9.988-17.79371a2.82976,2.82976,0,0,0-2.199-.62133,1.98606,1.98606,0,0,0-1.274,1.50776,5.62914,5.62914,0,0,0,.03061,2.05848,9.91154,9.91154,0,0,0,.898,3.3227,15.60524,15.60524,0,0,0,1.83414,2.39617A15.70965,15.70965,0,0,1,13.668,36.2646c.89977,2.27619-.64728,3.86952.22431,5.9455A5.29929,5.29929,0,0,0,17.60075,45.49369Z"/><path class="a" d="M22.99357,40.59371C22.75,44.609,21.767,48.481,21.56993,52.49275a30.40235,30.40235,0,0,0,.68729,5.56283c.16842,1.18652,2.5094,14.16585,2.34685,14.18478L11.12882,73.567s.37358-15.6549-3.28977-22.57556c-.65027-1.22846-2.20419-2.02623-3.233-2.97368a7.57978,7.57978,0,0,1-2.44253-4.717A38.92146,38.92146,0,0,1,3.6874,21.04421a7.67707,7.67707,0,0,1,1.7411-2.99057,2.9945,2.9945,0,0,1,3.20859-.70986,3.12983,3.12983,0,0,1,1.41832,1.582c1.54431,3.39679-.92873,7.32714-.46872,11.03.31786,2.55863,3.15577,2.78237,4.13048,5.28242.61435,1.57576.34267,3.19081.38152,5.0013"/><path class="c" d="M54.22471,47.03721a5.51219,5.51219,0,0,1,1.046,4.27772c-.27153,3.099-.35568,6.12979-.33414,9.23752.00241.34776.02749,5.53153.05307,5.53156H68.61361V52.25587c0-2.01093-.54211-4.56938,1.60946-5.70988a3.894,3.894,0,0,0,1.77049-1.30254,4.1224,4.1224,0,0,0,1.01832-2.44632c-.02139-1.144-.1088-2.298-.13473-3.44581-.05268-2.33166-.07174-4.664-.07174-6.9962V19.89557H52.19513V37.74588c0,1.26812.04291,2.53947.01724,3.8039A7.84762,7.84762,0,0,0,54.22471,47.03721Z"/><path class="c" d="M56.68526,22.96885l-.18679-18.707A2.15178,2.15178,0,0,1,58.62405,2.0842h0a2.15177,2.15177,0,0,1,2.17766,2.12557l1.478,19.32721"/><path class="c" d="M52.19889,23.537,50.04367,7.0661c-.36855-1.82276,2.0068-2.09876,2.0068-2.09876,1.537-.31783,2.32474,1.01679,2.29545.7394L57.17008,23.537"/><path class="c" d="M62.27972,23.537,61.88344,3.92922A2.99572,2.99572,0,0,1,64.84268.89747h0A2.99571,2.99571,0,0,1,67.87444,3.8567l.221,18.25641"/><path class="c" d="M66.7127,22.63931l-.221-18.2564a2.99572,2.99572,0,0,1,2.95924-3.03176h0A2.99572,2.99572,0,0,1,72.4827,4.31038l.221,18.25641"/><path class="c" d="M70.73294,46.34905a16.55567,16.55567,0,0,0,4.29213-8.91482c.51964-3.653.13176-7.37893.78778-11.01958.29183-1.61958.27265-3.65761.88414-5.18285.61686-1.53865,1.79762-3.01775,1.65783-4.76233-.11432-1.42665-1.19356-2.86818-2.67081-1.78039-1.99517,1.46917-3.03152,3.90089-3.69375,6.2885-.78684,2.83691-1.7707,4.735-1.77077,7.71856.00528.07932-1.88562,1.09687-2.10059,1.26837-1.47076,1.17345-4.05763,3.2738-4.248,5.31561"/><rect class="d" x="-8.24855" y="-10.82437" width="94.79897" height="73.2015"/></svg>