<svg xmlns="http://www.w3.org/2000/svg" xmlns:xlink="http://www.w3.org/1999/xlink" viewBox="0 0 384 216"><defs><style>.a,.d,.e,.f,.g,.h,.i,.j,.k,.l,.r,.u,.w,.y{fill:none;}.b{fill:#956034;}.c{fill:#92603a;}.d,.e,.f,.g,.h,.i,.j,.k,.l{stroke:#634e42;}.d{stroke-width:0.5px;}.e{stroke-width:0.50619px;}.f{stroke-width:0.67492px;}.g{stroke-width:0.84365px;}.h{stroke-width:1.01238px;}.i{stroke-width:1.18111px;}.j{stroke-width:1.34984px;}.l{stroke-width:0.25px;}.m{fill:#ab7f5d;}.n{opacity:0.04;fill:url(#a);}.o{opacity:0.1;fill:url(#b);}.p{opacity:0.18;fill:url(#c);}.q{fill:#fff;}.r{stroke:#e2e6e8;stroke-width:1.15428px;}.r,.u,.w,.y{stroke-linecap:round;stroke-linejoin:round;}.s{fill:#2d2a28;}.t{fill:#e1fcbe;}.u{stroke:#a3b58a;}.u,.y{stroke-width:1.05797px;}.v{fill:#d6dfe5;}.w{stroke:#acb3b7;stroke-width:1.11951px;}.x{fill:#fcdcd8;}.y{stroke:#e2a39f;}</style><pattern id="a" width="71.99905" height="71.99808" patternTransform="matrix(-3.83015, 0, 0, 4.24581, 7378.36679, 2674.30377)" patternUnits="userSpaceOnUse" viewBox="0 0 71.999 71.998"><rect class="a" width="71.99905" height="71.99808"/><path class="b" d="M16.45505,69.8467c-.3574,1.583,1.5196,4.57326-2.5459,2.86818l.5069,1.39355c-.8135-.0664-1.8819-.43359-2.0342.32813.3545.77832.456,1.64746,1.5225,2.21191l-1.5254-.24609C9.17775,73.52738,18.12795,74.44339,16.45505,69.8467Z"/><path class="b" d="M61.67385,70.9864c-.7481-.1983-1.9258.65231-2.9756,1.21676l-1.7471,4.74512,1.8819-1.10547.6152,1.76562,3.7646-2.21093-1.5761,1.9873c-2.5518.80859-2.3555-.582-2.8037-1.542l-1.8819,1.10547c-.2636-.42969-.1797-1.16895-1.4023-.76953,4.5303-2.29,2.3828-3.89747,3.6289-5.85155Z"/><path class="b" d="M61.33985,72.51273c-.6973.64355-.2383,1.46777-.0908,2.23535,1.2773-1.69433,5.54-1.96973,2.8974-5.25488.9336.1738.9854,1.1152,1.2696,1.84277-2.419.03516-2.0342,4.93067-5.043,2.92774Z"/><polygon class="b" points="69.749 71.248 68.031 71.121 72.528 72.615 72.856 72.059 70.078 70.689 69.749 71.248"/><path class="b" d="M46.44925,77.1973l-.7002-.69922,1-1,.7002.69922-1,1,2,2c-.5.59961-1.2998,1.09961-1,2h-1c-.2002-1.40039,2.3994-2.90039,0-4h-1l2-6C47.14945,73.1973,43.749,75.1973,46.44925,77.1973Z"/><path class="b" d="M22.68165,68.3926c-1.4502,1.8067-1.2256,3.60255-3.1045,5.45411l-1.3975.84571.9786-.5918.4023-1.6748-.9775.59179c.0566,1.25391-1.2139,2.8086-2.2041,4.19531l7.2978-7.99222Z"/><path class="b" d="M44.624,71.37308l-2,3c.4004,2.09863-.5996-3.10058-3-4l3,3Z"/><path class="b" d="M30.95315,70.7891c4.0605-1.2363.0722,2.46582.1875,3.6875-.9121,1.25293.8535-1.36817,2.1406-5.8994A5.87945,5.87945,0,0,1,30.95315,70.7891Z"/><polygon class="b" points="-2.25 71.248 -3.968 71.121 0.529 72.615 0.857 72.059 -1.921 70.689 -2.25 71.248"/><path class="b" d="M73.90625,6.4873l-1.0049-.1718V4.9229l1.0049.1709V6.4873l2.8721.4912c.0722.7784-.1436,1.6465.7177,2.212l-.7177.5732c-1.1485-1.0322-.3594-3.7529-2.8721-3.2764l-.7178.5733L70.31735.9981C71.53715,2.8086,70.53225,6.3975,73.90625,6.4873Z"/><path class="b" d="M69.82125,63.0303c2.7325.5215,4.4317-.5693,6.5713-.8662l-3.3632.7471-1.3721-.8838C73.01855,61.0108,69.65435,62.4121,69.82125,63.0303Z"/><polygon class="b" points="70.249 51.749 68.369 52.432 72.385 48.844 70.249 51.749"/><polygon class="b" points="69.402 41.056 68.917 40.752 73.271 40.315 73.292 39.395 75.469 39.177 74.393 38.824 69.402 41.056"/><polygon class="b" points="6.999 62.499 6.474 61.187 9.1 60.136 5.686 63.024 6.999 62.499"/><path class="b" d="M8.44925.1993c-5,3.0996.8994,6.5996,1,10,1.3994.3994,2-1.2999,3-2,.2998-.9004-.5-1.4004-1-2l-1,1c-.2998-1.6993.7998-4-1-5,.8994.3007,1.3994-.5,2-1-1.7998.7001-.7002,2.7001-1,4,.7002,1,2.3994,1.5996,2,3l-2,2,1,1c-.5.5996-1.2998,1.0996-1,2,1.5996,1.5996,3.8994,4.5996,6,2l-1,1c2.5.5-3.1006.3994-4-1-1-2.6006-1.6006-6.2999-5-7l1,1c2.7002-1.6993-.7002-3.2999-1-5h-1C6.44925,2.8994,7.44925.6993,8.44925.1993Z"/><path class="b" d="M53.44925,4.1993,52.74905,3.5l1-1,.7002.6993-1,1c-1-.6993-1.6006-2.4004-3-2-.5.5996-1.2998,1.0996-1,2,2.5996,2.5-1.2998-.7999,0-2C51.34865,1.5987,52.249,3.0987,53.44925,4.1993Z"/><path class="b" d="M15.44925,8.9493c-.9004-.2999-1.4004.5-2,1-.2998.8994.5,1.3994,1,2,2.0996-.2999,3.2998-2.6993,5-4-.6006-1.1993-1.9004-1-3-1,1.0996,0,2.3994.2001,3-1l-1,1,1,1-3,3,1,1c0,2.5.2002-1-1-1-1.1006,1.3007-2.6006,1.5-4,2l1-1-1-1a4.66073,4.66073,0,0,0,2-5C14.44925,7.0489,14.24905,8.3487,15.44925,8.9493Z"/><path class="b" d="M57.94925,14.4493c.5996,1.8994-.9004,2.8007-2,4l1,1c-.5.5996-1.2998,1.0996-1,2-2-2.6993-4,.7001-6,1-1.2002,1.3994,2.2002-1.4004,1-3-.2998.8994.5,1.3994,1,2l5-2-1-1,2-2-2-2Z"/><path class="b" d="M61.69925,21.4493c3.3994,2.0996,1.75,2.75,1.75,3.75l-2,2c2.7002,4,4.7998-7.1993,7.2998-3.6993,2.5,1.2989-.2998.2989-1-1l-6.2998,6.6993,1-1-1-1c1.2998-2.6993,4.0498-3.25.25-6.75l1-1C62.99905,20.3487,62.19925,20.8487,61.69925,21.4493Z"/><path class="b" d="M66.67775,26.0557c2.1523.6875-1.8858,3.4053-2.8154,5.1367a5.37753,5.37753,0,0,1,2.998-.8525c.6436.3174-.3223,1.1924-.8525,1.9111-1.8135,1.2481-3.0752.6729-4.626.9815l3.5146.3339a5.90106,5.90106,0,0,1,2.4815-2.04c-3.7149-1.1787.8711-4.1836.4101-6.7881Z"/><path class="b" d="M58.44925,36.1993c.5996-.5,1.0996-1.2999,2-1l1,1,1-1v2a3.16745,3.16745,0,0,0-5-1v-1Z"/><path class="b" d="M56.69925,39.6993c-.6006-.5-1.2998-.25-2.2002.0498,1.9004-1.2002-1.9004-3.7998,0-5C53.19925,36.3487,55.99905,37.6993,56.69925,39.6993Z"/><path class="b" d="M59.89945,51.3994c1.0996,0,2.3994-.2001,3,1l-.7002-.7001,2-2,.7002.7001-3,3c.2998-.9003-.5-1.4003-1-2Z"/><path class="b" d="M21.44925,60.1993c-.6006-1.2002-1.9004-1-3-1-2,1,.2998,2.7998,1,4l-.7002-.7002,1-1,.7002.7002-1,1c-1.5-.1006-.9004-4.5-4-3l-1,1c.5.5996,1.2998,1.0996,1,2l-1,1,3,2c-.6006-.5-1.1006-1.2999-2-1l-1,1c.2998-.9004-.5-1.4004-1-2,.8994.2998,1.3994-.5,2-1-.5-1.4004-.7002-2.9004-2-4,1.2002,1,5.2998,2.2001,5-1C19.84865,57.7989,20.44925,59.4991,21.44925,60.1993Z"/><path class="b" d="M12.44925,62.1993c-.5.5996-1.2998,1.0996-1,2-.6006-.5-1.1006-1.2999-2-1l.7002.7001-1,1-.7002-.7001,2-2,1,1Z"/><path class="b" d="M5.44925,67.1993c1.8994,2.7001,3.5996-.9004,6,0-.5.5996-1.2998,1.0996-1,2-.6006-.5-1.1006-1.2999-2-1-.5.5996-1.2998,1.0996-1,2,1,0-5.70022-2.7002-1-6C6.44925,65.2989,6.64945,66.5987,5.44925,67.1993Z"/><path class="b" d="M6.76175,45.8399c1.0283,1.707,2.6953,1.1758,4.3232,1.1445l.0889,1.4121c.7803.0225,1.6846-.248,2.1611.5723-.7031-3.2861,3.1709-2.5371,4.7178-3.8399,1.8437.0264-2.5039.7256-2.9121-1.2334.874.3702.7207,1.3008.8398,2.0733l-4.8066,2.4277-.0889-1.4121-2.8232.1777L8.084,44.3399Z"/><path class="b" d="M8.09475,25.8477l.8076,1.1601,2.3213-1.6152.8076,1.1602,1.1611-.8076-.1767.9843c1.5996-.4238-4.5606.5039-7.0664-.25C6.78225,26.9336,7.41505,26.2344,8.09475,25.8477Z"/><path class="b" d="M59.29885,7.128c3.8008,1.2509-1.0752,4.5.8086,6.6591C58.667,11.5743,61.84865,9.2061,59.29885,7.128Z"/><polygon class="b" points="63.499 16.75 61.965 18.032 65.249 11.75 63.499 16.75"/><path class="b" d="M9.74905,29.7491l1,1-3,3,1,1h-1v-2c.9004.2998,1.4004-.5,2-1,.2998-.9004-.5-1.4004-1-2,.5996-.5,1.0996-1.2998,2-1Z"/><path class="b" d="M15.99905,35.2491c.5996.5,1.0996,1.2998,2,1,1.2002-.5997,1-1.9004,1-3h1l-1,1,.7002-.7002,2,2-.7002.7002c-.5996-.5-1.0996-1.2998-2-1l-2,2,1,1-1,1c1.5-2.5997-3-4,0-6C16.49905,33.8487,15.69925,34.3487,15.99905,35.2491Z"/><polygon class="b" points="6.999 37.249 8.999 36.249 10.999 38.249 6.999 37.249"/><path class="b" d="M14.99905,37.2491c-1,1.2998-3.0996,2.2002-3,4v1h-2v-1c1.4004.4003,2-1.2998,3-2v-3C13.59865,36.7491,14.09865,37.5489,14.99905,37.2491Z"/><path class="b" d="M68.50975,9.9424l.9737.2276.1425,1.6748-.9726-.2276c-.1524-1.9853-.0957-1.331,1.25-2.25-.4717-.623.6943-2.3369-.25-2.25l.7402-.8418Z"/><path class="b" d="M51.249,72.24808c-1.0996.5,4.0996-2.499,3-4.999C55.34865,69.7491,52.249,70.5489,51.249,72.24808Z"/><path class="b" d="M63.01075,55.3399l-.0117-1.4141a3.16979,3.16979,0,0,0,4.2197-2.8642c1.4717-1.4981-2.3193,1.7861.0225,2.8281-2.6241-.8975-4.0186,1.376-5.6319,2.875l.0117,1.415c4.2383-.4609-2.1113,1.1485-.0117-1.415l.0078.9912-1.414.0117-.0088-.9902C61.47075,57.1905,62.24025,56.1231,63.01075,55.3399Z"/><path class="b" d="M63.99905,68.2491l-3,4.999c-3.2998,1.7002,6.7998-7.19918-1-3.999l-.7002.7002-1-1,.7002-.7002c1,2,2.7998-.2998,4-1-2.4004-1.2002-2.4004-3.7998,0-5C59.99905,63.1494,61.49905,66.6494,63.99905,68.2491Z"/><path class="b" d="M55.74905,56.7491h1v2h-1c-.5996-1.9004.9004-2.7998,2-4-.5996-.5-1.0996-1.2998-2-1l1-1c-1-1-3.2998-2.7998-1-4C52.44925,52.1494,63.34865,55.2491,55.74905,56.7491Z"/><path class="b" d="M53.49905,27.9991v1c-.5996-1.2002-1.9004-1-3-1l-1,1c2.7002.0996,1.4004-1.6504,1.5-3.2491C53.69925,28.7491,50.19925,26.5,53.49905,27.9991Z"/><path class="b" d="M59.24905,32.7491c.5996-.5,1.0996-1.2998,2-1-.5996.5-1.0996,1.2998-2,1l-3-3-2,2,1-2C57.04885,30.5489,58.44925,30.6494,59.24905,32.7491Z"/><path class="b" d="M63.99905,6l1,1c-1.4004-.4013-2,1.2989-3,2l2,2c1.2998-1,2.2002-3.1006,4-3-1.5996-.5-3.7002,5.0987-6,2a16.46993,16.46993,0,0,1,3-5Z"/><path class="b" d="M57.49905,6c.2002,1.5-1.7002,2.2989-1,4l1,1-.7002-.7011,1-1,.7002.7011c-1.2002.5987-1,1.8994-1,3l-2-7Z"/><path class="b" d="M60.74905,19c-1.2002-.6006-1-1.9013-1-3,1.4004.3994,2-1.3007,3-2l-1-2C65.24905,14.6993,58.44925,15.5987,60.74905,19Z"/><path class="b" d="M5.99905,48.7491l1.4365.2451-1.4365,1.1484-.7178-3.6055C6.14355,47.1026,5.92775,47.9707,5.99905,48.7491Z"/><path class="b" d="M50.09865,15.5684c2.0889.0635,1.0176-4.7803,4.1221-7.8682l-4.8545-.1963,3.3798.3418.6153-1.416C54.47265,9.2344,52.52145,11.9375,50.09865,15.5684Z"/><path class="b" d="M7.54885,53.5137c-.501-2.3848,2.1543-2.418,3.5908-2.8682v1.3926c-2.3701-1.0312-4.0215.0098-4.3086,2.0498l-.7178-.8193Z"/><path class="b" d="M4.127,54.7227v1.3926l2.87209.4912v1.3926l1.4365.2451-.7187.5742c1.581.8271-4.09282-2.8584-5.74321-5.1602C2.4043,54.5674,3.33789,54.5186,4.127,54.7227Z"/><path class="b" d="M16.56255,55.503V54.1114l1.4365.2451v1.3926c2.7285,1.0244-5.6006-2.4893-4.3076,2.0488-1.8672,1.0732,2.0097-.4912.7177-1.9668l-2.1533.3281C13.61915,55.7657,14.83985,55.0694,16.56255,55.503Z"/><path class="b" d="M51.00685,33.1172c1.6504.0742,3.8037,1.2783,5.0254.1631-.8623,3.1943,3.1592,1.6553,4.3076,3.5215-.4307.7627-1.3633.3945-2.1543.3291.1436-1.6465-2.584-2.9492-4.3076-3.5225l-2.8711-.4912.7168,3.6055-.7168-4.999Z"/><path class="b" d="M17.43945,24.1289c-2.5859.5332-.9336,3.5313-1.4365,5.3262-.4307-.9101-1.3633-.8603-2.1543-1.0654-.8613.2705-.6455,1.2138-.7168,1.9668.7168,1.3769,2.3682.8926,3.5889,1.3115l-3.5889.0811c-.0733-.7784.1426-1.6465-.7188-2.212,4.4512-.9101,2.5137-4.2353,5.0264-6.7998Z"/><path class="b" d="M5.65725,38.8584l-.9717-.3144.2002-1.378.9707.3145-.1992,1.3779,2.7705.8985c-.0391.7802-.377,1.6093.3945,2.292l-.7929.4648c-.9893-1.1865.1835-3.7656-2.3721-3.6553l-.793.4649L3.02832,33.8672C3.97657,35.835,2.33008,38.2862,5.65725,38.8584Z"/><path class="b" d="M11.41505,34.0948c.4893-3.5069-.2666,2.1904,2.1748.1494l-3,.2549Z"/><path class="b" d="M6.88575,18.5664c.0713-.7539-.1436-1.6962.7168-1.9668-.0703.7539.1445,1.6954-.7168,1.9668l-4.3086-.7373v2.7862l-.71777-2.2119C3.72657,18.0264,4.80275,17.3057,6.88575,18.5664Z"/><path class="b" d="M10.129,17.4336c.706-.2744,1.4521-.8886,2.08-.2392l.4239,1.3945,1.2451-.625-.8213,2.0176c-.1387-2.5801-1.8096-3.5908-3.7617-2.9336l.4111-1.0088Z"/><path class="b" d="M19.90035,30.3682l1.1319-.8486-.2832,1.9795-2.6875-2.4043C18.99515,28.9258,19.377,29.7881,19.90035,30.3682Z"/><path class="b" d="M3.10157,11.3711l1.43554.2461c-1.292.4746-.50195,2.2119-.71777,3.3594l2.87211.4902c.2158-1.5644-.6465-3.8008.7177-4.7519-1.5068.5078,1.0059,6.2998-2.872,5.0801A17.80476,17.80476,0,0,1,3.10157,9.9795Z"/><path class="b" d="M1.90723,6.4873.90235,6.3155V4.9229l1.00488.1709V6.4873l2.87212.4912c.0722.7784-.1436,1.6465.7177,2.212l-.7177.5732C3.63086,8.7315,4.41993,6.0108,1.90723,6.4873l-.71777.5733L-1.68164.9981C-.46191,2.8086-1.46679,6.3975,1.90723,6.4873Z"/><path class="b" d="M65.74905,47.9991c.0722-.7539-.1436-1.6963.7178-1.9659-.0723.753.1445,1.6953-.7178,1.9659l-4.3076-.7373v2.7861l-.7178-2.2119C62.58985,47.46,63.667,46.7383,65.74905,47.9991Z"/><path class="b" d="M68.33985,34.4883c-.9336,1.582-.1445,4.5723-3.5908,2.8682v1.3926c-.7901-.0664-1.7227-.4336-2.1543.3281.0722.7783-.1436,1.6465.7178,2.2119L61.877,41.044C59.72365,38.169,68.33985,39.085,68.33985,34.4883Z"/><path class="b" d="M16.45505-2.1513c-.3574,1.583,1.5196,4.5732-2.5459,2.8681l.5069,1.3936c-.8135-.0664-1.8819-.4336-2.0342.3281.3545.7783.456,1.6475,1.5225,2.2119L12.379,4.4043C9.17775,1.5293,18.12795,2.4453,16.45505-2.1513Z"/><path class="b" d="M67.58005,12.8028c-2.3906.5332.3516,3.5322.502,5.3252-.7617-.9092-1.6768-.8594-2.541-1.0635-.7637.2705-.2051,1.2119-.003,1.9658,1.2188,1.376,2.6954.8926,4.0674,1.3096l-3.5605.083c-.3545-.7783-.4551-1.6465-1.5235-2.2119,4.1221-.9092.9717-4.2364,2.5518-6.8008Z"/><path class="b" d="M69.74705,64.4239c-3.2021-1.6954-3.4599,1.1474-3.0556,3.4414,1.5244.6386,1.9843-.2715,2.5439-.9014-.7627.2705-.2051,1.2129-.0019,1.9668l.5087-.5742,1.0157.8193-.5088.5733c3.8642.5576-1.4746.0908-2.0322-1.6377-3.9659-1.4248-.1045,2.8671-1.5303,3.68649l-.503-5.32519.3555.9746-1.5244-.2451-.3555-.9746C68.82715,67.6192,64.461,61.7373,69.74705,64.4239Z"/><path class="b" d="M58.45505,38.8487c-.3574,1.583,1.5196,4.5732-2.5459,2.8691l.5069,1.3926c-.8135-.0664-1.8819-.4336-2.0342.3281.3545.7774.456,1.6475,1.5225,2.2119l-1.5254-.2461C51.17775,42.5293,60.128,43.4453,58.45505,38.8487Z"/><path class="b" d="M54.418,25.1534c1.626,1.1142,1.4717,2.8584,3.5557,3.8496l1.5254.2461-1.0674-.1719-.5078-1.3926,1.0683.1719c-.0009,1.1797,1.4219,2.1299,2.5391,3.0303l-8.1309-4.586Z"/><path class="b" d="M61.47465,20.0635c-3.5606.8682-.1592,6.0713-3.5664,5.9805l-1.0684-.1719-.5068-1.3916,1.0683.1709.5069,1.3926c3.6093,1.2373.9687-2.4658,1.5293-3.6865l-1.5245-.2452Z"/><path class="b" d="M12.57035,24.3145l-.1885-3.6875c-3.1875,2.9004-4.25,1.2031-6.1582,1.5547l1.6142-.2442-1.0136,1.3926c2.3086-2.5801,5.5049.5254,7.6611,1.3125l1.0137-1.3926A5.39067,5.39067,0,0,1,12.57035,24.3145Z"/><path class="b" d="M4.14649,21.9219,4.167,21.002l4.35445-.4365.0215-.9209,2.1768-.2178-1.0762-.3525c2.4033-.6075-6.23925,2.0488-8.77441,3.6357C1.53516,22.0918,2.94727,22.0879,4.14649,21.9219Z"/><path class="b" d="M3.749,29.7491l.31347-1.4229,1.07715,1.4902-3.63379.544C2.11133,29.5264,2.96875,29.7832,3.749,29.7491Z"/><polygon class="b" points="11.974 45.067 13.623 45.563 9.557 43.131 9.115 43.604 11.532 45.541 11.974 45.067"/><path class="b" d="M17.74905,50.9991c-.8379.0654-2.0391.4336-1.9151-.3272.4278-1.1807,2.1963-2.1309,3.6426-3.0322l-.2998-.5733L18.16215,48.46l.7089-.9756-3.2285.4902-.7109.9756c.8379-.0644,2.0391-.4345,1.916.3282l-2.0273,2.7861-1.6153.2451-1.0136,1.3926c2.9668-2.9893,6.1582-1.5557,7.8857-4.9151A5.88567,5.88567,0,0,1,17.74905,50.9991Z"/><path class="b" d="M79.35255,31.9073c-3.0879,1.7695-5.7432.5498-9.334-.8995-.2871,2.0401,4.9551-.1972,7.8984,2.0479Z"/><path class="b" d="M73.62105,47.6328c3.6622.5567-1.5078.0899-1.4355-1.6386-3.4473-1.4248-1.1494,2.8681-2.873,3.6875l1.4365-5.3252v.9746l-1.4365-.2451v-.9746c3.6621,1.3916,1.4365-4.4903,5.7441-1.8047-2.584-1.6944-3.877,1.1484-4.3076,3.4424,1.292.6396,2.082-.2706,2.872-.9014Z"/><path class="b" d="M75.36325,60.2344c-.4316-2.581-5.8886.5254-8.6162,1.3125V60.1534c.4307.9101,1.3643.8603,2.1543,1.0654l2.8721-3.6875c1.0762,2.9004,3.375,1.2041,5.0254,1.5566Z"/><path class="b" d="M73.24905,37.4991c-1.6504.3447-2.9444-2.3838-4.3076-.7373V35.3692Z"/><path class="b" d="M74.16305,14.9473c-.0712-.7783.1436-1.6455-.7177-2.2119-2.5137-1.335-1.7227,1.6553-2.8721,2.2949-1.7949,1.4346.8623-.4101,0-1.3935l-1.4365-.2461c1.0058,2.4023,4.5244-3.0547,2.1543-5.8975Z"/><path class="b" d="M72.67575,52.5264l-.5078-1.3936c2.7451,1.0323,4.0176-.0068,3.5625-2.0468a1.91439,1.91439,0,0,0,1.0137,2.7842c-3.1504-1.3594-3.8662.623-5.0879,1.8027l.5068,1.3935c4.4248.3194-1.8818.7461-.5068-1.3935l.3545.9756-1.5244-.2451-.3545-.9756C71.65625,54.0674,72.11525,53.1573,72.67575,52.5264Z"/><path class="b" d="M71.34575,16.4668l-1.3145.8203c1.7578-.6386,1.8857.2696,2.2158.9014l-1.0136,1.3926c-.9424-1.4668.4443,2.8428,2.5166,1.4756C68.99515,21.9649,74.30855,17.1319,71.34575,16.4668Z"/><path class="b" d="M72.64255,24.4746l-.7109.9756c.8379-.0644,2.0391-.4345,1.916.3282l-2.0273,2.7861-1.6153.2451-1.0136,1.3926c2.9668-2.9893,6.1582-1.5557,7.8857-4.9151a5.89248,5.89248,0,0,1-2.3281,2.212c-.8379.0654-2.0391.4336-1.9151-.3272Z"/><path class="b" d="M56.87505,46.7432l-1.3145.8193c1.7578-.6396,1.8857.2715,2.2168.9014l-1.0137,1.3926c-.9433-1.4668.4424,2.8428,2.5157,1.4746C54.52535,52.2403,59.83785,47.4073,56.87505,46.7432Z"/><path class="b" d="M57.02635,72.84281c.4766-.75391,1.378-1.69531.7139-1.96581l-1.6152.2451,1.0146-1.3916-2.6289,1.6377c3.1211-1.0322,4.0146.00879,2.8164,2.04785Z"/><path class="b" d="M58.70315,44.541c4.0605-1.2363.0722,2.4659.1875,3.6875-.9121,1.253.8535-1.3681,2.1406-5.8994A5.8781,5.8781,0,0,1,58.70315,44.541Z"/><path class="b" d="M61.67385-1.0117c-.7481-.1982-1.9258.6524-2.9756,1.2168l-1.7471,4.7451,1.8819-1.1054.6152,1.7656,3.7646-2.211-1.5761,1.9874c-2.5518.8085-2.3555-.5821-2.8037-1.542l-1.8819,1.1054c-.2636-.4297-.1797-1.1689-1.4023-.7695,4.5303-2.29,2.3828-3.8975,3.6289-5.8516Z"/><path class="b" d="M67.09475,2.9131c-.4873.5801-1.3106,1.0869-.8985,1.8916l1.1817.8506-.9922.9766,2.1748-.125C66.16305,5.541,65.74605,3.6348,66.99905,2l-1.0879.0625Z"/><path class="b" d="M61.33985.5147c-.6973.6435-.2383,1.4678-.0908,2.2353,1.2773-1.6943,5.54-1.9697,2.8974-5.2548.9336.1738.9854,1.1152,1.2696,1.8427-2.419.0352-2.0342,4.9307-5.043,2.9278Z"/><path class="b" d="M64.37015,44.044l.7285.6845-1.3711,1.4561-.7285-.6855c.8652-1.795,2.5742-1.4219,4.1982-1.542-.0947-.7754.0899-1.7002-.7705-2.0987l1.4131-.0429c-.043-1.4131-.4844-4.3008,2.0127-3.5977C65.11915,38.4317,70.93165,48.1592,64.37015,44.044Z"/><path class="b" d="M58.34185,59.4991c-.959,3.2197-6.0118-2.2178-6.0176,1.2236l.1406,1.1338,1.3633,1.0527-.1406-1.1348-1.3633-1.0517c-1.1231-4.0938,2.4668-.0039,3.6904-.0869l.2002,1.6211Z"/><path class="b" d="M66.24905,55.7491c-.9004-.2998-1.4004.5-2,1,2.0996.2998,4.4004,3.9003,6,0,.2998.9003-.5,1.4003-1,2-1.2002-2.0997-5.2998.5996-5-3Z"/><path class="b" d="M60.15625,61.8243l-.2617-1.3897,1.3896-.2617.2627,1.3896c2.7442.0577-5.709-.5078-3.6455,3.5645-1.5449,1.7305,1.7881-1.2002.3018-2.2158l-1.9541,1.0879C57.45115,63.126,58.46285,61.9991,60.15625,61.8243Z"/><path class="b" d="M74.74905,64.7491c-1.4004-.4004-2,1.2998-3,2,0,2.5.2002-1-1-1l-1,1,1-2c-.2998.9003.5,1.4003,1,2l2-3Z"/><polygon class="b" points="64.299 62.606 62.949 59.927 65.192 62.156 65.643 63.049 64.749 63.499 64.299 62.606"/><polygon class="b" points="70.249 51.749 68.369 52.432 72.386 48.844 70.249 51.749"/><path class="b" d="M-2.17773,63.0303c2.73242.5215,4.43164-.5693,6.57129-.8662l-3.36328.7471-1.37207-.8838C1.01953,61.0108-2.34472,62.4121-2.17773,63.0303Z"/><polygon class="b" points="-1.75 51.749 -3.63 52.432 0.386 48.844 -1.75 51.749"/><path class="b" d="M3.72657,74.13968C-.332,75.377,3.65528,71.67386,3.53809,70.4532l1.61526-.2461L2.33594,68.1592C5.58105,69.0274.28614,74.22953,3.72657,74.13968Z"/><path class="b" d="M9.24905,53.4991c1.3945,1.1435.6396,3.2988.9209,4.914l-.1211-2.8242-1.4131.0605C7.86715,57.5235,8.49315,54.0274,9.24905,53.4991Z"/><path class="b" d="M2.999,44.7491c.61914-1.1465,2.67482-2.8838,1.72754-3.3594L2.999,44.7491c2.37692-1.7852-1.59571,3.2773,4.24312-1.8838C5.79785,43.7657,4.14844,44.9463,2.999,44.7491Z"/><polygon class="b" points="69.749 71.249 68.031 71.123 72.528 72.617 72.856 72.06 70.078 70.691 69.749 71.249"/><polygon class="b" points="69.749 -0.75 68.031 -0.877 72.528 0.617 72.856 0.061 70.078 -1.309 69.749 -0.75"/><path class="b" d="M50.17,70.2393c.2197-1.0781.2832-2.3916,1.5791-2.7402l-.8252.5459-1.5606-2.3584.8262-.5469,2.3399,3.54c-.8223-.4746-1.4727.21-2.1592.5801Z"/><polygon class="b" points="12.655 68.773 11.92 70.73 15.155 70.275 12.655 68.773"/><path class="b" d="M67.99905,28.4991l2-2.9991,1,1C69.59865,26.0987,68.99905,27.7989,67.99905,28.4991Z"/><path class="b" d="M69.99905,4.125c0,2.5.2002-1-1-1l-1,1,1-2C68.69925,3.0244,69.49905,3.5244,69.99905,4.125Z"/><path class="b" d="M72.82225,35.253c-1.3486-.9102-4.3867-.2871-3.8486-3.1914.2549,1.0703.3642,2.3808,1.6709,2.6845.9453.0821,1.2451-.8115,1.7119-1.4384l1.6719,2.6845Z"/><polygon class="b" points="74.394 38.824 69.403 41.056 68.917 40.752 73.271 40.315 74.394 38.824"/><polygon class="b" points="-2.597 41.056 -3.082 40.752 1.271 40.315 1.293 39.395 3.47 39.177 2.394 38.824 -2.597 41.056"/><polygon class="b" points="53.242 23.979 55.278 22.492 52.236 23.39 53.242 23.979"/><polygon class="b" points="54.028 54.492 54.063 52.206 52.771 52.402 54.028 54.492"/><path class="b" d="M46.44925,5.1993,45.749,4.5l1-1,.7002.6993-1,1,2,2c-.5.5996-1.2998,1.0996-1,2h-1c-.2002-1.4004,2.3994-2.9004,0-4h-1l2-6C47.14945,1.1993,43.749,3.1993,46.44925,5.1993Z"/><path class="b" d="M44.44925,18.4493l-2.0088.0488-.7412.9512c.0996-1.7999-2-2.6993-3-4l-1,1c-.2002-1.4004,3.8994-2.9004,0-4h-1l1-3C38.29885,12.8487,38.999,18.0987,44.44925,18.4493Z"/><path class="b" d="M50.999,9.75c-4.0498.7705-5.0303,5.9317-8.3867,5.7608l-.9717-.1953.2793-1.3858.9707.1953.4717,1.1358c2.9091,1.3076,2.3603-2.4092,3.6103-3.6006l-1.3877-.2783Z"/><path class="b" d="M42.94925,22.4493l4.4541-.8321c-1.2002,2.7002,2.4453,2.6328,3.5459,3.8321l-1-1-1,1c1.5-2.1006-6.9209-4.2071-9.4209-4.2071l.5-1.75C39.72755,20.3926,42.44925,21.8487,42.94925,22.4493Z"/><path class="b" d="M27.44925,23.1993c-2.5-1.1006-3.2998,2-5,3,.2998-.9004-.5-1.4004-1-2-.9004-.2999-1.4004.5-2,1-.4004,1.3994,1.2998,2,2,3l-3-2c.5-.6006,1.2998-1.1006,1-2,4.2998,1.8994,5.0996-1.6006,9-2Z"/><path class="b" d="M41.44925,23.1993c-1.9004.5996-3.4004,3.2001-5,0l-1,1c-.6006-.5-1.1006-1.2999-2-1-.5.5996-1.2998,1.0996-1,2l-1-1C31.74905,20.8994,38.14945,26.5,41.44925,23.1993Z"/><path class="b" d="M27.44925,32.1993c.2998-.9004-.5-1.4004-1-2l-4,2,4,4c.5-.6006,1.2998-1.1006,1-2l1,1c-.9004-.2999-1.4004.5-2,1,0,2.5996,2.5,1.5996,3,4-3.6006-1.2999-2.5-7.1006-7-8,1.2002-1.6006,5.2998-.6006,4-4Z"/><path class="b" d="M44.44925,34.6993c3.7998.3994.5-5.6006,5-4Z"/><path class="b" d="M32.09765,41.3828l-.7441,1.2051,2.4072,1.4844-.7412,1.2041,1.2031.7432-.9736.2295c1.0273,1.2988-2.2793-3.9815-2.586-6.5811C30.57915,40.6123,31.47265,40.9151,32.09765,41.3828Z"/><path class="b" d="M34.44925,36.1993c1.2998-2,3.5-.5,5,0l-1,1a3.16745,3.16745,0,0,0-5-1v-1Z"/><path class="b" d="M45.38965,40.9805c-1.2002-2.9561-2.1113,1.5117-5.0986.1084-1.044.7275,1.2412-.6934,6.4326-1.9014C46.127,39.6905,45.251,40.043,45.38965,40.9805Z"/><path class="b" d="M35.44925,43.6993l1,1h-2l2-3C36.749,42.5987,35.94925,43.0987,35.44925,43.6993Z"/><path class="b" d="M32.44925,48.1993c1.7002-1.2999-4.2002-2.7002-5-6l-4,3,3-2-1-1C29.24905,42.6993,30.54885,45.0987,32.44925,48.1993Z"/><path class="b" d="M45.44925,45.6993c.2998-.9004-.5-1.4004-1-2l1,1,1-2Z"/><path class="b" d="M48.44925,48.1993c1-.7002,1.5996-2.4004,3-2l-3,2c.3994-1.9004-3,1.8994-1-3C47.44925,46.2989,47.249,47.5987,48.44925,48.1993Z"/><path class="b" d="M22.44925,48.1993c0,1.0996.2002,2.3994-1,3l2,2a3.16806,3.16806,0,0,0,1-5l1,3c-1.6006,3.2001-3.1006.5996-5,0-1.2002,1.7001,5.0996-2.9004,0-3-2.4004,2.0996.7998.0996,0-1C21.04885,47.6993,21.54885,48.4991,22.44925,48.1993Z"/><path class="b" d="M41.19925,54.9493c-1.6006-.7002-.7002-3.4004-3-3l1-1Z"/><path class="b" d="M43.94925,52.9493c-2,2.5,1.2998-.2999-1-1,1.3994.3994,2-1.2999,3-2l-2-1h2Z"/><path class="b" d="M29.64945,55.8994c1.2998,1,2.1992,3.0997,4,3-3,1.7999,1.3994,3,1,5-.9004.2999-1.4004-.5-2-1,1.2998-1.1005,0-3.6005-1-5l-2-2-2,3,3-4Z"/><path class="b" d="M35.44925,56.9493c-4.3662,5.125,4.4658-2.875-1-1.75l5,.75Z"/><path class="b" d="M36.44925,59.6993c3.2998,2.7001-2.2998,5.2998,1,8h-2c.2998-2.7002,3.7002-5.2999,1-8h-1l6-3Z"/><path class="b" d="M30.94925,60.1993c-2.7002,2.2001-1.2002,6.2001-5,8-1.4004,1.7001,2.7998-2.2002,3-4C28.94925,62.5987,28.54885,59.8994,30.94925,60.1993Z"/><path class="b" d="M48.74705,62.9405c-1.5869-1.1006-2.6289.9287-3.875,1.4072-1.1191,3.168-.3896,4.6064,2.5274,5.5342.9131-.2549.8808-1.1992,1.0986-1.9492-.2549-.9131-1.1973-.8809-1.9473-1.0967.9141-.2559.8809-1.1992,1.0987-1.9492-.626,2.1123,1.6836,3.5693.3095,5.8242l-4.455-3.0264c1.3847-.4521.9316-2.1963,1.3681-3.3369l-3.0459.8496,6.3614-3.0859Z"/><path class="b" d="M40.44925,48.1993c-.6006-.5-1.1006-1.2999-2-1,1.8994-1.2002-1.9004-3.7999,0-5C37.14945,43.7989,39.749,46.1993,40.44925,48.1993Z"/><path class="b" d="M43.11525,24.5694c-2.4326,3.33,1.4678,6.8213-1.1006,8.9883l-.8408.5205-.7442-1.2041.8418-.5196.7432,1.2032c3.0195-1.0323.0801-3.3721.1787-5.0948l-1.2031.7422Z"/><path class="b" d="M29.794,9.1309l-.4775,1.3301,2.6611.958-.4785,1.331,1.331.4776-.9043.4267c1.2725,1.0586-3.0517-3.4267-3.8886-5.9072C28.14945,8.6895,29.086,8.8018,29.794,9.1309Z"/><polygon class="b" points="35.499 5.75 31.499 2.75 35.499 0.75 32.499 2.75 35.499 5.75"/><path class="b" d="M49.11915,51.0791c-.6182.7188-.0674,1.4864.167,2.2305,1.0742-1.8291,5.2783-2.5918,2.2754-5.5527.9463.0644,1.1054.9951,1.4717,1.6845-2.3975.3145-1.4551,5.1319-4.6719,3.4893Z"/><path class="b" d="M49.749,55.2491l1-1,1,1-1,1c1.5,2.2998-2.7998-5-5-1-2.2998-.2998,2,.7998,2-1l-2-1C47.14945,53.7491,48.64945,53.9493,49.749,55.2491Z"/><polygon class="b" points="45.999 28.499 44.999 29.499 45.999 26.5 46.999 26.5 46.999 28.499 45.999 28.499"/><path class="b" d="M22.74905,8.5c.0996,1.7989-2,2.6993-3,4l2-2-1-1C18.84865,10.1993,21.84865,8.2989,22.74905,8.5Z"/><polygon class="b" points="23.749 17.5 20.749 17.5 23.749 16.5 24.749 16.5 24.749 17.5 23.749 17.5"/><path class="b" d="M30.99905,20c.5-.6006,1.2998-1.1006,1-2-1.0996-2.4013-2.5996.1993-4,0-2.5,0,1,.1993,1-1l-1-1c-.9004,2.2989,5.9004.3994,6-3Z"/><path class="b" d="M39.749,28.4991c-.9004-2.7002-4-1.4004-6,0,.5996,1.2002,1.9004,1,3,1-.9004-.2998-1.4004.5-2,1h1v1h-1c2.5996,2.5-1.2998-.7998,0-2-1.7998-2.9991-3,1.4003-5,1l5-3-.7002.7002-1-1L33.749,26.5C35.749,29.5987,38.14945,24.0987,39.749,28.4991Z"/><path class="b" d="M36.17675,10.1035c-.4316-.9091-1.3652-.8603-2.1553-1.0654v1.3936c-1.4355-1.2207-2.2978-3.7354-4.3066-3.5225.8603-.2705.6455-1.2129.7168-1.9658-.7891,1.6055,1.4365,2.6133,2.1543,3.8506C33.80665,9.211,35.45805,8.7276,36.17675,10.1035Z"/><path class="b" d="M48.07915,34.0791c2.2363,1.2119,2.3867,2.8106,3.0459,4.4239l1.5263.2451c.3555.7783.4551,1.6474,1.5225,2.2129-3.7617-1.0645-1.3252,2.8672-2.0391,4.2597.8115,1.836-.3027-2.4082-2.54-3.0302.7627.9082,1.6767.8603,2.542,1.0634l.5146-4.5058-1.5263-.2451-1.0137-2.7852-3.0508-.4912Z"/><path class="b" d="M28.85355,67.1729a5.39142,5.39142,0,0,1,2.9297-1.0654l-1.6153.246,2.3281-2.2128Z"/><path class="b" d="M24.65335,56.4219c-.8623.2695-.6465,1.2109-.7178,1.9649"/><path class="b" d="M33.55275,70.8223c.8369-.0654,2.0391-.4336,1.916.3281,1.0049-2.0732,5.5645-2.0234,6.5713-4.0957C40.32715,69.1104,36.39255,69.586,33.55275,70.8223Z"/><path class="b" d="M43.999,60.7491c-.8379.0654-2.0391.4336-1.9151-.3272.4278-1.1807,2.1963-2.1309,3.6426-3.0322l-.2998-.5733L44.41215,58.21l.7089-.9756-3.2285.4902-.7109.9756c.8379-.0644,2.0391-.4345,1.916.3282l-2.0273,2.7861-1.6153.2451-1.0136,1.3926c2.9668-2.9893,6.1582-1.5557,7.8857-4.9151A5.88567,5.88567,0,0,1,43.999,60.7491Z"/><path class="b" d="M22.68165-3.6054c-1.4502,1.8066-1.2256,3.6025-3.1045,5.4541l-1.3975.8457.9786-.5918.4023-1.6748-.9775.5918c.0566,1.2539-1.2139,2.8086-2.2041,4.1953l7.2978-7.9922Z"/><path class="b" d="M21.44725,45.0391l-1.6982-.29-1.874-2.6758-1.6973-.2901-.9375-1.3379-.3799.5235c-1.71-1.5869,5.3018,4.2637,8.8408,6.2226A5.37809,5.37809,0,0,1,21.44725,45.0391Z"/><path class="b" d="M24.65335,56.4219c-.7901-.0664-1.7237-.4346-2.1543.3272.5029-2.0723-4.0928-2.0225-3.5899-4.0957C19.12405,54.71,22.71485,55.1846,24.65335,56.4219Z"/><path class="b" d="M27.17185,46.0791c1.794,1.2119,1.3633,2.8106,1.4356,4.4239l1.4355.2451c.0723.7783-.1426,1.6474.7178,2.2129-3.374-1.0645-2.3682,2.8672-3.5889,4.2597.1436,1.836.5742-2.4082-1.4365-3.0302.4307.9082,1.3633.8603,2.1543,1.0634l2.1533-4.5058-1.4355-.2451V47.7178l-2.8721-.4912Z"/><path class="b" d="M38.18555,48.1739c-2.5859-1.6954-3.8779,1.1474-4.3086,3.4414,1.292.6386,2.082-.2715,2.8721-.9014-.8623.2705-.6465,1.2129-.7178,1.9668l.7178-.5742.7178.8193-.7178.5733c3.6621.5576-1.5078.0908-1.4365-1.6377-3.4463-1.4248-1.1485,2.8671-2.8711,3.6865l1.4355-5.3252v.9746l-1.4355-.2451v-.9746C36.10255,51.3692,33.877,45.4873,38.18555,48.1739Z"/><path class="b" d="M24.99905,60.7491l1,1h-2l2-3C26.29885,59.6494,25.49905,60.1494,24.99905,60.7491Z"/><path class="b" d="M17.42385,68.461l3.2666-3.3438c.7451,3.002,3.2187,1.5733,4.8203,2.1065l-1.3994-.4034-.1553,1.3838c-.1396-2.6113-5.9092-.1347-8.709.3428l.1553-1.3848C15.72855,68.1143,16.66215,68.169,17.42385,68.461Z"/><path class="b" d="M24.99025,64.8272c.3545-3.5293-.1856,2.1953,2.2129-.3154l-3.0362.8847Z"/><path class="b" d="M20.584,39.2608c1.125.4121,2.5264.7304,2.7139,1.9726l2.7549-.9463c-.4805-2.2294-2.5576-3.1855-4.7578-2.7216l3.4238.2773c2.7051,2.5557-.4883,2.8525-1.7764,4.2373,1.3116,1.6543-1.1543-5.4082-3.0693-1.124,1.2959,2.8213.3877-.6406-1.0215-.375C19.57515,40.2608,20.57125,40.1358,20.584,39.2608Z"/><path class="b" d="M16.40135,21.9688l2.8721-3.6875c1.0762,2.9004,3.375,1.2041,5.0254,1.5566l-1.4356-.2461v1.3926c-.4316-2.581-5.8886.5254-8.6162,1.3125V20.9034C14.67775,21.8135,15.61135,21.7637,16.40135,21.9688Z"/><path class="b" d="M27.20805,19.9102l.7822,1.3301,2.1953-1.3838.7813,1.3291,1.0976-.6914-.1572,1.0097c1.5205-.2285-4.3399-.0879-6.7354-1.2207C25.96975,20.875,26.56645,20.2237,27.20805,19.9102Z"/><polygon class="b" points="29.14 25.657 29.729 24.395 29.749 27.749 28.856 27.965 28.247 25.873 29.14 25.657"/><path class="b" d="M48.53125,39.4258c-.0723-.7529.1445-1.6953-.7187-1.9658l-1.4356.2451V36.3125l-1.4355,1.6377c2.3691-1.0312,4.0214.0098,4.3076,2.0489l.7178-.8184Z"/><path class="b" d="M39.41015,33.5762c-.4316-.9082-1.3652-.8603-2.1543-1.0644l1.4365.2451-.7187-2.2119Z"/><path class="b" d="M40.88085,38.3897V36.9981l1.4356.2451v1.3926c2.7285,1.0244-5.6006-2.4893-4.3086,2.0498-1.8672,1.0722,2.0117-.4922.7187-1.9668l-2.1543.3281C37.93555,38.6534,39.15725,37.9571,40.88085,38.3897Z"/><path class="b" d="M47.249,20.25c-1.2002-.6006-1-1.9013-1-3,1.4004.3994,2-1.3007,3-2l-1-2C51.749,15.9493,44.94925,16.8487,47.249,20.25Z"/><path class="b" d="M26.08205,7.5108c-.7334-.1875-1.6973-.1182-1.833-1.0108l.4638-1.3828L23.335,4.9043l1.8389-1.1679c-1.3819,2.1826-.6065,3.9746,1.3652,4.5703l-.9189.584Z"/><path class="b" d="M33.71485,7.0069c-.4873.5791-1.3096,1.0869-.8975,1.8906L33.999,9.75l-.9922.9766,2.1748-.127c-2.3975-.9638-2.8145-2.8711-1.5615-4.5058l-1.0869.0615Z"/><path class="b" d="M54.40335,14.1358l.7177.8193c-1.2919-.6387-2.082.2695-2.872.9014V17.25c2.0107-1.4677-2.5127,2.8418-3.5899,1.4737C52.752,19.6328,50.95705,14.8008,54.40335,14.1358Z"/><path class="b" d="M43.90335,25.3672a2.88588,2.88588,0,0,1,2.0615-1.2314l.7187.8193c-1.2929-.6387-2.082.2695-2.873.9014Z"/><path class="b" d="M27.49905,14c-.2012-1.1474-1.624-2.8847-.5049-3.3603L27.49905,14c-1.7276-1.7861.4033,3.2764-3.5576-1.8847C25.05855,13.0157,26.27835,14.1963,27.49905,14Z"/><path class="b" d="M22.45215,14.5664c-.2031-.7539-.7607-1.6962.002-1.9668.2031.7539.7607,1.6954-.002,1.9668l-4.5762-.7373,1.0137,2.7862-1.5225-2.2119C19.09575,14.0264,19.91115,13.3057,22.45215,14.5664Z"/><path class="b" d="M37.01955,21.459c2.3428-1.8525-4.9668-5.2871-1.2412-7.2168Z"/><path class="b" d="M36.65915,2.2276c1.1182.9004,2.541,1.8506,2.5391,3.0302L42.249,5.75c-.1504-2.1884-2.1817-4.0224-4.5713-4.6699l3.5576,1.8838c2.4375,3.5381-.9697,2.2695-2.5459,2.8672,1.1152,2.081-.3496-5.2998-3.0498-2.4561.9131,3.0957.5098-.3779-1.0156-.8193C35.43755,2.6202,36.50585,2.9893,36.65915,2.2276Z"/><path class="b" d="M48.04885,59.9268c2.1455,4.1211,7.6797,4.7451,8.5742,7.9922l.0996.9092-1.6016-.5586-.0996-.9092,1.6016.5586c.4883-2.5762-3.3867-2.8067-5.0879-4.2754l.1426,1.2978Z"/><path class="b" d="M42.249,48.7491c-.6006,1.0488,2.6162-4.6748.2627-6.0606C44.86525,44.0743,42.06735,46.7852,42.249,48.7491Z"/><path class="b" d="M40.31155,10.4746c.8144.0655,1.8818.4346,2.0361-.3271.001-1.1807-1.4219-2.1299-2.54-3.0313l.5097-.5732.5069,1.3926-.3545-.9746,3.0498.4902.3555.9756c-.8145-.0654-1.8819-.4346-2.0352.3271l1.0137,2.7862,1.5254.2451.5068,1.3926c-1.8779-2.9893-5.5918-1.5557-6.0967-4.9141C39.14455,9.041,39.24515,9.9102,40.31155,10.4746Z"/><path class="b" d="M27.07035,4.0645,26.88185.377c-3.1875,2.9004-4.25,1.2031-6.1582,1.5547l1.6142-.2442-1.0136,1.3926c2.3086-2.5801,5.5049.5254,7.6611,1.3125L29.99905,3A5.39067,5.39067,0,0,1,27.07035,4.0645Z"/><polygon class="b" points="20.646 5.323 21.548 7.044 21.96 4.504 21.66 3.932 20.345 4.75 20.646 5.323"/><path class="b" d="M16.379,77.2139l7.2978-7.9912-.9951-.8281c-1.4502,1.8066-1.2256,3.60153-3.1045,5.45309Z"/><polygon class="b" points="44.856 62.215 45.57 60.247 42.34 60.739 44.856 62.215"/><polygon class="b" points="29.749 70.999 30.463 69.033 27.233 69.524 29.749 70.999"/><path class="b" d="M47.54885,59.1133c.8369-.0654,2.039-.4336,1.916.3281,1.0049-2.0732,5.5645-2.0224,6.5703-4.0966C54.32325,57.4014,50.38865,57.877,47.54885,59.1133Z"/><path class="b" d="M29.86815,34.0147l.0547,1.6318,3.792,3.5117.0537,1.6319.6045-.2305-1.3184-2.8027c-.3466.6279-1.1757-.378-1.8691-.9395a5.38825,5.38825,0,0,1-.7119-3.0342c-.6924-.5634-1.5225-1.5683-1.8701-.9394Z"/><polygon class="b" points="32.999 32.836 32.999 34.249 31.585 31.42 32.292 30.714 33.706 32.128 32.999 32.836"/><polygon class="b" points="23.867 28.234 23.106 29.78 26.178 26.172 25.783 25.657 23.474 27.721 23.867 28.234"/><path class="b" d="M44.624-.625l-2,3c.4004,2.0987-.5996-3.1006-3-4l3,3Z"/><path class="b" d="M30.95315-1.209c4.0605-1.2363.0722,2.4659.1875,3.6875-.9121,1.253.8535-1.3681,2.1406-5.8994A5.8781,5.8781,0,0,1,30.95315-1.209Z"/><polygon class="b" points="40.305 66.057 39.518 66.534 38.159 64.818 38.444 65.915 40.305 66.057"/><polygon class="b" points="42.992 70.279 43.278 69.492 41.986 69.689 42.992 70.279"/><path class="b" d="M34.11525,18.9366a2.88852,2.88852,0,0,1,1.043,2.165l-.8799.6406c.751-1.2304-.084-2.0976-.6426-2.9404Z"/><path class="b" d="M36.27835,7.4922c-2.7002-2.2998,1.6992,1.4004,1-2l-1,3Z"/><polygon class="b" points="45.088 19.794 45.585 20.176 45.044 20.793 44.045 20.748 44.09 19.75 45.088 19.794"/><polygon class="b" points="41.088 44.044 41.585 44.426 41.044 45.043 40.045 44.998 40.09 43.999 41.088 44.044"/><polygon class="b" points="41.033 50.487 40.952 49.865 41.771 49.813 42.446 50.549 41.708 51.225 41.033 50.487"/><path class="b" d="M7.35355,31.9073c-3.08792,1.7695-5.7432.5498-9.334-.8995-.2871,2.0401,4.95508-.1972,7.89842,2.0479Z"/><path class="b" d="M1.62207,47.6328c3.66208.5567-1.50781.0899-1.43554-1.6386-3.44727-1.4248-1.14942,2.8681-2.873,3.6875L-1.25,44.3565v.9746l-1.43652-.2451v-.9746C.97559,45.503-1.25,39.6211,3.05762,42.3067.47364,40.6123-.81933,43.4551-1.25,45.7491c1.292.6396,2.082-.2706,2.87207-.9014Z"/><path class="b" d="M3.36426,60.2344c-.43164-2.581-5.88867.5254-8.61621,1.3125V60.1534c.43066.9101,1.36426.8603,2.1543,1.0654l2.87207-3.6875c1.07617,2.9004,3.375,1.2041,5.02543,1.5566Z"/><path class="b" d="M1.25,37.4991c-1.65039.3447-2.94433-2.3838-4.30761-.7373V35.3692Z"/><path class="b" d="M2.16407,14.9473c-.07129-.7783.14355-1.6455-.71778-2.2119-2.51367-1.335-1.72265,1.6553-2.87207,2.2949-1.79492,1.4346.86231-.4101,0-1.3935l-1.43652-.2461C-1.85644,15.793,1.66211,10.336-.708,7.4932Z"/><path class="b" d="M.67676,52.5264.169,51.1328c2.74512,1.0323,4.01758-.0068,3.5625-2.0468a1.91437,1.91437,0,0,0,1.01367,2.7842c-3.15039-1.3594-3.86621.623-5.08789,1.8027l.50684,1.3935c4.4248.3194-1.88184.7461-.50684-1.3935l.35449.9756-1.52441-.2451-.35449-.9756C-.34277,54.0674.11621,53.1573.67676,52.5264Z"/><path class="b" d="M-.65332,16.4668l-1.31445.8203C-.21,16.6485-.082,17.5567.24805,18.1885L-.76562,19.5811c-.94238-1.4668.44433,2.8428,2.5166,1.4756C-3.0039,21.9649,2.30957,17.1319-.65332,16.4668Z"/><path class="b" d="M.64356,24.4746l-.71094.9756c.83789-.0644,2.03906-.4345,1.916.3282L-.17871,28.5645l-1.61523.2451-1.01367,1.3926c2.96679-2.9893,6.1582-1.5557,7.88576-4.9151A5.89237,5.89237,0,0,1,2.75,27.4991c-.83789.0654-2.03906.4336-1.915-.3272Z"/><path class="b" d="M2.75,64.7491c-1.40039-.4004-2,1.2998-3,2,0,2.5.2002-1-1-1l-1,1,1-2c-.2998.9003.5,1.4003,1,2l2-3Z"/><polygon class="b" points="-1.75 51.749 -3.63 52.432 0.387 48.844 -1.75 51.749"/><polygon class="b" points="-2.25 71.249 -3.968 71.123 0.529 72.617 0.857 72.06 -1.921 70.691 -2.25 71.249"/><polygon class="b" points="-2.25 -0.75 -3.968 -0.877 0.529 0.617 0.857 0.061 -1.921 -1.309 -2.25 -0.75"/><path class="b" d="M.82325,35.253c-1.34864-.9102-4.38672-.2871-3.84864-3.1914.25489,1.0703.36426,2.3808,1.6709,2.6845.94531.0821,1.24512-.8115,1.71192-1.4384L2.0293,35.9922Z"/><polygon class="b" points="2.395 38.824 -2.596 41.056 -3.082 40.752 1.272 40.315 2.395 38.824"/><path class="b" d="M51.249.25c-1.0996.5,4.0996-2.499,3-4.999C55.34865-2.249,52.249-1.4492,51.249.25Z"/><path class="b" d="M63.99905-3.749l-3,4.999c-3.2998,1.7002,6.7998-7.1992-1-3.999l-.7002.7002-1-1,.7002-.7002c1,2,2.7998-.2998,4-1-2.4004-1.2002-2.4004-3.7998,0-5C59.99905-8.8486,61.49905-5.3486,63.99905-3.749Z"/><path class="b" d="M57.02635.8448c.4766-.7539,1.378-1.6954.7139-1.9659l-1.6152.2452,1.0146-1.3916L54.51075-.6298c3.1211-1.0323,4.0146.0087,2.8164,2.0478Z"/><path class="b" d="M3.72657,2.1416C-.332,3.3789,3.65528-.3242,3.53809-1.5449L5.15335-1.791,2.33594-3.8388C5.58105-2.9707.28614,2.2315,3.72657,2.1416Z"/><polygon class="b" points="69.749 -0.749 68.031 -0.875 72.528 0.619 72.856 0.062 70.078 -1.307 69.749 -0.749"/><path class="b" d="M16.379,5.2159l7.2978-7.9913-.9951-.8281c-1.4502,1.8067-1.2256,3.6016-3.1045,5.4531Z"/><polygon class="b" points="-2.25 -0.749 -3.968 -0.875 0.529 0.619 0.857 0.062 -1.921 -1.307 -2.25 -0.749"/></pattern><pattern id="b" width="54" height="81" patternTransform="matrix(-3.83015, 0, 0, 4.24581, 6619.54552, 2942.65366)" patternUnits="userSpaceOnUse" viewBox="0 0 54 81"><rect class="a" width="54" height="81"/><path class="c" d="M35.14619,62.02081c-.53527.6702-1.14386,1.58309-1.72949,1.58309-.59477-.00235-1.16892-.97684-1.7569-1.56247,1.17361-.59032,3.08371-1.10263,3.13642-1.789.28134-3.41073-.53082-7.38671-4.89332-8.75241C37.01506,49.35872,39.00317,57.194,35.14619,62.02081Z"/><path class="c" d="M42.60622,65.58732c.725-9.13-1.28347-14.08729,8.37947-10.57349,2.19378,3.07223-4.25263.48491-4.95492,1.91244-.35232.72057,3.9324,2.46833,3.6349,3.35826-.29726.89438-4.93431.9082-5.49487,1.88035-1.00659,1.75479.59476,3.51169,1.54419,5.14724C44.539,66.72181,42.56733,66.0837,42.60622,65.58732Z"/><path class="c" d="M52.63975,67.072c-.29282.12346-1.06609-.93115-1.65406-1.51679,1.87121-.99745,3.0563-4.94578,4.868-3.1158C57.5832,64.18719,54.49949,67.749,52.63975,67.072Z"/><path class="c" d="M57.79379,76.74855c1.15276,3.77007-1.979,2.56905-3.2943.37058-.87845-2.19378-2.15724-8.75919,3.52059-9.01781.565-.02295,1.15979.96536,1.7501,1.55334C58.53262,70.70692,53.7904,63.66105,57.79379,76.74855Z"/><path class="c" d="M41.62235,73.54818c-3.02865-.43923-3.13407,1.98787-3.3032,3.59391-.05505.52613,1.42051,1.36335,1.30151,1.62408-1.70185,3.6328-5.623,1.26754-8.54649,1.86676,1.16892,0,2.83446.38441,3.23246-.19209,2.22119-3.22777,6.63873-8.36588,2.03823-12.1062,2.24649,2.89162,7.38905.95856,8.7845,5.2707A23.90687,23.90687,0,0,1,41.62235,73.54818Z"/><path class="c" d="M48.00037,73.97358c3.9392.08246.26986,2.663,1.22842,3.73119C48.81252,76.45573,48.41429,75.21583,48.00037,73.97358Z"/><path class="c" d="M-1.36025,67.072c-.29282.12346-1.06609-.93115-1.65406-1.51679,1.87121-.99745,3.0563-4.94578,4.868-3.1158C3.5832,64.18719.49949,67.749-1.36025,67.072Z"/><path class="c" d="M18.65411,72.58282c.11221-1.16658.59945-2.91434.14875-3.19592-1.80047-1.13-4.4747-.75476-6.80576-.98128.64514-.52848,1.21015-1.27879,1.94454-1.45963,2.02676-.50552,4.03759,2.02933,4.74667,1.61986,4.5663-2.6309,9.75688-11.01506,13.55881-14.817.53082.64514-2.25773,6.10113-2.36994,6.24285C25.652,65.24648,22.71465,67.50655,18.65411,72.58282Z"/><path class="c" d="M11.85749,77.73686c.32725.41861,2.44326-.70229,2.92605-.21973,1.07968,1.09584,4.28918,2.62176,4.62768,4.34657,1.03867-.803,2.74989-1.55334,2.75669-2.402.01148-2.27624-5.76263-2.71758-9.09793-3.87291a4.85117,4.85117,0,0,1-2.83891-4.534C10.67943,73.35375,10.56043,76.05773,11.85749,77.73686Z"/><path class="c" d="M3.79379,76.74855c1.15276,3.77007-1.979,2.56905-3.2943.37058-.87845-2.19378-2.15724-8.75919,3.52059-9.01781.565-.02295,1.15979.96536,1.7501,1.55334C4.53262,70.70692-.2096,63.66105,3.79379,76.74855Z"/><path class="c" d="M13.03944,110.63655c1.18508.57415,2.35635,1.14831,3.53675,1.71567.56971-1.18275,1.75924-2.60794,1.39545-3.388-2.36783-5.04418.72056-10.25772,2.24414-14.93365a3.7229,3.7229,0,0,0,5.08306-1.9033c2.15958-4.22523,6.67528-10.74028,7.13746-15.668-1.29026.24714-3.29641.26775-3.46811.86252-2.14811,7.49657-8.3338,19.05135-16.72709,20.934-.286.06629-.50107,1.44815-.26541,2.16872.64514,1.98787,3.44282,2.01551,4.10857,3.33763C17.35391,106.26023,14.66609,108.51585,13.03944,110.63655Z"/><path class="c" d="M8.14619,21.52081c-.53527.6702-1.14386,1.58309-1.72949,1.58309-.59477-.00235-1.16892-.97684-1.7569-1.56247,1.17361-.59032,3.08371-1.10263,3.13642-1.789C8.07756,16.34171,7.2654,12.36573,2.9029,11,10.01506,8.85872,12.00317,16.694,8.14619,21.52081Z"/><path class="c" d="M15.60622,25.08732c.725-9.13-1.28347-14.08729,8.37947-10.57349,2.19378,3.07223-4.25263.48491-4.95492,1.91244-.35232.72057,3.9324,2.46833,3.6349,3.35826-.29726.89438-4.93431.9082-5.49487,1.88035-1.00659,1.75479.59476,3.51169,1.54419,5.14724C17.539,26.22181,15.56733,25.5837,15.60622,25.08732Z"/><path class="c" d="M25.63975,26.572c-.29282.12346-1.06609-.93115-1.65406-1.51679,1.87121-.99745,3.0563-4.94578,4.868-3.1158C30.5832,23.68719,27.49949,27.249,25.63975,26.572Z"/><path class="c" d="M45.65411,32.08282c.11221-1.16658.59945-2.91434.14875-3.19592-1.80047-1.13-4.4747-.75476-6.80576-.98128.64514-.52848,1.21015-1.27879,1.94454-1.45963,2.02676-.50552,4.03759,2.02933,4.74667,1.61986,4.5663-2.6309,9.75688-11.01506,13.55881-14.817.53082.64514-2.25773,6.10113-2.36994,6.24285C52.652,24.74648,49.71465,27.00655,45.65411,32.08282Z"/><path class="c" d="M38.85749,37.23686c.32725.41861,2.44326-.70229,2.92605-.21973,1.07968,1.09584,4.28918,2.62176,4.62768,4.34657,1.03867-.803,2.74989-1.55334,2.75669-2.402.01148-2.27624-5.76263-2.71758-9.09793-3.87291a4.85117,4.85117,0,0,1-2.83891-4.534C37.67943,32.85375,37.56043,35.55773,38.85749,37.23686Z"/><path class="c" d="M30.79379,36.24855c1.15276,3.77007-1.979,2.569-3.2943.37058-.87845-2.19378-2.15724-8.75919,3.52059-9.01781.565-.023,1.15979.96536,1.7501,1.55334C31.53262,30.20692,26.7904,23.16105,30.79379,36.24855Z"/><path class="c" d="M9.09328,60.84068c2.98532.31554,2.92816-2.22377,2.93964-3.83637.00914-1.718-1.05461-2.34721,2.76794-6.04162.75265-.72056.89672-3.23714,1.68381-4.95727.64724.53293,1.27644,1.04993,1.91923,1.58285-1.11176.69784-2.70164,1.18509-3.0837,2.1802-.56737,1.49149.74562,3.89586-.06419,4.87949-1.34742,1.62876-4.25708,2.49128-4.19993,6.021.00914.54441,1.54865,1.23756,1.45261,1.4847a13.83234,13.83234,0,0,0-.82129,7.26091C8.0799,67.38314,9.32425,63.897,9.09328,60.84068Z"/><path class="c" d="M26.25045,54.25442c-2.93051,3.65809-6.72564-.21036-8.84165,4.46322,3.07457-1.08881,1.23521.82129,6.91328,1.82554-.13728-1.3062-.684-3.28728-.21973-3.55714,5.6961-3.28516,2.73842-10.521,7.12364-14.96128-.81661-.17616-1.61494-.35232-2.42944-.53058.13961,1.31064-1.67,6.86971-2.17317,7.19672C22.60172,51.32859,28.783,51.09528,26.25045,54.25442Z"/><path class="c" d="M40.03944,70.13655c1.18508.57415,2.35635,1.14831,3.53675,1.71567.56971-1.18275,1.75924-2.60794,1.39545-3.388C42.60381,63.42,45.6922,58.2065,47.21578,53.53057a3.7229,3.7229,0,0,0,5.08306-1.9033c2.15958-4.22523,6.67528-10.74028,7.13746-15.668-1.29026.24714-3.29641.26775-3.46811.86252-2.14811,7.49657-8.3338,19.05135-16.72709,20.934-.286.06629-.50107,1.44815-.26541,2.16872.64514,1.98787,3.44282,2.01551,4.10857,3.33763C44.35391,65.76023,41.66609,68.01585,40.03944,70.13655Z"/><path class="c" d="M33.04239,54.48328c.29047,1.1462-.70909,2.61029.56736,3.84316,2.07267-5.07392,2.15958-10.85928,7.69334-14.682-2.22142-1.57606-3.722.29071-5.43538,1.1462C38.53047,48.913,31.95569,50.22831,33.04239,54.48328Z"/><path class="c" d="M55.04485,68.04888a17.82221,17.82221,0,0,0-3.53441,1.65852c2.83212-1.98342.12814-4.93665,5.00294-7.52632,1.17361-.62218.69785-3.54121-1.48914-4.772.59032-.59008,1.16658-1.16658,1.7569-1.75689-.80747,4.30088.9356,8.2354,1.7569,12.29829A14.127,14.127,0,0,0,55.04485,68.04888Z"/><path class="c" d="M14.62235,33.04818c-3.02865-.43923-3.13407,1.98787-3.3032,3.59391-.05505.52613,1.42051,1.36335,1.30151,1.62408-1.70185,3.6328-5.623,1.26754-8.54649,1.86676,1.16892,0,2.83446.38441,3.23246-.19209,2.22119-3.22777,6.63873-8.36588,2.03823-12.1062,2.24649,2.89162,7.38905.95856,8.7845,5.2707A23.90687,23.90687,0,0,1,14.62235,33.04818Z"/><path class="c" d="M2.9029,51.84559c1.21015-3.429,4.27793-3.15469,7.0276-3.5138C8.21248,50.76123,5.48344,51.15712,2.9029,51.84559Z"/><path class="c" d="M28.314,70.25649C27.22963,71.3453,27.29592,71.684,26.57981,71.938c-1.9696.69994-3.59391-.6955-5.22947-1.64493,6.021,1.2652,8.41625-3.61663,7.0276-8.78449,1.17361.59266,3.12025,1.16892,3.12025,1.75689C31.49819,65.61265,29.70709,67.94605,28.314,70.25649Z"/><path class="c" d="M21.00037,33.47358c3.9392.08246.26986,2.663,1.22842,3.73119C21.81252,35.95573,21.41429,34.71583,21.00037,33.47358Z"/><path class="c" d="M46.23974,51.26c-3.73118.40034-1.60135-2.1228-1.7569-3.5138C45.07316,48.92211,45.64942,50.091,46.23974,51.26Z"/><path class="c" d="M-8.34589,32.08282c.11221-1.16658.59945-2.91434.14875-3.19592-1.80047-1.13-4.4747-.75476-6.80576-.98128.64514-.52848,1.21015-1.27879,1.94454-1.45963,2.02676-.50552,4.03759,2.02933,4.74667,1.61986,4.5663-2.6309,9.75688-11.01506,13.55881-14.817.53082.64514-2.25773,6.10113-2.36994,6.24285C-1.348,24.74648-4.28535,27.00655-8.34589,32.08282Z"/><path class="c" d="M-13.96056,70.13655c1.18508.57415,2.35635,1.14831,3.53675,1.71567.56971-1.18275,1.75924-2.60794,1.39545-3.388C-11.39619,63.42-8.3078,58.2065-6.78422,53.53057a3.7229,3.7229,0,0,0,5.08306-1.9033C.45842,47.402,4.97412,40.887,5.4363,35.95924c-1.29026.24714-3.29641.26775-3.46811.86252-2.14811,7.49657-8.3338,19.05135-16.72709,20.934-.286.06629-.50107,1.44815-.26541,2.16872.64514,1.98787,3.44282,2.01551,4.10857,3.33763C-9.64609,65.76023-12.33391,68.01585-13.96056,70.13655Z"/><path class="c" d="M1.04485,68.04888A17.82221,17.82221,0,0,0-2.48956,69.7074c2.83212-1.98342.12814-4.93665,5.00294-7.52632,1.17361-.62218.69785-3.54121-1.48914-4.772.59032-.59008,1.16658-1.16658,1.7569-1.75689-.80747,4.30088.9356,8.2354,1.7569,12.29829A14.127,14.127,0,0,0,1.04485,68.04888Z"/><path class="c" d="M36.09328,20.34068c2.98532.31554,2.92816-2.22377,2.93964-3.83637.00914-1.718-1.05461-2.34721,2.76794-6.04162.75265-.72056.89672-3.23714,1.68381-4.95727.64724.53293,1.27644,1.04993,1.91923,1.58285-1.11176.69784-2.70164,1.18509-3.0837,2.1802-.56737,1.49149.74562,3.89586-.06419,4.87949-1.34742,1.62876-4.25708,2.49128-4.19993,6.021.00914.54441,1.54865,1.23756,1.45261,1.4847a13.83234,13.83234,0,0,0-.82129,7.26091C35.0799,26.88314,36.32425,23.397,36.09328,20.34068Z"/><path class="c" d="M53.25045,13.75442c-2.93051,3.65809-6.72564-.21036-8.84165,4.46322,3.07457-1.08881,1.23521.82129,6.91328,1.82554-.13728-1.3062-.684-3.28728-.21973-3.55714,5.6961-3.28516,2.73842-10.521,7.12364-14.96128-.81661-.17616-1.61494-.35232-2.42944-.53058.13961,1.31064-1.67,6.86971-2.17317,7.19672C49.60172,10.82859,55.783,10.59528,53.25045,13.75442Z"/><path class="c" d="M29.9029,11.34559c1.21015-3.429,4.27793-3.15469,7.0276-3.5138C35.21248,10.26123,32.48344,10.65712,29.9029,11.34559Z"/><path class="c" d="M55.314,29.75649C54.22963,30.8453,54.29592,31.184,53.57981,31.438c-1.9696.69994-3.59391-.6955-5.22947-1.64493,6.021,1.2652,8.41625-3.61663,7.0276-8.78449,1.17361.59266,3.12025,1.16892,3.12025,1.75689C58.49819,25.11265,56.70709,27.44605,55.314,29.75649Z"/><path class="c" d="M11.85749-3.26314c.32725.41861,2.44326-.70229,2.92605-.21973C15.86322-2.387,19.07272-.86111,19.41122.8637c1.03867-.803,2.74989-1.55334,2.75669-2.402.01148-2.27624-5.76263-2.71758-9.09793-3.87291a4.85117,4.85117,0,0,1-2.83891-4.534C10.67943-7.64625,10.56043-4.94227,11.85749-3.26314Z"/><path class="c" d="M-.74955,13.75442c-2.93051,3.65809-6.72564-.21036-8.84165,4.46322,3.07457-1.08881,1.23521.82129,6.91328,1.82554-.13728-1.3062-.684-3.28728-.21973-3.55714C2.79845,13.20088-.15923,5.965,4.226,1.52476,3.40938,1.3486,2.61105,1.17244,1.79655.99418,1.93616,2.30482.12656,7.86389-.37662,8.1909-4.39828,10.82859,1.783,10.59528-.74955,13.75442Z"/><path class="c" d="M13.03944,29.63655c1.18508.57415,2.35635,1.14831,3.53675,1.71567.56971-1.18275,1.75924-2.60794,1.39545-3.388C15.60381,22.92,18.6922,17.7065,20.21578,13.03057a3.7229,3.7229,0,0,0,5.08306-1.9033C27.45842,6.902,31.97412.387,32.4363-4.54076c-1.29026.24714-3.29641.26775-3.46811.86252-2.14811,7.49657-8.3338,19.05135-16.72709,20.934-.286.06629-.50107,1.44815-.26541,2.16872.64514,1.98787,3.44282,2.01551,4.10857,3.33763C17.35391,25.26023,14.66609,27.51585,13.03944,29.63655Z"/><path class="c" d="M6.04239,13.98328c.29047,1.1462-.70909,2.61029.56736,3.84316C8.68242,12.75252,8.76933,6.96716,14.30309,3.14439c-2.22142-1.57606-3.722.29071-5.43538,1.1462C11.53047,8.413,4.95569,9.72831,6.04239,13.98328Z"/><path class="c" d="M28.04485,27.54888a17.82221,17.82221,0,0,0-3.53441,1.65852c2.83212-1.98342.12814-4.93665,5.00294-7.52632,1.17361-.62218.69785-3.54121-1.48914-4.772.59032-.59008,1.16658-1.16658,1.7569-1.75689-.80747,4.30088.9356,8.2354,1.7569,12.29829A14.127,14.127,0,0,0,28.04485,27.54888Z"/><path class="c" d="M1.314,29.75649C.22963,30.8453.29592,31.184-.42019,31.438c-1.9696.69994-3.59391-.6955-5.22947-1.64493,6.021,1.2652,8.41625-3.61663,7.0276-8.78449,1.17361.59266,3.12025,1.16892,3.12025,1.75689C4.49819,25.11265,2.70709,27.44605,1.314,29.75649Z"/><path class="c" d="M19.23974,10.76c-3.73118.40034-1.60135-2.1228-1.7569-3.5138C18.07316,8.42211,18.64942,9.591,19.23974,10.76Z"/></pattern><pattern id="c" width="48.59414" height="39.0637" patternTransform="translate(1578.8909 262.82993)" patternUnits="userSpaceOnUse" viewBox="0 0 48.594 39.064"><rect class="a" width="48.59414" height="39.0637"/><line class="d" x1="48.59405" y1="21.00067" x2="-0.00009" y2="21.00067"/><line class="e" x1="48.59405" y1="18.43807" x2="-0.00009" y2="18.43807"/><line class="f" x1="48.59405" y1="15.87554" x2="-0.00009" y2="15.87554"/><line class="g" x1="48.59405" y1="13.31294" x2="-0.00009" y2="13.31294"/><line class="h" x1="48.59405" y1="10.74967" x2="-0.00009" y2="10.74967"/><line class="i" x1="48.59405" y1="8.18707" x2="-0.00009" y2="8.18707"/><line class="j" x1="48.59405" y1="5.62452" x2="-0.00009" y2="5.62452"/><line class="k" x1="48.59405" y1="3.06194" x2="-0.00009" y2="3.06194"/><line class="k" x1="48.59405" y1="0.50002" x2="-0.00009" y2="0.50002"/><line class="e" x1="48.59405" y1="23.56259" x2="-0.00009" y2="23.56259"/><line class="f" x1="48.59405" y1="26.12519" x2="-0.00009" y2="26.12519"/><line class="g" x1="48.59405" y1="28.68772" x2="-0.00009" y2="28.68772"/><line class="h" x1="48.59405" y1="31.25032" x2="-0.00009" y2="31.25032"/><line class="i" x1="48.59405" y1="33.8136" x2="-0.00009" y2="33.8136"/><line class="j" x1="48.59405" y1="36.37619" x2="-0.00009" y2="36.37619"/><line class="l" x1="48.59405" y1="38.93872" x2="-0.00009" y2="38.93872"/></pattern></defs><rect class="m" width="383.99981" height="216"/><rect class="n" width="383.99981" height="216"/><rect class="o" width="383.99981" height="216"/><rect class="p" width="383.99981" height="216"/><rect class="q" x="194.25386" y="80.40542" width="52.41101" height="69.58731" transform="translate(34.23985 -49.71136) rotate(13.93823)"/><line class="r" x1="217.61446" y1="131.99689" x2="236.84884" y2="136.77054"/><line class="r" x1="207.84991" y1="127.11305" x2="237.42405" y2="134.45286"/><line class="r" x1="204.35872" y1="123.90106" x2="237.97239" y2="132.24341"/><line class="r" x1="197.62098" y1="134.93649" x2="235.00156" y2="144.21372"/><line class="r" x1="195.33277" y1="132.02305" x2="235.54991" y2="142.00427"/><line class="r" x1="194.17875" y1="136.67292" x2="234.39589" y2="146.65413"/><line class="r" x1="211.93714" y1="123.43635" x2="238.52074" y2="130.03396"/><line class="r" x1="220.28285" y1="121.24518" x2="239.51723" y2="126.01883"/><line class="r" x1="210.5183" y1="116.36135" x2="240.09244" y2="123.70115"/><line class="r" x1="207.02712" y1="113.14935" x2="240.64079" y2="121.4917"/><line class="r" x1="214.60553" y1="112.68465" x2="241.18913" y2="119.28225"/><line class="r" x1="215.43024" y1="109.36167" x2="242.01384" y2="115.95927"/><path class="s" d="M211.37451,88.95073a.15866.15866,0,0,1-.02051-.1333l.48633-1.95947a.16.16,0,0,1,.08105-.1084.17909.17909,0,0,1,.13477-.01611l.791.19629a.17644.17644,0,0,1,.11133.07763.17022.17022,0,0,1,.01563.13233l-.48633,1.95947a.174.174,0,0,1-.0752.106.16738.16738,0,0,1-.13476.02l-.791-.19629A.17819.17819,0,0,1,211.37451,88.95073Zm2.459.61084a.16762.16762,0,0,1-.0166-.13281l.49316-1.98633a.69378.69378,0,0,0-.56933-.95312l-1.5293-.37989a.17636.17636,0,0,1-.1123-.07812.15757.15757,0,0,1-.02051-.13281l.14258-.57715a.16286.16286,0,0,1,.08105-.1084.17989.17989,0,0,1,.13574-.01611l1.56348.38818a2.12139,2.12139,0,0,1,1.291.75488,1.6575,1.6575,0,0,1,.1504,1.39063l-.49122,1.98a.16586.16586,0,0,1-.08105.1084.18334.18334,0,0,1-.13574.01611l-.792-.19678A.16692.16692,0,0,1,213.83349,89.56157Z"/><path class="s" d="M217.979,90.58648a.17633.17633,0,0,1-.13672.01953l-2.15527-.53467a.182.182,0,0,1-.11231-.07764.162.162,0,0,1-.01953-.1333l.14355-.57715a.16039.16039,0,0,1,.07911-.1084.17826.17826,0,0,1,.13574-.01611l1.11426.27637.26855-1.33692a1.2057,1.2057,0,0,0,.00488-.59716.47181.47181,0,0,0-.37207-.27784l-.34277-.085a.17818.17818,0,0,1-.126-.20947l.14063-.56348a.1746.1746,0,0,1,.07715-.1123.16168.16168,0,0,1,.13281-.02051l.3623.08984a1.80966,1.80966,0,0,1,1.17969.71338,1.88384,1.88384,0,0,1,.11914,1.37549l-.4209,2.06885A.14434.14434,0,0,1,217.979,90.58648Z"/><path class="s" d="M221.604,87.52153a.162.162,0,0,1,.01953.1333l-.14258.57666a.17661.17661,0,0,1-.07617.106.17114.17114,0,0,1-.13965.019l-.30957-.07666a1.02748,1.02748,0,0,0-.209.31153,2.45586,2.45586,0,0,0-.16114.46533l-.48437,1.95312a.13173.13173,0,0,1-.08789.08887.22077.22077,0,0,1-.1377.01221l-.78515-.19531a.14267.14267,0,0,1-.11133-.18409l.50293-2.02636a1.49926,1.49926,0,0,1,.31933-.71192l-.50293-.125a.176.176,0,0,1-.126-.20947l.14258-.57715a.16577.16577,0,0,1,.08007-.1084.17519.17519,0,0,1,.12989-.01757l1.96679.48828A.18352.18352,0,0,1,221.604,87.52153Z"/><path class="s" d="M221.41357,91.44243a.15869.15869,0,0,1-.02051-.1333l.48633-1.95947a.16.16,0,0,1,.08105-.1084.17743.17743,0,0,1,.13477-.01611l.791.19677a.16271.16271,0,0,1,.127.209l-.48633,1.95947a.17.17,0,0,1-.0752.106.16561.16561,0,0,1-.13476.02051l-.791-.19678A.18013.18013,0,0,1,221.41357,91.44243Zm2.46.61035a.16634.16634,0,0,1-.01758-.13232l.49317-1.98633a.69417.69417,0,0,0-.56836-.95361l-1.53028-.3794a.18006.18006,0,0,1-.1123-.07763.15976.15976,0,0,1-.02051-.13379l.14258-.57666a.16286.16286,0,0,1,.081-.1084.18048.18048,0,0,1,.13575-.01611l1.56445.38818a2.12123,2.12123,0,0,1,1.29.75439,1.65538,1.65538,0,0,1,.15039,1.39112l-.49121,1.98a.165.165,0,0,1-.08106.10791.18046.18046,0,0,1-.13574.01611l-.792-.19629A.16551.16551,0,0,1,223.87353,92.05278Z"/><path class="s" d="M227.61865,92.63677a1.69594,1.69594,0,0,1-.14844-1.3584L227.978,89.232a.16462.16462,0,0,1,.08008-.1084.183.183,0,0,1,.13672-.01611l1.71094.42481a2.00019,2.00019,0,0,1,1.28027.75195,1.78023,1.78023,0,0,1,.16406,1.32324c-.00586.0459-.03027.15137-.07129.3169-.042.17041-.07129.27685-.08691.3208a1.79075,1.79075,0,0,1-.7832,1.10547,2.084,2.084,0,0,1-1.53125.06542A1.95484,1.95484,0,0,1,227.61865,92.63677Zm2.166-.189a.78893.78893,0,0,0,.32813-.50634c.0166-.043.042-.13916.0791-.28663.03516-.14306.05664-.23779.06348-.28369a.81424.81424,0,0,0-.06348-.60644.85.85,0,0,0-.54688-.32813l-.81054-.20166-.31836,1.28174a.75254.75254,0,0,0,.06152.61035.855.855,0,0,0,.53125.32813A.969.969,0,0,0,229.78466,92.4478Z"/><path class="s" d="M232.99072,91.566c-.03516.186-.00879.30615.082.3623l.1709.11377a.16136.16136,0,0,1,.06543.09766.27389.27389,0,0,1-.001.13183l-.07813.34375a.183.183,0,0,1-.12988.13575.34406.34406,0,0,1-.22949-.01075l-.26465-.10839a.87818.87818,0,0,1-.48437-.51612,1.37358,1.37358,0,0,1-.0293-.8584l.23437-.94629a.25965.25965,0,0,1,.08692-.10693.15237.15237,0,0,1,.12305-.019l1.35546.33642a1.79063,1.79063,0,0,1,1.2002.77832,1.97318,1.97318,0,0,1,.15723,1.38916c-.00684.04639-.02051.10889-.04.19a2.18625,2.18625,0,0,1-.78028,1.30566,1.74094,1.74094,0,0,1-1.48828.16846l-1.27539-.31641a.18274.18274,0,0,1-.1123-.07764.162.162,0,0,1-.01953-.1333l.15332-.61718a.1754.1754,0,0,1,.21679-.13135l1.24219.3081a.8212.8212,0,0,0,.6084-.05908.80573.80573,0,0,0,.37891-.501c.01464-.04394.03417-.11035.05664-.1997.02148-.085.03418-.15088.041-.19629a.78362.78362,0,0,0-.09277-.61768.84006.84006,0,0,0-.51758-.33886l-.57129-.14161Z"/><path class="s" d="M235.45263,94.92681a.1587.1587,0,0,1-.02051-.1333l.86719-3.4961a.1629.1629,0,0,1,.08106-.1084.18045.18045,0,0,1,.13574-.01611l.83886.208a.16659.16659,0,0,1,.126.20947l-.86719,3.4961a.17809.17809,0,0,1-.07714.106.16356.16356,0,0,1-.13282.02051l-.83886-.2085A.18008.18008,0,0,1,235.45263,94.92681Z"/><path class="s" d="M237.88818,95.1895a1.65249,1.65249,0,0,1-.16016-1.35058l.51074-2.06055a.16825.16825,0,0,1,.08106-.1084.17334.17334,0,0,1,.1289-.01758l.69825.17334a.18013.18013,0,0,1,.1123.07764.16255.16255,0,0,1,.02051.1333l-.50293,2.02686a.71472.71472,0,0,0,.0791.61425.94016.94016,0,0,0,.56152.33545.67759.67759,0,0,0,.9375-.52978,1.73354,1.73354,0,0,0,.04786-.18067c.0166-.07617.03027-.13476.04-.1748L240.479,93.98a1.25868,1.25868,0,0,0,.01855-.61865.39669.39669,0,0,0-.29883-.29151.82524.82524,0,0,0-.2041-.02246.68153.68153,0,0,0-.1875.0249.23112.23112,0,0,1-.06445-.00146.14733.14733,0,0,1-.09375-.06982.15251.15251,0,0,1-.01562-.1211l.13085-.53027a.27417.27417,0,0,1,.18946-.2168,1.30057,1.30057,0,0,1,.67578.03223,1.3412,1.3412,0,0,1,.96289.64844,1.95576,1.95576,0,0,1,.03516,1.27343l-.1211.48975-.05371.21484a1.64814,1.64814,0,0,1-2.27344,1.18116A2.04488,2.04488,0,0,1,237.88818,95.1895Z"/><path class="s" d="M206.93115,98.05278a.15924.15924,0,0,1-.02149-.1333l.47266-1.90576a.16415.16415,0,0,1,.082-.1084.17989.17989,0,0,1,.13574-.01611l.83887.2085a.16584.16584,0,0,1,.126.209l-.47266,1.90576a.17064.17064,0,0,1-.07715.106.16543.16543,0,0,1-.13281.02051l-.83887-.208A.18.18,0,0,1,206.93115,98.05278Z"/><path class="s" d="M208.355,100.09087a.16191.16191,0,0,1-.0205-.12988l.14258-.57666a.16458.16458,0,0,1,.08007-.1084.17606.17606,0,0,1,.12989-.01807l1.68359.418.30762-1.24121a.68994.68994,0,0,0-.56934-.94678l-.85937-.21289a.16414.16414,0,0,1-.10743-.08056.18012.18012,0,0,1-.01562-.13575l.14258-.57715a.16457.16457,0,0,1,.08008-.10839.174.174,0,0,1,.1289-.01758l.89356.22168a2.25017,2.25017,0,0,1,1.32031.748,1.61232,1.61232,0,0,1,.16113,1.4004l-.30762,1.24169.23438.05811a.17131.17131,0,0,1,.11035.07715.16754.16754,0,0,1,.01563.13281l-.14258.57715a.17548.17548,0,0,1-.0752.10547.16561.16561,0,0,1-.13476.02051l-3.09278-.76807A.16539.16539,0,0,1,208.355,100.09087Z"/><path class="s" d="M212.66162,99.47466a.159.159,0,0,1-.02149-.1333l.47266-1.90576a.16415.16415,0,0,1,.082-.1084.17986.17986,0,0,1,.13574-.01563l.83887.208a.1698.1698,0,0,1,.1084.07666.16781.16781,0,0,1,.01757.13281l-.47265,1.90576a.16836.16836,0,0,1-.07715.10547.15988.15988,0,0,1-.13281.02051l-.83887-.208A.17636.17636,0,0,1,212.66162,99.47466Z"/><path class="s" d="M214.67529,101.32134a1.65632,1.65632,0,0,1-.15918-1.35059l.51074-2.06054a.16691.16691,0,0,1,.08008-.1084.17822.17822,0,0,1,.12988-.01758l.69824.17383a.18208.18208,0,0,1,.11231.07715.16365.16365,0,0,1,.02051.13378l-.50293,2.02637a.71248.71248,0,0,0,.0791.61475.93657.93657,0,0,0,.56152.33545.67611.67611,0,0,0,.93555-.53028,1.32943,1.32943,0,0,0,.04785-.18066c.01758-.07617.03125-.13477.041-.17481l.03614-.14746a1.249,1.249,0,0,0,.01855-.61914.39537.39537,0,0,0-.29883-.291.79716.79716,0,0,0-.2041-.02246.64748.64748,0,0,0-.18652.02441.2209.2209,0,0,1-.06543-.00146.149.149,0,0,1-.09277-.06934.158.158,0,0,1-.01661-.12158l.13184-.53028a.27273.27273,0,0,1,.18945-.2163,1.29943,1.29943,0,0,1,.67578.03173,1.33983,1.33983,0,0,1,.96192.64844,1.9614,1.9614,0,0,1,.03613,1.27344l-.12207.49023-.05273.21485a1.64844,1.64844,0,0,1-2.27344,1.18115A2.04785,2.04785,0,0,1,214.67529,101.32134Z"/><path class="s" d="M218.25048,103.91118a.15849.15849,0,0,1-.01953-.1333l.80469-3.24121a.15559.15559,0,0,1,.0791-.10791.17832.17832,0,0,1,.13574-.0166l.76465.18994a.167.167,0,0,1,.10938.07666.17194.17194,0,0,1,.01757.13281l-.80468,3.24121a.17172.17172,0,0,1-.07715.10938.16938.16938,0,0,1-.13281.0166l-.76465-.18945A.18079.18079,0,0,1,218.25048,103.91118Zm1.918-.792a.1998.1998,0,0,1-.02148-.148l.168-.67773a.20967.20967,0,0,1,.08007-.11573.26775.26775,0,0,1,.14161-.05713l.23046-.03564a1.019,1.019,0,0,0,.92872-.87353.90515.90515,0,0,0-.00586-.62842.74589.74589,0,0,0-.51075-.30518L219.394,99.835a.17322.17322,0,0,1-.11133-.081.17136.17136,0,0,1-.01953-.13672l.15527-.624a.15113.15113,0,0,1,.08106-.10107.18674.18674,0,0,1,.13281-.0166l2.01953.50146a1.6771,1.6771,0,0,1,1.15039.73047,1.882,1.882,0,0,1,.06934,1.36035,2.03466,2.03466,0,0,1-.84961,1.27051,2.74882,2.74882,0,0,1-1.45117.44531l-.29395.01221A.12515.12515,0,0,1,220.16845,103.11919Z"/><path class="s" d="M226.60107,104.52349a.145.145,0,0,1-.06543.08691.13374.13374,0,0,1-.11035.019l-.82617-.20507a.23066.23066,0,0,1-.165-.10889c-.02539-.05127-.03907-.07959-.043-.08545l-.75293-1.98926a.7758.7758,0,0,0-.32031.3125,1.86679,1.86679,0,0,0-.16309.42969l-.208.83887a.18915.18915,0,0,1-.083.11865.17506.17506,0,0,1-.13671.01953l-.65723-.16357a.15894.15894,0,0,1-.10449-.083.18347.18347,0,0,1-.01856-.13965l.207-.83252a2.41068,2.41068,0,0,1,.38379-.8877,1.74886,1.74886,0,0,1,.75-.52587l-.44043-1.15674a.1525.1525,0,0,1-.00976-.10205.13617.13617,0,0,1,.06836-.08643.13907.13907,0,0,1,.10839-.01953l.791.19629a.237.237,0,0,1,.13477.07617.49607.49607,0,0,1,.07031.13135l.70019,1.79834a.61023.61023,0,0,0,.3125-.23633,1.3262,1.3262,0,0,0,.14453-.36963l.20313-.81885a.19034.19034,0,0,1,.08008-.11914.16353.16353,0,0,1,.13281-.0205l.70508.1748a.169.169,0,0,1,.11035.08447.18988.18988,0,0,1,.01953.14014l-.21.8457a1.80319,1.80319,0,0,1-.36621.73926,1.64619,1.64619,0,0,1-.77734.48047l.53222,1.35693A.17684.17684,0,0,1,226.60107,104.52349Z"/><path class="s" d="M227.33251,104.80474a.15979.15979,0,0,1-.0205-.13379l.86718-3.4961a.16288.16288,0,0,1,.08106-.10839.17993.17993,0,0,1,.13574-.01612l.83887.2085a.16637.16637,0,0,1,.126.209l-.86718,3.49658a.17958.17958,0,0,1-.07715.106.1634.1634,0,0,1-.13281.02l-.83887-.208A.17932.17932,0,0,1,227.33251,104.80474Z"/><path class="s" d="M231.12451,105.74565a.15846.15846,0,0,1-.01954-.1333l.49219-1.98632a.6942.6942,0,0,0-.56933-.95362l-1.01953-.25293a.16695.16695,0,0,1-.10547-.07959.16221.16221,0,0,1-.02051-.12988l.14258-.57715a.16461.16461,0,0,1,.08007-.1084.17581.17581,0,0,1,.12989-.01757l1.06054.26318a2.20985,2.20985,0,0,1,1.29786.728,1.59615,1.59615,0,0,1,.14746,1.36914l-.50293,2.02636a.17513.17513,0,0,1-.0752.106.16451.16451,0,0,1-.13379.02051l-.792-.19678A.18007.18007,0,0,1,231.12451,105.74565Z"/><path class="s" d="M233.478,105.98784a1.65574,1.65574,0,0,1-.15918-1.35058l.51074-2.06006a.16463.16463,0,0,1,.08008-.1084.17354.17354,0,0,1,.12989-.01758l.69824.17285a.18541.18541,0,0,1,.1123.07813.162.162,0,0,1,.01953.1333l-.50293,2.02685a.7081.7081,0,0,0,.08008.61426.93421.93421,0,0,0,.56153.33545.6761.6761,0,0,0,.93554-.52978,1.36806,1.36806,0,0,0,.04785-.18067c.01758-.07617.03125-.13476.041-.17529l.03613-.14746a1.249,1.249,0,0,0,.01856-.61914.39541.39541,0,0,0-.29883-.291.82.82,0,0,0-.2041-.02246.62949.62949,0,0,0-.18653.0249.23362.23362,0,0,1-.06543-.00195.14721.14721,0,0,1-.09277-.06934.158.158,0,0,1-.0166-.12158l.13183-.53027a.27347.27347,0,0,1,.18946-.21631,1.30057,1.30057,0,0,1,.67578.03223,1.33711,1.33711,0,0,1,.96191.64843,1.96122,1.96122,0,0,1,.03614,1.27344l-.12207.48975-.05274.21484a1.64844,1.64844,0,0,1-2.27344,1.18115A2.04573,2.04573,0,0,1,233.478,105.98784Z"/><path class="s" d="M239.1372,107.73442a.15869.15869,0,0,1-.01953-.1333l.49219-1.98632a.69421.69421,0,0,0-.56934-.95362l-1.01953-.25293a.17818.17818,0,0,1-.126-.20947l.14258-.57715a.16588.16588,0,0,1,.08106-.1084.17286.17286,0,0,1,.1289-.01806l1.06055.26367a2.20982,2.20982,0,0,1,1.29785.728,1.59474,1.59474,0,0,1,.14746,1.36865l-.50293,2.02685a.17512.17512,0,0,1-.07519.106.16641.16641,0,0,1-.13379.02051l-.792-.19678A.18009.18009,0,0,1,239.1372,107.73442Z"/><rect class="t" x="33.8761" y="52.04124" width="48.03762" height="63.78066" transform="translate(-9.22148 7.17404) rotate(-6.56887)"/><line class="u" x1="58.86582" y1="82.06714" x2="76.91078" y2="79.98921"/><line class="u" x1="49.41583" y1="85.35854" x2="77.16117" y2="82.16357"/><line class="u" x1="45.86479" y1="87.86776" x2="77.39986" y2="84.23639"/><line class="u" x1="52.69882" y1="89.18111" x2="77.63855" y2="86.30921"/><line class="u" x1="61.01626" y1="100.74171" x2="79.06122" y2="98.66378"/><line class="u" x1="51.0655" y1="99.68438" x2="78.81084" y2="96.48941"/><line class="u" x1="47.03707" y1="98.04796" x2="78.57214" y2="94.41659"/><line class="u" x1="44.79628" y1="109.685" x2="79.86533" y2="105.64668"/><line class="u" x1="41.89643" y1="107.91862" x2="79.62663" y2="103.57386"/><line class="u" x1="42.39877" y1="112.28095" x2="80.12897" y2="107.93619"/><line class="u" x1="53.39372" y1="95.21566" x2="78.33345" y2="92.34377"/><path class="s" d="M45.55908,65.69927a2.6,2.6,0,0,1-.93946-1.86719l-.36914-3.20557a.26025.26025,0,0,1,.05664-.19824.28111.28111,0,0,1,.1875-.09619l2.67969-.30859a3.05966,3.05966,0,0,1,2.23828.39209,2.731,2.731,0,0,1,.94336,1.8081c.01563.06934.03711.23389.06641.49268.03125.2666.04883.43506.04883.50537a2.756,2.756,0,0,1-.5293,2.00488,3.18183,3.18183,0,0,1-2.1582.91406A3.00234,3.00234,0,0,1,45.55908,65.69927Zm3.0039-1.43213a1.212,1.212,0,0,0,.20117-.90137c-.002-.0708-.01562-.22168-.043-.45312-.02539-.22412-.04493-.3711-.06055-.44043a1.23655,1.23655,0,0,0-.416-.83594,1.3058,1.3058,0,0,0-.959-.17725l-1.27149.14649.23243,2.00732a1.13927,1.13927,0,0,0,.416.84131,1.29693,1.29693,0,0,0,.9375.18506A1.48012,1.48012,0,0,0,48.563,64.26714Z"/><path class="s" d="M52.686,61.28423q.07324.4292.31055.47558l.30664.07129a.25112.25112,0,0,1,.14648.10547.4238.4238,0,0,1,.06836.18946l.07227.53466a.27575.27575,0,0,1-.11328.26319.52449.52449,0,0,1-.334.10742l-.4375-.01318a1.34508,1.34508,0,0,1-.9707-.479,2.117,2.117,0,0,1-.502-1.21484L51.061,59.84233a.38441.38441,0,0,1,.06836-.1997.229.229,0,0,1,.16406-.09375l2.123-.24414a2.73678,2.73678,0,0,1,2.13672.47265,3.00578,3.00578,0,0,1,.9707,1.90625,2.73038,2.73038,0,0,1,.04492.293,3.34281,3.34281,0,0,1-.418,2.29,2.665,2.665,0,0,1-2.043,1.03906l-1.99609.23047a.27633.27633,0,0,1-.20312-.05127.2514.2514,0,0,1-.10157-.18017l-.11132-.9668a.27469.27469,0,0,1,.24218-.30469l1.94532-.22412a1.2632,1.2632,0,0,0,.84179-.41113,1.22963,1.22963,0,0,0,.27149-.92041c0-.07129-.00977-.17627-.02539-.31641-.01563-.1333-.0293-.23437-.04493-.30371a1.19914,1.19914,0,0,0-.46484-.83594,1.275,1.275,0,0,0-.92383-.208l-.89258.103Z"/><path class="s" d="M58.01415,64.7813a.254.254,0,0,1-.0996-.17969l-.63086-5.47607a.26073.26073,0,0,1,.05664-.19824.28312.28312,0,0,1,.1875-.0962l1.3125-.15087a.26268.26268,0,0,1,.19922.05175.25949.25949,0,0,1,.09375.18067l.63085,5.47558a.27161.27161,0,0,1-.05078.19239.252.252,0,0,1-.18164.10058l-1.3125.15137A.28131.28131,0,0,1,58.01415,64.7813Z"/><path class="s" d="M61.647,63.85259a2.5365,2.5365,0,0,1-.95313-1.8501l-.373-3.22656a.25362.25362,0,0,1,.05859-.19824.25737.25737,0,0,1,.17578-.09473l1.0918-.126a.27633.27633,0,0,1,.20312.05127.24291.24291,0,0,1,.09961.17969l.36719,3.17432a1.09662,1.09662,0,0,0,.44141.83838,1.44058,1.44058,0,0,0,.98632.17968,1.03722,1.03722,0,0,0,1.0586-1.26172c-.00391-.0708-.01172-.16552-.0293-.28418q-.02637-.17871-.03516-.27246l-.02734-.23144a1.90836,1.90836,0,0,0-.30664-.89649.60352.60352,0,0,0-.582-.25781,1.21944,1.21944,0,0,0-.30664.07764,1.05383,1.05383,0,0,0-.25586.13574.31326.31326,0,0,1-.0918.03223.23.23,0,0,1-.17187-.04932.24161.24161,0,0,1-.08594-.166l-.0957-.83007a.41363.41363,0,0,1,.15429-.41211,1.99034,1.99034,0,0,1,.98438-.31543,2.04846,2.04846,0,0,1,1.72656.41357,2.989,2.989,0,0,1,.73438,1.80567l.08789.76709.03906.33642q.18163,2.58838-2.625,2.91162A3.12492,3.12492,0,0,1,61.647,63.85259Z"/><path class="s" d="M50.03369,76.34478a.25152.25152,0,0,1-.09961-.17481L49.36767,71.251l-1.2832,1.24511a.305.305,0,0,1-.15235.07032.27688.27688,0,0,1-.23632-.10059l-.748-.76563a.3113.3113,0,0,1-.0586-.15283.27173.27173,0,0,1,.0879-.24463l2.22265-2.16211a.41435.41435,0,0,1,.23242-.10156l1.38672-.15967a.28123.28123,0,0,1,.20508.05127.24938.24938,0,0,1,.09961.18018l.78711,6.83154a.24549.24549,0,0,1-.05664.19824.28107.28107,0,0,1-.1875.0962l-1.43945.16552A.25182.25182,0,0,1,50.03369,76.34478Z"/><path class="s" d="M53.91259,75.30718a2.98257,2.98257,0,0,1-1.06054-1.90137c-.05665-.377-.10157-.71631-.13672-1.01709-.03516-.30859-.07032-.65918-.10157-1.05322a3.15292,3.15292,0,0,1,.23438-1.44873,2.51691,2.51691,0,0,1,.90625-1.08985,3.429,3.429,0,0,1,1.584-.54394,3.46569,3.46569,0,0,1,1.66993.16943,2.51779,2.51779,0,0,1,1.13671.854,3.13685,3.13685,0,0,1,.55469,1.35839q.05566.29151.14258,1.04834c.05664.49024.08789.83106.0957,1.022a2.983,2.983,0,0,1-.59961,2.09277,3.59812,3.59812,0,0,1-4.42578.50928Zm2.8125-1.47949a1.5894,1.5894,0,0,0,.15821-.939q-.01465-.30762-.09375-.99072c-.05274-.45557-.09571-.77686-.13282-.96436a1.59817,1.59817,0,0,0-.36523-.86865.85674.85674,0,0,0-.77344-.24609q-.94629.10912-.85742,1.34472c.01562.18994.04883.5127.10156.96827s.09375.78417.125.98632q.19042,1.22388,1.13867,1.11524A.86714.86714,0,0,0,56.72509,73.82769Z"/><path class="s" d="M60.30126,75.16216a.25777.25777,0,0,1-.09961-.17432l-.08984-.78808a.65134.65134,0,0,1,.20313-.55616l.86718-1.06933q.91115-.87159,1.3711-1.35059a5.20793,5.20793,0,0,0,.6914-.85156,1.08759,1.08759,0,0,0,.19336-.67725.69347.69347,0,0,0-.86914-.688.80913.80913,0,0,0-.60156.31933,1.30481,1.30481,0,0,0-.22266.64893.32562.32562,0,0,1-.33007.28271l-1.38672.16016a.23253.23253,0,0,1-.17188-.04981.2247.2247,0,0,1-.08594-.14453,2.43909,2.43909,0,0,1,.24024-1.30029,2.57421,2.57421,0,0,1,.91015-1.00977,3.30362,3.30362,0,0,1,1.46485-.50439,3.7684,3.7684,0,0,1,1.55664.1084,2.0884,2.0884,0,0,1,1.53516,1.84668,2.22162,2.22162,0,0,1-.31055,1.42041A7.41981,7.41981,0,0,1,63.895,72.27251l-.77343.97363,2.66015-.30664a.25407.25407,0,0,1,.293.23242l.12891,1.12452a.26388.26388,0,0,1-.05274.19238.24957.24957,0,0,1-.17968.10058l-5.47657.63086A.25644.25644,0,0,1,60.30126,75.16216Z"/><rect class="v" x="71.84658" y="124.23533" width="50.83199" height="67.49081" transform="translate(-8.8311 5.78989) rotate(-3.26173)"/><line class="w" x1="98.40206" y1="156.07041" x2="117.59175" y2="154.9768"/><line class="w" x1="88.2181" y1="158.9706" x2="117.72352" y2="157.2891"/><line class="w" x1="84.31357" y1="161.4046" x2="117.84915" y2="159.49342"/><line class="w" x1="91.45292" y1="163.2092" x2="117.97477" y2="161.69774"/><line class="w" x1="99.53383" y1="175.92965" x2="118.72352" y2="174.83604"/><line class="w" x1="89.08631" y1="174.20524" x2="118.59174" y2="172.52374"/><line class="w" x1="84.93054" y1="172.2306" x2="118.46612" y2="170.31943"/><line class="w" x1="81.85297" y1="184.38728" x2="119.14671" y2="182.26193"/><line class="w" x1="78.89738" y1="182.34424" x2="119.02109" y2="180.05761"/><line class="w" x1="79.16176" y1="186.98331" x2="119.28547" y2="184.69667"/><line class="w" x1="91.81865" y1="169.62658" x2="118.34049" y2="168.11511"/><path class="s" d="M85.27978,137.94585a2.74952,2.74952,0,0,1-.877-2.02979l-.19434-3.40917a.26086.26086,0,0,1,.07324-.20606.28285.28285,0,0,1,.20117-.08984l2.84961-.1626a3.24347,3.24347,0,0,1,2.3418.55029,2.89479,2.89479,0,0,1,.88477,1.96826c.01269.07422.02636.249.042.52442.01562.2832.02246.4624.01855.5376a2.90371,2.90371,0,0,1-.68164,2.085,3.36978,3.36978,0,0,1-2.335.834A3.179,3.179,0,0,1,85.27978,137.94585Zm3.26172-1.32959a1.27989,1.27989,0,0,0,.26465-.94043c.0039-.07471-.002-.23535-.01563-.48144-.01367-.23829-.02637-.39454-.03906-.46875a1.30081,1.30081,0,0,0-.3877-.90821,1.37319,1.37319,0,0,0-.999-.24609l-1.35352.07715.1211,2.13476a1.21147,1.21147,0,0,0,.38867.91406,1.37846,1.37846,0,0,0,.97949.25293A1.56953,1.56953,0,0,0,88.5415,136.61626Z"/><path class="s" d="M93.07861,133.71685q.04833.457.29883.52148l.31933.09375a.26322.26322,0,0,1,.14746.12012.43557.43557,0,0,1,.06153.2041l.04492.56934a.2984.2984,0,0,1-.13672.27148.55227.55227,0,0,1-.35938.09326l-.46289-.041a1.42639,1.42639,0,0,1-.99609-.56543,2.24476,2.24476,0,0,1-.45508-1.314l-.08984-1.57617a.383.383,0,0,1,.084-.20606.23467.23467,0,0,1,.17871-.08886l2.25782-.12891a2.89459,2.89459,0,0,1,2.22851.62988,3.18931,3.18931,0,0,1,.90918,2.07325c.01074.07421.02051.17773.02832.312a3.53736,3.53736,0,0,1-.58105,2.394,2.82157,2.82157,0,0,1-2.22168.97266l-2.123.12109a.29059.29059,0,0,1-.21094-.06641.26133.26133,0,0,1-.0957-.19628l-.05859-1.02832a.27644.27644,0,0,1,.07226-.21143.28254.28254,0,0,1,.20215-.0957l2.06836-.11768a1.34015,1.34015,0,0,0,.91406-.38281,1.30157,1.30157,0,0,0,.34278-.95606c.00292-.0747.001-.187-.00782-.33593-.00781-.14161-.01855-.249-.02929-.32325a1.26993,1.26993,0,0,0-.43946-.91162,1.35,1.35,0,0,0-.96191-.27588l-.95117.0542Z"/><path class="s" d="M98.49462,137.73638a.26468.26468,0,0,1-.0957-.19629l-.332-5.82324a.26433.26433,0,0,1,.07324-.20606.28849.28849,0,0,1,.20117-.08984l1.39746-.07959a.26606.26606,0,0,1,.29493.26318l.332,5.82324a.2876.2876,0,0,1-.06543.2002.26837.26837,0,0,1-.19824.09521l-1.39747.07959A.28815.28815,0,0,1,98.49462,137.73638Z"/><path class="s" d="M102.3872,136.97661a2.6789,2.6789,0,0,1-.89453-2.01221l-.19629-3.43164a.26259.26259,0,0,1,.07324-.20556.277.277,0,0,1,.19141-.08985l1.16211-.06591a.29436.29436,0,0,1,.21191.0664.26713.26713,0,0,1,.09375.19629l.19239,3.37549a1.15858,1.15858,0,0,0,.417.9126,1.52545,1.52545,0,0,0,1.02929.24951q1.25246-.07178,1.19434-1.26758a2.203,2.203,0,0,0-.01172-.30225c-.01074-.12646-.01855-.22314-.02246-.29052l-.01367-.24561a2.02537,2.02537,0,0,0-.26758-.96631.64083.64083,0,0,0-.60156-.30761,1.33387,1.33387,0,0,0-.32617.06347,1.09869,1.09869,0,0,0-.2793.12793.35659.35659,0,0,1-.09863.02832.23656.23656,0,0,1-.17774-.0625.25135.25135,0,0,1-.083-.18066l-.0498-.88281a.44142.44142,0,0,1,.18848-.42579,2.10363,2.10363,0,0,1,1.06054-.27343,2.16472,2.16472,0,0,1,1.79688.54248,3.18184,3.18184,0,0,1,.667,1.95215l.0459.81591.02051.35791q.03369,2.74512-2.95117,2.91553A3.30682,3.30682,0,0,1,102.3872,136.97661Z"/><path class="s" d="M85.55224,149.68169a.27341.27341,0,0,1-.0957-.19043l-.29785-5.23145-1.43164,1.23731a.32049.32049,0,0,1-.16407.06494.291.291,0,0,1-.24316-.1206l-.74317-.8545a.33387.33387,0,0,1-.05468-.16552.28856.28856,0,0,1,.1084-.25245l2.47949-2.14892a.43675.43675,0,0,1,.25293-.09277l1.47461-.084a.293.293,0,0,1,.21191.06641.26232.26232,0,0,1,.09473.19677l.41406,7.26465a.263.263,0,0,1-.07227.20606.29057.29057,0,0,1-.20214.08984l-1.53125.0874A.2672.2672,0,0,1,85.55224,149.68169Z"/><path class="s" d="M90.24462,149.27983a2.46271,2.46271,0,0,1-1.16308-.82568,2.25392,2.25392,0,0,1-.43457-1.23047,1.97062,1.97062,0,0,1,.23535-1.07324,2.04022,2.04022,0,0,1,.73633-.77637,1.71776,1.71776,0,0,1-.88184-1.49707,2.00052,2.00052,0,0,1,.67285-1.66455,3.51782,3.51782,0,0,1,2.22852-.75439,3.47085,3.47085,0,0,1,2.27637.49218,1.99548,1.99548,0,0,1,.8457,1.57227,1.78529,1.78529,0,0,1-.6709,1.59668,1.839,1.839,0,0,1,.82812.6709,2.02837,2.02837,0,0,1,.3584,1.0664,2.19475,2.19475,0,0,1-.29882,1.26758,2.51061,2.51061,0,0,1-1.06641.94678,5.27066,5.27066,0,0,1-3.666.209Zm2.333-4.90966a.74845.74845,0,0,0,.2666-.627.75619.75619,0,0,0-.33691-.60254,1.36961,1.36961,0,0,0-1.54785.08789.79875.79875,0,0,0,.07129,1.24073,1.19152,1.19152,0,0,0,.79.1958A1.251,1.251,0,0,0,92.57763,144.37017Zm.28516,3.34179a.92172.92172,0,0,0-.08106-1.43066,1.35925,1.35925,0,0,0-.88183-.21875,1.37856,1.37856,0,0,0-.85547.31787.912.912,0,0,0,.081,1.43066,1.38131,1.38131,0,0,0,.88672.21875A1.35777,1.35777,0,0,0,92.86279,147.712Z"/><path class="s" d="M96.439,149.06108a.27153.27153,0,0,1-.0957-.19043l-.04786-.83837a.68786.68786,0,0,1,.249-.57471l.98047-1.07666q1.01659-.865,1.53222-1.34277a5.57628,5.57628,0,0,0,.78125-.85743,1.13061,1.13061,0,0,0,.24512-.7041.73117.73117,0,0,0-.873-.77978.85469.85469,0,0,0-.65625.30127,1.36733,1.36733,0,0,0-.27636.67089.34223.34223,0,0,1-.36426.2793l-1.47559.084a.23483.23483,0,0,1-.17676-.063.22035.22035,0,0,1-.082-.15772,2.56267,2.56267,0,0,1,.332-1.35937,2.711,2.711,0,0,1,1.02344-1.01123,3.48809,3.48809,0,0,1,1.5791-.44287,3.98291,3.98291,0,0,1,1.63672.209,2.2058,2.2058,0,0,1,1.50782,2.04492,2.33578,2.33578,0,0,1-.41407,1.48145,7.8072,7.8072,0,0,1-1.43554,1.49463l-.874.98047,2.82715-.16114a.26908.26908,0,0,1,.29688.26319l.06738,1.19629a.2746.2746,0,0,1-.06641.1997.26676.26676,0,0,1-.19726.09571l-5.82227.33154A.268.268,0,0,1,96.439,149.06108Z"/><path class="s" d="M104.65771,147.97075a3.146,3.146,0,0,1-1.00391-2.07324q-.05712-.60279-.085-1.083c-.01855-.32812-.03125-.70117-.041-1.11914a3.33147,3.33147,0,0,1,.334-1.51562,2.67933,2.67933,0,0,1,1.02539-1.09571,3.624,3.624,0,0,1,1.70508-.47851,3.66413,3.66413,0,0,1,1.75488.28125,2.65891,2.65891,0,0,1,1.14844.97168,3.31644,3.31644,0,0,1,.50391,1.46777q.03954.312.08593,1.11719c.03028.52148.043.88281.04,1.085a3.15881,3.15881,0,0,1-.76269,2.17383,3.80525,3.80525,0,0,1-4.70508.26855Zm3.06055-1.39111a1.68183,1.68183,0,0,0,.22363-.98291q.0044-.3252-.03711-1.05176-.041-.72656-.08106-1.02734a1.69845,1.69845,0,0,0-.334-.93946.90843.90843,0,0,0-.80273-.30761q-1.00489.05712-.98731,1.36816c.00391.20166.02051.54492.04785,1.0293s.05078.834.07032,1.0498q.13037,1.30445,1.13671,1.24707A.921.921,0,0,0,107.71826,146.57964Z"/><rect class="x" x="126.5718" y="46.90249" width="48.03762" height="63.78066" transform="translate(6.64083 -11.5637) rotate(4.49657)"/><line class="y" x1="151.90131" y1="77.14941" x2="170.00961" y2="78.57347"/><line class="y" x1="141.99529" y1="78.56587" x2="169.83801" y2="80.75547"/><line class="y" x1="138.02867" y1="80.34689" x2="169.67443" y2="82.83556"/><line class="y" x1="144.48358" y1="82.94748" x2="169.51085" y2="84.91566"/><line class="y" x1="150.42755" y1="95.88952" x2="168.53585" y2="97.31359"/><line class="y" x1="140.86473" y1="92.942" x2="168.70745" y2="95.13159"/><line class="y" x1="137.22527" y1="90.56282" x2="168.87103" y2="93.0515"/><line class="y" x1="132.79264" y1="101.55344" x2="167.98478" y2="104.32101"/><line class="y" x1="130.28573" y1="99.26333" x2="168.14836" y2="102.24091"/><line class="y" x1="129.94146" y1="103.64097" x2="167.8041" y2="106.61855"/><line class="y" x1="144.00734" y1="89.00322" x2="169.03461" y2="90.9714"/><path class="s" d="M141.89013,58.53862a2.59915,2.59915,0,0,1-.56445-2.01269l.25293-3.21729a.25185.25185,0,0,1,.09375-.18359.28.28,0,0,1,.20117-.05859l2.68945.21191a3.06414,3.06414,0,0,1,2.123.81445,2.74113,2.74113,0,0,1,.5791,1.95557q.00147.1062-.0293.49658c-.02148.26709-.03711.43555-.0498.50537a2.75056,2.75056,0,0,1-.90625,1.86572,3.17994,3.17994,0,0,1-2.293.48243A2.99509,2.99509,0,0,1,141.89013,58.53862Zm3.22168-.8291a1.21319,1.21319,0,0,0,.36914-.84619c.0127-.06982.02735-.2207.0459-.45312.01758-.22461.02637-.37256.02441-.44336a1.23206,1.23206,0,0,0-.24707-.90039,1.30178,1.30178,0,0,0-.90625-.35791l-1.27636-.1001-.15821,2.01416a1.14151,1.14151,0,0,0,.24707.90576,1.29922,1.29922,0,0,0,.88379.36133A1.481,1.481,0,0,0,145.11181,57.70952Z"/><path class="s" d="M149.731,55.57378c-.00781.28955.0625.46484.21289.52588l.28809.1289a.24592.24592,0,0,1,.12207.13184.40346.40346,0,0,1,.03222.19873l-.03125.53858a.27841.27841,0,0,1-.16308.23681.52418.52418,0,0,1-.34766.04151l-.42676-.09717a1.34313,1.34313,0,0,1-.86035-.65674,2.11517,2.11517,0,0,1-.26074-1.28857l.11719-1.48731a.38356.38356,0,0,1,.10351-.18262.22955.22955,0,0,1,.18067-.06006l2.12988.16749a2.73732,2.73732,0,0,1,2.00684.874,3.01064,3.01064,0,0,1,.58593,2.05713c.001.0708-.00195.16992-.01269.2959a3.34259,3.34259,0,0,1-.84863,2.16748,2.66687,2.66687,0,0,1-2.20508.62744l-2.00391-.15723a.27575.27575,0,0,1-.18847-.08887.24416.24416,0,0,1-.06446-.19628l.07617-.97071a.27334.27334,0,0,1,.2959-.25244l1.95117.15332a1.26286,1.26286,0,0,0,.90528-.2417,1.228,1.228,0,0,0,.44336-.85156,3.02307,3.02307,0,0,0,.03515-.31543c.01075-.1333.01563-.23535.01368-.30664a1.19344,1.19344,0,0,0-.29395-.90918,1.27755,1.27755,0,0,0-.86719-.38135l-.89648-.07031Z"/><path class="s" d="M154.28955,60.02837a.24471.24471,0,0,1-.06348-.1958l.43164-5.49512a.251.251,0,0,1,.09375-.18359.27524.27524,0,0,1,.20117-.0586l1.31836.104a.25416.25416,0,0,1,.24316.28418l-.43164,5.49511a.26732.26732,0,0,1-.08886.17872.249.249,0,0,1-.19629.064l-1.31836-.10351A.27455.27455,0,0,1,154.28955,60.02837Z"/><path class="s" d="M158.03173,59.81353a2.53564,2.53564,0,0,1-.58105-1.99854l.25488-3.23779a.251.251,0,0,1,.09375-.1836.26593.26593,0,0,1,.19043-.05957l1.09766.08643a.27421.27421,0,0,1,.18847.08935.24593.24593,0,0,1,.06446.19581l-.25,3.185a1.09313,1.09313,0,0,0,.27343.90772,1.43382,1.43382,0,0,0,.93164.36523,1.03465,1.03465,0,0,0,1.28028-1.03466,2.133,2.133,0,0,0,.02734-.28418c.00684-.12012.01172-.21192.0166-.27491l.01856-.23193a1.91136,1.91136,0,0,0-.12793-.93848.60428.60428,0,0,0-.52246-.36523,1.26742,1.26742,0,0,0-.31446.01758,1.03736,1.03736,0,0,0-.27832.085.32664.32664,0,0,1-.0957.01318.22353.22353,0,0,1-.15918-.08154.23448.23448,0,0,1-.05469-.1792l.06543-.8335a.41512.41512,0,0,1,.23243-.374,1.99291,1.99291,0,0,1,1.02832-.12109,2.04553,2.04553,0,0,1,1.6123.7373,2.99594,2.99594,0,0,1,.375,1.91309l-.06055.77-.02636.3374q-.31933,2.5752-3.13477,2.35351A3.12608,3.12608,0,0,1,158.03173,59.81353Z"/><path class="s" d="M141.35888,69.6187a.25991.25991,0,0,1-.06445-.19092l.0625-.791a.6523.6523,0,0,1,.30469-.50684l1.05761-.88232q1.062-.68043,1.60547-1.062a5.22234,5.22234,0,0,0,.84082-.70362,1.07855,1.07855,0,0,0,.32031-.62744.69155.69155,0,0,0-.71875-.8418.80593.80593,0,0,0-.65234.19825,1.27915,1.27915,0,0,0-.34375.59375.32567.32567,0,0,1-.37793.21435l-1.39258-.10986a.2188.2188,0,0,1-.15722-.08106.216.216,0,0,1-.05762-.1582,2.42523,2.42523,0,0,1,.48535-1.23047,2.56311,2.56311,0,0,1,1.08691-.8164,3.3059,3.3059,0,0,1,1.53516-.21387,3.77444,3.77444,0,0,1,1.50684.40527,2.08734,2.08734,0,0,1,1.15039,2.10694,2.20218,2.20218,0,0,1-.57715,1.33447,7.428,7.428,0,0,1-1.5332,1.21631l-.94629.80615,2.66894.21a.25912.25912,0,0,1,.18457.08887.25644.25644,0,0,1,.0586.1958l-.08887,1.12842a.25528.25528,0,0,1-.08887.17871.24535.24535,0,0,1-.19531.06445l-5.49512-.43262A.25493.25493,0,0,1,141.35888,69.6187Z"/><path class="s" d="M148.27783,70.16265a.25922.25922,0,0,1-.06446-.19092l.0625-.791a.65.65,0,0,1,.30567-.50634l1.05664-.88233q1.062-.68115,1.60644-1.0625a5.22751,5.22751,0,0,0,.83985-.70312,1.07536,1.07536,0,0,0,.32031-.62793.69173.69173,0,0,0-.71875-.8418.80874.80874,0,0,0-.65234.19824,1.28153,1.28153,0,0,0-.34375.59375.32478.32478,0,0,1-.37793.21436l-1.39258-.10938a.22116.22116,0,0,1-.15723-.08154.21607.21607,0,0,1-.05762-.1582,2.427,2.427,0,0,1,.48536-1.23047,2.56694,2.56694,0,0,1,1.08691-.81641,3.30159,3.30159,0,0,1,1.53516-.21338,3.77436,3.77436,0,0,1,1.50683.40479,2.08734,2.08734,0,0,1,1.15039,2.10693,2.20087,2.20087,0,0,1-.57715,1.33447,7.427,7.427,0,0,1-1.5332,1.21631l-.94531.80664,2.668.21a.25416.25416,0,0,1,.24316.28418l-.08887,1.12842a.25531.25531,0,0,1-.08886.17871.24366.24366,0,0,1-.19532.06446l-5.49511-.43213A.25737.25737,0,0,1,148.27783,70.16265Z"/><path class="s" d="M155.1958,70.70708a.25988.25988,0,0,1-.06446-.19092l.0625-.7915a.65075.65075,0,0,1,.30567-.50635l1.05664-.88232q1.062-.68115,1.60644-1.0625a5.18462,5.18462,0,0,0,.83985-.70313,1.074,1.074,0,0,0,.32031-.62793.69173.69173,0,0,0-.71875-.84179.80873.80873,0,0,0-.65235.19824,1.29,1.29,0,0,0-.34375.59375.3255.3255,0,0,1-.37793.21484l-1.39257-.10986a.22122.22122,0,0,1-.15723-.08155.21466.21466,0,0,1-.05762-.1582,2.43226,2.43226,0,0,1,.48535-1.23,2.55633,2.55633,0,0,1,1.0879-.8164,3.30153,3.30153,0,0,1,1.53417-.21387,3.77436,3.77436,0,0,1,1.50684.40478,2.08854,2.08854,0,0,1,1.15039,2.10742,2.20081,2.20081,0,0,1-.57715,1.334,7.42759,7.42759,0,0,1-1.5332,1.2168l-.94531.80615,2.668.21a.25122.25122,0,0,1,.24316.28467l-.08887,1.12793a.25816.25816,0,0,1-.08789.1792.24668.24668,0,0,1-.19629.064l-5.49414-.43213A.2588.2588,0,0,1,155.1958,70.70708Z"/></svg>