<svg xmlns="http://www.w3.org/2000/svg" viewBox="0 0 49.23637 65.37226"><defs><style>.a{fill:#ebebeb;}.b{fill:none;stroke:#cfd2d4;stroke-linecap:round;stroke-linejoin:round;stroke-width:1.08437px;}.c{fill:#191816;}</style></defs><rect class="a" width="49.23637" height="65.37226"/><line class="b" x1="25.82539" y1="30.90157" x2="44.44287" y2="30.90157"/><line class="b" x1="15.81725" y1="33.14492" x2="44.44287" y2="33.14492"/><line class="b" x1="11.90727" y1="35.2835" x2="44.44287" y2="35.2835"/><line class="b" x1="18.71187" y1="37.42209" x2="44.44287" y2="37.42209"/><line class="b" x1="25.82539" y1="50.16863" x2="44.44287" y2="50.16863"/><line class="b" x1="15.81725" y1="47.92528" x2="44.44287" y2="47.92528"/><line class="b" x1="11.90727" y1="45.7867" x2="44.44287" y2="45.7867"/><line class="b" x1="8.26118" y1="57.37309" x2="44.44287" y2="57.37309"/><line class="b" x1="5.51559" y1="55.2345" x2="44.44287" y2="55.2345"/><line class="b" x1="5.51559" y1="59.73524" x2="44.44287" y2="59.73524"/><line class="b" x1="18.71187" y1="43.64811" x2="44.44287" y2="43.64811"/><path class="c" d="M14.12787,12.6825a2.65881,2.65881,0,0,1-.73828-2.01172V7.36414a.25365.25365,0,0,1,.082-.19531.27887.27887,0,0,1,.19922-.07617h2.76562a3.137,3.137,0,0,1,2.23438.66211,2.80086,2.80086,0,0,1,.748,1.95117c.00782.07226.00977.24219.00977.50976,0,.2754-.002.44825-.00977.52051a2.81858,2.81858,0,0,1-.77539,1.97949,3.26958,3.26958,0,0,1-2.30468.67774A3.07126,3.07126,0,0,1,14.12787,12.6825ZM17.35248,11.577a1.23587,1.23587,0,0,0,.30859-.89453c.00781-.07226.01172-.22851.01172-.4668,0-.23144-.00391-.38281-.01172-.45507a1.267,1.267,0,0,0-.32422-.90039,1.33753,1.33753,0,0,0-.95507-.293H15.07123v2.07129a1.16732,1.16732,0,0,0,.32422.90527,1.33046,1.33046,0,0,0,.93359.29883A1.51716,1.51716,0,0,0,17.35248,11.577Z"/><path class="c" d="M21.90131,9.02332c.01367.2959.10156.46973.25976.52051l.30469.1084a.25176.25176,0,0,1,.13477.124.417.417,0,0,1,.04882.20117l.01172.55274a.28683.28683,0,0,1-.14648.25488.53775.53775,0,0,1-.35352.07031l-.44336-.06445a1.38233,1.38233,0,0,1-.93359-.60254,2.16692,2.16692,0,0,1-.36719-1.2959V7.36414a.37244.37244,0,0,1,.0918-.19531.2305.2305,0,0,1,.17773-.07617h2.19141a2.80143,2.80143,0,0,1,2.11914.73242,3.09,3.09,0,0,1,.76562,2.05469c.00586.07226.00977.17383.00977.30371A3.42268,3.42268,0,0,1,25.079,12.4657a2.73231,2.73231,0,0,1-2.20117.81836H20.81732a.2828.2828,0,0,1-.20117-.07519.25354.25354,0,0,1-.08008-.19531v-.998a.27529.27529,0,0,1,.28125-.28125h2.00586a1.29646,1.29646,0,0,0,.90625-.32031,1.26058,1.26058,0,0,0,.38477-.90528c.00586-.07226.00976-.18066.00976-.32519,0-.1377-.0039-.24219-.00976-.31445a1.23142,1.23142,0,0,0-.375-.90528,1.308,1.308,0,0,0-.916-.32031h-.92187Z"/><path class="c" d="M26.91693,13.20887a.2551.2551,0,0,1-.082-.19531V7.36414a.25365.25365,0,0,1,.082-.19531.28359.28359,0,0,1,.20117-.07617h1.35547a.26648.26648,0,0,1,.19531.07617.2698.2698,0,0,1,.07422.19531v5.64942a.274.274,0,0,1-.07422.18945.25575.25575,0,0,1-.19531.081H27.1181A.28282.28282,0,0,1,26.91693,13.20887Z"/><path class="c" d="M30.72357,12.68836a2.59942,2.59942,0,0,1-.7539-1.99512V7.36414a.25365.25365,0,0,1,.082-.19531.26565.26565,0,0,1,.18945-.07617H31.3681a.28359.28359,0,0,1,.20118.07617.25369.25369,0,0,1,.082.19531v3.27442a1.11964,1.11964,0,0,0,.35156.90527,1.47259,1.47259,0,0,0,.98242.29883q1.21289,0,1.22461-1.16016a2.61419,2.61419,0,0,0,.00586-.293c-.00391-.123-.00586-.21679-.00586-.28222V9.869a1.95507,1.95507,0,0,0-.207-.94922.61939.61939,0,0,0-.5625-.33106,1.26177,1.26177,0,0,0-.32031.044,1.066,1.066,0,0,0-.27735.1084.33485.33485,0,0,1-.09765.02148.2303.2303,0,0,1-.168-.07031.2421.2421,0,0,1-.07031-.17871V7.65711a.42358.42358,0,0,1,.207-.40137,2.03666,2.03666,0,0,1,1.041-.20605,2.09872,2.09872,0,0,1,1.707.62305,3.07708,3.07708,0,0,1,.53711,1.9248v1.13867q-.12012,2.65724-3.01367,2.65723A3.2046,3.2046,0,0,1,30.72357,12.68836Z"/><path class="c" d="M18.372,24.04676a.25755.25755,0,0,1-.082-.18945v-5.0752L16.83685,19.8993a.30591.30591,0,0,1-.16211.05469.28025.28025,0,0,1-.22656-.13086l-.67383-.86719a.31845.31845,0,0,1-.043-.16309.27746.27746,0,0,1,.11915-.23828l2.51562-1.94043a.42536.42536,0,0,1,.25-.07617h1.43164a.27887.27887,0,0,1,.19922.07617.25159.25159,0,0,1,.082.19434v7.04883a.2551.2551,0,0,1-.082.19531.2781.2781,0,0,1-.19922.07519H18.56146A.25811.25811,0,0,1,18.372,24.04676Z"/><path class="c" d="M25.04,24.04676a.25558.25558,0,0,1-.08008-.18945V22.66492H21.59857a.26019.26019,0,0,1-.1914-.082.26314.26314,0,0,1-.08008-.18945v-1.0957a.544.544,0,0,1,.11914-.3252l3.14453-4.251a.495.495,0,0,1,.40039-.18359h1.64844a.28357.28357,0,0,1,.20117.07617.25159.25159,0,0,1,.082.19434v4.1748h.95313a.26781.26781,0,0,1,.207.082.274.274,0,0,1,.07422.18946v1.13867a.274.274,0,0,1-.07422.18945.25658.25658,0,0,1-.19532.082h-.96484v1.19239a.2551.2551,0,0,1-.082.19531.2828.2828,0,0,1-.20117.07519H25.22943A.25811.25811,0,0,1,25.04,24.04676Zm-1.7832-2.98731h1.74609V18.62Z"/><path class="c" d="M31.02631,24.04676a.25755.25755,0,0,1-.082-.18945v-5.0752L29.49115,19.8993a.30594.30594,0,0,1-.16211.05469.28024.28024,0,0,1-.22656-.13086l-.67383-.86719a.31835.31835,0,0,1-.043-.16309.27745.27745,0,0,1,.11914-.23828l2.51563-1.94043a.42534.42534,0,0,1,.25-.07617h1.43164a.2789.2789,0,0,1,.19922.07617.25163.25163,0,0,1,.082.19434v7.04883a.25514.25514,0,0,1-.082.19531.27813.27813,0,0,1-.19922.07519H31.21576A.25808.25808,0,0,1,31.02631,24.04676Z"/></svg>