<svg xmlns="http://www.w3.org/2000/svg" viewBox="0 0 49.23637 65.37226"><defs><style>.a{fill:#ebebeb;}.b{fill:none;stroke:#cfd2d4;stroke-linecap:round;stroke-linejoin:round;stroke-width:1.08437px;}.c{fill:#191816;}</style></defs><rect class="a" width="49.23637" height="65.37226"/><line class="b" x1="25.82539" y1="51.5445" x2="44.44287" y2="51.5445"/><line class="b" x1="8.26118" y1="57.37309" x2="44.44287" y2="57.37309"/><line class="b" x1="5.51559" y1="55.2345" x2="44.44287" y2="55.2345"/><line class="b" x1="5.51559" y1="59.73524" x2="44.44287" y2="59.73524"/><path class="c" d="M18.97964,7.77039a2.94728,2.94728,0,0,1,.61816,2.04395,3.19151,3.19151,0,0,1-.81348,2.25586,4.323,4.323,0,0,1-2.03906,1.22558l-.44434.12989a.20849.20849,0,0,1-.20019-.07618.30876.30876,0,0,1-.09277-.21679V12.038a.31008.31008,0,0,1,.07617-.20117.53123.53123,0,0,1,.19531-.14649l.34668-.14062a1.74185,1.74185,0,0,0,.78613-.58008A1.81676,1.81676,0,0,0,17.70034,9.869a1.4567,1.4567,0,0,0-.23926-.95411,1.15535,1.15535,0,0,0-.88867-.27148h-.28223L14.83706,8.6327a.265.265,0,0,1-.19532-.07617.26123.26123,0,0,1-.07519-.19532V5.85633A.25435.25435,0,0,1,14.6476,5.661a.27058.27058,0,0,1,.18946-.0752H16.008a.25934.25934,0,0,1,.27148.27051V7.09266h.67187A2.63533,2.63533,0,0,1,18.97964,7.77039Z"/><path class="c" d="M24.70522,13.20887a.26494.26494,0,0,1-.07617-.19531v-3.21a1.08762,1.08762,0,0,0-1.22461-1.23633H20.93178a.2871.2871,0,0,1-.20117-.0752.25776.25776,0,0,1-.081-.19531V7.36414a.25628.25628,0,0,1,.081-.19531.28359.28359,0,0,1,.20117-.07617h2.52637a3.32117,3.32117,0,0,1,2.25.66211,2.59765,2.59765,0,0,1,.75391,2.05957v3.19922a.25777.25777,0,0,1-.08106.19531.2828.2828,0,0,1-.20117.07519h-1.2793A.26271.26271,0,0,1,24.70522,13.20887Zm-3.97461,0a.25776.25776,0,0,1-.081-.19531v-3.167a.25563.25563,0,0,1,.081-.19433.28359.28359,0,0,1,.20117-.07617h1.2793a.26077.26077,0,0,1,.27148.2705v3.167a.26732.26732,0,0,1-.07617.18945.25431.25431,0,0,1-.19531.081h-1.2793A.28282.28282,0,0,1,20.73061,13.20887Z"/><path class="c" d="M27.757,13.20887a.25777.25777,0,0,1-.08106-.19531V7.36414a.25629.25629,0,0,1,.08106-.19531.28357.28357,0,0,1,.20117-.07617h1.35547a.25934.25934,0,0,1,.27051.27148v5.64942a.27057.27057,0,0,1-.0752.18945.25431.25431,0,0,1-.19531.081H27.95815A.2828.2828,0,0,1,27.757,13.20887Z"/><path class="c" d="M34.588,13.203a.26945.26945,0,0,1-.20019.081H30.90737a.2828.2828,0,0,1-.20117-.07519.25777.25777,0,0,1-.08106-.19531v-.93262a.25777.25777,0,0,1,.08106-.19531.28358.28358,0,0,1,.20117-.07618h1.7998l-.09765-2.13574a1.90209,1.90209,0,0,0-.2168-.91113.745.745,0,0,0-.67285-.28125h-.55273a.28055.28055,0,0,1-.27149-.27148V7.29871a.28121.28121,0,0,1,.07617-.20019.25367.25367,0,0,1,.19532-.082h.58593a2.84535,2.84535,0,0,1,2.06543.64062,2.96082,2.96082,0,0,1,.69922,2.04883l.1416,3.30762A.225.225,0,0,1,34.588,13.203Z"/><path class="c" d="M16.65346,18.61414a2.94723,2.94723,0,0,1,.61817,2.044,3.19151,3.19151,0,0,1-.81348,2.25586,4.323,4.323,0,0,1-2.03906,1.22558l-.44434.12989a.20849.20849,0,0,1-.20019-.07618.30873.30873,0,0,1-.09278-.21679V22.88172a.31.31,0,0,1,.07618-.20117.53123.53123,0,0,1,.19531-.14649L14.3,22.39344a1.7419,1.7419,0,0,0,.78613-.58008,1.81676,1.81676,0,0,0,.28809-1.10058,1.4567,1.4567,0,0,0-.23926-.95411,1.15535,1.15535,0,0,0-.88867-.27148H13.964l-1.45312-.01074a.265.265,0,0,1-.19532-.07617.26123.26123,0,0,1-.07519-.19532V16.70008a.25431.25431,0,0,1,.081-.19531.27058.27058,0,0,1,.18946-.0752h1.17089a.25934.25934,0,0,1,.27149.27051v1.23633h.67187A2.63531,2.63531,0,0,1,16.65346,18.61414Z"/><path class="c" d="M18.40444,24.05262a.25776.25776,0,0,1-.08105-.19531V18.20789a.25628.25628,0,0,1,.08105-.19531.28357.28357,0,0,1,.20117-.07617h1.35547a.25934.25934,0,0,1,.27051.27148v5.64942a.27057.27057,0,0,1-.0752.18945.25431.25431,0,0,1-.19531.08105H18.60561A.2828.2828,0,0,1,18.40444,24.05262Z"/><path class="c" d="M22.93178,19.86707q.02052.44385.25977.52051l.30371.1084a.2535.2535,0,0,1,.13574.124.42828.42828,0,0,1,.04883.20117l.01074.55274a.28683.28683,0,0,1-.14648.25488.53616.53616,0,0,1-.35254.07031l-.44434-.06445a1.38257,1.38257,0,0,1-.93261-.60254,2.1672,2.1672,0,0,1-.36817-1.2959V18.20789a.37244.37244,0,0,1,.0918-.19531.23256.23256,0,0,1,.17871-.07617h2.19043a2.80381,2.80381,0,0,1,2.12012.73242,3.08961,3.08961,0,0,1,.76465,2.05469c.00683.07226.01074.17383.01074.30371a3.42291,3.42291,0,0,1-.69434,2.28222,2.731,2.731,0,0,1-2.20117.81836H21.84682a.28044.28044,0,0,1-.20019-.07519.25432.25432,0,0,1-.08106-.19531v-.998a.27686.27686,0,0,1,.28125-.28125h2.00684a1.294,1.294,0,0,0,.90527-.32031,1.26058,1.26058,0,0,0,.38477-.90528c.00683-.07226.01074-.18066.01074-.32519,0-.1377-.00391-.24219-.01074-.31445a1.227,1.227,0,0,0-.374-.90528,1.30966,1.30966,0,0,0-.916-.32031h-.92188Z"/><path class="c" d="M27.90346,21.48231a.25152.25152,0,0,1-.081-.19532v-3.0791a.25291.25291,0,0,1,.081-.19531.28288.28288,0,0,1,.2002-.07617h1.35547a.26083.26083,0,0,1,.27148.27148V21.287a.27125.27125,0,0,1-.07617.19043.25629.25629,0,0,1-.19531.08106H28.10366A.28288.28288,0,0,1,27.90346,21.48231Z"/><path class="c" d="M31.66616,23.53211a2.5989,2.5989,0,0,1-.75293-1.99512v-3.3291a.25291.25291,0,0,1,.08105-.19531.26733.26733,0,0,1,.18946-.07617h1.12793a.28121.28121,0,0,1,.20019.07617.25365.25365,0,0,1,.082.19531v3.27442a1.11706,1.11706,0,0,0,.35254.90527,1.46984,1.46984,0,0,0,.98145.29883q1.21288,0,1.22461-1.16016a2.39666,2.39666,0,0,0,.00586-.293c-.00391-.123-.00586-.21679-.00586-.28222v-.23828a1.945,1.945,0,0,0-.20606-.94922.62084.62084,0,0,0-.56347-.33106,1.2677,1.2677,0,0,0-.32032.04395,1.07186,1.07186,0,0,0-.27636.1084.3349.3349,0,0,1-.09766.02148.23033.23033,0,0,1-.168-.07031.24214.24214,0,0,1-.07031-.17871v-.85645a.42472.42472,0,0,1,.20605-.40137,2.04161,2.04161,0,0,1,1.041-.20605,2.10093,2.10093,0,0,1,1.708.62305,3.07737,3.07737,0,0,1,.53613,1.9248V21.58q-.11865,2.65724-3.01367,2.65723A3.20622,3.20622,0,0,1,31.66616,23.53211Z"/><path class="c" d="M13.44936,34.89637a.26494.26494,0,0,1-.07617-.19531v-3.21a1.08762,1.08762,0,0,0-1.22461-1.23633H9.67592a.28359.28359,0,0,1-.20117-.07617.25419.25419,0,0,1-.081-.19434v-.93262a.25628.25628,0,0,1,.081-.19531.28359.28359,0,0,1,.20117-.07617h2.52637a3.32626,3.32626,0,0,1,2.25.66113,2.60127,2.60127,0,0,1,.75391,2.06055v3.19922a.25777.25777,0,0,1-.08106.19531.2871.2871,0,0,1-.20117.07519h-1.2793A.26656.26656,0,0,1,13.44936,34.89637Zm-3.97461,0a.25776.25776,0,0,1-.081-.19531v-3.167a.25415.25415,0,0,1,.081-.19433.28359.28359,0,0,1,.20117-.07617h1.2793a.26494.26494,0,0,1,.19531.07617.26116.26116,0,0,1,.07618.19433v3.167a.26733.26733,0,0,1-.07618.18945.25431.25431,0,0,1-.19531.081H9.67592A.28713.28713,0,0,1,9.47475,34.89637Z"/><path class="c" d="M17.841,30.70985q.02052.44531.25977.52148l.30371.1084a.2535.2535,0,0,1,.13574.124.42828.42828,0,0,1,.04883.20117l.01074.55274a.28683.28683,0,0,1-.14648.25488.53616.53616,0,0,1-.35254.07031l-.44434-.06543a1.3778,1.3778,0,0,1-.93261-.60156,2.1672,2.1672,0,0,1-.36817-1.2959V29.05164a.37244.37244,0,0,1,.0918-.19531.23256.23256,0,0,1,.17871-.07617h2.19043a2.80383,2.80383,0,0,1,2.12012.73242,3.08956,3.08956,0,0,1,.76464,2.05469c.00684.07226.01075.17285.01075.30371a3.42291,3.42291,0,0,1-.69434,2.28222,2.731,2.731,0,0,1-2.20117.81836H16.756a.28471.28471,0,0,1-.20019-.07519.25432.25432,0,0,1-.08106-.19531v-.998a.27848.27848,0,0,1,.28125-.28223h2.00684a1.29782,1.29782,0,0,0,.90527-.31933,1.26058,1.26058,0,0,0,.38477-.90528c.00683-.07226.01074-.18066.01074-.32519,0-.1377-.00391-.24219-.01074-.31445a1.227,1.227,0,0,0-.374-.90528,1.30966,1.30966,0,0,0-.916-.32031H17.841Z"/><path class="c" d="M22.81264,32.32606a.25293.25293,0,0,1-.081-.19532v-3.0791a.25291.25291,0,0,1,.081-.19531.28288.28288,0,0,1,.2002-.07617h1.35547a.26083.26083,0,0,1,.27148.27148v3.0791a.27125.27125,0,0,1-.07617.19043.25629.25629,0,0,1-.19531.08106H23.01284A.28288.28288,0,0,1,22.81264,32.32606Z"/><path class="c" d="M32.85952,28.85633a.2634.2634,0,0,1,.07617.19531v2.84082a3.18626,3.18626,0,0,1-.43359,1.67481,2.94768,2.94768,0,0,1-1.18262,1.1123,3.44837,3.44837,0,0,1-1.65918.37891h-1.041a3.26707,3.26707,0,0,1-1.51757-.33594,2.39738,2.39738,0,0,1-.99219-.91113,2.43681,2.43681,0,0,1-.3418-1.26856V29.05164a.25626.25626,0,0,1,.08106-.19531.28355.28355,0,0,1,.20117-.07617h1.13867a.25934.25934,0,0,1,.27051.27148l.01074,2.60254a1,1,0,0,0,.82422-.45019,2.21116,2.21116,0,0,0,.23926-1.13379v-.99707a.28557.28557,0,0,1,.08105-.21192.27324.27324,0,0,1,.2002-.08105h1.12793a.25205.25205,0,0,1,.18945.08691.28843.28843,0,0,1,.082.20606v1.01953a2.823,2.823,0,0,1-.63965,1.95117,2.68673,2.68673,0,0,1-1.81152.835,1.40232,1.40232,0,0,0,.54785.53125,1.55826,1.55826,0,0,0,.75391.18457h.249a2.16363,2.16363,0,0,0,.998-.22754,1.7174,1.7174,0,0,0,.69336-.6289,1.6731,1.6731,0,0,0,.25-.90039V29.05164a.25933.25933,0,0,1,.2705-.27148h1.13868A.26342.26342,0,0,1,32.85952,28.85633Z"/><path class="c" d="M34.133,34.89637a.25774.25774,0,0,1-.08106-.19531V29.05164a.25626.25626,0,0,1,.08106-.19531.28355.28355,0,0,1,.20117-.07617h2.55859a3.41288,3.41288,0,0,1,2.27246.63476,2.632,2.632,0,0,1,.73145,2.08692v3.19922a.26732.26732,0,0,1-.07617.18945.25081.25081,0,0,1-.19434.081H38.34585a.28472.28472,0,0,1-.2002-.07519.25431.25431,0,0,1-.08105-.19531v-3.21A1.08831,1.08831,0,0,0,36.839,30.25477h-.9541v4.44629a.26732.26732,0,0,1-.07617.18945.25432.25432,0,0,1-.19532.081H34.33413A.2871.2871,0,0,1,34.133,34.89637Z"/><path class="c" d="M16.04018,45.74012a.25776.25776,0,0,1-.081-.19531V39.89539a.25628.25628,0,0,1,.081-.19531.28359.28359,0,0,1,.20117-.07617h2.46094a3.29355,3.29355,0,0,1,2.19629.623,2.55861,2.55861,0,0,1,.7207,2.03321v3.2539a.27684.27684,0,0,1-.28125.28125H16.24135A.28713.28713,0,0,1,16.04018,45.74012Zm3.834-1.39942V42.33485a1.08831,1.08831,0,0,0-1.22559-1.23633h-1.041V44.3407Z"/><path class="c" d="M27.68178,39.70008a.26341.26341,0,0,1,.07618.19531V40.828a.269.269,0,0,1-.07618.18945.25777.25777,0,0,1-.19531.08106h-.499a1.6622,1.6622,0,0,0-.2002.55273,3.89924,3.89924,0,0,0-.07031.77051V45.577a.20279.20279,0,0,1-.10352.168.3686.3686,0,0,1-.21093.07031H25.13393a.22361.22361,0,0,1-.23926-.23828V42.30262a2.34217,2.34217,0,0,1,.2168-1.2041H22.63979a.277.277,0,0,1-.27148-.27051v-.93262a.25628.25628,0,0,1,.081-.19531.27129.27129,0,0,1,.19043-.07617h4.84668A.26494.26494,0,0,1,27.68178,39.70008Z"/><path class="c" d="M32.88686,40.30164a2.94723,2.94723,0,0,1,.61817,2.044,3.19151,3.19151,0,0,1-.81348,2.25586A4.323,4.323,0,0,1,30.65249,45.827l-.44434.12989a.20849.20849,0,0,1-.20019-.07618.31045.31045,0,0,1-.09278-.21679V44.56824a.30951.30951,0,0,1,.07617-.20019.53135.53135,0,0,1,.19532-.14649l.34668-.14062a1.75615,1.75615,0,0,0,.78613-.58008,1.81676,1.81676,0,0,0,.28808-1.10058,1.4567,1.4567,0,0,0-.23925-.95411,1.15153,1.15153,0,0,0-.88867-.27148h-.28223L28.74428,41.164a.25933.25933,0,0,1-.2705-.27149V38.38758a.25431.25431,0,0,1,.081-.19531.27057.27057,0,0,1,.18945-.0752h1.1709a.25936.25936,0,0,1,.27149.27051v1.23633h.67187A2.63531,2.63531,0,0,1,32.88686,40.30164Z"/></svg>