<svg xmlns="http://www.w3.org/2000/svg" viewBox="0 0 49.23637 65.37226"><defs><style>.a{fill:#c5c5c5;}.b{fill:none;stroke:#a9acae;stroke-linecap:round;stroke-linejoin:round;stroke-width:1.08437px;}.c{fill:#060505;}</style></defs><rect class="a" width="49.23637" height="65.37226"/><line class="b" x1="25.82539" y1="30.90157" x2="44.44287" y2="30.90157"/><line class="b" x1="15.81725" y1="33.14492" x2="44.44287" y2="33.14492"/><line class="b" x1="11.90727" y1="35.2835" x2="44.44287" y2="35.2835"/><line class="b" x1="18.71187" y1="37.42209" x2="44.44287" y2="37.42209"/><line class="b" x1="25.82539" y1="50.16863" x2="44.44287" y2="50.16863"/><line class="b" x1="15.81725" y1="47.92528" x2="44.44287" y2="47.92528"/><line class="b" x1="11.90727" y1="45.7867" x2="44.44287" y2="45.7867"/><line class="b" x1="8.26118" y1="57.37309" x2="44.44287" y2="57.37309"/><line class="b" x1="5.51559" y1="55.2345" x2="44.44287" y2="55.2345"/><line class="b" x1="5.51559" y1="59.73524" x2="44.44287" y2="59.73524"/><line class="b" x1="18.71187" y1="43.64811" x2="44.44287" y2="43.64811"/><path class="c" d="M14.12684,12.68269a2.66082,2.66082,0,0,1-.73633-2.01172V7.36335a.25354.25354,0,0,1,.08008-.19531.28708.28708,0,0,1,.20117-.0752h2.76563a3.13167,3.13167,0,0,1,2.23242.66114,2.80524,2.80524,0,0,1,.748,1.95215q.01173.10839.01172.50976c0,.27441-.0039.44824-.01172.52051a2.80583,2.80583,0,0,1-.77539,1.97851,3.25621,3.25621,0,0,1-2.30273.67774A3.07621,3.07621,0,0,1,14.12684,12.68269Zm3.22656-1.10645a1.23251,1.23251,0,0,0,.3086-.89453q.01171-.10839.01171-.46582c0-.23144-.0039-.38379-.01171-.456a1.25658,1.25658,0,0,0-.32618-.89942,1.32909,1.32909,0,0,0-.95312-.293H15.0702v2.07129a1.17091,1.17091,0,0,0,.32617.90528,1.3329,1.3329,0,0,0,.93164.29785A1.5143,1.5143,0,0,0,17.3534,11.57624Z"/><path class="c" d="M21.90223,9.02253c.01367.29688.09961.46973.25977.52051l.30273.1084a.2535.2535,0,0,1,.13672.125.43625.43625,0,0,1,.04883.20019l.00976.55371a.28686.28686,0,0,1-.14648.25489.5405.5405,0,0,1-.35156.07031l-.44532-.06543a1.38148,1.38148,0,0,1-.93164-.60156,2.16967,2.16967,0,0,1-.36914-1.2959V7.36335a.37606.37606,0,0,1,.0918-.19531.23725.23725,0,0,1,.17969-.0752h2.18945a2.80588,2.80588,0,0,1,2.12109.73145A3.091,3.091,0,0,1,25.7616,9.879a3.00871,3.00871,0,0,1,.01172.30371,3.42417,3.42417,0,0,1-.69531,2.2832,2.72964,2.72964,0,0,1-2.20117.81836H20.81629a.2789.2789,0,0,1-.19922-.07617.25228.25228,0,0,1-.082-.19531V12.0157a.27846.27846,0,0,1,.28125-.28223H22.8241a1.29534,1.29534,0,0,0,.9043-.31934,1.26467,1.26467,0,0,0,.38477-.90625c.00781-.07226.01172-.17968.01172-.32519,0-.13672-.00391-.24219-.01172-.31446a1.22433,1.22433,0,0,0-.373-.90527,1.31589,1.31589,0,0,0-.916-.32031h-.92187Z"/><path class="c" d="M26.9159,13.20808a.25757.25757,0,0,1-.08008-.19531V7.36335A.26055.26055,0,0,1,26.9159,7.168a.2871.2871,0,0,1,.20117-.0752h1.35547a.25936.25936,0,0,1,.27149.27051v5.64942a.26957.26957,0,0,1-.07618.19043.25628.25628,0,0,1-.19531.081H27.11707A.28359.28359,0,0,1,26.9159,13.20808Z"/><path class="c" d="M30.72254,12.68757a2.5984,2.5984,0,0,1-.75195-1.99512V7.36335a.25354.25354,0,0,1,.08008-.19531.27224.27224,0,0,1,.18945-.0752H31.369a.28232.28232,0,0,1,.19922.0752.25514.25514,0,0,1,.082.19531v3.27539a1.11712,1.11712,0,0,0,.35351.90528,1.47206,1.47206,0,0,0,.98047.29785c.80859,0,1.21875-.38672,1.22461-1.16016a2.21264,2.21264,0,0,0,.00586-.293q-.00587-.18456-.00586-.28125V9.86823A1.93081,1.93081,0,0,0,34.00379,8.92a.62052.62052,0,0,0-.56445-.33105,1.31657,1.31657,0,0,0-.32031.043,1.07848,1.07848,0,0,0-.27539.10839.34417.34417,0,0,1-.09766.02247.22753.22753,0,0,1-.168-.07129.24214.24214,0,0,1-.07031-.17871V7.65632a.42783.42783,0,0,1,.20508-.40137,2.05674,2.05674,0,0,1,1.041-.20605,2.10033,2.10033,0,0,1,1.709.624,3.07363,3.07363,0,0,1,.53515,1.92481V10.7364q-.11718,2.65576-3.01367,2.65625A3.2033,3.2033,0,0,1,30.72254,12.68757Z"/><path class="c" d="M17.61317,24.047a.25967.25967,0,0,1-.082-.19043V18.7823L16.078,19.89851a.2977.2977,0,0,1-.16211.05469.279.279,0,0,1-.22656-.12989l-.67383-.86816a.31487.31487,0,0,1-.043-.16211.27628.27628,0,0,1,.11914-.23828l2.51563-1.94141a.42534.42534,0,0,1,.25-.07617H19.289a.2789.2789,0,0,1,.19922.07617.2537.2537,0,0,1,.082.19531v7.04786a.25228.25228,0,0,1-.082.19531.2789.2789,0,0,1-.19922.07617H17.80262A.26188.26188,0,0,1,17.61317,24.047Z"/><path class="c" d="M20.7909,24.047a.25967.25967,0,0,1-.082-.19043V23.044a.66692.66692,0,0,1,.27148-.543l1.00782-.98633q1.03125-.78077,1.55664-1.21484a5.46242,5.46242,0,0,0,.80273-.78614,1.10279,1.10279,0,0,0,.27539-.667.70922.70922,0,0,0-.80273-.80176.82818.82818,0,0,0-.65039.25489,1.313,1.313,0,0,0-.30274.63378.33232.33232,0,0,1-.36914.25H21.06629a.23029.23029,0,0,1-.168-.07031.22023.22023,0,0,1-.07031-.1582,2.47039,2.47039,0,0,1,.39649-1.29492,2.62258,2.62258,0,0,1,1.04492-.92188,3.37019,3.37019,0,0,1,1.55078-.3418,3.85523,3.85523,0,0,1,1.57226.293,2.13687,2.13687,0,0,1,1.34571,2.06055,2.26629,2.26629,0,0,1-.48242,1.40918A7.58545,7.58545,0,0,1,24.785,21.52546l-.89844.90039h2.74219a.25936.25936,0,0,1,.27149.27051v1.16016a.26957.26957,0,0,1-.07618.19043.25628.25628,0,0,1-.19531.08105H20.98035A.25872.25872,0,0,1,20.7909,24.047Z"/><path class="c" d="M29.18348,23.93269a2.495,2.495,0,0,1-1.07422-.835,2.07249,2.07249,0,0,1-.38476-1.13868.222.222,0,0,1,.22851-.22753h1.52734a.36419.36419,0,0,1,.35938.20605,1.09454,1.09454,0,0,0,.40625.52051,1.15669,1.15669,0,0,0,.63477.16308,1.10314,1.10314,0,0,0,.77343-.28222,1.01628,1.01628,0,0,0,.31055-.792.98034.98034,0,0,0-.30469-.73731,1.07505,1.07505,0,0,0-.77929-.293,1.11878,1.11878,0,0,0-.43555.07129,1.43329,1.43329,0,0,0-.31445.18945.47712.47712,0,0,1-.28125.12989H28.34168a.24009.24009,0,0,1-.23828-.23828l.40235-3.80664a.32351.32351,0,0,1,.11328-.23829.36824.36824,0,0,1,.24414-.08691h4.41406a.259.259,0,0,1,.19336.07617.26342.26342,0,0,1,.07617.19531v1.084a.27129.27129,0,0,1-.07617.19043.25207.25207,0,0,1-.19336.08105H30.121l-.13086,1.334a1.92927,1.92927,0,0,1,.58594-.27735,3.22184,3.22184,0,0,1,.8457-.09179,2.83593,2.83593,0,0,1,1.30078.30859,2.46578,2.46578,0,0,1,.97071.873,2.33232,2.33232,0,0,1,.36328,1.291,2.5051,2.5051,0,0,1-.37891,1.36035,2.54833,2.54833,0,0,1-1.10156.94336,3.92236,3.92236,0,0,1-1.69531.3418A4.16324,4.16324,0,0,1,29.18348,23.93269Z"/></svg>