<svg xmlns="http://www.w3.org/2000/svg" viewBox="0 0 17.42929 21.90436"><defs><style>.a{fill:#c6933d;}.b{fill:#f6b951;}.c{fill:#ffd285;}</style></defs><path class="a" d="M17.2875,10.576l-.02978-.05322a1.80259,1.80259,0,0,0-.10352-.1875l-.31209-.61447-.25342.00342c-.043-.03369-.07617-.07422-.123-.105L3.08185.85359a1.84551,1.84551,0,0,0-2.853,1.565v17.012c0,.02961-.00009.05922,0,.08882.00007.02493.00415.04847.00607.07308a.20109.20109,0,0,1-.06392.14895.32028.32028,0,0,0-.08575.10829.20157.20157,0,0,0,.00412.10348,1.6448,1.6448,0,0,0,.15436.44092c.08181.14438.18247.2812.2727.42056a4.61027,4.61027,0,0,0,.30049.43538c.00861.00431.0177.0202.02417.02744q.02933.03285.0603.0642.05925.0602.12369.115a1.90713,1.90713,0,0,0,.27427.19419,1.87235,1.87235,0,0,0,.62805.2288,1.80957,1.80957,0,0,0,1.29128-.27538l13.38378-8.76562A1.85164,1.85164,0,0,0,17.2875,10.576Z"/><path class="b" d="M16.23683,9.07012,2.85326.30436A1.84331,1.84331,0,0,0,0,1.84636V19.37787a1.8433,1.8433,0,0,0,2.85326,1.542l13.38357-8.76575A1.84331,1.84331,0,0,0,16.23683,9.07012Z"/><path class="c" d="M1.17177,18.45323V3.32965a1.46155,1.46155,0,0,1,.42809-1.0335h0a1.46158,1.46158,0,0,1,1.8373-.18722l9.54629,6.25633L11.29252,7.759A2.75184,2.75184,0,0,0,7.92164,9.081l-5.1524,9.92075a.89291.89291,0,0,1-.957.30793h0A.8929.8929,0,0,1,1.17177,18.45323Z"/></svg>