<svg preserveAspectRatio="none" xmlns="http://www.w3.org/2000/svg" viewBox="0 0 384 216"><defs><style>.a{fill:#ededed;}.b{fill:#b2b2b2;}.c,.d,.e,.f,.h,.j{fill:none;}.c{stroke:#b2b2b2;stroke-width:23px;}.c,.k,.l{stroke-linejoin:round;}.d{stroke:#2d2a28;stroke-width:4px;}.d,.e,.f,.h,.j{stroke-miterlimit:10;}.e{stroke:#29235c;stroke-width:2.79277px;opacity:0.14;}.f{stroke:#fff;stroke-width:2.09458px;}.g{fill:#1ac179;}.h{stroke:#17995e;}.h,.j{stroke-width:0.52364px;}.i,.k{fill:#95cfe2;}.j,.k,.l{stroke:#6ab8e2;}.k,.l{stroke-linecap:round;stroke-width:0.53266px;}.l{fill:#6ab8e2;}.m{fill:#455a60;}</style></defs><rect class="a" width="384" height="217.53929"/><path class="b" d="M35.91531,180.05739H348.07248a0,0,0,0,1,0,0v16.05936a5.14142,5.14142,0,0,1-5.14142,5.14142H41.05672a5.14142,5.14142,0,0,1-5.14142-5.14142V180.05739A0,0,0,0,1,35.91531,180.05739Z"/><line class="c" x1="190.22076" y1="187.3512" x2="190.22076" y2="220.16829"/><path class="a" d="M43.59124,20.30771H340.40813a5.18018,5.18018,0,0,1,5.18018,5.18018V182.839a5.17969,5.17969,0,0,1-5.17969,5.17969H43.59172a5.18018,5.18018,0,0,1-5.18018-5.18018V25.48739A5.17969,5.17969,0,0,1,43.59124,20.30771Z"/><path class="b" d="M340.40862,22.80787a2.68014,2.68014,0,0,1,2.68017,2.6801V182.83853a2.68016,2.68016,0,0,1-2.68017,2.68014H43.59124a2.68014,2.68014,0,0,1-2.68006-2.68014V25.488a2.68012,2.68012,0,0,1,2.68006-2.6801H340.40862m0-5H43.59124a7.68875,7.68875,0,0,0-7.68006,7.6801V182.83853a7.68876,7.68876,0,0,0,7.68006,7.68014H340.40862a7.68886,7.68886,0,0,0,7.68017-7.68014V25.488a7.68885,7.68885,0,0,0-7.68017-7.6801Z"/><rect class="d" x="40.91115" y="22.80787" width="302.17759" height="162.71077" rx="2.68011"/><circle class="e" cx="339.55362" cy="194.60251" r="2.24022"/><circle class="f" cx="339.55362" cy="194.60251" r="2.24022"/><circle class="g" cx="339.55362" cy="194.60251" r="2.24022"/><circle class="h" cx="339.55362" cy="194.60251" r="2.24022"/><circle class="e" cx="328.23322" cy="194.60251" r="2.24022"/><circle class="f" cx="328.23322" cy="194.60251" r="2.24022"/><circle class="i" cx="328.23322" cy="194.60251" r="2.24022"/><circle class="j" cx="328.23322" cy="194.60251" r="2.24022"/><polygon class="k" points="79.531 98.415 12.09 83.771 28.975 6.004 89.839 19.22 87.659 28.154 94.883 27.711 79.531 98.415"/><polygon class="l" points="89.839 19.22 94.883 27.711 87.659 28.154 89.839 19.22"/><path class="m" d="M43.31,18.2872a1.84617,1.84617,0,0,1,.22949,1.56836l-.51074,2.35254a.1983.1983,0,0,1-.085.126.19011.19011,0,0,1-.15332.02832l-.92285-.20117a.2055.2055,0,0,1-.13281-.08594.187.187,0,0,1-.02734-.15429l.502-2.3125a.8029.8029,0,0,0-.68945-1.084l-.50782-.11035a4.86554,4.86554,0,0,0-.36718,1.124l-.38379,2.06934a.19205.19205,0,0,1-.08985.12891.20964.20964,0,0,1-.15625.02343l-1.65527-.36816a.20084.20084,0,0,1-.13281-.08691.18788.18788,0,0,1-.02832-.15235l.13476-.61816a.19114.19114,0,0,1,.08887-.12793.20455.20455,0,0,1,.15625-.02344l.63379.1377.2666-1.22754a4.38864,4.38864,0,0,1,.36719-1.13184l-.46094-.09961a.21576.21576,0,0,1-.13281-.08594.19051.19051,0,0,1-.02735-.15332l.14551-.67285a.18485.18485,0,0,1,.08887-.127.21346.21346,0,0,1,.15723-.02539l2.18164.47461A2.47627,2.47627,0,0,1,43.31,18.2872Z"/><path class="m" d="M43.93987,22.55478a.19021.19021,0,0,1-.02832-.15528l.88379-4.07226a.18824.18824,0,0,1,.08984-.127.20687.20687,0,0,1,.15625-.02441l.97754.21191a.18992.18992,0,0,1,.15234.23828l-.88379,4.07227a.20269.20269,0,0,1-.084.127.19208.19208,0,0,1-.1543.02735l-.97754-.21192A.21356.21356,0,0,1,43.93987,22.55478Z"/><path class="m" d="M50.017,19.76864a2.16853,2.16853,0,0,1,.125,1.57032,2.34537,2.34537,0,0,1-.93946,1.498,3.17821,3.17821,0,0,1-1.66113.56446l-.34082.02343a.14909.14909,0,0,1-.13184-.085.2252.2252,0,0,1-.0332-.17187l.1709-.78907a.23117.23117,0,0,1,.08594-.13281.40477.40477,0,0,1,.165-.07422l.27148-.04785a1.29139,1.29139,0,0,0,.65723-.29492,1.33944,1.33944,0,0,0,.37988-.748,1.07963,1.07963,0,0,0-.02246-.72558.85382.85382,0,0,0-.59863-.335l-.17969-.03809-.02442-.00488L46.895,19.7413a.19066.19066,0,0,1-.12793-.08594.19789.19789,0,0,1-.02442-.15234l.39258-1.80567a.1868.1868,0,0,1,.08887-.12793.20254.20254,0,0,1,.14746-.02539l.84473.1836a.198.198,0,0,1,.12988.08593.19379.19379,0,0,1,.02441.15235l-.19336.89062.48438.10547A1.93721,1.93721,0,0,1,50.017,19.76864Z"/><path class="m" d="M50.79924,22.10263a.18462.18462,0,0,1-.02734-.15235l.48144-2.2207a.18893.18893,0,0,1,.08887-.12793.21793.21793,0,0,1,.15723-.02441l.97754.21289a.19015.19015,0,0,1,.15136.23828l-.48144,2.2207a.20171.20171,0,0,1-.084.124.19018.19018,0,0,1-.15333.02833l-.97753-.2129A.20548.20548,0,0,1,50.79924,22.10263Z"/><path class="m" d="M57.5844,20.95712a.19148.19148,0,0,1,.02441.15332l-.502,2.3125a1.73665,1.73665,0,0,1-.81934,1.16992,2.924,2.924,0,0,1-1.66406.35352l-2.09375-.01172a.18711.18711,0,0,1-.14453-.07227A.17869.17869,0,0,1,52.35,24.7081l.14747-.67969a.20656.20656,0,0,1,.081-.127.22715.22715,0,0,1,.14453-.04688l.91406-.02148-.2041-3.50782a.88036.88036,0,0,1-.00586-.16406.15181.15181,0,0,1,.07032-.09961.155.155,0,0,1,.12109-.02344l1.01562.22071a.20375.20375,0,0,1,.11036.06054.18177.18177,0,0,1,.04394.09571l.08789,3.36718a1.09913,1.09913,0,0,0,.67383-.31543,1.58514,1.58514,0,0,0,.32031-.72167l.417-1.92188a.1893.1893,0,0,1,.08594-.12891.19549.19549,0,0,1,.15235-.02539l.93066.20215A.19266.19266,0,0,1,57.5844,20.95712Z"/><path class="m" d="M59.24846,22.71884c-.03515.21582,0,.35449.10742.415l.20118.126a.18752.18752,0,0,1,.07812.11133.29777.29777,0,0,1,.00391.15235l-.07813.39941a.21469.21469,0,0,1-.14551.16211.39766.39766,0,0,1-.26464-.00391l-.31153-.11718a1.0133,1.0133,0,0,1-.57715-.58008,1.6082,1.6082,0,0,1-.06347-.99219l.23926-1.10156a.27014.27014,0,0,1,.09765-.127.17242.17242,0,0,1,.14063-.02734l1.5791.34277a2.06855,2.06855,0,0,1,1.41308.86036,2.27965,2.27965,0,0,1,.23047,1.60156c-.00586.05273-.01953.126-.04.21972a2.52816,2.52816,0,0,1-.85839,1.53809,2.01719,2.01719,0,0,1-1.71485.24512l-1.48535-.32227a.21309.21309,0,0,1-.13281-.08594.1884.1884,0,0,1-.02735-.15429l.15528-.71778a.20241.20241,0,0,1,.09082-.13281.19717.19717,0,0,1,.15722-.02734l1.44629.31445a.96572.96572,0,0,0,.70313-.08887.93373.93373,0,0,0,.41894-.59277c.0166-.05078.03614-.12891.0586-.2334.02148-.09961.03515-.1748.042-.22754a.917.917,0,0,0-.12793-.71289.976.976,0,0,0-.61133-.373l-.665-.14356Z"/><path class="m" d="M68.80413,23.82333a1.84826,1.84826,0,0,1,.22949,1.56836l-.51074,2.35156a.19721.19721,0,0,1-.08594.126.1843.1843,0,0,1-.15235.02832l-.92285-.2002a.21315.21315,0,0,1-.13281-.08593.18994.18994,0,0,1-.02734-.15528l.502-2.3125a.80289.80289,0,0,0-.68945-1.084l-.50782-.11035a4.86538,4.86538,0,0,0-.36718,1.124l-.38379,2.06934a.19109.19109,0,0,1-.09082.1289.20786.20786,0,0,1-.15528.02344L63.853,26.92685a.20109.20109,0,0,1-.13183-.08692.18817.18817,0,0,1-.0293-.15234l.13477-.61817a.18926.18926,0,0,1,.08984-.12793.20716.20716,0,0,1,.15527-.02343l.63379.13769.2666-1.22754a4.42633,4.42633,0,0,1,.36817-1.13183l-.46094-.09961a.2158.2158,0,0,1-.13281-.08594.18857.18857,0,0,1-.02832-.15234l.14551-.67383a.1882.1882,0,0,1,.08984-.127.20861.20861,0,0,1,.15723-.02442l2.18066.47363A2.47494,2.47494,0,0,1,68.80413,23.82333Z"/><path class="m" d="M69.434,28.08993a.18512.18512,0,0,1-.02832-.1543l.88379-4.07226a.18793.18793,0,0,1,.08984-.12793.21064.21064,0,0,1,.15625-.02441l.97754.21191a.19844.19844,0,0,1,.12793.08594.19282.19282,0,0,1,.02441.15332l-.88378,4.07226a.1983.1983,0,0,1-.085.126.18615.18615,0,0,1-.15332.02734l-.97754-.21191A.211.211,0,0,1,69.434,28.08993Z"/><path class="m" d="M76.65276,25.09677a.19282.19282,0,0,1,.02441.15332l-.502,2.31347a1.74012,1.74012,0,0,1-.82031,1.16993,2.932,2.932,0,0,1-1.66407.35351l-2.09375-.01172a.18369.18369,0,0,1-.14355-.07226.17841.17841,0,0,1-.03516-.15528l.14746-.67968a.208.208,0,0,1,.08008-.127.23013.23013,0,0,1,.14453-.04589l.91407-.02247-.2041-3.50683a.889.889,0,0,1-.00586-.165.14986.14986,0,0,1,.07031-.09863.15554.15554,0,0,1,.12109-.02442l1.0166.22071a.20441.20441,0,0,1,.10938.06054.1817.1817,0,0,1,.04394.09571l.08789,3.36816a1.105,1.105,0,0,0,.67383-.31641,1.57619,1.57619,0,0,0,.32032-.7207l.417-1.92285a.19485.19485,0,0,1,.08691-.12891.19213.19213,0,0,1,.15137-.02441l.93066.20117A.20061.20061,0,0,1,76.65276,25.09677Z"/><path class="m" d="M82.6176,26.39267a.18963.18963,0,0,1,.02344.15234l-.44434,2.04785a2.35769,2.35769,0,0,1-.57421,1.14063,2.18326,2.18326,0,0,1-1.02637.61621,2.54955,2.54955,0,0,1-1.25586.01367l-.751-.16309a2.39362,2.39362,0,0,1-1.041-.47949,1.7576,1.7576,0,0,1-.62012-1.78027l.5459-2.51758a.18887.18887,0,0,1,.08887-.12793.2179.2179,0,0,1,.15722-.02441l.82129.17871a.19015.19015,0,0,1,.15137.23828l-.39844,1.87793a.73348.73348,0,0,0,.66406-.19531,1.64179,1.64179,0,0,0,.34961-.78028l.15625-.71875a.20974.20974,0,0,1,.09278-.13965.19809.19809,0,0,1,.15625-.02734l.81347.17578a.189.189,0,0,1,.123.09375.21759.21759,0,0,1,.02637.16113l-.16016.73536a2.07758,2.07758,0,0,1-.76562,1.30566,1.98382,1.98382,0,0,1-1.43653.31934,1.01955,1.01955,0,0,0,.31153.46875,1.15,1.15,0,0,0,.51464.25l.17969.03906a1.57057,1.57057,0,0,0,.75391-.00781,1.24693,1.24693,0,0,0,.59863-.34571,1.22018,1.22018,0,0,0,.32227-.60742l.43554-2.00977a.19419.19419,0,0,1,.23731-.15429l.82226.17871A.19735.19735,0,0,1,82.6176,26.39267Z"/><path class="m" d="M55.57561,37.40927a1.25031,1.25031,0,0,1-.44824-.54981,1.14955,1.14955,0,0,1-.05176-.69922,1.09011,1.09011,0,0,1,.30469-.56836,1.1699,1.1699,0,0,1,.55371-.30078.98754.98754,0,0,1-.28613-.43261,1.03152,1.03152,0,0,1-.01661-.54786.98933.98933,0,0,1,.55567-.72265,1.8926,1.8926,0,0,1,2.00293.43164.98876.98876,0,0,1,.20215.89062,1.001,1.001,0,0,1-.24024.48438,1.05371,1.05371,0,0,1-.43457.28418,1.17209,1.17209,0,0,1,.37793.50293,1.09389,1.09389,0,0,1,.03906.64941,1.13515,1.13515,0,0,1-.335.61231,1.26773,1.26773,0,0,1-.63476.31054,2.246,2.246,0,0,1-1.58887-.34472Zm1.60156-.19629a.7246.7246,0,0,0,.24512-1.126,1.28976,1.28976,0,0,0-1.39551-.30273.72428.72428,0,0,0-.24511,1.126,1.16016,1.16016,0,0,0,.65527.36329A1.14582,1.14582,0,0,0,57.17717,37.213Zm.33594-1.98926a.56421.56421,0,0,0,.35059-.416.58164.58164,0,0,0-.14063-.53028,1.15246,1.15246,0,0,0-1.2168-.26465.61036.61036,0,0,0-.208.95606,1.02534,1.02534,0,0,0,.57226.31054A1.09123,1.09123,0,0,0,57.51311,35.22372Z"/><path class="m" d="M58.65667,38.1329a.13876.13876,0,0,1-.01368-.10352l.085-.39355a.143.143,0,0,1,.05762-.09473.121.121,0,0,1,.10156-.01757l.4043.08789a.13291.13291,0,0,1,.11133.17089l-.085.39356a.13123.13123,0,0,1-.0625.08691.14486.14486,0,0,1-.1084.0166l-.4043-.08789A.12316.12316,0,0,1,58.65667,38.1329Zm.44531-2.05176a.14059.14059,0,0,1-.01367-.10449l.085-.39258a.1543.1543,0,0,1,.05761-.0957.12745.12745,0,0,1,.10254-.01758l.4043.08789a.14752.14752,0,0,1,.09473.05957.15041.15041,0,0,1,.01562.11231l-.085.39257a.13314.13314,0,0,1-.0625.0879.1439.1439,0,0,1-.1084.01562l-.40429-.08789A.12412.12412,0,0,1,59.102,36.08114Z"/><path class="m" d="M60.52288,38.17685a1.98257,1.98257,0,0,1-.12012-1.24024l.10351-.50488.11915-.52051a1.90662,1.90662,0,0,1,.62207-1.07129,1.6473,1.6473,0,0,1,2.21679.48145,1.89918,1.89918,0,0,1,.12207,1.2334c-.02051.10937-.05566.28418-.10742.52246-.05078.23047-.08887.39941-.11523.50293a1.97385,1.97385,0,0,1-.624,1.07812,1.65016,1.65016,0,0,1-2.21679-.48144Zm1.86035.04394a1.451,1.451,0,0,0,.42383-.793q.04248-.167.11132-.48535c.04688-.21387.08008-.376.09864-.48144a1.44351,1.44351,0,0,0-.06055-.89454.821.821,0,0,0-.61133-.44824.81267.81267,0,0,0-.74023.15528,1.45278,1.45278,0,0,0-.42285.78906l-.11036.47851-.09961.48828a1.45806,1.45806,0,0,0,.05665.89747.93827.93827,0,0,0,1.35449.29394Z"/><path class="m" d="M64.22893,38.98153a1.9755,1.9755,0,0,1-.12109-1.24023l.10449-.50488.11914-.52051a1.89577,1.89577,0,0,1,.62207-1.07129,1.64786,1.64786,0,0,1,2.2168.48144,1.91117,1.91117,0,0,1,.12207,1.2334c-.02051.10938-.05567.28418-.10742.52246-.05079.23047-.08887.39844-.11622.50293a1.97872,1.97872,0,0,1-.623,1.07813,1.64963,1.64963,0,0,1-2.2168-.48145Zm1.85938.044a1.449,1.449,0,0,0,.4248-.793q.041-.167.11035-.48633c.04688-.21289.08008-.375.09961-.48047a1.43443,1.43443,0,0,0-.06152-.89453.81918.81918,0,0,0-.61133-.44824.8086.8086,0,0,0-.73926.15527,1.44738,1.44738,0,0,0-.42383.78907l-.11035.47851-.09961.48828a1.45015,1.45015,0,0,0,.05762.89746.937.937,0,0,0,1.35352.294Z"/><path class="m" d="M67.88518,38.544a.12814.12814,0,0,1-.01758-.10254l.0459-.21093a.13357.13357,0,0,1,.05957-.08887.12579.12579,0,0,1,.10352-.0166l1.75879.38086a.14274.14274,0,0,1,.08984.05957.13626.13626,0,0,1,.0166.10547l-.0459.21093a.12233.12233,0,0,1-.05859.08594.1507.1507,0,0,1-.10449.01465l-1.75977-.38281A.13494.13494,0,0,1,67.88518,38.544Z"/><path class="m" d="M71.25139,40.86728a.13811.13811,0,0,1-.01367-.10352l.71777-3.30762-1.14941.542a.13749.13749,0,0,1-.0957.01758.13588.13588,0,0,1-.08692-.082l-.10156-.21191a.13414.13414,0,0,1-.01074-.08789.12492.12492,0,0,1,.081-.09278l1.48633-.709a.27924.27924,0,0,1,.16113-.00781l.27539.05957a.13232.13232,0,0,1,.10547.165l-.832,3.834a.13264.13264,0,0,1-.05957.08789.12958.12958,0,0,1-.10449.01758l-.28711-.0625A.12323.12323,0,0,1,71.25139,40.86728Z"/><path class="m" d="M72.5385,41.14657a.127.127,0,0,1-.0166-.10351l.03809-.17774a.35263.35263,0,0,1,.20214-.22558l1.55469-.99512a3.6933,3.6933,0,0,0,.72852-.47266.88682.88682,0,0,0,.27343-.46289.763.763,0,0,0-.07617-.585.77414.77414,0,0,0-.52051-.31836.762.762,0,0,0-.60058.084.94587.94587,0,0,0-.37305.49609.158.158,0,0,1-.08008.08789.16547.16547,0,0,1-.10156.01367l-.28125-.06152a.12516.12516,0,0,1-.08008-.05274.11586.11586,0,0,1-.01757-.08984,1.407,1.407,0,0,1,.29785-.56543,1.26888,1.26888,0,0,1,.56347-.376,1.43653,1.43653,0,0,1,.7793-.02246,1.33626,1.33626,0,0,1,.91211.55664,1.22787,1.22787,0,0,1,.14355.94239,1.28533,1.28533,0,0,1-.32421.627,2.77548,2.77548,0,0,1-.69532.50293l-1.41015.92188,1.84668.40136a.13539.13539,0,0,1,.09277.05664.13958.13958,0,0,1,.01367.10742l-.04785.22266a.136.136,0,0,1-.05957.08789.13187.13187,0,0,1-.10547.01758l-2.56836-.55859A.12523.12523,0,0,1,72.5385,41.14657Z"/><path class="m" d="M76.07659,41.91513a.13811.13811,0,0,1-.01367-.10352l.085-.39355a.14544.14544,0,0,1,.05761-.09473.12539.12539,0,0,1,.10157-.01855l.40429.08789a.15083.15083,0,0,1,.09571.06054.14719.14719,0,0,1,.01562.11133l-.085.39356a.1312.1312,0,0,1-.0625.08691.139.139,0,0,1-.1084.01562l-.4043-.08789A.1212.1212,0,0,1,76.07659,41.91513Zm.44531-2.05176a.14126.14126,0,0,1-.01367-.10449l.085-.39258a.15162.15162,0,0,1,.05762-.0957.13233.13233,0,0,1,.10253-.01856l.4043.08789a.13485.13485,0,0,1,.11035.17285l-.085.39258a.13312.13312,0,0,1-.0625.08789.14727.14727,0,0,1-.1084.0166l-.40429-.08789A.1307.1307,0,0,1,76.5219,39.86337Z"/><path class="m" d="M77.94377,41.95907a1.97476,1.97476,0,0,1-.12109-1.24023l.10449-.50488.11817-.52051a1.90221,1.90221,0,0,1,.623-1.07129,1.64786,1.64786,0,0,1,2.2168.48144,1.91111,1.91111,0,0,1,.12207,1.2334c-.02051.11035-.05566.28418-.10742.52246-.05078.23047-.08887.39844-.11621.50293a1.97516,1.97516,0,0,1-.623,1.07813,1.64963,1.64963,0,0,1-2.2168-.48145Zm1.85938.044a1.45139,1.45139,0,0,0,.42383-.792c.02832-.11133.06543-.27442.11133-.48633.04687-.21387.08007-.375.09863-.48047a1.4421,1.4421,0,0,0-.06055-.89453.92834.92834,0,0,0-1.35156-.29395,1.45245,1.45245,0,0,0-.42285.79l-.11035.47754-.09961.48926a1.45546,1.45546,0,0,0,.05664.89648.93828.93828,0,0,0,1.35449.294Z"/><path class="m" d="M81.64885,42.76376a1.99527,1.99527,0,0,1-.12109-1.24023l.10449-.50489.11914-.52051a1.90667,1.90667,0,0,1,.62207-1.07128,1.64732,1.64732,0,0,1,2.2168.48144,1.89843,1.89843,0,0,1,.12207,1.2334c-.02051.11035-.05566.28418-.10742.52246-.05078.23047-.08887.39844-.11621.50293a1.95786,1.95786,0,0,1-.623,1.07813,1.65018,1.65018,0,0,1-2.2168-.48145Zm1.86035.044a1.45136,1.45136,0,0,0,.42383-.792q.04248-.16845.11133-.48633c.04688-.21386.08008-.376.09863-.48046a1.44587,1.44587,0,0,0-.06054-.89551.82092.82092,0,0,0-.61133-.44824.81266.81266,0,0,0-.74024.15527,1.4462,1.4462,0,0,0-.42285.79l-.11035.47754-.09961.48926a1.44838,1.44838,0,0,0,.05664.89648.93828.93828,0,0,0,1.35449.294Z"/><path class="m" d="M52.27385,45.95614a.13374.13374,0,0,1-.01367-.10351l.71875-3.30762-1.15137.543a.11932.11932,0,0,1-.18066-.06445l-.10254-.2129a.14063.14063,0,0,1-.01074-.08789.12491.12491,0,0,1,.081-.09277l1.48633-.71a.30717.30717,0,0,1,.16113-.00781l.27637.06054a.13551.13551,0,0,1,.10449.165l-.833,3.835a.12944.12944,0,0,1-.0586.08692.13375.13375,0,0,1-.10449.01855l-.28809-.0625A.12246.12246,0,0,1,52.27385,45.95614Z"/><path class="m" d="M54.18987,46.31845a1.27416,1.27416,0,0,1-.42188-.501.94188.94188,0,0,1-.07617-.53809.10835.10835,0,0,1,.05371-.07714.12612.12612,0,0,1,.09473-.01368l.26465.05762a.19183.19183,0,0,1,.09863.04883.18077.18077,0,0,1,.042.11719.62737.62737,0,0,0,.24024.49414,1.39714,1.39714,0,0,0,.57422.2539,1.05438,1.05438,0,0,0,.71484-.05761.7138.7138,0,0,0,.374-.52344q.15528-.71338-.71679-.90527l-.55274-.11914a.12944.12944,0,0,1-.08691-.0586.13539.13539,0,0,1-.01856-.10547l.03321-.15234a.22206.22206,0,0,1,.09863-.13867l1.41894-1.01758-1.73632-.377a.13824.13824,0,0,1-.08887-.05664.12543.12543,0,0,1-.01856-.10157l.0459-.21093a.1486.1486,0,0,1,.06055-.09473.14043.14043,0,0,1,.10547-.01856l2.32226.50489a.13812.13812,0,0,1,.09375.06152.136.136,0,0,1,.01563.11035l-.042.19238a.21238.21238,0,0,1-.08789.123l-1.42188,1.03613.09375.02051a1.53144,1.53144,0,0,1,.87988.51563,1.086,1.086,0,0,1,.16309.93261,1.18391,1.18391,0,0,1-.335.624,1.262,1.262,0,0,1-.625.3125,1.94938,1.94938,0,0,1-.79981-.01758A2.00942,2.00942,0,0,1,54.18987,46.31845Z"/><path class="m" d="M57.18206,47.02157a.13.13,0,0,1-.01563-.10351l.08594-.39258a.143.143,0,0,1,.05762-.09473.12182.12182,0,0,1,.10156-.01855l.40527.08789a.13809.13809,0,0,1,.09375.06152.136.136,0,0,1,.01563.11035l-.085.39258a.13.13,0,0,1-.06153.08692.14025.14025,0,0,1-.1084.01757l-.40527-.08789A.12056.12056,0,0,1,57.18206,47.02157Zm.44531-2.05176a.14088.14088,0,0,1-.01563-.10449l.08594-.39258a.14276.14276,0,0,1,.05859-.09472.119.119,0,0,1,.10059-.01856l.40527.08789a.146.146,0,0,1,.09473.06153.144.144,0,0,1,.01563.11035l-.085.39258a.13.13,0,0,1-.0625.08789.14418.14418,0,0,1-.10839.0166l-.40528-.08789A.1223.1223,0,0,1,57.62737,44.96981Z"/><path class="m" d="M59.04729,47.06649a1.97656,1.97656,0,0,1-.12012-1.24023l.10352-.50586.11914-.51953a1.9128,1.9128,0,0,1,.62207-1.07227,1.6483,1.6483,0,0,1,2.2168.48243,1.90179,1.90179,0,0,1,.12207,1.23242q-.0293.16553-.10743.52343c-.0498.23047-.08886.39844-.11523.502a1.97259,1.97259,0,0,1-.624,1.07812,1.64866,1.64866,0,0,1-2.2168-.48047Zm1.86035.043a1.44844,1.44844,0,0,0,.42481-.792q.041-.167.11035-.48535c.04687-.21484.0791-.375.09961-.48145a1.43443,1.43443,0,0,0-.06153-.89453.81866.81866,0,0,0-.61035-.44824.80968.80968,0,0,0-.74023.1543,1.45045,1.45045,0,0,0-.42383.79l-.11035.47949-.09961.4873a1.44232,1.44232,0,0,0,.05762.89746.93617.93617,0,0,0,1.35351.293Z"/><path class="m" d="M62.75237,47.87118a1.99031,1.99031,0,0,1-.12012-1.24023l.10352-.50586.11914-.51953a1.91825,1.91825,0,0,1,.62207-1.07227,1.64823,1.64823,0,0,1,2.21777.48145,1.90551,1.90551,0,0,1,.12207,1.23339q-.0293.16554-.10742.52247c-.04981.23046-.08887.39941-.11523.50293a1.97758,1.97758,0,0,1-.62305,1.07812,1.653,1.653,0,0,1-2.21875-.48047Zm1.86133.043a1.454,1.454,0,0,0,.42382-.792q.04248-.167.11133-.48535c.04688-.21485.0791-.375.09864-.48145a1.4421,1.4421,0,0,0-.06055-.89453.92834.92834,0,0,0-1.35156-.29395,1.45249,1.45249,0,0,0-.42286.79l-.11035.4795-.09961.4873a1.44774,1.44774,0,0,0,.05664.89649.93828.93828,0,0,0,1.3545.29394Z"/><path class="m" d="M66.40959,47.43368a.12668.12668,0,0,1-.01757-.10351l.0459-.21094a.13039.13039,0,0,1,.05859-.08789.13187.13187,0,0,1,.10547-.01758l1.75879.38184a.13455.13455,0,0,1,.10644.16406l-.0459.21094a.13624.13624,0,0,1-.05859.08691.14877.14877,0,0,1-.10547.01367l-1.75879-.38183A.14788.14788,0,0,1,66.40959,47.43368Z"/><path class="m" d="M69.77581,49.756a.13562.13562,0,0,1-.01368-.10254l.71875-3.30762-1.15136.543a.1208.1208,0,0,1-.18067-.06543l-.10254-.21191a.15182.15182,0,0,1-.01074-.08887.12984.12984,0,0,1,.082-.09277l1.48535-.709a.29122.29122,0,0,1,.16211-.00781l.27539.05957a.1362.1362,0,0,1,.08789.06055.13273.13273,0,0,1,.01758.10449l-.833,3.835a.13728.13728,0,0,1-.0586.08789.13253.13253,0,0,1-.10547.01758l-.28711-.06153A.12465.12465,0,0,1,69.77581,49.756Z"/><path class="m" d="M71.53264,50.13778A.13219.13219,0,0,1,71.52,50.0411l.02343-.05078,2.21-3.1123L71.8178,46.4581a.135.135,0,0,1-.08789-.05957.12893.12893,0,0,1-.01758-.1045l.04687-.21679a.15078.15078,0,0,1,.05762-.09473.13163.13163,0,0,1,.1084-.01758l2.39258.51953a.13285.13285,0,0,1,.09082.06055.144.144,0,0,1,.01367.11035l-.043.19922a.64532.64532,0,0,1-.09765.21777l-2.1836,3.07422a.45033.45033,0,0,1-.08789.09278.12779.12779,0,0,1-.1084.01953l-.293-.06348A.10549.10549,0,0,1,71.53264,50.13778Z"/><path class="m" d="M74.16741,50.71005a.13385.13385,0,0,1-.01465-.10352l.08594-.39355a.14349.14349,0,0,1,.05664-.09375.125.125,0,0,1,.10254-.01953l.40429.08789a.14125.14125,0,0,1,.09473.0625.13681.13681,0,0,1,.01562.10937l-.085.39356a.13312.13312,0,0,1-.06152.08691.14624.14624,0,0,1-.10937.01758l-.4043-.08789A.12455.12455,0,0,1,74.16741,50.71005Zm.44531-2.05176a.14628.14628,0,0,1-.01465-.10449l.08594-.39258a.143.143,0,0,1,.05762-.09473.12572.12572,0,0,1,.10156-.01953l.4043.08789a.13664.13664,0,0,1,.11132.17286l-.085.39257a.1331.1331,0,0,1-.0625.08789.15056.15056,0,0,1-.10937.01661l-.4043-.0879A.1264.1264,0,0,1,74.61272,48.65829Z"/><path class="m" d="M76.03362,50.754a1.98151,1.98151,0,0,1-.1211-1.24023l.1045-.50488.11816-.52051a1.90774,1.90774,0,0,1,.623-1.07129,1.64729,1.64729,0,0,1,2.21679.48145,1.90461,1.90461,0,0,1,.12207,1.23339q-.02929.16554-.10742.52246c-.0498.23047-.08886.39844-.11523.50293a1.97624,1.97624,0,0,1-.624,1.07813,1.64963,1.64963,0,0,1-2.2168-.48145Zm1.86035.04395a1.454,1.454,0,0,0,.42383-.792q.04248-.167.11133-.48535c.04687-.21485.0791-.376.09863-.48145a1.4421,1.4421,0,0,0-.06055-.89453.92834.92834,0,0,0-1.35156-.294,1.45245,1.45245,0,0,0-.42285.79l-.11035.47852-.09961.48828a1.44763,1.44763,0,0,0,.05664.89648.93783.93783,0,0,0,1.35449.29395Z"/><path class="m" d="M79.7387,51.55868a1.98862,1.98862,0,0,1-.12012-1.24023l.10351-.50489.11915-.5205a1.91206,1.91206,0,0,1,.62207-1.07129,1.64676,1.64676,0,0,1,2.21679.48144,1.89214,1.89214,0,0,1,.12207,1.2334q-.0293.16552-.10742.52246c-.0498.23047-.08887.39844-.11523.50293a1.96461,1.96461,0,0,1-.624,1.07813,1.65017,1.65017,0,0,1-2.21679-.48145ZM81.6,51.60263a1.454,1.454,0,0,0,.42383-.792c.02832-.1123.06543-.27343.11133-.48535.04688-.21484.0791-.376.09863-.48144a1.44587,1.44587,0,0,0-.06054-.89551.82271.82271,0,0,0-.61133-.44824.81266.81266,0,0,0-.74024.15527,1.44626,1.44626,0,0,0-.42285.79l-.11035.47852-.09961.48828a1.44069,1.44069,0,0,0,.05664.89648.81194.81194,0,0,0,.61035.44531A.82119.82119,0,0,0,81.6,51.60263Z"/><path class="m" d="M27.4262,49.76571a.14893.14893,0,0,1-.02246-.11328l.16113-.73828a.13764.13764,0,0,1,.0664-.0957.14728.14728,0,0,1,.11231-.01856l.77344.168a.15291.15291,0,0,1,.09961.06445.14083.14083,0,0,1,.02148.11426l-.16113.73828a.14138.14138,0,0,1-.06641.09766.1563.1563,0,0,1-.11719.01758l-.77343-.168A.1472.1472,0,0,1,27.4262,49.76571Zm.44531-2.05175a.14433.14433,0,0,1-.02149-.11329l.16016-.73828a.1416.1416,0,0,1,.06641-.09668.159.159,0,0,1,.11328-.01855l.77344.168a.15832.15832,0,0,1,.09863.06445.146.146,0,0,1,.02148.11621l-.16015.73828a.14827.14827,0,0,1-.06739.09668.16088.16088,0,0,1-.11718.01758l-.77344-.168A.15084.15084,0,0,1,27.87151,47.714Z"/><path class="m" d="M29.17229,50.14755a.14563.14563,0,0,1-.02246-.11621l.37207-1.71192a.143.143,0,0,1,.06738-.09472.15947.15947,0,0,1,.11817-.01758l.6914.15039a.14234.14234,0,0,1,.09668.06445.144.144,0,0,1,.01856.11328L30.142,50.24716a.15637.15637,0,0,1-.06348.09472.13976.13976,0,0,1-.11523.02051L29.2719,50.212A.15291.15291,0,0,1,29.17229,50.14755Zm2.14844.4668a.15457.15457,0,0,1-.01856-.11524l.377-1.73437a.60272.60272,0,0,0-.51661-.81348l-1.33691-.29a.15291.15291,0,0,1-.09961-.06445.14338.14338,0,0,1-.02246-.11524l.11035-.50488a.137.137,0,0,1,.06738-.09473.15631.15631,0,0,1,.11719-.01757l1.36621.29687a1.84352,1.84352,0,0,1,1.13965.62207,1.43678,1.43678,0,0,1,.165,1.20117l-.376,1.7295a.1395.1395,0,0,1-.0664.09667.15191.15191,0,0,1-.11719.01758l-.69141-.15039A.14645.14645,0,0,1,31.32073,50.61435Z"/><path class="m" d="M36.25237,48.26571a.14471.14471,0,0,1,.01855.11328l-.11035.50489a.14763.14763,0,0,1-.0625.09375.13979.13979,0,0,1-.11523.0205l-.26953-.05859a.88562.88562,0,0,0-.17383.27539,2.13569,2.13569,0,0,0-.12793.4082l-.3711,1.707a.11089.11089,0,0,1-.07519.07812.19966.19966,0,0,1-.12207.01367l-.68652-.14843a.12941.12941,0,0,1-.08594-.05567.13273.13273,0,0,1-.01563-.10156l.38477-1.77149a1.28692,1.28692,0,0,1,.25976-.625l-1.33789-.29a.1453.1453,0,0,1-.09277-.06641.15013.15013,0,0,1-.02246-.11231l.11035-.50488a.13657.13657,0,0,1,.06641-.09472.14077.14077,0,0,1,.11132-.01856l2.6211.56836A.14559.14559,0,0,1,36.25237,48.26571Z"/><path class="m" d="M36.0512,51.63876a.14893.14893,0,0,1-.02246-.11328l.11035-.50391a.13764.13764,0,0,1,.0664-.0957.15051.15051,0,0,1,.11133-.01953l1.47266.32031.23535-1.084a.60071.60071,0,0,0-.51953-.80762l-.751-.16309a.138.138,0,0,1-.0957-.06738.16245.16245,0,0,1-.01758-.11621l.11035-.50488a.13659.13659,0,0,1,.06641-.09473.14537.14537,0,0,1,.11133-.01953l.78027.16992a1.95822,1.95822,0,0,1,1.16406.61328,1.40444,1.40444,0,0,1,.17676,1.21289l-.23535,1.084.20508.04394a.14517.14517,0,0,1,.11523.17871l-.11035.50391a.14981.14981,0,0,1-.06348.09473.13695.13695,0,0,1-.11426.0205L36.144,51.70419A.14627.14627,0,0,1,36.0512,51.63876Z"/><path class="m" d="M43.23577,49.78134a.14889.14889,0,0,1,.01855.11328l-.377,1.73633a1.30844,1.30844,0,0,1-.61524.877,2.2063,2.2063,0,0,1-1.248.26563l-1.57032-.00879a.13986.13986,0,0,1-.10839-.05371.13392.13392,0,0,1-.02637-.11719l.11035-.51074a.1479.1479,0,0,1,.06055-.09278.17263.17263,0,0,1,.1084-.03613l.68652-.0166-.1543-2.62988a.81118.81118,0,0,1-.00293-.123.114.114,0,0,1,.05176-.0752.11621.11621,0,0,1,.09082-.0166l.76172.165a.14108.14108,0,0,1,.082.04492.14813.14813,0,0,1,.03516.07129l.06445,2.52637a.82749.82749,0,0,0,.50586-.23731,1.1974,1.1974,0,0,0,.23926-.54l.31347-1.44335a.14288.14288,0,0,1,.17871-.11329l.69727.15137A.14532.14532,0,0,1,43.23577,49.78134Z"/><path class="m" d="M46.82073,50.89071a1.44908,1.44908,0,0,1,.1416,1.1543l-.38477,1.77051a.14975.14975,0,0,1-.06347.09472.14079.14079,0,0,1-.11426.02149l-1.60156-.34766a.15418.15418,0,0,1-.11426-.17969l.10937-.5039a.13879.13879,0,0,1,.06739-.0957.14728.14728,0,0,1,.11035-.01954l.75683.165.2334-1.07324a.72153.72153,0,0,0-.04394-.50683.49327.49327,0,0,0-.34375-.25293l-.457-.09864-1.01075,2.25391a.19139.19139,0,0,1-.07226.09863.13725.13725,0,0,1-.11426.02149l-.6748-.14649a.14471.14471,0,0,1-.09766-.06738.11742.11742,0,0,1-.00879-.11621l1.08594-2.23242-.3877-.084a.13764.13764,0,0,1-.0957-.0664.15631.15631,0,0,1-.01758-.11719l.11817-.54a.1311.1311,0,0,1,.0664-.09473.143.143,0,0,1,.11035-.01953l1.88282.40918A1.42321,1.42321,0,0,1,46.82073,50.89071Z"/><path class="m" d="M52.20159,52.04989a1.38637,1.38637,0,0,1,.17187,1.17578l-.38379,1.76465a.1498.1498,0,0,1-.06347.09473.13981.13981,0,0,1-.11524.02051l-.6914-.14942a.16048.16048,0,0,1-.09961-.06445.14605.14605,0,0,1-.02149-.11621l.377-1.73438a.60212.60212,0,0,0-.51758-.8125l-.38086-.083a3.694,3.694,0,0,0-.27539.84277l-.28809,1.55176a.13952.13952,0,0,1-.06641.09668.15628.15628,0,0,1-.11718.01757L48.48772,54.379a.15786.15786,0,0,1-.09961-.06543.142.142,0,0,1-.02051-.11621l.10059-.46289a.1397.1397,0,0,1,.0664-.0957.16589.16589,0,0,1,.11719-.01758l.47461.10352.2002-.91992a3.16119,3.16119,0,0,1,.27734-.84864l-.34668-.07519a.16052.16052,0,0,1-.09961-.06446.14376.14376,0,0,1-.02148-.11523l.11035-.50488a.13378.13378,0,0,1,.06641-.09473.14787.14787,0,0,1,.11718-.01758l1.63574.35547A1.86279,1.86279,0,0,1,52.20159,52.04989Z"/><path class="m" d="M52.67327,55.25009a.14192.14192,0,0,1-.02246-.11621l.66406-3.05469a.13421.13421,0,0,1,.06738-.09473.15318.15318,0,0,1,.11621-.01758l.7334.15918a.14558.14558,0,0,1,.09668.06446.14884.14884,0,0,1,.01855.11328L53.683,55.35849a.15363.15363,0,0,1-.06347.09472.13692.13692,0,0,1-.11426.02051l-.7334-.15918A.152.152,0,0,1,52.67327,55.25009Z"/><path class="m" d="M57.94768,53.30771a1.44254,1.44254,0,0,1,.14258,1.15332l-.38477,1.7705a.15213.15213,0,0,1-.0625.09473.14077.14077,0,0,1-.11425.02148l-1.60157-.34765a.15595.15595,0,0,1-.11523-.17969l.11035-.50391a.13972.13972,0,0,1,.06641-.0957A.14559.14559,0,0,1,56.1,55.20224l.75684.16406.2334-1.07324a.716.716,0,0,0-.04492-.50684.492.492,0,0,0-.34375-.25293l-.457-.09863-1.01075,2.2539a.18978.18978,0,0,1-.07129.09864.13385.13385,0,0,1-.11425.02148l-.67481-.14648a.1498.1498,0,0,1-.09961-.06739.1198.1198,0,0,1-.00781-.11621L55.353,53.24716l-.38769-.084a.14173.14173,0,0,1-.0957-.06738.15191.15191,0,0,1-.01758-.11719l.11719-.54a.13377.13377,0,0,1,.0664-.09472.14489.14489,0,0,1,.11133-.01856l1.88281.40821A1.41487,1.41487,0,0,1,57.94768,53.30771Z"/><path class="m" d="M58.66252,55.09579a.14682.14682,0,0,1-.02148-.11621l.3623-1.665a.13381.13381,0,0,1,.06641-.09473.152.152,0,0,1,.11719-.01757l.7334.15918a.14016.14016,0,0,1,.0957.06347.14309.14309,0,0,1,.01855.11426l-.3623,1.66406a.14363.14363,0,0,1-.0625.09473.13725.13725,0,0,1-.11426.02148l-.7334-.15918A.16054.16054,0,0,1,58.66252,55.09579Z"/><path class="m" d="M62.32659,57.34384a.15621.15621,0,0,1-.12012.01953l-.7334-.15918a.14079.14079,0,0,1-.08984-.0625.16872.16872,0,0,1-.02442-.11621l.00684-.45215a1.31275,1.31275,0,0,1-.40332.21289,3.27056,3.27056,0,0,1-.47266.127,2.32757,2.32757,0,0,1-.42187.03516l-.042-.00488c-.06641-.01367-.09278-.05274-.07911-.11328l.1377-.63477c.01367-.06641.06543-.10547.1543-.11914.03027-.00488.125-.01465.28515-.02734a2.25128,2.25128,0,0,0,.39649-.0586,1.20892,1.20892,0,0,0,.456-.23144l.00684-.57032a1.2929,1.2929,0,0,0-.07324-.53808.43752.43752,0,0,0-.332-.22461l-.20507-.04492a.13884.13884,0,0,1-.09278-.06641.1428.1428,0,0,1-.02246-.11133l.11719-.53906a.16218.16218,0,0,1,.06543-.10156.14021.14021,0,0,1,.11426-.01953l.22265.04882a1.84913,1.84913,0,0,1,.76856.32227,1.14267,1.14267,0,0,1,.3789.56445,2.93974,2.93974,0,0,1,.09668.9043l-.03711,1.86523A.10673.10673,0,0,1,62.32659,57.34384Z"/><path class="m" d="M65.95647,54.71493a.14885.14885,0,0,1,.01855.11328l-.11035.50489a.15144.15144,0,0,1-.0625.09375.14267.14267,0,0,1-.11621.0205l-.26855-.05859a.90451.90451,0,0,0-.17481.27539,2.15948,2.15948,0,0,0-.12793.4082l-.37109,1.707a.10906.10906,0,0,1-.0752.07813.19965.19965,0,0,1-.12207.01367l-.68554-.14844a.1249.1249,0,0,1-.08594-.05566.128.128,0,0,1-.01563-.10156L64.144,55.794a1.29749,1.29749,0,0,1,.25879-.625l-1.33692-.29a.14724.14724,0,0,1-.09375-.0664.14929.14929,0,0,1-.02246-.11231L63.06,54.1954a.13865.13865,0,0,1,.0664-.09473.14314.14314,0,0,1,.11231-.01855l2.62011.56836A.14993.14993,0,0,1,65.95647,54.71493Z"/><path class="m" d="M70.76409,56.08017A1.38636,1.38636,0,0,1,70.936,57.256l-.38379,1.76465a.14733.14733,0,0,1-.06347.09472.14378.14378,0,0,1-.11524.02149l-.6914-.15039a.16049.16049,0,0,1-.09961-.06446.146.146,0,0,1-.02149-.11621l.377-1.73437a.60166.60166,0,0,0-.51758-.8125l-.38086-.083a3.70239,3.70239,0,0,0-.27539.84375L68.476,58.5704a.13948.13948,0,0,1-.06641.09668.16088.16088,0,0,1-.11718.01758l-1.24219-.27539a.1579.1579,0,0,1-.09961-.06543.13981.13981,0,0,1-.02051-.11524l.10059-.46289a.13764.13764,0,0,1,.0664-.0957.15631.15631,0,0,1,.11719-.01758l.47461.10254.2002-.91992a3.19566,3.19566,0,0,1,.27734-.84863l-.34668-.0752a.16051.16051,0,0,1-.09961-.06445.14769.14769,0,0,1-.02148-.11524l.11035-.50488a.13661.13661,0,0,1,.06641-.09473.14782.14782,0,0,1,.11718-.01757l1.63574.35449A1.87309,1.87309,0,0,1,70.76409,56.08017Z"/><path class="m" d="M71.23674,59.28134a.14419.14419,0,0,1-.02246-.11719l.66406-3.05469a.1305.1305,0,0,1,.06739-.09375.145.145,0,0,1,.11621-.01758l.7334.15821a.14478.14478,0,0,1,.11523.17773l-.66406,3.05469a.15222.15222,0,0,1-.0625.09473.13981.13981,0,0,1-.11524.0205l-.73339-.1582A.15573.15573,0,0,1,71.23674,59.28134Z"/><path class="m" d="M76.64983,57.0372a.14416.14416,0,0,1,.01953.11328l-.37695,1.73633a1.31376,1.31376,0,0,1-.61524.877,2.19991,2.19991,0,0,1-1.249.26465l-1.56934-.00879a.13983.13983,0,0,1-.10839-.05371.13191.13191,0,0,1-.02637-.11621l.11035-.51172a.15193.15193,0,0,1,.06055-.09277.18293.18293,0,0,1,.10839-.03614l.68555-.0166-.15332-2.62988a.74177.74177,0,0,1-.0039-.123.12342.12342,0,0,1,.14355-.0918l.76172.166a.13451.13451,0,0,1,.081.044.13982.13982,0,0,1,.03516.07128l.06445,2.52637a.82509.82509,0,0,0,.50684-.2373,1.1975,1.1975,0,0,0,.23926-.54l.31347-1.44336a.13916.13916,0,0,1,.06348-.09473.14287.14287,0,0,1,.11523-.01855l.69727.15136A.14234.14234,0,0,1,76.64983,57.0372Z"/><path class="m" d="M81.12444,58.0079a.14542.14542,0,0,1,.01855.11328l-.334,1.53711a1.76506,1.76506,0,0,1-.43164.85449,1.60555,1.60555,0,0,1-.76856.46192,1.908,1.908,0,0,1-.94238.01172l-.56348-.12207a1.80928,1.80928,0,0,1-.78027-.36036,1.33193,1.33193,0,0,1-.42969-.60839,1.34655,1.34655,0,0,1-.03613-.72657l.41016-1.88867a.13382.13382,0,0,1,.0664-.09473.15019.15019,0,0,1,.11817-.01757l.61523.13281a.1448.1448,0,0,1,.11524.17773l-.29981,1.40821a.55238.55238,0,0,0,.499-.14551,1.2187,1.2187,0,0,0,.26172-.585l.11719-.53906a.15535.15535,0,0,1,.06738-.1045.14634.14634,0,0,1,.11914-.0205l.6084.13281a.13733.13733,0,0,1,.09375.06836.16447.16447,0,0,1,.01953.12109l-.12011.55078a1.56167,1.56167,0,0,1-.57422.98047,1.498,1.498,0,0,1-1.07813.23926.783.783,0,0,0,.2334.35058.86042.86042,0,0,0,.38672.18848l.13379.0293a1.1954,1.1954,0,0,0,.56738-.00586.96421.96421,0,0,0,.44922-.25879.92453.92453,0,0,0,.24024-.457l.32714-1.50781a.14242.14242,0,0,1,.06348-.09571.14592.14592,0,0,1,.11523-.01758l.61524.13379A.14443.14443,0,0,1,81.12444,58.0079Z"/><path class="m" d="M52.15081,64.295a1.26379,1.26379,0,0,1-.44825-.5498,1.16242,1.16242,0,0,1-.05175-.69825,1.10617,1.10617,0,0,1,.30468-.57031,1.18453,1.18453,0,0,1,.55469-.2998,1.00705,1.00705,0,0,1-.28711-.4336,1.025,1.025,0,0,1-.01562-.5459.98855.98855,0,0,1,.55566-.72461,1.89265,1.89265,0,0,1,2.00293.43164.99287.99287,0,0,1,.20215.89161,1.03068,1.03068,0,0,1-.24024.48535,1.07586,1.07586,0,0,1-.43457.28222,1.17959,1.17959,0,0,1,.377.50293,1.09708,1.09708,0,0,1,.04.65039,1.12885,1.12885,0,0,1-.335.61133,1.265,1.265,0,0,1-.63477.31153,2.26046,2.26046,0,0,1-1.58984-.34473Zm1.60253-.19629a.72367.72367,0,0,0,.24415-1.126,1.15032,1.15032,0,0,0-.64844-.3623,1.1645,1.1645,0,0,0-.74707.05859.72513.72513,0,0,0-.24414,1.126,1.29021,1.29021,0,0,0,1.3955.30371Zm.33594-1.99023a.55762.55762,0,0,0,.34961-.415.57706.57706,0,0,0-.13965-.53125,1.14957,1.14957,0,0,0-1.21679-.26367.60815.60815,0,0,0-.208.95507,1.0201,1.0201,0,0,0,.57129.31153A1.086,1.086,0,0,0,54.08928,62.10849Z"/><path class="m" d="M55.23284,65.01864a.14143.14143,0,0,1-.01465-.10449l.08594-.39355a.14349.14349,0,0,1,.05664-.09375.12377.12377,0,0,1,.10254-.01758l.40429.08789a.13806.13806,0,0,1,.09473.06055.14088.14088,0,0,1,.0166.10937l-.08594.39355a.13093.13093,0,0,1-.06152.0879.14738.14738,0,0,1-.10938.0166l-.40429-.08789A.12424.12424,0,0,1,55.23284,65.01864Zm.44531-2.05176a.14379.14379,0,0,1-.01367-.10546l.085-.39258a.14541.14541,0,0,1,.05762-.09473.12092.12092,0,0,1,.10156-.01758l.4043.08789a.14585.14585,0,0,1,.0957.06055.14846.14846,0,0,1,.01562.11035l-.085.39258a.13742.13742,0,0,1-.0625.08887.15462.15462,0,0,1-.1084.0166l-.40429-.08789A.12936.12936,0,0,1,55.67815,62.96688Z"/><path class="m" d="M57.09905,65.06161a1.97927,1.97927,0,0,1-.1211-1.23926l.10352-.50488.11914-.52051a1.92109,1.92109,0,0,1,.62207-1.07129,1.64427,1.64427,0,0,1,2.2168.48145,1.88375,1.88375,0,0,1,.12207,1.23242c-.01953.11035-.05567.28418-.10742.52344-.04981.22949-.08887.39844-.11524.50293a1.96643,1.96643,0,0,1-.623,1.07715,1.64962,1.64962,0,0,1-2.21679-.48145Zm1.86035.04395a1.45048,1.45048,0,0,0,.42383-.792q.04248-.167.11133-.48535c.04687-.21484.0791-.375.09863-.48144a1.44279,1.44279,0,0,0-.06055-.89453.93025.93025,0,0,0-1.35156-.294,1.45606,1.45606,0,0,0-.42285.79l-.11035.47949-.09961.48731a1.44629,1.44629,0,0,0,.05664.89648.93828.93828,0,0,0,1.35449.29395Z"/><path class="m" d="M60.8051,65.8663A1.96573,1.96573,0,0,1,60.684,64.627l.10351-.50488.11915-.52051a1.90658,1.90658,0,0,1,.62207-1.07129,1.6448,1.6448,0,0,1,2.21679.48145,1.89622,1.89622,0,0,1,.12207,1.23242c-.01953.11035-.05566.28418-.10742.52344-.0498.22949-.08789.39843-.11523.50293a1.9781,1.9781,0,0,1-.623,1.07714,1.64906,1.64906,0,0,1-2.2168-.48144Zm1.85938.04394a1.44481,1.44481,0,0,0,.4248-.792c.02735-.1123.06446-.27344.11035-.48535.04688-.21484.07911-.375.09961-.48144a1.43887,1.43887,0,0,0-.06152-.89551.93012.93012,0,0,0-1.35059-.293,1.45044,1.45044,0,0,0-.42382.79l-.11036.47949-.09961.4873a1.43867,1.43867,0,0,0,.05762.89649.937.937,0,0,0,1.35352.29394Z"/><path class="m" d="M64.46135,65.42978a.12258.12258,0,0,1-.01758-.10352l.0459-.21094a.13374.13374,0,0,1,.0586-.08789.12867.12867,0,0,1,.10449-.0166l1.75879.38184a.13125.13125,0,0,1,.08887.05859.12961.12961,0,0,1,.01757.10449l-.0459.21094a.1304.1304,0,0,1-.05859.08691.14731.14731,0,0,1-.10547.01368l-1.75879-.38184A.14272.14272,0,0,1,64.46135,65.42978Z"/><path class="m" d="M67.49553,67.68173a.13541.13541,0,0,1-.01269-.09766.13259.13259,0,0,1,.041-.07129l1.17481-1.05957a1.38914,1.38914,0,0,1-.33594-.03515,1.49129,1.49129,0,0,1-.69531-.35743,1.31,1.31,0,0,1-.376-.60351,1.38656,1.38656,0,0,1-.02441-.69531,1.45061,1.45061,0,0,1,.3125-.63282,1.34124,1.34124,0,0,1,.61035-.4082,1.575,1.575,0,0,1,.84375-.02539,1.613,1.613,0,0,1,.76074.36914,1.30837,1.30837,0,0,1,.39453.61524,1.42583,1.42583,0,0,1,.02442.708,1.3532,1.3532,0,0,1-.23829.54395,3.29349,3.29349,0,0,1-.4121.44531L68.07854,67.7247a.6707.6707,0,0,1-.09766.06836.174.174,0,0,1-.11621.00879l-.293-.06348A.10932.10932,0,0,1,67.49553,67.68173Zm1.53125-1.72168a.87489.87489,0,0,0,.40235-.24121.90713.90713,0,0,0,.22363-.43946.93313.93313,0,0,0-.01953-.502.86116.86116,0,0,0-.26563-.38965,1.00266,1.00266,0,0,0-.43847-.21.98238.98238,0,0,0-.4795.01074.87006.87006,0,0,0-.39941.24512.91952.91952,0,0,0-.22656.44824.90192.90192,0,0,0,.02246.49317.87117.87117,0,0,0,.25976.38476.95547.95547,0,0,0,.4336.21094A.98953.98953,0,0,0,69.02678,65.96005Z"/><path class="m" d="M70.34807,68.30087a.14143.14143,0,0,1-.01465-.10449l.08594-.39356a.14349.14349,0,0,1,.05664-.09375.121.121,0,0,1,.10254-.01758l.4043.08789a.136.136,0,0,1,.09472.06055.141.141,0,0,1,.01661.10938l-.08594.39355a.131.131,0,0,1-.06153.08789.15056.15056,0,0,1-.10937.0166l-.4043-.08789A.12645.12645,0,0,1,70.34807,68.30087Zm.44531-2.05176a.14453.14453,0,0,1-.01367-.10547l.085-.39258a.143.143,0,0,1,.05762-.09472.12158.12158,0,0,1,.10156-.01758l.4043.08789a.14349.14349,0,0,1,.0957.06055.14842.14842,0,0,1,.01563.11035l-.085.39258a.13741.13741,0,0,1-.0625.08886.14778.14778,0,0,1-.1084.01563l-.4043-.08789A.12953.12953,0,0,1,70.79338,66.24911Z"/><path class="m" d="M72.21526,68.34384a1.97211,1.97211,0,0,1-.12207-1.23926l.10449-.50488.11816-.52149a1.91381,1.91381,0,0,1,.62305-1.07031,1.64481,1.64481,0,0,1,2.2168.48145,1.89622,1.89622,0,0,1,.12207,1.23242c-.01953.11035-.05567.28418-.10742.52344q-.07471.34423-.11524.50292a1.98167,1.98167,0,0,1-.623,1.07715,1.36367,1.36367,0,0,1-1.208.2002A1.34794,1.34794,0,0,1,72.21526,68.34384Zm1.85937.04394a1.45028,1.45028,0,0,0,.42383-.792q.04248-.167.11133-.48535c.04688-.21484.0791-.376.09863-.48145a1.44273,1.44273,0,0,0-.06054-.89453.93026.93026,0,0,0-1.35157-.29394,1.456,1.456,0,0,0-.42285.79l-.11035.47851-.09961.48828a1.44706,1.44706,0,0,0,.05664.89649.93827.93827,0,0,0,1.35449.29394Z"/><path class="m" d="M75.92034,69.14853a1.97927,1.97927,0,0,1-.1211-1.23926l.10352-.50489.11914-.52148a1.90934,1.90934,0,0,1,.62207-1.07031,1.64426,1.64426,0,0,1,2.2168.48144,1.89008,1.89008,0,0,1,.12207,1.23243c-.01953.11035-.05567.28417-.10742.52343q-.07472.34423-.11524.50293A1.96994,1.96994,0,0,1,78.13713,69.63a1.6496,1.6496,0,0,1-2.21679-.48144Zm1.86035.04394a1.45045,1.45045,0,0,0,.42383-.792c.02832-.11231.06543-.27344.11132-.48535.04688-.21485.07911-.376.09864-.48145a1.44663,1.44663,0,0,0-.06055-.89551.931.931,0,0,0-1.35156-.293,1.44975,1.44975,0,0,0-.42285.79l-.11035.47852-.09961.48828a1.43992,1.43992,0,0,0,.05664.89649.93827.93827,0,0,0,1.35449.29394Z"/><path class="m" d="M32.58928,69.30575a.14339.14339,0,0,1-.02246-.11328l.16113-.73828a.13113.13113,0,0,1,.06641-.09473.14493.14493,0,0,1,.11133-.01855l.77441.168a.14857.14857,0,0,1,.09864.06445.13657.13657,0,0,1,.02148.11426l-.16113.73828a.13665.13665,0,0,1-.06641.09668.15761.15761,0,0,1-.11621.01758l-.77441-.168A.142.142,0,0,1,32.58928,69.30575Zm.44531-2.05176a.13911.13911,0,0,1-.02148-.11328l.16016-.73828a.13328.13328,0,0,1,.06738-.0957.1442.1442,0,0,1,.11133-.01856l.77441.168a.15083.15083,0,0,1,.09863.06446.14116.14116,0,0,1,.02051.11425l-.16015.73828a.14472.14472,0,0,1-.06739.09766.15766.15766,0,0,1-.11621.01758l-.77441-.168A.14535.14535,0,0,1,33.03459,67.254Z"/><path class="m" d="M38.02581,67.06942a.14892.14892,0,0,1,.01855.11329l-.377,1.73632a1.30812,1.30812,0,0,1-.61426.877,2.21163,2.21163,0,0,1-1.249.2666l-1.56934-.00977a.13972.13972,0,0,1-.10937-.05469.13123.13123,0,0,1-.02637-.11621l.11035-.50976a.14883.14883,0,0,1,.06152-.09375.17261.17261,0,0,1,.1084-.03613l.68555-.01661-.1543-2.62988a.8117.8117,0,0,1-.00293-.123.1197.1197,0,0,1,.14258-.09179l.76172.165a.13741.13741,0,0,1,.11719.11718l.06543,2.52637a.8332.8332,0,0,0,.50488-.23828,1.18224,1.18224,0,0,0,.24023-.54l.31348-1.44336a.14017.14017,0,0,1,.06348-.0957.14776.14776,0,0,1,.11425-.01856l.69727.15235A.14647.14647,0,0,1,38.02581,67.06942Z"/><path class="m" d="M37.94866,70.46884a.14425.14425,0,0,1-.02246-.11231l.10937-.50293A.14792.14792,0,0,1,38.103,69.756a.15144.15144,0,0,1,.11036-.01856l1.47265.31934.23535-1.084a.59836.59836,0,0,0-.51855-.80566l-.75-.16309a.13875.13875,0,0,1-.0957-.06738.1519.1519,0,0,1-.01758-.11719l.10937-.50488a.1394.1394,0,0,1,.06543-.0957.15248.15248,0,0,1,.11231-.01856l.77929.16993a1.95434,1.95434,0,0,1,1.165.61425,1.40422,1.40422,0,0,1,.17676,1.21192l-.23535,1.084.20508.04395a.14794.14794,0,0,1,.0957.06445.14613.14613,0,0,1,.01856.11523l-.10938.50293a.14858.14858,0,0,1-.06348.09473.13693.13693,0,0,1-.11425.02051l-2.70411-.58692A.137.137,0,0,1,37.94866,70.46884Z"/><path class="m" d="M41.19866,72.3497a.13784.13784,0,0,1-.02149-.11328l.61524-2.834a.13586.13586,0,0,1,.06738-.09375.152.152,0,0,1,.11719-.01758l.66894.14453a.14029.14029,0,0,1,.09473.06446.13361.13361,0,0,1,.01855.11328l-.61523,2.833a.14534.14534,0,0,1-.17676.11425l-.66894-.14453A.15542.15542,0,0,1,41.19866,72.3497Zm1.64258-.73535a.17892.17892,0,0,1-.02149-.127l.12891-.59277a.18537.18537,0,0,1,.06543-.10156.22.22,0,0,1,.12109-.05274l.19824-.03808a.88068.88068,0,0,0,.78418-.78125.789.789,0,0,0-.02051-.54493.64973.64973,0,0,0-.45019-.25195l-1.56055-.33887a.14761.14761,0,0,1-.09863-.0664.14946.14946,0,0,1-.02051-.11914l.11817-.54492a.12838.12838,0,0,1,.06836-.08887.16324.16324,0,0,1,.11425-.01856l1.76563.38379a1.46062,1.46062,0,0,1,1.01758.60449,1.637,1.637,0,0,1,.09375,1.17774,1.769,1.769,0,0,1-.70508,1.124,2.392,2.392,0,0,1-1.2461.42285l-.25585.01856A.11055.11055,0,0,1,42.84124,71.61435Z"/><path class="m" d="M46.86174,70.95321a.14379.14379,0,0,1-.02148-.11523l.3623-1.666a.13762.13762,0,0,1,.06641-.0957.16423.16423,0,0,1,.11816-.01758l.73243.16016a.14329.14329,0,0,1,.11523.17676l-.36133,1.666a.15048.15048,0,0,1-.06445.09375.13695.13695,0,0,1-.11426.02051l-.73242-.1582A.16548.16548,0,0,1,46.86174,70.95321Z"/><path class="m" d="M52.70159,70.256a.1447.1447,0,0,1,.01855.11328l-.334,1.53711a1.75683,1.75683,0,0,1-.43164.85449,1.61488,1.61488,0,0,1-.76856.46289,1.90447,1.90447,0,0,1-.9414.01074l-.56446-.123a1.79713,1.79713,0,0,1-.78027-.35938,1.3319,1.3319,0,0,1-.42969-.6084,1.35058,1.35058,0,0,1-.03613-.72754l.41016-1.88867a.13573.13573,0,0,1,.0664-.09472.15924.15924,0,0,1,.11817-.01661l.61523.13282a.149.149,0,0,1,.09668.06445.14471.14471,0,0,1,.01855.11328l-.2998,1.40918a.56036.56036,0,0,0,.499-.14551,1.22732,1.22732,0,0,0,.26172-.58594l.11719-.53906a.15315.15315,0,0,1,.06836-.10449.1511.1511,0,0,1,.11816-.02051l.6084.13281a.13741.13741,0,0,1,.09375.06836.16451.16451,0,0,1,.01953.1211l-.12011.55078a1.56167,1.56167,0,0,1-.57422.98047,1.48553,1.48553,0,0,1-1.07618.23828.75121.75121,0,0,0,.23243.35156.84824.84824,0,0,0,.38574.18945l.13476.0293a1.2037,1.2037,0,0,0,.56641-.00586.974.974,0,0,0,.4502-.25976.922.922,0,0,0,.23925-.458L51.811,70.172a.1402.1402,0,0,1,.06348-.0957.14592.14592,0,0,1,.11523-.01758l.61524.13379A.14439.14439,0,0,1,52.70159,70.256Z"/><path class="m" d="M54.65276,74.09579a.14787.14787,0,0,1-.11817.02051l-1.88183-.4082a.16548.16548,0,0,1-.10059-.06446.145.145,0,0,1-.0205-.11621l.10937-.50293a.14252.14252,0,0,1,.06641-.09668.15949.15949,0,0,1,.11816-.01758l.97363.21094.19825-1.166a1.07263,1.07263,0,0,0-.01075-.51758.41273.41273,0,0,0-.331-.23145l-.29883-.06543a.15353.15353,0,0,1-.11426-.17773l.10645-.49219a.15294.15294,0,0,1,.06543-.09961.13323.13323,0,0,1,.11426-.02148l.3164.06836a1.57115,1.57115,0,0,1,1.042.58886,1.63453,1.63453,0,0,1,.1377,1.18946l-.31152,1.80468A.12282.12282,0,0,1,54.65276,74.09579Z"/><path class="m" d="M58.39006,74.82431a.12628.12628,0,0,1-.05371.07812.11933.11933,0,0,1-.09668.01856L57.52,74.76474a.2061.2061,0,0,1-.14746-.08985c-.02344-.04394-.03516-.06836-.03907-.07324l-.7041-1.70605a.68232.68232,0,0,0-.26953.27832,1.652,1.652,0,0,0-.13086.377l-.15918.7334a.1564.1564,0,0,1-.06836.10449.14717.14717,0,0,1-.11816.02051l-.5752-.125a.13684.13684,0,0,1-.09179-.06836.16451.16451,0,0,1-.01954-.1211l.15821-.72753a2.099,2.099,0,0,1,.31054-.78028,1.53475,1.53475,0,0,1,.6377-.47558l-.41211-.99121a.124.124,0,0,1-.01074-.0879.11632.11632,0,0,1,.05664-.07714.11916.11916,0,0,1,.09277-.01954l.69141.1504a.195.195,0,0,1,.11816.0625.436.436,0,0,1,.06543.1123l.65332,1.542a.53163.53163,0,0,0,.26563-.21386,1.21564,1.21564,0,0,0,.11523-.32422l.15528-.71485a.16217.16217,0,0,1,.0664-.10547.14082.14082,0,0,1,.11426-.02148l.61523.13379a.14825.14825,0,0,1,.09961.07031.16449.16449,0,0,1,.01953.12109l-.16015.73829a1.59642,1.59642,0,0,1-.29785.65136,1.43024,1.43024,0,0,1-.66309.43555l.49707,1.165A.14949.14949,0,0,1,58.39006,74.82431Z"/><path class="m" d="M58.92131,75.02353a.14242.14242,0,0,1-.0205-.11329l.10937-.50293a.13835.13835,0,0,1,.06543-.09668.1553.1553,0,0,1,.11133-.01953l1.47265.32032.23536-1.084a.59988.59988,0,0,0-.51953-.80664l-.75-.16211a.143.143,0,0,1-.09571-.06836.1563.1563,0,0,1-.01758-.11719l.10938-.50488a.13657.13657,0,0,1,.06641-.09472.15216.15216,0,0,1,.1123-.01954l.7793.16993a1.95061,1.95061,0,0,1,1.16406.61425,1.40165,1.40165,0,0,1,.17676,1.21192l-.23535,1.084.206.044a.1504.1504,0,0,1,.0957.06445.14585.14585,0,0,1,.01758.11524l-.10937.50292a.14726.14726,0,0,1-.0625.09473.13761.13761,0,0,1-.11426.02051l-2.7041-.58691A.14633.14633,0,0,1,58.92131,75.02353Z"/><path class="m" d="M66.3344,73.55673a1.63192,1.63192,0,0,1,.09375,1.17773,1.76645,1.76645,0,0,1-.70508,1.124,2.39161,2.39161,0,0,1-1.24512.42285l-.25683.01855a.1162.1162,0,0,1-.09961-.06543.17128.17128,0,0,1-.02442-.12695l.12891-.59375a.16685.16685,0,0,1,.06445-.09766.28387.28387,0,0,1,.124-.05664l.20215-.03613a.95885.95885,0,0,0,.49414-.22168.9987.9987,0,0,0,.28418-.56055.81021.81021,0,0,0-.01758-.54492.64031.64031,0,0,0-.44727-.25l-.13574-.03027-.0166-.00293-.78613-.17774a.14247.14247,0,0,1-.11329-.17773l.294-1.35449a.13764.13764,0,0,1,.06641-.09571.14758.14758,0,0,1,.11035-.01855l.63379.13672a.14492.14492,0,0,1,.11621.17871l-.14551.66894.36328.07911A1.46059,1.46059,0,0,1,66.3344,73.55673Z"/><path class="m" d="M66.643,76.70321a.14314.14314,0,0,1-.02148-.11718l.66308-3.05469a.13313.13313,0,0,1,.06739-.09375.1519.1519,0,0,1,.11719-.01758l.73242.1582a.15356.15356,0,0,1,.09765.06446.14884.14884,0,0,1,.01856.11328l-.66309,3.05468a.15637.15637,0,0,1-.06347.09473.1427.1427,0,0,1-.11622.02051l-.73242-.1582A.16052.16052,0,0,1,66.643,76.70321Z"/><path class="m" d="M69.58147,74.97079c-.02539.16211.001.2666.08008.31152l.15137.09473a.14969.14969,0,0,1,.05957.083.25058.25058,0,0,1,.001.11426l-.05859.30078a.1554.1554,0,0,1-.10938.12012.29458.29458,0,0,1-.19824-.00293l-.23242-.0879a.76332.76332,0,0,1-.43359-.43359,1.19131,1.19131,0,0,1-.04688-.74414l.17969-.82812a.19648.19648,0,0,1,.07226-.09375.12593.12593,0,0,1,.1045-.01954l1.18457.25684a1.55316,1.55316,0,0,1,1.06054.64355,1.70275,1.70275,0,0,1,.17285,1.20215c-.0039.04-.01464.09473-.02929.165a1.90093,1.90093,0,0,1-.64356,1.15332,1.51409,1.51409,0,0,1-1.28711.1836l-1.11328-.24219a.1574.1574,0,0,1-.10058-.06445.14848.14848,0,0,1-.02149-.11622l.11719-.53906a.156.156,0,0,1,.06836-.09863.16048.16048,0,0,1,.11816-.02051l1.085.23633a.7197.7197,0,0,0,.52735-.06738.69691.69691,0,0,0,.31445-.44434c.01172-.03711.02637-.0957.04395-.17383a1.72069,1.72069,0,0,0,.03027-.17187.67534.67534,0,0,0-.0957-.53223.72488.72488,0,0,0-.457-.28223l-.499-.10742Z"/><path class="m" d="M72.08049,76.42782a.13942.13942,0,0,1-.02148-.11523l.3623-1.666a.133.133,0,0,1,.06641-.09472.15607.15607,0,0,1,.11719-.01661l.7334.15821a.14506.14506,0,0,1,.11425.17773l-.3623,1.666a.14763.14763,0,0,1-.0625.09375.14082.14082,0,0,1-.11426.02148l-.7334-.16015A.15293.15293,0,0,1,72.08049,76.42782Z"/><path class="m" d="M73.87444,77.9786a1.44005,1.44005,0,0,1-.17383-1.168l.3916-1.80078a.13377.13377,0,0,1,.06641-.09472.14252.14252,0,0,1,.11035-.01856l.61035.13184a.15663.15663,0,0,1,.09961.06445.13728.13728,0,0,1,.02149.11426l-.38477,1.77148a.62042.62042,0,0,0,.085.53125.81152.81152,0,0,0,.49512.27735.588.588,0,0,0,.79883-.48438,1.5739,1.5739,0,0,0,.03711-.1582c.01269-.06641.02246-.11719.03027-.15234l.02734-.12891a1.08783,1.08783,0,0,0,.001-.53809.34331.34331,0,0,0-.2666-.24414.69791.69791,0,0,0-.17774-.01465.53855.53855,0,0,0-.16211.02735.31321.31321,0,0,1-.05566-.001.12844.12844,0,0,1-.083-.05762.14218.14218,0,0,1-.01758-.10449l.10059-.46387a.23528.23528,0,0,1,.15918-.19238,1.125,1.125,0,0,1,.58691.00977,1.16575,1.16575,0,0,1,.85157.53711,1.709,1.709,0,0,1,.06347,1.10547l-.09277.42773-.041.1875a1.43088,1.43088,0,0,1-1.9414,1.083A1.77645,1.77645,0,0,1,73.87444,77.9786Z"/><path class="m" d="M44.67034,81.14462a.14535.14535,0,0,1-.01367-.10449l.71875-3.30762-1.1504.543a.12518.12518,0,0,1-.0957.01562.12689.12689,0,0,1-.08594-.08007l-.10254-.21192a.14867.14867,0,0,1-.01074-.08789.12682.12682,0,0,1,.08106-.09277l1.48633-.709a.2798.2798,0,0,1,.16113-.00781l.27637.05957a.13276.13276,0,0,1,.08691.05859.13137.13137,0,0,1,.01855.10645l-.833,3.834a.1264.1264,0,0,1-.05957.08789.13761.13761,0,0,1-.1045.01758l-.28711-.0625A.12621.12621,0,0,1,44.67034,81.14462Z"/><path class="m" d="M46.58831,81.49813a1.27594,1.27594,0,0,1-.40235-.52246,1.0662,1.0662,0,0,1-.06152-.58691l.00293-.01074a.0946.0946,0,0,1,.05078-.06934A.12619.12619,0,0,1,46.267,80.297l.28711.0625a.15566.15566,0,0,1,.12988.16309.82142.82142,0,0,0,.22266.543,1.01465,1.01465,0,0,0,.51464.27441.96.96,0,0,0,.71485-.09961.89076.89076,0,0,0,.41113-.61426.8075.8075,0,0,0-.12988-.68164,1.106,1.106,0,0,0-.96289-.39746,1.26376,1.26376,0,0,0-.29688.09668.98727.98727,0,0,1-.14355.05762.24209.24209,0,0,1-.11524.00195l-.28125-.06054a.141.141,0,0,1-.08593-.0586.10656.10656,0,0,1-.01563-.09863l.60645-1.91211c.03222-.09668.09179-.13477.17773-.11621l2.0293.44141a.13315.13315,0,0,1,.09179.05664.13545.13545,0,0,1,.01368.10742l-.04688.21679a.12044.12044,0,0,1-.05957.085.13325.13325,0,0,1-.10352.01464l-1.68847-.36621-.36133,1.15528a1.3127,1.3127,0,0,1,.7998-.03516,1.64511,1.64511,0,0,1,.68067.31152,1.25249,1.25249,0,0,1,.415.56543,1.32421,1.32421,0,0,1,.03613.75,1.44711,1.44711,0,0,1-.35254.707,1.25,1.25,0,0,1-.63086.35938,1.81571,1.81571,0,0,1-.80664-.00586A1.77767,1.77767,0,0,1,46.58831,81.49813Z"/><path class="m" d="M49.54338,82.20224a.141.141,0,0,1-.01562-.1045l.08594-.39257a.14544.14544,0,0,1,.05761-.09473.12159.12159,0,0,1,.10157-.01758l.40527.08789a.13707.13707,0,0,1,.09375.06055.13991.13991,0,0,1,.0166.11035l-.08594.39258a.12588.12588,0,0,1-.06152.08789.1442.1442,0,0,1-.1084.0166l-.40527-.08789A.12233.12233,0,0,1,49.54338,82.20224Zm.44532-2.05176a.13871.13871,0,0,1-.01465-.10547l.085-.39063a.15356.15356,0,0,1,.05859-.09667.12592.12592,0,0,1,.10059-.01758l.40527.08789a.14488.14488,0,0,1,.09473.06054.15041.15041,0,0,1,.01562.11231l-.085.39062a.13188.13188,0,0,1-.0625.08887.14625.14625,0,0,1-.10742.0166l-.40527-.08789A.12728.12728,0,0,1,49.9887,80.15048Z"/><path class="m" d="M51.40959,82.24618a1.96653,1.96653,0,0,1-.12109-1.23926L51.392,80.502l.11914-.52148a1.90931,1.90931,0,0,1,.62207-1.07032,1.64526,1.64526,0,0,1,2.21679.48047,1.89767,1.89767,0,0,1,.12207,1.23242c-.01953.11133-.05566.28516-.10742.52344q-.0747.3457-.11523.50293a1.96873,1.96873,0,0,1-.623,1.07715,1.64866,1.64866,0,0,1-2.2168-.48047Zm1.85938.043a1.44527,1.44527,0,0,0,.4248-.791q.041-.16845.11036-.48632c.04687-.21485.0791-.375.09961-.48047a1.43372,1.43372,0,0,0-.06153-.89453.82024.82024,0,0,0-.61035-.44922.81013.81013,0,0,0-.74023.15625,1.44375,1.44375,0,0,0-.42383.78906l-.11035.47852-.09961.48828a1.43926,1.43926,0,0,0,.05761.89648.93621.93621,0,0,0,1.35352.293Z"/><path class="m" d="M55.11467,83.05087a1.987,1.987,0,0,1-.12109-1.23926l.10351-.50586.11915-.52051a1.91486,1.91486,0,0,1,.62207-1.07031,1.64568,1.64568,0,0,1,2.21875.48047,1.90428,1.90428,0,0,1,.12109,1.23242c-.01953.11133-.05566.28516-.10742.52344-.04981.22949-.08789.39844-.11524.50293a1.97458,1.97458,0,0,1-.623,1.07715,1.64959,1.64959,0,0,1-2.21778-.48047Zm1.86035.043a1.45076,1.45076,0,0,0,.42383-.791q.04248-.16845.11133-.48633c.04688-.21484.08008-.375.09863-.48046a1.44138,1.44138,0,0,0-.06054-.89454.92836.92836,0,0,0-1.35157-.29394,1.44891,1.44891,0,0,0-.42285.79l-.11035.47851-.09961.48828a1.4439,1.4439,0,0,0,.05664.89551.93826.93826,0,0,0,1.35449.29395Z"/><path class="m" d="M58.77092,82.61337a.12386.12386,0,0,1-.01758-.10254l.0459-.21094a.13932.13932,0,0,1,.0586-.08886.13554.13554,0,0,1,.10547-.01661l1.75878.38184a.137.137,0,0,1,.08887.05957.13277.13277,0,0,1,.01758.10449l-.0459.21094a.13176.13176,0,0,1-.05859.08594.14381.14381,0,0,1-.10547.01367L58.85979,82.669A.14361.14361,0,0,1,58.77092,82.61337Z"/><path class="m" d="M62.13713,84.93661a.14788.14788,0,0,1-.01367-.10351l.71875-3.30762-1.15039.543a.13268.13268,0,0,1-.09473.01562.13077.13077,0,0,1-.08691-.08008l-.10254-.21289a.14866.14866,0,0,1-.01074-.08789.12813.12813,0,0,1,.082-.09277l1.48535-.709a.30043.30043,0,0,1,.16211-.00782l.27539.05957a.14322.14322,0,0,1,.08887.05957.13627.13627,0,0,1,.0166.10547l-.833,3.834a.13017.13017,0,0,1-.05859.08886.13632.13632,0,0,1-.10547.01661l-.28711-.06153A.12649.12649,0,0,1,62.13713,84.93661Z"/><path class="m" d="M63.894,85.31845a.13987.13987,0,0,1-.0127-.09766l.02344-.05078,2.21094-3.1123-1.93555-.41993a.13355.13355,0,0,1-.08886-.05957.12969.12969,0,0,1-.01758-.10351l.04785-.2168a.15328.15328,0,0,1,.05664-.0957.13921.13921,0,0,1,.1084-.0166l2.39258.51953a.13184.13184,0,0,1,.09082.05957.15175.15175,0,0,1,.01464.11133l-.04394.19921a.63055.63055,0,0,1-.09766.2168L64.4594,85.32821a.43508.43508,0,0,1-.08789.09082.12779.12779,0,0,1-.1084.01953l-.293-.06347A.10674.10674,0,0,1,63.894,85.31845Z"/><path class="m" d="M66.52874,85.89071a.14623.14623,0,0,1-.01465-.10449L66.6,85.39364a.14577.14577,0,0,1,.05665-.09472.12441.12441,0,0,1,.10253-.01758l.4043.08789a.13915.13915,0,0,1,.09473.06055.14406.14406,0,0,1,.0166.11035l-.08594.39258a.12882.12882,0,0,1-.06152.08789.15063.15063,0,0,1-.10938.0166l-.40429-.08789A.12639.12639,0,0,1,66.52874,85.89071Zm.44531-2.05175a.14314.14314,0,0,1-.01367-.10547l.085-.39161a.15436.15436,0,0,1,.05761-.0957.12518.12518,0,0,1,.10157-.01758l.40429.08789a.14709.14709,0,0,1,.09571.06055.15178.15178,0,0,1,.01562.11133l-.085.3916a.13506.13506,0,0,1-.0625.08887.14781.14781,0,0,1-.1084.01562L67.06,83.89657A.12725.12725,0,0,1,66.97405,83.839Z"/><path class="m" d="M68.39592,85.93368a1.97143,1.97143,0,0,1-.12207-1.23926l.10449-.50488.11817-.52148a1.91707,1.91707,0,0,1,.62305-1.07032,1.6448,1.6448,0,0,1,2.21679.48145,1.897,1.897,0,0,1,.12207,1.23242q-.0293.16553-.10742.52344-.0747.34423-.11523.50293a1.97228,1.97228,0,0,1-.62305,1.07715,1.64655,1.64655,0,0,1-2.2168-.48145Zm1.85938.044a1.45048,1.45048,0,0,0,.42383-.792q.04248-.167.11132-.48535c.04688-.21484.07911-.376.09864-.48144a1.44279,1.44279,0,0,0-.06055-.89453.929.929,0,0,0-1.35156-.293,1.44921,1.44921,0,0,0-.42285.78906l-.11036.47852-.0996.48828a1.447,1.447,0,0,0,.05664.89648.93828.93828,0,0,0,1.35449.294Z"/><path class="m" d="M72.101,86.73837a1.98526,1.98526,0,0,1-.12109-1.23926l.10351-.50488.11914-.52149a1.9183,1.9183,0,0,1,.62207-1.07031,1.64427,1.64427,0,0,1,2.2168.48145,1.88449,1.88449,0,0,1,.12207,1.23242q-.0293.16553-.10742.52344-.07471.34423-.11524.50293a1.96636,1.96636,0,0,1-.623,1.07714,1.64763,1.64763,0,0,1-2.2168-.48144Zm1.86035.04394a1.45028,1.45028,0,0,0,.42383-.792c.02832-.1123.06543-.27344.11133-.48535.04687-.21484.08008-.376.09863-.48144a1.44275,1.44275,0,0,0-.06055-.89454.82093.82093,0,0,0-.61132-.44824.81269.81269,0,0,0-.74024.15528,1.443,1.443,0,0,0-.42285.78906l-.11035.47851-.09961.48828a1.44,1.44,0,0,0,.05664.89649.93827.93827,0,0,0,1.35449.29394Z"/></svg>