<svg xmlns="http://www.w3.org/2000/svg" viewBox="0 0 274.93139 48.03573"><defs><style>.a,.b,.d,.e,.h{fill:none;}.a{stroke:#29235c;stroke-width:9.75408px;opacity:0.14;}.a,.b,.d,.h{stroke-miterlimit:10;}.b,.e{stroke:#fff;}.b{stroke-width:7.31556px;}.c{fill:#ebf1f4;}.d{stroke:#a0d1ec;stroke-width:1.82889px;}.e{stroke-linecap:round;stroke-linejoin:round;stroke-width:1.6836px;}.f{fill:#cde4ec;}.g{fill:#6d8393;}.h{stroke:#c7dde2;stroke-width:3px;}</style></defs><rect class="a" x="4.87704" y="15.49348" width="265.17731" height="17.04877" rx="8.52438"/><rect class="b" x="4.87704" y="15.49348" width="265.17731" height="17.04877" rx="8.52438"/><rect class="c" x="4.87704" y="15.49348" width="265.17731" height="17.04877" rx="8.52438"/><rect class="d" x="4.87704" y="15.49348" width="265.17731" height="17.04877" rx="8.52438"/><path class="e" d="M11.74382,18.6932a5.72146,5.72146,0,0,0-3.05908,3.06137"/><path class="f" d="M267.41789,19.29405c1.17915,4.35879-.20924,12.19569-11.554,12.31985h5.7062a7.26919,7.26919,0,0,0,2.40192-.39274c2.62334-.90634,5.70324-3.93694,5.21727-7.46513C268.67162,19.99752,267.41789,19.29405,267.41789,19.29405Z"/><path class="g" d="M4.56135,47.55071a2.25389,2.25389,0,0,1-.63184-1.52051q-.01611-.43066-.01562-.77539,0-.35155.01562-.7998a2.37107,2.37107,0,0,1,.29981-1.06836,1.90687,1.90687,0,0,1,.77637-.74024A2.59457,2.59457,0,0,1,6.241,42.37493a2.62043,2.62043,0,0,1,1.24023.27148,1.89928,1.89928,0,0,1,.78027.74024A2.37082,2.37082,0,0,1,8.56135,44.455q.01611.22411.0166.7998,0,.55958-.0166.77539a2.25389,2.25389,0,0,1-.63184,1.52051,2.31524,2.31524,0,0,1-1.68847.584A2.30408,2.30408,0,0,1,4.56135,47.55071Zm2.24023-.86817a1.20949,1.20949,0,0,0,.2002-.69238q.01611-.23145.01562-.752,0-.52-.01562-.73535a1.22365,1.22365,0,0,0-.2002-.68457.6489.6489,0,0,0-.56054-.252q-.71925,0-.75977.93653-.00732.21533-.00781.73535,0,.52.00781.752.03956.936.75977.93653A.6565.6565,0,0,0,6.80158,46.68254Z"/><path class="g" d="M10.38557,47.89836a1.75619,1.75619,0,0,1-.7959-.63574,1.6058,1.6058,0,0,1-.26074-.89648,1.40253,1.40253,0,0,1,.21289-.75586,1.44355,1.44355,0,0,1,.55566-.52344,1.2277,1.2277,0,0,1-.56836-1.10449,1.42975,1.42975,0,0,1,.54785-1.16016,2.51736,2.51736,0,0,1,1.62012-.44726,2.4812,2.4812,0,0,1,1.60449.44336,1.42813,1.42813,0,0,1,.54,1.15625,1.27787,1.27787,0,0,1-.54394,1.1123,1.31678,1.31678,0,0,1,.56347.51172,1.448,1.448,0,0,1,.21192.77637,1.57264,1.57264,0,0,1-.26367.8916,1.79711,1.79711,0,0,1-.79981.63183,3.25481,3.25481,0,0,1-1.3125.23633A3.24985,3.24985,0,0,1,10.38557,47.89836Zm1.93164-1.01171a.65938.65938,0,0,0,0-1.02442.97092.97092,0,0,0-.62012-.1914.99184.99184,0,0,0-.624.1914.65287.65287,0,0,0,0,1.02442.99232.99232,0,0,0,.624.19238A.97137.97137,0,0,0,12.31721,46.88665Zm-.06738-2.39649a.53422.53422,0,0,0,.21582-.43555.544.544,0,0,0-.21582-.44433.9794.9794,0,0,0-1.1084,0,.57178.57178,0,0,0,0,.88867.85656.85656,0,0,0,.55566.17188A.89658.89658,0,0,0,12.24983,44.49016Z"/><path class="g" d="M14.92561,45.19426a.19.19,0,0,1-.05957-.13965V44.0468a.19006.19006,0,0,1,.05957-.14453.20024.20024,0,0,1,.14062-.05566H16.1219a.20831.20831,0,0,1,.14746.05566.19085.19085,0,0,1,.06054.14453v1.00781a.18726.18726,0,0,1-.06054.14356.20492.20492,0,0,1-.14746.05664H15.06623A.1931.1931,0,0,1,14.92561,45.19426Zm0,2.80078a.19208.19208,0,0,1-.05957-.14062V46.84661a.18648.18648,0,0,1,.05957-.14356.19705.19705,0,0,1,.14062-.05664H16.1219a.205.205,0,0,1,.14746.05664.18726.18726,0,0,1,.06054.14356v1.00781a.18937.18937,0,0,1-.06054.14453.20831.20831,0,0,1-.14746.05566H15.06623A.1921.1921,0,0,1,14.92561,47.995Z"/><path class="g" d="M17.81721,47.55071a2.25389,2.25389,0,0,1-.63184-1.52051q-.01611-.43066-.01562-.77539,0-.35155.01562-.7998a2.37107,2.37107,0,0,1,.29981-1.06836,1.90691,1.90691,0,0,1,.77636-.74024,2.95755,2.95755,0,0,1,2.47559,0,1.89928,1.89928,0,0,1,.78027.74024,2.371,2.371,0,0,1,.29981,1.06836q.01611.22411.0166.7998,0,.55958-.0166.77539a2.25389,2.25389,0,0,1-.63184,1.52051,2.31524,2.31524,0,0,1-1.68847.584A2.30406,2.30406,0,0,1,17.81721,47.55071Zm2.24023-.86817a1.20949,1.20949,0,0,0,.2002-.69238q.01611-.23145.01562-.752,0-.52-.01562-.73535a1.22365,1.22365,0,0,0-.2002-.68457.6489.6489,0,0,0-.56054-.252q-.71925,0-.75977.93653-.00732.21533-.00781.73535,0,.52.00781.752.03956.936.75977.93653A.6565.6565,0,0,0,20.05744,46.68254Z"/><path class="g" d="M23.28108,47.55071a2.25389,2.25389,0,0,1-.63184-1.52051q-.01611-.43066-.01562-.77539,0-.35155.01562-.7998a2.37094,2.37094,0,0,1,.2998-1.06836,1.90693,1.90693,0,0,1,.77637-.74024,2.95755,2.95755,0,0,1,2.47559,0,1.89934,1.89934,0,0,1,.78027.74024,2.37107,2.37107,0,0,1,.29981,1.06836q.01611.22411.0166.7998,0,.55958-.0166.77539a2.25389,2.25389,0,0,1-.63184,1.52051,2.31525,2.31525,0,0,1-1.68848.584A2.30405,2.30405,0,0,1,23.28108,47.55071Zm2.24023-.86817a1.20956,1.20956,0,0,0,.2002-.69238q.01611-.23145.01562-.752,0-.52-.01562-.73535a1.22373,1.22373,0,0,0-.2002-.68457.64892.64892,0,0,0-.56055-.252q-.71924,0-.75976.93653-.00732.21533-.00781.73535,0,.52.00781.752.03956.936.75976.93653A.65652.65652,0,0,0,25.52131,46.68254Z"/><path class="g" d="M31.46174,5.17571a2.2577,2.2577,0,0,1-.63086-1.52051c-.01172-.28711-.01562-.5459-.01562-.77539,0-.23437.0039-.501.01562-.7998a2.38275,2.38275,0,0,1,.29883-1.06836,1.90952,1.90952,0,0,1,.77734-.74024,2.95531,2.95531,0,0,1,2.47461,0,1.90788,1.90788,0,0,1,.78125.74024A2.38262,2.38262,0,0,1,35.46174,2.08q.01758.22411.01758.7998,0,.55958-.01758.77539a2.2577,2.2577,0,0,1-.63086,1.52051,2.72166,2.72166,0,0,1-3.36914,0ZM33.702,4.30754a1.2094,1.2094,0,0,0,.20118-.69238c.00976-.1543.01562-.40527.01562-.75195s-.00586-.5918-.01562-.73535a1.2237,1.2237,0,0,0-.20118-.68457.64772.64772,0,0,0-.56054-.252q-.71778,0-.75977.93653c-.0039.14355-.00781.38867-.00781.73535s.00391.59765.00781.75195q.041.936.75977.93653A.65529.65529,0,0,0,33.702,4.30754Z"/><path class="g" d="M37.13362,5.62786a.18011.18011,0,0,1-.04688-.124.18451.18451,0,0,1,.03125-.10449L38.23908,3.872a.76318.76318,0,0,1-.21679.01562A2.25172,2.25172,0,0,1,37.09455,3.62a1.94317,1.94317,0,0,1-.71679-.65625,1.70488,1.70488,0,0,1-.27539-.956,1.93816,1.93816,0,0,1,.26757-.98828,1.96832,1.96832,0,0,1,.793-.74024,2.63776,2.63776,0,0,1,1.25977-.27929A2.93948,2.93948,0,0,1,39.702.25579a1.879,1.879,0,0,1,.8125.70019,1.85079,1.85079,0,0,1,.2754.9961,1.80139,1.80139,0,0,1-.17969.80371,5.96905,5.96905,0,0,1-.53906.85156l-.14454.20019L38.67072,5.51946a.343.343,0,0,1-.28906.16015H37.25471A.16088.16088,0,0,1,37.13362,5.62786Zm1.88476-3.04395a.76637.76637,0,0,0,.22852-.584.7605.7605,0,0,0-.23243-.584.87925.87925,0,0,0-1.15625,0,.76493.76493,0,0,0-.22851.584.771.771,0,0,0,.22461.584.89272.89272,0,0,0,1.16406,0Z"/><path class="g" d="M41.54572,2.81926a.19278.19278,0,0,1-.05859-.13965V1.6718a.19283.19283,0,0,1,.05859-.14453.20369.20369,0,0,1,.14063-.05566H42.743a.20432.20432,0,0,1,.14648.05566A.18743.18743,0,0,1,42.95,1.6718V2.67961a.184.184,0,0,1-.06055.14356.201.201,0,0,1-.14648.05664H41.68635A.19638.19638,0,0,1,41.54572,2.81926Zm0,2.80078a.195.195,0,0,1-.05859-.14062V4.47161a.18917.18917,0,0,1,.05859-.14356.20039.20039,0,0,1,.14063-.05664H42.743a.20107.20107,0,0,1,.14648.05664.184.184,0,0,1,.06055.14356V5.47942a.186.186,0,0,1-.06055.14453.20432.20432,0,0,1-.14648.05566H41.68635A.19531.19531,0,0,1,41.54572,5.62Z"/><path class="g" d="M44.4383,5.17571a2.25014,2.25014,0,0,1-.63281-1.52051c-.00977-.28711-.01562-.5459-.01562-.77539,0-.23437.00585-.501.01562-.7998a2.35928,2.35928,0,0,1,.30078-1.06836,1.90433,1.90433,0,0,1,.77539-.74024A2.59868,2.59868,0,0,1,46.118-.00007a2.62586,2.62586,0,0,1,1.24023.27148,1.89076,1.89076,0,0,1,.7793.74024A2.35928,2.35928,0,0,1,48.4383,2.08c.00977.14941.01563.416.01563.7998,0,.37305-.00586.63184-.01563.77539a2.25009,2.25009,0,0,1-.63281,1.52051,2.71885,2.71885,0,0,1-3.36719,0Zm2.24024-.86817a1.20966,1.20966,0,0,0,.19922-.69238c.01171-.1543.01562-.40527.01562-.75195s-.00391-.5918-.01562-.73535a1.22369,1.22369,0,0,0-.19922-.68457.65011.65011,0,0,0-.56055-.252q-.7207,0-.75977.93653c-.00585.14355-.00781.38867-.00781.73535s.002.59765.00781.75195q.0381.936.75977.93653A.65773.65773,0,0,0,46.67854,4.30754Z"/><path class="g" d="M49.90315,5.17571a2.2501,2.2501,0,0,1-.63282-1.52051c-.00976-.28711-.01562-.5459-.01562-.77539,0-.23437.00586-.501.01562-.7998a2.35942,2.35942,0,0,1,.30079-1.06836,1.90426,1.90426,0,0,1,.77539-.74024,2.59864,2.59864,0,0,1,1.23632-.27148,2.62593,2.62593,0,0,1,1.24024.27148,1.89082,1.89082,0,0,1,.7793.74024A2.35953,2.35953,0,0,1,53.90315,2.08c.00976.14941.01562.416.01562.7998,0,.37305-.00586.63184-.01562.77539a2.2501,2.2501,0,0,1-.63282,1.52051,2.71884,2.71884,0,0,1-3.36718,0Zm2.24023-.86817a1.20966,1.20966,0,0,0,.19922-.69238c.01172-.1543.01562-.40527.01562-.75195s-.0039-.5918-.01562-.73535a1.22369,1.22369,0,0,0-.19922-.68457.65011.65011,0,0,0-.56055-.252q-.72069,0-.75976.93653c-.00586.14355-.00781.38867-.00781.73535s.002.59765.00781.75195q.03809.936.75976.93653A.65773.65773,0,0,0,52.14338,4.30754Z"/><path class="g" d="M60.3592,47.995a.19308.19308,0,0,1-.06055-.14062V44.11028l-1.07128.82422a.2249.2249,0,0,1-.12012.04.2077.2077,0,0,1-.168-.09571l-.49609-.64062a.23473.23473,0,0,1-.03223-.11914.20693.20693,0,0,1,.08789-.17676l1.85644-1.43164a.31166.31166,0,0,1,.1836-.05566h1.05566a.209.209,0,0,1,.14844.05566.18648.18648,0,0,1,.05957.14355v5.2002a.1886.1886,0,0,1-.05957.14453.209.209,0,0,1-.14844.05566h-1.0957A.19155.19155,0,0,1,60.3592,47.995Z"/><path class="g" d="M63.35529,47.55071a2.25393,2.25393,0,0,1-.63183-1.52051q-.01611-.43066-.01563-.77539,0-.35155.01563-.7998a2.37094,2.37094,0,0,1,.2998-1.06836,1.90687,1.90687,0,0,1,.77637-.74024,2.95755,2.95755,0,0,1,2.47559,0,1.89934,1.89934,0,0,1,.78027.74024,2.37094,2.37094,0,0,1,.2998,1.06836q.01613.22411.01661.7998,0,.55958-.01661.77539a2.25383,2.25383,0,0,1-.63183,1.52051,2.72026,2.72026,0,0,1-3.36817,0Zm2.24024-.86817a1.20949,1.20949,0,0,0,.20019-.69238q.01613-.23145.01563-.752,0-.52-.01563-.73535a1.22365,1.22365,0,0,0-.20019-.68457.64892.64892,0,0,0-.56055-.252q-.71923,0-.75976.93653-.00733.21533-.00782.73535,0,.52.00782.752.03954.936.75976.93653A.65652.65652,0,0,0,65.59553,46.68254Z"/><path class="g" d="M68.27912,45.19426a.19.19,0,0,1-.05957-.13965V44.0468a.19006.19006,0,0,1,.05957-.14453.20027.20027,0,0,1,.14063-.05566h1.05566a.2083.2083,0,0,1,.14746.05566.19086.19086,0,0,1,.06055.14453v1.00781a.18727.18727,0,0,1-.06055.14356.2049.2049,0,0,1-.14746.05664H68.41975A.19312.19312,0,0,1,68.27912,45.19426Zm0,2.80078a.19208.19208,0,0,1-.05957-.14062V46.84661a.18648.18648,0,0,1,.05957-.14356.19708.19708,0,0,1,.14063-.05664h1.05566a.20494.20494,0,0,1,.14746.05664.18727.18727,0,0,1,.06055.14356v1.00781a.18937.18937,0,0,1-.06055.14453.2083.2083,0,0,1-.14746.05566H68.41975A.19212.19212,0,0,1,68.27912,47.995Z"/><path class="g" d="M71.17072,47.55071a2.25393,2.25393,0,0,1-.63183-1.52051q-.01611-.43066-.01563-.77539,0-.35155.01563-.7998a2.37094,2.37094,0,0,1,.2998-1.06836,1.90687,1.90687,0,0,1,.77637-.74024,2.95755,2.95755,0,0,1,2.47559,0,1.89934,1.89934,0,0,1,.78027.74024,2.37094,2.37094,0,0,1,.2998,1.06836q.01613.22411.01661.7998,0,.55958-.01661.77539a2.25383,2.25383,0,0,1-.63183,1.52051,2.72026,2.72026,0,0,1-3.36817,0Zm2.24024-.86817a1.20949,1.20949,0,0,0,.20019-.69238q.01613-.23145.01563-.752,0-.52-.01563-.73535a1.22365,1.22365,0,0,0-.20019-.68457.64892.64892,0,0,0-.56055-.252q-.71923,0-.75976.93653-.00733.21533-.00782.73535,0,.52.00782.752.03954.936.75976.93653A.65652.65652,0,0,0,73.411,46.68254Z"/><path class="g" d="M76.63459,47.55071a2.25388,2.25388,0,0,1-.63183-1.52051q-.01613-.43066-.01563-.77539,0-.35155.01563-.7998a2.37094,2.37094,0,0,1,.2998-1.06836,1.90687,1.90687,0,0,1,.77637-.74024,2.95753,2.95753,0,0,1,2.47558,0,1.89931,1.89931,0,0,1,.78028.74024,2.37094,2.37094,0,0,1,.2998,1.06836q.01611.22411.0166.7998,0,.55958-.0166.77539a2.25393,2.25393,0,0,1-.63183,1.52051,2.72026,2.72026,0,0,1-3.36817,0Zm2.24024-.86817a1.20949,1.20949,0,0,0,.20019-.69238q.01611-.23145.01563-.752,0-.52-.01563-.73535a1.22365,1.22365,0,0,0-.20019-.68457.64892.64892,0,0,0-.56055-.252q-.71923,0-.75977.93653-.00732.21533-.00781.73535,0,.52.00781.752.03956.936.75977.93653A.65652.65652,0,0,0,78.87483,46.68254Z"/><path class="g" d="M90.18147,5.62a.19308.19308,0,0,1-.06055-.14062V1.73528l-1.07129.82422a.2249.2249,0,0,1-.12012.04.20772.20772,0,0,1-.168-.09571l-.49609-.64062a.23483.23483,0,0,1-.03223-.11914.20691.20691,0,0,1,.0879-.17676L90.17756.13567A.31163.31163,0,0,1,90.36115.08h1.05567a.209.209,0,0,1,.14844.05566.18651.18651,0,0,1,.05957.14355v5.2002a.18863.18863,0,0,1-.05957.14453.209.209,0,0,1-.14844.05566h-1.0957A.19154.19154,0,0,1,90.18147,5.62Z"/><path class="g" d="M94.20588,5.62a.19308.19308,0,0,1-.06055-.14062V1.73528L93.074,2.5595a.22484.22484,0,0,1-.12011.04.2077.2077,0,0,1-.168-.09571l-.49609-.64062a.23473.23473,0,0,1-.03223-.11914.20693.20693,0,0,1,.08789-.17676L94.202.13567A.31166.31166,0,0,1,94.38557.08h1.05566a.209.209,0,0,1,.14844.05566.18648.18648,0,0,1,.05957.14355v5.2002a.1886.1886,0,0,1-.05957.14453.209.209,0,0,1-.14844.05566h-1.0957A.19154.19154,0,0,1,94.20588,5.62Z"/><path class="g" d="M96.661,2.81926a.19.19,0,0,1-.05957-.13965V1.6718a.19006.19006,0,0,1,.05957-.14453.20024.20024,0,0,1,.14062-.05566h1.05567a.20831.20831,0,0,1,.14746.05566.19086.19086,0,0,1,.06055.14453V2.67961a.18727.18727,0,0,1-.06055.14356.20492.20492,0,0,1-.14746.05664H96.80158A.1931.1931,0,0,1,96.661,2.81926Zm0,2.80078a.19208.19208,0,0,1-.05957-.14062V4.47161a.18648.18648,0,0,1,.05957-.14356.19705.19705,0,0,1,.14062-.05664h1.05567a.205.205,0,0,1,.14746.05664.18727.18727,0,0,1,.06055.14356V5.47942a.18937.18937,0,0,1-.06055.14453.20831.20831,0,0,1-.14746.05566H96.80158A.1921.1921,0,0,1,96.661,5.62Z"/><path class="g" d="M99.55354,5.17571A2.25389,2.25389,0,0,1,98.9217,3.6552q-.01611-.43066-.01562-.77539,0-.35156.01562-.7998a2.371,2.371,0,0,1,.29981-1.06836,1.90691,1.90691,0,0,1,.77636-.74024,2.95755,2.95755,0,0,1,2.47559,0,1.89928,1.89928,0,0,1,.78027.74024A2.37107,2.37107,0,0,1,103.55354,2.08q.01611.22411.0166.7998,0,.55958-.0166.77539a2.25389,2.25389,0,0,1-.63184,1.52051,2.72025,2.72025,0,0,1-3.36816,0Zm2.24023-.86817a1.20956,1.20956,0,0,0,.2002-.69238q.01611-.23145.01562-.75195,0-.52-.01562-.73535a1.22373,1.22373,0,0,0-.2002-.68457.64892.64892,0,0,0-.56055-.252q-.71923,0-.75976.93653-.00732.21533-.00781.73535,0,.52.00781.75195.03955.936.75976.93653A.65652.65652,0,0,0,101.79377,4.30754Z"/><path class="g" d="M105.0174,5.17571a2.25393,2.25393,0,0,1-.63183-1.52051q-.01611-.43066-.01563-.77539,0-.35156.01563-.7998a2.37094,2.37094,0,0,1,.2998-1.06836,1.90687,1.90687,0,0,1,.77637-.74024,2.95755,2.95755,0,0,1,2.47559,0,1.89934,1.89934,0,0,1,.78027.74024A2.37094,2.37094,0,0,1,109.0174,2.08q.01613.22411.01661.7998,0,.55958-.01661.77539a2.25388,2.25388,0,0,1-.63183,1.52051,2.72026,2.72026,0,0,1-3.36817,0Zm2.24024-.86817a1.20949,1.20949,0,0,0,.20019-.69238q.01613-.23145.01563-.75195,0-.52-.01563-.73535a1.22365,1.22365,0,0,0-.20019-.68457.64892.64892,0,0,0-.56055-.252q-.71923,0-.75976.93653-.00734.21533-.00782.73535,0,.52.00782.75195.03954.936.75976.93653A.65652.65652,0,0,0,107.25764,4.30754Z"/><path class="g" d="M115.9383,47.995a.1894.1894,0,0,1-.06054-.14062V44.11028l-1.07227.82422a.222.222,0,0,1-.11914.04.2064.2064,0,0,1-.168-.09571l-.49609-.64062a.23578.23578,0,0,1-.03321-.11914.20693.20693,0,0,1,.08789-.17676l1.85743-1.43164a.30951.30951,0,0,1,.18359-.05566h1.05469a.20584.20584,0,0,1,.14844.05566.184.184,0,0,1,.06054.14355v5.2002a.186.186,0,0,1-.06054.14453.20584.20584,0,0,1-.14844.05566H116.077A.18787.18787,0,0,1,115.9383,47.995Z"/><path class="g" d="M118.27424,47.995a.18937.18937,0,0,1-.06055-.14062v-.59961a.49126.49126,0,0,1,.20118-.40039l.74414-.72754q.75879-.57568,1.14648-.89648a3.809,3.809,0,0,0,.5918-.58008.80881.80881,0,0,0,.20508-.49219.52308.52308,0,0,0-.5918-.5918.61025.61025,0,0,0-.48047.18848.976.976,0,0,0-.22461.46777.24442.24442,0,0,1-.27148.1836h-1.05664a.16762.16762,0,0,1-.123-.05176.15876.15876,0,0,1-.05274-.11621,1.85063,1.85063,0,0,1,.293-.95606,1.94093,1.94093,0,0,1,.77149-.67968,2.49393,2.49393,0,0,1,1.14453-.252,2.86384,2.86384,0,0,1,1.16015.21582,1.67178,1.67178,0,0,1,.63477,2.56055,5.50574,5.50574,0,0,1-1.084,1.00781l-.66407.66407h2.02539a.192.192,0,0,1,.14258.05566.19727.19727,0,0,1,.05664.14453v.85547a.20118.20118,0,0,1-.05664.14062.18438.18438,0,0,1-.14258.05957h-4.168A.189.189,0,0,1,118.27424,47.995Z"/><path class="g" d="M123.63362,45.19426a.1873.1873,0,0,1-.06055-.13965V44.0468a.18743.18743,0,0,1,.06055-.14453.19693.19693,0,0,1,.14062-.05566h1.05469a.21237.21237,0,0,1,.14844.05566.19442.19442,0,0,1,.06054.14453v1.00781a.19072.19072,0,0,1-.06054.14356.20886.20886,0,0,1-.14844.05664h-1.05469A.18993.18993,0,0,1,123.63362,45.19426Zm0,2.80078a.18937.18937,0,0,1-.06055-.14062V46.84661a.184.184,0,0,1,.06055-.14356.19383.19383,0,0,1,.14062-.05664h1.05469a.20891.20891,0,0,1,.14844.05664.19072.19072,0,0,1,.06054.14356v1.00781a.19287.19287,0,0,1-.06054.14453.21237.21237,0,0,1-.14844.05566h-1.05469A.189.189,0,0,1,123.63362,47.995Z"/><path class="g" d="M126.52619,47.55071a2.25014,2.25014,0,0,1-.63281-1.52051c-.00976-.28711-.01562-.5459-.01562-.77539,0-.23437.00586-.501.01562-.7998a2.35941,2.35941,0,0,1,.30078-1.06836,1.90433,1.90433,0,0,1,.77539-.74024,2.59868,2.59868,0,0,1,1.23633-.27148,2.62593,2.62593,0,0,1,1.24024.27148,1.89079,1.89079,0,0,1,.77929.74024,2.35928,2.35928,0,0,1,.30078,1.06836c.00977.14941.01563.416.01563.7998,0,.373-.00586.63184-.01563.77539a2.25009,2.25009,0,0,1-.63281,1.52051,2.71885,2.71885,0,0,1-3.36719,0Zm2.24024-.86817a1.20966,1.20966,0,0,0,.19922-.69238c.01172-.1543.01562-.40527.01562-.752s-.0039-.5918-.01562-.73535a1.22369,1.22369,0,0,0-.19922-.68457.65011.65011,0,0,0-.56055-.252q-.72071,0-.75976.93653c-.00586.14355-.00782.38867-.00782.73535s.002.59765.00782.752q.03809.936.75976.93653A.65773.65773,0,0,0,128.76643,46.68254Z"/><path class="g" d="M131.98908,47.55071a2.2577,2.2577,0,0,1-.63086-1.52051c-.01171-.28711-.01562-.5459-.01562-.77539,0-.23437.00391-.501.01562-.7998a2.38288,2.38288,0,0,1,.29883-1.06836,1.90948,1.90948,0,0,1,.77735-.74024,2.95531,2.95531,0,0,1,2.47461,0,1.90794,1.90794,0,0,1,.78125.74024,2.38274,2.38274,0,0,1,.29882,1.06836q.01758.22411.01758.7998,0,.55958-.01758.77539a2.25765,2.25765,0,0,1-.63086,1.52051,2.72166,2.72166,0,0,1-3.36914,0Zm2.24024-.86817a1.2094,1.2094,0,0,0,.20117-.69238c.00977-.1543.01563-.40527.01563-.752s-.00586-.5918-.01563-.73535a1.2237,1.2237,0,0,0-.20117-.68457.64775.64775,0,0,0-.56055-.252q-.71776,0-.75976.93653c-.00391.14355-.00782.38867-.00782.73535s.00391.59765.00782.752q.041.936.75976.93653A.65532.65532,0,0,0,134.22932,46.68254Z"/><path class="g" d="M144.00862,5.62a.19308.19308,0,0,1-.06055-.14062V1.73528l-1.07129.82422a.2249.2249,0,0,1-.12012.04.20771.20771,0,0,1-.168-.09571l-.49609-.64062a.23483.23483,0,0,1-.03223-.11914.20693.20693,0,0,1,.08789-.17676L144.00471.13567A.31163.31163,0,0,1,144.1883.08H145.244a.209.209,0,0,1,.14843.05566.18648.18648,0,0,1,.05957.14355v5.2002a.1886.1886,0,0,1-.05957.14453.209.209,0,0,1-.14843.05566h-1.09571A.19151.19151,0,0,1,144.00862,5.62Z"/><path class="g" d="M147.25666,5.51555a1.88853,1.88853,0,0,1-.78418-.60351,1.36063,1.36063,0,0,1-.26758-.72071.15879.15879,0,0,1,.05176-.12011.181.181,0,0,1,.124-.04786h1.10449a.282.282,0,0,1,.15136.03614.35228.35228,0,0,1,.1045.11621q.15087.39258.83984.3916a.91108.91108,0,0,0,.6084-.18359.62.62,0,0,0,.21582-.4961q0-.60059-.79981-.59961h-.89648a.20511.20511,0,0,1-.208-.208V2.60735a.30033.30033,0,0,1,.13574-.27149l1.28809-1.05664h-2.208a.20529.20529,0,0,1-.20019-.19921V.288a.21144.21144,0,0,1,.05664-.14843A.18648.18648,0,0,1,146.71662.08h3.72852a.18648.18648,0,0,1,.14355.05957.21144.21144,0,0,1,.05664.14843V.99993a.3119.3119,0,0,1-.1289.26367l-1.1836,1.08008.05567.01562a2.08136,2.08136,0,0,1,1.14453.4961,1.46256,1.46256,0,0,1,.42383,1.12793,1.50981,1.50981,0,0,1-.30762.94043,1.95184,1.95184,0,0,1-.84863.62011,3.29121,3.29121,0,0,1-1.22754.21582A3.14368,3.14368,0,0,1,147.25666,5.51555Z"/><path class="g" d="M151.77619,2.81926a.19.19,0,0,1-.05957-.13965V1.6718a.19006.19006,0,0,1,.05957-.14453.20027.20027,0,0,1,.14063-.05566h1.05566a.2083.2083,0,0,1,.14746.05566.19086.19086,0,0,1,.06055.14453V2.67961a.18727.18727,0,0,1-.06055.14356.2049.2049,0,0,1-.14746.05664h-1.05566A.19312.19312,0,0,1,151.77619,2.81926Zm0,2.80078a.19208.19208,0,0,1-.05957-.14062V4.47161a.18648.18648,0,0,1,.05957-.14356.19708.19708,0,0,1,.14063-.05664h1.05566a.20494.20494,0,0,1,.14746.05664.18727.18727,0,0,1,.06055.14356V5.47942a.18937.18937,0,0,1-.06055.14453.2083.2083,0,0,1-.14746.05566h-1.05566A.19212.19212,0,0,1,151.77619,5.62Z"/><path class="g" d="M154.66877,5.17571a2.25383,2.25383,0,0,1-.63183-1.52051q-.01612-.43066-.01563-.77539,0-.35156.01563-.7998a2.37094,2.37094,0,0,1,.2998-1.06836,1.90687,1.90687,0,0,1,.77637-.74024,2.95753,2.95753,0,0,1,2.47558,0,1.89931,1.89931,0,0,1,.78028.74024,2.37094,2.37094,0,0,1,.2998,1.06836q.01611.22411.0166.7998,0,.55958-.0166.77539a2.25393,2.25393,0,0,1-.63183,1.52051,2.72026,2.72026,0,0,1-3.36817,0Zm2.24024-.86817a1.20949,1.20949,0,0,0,.20019-.69238q.01611-.23145.01563-.75195,0-.52-.01563-.73535a1.22365,1.22365,0,0,0-.20019-.68457.64892.64892,0,0,0-.56055-.252q-.71923,0-.75977.93653-.00732.21533-.00781.73535,0,.52.00781.75195.03955.936.75977.93653A.65652.65652,0,0,0,156.909,4.30754Z"/><path class="g" d="M160.13264,5.17571a2.25389,2.25389,0,0,1-.63184-1.52051q-.01611-.43066-.01562-.77539,0-.35156.01562-.7998a2.37107,2.37107,0,0,1,.29981-1.06836A1.90691,1.90691,0,0,1,160.577.27141a2.95755,2.95755,0,0,1,2.47559,0,1.89928,1.89928,0,0,1,.78027.74024A2.37107,2.37107,0,0,1,164.13264,2.08q.01611.22411.0166.7998,0,.55958-.0166.77539a2.25389,2.25389,0,0,1-.63184,1.52051,2.72025,2.72025,0,0,1-3.36816,0Zm2.24023-.86817a1.20949,1.20949,0,0,0,.2002-.69238q.01611-.23145.01562-.75195,0-.52-.01562-.73535a1.22365,1.22365,0,0,0-.2002-.68457.6489.6489,0,0,0-.56054-.252q-.71925,0-.75977.93653-.00732.21533-.00781.73535,0,.52.00781.75195.03956.936.75977.93653A.6565.6565,0,0,0,162.37287,4.30754Z"/><path class="g" d="M171.036,47.995a.197.197,0,0,1-.06055-.14062V44.11028l-1.07031.82422a.22784.22784,0,0,1-.12109.04.209.209,0,0,1-.168-.09571l-.4961-.64062a.23383.23383,0,0,1-.03125-.11914.20693.20693,0,0,1,.08789-.17676l1.85547-1.43164a.31381.31381,0,0,1,.1836-.05566h1.05664a.21233.21233,0,0,1,.14843.05566.18913.18913,0,0,1,.0586.14355v5.2002a.1913.1913,0,0,1-.0586.14453.21233.21233,0,0,1-.14843.05566h-1.09571A.19527.19527,0,0,1,171.036,47.995Z"/><path class="g" d="M175.94807,47.995a.195.195,0,0,1-.0586-.14062v-.87988H173.409a.20522.20522,0,0,1-.20118-.2002v-.80762a.40544.40544,0,0,1,.08789-.24023l2.32032-3.13574a.367.367,0,0,1,.29687-.13574h1.21485a.209.209,0,0,1,.14843.05566.18394.18394,0,0,1,.06055.14355V45.7343h.70313a.19782.19782,0,0,1,.15234.06055.20062.20062,0,0,1,.05664.13965v.83984a.20122.20122,0,0,1-.05664.14063.1844.1844,0,0,1-.14258.05957h-.71289v.87988a.186.186,0,0,1-.06055.14453.209.209,0,0,1-.14843.05566h-1.03907A.19527.19527,0,0,1,175.94807,47.995Zm-1.31445-2.2041h1.2871V43.99016Z"/><path class="g" d="M178.98713,45.19426a.19278.19278,0,0,1-.05859-.13965V44.0468a.19283.19283,0,0,1,.05859-.14453.20367.20367,0,0,1,.14063-.05566h1.05664a.20432.20432,0,0,1,.14648.05566.18743.18743,0,0,1,.06055.14453v1.00781a.184.184,0,0,1-.06055.14356.201.201,0,0,1-.14648.05664h-1.05664A.19636.19636,0,0,1,178.98713,45.19426Zm0,2.80078a.195.195,0,0,1-.05859-.14062V46.84661a.18917.18917,0,0,1,.05859-.14356.20038.20038,0,0,1,.14063-.05664h1.05664a.20107.20107,0,0,1,.14648.05664.184.184,0,0,1,.06055.14356v1.00781a.186.186,0,0,1-.06055.14453.20432.20432,0,0,1-.14648.05566h-1.05664A.1953.1953,0,0,1,178.98713,47.995Z"/><path class="g" d="M181.87971,47.55071a2.2577,2.2577,0,0,1-.63086-1.52051c-.01172-.28711-.01563-.5459-.01563-.77539,0-.23437.00391-.501.01563-.7998a2.38262,2.38262,0,0,1,.29883-1.06836,1.90952,1.90952,0,0,1,.77734-.74024,2.95531,2.95531,0,0,1,2.47461,0,1.90788,1.90788,0,0,1,.78125.74024,2.38275,2.38275,0,0,1,.29883,1.06836q.01758.22411.01758.7998,0,.55958-.01758.77539a2.2577,2.2577,0,0,1-.63086,1.52051,2.72166,2.72166,0,0,1-3.36914,0Zm2.24023-.86817a1.2094,1.2094,0,0,0,.20118-.69238c.00976-.1543.01562-.40527.01562-.752s-.00586-.5918-.01562-.73535a1.2237,1.2237,0,0,0-.20118-.68457.64772.64772,0,0,0-.56054-.252q-.71778,0-.75977.93653c-.00391.14355-.00781.38867-.00781.73535s.0039.59765.00781.752q.041.936.75977.93653A.65529.65529,0,0,0,184.11994,46.68254Z"/><path class="g" d="M187.34455,47.55071a2.25014,2.25014,0,0,1-.63281-1.52051c-.00977-.28711-.01562-.5459-.01562-.77539,0-.23437.00585-.501.01562-.7998a2.35928,2.35928,0,0,1,.30078-1.06836,1.90433,1.90433,0,0,1,.77539-.74024,2.59868,2.59868,0,0,1,1.23633-.27148,2.62586,2.62586,0,0,1,1.24023.27148,1.89076,1.89076,0,0,1,.7793.74024,2.35928,2.35928,0,0,1,.30078,1.06836c.00977.14941.01563.416.01563.7998,0,.373-.00586.63184-.01563.77539a2.25009,2.25009,0,0,1-.63281,1.52051,2.71885,2.71885,0,0,1-3.36719,0Zm2.24024-.86817a1.20966,1.20966,0,0,0,.19922-.69238c.01171-.1543.01562-.40527.01562-.752s-.00391-.5918-.01562-.73535a1.22369,1.22369,0,0,0-.19922-.68457.65011.65011,0,0,0-.56055-.252q-.7207,0-.75977.93653c-.00585.14355-.00781.38867-.00781.73535s.002.59765.00781.752q.0381.936.75977.93653A.65773.65773,0,0,0,189.58479,46.68254Z"/><path class="g" d="M199.23615,5.62a.19311.19311,0,0,1-.06054-.14062V1.73528l-1.07129.82422a.2249.2249,0,0,1-.12012.04.20771.20771,0,0,1-.168-.09571l-.49609-.64062a.23473.23473,0,0,1-.03223-.11914.20693.20693,0,0,1,.08789-.17676L199.23225.13567A.31163.31163,0,0,1,199.41584.08h1.05567a.209.209,0,0,1,.14843.05566.18648.18648,0,0,1,.05957.14355v5.2002a.1886.1886,0,0,1-.05957.14453.209.209,0,0,1-.14843.05566H199.3758A.19155.19155,0,0,1,199.23615,5.62Z"/><path class="g" d="M202.51643,5.53606a1.85021,1.85021,0,0,1-.792-.61621,1.53463,1.53463,0,0,1-.28418-.83984.16358.16358,0,0,1,.168-.168h1.12793a.26808.26808,0,0,1,.26465.15136.80344.80344,0,0,0,.29981.38379.85156.85156,0,0,0,.46777.12012.81746.81746,0,0,0,.57227-.208.752.752,0,0,0,.22754-.584.72388.72388,0,0,0-.22364-.54395.79821.79821,0,0,0-.57617-.21582.82751.82751,0,0,0-.32031.05176,1.06344,1.06344,0,0,0-.23145.14063.36035.36035,0,0,1-.208.0957h-1.11231a.17673.17673,0,0,1-.17578-.17578l.2959-2.8086a.24055.24055,0,0,1,.084-.17578A.268.268,0,0,1,202.2801.08H205.536a.19656.19656,0,0,1,.14453.05566.19428.19428,0,0,1,.05566.14355V1.08a.19962.19962,0,0,1-.05566.13964.1886.1886,0,0,1-.14453.05957h-2.32715l-.09668.98438a1.4125,1.4125,0,0,1,.43262-.2041,2.35775,2.35775,0,0,1,.624-.06836,2.08488,2.08488,0,0,1,.96.22851,1.82911,1.82911,0,0,1,.71582.64356,1.7188,1.7188,0,0,1,.26758.95215,1.841,1.841,0,0,1-.2793,1.0039,1.89136,1.89136,0,0,1-.8125.69629,2.896,2.896,0,0,1-1.25195.252A3.08444,3.08444,0,0,1,202.51643,5.53606Z"/><path class="g" d="M206.89143,2.81926a.19.19,0,0,1-.05957-.13965V1.6718a.19006.19006,0,0,1,.05957-.14453.20024.20024,0,0,1,.14062-.05566h1.05567a.20831.20831,0,0,1,.14746.05566.19085.19085,0,0,1,.06054.14453V2.67961a.18726.18726,0,0,1-.06054.14356.20492.20492,0,0,1-.14746.05664h-1.05567A.1931.1931,0,0,1,206.89143,2.81926Zm0,2.80078a.19208.19208,0,0,1-.05957-.14062V4.47161a.18648.18648,0,0,1,.05957-.14356.19705.19705,0,0,1,.14062-.05664h1.05567a.205.205,0,0,1,.14746.05664.18726.18726,0,0,1,.06054.14356V5.47942a.18937.18937,0,0,1-.06054.14453.20831.20831,0,0,1-.14746.05566h-1.05567A.1921.1921,0,0,1,206.89143,5.62Z"/><path class="g" d="M209.784,5.17571a2.25389,2.25389,0,0,1-.63184-1.52051q-.01611-.43066-.01563-.77539,0-.35156.01563-.7998a2.37094,2.37094,0,0,1,.2998-1.06836,1.90693,1.90693,0,0,1,.77637-.74024,2.95755,2.95755,0,0,1,2.47559,0,1.89934,1.89934,0,0,1,.78027.74024A2.37107,2.37107,0,0,1,213.784,2.08q.01611.22411.0166.7998,0,.55958-.0166.77539a2.25389,2.25389,0,0,1-.63184,1.52051,2.72025,2.72025,0,0,1-3.36816,0Zm2.24023-.86817a1.20956,1.20956,0,0,0,.2002-.69238q.01611-.23145.01562-.75195,0-.52-.01562-.73535a1.22373,1.22373,0,0,0-.2002-.68457.64892.64892,0,0,0-.56055-.252q-.71924,0-.75976.93653-.00734.21533-.00781.73535,0,.52.00781.75195.03954.936.75976.93653A.65652.65652,0,0,0,212.02424,4.30754Z"/><path class="g" d="M215.24787,5.17571A2.25388,2.25388,0,0,1,214.616,3.6552q-.01612-.43066-.01563-.77539,0-.35156.01563-.7998a2.37094,2.37094,0,0,1,.2998-1.06836,1.90687,1.90687,0,0,1,.77637-.74024,2.95753,2.95753,0,0,1,2.47558,0,1.89931,1.89931,0,0,1,.78028.74024,2.37094,2.37094,0,0,1,.2998,1.06836q.01613.22411.0166.7998,0,.55958-.0166.77539a2.25388,2.25388,0,0,1-.63183,1.52051,2.72026,2.72026,0,0,1-3.36817,0Zm2.24024-.86817a1.20949,1.20949,0,0,0,.20019-.69238q.01611-.23145.01563-.75195,0-.52-.01563-.73535a1.22365,1.22365,0,0,0-.20019-.68457.64892.64892,0,0,0-.56055-.252q-.71923,0-.75977.93653-.00732.21533-.00781.73535,0,.52.00781.75195.03956.936.75977.93653A.65652.65652,0,0,0,217.48811,4.30754Z"/><path class="g" d="M226.6551,47.995a.19308.19308,0,0,1-.06055-.14062V44.11028l-1.07129.82422a.22487.22487,0,0,1-.12011.04.2077.2077,0,0,1-.168-.09571l-.4961-.64062a.23482.23482,0,0,1-.03222-.11914.2069.2069,0,0,1,.08789-.17676l1.85644-1.43164a.31166.31166,0,0,1,.1836-.05566h1.05566a.209.209,0,0,1,.14844.05566.18648.18648,0,0,1,.05957.14355v5.2002a.1886.1886,0,0,1-.05957.14453.209.209,0,0,1-.14844.05566h-1.0957A.19154.19154,0,0,1,226.6551,47.995Z"/><path class="g" d="M230.01154,47.88274a2.00623,2.00623,0,0,1-.84863-.708,1.84833,1.84833,0,0,1-.30371-1.04785,3.00025,3.00025,0,0,1,.67969-1.64062l1.40039-1.87207a.338.338,0,0,1,.28809-.15918h1.12011a.16828.16828,0,0,1,.124.05175.17046.17046,0,0,1,.05175.124.21461.21461,0,0,1-.04.10351L231.411,44.19036a.95557.95557,0,0,1,.22461-.02344,2.21109,2.21109,0,0,1,.94824.27148,2.1204,2.1204,0,0,1,.75195.67579,1.70269,1.70269,0,0,1,.292.98046,1.88945,1.88945,0,0,1-.29688,1.02832,2.06294,2.06294,0,0,1-.83105.73926,2.68452,2.68452,0,0,1-1.23243.27246A2.95721,2.95721,0,0,1,230.01154,47.88274Zm1.83985-1.168a.84993.84993,0,0,0,.0039-1.19629.9531.9531,0,0,0-1.208,0,.8596.8596,0,0,0,0,1.2002.88182.88182,0,0,0,.60449.21582A.87227.87227,0,0,0,231.85139,46.71477Z"/><path class="g" d="M234.3426,45.19426a.19.19,0,0,1-.05957-.13965V44.0468a.19006.19006,0,0,1,.05957-.14453.20024.20024,0,0,1,.14062-.05566h1.05567a.20831.20831,0,0,1,.14746.05566.19086.19086,0,0,1,.06055.14453v1.00781a.18727.18727,0,0,1-.06055.14356.20492.20492,0,0,1-.14746.05664h-1.05567A.1931.1931,0,0,1,234.3426,45.19426Zm0,2.80078a.19208.19208,0,0,1-.05957-.14062V46.84661a.18648.18648,0,0,1,.05957-.14356.19705.19705,0,0,1,.14062-.05664h1.05567a.205.205,0,0,1,.14746.05664.18727.18727,0,0,1,.06055.14356v1.00781a.18937.18937,0,0,1-.06055.14453.20831.20831,0,0,1-.14746.05566h-1.05567A.1921.1921,0,0,1,234.3426,47.995Z"/><path class="g" d="M237.23518,47.55071a2.25389,2.25389,0,0,1-.63184-1.52051q-.01611-.43066-.01562-.77539,0-.35155.01562-.7998a2.37107,2.37107,0,0,1,.29981-1.06836,1.90691,1.90691,0,0,1,.77636-.74024,2.95755,2.95755,0,0,1,2.47559,0,1.89928,1.89928,0,0,1,.78027.74024,2.37107,2.37107,0,0,1,.29981,1.06836q.01611.22411.0166.7998,0,.55958-.0166.77539a2.25389,2.25389,0,0,1-.63184,1.52051,2.72025,2.72025,0,0,1-3.36816,0Zm2.24023-.86817a1.20949,1.20949,0,0,0,.2002-.69238q.01611-.23145.01562-.752,0-.52-.01562-.73535a1.22365,1.22365,0,0,0-.2002-.68457.6489.6489,0,0,0-.56054-.252q-.71925,0-.75977.93653-.00732.21533-.00781.73535,0,.52.00781.752.03955.936.75977.93653A.6565.6565,0,0,0,239.47541,46.68254Z"/><path class="g" d="M242.699,47.55071a2.25393,2.25393,0,0,1-.63183-1.52051q-.01611-.43066-.01563-.77539,0-.35155.01563-.7998a2.37094,2.37094,0,0,1,.2998-1.06836,1.90687,1.90687,0,0,1,.77637-.74024,2.95755,2.95755,0,0,1,2.47559,0,1.89934,1.89934,0,0,1,.78027.74024,2.37094,2.37094,0,0,1,.2998,1.06836q.01613.22411.01661.7998,0,.55958-.01661.77539a2.25383,2.25383,0,0,1-.63183,1.52051,2.72026,2.72026,0,0,1-3.36817,0Zm2.24024-.86817a1.20949,1.20949,0,0,0,.20019-.69238q.01613-.23145.01563-.752,0-.52-.01563-.73535a1.22365,1.22365,0,0,0-.20019-.68457.64892.64892,0,0,0-.56055-.252q-.71923,0-.75976.93653-.00733.21533-.00782.73535,0,.52.00782.752.03954.936.75976.93653A.65652.65652,0,0,0,244.93928,46.68254Z"/><path class="g" d="M251.92658,5.62a.19307.19307,0,0,1-.06054-.14062V1.73528l-1.07129.82422a.2249.2249,0,0,1-.12012.04.20771.20771,0,0,1-.168-.09571l-.49609-.64062a.23473.23473,0,0,1-.03223-.11914.20693.20693,0,0,1,.08789-.17676L251.92268.13567A.31163.31163,0,0,1,252.10627.08h1.05567a.209.209,0,0,1,.14843.05566.18648.18648,0,0,1,.05957.14355v5.2002a.1886.1886,0,0,1-.05957.14453.209.209,0,0,1-.14843.05566h-1.09571A.19155.19155,0,0,1,251.92658,5.62Z"/><path class="g" d="M254.87483,5.62786a.17656.17656,0,0,1-.04786-.124.16009.16009,0,0,1,.01563-.07226l1.83984-4.09571h-2.376a.20673.20673,0,0,1-.208-.208V.288A.20256.20256,0,0,1,254.159.13958.19951.19951,0,0,1,254.30647.08h3.78418a.20355.20355,0,0,1,.208.208v.74317a.69515.69515,0,0,1-.04.248c-.02637.06934-.043.10938-.04786.12012l-1.83984,4.08789a.29858.29858,0,0,1-.28809.19238h-1.08789A.15878.15878,0,0,1,254.87483,5.62786Z"/><path class="g" d="M259.00666,2.81926a.19.19,0,0,1-.05957-.13965V1.6718a.19006.19006,0,0,1,.05957-.14453.20027.20027,0,0,1,.14063-.05566H260.203a.20831.20831,0,0,1,.14746.05566.19086.19086,0,0,1,.06055.14453V2.67961a.18727.18727,0,0,1-.06055.14356.20492.20492,0,0,1-.14746.05664h-1.05566A.19312.19312,0,0,1,259.00666,2.81926Zm0,2.80078a.19208.19208,0,0,1-.05957-.14062V4.47161a.18648.18648,0,0,1,.05957-.14356.19708.19708,0,0,1,.14063-.05664H260.203a.205.205,0,0,1,.14746.05664.18727.18727,0,0,1,.06055.14356V5.47942a.18937.18937,0,0,1-.06055.14453.20831.20831,0,0,1-.14746.05566h-1.05566A.19212.19212,0,0,1,259.00666,5.62Z"/><path class="g" d="M261.89826,5.17571a2.25388,2.25388,0,0,1-.63183-1.52051q-.01611-.43066-.01563-.77539,0-.35156.01563-.7998a2.37094,2.37094,0,0,1,.2998-1.06836,1.90687,1.90687,0,0,1,.77637-.74024,2.95755,2.95755,0,0,1,2.47559,0,1.89934,1.89934,0,0,1,.78027.74024,2.37094,2.37094,0,0,1,.2998,1.06836q.01613.22411.01661.7998,0,.55958-.01661.77539a2.25388,2.25388,0,0,1-.63183,1.52051,2.72026,2.72026,0,0,1-3.36817,0Zm2.24024-.86817a1.20949,1.20949,0,0,0,.20019-.69238q.01613-.23145.01563-.75195,0-.52-.01563-.73535a1.22365,1.22365,0,0,0-.20019-.68457.64892.64892,0,0,0-.56055-.252q-.71924,0-.75976.93653-.00733.21533-.00782.73535,0,.52.00782.75195.03954.936.75976.93653A.65652.65652,0,0,0,264.1385,4.30754Z"/><path class="g" d="M267.36213,5.17571a2.25389,2.25389,0,0,1-.63184-1.52051q-.01611-.43066-.01562-.77539,0-.35156.01562-.7998a2.37107,2.37107,0,0,1,.29981-1.06836,1.90687,1.90687,0,0,1,.77637-.74024,2.95753,2.95753,0,0,1,2.47558,0,1.89931,1.89931,0,0,1,.78028.74024,2.37094,2.37094,0,0,1,.2998,1.06836q.01611.22411.0166.7998,0,.55958-.0166.77539a2.25389,2.25389,0,0,1-.63184,1.52051,2.72025,2.72025,0,0,1-3.36816,0Zm2.24024-.86817a1.20949,1.20949,0,0,0,.20019-.69238q.01611-.23145.01563-.75195,0-.52-.01563-.73535a1.22365,1.22365,0,0,0-.20019-.68457.64893.64893,0,0,0-.56055-.252q-.71923,0-.75977.93653-.00732.21533-.00781.73535,0,.52.00781.75195.03955.936.75977.93653A.65653.65653,0,0,0,269.60237,4.30754Z"/><line class="h" x1="13.40142" y1="31.63332" x2="13.40142" y2="16.41041"/><line class="h" x1="42.21977" y1="31.63332" x2="42.21977" y2="16.41041"/><line class="h" x1="68.99064" y1="31.63332" x2="68.99064" y2="16.41041"/><line class="h" x1="97.31119" y1="31.63332" x2="97.31119" y2="16.41041"/><line class="h" x1="124.32283" y1="31.63332" x2="124.32283" y2="16.41041"/><line class="h" x1="152.44896" y1="31.63332" x2="152.44896" y2="16.41041"/><line class="h" x1="179.73713" y1="31.63332" x2="179.73713" y2="16.41041"/><line class="h" x1="207.65575" y1="31.63332" x2="207.65575" y2="16.41041"/><line class="h" x1="235.1424" y1="31.63332" x2="235.1424" y2="16.41041"/><line class="h" x1="262.55213" y1="31.63332" x2="262.55213" y2="16.41041"/></svg>