<svg xmlns="http://www.w3.org/2000/svg" viewBox="0 0 384 216"><defs><style>.a{fill:#ededed;}.b{fill:#b2b2b2;}.c,.d,.e,.f,.h,.i,.l,.m,.n,.p,.r{fill:none;}.c{stroke:#b2b2b2;stroke-width:23px;}.c,.i,.s,.t{stroke-linejoin:round;}.d{stroke:#2d2a28;stroke-width:4px;}.d,.e,.f,.h,.l,.m,.n,.p,.r{stroke-miterlimit:10;}.e,.m{stroke:#29235c;opacity:0.14;}.e{stroke-width:9.75408px;}.f,.i,.n{stroke:#fff;}.f{stroke-width:7.31556px;}.g{fill:#ebf1f4;}.h{stroke:#a0d1ec;stroke-width:1.82889px;}.i,.s,.t{stroke-linecap:round;}.i{stroke-width:1.6836px;}.j{fill:#cde4ec;}.k{fill:#6d8393;}.l{stroke:#c7dde2;stroke-width:3px;}.m{stroke-width:2.79277px;}.n{stroke-width:2.09458px;}.o{fill:#1ac179;}.p{stroke:#17995e;}.p,.r{stroke-width:0.52364px;}.q,.s{fill:#95cfe2;}.r,.s,.t{stroke:#6ab8e2;}.s,.t{stroke-width:0.53266px;}.t{fill:#6ab8e2;}.u{fill:#455a60;}</style></defs><rect class="a" width="384" height="217.53929"/><path class="b" d="M35.91531,180.05739H348.07248a0,0,0,0,1,0,0v16.05936a5.14142,5.14142,0,0,1-5.14142,5.14142H41.05672a5.14142,5.14142,0,0,1-5.14142-5.14142V180.05739A0,0,0,0,1,35.91531,180.05739Z"/><line class="c" x1="190.22076" y1="187.3512" x2="190.22076" y2="220.16829"/><path class="a" d="M43.591,20.30771H340.40885a5.18018,5.18018,0,0,1,5.18018,5.18018V182.838a5.18066,5.18066,0,0,1-5.18066,5.18066H43.59146a5.18018,5.18018,0,0,1-5.18018-5.18018V25.48739A5.17969,5.17969,0,0,1,43.591,20.30771Z"/><path class="b" d="M340.4086,22.80787a2.68015,2.68015,0,0,1,2.68018,2.6801V182.83853a2.68016,2.68016,0,0,1-2.68018,2.68014H43.59122a2.68013,2.68013,0,0,1-2.68005-2.68014V25.488a2.68012,2.68012,0,0,1,2.68005-2.6801H340.4086m0-5H43.59122a7.68874,7.68874,0,0,0-7.68005,7.6801V182.83853a7.68876,7.68876,0,0,0,7.68005,7.68014H340.4086a7.68886,7.68886,0,0,0,7.68018-7.68014V25.488a7.68885,7.68885,0,0,0-7.68018-7.6801Z"/><rect class="d" x="40.91115" y="22.80787" width="302.17759" height="162.71077" rx="2.68011"/><rect class="e" x="59.0915" y="122.13513" width="265.17731" height="17.04877" rx="8.52438"/><rect class="f" x="59.0915" y="122.13513" width="265.17731" height="17.04877" rx="8.52438"/><rect class="g" x="59.0915" y="122.13513" width="265.17731" height="17.04877" rx="8.52438"/><rect class="h" x="59.0915" y="122.13513" width="265.17731" height="17.04877" rx="8.52438"/><path class="i" d="M65.95828,125.33484a5.72146,5.72146,0,0,0-3.05908,3.06137"/><path class="j" d="M321.63235,125.9357c1.17915,4.35878-.20924,12.19568-11.554,12.31985h5.70621a7.26954,7.26954,0,0,0,2.40192-.39274c2.62333-.90634,5.70324-3.93694,5.21726-7.46513C322.88608,126.63916,321.63235,125.9357,321.63235,125.9357Z"/><path class="k" d="M58.77555,154.19247a2.25763,2.25763,0,0,1-.63086-1.52051c-.01172-.28711-.01563-.5459-.01563-.77539,0-.23437.00391-.501.01563-.7998a2.38278,2.38278,0,0,1,.29882-1.06836,1.90948,1.90948,0,0,1,.77735-.74024,2.95531,2.95531,0,0,1,2.47461,0,1.90794,1.90794,0,0,1,.78125.74024,2.38291,2.38291,0,0,1,.29883,1.06836q.01756.22412.01757.7998,0,.55957-.01757.77539a2.25768,2.25768,0,0,1-.63086,1.52051,2.72162,2.72162,0,0,1-3.36914,0Zm2.24023-.86816a1.20946,1.20946,0,0,0,.20117-.69239c.00977-.15429.01563-.40527.01563-.752s-.00586-.5918-.01563-.73535a1.2237,1.2237,0,0,0-.20117-.68457.64773.64773,0,0,0-.56055-.25195q-.71776,0-.75976.93652c-.00391.14355-.00781.38867-.00781.73535s.0039.59766.00781.752q.041.936.75976.93653A.65533.65533,0,0,0,61.01578,153.32431Z"/><path class="k" d="M64.59976,154.54013a1.7481,1.7481,0,0,1-.79492-.63575,1.60659,1.60659,0,0,1-.26172-.89648,1.41108,1.41108,0,0,1,.21289-.75586,1.43945,1.43945,0,0,1,.55665-.52344,1.22766,1.22766,0,0,1-.56836-1.10449,1.42885,1.42885,0,0,1,.54687-1.16015,2.52029,2.52029,0,0,1,1.62109-.44727,2.47821,2.47821,0,0,1,1.60352.44336,1.429,1.429,0,0,1,.541,1.15625,1.27633,1.27633,0,0,1-.54493,1.1123,1.32469,1.32469,0,0,1,.56446.51172,1.456,1.456,0,0,1,.21093.77637,1.57264,1.57264,0,0,1-.26367.8916,1.79409,1.79409,0,0,1-.79883.63184,3.76276,3.76276,0,0,1-2.625,0Zm1.93165-1.01172a.65938.65938,0,0,0,0-1.02442.97.97,0,0,0-.61915-.1914.99475.99475,0,0,0-.625.1914.65288.65288,0,0,0,0,1.02442.99523.99523,0,0,0,.625.19238A.97045.97045,0,0,0,66.53141,153.52841Zm-.06641-2.39649a.53593.53593,0,0,0,.21484-.43554.54579.54579,0,0,0-.21484-.44434.981.981,0,0,0-1.10938,0,.57347.57347,0,0,0,0,.88867.8594.8594,0,0,0,.55664.17188A.89656.89656,0,0,0,66.465,151.13192Z"/><path class="k" d="M69.14078,151.836a.18732.18732,0,0,1-.06055-.13965v-1.00782a.18743.18743,0,0,1,.06055-.14453.19695.19695,0,0,1,.14063-.05566h1.05468a.21235.21235,0,0,1,.14844.05566.19443.19443,0,0,1,.06055.14453v1.00782a.19072.19072,0,0,1-.06055.14355.20885.20885,0,0,1-.14844.05664H69.28141A.19.19,0,0,1,69.14078,151.836Zm0,2.80078a.18941.18941,0,0,1-.06055-.14063v-1.00781a.184.184,0,0,1,.06055-.14356.19385.19385,0,0,1,.14063-.05664h1.05468a.20889.20889,0,0,1,.14844.05664.19074.19074,0,0,1,.06055.14356v1.00781a.19287.19287,0,0,1-.06055.14453.21236.21236,0,0,1-.14844.05567H69.28141A.189.189,0,0,1,69.14078,154.63681Z"/><path class="k" d="M72.03141,154.19247a2.25763,2.25763,0,0,1-.63086-1.52051c-.01172-.28711-.01563-.5459-.01563-.77539,0-.23437.00391-.501.01563-.7998a2.38278,2.38278,0,0,1,.29882-1.06836,1.90948,1.90948,0,0,1,.77735-.74024,2.95531,2.95531,0,0,1,2.47461,0,1.90794,1.90794,0,0,1,.78125.74024,2.38291,2.38291,0,0,1,.29883,1.06836q.01757.22412.01757.7998,0,.55957-.01757.77539a2.25768,2.25768,0,0,1-.63086,1.52051,2.72162,2.72162,0,0,1-3.36914,0Zm2.24023-.86816a1.20946,1.20946,0,0,0,.20117-.69239c.00977-.15429.01563-.40527.01563-.752s-.00586-.5918-.01563-.73535a1.2237,1.2237,0,0,0-.20117-.68457.64773.64773,0,0,0-.56055-.25195q-.71776,0-.75976.93652c-.00391.14355-.00782.38867-.00782.73535s.00391.59766.00782.752q.041.936.75976.93653A.65533.65533,0,0,0,74.27164,153.32431Z"/><path class="k" d="M77.49625,154.19247a2.25007,2.25007,0,0,1-.63281-1.52051c-.00977-.28711-.01563-.5459-.01563-.77539,0-.23437.00586-.501.01563-.7998a2.35932,2.35932,0,0,1,.30078-1.06836,1.90426,1.90426,0,0,1,.77539-.74024,2.59865,2.59865,0,0,1,1.23633-.27148,2.62592,2.62592,0,0,1,1.24023.27148,1.89082,1.89082,0,0,1,.7793.74024,2.35945,2.35945,0,0,1,.30078,1.06836c.00976.14941.01562.416.01562.7998,0,.37305-.00586.63184-.01562.77539a2.25012,2.25012,0,0,1-.63281,1.52051,2.71882,2.71882,0,0,1-3.36719,0Zm2.24023-.86816a1.20957,1.20957,0,0,0,.19922-.69239c.01172-.15429.01563-.40527.01563-.752s-.00391-.5918-.01563-.73535a1.22353,1.22353,0,0,0-.19922-.68457.65007.65007,0,0,0-.56054-.25195q-.7207,0-.75977.93652c-.00586.14355-.00781.38867-.00781.73535s.00195.59766.00781.752q.03808.936.75977.93653A.65772.65772,0,0,0,79.73648,153.32431Z"/><path class="k" d="M85.67691,111.81747a2.25386,2.25386,0,0,1-.63183-1.52051q-.01613-.43066-.01563-.77539,0-.35155.01563-.7998a2.371,2.371,0,0,1,.2998-1.06836,1.90687,1.90687,0,0,1,.77637-.74024,2.95753,2.95753,0,0,1,2.47558,0,1.89931,1.89931,0,0,1,.78028.74024,2.371,2.371,0,0,1,.2998,1.06836q.01612.22411.0166.7998,0,.55958-.0166.77539a2.25386,2.25386,0,0,1-.63183,1.52051,2.72023,2.72023,0,0,1-3.36817,0Zm2.24024-.86816a1.20955,1.20955,0,0,0,.20019-.69239q.01611-.23143.01563-.75195,0-.52-.01563-.73535a1.22365,1.22365,0,0,0-.20019-.68457.64891.64891,0,0,0-.56055-.25195q-.71923,0-.75977.93652-.00732.21532-.00781.73535,0,.52.00781.75195.03955.936.75977.93653A.65654.65654,0,0,0,87.91715,110.94931Z"/><path class="k" d="M91.34879,112.26962a.17655.17655,0,0,1-.04785-.124.18558.18558,0,0,1,.03222-.1045l1.12012-1.52734a.75806.75806,0,0,1-.2168.01562,2.25609,2.25609,0,0,1-.92773-.26757,1.94055,1.94055,0,0,1-.71582-.65625,1.70568,1.70568,0,0,1-.27637-.95606,1.92955,1.92955,0,0,1,.26856-.98828,1.95925,1.95925,0,0,1,.792-.74023,2.64031,2.64031,0,0,1,1.25976-.2793,2.944,2.944,0,0,1,1.28028.25586,1.87627,1.87627,0,0,1,.81152.70019,1.84312,1.84312,0,0,1,.27637.9961,1.80136,1.80136,0,0,1-.17969.80371,5.98581,5.98581,0,0,1-.54.85156l-.14453.2002-1.25586,1.71191a.34018.34018,0,0,1-.28809.16016H91.46891A.15879.15879,0,0,1,91.34879,112.26962Zm1.88379-3.044a.76635.76635,0,0,0,.22851-.584.75705.75705,0,0,0-.23242-.584.87791.87791,0,0,0-1.15527,0,.76486.76486,0,0,0-.22852.584.774.774,0,0,0,.22363.584.89273.89273,0,0,0,1.16407,0Z"/><path class="k" d="M95.7609,109.461a.19.19,0,0,1-.05957-.13965v-1.00782a.19006.19006,0,0,1,.05957-.14453.20024.20024,0,0,1,.14062-.05566h1.05567a.20831.20831,0,0,1,.14746.05566.19085.19085,0,0,1,.06054.14453v1.00782a.18725.18725,0,0,1-.06054.14355.20492.20492,0,0,1-.14746.05664H95.90152A.19313.19313,0,0,1,95.7609,109.461Zm0,2.80078a.19212.19212,0,0,1-.05957-.14063v-1.00781a.1865.1865,0,0,1,.05957-.14356.19705.19705,0,0,1,.14062-.05664h1.05567a.205.205,0,0,1,.14746.05664.18727.18727,0,0,1,.06054.14356v1.00781a.18935.18935,0,0,1-.06054.14453.20832.20832,0,0,1-.14746.05567H95.90152A.1921.1921,0,0,1,95.7609,112.26181Z"/><path class="k" d="M98.6525,111.81747a2.25387,2.25387,0,0,1-.63184-1.52051q-.01611-.43066-.01562-.77539,0-.35155.01562-.7998a2.37111,2.37111,0,0,1,.29981-1.06836,1.90691,1.90691,0,0,1,.77636-.74024,2.95755,2.95755,0,0,1,2.47559,0,1.89928,1.89928,0,0,1,.78027.74024,2.371,2.371,0,0,1,.29981,1.06836q.01611.22411.0166.7998,0,.55958-.0166.77539a2.25387,2.25387,0,0,1-.63184,1.52051,2.72021,2.72021,0,0,1-3.36816,0Zm2.24023-.86816a1.20955,1.20955,0,0,0,.2002-.69239q.01611-.23143.01562-.75195,0-.52-.01562-.73535a1.22365,1.22365,0,0,0-.2002-.68457.64889.64889,0,0,0-.56054-.25195q-.71925,0-.75977.93652-.00732.21532-.00781.73535,0,.52.00781.75195.03956.936.75977.93653A.65652.65652,0,0,0,100.89273,110.94931Z"/><path class="k" d="M104.11734,111.81747a2.25386,2.25386,0,0,1-.63183-1.52051q-.01613-.43066-.01563-.77539,0-.35155.01563-.7998a2.371,2.371,0,0,1,.2998-1.06836,1.90687,1.90687,0,0,1,.77637-.74024,2.95753,2.95753,0,0,1,2.47558,0,1.89931,1.89931,0,0,1,.78028.74024,2.371,2.371,0,0,1,.2998,1.06836q.01611.22411.0166.7998,0,.55958-.0166.77539a2.25386,2.25386,0,0,1-.63183,1.52051,2.72023,2.72023,0,0,1-3.36817,0Zm2.24024-.86816a1.20955,1.20955,0,0,0,.20019-.69239q.01611-.23143.01563-.75195,0-.52-.01563-.73535a1.22365,1.22365,0,0,0-.20019-.68457.64891.64891,0,0,0-.56055-.25195q-.71924,0-.75977.93652-.00732.21532-.00781.73535,0,.52.00781.75195.03956.936.75977.93653A.65654.65654,0,0,0,106.35758,110.94931Z"/><path class="k" d="M114.57437,154.63681a.18943.18943,0,0,1-.06054-.14063V150.752l-1.07227.82422a.222.222,0,0,1-.11914.04.20641.20641,0,0,1-.168-.0957l-.49609-.64063a.23577.23577,0,0,1-.0332-.11914.2069.2069,0,0,1,.08789-.17676l1.85742-1.43164a.30951.30951,0,0,1,.18359-.05566h1.05469a.20582.20582,0,0,1,.14844.05566.184.184,0,0,1,.06054.14356v5.20019a.186.186,0,0,1-.06054.14453.20583.20583,0,0,1-.14844.05567h-1.0957A.18787.18787,0,0,1,114.57437,154.63681Z"/><path class="k" d="M117.57047,154.19247a2.25,2.25,0,0,1-.63281-1.52051c-.00977-.28711-.01563-.5459-.01563-.77539,0-.23437.00586-.501.01563-.7998a2.35932,2.35932,0,0,1,.30078-1.06836,1.90426,1.90426,0,0,1,.77539-.74024,2.59865,2.59865,0,0,1,1.23633-.27148,2.62592,2.62592,0,0,1,1.24023.27148,1.89082,1.89082,0,0,1,.7793.74024,2.35957,2.35957,0,0,1,.30078,1.06836c.00976.14941.01562.416.01562.7998,0,.37305-.00586.63184-.01562.77539a2.25012,2.25012,0,0,1-.63281,1.52051,2.71882,2.71882,0,0,1-3.36719,0Zm2.24023-.86816a1.20957,1.20957,0,0,0,.19922-.69239c.01172-.15429.01563-.40527.01563-.752s-.00391-.5918-.01563-.73535a1.22353,1.22353,0,0,0-.19922-.68457.65007.65007,0,0,0-.56054-.25195q-.7207,0-.75977.93652c-.00586.14355-.00781.38867-.00781.73535s.002.59766.00781.752q.03809.936.75977.93653A.65772.65772,0,0,0,119.8107,153.32431Z"/><path class="k" d="M122.4943,151.836a.18732.18732,0,0,1-.06055-.13965v-1.00782a.18743.18743,0,0,1,.06055-.14453.19693.19693,0,0,1,.14062-.05566h1.05469a.21237.21237,0,0,1,.14844.05566.19442.19442,0,0,1,.06054.14453v1.00782a.19071.19071,0,0,1-.06054.14355.20886.20886,0,0,1-.14844.05664h-1.05469A.19.19,0,0,1,122.4943,151.836Zm0,2.80078a.18941.18941,0,0,1-.06055-.14063v-1.00781a.184.184,0,0,1,.06055-.14356.19383.19383,0,0,1,.14062-.05664h1.05469a.20891.20891,0,0,1,.14844.05664.19073.19073,0,0,1,.06054.14356v1.00781a.19286.19286,0,0,1-.06054.14453.21238.21238,0,0,1-.14844.05567h-1.05469A.189.189,0,0,1,122.4943,154.63681Z"/><path class="k" d="M125.38492,154.19247a2.25768,2.25768,0,0,1-.63086-1.52051c-.01172-.28711-.01562-.5459-.01562-.77539,0-.23437.0039-.501.01562-.7998a2.38291,2.38291,0,0,1,.29883-1.06836,1.90952,1.90952,0,0,1,.77734-.74024,2.95531,2.95531,0,0,1,2.47461,0,1.90782,1.90782,0,0,1,.78125.74024,2.38266,2.38266,0,0,1,.29883,1.06836q.01758.22412.01758.7998,0,.55957-.01758.77539a2.25768,2.25768,0,0,1-.63086,1.52051,2.72162,2.72162,0,0,1-3.36914,0Zm2.24024-.86816a1.20953,1.20953,0,0,0,.20117-.69239c.00976-.15429.01562-.40527.01562-.752s-.00586-.5918-.01562-.73535a1.22378,1.22378,0,0,0-.20117-.68457.64774.64774,0,0,0-.56055-.25195q-.71778,0-.75977.93652c-.0039.14355-.00781.38867-.00781.73535s.00391.59766.00781.752q.041.936.75977.93653A.65534.65534,0,0,0,127.62516,153.32431Z"/><path class="k" d="M130.84976,154.19247a2.25012,2.25012,0,0,1-.63281-1.52051c-.00976-.28711-.01562-.5459-.01562-.77539,0-.23437.00586-.501.01562-.7998a2.35957,2.35957,0,0,1,.30078-1.06836,1.90433,1.90433,0,0,1,.77539-.74024,2.59868,2.59868,0,0,1,1.23633-.27148,2.62593,2.62593,0,0,1,1.24024.27148,1.89079,1.89079,0,0,1,.77929.74024,2.35932,2.35932,0,0,1,.30078,1.06836c.00977.14941.01563.416.01563.7998,0,.37305-.00586.63184-.01563.77539a2.25,2.25,0,0,1-.63281,1.52051,2.71882,2.71882,0,0,1-3.36719,0Zm2.24024-.86816a1.20972,1.20972,0,0,0,.19922-.69239c.01172-.15429.01562-.40527.01562-.752s-.0039-.5918-.01562-.73535a1.22369,1.22369,0,0,0-.19922-.68457.6501.6501,0,0,0-.56055-.25195q-.72071,0-.75976.93652c-.00586.14355-.00782.38867-.00782.73535s.002.59766.00782.752q.03809.936.75976.93653A.65775.65775,0,0,0,133.09,153.32431Z"/><path class="k" d="M144.39664,112.26181a.18941.18941,0,0,1-.06055-.14063V108.377l-1.07226.82422a.222.222,0,0,1-.11914.04.20639.20639,0,0,1-.168-.0957l-.4961-.64063a.23587.23587,0,0,1-.0332-.11914.20693.20693,0,0,1,.08789-.17676l1.85742-1.43164a.30954.30954,0,0,1,.1836-.05566H145.631a.20581.20581,0,0,1,.14844.05566.184.184,0,0,1,.06055.14356v5.20019a.186.186,0,0,1-.06055.14453.20582.20582,0,0,1-.14844.05567h-1.0957A.18785.18785,0,0,1,144.39664,112.26181Z"/><path class="k" d="M148.42008,112.26181a.197.197,0,0,1-.06055-.14063V108.377l-1.07031.82422a.22787.22787,0,0,1-.1211.04.209.209,0,0,1-.168-.0957l-.4961-.64063a.23383.23383,0,0,1-.03125-.11914.20693.20693,0,0,1,.08789-.17676l1.85547-1.43164a.3138.3138,0,0,1,.18359-.05566h1.05665a.21233.21233,0,0,1,.14843.05566.18914.18914,0,0,1,.0586.14356v5.20019a.19129.19129,0,0,1-.0586.14453.21234.21234,0,0,1-.14843.05567H148.5607A.19527.19527,0,0,1,148.42008,112.26181Z"/><path class="k" d="M150.87516,109.461a.19277.19277,0,0,1-.0586-.13965v-1.00782a.1928.1928,0,0,1,.0586-.14453.20364.20364,0,0,1,.14062-.05566h1.05664a.20436.20436,0,0,1,.14649.05566.18746.18746,0,0,1,.06054.14453v1.00782a.184.184,0,0,1-.06054.14355.20107.20107,0,0,1-.14649.05664h-1.05664A.19637.19637,0,0,1,150.87516,109.461Zm0,2.80078a.195.195,0,0,1-.0586-.14063v-1.00781a.18916.18916,0,0,1,.0586-.14356.20035.20035,0,0,1,.14062-.05664h1.05664a.20111.20111,0,0,1,.14649.05664.184.184,0,0,1,.06054.14356v1.00781a.186.186,0,0,1-.06054.14453.20437.20437,0,0,1-.14649.05567h-1.05664A.19527.19527,0,0,1,150.87516,112.26181Z"/><path class="k" d="M153.76773,111.81747a2.25768,2.25768,0,0,1-.63086-1.52051c-.01171-.28711-.01562-.5459-.01562-.77539,0-.23437.00391-.501.01562-.7998a2.38291,2.38291,0,0,1,.29883-1.06836,1.90948,1.90948,0,0,1,.77735-.74024,2.95531,2.95531,0,0,1,2.47461,0,1.90794,1.90794,0,0,1,.78125.74024,2.38278,2.38278,0,0,1,.29882,1.06836q.01758.22411.01758.7998,0,.55958-.01758.77539a2.25763,2.25763,0,0,1-.63086,1.52051,2.72162,2.72162,0,0,1-3.36914,0Zm2.24024-.86816a1.20953,1.20953,0,0,0,.20117-.69239c.00977-.15429.01562-.40527.01562-.75195s-.00585-.5918-.01562-.73535a1.22378,1.22378,0,0,0-.20117-.68457.64774.64774,0,0,0-.56055-.25195q-.71777,0-.75976.93652c-.00391.14355-.00782.38867-.00782.73535s.00391.59766.00782.75195q.041.936.75976.93653A.65534.65534,0,0,0,156.008,110.94931Z"/><path class="k" d="M159.23258,111.81747a2.25008,2.25008,0,0,1-.63282-1.52051c-.00976-.28711-.01562-.5459-.01562-.77539,0-.23437.00586-.501.01562-.7998a2.35945,2.35945,0,0,1,.30079-1.06836,1.90426,1.90426,0,0,1,.77539-.74024,2.59864,2.59864,0,0,1,1.23632-.27148,2.62593,2.62593,0,0,1,1.24024.27148,1.89082,1.89082,0,0,1,.7793.74024,2.35957,2.35957,0,0,1,.30078,1.06836c.00976.14941.01562.416.01562.7998,0,.37305-.00586.63184-.01562.77539a2.25008,2.25008,0,0,1-.63282,1.52051,2.7188,2.7188,0,0,1-3.36718,0Zm2.24023-.86816a1.20965,1.20965,0,0,0,.19922-.69239c.01172-.15429.01563-.40527.01563-.75195s-.00391-.5918-.01563-.73535a1.22361,1.22361,0,0,0-.19922-.68457.6501.6501,0,0,0-.56055-.25195q-.72069,0-.75976.93652c-.00586.14355-.00781.38867-.00781.73535s.00195.59766.00781.75195q.03808.936.75976.93653A.65775.65775,0,0,0,161.47281,110.94931Z"/><path class="k" d="M170.1525,154.63681a.19312.19312,0,0,1-.06055-.14063V150.752l-1.07129.82422a.22487.22487,0,0,1-.12011.04.20771.20771,0,0,1-.168-.0957l-.4961-.64063a.23482.23482,0,0,1-.03222-.11914.2069.2069,0,0,1,.08789-.17676l1.85644-1.43164a.31166.31166,0,0,1,.1836-.05566h1.05566a.209.209,0,0,1,.14844.05566.18648.18648,0,0,1,.05957.14356v5.20019a.18858.18858,0,0,1-.05957.14453.20905.20905,0,0,1-.14844.05567h-1.0957A.19154.19154,0,0,1,170.1525,154.63681Z"/><path class="k" d="M172.48844,154.63681a.19212.19212,0,0,1-.05957-.14063v-.59961a.493.493,0,0,1,.20019-.40039l.74414-.72754q.75879-.57569,1.14746-.89648a3.89879,3.89879,0,0,0,.5918-.58008.807.807,0,0,0,.2041-.49219.52307.52307,0,0,0-.5918-.59179.613.613,0,0,0-.48046.18847.97486.97486,0,0,0-.22364.46778.245.245,0,0,1-.27148.18359h-1.05664a.16825.16825,0,0,1-.124-.05176.16136.16136,0,0,1-.05175-.11621,1.84059,1.84059,0,0,1,.292-.956,1.93718,1.93718,0,0,1,.77246-.67969,2.48976,2.48976,0,0,1,1.14355-.25195,2.85715,2.85715,0,0,1,1.16016.21582,1.57711,1.57711,0,0,1,.99219,1.5205,1.6676,1.6676,0,0,1-.35645,1.04,5.56225,5.56225,0,0,1-1.084,1.00782l-.66406.66406H176.797a.19426.19426,0,0,1,.14355.05566.19728.19728,0,0,1,.05665.14453v.85547a.20123.20123,0,0,1-.05665.14063.18646.18646,0,0,1-.14355.05957h-4.168A.1921.1921,0,0,1,172.48844,154.63681Z"/><path class="k" d="M177.84781,151.836a.19.19,0,0,1-.05957-.13965v-1.00782a.19006.19006,0,0,1,.05957-.14453.20027.20027,0,0,1,.14063-.05566h1.05566a.20831.20831,0,0,1,.14746.05566.19086.19086,0,0,1,.06055.14453v1.00782a.18726.18726,0,0,1-.06055.14355.20492.20492,0,0,1-.14746.05664h-1.05566A.19315.19315,0,0,1,177.84781,151.836Zm0,2.80078a.19212.19212,0,0,1-.05957-.14063v-1.00781a.1865.1865,0,0,1,.05957-.14356.19708.19708,0,0,1,.14063-.05664h1.05566a.205.205,0,0,1,.14746.05664.18728.18728,0,0,1,.06055.14356v1.00781a.18936.18936,0,0,1-.06055.14453.20832.20832,0,0,1-.14746.05567h-1.05566A.19212.19212,0,0,1,177.84781,154.63681Z"/><path class="k" d="M180.74039,154.19247a2.25387,2.25387,0,0,1-.63184-1.52051q-.01611-.43067-.01562-.77539,0-.35155.01562-.7998a2.37111,2.37111,0,0,1,.29981-1.06836,1.90687,1.90687,0,0,1,.77637-.74024,2.95753,2.95753,0,0,1,2.47558,0,1.89928,1.89928,0,0,1,.78027.74024,2.37086,2.37086,0,0,1,.29981,1.06836q.01611.22412.0166.7998,0,.55957-.0166.77539a2.25387,2.25387,0,0,1-.63184,1.52051,2.72021,2.72021,0,0,1-3.36816,0Zm2.24023-.86816a1.20955,1.20955,0,0,0,.2002-.69239q.01611-.23144.01562-.752,0-.52-.01562-.73535a1.22365,1.22365,0,0,0-.2002-.68457.64889.64889,0,0,0-.56054-.25195q-.71925,0-.75977.93652-.00732.21533-.00781.73535,0,.52.00781.752.03955.936.75977.93653A.65652.65652,0,0,0,182.98062,153.32431Z"/><path class="k" d="M186.20426,154.19247a2.25387,2.25387,0,0,1-.63184-1.52051q-.01611-.43067-.01562-.77539,0-.35155.01562-.7998a2.371,2.371,0,0,1,.29981-1.06836,1.90691,1.90691,0,0,1,.77636-.74024,2.95755,2.95755,0,0,1,2.47559,0,1.89928,1.89928,0,0,1,.78027.74024,2.37111,2.37111,0,0,1,.29981,1.06836q.01611.22412.0166.7998,0,.55957-.0166.77539a2.25387,2.25387,0,0,1-.63184,1.52051,2.72021,2.72021,0,0,1-3.36816,0Zm2.24023-.86816a1.20962,1.20962,0,0,0,.2002-.69239q.01611-.23144.01562-.752,0-.52-.01562-.73535a1.22373,1.22373,0,0,0-.2002-.68457.64891.64891,0,0,0-.56055-.25195q-.71923,0-.75976.93652-.00732.21533-.00781.73535,0,.52.00781.752.03956.936.75976.93653A.65654.65654,0,0,0,188.44449,153.32431Z"/><path class="k" d="M198.22281,112.26181a.197.197,0,0,1-.06055-.14063V108.377l-1.07031.82422a.22784.22784,0,0,1-.12109.04.20906.20906,0,0,1-.168-.0957l-.49609-.64063a.23373.23373,0,0,1-.03125-.11914.2069.2069,0,0,1,.08789-.17676l1.85547-1.43164a.31375.31375,0,0,1,.18359-.05566h1.05664a.21237.21237,0,0,1,.14844.05566.18917.18917,0,0,1,.05859.14356v5.20019a.19132.19132,0,0,1-.05859.14453.21238.21238,0,0,1-.14844.05567h-1.0957A.1953.1953,0,0,1,198.22281,112.26181Z"/><path class="k" d="M201.47086,112.15731a1.8911,1.8911,0,0,1-.7832-.60351,1.35241,1.35241,0,0,1-.26758-.7207.16148.16148,0,0,1,.05078-.12012.18162.18162,0,0,1,.125-.04785h1.10351a.28332.28332,0,0,1,.15235.03613.34029.34029,0,0,1,.10351.11621q.15236.39258.83985.3916a.912.912,0,0,0,.60937-.18359.62228.62228,0,0,0,.21485-.4961q0-.60058-.79883-.5996H201.924a.201.201,0,0,1-.14843-.06055.2042.2042,0,0,1-.06055-.14746v-.47266a.299.299,0,0,1,.13672-.27148l1.28711-1.05664h-2.207a.20527.20527,0,0,1-.20118-.19922v-.792a.21151.21151,0,0,1,.05664-.14844.1886.1886,0,0,1,.14454-.05957h3.72851a.18438.18438,0,0,1,.14258.05957.21146.21146,0,0,1,.05664.14844v.71191a.3119.3119,0,0,1-.12891.26367l-1.18359,1.08008.05664.01562a2.08143,2.08143,0,0,1,1.14453.4961,1.4661,1.4661,0,0,1,.42383,1.12793,1.51063,1.51063,0,0,1-.30859.94043,1.94872,1.94872,0,0,1-.84766.62011,3.2928,3.2928,0,0,1-1.22852.21583A3.14678,3.14678,0,0,1,201.47086,112.15731Z"/><path class="k" d="M205.99039,109.461a.1928.1928,0,0,1-.05859-.13965v-1.00782a.19283.19283,0,0,1,.05859-.14453.20366.20366,0,0,1,.14062-.05566h1.05665a.20432.20432,0,0,1,.14648.05566.18743.18743,0,0,1,.06055.14453v1.00782a.18394.18394,0,0,1-.06055.14355.201.201,0,0,1-.14648.05664H206.131A.19638.19638,0,0,1,205.99039,109.461Zm0,2.80078a.195.195,0,0,1-.05859-.14063v-1.00781a.18918.18918,0,0,1,.05859-.14356.20037.20037,0,0,1,.14062-.05664h1.05665a.20107.20107,0,0,1,.14648.05664.184.184,0,0,1,.06055.14356v1.00781a.186.186,0,0,1-.06055.14453.20433.20433,0,0,1-.14648.05567H206.131A.19529.19529,0,0,1,205.99039,112.26181Z"/><path class="k" d="M208.883,111.81747a2.25768,2.25768,0,0,1-.63086-1.52051c-.01172-.28711-.01563-.5459-.01563-.77539,0-.23437.00391-.501.01563-.7998a2.38266,2.38266,0,0,1,.29883-1.06836,1.90946,1.90946,0,0,1,.77734-.74024,2.95531,2.95531,0,0,1,2.47461,0,1.90788,1.90788,0,0,1,.78125.74024,2.38291,2.38291,0,0,1,.29883,1.06836q.01758.22411.01758.7998,0,.55958-.01758.77539a2.25768,2.25768,0,0,1-.63086,1.52051,2.72162,2.72162,0,0,1-3.36914,0Zm2.24023-.86816a1.20938,1.20938,0,0,0,.20117-.69239c.00977-.15429.01563-.40527.01563-.75195s-.00586-.5918-.01563-.73535a1.22362,1.22362,0,0,0-.20117-.68457.64771.64771,0,0,0-.56054-.25195q-.71778,0-.75977.93652c-.00391.14355-.00781.38867-.00781.73535s.0039.59766.00781.75195q.041.936.75977.93653A.65531.65531,0,0,0,211.1232,110.94931Z"/><path class="k" d="M214.34781,111.81747a2.25012,2.25012,0,0,1-.63281-1.52051c-.00977-.28711-.01563-.5459-.01563-.77539,0-.23437.00586-.501.01563-.7998a2.35932,2.35932,0,0,1,.30078-1.06836,1.90426,1.90426,0,0,1,.77539-.74024,2.59865,2.59865,0,0,1,1.23633-.27148,2.62589,2.62589,0,0,1,1.24023.27148,1.89076,1.89076,0,0,1,.7793.74024,2.35932,2.35932,0,0,1,.30078,1.06836c.00977.14941.01563.416.01563.7998,0,.37305-.00586.63184-.01563.77539a2.25012,2.25012,0,0,1-.63281,1.52051,2.71882,2.71882,0,0,1-3.36719,0Zm2.24024-.86816a1.20965,1.20965,0,0,0,.19921-.69239c.01172-.15429.01563-.40527.01563-.75195s-.00391-.5918-.01563-.73535a1.22361,1.22361,0,0,0-.19921-.68457.6501.6501,0,0,0-.56055-.25195q-.7207,0-.75977.93652c-.00586.14355-.00781.38867-.00781.73535s.00195.59766.00781.75195q.03808.936.75977.93653A.65775.65775,0,0,0,216.58805,110.94931Z"/><path class="k" d="M225.25113,154.63681a.19312.19312,0,0,1-.06055-.14063V150.752l-1.07128.82422a.2249.2249,0,0,1-.12012.04.20772.20772,0,0,1-.168-.0957l-.49609-.64063a.23473.23473,0,0,1-.03223-.11914.20693.20693,0,0,1,.08789-.17676l1.85645-1.43164a.31161.31161,0,0,1,.18359-.05566h1.05566a.209.209,0,0,1,.14844.05566.18648.18648,0,0,1,.05957.14356v5.20019a.18858.18858,0,0,1-.05957.14453.20905.20905,0,0,1-.14844.05567h-1.0957A.19155.19155,0,0,1,225.25113,154.63681Z"/><path class="k" d="M230.16324,154.63681a.19212.19212,0,0,1-.05957-.14063v-.87988H227.6232a.20524.20524,0,0,1-.20019-.2002v-.80761a.40538.40538,0,0,1,.08789-.24024l2.32031-3.13574a.36514.36514,0,0,1,.2959-.13574h1.21582a.2107.2107,0,0,1,.14844.05566.18648.18648,0,0,1,.05957.14356v3.08007h.7041a.19871.19871,0,0,1,.208.2002v.83984a.20028.20028,0,0,1-.05567.14063.18648.18648,0,0,1-.14355.05957h-.71289v.87988a.18858.18858,0,0,1-.05957.14453.2107.2107,0,0,1-.14844.05567h-1.04A.19155.19155,0,0,1,230.16324,154.63681Zm-1.31543-2.2041h1.28711v-1.80079Z"/><path class="k" d="M233.2023,151.836a.19.19,0,0,1-.05957-.13965v-1.00782a.19006.19006,0,0,1,.05957-.14453.20027.20027,0,0,1,.14063-.05566h1.05566a.2083.2083,0,0,1,.14746.05566.19086.19086,0,0,1,.06055.14453v1.00782a.18726.18726,0,0,1-.06055.14355.2049.2049,0,0,1-.14746.05664h-1.05566A.19315.19315,0,0,1,233.2023,151.836Zm0,2.80078a.19212.19212,0,0,1-.05957-.14063v-1.00781a.1865.1865,0,0,1,.05957-.14356.19708.19708,0,0,1,.14063-.05664h1.05566a.20494.20494,0,0,1,.14746.05664.18728.18728,0,0,1,.06055.14356v1.00781a.18936.18936,0,0,1-.06055.14453.2083.2083,0,0,1-.14746.05567h-1.05566A.19212.19212,0,0,1,233.2023,154.63681Z"/><path class="k" d="M236.09488,154.19247a2.25386,2.25386,0,0,1-.63183-1.52051q-.01612-.43067-.01563-.77539,0-.35155.01563-.7998a2.371,2.371,0,0,1,.2998-1.06836,1.90687,1.90687,0,0,1,.77637-.74024,2.95753,2.95753,0,0,1,2.47558,0,1.89931,1.89931,0,0,1,.78028.74024,2.371,2.371,0,0,1,.2998,1.06836q.01611.22412.0166.7998,0,.55957-.0166.77539a2.25391,2.25391,0,0,1-.63183,1.52051,2.72023,2.72023,0,0,1-3.36817,0Zm2.24024-.86816a1.20955,1.20955,0,0,0,.20019-.69239q.01611-.23144.01563-.752,0-.52-.01563-.73535a1.22365,1.22365,0,0,0-.20019-.68457.64891.64891,0,0,0-.56055-.25195q-.71923,0-.75977.93652-.00732.21533-.00781.73535,0,.52.00781.752.03955.936.75977.93653A.65654.65654,0,0,0,238.33512,153.32431Z"/><path class="k" d="M241.55875,154.19247a2.25387,2.25387,0,0,1-.63184-1.52051q-.01611-.43067-.01562-.77539,0-.35155.01562-.7998a2.37111,2.37111,0,0,1,.29981-1.06836,1.90691,1.90691,0,0,1,.77636-.74024,2.95755,2.95755,0,0,1,2.47559,0,1.89928,1.89928,0,0,1,.78027.74024,2.371,2.371,0,0,1,.29981,1.06836q.01611.22412.0166.7998,0,.55957-.0166.77539a2.25387,2.25387,0,0,1-.63184,1.52051,2.72021,2.72021,0,0,1-3.36816,0Zm2.24023-.86816a1.20955,1.20955,0,0,0,.2002-.69239q.01611-.23144.01562-.752,0-.52-.01562-.73535a1.22365,1.22365,0,0,0-.2002-.68457.64889.64889,0,0,0-.56054-.25195q-.71925,0-.75977.93652-.00732.21533-.00781.73535,0,.52.00781.752.03956.936.75977.93653A.65652.65652,0,0,0,243.799,153.32431Z"/><path class="k" d="M253.45133,112.26181a.18941.18941,0,0,1-.06055-.14063V108.377l-1.07227.82422a.22193.22193,0,0,1-.11914.04.20638.20638,0,0,1-.168-.0957l-.4961-.64063a.23587.23587,0,0,1-.0332-.11914.20693.20693,0,0,1,.08789-.17676l1.85742-1.43164a.30953.30953,0,0,1,.18359-.05566h1.05469a.20581.20581,0,0,1,.14844.05566.184.184,0,0,1,.06055.14356v5.20019a.186.186,0,0,1-.06055.14453.20582.20582,0,0,1-.14844.05567H253.59A.18784.18784,0,0,1,253.45133,112.26181Z"/><path class="k" d="M256.73062,112.17782a1.8411,1.8411,0,0,1-.791-.61621,1.53585,1.53585,0,0,1-.28516-.83984.16413.16413,0,0,1,.04883-.12012.16045.16045,0,0,1,.11914-.04785h1.12891a.26755.26755,0,0,1,.26367.15137.79927.79927,0,0,0,.30078.38379.85049.85049,0,0,0,.4668.12011.81571.81571,0,0,0,.57226-.208.74912.74912,0,0,0,.22852-.584.72117.72117,0,0,0-.22461-.54395.79665.79665,0,0,0-.57617-.21582.83093.83093,0,0,0-.32032.05176,1.05745,1.05745,0,0,0-.23046.14063.36259.36259,0,0,1-.209.0957h-1.11133a.17267.17267,0,0,1-.125-.05176.17512.17512,0,0,1-.05078-.124l.29492-2.80859a.24416.24416,0,0,1,.084-.17579.26978.26978,0,0,1,.17969-.06347h3.25586a.19229.19229,0,0,1,.20117.19922v.80078a.20064.20064,0,0,1-.05664.13965.1886.1886,0,0,1-.14453.05957H257.424l-.09765.98437a1.42863,1.42863,0,0,1,.43359-.2041,2.34976,2.34976,0,0,1,.623-.06836,2.08586,2.08586,0,0,1,.96094.22852,1.82632,1.82632,0,0,1,.71484.64355,1.71084,1.71084,0,0,1,.26758.95215,1.83281,1.83281,0,0,1-.2793,1.00391,1.88574,1.88574,0,0,1-.8125.69628,2.893,2.893,0,0,1-1.252.252A3.08772,3.08772,0,0,1,256.73062,112.17782Z"/><path class="k" d="M261.10562,109.461a.1928.1928,0,0,1-.05859-.13965v-1.00782a.19283.19283,0,0,1,.05859-.14453.20367.20367,0,0,1,.14063-.05566h1.05664a.20432.20432,0,0,1,.14648.05566.18743.18743,0,0,1,.06055.14453v1.00782a.18394.18394,0,0,1-.06055.14355.201.201,0,0,1-.14648.05664h-1.05664A.19639.19639,0,0,1,261.10562,109.461Zm0,2.80078a.195.195,0,0,1-.05859-.14063v-1.00781a.18918.18918,0,0,1,.05859-.14356.20038.20038,0,0,1,.14063-.05664h1.05664a.20107.20107,0,0,1,.14648.05664.184.184,0,0,1,.06055.14356v1.00781a.186.186,0,0,1-.06055.14453.20433.20433,0,0,1-.14648.05567h-1.05664A.1953.1953,0,0,1,261.10562,112.26181Z"/><path class="k" d="M263.9982,111.81747a2.25768,2.25768,0,0,1-.63086-1.52051c-.01172-.28711-.01562-.5459-.01562-.77539,0-.23437.0039-.501.01562-.7998a2.38291,2.38291,0,0,1,.29883-1.06836,1.90952,1.90952,0,0,1,.77734-.74024,2.95531,2.95531,0,0,1,2.47461,0,1.90782,1.90782,0,0,1,.78125.74024,2.38266,2.38266,0,0,1,.29883,1.06836q.01758.22411.01758.7998,0,.55958-.01758.77539a2.25763,2.25763,0,0,1-.63086,1.52051,2.72162,2.72162,0,0,1-3.36914,0Zm2.24024-.86816a1.20953,1.20953,0,0,0,.20117-.69239c.00976-.15429.01562-.40527.01562-.75195s-.00586-.5918-.01562-.73535a1.22378,1.22378,0,0,0-.20117-.68457.64774.64774,0,0,0-.56055-.25195q-.71778,0-.75977.93652c-.0039.14355-.00781.38867-.00781.73535s.00391.59766.00781.75195q.041.936.75977.93653A.65534.65534,0,0,0,266.23844,110.94931Z"/><path class="k" d="M269.46305,111.81747a2.25008,2.25008,0,0,1-.63282-1.52051c-.00976-.28711-.01562-.5459-.01562-.77539,0-.23437.00586-.501.01562-.7998a2.35957,2.35957,0,0,1,.30078-1.06836,1.90429,1.90429,0,0,1,.7754-.74024,2.59864,2.59864,0,0,1,1.23632-.27148,2.62593,2.62593,0,0,1,1.24024.27148,1.89079,1.89079,0,0,1,.77929.74024,2.35945,2.35945,0,0,1,.30079,1.06836c.00976.14941.01562.416.01562.7998,0,.37305-.00586.63184-.01562.77539a2.25008,2.25008,0,0,1-.63282,1.52051,2.7188,2.7188,0,0,1-3.36718,0Zm2.24023-.86816a1.20972,1.20972,0,0,0,.19922-.69239c.01172-.15429.01562-.40527.01562-.75195s-.0039-.5918-.01562-.73535a1.22369,1.22369,0,0,0-.19922-.68457.6501.6501,0,0,0-.56055-.25195q-.7207,0-.75976.93652c-.00586.14355-.00781.38867-.00781.73535s.002.59766.00781.75195q.03809.936.75976.93653A.65775.65775,0,0,0,271.70328,110.94931Z"/><path class="k" d="M280.8693,154.63681a.197.197,0,0,1-.06055-.14063V150.752l-1.07031.82422a.22787.22787,0,0,1-.1211.04.20906.20906,0,0,1-.168-.0957l-.49609-.64063a.23383.23383,0,0,1-.03125-.11914.20693.20693,0,0,1,.08789-.17676l1.85547-1.43164a.31375.31375,0,0,1,.18359-.05566h1.05664a.21233.21233,0,0,1,.14844.05566.18918.18918,0,0,1,.0586.14356v5.20019a.19132.19132,0,0,1-.0586.14453.21234.21234,0,0,1-.14844.05567h-1.0957A.19527.19527,0,0,1,280.8693,154.63681Z"/><path class="k" d="M284.22672,154.5245a2.009,2.009,0,0,1-.84961-.708,1.85523,1.85523,0,0,1-.30274-1.04785,3.00033,3.00033,0,0,1,.67969-1.64062l1.40039-1.87207a.33638.33638,0,0,1,.28711-.15918h1.1211a.17846.17846,0,0,1,.17578.17578.20829.20829,0,0,1-.041.10351l-1.07226,1.45606a.95554.95554,0,0,1,.2246-.02344,2.21525,2.21525,0,0,1,.94922.27149,2.1204,2.1204,0,0,1,.752.67578,1.70924,1.70924,0,0,1,.291.98047,1.88955,1.88955,0,0,1-.29687,1.02832,2.06659,2.06659,0,0,1-.83008.73925,2.68732,2.68732,0,0,1-1.23242.27247A2.95409,2.95409,0,0,1,284.22672,154.5245Zm1.83984-1.168a.84994.84994,0,0,0,.00391-1.19629.95448.95448,0,0,0-1.209,0,.8596.8596,0,0,0,0,1.2002.8861.8861,0,0,0,.60547.21582A.874.874,0,0,0,286.06656,153.35653Z"/><path class="k" d="M288.5568,151.836a.19277.19277,0,0,1-.0586-.13965v-1.00782a.1928.1928,0,0,1,.0586-.14453.20364.20364,0,0,1,.14062-.05566h1.05664a.20434.20434,0,0,1,.14649.05566.18746.18746,0,0,1,.06054.14453v1.00782a.184.184,0,0,1-.06054.14355.20105.20105,0,0,1-.14649.05664h-1.05664A.19637.19637,0,0,1,288.5568,151.836Zm0,2.80078a.195.195,0,0,1-.0586-.14063v-1.00781a.18916.18916,0,0,1,.0586-.14356.20035.20035,0,0,1,.14062-.05664h1.05664a.20109.20109,0,0,1,.14649.05664.184.184,0,0,1,.06054.14356v1.00781a.186.186,0,0,1-.06054.14453.20435.20435,0,0,1-.14649.05567h-1.05664A.19527.19527,0,0,1,288.5568,154.63681Z"/><path class="k" d="M291.44937,154.19247a2.25768,2.25768,0,0,1-.63086-1.52051c-.01171-.28711-.01562-.5459-.01562-.77539,0-.23437.00391-.501.01562-.7998a2.38291,2.38291,0,0,1,.29883-1.06836,1.90948,1.90948,0,0,1,.77735-.74024,2.95531,2.95531,0,0,1,2.47461,0,1.90794,1.90794,0,0,1,.78125.74024,2.38278,2.38278,0,0,1,.29882,1.06836q.01758.22412.01758.7998,0,.55957-.01758.77539a2.25763,2.25763,0,0,1-.63086,1.52051,2.72162,2.72162,0,0,1-3.36914,0Zm2.24024-.86816a1.20946,1.20946,0,0,0,.20117-.69239c.00977-.15429.01563-.40527.01563-.752s-.00586-.5918-.01563-.73535a1.2237,1.2237,0,0,0-.20117-.68457.64774.64774,0,0,0-.56055-.25195q-.71776,0-.75976.93652c-.00391.14355-.00782.38867-.00782.73535s.00391.59766.00782.752q.041.936.75976.93653A.65534.65534,0,0,0,293.68961,153.32431Z"/><path class="k" d="M296.91422,154.19247a2.25,2.25,0,0,1-.63281-1.52051c-.00977-.28711-.01563-.5459-.01563-.77539,0-.23437.00586-.501.01563-.7998a2.35932,2.35932,0,0,1,.30078-1.06836,1.90426,1.90426,0,0,1,.77539-.74024,2.59865,2.59865,0,0,1,1.23633-.27148,2.62592,2.62592,0,0,1,1.24023.27148,1.89082,1.89082,0,0,1,.7793.74024,2.35957,2.35957,0,0,1,.30078,1.06836c.00976.14941.01562.416.01562.7998,0,.37305-.00586.63184-.01562.77539a2.25012,2.25012,0,0,1-.63281,1.52051,2.71882,2.71882,0,0,1-3.36719,0Zm2.24023-.86816a1.20957,1.20957,0,0,0,.19922-.69239c.01172-.15429.01563-.40527.01563-.752s-.00391-.5918-.01563-.73535a1.22353,1.22353,0,0,0-.19922-.68457.65007.65007,0,0,0-.56054-.25195q-.7207,0-.75977.93652c-.00586.14355-.00781.38867-.00781.73535s.002.59766.00781.752q.03809.936.75977.93653A.65772.65772,0,0,0,299.15445,153.32431Z"/><path class="k" d="M306.14078,112.26181a.197.197,0,0,1-.06055-.14063V108.377l-1.07031.82422a.22784.22784,0,0,1-.12109.04.209.209,0,0,1-.168-.0957l-.4961-.64063a.23383.23383,0,0,1-.03125-.11914.20691.20691,0,0,1,.0879-.17676l1.85546-1.43164a.31381.31381,0,0,1,.1836-.05566h1.05664a.21237.21237,0,0,1,.14844.05566.18917.18917,0,0,1,.05859.14356v5.20019a.19132.19132,0,0,1-.05859.14453.21238.21238,0,0,1-.14844.05567h-1.0957A.1953.1953,0,0,1,306.14078,112.26181Z"/><path class="k" d="M309.09,112.26962a.17943.17943,0,0,1-.0332-.19629l1.83984-4.0957h-2.375a.20674.20674,0,0,1-.209-.208v-.83984a.20648.20648,0,0,1,.06054-.14844.20331.20331,0,0,1,.14844-.05957h3.7832a.20515.20515,0,0,1,.209.208v.74316a.673.673,0,0,1-.041.24805c-.02539.06933-.043.10937-.04687.12011l-1.83985,4.08789a.29984.29984,0,0,1-.28906.19239h-1.08789A.15672.15672,0,0,1,309.09,112.26962Z"/><path class="k" d="M313.22086,109.461a.19281.19281,0,0,1-.0586-.13965v-1.00782a.19284.19284,0,0,1,.0586-.14453.20364.20364,0,0,1,.14062-.05566h1.05664a.20433.20433,0,0,1,.14649.05566.18747.18747,0,0,1,.06055.14453v1.00782a.184.184,0,0,1-.06055.14355.201.201,0,0,1-.14649.05664h-1.05664A.19637.19637,0,0,1,313.22086,109.461Zm0,2.80078a.195.195,0,0,1-.0586-.14063v-1.00781a.18919.18919,0,0,1,.0586-.14356.20035.20035,0,0,1,.14062-.05664h1.05664a.20108.20108,0,0,1,.14649.05664.184.184,0,0,1,.06055.14356v1.00781a.186.186,0,0,1-.06055.14453.20433.20433,0,0,1-.14649.05567h-1.05664A.19527.19527,0,0,1,313.22086,112.26181Z"/><path class="k" d="M316.11344,111.81747a2.25008,2.25008,0,0,1-.63282-1.52051c-.00976-.28711-.01562-.5459-.01562-.77539,0-.23437.00586-.501.01562-.7998a2.35945,2.35945,0,0,1,.30079-1.06836,1.90426,1.90426,0,0,1,.77539-.74024,2.59864,2.59864,0,0,1,1.23632-.27148,2.62593,2.62593,0,0,1,1.24024.27148,1.89082,1.89082,0,0,1,.7793.74024,2.35957,2.35957,0,0,1,.30078,1.06836c.00976.14941.01562.416.01562.7998,0,.37305-.00586.63184-.01562.77539a2.25008,2.25008,0,0,1-.63282,1.52051,2.7188,2.7188,0,0,1-3.36718,0Zm2.24023-.86816a1.20972,1.20972,0,0,0,.19922-.69239c.01172-.15429.01562-.40527.01562-.75195s-.0039-.5918-.01562-.73535a1.22369,1.22369,0,0,0-.19922-.68457.6501.6501,0,0,0-.56055-.25195q-.72069,0-.75976.93652c-.00586.14355-.00781.38867-.00781.73535s.00195.59766.00781.75195q.03808.936.75976.93653A.65775.65775,0,0,0,318.35367,110.94931Z"/><path class="k" d="M321.57633,111.81747a2.25763,2.25763,0,0,1-.63086-1.52051c-.01172-.28711-.01563-.5459-.01563-.77539,0-.23437.00391-.501.01563-.7998a2.38266,2.38266,0,0,1,.29883-1.06836,1.90946,1.90946,0,0,1,.77734-.74024,2.95531,2.95531,0,0,1,2.47461,0,1.90788,1.90788,0,0,1,.78125.74024,2.38291,2.38291,0,0,1,.29883,1.06836q.01758.22411.01758.7998,0,.55958-.01758.77539a2.25768,2.25768,0,0,1-.63086,1.52051,2.72162,2.72162,0,0,1-3.36914,0Zm2.24023-.86816a1.20946,1.20946,0,0,0,.20117-.69239c.00977-.15429.01563-.40527.01563-.75195s-.00586-.5918-.01563-.73535a1.2237,1.2237,0,0,0-.20117-.68457.64773.64773,0,0,0-.56055-.25195q-.71777,0-.75976.93652c-.00391.14355-.00781.38867-.00781.73535s.0039.59766.00781.75195q.041.936.75976.93653A.65533.65533,0,0,0,323.81656,110.94931Z"/><line class="l" x1="67.61588" y1="138.27496" x2="67.61588" y2="123.05205"/><line class="l" x1="96.43424" y1="138.27496" x2="96.43424" y2="123.05205"/><line class="l" x1="123.2051" y1="138.27496" x2="123.2051" y2="123.05205"/><line class="l" x1="151.52566" y1="138.27496" x2="151.52566" y2="123.05205"/><line class="l" x1="178.53729" y1="138.27496" x2="178.53729" y2="123.05205"/><line class="l" x1="206.66342" y1="138.27496" x2="206.66342" y2="123.05205"/><line class="l" x1="233.95159" y1="138.27496" x2="233.95159" y2="123.05205"/><line class="l" x1="261.87021" y1="138.27496" x2="261.87021" y2="123.05205"/><line class="l" x1="289.35686" y1="138.27496" x2="289.35686" y2="123.05205"/><line class="l" x1="316.76659" y1="138.27496" x2="316.76659" y2="123.05205"/><circle class="m" cx="339.55362" cy="194.60251" r="2.24022"/><circle class="n" cx="339.55362" cy="194.60251" r="2.24022"/><circle class="o" cx="339.55362" cy="194.60251" r="2.24022"/><circle class="p" cx="339.55362" cy="194.60251" r="2.24022"/><circle class="m" cx="328.23322" cy="194.60251" r="2.24022"/><circle class="n" cx="328.23322" cy="194.60251" r="2.24022"/><circle class="q" cx="328.23322" cy="194.60251" r="2.24022"/><circle class="r" cx="328.23322" cy="194.60251" r="2.24022"/><polygon class="s" points="79.531 98.415 12.09 83.771 28.975 6.004 89.839 19.22 87.659 28.154 94.883 27.711 79.531 98.415"/><polygon class="t" points="89.839 19.22 94.883 27.711 87.659 28.154 89.839 19.22"/><path class="u" d="M43.3107,18.2872a1.84962,1.84962,0,0,1,.22852,1.56836l-.50977,2.35254a.19607.19607,0,0,1-.08594.126.18857.18857,0,0,1-.15234.02832l-.92383-.20117a.20792.20792,0,0,1-.13281-.08594.19064.19064,0,0,1-.02734-.15429l.502-2.3125a.8029.8029,0,0,0-.68945-1.084l-.50782-.11035a4.86554,4.86554,0,0,0-.36718,1.124l-.38282,2.06934a.19519.19519,0,0,1-.08984.12891.21036.21036,0,0,1-.15625.02343l-1.65625-.36816a.20555.20555,0,0,1-.13281-.08691.18762.18762,0,0,1-.02735-.15235l.13477-.61816a.18681.18681,0,0,1,.08789-.12793.20593.20593,0,0,1,.15625-.02344l.63477.1377.26562-1.22754a4.38864,4.38864,0,0,1,.36719-1.13184l-.46094-.09961a.21576.21576,0,0,1-.13281-.08594.19843.19843,0,0,1-.02735-.15332l.14649-.67285a.18079.18079,0,0,1,.08789-.127.216.216,0,0,1,.1582-.02539l2.18164.47461A2.482,2.482,0,0,1,43.3107,18.2872Z"/><path class="u" d="M43.93961,22.55478a.18641.18641,0,0,1-.02735-.15528l.88282-4.07226a.19134.19134,0,0,1,.08984-.127.20757.20757,0,0,1,.15625-.02441l.97852.21191a.19709.19709,0,0,1,.1289.08594.20346.20346,0,0,1,.02344.15234l-.88477,4.07227a.20269.20269,0,0,1-.084.127.19137.19137,0,0,1-.1543.02735l-.97656-.21192A.21579.21579,0,0,1,43.93961,22.55478Z"/><path class="u" d="M50.01773,19.76864a2.17348,2.17348,0,0,1,.125,1.57032,2.3531,2.3531,0,0,1-.93945,1.498,3.18455,3.18455,0,0,1-1.66211.56446l-.33984.02343a.15047.15047,0,0,1-.13282-.085.22949.22949,0,0,1-.0332-.17187l.17188-.78907a.22647.22647,0,0,1,.08593-.13281.40668.40668,0,0,1,.16407-.07422l.27148-.04785a1.29833,1.29833,0,0,0,.6582-.29492,1.33885,1.33885,0,0,0,.37891-.748,1.07487,1.07487,0,0,0-.02148-.72558.85633.85633,0,0,0-.59961-.335l-.17969-.03809-.02344-.00488-1.04687-.23633a.18653.18653,0,0,1-.127-.08594.194.194,0,0,1-.02539-.15234l.39258-1.80567a.191.191,0,0,1,.08984-.12793.20007.20007,0,0,1,.14649-.02539l.8457.1836a.19834.19834,0,0,1,.12891.08593.194.194,0,0,1,.02539.15235l-.19336.89062.48437.10547A1.93934,1.93934,0,0,1,50.01773,19.76864Z"/><path class="u" d="M50.799,22.10263a.18827.18827,0,0,1-.02734-.15235l.48242-2.2207a.18472.18472,0,0,1,.08789-.12793.22051.22051,0,0,1,.15821-.02441l.97656.21289a.19368.19368,0,0,1,.1289.08593.202.202,0,0,1,.02344.15235l-.48242,2.2207a.20171.20171,0,0,1-.084.124.18864.18864,0,0,1-.15235.02833l-.97851-.2129A.20793.20793,0,0,1,50.799,22.10263Z"/><path class="u" d="M57.58414,20.95712a.19562.19562,0,0,1,.02539.15332l-.502,2.3125a1.73792,1.73792,0,0,1-.82032,1.16992,2.92219,2.92219,0,0,1-1.66406.35352l-2.09375-.01172a.18711.18711,0,0,1-.14453-.07227.18186.18186,0,0,1-.03516-.15429l.14844-.67969a.20526.20526,0,0,1,.08008-.127.22715.22715,0,0,1,.14453-.04688l.91406-.02148-.20312-3.50782a.87938.87938,0,0,1-.00586-.16406.14557.14557,0,0,1,.07031-.09961.15429.15429,0,0,1,.1211-.02344l1.01562.22071a.20085.20085,0,0,1,.10938.06054.18361.18361,0,0,1,.04492.09571l.08789,3.36718a1.09913,1.09913,0,0,0,.67383-.31543,1.59552,1.59552,0,0,0,.32031-.72167l.416-1.92188a.19252.19252,0,0,1,.08594-.12891.19549.19549,0,0,1,.15235-.02539l.93164.20215A.19293.19293,0,0,1,57.58414,20.95712Z"/><path class="u" d="M59.2482,22.71884c-.03515.21582,0,.35449.10742.415l.20118.126a.18353.18353,0,0,1,.07812.11133.28749.28749,0,0,1,.00391.15235l-.07813.39941a.21346.21346,0,0,1-.14453.16211.40052.40052,0,0,1-.26562-.00391L58.84,23.964a1.01761,1.01761,0,0,1-.57813-.58008,1.60149,1.60149,0,0,1-.0625-.99219l.23829-1.10156a.27637.27637,0,0,1,.09765-.127.17242.17242,0,0,1,.14063-.02734l1.58007.34277a2.06853,2.06853,0,0,1,1.41211.86036,2.27449,2.27449,0,0,1,.23047,1.60156c-.00586.05273-.01953.126-.03906.21972a2.529,2.529,0,0,1-.85937,1.53809,2.01655,2.01655,0,0,1-1.71485.24512l-1.48437-.32227a.21052.21052,0,0,1-.13282-.08594.18484.18484,0,0,1-.02734-.15429l.1543-.71778a.20372.20372,0,0,1,.09179-.13281.1949.1949,0,0,1,.15625-.02734l1.44727.31445a.96569.96569,0,0,0,.70312-.08887.93257.93257,0,0,0,.418-.59277,2.02359,2.02359,0,0,0,.0586-.2334c.02148-.09961.03515-.1748.043-.22754a.92124.92124,0,0,0-.12891-.71289.976.976,0,0,0-.61133-.373l-.66406-.14356Z"/><path class="u" d="M68.80484,23.82333a1.84834,1.84834,0,0,1,.22852,1.56836l-.50977,2.35156a.20088.20088,0,0,1-.08593.126.185.185,0,0,1-.15235.02832l-.92383-.2002a.21579.21579,0,0,1-.13281-.08593.19366.19366,0,0,1-.02734-.15528l.502-2.3125a.80289.80289,0,0,0-.68945-1.084l-.50782-.11035a4.86538,4.86538,0,0,0-.36718,1.124L65.756,27.14267a.19539.19539,0,0,1-.09179.1289.20538.20538,0,0,1-.1543.02344l-1.65625-.36816a.20552.20552,0,0,1-.13281-.08692.18817.18817,0,0,1-.0293-.15234l.13477-.61817a.18926.18926,0,0,1,.08984-.12793.21037.21037,0,0,1,.15625-.02343l.63281.13769.26758-1.22754A4.38856,4.38856,0,0,1,65.34,23.69638l-.46094-.09961a.2158.2158,0,0,1-.13281-.08594.18821.18821,0,0,1-.02734-.15234l.14453-.67383a.1913.1913,0,0,1,.08984-.127.21106.21106,0,0,1,.1582-.02442l2.17969.47363A2.47772,2.47772,0,0,1,68.80484,23.82333Z"/><path class="u" d="M69.43375,28.08993a.18482.18482,0,0,1-.02734-.1543l.88281-4.07226a.191.191,0,0,1,.08984-.12793.21214.21214,0,0,1,.15625-.02441l.97852.21191a.19551.19551,0,0,1,.15234.23926l-.88476,4.07226a.20066.20066,0,0,1-.084.126.18905.18905,0,0,1-.1543.02734l-.97656-.21191A.21056.21056,0,0,1,69.43375,28.08993Z"/><path class="u" d="M76.6525,25.09677a.19707.19707,0,0,1,.02539.15332l-.502,2.31347a1.74633,1.74633,0,0,1-.82032,1.16993,2.93384,2.93384,0,0,1-1.66406.35351l-2.09375-.01172a.18739.18739,0,0,1-.17969-.22754l.14844-.67968a.208.208,0,0,1,.08008-.127.22639.22639,0,0,1,.14453-.04589l.91406-.02247-.20507-3.50683a.889.889,0,0,1-.00586-.165.16646.16646,0,0,1,.1914-.123l1.01758.22071a.20809.20809,0,0,1,.10938.06054.17991.17991,0,0,1,.043.09571l.08789,3.36816a1.105,1.105,0,0,0,.67383-.31641,1.56605,1.56605,0,0,0,.32032-.7207l.418-1.92285a.19044.19044,0,0,1,.08594-.12891.19517.19517,0,0,1,.15235-.02441l.92968.20117A.19578.19578,0,0,1,76.6525,25.09677Z"/><path class="u" d="M82.61734,26.39267a.18592.18592,0,0,1,.02344.15234l-.44336,2.04785a2.35761,2.35761,0,0,1-.57422,1.14063,2.191,2.191,0,0,1-1.02734.61621,2.54937,2.54937,0,0,1-1.25586.01367l-.75-.16309a2.38846,2.38846,0,0,1-1.041-.47949,1.78264,1.78264,0,0,1-.57422-.8125,1.80475,1.80475,0,0,1-.04687-.96777l.54687-2.51758a.1847.1847,0,0,1,.0879-.12793.22048.22048,0,0,1,.1582-.02441l.82031.17871a.19247.19247,0,0,1,.12891.08593.20205.20205,0,0,1,.02343.15235l-.39843,1.87793a.73435.73435,0,0,0,.66406-.19531,1.66079,1.66079,0,0,0,.34961-.78028l.15625-.71875a.20857.20857,0,0,1,.0918-.13965.1988.1988,0,0,1,.15625-.02734l.81445.17578a.19369.19369,0,0,1,.123.09375.22188.22188,0,0,1,.02539.16113l-.16016.73536a2.07334,2.07334,0,0,1-.76562,1.30566,1.98126,1.98126,0,0,1-1.43555.31934,1.01764,1.01764,0,0,0,.31055.46875,1.14864,1.14864,0,0,0,.51562.25l.17969.03906a1.57073,1.57073,0,0,0,.7539-.00781,1.24384,1.24384,0,0,0,.59766-.34571,1.21264,1.21264,0,0,0,.32227-.60742l.43554-2.00977a.19456.19456,0,0,1,.23828-.15429l.82227.17871A.1929.1929,0,0,1,82.61734,26.39267Z"/><path class="u" d="M55.57535,37.40927a1.25031,1.25031,0,0,1-.44824-.54981,1.14955,1.14955,0,0,1-.05176-.69922,1.09011,1.09011,0,0,1,.30469-.56836,1.1699,1.1699,0,0,1,.55371-.30078.98754.98754,0,0,1-.28613-.43261,1.03152,1.03152,0,0,1-.01661-.54786.98933.98933,0,0,1,.55567-.72265,1.8926,1.8926,0,0,1,2.00293.43164.98876.98876,0,0,1,.20215.89062,1.001,1.001,0,0,1-.24024.48438,1.05371,1.05371,0,0,1-.43457.28418,1.17209,1.17209,0,0,1,.37793.50293,1.09389,1.09389,0,0,1,.03906.64941,1.13515,1.13515,0,0,1-.335.61231,1.26773,1.26773,0,0,1-.63476.31054,2.246,2.246,0,0,1-1.58887-.34472Zm1.60156-.19629a.7246.7246,0,0,0,.24512-1.126,1.28976,1.28976,0,0,0-1.39551-.30273.72428.72428,0,0,0-.24511,1.126,1.16016,1.16016,0,0,0,.65527.36329A1.14582,1.14582,0,0,0,57.17691,37.213Zm.33594-1.98926a.56421.56421,0,0,0,.35059-.416.58164.58164,0,0,0-.14063-.53028,1.15246,1.15246,0,0,0-1.2168-.26465.61036.61036,0,0,0-.208.95606,1.02534,1.02534,0,0,0,.57226.31054A1.09123,1.09123,0,0,0,57.51285,35.22372Z"/><path class="u" d="M58.65641,38.1329a.13876.13876,0,0,1-.01368-.10352l.085-.39355a.143.143,0,0,1,.05762-.09473.121.121,0,0,1,.10156-.01757l.4043.08789a.13291.13291,0,0,1,.11133.17089l-.085.39356a.13123.13123,0,0,1-.0625.08691.14486.14486,0,0,1-.1084.0166l-.4043-.08789A.12316.12316,0,0,1,58.65641,38.1329Zm.44531-2.05176a.14059.14059,0,0,1-.01367-.10449l.085-.39258a.1543.1543,0,0,1,.05761-.0957.12745.12745,0,0,1,.10254-.01758l.4043.08789a.14752.14752,0,0,1,.09473.05957.15041.15041,0,0,1,.01562.11231l-.085.39257a.13314.13314,0,0,1-.0625.0879.1439.1439,0,0,1-.1084.01562l-.40429-.08789A.12412.12412,0,0,1,59.10172,36.08114Z"/><path class="u" d="M60.52262,38.17685a1.98257,1.98257,0,0,1-.12012-1.24024l.10351-.50488.11915-.52051a1.90662,1.90662,0,0,1,.62207-1.07129,1.6473,1.6473,0,0,1,2.21679.48145,1.89918,1.89918,0,0,1,.12207,1.2334c-.02051.10937-.05566.28418-.10742.52246-.05078.23047-.08887.39941-.11523.50293a1.97385,1.97385,0,0,1-.624,1.07812,1.65016,1.65016,0,0,1-2.21679-.48144Zm1.86035.04394a1.451,1.451,0,0,0,.42383-.793q.04248-.167.11132-.48535c.04688-.21387.08008-.376.09864-.48144a1.44351,1.44351,0,0,0-.06055-.89454.821.821,0,0,0-.61133-.44824.81267.81267,0,0,0-.74023.15528,1.45278,1.45278,0,0,0-.42285.78906l-.11036.47851-.09961.48828a1.45806,1.45806,0,0,0,.05665.89747.93827.93827,0,0,0,1.35449.29394Z"/><path class="u" d="M64.22867,38.98153a1.9755,1.9755,0,0,1-.12109-1.24023l.10449-.50488.11914-.52051a1.89577,1.89577,0,0,1,.62207-1.07129,1.64786,1.64786,0,0,1,2.2168.48144,1.91117,1.91117,0,0,1,.12207,1.2334c-.02051.10938-.05567.28418-.10742.52246-.05079.23047-.08887.39844-.11622.50293a1.97872,1.97872,0,0,1-.623,1.07813,1.64963,1.64963,0,0,1-2.2168-.48145Zm1.85938.044a1.449,1.449,0,0,0,.4248-.793q.041-.167.11035-.48633c.04688-.21289.08008-.375.09961-.48047a1.43443,1.43443,0,0,0-.06152-.89453.81918.81918,0,0,0-.61133-.44824.8086.8086,0,0,0-.73926.15527,1.44738,1.44738,0,0,0-.42383.78907l-.11035.47851-.09961.48828a1.45015,1.45015,0,0,0,.05762.89746.937.937,0,0,0,1.35352.294Z"/><path class="u" d="M67.88492,38.544a.12814.12814,0,0,1-.01758-.10254l.0459-.21093a.13357.13357,0,0,1,.05957-.08887.12579.12579,0,0,1,.10352-.0166l1.75879.38086a.14274.14274,0,0,1,.08984.05957.13626.13626,0,0,1,.0166.10547l-.0459.21093a.12233.12233,0,0,1-.05859.08594.1507.1507,0,0,1-.10449.01465l-1.75977-.38281A.13494.13494,0,0,1,67.88492,38.544Z"/><path class="u" d="M71.25113,40.86728a.13811.13811,0,0,1-.01367-.10352l.71777-3.30762-1.14941.542a.13749.13749,0,0,1-.0957.01758.13588.13588,0,0,1-.08692-.082l-.10156-.21191a.13414.13414,0,0,1-.01074-.08789.12492.12492,0,0,1,.081-.09278l1.48633-.709a.27924.27924,0,0,1,.16113-.00781l.27539.05957a.13232.13232,0,0,1,.10547.165l-.832,3.834a.13264.13264,0,0,1-.05957.08789.12958.12958,0,0,1-.10449.01758l-.28711-.0625A.12323.12323,0,0,1,71.25113,40.86728Z"/><path class="u" d="M72.53824,41.14657a.127.127,0,0,1-.0166-.10351l.03809-.17774a.35263.35263,0,0,1,.20214-.22558l1.55469-.99512a3.6933,3.6933,0,0,0,.72852-.47266.88682.88682,0,0,0,.27343-.46289.763.763,0,0,0-.07617-.585.77414.77414,0,0,0-.52051-.31836.762.762,0,0,0-.60058.084.94587.94587,0,0,0-.37305.49609.158.158,0,0,1-.08008.08789.16547.16547,0,0,1-.10156.01367l-.28125-.06152a.12516.12516,0,0,1-.08008-.05274.11586.11586,0,0,1-.01757-.08984,1.407,1.407,0,0,1,.29785-.56543,1.26888,1.26888,0,0,1,.56347-.376,1.43653,1.43653,0,0,1,.7793-.02246,1.33626,1.33626,0,0,1,.91211.55664,1.22787,1.22787,0,0,1,.14355.94239,1.28533,1.28533,0,0,1-.32421.627,2.77548,2.77548,0,0,1-.69532.50293l-1.41015.92188,1.84668.40136a.13539.13539,0,0,1,.09277.05664.13958.13958,0,0,1,.01367.10742l-.04785.22266a.136.136,0,0,1-.05957.08789.13187.13187,0,0,1-.10547.01758l-2.56836-.55859A.12523.12523,0,0,1,72.53824,41.14657Z"/><path class="u" d="M76.07633,41.91513a.13811.13811,0,0,1-.01367-.10352l.085-.39355a.14544.14544,0,0,1,.05761-.09473.12539.12539,0,0,1,.10157-.01855l.40429.08789a.15083.15083,0,0,1,.09571.06054.14719.14719,0,0,1,.01562.11133l-.085.39356a.1312.1312,0,0,1-.0625.08691.139.139,0,0,1-.1084.01562l-.4043-.08789A.1212.1212,0,0,1,76.07633,41.91513Zm.44531-2.05176a.14126.14126,0,0,1-.01367-.10449l.085-.39258a.15162.15162,0,0,1,.05762-.0957.13233.13233,0,0,1,.10253-.01856l.4043.08789a.13485.13485,0,0,1,.11035.17285l-.085.39258a.13312.13312,0,0,1-.0625.08789.14727.14727,0,0,1-.1084.0166l-.40429-.08789A.1307.1307,0,0,1,76.52164,39.86337Z"/><path class="u" d="M77.94351,41.95907a1.97476,1.97476,0,0,1-.12109-1.24023l.10449-.50488.11817-.52051a1.90221,1.90221,0,0,1,.623-1.07129,1.64786,1.64786,0,0,1,2.2168.48144A1.91111,1.91111,0,0,1,81.007,40.337c-.02051.11035-.05566.28418-.10742.52246-.05078.23047-.08887.39844-.11621.50293a1.97516,1.97516,0,0,1-.62305,1.07813,1.64963,1.64963,0,0,1-2.2168-.48145Zm1.85938.044a1.45139,1.45139,0,0,0,.42383-.792c.02832-.11133.06543-.27442.11133-.48633.04687-.21387.08007-.375.09863-.48047a1.4421,1.4421,0,0,0-.06055-.89453.92834.92834,0,0,0-1.35156-.29395,1.45245,1.45245,0,0,0-.42285.79l-.11035.47754-.09961.48926a1.45546,1.45546,0,0,0,.05664.89648.93828.93828,0,0,0,1.35449.294Z"/><path class="u" d="M81.64859,42.76376a1.99527,1.99527,0,0,1-.12109-1.24023l.10449-.50489.11914-.52051a1.90667,1.90667,0,0,1,.62207-1.07128,1.64732,1.64732,0,0,1,2.2168.48144,1.89843,1.89843,0,0,1,.12207,1.2334c-.02051.11035-.05566.28418-.10742.52246-.05078.23047-.08887.39844-.11621.50293a1.95786,1.95786,0,0,1-.623,1.07813,1.65018,1.65018,0,0,1-2.2168-.48145Zm1.86035.044a1.45136,1.45136,0,0,0,.42383-.792q.04248-.16845.11133-.48633c.04688-.21386.08008-.376.09863-.48046a1.44587,1.44587,0,0,0-.06054-.89551.82092.82092,0,0,0-.61133-.44824.81266.81266,0,0,0-.74024.15527,1.4462,1.4462,0,0,0-.42285.79l-.11035.47754-.09961.48926a1.44838,1.44838,0,0,0,.05664.89648.93828.93828,0,0,0,1.35449.294Z"/><path class="u" d="M52.27359,45.95614a.13374.13374,0,0,1-.01367-.10351l.71875-3.30762-1.15137.543a.11932.11932,0,0,1-.18066-.06445l-.10254-.2129a.14063.14063,0,0,1-.01074-.08789.12491.12491,0,0,1,.081-.09277l1.48633-.71a.30717.30717,0,0,1,.16113-.00781l.27637.06054a.13551.13551,0,0,1,.10449.165l-.833,3.835a.12944.12944,0,0,1-.0586.08692.13375.13375,0,0,1-.10449.01855l-.28809-.0625A.12246.12246,0,0,1,52.27359,45.95614Z"/><path class="u" d="M54.18961,46.31845a1.27416,1.27416,0,0,1-.42188-.501.94188.94188,0,0,1-.07617-.53809.10835.10835,0,0,1,.05371-.07714.12612.12612,0,0,1,.09473-.01368l.26465.05762a.19183.19183,0,0,1,.09863.04883.18077.18077,0,0,1,.042.11719.62737.62737,0,0,0,.24024.49414,1.39714,1.39714,0,0,0,.57422.2539,1.05438,1.05438,0,0,0,.71484-.05761.7138.7138,0,0,0,.374-.52344q.15528-.71338-.71679-.90527l-.55274-.11914a.12944.12944,0,0,1-.08691-.0586.13539.13539,0,0,1-.01856-.10547l.03321-.15234a.22206.22206,0,0,1,.09863-.13867l1.41894-1.01758-1.73632-.377a.13824.13824,0,0,1-.08887-.05664.12543.12543,0,0,1-.01856-.10157l.0459-.21093a.1486.1486,0,0,1,.06055-.09473.14043.14043,0,0,1,.10547-.01856l2.32226.50489a.13812.13812,0,0,1,.09375.06152.136.136,0,0,1,.01563.11035l-.042.19238a.21238.21238,0,0,1-.08789.123l-1.42188,1.03613.09375.02051a1.53144,1.53144,0,0,1,.87988.51563,1.086,1.086,0,0,1,.16309.93261,1.18391,1.18391,0,0,1-.335.624,1.262,1.262,0,0,1-.625.3125,1.94938,1.94938,0,0,1-.79981-.01758A2.00942,2.00942,0,0,1,54.18961,46.31845Z"/><path class="u" d="M57.1818,47.02157a.13.13,0,0,1-.01563-.10351l.08594-.39258a.143.143,0,0,1,.05762-.09473.12182.12182,0,0,1,.10156-.01855l.40527.08789a.13809.13809,0,0,1,.09375.06152.136.136,0,0,1,.01563.11035l-.085.39258a.13.13,0,0,1-.06153.08692.14025.14025,0,0,1-.1084.01757l-.40527-.08789A.12056.12056,0,0,1,57.1818,47.02157Zm.44531-2.05176a.14088.14088,0,0,1-.01563-.10449l.08594-.39258A.14276.14276,0,0,1,57.756,44.378a.119.119,0,0,1,.10059-.01856l.40527.08789a.146.146,0,0,1,.09473.06153.144.144,0,0,1,.01563.11035l-.085.39258a.13.13,0,0,1-.0625.08789.14418.14418,0,0,1-.10839.0166l-.40528-.08789A.1223.1223,0,0,1,57.62711,44.96981Z"/><path class="u" d="M59.047,47.06649a1.97656,1.97656,0,0,1-.12012-1.24023l.10352-.50586.11914-.51953a1.9128,1.9128,0,0,1,.62207-1.07227,1.6483,1.6483,0,0,1,2.2168.48243,1.90179,1.90179,0,0,1,.12207,1.23242q-.02929.16553-.10743.52343c-.0498.23047-.08886.39844-.11523.502a1.97259,1.97259,0,0,1-.624,1.07812,1.64866,1.64866,0,0,1-2.2168-.48047Zm1.86035.043a1.44844,1.44844,0,0,0,.42481-.792q.041-.167.11035-.48535c.04687-.21484.0791-.375.09961-.48145a1.43443,1.43443,0,0,0-.06153-.89453.81866.81866,0,0,0-.61035-.44824.80968.80968,0,0,0-.74023.1543,1.45045,1.45045,0,0,0-.42383.79l-.11035.47949-.09961.4873a1.44232,1.44232,0,0,0,.05762.89746.93617.93617,0,0,0,1.35351.293Z"/><path class="u" d="M62.75211,47.87118A1.99031,1.99031,0,0,1,62.632,46.631l.10352-.50586.11914-.51953a1.91825,1.91825,0,0,1,.62207-1.07227,1.64823,1.64823,0,0,1,2.21777.48145,1.90551,1.90551,0,0,1,.12207,1.23339q-.02929.16554-.10742.52247c-.04981.23046-.08887.39941-.11523.50293a1.97758,1.97758,0,0,1-.623,1.07812,1.653,1.653,0,0,1-2.21875-.48047Zm1.86133.043a1.454,1.454,0,0,0,.42382-.792q.04248-.167.11133-.48535c.04688-.21485.0791-.375.09864-.48145a1.4421,1.4421,0,0,0-.06055-.89453.92834.92834,0,0,0-1.35156-.29395,1.45249,1.45249,0,0,0-.42286.79l-.11035.4795-.09961.4873a1.44774,1.44774,0,0,0,.05664.89649.93828.93828,0,0,0,1.3545.29394Z"/><path class="u" d="M66.40933,47.43368a.12668.12668,0,0,1-.01757-.10351l.0459-.21094a.13039.13039,0,0,1,.05859-.08789.13187.13187,0,0,1,.10547-.01758l1.75879.38184a.13455.13455,0,0,1,.10644.16406l-.0459.21094a.13624.13624,0,0,1-.05859.08691.14877.14877,0,0,1-.10547.01367l-1.75879-.38183A.14788.14788,0,0,1,66.40933,47.43368Z"/><path class="u" d="M69.77555,49.756a.13562.13562,0,0,1-.01368-.10254l.71875-3.30762-1.15136.543a.1208.1208,0,0,1-.18067-.06543l-.10254-.21191a.15182.15182,0,0,1-.01074-.08887.12984.12984,0,0,1,.082-.09277l1.48535-.709a.29122.29122,0,0,1,.16211-.00781l.27539.05957a.1362.1362,0,0,1,.08789.06055.13273.13273,0,0,1,.01758.10449l-.833,3.835a.13728.13728,0,0,1-.0586.08789.13253.13253,0,0,1-.10547.01758l-.28711-.06153A.12465.12465,0,0,1,69.77555,49.756Z"/><path class="u" d="M71.53238,50.13778a.13219.13219,0,0,1-.01269-.09668l.02343-.05078,2.21-3.1123-1.93554-.41992a.135.135,0,0,1-.08789-.05957.12893.12893,0,0,1-.01758-.1045l.04687-.21679a.15078.15078,0,0,1,.05762-.09473.13163.13163,0,0,1,.1084-.01758l2.39258.51953a.13285.13285,0,0,1,.09082.06055.144.144,0,0,1,.01367.11035l-.043.19922a.64532.64532,0,0,1-.09765.21777l-2.1836,3.07422a.45033.45033,0,0,1-.08789.09278.12779.12779,0,0,1-.1084.01953l-.293-.06348A.10549.10549,0,0,1,71.53238,50.13778Z"/><path class="u" d="M74.16715,50.71005a.13385.13385,0,0,1-.01465-.10352l.08594-.39355a.14349.14349,0,0,1,.05664-.09375.125.125,0,0,1,.10254-.01953l.40429.08789a.14125.14125,0,0,1,.09473.0625.13681.13681,0,0,1,.01562.10937l-.085.39356a.13312.13312,0,0,1-.06152.08691.14624.14624,0,0,1-.10937.01758l-.4043-.08789A.12455.12455,0,0,1,74.16715,50.71005Zm.44531-2.05176a.14628.14628,0,0,1-.01465-.10449l.08594-.39258a.143.143,0,0,1,.05762-.09473.12572.12572,0,0,1,.10156-.01953l.4043.08789a.13664.13664,0,0,1,.11132.17286l-.085.39257a.1331.1331,0,0,1-.0625.08789.15056.15056,0,0,1-.10937.01661l-.4043-.0879A.1264.1264,0,0,1,74.61246,48.65829Z"/><path class="u" d="M76.03336,50.754a1.98151,1.98151,0,0,1-.1211-1.24023l.1045-.50488.11816-.52051a1.90774,1.90774,0,0,1,.62305-1.07129,1.64729,1.64729,0,0,1,2.21679.48145,1.90461,1.90461,0,0,1,.12207,1.23339q-.0293.16554-.10742.52246c-.0498.23047-.08886.39844-.11523.50293a1.97624,1.97624,0,0,1-.624,1.07813,1.64963,1.64963,0,0,1-2.2168-.48145Zm1.86035.04395a1.454,1.454,0,0,0,.42383-.792q.04248-.167.11133-.48535c.04687-.21485.0791-.376.09863-.48145a1.4421,1.4421,0,0,0-.06055-.89453.92834.92834,0,0,0-1.35156-.294,1.45245,1.45245,0,0,0-.42285.79l-.11035.47852-.09961.48828a1.44763,1.44763,0,0,0,.05664.89648.93783.93783,0,0,0,1.35449.29395Z"/><path class="u" d="M79.73844,51.55868a1.98862,1.98862,0,0,1-.12012-1.24023l.10351-.50489.11915-.5205a1.91206,1.91206,0,0,1,.62207-1.07129,1.64676,1.64676,0,0,1,2.21679.48144,1.89214,1.89214,0,0,1,.12207,1.2334q-.0293.16552-.10742.52246c-.0498.23047-.08887.39844-.11523.50293a1.96461,1.96461,0,0,1-.624,1.07813,1.65017,1.65017,0,0,1-2.21679-.48145Zm1.86132.04395a1.454,1.454,0,0,0,.42383-.792c.02832-.1123.06543-.27343.11133-.48535.04688-.21484.0791-.376.09863-.48144a1.44587,1.44587,0,0,0-.06054-.89551.82271.82271,0,0,0-.61133-.44824.81266.81266,0,0,0-.74024.15527,1.44626,1.44626,0,0,0-.42285.79l-.11035.47852-.09961.48828a1.44069,1.44069,0,0,0,.05664.89648.81194.81194,0,0,0,.61035.44531A.82119.82119,0,0,0,81.59976,51.60263Z"/><path class="u" d="M27.42594,49.76571a.14893.14893,0,0,1-.02246-.11328l.16113-.73828a.13764.13764,0,0,1,.0664-.0957.14728.14728,0,0,1,.11231-.01856l.77344.168a.15291.15291,0,0,1,.09961.06445.14083.14083,0,0,1,.02148.11426l-.16113.73828a.14138.14138,0,0,1-.06641.09766.1563.1563,0,0,1-.11719.01758l-.77343-.168A.1472.1472,0,0,1,27.42594,49.76571Zm.44531-2.05175a.14433.14433,0,0,1-.02149-.11329l.16016-.73828a.1416.1416,0,0,1,.06641-.09668.159.159,0,0,1,.11328-.01855l.77344.168a.15832.15832,0,0,1,.09863.06445.146.146,0,0,1,.02148.11621l-.16015.73828a.14827.14827,0,0,1-.06739.09668.16088.16088,0,0,1-.11718.01758l-.77344-.168A.15084.15084,0,0,1,27.87125,47.714Z"/><path class="u" d="M29.172,50.14755a.14563.14563,0,0,1-.02246-.11621l.37207-1.71192a.143.143,0,0,1,.06738-.09472.15947.15947,0,0,1,.11817-.01758l.6914.15039a.14234.14234,0,0,1,.09668.06445.144.144,0,0,1,.01856.11328l-.37207,1.71192a.15637.15637,0,0,1-.06348.09472.13976.13976,0,0,1-.11523.02051l-.69141-.15039A.15291.15291,0,0,1,29.172,50.14755Zm2.14844.4668a.15457.15457,0,0,1-.01856-.11524l.377-1.73437a.60272.60272,0,0,0-.51661-.81348l-1.33691-.29a.15291.15291,0,0,1-.09961-.06445.14338.14338,0,0,1-.02246-.11524l.11035-.50488a.137.137,0,0,1,.06738-.09473.15631.15631,0,0,1,.11719-.01757l1.36621.29687a1.84352,1.84352,0,0,1,1.13965.62207,1.43678,1.43678,0,0,1,.165,1.20117l-.376,1.7295a.1395.1395,0,0,1-.0664.09667.15191.15191,0,0,1-.11719.01758l-.69141-.15039A.14645.14645,0,0,1,31.32047,50.61435Z"/><path class="u" d="M36.25211,48.26571a.14471.14471,0,0,1,.01855.11328l-.11035.50489a.14763.14763,0,0,1-.0625.09375.13979.13979,0,0,1-.11523.0205l-.26953-.05859a.88562.88562,0,0,0-.17383.27539,2.13569,2.13569,0,0,0-.12793.4082l-.3711,1.707a.11089.11089,0,0,1-.07519.07812.19966.19966,0,0,1-.12207.01367l-.68652-.14843a.12941.12941,0,0,1-.08594-.05567.13273.13273,0,0,1-.01563-.10156l.38477-1.77149a1.28692,1.28692,0,0,1,.25976-.625l-1.33789-.29a.1453.1453,0,0,1-.09277-.06641.15013.15013,0,0,1-.02246-.11231l.11035-.50488a.13657.13657,0,0,1,.06641-.09472.14077.14077,0,0,1,.11132-.01856l2.6211.56836A.14559.14559,0,0,1,36.25211,48.26571Z"/><path class="u" d="M36.05094,51.63876a.14893.14893,0,0,1-.02246-.11328l.11035-.50391a.13764.13764,0,0,1,.0664-.0957.15051.15051,0,0,1,.11133-.01953l1.47266.32031.23535-1.084a.60071.60071,0,0,0-.51953-.80762l-.751-.16309a.138.138,0,0,1-.0957-.06738.16245.16245,0,0,1-.01758-.11621l.11035-.50488a.13659.13659,0,0,1,.06641-.09473.14537.14537,0,0,1,.11133-.01953l.78027.16992a1.95822,1.95822,0,0,1,1.16406.61328A1.40444,1.40444,0,0,1,39.05,50.36532l-.23535,1.084.20508.04394a.14517.14517,0,0,1,.11523.17871l-.11035.50391a.14981.14981,0,0,1-.06348.09473.13695.13695,0,0,1-.11426.0205l-2.70312-.58691A.14627.14627,0,0,1,36.05094,51.63876Z"/><path class="u" d="M43.23551,49.78134a.14889.14889,0,0,1,.01855.11328l-.377,1.73633a1.30844,1.30844,0,0,1-.61524.877,2.2063,2.2063,0,0,1-1.248.26563l-1.57032-.00879a.13986.13986,0,0,1-.10839-.05371.13392.13392,0,0,1-.02637-.11719l.11035-.51074a.1479.1479,0,0,1,.06055-.09278.17263.17263,0,0,1,.1084-.03613l.68652-.0166-.1543-2.62988a.81118.81118,0,0,1-.00293-.123.114.114,0,0,1,.05176-.0752.11621.11621,0,0,1,.09082-.0166l.76172.165a.14108.14108,0,0,1,.082.04492.14813.14813,0,0,1,.03516.07129l.06445,2.52637a.82749.82749,0,0,0,.50586-.23731,1.1974,1.1974,0,0,0,.23926-.54l.31347-1.44335a.14288.14288,0,0,1,.17871-.11329l.69727.15137A.14532.14532,0,0,1,43.23551,49.78134Z"/><path class="u" d="M46.82047,50.89071a1.44908,1.44908,0,0,1,.1416,1.1543l-.38477,1.77051a.14975.14975,0,0,1-.06347.09472.14079.14079,0,0,1-.11426.02149L44.798,53.58407a.15418.15418,0,0,1-.11426-.17969l.10937-.5039a.13879.13879,0,0,1,.06739-.0957.14728.14728,0,0,1,.11035-.01954l.75683.165.2334-1.07324a.72153.72153,0,0,0-.04394-.50683.49327.49327,0,0,0-.34375-.25293l-.457-.09864-1.01075,2.25391a.19139.19139,0,0,1-.07226.09863.13725.13725,0,0,1-.11426.02149l-.6748-.14649a.14471.14471,0,0,1-.09766-.06738.11742.11742,0,0,1-.00879-.11621l1.08594-2.23242-.3877-.084a.13764.13764,0,0,1-.0957-.0664.15631.15631,0,0,1-.01758-.11719l.11817-.54a.1311.1311,0,0,1,.0664-.09473.143.143,0,0,1,.11035-.01953l1.88282.40918A1.42321,1.42321,0,0,1,46.82047,50.89071Z"/><path class="u" d="M52.20133,52.04989a1.38637,1.38637,0,0,1,.17187,1.17578l-.38379,1.76465a.1498.1498,0,0,1-.06347.09473.13981.13981,0,0,1-.11524.02051l-.6914-.14942a.16048.16048,0,0,1-.09961-.06445.14605.14605,0,0,1-.02149-.11621l.377-1.73438a.60212.60212,0,0,0-.51758-.8125l-.38086-.083a3.694,3.694,0,0,0-.27539.84277l-.28809,1.55176a.13952.13952,0,0,1-.06641.09668.15628.15628,0,0,1-.11718.01757L48.48746,54.379a.15786.15786,0,0,1-.09961-.06543.142.142,0,0,1-.02051-.11621l.10059-.46289a.1397.1397,0,0,1,.0664-.0957.16589.16589,0,0,1,.11719-.01758l.47461.10352.2002-.91992a3.16119,3.16119,0,0,1,.27734-.84864L49.257,51.881a.16052.16052,0,0,1-.09961-.06446.14376.14376,0,0,1-.02148-.11523l.11035-.50488a.13378.13378,0,0,1,.06641-.09473.14787.14787,0,0,1,.11718-.01758l1.63574.35547A1.86279,1.86279,0,0,1,52.20133,52.04989Z"/><path class="u" d="M52.673,55.25009a.14192.14192,0,0,1-.02246-.11621l.66406-3.05469a.13421.13421,0,0,1,.06738-.09473.15318.15318,0,0,1,.11621-.01758l.7334.15918a.14558.14558,0,0,1,.09668.06446.14884.14884,0,0,1,.01855.11328l-.66406,3.05469a.15363.15363,0,0,1-.06347.09472.13692.13692,0,0,1-.11426.02051l-.7334-.15918A.152.152,0,0,1,52.673,55.25009Z"/><path class="u" d="M57.94742,53.30771A1.44254,1.44254,0,0,1,58.09,54.461l-.38477,1.7705a.15213.15213,0,0,1-.0625.09473.14077.14077,0,0,1-.11425.02148l-1.60157-.34765a.15595.15595,0,0,1-.11523-.17969l.11035-.50391a.13972.13972,0,0,1,.06641-.0957.14559.14559,0,0,1,.11132-.01855l.75684.16406.2334-1.07324a.716.716,0,0,0-.04492-.50684.492.492,0,0,0-.34375-.25293l-.457-.09863-1.01075,2.2539a.18978.18978,0,0,1-.07129.09864.13385.13385,0,0,1-.11425.02148l-.67481-.14648a.1498.1498,0,0,1-.09961-.06739.1198.1198,0,0,1-.00781-.11621l1.08691-2.23144-.38769-.084a.14173.14173,0,0,1-.0957-.06738.15191.15191,0,0,1-.01758-.11719l.11719-.54a.13377.13377,0,0,1,.0664-.09472.14489.14489,0,0,1,.11133-.01856l1.88281.40821A1.41487,1.41487,0,0,1,57.94742,53.30771Z"/><path class="u" d="M58.66226,55.09579a.14682.14682,0,0,1-.02148-.11621l.3623-1.665a.13381.13381,0,0,1,.06641-.09473.152.152,0,0,1,.11719-.01757l.7334.15918a.14016.14016,0,0,1,.0957.06347.14309.14309,0,0,1,.01855.11426l-.3623,1.66406a.14363.14363,0,0,1-.0625.09473.13725.13725,0,0,1-.11426.02148l-.7334-.15918A.16054.16054,0,0,1,58.66226,55.09579Z"/><path class="u" d="M62.32633,57.34384a.15621.15621,0,0,1-.12012.01953l-.7334-.15918a.14079.14079,0,0,1-.08984-.0625.16872.16872,0,0,1-.02442-.11621l.00684-.45215a1.31275,1.31275,0,0,1-.40332.21289,3.27056,3.27056,0,0,1-.47266.127,2.32757,2.32757,0,0,1-.42187.03516l-.042-.00488c-.06641-.01367-.09278-.05274-.07911-.11328l.1377-.63477c.01367-.06641.06543-.10547.1543-.11914.03027-.00488.125-.01465.28515-.02734a2.25128,2.25128,0,0,0,.39649-.0586,1.20892,1.20892,0,0,0,.45605-.23144l.00684-.57032a1.2929,1.2929,0,0,0-.07324-.53808.43752.43752,0,0,0-.332-.22461l-.20507-.04492a.13884.13884,0,0,1-.09278-.06641.1428.1428,0,0,1-.02246-.11133l.11719-.53906a.16218.16218,0,0,1,.06543-.10156.14021.14021,0,0,1,.11426-.01953l.22265.04882a1.84913,1.84913,0,0,1,.76856.32227,1.14267,1.14267,0,0,1,.3789.56445,2.93974,2.93974,0,0,1,.09668.9043l-.03711,1.86523A.10673.10673,0,0,1,62.32633,57.34384Z"/><path class="u" d="M65.95621,54.71493a.14885.14885,0,0,1,.01855.11328l-.11035.50489a.15144.15144,0,0,1-.0625.09375.14267.14267,0,0,1-.11621.0205l-.26855-.05859a.90451.90451,0,0,0-.17481.27539,2.15948,2.15948,0,0,0-.12793.4082l-.37109,1.707a.10906.10906,0,0,1-.0752.07813.19965.19965,0,0,1-.12207.01367l-.68554-.14844a.1249.1249,0,0,1-.08594-.05566.128.128,0,0,1-.01563-.10156l.38477-1.77149a1.29749,1.29749,0,0,1,.25879-.625l-1.33692-.29a.14724.14724,0,0,1-.09375-.0664.14929.14929,0,0,1-.02246-.11231l.11036-.50488a.13865.13865,0,0,1,.0664-.09473.14314.14314,0,0,1,.11231-.01855l2.62011.56836A.14993.14993,0,0,1,65.95621,54.71493Z"/><path class="u" d="M70.76383,56.08017A1.38636,1.38636,0,0,1,70.9357,57.256l-.38379,1.76465a.14733.14733,0,0,1-.06347.09472.14378.14378,0,0,1-.11524.02149l-.6914-.15039a.16049.16049,0,0,1-.09961-.06446.146.146,0,0,1-.02149-.11621l.377-1.73437a.60166.60166,0,0,0-.51758-.8125l-.38086-.083a3.70239,3.70239,0,0,0-.27539.84375l-.28809,1.55078a.13948.13948,0,0,1-.06641.09668.16088.16088,0,0,1-.11718.01758L67.05,58.40927a.1579.1579,0,0,1-.09961-.06543.13981.13981,0,0,1-.02051-.11524l.10059-.46289a.13764.13764,0,0,1,.0664-.0957.15631.15631,0,0,1,.11719-.01758l.47461.10254.2002-.91992a3.19566,3.19566,0,0,1,.27734-.84863l-.34668-.0752a.16051.16051,0,0,1-.09961-.06445.14769.14769,0,0,1-.02148-.11524l.11035-.50488a.13661.13661,0,0,1,.06641-.09473.14782.14782,0,0,1,.11718-.01757l1.63574.35449A1.87309,1.87309,0,0,1,70.76383,56.08017Z"/><path class="u" d="M71.23648,59.28134a.14419.14419,0,0,1-.02246-.11719l.66406-3.05469a.1305.1305,0,0,1,.06739-.09375.145.145,0,0,1,.11621-.01758l.7334.15821a.14478.14478,0,0,1,.11523.17773l-.66406,3.05469a.15222.15222,0,0,1-.0625.09473.13981.13981,0,0,1-.11524.0205l-.73339-.1582A.15573.15573,0,0,1,71.23648,59.28134Z"/><path class="u" d="M76.64957,57.0372a.14416.14416,0,0,1,.01953.11328l-.37695,1.73633a1.31376,1.31376,0,0,1-.61524.877,2.19991,2.19991,0,0,1-1.249.26465l-1.56934-.00879a.13983.13983,0,0,1-.10839-.05371.13191.13191,0,0,1-.02637-.11621l.11035-.51172a.15193.15193,0,0,1,.06055-.09277.18293.18293,0,0,1,.10839-.03614l.68555-.0166-.15332-2.62988a.74177.74177,0,0,1-.0039-.123.12342.12342,0,0,1,.14355-.0918l.76172.166a.13451.13451,0,0,1,.08105.044.13982.13982,0,0,1,.03516.07128l.06445,2.52637a.82509.82509,0,0,0,.50684-.2373,1.1975,1.1975,0,0,0,.23926-.54l.31347-1.44336a.13916.13916,0,0,1,.06348-.09473.14287.14287,0,0,1,.11523-.01855l.69727.15136A.14234.14234,0,0,1,76.64957,57.0372Z"/><path class="u" d="M81.12418,58.0079a.14542.14542,0,0,1,.01855.11328l-.334,1.53711a1.76506,1.76506,0,0,1-.43164.85449,1.60555,1.60555,0,0,1-.76856.46192,1.908,1.908,0,0,1-.94238.01172l-.56348-.12207a1.80928,1.80928,0,0,1-.78027-.36036,1.33193,1.33193,0,0,1-.42969-.60839,1.34655,1.34655,0,0,1-.03613-.72657l.41016-1.88867a.13382.13382,0,0,1,.0664-.09473.15019.15019,0,0,1,.11817-.01757l.61523.13281a.1448.1448,0,0,1,.11524.17773L77.882,58.88681a.55238.55238,0,0,0,.499-.14551,1.2187,1.2187,0,0,0,.26172-.585l.11719-.53906a.15535.15535,0,0,1,.06738-.1045.14634.14634,0,0,1,.11914-.0205l.6084.13281a.13733.13733,0,0,1,.09375.06836.16447.16447,0,0,1,.01953.12109l-.12011.55078a1.56167,1.56167,0,0,1-.57422.98047,1.498,1.498,0,0,1-1.07813.23926.783.783,0,0,0,.2334.35058.86042.86042,0,0,0,.38672.18848l.13379.0293a1.1954,1.1954,0,0,0,.56738-.00586.96421.96421,0,0,0,.44922-.25879.92453.92453,0,0,0,.24024-.457l.32714-1.50781a.14242.14242,0,0,1,.06348-.09571.14592.14592,0,0,1,.11523-.01758l.61524.13379A.14443.14443,0,0,1,81.12418,58.0079Z"/><path class="u" d="M52.15055,64.295a1.26379,1.26379,0,0,1-.44825-.5498,1.16242,1.16242,0,0,1-.05175-.69825,1.10617,1.10617,0,0,1,.30468-.57031,1.18453,1.18453,0,0,1,.55469-.2998,1.00705,1.00705,0,0,1-.28711-.4336,1.025,1.025,0,0,1-.01562-.5459.98855.98855,0,0,1,.55566-.72461,1.89265,1.89265,0,0,1,2.00293.43164.99287.99287,0,0,1,.20215.89161,1.03068,1.03068,0,0,1-.24024.48535,1.07586,1.07586,0,0,1-.43457.28222,1.17959,1.17959,0,0,1,.377.50293,1.09708,1.09708,0,0,1,.04.65039,1.12885,1.12885,0,0,1-.335.61133,1.265,1.265,0,0,1-.63477.31153,2.26046,2.26046,0,0,1-1.58984-.34473Zm1.60253-.19629a.72367.72367,0,0,0,.24415-1.126,1.15032,1.15032,0,0,0-.64844-.3623,1.1645,1.1645,0,0,0-.74707.05859.72513.72513,0,0,0-.24414,1.126,1.29021,1.29021,0,0,0,1.3955.30371Zm.33594-1.99023a.55762.55762,0,0,0,.34961-.415.57706.57706,0,0,0-.13965-.53125,1.14957,1.14957,0,0,0-1.21679-.26367.60815.60815,0,0,0-.208.95507,1.0201,1.0201,0,0,0,.57129.31153A1.086,1.086,0,0,0,54.089,62.10849Z"/><path class="u" d="M55.23258,65.01864a.14143.14143,0,0,1-.01465-.10449l.08594-.39355a.14349.14349,0,0,1,.05664-.09375.12377.12377,0,0,1,.10254-.01758l.40429.08789a.13806.13806,0,0,1,.09473.06055.14088.14088,0,0,1,.0166.10937l-.08594.39355a.13093.13093,0,0,1-.06152.0879.14738.14738,0,0,1-.10938.0166l-.40429-.08789A.12424.12424,0,0,1,55.23258,65.01864Zm.44531-2.05176a.14379.14379,0,0,1-.01367-.10546l.085-.39258a.14541.14541,0,0,1,.05762-.09473.12092.12092,0,0,1,.10156-.01758l.4043.08789a.14585.14585,0,0,1,.0957.06055.14846.14846,0,0,1,.01562.11035l-.085.39258a.13742.13742,0,0,1-.0625.08887.15462.15462,0,0,1-.1084.0166l-.40429-.08789A.12936.12936,0,0,1,55.67789,62.96688Z"/><path class="u" d="M57.09879,65.06161a1.97927,1.97927,0,0,1-.1211-1.23926l.10352-.50488.11914-.52051a1.92109,1.92109,0,0,1,.62207-1.07129,1.64427,1.64427,0,0,1,2.2168.48145,1.88375,1.88375,0,0,1,.12207,1.23242c-.01953.11035-.05567.28418-.10742.52344-.04981.22949-.08887.39844-.11524.50293a1.96643,1.96643,0,0,1-.62305,1.07715,1.64962,1.64962,0,0,1-2.21679-.48145Zm1.86035.04395a1.45048,1.45048,0,0,0,.42383-.792q.04248-.167.11133-.48535c.04687-.21484.0791-.375.09863-.48144a1.44279,1.44279,0,0,0-.06055-.89453.93025.93025,0,0,0-1.35156-.294,1.45606,1.45606,0,0,0-.42285.79l-.11035.47949-.09961.48731a1.44629,1.44629,0,0,0,.05664.89648.93828.93828,0,0,0,1.35449.29395Z"/><path class="u" d="M60.80484,65.8663a1.96573,1.96573,0,0,1-.12109-1.23926l.10351-.50488.11915-.52051a1.90658,1.90658,0,0,1,.62207-1.07129,1.6448,1.6448,0,0,1,2.21679.48145,1.89622,1.89622,0,0,1,.12207,1.23242c-.01953.11035-.05566.28418-.10742.52344-.0498.22949-.08789.39843-.11523.50293a1.9781,1.9781,0,0,1-.623,1.07714,1.64906,1.64906,0,0,1-2.2168-.48144Zm1.85938.04394a1.44481,1.44481,0,0,0,.4248-.792c.02735-.1123.06446-.27344.11035-.48535.04688-.21484.07911-.375.09961-.48144a1.43887,1.43887,0,0,0-.06152-.89551.93012.93012,0,0,0-1.35059-.293,1.45044,1.45044,0,0,0-.42382.79l-.11036.47949-.09961.4873a1.43867,1.43867,0,0,0,.05762.89649.937.937,0,0,0,1.35352.29394Z"/><path class="u" d="M64.46109,65.42978a.12258.12258,0,0,1-.01758-.10352l.0459-.21094a.13374.13374,0,0,1,.0586-.08789.12867.12867,0,0,1,.10449-.0166l1.75879.38184a.13125.13125,0,0,1,.08887.05859.12961.12961,0,0,1,.01757.10449l-.0459.21094a.1304.1304,0,0,1-.05859.08691.14731.14731,0,0,1-.10547.01368L64.549,65.48544A.14272.14272,0,0,1,64.46109,65.42978Z"/><path class="u" d="M67.49527,67.68173a.13541.13541,0,0,1-.01269-.09766.13259.13259,0,0,1,.041-.07129l1.17481-1.05957a1.38914,1.38914,0,0,1-.33594-.03515,1.49129,1.49129,0,0,1-.69531-.35743,1.31,1.31,0,0,1-.376-.60351,1.38656,1.38656,0,0,1-.02441-.69531,1.45061,1.45061,0,0,1,.3125-.63282,1.34124,1.34124,0,0,1,.61035-.4082,1.575,1.575,0,0,1,.84375-.02539,1.613,1.613,0,0,1,.76074.36914,1.30837,1.30837,0,0,1,.39453.61524,1.42583,1.42583,0,0,1,.02442.708,1.3532,1.3532,0,0,1-.23829.54395,3.29349,3.29349,0,0,1-.4121.44531L68.07828,67.7247a.6707.6707,0,0,1-.09766.06836.174.174,0,0,1-.11621.00879l-.293-.06348A.10932.10932,0,0,1,67.49527,67.68173Zm1.53125-1.72168a.87489.87489,0,0,0,.40235-.24121.90713.90713,0,0,0,.22363-.43946.93313.93313,0,0,0-.01953-.502.86116.86116,0,0,0-.26563-.38965,1.00266,1.00266,0,0,0-.43847-.21.98238.98238,0,0,0-.4795.01074.87006.87006,0,0,0-.39941.24512.91952.91952,0,0,0-.22656.44824.90192.90192,0,0,0,.02246.49317.87117.87117,0,0,0,.25976.38476.95547.95547,0,0,0,.4336.21094A.98953.98953,0,0,0,69.02652,65.96005Z"/><path class="u" d="M70.34781,68.30087a.14143.14143,0,0,1-.01465-.10449l.08594-.39356a.14349.14349,0,0,1,.05664-.09375.121.121,0,0,1,.10254-.01758l.4043.08789a.136.136,0,0,1,.09472.06055.141.141,0,0,1,.01661.10938l-.08594.39355a.131.131,0,0,1-.06153.08789.15056.15056,0,0,1-.10937.0166l-.4043-.08789A.12645.12645,0,0,1,70.34781,68.30087Zm.44531-2.05176a.14453.14453,0,0,1-.01367-.10547l.085-.39258a.143.143,0,0,1,.05762-.09472.12158.12158,0,0,1,.10156-.01758l.4043.08789a.14349.14349,0,0,1,.0957.06055.14842.14842,0,0,1,.01563.11035l-.085.39258a.13741.13741,0,0,1-.0625.08886.14778.14778,0,0,1-.1084.01563l-.4043-.08789A.12953.12953,0,0,1,70.79312,66.24911Z"/><path class="u" d="M72.215,68.34384a1.97211,1.97211,0,0,1-.12207-1.23926l.10449-.50488.11816-.52149a1.91381,1.91381,0,0,1,.62305-1.07031,1.64481,1.64481,0,0,1,2.2168.48145,1.89622,1.89622,0,0,1,.12207,1.23242c-.01953.11035-.05567.28418-.10742.52344q-.07471.34423-.11524.50292a1.98167,1.98167,0,0,1-.623,1.07715,1.36367,1.36367,0,0,1-1.208.2002A1.34794,1.34794,0,0,1,72.215,68.34384Zm1.85937.04394a1.45028,1.45028,0,0,0,.42383-.792q.04248-.167.11133-.48535c.04688-.21484.0791-.376.09863-.48145a1.44273,1.44273,0,0,0-.06054-.89453.93026.93026,0,0,0-1.35157-.29394,1.456,1.456,0,0,0-.42285.79l-.11035.47851-.09961.48828a1.44706,1.44706,0,0,0,.05664.89649.93827.93827,0,0,0,1.35449.29394Z"/><path class="u" d="M75.92008,69.14853a1.97927,1.97927,0,0,1-.1211-1.23926l.10352-.50489.11914-.52148a1.90934,1.90934,0,0,1,.62207-1.07031,1.64426,1.64426,0,0,1,2.2168.48144,1.89008,1.89008,0,0,1,.12207,1.23243c-.01953.11035-.05567.28417-.10742.52343q-.07471.34423-.11524.50293a1.96994,1.96994,0,0,1-.623,1.07715,1.6496,1.6496,0,0,1-2.21679-.48144Zm1.86035.04394a1.45045,1.45045,0,0,0,.42383-.792c.02832-.11231.06543-.27344.11132-.48535.04688-.21485.07911-.376.09864-.48145a1.44663,1.44663,0,0,0-.06055-.89551.931.931,0,0,0-1.35156-.293,1.44975,1.44975,0,0,0-.42285.79l-.11035.47852-.09961.48828a1.43992,1.43992,0,0,0,.05664.89649.93827.93827,0,0,0,1.35449.29394Z"/><path class="u" d="M32.589,69.30575a.14339.14339,0,0,1-.02246-.11328l.16113-.73828a.13113.13113,0,0,1,.06641-.09473.14493.14493,0,0,1,.11133-.01855l.77441.168a.14857.14857,0,0,1,.09864.06445.13657.13657,0,0,1,.02148.11426l-.16113.73828a.13665.13665,0,0,1-.06641.09668.15761.15761,0,0,1-.11621.01758l-.77441-.168A.142.142,0,0,1,32.589,69.30575Zm.44531-2.05176a.13911.13911,0,0,1-.02148-.11328l.16016-.73828a.13328.13328,0,0,1,.06738-.0957.1442.1442,0,0,1,.11133-.01856l.77441.168a.15083.15083,0,0,1,.09863.06446.14116.14116,0,0,1,.02051.11425l-.16015.73828a.14472.14472,0,0,1-.06739.09766.15766.15766,0,0,1-.11621.01758l-.77441-.168A.14535.14535,0,0,1,33.03433,67.254Z"/><path class="u" d="M38.02555,67.06942a.14892.14892,0,0,1,.01855.11329l-.377,1.73632a1.30812,1.30812,0,0,1-.61426.877,2.21163,2.21163,0,0,1-1.249.2666l-1.56934-.00977a.13972.13972,0,0,1-.10937-.05469.13123.13123,0,0,1-.02637-.11621l.11035-.50976a.14883.14883,0,0,1,.06152-.09375.17261.17261,0,0,1,.1084-.03613l.68555-.01661-.1543-2.62988a.8117.8117,0,0,1-.00293-.123A.1197.1197,0,0,1,35.05,66.381l.76172.165a.13741.13741,0,0,1,.11719.11718l.06543,2.52637a.8332.8332,0,0,0,.50488-.23828,1.18224,1.18224,0,0,0,.24023-.54l.31348-1.44336a.14017.14017,0,0,1,.06348-.0957.14776.14776,0,0,1,.11425-.01856l.69727.15235A.14647.14647,0,0,1,38.02555,67.06942Z"/><path class="u" d="M37.9484,70.46884a.14425.14425,0,0,1-.02246-.11231l.10937-.50293a.14792.14792,0,0,1,.06738-.09765.15144.15144,0,0,1,.11036-.01856l1.47265.31934.23535-1.084a.59836.59836,0,0,0-.51855-.80566l-.75-.16309a.13875.13875,0,0,1-.0957-.06738.1519.1519,0,0,1-.01758-.11719l.10937-.50488a.1394.1394,0,0,1,.06543-.0957.15248.15248,0,0,1,.11231-.01856l.77929.16993a1.95434,1.95434,0,0,1,1.165.61425,1.40422,1.40422,0,0,1,.17676,1.21192l-.23535,1.084.20508.04395a.14794.14794,0,0,1,.0957.06445.14613.14613,0,0,1,.01856.11523l-.10938.50293a.14858.14858,0,0,1-.06348.09473.13693.13693,0,0,1-.11425.02051l-2.70411-.58692A.137.137,0,0,1,37.9484,70.46884Z"/><path class="u" d="M41.1984,72.3497a.13784.13784,0,0,1-.02149-.11328l.61524-2.834a.13586.13586,0,0,1,.06738-.09375.152.152,0,0,1,.11719-.01758l.66894.14453a.14029.14029,0,0,1,.09473.06446.13361.13361,0,0,1,.01855.11328l-.61523,2.833a.14534.14534,0,0,1-.17676.11425L41.298,72.4161A.15542.15542,0,0,1,41.1984,72.3497Zm1.64258-.73535a.17892.17892,0,0,1-.02149-.127l.12891-.59277a.18537.18537,0,0,1,.06543-.10156.22.22,0,0,1,.12109-.05274l.19824-.03808a.88068.88068,0,0,0,.78418-.78125.789.789,0,0,0-.02051-.54493.64973.64973,0,0,0-.45019-.25195l-1.56055-.33887a.14761.14761,0,0,1-.09863-.0664.14946.14946,0,0,1-.02051-.11914l.11817-.54492a.12838.12838,0,0,1,.06836-.08887.16324.16324,0,0,1,.11425-.01856l1.76563.38379a1.46062,1.46062,0,0,1,1.01758.60449,1.637,1.637,0,0,1,.09375,1.17774,1.769,1.769,0,0,1-.70508,1.124,2.392,2.392,0,0,1-1.2461.42285l-.25585.01856A.11055.11055,0,0,1,42.841,71.61435Z"/><path class="u" d="M46.86148,70.95321A.14379.14379,0,0,1,46.84,70.838l.3623-1.666a.13762.13762,0,0,1,.06641-.0957.16423.16423,0,0,1,.11816-.01758l.73243.16016a.14329.14329,0,0,1,.11523.17676l-.36133,1.666a.15048.15048,0,0,1-.06445.09375.13695.13695,0,0,1-.11426.02051l-.73242-.1582A.16548.16548,0,0,1,46.86148,70.95321Z"/><path class="u" d="M52.70133,70.256a.1447.1447,0,0,1,.01855.11328l-.334,1.53711a1.75683,1.75683,0,0,1-.43164.85449,1.61488,1.61488,0,0,1-.76856.46289,1.90447,1.90447,0,0,1-.9414.01074l-.56446-.123a1.79713,1.79713,0,0,1-.78027-.35938,1.3319,1.3319,0,0,1-.42969-.6084,1.35058,1.35058,0,0,1-.03613-.72754l.41016-1.88867a.13573.13573,0,0,1,.0664-.09472.15924.15924,0,0,1,.11817-.01661l.61523.13282a.149.149,0,0,1,.09668.06445.14471.14471,0,0,1,.01855.11328l-.2998,1.40918a.56036.56036,0,0,0,.499-.14551,1.22732,1.22732,0,0,0,.26172-.58594l.11719-.53906a.15315.15315,0,0,1,.06836-.10449.1511.1511,0,0,1,.11816-.02051l.6084.13281a.13741.13741,0,0,1,.09375.06836.16451.16451,0,0,1,.01953.1211l-.12011.55078a1.56167,1.56167,0,0,1-.57422.98047,1.48553,1.48553,0,0,1-1.07618.23828.75121.75121,0,0,0,.23243.35156.84824.84824,0,0,0,.38574.18945l.13476.0293a1.2037,1.2037,0,0,0,.56641-.00586.974.974,0,0,0,.4502-.25976.922.922,0,0,0,.23925-.458L51.8107,70.172a.1402.1402,0,0,1,.06348-.0957.14592.14592,0,0,1,.11523-.01758l.61524.13379A.14439.14439,0,0,1,52.70133,70.256Z"/><path class="u" d="M54.6525,74.09579a.14787.14787,0,0,1-.11817.02051l-1.88183-.4082a.16548.16548,0,0,1-.10059-.06446.145.145,0,0,1-.0205-.11621l.10937-.50293a.14252.14252,0,0,1,.06641-.09668.15949.15949,0,0,1,.11816-.01758l.97363.21094.19825-1.166a1.07263,1.07263,0,0,0-.01075-.51758.41273.41273,0,0,0-.331-.23145l-.29883-.06543a.15353.15353,0,0,1-.11426-.17773l.10645-.49219a.15294.15294,0,0,1,.06543-.09961.13323.13323,0,0,1,.11426-.02148l.3164.06836a1.57115,1.57115,0,0,1,1.042.58886,1.63453,1.63453,0,0,1,.1377,1.18946l-.31152,1.80468A.12282.12282,0,0,1,54.6525,74.09579Z"/><path class="u" d="M58.3898,74.82431a.12628.12628,0,0,1-.05371.07812.11933.11933,0,0,1-.09668.01856l-.71972-.15625a.2061.2061,0,0,1-.14746-.08985c-.02344-.04394-.03516-.06836-.03907-.07324l-.7041-1.70605a.68232.68232,0,0,0-.26953.27832,1.652,1.652,0,0,0-.13086.377l-.15918.7334a.1564.1564,0,0,1-.06836.10449.14717.14717,0,0,1-.11816.02051l-.5752-.125a.13684.13684,0,0,1-.09179-.06836.16451.16451,0,0,1-.01954-.1211l.15821-.72753a2.099,2.099,0,0,1,.31054-.78028,1.53475,1.53475,0,0,1,.6377-.47558l-.41211-.99121a.124.124,0,0,1-.01074-.0879.11632.11632,0,0,1,.05664-.07714.11916.11916,0,0,1,.09277-.01954l.69141.1504a.195.195,0,0,1,.11816.0625.436.436,0,0,1,.06543.1123l.65332,1.542a.53163.53163,0,0,0,.26563-.21386,1.21564,1.21564,0,0,0,.11523-.32422l.15528-.71485a.16217.16217,0,0,1,.0664-.10547.14082.14082,0,0,1,.11426-.02148l.61523.13379a.14825.14825,0,0,1,.09961.07031.16449.16449,0,0,1,.01953.12109l-.16015.73829a1.59642,1.59642,0,0,1-.29785.65136,1.43024,1.43024,0,0,1-.66309.43555l.49707,1.165A.14949.14949,0,0,1,58.3898,74.82431Z"/><path class="u" d="M58.92105,75.02353a.14242.14242,0,0,1-.0205-.11329l.10937-.50293a.13835.13835,0,0,1,.06543-.09668.1553.1553,0,0,1,.11133-.01953l1.47265.32032.23536-1.084a.59988.59988,0,0,0-.51953-.80664l-.75-.16211a.143.143,0,0,1-.09571-.06836.1563.1563,0,0,1-.01758-.11719l.10938-.50488a.13657.13657,0,0,1,.06641-.09472A.15216.15216,0,0,1,59.8,71.754l.7793.16993a1.95061,1.95061,0,0,1,1.16406.61425,1.40165,1.40165,0,0,1,.17676,1.21192l-.23535,1.084.206.044a.1504.1504,0,0,1,.0957.06445.14585.14585,0,0,1,.01758.11524l-.10937.50292a.14726.14726,0,0,1-.0625.09473.13761.13761,0,0,1-.11426.02051l-2.7041-.58691A.14633.14633,0,0,1,58.92105,75.02353Z"/><path class="u" d="M66.33414,73.55673a1.63192,1.63192,0,0,1,.09375,1.17773,1.76645,1.76645,0,0,1-.70508,1.124,2.39161,2.39161,0,0,1-1.24512.42285l-.25683.01855a.1162.1162,0,0,1-.09961-.06543.17128.17128,0,0,1-.02442-.12695l.12891-.59375a.16685.16685,0,0,1,.06445-.09766.28387.28387,0,0,1,.124-.05664l.20215-.03613a.95885.95885,0,0,0,.49414-.22168.9987.9987,0,0,0,.28418-.56055.81021.81021,0,0,0-.01758-.54492.64031.64031,0,0,0-.44727-.25l-.13574-.03027-.0166-.00293-.78613-.17774a.14247.14247,0,0,1-.11329-.17773l.294-1.35449a.13764.13764,0,0,1,.06641-.09571.14758.14758,0,0,1,.11035-.01855l.63379.13672a.14492.14492,0,0,1,.11621.17871l-.14551.66894.36328.07911A1.46059,1.46059,0,0,1,66.33414,73.55673Z"/><path class="u" d="M66.64273,76.70321a.14314.14314,0,0,1-.02148-.11718l.66308-3.05469a.13313.13313,0,0,1,.06739-.09375.1519.1519,0,0,1,.11719-.01758l.73242.1582a.15356.15356,0,0,1,.09765.06446.14884.14884,0,0,1,.01856.11328l-.66309,3.05468a.15637.15637,0,0,1-.06347.09473.1427.1427,0,0,1-.11622.02051l-.73242-.1582A.16052.16052,0,0,1,66.64273,76.70321Z"/><path class="u" d="M69.58121,74.97079c-.02539.16211.001.2666.08008.31152l.15137.09473a.14969.14969,0,0,1,.05957.083.25058.25058,0,0,1,.001.11426l-.05859.30078a.1554.1554,0,0,1-.10938.12012.29458.29458,0,0,1-.19824-.00293l-.23242-.0879a.76332.76332,0,0,1-.43359-.43359,1.19131,1.19131,0,0,1-.04688-.74414l.17969-.82812a.19648.19648,0,0,1,.07226-.09375.12593.12593,0,0,1,.1045-.01954l1.18457.25684a1.55316,1.55316,0,0,1,1.06054.64355,1.70275,1.70275,0,0,1,.17285,1.20215c-.0039.04-.01464.09473-.02929.165a1.90093,1.90093,0,0,1-.64356,1.15332,1.51409,1.51409,0,0,1-1.28711.1836l-1.11328-.24219a.1574.1574,0,0,1-.10058-.06445.14848.14848,0,0,1-.02149-.11622l.11719-.53906a.156.156,0,0,1,.06836-.09863.16048.16048,0,0,1,.11816-.02051l1.085.23633a.7197.7197,0,0,0,.52735-.06738.69691.69691,0,0,0,.31445-.44434c.01172-.03711.02637-.0957.044-.17383a1.72069,1.72069,0,0,0,.03027-.17187.67534.67534,0,0,0-.0957-.53223.72488.72488,0,0,0-.457-.28223l-.499-.10742Z"/><path class="u" d="M72.08023,76.42782a.13942.13942,0,0,1-.02148-.11523l.3623-1.666a.133.133,0,0,1,.06641-.09472.15607.15607,0,0,1,.11719-.01661l.7334.15821a.14506.14506,0,0,1,.11425.17773l-.3623,1.666a.14763.14763,0,0,1-.0625.09375.14082.14082,0,0,1-.11426.02148l-.7334-.16015A.15293.15293,0,0,1,72.08023,76.42782Z"/><path class="u" d="M73.87418,77.9786a1.44005,1.44005,0,0,1-.17383-1.168l.3916-1.80078a.13377.13377,0,0,1,.06641-.09472.14252.14252,0,0,1,.11035-.01856l.61035.13184a.15663.15663,0,0,1,.09961.06445.13728.13728,0,0,1,.02149.11426l-.38477,1.77148a.62042.62042,0,0,0,.085.53125.81152.81152,0,0,0,.49512.27735.588.588,0,0,0,.79883-.48438,1.5739,1.5739,0,0,0,.03711-.1582c.01269-.06641.02246-.11719.03027-.15234l.02734-.12891a1.08783,1.08783,0,0,0,.001-.53809.34331.34331,0,0,0-.2666-.24414.69791.69791,0,0,0-.17774-.01465.53855.53855,0,0,0-.16211.02735.31321.31321,0,0,1-.05566-.001.12844.12844,0,0,1-.083-.05762.14218.14218,0,0,1-.01758-.10449l.10059-.46387a.23528.23528,0,0,1,.15918-.19238,1.125,1.125,0,0,1,.58691.00977,1.16575,1.16575,0,0,1,.85157.53711,1.709,1.709,0,0,1,.06347,1.10547l-.09277.42773-.041.1875a1.43088,1.43088,0,0,1-1.9414,1.083A1.77645,1.77645,0,0,1,73.87418,77.9786Z"/><path class="u" d="M44.67008,81.14462a.14535.14535,0,0,1-.01367-.10449l.71875-3.30762-1.1504.543a.12518.12518,0,0,1-.0957.01562.12689.12689,0,0,1-.08594-.08007l-.10254-.21192a.14867.14867,0,0,1-.01074-.08789.12682.12682,0,0,1,.08106-.09277l1.48633-.709a.2798.2798,0,0,1,.16113-.00781l.27637.05957a.13276.13276,0,0,1,.08691.05859.13137.13137,0,0,1,.01855.10645l-.833,3.834a.1264.1264,0,0,1-.05957.08789.13761.13761,0,0,1-.1045.01758l-.28711-.0625A.12621.12621,0,0,1,44.67008,81.14462Z"/><path class="u" d="M46.58805,81.49813a1.27594,1.27594,0,0,1-.40235-.52246,1.0662,1.0662,0,0,1-.06152-.58691l.00293-.01074a.0946.0946,0,0,1,.05078-.06934.12619.12619,0,0,1,.08887-.01172l.28711.0625a.15566.15566,0,0,1,.12988.16309.82142.82142,0,0,0,.22266.543,1.01465,1.01465,0,0,0,.51464.27441.96.96,0,0,0,.71485-.09961.89076.89076,0,0,0,.41113-.61426.8075.8075,0,0,0-.12988-.68164,1.106,1.106,0,0,0-.96289-.39746,1.26376,1.26376,0,0,0-.29688.09668.98727.98727,0,0,1-.14355.05762.24209.24209,0,0,1-.11524.00195l-.28125-.06054a.141.141,0,0,1-.08593-.0586.10656.10656,0,0,1-.01563-.09863l.60645-1.91211c.03222-.09668.09179-.13477.17773-.11621l2.0293.44141a.13315.13315,0,0,1,.09179.05664.13545.13545,0,0,1,.01368.10742l-.04688.21679a.12044.12044,0,0,1-.05957.085.13325.13325,0,0,1-.10352.01464l-1.68847-.36621L47.175,79.16806a1.3127,1.3127,0,0,1,.7998-.03516,1.64511,1.64511,0,0,1,.68067.31152,1.25249,1.25249,0,0,1,.415.56543,1.32421,1.32421,0,0,1,.03613.75,1.44711,1.44711,0,0,1-.35254.707,1.25,1.25,0,0,1-.63086.35938,1.81571,1.81571,0,0,1-.80664-.00586A1.77767,1.77767,0,0,1,46.58805,81.49813Z"/><path class="u" d="M49.54312,82.20224a.141.141,0,0,1-.01562-.1045l.08594-.39257a.14544.14544,0,0,1,.05761-.09473.12159.12159,0,0,1,.10157-.01758l.40527.08789a.13707.13707,0,0,1,.09375.06055.13991.13991,0,0,1,.0166.11035l-.08594.39258a.12588.12588,0,0,1-.06152.08789.1442.1442,0,0,1-.1084.0166l-.40527-.08789A.12233.12233,0,0,1,49.54312,82.20224Zm.44532-2.05176a.13871.13871,0,0,1-.01465-.10547l.085-.39063a.15356.15356,0,0,1,.05859-.09667.12592.12592,0,0,1,.10059-.01758l.40527.08789a.14488.14488,0,0,1,.09473.06054.15041.15041,0,0,1,.01562.11231l-.085.39062a.13188.13188,0,0,1-.0625.08887.14625.14625,0,0,1-.10742.0166l-.40527-.08789A.12728.12728,0,0,1,49.98844,80.15048Z"/><path class="u" d="M51.40933,82.24618a1.96653,1.96653,0,0,1-.12109-1.23926l.10352-.50488.11914-.52148a1.90931,1.90931,0,0,1,.62207-1.07032,1.64526,1.64526,0,0,1,2.21679.48047,1.89767,1.89767,0,0,1,.12207,1.23242c-.01953.11133-.05566.28516-.10742.52344q-.0747.3457-.11523.50293a1.96873,1.96873,0,0,1-.623,1.07715,1.64866,1.64866,0,0,1-2.2168-.48047Zm1.85938.043a1.44527,1.44527,0,0,0,.4248-.791q.041-.16845.11036-.48632c.04687-.21485.0791-.375.09961-.48047a1.43372,1.43372,0,0,0-.06153-.89453.82024.82024,0,0,0-.61035-.44922.81013.81013,0,0,0-.74023.15625,1.44375,1.44375,0,0,0-.42383.78906l-.11035.47852-.09961.48828a1.43926,1.43926,0,0,0,.05761.89648.93621.93621,0,0,0,1.35352.293Z"/><path class="u" d="M55.11441,83.05087a1.987,1.987,0,0,1-.12109-1.23926l.10351-.50586.11915-.52051a1.91486,1.91486,0,0,1,.62207-1.07031,1.64568,1.64568,0,0,1,2.21875.48047,1.90428,1.90428,0,0,1,.12109,1.23242c-.01953.11133-.05566.28516-.10742.52344-.04981.22949-.08789.39844-.11524.50293a1.97458,1.97458,0,0,1-.623,1.07715,1.64959,1.64959,0,0,1-2.21778-.48047Zm1.86035.043a1.45076,1.45076,0,0,0,.42383-.791q.04248-.16845.11133-.48633c.04688-.21484.08008-.375.09863-.48046a1.44138,1.44138,0,0,0-.06054-.89454.92836.92836,0,0,0-1.35157-.29394,1.44891,1.44891,0,0,0-.42285.79l-.11035.47851-.09961.48828a1.4439,1.4439,0,0,0,.05664.89551.93826.93826,0,0,0,1.35449.29395Z"/><path class="u" d="M58.77066,82.61337a.12386.12386,0,0,1-.01758-.10254l.0459-.21094a.13932.13932,0,0,1,.0586-.08886.13554.13554,0,0,1,.10547-.01661l1.75878.38184a.137.137,0,0,1,.08887.05957.13277.13277,0,0,1,.01758.10449l-.0459.21094a.13176.13176,0,0,1-.05859.08594.14381.14381,0,0,1-.10547.01367L58.85953,82.669A.14361.14361,0,0,1,58.77066,82.61337Z"/><path class="u" d="M62.13687,84.93661a.14788.14788,0,0,1-.01367-.10351l.71875-3.30762-1.15039.543a.13268.13268,0,0,1-.09473.01562.13077.13077,0,0,1-.08691-.08008l-.10254-.21289a.14866.14866,0,0,1-.01074-.08789.12813.12813,0,0,1,.082-.09277l1.48535-.709a.30043.30043,0,0,1,.16211-.00782l.27539.05957a.14322.14322,0,0,1,.08887.05957.13627.13627,0,0,1,.0166.10547l-.833,3.834a.13017.13017,0,0,1-.05859.08886.13632.13632,0,0,1-.10547.01661l-.28711-.06153A.12649.12649,0,0,1,62.13687,84.93661Z"/><path class="u" d="M63.89371,85.31845a.13987.13987,0,0,1-.0127-.09766l.02344-.05078,2.21094-3.1123-1.93555-.41993a.13355.13355,0,0,1-.08886-.05957.12969.12969,0,0,1-.01758-.10351l.04785-.2168a.15328.15328,0,0,1,.05664-.0957.13921.13921,0,0,1,.1084-.0166l2.39258.51953a.13184.13184,0,0,1,.09082.05957.15175.15175,0,0,1,.01464.11133l-.04394.19921a.63055.63055,0,0,1-.09766.2168l-2.18359,3.07617a.43508.43508,0,0,1-.08789.09082.12779.12779,0,0,1-.1084.01953l-.293-.06347A.10674.10674,0,0,1,63.89371,85.31845Z"/><path class="u" d="M66.52848,85.89071a.14623.14623,0,0,1-.01465-.10449l.08593-.39258a.14577.14577,0,0,1,.05665-.09472.12441.12441,0,0,1,.10253-.01758l.4043.08789a.13915.13915,0,0,1,.09473.06055.14406.14406,0,0,1,.0166.11035l-.08594.39258a.12882.12882,0,0,1-.06152.08789.15063.15063,0,0,1-.10938.0166l-.40429-.08789A.12639.12639,0,0,1,66.52848,85.89071Zm.44531-2.05175a.14314.14314,0,0,1-.01367-.10547l.085-.39161a.15436.15436,0,0,1,.05761-.0957.12518.12518,0,0,1,.10157-.01758l.40429.08789a.14709.14709,0,0,1,.09571.06055.15178.15178,0,0,1,.01562.11133l-.085.3916a.13506.13506,0,0,1-.0625.08887.14781.14781,0,0,1-.1084.01562l-.40429-.08789A.12725.12725,0,0,1,66.97379,83.839Z"/><path class="u" d="M68.39566,85.93368a1.97143,1.97143,0,0,1-.12207-1.23926l.10449-.50488.11817-.52148a1.91707,1.91707,0,0,1,.623-1.07032,1.6448,1.6448,0,0,1,2.21679.48145,1.897,1.897,0,0,1,.12207,1.23242q-.0293.16553-.10742.52344-.0747.34423-.11523.50293a1.97228,1.97228,0,0,1-.62305,1.07715,1.64655,1.64655,0,0,1-2.2168-.48145Zm1.85938.044a1.45048,1.45048,0,0,0,.42383-.792q.04248-.167.11132-.48535c.04688-.21484.07911-.376.09864-.48144a1.44279,1.44279,0,0,0-.06055-.89453.929.929,0,0,0-1.35156-.293,1.44921,1.44921,0,0,0-.42285.78906l-.11036.47852-.0996.48828a1.447,1.447,0,0,0,.05664.89648.93828.93828,0,0,0,1.35449.294Z"/><path class="u" d="M72.10074,86.73837a1.98526,1.98526,0,0,1-.12109-1.23926l.10351-.50488.11914-.52149a1.9183,1.9183,0,0,1,.62207-1.07031,1.64427,1.64427,0,0,1,2.2168.48145,1.88449,1.88449,0,0,1,.12207,1.23242q-.0293.16553-.10742.52344-.07471.34423-.11524.50293a1.96636,1.96636,0,0,1-.623,1.07714,1.64763,1.64763,0,0,1-2.2168-.48144Zm1.86035.04394a1.45028,1.45028,0,0,0,.42383-.792c.02832-.1123.06543-.27344.11133-.48535.04687-.21484.08008-.376.09863-.48144a1.44275,1.44275,0,0,0-.06055-.89454.82093.82093,0,0,0-.61132-.44824.81269.81269,0,0,0-.74024.15528,1.443,1.443,0,0,0-.42285.78906l-.11035.47851-.09961.48828a1.44,1.44,0,0,0,.05664.89649.93827.93827,0,0,0,1.35449.29394Z"/></svg>