<svg xmlns="http://www.w3.org/2000/svg" viewBox="0 0 46.88527 16.03734"><defs><style>.a{fill:#fcfcfc;stroke:#2d2a28;stroke-miterlimit:10;stroke-width:0.75px;}.b{fill:#2d2a28;}</style></defs><rect class="a" x="0.375" y="0.375" width="46.13527" height="15.28734" rx="7.64366"/><path class="b" d="M17.1542,5.77186a2.21752,2.21752,0,0,1,.666,1.77783V10.434a.23789.23789,0,0,1-.06738.168.22654.22654,0,0,1-.17285.07177H16.44912a.2497.2497,0,0,1-.17676-.06689.22693.22693,0,0,1-.07226-.17285V7.59754a.961.961,0,0,0-1.083-1.09228H14.495A5.82524,5.82524,0,0,0,14.35049,7.914l.07715,2.52a.22694.22694,0,0,1-.07227.17285.2497.2497,0,0,1-.17676.06689L12.14639,10.664a.24757.24757,0,0,1-.17676-.0669.22514.22514,0,0,1-.07227-.17236V9.66736a.22588.22588,0,0,1,.07227-.17236.24968.24968,0,0,1,.17676-.06689h.77636V7.92322a5.19142,5.19142,0,0,1,.14356-1.418h-.56543a.248.248,0,0,1-.17676-.06739.22514.22514,0,0,1-.07227-.17236V5.44129a.22514.22514,0,0,1,.07227-.17236.248.248,0,0,1,.17676-.06739h2.67383A2.97715,2.97715,0,0,1,17.1542,5.77186Z"/><path class="b" d="M18.97451,10.60682a.22693.22693,0,0,1-.07226-.17285V5.44129a.22514.22514,0,0,1,.07226-.17236.248.248,0,0,1,.17676-.06739h1.19824a.23067.23067,0,0,1,.23926.23975V10.434a.23789.23789,0,0,1-.06738.168.223.223,0,0,1-.17188.07177H19.15127A.2497.2497,0,0,1,18.97451,10.60682Z"/><path class="b" d="M26.12783,5.26893a.23212.23212,0,0,1,.06738.17236v.82422a.23673.23673,0,0,1-.06738.16748.22694.22694,0,0,1-.17285.07227h-.44043a1.46351,1.46351,0,0,0-.17773.48828,3.47275,3.47275,0,0,0-.06153.68066v2.78858a.17745.17745,0,0,1-.09179.14843.32375.32375,0,0,1-.18653.0625H23.87588a.20507.20507,0,0,1-.15332-.05761.20774.20774,0,0,1-.05762-.15332v-2.894a2.06545,2.06545,0,0,1,.19141-1.06347H21.67178a.2453.2453,0,0,1-.23926-.23975V5.44129a.22437.22437,0,0,1,.07129-.17236.237.237,0,0,1,.168-.06739H25.955A.234.234,0,0,1,26.12783,5.26893Z"/><path class="b" d="M27.13955,10.60682a.22694.22694,0,0,1-.07227-.17285V5.44129a.22514.22514,0,0,1,.07227-.17236.248.248,0,0,1,.17676-.06739h1.19824a.23068.23068,0,0,1,.23926.23975V10.434a.23786.23786,0,0,1-.06739.168.223.223,0,0,1-.17187.07177H27.31631A.2497.2497,0,0,1,27.13955,10.60682Z"/><path class="b" d="M35.00185,10.47254a.19607.19607,0,0,1-.05761.13867.18519.18519,0,0,1-.14356.0625H33.622a.32235.32235,0,0,1-.25879-.09082c-.05078-.061-.08008-.09424-.08593-.10107L31.60049,8.0575a1.06949,1.06949,0,0,0-.32617.52686,2.49679,2.49679,0,0,0-.07715.63281v1.19775a.25291.25291,0,0,1-.07129.187.24191.24191,0,0,1-.17774.07177h-.93847a.22217.22217,0,0,1-.168-.07666.25815.25815,0,0,1-.07227-.18213V9.22645a3.34686,3.34686,0,0,1,.22071-1.32227,2.43929,2.43929,0,0,1,.834-.95849L29.84658,5.537a.20083.20083,0,0,1-.04785-.13379.21268.21268,0,0,1,.20117-.20166h1.13086a.32558.32558,0,0,1,.20606.05762.75583.75583,0,0,1,.13867.15332l1.543,2.18506a.84639.84639,0,0,0,.33984-.42187,1.84171,1.84171,0,0,0,.07227-.5459V5.46033a.26123.26123,0,0,1,.06738-.18652.22169.22169,0,0,1,.17187-.07227h1.00684a.23475.23475,0,0,1,.17676.07666.25816.25816,0,0,1,.07226.18213V6.66785a2.51976,2.51976,0,0,1-.24511,1.1167,2.28625,2.28625,0,0,1-.88575.90528l1.16895,1.64843A.23789.23789,0,0,1,35.00185,10.47254Z"/></svg>