<svg xmlns="http://www.w3.org/2000/svg" viewBox="0 0 46.88527 16.03734"><defs><style>.a{fill:#2d2a28;stroke:#fff;stroke-miterlimit:10;stroke-width:0.75px;}.b{fill:#fff;}</style></defs><rect class="a" x="0.375" y="0.375" width="46.13527" height="15.28734" rx="7.64366"/><path class="b" d="M17.15369,5.772a2.21754,2.21754,0,0,1,.666,1.77783v2.88428a.23786.23786,0,0,1-.06738.168.22655.22655,0,0,1-.17285.07178H16.44862a.24964.24964,0,0,1-.17676-.0669.22694.22694,0,0,1-.07227-.17285V7.59766a.961.961,0,0,0-1.083-1.09229h-.62208A5.8258,5.8258,0,0,0,14.35,7.91406l.07715,2.52a.22693.22693,0,0,1-.07226.17285.24968.24968,0,0,1-.17676.0669l-2.03223-.00977a.2476.2476,0,0,1-.17676-.06689.22516.22516,0,0,1-.07226-.17237V9.66748a.22587.22587,0,0,1,.07226-.17236.24968.24968,0,0,1,.17676-.0669h.77637V7.92334a5.19151,5.19151,0,0,1,.14355-1.418h-.56543a.248.248,0,0,1-.17675-.06738.22513.22513,0,0,1-.07227-.17237V5.44141a.22513.22513,0,0,1,.07227-.17237.248.248,0,0,1,.17675-.06738H15.1742A2.97719,2.97719,0,0,1,17.15369,5.772Z"/><path class="b" d="M18.974,10.60693a.22694.22694,0,0,1-.07227-.17285V5.44141A.22517.22517,0,0,1,18.974,5.269a.248.248,0,0,1,.17675-.06738H20.349a.23065.23065,0,0,1,.23925.23975v4.99267a.23786.23786,0,0,1-.06738.168.223.223,0,0,1-.17187.07178H19.15076A.24964.24964,0,0,1,18.974,10.60693Z"/><path class="b" d="M26.12733,5.269a.23214.23214,0,0,1,.06738.17237v.82421a.23676.23676,0,0,1-.06738.16749.22693.22693,0,0,1-.17285.07226h-.44043a1.4635,1.4635,0,0,0-.17774.48828,3.47359,3.47359,0,0,0-.06152.68067v2.78857a.17748.17748,0,0,1-.0918.14844.32374.32374,0,0,1-.18652.0625h-1.1211a.20507.20507,0,0,1-.15332-.05762.20776.20776,0,0,1-.05761-.15332v-2.894a2.06554,2.06554,0,0,1,.1914-1.06348H21.67127a.24528.24528,0,0,1-.23926-.23975V5.44141A.22439.22439,0,0,1,21.5033,5.269a.23706.23706,0,0,1,.168-.06738h4.28321A.234.234,0,0,1,26.12733,5.269Z"/><path class="b" d="M27.13905,10.60693a.22691.22691,0,0,1-.07227-.17285V5.44141a.22513.22513,0,0,1,.07227-.17237.248.248,0,0,1,.17675-.06738h1.19825a.23065.23065,0,0,1,.23925.23975v4.99267a.23786.23786,0,0,1-.06738.168.223.223,0,0,1-.17187.07178H27.3158A.24964.24964,0,0,1,27.13905,10.60693Z"/><path class="b" d="M35.00135,10.47266a.19605.19605,0,0,1-.05762.13867.18516.18516,0,0,1-.14355.0625H33.62147a.32236.32236,0,0,1-.25879-.09082c-.05078-.061-.08008-.09424-.08594-.10108L31.6,8.05762a1.0695,1.0695,0,0,0-.32617.52685,2.49682,2.49682,0,0,0-.07715.63282V10.415a.25284.25284,0,0,1-.07129.187.24191.24191,0,0,1-.17773.07178h-.93848a.2222.2222,0,0,1-.168-.07666.25816.25816,0,0,1-.07226-.18213V9.22656a3.347,3.347,0,0,1,.2207-1.32226,2.43943,2.43943,0,0,1,.834-.9585l-.97754-1.40869a.20087.20087,0,0,1-.04785-.13379.21268.21268,0,0,1,.20117-.20166h1.13086a.32549.32549,0,0,1,.20605.05762.75529.75529,0,0,1,.13867.15332l1.543,2.18506a.84649.84649,0,0,0,.33985-.42188,1.84173,1.84173,0,0,0,.07226-.5459V5.46045a.26123.26123,0,0,1,.06738-.18652.22173.22173,0,0,1,.17188-.07227h1.00684a.23474.23474,0,0,1,.17675.07666.25817.25817,0,0,1,.07227.18213V6.668a2.51962,2.51962,0,0,1-.24512,1.1167,2.2862,2.2862,0,0,1-.88574.90527l1.16894,1.64844A.2378.2378,0,0,1,35.00135,10.47266Z"/></svg>