<svg xmlns="http://www.w3.org/2000/svg" viewBox="0 0 46.88527 16.03734"><defs><style>.a{fill:#b2b2b2;stroke:#2d2a28;stroke-miterlimit:10;stroke-width:0.75px;}.b{fill:#2d2a28;}</style></defs><rect class="a" x="0.375" y="0.375" width="46.13527" height="15.28734" rx="7.64366"/><path class="b" d="M17.15386,5.772a2.21754,2.21754,0,0,1,.666,1.77783v2.88428a.23787.23787,0,0,1-.06739.168.22655.22655,0,0,1-.17285.07178H16.44878a.24968.24968,0,0,1-.17676-.0669.22693.22693,0,0,1-.07226-.17285V7.59766a.961.961,0,0,0-1.083-1.09229h-.62207a5.8253,5.8253,0,0,0-.14453,1.40869l.07715,2.52a.22694.22694,0,0,1-.07227.17285.24964.24964,0,0,1-.17676.0669l-2.03222-.00977a.24757.24757,0,0,1-.17676-.06689.22517.22517,0,0,1-.07227-.17237V9.66748a.22588.22588,0,0,1,.07227-.17236.24964.24964,0,0,1,.17676-.0669h.77636V7.92334a5.1915,5.1915,0,0,1,.14356-1.418h-.56543a.248.248,0,0,1-.17676-.06738.22516.22516,0,0,1-.07226-.17237V5.44141a.22516.22516,0,0,1,.07226-.17237.248.248,0,0,1,.17676-.06738h2.67383A2.97721,2.97721,0,0,1,17.15386,5.772Z"/><path class="b" d="M18.97417,10.60693a.22693.22693,0,0,1-.07226-.17285V5.44141a.22516.22516,0,0,1,.07226-.17237.248.248,0,0,1,.17676-.06738h1.19824a.23065.23065,0,0,1,.23926.23975v4.99267a.23786.23786,0,0,1-.06738.168.223.223,0,0,1-.17188.07178H19.15093A.24966.24966,0,0,1,18.97417,10.60693Z"/><path class="b" d="M26.12749,5.269a.23215.23215,0,0,1,.06739.17237v.82421a.23677.23677,0,0,1-.06739.16749.22693.22693,0,0,1-.17285.07226h-.44043a1.46351,1.46351,0,0,0-.17773.48828,3.47278,3.47278,0,0,0-.06153.68067v2.78857a.17747.17747,0,0,1-.09179.14844.32375.32375,0,0,1-.18653.0625H23.87554a.20507.20507,0,0,1-.15332-.05762.20773.20773,0,0,1-.05762-.15332v-2.894A2.06552,2.06552,0,0,1,23.856,6.50537H21.67144a.24528.24528,0,0,1-.23926-.23975V5.44141a.22439.22439,0,0,1,.07129-.17237.237.237,0,0,1,.168-.06738h4.2832A.234.234,0,0,1,26.12749,5.269Z"/><path class="b" d="M27.13921,10.60693a.22693.22693,0,0,1-.07226-.17285V5.44141a.22516.22516,0,0,1,.07226-.17237.248.248,0,0,1,.17676-.06738h1.19824a.23065.23065,0,0,1,.23926.23975v4.99267a.23786.23786,0,0,1-.06738.168.223.223,0,0,1-.17188.07178H27.316A.24966.24966,0,0,1,27.13921,10.60693Z"/><path class="b" d="M35.00152,10.47266a.19609.19609,0,0,1-.05762.13867.18519.18519,0,0,1-.14356.0625H33.62163a.32239.32239,0,0,1-.25879-.09082c-.05078-.061-.08007-.09424-.08593-.10108L31.60015,8.05762a1.0695,1.0695,0,0,0-.32617.52685,2.49682,2.49682,0,0,0-.07715.63282V10.415a.25288.25288,0,0,1-.07129.187.24191.24191,0,0,1-.17773.07178h-.93848a.22218.22218,0,0,1-.168-.07666.25817.25817,0,0,1-.07227-.18213V9.22656A3.347,3.347,0,0,1,29.9898,7.9043a2.43931,2.43931,0,0,1,.834-.9585l-.97754-1.40869a.20092.20092,0,0,1-.04785-.13379.21268.21268,0,0,1,.20117-.20166h1.13086a.3255.3255,0,0,1,.20606.05762.75529.75529,0,0,1,.13867.15332l1.543,2.18506a.84641.84641,0,0,0,.33984-.42188,1.84171,1.84171,0,0,0,.07227-.5459V5.46045a.26123.26123,0,0,1,.06738-.18652.22171.22171,0,0,1,.17187-.07227h1.00684a.23475.23475,0,0,1,.17676.07666.25816.25816,0,0,1,.07226.18213V6.668a2.51976,2.51976,0,0,1-.24511,1.1167,2.28616,2.28616,0,0,1-.88575.90527l1.169,1.64844A.23788.23788,0,0,1,35.00152,10.47266Z"/></svg>