<svg xmlns="http://www.w3.org/2000/svg" viewBox="0 0 10.3998 9.91504"><defs><style>.a{fill:#2d2a28;}</style></defs><path class="a" d="M1.4776,8.83019a.62642.62642,0,0,1-.27929-.55761.66425.66425,0,0,1,.124-.37207c0-.02051.0625-.09278.18652-.2168L3.77057,5.60754.70319,5.26672l-.248-.06153A.548.548,0,0,1,.08307,4.88a.81714.81714,0,0,1-.06152-.543L.54792,2.75695a.5485.5485,0,0,1,.32519-.37109.74852.74852,0,0,1,.51172-.0625l.24805.124L4.29694,3.93469,3.70807.92883,3.67682.68176A.6731.6731,0,0,1,3.879.21691.63175.63175,0,0,1,4.35846.00012H6.03229a.63173.63173,0,0,1,.47949.21679.6731.6731,0,0,1,.20215.46485L6.68268.92883,6.03229,3.96594,8.75885,2.44738l.248-.124a.34436.34436,0,0,1,.1543-.03125.84711.84711,0,0,1,.44922.124.46527.46527,0,0,1,.23242.34082L10.3692,4.337l.03125.18652a.71774.71774,0,0,1-.13964.418.64662.64662,0,0,1-.3252.26367l-.24707.06153-3.09863.37207,2.293,2.04492c.124.124.18554.19629.18554.2168a.67188.67188,0,0,1,.124.37207.62431.62431,0,0,1-.2793.55761l-1.332.99121a.89517.89517,0,0,1-.40234.09278.6013.6013,0,0,1-.55762-.248l-.124-.2168L5.19538,6.59875,3.8946,9.44933a.84.84,0,0,1-.15528.2168.60445.60445,0,0,1-.55762.248.89632.89632,0,0,1-.40332-.09278Z"/></svg>