<svg xmlns="http://www.w3.org/2000/svg" viewBox="0 0 9.30877 13.26992"><defs><style>.a{fill:#eb2828;}.b{fill:#fef5f2;}.c{fill:#fef3f0;}.d{fill:#262d1a;}.e{fill:#ae322c;}.f{fill:#fef1ed;}.g{fill:#b34e40;}.h{fill:#ad2c27;}.i{fill:#fbe5dd;}.j{fill:#ec3b32;}.k{fill:#ee4b3f;}.l{fill:#b74e43;}.m{fill:#a52926;}.n{fill:#d39086;}.o{fill:#f8f0ed;}.p{fill:#e8c8c1;}.q{fill:#f6eae7;}.r{fill:#b04136;}.s{fill:#c06b5b;}.t{fill:#bc6354;}.u{fill:#eed6ce;}.v{fill:#ca7e71;}.w{fill:#b65749;}.x{fill:#e0b3a9;}.y{fill:#b85a4b;}.z{fill:#bb5e4f;}.aa{fill:#b55143;}.ab{fill:#b65446;}.ac{fill:#c67466;}</style></defs><path class="a" d="M.00677,0H9.30584V.15832c0,1.91247.00847,3.825-.00341,5.73741a8.13891,8.13891,0,0,1-.603,2.94,8.57993,8.57993,0,0,1-2.14374,3.12842A7.83216,7.83216,0,0,1,4.784,13.24867a.24758.24758,0,0,1-.20044.00011,8.682,8.682,0,0,1-2.017-1.525A8.78287,8.78287,0,0,1,.53073,8.449,8.84726,8.84726,0,0,1,.0244,6.04506C-.00824,5.52421.00278,5.00036.00193,4.47785Q-.00166,2.3016.00143.12537C.00143.08655.00465.04773.00677,0ZM2.75832,2.10979a.74933.74933,0,0,1-.12614.0475c-.07125.01354-.1443.01754-.21659.02557l-.24229.035-.0174.04417.51326.28139-.38075.24975a1.69433,1.69433,0,0,0,1.02451.05289,3.06138,3.06138,0,0,1,.9985-.10684c.2105.00379.42114-.00072.63167.0021a.80739.80739,0,0,1,.13817.02548l-.15864.04922-.05356-.00027-.02612.0008a.02968.02968,0,0,1-.02262.00716l-.01064.05081.00009.10625-.00825.00741.00824.01859-.00066.52844-.01573.05859-.05791.12234-.0522-.0982V2.83123H4.36678V3.4839c-.09536-.0088-.19069-.0248-.2861-.02523q-.82-.00369-1.64.00075a.3253.3253,0,0,0-.10851.04451l-.23729.26324c-.013.04043-.026.08086-.03921.1209l-.09923.04858V8.33611c.06016,0,.10724.00114.15424-.00019q.46034-.01307.92064-.02721.67013-.0217,1.34019-.04519V9.61968h.31043l0-1.36127.13726.00107V9.63987l.31571-.03681.00967-.00731-.00881-.0201-.001-.36828.05907-.00482a1.60476,1.60476,0,0,0,.305-.91956L5.528,8.27622l1.94444.06251v-4.42L7.35062,3.899l.01255-.13087-.112-.04209L7.26634,3.708l-.12321-.1413-.01992-.111h-1.252a6.15458,6.15458,0,0,0-.10243-.71185.50013.50013,0,0,0-.54167-.387C4.80554,2.34769,4.384,2.33426,3.96259,2.319a.746.746,0,0,1-.44777-.12218,1.00553,1.00553,0,0,0-.25264-.09914l-.05469.09156-.05842-.10345-.20291-.08651V2.2627l.023.01725.05288-.0025.02614.0425-.18332.0001.024-.05581V2.0096ZM7.22274,9.84546,7.214,9.83692a.74967.74967,0,0,0-.20846-.5841.64586.64586,0,0,0-.16787.74672.4959.4959,0,0,0,.18479.243.611.611,0,0,0,.78889-.52265A.64684.64684,0,0,0,7.22274,9.84546Zm-3.672,1.682a.63642.63642,0,0,0-.64166.0755,2.328,2.328,0,0,0,.32795.28777.55584.55584,0,0,0,.64736-.07535.68184.68184,0,0,0-.27354-.92464L3.596,10.88292a.78116.78116,0,0,0-.06622.20733c-.00434.14622.01151.29305.01906.43963Zm1.61125.68178-.00287-.07222a.86357.86357,0,0,0-.19939-.85547l.116-.0578V10.9889l-.29126.07843-.14727-.19392.43987-.13242v-.24327l-.5962.16817L4.292,10.18264l-.44955-.18593a1.60348,1.60348,0,0,0,.60573,1.161v.25213l.26649-.06654.16261.18833-.42842.12834v.2447l.55224-.1565.07321.20893-.75367.25252v.1967h.89252Zm.72524-1.32082a.69069.69069,0,0,0-.32269.69337.35963.35963,0,0,0,.17321.32037.60776.60776,0,0,0,.84584-.33623.63241.63241,0,0,0-.60879-.032c.054-.34709.03816-.4673-.0876-.64548ZM8.39506,7.13a.71221.71221,0,0,0-.34959-.54589.69559.69559,0,0,0,.17729.93488.21143.21143,0,0,0,.08251.03625.63821.63821,0,0,0,.63033-.74508A.67314.67314,0,0,0,8.395,7.13ZM.19316,1.63639a.67247.67247,0,0,0,.48536.8811.64734.64734,0,0,0,.42895-.87767.69879.69879,0,0,0-.44339.43841C.53216,1.80141.39947,1.67693.19316,1.63639ZM1.338,6.64082A.75913.75913,0,0,0,1.00292,7.2C.78819,6.96455.632,6.888.44685,6.92112a.63784.63784,0,0,0,.57.69911h0l.01747.00153a.284.284,0,0,0,.1695-.04759A.69826.69826,0,0,0,1.338,6.64082Zm5.32146,4.0713a.7531.7531,0,0,0-.18838-.61833.68879.68879,0,0,0-.05555.97251l.00416.00463a.20348.20348,0,0,0,.07043.03281.62369.62369,0,0,0,.77966-.519.63526.63526,0,0,0-.61033.12739ZM8.17887,3.54626a.67019.67019,0,0,0,.4161.85155h0l.00821.00277a.168.168,0,0,0,.06452.00148.67042.67042,0,0,0,.44576-.8368v0q-.00943-.031-.02184-.06092a.72193.72193,0,0,0-.44609.46736.68525.68525,0,0,0-.46669-.42543ZM1.11872,4.61674a.71354.71354,0,0,0-.45647.44349.687.687,0,0,0-.466-.45131.67542.67542,0,0,0,.40592.86437.22936.22936,0,0,0,.1267.00787.67038.67038,0,0,0,.39-.86413Zm.51143,2.97765a.73254.73254,0,0,0-.28112.588.63413.63413,0,0,0-.57916-.25262.63169.63169,0,0,0,.498.64281.45191.45191,0,0,0,.26672-.01824.67565.67565,0,0,0,.10382-.94988h0ZM.197,3.60209A.67874.67874,0,0,0,.48393,4.413a.38961.38961,0,0,0,.2326.06225.65509.65509,0,0,0,.4115-.83h0L1.11662,3.614A.70021.70021,0,0,0,.661,4.05516a.68719.68719,0,0,0-.464-.45307Zm7.99822.95367a.65441.65441,0,0,0,.02429.46611.45728.45728,0,0,0,.89981.0072.65172.65172,0,0,0,.01021-.523.72144.72144,0,0,0-.45093.46247.692.692,0,0,0-.48338-.41281Zm-5.35092,6.167a.63867.63867,0,0,0-.61035-.10451.61756.61756,0,0,0,.80329.48824.19568.19568,0,0,0,.06583-.03963.68973.68973,0,0,0-.08648-.96533A.74567.74567,0,0,0,2.84431,10.72277ZM.19824,2.54994a.67025.67025,0,0,0,.25442.79049A.43355.43355,0,0,0,.71883,3.422a.64726.64726,0,0,0,.41006-.81838l-.00827-.02336c-.19252.032-.304.13118-.46212.41529A.70914.70914,0,0,0,.19824,2.54994Zm7.287,5.82114a.6998.6998,0,0,0-.0481.95561.207.207,0,0,0,.08512.05674.62541.62541,0,0,0,.77441-.53987.63463.63463,0,0,0-.60691.14891A.74066.74066,0,0,0,7.48521,8.37108Zm.27879-.83a.67558.67558,0,0,0-.05289.71759.51293.51293,0,0,0,.24377.25518c.34215.09994.74553-.29143.69483-.68546a1.57676,1.57676,0,0,0-.29666.07457,1.79947,1.79947,0,0,0-.26374.1803C7.97526,7.71252,7.94036,7.65244,7.764,7.54106ZM1.12794,5.73652A.70835.70835,0,0,0,.7165,6.223.66578.66578,0,0,0,.21331,5.8358a.64545.64545,0,0,0,.376.7667.38291.38291,0,0,0,.22565.03312.661.661,0,0,0,.32378-.87688ZM8.11949,1.576a.67049.67049,0,0,0,.41254.846.20516.20516,0,0,0,.10231-.00078.67192.67192,0,0,0,.41592-.85437l-.01377-.03643a.71687.71687,0,0,0-.44572.46374A.69561.69561,0,0,0,8.1195,1.576Zm-6.965,7.33374a.61483.61483,0,0,0,.68591.53438h0l.01013-.00134a.3205.3205,0,0,0,.18222-.08646A.69038.69038,0,0,0,1.94892,8.413a.76.76,0,0,0-.18815.623A.6595.6595,0,0,0,1.15452,8.90969Zm.50339.86142a.63247.63247,0,0,0,.41069.49979.46352.46352,0,0,0,.44342-.0258.67636.67636,0,0,0-.04619-.9554h0l-.01268-.01122a.76363.76363,0,0,0-.18455.62039.61854.61854,0,0,0-.61069-.12775Zm7.40446-7.312a.72453.72453,0,0,0-.44478.4482c-.15921-.27157-.3023-.38544-.48119-.38957a.672.672,0,0,0,.38382.81165.24867.24867,0,0,0,.12725.01716.66405.66405,0,0,0,.43487-.83236Q9.07358,2.48626,9.06237,2.45915ZM8.65583,6.14322c-.11179-.28052-.23534-.41286-.42549-.46531a.66205.66205,0,0,0,.32646.87751l.01439.00638a.208.208,0,0,0,.10256.00042.66052.66052,0,0,0,.48454-.79863v0l-.00764-.02845A.67929.67929,0,0,0,8.65583,6.14322ZM4.68213.68312A2.12892,2.12892,0,0,0,4.372,2.19774h.31017Zm.44855,1.52026A2.12755,2.12755,0,0,0,4.8257.69533V2.20338ZM.65716.54508a.65743.65743,0,0,0,.00926.98656A.69679.69679,0,0,0,.65836.54626v0Zm7.92193.91062A.67159.67159,0,0,0,8.5864.506Q8.56722.4865,8.5465.46863a.6908.6908,0,0,0,.02153.97671ZM4.30716,9.15186a.928.928,0,0,0-.45746.71279l.45746-.27035ZM2.01177,2.659l.49211-.10822L1.76908,2.493c0,.06741.0208.14412-.00616.196-.02435.04686-.10094.06656-.15178.09664.16112.1078.26727.07711.40063-.12668ZM5.33646,9.99577H4.16369a.46392.46392,0,0,0,.3777.10072,1.53646,1.53646,0,0,1,.41634-.00024.46421.46421,0,0,0,.37873-.1005Zm-.89185.44093.64947-.18862L5.083,10.19864h-.6384Zm.87011-.59783.00739-.05653c-.11552-.01416-.23071-.03511-.34665-.0409a5.10555,5.10555,0,0,0-.52152-.00591,1.46882,1.46882,0,0,0-.277.06776l.01177.03559Z"/><path class="b" d="M5.08125,2.76681a.80836.80836,0,0,0-.13817-.02548c-.21053-.00282-.42117.00171-.63167-.00209a3.0608,3.0608,0,0,0-.99849.10684A1.69444,1.69444,0,0,1,2.2884,2.7932l.38074-.24974-.51326-.28139.01739-.04417.2423-.035h.24624l.20308.1372L3.04821,2.32l.15927-.13074.05469-.09155a1.00486,1.00486,0,0,1,.25263.09914.74611.74611,0,0,0,.44777.12217c.42142.0153.84295.02873,1.26454.03792a.50011.50011,0,0,1,.54165.387,6.15523,6.15523,0,0,1,.10244.71185l-.5619.00324A2.93227,2.93227,0,0,0,5.28812,3.059.33656.33656,0,0,0,5.08125,2.76681Z"/><path class="c" d="M5.162,12.20929l.05116.197H4.32065v-.1967l.75367-.25252-.07321-.20893-.55224.15649v-.2447l.42842-.12834-.16261-.18832-.26649.06654v-.25212a1.60353,1.60353,0,0,1-.60574-1.161l.44956.18593.18887.48325.59619-.16817V10.741l-.43987.13242.14728.19392.29126-.07843v.23487l-.116.05781a.86355.86355,0,0,1,.19941.85545l-.07484-.047-.027.02985Z"/><path class="d" d="M5.88722,10.88846c.12576.1782.14161.29839.08759.64549a.63241.63241,0,0,1,.60879.032.60771.60771,0,0,1-.84584.33623.35966.35966,0,0,1-.17322-.32037A.6907.6907,0,0,1,5.88722,10.88846Z"/><path class="d" d="M8.395,7.13a.67316.67316,0,0,1,.54055-.31985.63817.63817,0,0,1-.63035.74508A.21128.21128,0,0,1,8.22272,7.519a.69561.69561,0,0,1-.17729-.93488A.71223.71223,0,0,1,8.395,7.13Z"/><path class="d" d="M.19316,1.63639c.20633.04054.339.165.47092.44185a.69879.69879,0,0,1,.44339-.43841.64733.64733,0,0,1-.42895.87766.67238.67238,0,0,1-.48536-.8811Z"/><path class="d" d="M1.338,6.64082a.69826.69826,0,0,1-.13415.93335.28409.28409,0,0,1-.1695.04759.63782.63782,0,0,1-.589-.68316v0l.00154-.01747C.632,6.888.78821,6.96455,1.00294,7.2A.75906.75906,0,0,1,1.338,6.64082Z"/><path class="d" d="M6.65944,10.71212a.63523.63523,0,0,1,.61031-.12738.62363.62363,0,0,1-.77965.519.20339.20339,0,0,1-.07043-.03281.68878.68878,0,0,1,.04676-.973h0l.00463-.00417A.75308.75308,0,0,1,6.65944,10.71212Z"/><path class="d" d="M8.17886,3.54626a.6852.6852,0,0,1,.46668.42541.722.722,0,0,1,.4461-.46736.67042.67042,0,0,1-.363.87589l0,0q-.02991.01239-.06092.02184a.168.168,0,0,1-.06452-.00148.67019.67019,0,0,1-.42712-.84608h0Z"/><path class="d" d="M1.11872,4.61674a.67037.67037,0,0,1-.38955.8643l-.00029.00011a.22927.22927,0,0,1-.1267-.00786.67541.67541,0,0,1-.40592-.86437.687.687,0,0,1,.466.45131A.71354.71354,0,0,1,1.11872,4.61674Z"/><path class="d" d="M1.63015,7.59439a.67566.67566,0,0,1-.0854.95172l-.01011.00829a.45191.45191,0,0,1-.26672.01824.63169.63169,0,0,1-.498-.64281.63416.63416,0,0,1,.57915.25262A.73258.73258,0,0,1,1.63015,7.59439Z"/><path class="d" d="M3.54878,11.52988c-.00757-.14658-.0234-.2934-.01905-.43963a.78078.78078,0,0,1,.06621-.20733.68183.68183,0,0,1,.29633.91758v0l-.00787.01491a.55586.55586,0,0,1-.64736.07535,2.328,2.328,0,0,1-.32795-.28777.63644.63644,0,0,1,.64166-.0755l.00584.00516Z"/><path class="d" d="M.197,3.60209a.68721.68721,0,0,1,.464.45308A.70018.70018,0,0,1,1.1166,3.614a.65509.65509,0,0,1-.36889.84983h0l-.0312.01141A.38953.38953,0,0,1,.48391,4.413.67873.67873,0,0,1,.197,3.60209Z"/><path class="d" d="M7.22274,9.84546a.64687.64687,0,0,1,.58858-.1256.611.611,0,0,1-.78889.52265.49587.49587,0,0,1-.18479-.24295.64585.64585,0,0,1,.16787-.74673A.74973.74973,0,0,1,7.214,9.837L7.20226,9.857Z"/><path class="d" d="M8.19523,4.55576a.692.692,0,0,1,.48339.4128.72146.72146,0,0,1,.45093-.46248.6517.6517,0,0,1-.01022.523.45728.45728,0,0,1-.8998-.00719A.65436.65436,0,0,1,8.19523,4.55576Z"/><path class="d" d="M2.84431,10.72277a.74566.74566,0,0,1,.17229-.62123.68974.68974,0,0,1,.08648.96532.19578.19578,0,0,1-.06583.03963.61755.61755,0,0,1-.80329-.48824A.63868.63868,0,0,1,2.84431,10.72277Z"/><path class="d" d="M.19824,2.54994a.70915.70915,0,0,1,.46025.44558c.15816-.28413.2696-.3833.46213-.4153a.64726.64726,0,0,1-.37844.83347L.71881,3.422a.43358.43358,0,0,1-.26618-.08154A.67025.67025,0,0,1,.19824,2.54994Z"/><path class="d" d="M7.48521,8.37108a.74064.74064,0,0,1,.20452.6214.63463.63463,0,0,1,.60691-.14891.62541.62541,0,0,1-.77441.53986.207.207,0,0,1-.08512-.05673A.6998.6998,0,0,1,7.48521,8.37108Z"/><path class="d" d="M7.764,7.54106c.17636.11136.21127.17147.32529.54219A1.79893,1.79893,0,0,1,8.353,7.903a1.57753,1.57753,0,0,1,.29666-.07457c.05069.394-.35268.7854-.69483.68546a.51289.51289,0,0,1-.24376-.25519A.67558.67558,0,0,1,7.764,7.54106Z"/><path class="d" d="M1.12794,5.73652a.661.661,0,0,1-.2908.88835l-.02223.01075A.38284.38284,0,0,1,.58926,6.6025a.64545.64545,0,0,1-.37595-.7667A.66579.66579,0,0,1,.7165,6.223.70837.70837,0,0,1,1.12794,5.73652Z"/><path class="d" d="M8.11949,1.576a.69561.69561,0,0,1,.47127.41814.71686.71686,0,0,1,.44573-.46374.67191.67191,0,0,1-.36573.877h0l-.03643.01377A.20516.20516,0,0,1,8.532,2.422.67048.67048,0,0,1,8.11949,1.576Z"/><path class="d" d="M1.15452,8.90969a.65947.65947,0,0,1,.60625.12626.76.76,0,0,1,.18815-.623.69037.69037,0,0,1,.08387.94328.3205.3205,0,0,1-.18222.08646.61482.61482,0,0,1-.6947-.52289h0Z"/><path class="d" d="M1.6579,9.77112a.61854.61854,0,0,1,.61069.12775.7637.7637,0,0,1,.18455-.62039.67636.67636,0,0,1,.07009.954L2.512,10.2451a.46349.46349,0,0,1-.44341.0258A.6325.6325,0,0,1,1.6579,9.77112Z"/><path class="d" d="M9.06237,2.45915a.66406.66406,0,0,1-.35983.86745h0q-.02708.01121-.05507.02a.24864.24864,0,0,1-.12724-.01716.672.672,0,0,1-.38382-.81164c.17888.00412.322.118.48119.38957A.72449.72449,0,0,1,9.06237,2.45915Z"/><path class="d" d="M8.65583,6.14322a.67927.67927,0,0,1,.49482-.40807.66052.66052,0,0,1-.44844.81944h0l-.02845.00765a.20813.20813,0,0,1-.10256-.00043A.662.662,0,0,1,8.224,5.6923l.00638-.01439C8.42049,5.73036,8.544,5.8627,8.65583,6.14322Z"/><path class="e" d="M5.30934,3.45894l.5619-.00325h1.252l.01991.111.12321.1413-.01514.018.112.04209L7.35061,3.899l.02494.05138a1.12231,1.12231,0,0,0-.02057.15252Q7.3531,6.08273,7.35246,8.06252a.70037.70037,0,0,1-.02968.14206l-.00395-.0624-.00757-.22459.00012-.19165V5.74731l0-.25684V5.1669l0-.12493,0-.48186,0-.12493.00264-.508.00017-.04583.00042-.03361.00154-.04011-.07025-.0062-.00089-.002-.02779-.001-.01862-.02763L7.1807,3.67746a.10736.10736,0,0,0-.03953.082Q7.1418,5.78382,7.144,7.8082l-.01229.15588a.03707.03707,0,0,1-.01927-.00166l-.02639-.04817c.00174-.04808.005-.09617.005-.14426q.00039-1.96093.00048-3.92189c0-.06117.00467-.12234.00717-.18351L7.096,3.53584a1.08389,1.08389,0,0,0-.13983-.0183q-.78836-.00361-1.57673-.00416l-.03188.00143L5.18579,3.528,5.133,3.533a.02575.02575,0,0,1-.02347.00333l-.05514-.02614.07615-.02974Z"/><path class="c" d="M4.68192,8.25842V9.61968H4.37149c0-.45519,0-.90567,0-1.35619a.036.036,0,0,0,.02254-.007Z"/><path class="c" d="M5.13486,9.603l-.3157.0368,0-1.3804.28791-.00328a.02826.02826,0,0,0,.01863.00665l.009.94454.001.36827Z"/><path class="f" d="M4.68213.68312V2.19774H4.372A2.129,2.129,0,0,1,4.68213.68312Z"/><path class="f" d="M5.13068,2.20338h-.305V.69533A2.12744,2.12744,0,0,1,5.13068,2.20338Z"/><path class="g" d="M5.05435,3.51021l.05515.02614c-.02448.009-.04858.01933-.07352.02684-.2424.07306-.27047.1102-.27047.35958q0,1.936.00044,3.87205c0,.03846.00666.07693.01021.11539l.01616.0809.26343.0212-.00151.03229-.26379.00876-.02391.04416-.0567.0007c-.02248-.017-.04386-.04681-.06763-.04887-.08235-.00711-.16553-.00458-.2484-.00572l-.00107-.03081.30349-.02425L4.695,7.97128,4.5853,7.95567,4.707,7.89182l.00333-.01726q.00075-2.009.00088-4.01792a.26128.26128,0,0,0-.18428-.26025c-.04459-.0174-.08982-.03319-.13476-.04972l.00254-.03945.28857.11074.05219.09819.05787-.1224L4.82182,3.586Z"/><path class="d" d="M.65716.54508a.69679.69679,0,0,1,.01044.98535l-.00118.0012A.65741.65741,0,0,1,.65716.54507Z"/><path class="d" d="M8.57908,1.4557a.69082.69082,0,0,1-.04294-.976h0L8.54649.46863a.67157.67157,0,0,1,.06994.94717h0Q8.59857,1.4365,8.57908,1.4557Z"/><path class="h" d="M4.39407,8.25649a.036.036,0,0,1-.02254.007q-.67014.02273-1.34022.04523-.46027.01491-.92064.0272c-.047.00134-.09408.00019-.15424.00019V3.93665l.0993-.04838.03915-.1211.01075.01138.01861.01861.00036.00033-.01745.15827-.03784.00335.00011.00283-.07165.00411Q1.9974,6.03929,1.998,8.11253a1.43319,1.43319,0,0,0,.02174.17787l.05321.00127.05254-.00134.185-.00332,2.00545-.06664.02564-.00184.05138-.00518Z"/><path class="c" d="M4.68326,3.618l-.28857-.11073L4.36678,3.4839V2.83123h.31648Z"/><path class="f" d="M5.05435,3.51021,4.82184,3.586,4.8091,3.53521l.00066-.52844v-.026l-.00009-.10625.01064-.05081a.0297.0297,0,0,0,.02263-.00716l.02611-.00081.05356.00027.2079.01663v.64781Z"/><path class="f" d="M5.49882,8.28294a1.60463,1.60463,0,0,1-.305.91959l-.00442-.93965.09806-.00047.13955.00638Z"/><path class="h" d="M7.37554,3.95046,7.3506,3.89907l.12186.01962v4.42c-.65264-.021-1.29854-.04175-1.94443-.06245L5.52894,8.235l.10477-.00058.15964.00389.60532.02289.186.0051.07753.00247.0283.001h.751c0-.04478-.00006-.09252,0-.14025q.00279-2.03552.00262-4.071C7.444,4.02241,7.39939,3.98644,7.37554,3.95046Z"/><path class="f" d="M4.30716,9.15186V9.5943l-.45746.27035A.928.928,0,0,1,4.30716,9.15186Z"/><path class="h" d="M2.09487,3.76717l.23734-.2632.00532.0053.01879.07779.00167.10517A.14808.14808,0,0,0,2.3379,3.6917Q2.327,3.6911,2.316,3.69146l-.07106-.02367V8.03905h.24453l.16546-.00468.182.00134.00071.03338h-.6385v-.157q0-1.98451,0-3.969a.29427.29427,0,0,0-.00379-.10422c-.00808-.02-.04614-.028-.07078-.04134l-.00036-.00033-.01861-.0186Z"/><path class="i" d="M2.01177,2.659c-.13336.20381-.23952.23449-.40064.12669.05085-.03008.12743-.04977.15178-.09664.027-.05189.00616-.1286.00616-.196l.7348.05774Z"/><path class="i" d="M5.33646,9.99575a.46414.46414,0,0,1-.37873.1005,1.53646,1.53646,0,0,0-.41634.00025.46393.46393,0,0,1-.3777-.10073Z"/><path class="i" d="M4.44461,10.4367v-.23806H5.083l.01107.04944Z"/><path class="j" d="M5.13052,3.48048V2.83266L4.92263,2.816l.15864-.04922a.33656.33656,0,0,1,.20689.29217,2.93228,2.93228,0,0,1,.02119.39994Z"/><path class="i" d="M5.31472,9.83888h-1.126L4.177,9.80329a1.46861,1.46861,0,0,1,.277-.06775,5.10271,5.10271,0,0,1,.52152.00591c.11594.00579.23113.02673.34665.0409Z"/><path class="h" d="M4.36678,3.4839l.02791.02332-.00254.03945L4.31588,3.5329l-.1165-.01181L2.37462,3.51381l-.03707-.00454L2.33222,3.504a.32381.32381,0,0,1,.10846-.04454q.82-.00429,1.64-.00076C4.17609,3.4591,4.27142,3.4751,4.36678,3.4839Z"/><path class="k" d="M5.18939,8.26289l.00445.93963-.05907.00484-.009-.94454Z"/><path class="i" d="M3.02208,2.27746,2.9692,2.28l-.023-.01725V1.99925l.20292.08651C3.19716,2.20955,3.109,2.24313,3.02208,2.27746Z"/><path class="l" d="M4.39407,8.25649,4.393,8.21335c.08272-.00346.16582-.00348.24792-.01252.02365-.0026.04446-.03108.06657-.04769l.06053.00048c.02213.01688.043.04608.0666.04844.0907.00906.18225.00953.2735.01321l-.001.04092-.2879.00328-.13728-.001Z"/><path class="i" d="M2.75832,2.10977l.1306-.10017v.25465a.13333.13333,0,0,1-.13228-.13438Z"/><path class="k" d="M2.75832,2.10977a.13333.13333,0,0,0,.11049.15279l.02011.00169-.024.0558-.20308-.1372H2.41561c.07228-.008.14533-.01205.21658-.02557A.7498.7498,0,0,0,2.75832,2.10977Z"/><path class="m" d="M5.10707,8.25616l.001-.04092.10571.00743.03252.00223.17739-.00208.052.00214.05325.01L5.528,8.27625l-.0292.00669L5.427,8.26878l-.13955-.00639-.09806.00047L5.12574,8.2628A.0283.0283,0,0,1,5.10707,8.25616Z"/><path class="k" d="M3.02208,2.27746c.087-.03433.17508-.06791.127-.19171l.05841.10345L3.04822,2.32Z"/><path class="n" d="M5.162,12.20929l-.1047-.08943.027-.02985.07484.047Z"/><path class="j" d="M4.8091,3.53522l.01274.05081-.0285.00772Z"/><path class="j" d="M4.82032,2.82373l-.01064.0508Z"/><path class="j" d="M4.86906,2.81577l-.02611.0008Z"/><path class="k" d="M5.13486,9.603l.00088-.02742.00881.02011Z"/><path class="j" d="M4.80978,2.98078v.026l-.00824-.01859Z"/><path class="k" d="M2.94616,2.26271l.023.01725Z"/><path class="a" d="M3.54878,11.52988l.00779.00278-.00583-.00516Z"/><path class="a" d="M7.22274,9.84546,7.20226,9.857,7.214,9.83694Z"/><path class="o" d="M4.77616,7.91022c-.00355-.03847-.01019-.07693-.01021-.1154q-.0008-1.936-.00044-3.872c0-.24939.02807-.28652.27047-.35958.02494-.00752.049-.01783.07352-.02685A.02572.02572,0,0,0,5.133,3.533l.05282-.005.16178-.01316.03188-.00144q.78837.00168,1.57673.00416a1.08764,1.08764,0,0,1,.13983.0183l.00272.12875c-.00249.06118-.00715.12234-.00717.18352Q7.091,5.809,7.09109,7.77c0,.04809-.00326.09617-.005.14426l-2.2717-.00143ZM5.61343,4.9106l-.007-.02471-.05085-.002-.07708.00337L5.394,4.88765l-.05345.01986.00621.03554.23422-.01377.03247-.01811ZM6.85131,5.96535l.00019-.00029L6.868,5.94783l-.02016-.01231-.18374.002-.00164.0421a.01745.01745,0,0,0,.0162.00475L6.74278,5.981l.07848-.00743ZM6.187,7.28l-.10333-.02408-.02307.03594ZM5.39753,4.439l-.07812-.00542.05211.04853.13041.00111.12153-.01736-.00512-.03942L5.47555,4.44Zm.42135,1.49962L5.748,5.97371l.00846.025.0627-.00995.10155-.00657-.0004-.03862Zm.57953-1.52957-.05182.02175.00538.023.14847.01729.00721-.02529-.04592-.026Zm.017,1.5595.03664.00883.05579-.00792-.00053-.03131-.15816-.01995-.00708.034Zm-.92817,1.639.06293-.0017.07561-.01541-.01741-.04262ZM6.186,7.14738l-.10929-.03219L6.066,7.16375l.07-.00846ZM6.66494,5.3518l.07612.001.1238-.01231L6.861,5.30644H6.6599ZM5.55458,4.63742,5.624,4.61826l-.0043-.02489H5.34388l.0012.044Zm1.29181,1.8818L6.7687,6.5155l-.12712.00861.00281.0488.21323-.01626Zm-1.31664.35393L5.568,6.86541,5.62259,6.845l-.00571-.02345-.27155.01347-.00108.03811ZM5.47,5.03191,5.40361,5.031l-.06029.00674.274.04492L5.62,5.021H5.53059Zm-.129.91556-.00018.05847.2816-.01721-.00255-.04126Zm.28126,1.5213L5.623,7.42985H5.3407l.00006.03892ZM5.34379,5.18521l-.00032.05624.27953-.019-.00372-.05083Zm-.00335,1.0547.00035.06174.28227-.01747L5.62127,6.2399Zm.00343.73347-.00331.05852.28384-.01277L5.623,6.9734Zm.27942-1.14454-.00362-.05079-.27885.01265.001.03813Zm.00134.74554-.00257-.05106-.28378.01589.00049.03517ZM5.623,4.04491l-.00044-.05036-.28407.01261.00027.03775Zm-.00032.72664-.00207-.03794h-.279l.00043.03794ZM5.34438,7.1311l-.00257.05811.28146-.0172-.00253-.0409ZM5.34365,6.0845v.03788h.27864V6.0845ZM5.6252,7.31186l-.00472-.05112-.28015.01735.00267.04876Zm-.37969-.9514-.0143-.05612L5.014,6.3542l.01338.04941Zm.37889.05667-.0053-.05106-.27637.01686.002.04809Zm-.2824-1.096.00077.05719.273-.0164L5.614,5.32116Zm.00282.1566.00059.05816.277-.01787-.00161-.04029ZM5.346,5.652l-.00054.05553.27723-.01659L5.6196,5.652ZM5.24052,7.15479l-.00995-.05337-.21664.04523.00913.0454Zm-.00068.31363-.00913-.05411-.21027.04579.00966.04262ZM5.021,4.31365l.01126.05015.2089-.03823L5.23206,4.277ZM5.62076,6.7082l-.00035-.03313H5.344l.00036.03313ZM5.2393,4.16582l-.00919-.04425-.21047.04305.00906.04291Zm.38334.17143-.004-.0485-.27513.01517.00076.03333ZM5.23791,7.62092l-.00972-.04949-.209.04761.01058.04279Zm1.40785-.65927-.0019.055L6.865,7.00389,6.863,6.9516ZM6.644,5.17246l.0008.052.22231-.01159-.00071-.04041Zm.00379-.59163-.001.05174.2128-.016L6.8559,4.56808Zm-.00586.138.00054.03679h.22129l-.001-.05021Zm.00036-.43166.00029.036h.22033l-.00032-.036Zm.2215,2.875L6.86046,7.108l-.21728.01479.00412.05152Zm-1.518-3.01581.00177.04794L5.61934,4.182l-.00153-.03563ZM6.64518,4.1297l.00058.05205.21858-.01516L6.8636,4.1297Zm.2184,1.68543-.001-.047-.2192.01152.00087.03551ZM6.86151,4.9132l-.00067-.04549-.218.01,0,.03545Zm-.2189.10189.0016.03252h.21934l-.00233-.04852ZM5.23823,6.51232l-.0099-.04774-.20865.04813.01019.04062Zm1.62625.18489L6.86238,6.669h-.217l.00417.04266ZM5.239,4.63582l-.01072-.04706L5.019,4.63235l.01159.04808ZM5.02217,6.6636l.00832.044.21008-.03718-.00871-.0463ZM6.64075,4.426l.00261.051.21942-.01653-.00247-.04988Zm-1.40254.05749-.00869-.05288-.20683.04407.00921.04358ZM5.24043,7.308l-.00866-.045-.20542.038.00874.042Zm1.6238.14922-.00076-.0357H6.64384l.001.04558ZM5.2387,4.02924,5.228,3.977l-.20808.04918.01061.04337ZM6.854,5.67782l.00757-.04948-.21964.01177.00006.0377ZM5.22937,4.798l.001-.049-.20915.04024.00842.04488ZM5.01812,6.9883l.00944.04609.213-.04028L5.2311,6.94749Zm.22046-2.03572L5.228,4.9l-.2041.0473.01022.042Zm.0022,1.25671-.01231-.05464-.205.04727.01119.04182Zm1.26712-.9825.00749-.05258-.17047-.02459L6.338,5.19921Zm-.58333-.88835-.00815-.05809-.16466.0297L5.76,4.35589Zm.71848,1.733.0033.05455.2173-.01466-.00212-.05ZM5.92,6.70819l-.00289-.052-.16439.02846.00733.042ZM5.0228,6.8163l.00908.04959.2078-.04136-.00823-.04389Zm1.622.737.00137.05059.218-.0151L6.8608,7.54124ZM6.64576,3.993l.00115.05039.21654-.01429-.0022-.0361ZM6.34619,4.99324,6.343,5.0478l.16652.01243.00372-.04435Zm.29912.47344.00031.0328h.21665l-.00062-.03279Zm-.72545.65667-.00265-.05156-.16707.02208.00525.04571Zm.94051.145-.00083-.049-.21627.01332.00265.03563Zm-.21611.10035.00093.02882h.21789l-.00092-.02882Zm.21891.4856-.00138-.033H6.64443l.00024.033Zm-.51434.37992-.01053.054.17074.02416.008-.04774Zm.512.06237.001-.02952H6.64438l-.00081.02952Zm-1.843-1.56841.01441.04735c.03639-.008.07272-.01615.10917-.02376.0325-.0068.06514-.013.09773-.01938l-.00991-.04657ZM6.34715,6.94553l-.002.04941.16583.01441.00343-.04308Zm.00227.4506L6.34,7.44452l.16788.02141.006-.04356Zm.14469-.81987.01852-.04911-.16808-.02669-.0088.05065Zm-.742-2.56664.01014.04983.16163-.0261-.00779-.04759Zm.00173.13826.00645.04827.16125-.02282-.00588-.04411ZM5.02,5.56929l.01315.04842.20636-.04148-.00866-.04465Zm.21818-.46289-.01-.05187-.2045.05062.01129.04152Zm1.26771-.33209.0082-.05062L6.3493,4.6971l-.008.0493Zm-.5851,2.08557-.00655-.04905-.15147.03545.00838.03529ZM5.237,6.05059,5.2264,5.99774l-.20764.04779.00939.04Zm-.21767-.16932.00844.05119.20984-.04587-.00883-.04151Zm1.48673-.36346L6.51233,5.47l-.16518-.02263-.00638.04844ZM5.74911,7.4335l.00776.05068.167-.02431L5.91771,7.413ZM6.349,6.05411l-.00757.04982.16378.01407.00422-.04413Zm-.42544.221-.0053-.04421-.16607.02041.00524.04524Zm-.90293-.86237.00979.04731.20773-.04029L5.23,5.377Zm-.00227-.15129.0103.04235.20918-.04392-.011-.046Zm1.4847,1.15434.0053-.05094-.16588-.01808-.00529.04851Zm-.75.1207.00428.04988.16634-.01982-.00338-.04367Zm.739-.25091.01934-.04748-.16085-.02776-.00956.04829Zm.0119-.59047.00785-.05369-.165-.01989-.00553.04755ZM5.923,7.3035l-.00526-.04444-.16387.021.0049.04214Zm-.00674.29389-.00321-.046-.15941.02481.00625.04107Zm.00411-2.96777L5.91412,4.5799l-.1592.02457L5.763,4.647Zm-.16848.85949.00877.043.16093-.02682L5.912,5.45874Zm.75164.34142.00559-.04687L6.34937,5.763l-.005.04321Zm-.15318-.54208-.00783.044.16119.02516.0083-.04416ZM6.5011,4.3419l.00961-.05366L6.34616,4.2687,6.339,4.31725ZM6.05785,7.4146l.00753.04988.13017-.0237-.00655-.042ZM5.92234,6.40539l-.00663-.04188-.15852.02532.00656.04169ZM5.91759,5.35561l-.00438-.0485L5.756,5.33483l.007.04062ZM5.914,5.223l.00388-.05-.16366.01932.00383.04218Zm.28042-.17719-.01-.05047-.12489.02782.008.04027Zm-.4413-.31015.01015.04978.15955-.02021L5.917,4.71842Zm.30361,1.79014.00719.043.13341-.02038-.00723-.0435ZM6.345,7.53392l-.00317.05283.16592.01543.00614-.0411Zm.15879-2.6053.00567-.04783-.16-.02117-.00534.04407Zm-.31257-.1781-.00486-.05047-.12855.02354.00813.04662ZM6.19506,5.9641l-.00568-.04239-.12809.01772.00556.04174ZM5.921,4.47347l-.00385-.04642-.15829.01252.00393.0474ZM6.198,6.397l-.006-.047-.13363.01793.00559.04389Zm-.44635-.598.00823.045.1629-.02255L5.91463,5.7743ZM6.05749,6.9638l.01036.04857L6.193,6.98259,6.184,6.94241Zm-.13412.04435-.007-.04535-.16213.02437.007.04272Zm.425-2.896L6.34281,4.155l.1608.024.00627-.04776Zm.00107.44984-.00521.05165.1595.01678L6.50911,4.585Zm.154,2.60913.00428-.04839L6.35,7.10711l-.00291.04028Zm-.44377-.9404.00759.05007.126-.0237-.00681-.0408Zm.00573-.77159L6.06255,5.508l.13019-.01389-.00363-.04425ZM5.921,5.05845,5.91475,5.0142l-.15429.02217.00595.04166Zm.00015,2.10973-.006-.0504L5.756,7.14344l.00709.04112ZM6.193,5.80658l-.00568-.04051-.12687.0181.00567.04054Zm-.43812-.91083.00843.05033.15994-.02829L5.9158,4.87368Zm.4398,1.20819-.0058-.04424-.1301.01708.00572.04346Zm-.001-1.19841L6.183,4.857l-.1254.02963.00861.04107Zm-.27391.78464-.00525-.05374-.15474.02508.0066.042Zm.13864-.05111.00844.05045.1272-.02166-.00553-.04231Zm.13755-.43967-.00763-.04513-.12995.02189.00757.04481Zm-.13458.10827.00629.049.1254-.0193-.00582-.04184Zm.44045-1.26347.00467-.05-.1562-.01651-.00578.03912ZM6.35173,6.6391l-.00619.04729.1561.02212.00686-.04189ZM6.05992,4.43l.00716.0403.12458-.02068L6.184,4.40706Zm.4413,2.4374.00508-.04771-.15825-.02-.00638.04064ZM6.059,4.29227l.00793.04.126-.023L6.18477,4.268Zm.132-.27085-.00669-.04111-.1234.01842.0064.03988Zm-.12792.10507.00291.04778.12867-.02135-.00647-.04111ZM6.061,6.65994l.00864.04511.12308-.02477-.008-.03918Zm-.00285.89916.007.04022L6.19376,7.579,6.18652,7.5372Zm.002-.73911.00768.04408.12679-.02325-.00744-.041Zm.12844-2.206-.00408-.04583-.1205.01967.00465.03437ZM5.34766,7.56419l-.00157.04213h.1184l.00175-.02815Z"/><path class="p" d="M5.52894,8.235l-.05325-.01-.052-.00214-.17739.00209-.0325-.00224-.10571-.00743c-.09124-.00367-.18278-.00414-.2735-.0132C4.811,8.19968,4.79011,8.17047,4.768,8.1536l.44525.009.05019.00176.04477-.00528.08784.00553.608.01873.209.006,1.10968.01525a.70037.70037,0,0,0,.02968-.14206Q7.355,6.08276,7.355,4.103a1.12217,1.12217,0,0,1,.02057-.15251c.02386.036.06851.072.06855.108q.00252,2.0355-.00262,4.071c-.00006.04774,0,.09547,0,.14025h-.751l-.0283-.001-.07753-.00247-.186-.0051-.60532-.02289L5.6337,8.23439Z"/><path class="q" d="M7.31134,5.49047l0,.25684,0,.32357V7.726l-.00013.19164.00757.22458a1.02078,1.02078,0,0,1-.12741.01436c-.23536-.002-.4707-.00648-.706-.01011L6.187,8.13517l-.07359-.00472c.06526-.019.12983-.038.19443-.057l.05105,0,.06759-.00393.79259.00678a.8846.8846,0,0,0,.02442-.14656q.00219-2.06517.00146-4.13034l.00089.002.07025.0062-.00154.04011-.00043.03361L7.314,3.92712l-.00263.50806v.12493l0,.48185,0,.12494Q7.31136,5.32869,7.31134,5.49047Z"/><path class="o" d="M6.35894,8.07343l-.051,0L6.21561,8.016l.00074-.04259.89612-.011a.03717.03717,0,0,0,.01927.00165L7.144,7.80821q-.00176-2.02438-.00286-4.04878a.10735.10735,0,0,1,.03952-.082l.01789.09332-.00313.02833-.002,4.22221L7.1906,8.01919l-.39918.01106-.36395-.00211Z"/><path class="l" d="M7.19348,8.02132l.002-4.22221.02175-.0007.02776.001Q7.2448,5.86457,7.24353,7.92972a.8846.8846,0,0,1-.02442.14656Z"/><path class="r" d="M6.48536,8.14646c.23534.00362.47068.00808.706.0101a1.02265,1.02265,0,0,0,.12741-.01435l.00395.06242L6.21309,8.18938l-.20906-.006L5.396,8.1647l-.08785-.00555-.04477.00529-.05019-.00177L4.768,8.15362l-.06054-.00048-.56524.00657-.223.011-.832.01577-.19688.01011-.16312.00018L2.73192,8.154l.36044-.00889.14052-.00727,1.477-.03959.0567-.00071.01191.00208.01171-.003c.30535.00908.61066.01985.91607.02467.03113.00049.06282-.03464.0942-.0532l.00507.00268c.00754.11974.10371.02148.14475.05885l.09072-.004.07178.00486.07427.00468Z"/><path class="g" d="M7.11248,7.96243l-.89612.011c-.05231-.002-.10461-.00557-.15691-.0057-.38471-.001-.76944,0-1.15411-.004-.03049-.00031-.06064-.03313-.09094-.05084l2.27169.00142Z"/><path class="n" d="M7.31135,4.43518,7.314,3.92712Z"/><path class="n" d="M7.31136,5.042l0-.48185Z"/><path class="n" d="M7.31136,6.704V6.38047Q7.31135,6.54226,7.31136,6.704Z"/><path class="n" d="M7.31135,6.07088l0-.32357Z"/><path class="n" d="M7.31137,7.46912v0Z"/><path class="n" d="M7.31124,7.91761,7.31137,7.726Z"/><path class="p" d="M7.144,7.80821l-.01229.15588Z"/><path class="g" d="M7.09873,3.66459,7.096,3.53584Z"/><path class="s" d="M7.31612,3.80758l-.07025-.0062Z"/><path class="g" d="M5.18578,3.528,5.133,3.533Z"/><path class="n" d="M7.31415,3.8813l.00042-.03361Z"/><path class="t" d="M7.21721,3.79841l-.02175.0007.00313-.02833Z"/><path class="g" d="M5.37945,3.51338l-.03188.00144Z"/><path class="o" d="M4.31587,3.5329l.07627.01377c.04494.01653.09017.03231.13477.04972a.26126.26126,0,0,1,.18427.26025q0,2.009-.00087,4.01792L4.707,7.89184c-.04377.023-.08272.04341-.1211.0639a.01805.01805,0,0,0-.01866.01168c-.02128-.01682-.04191-.047-.064-.0481-.08572-.0042-.17189.00086-.2579.00247-.0614-.00146-.1228-.00362-.18421-.00424q-.876-.00878-1.752-.01709a.80009.80009,0,0,0,.04523-.186c.0005-.09473-.03024-.18991-.02742-.28429.00922-.309.0368-.61774.03927-.92671.0017-.21255-.03649-.4252-.03935-.63805-.00645-.479-.00079-.9581-.00273-1.43715-.00062-.15251-.00968-.305-.01489-.45746.01818-.016.05113-.03123.052-.0481.00388-.07656-.00129-.15358-.00321-.23044l-.00167-.10517.01829-.07324,1.82477.00725ZM4.16075,7.14525l-.0406-.014-.086.00683-.06309-.00984-.09661.00664.00316.037h.27761l.00582-.02582ZM2.64953,5.965l.00007.00058c.05473.00832.10935.0183.16441.02258.00595.00046.01447-.03209.0218-.04933A.02309.02309,0,0,0,2.8125,5.937l-.05366-.00192-.10569.00027-.02009.01779Zm.76833,1.44814L3.3162,7.4052,3.311,7.43082l.04723.0193.07852.00593Zm-.00112-.15642-.10351.02378.12637.01194ZM3.31148,5.03935l.08182.01941.04817-.01627-.0118-.04363Zm.42139.923-.1486-.02833-.00451.04924.10227.005Zm-.3398-.74544.05022-.0254-.01467-.043-.117.049Zm-.29918.75087L3.134,5.96615l.01338-.03993-.15511.01557.00592.04136Zm.90434-1.66555-.12-.01011-.00437.03851.11863.01689h.16785l-.00161-.0453Zm-.02614-.15989H3.87674l-.00249.02775.09387.016h.19131L4.158,4.14237Zm.19225,1.09951.0002-.059H3.87576L3.874,5.22712Zm.00228,1.77289-.0054-.03535H3.8729l.002.03535ZM4.16376,4.92736l-.00453-.03693H3.8759l.00067.03693Zm-.28849-.19624.00009.03726h.28846l-.00018-.03726Zm.285,1.09728L4.16,5.7918H3.87551l.0003.0366ZM3.87609,7.26028l-.00328.04883h.29165l.00019-.0348Zm.28453-.95986L4.16,6.24326H3.874l-.00037.04353Zm-.28744.23178,0,.03825h.28867l0-.03825ZM4.16111,6.126l-.0035-.03862H3.87206l.00075.03862ZM4.16421,4.043V4.00629H3.87355v.03665ZM3.85254,7.42733c.15562.08689.27054.0807.29529,0ZM3.87841,5.949l-.0001.03516h.27881L4.15723,5.949Zm.00114-.62929-.00348.036h.2818l-.00094-.036Zm-.0026.33483.00081.03318h.28461a.6575.6575,0,0,0-.25209-.04621c-.0109-.00043-.0222.00846-.03332.013Zm.28122.77565.00167-.053H3.87447l-.0012.04041Zm-.27859-.96189-.00249.04807.28015.01583.00246-.04774Zm-1.0242.21623.00056-.03766H2.635l.00267.03766Zm1.02346-.66772L3.877,5.062h.28221l.00014-.03261Zm.28038,1.86651-.002-.05553H3.8745l-.00076.04158Zm.10857-.5717L4.25922,6.362l.22223.03876.00922-.05315Zm-.39029,1.246-.00444.0469H4.159l.00021-.0329Zm.39095-.45308-.00694.04764.22033.03646.0071-.05052ZM3.877,6.67323l-.0012.03559h.2847l-.00029-.03559Zm.39233.27591-.00812.046.21774.03948.00871-.0492Zm.00189.46607L4.2603,7.469l.21562.03135.00746-.047ZM2.63363,4.71989l.00077.03362h.22313l-.00112-.03362Zm1.63716-.443-.00995.04976.21358.03649.00915-.04567Zm-1.63156.13258-.00289.05376L2.858,4.474l.002-.04794Zm1.51952.06188.001-.03322H3.87806l-.00023.03322ZM2.63561,7.10865l.00255.04953h.22l.00013-.03755Zm.21644-2.76716.0057-.051h-.2218l-.00046.037ZM4.2735,6.15369,4.262,6.20224l.21329.043L4.486,6.20008ZM2.855,5.22464l.00043-.05238H2.6336L2.633,5.21231Zm.00311,1.77744-.00042-.03461H2.63464l.00075.03461Zm1.41274.57218-.00865.04737.21426.03726L4.485,7.613ZM2.63471,4.87885v.03354h.21894V4.87885ZM4.47486,6.86706l.0099-.05421-.217-.03042-.00708.046Zm-.011-.31719.01789-.04444-.20713-.03464-.00772.04337Zm-.19233.71228-.00883.04555.21086.03671.00857-.04279ZM2.85615,5.05091l-.00067-.03305h-.219l.00117.03305Zm-.22088-.92105.00055.0339h.21893l-.001-.0339Zm1.63912-.0096-.00964.04958.2111.0335.00783-.04317ZM4.46077,4.52l.02054-.04552-.209-.04273-.01041.04677Zm.01413.15778.00923-.05262-.2111-.0286-.006.043ZM4.46713,6.7083l.01222-.04838L4.269,6.62607l-.00777.04622ZM2.638,6.65625l-.00255.035h.21609l0-.035Zm.0003-.88968-.00058.04978h.21838L2.85684,5.78Zm1.635-1.78766-.00987.0522.2122.03524L4.48427,4.021ZM4.27251,6.00319l-.00861.04745.21378.03433.00815-.04485ZM3.16186,5.20067,3.14992,5.144,2.984,5.18144l.01095.047ZM3.1616,7.44205l-.00923-.04936-.16887.02943.00929.04965Zm.42069-.784-.00167.04915.16238.01294.0033-.04554ZM3.16251,5.03927l-.01044-.05175-.16893.03281.01021.04987ZM2.98176,6.07771l.013.05388.16779-.0353-.00927-.04673ZM3.5819,4.13113l-.00522.04627.1652.01959.00538-.0479Zm-.73052-.08774.00475-.049h-.219l-.00121.03839Zm.00524,3.41018-.00168-.02571H2.63965l.00335.02571Zm.72424-3.1658-.00541.05073.16554.01706.00531-.05062Zm-.94182.2826.001.04513h.21222L2.851,4.58178ZM4.2719,5.84716l-.00631.04411.21268.03491L4.485,5.87775Zm-1.41755,1.744-.00226-.03222H2.63624l.00062.03222Zm-.21808-.33024.00019.03177h.219l-.00017-.03177Zm1.837-2.42943.00867-.042-.20767-.0411L4.265,4.79325ZM4.2721,4.9055,4.266,4.95672l.20718.02768.00646-.04469Zm-1.63455.54985.00025.04591H2.855l.00041-.03486ZM4.478,5.61448l.00767-.04442L4.273,5.535l-.00828.04671Zm-.00016.15919.00892-.04545-.212-.03932-.0093.04605Zm-1.3191.035-.008-.05421-.16721.03209.00939.04835Zm-.305-.46092-.00065-.03366h-.215l.00041.03366Zm.00037.77688.00073-.04777h-.218l.00011.03639Zm.29736.1401.00151-.05317L2.985,6.236l.007.04839Zm-.29769.001.0005-.03017H2.63852L2.638,6.2657Zm.001.13561-.001-.032H2.636l.00036.032Zm.13.12234.0069.052.16985-.02731L3.15435,6.501ZM2.85519,6.562l-.00037-.033H2.637v.033Zm-.00181.29252.0008-.03294H2.63471l-.00017.03294Zm.13131.11314.00994.05191.16628-.02894L3.154,6.9438Zm.17485.32313L3.152,7.234l-.16881.03142.00875.04767ZM3.583,5.30889l.00013.05054.16061.01189.00348-.04466ZM3.58042,3.99381l-.00067.04663.16176.00895.00042-.04821ZM4.27358,5.06l-.00693.04992.20785.035L4.48276,5.101ZM3.7392,4.648l.00767-.05176-.16535-.01174-.00411.044ZM3.73563,6.88116l.00926-.04747L3.58238,6.8195l-.00352.03992ZM4.47466,5.46,4.485,5.41046,4.27271,5.3812l-.00585.04127ZM3.1594,4.74631,3.14946,4.6952l-.1652.03115.00869.048ZM2.98588,7.12375l.00716.05211.16611-.03056-.00638-.04357ZM3.5804,6.08711l.00043.03624h.1617L3.742,6.08713Zm.15554-1.59676.00673-.044L3.585,4.42675,3.57854,4.47ZM3.58231,6.23159l-.00522.043.16409.02233.0055-.04537Zm-.423-.73907-.00786-.04718-.16174.02554.00782.04695ZM3.154,5.34344l-.0008-.05576-.16445.02779.00745.04714Zm.00711,1.05215-.01044-.05617-.163.03279.00836.044Zm.42233,1.01648L3.578,7.46348l.166.017.00562-.04415Zm.89168-2.11.00719-.0474-.20767-.0315-.00679.04455Zm-.8912,1.21609-.00512.05024.163.01667.00541-.04332Zm-.42524-.84989L3.15,5.61534l-.16423.03242.00864.04738ZM2.98586,4.28911l.0091.05416.16424-.03233-.0071-.04266Zm.6,3.26364,0,.04593.15552.01776.00535-.04156ZM3.585,6.35982l-.00521.0492.16191.01726.00485-.04391Zm-.1508-1.58976.00791-.05257L3.308,4.706l-.00375.04356Zm.149,2.48522-.00291.05038.16213.01586.005-.043ZM3.74332,7.184l.00328-.04527-.16408-.01263-.00312.04412ZM3.3096,6.50473l-.00622.05149.13474.01216.00556-.04227ZM3.73341,5.239l.00823-.0504-.15918-.01509-.00416.04137Zm-.5871-.33117.0054-.04827-.162.02107.00435.0442Zm.28692,1.07642.0065-.05089L3.31015,5.9277l-.00272.03893Zm.52125-1.38607.00157.02859h.20188l-.00164-.02859Zm-.96535-.0121.01032.05163.16067-.03817-.00888-.04027ZM3.158,4.02417,3.14969,3.973l-.15994.025.00678.04552Zm-.00118.42846-.00833-.05112-.16082.03127.00845.045Zm-.16753-.31775.00913.04832.16054-.031L3.15076,4.1087Zm.7454,1.71123.00838-.052-.16112-.01422-.00406.04134Zm-.29817,1.163.005-.04261-.13292-.01618-.005.04226Zm-.12366-.95348-.00752.0503.13185.01433.00611-.04188Zm.27206-1.04441-.00644.05031.1592.01291L3.74205,5.03ZM3.73422,4.785l.00719-.05123-.15989-.01124L3.578,4.76594ZM3.31284,6.21682l-.00375.04739.12811.00866.00346-.04224Zm.1225-.70447.00485-.04193L3.3111,5.45507l-.005.04309Zm.3002.19216.00418-.05-.15613-.01082L3.58,5.68788Zm-.42889.64856-.0022.04479.1344.00637.002-.0425Zm.42149-.82059.01389-.0444-.15586-.01686-.00451.03853Zm-.14492-.65957-.00763.04565.16363.02679.008-.04866ZM3.735,7.02978l.01008-.05064L3.58219,6.965l-.00412.04408Zm-.74838.53014L2.994,7.6035l.16515-.02633-.00723-.04184Zm.44471-1.73154.00818-.04619-.12879-.0141-.0053.03868ZM3.31381,7.10231l-.00876.048.13259.01469.00488-.04152ZM3.43615,4.924l.00573-.04352L3.31259,4.862l-.00585.0443ZM3.313,5.29381l-.00447.05007.12814.00633.00336-.0418Zm-.00318.33359L3.306,5.67194l.13038.01276.00383-.0437ZM3.30719,7.53872,3.3067,7.5843h.13145l.00279-.02967ZM3.1574,6.68518l-.00659-.043-.15965.02266.00686.0453Zm.15785-2.279-.00695.05015.12878.01L3.44152,4.427ZM2.9914,6.82059l.00966.04683.15843-.02569L3.1528,6.79912ZM3.313,6.79841l-.00416.04928.12715.01223.00556-.03848Zm.12285-2.76424.00282-.04131-.12528-.0091L3.3106,4.025Zm-.12314.07745-.0031.04975.12457.00565L3.4375,4.1276ZM3.313,6.64484l-.00546.04122.12736.01574.00531-.04009ZM3.31225,4.269,3.30941,4.32l.12574.00764.004-.03909Zm.11908.35546L3.434,4.57959l-.1213-.0091-.00372.039Zm.451-.02644-.00073.025.06958.00439L3.952,4.598Z"/><path class="u" d="M4.70984,8.09822l-1.47695.03959-.14053.00728L2.73193,8.154l-.07831.00129-.13405.00219-.09391.00126-.0636.001L2.31127,8.161l-.08073.00265-.05132.00388-.02775.00175-.0377-.06917.00041-.02928q.00139-2.032.00237-4.06394a.28131.28131,0,0,0-.00939-.05116l.01745-.15826c.02463.01336.06269.0213.07078.04134a.29427.29427,0,0,1,.00378.10422q0,1.98451,0,3.969v.157h.63852l.18439-.00086.06765.005.07664-.00047L3.42141,8.065l.10022-.00139.03059-.00044.84158-.01953c.08287.00114.16605-.00139.24841.00572C4.666,8.05141,4.68736,8.08116,4.70984,8.09822Z"/><path class="p" d="M4.56722,7.9674a.01806.01806,0,0,1,.01866-.01168l.10912.01556.00125.01728-.30351.02426L4.24055,8.0125l-.03464.00176-.786.0085L3.26658,8.006a.45026.45026,0,0,1,.12105-.03774c.2826-.0049.56531-.005.848-.00665Z"/><path class="p" d="M4.81438,7.91283c.0303.01772.06045.05054.09094.05085.38467.004.7694.003,1.15411.004.05231.00013.10461.00372.15691.0057L6.2156,8.016l-.292.00771-.62889-.00919L5.21,8.012l-.15423.00035-.26342-.0212L4.77614,7.9102Z"/><path class="q" d="M5.80049,8.06805c-.03144.0186-.06312.05373-.09425.05325-.30541-.00481-.61073-.01559-.91607-.02466l.00029-.04325.2638-.00876.157.00837.10746.0015Z"/><path class="e" d="M4.24053,8.0125l.15219.00032.00107.03081-.84158.01954-.03059.00043L3.42139,8.065l-.0015-.04223.786-.0085Z"/><path class="e" d="M5.21123,8.053l-.157-.00837.00151-.03229L5.21,8.012l.08476.00257.6289.00918,0,.039-.11811.008-.00508-.00269-.48175-.0136Z"/><path class="i" d="M4.79045,8.05336l-.00029.04325-.01172.003-.0119-.00208Z"/><path class="u" d="M2.72726,8.19675l.16313-.00018.19687-.01011.832-.01577.223-.011.56524-.00656c-.02211.01661-.04291.04508-.06656.04768-.08209.009-.1652.00906-.24793.01252l-.05138.00517-.02564.00186L2.31049,8.287l-.185.00332L2.073,8.29165l-.05321-.00126A1.43342,1.43342,0,0,1,1.998,8.11252Q1.99652,6.03928,1.9978,3.966l.07164-.00411-.00012-.00283V8.19983h.45137l.13422-.002Z"/><path class="e" d="M2.52068,8.19983H2.06931V3.9591l.03785-.00335a.2812.2812,0,0,1,.00939.05115q-.00072,2.032-.00237,4.064l-.00844.00831.008.021.0377.06917.02775-.00173.05133-.00388L2.31128,8.161l.05078-.00129.0636-.001.09391-.00125Z"/><path class="g" d="M2.12548,8.29033l.185-.00332Z"/><path class="g" d="M2.06943,3.96194l-.07165.00411Z"/><path class="g" d="M2.01972,8.2904l.05321.00127Z"/><path class="t" d="M2.10563,3.77856l.01861.0186Z"/><path class="l" d="M4.31593,8.22036l.02564-.00186Z"/><path class="v" d="M5.28747,8.2624l.13955.00638Z"/><path class="w" d="M6.39867,8.26117l.186.0051Z"/><path class="w" d="M5.63371,8.23439l.15964.00389Z"/><path class="w" d="M6.66218,8.26876l.0283.001Z"/><path class="p" d="M2.30921,3.97078c.00521.15248.01427.305.01489.45746.00195.47905-.00372.95818.00273,1.43715.00287.21285.041.42551.03935.63806-.00247.309-.03005.61765-.03927.9267-.00281.09439.02792.18957.02742.28429a.801.801,0,0,1-.04524.186c.03849.0223.07621.06209.11563.06386.19149.00861.38343.00705.57521.0091l-.00413.04687L2.837,8.03571l-.182-.00133-.16547.00469H2.245V3.6678l.07106.02367.00091.0797Z"/><path class="r" d="M2.30921,3.97078l.0077-.19961.021-.07948a.14968.14968,0,0,1,.02009.00053c.00192.07686.00709.15388.00321.23044C2.36034,3.93956,2.32739,3.95479,2.30921,3.97078Z"/><path class="e" d="M2.837,8.0357l.15886-.01543.03534.00819-.0091.03976-.18439.00085Z"/><path class="s" d="M2.48949,8.03905l.16546-.0047Z"/><path class="r" d="M2.37461,3.51382l-.01829.07324-.01879-.0778Z"/><path class="l" d="M2.33791,3.6917l-.021.07949L2.316,3.69148Q2.327,3.69112,2.33791,3.6917Z"/><path class="s" d="M4.31587,3.5329l-.11648-.01183Z"/><path class="x" d="M5.42369,8.22282l.052.00214Z"/><path class="l" d="M5.2138,8.22267l.0325.00224Z"/><path class="s" d="M5.341,5.94747h.27888l.00255.04126-.2816.01721Z"/><path class="y" d="M5.62228,7.46877H5.34073l-.00006-.03892H5.623Z"/><path class="z" d="M5.34377,5.18522l.27549-.01363.00372.05083-.27952.019Z"/><path class="z" d="M5.34041,6.23991h.28083l.0018.04428-.28227.01747Z"/><path class="t" d="M5.34385,6.97339H5.623l.00143.04573-.28385.01277Z"/><path class="t" d="M5.62328,5.82885H5.3418l-.001-.03814.27886-.01265Z"/><path class="aa" d="M5.62461,6.57439H5.33874l-.00049-.03517L5.622,6.52333Z"/><path class="z" d="M5.623,4.0449H5.33875l-.00027-.03773.28407-.01261Z"/><path class="z" d="M5.62267,4.77154H5.342l-.00042-.03793h.279Z"/><path class="t" d="M5.34437,7.1311h.27636l.00253.0409-.28146.0172Z"/><ellipse class="ab" cx="5.48296" cy="6.10343" rx="0.19703" ry="0.02679"/><path class="aa" d="M5.62522,7.31185l-.2822.015-.00268-.04876.28015-.01734Z"/><path class="s" d="M5.24551,6.36046l-.21808.04315L5.01405,6.3542l.21717-.04986Z"/><path class="w" d="M5.62438,6.41713l-.27962.0139-.002-.04809.27636-.01686Z"/><path class="aa" d="M5.342,5.32116h.272l.00175.04078-.273.01641Z"/><path class="ab" d="M5.3448,5.47775h.27595l.00161.0403-.277.01786Z"/><path class="z" d="M5.346,5.652h.27363l.003.03894-.27723.01659Z"/><path class="t" d="M5.24048,7.1548,5.023,7.192l-.00913-.04539.21664-.04523Z"/><path class="aa" d="M5.23982,7.46842l-.20974.0343L5.02042,7.4601l.21027-.04579Z"/><path class="y" d="M5.021,4.31364,5.232,4.277l.00915.04858-.2089.03823Z"/><path class="ab" d="M5.62073,6.7082H5.34435L5.344,6.67507h.27641Z"/><path class="aa" d="M5.23928,4.16581l-.2106.04173-.00907-.04291.21047-.04306Z"/><path class="y" d="M5.62262,4.33726H5.34426L5.3435,4.30392l.27512-.01516Z"/><path class="ab" d="M5.23791,7.62092l-.20816.04093-.01057-.0428.209-.0476Z"/><path class="z" d="M6.64576,6.96164l.21723-.01.002.05229-.22113.01271Z"/><path class="z" d="M6.644,5.17246H6.8664l.0007.04041-.2223.01158Z"/><path class="y" d="M6.64776,4.58083l.20811-.01275.00366.04844-.2128.01606Z"/><path class="aa" d="M6.64191,4.71884l.22082-.01342.001.0502H6.64245Z"/><path class="z" d="M6.64226,4.28717h.22031l.00032.036H6.64256Z"/><path class="t" d="M6.86377,7.16217l-.2165.01218-.00411-.05153L6.86044,7.108Z"/><path class="ab" d="M5.34579,4.14636h.272l.00153.03563-.27178.01231Z"/><path class="t" d="M6.64518,4.1297h.21843l.00075.03689-.21859.01516Z"/><path class="y" d="M6.86356,5.81515H6.64428l-.00087-.03552.2192-.01153Z"/><path class="aa" d="M6.86151,4.91322H6.64279l0-.03545.218-.01Z"/><path class="t" d="M6.6426,5.0151l.21863-.016.00232.04851H6.64422Z"/><path class="ab" d="M5.23823,6.51232l-.20836.041-.01019-.04062.20865-.04814Z"/><path class="z" d="M6.86447,6.69721l-.2149.0144L6.64541,6.669h.217Z"/><path class="y" d="M5.239,4.63582l-.2084.04461L5.019,4.63235l.20927-.04359Z"/><path class="g" d="M5.53057,5.021H5.62l-.00268.06169-.274-.04493L5.4036,5.031,5.47,5.03192Z"/><path class="w" d="M5.02216,6.6636l.20969-.03943.00871.0463-.21008.03718Z"/><path class="w" d="M6.64074,4.42605l.21957-.01543.00246.04988L6.64335,4.477Z"/><path class="ab" d="M5.2382,4.48352l-.2063.03479-.00922-.04358.20684-.04406Z"/><path class="g" d="M5.24043,7.308l-.20534.035-.00873-.042.20541-.038Z"/><path class="r" d="M5.52975,6.87315h-.1855L5.34532,6.835l.27156-.01347.0057.02346L5.568,6.8654Z"/><path class="ab" d="M6.86422,7.45724l-.21939.00988-.001-.04559h.21963Z"/><path class="ab" d="M5.2387,4.02924l-.2082.04027-.01061-.04338L5.228,3.977Z"/><path class="w" d="M6.854,5.67782H6.642L6.6419,5.64013l.21964-.01177Z"/><path class="z" d="M5.22937,4.798l-.19975.03615L5.0212,4.7893l.20915-.04024Z"/><path class="w" d="M5.01812,6.9883l.213-.04081.00948.04662-.213.04028Z"/><path class="ab" d="M5.23858,4.95258l-.20451.0367-.01022-.042L5.228,4.9Z"/><path class="ab" d="M5.24078,6.2093l-.20611.03445-.01119-.04182.205-.04727Z"/><path class="t" d="M6.5079,5.2268l-.16984-.02758.00688-.04959.17047.02459Z"/><path class="s" d="M5.92457,4.33845,5.76,4.35592l-.0082-.04585.16465-.0297Z"/><path class="aa" d="M6.64305,6.07144l.21847-.01011.00212.05-.2173.01466Z"/><path class="t" d="M5.92,6.70819,5.76,6.72667l-.00733-.042.16439-.02846Z"/><path class="g" d="M5.0228,6.81631l.20865-.03567.00823.04389-.2078.04137Z"/><path class="ab" d="M6.64481,7.55328l.216-.012.00341.04753-.218.0151Z"/><path class="ab" d="M6.64576,3.993h.21548l.00221.0361-.21655.01428Z"/><path class="t" d="M6.34619,4.99323l.167.02264-.00372.04435L6.343,5.04779Z"/><path class="aa" d="M6.64531,5.46667h.21634l.00062.0328H6.64562Z"/><path class="y" d="M5.91987,6.12333l-.16448.01623-.00525-.0457.16707-.02209Z"/><path class="w" d="M6.86038,6.2683H6.64592l-.00264-.03562.21626-.01332Z"/><path class="aa" d="M6.64428,6.36866h.21789l.00093.02882H6.64521Z"/><path class="ab" d="M6.86319,6.85426H6.64468l-.00025-.033h.21736Z"/><path class="t" d="M6.34883,7.23416,6.517,7.2646l-.008.04774-.17074-.02416Z"/><path class="g" d="M6.86082,7.29651H6.64359l.0008-.02951h.21743Z"/><path class="g" d="M5.01786,5.72815l.21142-.04237.0099.04657c-.03258.00642-.06522.01257-.09773.01937-.03646.00762-.07279.01582-.10917.02376Z"/><path class="w" d="M6.34715,6.94553l.16727.02073L6.511,7.00935l-.16583-.01441Z"/><path class="w" d="M6.34943,7.39613l.16442.02626-.006.04355L6.34,7.44453Z"/><path class="w" d="M6.49412,6.57626,6.33576,6.5511l.00879-.05065.16808.02669Z"/><path class="aa" d="M5.7521,4.00962l.164-.02387.00779.04759-.16163.0261Z"/><path class="ab" d="M5.75383,4.14788l.16181-.01865.00589.0441-.16125.02283Z"/><path class="l" d="M5.02,5.56929l.21086-.03771.00865.04464-.20636.04148Z"/><path class="g" d="M5.23816,5.1064,5.035,5.14667,5.0237,5.10515l.2045-.05062Z"/><path class="ab" d="M6.50587,4.77431,6.34132,4.7464l.008-.0493.16477.02659Z"/><path class="g" d="M5.92077,6.85988l-.14963.0217-.00838-.03529.15147-.03546Z"/><path class="w" d="M5.237,6.0506l-.20885.03494-.00938-.04.20764-.0478Z"/><path class="ab" d="M5.01932,5.88128l.20945-.03619.00883.04151-.20984.04587Z"/><path class="y" d="M6.50606,5.51782l-.16529-.022.00639-.04844L6.51234,5.47Z"/><path class="z" d="M5.74911,7.43353,5.91772,7.413l.00619.0469-.167.02432Z"/><path class="e" d="M5.55558,4.88392l.05085.002a.03383.03383,0,0,0,.007.02472l0,.00056-.03245.01811-.23423.01377-.0062-.03554L5.394,4.88766l.08064.01718Z"/><path class="y" d="M6.349,6.05412l.16044.01976L6.50522,6.118l-.16378-.01407Z"/><path class="w" d="M5.92357,6.27512l-.16614.02144-.00524-.04524.16608-.02041Z"/><path class="g" d="M5.02064,5.41276,5.23,5.377l.00819.04279-.20774.04028Z"/><path class="g" d="M5.01838,5.26146l.20851-.04754.011.046-.20918.04392Z"/><path class="w" d="M6.50307,6.41581l-.16587-.0205.00529-.04852.16588.01809Z"/><path class="aa" d="M5.75312,6.53652l.16726-.01361.00339.04367-.16635.0198Z"/><path class="ab" d="M6.8464,6.51922l.01121.03743-.21323.01626-.00281-.0488.12712-.00861Z"/><path class="t" d="M6.49212,6.28561l-.15107-.027.00956-.04829.16085.02775Z"/><path class="ab" d="M6.504,5.69514l-.16264-.026.00553-.04755.165.01989Z"/><path class="aa" d="M5.923,7.30353l-.16423.01871-.0049-.04214.16387-.021Z"/><path class="g" d="M5.91623,7.59741l-.15638.01984L5.7536,7.57617,5.913,7.55136Z"/><path class="z" d="M5.92035,4.62964,5.763,4.647l-.00811-.04255.1592-.02457Z"/><path class="aa" d="M5.75187,5.48913,5.912,5.45876l.00959.04656-.16094.02682Z"/><path class="aa" d="M6.50351,5.83055l-.15914-.02437.005-.04321.15972.02071Z"/><path class="w" d="M6.35033,5.28847l.16164.025-.0083.04416L6.34248,5.3325Z"/><path class="w" d="M6.50111,4.34191,6.339,4.31726l.00716-.04854.16454.01953Z"/><path class="w" d="M6.05785,7.41463,6.189,7.39884l.00653.042-.13017.02369Z"/><path class="ab" d="M5.55458,4.63742H5.34507l-.0012-.044H5.5294Z"/><path class="ab" d="M5.92235,6.40542l-.1586.02513-.00656-.04169.15852-.02533Z"/><path class="t" d="M6.66493,5.35181l-.005-.04537H6.861l.00389.03406-.1238.01231Z"/><path class="w" d="M5.9176,5.35564l-.15466.01985-.007-.04062.15724-.02773Z"/><path class="ab" d="M5.914,5.223l-.15594.01144-.00383-.04218.16365-.01932Z"/><path class="ab" d="M6.19447,5.04579l-.1269.01762-.008-.04027.12488-.02781Z"/><path class="ab" d="M5.75317,4.73564,5.917,4.71845l.00589.04676-.15955.02021Z"/><path class="w" d="M6.05678,6.52578l.13338-.02087.00721.0435-.1334.02038Z"/><path class="g" d="M6.345,7.534l.16891.02716-.00614.0411-.16592-.01543Z"/><path class="aa" d="M6.50381,4.92866l-.15968-.02493.00534-.04407.16.02117Z"/><path class="y" d="M6.19123,4.75056,6.066,4.77022l-.00814-.04663.12854-.02353Z"/><path class="y" d="M6.195,5.96415l-.12822.01705-.00556-.04174.12809-.01772Z"/><path class="ab" d="M5.921,4.4735,5.7628,4.487l-.00393-.04739.15829-.01252Z"/><path class="w" d="M6.198,6.397l-.134.01478L6.0584,6.36792,6.192,6.35Z"/><path class="ab" d="M5.75165,5.799l.163-.02475.00815.04716L5.75987,5.844Z"/><path class="w" d="M6.05749,6.9638,6.184,6.94239l.00894.04017-.12513.02978Z"/><path class="aa" d="M5.92337,7.00814l-.16211.02175-.007-.04273.16212-.02438Z"/><path class="ab" d="M6.34841,4.11212l.16149.0191L6.50362,4.179l-.1608-.024Z"/><path class="y" d="M6.34947,4.562l.15965.023-.00535.04538-.1595-.01679Z"/><path class="g" d="M6.50345,7.17109,6.3471,7.14738,6.35,7.10711l.15772.01559Z"/><path class="z" d="M6.05968,6.23069l.12679-.01443.00681.04079-.126.02371Z"/><path class="z" d="M6.06541,5.4591l.12372-.00928.00363.04425L6.06257,5.508Z"/><path class="z" d="M5.921,5.05845,5.76641,5.078l-.00594-.04166.15428-.02217Z"/><path class="w" d="M5.92113,7.16818l-.158.01638L5.756,7.14344l.15912-.02566Z"/><path class="aa" d="M6.193,5.80658l-.12688.01813-.00567-.04055.12687-.01809Z"/><path class="w" d="M5.75486,4.89574l.161-.02207.00741.04411-.15994.02829Z"/><path class="y" d="M6.19465,6.104l-.13017.01631-.00573-.04347.1301-.01708Z"/><path class="z" d="M6.19364,4.90554l-.12741.02212-.00861-.04107L6.183,4.857Z"/><path class="w" d="M5.91973,5.69018l-.15339.01335-.0066-.042.15475-.02509Z"/><path class="ab" d="M6.05837,5.63907l.13012-.01351.00554.0423-.1272.02167Z"/><path class="aa" d="M6.19591,5.19941l-.13.02154-.00757-.04482.12994-.02187Z"/><path class="g" d="M6.13605,7.1553l-.07.00846.01071-.04855.10929.03218Z"/><path class="g" d="M5.48728,7.6076l.12112-.05973.01741.04262L5.5502,7.6059Z"/><path class="y" d="M6.06133,5.30768l.12587-.01214.00582.04184-.1254.0193Z"/><path class="g" d="M6.50179,4.04419l-.15732-.02741.00579-.03912.1562.01651Z"/><path class="aa" d="M6.35173,6.6391l.15677.02753-.00686.0419L6.34555,6.6864Z"/><path class="r" d="M6.6641,5.93752l.18374-.002.00367.02954-.00021.00027-.03.0082L6.74279,5.981l-.06413.00338a.01743.01743,0,0,1-.0162-.00476Z"/><path class="g" d="M6.41544,5.96859l-.07332-.01635.00707-.034.15816.01995.00054.03131-.0558.00793Z"/><path class="aa" d="M6.05992,4.43l.12411-.023.00763.04262-.12458.02067Z"/><path class="aa" d="M6.50122,6.86745l-.15957-.02708L6.348,6.79973l.15826.02Z"/><path class="aa" d="M5.47555,4.44l.14279-.01351.00511.03942-.12151.01735Z"/><path class="g" d="M6.059,4.29227,6.18476,4.268l.00819.04121-.126.023Z"/><path class="aa" d="M6.191,4.02143l-.1237.01717L6.0609,3.99873l.1234-.01842Z"/><path class="aa" d="M6.06309,4.12649l.12513-.01468.00646.04111L6.066,4.17427Z"/><path class="ab" d="M6.061,6.65994,6.1847,6.6411l.008.03918-.12308.02477Z"/><path class="g" d="M6.05813,7.5591l.12838-.0219.00724.04174-.12857.02038Z"/><path class="g" d="M6.0601,6.82l.127-.02017.00743.041-.12678.02324Z"/><path class="l" d="M6.18853,4.614l-.11994.00821L6.064,4.58781l.1205-.01966Z"/><path class="y" d="M5.34766,7.56419l.11856.014-.00175.02816H5.34608Z"/><path class="r" d="M6.46172,4.41984l.04592.026-.00721.02528L6.352,4.45388l-.00537-.023.05182-.02174Z"/><path class="z" d="M5.81888,5.93866l.10146.005.0004.03862-.10156.00657Z"/><path class="m" d="M5.47555,4.44l.02639.04326-.13042-.0011.026-.04309Z"/><path class="y" d="M5.81888,5.93866l.0003.05014-.0627.00994-.00846-.025Z"/><path class="l" d="M5.55458,4.63742l-.02519-.044h.09026l.00431.02489Z"/><path class="s" d="M6.187,7.28l-.12639.01185L6.08369,7.256Z"/><path class="m" d="M6.187,7.28,6.08369,7.256Z"/><path class="aa" d="M5.39753,4.439l-.026.04309L5.3194,4.4336Z"/><path class="m" d="M6.8464,6.51922,6.76869,6.5155Z"/><path class="e" d="M6.66493,5.35181l.07612.001Z"/><path class="y" d="M5.55558,4.88392l-.081.02094.0039-.01757Z"/><path class="v" d="M5.47849,4.88729l-.00389.01757L5.394,4.88767Z"/><path class="v" d="M5.53057,5.021,5.47,5.03191Z"/><path class="v" d="M6.13605,7.1553l.05-.00791Z"/><path class="v" d="M5.40362,5.031l-.06029.00674Z"/><path class="s" d="M6.67865,5.98437,6.74279,5.981Z"/><path class="y" d="M5.48728,7.6076l.06292-.0017Z"/><path class="s" d="M6.6641,5.93752l-.00165.04208Z"/><path class="ac" d="M6.46172,4.41984l-.06331-.01075Z"/><path class="s" d="M6.41544,5.96859l.03664.00883Z"/><path class="s" d="M6.8515,5.96507l-.00367-.02954.02016.01231Z"/><path class="y" d="M5.58093,4.92929l.03245-.01811Z"/><path class="y" d="M5.61343,4.91062a.03383.03383,0,0,1-.007-.02472Z"/><path class="s" d="M6.82126,5.97355l.03-.0082Z"/><path class="w" d="M5.52975,6.87315,5.568,6.8654Z"/><path class="x" d="M6.004,8.18339l.20906.006Z"/><path class="t" d="M5.30819,8.15914l.08785.00554Z"/><path class="x" d="M5.21323,8.16265l.05019.00177Z"/><path class="m" d="M7.19348,8.02132l.02564.055-.7926-.00678.00095-.04138.364.00211.39917-.01106Z"/><path class="g" d="M5.92362,8.06273l0-.039.292-.00772.09228.05746-.19444.057L6.041,8.12566l-.00181-.00252Z"/><path class="s" d="M6.48536,8.14646,6.187,8.13518Z"/><path class="g" d="M6.42747,8.02812l-.00095.04138-.06759.00393Z"/><path class="v" d="M7.19061,8.01918l-.39917.01106Z"/><path class="q" d="M5.92362,8.06273l.11532.06024-.08869.00664c-.041-.03736-.13721.06089-.14475-.05884Z"/><path class="t" d="M4.1422,8.1597l-.223.011Z"/><path class="t" d="M3.08726,8.18646l-.19688.01011Z"/><path class="t" d="M3.09236,8.14509l.14053-.00728Z"/><path class="s" d="M5.95026,8.12961,6.03894,8.123l.002.00265Z"/><path class="e" d="M2.72726,8.19675l-.07236.00107-.00129-.04257L2.73192,8.154Z"/><path class="r" d="M2.99994,7.97342c-.19179-.002-.38373-.00048-.57522-.0091-.03942-.00178-.07714-.04155-.11563-.06385q.876.00843,1.752.01706c.06143.00061.12282.00278.18421.00424l-.00974.03981c-.28267.00164-.56536.00174-.848.00665a.44932.44932,0,0,0-.12106.03777l-.00714,0Z"/><path class="t" d="M4.16434,5.24187,3.874,5.22712l.00173-.04428h.28879Z"/><path class="t" d="M4.16662,7.01477H3.8749l-.002-.03535h.28832Z"/><path class="z" d="M4.16376,4.92736H3.87657L3.8759,4.89043h.28333Z"/><path class="t" d="M3.87525,4.73113h.28837l.00018.03726H3.87534Z"/><path class="y" d="M4.16023,5.8284H3.87581l-.00029-.0366H4.16Z"/><path class="y" d="M3.87607,7.26028l.28856.014-.00019.0348H3.87279Z"/><path class="z" d="M4.16061,6.30042l-.287-.01362L3.874,6.24327H4.16Z"/><path class="z" d="M3.87316,6.53221h.28868l0,.03825H3.87321Z"/><path class="y" d="M4.16108,6.126H3.8728l-.00074-.0386H4.1576Z"/><ellipse class="z" cx="4.01887" cy="4.02463" rx="0.20552" ry="0.02592"/><path class="aa" d="M3.85254,7.42733h.29529C4.12308,7.508,4.00816,7.51422,3.85254,7.42733Z"/><path class="y" d="M3.87842,5.949h.27882l-.00012.03516H3.87831Z"/><path class="ab" d="M3.87955,5.31976h.27738l.00094.036h-.2818Z"/><path class="y" d="M3.877,5.65457c.01112-.00457.02242-.01346.03333-.013a.6575.6575,0,0,1,.25209.04621h-.2846Z"/><path class="z" d="M4.15818,6.43022l-.28491-.01264.00119-.04041h.28539Z"/><path class="ab" d="M3.87958,5.46832l.28012.01616-.00246.04775-.28015-.01584Z"/><path class="s" d="M2.85539,5.68454H2.63764L2.635,5.64689h.221Z"/><path class="w" d="M3.87884,5.01682l.28055.01258-.00013.0326H3.877Z"/><path class="y" d="M4.15923,6.88334,3.87374,6.8694l.00077-.04158h.28272Z"/><path class="s" d="M4.26779,6.31164l.22289.03589-.00922.05315-.22224-.03874Z"/><path class="y" d="M3.8775,7.55764l.28171.014L4.159,7.60454H3.87307Z"/><path class="z" d="M4.26845,7.10456l.22049.03358-.0071.05051-.22033-.03646Z"/><path class="w" d="M3.877,6.6732h.28323l.00029.03559H3.87583Z"/><path class="w" d="M4.26935,6.94911l.21833.03633L4.479,7.03463l-.21773-.03947Z"/><path class="ab" d="M4.27124,7.41518l.21214.03808-.00746.047L4.2603,7.46892Z"/><path class="w" d="M2.63363,4.71989H2.8564l.00112.03362H2.63441Z"/><path class="y" d="M4.27079,4.27689l.21278.04057-.00915.04568-.21359-.03649Z"/><path class="z" d="M2.63923,4.40947,2.86,4.42609,2.858,4.474l-.22168-.0108Z"/><path class="g" d="M4.15876,4.47135H3.87784l.00023-.03322h.28172Z"/><path class="t" d="M2.63561,7.10865l.22264.012-.00013.03755h-.22Z"/><path class="z" d="M2.85205,4.34147,2.6355,4.32741l.00046-.037h.2218Z"/><path class="ab" d="M4.27348,6.15367l.21253.0464-.01073.04517-.21329-.043Z"/><path class="z" d="M2.855,5.22464l-.222-.01231.00062-.04006h.22186Z"/><path class="t" d="M2.85813,7.00209H2.63541l-.00075-.03461h.22307Z"/><path class="w" d="M4.27087,7.57426,4.485,7.613l-.0085.04592L4.2622,7.62164Z"/><ellipse class="y" cx="2.74417" cy="4.89563" rx="0.15481" ry="0.02372"/><path class="z" d="M4.47485,6.86707l-.21417-.03865.00708-.046.217.03043Z"/><path class="w" d="M4.46388,6.54989l-.19695-.0357.00771-.04338.20714.03464Z"/><path class="g" d="M4.27155,7.26216l.21059.03948-.00856.04279-.21087-.03671Z"/><path class="t" d="M2.85613,5.05093H2.63765l-.00116-.03305h.219Z"/><path class="t" d="M2.63525,4.12988h.21849l.001.0339H2.63581Z"/><path class="aa" d="M4.27436,4.12028l.20928.0399-.00783.04318-.21109-.03351Z"/><path class="aa" d="M4.46075,4.52l-.19889-.04148.01041-.04677.209.04273Z"/><path class="y" d="M4.47488,4.67775,4.267,4.63948l.006-.043.2111.02859Z"/><path class="z" d="M4.46713,6.7083l-.20585-.036L4.269,6.62607l.21032.03385Z"/><path class="z" d="M2.638,6.65625h.21351l0,.035H2.63548Z"/><path class="z" d="M2.63832,5.76656,2.85681,5.78l-.00071.03637H2.63773Z"/><path class="w" d="M4.27334,3.97889l.21092.04214-.00859.04531-.2122-.03524Z"/><path class="w" d="M4.2725,6.00318l.21331.03693L4.47766,6.085l-.21378-.03433Z"/><path class="r" d="M4.03418,7.1381l.086-.00681.04059.014.00029.0008-.00582.02582H3.87761l-.00316-.037.09661-.00664Z"/><path class="t" d="M3.16185,5.20066l-.16693.02777-.011-.047.16594-.0375Z"/><path class="t" d="M3.16159,7.44205l-.16882.02972-.00929-.04965.16887-.02944Z"/><path class="ab" d="M3.58227,6.65807l.164.01654-.0033.04554-.16239-.01293Z"/><path class="s" d="M3.16248,5.03925l-.16916.03093L2.9831,5.02031,3.152,4.9875Z"/><path class="t" d="M2.98174,6.07769l.17148-.02815.00927.04674-.16779.03529Z"/><path class="s" d="M3.58188,4.13112l.16535.018-.00538.0479-.16521-.01959Z"/><path class="ab" d="M2.85138,4.04336l-.21543-.01062.0012-.03839h.219Z"/><path class="ab" d="M2.8566,7.45355H2.643l-.00335-.02572h.21526Z"/><path class="s" d="M3.58087,4.28777l.16543.01717L3.741,4.35556,3.57545,4.3385Z"/><path class="y" d="M2.63905,4.57038l.212.0114.00128.03372H2.64009Z"/><path class="w" d="M4.27191,5.84716l.213.03059-.0067.04842-.21267-.0349Z"/><path class="aa" d="M2.85436,7.5911h-.2175l-.00061-.03221H2.8521Z"/><path class="g" d="M2.63628,7.26086h.219l.00018.03177H2.63648Z"/><path class="w" d="M4.4733,4.83143,4.265,4.79324l.00932-.04488.20767.0411Z"/><path class="ab" d="M4.27211,4.90549l.20754.03421-.00646.04469L4.266,4.95671Z"/><path class="l" d="M2.63754,5.45535l.21788.01105L2.855,5.50126H2.63778Z"/><path class="l" d="M4.478,5.61448l-.21323-.03284.0083-.0467.2126.03511Z"/><path class="g" d="M4.47781,5.77367,4.26547,5.735l.00929-.04605.212.03932Z"/><path class="s" d="M3.15871,5.80863l-.16585.02622-.00938-.04834.16721-.03209Z"/><path class="z" d="M2.85369,5.34771H2.6385l-.00041-.03366H2.853Z"/><path class="aa" d="M2.85405,6.12458l-.21719-.01137-.00011-.0364h.218Z"/><path class="t" d="M3.15142,6.26468l-.15943.0197L2.985,6.236l.16793-.02449Z"/><ellipse class="w" cx="2.74612" cy="6.2506" rx="0.15254" ry="0.02133"/><path class="aa" d="M2.85469,6.4013h-.2183l-.00037-.032h.21766Z"/><path class="y" d="M2.98471,6.52364,3.15434,6.501l.00711.0474-.16984.02731Z"/><path class="g" d="M2.8552,6.562H2.63705V6.529h.21779Z"/><path class="ab" d="M2.85336,6.85451H2.63451l.00018-.03294h.21947Z"/><path class="w" d="M2.98468,6.96765,3.154,6.94379l.00693.04684-.16628.02894Z"/><path class="t" d="M3.15952,7.29078l-.16762.02234-.00875-.04767L3.152,7.234Z"/><path class="w" d="M3.583,5.30888l.16422.01776-.0035.04466-.16061-.01189Z"/><path class="aa" d="M3.58041,3.9938l.16151.00738-.00042.0482-.16177-.009Z"/><path class="g" d="M4.27357,5.06l.20916.041-.00825.04392-.20786-.035Z"/><path class="z" d="M3.73919,4.648,3.5774,4.62854l.00411-.044.16535.01174Z"/><path class="g" d="M3.73561,6.88118l-.15677-.02174.00352-.03991.16252.01419Z"/><path class="ab" d="M4.47465,5.45994l-.2078-.03747L4.2727,5.3812l.21231.02925Z"/><path class="ab" d="M3.1594,4.74631l-.16646.028-.00869-.048.16521-.03114Z"/><path class="w" d="M2.98587,7.12376l.1669-.022.00638.04356L2.993,7.17585Z"/><path class="aa" d="M3.5804,6.08713H3.742l.00052.03625h-.1617Z"/><path class="ab" d="M3.73594,4.49035,3.57856,4.47l.0064-.04326.15773.01963Z"/><path class="ab" d="M3.58231,6.2316l.16437.01994-.0055.04537-.1641-.02233Z"/><path class="y" d="M3.15933,5.49254l-.16178.02531L2.98973,5.4709l.16173-.02554Z"/><path class="t" d="M3.154,5.34346l-.15778.01918-.00745-.04715.16445-.02779Z"/><path class="y" d="M3.16108,6.39561,2.996,6.41626l-.00836-.044.163-.0328Z"/><path class="w" d="M3.58342,7.41209l.16622.02426L3.744,7.48051,3.578,7.4635Z"/><path class="ab" d="M4.4751,5.30208l-.20726-.03435.00679-.04456.20767.03151Z"/><path class="g" d="M3.5839,6.51817l.16325.02358-.00541.04332-.163-.01667Z"/><path class="aa" d="M3.15866,5.66828l-.16425.02688L2.98578,5.6478,3.15,5.61537Z"/><path class="ab" d="M2.98587,4.28912,3.1521,4.2683l.0071.04266L2.995,4.34329Z"/><path class="g" d="M3.5859,7.55279l.16081.02212-.00534.04156-.15553-.01776Z"/><path class="w" d="M3.585,6.35983l.16154.02254-.00485.04391L3.5798,6.409Z"/><path class="y" d="M3.43422,4.77006l-.13-.02048L3.308,4.706l.13414.01147Z"/><path class="ab" d="M3.58315,7.25527l.16418.02319-.005.04305-.16213-.01586Z"/><path class="w" d="M3.7433,7.184l-.16392-.01378.00312-.04412.16407.01263Z"/><path class="w" d="M3.30958,6.50472l.13407.02138-.00557.04227-.13473-.01216Z"/><path class="g" d="M3.73339,5.239l-.15512-.02412.00417-.04137.15918.01509Z"/><path class="aa" d="M3.14631,4.90785l-.15228.017-.00435-.0442.162-.02107Z"/><path class="y" d="M3.43323,5.98427l-.1258-.01763.00273-.03893.12957.00567Z"/><path class="ab" d="M3.95448,4.59819h.20179l.00164.02859H3.95605Z"/><path class="z" d="M2.98912,4.58609l.16211-.02682.00887.04027-.16066.03818Z"/><path class="ab" d="M3.158,4.02418l-.16144.01926-.00678-.04552.15994-.025Z"/><path class="y" d="M3.15679,4.45263l-.1607.02519-.00844-.045.16082-.03127Z"/><path class="w" d="M2.98927,4.13489l.1615-.0262.00817.04346-.16054.031Z"/><path class="ab" d="M3.73466,5.84612l-.15679-.02485.00406-.04134.16112.01422Z"/><path class="w" d="M3.43649,7.00912l-.13293-.01653.005-.04225.13291.01618Z"/><path class="ab" d="M3.97209,4.14236H4.158l.0014.04373h-.1913Z"/><path class="z" d="M3.31282,6.05565l.13044.02275-.00612.04188L3.30529,6.106Z"/><path class="w" d="M3.58488,5.01123,3.742,5.03l-.0044.04445-.1592-.01291Z"/><path class="ab" d="M3.73424,4.785,3.578,4.766l.00349-.04342.15989.01124Z"/><path class="y" d="M3.31285,6.21682l.1278.01381-.00345.04226-.12811-.00867Z"/><path class="aa" d="M3.43535,5.51236l-.1292-.01416.005-.04309.1291.01535Z"/><path class="aa" d="M3.73556,5.70452,3.58,5.68789l.00361-.0442.15613.01081Z"/><path class="z" d="M3.30666,6.35308l.13422.00865-.002.0425-.13439-.00637Z"/><path class="aa" d="M3.72816,5.53249l-.14648-.02273.00451-.03854.15586.01686Z"/><path class="w" d="M3.58323,4.87292l.16405.02378-.008.04866-.16363-.0268Z"/><path class="ab" d="M3.735,7.02979l-.15693-.02067L3.58221,6.965l.16288.01413Z"/><path class="g" d="M2.98663,7.55993l.16529-.02459.00723.04184L2.994,7.6035Z"/><path class="aa" d="M3.43134,5.82838l-.12592-.02161.00531-.03868.12878.0141Z"/><path class="y" d="M3.31381,7.10231l.12871.02117L3.43764,7.165l-.13259-.01469Z"/><path class="z" d="M3.43615,4.924l-.12941-.01774.00585-.0443.12929.01851Z"/><path class="y" d="M3.313,5.29381l.127.0146-.00336.04179-.12814-.00632Z"/><path class="g" d="M4.23559,7.96159l.00974-.0398c.086-.00163.17218-.00667.25791-.00248.02205.00108.04268.03128.064.0481Z"/><path class="ab" d="M3.99823,4.30226h.16054l.0016.04529-.16783,0Z"/><path class="r" d="M3.09389,5.96781l-.09572.01534-.00592-.04136.15511-.01557L3.134,5.96615Z"/><path class="ab" d="M3.30987,5.6274l.13029.0136-.00383.0437L3.306,5.67194Z"/><path class="ab" d="M3.30718,7.53871l.13375.01591-.00279.02966H3.30669Z"/><path class="aa" d="M3.31166,5.1975l.117-.049.01467.043-.05022.0254Z"/><path class="s" d="M2.83581,5.9388c-.00733.01724-.01585.04978-.0218.04933-.05506-.00428-.10967-.01426-.16442-.02258l.10924-.03046.05366.00192Z"/><path class="ab" d="M3.15739,6.68519l-.15937.025-.00687-.04531.15966-.02265Z"/><path class="w" d="M3.31525,4.40622,3.4415,4.427l-.00444.03946-.12878-.01005Z"/><path class="z" d="M3.682,5.98831l-.10227-.005L3.58427,5.934l.1486.02834Z"/><path class="aa" d="M2.9914,6.8206l.16137-.02147.0067.04261L3.001,6.86743Z"/><path class="g" d="M3.313,6.79842l.12855.023L3.436,6.85991l-.12715-.01223Z"/><path class="g" d="M3.31148,5.03935l.11819-.04049.0118.04362-.04817.01627Z"/><path class="aa" d="M3.43586,4.03418,3.31062,4.025l.00277-.04119.12529.0091Z"/><path class="aa" d="M3.31274,4.11165l.1248.016-.00333.03942-.12456-.00566Z"/><path class="ab" d="M3.31306,6.64485l.12721.01689-.0053.04009-.12736-.01574Z"/><path class="g" d="M3.31228,4.269l.12688.01962-.004.03909L3.30944,4.32Z"/><path class="l" d="M3.43138,4.62443,3.309,4.60953l.00372-.039.1213.00909Z"/><path class="s" d="M3.41675,7.2567l.02285.0357-.12637-.01193Z"/><path class="r" d="M3.99823,4.30226l-.0057.04527-.11864-.01686.00436-.03851Z"/><path class="ac" d="M3.41787,7.41311l.01892.043-.07852-.00594Z"/><path class="m" d="M3.41787,7.41311l-.0596.037L3.311,7.43083l.00518-.02562Z"/><path class="r" d="M3.97209,4.14236l-.004.04372-.09387-.016.00249-.02775Z"/><path class="e" d="M2.75884,5.93509l-.10924.03046L2.64954,5.965l.0036-.02958Z"/><path class="m" d="M3.41675,7.25669l-.10352.02378Z"/><path class="g" d="M3.682,5.98831l.05085-.02593Z"/><path class="v" d="M3.31166,5.1975l.0814.01944Z"/><path class="v" d="M3.31148,5.03935l.08182.01941Z"/><path class="g" d="M3.88236,4.598h.06972l-.00086.02934-.06958-.00439Z"/><path class="ac" d="M4.03418,7.1381l-.0631-.00984Z"/><path class="s" d="M3.09389,5.96781,3.134,5.96615Z"/><path class="s" d="M2.65315,5.93537l-.0036.02958-.01648-.0118Z"/><path class="ac" d="M4.15522,7.17186,4.161,7.146Z"/><path class="ac" d="M4.16075,7.14524l-.04059-.014Z"/><path class="e" d="M2.83581,5.9388,2.81249,5.937A.02308.02308,0,0,1,2.83581,5.9388Z"/><path class="q" d="M2.99994,7.97342l.25932.03266-.09292.06669-.07664.00047-.05856-.04477L2.9958,8.02028Z"/><path class="s" d="M3.16634,8.07277l.09292-.06669.0073-.00008.15335.01676.0015.04224Z"/><path class="r" d="M2.65361,8.15525l.00129.04257-.13422.002-.00114-.04238Z"/><path class="t" d="M2.31126,8.161l-.08073.00265Z"/><path class="t" d="M2.42564,8.15871l-.06359.001Z"/><path class="r" d="M3.03115,8.02847l.05855.04477-.06765-.005Z"/><path class="s" d="M3.52164,8.06361l.03059-.00044Z"/><path class="t" d="M2.11375,8.10013l-.008-.021.00845-.00832Z"/><path class="t" d="M2.1792,8.16757l-.02775.00173Z"/><path class="ac" d="M4.24053,8.0125l-.03464.00177Z"/><path class="ac" d="M5.29474,8.01452,5.21,8.012Z"/><path class="x" d="M5.21123,8.053l.10746.0015Z"/></svg>