<svg xmlns="http://www.w3.org/2000/svg" viewBox="0 0 108.76596 27.67578"><defs><style>.a{fill:#fff;}.b{fill:#b0daea;stroke:#6ab8e2;stroke-miterlimit:10;}.b,.c{stroke-width:0.46589px;}.c,.e{fill:none;stroke-linecap:round;stroke-linejoin:round;}.c{stroke:#fff;}.d{fill:#cee6ea;}.e{stroke:#2d2a28;stroke-width:0.5px;}.f{fill:#2d2a28;}</style></defs><rect class="a" width="108.76596" height="27.66001" rx="3.83937"/><path class="b" d="M24.09837,14.04921h0a4.74813,4.74813,0,0,1,4.74813,4.74813v0a4.74813,4.74813,0,0,1-4.74813,4.74813h0a4.74812,4.74812,0,0,1-4.74812-4.74812v0A4.74812,4.74812,0,0,1,24.09837,14.04921Z" transform="translate(48.60501 37.05926) rotate(178.73771)"/><path class="c" d="M22.61186,15.7352a2.79194,2.79194,0,0,0-1.49278,1.49389"/><path class="d" d="M27.65438,15.99643c0,.00006,1.49629,5.90366-4.18355,7.27158,0,0,.59129.05718.81726.04841a4.888,4.888,0,0,0,1.34344-.25189,4.64946,4.64946,0,0,0,2.98768-3.832,4.41851,4.41851,0,0,0-.51786-2.5282c-.05721-.11193-.14838-.24387-.213-.35173C27.82693,16.2499,27.65438,15.99643,27.65438,15.99643Z"/><path class="e" d="M24.75528,17.87059l-1.56409,1.56408a.41217.41217,0,0,0,0,.58289h0a.41215.41215,0,0,0,.58289,0l2.16425-2.16425a.82815.82815,0,0,0,0-1.17118h0a.82815.82815,0,0,0-1.17118,0l-2.39472,2.39472a1.21742,1.21742,0,0,0,0,1.72169h0a1.21742,1.21742,0,0,0,1.72169,0L25.88868,19.004"/><path class="f" d="M11.20774,7.98821v2.12793a.15523.15523,0,0,1-.04493.11523.15751.15751,0,0,1-.11523.0459h-.294a.15824.15824,0,0,1-.11621-.0459.15526.15526,0,0,1-.04492-.11523V8.02336a1.06429,1.06429,0,0,0-1.2041-1.2041H8.88449q-.07031.44093-.10156.73145a5.13617,5.13617,0,0,0-.02441.66113l.01367,1.9043a.15691.15691,0,0,1-.16113.16113l-.97266-.01465a.15907.15907,0,0,1-.11621-.04492.15679.15679,0,0,1-.04492-.11523v-.21a.154.154,0,0,1,.16113-.16114l.53906.00684V8.24016q-.00732-.44091.01758-.74609a4.24778,4.24778,0,0,1,.11524-.67481H7.93235a.16549.16549,0,0,1-.11524-.042.14309.14309,0,0,1-.0459-.1123V6.44133a.15111.15111,0,0,1,.0459-.11914.16114.16114,0,0,1,.11524-.042h1.498Q11.20872,6.2802,11.20774,7.98821Z"/><path class="f" d="M12.30344,10.23137a.156.156,0,0,1-.0459-.11523V6.44133a.15449.15449,0,0,1,.0459-.11914.16113.16113,0,0,1,.11523-.042h.30762a.154.154,0,0,1,.16113.16113v3.67481a.15522.15522,0,0,1-.04492.11523.15978.15978,0,0,1-.11621.0459h-.30762A.156.156,0,0,1,12.30344,10.23137Z"/><path class="f" d="M14.5261,7.39348a1.24064,1.24064,0,0,0,.06347.44043.31524.31524,0,0,0,.2168.20313l.26562.07031a.13012.13012,0,0,1,.08789.07324.29953.29953,0,0,1,.03125.14356v.16113a.11513.11513,0,0,1-.07714.11133.28493.28493,0,0,1-.168.02148l-.27246-.05566q-.7002-.15381-.7002-1.19043V6.44133a.15449.15449,0,0,1,.0459-.11914.16113.16113,0,0,1,.11523-.042h1.28809a1.48354,1.48354,0,0,1,1.16895.44824,1.96738,1.96738,0,0,1,.42675,1.28028c.00489.04687.00684.13574.00684.2666,0,.13476-.002.22656-.00684.27246A1.97023,1.97023,0,0,1,16.59153,9.829a1.48354,1.48354,0,0,1-1.16895.44824h-1.2041a.1569.1569,0,0,1-.16113-.16113V9.88469a.1569.1569,0,0,1,.16113-.16113h1.16894a.93406.93406,0,0,0,.75586-.31445,1.41961,1.41961,0,0,0,.28711-.88868c.00489-.04687.00684-.1289.00684-.24511,0-.11231-.002-.19141-.00684-.23828a1.38227,1.38227,0,0,0-.2832-.88868.9469.9469,0,0,0-.75977-.31543H14.5261Z"/><path class="f" d="M20.448,8.05071a1.44447,1.44447,0,0,1-.6582.58789l.72851,1.05078a.33593.33593,0,0,1,.084.21v.2168a.15691.15691,0,0,1-.16114.16113h-2.5205a.15691.15691,0,0,1-.16114-.16113V9.88469a.14431.14431,0,0,1,.0459-.11133.16115.16115,0,0,1,.11524-.042h1.90429l-2.1914-3.17871a.30539.30539,0,0,1-.05567-.13281.12707.12707,0,0,1,.0459-.09766.15277.15277,0,0,1,.1084-.042h.30762a.22464.22464,0,0,1,.18945.11231l1.25293,1.80566a1.13866,1.13866,0,0,0,.59473-1.14844v-.6084a.15111.15111,0,0,1,.0459-.11914.16111.16111,0,0,1,.11523-.042h.27246a.154.154,0,0,1,.16113.16113v.68555A1.80321,1.80321,0,0,1,20.448,8.05071Z"/><path class="f" d="M23.657,6.46184a1.09849,1.09849,0,0,1,.543.58106,2.80746,2.80746,0,0,1,.168,1.06445,2.04379,2.04379,0,0,1-.4414,1.39648,2.60084,2.60084,0,0,1-1.14746.73828l-.29395.09766a.12255.12255,0,0,1-.0498.00684.1253.1253,0,0,1-.126-.13282V9.90618a.2061.2061,0,0,1,.1543-.18946l.27343-.10449a1.60974,1.60974,0,0,0,.74121-.52539A1.65314,1.65314,0,0,0,23.738,8.079a1.98055,1.98055,0,0,0-.1123-.73828.71669.71669,0,0,0-.36719-.38867,1.70614,1.70614,0,0,0-.7041-.11915h-.23731l-.64453-.00683a.16113.16113,0,0,1-.11523-.042.1464.1464,0,0,1-.0459-.11231V5.4677a.15691.15691,0,0,1,.16113-.16113h.28027a.1464.1464,0,0,1,.11231.0459.16719.16719,0,0,1,.042.11523v.8125h.53809A2.34429,2.34429,0,0,1,23.657,6.46184Z"/><path class="f" d="M30.19113,10.13665a.13377.13377,0,0,1-.042.09863.13539.13539,0,0,1-.09765.042h-.31543a.18042.18042,0,0,1-.13965-.05273c-.03223-.03516-.05176-.05469-.05567-.05957L27.94406,7.9179a1.10207,1.10207,0,0,0-.40918.51464,1.8966,1.8966,0,0,0-.10839.6543v1.0293a.15691.15691,0,0,1-.16114.16113h-.25879a.15691.15691,0,0,1-.16113-.16113V9.0595a2.3858,2.3858,0,0,1,.15723-.90332,1.58237,1.58237,0,0,1,.62012-.69336l-.65137-.91016a.26213.26213,0,0,1-.04883-.13281.14354.14354,0,0,1,.13965-.13965h.30859a.23681.23681,0,0,1,.19531.11914l1.47071,2.05078a1.17623,1.17623,0,0,0,.36719-.30761.78387.78387,0,0,0,.14355-.31934A2.42283,2.42283,0,0,0,29.5759,7.414V6.44133a.15907.15907,0,0,1,.04492-.11621.15682.15682,0,0,1,.11524-.04492h.27343a.15527.15527,0,0,1,.11524.04492.15984.15984,0,0,1,.0459.11621v1.001a1.84574,1.84574,0,0,1-.165.81543,1.60094,1.60094,0,0,1-.66113.63281l.79785,1.11328A.2111.2111,0,0,1,30.19113,10.13665Z"/><path class="f" d="M33.14231,6.46184a1.09854,1.09854,0,0,1,.543.58106,2.80767,2.80767,0,0,1,.168,1.06445,2.04379,2.04379,0,0,1-.4414,1.39648,2.60084,2.60084,0,0,1-1.14746.73828l-.294.09766a.12252.12252,0,0,1-.0498.00684.1253.1253,0,0,1-.126-.13282V9.90618a.2061.2061,0,0,1,.1543-.18946l.27343-.10449a1.60983,1.60983,0,0,0,.74122-.52539A1.65321,1.65321,0,0,0,33.22336,8.079a1.98035,1.98035,0,0,0-.1123-.73828.71669.71669,0,0,0-.36719-.38867,1.70611,1.70611,0,0,0-.7041-.11915h-.23731l-.64453-.00683a.16113.16113,0,0,1-.11523-.042.1464.1464,0,0,1-.0459-.11231V5.4677a.15691.15691,0,0,1,.16113-.16113h.28028a.1464.1464,0,0,1,.1123.0459.16719.16719,0,0,1,.042.11523v.8125h.53809A2.34429,2.34429,0,0,1,33.14231,6.46184Z"/><path class="f" d="M36.80344,6.46184a1.09854,1.09854,0,0,1,.543.58106,2.80746,2.80746,0,0,1,.168,1.06445A2.04374,2.04374,0,0,1,37.073,9.50383a2.60079,2.60079,0,0,1-1.14746.73828l-.294.09766a.12249.12249,0,0,1-.0498.00684.12531.12531,0,0,1-.126-.13282V9.90618a.2061.2061,0,0,1,.1543-.18946l.27344-.10449a1.60979,1.60979,0,0,0,.74121-.52539A1.65321,1.65321,0,0,0,36.88449,8.079a1.98035,1.98035,0,0,0-.1123-.73828.71669.71669,0,0,0-.36719-.38867,1.70611,1.70611,0,0,0-.7041-.11915h-.2373l-.64454-.00683a.16113.16113,0,0,1-.11523-.042.14644.14644,0,0,1-.0459-.11231V5.4677a.15755.15755,0,0,1,.0459-.11523.156.156,0,0,1,.11523-.0459h.28028a.1464.1464,0,0,1,.1123.0459.16714.16714,0,0,1,.042.11523v.8125h.53809A2.34422,2.34422,0,0,1,36.80344,6.46184Z"/><path class="f" d="M40.20578,10.23137a.156.156,0,0,1-.0459-.11523V6.44133a.15449.15449,0,0,1,.0459-.11914.16115.16115,0,0,1,.11524-.042h1.32324a1.843,1.843,0,0,1,1.333.42676,1.71437,1.71437,0,0,1,.4375,1.28125v2.12793a.15526.15526,0,0,1-.04492.11523.15981.15981,0,0,1-.11622.0459H40.321A.156.156,0,0,1,40.20578,10.23137Zm2.60743-.5v-1.708a1.06429,1.06429,0,0,0-1.20411-1.2041h-.86816V9.73137Z"/><path class="f" d="M47.29953,6.32219a.15986.15986,0,0,1,.042.11914V6.665a.14643.14643,0,0,1-.0459.1123.16551.16551,0,0,1-.11524.042h-.41308a.75981.75981,0,0,0-.15723.3291,1.94924,1.94924,0,0,0-.05957.50391V10.123a.14212.14212,0,0,1-.04883.11231.181.181,0,0,1-.11914.042H46.0886a.15494.15494,0,0,1-.11231-.042.151.151,0,0,1-.042-.11231V7.61028A2.146,2.146,0,0,1,45.98313,7.12a.734.734,0,0,1,.13281-.30078H44.1843a.16551.16551,0,0,1-.11524-.042.14642.14642,0,0,1-.04589-.1123V6.44133a.15983.15983,0,0,1,.04589-.11621.15528.15528,0,0,1,.11524-.04492h2.99609A.15984.15984,0,0,1,47.29953,6.32219Z"/><path class="f" d="M49.65207,10.34661a.12387.12387,0,0,1-.126-.13282V9.90618a.205.205,0,0,1,.15332-.18946l.27343-.10449a1.61284,1.61284,0,0,0,.74219-.52539A1.6601,1.6601,0,0,0,50.95383,8.079a1.96065,1.96065,0,0,0-.1123-.73828.71328.71328,0,0,0-.36719-.38867,1.70426,1.70426,0,0,0-.70313-.11915H48.37082a.15522.15522,0,0,1-.11523-.04492.15978.15978,0,0,1-.0459-.11621V6.4345a.1464.1464,0,0,1,.0459-.11231.16113.16113,0,0,1,.11523-.042H49.8552a2.36868,2.36868,0,0,1,1.01855.18164,1.10042,1.10042,0,0,1,.542.58106,2.78827,2.78827,0,0,1,.168,1.06445,2.03889,2.03889,0,0,1-.4414,1.39648,2.5953,2.5953,0,0,1-1.14746.73828l-.294.09766A.11718.11718,0,0,1,49.65207,10.34661Zm-1.39648,1.22558a.15444.15444,0,0,1-.0459-.11914V7.7636a.15755.15755,0,0,1,.0459-.11524.15526.15526,0,0,1,.11523-.04492h.28711a.15528.15528,0,0,1,.11524.04492.15759.15759,0,0,1,.04589.11524v3.68945a.15688.15688,0,0,1-.16113.16113h-.28711A.16113.16113,0,0,1,48.25559,11.57219Z"/><path class="f" d="M56.13352,7.98821v2.12793a.15526.15526,0,0,1-.04492.11523.15755.15755,0,0,1-.11524.0459h-.29394a.1582.1582,0,0,1-.11621-.0459.15523.15523,0,0,1-.04493-.11523V8.02336a1.06428,1.06428,0,0,0-1.2041-1.2041h-.5039q-.07032.44093-.10157.73145a5.138,5.138,0,0,0-.02441.66113l.01367,1.9043a.15691.15691,0,0,1-.16113.16113l-.97266-.01465a.15907.15907,0,0,1-.11621-.04492.15679.15679,0,0,1-.04492-.11523v-.21a.154.154,0,0,1,.16113-.16114l.53906.00684V8.24016q-.00732-.44091.01758-.74609a4.24778,4.24778,0,0,1,.11524-.67481h-.37793a.16551.16551,0,0,1-.11524-.042.14309.14309,0,0,1-.0459-.1123V6.44133a.15111.15111,0,0,1,.0459-.11914.16115.16115,0,0,1,.11524-.042h1.498Q56.1345,6.2802,56.13352,7.98821Z"/><path class="f" d="M59.88938,10.23137a.15232.15232,0,0,1-.0459-.11523V8.02336a1.06141,1.06141,0,0,0-1.19727-1.2041H57.34446a.16549.16549,0,0,1-.11524-.042.14643.14643,0,0,1-.0459-.1123V6.44133a.15449.15449,0,0,1,.0459-.11914.16114.16114,0,0,1,.11524-.042h1.33691a1.54742,1.54742,0,0,1,1.77832,1.72168v2.11426a.15691.15691,0,0,1-.16113.16113h-.294A.156.156,0,0,1,59.88938,10.23137Zm-2.66016,0a.156.156,0,0,1-.0459-.11523V7.7636a.15759.15759,0,0,1,.0459-.11524.15527.15527,0,0,1,.11524-.04492h.29394a.15524.15524,0,0,1,.11523.04492.15755.15755,0,0,1,.0459.11524v2.35254a.15691.15691,0,0,1-.16113.16113h-.29394A.156.156,0,0,1,57.22922,10.23137Z"/><path class="f" d="M63.40305,6.46184a1.09854,1.09854,0,0,1,.543.58106,2.80746,2.80746,0,0,1,.168,1.06445,2.04374,2.04374,0,0,1-.44141,1.39648,2.60084,2.60084,0,0,1-1.14746.73828l-.294.09766a.12249.12249,0,0,1-.0498.00684.12531.12531,0,0,1-.126-.13282V9.90618a.2061.2061,0,0,1,.1543-.18946l.27344-.10449a1.60979,1.60979,0,0,0,.74121-.52539A1.65321,1.65321,0,0,0,63.4841,8.079a1.98035,1.98035,0,0,0-.1123-.73828.71669.71669,0,0,0-.36719-.38867,1.70611,1.70611,0,0,0-.7041-.11915h-.2373l-.64454-.00683a.16113.16113,0,0,1-.11523-.042.14644.14644,0,0,1-.0459-.11231V5.4677a.15755.15755,0,0,1,.0459-.11523.156.156,0,0,1,.11523-.0459H61.699a.1464.1464,0,0,1,.1123.0459.16714.16714,0,0,1,.042.11523v.8125h.53809A2.34426,2.34426,0,0,1,63.40305,6.46184Z"/><path class="f" d="M66.80539,11.10344a.15594.15594,0,0,1-.0459-.11914v-4.543a.15449.15449,0,0,1,.0459-.11914.16115.16115,0,0,1,.11524-.042h.29394a.15528.15528,0,0,1,.11524.04492.15984.15984,0,0,1,.0459.11621v4.543a.15759.15759,0,0,1-.0459.11524.156.156,0,0,1-.11524.04589h-.29394A.16546.16546,0,0,1,66.80539,11.10344Z"/><path class="f" d="M72.02317,7.98821v2.12793a.15523.15523,0,0,1-.04493.11523.15751.15751,0,0,1-.11523.0459h-.294a.15824.15824,0,0,1-.11621-.0459.15526.15526,0,0,1-.04492-.11523V8.02336a1.06429,1.06429,0,0,0-1.2041-1.2041h-.50391q-.07031.44093-.10156.73145a5.13617,5.13617,0,0,0-.02441.66113l.01367,1.9043a.15691.15691,0,0,1-.16113.16113l-.97266-.01465a.15907.15907,0,0,1-.11621-.04492.15679.15679,0,0,1-.04492-.11523v-.21a.154.154,0,0,1,.16113-.16114l.53906.00684V8.24016q-.00732-.44091.01758-.74609a4.24778,4.24778,0,0,1,.11524-.67481h-.37793a.16549.16549,0,0,1-.11524-.042.14309.14309,0,0,1-.0459-.1123V6.44133a.15111.15111,0,0,1,.0459-.11914.16114.16114,0,0,1,.11524-.042h1.498Q72.02415,6.2802,72.02317,7.98821Z"/><path class="f" d="M73.07,8.60735a.15232.15232,0,0,1-.0459-.11524V6.44133a.15111.15111,0,0,1,.0459-.11914.16114.16114,0,0,1,.11524-.042h.30761a.15528.15528,0,0,1,.11524.04492.15984.15984,0,0,1,.0459.11621V8.49211a.15691.15691,0,0,1-.16114.16114h-.30761A.156.156,0,0,1,73.07,8.60735Z"/><path class="f" d="M76.64328,10.13665a.12668.12668,0,0,1-.0459.10156.1591.1591,0,0,1-.10839.03906H74.61985a.15754.15754,0,0,1-.11524-.0459.15526.15526,0,0,1-.04492-.11523V9.89251a.1539.1539,0,0,1,.16016-.16114h1.37988l-.11231-1.77832q-.03515-.45557-.07324-.66894a.63615.63615,0,0,0-.17187-.34571.5633.5633,0,0,0-.41309-.13379h-.28711a.16113.16113,0,0,1-.11523-.042.14283.14283,0,0,1-.0459-.11133V6.42668a.15691.15691,0,0,1,.16113-.16113h.28711a1.28509,1.28509,0,0,1,.77344.2002,1.01045,1.01045,0,0,1,.37109.54883,4.38189,4.38189,0,0,1,.13672.917l.13281,2.18457Z"/><path class="f" d="M82.43137,10.13665a.13377.13377,0,0,1-.042.09863.13543.13543,0,0,1-.09766.042h-.31543a.18044.18044,0,0,1-.13965-.05273c-.03222-.03516-.05176-.05469-.05566-.05957L80.1843,7.9179a1.10194,1.10194,0,0,0-.40918.51464,1.89636,1.89636,0,0,0-.1084.6543v1.0293a.15691.15691,0,0,1-.16113.16113H79.2468a.1569.1569,0,0,1-.16113-.16113V9.0595a2.38581,2.38581,0,0,1,.15722-.90332,1.58243,1.58243,0,0,1,.62012-.69336l-.65137-.91016a.26222.26222,0,0,1-.04883-.13281.14356.14356,0,0,1,.13965-.13965h.3086a.23681.23681,0,0,1,.19531.11914l1.4707,2.05078a1.17623,1.17623,0,0,0,.36719-.30761.78374.78374,0,0,0,.14355-.31934,2.42178,2.42178,0,0,0,.02832-.40918V6.44133a.159.159,0,0,1,.04493-.11621.15678.15678,0,0,1,.11523-.04492h.27344a.15526.15526,0,0,1,.11523.04492.1598.1598,0,0,1,.0459.11621v1.001a1.84574,1.84574,0,0,1-.165.81543,1.60088,1.60088,0,0,1-.66113.63281l.79785,1.11328A.21111.21111,0,0,1,82.43137,10.13665Z"/><path class="f" d="M85.38254,6.46184a1.09851,1.09851,0,0,1,.543.58106,2.80746,2.80746,0,0,1,.168,1.06445,2.04374,2.04374,0,0,1-.44141,1.39648,2.60079,2.60079,0,0,1-1.14746.73828l-.29394.09766a.12257.12257,0,0,1-.04981.00684.12531.12531,0,0,1-.126-.13282V9.90618a.2061.2061,0,0,1,.1543-.18946l.27344-.10449a1.60974,1.60974,0,0,0,.74121-.52539A1.65321,1.65321,0,0,0,85.4636,8.079a1.98032,1.98032,0,0,0-.11231-.73828.71662.71662,0,0,0-.36719-.38867,1.70608,1.70608,0,0,0-.7041-.11915h-.2373l-.64453-.00683a.16115.16115,0,0,1-.11524-.042.14644.14644,0,0,1-.0459-.11231V5.4677a.15691.15691,0,0,1,.16114-.16113h.28027a.1464.1464,0,0,1,.1123.0459.16715.16715,0,0,1,.042.11523v.8125h.53808A2.34422,2.34422,0,0,1,85.38254,6.46184Z"/><path class="f" d="M34.1843,17.46184a1.09854,1.09854,0,0,1,.543.58106,2.80746,2.80746,0,0,1,.168,1.06445,2.04374,2.04374,0,0,1-.44141,1.39648,2.60084,2.60084,0,0,1-1.14746.73828l-.294.09766a.12249.12249,0,0,1-.0498.00684.12531.12531,0,0,1-.126-.13282v-.30761a.2061.2061,0,0,1,.1543-.18946l.27344-.10449a1.60979,1.60979,0,0,0,.74121-.52539,1.65321,1.65321,0,0,0,.25976-1.00781,1.98035,1.98035,0,0,0-.1123-.73828.71669.71669,0,0,0-.36719-.38867,1.70611,1.70611,0,0,0-.7041-.11915h-.2373l-.64454-.00683a.16113.16113,0,0,1-.11523-.042.14644.14644,0,0,1-.0459-.11231V16.4677a.15755.15755,0,0,1,.0459-.11523.156.156,0,0,1,.11523-.0459h.28028a.1464.1464,0,0,1,.1123.0459.16714.16714,0,0,1,.042.11523v.8125h.53809A2.34426,2.34426,0,0,1,34.1843,17.46184Z"/><path class="f" d="M38.75266,17.32219a.16386.16386,0,0,1,.042.11914V19.373a1.70128,1.70128,0,0,1-.40625,1.10938,2.16475,2.16475,0,0,1-1.085.69629l-1.52637.4834a.17232.17232,0,0,1-.05566.00683.14639.14639,0,0,1-.09766-.03515.112.112,0,0,1-.042-.09082v-.2168q0-.16113.11133-.19629l.917-.30762-.91016-3.26172a.83361.83361,0,0,1-.03418-.14062.13322.13322,0,0,1,.042-.09766.13164.13164,0,0,1,.09765-.042h.32227a.17023.17023,0,0,1,.10449.03125.15941.15941,0,0,1,.05664.07324l.89551,3.248a1.41719,1.41719,0,0,0,.77344-.55273,1.6723,1.6723,0,0,0,.2207-.89551V17.44133a.154.154,0,0,1,.16113-.16113h.29395A.16135.16135,0,0,1,38.75266,17.32219Z"/><path class="f" d="M44.27219,21.23137a.15232.15232,0,0,1-.0459-.11523V19.02336a1.0614,1.0614,0,0,0-1.19726-1.2041H41.72727a.16551.16551,0,0,1-.11524-.042.14643.14643,0,0,1-.0459-.1123v-.22364a.15449.15449,0,0,1,.0459-.11914.16115.16115,0,0,1,.11524-.042h1.33691a1.54742,1.54742,0,0,1,1.77832,1.72168v2.11426a.15691.15691,0,0,1-.16113.16113h-.294A.156.156,0,0,1,44.27219,21.23137Zm-2.66016,0a.156.156,0,0,1-.0459-.11523V18.7636a.15759.15759,0,0,1,.0459-.11524.15528.15528,0,0,1,.11524-.04492h.29394a.15528.15528,0,0,1,.11524.04492.15759.15759,0,0,1,.0459.11524v2.35254a.15691.15691,0,0,1-.16114.16113h-.29394A.156.156,0,0,1,41.612,21.23137Z"/><path class="f" d="M48.42551,19.05071a1.44447,1.44447,0,0,1-.6582.58789l.72851,1.05078a.33593.33593,0,0,1,.084.21v.2168a.15691.15691,0,0,1-.16114.16113h-2.5205a.15691.15691,0,0,1-.16114-.16113v-.23145a.14431.14431,0,0,1,.0459-.11133.16115.16115,0,0,1,.11524-.042h1.90429l-2.1914-3.17871a.30539.30539,0,0,1-.05567-.13281.12707.12707,0,0,1,.0459-.09766.15275.15275,0,0,1,.1084-.042h.30762a.22464.22464,0,0,1,.18945.11231l1.25293,1.80566a1.13866,1.13866,0,0,0,.59473-1.14844v-.6084a.15111.15111,0,0,1,.04589-.11914.16115.16115,0,0,1,.11524-.042H48.488a.154.154,0,0,1,.16113.16113v.68555A1.80321,1.80321,0,0,1,48.42551,19.05071Z"/><path class="f" d="M49.60617,19.60735a.15232.15232,0,0,1-.04589-.11524V17.44133a.15111.15111,0,0,1,.04589-.11914.16115.16115,0,0,1,.11524-.042H50.029a.15526.15526,0,0,1,.11523.04492.15984.15984,0,0,1,.0459.11621v2.05078a.15691.15691,0,0,1-.16113.16114h-.30762A.156.156,0,0,1,49.60617,19.60735Z"/><path class="f" d="M51.27121,21.23137a.156.156,0,0,1-.0459-.11523V17.44133a.15449.15449,0,0,1,.0459-.11914.16115.16115,0,0,1,.11524-.042H52.7302a1.85444,1.85444,0,0,1,1.34375.43066,1.72367,1.72367,0,0,1,.4414,1.291v2.11426a.1569.1569,0,0,1-.16113.16113h-.29394a.15691.15691,0,0,1-.16114-.16113V19.02336a1.06428,1.06428,0,0,0-1.2041-1.2041h-.85351v3.29688a.15691.15691,0,0,1-.16114.16113h-.29394A.156.156,0,0,1,51.27121,21.23137Z"/><path class="f" d="M57.45871,17.46184a1.09851,1.09851,0,0,1,.543.58106,2.80746,2.80746,0,0,1,.168,1.06445,2.04374,2.04374,0,0,1-.44141,1.39648,2.60073,2.60073,0,0,1-1.14746.73828l-.29394.09766a.12257.12257,0,0,1-.04981.00684.12529.12529,0,0,1-.126-.13282v-.30761a.20609.20609,0,0,1,.15429-.18946l.27344-.10449a1.60974,1.60974,0,0,0,.74121-.52539,1.65321,1.65321,0,0,0,.25977-1.00781,1.98032,1.98032,0,0,0-.11231-.73828.71663.71663,0,0,0-.36718-.38867,1.70616,1.70616,0,0,0-.70411-.11915h-.2373l-.64453-.00683a.16115.16115,0,0,1-.11524-.042.14643.14643,0,0,1-.04589-.11231V16.4677a.1569.1569,0,0,1,.16113-.16113h.28027a.1464.1464,0,0,1,.11231.0459.16719.16719,0,0,1,.042.11523v.8125H56.447A2.34422,2.34422,0,0,1,57.45871,17.46184Z"/><path class="f" d="M58.9675,21.23137a.16113.16113,0,0,1-.042-.11523v-.22363a.16357.16357,0,0,1,.042-.11622.14574.14574,0,0,1,.11231-.04492h2.02246v-1.708a1.0614,1.0614,0,0,0-1.2041-1.19726h-.749a.14431.14431,0,0,1-.11133-.0459.16113.16113,0,0,1-.042-.11523v-.22364a.16518.16518,0,0,1,.042-.11621.14361.14361,0,0,1,.11133-.04492h.78418q1.793,0,1.792,1.71484v1.73633h.26661a.14359.14359,0,0,1,.11132.04492.16357.16357,0,0,1,.042.11622v.22363a.16114.16114,0,0,1-.042.11523.14425.14425,0,0,1-.11132.0459H59.07981A.1464.1464,0,0,1,58.9675,21.23137Z"/><path class="f" d="M64.56418,21.23137a.156.156,0,0,1-.0459-.11523V17.44133a.15449.15449,0,0,1,.0459-.11914.16115.16115,0,0,1,.11524-.042h1.32324a1.843,1.843,0,0,1,1.333.42676,1.71437,1.71437,0,0,1,.4375,1.28125v2.12793a.15523.15523,0,0,1-.04493.11523.15978.15978,0,0,1-.11621.0459H64.67942A.156.156,0,0,1,64.56418,21.23137Zm2.60742-.5v-1.708a1.06428,1.06428,0,0,0-1.2041-1.2041h-.86816v2.91211Z"/><path class="f" d="M68.82,19.60735a.15232.15232,0,0,1-.0459-.11524V17.44133a.15111.15111,0,0,1,.0459-.11914.16114.16114,0,0,1,.11524-.042h.30761a.15528.15528,0,0,1,.11524.04492.15984.15984,0,0,1,.0459.11621v2.05078a.15691.15691,0,0,1-.16114.16114h-.30761A.156.156,0,0,1,68.82,19.60735Z"/><path class="f" d="M70.82883,20.89543a1.8082,1.8082,0,0,1-.43066-1.29882V17.44133a.15449.15449,0,0,1,.04589-.11914.16115.16115,0,0,1,.11524-.042H72.239a1.73814,1.73814,0,0,1,1.29492.40625,1.84837,1.84837,0,0,1,.42773,1.24512c.00391.04687.00684.17285.00684.3789,0,.20508-.00293.33106-.00684.37793a1.71154,1.71154,0,0,1-.45508,1.2461,1.96341,1.96341,0,0,1-1.38671.41211A1.70544,1.70544,0,0,1,70.82883,20.89543Zm2.22949-.37792a1.19244,1.19244,0,0,0,.30078-.86426c.00489-.04688.00684-.16114.00684-.34278,0-.18261-.00195-.29687-.00684-.34375a1.17328,1.17328,0,0,0-.31836-.85351,1.15246,1.15246,0,0,0-.83691-.29395H70.98606v1.77735a1.266,1.266,0,0,0,.28418.88965,1.08922,1.08922,0,0,0,.84277.30761A1.33364,1.33364,0,0,0,73.05832,20.51751Z"/><path class="f" d="M75.45188,18.39348a1.24064,1.24064,0,0,0,.06347.44043.31526.31526,0,0,0,.2168.20313l.26563.07031a.13016.13016,0,0,1,.08789.07324.29965.29965,0,0,1,.03125.14356v.16113a.11513.11513,0,0,1-.07715.11133.28493.28493,0,0,1-.168.02148l-.27246-.05566q-.7002-.15381-.7002-1.19043v-.93067a.15449.15449,0,0,1,.0459-.11914.16114.16114,0,0,1,.11524-.042h1.28808a1.48354,1.48354,0,0,1,1.16895.44824,1.96738,1.96738,0,0,1,.42675,1.28028c.00489.04687.00684.13574.00684.2666,0,.13476-.002.22656-.00684.27246a1.97023,1.97023,0,0,1-.42675,1.28125,1.48354,1.48354,0,0,1-1.16895.44824h-1.2041a.15691.15691,0,0,1-.16113-.16113v-.23145a.15691.15691,0,0,1,.16113-.16113h1.16895a.93405.93405,0,0,0,.75585-.31445,1.41961,1.41961,0,0,0,.28711-.88868c.00489-.04687.00684-.1289.00684-.24511,0-.11231-.002-.19141-.00684-.23828a1.38227,1.38227,0,0,0-.2832-.88868.94689.94689,0,0,0-.75976-.31543h-.86133Z"/><path class="f" d="M79.26731,20.90911a1.77568,1.77568,0,0,1-.41993-1.27735V17.44133a.15449.15449,0,0,1,.0459-.11914.16115.16115,0,0,1,.11524-.042h.2666a.15747.15747,0,0,1,.11816.042.15986.15986,0,0,1,.042.11914v2.15528a1.24553,1.24553,0,0,0,.291.88965,1.42405,1.42405,0,0,0,1.73633.02441,1.2351,1.2351,0,0,0,.29-.85742v-.72168a1.37922,1.37922,0,0,0-.24512-.85352.77454.77454,0,0,0-.62988-.28027,1.00147,1.00147,0,0,0-.28028.0459,1.057,1.057,0,0,0-.26562.11523.11578.11578,0,0,1-.07031.02149.13418.13418,0,0,1-.126-.126v-.20313a.47467.47467,0,0,1,.01465-.13281.13957.13957,0,0,1,.07617-.084,1.08358,1.08358,0,0,1,.31152-.14356,1.604,1.604,0,0,1,.417-.0459,1.31251,1.31251,0,0,1,1.03222.39551,1.873,1.873,0,0,1,.375,1.22168c.00391.04688.00684.18457.00684.41309s-.00293.36621-.00684.41308a1.79417,1.79417,0,0,1-.4375,1.249,1.8091,1.8091,0,0,1-1.32031.40918A1.7822,1.7822,0,0,1,79.26731,20.90911Z"/><path class="f" d="M83.0886,21.23137a.16114.16114,0,0,1-.042-.11523v-.22363a.16357.16357,0,0,1,.042-.11622.14573.14573,0,0,1,.1123-.04492h2.02246v-1.708a1.0614,1.0614,0,0,0-1.2041-1.19726h-.749a.14429.14429,0,0,1-.11133-.0459.16113.16113,0,0,1-.042-.11523v-.22364a.16518.16518,0,0,1,.042-.11621.14359.14359,0,0,1,.11133-.04492h.78418q1.793,0,1.792,1.71484v1.73633h.2666a.14361.14361,0,0,1,.11133.04492.16357.16357,0,0,1,.042.11622v.22363a.16113.16113,0,0,1-.042.11523.14427.14427,0,0,1-.11133.0459H83.2009A.1464.1464,0,0,1,83.0886,21.23137Z"/><path class="f" d="M93.4675,16.34368a.62644.62644,0,0,1-.27929-.55762.66427.66427,0,0,1,.124-.37207.8753.8753,0,0,1,.18652-.2168L95.76047,13.122l-3.06738-.34082-.248-.0625a.548.548,0,0,1-.37207-.3252.81431.81431,0,0,1-.06152-.542l.52636-1.58008a.552.552,0,0,1,.3252-.37207.748.748,0,0,1,.51172-.06152l.24805.124,2.66406,1.48633L95.698,8.44329l-.03125-.248a.67308.67308,0,0,1,.20215-.46484.63171.63171,0,0,1,.47949-.2168h1.67383a.63171.63171,0,0,1,.47949.2168.67308.67308,0,0,1,.20215.46484l-.03125.248-.65039,3.03613,2.72656-1.51758.248-.124a.34433.34433,0,0,1,.1543-.03125.84708.84708,0,0,1,.44921.124.4635.4635,0,0,1,.23243.34082l.52636,1.58008.03125.18555a.72279.72279,0,0,1-.13964.41894.64959.64959,0,0,1-.3252.2627l-.24707.0625-3.09863.37109,2.293,2.04492a.85718.85718,0,0,1,.18554.2168.67191.67191,0,0,1,.124.37207.62433.62433,0,0,1-.2793.55762l-1.332.99218a.89522.89522,0,0,1-.40235.09278.60336.60336,0,0,1-.55761-.24805l-.124-.2168-1.30175-2.85058-1.30079,2.85058a.85706.85706,0,0,1-.15527.2168.60655.60655,0,0,1-.55762.24805.89632.89632,0,0,1-.40332-.09278Z"/></svg>