<svg xmlns="http://www.w3.org/2000/svg" viewBox="0 0 60.69839 49.19811"><defs><style>.a{fill:#ff4d4d;}.a,.b{stroke:#be1622;stroke-miterlimit:10;}.b{fill:#fff;}</style></defs><path class="a" d="M8.08845,16.0682V3.26644H1.87067A1.19745,1.19745,0,0,1,.54255,1.96664,1.19766,1.19766,0,0,1,1.87067.66684h8.252a1.19893,1.19893,0,0,1,1.35644,1.35644V16.0682a1.56759,1.56759,0,0,1-1.69531,1.72364A1.56759,1.56759,0,0,1,8.08845,16.0682Zm-6.89551,0V10.52914a7.81112,7.81112,0,0,1,.50879-3.33447,1.6671,1.6671,0,0,1,1.97754-.9043A1.34091,1.34091,0,0,1,4.78181,7.90121a13.98767,13.98767,0,0,0-.19824,2.31738V16.0682a1.5676,1.5676,0,0,1-1.69532,1.72364A1.568,1.568,0,0,1,1.19294,16.0682Z"/><path class="a" d="M24.90485,17.56576a1.56332,1.56332,0,0,1-2.28906-.62158c-1.46875-2.76953-3.05176-5.5669-4.74707-8.33643-.84765.2544-1.01758.64991-.707,1.78028l1.38477,5.25634c.33984,1.24317-.22559,1.978-1.15821,1.978H14.732a1.19767,1.19767,0,0,1-1.32812-1.2998A1.19781,1.19781,0,0,1,14.732,15.0223h.169l-.98828-4.4082a3.387,3.387,0,0,1,2.458-4.352C15.66462,5.16,14.901,4.08627,14.13825,3.01254A1.47912,1.47912,0,0,1,14.56208.7518a1.61059,1.61059,0,0,1,2.26074.56494c1.63965,2.45849,3.19336,4.917,4.66309,7.34765a2.6886,2.6886,0,0,0,.67773-2.14795v-3.25h-.53711a1.19745,1.19745,0,0,1-1.32812-1.2998A1.19766,1.19766,0,0,1,21.62653.66684H24.1988a1.19894,1.19894,0,0,1,1.35645,1.35644V5.8099c0,2.62842-.81934,4.38037-2.51563,5.42578.792,1.35645,1.55469,2.68457,2.28906,4.041A1.64812,1.64812,0,0,1,24.90485,17.56576Z"/><path class="a" d="M37.31306,5.41439V16.29428a1.18153,1.18153,0,0,1-1.32813,1.32812H28.63825a1.198,1.198,0,0,1-1.3291-1.2998,1.1981,1.1981,0,0,1,1.3291-1.3003h5.28418V5.52719c0-1.78028-.36718-2.26075-1.2998-2.26075h-.36719c-1.498.79151-1.97852,2.26075-1.30078,4.63477l.31152,1.102a1.62748,1.62748,0,1,1-3.081.9043l-.31055-1.07373c-.73437-2.51514-.14062-4.46485,1.1875-5.56739h-.42383a1.19774,1.19774,0,0,1-1.3291-1.2998,1.198,1.198,0,0,1,1.3291-1.2998h5.3125C36.15485.66684,37.31306,1.59945,37.31306,5.41439Z"/><path class="a" d="M43.78767,16.0682V6.17758c0-2.17627-.62207-2.91114-2.2041-2.91114H39.74665a1.19745,1.19745,0,0,1-1.32812-1.2998A1.19766,1.19766,0,0,1,39.74665.66684h2.88184c3.19336,0,4.5498,1.61083,4.5498,5.793v9.6084a1.69554,1.69554,0,1,1-3.39062,0Z"/><path class="a" d="M60.12263,6.17758V16.266a1.19894,1.19894,0,0,1-1.35645,1.35644h-3.5039a1.19767,1.19767,0,0,1-1.32813-1.2998,1.19781,1.19781,0,0,1,1.32813-1.3003H56.732V5.64047c0-2.14746-.56543-2.374-1.498-2.374l-2.8545,13.11231a1.52718,1.52718,0,0,1-1.92089,1.35644,1.54712,1.54712,0,0,1-1.21582-2.0625l1.63964-7.09326L49.24275,2.67318c-.28223-1.07373.02832-1.83691.96093-2.063a1.46214,1.46214,0,0,1,1.86524,1.272l.36718,1.49756h.11329l.36718-1.72364A1.22382,1.22382,0,0,1,54.15974.66684h1.61133C58.68122.66684,60.12263,1.96664,60.12263,6.17758Z"/><path class="a" d="M25.40681,39.31332V34.33969h-.791a1.30035,1.30035,0,1,1,0-2.6001H27.442A1.19825,1.19825,0,0,1,28.79743,33.096v6.21729A1.56758,1.56758,0,0,1,27.10212,41.037,1.568,1.568,0,0,1,25.40681,39.31332Z"/><path class="a" d="M37.55915,42.50619l1.752,4.09766c.50879,1.187.02832,2.09131-.98828,2.09131H31.87946a1.30011,1.30011,0,1,1,0-2.59961H35.6656L30.46638,33.972c-.45215-1.07373-.22656-1.92139.73437-2.26074a1.59234,1.59234,0,0,1,2.12012.93262l3.05176,7.12158a2.96368,2.96368,0,0,0,.76269-2.43067V34.33969H36.8531a1.30035,1.30035,0,1,1,0-2.6001h2.31738A1.19893,1.19893,0,0,1,40.52692,33.096V37.3348A5.30382,5.30382,0,0,1,37.55915,42.50619Z"/><path class="a" d="M53.64118,37.5892v9.52344a1.69554,1.69554,0,1,1-3.39062,0V37.47641c0-2.7129-.42383-3.13672-1.8086-3.13672H46.20954v12.773a1.696,1.696,0,1,1-3.3916,0V33.096a1.19894,1.19894,0,0,1,1.35645-1.35644H49.4029C52.73689,31.73959,53.64118,33.03939,53.64118,37.5892Z"/><path class="a" d="M56.72419,47.141V34.33969h-.39551a1.30035,1.30035,0,1,1,0-2.6001h2.43067A1.19894,1.19894,0,0,1,60.11579,33.096V47.141a1.696,1.696,0,1,1-3.3916,0Z"/><path class="b" d="M58.91555,25.57752H14.8091a1.25,1.25,0,0,1,0-2.5H58.91555a1.25,1.25,0,0,1,0,2.5Z"/></svg>