<svg xmlns="http://www.w3.org/2000/svg" viewBox="0 0 24.05071 158.03955"><defs><style>.a,.b,.d,.e,.h{fill:none;}.a{stroke:#29235c;stroke-width:5.60696px;opacity:0.14;}.a,.b,.d,.h{stroke-miterlimit:10;}.b,.e{stroke:#fff;}.b{stroke-width:4.20522px;}.c{fill:#ebf1f4;}.d{stroke:#a0d1ec;stroke-width:1.05131px;}.e{stroke-linecap:round;stroke-linejoin:round;stroke-width:0.96779px;}.f{fill:#cde4ec;}.g{fill:#6d8393;}.h{stroke:#c7dde2;stroke-width:1.7245px;}</style></defs><rect class="a" x="11.44704" y="2.80348" width="9.80019" height="152.43259" rx="4.90009"/><rect class="b" x="11.44704" y="2.80348" width="9.80019" height="152.43259" rx="4.90009"/><rect class="c" x="11.44704" y="2.80348" width="9.80019" height="152.43259" rx="4.90009"/><rect class="d" x="11.44704" y="2.80348" width="9.80019" height="152.43259" rx="4.90009"/><path class="e" d="M13.28634,151.28882a3.28886,3.28886,0,0,0,1.75977,1.75846"/><path class="f" d="M13.63173,4.319c2.50557-.67782,7.01048.12027,7.08185,6.6416V7.68049a4.17856,4.17856,0,0,0-.22576-1.3807c-.521-1.508-2.26308-3.27841-4.2912-2.99906C14.0361,3.59832,13.63173,4.319,13.63173,4.319Z"/><path class="g" d="M.67822,133.90205a.105.105,0,0,1-.03515-.082v-.46a.107.107,0,0,1,.03515-.083.11889.11889,0,0,1,.084-.03223H2.21143a.11564.11564,0,0,1,.084.03223.11933.11933,0,0,1,.03125.083v.46a.12107.12107,0,0,1-.03125.08008.11058.11058,0,0,1-.084.03515H.76221A.11977.11977,0,0,1,.67822,133.90205Z"/><path class="g" d="M2.68213,134.93525a.1162.1162,0,0,1-.0332-.08105v-.34473a.279.279,0,0,1,.11523-.22949l.42773-.41895c.291-.2207.50977-.39257.65821-.51465a2.23612,2.23612,0,0,0,.34179-.334.46614.46614,0,0,0,.11719-.28223.30068.30068,0,0,0-.33984-.34082.35132.35132,0,0,0-.27735.1084.56213.56213,0,0,0-.1289.26856.1402.1402,0,0,1-.15625.10644H2.79932a.09319.09319,0,0,1-.07032-.03027.09212.09212,0,0,1-.02929-.06641,1.03775,1.03775,0,0,1,.168-.5498,1.10342,1.10342,0,0,1,.44335-.39063,1.42692,1.42692,0,0,1,.65821-.14453,1.63792,1.63792,0,0,1,.666.124.9449.9449,0,0,1,.42578.34864.99738.99738,0,0,1-.06054,1.123,3.22568,3.22568,0,0,1-.62305.57911l-.38086.38183H5.15869a.11258.11258,0,0,1,.084.03223.11041.11041,0,0,1,.03125.082v.49219a.11435.11435,0,0,1-.03125.08105.11035.11035,0,0,1-.084.03418H2.76416A.11534.11534,0,0,1,2.68213,134.93525Z"/><path class="g" d="M6.01221,133.17353a.76839.76839,0,0,1-.29493-.2832.79808.79808,0,0,1,0-.7998.773.773,0,0,1,.29493-.28223.85272.85272,0,0,1,.81445,0,.78164.78164,0,0,1,.293.28223.78578.78578,0,0,1,0,.7998.77688.77688,0,0,1-.293.2832.85272.85272,0,0,1-.81445,0Zm.66015-.42968a.37919.37919,0,1,0-.2539.09668A.34088.34088,0,0,0,6.67236,132.74385Z"/><path class="g" d="M2.68213,103.51338a.11224.11224,0,0,1-.0332-.08008v-.34473a.2778.2778,0,0,1,.11523-.22949l.42773-.419c.291-.2207.50977-.39257.65821-.51464a2.23659,2.23659,0,0,0,.34179-.334.46614.46614,0,0,0,.11719-.28222.30068.30068,0,0,0-.33984-.34082.35132.35132,0,0,0-.27735.10839.55784.55784,0,0,0-.1289.26856.14039.14039,0,0,1-.15625.10547H2.79932a.09591.09591,0,0,1-.07032-.0293.09212.09212,0,0,1-.02929-.06641,1.03513,1.03513,0,0,1,.168-.5498,1.10342,1.10342,0,0,1,.44335-.39063,1.42711,1.42711,0,0,1,.65821-.1455,1.63739,1.63739,0,0,1,.666.125.94488.94488,0,0,1,.42578.34863.99579.99579,0,0,1-.06054,1.12207,3.22656,3.22656,0,0,1-.62305.58008l-.38086.38086H5.15869a.11328.11328,0,0,1,.084.0332.11041.11041,0,0,1,.03125.082v.49219a.11049.11049,0,0,1-.03125.08008.10772.10772,0,0,1-.084.03515H2.76416A.11245.11245,0,0,1,2.68213,103.51338Z"/><path class="g" d="M6.01221,101.75263a.77547.77547,0,0,1-.29493-.2832.79808.79808,0,0,1,0-.7998.78286.78286,0,0,1,.29493-.28321.8528.8528,0,0,1,.81445,0,.79177.79177,0,0,1,.293.28321.78578.78578,0,0,1,0,.7998.78416.78416,0,0,1-.293.2832.85272.85272,0,0,1-.81445,0Zm.66015-.42968a.37919.37919,0,1,0-.2539.09668A.34241.34241,0,0,0,6.67236,101.323Z"/><path class="g" d="M3.27393,71.87959a1.13856,1.13856,0,0,1-.48633-.40723,1.05209,1.05209,0,0,1-.17578-.60156,1.73206,1.73206,0,0,1,.39062-.94336l.80469-1.07617a.19588.19588,0,0,1,.166-.0918h.64454a.09322.09322,0,0,1,.07031.03027.09653.09653,0,0,1,.02929.07129.11614.11614,0,0,1-.02148.05957l-.61719.83692a.51163.51163,0,0,1,.12891-.01367,1.26348,1.26348,0,0,1,.54492.15625,1.20584,1.20584,0,0,1,.43164.38867.96545.96545,0,0,1,.168.56347,1.087,1.087,0,0,1-.16992.59082,1.17357,1.17357,0,0,1-.47852.42481,1.53822,1.53822,0,0,1-.707.15723A1.70177,1.70177,0,0,1,3.27393,71.87959Zm1.05859-.6709a.44117.44117,0,0,0,.14258-.34277.43427.43427,0,0,0-.14063-.34473.546.546,0,0,0-.69531,0,.49782.49782,0,0,0,0,.68945.54323.54323,0,0,0,.69336-.00195Z"/><path class="g" d="M6.01221,70.1833a.79166.79166,0,0,1-.293-.2832.78753.78753,0,0,1,0-.80079.789.789,0,0,1,.293-.28222.85272.85272,0,0,1,.81445,0,.78017.78017,0,0,1,.29492.28222.79992.79992,0,0,1,0,.80079.78273.78273,0,0,1-.29492.2832.8528.8528,0,0,1-.81445,0Zm.66015-.43067a.37919.37919,0,1,0-.25195.09668A.34216.34216,0,0,0,6.67236,69.75263Z"/><path class="g" d="M1.21143,39.487a.10834.10834,0,0,1-.03321-.081V37.25459L.561,37.72822a.12326.12326,0,0,1-.06835.02246A.12145.12145,0,0,1,.395,37.696l-.28516-.36816a.14073.14073,0,0,1-.01758-.06934.11969.11969,0,0,1,.05079-.10058l1.0664-.82324a.18182.18182,0,0,1,.10547-.03223h.60742a.12363.12363,0,0,1,.08594.03223.11254.11254,0,0,1,.0332.083V39.406a.11256.11256,0,0,1-.0332.083.12363.12363,0,0,1-.08594.03223H1.2915A.11427.11427,0,0,1,1.21143,39.487Z"/><path class="g" d="M2.93408,39.23213a1.29764,1.29764,0,0,1-.36328-.874c-.00586-.166-.00977-.31445-.00977-.44629,0-.13476.00391-.28808.00977-.46a1.37456,1.37456,0,0,1,.17188-.61425,1.10525,1.10525,0,0,1,.44726-.42481,1.48792,1.48792,0,0,1,.71094-.15625,1.50692,1.50692,0,0,1,.71289.15625,1.09314,1.09314,0,0,1,.44726.42481,1.35,1.35,0,0,1,.17188.61425c.00781.08594.00977.23926.00977.46,0,.21485-.002.36329-.00977.44629a1.29764,1.29764,0,0,1-.36328.874,1.32529,1.32529,0,0,1-.96875.335A1.3235,1.3235,0,0,1,2.93408,39.23213Zm1.28711-.499a.68.68,0,0,0,.11524-.39843c.00585-.08887.00976-.23243.00976-.43164s-.00391-.34082-.00976-.42286a.68426.68426,0,0,0-.11524-.39355.37107.37107,0,0,0-.32031-.14551c-.27735,0-.42188.17969-.4375.53906-.00391.082-.00391.22364-.00391.42286s0,.34277.00391.43164c.01562.35937.16015.53808.4375.53808A.37736.37736,0,0,0,4.22119,38.7331Z"/><path class="g" d="M6.01221,37.72529a.78157.78157,0,0,1-.293-.28223.78751.78751,0,0,1,0-.80078.78162.78162,0,0,1,.293-.28222.85272.85272,0,0,1,.81445,0,.773.773,0,0,1,.29492.28222.7999.7999,0,0,1,0,.80078.77292.77292,0,0,1-.29492.28223.85272.85272,0,0,1-.81445,0Zm.66015-.42969a.37919.37919,0,1,0-.25195.09668A.34217.34217,0,0,0,6.67236,37.2956Z"/><path class="g" d="M.4165,149.28584a.105.105,0,0,1-.03515-.082v-.46a.107.107,0,0,1,.03515-.083.11889.11889,0,0,1,.084-.03223H1.94971a.11564.11564,0,0,1,.084.03223.11933.11933,0,0,1,.03125.083v.46a.121.121,0,0,1-.03125.08007.10975.10975,0,0,1-.084.03418H.50049A.11892.11892,0,0,1,.4165,149.28584Z"/><path class="g" d="M4.01807,150.31806a.10666.10666,0,0,1-.03516-.08007v-.50586H2.55713a.11852.11852,0,0,1-.11524-.11524V149.153a.23553.23553,0,0,1,.05079-.1377l1.334-1.80273a.20759.20759,0,0,1,.16992-.07813H4.6958a.11908.11908,0,0,1,.084.03125.10848.10848,0,0,1,.03516.083v1.77051h.4043a.11681.11681,0,0,1,.12109.11523v.48242a.11627.11627,0,0,1-.0332.08106.109.109,0,0,1-.082.03418H4.81494v.50586a.107.107,0,0,1-.03516.083.11564.11564,0,0,1-.084.03223H4.09814A.10516.10516,0,0,1,4.01807,150.31806Zm-.75782-1.2666h.74024v-1.03418Z"/><path class="g" d="M6.01221,148.55732a.78409.78409,0,0,1-.293-.2832.78574.78574,0,0,1,0-.79981.79166.79166,0,0,1,.293-.2832.8528.8528,0,0,1,.81445,0,.78273.78273,0,0,1,.29492.2832.7981.7981,0,0,1,0,.79981.77537.77537,0,0,1-.29492.2832.85272.85272,0,0,1-.81445,0Zm.66015-.42969a.37919.37919,0,1,0-.25195.09668A.34371.34371,0,0,0,6.67236,148.12763Z"/><path class="g" d="M2.93408,118.987a1.29563,1.29563,0,0,1-.36328-.874c-.00586-.165-.00977-.31348-.00977-.44532,0-.13476.00391-.28808.00977-.46a1.371,1.371,0,0,1,.17188-.61425,1.09271,1.09271,0,0,1,.44726-.42481,1.48786,1.48786,0,0,1,.71094-.15723,1.50691,1.50691,0,0,1,.71289.15723,1.08089,1.08089,0,0,1,.44726.42481,1.34648,1.34648,0,0,1,.17188.61425c.00781.08594.00977.23926.00977.46,0,.21485-.002.36329-.00977.44532a1.29563,1.29563,0,0,1-.36328.874,1.32563,1.32563,0,0,1-.96875.33594A1.32385,1.32385,0,0,1,2.93408,118.987Zm1.28711-.499a.67673.67673,0,0,0,.11524-.39746c.00585-.08887.00976-.2334.00976-.43262s-.00391-.33985-.00976-.42285a.68663.68663,0,0,0-.11524-.39356.37289.37289,0,0,0-.32031-.14453c-.27735,0-.42188.17969-.4375.53809-.00391.083-.00391.22363-.00391.42285s0,.34375.00391.43262c.01562.35839.16015.53808.4375.53808A.3754.3754,0,0,0,4.22119,118.488Z"/><path class="g" d="M6.01221,117.48115a.78424.78424,0,0,1-.293-.2832.78574.78574,0,0,1,0-.79981.79166.79166,0,0,1,.293-.2832.85272.85272,0,0,1,.81445,0,.78273.78273,0,0,1,.29492.2832.7981.7981,0,0,1,0,.79981.77552.77552,0,0,1-.29492.2832.85272.85272,0,0,1-.81445,0Zm.66015-.42969a.37919.37919,0,1,0-.25195.09668A.34372.34372,0,0,0,6.67236,117.05146Z"/><path class="g" d="M4.01807,88.35908a.11029.11029,0,0,1-.03516-.08105v-.50586H2.55713a.10725.10725,0,0,1-.08008-.03418.10979.10979,0,0,1-.03516-.08008v-.46485a.23553.23553,0,0,1,.05079-.13769l1.334-1.80274a.20761.20761,0,0,1,.16992-.07812H4.6958a.11564.11564,0,0,1,.084.03223.10636.10636,0,0,1,.03516.082v1.77051h.4043a.11681.11681,0,0,1,.12109.11523v.4834a.11572.11572,0,0,1-.0332.08008.10562.10562,0,0,1-.082.03418H4.81494V88.278a.107.107,0,0,1-.03516.083.11564.11564,0,0,1-.084.03223H4.09814A.10775.10775,0,0,1,4.01807,88.35908ZM3.26025,87.0915h.74024V86.05732Z"/><path class="g" d="M6.01221,86.59736a.77681.77681,0,0,1-.293-.2832.78574.78574,0,0,1,0-.79981.78162.78162,0,0,1,.293-.28222.85272.85272,0,0,1,.81445,0,.773.773,0,0,1,.29492.28222.7981.7981,0,0,1,0,.79981.76829.76829,0,0,1-.29492.2832.85272.85272,0,0,1-.81445,0Zm.66015-.42969a.37919.37919,0,1,0-.25195.09668A.34217.34217,0,0,0,6.67236,86.16767Z"/><path class="g" d="M3.15478,55.55635a1.00729,1.00729,0,0,1-.457-.36524.92681.92681,0,0,1-.15039-.51562.79538.79538,0,0,1,.12305-.4336.82792.82792,0,0,1,.31836-.30176.707.707,0,0,1-.32617-.63476.825.825,0,0,1,.31445-.667,1.45332,1.45332,0,0,1,.93164-.25684,1.4256,1.4256,0,0,1,.92188.25488.81889.81889,0,0,1,.31054.66407.73328.73328,0,0,1-.3125.63964.75906.75906,0,0,1,.32422.29395.83134.83134,0,0,1,.12305.44629.89913.89913,0,0,1-.15235.51269,1.02222,1.02222,0,0,1-.46093.36329,1.85521,1.85521,0,0,1-.75391.13574A1.86169,1.86169,0,0,1,3.15478,55.55635Zm1.11133-.58106a.37854.37854,0,0,0,0-.58887.5577.5577,0,0,0-.35742-.11035.5577.5577,0,0,0-.35742.11035.3753.3753,0,0,0,0,.58887.56341.56341,0,0,0,.35742.11035A.56341.56341,0,0,0,4.26611,54.97529Zm-.03906-1.37793a.30705.30705,0,0,0,.12305-.25.31407.31407,0,0,0-.12305-.25586.50143.50143,0,0,0-.31836-.09863.49021.49021,0,0,0-.31836.09863.32651.32651,0,0,0,0,.51074.49021.49021,0,0,0,.31836.09864A.51568.51568,0,0,0,4.22705,53.59736Z"/><path class="g" d="M6.01221,53.85029a.78157.78157,0,0,1-.293-.28223.78751.78751,0,0,1,0-.80078.78162.78162,0,0,1,.293-.28222.85272.85272,0,0,1,.81445,0,.773.773,0,0,1,.29492.28222.7999.7999,0,0,1,0,.80078.77292.77292,0,0,1-.29492.28223.85272.85272,0,0,1-.81445,0Zm.66015-.42969a.37919.37919,0,1,0-.25195.09668A.34217.34217,0,0,0,6.67236,53.4206Z"/><path class="g" d="M1.34033,23.7165a.108.108,0,0,1-.0332-.08056V21.48359l-.61719.47363a.12416.12416,0,0,1-.06836.023A.11951.11951,0,0,1,.52393,21.925l-.28516-.36768A.142.142,0,0,1,.22119,21.488.1206.1206,0,0,1,.272,21.38691l1.06641-.82275a.1818.1818,0,0,1,.10547-.03223h.60742a.12365.12365,0,0,1,.08594.03223.11222.11222,0,0,1,.0332.08252v2.98926a.11224.11224,0,0,1-.0332.08252.12368.12368,0,0,1-.08594.03222H1.42041A.11225.11225,0,0,1,1.34033,23.7165Z"/><path class="g" d="M2.68408,23.7165a.11.11,0,0,1-.03515-.08056v-.34522a.28372.28372,0,0,1,.11523-.22949l.42773-.41895q.43653-.33105.66016-.51465a2.27964,2.27964,0,0,0,.33984-.33349.46734.46734,0,0,0,.11719-.28272.30053.30053,0,0,0-.33984-.34033.34948.34948,0,0,0-.27539.10791.55953.55953,0,0,0-.12891.269.14155.14155,0,0,1-.15625.106H2.80127a.10258.10258,0,0,1-.07227-.03027.09212.09212,0,0,1-.02929-.06641,1.05531,1.05531,0,0,1,.168-.5498,1.11643,1.11643,0,0,1,.44335-.39063,1.4384,1.4384,0,0,1,.65821-.145,1.6248,1.6248,0,0,1,.666.12451.904.904,0,0,1,.57032.87354.96566.96566,0,0,1-.20313.59766,3.25412,3.25412,0,0,1-.62305.57959l-.38281.38183H5.16064a.11185.11185,0,0,1,.11524.11475v.49219a.116.116,0,0,1-.0332.08056.10727.10727,0,0,1-.082.03418H2.76416A.109.109,0,0,1,2.68408,23.7165Z"/><path class="g" d="M6.01221,21.95478a.78281.78281,0,0,1-.293-.28271.78662.78662,0,0,1,0-.80029.78657.78657,0,0,1,.293-.28272.85629.85629,0,0,1,.81445,0,.77778.77778,0,0,1,.29492.28272.799.799,0,0,1,0,.80029.77413.77413,0,0,1-.29492.28271.85272.85272,0,0,1-.81445,0Zm.66015-.42968a.37919.37919,0,1,0-.25195.09668A.3422.3422,0,0,0,6.67236,21.5251Z"/><path class="g" d="M1.19385,9.364a.109.109,0,0,1-.03516-.08008V7.13154l-.61523.47363a.13522.13522,0,0,1-.07032.02295A.11633.11633,0,0,1,.37744,7.573L.09228,7.20478a.1407.1407,0,0,1-.01953-.06884.12.12,0,0,1,.05078-.10108l1.06836-.82324a.17343.17343,0,0,1,.10547-.03223h.60742a.11889.11889,0,0,1,.084.03223.10773.10773,0,0,1,.03516.083V9.28388a.10668.10668,0,0,1-.03516.08252.11889.11889,0,0,1-.084.03223H1.27393A.10769.10769,0,0,1,1.19385,9.364Z"/><path class="g" d="M4.01807,9.364a.109.109,0,0,1-.03516-.08008V8.778H2.55713a.11945.11945,0,0,1-.11524-.11524V8.19844a.23689.23689,0,0,1,.05079-.13819l1.334-1.80273a.2104.2104,0,0,1,.16992-.07813H4.6958a.11564.11564,0,0,1,.084.03223.10773.10773,0,0,1,.03516.083v1.7705h.4043a.11444.11444,0,0,1,.08789.03418.116.116,0,0,1,.0332.08057v.48291a.11512.11512,0,0,1-.0332.08057.10767.10767,0,0,1-.082.03467H4.81494v.50585a.10668.10668,0,0,1-.03516.08252.11564.11564,0,0,1-.084.03223H4.09814A.1047.1047,0,0,1,4.01807,9.364Zm-.75782-1.2666h.74024V7.06269Z"/><path class="g" d="M6.01221,7.60273a.78289.78289,0,0,1-.293-.28271.78663.78663,0,0,1,0-.8003.783.783,0,0,1,.293-.28271.85272.85272,0,0,1,.81445,0,.77428.77428,0,0,1,.29492.28271.799.799,0,0,1,0,.8003.7742.7742,0,0,1-.29492.28271.85272.85272,0,0,1-.81445,0ZM6.67236,7.173a.3806.3806,0,1,0-.25195.0962A.34293.34293,0,0,0,6.67236,7.173Z"/><line class="h" x1="20.72474" y1="150.33598" x2="11.97412" y2="150.33598"/><line class="h" x1="20.72474" y1="133.77025" x2="11.97412" y2="133.77025"/><line class="h" x1="20.72474" y1="118.38148" x2="11.97412" y2="118.38148"/><line class="h" x1="20.72474" y1="102.1019" x2="11.97412" y2="102.1019"/><line class="h" x1="20.72474" y1="86.57472" x2="11.97412" y2="86.57472"/><line class="h" x1="20.72474" y1="70.40691" x2="11.97412" y2="70.40691"/><line class="h" x1="20.72474" y1="54.72077" x2="11.97412" y2="54.72077"/><line class="h" x1="20.72474" y1="38.67224" x2="11.97412" y2="38.67224"/><line class="h" x1="20.72474" y1="22.87201" x2="11.97412" y2="22.87201"/><line class="h" x1="20.72474" y1="7.116" x2="11.97412" y2="7.116"/></svg>