<svg xmlns="http://www.w3.org/2000/svg" xmlns:xlink="http://www.w3.org/1999/xlink" viewBox="0 0 149.46581 191.47607"><defs><style>.a,.am,.c{fill:#f6f6f6;}.a,.ah,.aj,.ak,.am{stroke:#2d2a28;}.a,.aa,.ab,.ac,.ad,.ah,.aj,.ak,.am,.b,.m,.r,.s,.w,.x,.y,.z{stroke-miterlimit:10;}.a,.aj,.ak,.am{stroke-width:1.88509px;}.b{fill:#c6c6c6;stroke:#b2b2b2;}.d{fill:#b2b2b2;}.e,.u{fill:#9facb7;}.f{fill:#455a60;}.g{fill:#6d8393;}.h{fill:#dadada;}.i{fill:#e6332a;}.j{fill:#be1622;}.k{fill:#6ab8e2;}.l{fill:#36a9e1;}.m{fill:#f7f7f7;stroke:#c6c6c6;}.n{fill:#395dba;}.o{fill:#1f3366;}.p{fill:#1ac179;}.q{fill:#17995e;}.r{fill:#ca9e67;stroke:#b17f4a;}.s{fill:#fadba9;stroke:#f2bb5f;}.t{fill:#2d2a28;}.u{opacity:0.52;}.v{opacity:0.8;}.aa,.ab,.ac,.ad,.ah,.ak,.w,.x,.y,.z{fill:none;}.aa,.w{stroke:#6ab8e2;}.aa,.ab,.ad,.ah,.am,.w,.x,.z{stroke-linecap:round;}.w{stroke-width:2px;}.ab,.x{stroke:#b0daea;}.ac,.ad,.y,.z{stroke:#def7ff;}.aa{stroke-width:1.5px;}.ab,.ac,.ad{stroke-width:0.75px;}.ae{opacity:0.2;}.af{opacity:0.5;}.ag{opacity:0.3;}.ah{stroke-width:3.53454px;}.ai{clip-path:url(#a);}.aj{fill:#9d9d9c;}.al{clip-path:url(#b);}.an{fill:#1d1d1b;opacity:0.1;}</style><clipPath id="a"><circle class="a" cx="89.47223" cy="167.93684" r="10.37801"/></clipPath><clipPath id="b"><ellipse class="a" cx="58.80699" cy="167.93684" rx="9.59526" ry="10.37801"/></clipPath></defs><rect class="b" x="19.59186" y="5.75103" width="114.44707" height="176.13984"/><rect class="c" x="25.17009" y="6.3438" width="103.81641" height="184.63184"/><path class="d" d="M128.48674,6.84383v183.632H25.67V6.84383H128.48674m1-1H24.67v185.632H129.48674V5.84383Z"/><path class="e" d="M35.96013,1h82.23682A3.13525,3.13525,0,0,1,121.3322,4.1353V166.82524a3.13574,3.13574,0,0,1-3.13574,3.13574H35.96013a3.13574,3.13574,0,0,1-3.13574-3.13574V4.13579A3.13574,3.13574,0,0,1,35.96013,1Z"/><path class="f" d="M118.19682,2a2.13776,2.13776,0,0,1,2.13538,2.1354V166.82561a2.13777,2.13777,0,0,1-2.13538,2.13537H35.96025a2.13777,2.13777,0,0,1-2.13537-2.13537V4.13536A2.13776,2.13776,0,0,1,35.96025,2h82.23657m0-2H35.96025a4.13538,4.13538,0,0,0-4.13537,4.1354V166.82561a4.13537,4.13537,0,0,0,4.13537,4.13537h82.23657a4.13545,4.13545,0,0,0,4.13538-4.13537V4.13536A4.13546,4.13546,0,0,0,118.19682,0Z"/><rect class="g" x="33.86067" y="5.97672" width="5.36282" height="164.98426"/><rect class="g" x="114.8703" y="5.97672" width="5.36282" height="164.98426"/><polygon class="h" points="114.87 25.302 39.223 25.302 33.861 33.073 120.233 33.073 114.87 25.302"/><rect class="c" x="33.86068" y="33.0728" width="86.37245" height="3.71912"/><polygon class="h" points="114.87 54.152 39.223 54.152 33.861 61.923 120.233 61.923 114.87 54.152"/><rect class="c" x="33.86068" y="61.92265" width="86.37245" height="3.71912"/><polygon class="h" points="114.87 83.002 39.223 83.002 33.861 90.772 120.233 90.772 114.87 83.002"/><rect class="c" x="33.86068" y="90.7725" width="86.37245" height="3.71912"/><polygon class="h" points="114.87 111.852 39.223 111.852 33.861 119.622 120.233 119.622 114.87 111.852"/><rect class="c" x="33.86068" y="119.62235" width="86.37245" height="3.71912"/><polygon class="h" points="114.87 140.702 39.223 140.702 33.861 148.472 120.233 148.472 114.87 140.702"/><rect class="c" x="33.86068" y="148.4722" width="86.37245" height="3.71912"/><polygon class="h" points="114.87 162.518 39.223 162.518 33.861 170.288 120.233 170.288 114.87 162.518"/><rect class="c" x="33.86068" y="170.28833" width="86.37245" height="3.71912"/><rect class="i" x="93.80779" y="19.94292" width="19.71582" height="9.18115"/><path class="j" d="M113.02361,20.44307V28.624H94.30815V20.44307h18.71546m1-1H93.30815V29.624h20.71546V19.44307Z"/><rect class="k" x="67.84099" y="13.1729" width="19.71582" height="15.95117"/><path class="l" d="M87.05693,13.67293V28.624H68.34148V13.67293H87.05693m1-1H67.34148V29.624H88.05693V12.67293Z"/><rect class="k" x="93.80779" y="128.502" width="19.71582" height="15.95117"/><path class="l" d="M113.02361,129.00243v14.95111H94.30815V129.00243h18.71546m1-1H93.30815v16.95111h20.71546V128.00243Z"/><rect class="m" x="67.34147" y="136.47796" width="20.71548" height="8.47555"/><rect class="n" x="43.42497" y="131.88481" width="19.71484" height="12.56836"/><path class="o" d="M62.64018,132.38524v11.5683H43.92473v-11.5683H62.64018m1-1H42.92473v13.5683H63.64018v-13.5683Z"/><rect class="p" x="39.7238" y="52.20122" width="24.00391" height="5.61133"/><path class="q" d="M63.22783,52.70107V57.313H40.22356v-4.6119H63.22783m1-1H39.22356V58.313H64.22783v-6.6119Z"/><rect class="p" x="68.80388" y="50.00884" width="24.00391" height="7.80371"/><path class="q" d="M92.30815,50.509v6.804H69.30388V50.509H92.30815m1-1H68.30388v8.804H93.30815V49.509Z"/><rect class="m" x="44.24083" y="42.88649" width="21.41836" height="8.81458"/><rect class="r" x="83.6038" y="71.30924" width="27.84912" height="15.57802"/><rect class="r" x="61.49184" y="77.37842" width="16.6605" height="9.50884"/><rect class="m" x="42.47972" y="100.15847" width="16.35899" height="16.35899"/><rect class="s" x="63.42952" y="106.76883" width="9.74862" height="9.74862"/><rect class="p" x="82.48064" y="108.83794" width="19.59375" height="7.17969"/><path class="q" d="M101.5739,109.338v6.17947H82.98015V109.338H101.5739m1-1H81.98015v8.17947H102.5739V108.338Z"/><rect class="t" x="126.10403" y="47.11288" width="4.05106" height="13.59621" rx="2.02553"/><path class="u" d="M35.96013,1h82.23682A3.13525,3.13525,0,0,1,121.3322,4.1353V166.82524a3.13574,3.13574,0,0,1-3.13574,3.13574H35.96013a3.13574,3.13574,0,0,1-3.13574-3.13574V4.13579A3.13574,3.13574,0,0,1,35.96013,1Z"/><path class="f" d="M118.19682,2a2.13776,2.13776,0,0,1,2.13538,2.1354V166.82561a2.13777,2.13777,0,0,1-2.13538,2.13537H35.96025a2.13777,2.13777,0,0,1-2.13537-2.13537V4.13536A2.13776,2.13776,0,0,1,35.96025,2h82.23657m0-2H35.96025a4.13538,4.13538,0,0,0-4.13537,4.1354V166.82561a4.13537,4.13537,0,0,0,4.13537,4.13537h82.23657a4.13545,4.13545,0,0,0,4.13538-4.13537V4.13536A4.13546,4.13546,0,0,0,118.19682,0Z"/><g class="v"><line class="w" x1="43.52375" y1="19.32615" x2="35.71904" y2="27.13086"/><line class="x" x1="43.52375" y1="19.32615" x2="35.71904" y2="27.13086"/><line class="w" x1="35.71844" y1="16.09308" x2="35.71844" y2="27.13027"/><line class="x" x1="35.71844" y1="16.09308" x2="35.71844" y2="27.13027"/><line class="w" x1="33.16646" y1="17.73434" x2="35.71844" y2="20.28631"/><line class="x" x1="33.16646" y1="17.73434" x2="35.71844" y2="20.28631"/><line class="w" x1="35.71844" y1="20.28631" x2="38.27041" y2="17.73434"/><line class="x" x1="35.71844" y1="20.28631" x2="38.27041" y2="17.73434"/><line class="w" x1="27.91312" y1="19.32615" x2="35.71783" y2="27.13086"/><line class="x" x1="27.91312" y1="19.32615" x2="35.71783" y2="27.13086"/><line class="w" x1="30.87818" y1="18.68218" x2="30.87818" y2="22.29121"/><line class="x" x1="30.87818" y1="18.68218" x2="30.87818" y2="22.29121"/><line class="w" x1="30.87818" y1="22.29121" x2="27.26915" y2="22.29121"/><line class="x" x1="30.87818" y1="22.29121" x2="27.26915" y2="22.29121"/><line class="w" x1="40.55869" y1="18.68218" x2="40.55869" y2="22.29121"/><line class="x" x1="40.55869" y1="18.68218" x2="40.55869" y2="22.29121"/><line class="w" x1="24.68065" y1="27.13164" x2="35.71784" y2="27.13164"/><line class="x" x1="24.68065" y1="27.13164" x2="35.71784" y2="27.13164"/><line class="w" x1="26.32191" y1="29.68361" x2="28.87388" y2="27.13164"/><line class="x" x1="26.32191" y1="29.68361" x2="28.87388" y2="27.13164"/><line class="w" x1="28.87388" y1="27.13164" x2="26.32191" y2="24.57966"/><line class="x" x1="28.87388" y1="27.13164" x2="26.32191" y2="24.57966"/><line class="w" x1="27.91372" y1="34.93695" x2="35.71844" y2="27.13224"/><line class="x" x1="27.91372" y1="34.93695" x2="35.71844" y2="27.13224"/><line class="w" x1="27.26975" y1="31.97189" x2="30.87879" y2="31.97189"/><line class="x" x1="27.26975" y1="31.97189" x2="30.87879" y2="31.97189"/><line class="w" x1="30.87879" y1="31.97189" x2="30.87879" y2="35.58092"/><line class="x" x1="30.87879" y1="31.97189" x2="30.87879" y2="35.58092"/><line class="w" x1="46.75622" y1="27.13164" x2="35.71903" y2="27.13164"/><line class="x" x1="46.75622" y1="27.13164" x2="35.71903" y2="27.13164"/><line class="w" x1="45.11496" y1="29.68361" x2="42.56299" y2="27.13164"/><line class="x" x1="45.11496" y1="29.68361" x2="42.56299" y2="27.13164"/><line class="w" x1="42.56299" y1="27.13164" x2="45.11496" y2="24.57966"/><line class="x" x1="42.56299" y1="27.13164" x2="45.11496" y2="24.57966"/><line class="w" x1="43.52315" y1="34.93695" x2="35.71844" y2="27.13224"/><line class="x" x1="43.52315" y1="34.93695" x2="35.71844" y2="27.13224"/><line class="w" x1="44.16712" y1="31.97189" x2="40.55809" y2="31.97189"/><line class="x" x1="44.16712" y1="31.97189" x2="40.55809" y2="31.97189"/><line class="w" x1="40.55809" y1="31.97189" x2="40.55809" y2="35.58092"/><line class="x" x1="40.55809" y1="31.97189" x2="40.55809" y2="35.58092"/><line class="w" x1="35.71844" y1="27.13224" x2="35.71844" y2="38.16943"/><line class="x" x1="35.71844" y1="27.13224" x2="35.71844" y2="38.16943"/><line class="w" x1="33.16646" y1="36.52817" x2="35.71844" y2="33.9762"/><line class="x" x1="33.16646" y1="36.52817" x2="35.71844" y2="33.9762"/><line class="w" x1="35.71844" y1="33.9762" x2="38.27041" y2="36.52817"/><line class="x" x1="35.71844" y1="33.9762" x2="38.27041" y2="36.52817"/><line class="w" x1="40.55869" y1="22.29121" x2="44.16772" y2="22.29121"/><line class="x" x1="40.55869" y1="22.29121" x2="44.16772" y2="22.29121"/><line class="y" x1="40.78576" y1="27.13224" x2="44.87885" y2="27.13224"/><line class="z" x1="42.20532" y1="20.64458" x2="39.29708" y2="23.55282"/><path class="z" d="M35.719,17.95493c-.0006.07718,0,4.66222,0,4.66222"/><line class="z" x1="29.23155" y1="20.64458" x2="32.38081" y2="23.79384"/><line class="z" x1="26.96064" y1="27.13027" x2="30.87879" y2="27.13027"/><line class="z" x1="31.99847" y1="30.85221" x2="29.41803" y2="33.43265"/><line class="z" x1="35.71783" y1="31.97189" x2="35.71783" y2="36.52817"/><line class="z" x1="39.29708" y1="30.71088" x2="42.01884" y2="33.43265"/><line class="z" x1="37.30279" y1="25.54711" x2="34.24647" y2="28.60343"/><line class="z" x1="34.44262" y1="25.85565" x2="37.12168" y2="28.53471"/><line class="z" x1="35.71904" y1="25.27877" x2="35.71904" y2="29.03815"/><line class="z" x1="37.76639" y1="27.13224" x2="33.16646" y2="27.13224"/></g><g class="v"><line class="aa" x1="54.89021" y1="40.57914" x2="50.45253" y2="45.01681"/><line class="ab" x1="54.89021" y1="40.57914" x2="50.45253" y2="45.01681"/><line class="aa" x1="50.45219" y1="38.74085" x2="50.45219" y2="45.01648"/><line class="ab" x1="50.45219" y1="38.74085" x2="50.45219" y2="45.01648"/><line class="aa" x1="49.00117" y1="39.67406" x2="50.45219" y2="41.12508"/><line class="ab" x1="49.00117" y1="39.67406" x2="50.45219" y2="41.12508"/><line class="aa" x1="50.45219" y1="41.12508" x2="51.90322" y2="39.67406"/><line class="ab" x1="50.45219" y1="41.12508" x2="51.90322" y2="39.67406"/><line class="aa" x1="46.01418" y1="40.57914" x2="50.45185" y2="45.01681"/><line class="ab" x1="46.01418" y1="40.57914" x2="50.45185" y2="45.01681"/><line class="aa" x1="47.70008" y1="40.21299" x2="47.70008" y2="42.26504"/><line class="ab" x1="47.70008" y1="40.21299" x2="47.70008" y2="42.26504"/><line class="aa" x1="47.70008" y1="42.26504" x2="45.64802" y2="42.26504"/><line class="ab" x1="47.70008" y1="42.26504" x2="45.64802" y2="42.26504"/><line class="aa" x1="53.20431" y1="40.21299" x2="53.20431" y2="42.26504"/><line class="ab" x1="53.20431" y1="40.21299" x2="53.20431" y2="42.26504"/><line class="aa" x1="44.17623" y1="45.01725" x2="50.45186" y2="45.01725"/><line class="ab" x1="44.17623" y1="45.01725" x2="50.45186" y2="45.01725"/><line class="aa" x1="45.10943" y1="46.46828" x2="46.56046" y2="45.01725"/><line class="ab" x1="45.10943" y1="46.46828" x2="46.56046" y2="45.01725"/><line class="aa" x1="46.56046" y1="45.01725" x2="45.10943" y2="43.56623"/><line class="ab" x1="46.56046" y1="45.01725" x2="45.10943" y2="43.56623"/><line class="aa" x1="46.01452" y1="49.45527" x2="50.45219" y2="45.0176"/><line class="ab" x1="46.01452" y1="49.45527" x2="50.45219" y2="45.0176"/><line class="aa" x1="45.64836" y1="47.76937" x2="47.70042" y2="47.76937"/><line class="ab" x1="45.64836" y1="47.76937" x2="47.70042" y2="47.76937"/><line class="aa" x1="47.70042" y1="47.76937" x2="47.70042" y2="49.82142"/><line class="ab" x1="47.70042" y1="47.76937" x2="47.70042" y2="49.82142"/><line class="aa" x1="56.72815" y1="45.01725" x2="50.45253" y2="45.01725"/><line class="ab" x1="56.72815" y1="45.01725" x2="50.45253" y2="45.01725"/><line class="aa" x1="55.79495" y1="46.46828" x2="54.34393" y2="45.01725"/><line class="ab" x1="55.79495" y1="46.46828" x2="54.34393" y2="45.01725"/><line class="aa" x1="54.34393" y1="45.01725" x2="55.79495" y2="43.56623"/><line class="ab" x1="54.34393" y1="45.01725" x2="55.79495" y2="43.56623"/><line class="aa" x1="54.88987" y1="49.45527" x2="50.45219" y2="45.0176"/><line class="ab" x1="54.88987" y1="49.45527" x2="50.45219" y2="45.0176"/><line class="aa" x1="55.25602" y1="47.76937" x2="53.20396" y2="47.76937"/><line class="ab" x1="55.25602" y1="47.76937" x2="53.20396" y2="47.76937"/><line class="aa" x1="53.20396" y1="47.76937" x2="53.20396" y2="49.82142"/><line class="ab" x1="53.20396" y1="47.76937" x2="53.20396" y2="49.82142"/><line class="aa" x1="50.45219" y1="45.0176" x2="50.45219" y2="51.29322"/><line class="ab" x1="50.45219" y1="45.0176" x2="50.45219" y2="51.29322"/><line class="aa" x1="49.00117" y1="50.36002" x2="50.45219" y2="48.909"/><line class="ab" x1="49.00117" y1="50.36002" x2="50.45219" y2="48.909"/><line class="aa" x1="50.45219" y1="48.909" x2="51.90322" y2="50.36002"/><line class="ab" x1="50.45219" y1="48.909" x2="51.90322" y2="50.36002"/><line class="aa" x1="53.20431" y1="42.26504" x2="55.25636" y2="42.26504"/><line class="ab" x1="53.20431" y1="42.26504" x2="55.25636" y2="42.26504"/><line class="ac" x1="53.33342" y1="45.0176" x2="55.6607" y2="45.0176"/><line class="ad" x1="54.14056" y1="41.32879" x2="52.48697" y2="42.98238"/><path class="ad" d="M50.45253,39.79948c-.00034.04388,0,2.65089,0,2.65089"/><line class="ad" x1="46.76382" y1="41.32879" x2="48.55446" y2="43.11942"/><line class="ad" x1="45.47261" y1="45.01648" x2="47.70042" y2="45.01648"/><line class="ad" x1="48.33706" y1="47.13273" x2="46.86985" y2="48.59994"/><line class="ad" x1="50.45185" y1="47.76937" x2="50.45185" y2="50.36002"/><line class="ad" x1="52.48697" y1="47.05237" x2="54.03453" y2="48.59994"/><line class="ad" x1="51.35304" y1="44.11631" x2="49.61525" y2="45.8541"/><line class="ad" x1="49.72678" y1="44.29174" x2="51.25006" y2="45.81503"/><line class="ad" x1="50.45253" y1="43.96374" x2="50.45253" y2="46.10128"/><line class="ad" x1="51.61664" y1="45.0176" x2="49.00117" y2="45.0176"/></g><g class="ae"><line class="aa" x1="11.46398" y1="81.14316" x2="7.0263" y2="85.58083"/><line class="ab" x1="11.46398" y1="81.14316" x2="7.0263" y2="85.58083"/><line class="aa" x1="7.02596" y1="79.30487" x2="7.02596" y2="85.5805"/><line class="ab" x1="7.02596" y1="79.30487" x2="7.02596" y2="85.5805"/><line class="aa" x1="5.57494" y1="80.23807" x2="7.02596" y2="81.6891"/><line class="ab" x1="5.57494" y1="80.23807" x2="7.02596" y2="81.6891"/><line class="aa" x1="7.02596" y1="81.6891" x2="8.47699" y2="80.23807"/><line class="ab" x1="7.02596" y1="81.6891" x2="8.47699" y2="80.23807"/><line class="aa" x1="2.58795" y1="81.14316" x2="7.02562" y2="85.58083"/><line class="ab" x1="2.58795" y1="81.14316" x2="7.02562" y2="85.58083"/><line class="aa" x1="4.27385" y1="80.777" x2="4.27385" y2="82.82906"/><line class="ab" x1="4.27385" y1="80.777" x2="4.27385" y2="82.82906"/><line class="aa" x1="4.27385" y1="82.82906" x2="2.22179" y2="82.82906"/><line class="ab" x1="4.27385" y1="82.82906" x2="2.22179" y2="82.82906"/><line class="aa" x1="9.77808" y1="80.777" x2="9.77808" y2="82.82906"/><line class="ab" x1="9.77808" y1="80.777" x2="9.77808" y2="82.82906"/><line class="aa" x1="0.75" y1="85.58127" x2="7.02563" y2="85.58127"/><line class="ab" x1="0.75" y1="85.58127" x2="7.02563" y2="85.58127"/><line class="aa" x1="1.6832" y1="87.03229" x2="3.13423" y2="85.58127"/><line class="ab" x1="1.6832" y1="87.03229" x2="3.13423" y2="85.58127"/><line class="aa" x1="3.13423" y1="85.58127" x2="1.6832" y2="84.13025"/><line class="ab" x1="3.13423" y1="85.58127" x2="1.6832" y2="84.13025"/><line class="aa" x1="2.58829" y1="90.01929" x2="7.02596" y2="85.58161"/><line class="ab" x1="2.58829" y1="90.01929" x2="7.02596" y2="85.58161"/><line class="aa" x1="2.22213" y1="88.33338" x2="4.27419" y2="88.33338"/><line class="ab" x1="2.22213" y1="88.33338" x2="4.27419" y2="88.33338"/><line class="aa" x1="4.27419" y1="88.33338" x2="4.27419" y2="90.38544"/><line class="ab" x1="4.27419" y1="88.33338" x2="4.27419" y2="90.38544"/><line class="aa" x1="13.30192" y1="85.58127" x2="7.0263" y2="85.58127"/><line class="ab" x1="13.30192" y1="85.58127" x2="7.0263" y2="85.58127"/><line class="aa" x1="12.36872" y1="87.03229" x2="10.9177" y2="85.58127"/><line class="ab" x1="12.36872" y1="87.03229" x2="10.9177" y2="85.58127"/><line class="aa" x1="10.9177" y1="85.58127" x2="12.36872" y2="84.13025"/><line class="ab" x1="10.9177" y1="85.58127" x2="12.36872" y2="84.13025"/><line class="aa" x1="11.46364" y1="90.01929" x2="7.02596" y2="85.58161"/><line class="ab" x1="11.46364" y1="90.01929" x2="7.02596" y2="85.58161"/><line class="aa" x1="11.82979" y1="88.33338" x2="9.77773" y2="88.33338"/><line class="ab" x1="11.82979" y1="88.33338" x2="9.77773" y2="88.33338"/><line class="aa" x1="9.77773" y1="88.33338" x2="9.77773" y2="90.38544"/><line class="ab" x1="9.77773" y1="88.33338" x2="9.77773" y2="90.38544"/><line class="aa" x1="7.02596" y1="85.58161" x2="7.02596" y2="91.85724"/><line class="ab" x1="7.02596" y1="85.58161" x2="7.02596" y2="91.85724"/><line class="aa" x1="5.57494" y1="90.92404" x2="7.02596" y2="89.47301"/><line class="ab" x1="5.57494" y1="90.92404" x2="7.02596" y2="89.47301"/><line class="aa" x1="7.02596" y1="89.47301" x2="8.47699" y2="90.92404"/><line class="ab" x1="7.02596" y1="89.47301" x2="8.47699" y2="90.92404"/><line class="aa" x1="9.77808" y1="82.82906" x2="11.83013" y2="82.82906"/><line class="ab" x1="9.77808" y1="82.82906" x2="11.83013" y2="82.82906"/><line class="ac" x1="9.90719" y1="85.58161" x2="12.23447" y2="85.58161"/><line class="ad" x1="10.71433" y1="81.8928" x2="9.06074" y2="83.5464"/><path class="ad" d="M7.0263,80.3635c-.00034.04388,0,2.65088,0,2.65088"/><line class="ad" x1="3.33759" y1="81.8928" x2="5.12823" y2="83.68344"/><line class="ad" x1="2.04638" y1="85.5805" x2="4.27419" y2="85.5805"/><line class="ad" x1="4.91083" y1="87.69675" x2="3.44362" y2="89.16395"/><line class="ad" x1="7.02562" y1="88.33338" x2="7.02562" y2="90.92404"/><line class="ad" x1="9.06074" y1="87.61639" x2="10.6083" y2="89.16395"/><line class="ad" x1="7.92681" y1="84.68033" x2="6.18902" y2="86.41812"/><line class="ad" x1="6.30055" y1="84.85576" x2="7.82383" y2="86.37905"/><line class="ad" x1="7.0263" y1="84.52775" x2="7.0263" y2="86.66529"/><line class="ad" x1="8.19041" y1="85.58161" x2="5.57494" y2="85.58161"/></g><g class="af"><line class="aa" x1="98.77093" y1="120.45269" x2="94.33326" y2="124.89036"/><line class="ab" x1="98.77093" y1="120.45269" x2="94.33326" y2="124.89036"/><line class="aa" x1="94.33292" y1="118.6144" x2="94.33292" y2="124.89003"/><line class="ab" x1="94.33292" y1="118.6144" x2="94.33292" y2="124.89003"/><line class="aa" x1="92.88189" y1="119.54761" x2="94.33292" y2="120.99863"/><line class="ab" x1="92.88189" y1="119.54761" x2="94.33292" y2="120.99863"/><line class="aa" x1="94.33292" y1="120.99863" x2="95.78394" y2="119.54761"/><line class="ab" x1="94.33292" y1="120.99863" x2="95.78394" y2="119.54761"/><line class="aa" x1="89.8949" y1="120.45269" x2="94.33257" y2="124.89036"/><line class="ab" x1="89.8949" y1="120.45269" x2="94.33257" y2="124.89036"/><line class="aa" x1="91.5808" y1="120.08654" x2="91.5808" y2="122.13859"/><line class="ab" x1="91.5808" y1="120.08654" x2="91.5808" y2="122.13859"/><line class="aa" x1="91.5808" y1="122.13859" x2="89.52875" y2="122.13859"/><line class="ab" x1="91.5808" y1="122.13859" x2="89.52875" y2="122.13859"/><line class="aa" x1="97.08503" y1="120.08654" x2="97.08503" y2="122.13859"/><line class="ab" x1="97.08503" y1="120.08654" x2="97.08503" y2="122.13859"/><line class="aa" x1="88.05695" y1="124.8908" x2="94.33258" y2="124.8908"/><line class="ab" x1="88.05695" y1="124.8908" x2="94.33258" y2="124.8908"/><line class="aa" x1="88.99016" y1="126.34183" x2="90.44118" y2="124.8908"/><line class="ab" x1="88.99016" y1="126.34183" x2="90.44118" y2="124.8908"/><line class="aa" x1="90.44118" y1="124.8908" x2="88.99016" y2="123.43978"/><line class="ab" x1="90.44118" y1="124.8908" x2="88.99016" y2="123.43978"/><line class="aa" x1="89.89524" y1="129.32882" x2="94.33292" y2="124.89115"/><line class="ab" x1="89.89524" y1="129.32882" x2="94.33292" y2="124.89115"/><line class="aa" x1="89.52909" y1="127.64292" x2="91.58114" y2="127.64292"/><line class="ab" x1="89.52909" y1="127.64292" x2="91.58114" y2="127.64292"/><line class="aa" x1="91.58114" y1="127.64292" x2="91.58114" y2="129.69497"/><line class="ab" x1="91.58114" y1="127.64292" x2="91.58114" y2="129.69497"/><line class="aa" x1="100.60888" y1="124.8908" x2="94.33325" y2="124.8908"/><line class="ab" x1="100.60888" y1="124.8908" x2="94.33325" y2="124.8908"/><line class="aa" x1="99.67567" y1="126.34183" x2="98.22465" y2="124.8908"/><line class="ab" x1="99.67567" y1="126.34183" x2="98.22465" y2="124.8908"/><line class="aa" x1="98.22465" y1="124.8908" x2="99.67567" y2="123.43978"/><line class="ab" x1="98.22465" y1="124.8908" x2="99.67567" y2="123.43978"/><line class="aa" x1="98.77059" y1="129.32882" x2="94.33292" y2="124.89115"/><line class="ab" x1="98.77059" y1="129.32882" x2="94.33292" y2="124.89115"/><line class="aa" x1="99.13674" y1="127.64292" x2="97.08469" y2="127.64292"/><line class="ab" x1="99.13674" y1="127.64292" x2="97.08469" y2="127.64292"/><line class="aa" x1="97.08469" y1="127.64292" x2="97.08469" y2="129.69497"/><line class="ab" x1="97.08469" y1="127.64292" x2="97.08469" y2="129.69497"/><line class="aa" x1="94.33292" y1="124.89115" x2="94.33292" y2="131.16677"/><line class="ab" x1="94.33292" y1="124.89115" x2="94.33292" y2="131.16677"/><line class="aa" x1="92.88189" y1="130.23357" x2="94.33292" y2="128.78254"/><line class="ab" x1="92.88189" y1="130.23357" x2="94.33292" y2="128.78254"/><line class="aa" x1="94.33292" y1="128.78254" x2="95.78394" y2="130.23357"/><line class="ab" x1="94.33292" y1="128.78254" x2="95.78394" y2="130.23357"/><line class="aa" x1="97.08503" y1="122.13859" x2="99.13709" y2="122.13859"/><line class="ab" x1="97.08503" y1="122.13859" x2="99.13709" y2="122.13859"/><line class="ac" x1="97.21414" y1="124.89115" x2="99.54142" y2="124.89115"/><line class="ad" x1="98.02129" y1="121.20233" x2="96.36769" y2="122.85593"/><path class="ad" d="M94.33326,119.673c-.00034.04388,0,2.65089,0,2.65089"/><line class="ad" x1="90.64454" y1="121.20233" x2="92.43518" y2="122.99297"/><line class="ad" x1="89.35333" y1="124.89003" x2="91.58114" y2="124.89003"/><line class="ad" x1="92.21778" y1="127.00628" x2="90.75058" y2="128.47349"/><line class="ad" x1="94.33257" y1="127.64292" x2="94.33257" y2="130.23357"/><line class="ad" x1="96.36769" y1="126.92592" x2="97.91526" y2="128.47349"/><line class="ad" x1="95.23376" y1="123.98986" x2="93.49597" y2="125.72765"/><line class="ad" x1="93.6075" y1="124.16529" x2="95.13079" y2="125.68858"/><line class="ad" x1="94.33326" y1="123.83728" x2="94.33326" y2="125.97482"/><line class="ad" x1="95.49736" y1="124.89115" x2="92.88189" y2="124.89115"/></g><g class="af"><line class="aa" x1="64.78184" y1="149.74495" x2="61.49209" y2="153.0347"/><line class="ab" x1="64.78184" y1="149.74495" x2="61.49209" y2="153.0347"/><line class="aa" x1="61.49184" y1="148.38218" x2="61.49184" y2="153.03445"/><line class="ab" x1="61.49184" y1="148.38218" x2="61.49184" y2="153.03445"/><line class="aa" x1="60.41616" y1="149.07399" x2="61.49184" y2="150.14966"/><line class="ab" x1="60.41616" y1="149.07399" x2="61.49184" y2="150.14966"/><line class="aa" x1="61.49184" y1="150.14966" x2="62.56752" y2="149.07399"/><line class="ab" x1="61.49184" y1="150.14966" x2="62.56752" y2="149.07399"/><line class="aa" x1="58.20183" y1="149.74495" x2="61.49158" y2="153.0347"/><line class="ab" x1="58.20183" y1="149.74495" x2="61.49158" y2="153.0347"/><line class="aa" x1="59.45163" y1="149.47351" x2="59.45163" y2="150.99475"/><line class="ab" x1="59.45163" y1="149.47351" x2="59.45163" y2="150.99475"/><line class="aa" x1="59.45163" y1="150.99475" x2="57.9304" y2="150.99475"/><line class="ab" x1="59.45163" y1="150.99475" x2="57.9304" y2="150.99475"/><line class="aa" x1="63.53204" y1="149.47351" x2="63.53204" y2="150.99475"/><line class="ab" x1="63.53204" y1="149.47351" x2="63.53204" y2="150.99475"/><line class="aa" x1="56.83932" y1="153.03502" x2="61.49159" y2="153.03502"/><line class="ab" x1="56.83932" y1="153.03502" x2="61.49159" y2="153.03502"/><line class="aa" x1="57.53113" y1="154.1107" x2="58.6068" y2="153.03502"/><line class="ab" x1="57.53113" y1="154.1107" x2="58.6068" y2="153.03502"/><line class="aa" x1="58.6068" y1="153.03502" x2="57.53113" y2="151.95935"/><line class="ab" x1="58.6068" y1="153.03502" x2="57.53113" y2="151.95935"/><line class="aa" x1="58.20209" y1="156.32503" x2="61.49184" y2="153.03528"/><line class="ab" x1="58.20209" y1="156.32503" x2="61.49184" y2="153.03528"/><line class="aa" x1="57.93065" y1="155.07523" x2="59.45189" y2="155.07523"/><line class="ab" x1="57.93065" y1="155.07523" x2="59.45189" y2="155.07523"/><line class="aa" x1="59.45189" y1="155.07523" x2="59.45189" y2="156.59647"/><line class="ab" x1="59.45189" y1="155.07523" x2="59.45189" y2="156.59647"/><line class="aa" x1="66.14436" y1="153.03502" x2="61.49209" y2="153.03502"/><line class="ab" x1="66.14436" y1="153.03502" x2="61.49209" y2="153.03502"/><line class="aa" x1="65.45255" y1="154.1107" x2="64.37687" y2="153.03502"/><line class="ab" x1="65.45255" y1="154.1107" x2="64.37687" y2="153.03502"/><line class="aa" x1="64.37687" y1="153.03502" x2="65.45255" y2="151.95935"/><line class="ab" x1="64.37687" y1="153.03502" x2="65.45255" y2="151.95935"/><line class="aa" x1="64.78159" y1="156.32503" x2="61.49184" y2="153.03528"/><line class="ab" x1="64.78159" y1="156.32503" x2="61.49184" y2="153.03528"/><line class="aa" x1="65.05303" y1="155.07523" x2="63.53179" y2="155.07523"/><line class="ab" x1="65.05303" y1="155.07523" x2="63.53179" y2="155.07523"/><line class="aa" x1="63.53179" y1="155.07523" x2="63.53179" y2="156.59647"/><line class="ab" x1="63.53179" y1="155.07523" x2="63.53179" y2="156.59647"/><line class="aa" x1="61.49184" y1="153.03528" x2="61.49184" y2="157.68755"/><line class="ab" x1="61.49184" y1="153.03528" x2="61.49184" y2="157.68755"/><line class="aa" x1="60.41616" y1="156.99574" x2="61.49184" y2="155.92006"/><line class="ab" x1="60.41616" y1="156.99574" x2="61.49184" y2="155.92006"/><line class="aa" x1="61.49184" y1="155.92006" x2="62.56752" y2="156.99574"/><line class="ab" x1="61.49184" y1="155.92006" x2="62.56752" y2="156.99574"/><line class="aa" x1="63.53204" y1="150.99475" x2="65.05328" y2="150.99475"/><line class="ab" x1="63.53204" y1="150.99475" x2="65.05328" y2="150.99475"/><line class="ac" x1="63.62776" y1="153.03528" x2="65.35303" y2="153.03528"/><line class="ad" x1="64.22611" y1="150.30068" x2="63.00027" y2="151.52653"/><path class="ad" d="M61.49209,149.167c-.00025.03253,0,1.96516,0,1.96516"/><line class="ad" x1="58.75756" y1="150.30068" x2="60.085" y2="151.62812"/><line class="ad" x1="57.80036" y1="153.03445" x2="59.45189" y2="153.03445"/><line class="ad" x1="59.92384" y1="154.60327" x2="58.83617" y2="155.69095"/><line class="ad" x1="61.49158" y1="155.07523" x2="61.49158" y2="156.99574"/><line class="ad" x1="63.00027" y1="154.54371" x2="64.14751" y2="155.69095"/><line class="ad" x1="62.15966" y1="152.36713" x2="60.87139" y2="153.6554"/><line class="ad" x1="60.95407" y1="152.49719" x2="62.08332" y2="153.62643"/><line class="ad" x1="61.49209" y1="152.25403" x2="61.49209" y2="153.83863"/><line class="ad" x1="62.35507" y1="153.03528" x2="60.41616" y2="153.03528"/></g><g class="ag"><line class="aa" x1="146.87787" y1="23.62643" x2="142.44019" y2="28.0641"/><line class="ab" x1="146.87787" y1="23.62643" x2="142.44019" y2="28.0641"/><line class="aa" x1="142.43985" y1="21.78814" x2="142.43985" y2="28.06376"/><line class="ab" x1="142.43985" y1="21.78814" x2="142.43985" y2="28.06376"/><line class="aa" x1="140.98883" y1="22.72134" x2="142.43985" y2="24.17236"/><line class="ab" x1="140.98883" y1="22.72134" x2="142.43985" y2="24.17236"/><line class="aa" x1="142.43985" y1="24.17236" x2="143.89087" y2="22.72134"/><line class="ab" x1="142.43985" y1="24.17236" x2="143.89087" y2="22.72134"/><line class="aa" x1="138.00183" y1="23.62643" x2="142.43951" y2="28.0641"/><line class="ab" x1="138.00183" y1="23.62643" x2="142.43951" y2="28.0641"/><line class="aa" x1="139.68774" y1="23.26027" x2="139.68774" y2="25.31233"/><line class="ab" x1="139.68774" y1="23.26027" x2="139.68774" y2="25.31233"/><line class="aa" x1="139.68774" y1="25.31233" x2="137.63568" y2="25.31233"/><line class="ab" x1="139.68774" y1="25.31233" x2="137.63568" y2="25.31233"/><line class="aa" x1="145.19196" y1="23.26027" x2="145.19196" y2="25.31233"/><line class="ab" x1="145.19196" y1="23.26027" x2="145.19196" y2="25.31233"/><line class="aa" x1="136.16389" y1="28.06454" x2="142.43951" y2="28.06454"/><line class="ab" x1="136.16389" y1="28.06454" x2="142.43951" y2="28.06454"/><line class="aa" x1="137.09709" y1="29.51556" x2="138.54812" y2="28.06454"/><line class="ab" x1="137.09709" y1="29.51556" x2="138.54812" y2="28.06454"/><line class="aa" x1="138.54812" y1="28.06454" x2="137.09709" y2="26.61352"/><line class="ab" x1="138.54812" y1="28.06454" x2="137.09709" y2="26.61352"/><line class="aa" x1="138.00218" y1="32.50256" x2="142.43985" y2="28.06488"/><line class="ab" x1="138.00218" y1="32.50256" x2="142.43985" y2="28.06488"/><line class="aa" x1="137.63602" y1="30.81665" x2="139.68808" y2="30.81665"/><line class="ab" x1="137.63602" y1="30.81665" x2="139.68808" y2="30.81665"/><line class="aa" x1="139.68808" y1="30.81665" x2="139.68808" y2="32.86871"/><line class="ab" x1="139.68808" y1="30.81665" x2="139.68808" y2="32.86871"/><line class="aa" x1="148.71581" y1="28.06454" x2="142.44019" y2="28.06454"/><line class="ab" x1="148.71581" y1="28.06454" x2="142.44019" y2="28.06454"/><line class="aa" x1="147.78261" y1="29.51556" x2="146.33159" y2="28.06454"/><line class="ab" x1="147.78261" y1="29.51556" x2="146.33159" y2="28.06454"/><line class="aa" x1="146.33159" y1="28.06454" x2="147.78261" y2="26.61352"/><line class="ab" x1="146.33159" y1="28.06454" x2="147.78261" y2="26.61352"/><line class="aa" x1="146.87752" y1="32.50256" x2="142.43985" y2="28.06488"/><line class="ab" x1="146.87752" y1="32.50256" x2="142.43985" y2="28.06488"/><line class="aa" x1="147.24368" y1="30.81665" x2="145.19162" y2="30.81665"/><line class="ab" x1="147.24368" y1="30.81665" x2="145.19162" y2="30.81665"/><line class="aa" x1="145.19162" y1="30.81665" x2="145.19162" y2="32.86871"/><line class="ab" x1="145.19162" y1="30.81665" x2="145.19162" y2="32.86871"/><line class="aa" x1="142.43985" y1="28.06488" x2="142.43985" y2="34.34051"/><line class="ab" x1="142.43985" y1="28.06488" x2="142.43985" y2="34.34051"/><line class="aa" x1="140.98883" y1="33.4073" x2="142.43985" y2="31.95628"/><line class="ab" x1="140.98883" y1="33.4073" x2="142.43985" y2="31.95628"/><line class="aa" x1="142.43985" y1="31.95628" x2="143.89087" y2="33.4073"/><line class="ab" x1="142.43985" y1="31.95628" x2="143.89087" y2="33.4073"/><line class="aa" x1="145.19196" y1="25.31233" x2="147.24402" y2="25.31233"/><line class="ab" x1="145.19196" y1="25.31233" x2="147.24402" y2="25.31233"/><line class="ac" x1="145.32108" y1="28.06488" x2="147.64836" y2="28.06488"/><line class="ad" x1="146.12822" y1="24.37607" x2="144.47463" y2="26.02967"/><path class="ad" d="M142.44019,22.84676c-.00034.04389,0,2.65089,0,2.65089"/><line class="ad" x1="138.75148" y1="24.37607" x2="140.54211" y2="26.16671"/><line class="ad" x1="137.46027" y1="28.06376" x2="139.68808" y2="28.06376"/><line class="ad" x1="140.32472" y1="30.18001" x2="138.85751" y2="31.64722"/><line class="ad" x1="142.43951" y1="30.81665" x2="142.43951" y2="33.4073"/><line class="ad" x1="144.47463" y1="30.09966" x2="146.02219" y2="31.64722"/><line class="ad" x1="143.3407" y1="27.16359" x2="141.60291" y2="28.90139"/><line class="ad" x1="141.71444" y1="27.33903" x2="143.23772" y2="28.86231"/><line class="ad" x1="142.44019" y1="27.01102" x2="142.44019" y2="29.14856"/><line class="ad" x1="143.6043" y1="28.06488" x2="140.98883" y2="28.06488"/></g><path class="ah" d="M87.49481,146.72088s9.33641,4.705,16.78151,6.50986"/><circle class="c" cx="89.47223" cy="167.93684" r="10.37801"/><g class="ai"><circle class="t" cx="89.47223" cy="167.93684" r="2.7996"/><path class="aj" d="M80.54,173.21788s1.28875,1.02066,8.16982.90785a35.52652,35.52652,0,0,0,11.9525-2.23593v16.24384H80.54Z"/></g><circle class="ak" cx="89.47223" cy="167.93684" r="10.37801"/><path class="ah" d="M61.4838,146.78449S52.94306,154.705,45.47,152.8995"/><ellipse class="c" cx="58.80699" cy="167.93684" rx="9.59526" ry="10.37801"/><g class="al"><circle class="t" cx="58.80699" cy="167.93684" r="2.7996"/><path class="aj" d="M50.6336,173.79554s1.07278,1.02066,7.43486.90786a31.84714,31.84714,0,0,0,11.16974-2.23593v16.24384H50.6336Z"/></g><ellipse class="ak" cx="58.80699" cy="167.93684" rx="9.59526" ry="10.37801"/><path class="am" d="M72.69938,170.34315c-2.81533-2.09749-6.4402.10313-6.84741,3.35809-.4666,3.72968,3.81675,5.24143,6.84741,4.67954"/><polygon class="an" points="145.578 191.176 134.039 191.176 134.039 160.889 139.591 160.889 145.578 191.176"/></svg>