<svg xmlns="http://www.w3.org/2000/svg" xmlns:xlink="http://www.w3.org/1999/xlink" viewBox="0 0 128.98494 56.86126"><defs><style>.a,.r{fill:#f6f6f6;}.a,.aa,.ab,.b,.u,.v,.x,.y{stroke:#2d2a28;}.a,.k,.n,.o,.u,.v,.x,.y{stroke-miterlimit:10;}.a,.aa,.ab,.b,.u,.v,.x{stroke-width:1.6518px;}.b,.t{fill:#2d2a28;}.aa,.ab,.b,.p,.q,.x,.y{stroke-linecap:round;}.aa,.ab,.b,.p,.q{stroke-linejoin:round;}.c{fill:#1d1d1b;opacity:0.2;}.d,.x{fill:#662483;}.e{fill:#ffed00;}.f{fill:#dadada;}.g{fill:#9f6cba;}.aa,.h{fill:#fff;}.i{fill:#fcea10;}.j{fill:#1ac179;}.ab,.k,.n,.o,.p,.q,.v,.y{fill:none;}.k{stroke:#17995e;}.k,.p,.q{stroke-width:0.51268px;}.l{fill:#c6c6c6;}.m{fill:#ededed;}.n,.o{stroke:#c6c6c6;}.n{stroke-width:0.25634px;}.o{stroke-width:0.12817px;}.p{stroke:#fcea10;}.q{stroke:#be1622;}.s{clip-path:url(#a);}.u{fill:#481066;}.w{clip-path:url(#b);}.y{stroke-width:3.09713px;}.z{clip-path:url(#c);}</style><clipPath id="a"><circle class="a" cx="39.92128" cy="19.78571" r="9.09371"/></clipPath><clipPath id="b"><ellipse class="a" cx="13.05093" cy="19.78572" rx="8.40782" ry="9.09371"/></clipPath><clipPath id="c"><path class="b" d="M27.17136,30.885a8.25958,8.25958,0,0,0,6.44856-2.69918s1.94369,2.974,0,4.15991C30.69283,34.13173,27.17136,30.885,27.17136,30.885Z"/></clipPath></defs><polygon class="c" points="11.018 56.661 117.166 56.661 128.985 46.251 10.117 46.251 11.018 56.661"/><rect class="d" x="8.53997" y="16.02738" width="101.70273" height="40.60086"/><rect class="e" x="8.53997" y="38.45463" width="101.70273" height="18.17361"/><path class="d" d="M65.33118,43.7567a.07908.07908,0,0,1-.02148-.05566V42.0985a.07911.07911,0,0,1,.02148-.05567.08645.08645,0,0,1,.05859-.02148H66.087a.93212.93212,0,0,1,.623.17773.7219.7219,0,0,1,.20507.57617v.92286a.07515.07515,0,0,1-.02343.05664.07825.07825,0,0,1-.05664.02343H65.38977A.082.082,0,0,1,65.33118,43.7567Zm1.08789-.39649v-.56933a.30807.30807,0,0,0-.34766-.35059h-.29492v.91992Z"/><path class="d" d="M67.27259,43.02721a.0695.0695,0,0,1-.02344-.05469v-.874a.073.073,0,0,1,.02344-.05567.08508.08508,0,0,1,.05664-.02148H67.714a.08148.08148,0,0,1,.05664.02148.07911.07911,0,0,1,.02149.05567v.874a.07961.07961,0,0,1-.02149.05371.07432.07432,0,0,1-.05664.02246h-.38476A.08047.08047,0,0,1,67.27259,43.02721Z"/><path class="d" d="M68.90735,43.79674a.09334.09334,0,0,1-.02344-.06153v-.31054a.08736.08736,0,0,1,.02149-.0586.11774.11774,0,0,1,.05469-.04l.0957-.04a.45083.45083,0,0,0,.30664-.47657.40084.40084,0,0,0-.06836-.2705.33292.33292,0,0,0-.25391-.07715H68.2218a.07826.07826,0,0,1-.05664-.02344.07667.07667,0,0,1-.02343-.05664v-.28613a.06553.06553,0,0,1,.02539-.05274.08392.08392,0,0,1,.05468-.02148h.92579a.749.749,0,0,1,.57617.19238.83581.83581,0,0,1,.17383.58008.90118.90118,0,0,1-.23047.63965,1.21367,1.21367,0,0,1-.57813.34765l-.125.03711A.05871.05871,0,0,1,68.90735,43.79674Zm-.74219.54785a.073.073,0,0,1-.02343-.05566V42.8026a.07094.07094,0,0,1,.02343-.05469.08051.08051,0,0,1,.05664-.02148h.35157a.07281.07281,0,0,1,.05468.02148.0767.0767,0,0,1,.02149.05469v1.48633a.079.079,0,0,1-.02149.05566.07671.07671,0,0,1-.05468.02148H68.2218A.08511.08511,0,0,1,68.16516,44.34459Z"/><path class="d" d="M71.16126,42.04283a.073.073,0,0,1,.02344.05567v.26464a.07678.07678,0,0,1-.08008.07715H70.962a.5055.5055,0,0,0-.05664.15625,1.08487,1.08487,0,0,0-.01953.21875v.89551a.06037.06037,0,0,1-.02735.04785.10754.10754,0,0,1-.05859.01953h-.35938a.06938.06938,0,0,1-.05078-.01855.0665.0665,0,0,1-.01757-.04883v-.92969a.65938.65938,0,0,1,.0625-.34082h-.23243a.08029.08029,0,0,1-.07617-.07715V42.0985a.073.073,0,0,1,.02344-.05567.07907.07907,0,0,1,.05273-.02148h.90235A.08511.08511,0,0,1,71.16126,42.04283Z"/><path class="d" d="M71.49915,43.7567a.073.073,0,0,1-.02344-.05566V42.0985a.073.073,0,0,1,.02344-.05567.08508.08508,0,0,1,.05664-.02148h.72656a.96735.96735,0,0,1,.64453.18066.74532.74532,0,0,1,.207.5918V43.701a.07782.07782,0,0,1-.02148.05371.07093.07093,0,0,1-.05469.02343h-.36328a.07732.07732,0,0,1-.05664-.02148.073.073,0,0,1-.02344-.05566v-.91016a.30807.30807,0,0,0-.34765-.35059h-.27149V43.701a.07.07,0,0,1-.02148.05371.06816.06816,0,0,1-.05469.02343h-.36328A.08047.08047,0,0,1,71.49915,43.7567Z"/><path class="d" d="M75.47962,42.04283a.07911.07911,0,0,1,.02148.05567v.26464a.07964.07964,0,0,1-.02148.05372.07516.07516,0,0,1-.05664.02343h-.14063a.46009.46009,0,0,0-.05664.15625,1.07882,1.07882,0,0,0-.02148.21875v.89551a.06037.06037,0,0,1-.02735.04785.11364.11364,0,0,1-.06054.01953H74.757a.06936.06936,0,0,1-.05078-.01855.06651.06651,0,0,1-.01758-.04883v-.92969a.66356.66356,0,0,1,.06055-.34082H74.048a.08028.08028,0,0,1-.07618-.07715V42.0985a.073.073,0,0,1,.02344-.05567.07911.07911,0,0,1,.05274-.02148h1.375A.08152.08152,0,0,1,75.47962,42.04283Z"/><path class="d" d="M77.35071,42.04283a.07148.07148,0,0,1,.02149.05567v.91113a.67214.67214,0,0,1-.21094.50586,1.14007,1.14007,0,0,1-.59766.26855l-.78711.166a.07025.07025,0,0,1-.06054-.01465.06847.06847,0,0,1-.0254-.05566v-.26758a.07768.07768,0,0,1,.01954-.05371.09.09,0,0,1,.05078-.0293l.34179-.083-.36328-1.30176a.43492.43492,0,0,1-.01562-.06152.05684.05684,0,0,1,.01953-.043.05826.05826,0,0,1,.043-.01855h.39844a.07084.07084,0,0,1,.04687.01465.06716.06716,0,0,1,.02539.03222L76.5636,43.326a.421.421,0,0,0,.22852-.17383.60866.60866,0,0,0,.06054-.29688V42.0985a.07911.07911,0,0,1,.02149-.05567.08148.08148,0,0,1,.05664-.02148H77.296A.0735.0735,0,0,1,77.35071,42.04283Z"/><path class="d" d="M78.38587,43.7567a.07909.07909,0,0,1-.02149-.05566V42.0985a.07911.07911,0,0,1,.02149-.05567.08644.08644,0,0,1,.05859-.02148h.69727a.93211.93211,0,0,1,.623.17773.72187.72187,0,0,1,.20508.57617v.92286a.07512.07512,0,0,1-.02344.05664.07822.07822,0,0,1-.05664.02343H78.44446A.082.082,0,0,1,78.38587,43.7567Zm1.08789-.39649v-.56933a.30808.30808,0,0,0-.34766-.35059h-.29492v.91992Z"/><path class="d" d="M80.32727,43.02721a.06953.06953,0,0,1-.02343-.05469v-.874a.073.073,0,0,1,.02343-.05567.08511.08511,0,0,1,.05664-.02148h.38477a.08148.08148,0,0,1,.05664.02148.07911.07911,0,0,1,.02148.05567v.874a.0796.0796,0,0,1-.02148.05371.07432.07432,0,0,1-.05664.02246h-.38477A.08051.08051,0,0,1,80.32727,43.02721Z"/><path class="d" d="M81.20813,43.02721a.06953.06953,0,0,1-.02343-.05469v-.874a.073.073,0,0,1,.02343-.05567.08152.08152,0,0,1,.05664-.02148h.38477a.07675.07675,0,0,1,.05469.02148.07911.07911,0,0,1,.02148.05567v.874a.0796.0796,0,0,1-.02148.05371.07013.07013,0,0,1-.05469.02246h-.38477A.07733.07733,0,0,1,81.20813,43.02721Z"/><path class="d" d="M83.13391,43.75475a.07822.07822,0,0,1-.05664.02343H82.089a.07732.07732,0,0,1-.05664-.02148.073.073,0,0,1-.02344-.05566v-.26465a.06953.06953,0,0,1,.02344-.05469.07733.07733,0,0,1,.05664-.02149h.50977l-.02735-.60644a.53675.53675,0,0,0-.06054-.25879.214.214,0,0,0-.19141-.0791h-.15625a.08015.08015,0,0,1-.07812-.07715v-.25879a.08328.08328,0,0,1,.02148-.05664.07515.07515,0,0,1,.05664-.02344h.166a.80987.80987,0,0,1,.58593.18164.844.844,0,0,1,.19727.582l.041.9375A.06226.06226,0,0,1,83.13391,43.75475Z"/><path class="d" d="M83.464,43.7567a.07908.07908,0,0,1-.02148-.05566V42.0985a.07911.07911,0,0,1,.02148-.05567.08648.08648,0,0,1,.0586-.02148h.38281a.0815.0815,0,0,1,.05664.02148.07911.07911,0,0,1,.02148.05567V43.701a.07782.07782,0,0,1-.02148.05371.07515.07515,0,0,1-.05664.02343h-.38281A.082.082,0,0,1,83.464,43.7567Z"/><path class="d" d="M85.40345,43.75475a.07825.07825,0,0,1-.05665.02343h-.98828a.07733.07733,0,0,1-.05664-.02148.073.073,0,0,1-.02343-.05566v-.26465a.06953.06953,0,0,1,.02343-.05469.07734.07734,0,0,1,.05664-.02149h.50977l-.02734-.60644a.53674.53674,0,0,0-.06055-.25879.214.214,0,0,0-.19141-.0791h-.15625a.08015.08015,0,0,1-.07812-.07715v-.25879a.08328.08328,0,0,1,.02148-.05664.07515.07515,0,0,1,.05664-.02344h.166a.8099.8099,0,0,1,.58594.18164.844.844,0,0,1,.19726.582l.041.9375A.06228.06228,0,0,1,85.40345,43.75475Z"/><path class="d" d="M85.72376,43.02721a.0695.0695,0,0,1-.02344-.05469v-.874a.073.073,0,0,1,.02344-.05567.08148.08148,0,0,1,.05664-.02148h.38476a.07672.07672,0,0,1,.05469.02148.07911.07911,0,0,1,.02149.05567v.874a.07961.07961,0,0,1-.02149.05371.0701.0701,0,0,1-.05469.02246H85.7804A.0773.0773,0,0,1,85.72376,43.02721Z"/><path class="d" d="M86.55774,43.75475a.07184.07184,0,0,1-.02344-.05371v-.26465a.06953.06953,0,0,1,.02344-.05469.07148.07148,0,0,1,.05274-.02149H87.382v-.56933a.30716.30716,0,0,0-.34766-.34766h-.39257a.06816.06816,0,0,1-.05469-.02343.07512.07512,0,0,1-.02344-.05665V42.0985a.073.073,0,0,1,.02344-.05567.08018.08018,0,0,1,.05469-.02148h.4082a1.00091,1.00091,0,0,1,.65039.18164.72167.72167,0,0,1,.2207.58789v.56933h.10743a.07734.07734,0,0,1,.05664.02149.07509.07509,0,0,1,.02148.05469V43.701a.07782.07782,0,0,1-.02148.05371.07516.07516,0,0,1-.05664.02343h-1.418A.06977.06977,0,0,1,86.55774,43.75475Z"/><path class="d" d="M89.01673,43.7567a.079.079,0,0,1-.02149-.05566V42.0985a.07907.07907,0,0,1,.02149-.05567.08644.08644,0,0,1,.05859-.02148h.69727a.93211.93211,0,0,1,.623.17773.72187.72187,0,0,1,.20508.57617v.92286a.07512.07512,0,0,1-.02344.05664.07822.07822,0,0,1-.05664.02343H89.07532A.082.082,0,0,1,89.01673,43.7567Zm1.08789-.39649v-.56933a.30808.30808,0,0,0-.34766-.35059H89.462v.91992Z"/><path class="d" d="M90.95813,43.02721a.06953.06953,0,0,1-.02343-.05469v-.874a.073.073,0,0,1,.02343-.05567.08511.08511,0,0,1,.05664-.02148h.38477a.0815.0815,0,0,1,.05664.02148.07911.07911,0,0,1,.02148.05567v.874a.0796.0796,0,0,1-.02148.05371.07433.07433,0,0,1-.05664.02246h-.38477A.08051.08051,0,0,1,90.95813,43.02721Z"/><path class="d" d="M91.79212,43.75475a.07181.07181,0,0,1-.02344-.05371v-.26465a.0695.0695,0,0,1,.02344-.05469.07588.07588,0,0,1,.05468-.02149h.77149v-.56933a.30716.30716,0,0,0-.34766-.34766H91.8761a.071.071,0,0,1-.05469-.02343.08151.08151,0,0,1-.02148-.05665V42.0985a.073.073,0,0,1,.02344-.05567.07907.07907,0,0,1,.05273-.02148h.41016a1.00093,1.00093,0,0,1,.65039.18164.72167.72167,0,0,1,.2207.58789v.56933h.10742a.07283.07283,0,0,1,.05469.02149.07509.07509,0,0,1,.02149.05469V43.701a.07783.07783,0,0,1-.02149.05371.07093.07093,0,0,1-.05469.02343h-1.418A.0739.0739,0,0,1,91.79212,43.75475Z"/><path class="d" d="M95.24524,43.71373a.06083.06083,0,0,1-.01953.04492.05981.05981,0,0,1-.04492.01953h-.37891a.10685.10685,0,0,1-.084-.02929c-.01563-.01953-.02539-.03028-.02735-.03223l-.5371-.77832a.33066.33066,0,0,0-.10547.169.85029.85029,0,0,0-.02539.20312v.38477a.07744.07744,0,0,1-.02149.05957.07949.07949,0,0,1-.05859.02343h-.30078a.06749.06749,0,0,1-.05274-.02441.08271.08271,0,0,1-.02344-.05859v-.38184a1.08045,1.08045,0,0,1,.07032-.42383.77455.77455,0,0,1,.26758-.30762l-.31446-.45214a.07041.07041,0,0,1-.01562-.043.0632.0632,0,0,1,.02148-.04492.06038.06038,0,0,1,.04492-.02051h.36133a.10751.10751,0,0,1,.06641.01855.22523.22523,0,0,1,.04492.04981l.49609.70117a.27587.27587,0,0,0,.10938-.13574.65285.65285,0,0,0,.02148-.17481v-.376a.08719.08719,0,0,1,.02149-.05957.0751.0751,0,0,1,.05664-.02344h.32226a.07344.07344,0,0,1,.05664.02539.07881.07881,0,0,1,.02344.05762v.38769a.80085.80085,0,0,1-.07812.3584.72759.72759,0,0,1-.28516.291l.375.5293A.06479.06479,0,0,1,95.24524,43.71373Z"/><path class="d" d="M95.57337,43.7567a.073.073,0,0,1-.02344-.05566v-.28321a.07664.07664,0,0,1,.02344-.05664.07158.07158,0,0,1,.05664-.02246h.44531a.3271.3271,0,0,0,.36914-.34766c.00195-.02539.00391-.05566.00391-.09277,0-.03516-.002-.06445-.00391-.08887a.3271.3271,0,0,0-.36914-.34765H95.63a.07226.07226,0,0,1-.05664-.02344.07664.07664,0,0,1-.02344-.05664v-.2832a.073.073,0,0,1,.02344-.05567.07814.07814,0,0,1,.05664-.02148H96.091a.7472.7472,0,0,1,.85156.791c.002.02246.0039.05078.0039.08594a.96412.96412,0,0,1-.20117.64941.83084.83084,0,0,1-.65429.23047H95.63A.07433.07433,0,0,1,95.57337,43.7567Z"/><path class="d" d="M98.31555,42.44029h-.49023a.06975.06975,0,0,1-.05273-.02343.07337.07337,0,0,1-.02344-.05372V42.0985a.073.073,0,0,1,.02344-.05567.07546.07546,0,0,1,.05273-.02148h.50781a.99535.99535,0,0,1,.64063.17383.71468.71468,0,0,1,.209.57714v1.31055a.07911.07911,0,0,1-.02148.05567.08152.08152,0,0,1-.05664.02148h-.36328a.08508.08508,0,0,1-.05664-.02148.073.073,0,0,1-.02344-.05567v-1.292A.30748.30748,0,0,0,98.31555,42.44029Z"/><path class="d" d="M99.55188,43.7567a.07908.07908,0,0,1-.02148-.05566V42.0985a.07911.07911,0,0,1,.02148-.05567.08648.08648,0,0,1,.0586-.02148h.38281a.0815.0815,0,0,1,.05664.02148.07911.07911,0,0,1,.02148.05567V43.701a.07782.07782,0,0,1-.02148.05371.07515.07515,0,0,1-.05664.02343h-.38281A.082.082,0,0,1,99.55188,43.7567Z"/><path class="d" d="M100.4386,43.7567a.073.073,0,0,1-.02344-.05566v-.28321a.07839.07839,0,0,1,.08008-.0791h.44727a.32885.32885,0,0,0,.36914-.34766c.00195-.02539.00195-.05566.00195-.09277,0-.03516,0-.06445-.00195-.08887a.32885.32885,0,0,0-.36914-.34765h-.44727a.07826.07826,0,0,1-.05664-.02344.07668.07668,0,0,1-.02344-.05664v-.2832a.073.073,0,0,1,.02344-.05567.08511.08511,0,0,1,.05664-.02148h.46094a.74872.74872,0,0,1,.85352.791c.00195.02246.00195.05078.00195.08594a.95409.95409,0,0,1-.20117.64941.82811.82811,0,0,1-.6543.23047h-.46094A.08051.08051,0,0,1,100.4386,43.7567Z"/><path class="d" d="M102.12415,43.02721a.0695.0695,0,0,1-.02344-.05469v-.874a.073.073,0,0,1,.02344-.05567.08508.08508,0,0,1,.05664-.02148h.38476a.08153.08153,0,0,1,.05665.02148.07911.07911,0,0,1,.02148.05567v.874a.0796.0796,0,0,1-.02148.05371.07435.07435,0,0,1-.05665.02246h-.38476A.08047.08047,0,0,1,102.12415,43.02721Z"/><path class="d" d="M104.97376,42.04283a.0715.0715,0,0,1,.02148.05567v.80566a.90562.90562,0,0,1-.123.47559.83731.83731,0,0,1-.334.31543.97685.97685,0,0,1-.4707.10742h-.29492a.93091.93091,0,0,1-.43164-.09473.68076.68076,0,0,1-.37891-.61914V42.0985a.073.073,0,0,1,.02344-.05567.08508.08508,0,0,1,.05664-.02148h.32422a.07671.07671,0,0,1,.05468.02148.07907.07907,0,0,1,.02149.05567l.0039.73828a.28086.28086,0,0,0,.23243-.12793.62633.62633,0,0,0,.06836-.32129v-.2832a.08019.08019,0,0,1,.02343-.05957.07513.07513,0,0,1,.05664-.02344h.32032a.07154.07154,0,0,1,.05273.02539.07881.07881,0,0,1,.02344.05762v.29a.80168.80168,0,0,1-.18164.55372.76229.76229,0,0,1-.51367.23632.39814.39814,0,0,0,.15625.15039.43543.43543,0,0,0,.21289.05274h.07031a.6109.6109,0,0,0,.2832-.06445.48607.48607,0,0,0,.19727-.17872.47666.47666,0,0,0,.07031-.25488v-.791a.07911.07911,0,0,1,.02148-.05567.08152.08152,0,0,1,.05664-.02148h.32227A.0735.0735,0,0,1,104.97376,42.04283Z"/><path class="d" d="M106.48743,42.21373a.836.836,0,0,1,.17578.58008.90114.90114,0,0,1-.23047.63965,1.22294,1.22294,0,0,1-.57812.34765l-.127.03711a.06017.06017,0,0,1-.05664-.02148.08652.08652,0,0,1-.02539-.06153v-.31054a.08331.08331,0,0,1,.02149-.05762.15512.15512,0,0,1,.05468-.041l.09961-.04a.49919.49919,0,0,0,.22266-.165.5104.5104,0,0,0,.08008-.31153.41321.41321,0,0,0-.06641-.2705.325.325,0,0,0-.25195-.07715h-.08008l-.41211-.00293a.08146.08146,0,0,1-.05664-.02149.07908.07908,0,0,1-.02148-.05566v-.71094a.06954.06954,0,0,1,.02343-.05469.076.076,0,0,1,.05469-.02148h.332a.07286.07286,0,0,1,.05469.02148.0751.0751,0,0,1,.02148.05469v.35059h.19141A.747.747,0,0,1,106.48743,42.21373Z"/><path class="d" d="M68.74329,48.369a.07178.07178,0,0,1-.02344-.05371v-.26465a.06948.06948,0,0,1,.02344-.05468.07589.07589,0,0,1,.05469-.02149h.77148v-.56933a.30716.30716,0,0,0-.34766-.34766h-.39453a.0709.0709,0,0,1-.05468-.02344.08146.08146,0,0,1-.02149-.05664v-.26465a.073.073,0,0,1,.02344-.05566.07907.07907,0,0,1,.05273-.02148h.41016a1.00091,1.00091,0,0,1,.65039.18164.72167.72167,0,0,1,.2207.58789v.56933H70.216a.07282.07282,0,0,1,.05468.02149.07507.07507,0,0,1,.02149.05468v.26465a.07779.07779,0,0,1-.02149.05371.0709.0709,0,0,1-.05468.02344H68.798A.07388.07388,0,0,1,68.74329,48.369Z"/><path class="d" d="M70.53626,47.64146a.06948.06948,0,0,1-.02344-.05468v-.874a.073.073,0,0,1,.02344-.05566.08508.08508,0,0,1,.05664-.02148h.38476a.08148.08148,0,0,1,.05664.02148.079.079,0,0,1,.02149.05566v.874a.07958.07958,0,0,1-.02149.05371.07435.07435,0,0,1-.05664.02246H70.5929A.08048.08048,0,0,1,70.53626,47.64146Z"/><path class="d" d="M72.61829,48.369a.08611.08611,0,0,1-.05859.02344h-.38477a.0685.0685,0,0,1-.05273-.02148.09037.09037,0,0,1-.02344-.05567l-.04688-.22754a.67212.67212,0,0,1-.17773.15137,1.9037,1.9037,0,0,1-.22461.11524,1.129,1.129,0,0,1-.207.0625l-.02149.00293c-.03515,0-.05273-.01563-.05273-.04883v-.332c0-.03516.02148-.06055.06445-.07715.01563-.00586.0625-.02051.14063-.04492a1.13737,1.13737,0,0,0,.1914-.07227.59923.59923,0,0,0,.20313-.166l-.0586-.28613a.64229.64229,0,0,0-.09375-.26074.225.225,0,0,0-.1914-.07715h-.10742a.08017.08017,0,0,1-.07813-.07715v-.2832a.07662.07662,0,0,1,.02344-.05664.06813.06813,0,0,1,.05469-.02344h.11718a.9468.9468,0,0,1,.41993.0791.57257.57257,0,0,1,.25.24121,1.47374,1.47374,0,0,1,.14843.44336l.1836.9375A.05606.05606,0,0,1,72.61829,48.369Z"/><path class="d" d="M74.45032,46.82408a.73615.73615,0,0,1,.19727.5625v.92871a.07.07,0,0,1-.02149.05371.0709.0709,0,0,1-.05469.02344h-.83984a.07391.07391,0,0,1-.05469-.02344.07.07,0,0,1-.02148-.05371v-.26465a.06807.06807,0,0,1,.02148-.05468.07592.07592,0,0,1,.05469-.02149h.39648V47.411a.37216.37216,0,0,0-.07617-.249.25547.25547,0,0,0-.20117-.08886h-.24023l-.25977,1.23925a.095.095,0,0,1-.02539.05664.0709.0709,0,0,1-.05469.02344h-.35351a.0795.0795,0,0,1-.0586-.02344.064.064,0,0,1-.01562-.05664l.30078-1.23632h-.20313a.07093.07093,0,0,1-.05468-.02344.075.075,0,0,1-.02149-.05664v-.28321a.073.073,0,0,1,.02344-.05566.07546.07546,0,0,1,.05273-.02148h.98829A.72.72,0,0,1,74.45032,46.82408Z"/><path class="d" d="M75.66126,48.371a.073.073,0,0,1-.02344-.05567V46.71275a.073.073,0,0,1,.02344-.05566.08508.08508,0,0,1,.05664-.02148h.38476a.0735.0735,0,0,1,.05469.02148.07145.07145,0,0,1,.02149.05566v1.60254a.07.07,0,0,1-.02149.05371.06813.06813,0,0,1-.05469.02344H75.7179A.08047.08047,0,0,1,75.66126,48.371Z"/><path class="d" d="M77.59876,48.369a.07513.07513,0,0,1-.05664.02344h-.98828a.08047.08047,0,0,1-.05664-.02148.07148.07148,0,0,1-.02149-.05567v-.26465a.068.068,0,0,1,.02149-.05468.08048.08048,0,0,1,.05664-.02149h.51171l-.02734-.60644a.53378.53378,0,0,0-.0625-.25879.21016.21016,0,0,0-.18945-.0791h-.15821a.0803.0803,0,0,1-.07617-.07715V46.6942a.08327.08327,0,0,1,.02149-.05664.0709.0709,0,0,1,.05468-.02344h.166a.80364.80364,0,0,1,.58594.18164.835.835,0,0,1,.19922.582l.03906.9375A.06226.06226,0,0,1,77.59876,48.369Z"/><path class="d" d="M77.91907,47.64146a.06951.06951,0,0,1-.02344-.05468v-.874a.073.073,0,0,1,.02344-.05566.08511.08511,0,0,1,.05664-.02148h.38477a.08152.08152,0,0,1,.05664.02148.07908.07908,0,0,1,.02148.05566v.874a.07961.07961,0,0,1-.02148.05371.07438.07438,0,0,1-.05664.02246h-.38477A.08052.08052,0,0,1,77.91907,47.64146Z"/><path class="d" d="M80.43079,48.328a.067.067,0,0,1-.01758.04492.0641.0641,0,0,1-.04687.01953h-.37891a.0996.0996,0,0,1-.082-.0293c-.01758-.01953-.02539-.03027-.02735-.03222L79.339,47.5526a.34017.34017,0,0,0-.10351.16894.76178.76178,0,0,0-.02539.20313v.38476a.07869.07869,0,0,1-.02344.05957.07512.07512,0,0,1-.05664.02344h-.30078a.07139.07139,0,0,1-.05469-.02441.08269.08269,0,0,1-.02344-.0586V47.9276a1.08065,1.08065,0,0,1,.07031-.42383.781.781,0,0,1,.26954-.30762l-.31446-.45215a.07036.07036,0,0,1-.01562-.043.06085.06085,0,0,1,.01953-.04493.06364.06364,0,0,1,.04492-.0205h.36328a.10751.10751,0,0,1,.06641.01855.28717.28717,0,0,1,.04492.0498l.49414.70118a.26545.26545,0,0,0,.10938-.13575.57831.57831,0,0,0,.02343-.1748v-.376a.08723.08723,0,0,1,.02149-.05957.07092.07092,0,0,1,.05468-.02343h.32422a.07642.07642,0,0,1,.05664.02539.0788.0788,0,0,1,.02344.05761v.3877a.8017.8017,0,0,1-.08008.3584.72141.72141,0,0,1-.2832.291l.375.5293A.07649.07649,0,0,1,80.43079,48.328Z"/><path class="d" d="M82.73352,46.65709a.07145.07145,0,0,1,.02149.05566v.80567a.90557.90557,0,0,1-.123.47558.83722.83722,0,0,1-.334.31543.97675.97675,0,0,1-.47071.10743h-.29492a.931.931,0,0,1-.43164-.09473.68076.68076,0,0,1-.37891-.61914v-.99024a.073.073,0,0,1,.02344-.05566.08511.08511,0,0,1,.05664-.02148h.32422a.07672.07672,0,0,1,.05469.02148.07908.07908,0,0,1,.02148.05566l.00391.73829a.28085.28085,0,0,0,.23242-.12793.62635.62635,0,0,0,.06836-.32129v-.28321a.08019.08019,0,0,1,.02344-.05957.07513.07513,0,0,1,.05664-.02343h.32031a.07154.07154,0,0,1,.05274.02539.07883.07883,0,0,1,.02343.05761v.29a.80158.80158,0,0,1-.18164.55371.76221.76221,0,0,1-.51367.23633.3982.3982,0,0,0,.15625.15039.43546.43546,0,0,0,.21289.05274h.07031a.61085.61085,0,0,0,.28321-.06446.48609.48609,0,0,0,.19726-.17871.47658.47658,0,0,0,.07032-.25488v-.791a.07908.07908,0,0,1,.02148-.05566.08148.08148,0,0,1,.05664-.02148h.32227A.07349.07349,0,0,1,82.73352,46.65709Z"/><path class="d" d="M84.87024,48.371a.0715.0715,0,0,1-.02148-.05567v-.91015a.30885.30885,0,0,0-.34766-.35059h-.70117a.08644.08644,0,0,1-.05859-.02148.07907.07907,0,0,1-.02149-.05567v-.26465a.079.079,0,0,1,.02149-.05566.08644.08644,0,0,1,.05859-.02148h.7168a.93743.93743,0,0,1,.63672.18847.737.737,0,0,1,.21484.584v.90722a.073.073,0,0,1-.02344.05567.08047.08047,0,0,1-.05664.02148h-.36328A.07.07,0,0,1,84.87024,48.371Zm-1.1289,0a.07907.07907,0,0,1-.02149-.05567v-.89843a.07668.07668,0,0,1,.02149-.05469.082.082,0,0,1,.05859-.02149h.36133a.07367.07367,0,0,1,.07812.07618v.89843a.07778.07778,0,0,1-.02148.05371.07512.07512,0,0,1-.05664.02344h-.36133A.082.082,0,0,1,83.74134,48.371Z"/><path class="d" d="M85.73548,48.371a.073.073,0,0,1-.02344-.05567V46.71275a.073.073,0,0,1,.02344-.05566.08508.08508,0,0,1,.05664-.02148h.38476a.0735.0735,0,0,1,.05469.02148.07145.07145,0,0,1,.02148.05566v1.60254a.07.07,0,0,1-.02148.05371.06813.06813,0,0,1-.05469.02344h-.38476A.08047.08047,0,0,1,85.73548,48.371Z"/><path class="d" d="M86.58118,48.369a.07178.07178,0,0,1-.02344-.05371v-.26465a.06948.06948,0,0,1,.02344-.05468.07589.07589,0,0,1,.05469-.02149h.77148v-.56933a.30716.30716,0,0,0-.34765-.34766h-.39454a.0709.0709,0,0,1-.05468-.02344.08146.08146,0,0,1-.02149-.05664v-.26465a.073.073,0,0,1,.02344-.05566.07907.07907,0,0,1,.05273-.02148h.41016a1.00091,1.00091,0,0,1,.65039.18164.72163.72163,0,0,1,.2207.58789v.56933h.10743a.07282.07282,0,0,1,.05468.02149.075.075,0,0,1,.02149.05468v.26465a.07775.07775,0,0,1-.02149.05371.0709.0709,0,0,1-.05468.02344h-1.418A.07388.07388,0,0,1,86.58118,48.369Z"/><path class="d" d="M89.60266,48.369a.07946.07946,0,0,1-.05859.02344H89.1593a.06721.06721,0,0,1-.05078-.02148.08256.08256,0,0,1-.02539-.05567l-.04687-.22754a.64269.64269,0,0,1-.17774.15137,1.89227,1.89227,0,0,1-.22265.11524,1.17676,1.17676,0,0,1-.207.0625l-.02149.00293c-.03515,0-.05273-.01563-.05273-.04883v-.332c0-.03516.02148-.06055.06445-.07715.01367-.00586.06055-.02051.14063-.04492a1.13771,1.13771,0,0,0,.1914-.07227.59923.59923,0,0,0,.20313-.166l-.0586-.28613a.66916.66916,0,0,0-.0957-.26074.22256.22256,0,0,0-.19141-.07715H88.5011a.0803.0803,0,0,1-.07617-.07715v-.2832a.08326.08326,0,0,1,.02148-.05664.07093.07093,0,0,1,.05469-.02344h.11719a.94676.94676,0,0,1,.41992.0791.58731.58731,0,0,1,.25195.24121,1.53467,1.53467,0,0,1,.14649.44336l.18555.9375A.0532.0532,0,0,1,89.60266,48.369Z"/><path class="d" d="M90.49134,48.371a.073.073,0,0,1-.02344-.05567V46.71275a.073.073,0,0,1,.02344-.05566.08508.08508,0,0,1,.05664-.02148h.69922a.93563.93563,0,0,1,.623.17773.728.728,0,0,1,.20313.57617v.92285a.07514.07514,0,0,1-.02344.05664.07222.07222,0,0,1-.05664.02344H90.548A.08047.08047,0,0,1,90.49134,48.371Zm1.08789-.39649v-.56933a.30885.30885,0,0,0-.34766-.35059h-.29492v.91992Z"/><path class="d" d="M92.44446,48.371a.073.073,0,0,1-.02344-.05567V46.71275a.073.073,0,0,1,.02344-.05566.08511.08511,0,0,1,.05664-.02148h.38477a.07349.07349,0,0,1,.05468.02148.07145.07145,0,0,1,.02149.05566v1.60254a.07.07,0,0,1-.02149.05371.06812.06812,0,0,1-.05468.02344H92.5011A.08051.08051,0,0,1,92.44446,48.371Z"/><path class="d" d="M93.34876,48.371a.073.073,0,0,1-.02344-.05567V46.71275a.073.073,0,0,1,.02344-.05566.08508.08508,0,0,1,.05664-.02148H94.132a.96735.96735,0,0,1,.64453.18066.74532.74532,0,0,1,.207.5918v.90722a.07778.07778,0,0,1-.02148.05371.0709.0709,0,0,1-.05469.02344h-.36328a.0773.0773,0,0,1-.05664-.02148.073.073,0,0,1-.02344-.05567v-.91015a.30807.30807,0,0,0-.34765-.35059h-.27149v1.26074a.07.07,0,0,1-.02148.05371.06813.06813,0,0,1-.05469.02344H93.4054A.08047.08047,0,0,1,93.34876,48.371Z"/><path class="d" d="M97.61243,46.8192a.71063.71063,0,0,1,.21289.57031v.92578a.07.07,0,0,1-.02148.05371.07093.07093,0,0,1-.05469.02344h-.36328a.0773.0773,0,0,1-.05664-.02148.073.073,0,0,1-.02344-.05567v-.91015a.30808.30808,0,0,0-.34766-.35059h-.19922a1.85293,1.85293,0,0,0-.04687.45215l.02539.80859a.073.073,0,0,1-.02344.05567.08047.08047,0,0,1-.05664.02148l-.65234-.00293a.0773.0773,0,0,1-.05664-.02148.073.073,0,0,1-.02344-.05567V48.0692a.0695.0695,0,0,1,.02344-.05469A.0773.0773,0,0,1,96.005,47.993h.248v-.4834a1.65522,1.65522,0,0,1,.04688-.45508h-.18164a.08508.08508,0,0,1-.05664-.02148.073.073,0,0,1-.02344-.05567v-.26465a.073.073,0,0,1,.02344-.05566.08508.08508,0,0,1,.05664-.02148h.85937A.95584.95584,0,0,1,97.61243,46.8192Z"/><path class="d" d="M99.546,46.65709a.079.079,0,0,1,.02149.05566v.26465a.07956.07956,0,0,1-.02149.05371.0751.0751,0,0,1-.05664.02344h-.14062a.46.46,0,0,0-.05664.15625,1.07879,1.07879,0,0,0-.02149.21875v.89551a.06037.06037,0,0,1-.02734.04785.11367.11367,0,0,1-.06055.01953h-.35937a.06935.06935,0,0,1-.05078-.01855.06651.06651,0,0,1-.01758-.04883v-.92969a.66367.66367,0,0,1,.06054-.34082h-.70117a.0803.0803,0,0,1-.07617-.07715v-.26465a.073.073,0,0,1,.02344-.05566.07907.07907,0,0,1,.05273-.02148h1.375A.08148.08148,0,0,1,99.546,46.65709Z"/><path class="d" d="M100.70423,48.371a.073.073,0,0,1-.02344-.05567v-.91015a.30808.30808,0,0,0-.34766-.35059h-.46679a.08017.08017,0,0,1-.07813-.07715v-.26465a.073.073,0,0,1,.02344-.05566.08018.08018,0,0,1,.05469-.02148h.48437a.98114.98114,0,0,1,.63867.17578.70851.70851,0,0,1,.21094.57519v.92871a.07778.07778,0,0,1-.02148.05371.07093.07093,0,0,1-.05469.02344h-.36328A.0773.0773,0,0,1,100.70423,48.371Z"/><path class="d" d="M101.56946,48.371a.07911.07911,0,0,1-.02148-.05567V46.71275a.07908.07908,0,0,1,.02148-.05566.08647.08647,0,0,1,.05859-.02148h.38282a.08152.08152,0,0,1,.05664.02148.07908.07908,0,0,1,.02148.05566v1.60254a.07778.07778,0,0,1-.02148.05371.07513.07513,0,0,1-.05664.02344h-.38282A.082.082,0,0,1,101.56946,48.371Z"/><path class="d" d="M103.60266,48.371a.0715.0715,0,0,1-.02148-.05567v-.91015a.30885.30885,0,0,0-.34766-.35059h-.70117a.08644.08644,0,0,1-.05859-.02148.07911.07911,0,0,1-.02149-.05567v-.26465a.07909.07909,0,0,1,.02149-.05566.08644.08644,0,0,1,.05859-.02148h.7168a.93743.93743,0,0,1,.63672.18847.73692.73692,0,0,1,.21484.584v.90722a.073.073,0,0,1-.02344.05567.08047.08047,0,0,1-.05664.02148h-.36328A.07.07,0,0,1,103.60266,48.371Zm-1.1289,0a.07911.07911,0,0,1-.02149-.05567v-.89843a.07672.07672,0,0,1,.02149-.05469.082.082,0,0,1,.05859-.02149h.36133a.07367.07367,0,0,1,.07812.07618v.89843a.07778.07778,0,0,1-.02148.05371.0751.0751,0,0,1-.05664.02344h-.36133A.082.082,0,0,1,102.47376,48.371Z"/><path class="d" d="M105.58313,46.828a.836.836,0,0,1,.17578.58008.90113.90113,0,0,1-.23046.63964,1.223,1.223,0,0,1-.57813.34766l-.127.03711a.06017.06017,0,0,1-.05664-.02148.08649.08649,0,0,1-.02539-.06153v-.31054a.08335.08335,0,0,1,.02148-.05762.15521.15521,0,0,1,.05469-.041l.09961-.04a.499.499,0,0,0,.22265-.165.51034.51034,0,0,0,.08008-.31152.41325.41325,0,0,0-.0664-.27051.325.325,0,0,0-.252-.07714h-.08008l-.41211-.00293a.08153.08153,0,0,1-.05664-.02149.07908.07908,0,0,1-.02148-.05566V46.285a.0695.0695,0,0,1,.02344-.05469.07587.07587,0,0,1,.05468-.02148h.332a.07281.07281,0,0,1,.05468.02148.07505.07505,0,0,1,.02149.05469v.35059h.1914A.747.747,0,0,1,105.58313,46.828Z"/><path class="d" d="M106.07923,48.371a.07907.07907,0,0,1-.02149-.05567V46.71275a.079.079,0,0,1,.02149-.05566.08644.08644,0,0,1,.05859-.02148h.38281a.08148.08148,0,0,1,.05664.02148.079.079,0,0,1,.02149.05566v1.60254a.07775.07775,0,0,1-.02149.05371.0751.0751,0,0,1-.05664.02344h-.38281A.082.082,0,0,1,106.07923,48.371Z"/><path class="d" d="M79.6593,52.98521a.07907.07907,0,0,1-.02148-.05566V51.327a.07908.07908,0,0,1,.02148-.05566.08649.08649,0,0,1,.0586-.02149h.69726a.93207.93207,0,0,1,.62305.17774.72187.72187,0,0,1,.20508.57617v.92285a.07512.07512,0,0,1-.02344.05664.07819.07819,0,0,1-.05664.02344H79.7179A.082.082,0,0,1,79.6593,52.98521Zm1.0879-.39648v-.56934a.30807.30807,0,0,0-.34766-.35058h-.29492v.91992Z"/><path class="d" d="M81.60071,52.25572a.06951.06951,0,0,1-.02344-.05468v-.874a.073.073,0,0,1,.02344-.05566.08512.08512,0,0,1,.05664-.02149h.38477a.08153.08153,0,0,1,.05664.02149.07908.07908,0,0,1,.02148.05566v.874a.07963.07963,0,0,1-.02148.05371.07438.07438,0,0,1-.05664.02246h-.38477A.08052.08052,0,0,1,81.60071,52.25572Z"/><path class="d" d="M83.32727,52.98521a.073.073,0,0,1-.02343-.05566v-.91016a.30807.30807,0,0,0-.34766-.35058h-.4668a.08017.08017,0,0,1-.07812-.07715V51.327a.073.073,0,0,1,.02344-.05566.08018.08018,0,0,1,.05468-.02149h.48438a.98124.98124,0,0,1,.63867.17578.70858.70858,0,0,1,.21094.5752v.92871a.07781.07781,0,0,1-.02149.05371.0709.0709,0,0,1-.05468.02344h-.36329A.07734.07734,0,0,1,83.32727,52.98521Z"/><path class="d" d="M84.19446,52.98521a.073.073,0,0,1-.02344-.05566V51.327a.073.073,0,0,1,.02344-.05566.08512.08512,0,0,1,.05664-.02149h.72656a.96739.96739,0,0,1,.64454.18067.7453.7453,0,0,1,.207.59179v.90723a.07781.07781,0,0,1-.02149.05371.0709.0709,0,0,1-.05469.02344h-.36328a.07734.07734,0,0,1-.05664-.02149.073.073,0,0,1-.02343-.05566v-.91016a.30807.30807,0,0,0-.34766-.35058h-.27149v1.26074a.07.07,0,0,1-.02148.05371.06813.06813,0,0,1-.05469.02344H84.2511A.08052.08052,0,0,1,84.19446,52.98521Z"/><path class="d" d="M87.81946,52.94225a.067.067,0,0,1-.01758.04492.06414.06414,0,0,1-.04687.01953H87.3761a.09965.09965,0,0,1-.082-.0293c-.01758-.01953-.02539-.03027-.02734-.03222l-.53907-.77832a.34009.34009,0,0,0-.10351.16894.76178.76178,0,0,0-.02539.20313v.38476a.07867.07867,0,0,1-.02344.05957.0751.0751,0,0,1-.05664.02344H86.2179a.07141.07141,0,0,1-.05469-.02441.08275.08275,0,0,1-.02344-.0586v-.38183a1.08045,1.08045,0,0,1,.07032-.42383.78078.78078,0,0,1,.26953-.30762l-.31446-.45215a.07037.07037,0,0,1-.01562-.043.06083.06083,0,0,1,.01953-.04492.06365.06365,0,0,1,.04492-.02051h.36328a.10751.10751,0,0,1,.06641.01856.286.286,0,0,1,.04492.0498l.49414.70117a.26534.26534,0,0,0,.10938-.13574.57835.57835,0,0,0,.02343-.1748v-.376a.08723.08723,0,0,1,.02149-.05957.07094.07094,0,0,1,.05469-.02344H87.716a.07648.07648,0,0,1,.05664.02539.07887.07887,0,0,1,.02343.05762v.3877a.80179.80179,0,0,1-.08007.35839.72158.72158,0,0,1-.28321.291l.375.5293A.07647.07647,0,0,1,87.81946,52.94225Z"/><path class="d" d="M89.9054,51.44225a.836.836,0,0,1,.17578.58007.90241.90241,0,0,1-.23242.63965,1.21361,1.21361,0,0,1-.57813.34766l-.125.03711a.05872.05872,0,0,1-.05664-.02149.08876.08876,0,0,1-.02734-.06152v-.31055a.09364.09364,0,0,1,.02148-.05761.163.163,0,0,1,.05664-.041l.09766-.04a.49919.49919,0,0,0,.22266-.165.51013.51013,0,0,0,.082-.31152.412.412,0,0,0-.06836-.27051.325.325,0,0,0-.252-.07715h-.08007l-.41211-.00293a.07672.07672,0,0,1-.05469-.02148.07146.07146,0,0,1-.02148-.05567v-.71093a.06953.06953,0,0,1,.02343-.05469.07147.07147,0,0,1,.05274-.02148h.332a.07732.07732,0,0,1,.05664.02148.07509.07509,0,0,1,.02148.05469v.35058h.18946A.749.749,0,0,1,89.9054,51.44225Z"/><path class="d" d="M90.40149,52.98521a.073.073,0,0,1-.02344-.05566V51.327a.073.073,0,0,1,.02344-.05566.08512.08512,0,0,1,.05664-.02149h.38477a.07352.07352,0,0,1,.05469.02149.07148.07148,0,0,1,.02148.05566v1.60254a.07.07,0,0,1-.02148.05371.06815.06815,0,0,1-.05469.02344h-.38477A.08052.08052,0,0,1,90.40149,52.98521Z"/><path class="d" d="M91.6847,51.79771c.00585.084.02929.13379.07421.14747l.08594.03125a.06858.06858,0,0,1,.03906.03515.113.113,0,0,1,.01368.05664l.0039.15723a.08024.08024,0,0,1-.043.07226.14554.14554,0,0,1-.09961.01954l-.125-.01758a.39647.39647,0,0,1-.26562-.1709.6278.6278,0,0,1-.10352-.36816V51.327a.10506.10506,0,0,1,.02539-.05566.071.071,0,0,1,.05079-.02149H91.962a.79453.79453,0,0,1,.60156.208.87091.87091,0,0,1,.2168.583c.00195.02051.0039.04883.0039.08594a.97154.97154,0,0,1-.19726.64746.774.774,0,0,1-.625.23242h-.584a.07734.07734,0,0,1-.05664-.02149.073.073,0,0,1-.02343-.05566v-.2832a.07665.07665,0,0,1,.02343-.05664.07434.07434,0,0,1,.05664-.02246h.56836a.36785.36785,0,0,0,.25782-.09082.35836.35836,0,0,0,.10937-.25684c.002-.02051.002-.05176.002-.09277,0-.03907,0-.06836-.002-.08887a.34055.34055,0,0,0-.10742-.25684.3695.3695,0,0,0-.25977-.09082H91.6847Z"/><path class="d" d="M93.0968,52.25572a.0695.0695,0,0,1-.02343-.05468v-.874a.073.073,0,0,1,.02343-.05566.08153.08153,0,0,1,.05665-.02149h.38476a.07672.07672,0,0,1,.05469.02149.07908.07908,0,0,1,.02148.05566v.874a.07963.07963,0,0,1-.02148.05371.07014.07014,0,0,1-.05469.02246h-.38476A.07735.07735,0,0,1,93.0968,52.25572Z"/><path class="d" d="M94.16321,52.83775a.73787.73787,0,0,1-.21289-.5664V51.327a.073.073,0,0,1,.02344-.05566.07546.07546,0,0,1,.05273-.02149h.32031a.08153.08153,0,0,1,.05665.02149.073.073,0,0,1,.02343.05566v.92871a.31678.31678,0,0,0,.09961.25684.41868.41868,0,0,0,.2793.085c.22851,0,.3457-.10938.34766-.3291a.57938.57938,0,0,0,0-.083V52.038a.552.552,0,0,0-.0586-.26953.17767.17767,0,0,0-.16015-.09375.35121.35121,0,0,0-.0918.01269.32652.32652,0,0,0-.07813.03028.09821.09821,0,0,1-.02734.00586.06057.06057,0,0,1-.04688-.01954.06928.06928,0,0,1-.02148-.05078V51.41a.12041.12041,0,0,1,.05859-.11328.581.581,0,0,1,.29493-.0586.59744.59744,0,0,1,.48632.17676.8813.8813,0,0,1,.15039.5459V52.284q-.03222.75294-.85351.75293A.91427.91427,0,0,1,94.16321,52.83775Z"/><path class="d" d="M96.61829,52.25572a.06948.06948,0,0,1-.02344-.05468v-.874a.073.073,0,0,1,.02344-.05566.0851.0851,0,0,1,.05664-.02149h.38477a.08153.08153,0,0,1,.05664.02149.07908.07908,0,0,1,.02148.05566v.874a.07963.07963,0,0,1-.02148.05371.07438.07438,0,0,1-.05664.02246h-.38477A.0805.0805,0,0,1,96.61829,52.25572Z"/><path class="d" d="M99.07532,51.27135a.07908.07908,0,0,1,.02148.05566v.91113a.66676.66676,0,0,1-.21289.50586,1.12615,1.12615,0,0,1-.5957.26856l-.78906.166a.06771.06771,0,0,1-.0586-.01464.07033.07033,0,0,1-.02734-.05567v-.26758a.08895.08895,0,0,1,.07227-.083l.33984-.083L97.464,51.37291a.25622.25622,0,0,1-.01562-.06152.06227.06227,0,0,1,.01758-.043.0616.0616,0,0,1,.043-.01856h.40039a.07867.07867,0,0,1,.04688.01465.063.063,0,0,1,.02344.03223l.30859,1.25781a.423.423,0,0,0,.22656-.17383.607.607,0,0,0,.0625-.29687V51.327a.07145.07145,0,0,1,.02149-.05566.07672.07672,0,0,1,.05469-.02149h.36523A.08149.08149,0,0,1,99.07532,51.27135Z"/><path class="d" d="M100.83509,51.97154a.75528.75528,0,0,1-.27149.27832l.24024.3291c.01171.01661.02148.03223.02929.0459a.11852.11852,0,0,1,.00977.05567v.249a.07.07,0,0,1-.02149.05371.06812.06812,0,0,1-.05468.02344h-1.248a.07391.07391,0,0,1-.05469-.02344.07183.07183,0,0,1-.02344-.05371v-.27344a.073.073,0,0,1,.02344-.05566.08022.08022,0,0,1,.05469-.02149h.72266l-.89649-1.21777a.10889.10889,0,0,1-.01758-.0498.05335.05335,0,0,1,.01953-.044.07142.07142,0,0,1,.04883-.01758h.38086a.11051.11051,0,0,1,.09766.05567l.43164.59082a.4873.4873,0,0,0,.14062-.39063v-.17285a.08023.08023,0,0,1,.02344-.05957.07826.07826,0,0,1,.05664-.02344h.32227a.07243.07243,0,0,1,.05469.02539.07887.07887,0,0,1,.02343.05762v.26465A.77154.77154,0,0,1,100.83509,51.97154Z"/><path class="d" d="M102.80579,51.43834a.74355.74355,0,0,1,.19726.5625v.92871a.0778.0778,0,0,1-.02148.05371.0751.0751,0,0,1-.05664.02344h-.83984a.07285.07285,0,0,1-.05274-.02344.07183.07183,0,0,1-.02344-.05371V52.6649a.06955.06955,0,0,1,.02344-.05469.07468.07468,0,0,1,.05274-.02148h.39843v-.56348a.37265.37265,0,0,0-.07812-.249.24882.24882,0,0,0-.19922-.08887H101.966l-.26172,1.23926a.09321.09321,0,0,1-.02344.05664.07512.07512,0,0,1-.05664.02344h-.35352a.07513.07513,0,0,1-.05664-.02344.05985.05985,0,0,1-.01758-.05664l.30274-1.23633H101.296a.07516.07516,0,0,1-.05664-.02343.08328.08328,0,0,1-.02148-.05665V51.327a.073.073,0,0,1,.02344-.05566.08018.08018,0,0,1,.05468-.02149h.98633A.72475.72475,0,0,1,102.80579,51.43834Z"/><path class="d" d="M104.98938,52.94225a.067.067,0,0,1-.01758.04492.06414.06414,0,0,1-.04687.01953H104.546a.09965.09965,0,0,1-.082-.0293c-.01758-.01953-.02539-.03027-.02734-.03222l-.53906-.77832a.34011.34011,0,0,0-.10352.16894.76178.76178,0,0,0-.02539.20313v.38476a.07867.07867,0,0,1-.02344.05957.0751.0751,0,0,1-.05664.02344h-.30078a.07142.07142,0,0,1-.05469-.02441.08274.08274,0,0,1-.02343-.0586v-.38183A1.08046,1.08046,0,0,1,103.38,52.118a.78094.78094,0,0,1,.26953-.30762l-.31445-.45215a.07032.07032,0,0,1-.01563-.043.06083.06083,0,0,1,.01953-.04492.06365.06365,0,0,1,.04492-.02051h.36329a.10748.10748,0,0,1,.0664.01856.28563.28563,0,0,1,.04492.0498l.49414.70117a.26534.26534,0,0,0,.10938-.13574.57833.57833,0,0,0,.02344-.1748v-.376a.08722.08722,0,0,1,.02148-.05957.07094.07094,0,0,1,.05469-.02344h.32422a.07648.07648,0,0,1,.05664.02539.07888.07888,0,0,1,.02344.05762v.3877a.80179.80179,0,0,1-.08008.35839.72152.72152,0,0,1-.28321.291l.375.5293A.07639.07639,0,0,1,104.98938,52.94225Z"/><path class="d" d="M106.48743,51.44225a.836.836,0,0,1,.17578.58007.9011.9011,0,0,1-.23047.63965,1.22287,1.22287,0,0,1-.57812.34766l-.127.03711a.06018.06018,0,0,1-.05664-.02149.08649.08649,0,0,1-.02539-.06152v-.31055a.08329.08329,0,0,1,.02149-.05761.15515.15515,0,0,1,.05468-.041l.09961-.04a.49919.49919,0,0,0,.22266-.165.51036.51036,0,0,0,.08008-.31152.41325.41325,0,0,0-.06641-.27051.325.325,0,0,0-.25195-.07715h-.08008l-.41211-.00293a.0815.0815,0,0,1-.05664-.02148.07909.07909,0,0,1-.02148-.05567v-.71093a.06953.06953,0,0,1,.02343-.05469.07591.07591,0,0,1,.05469-.02148h.332a.07282.07282,0,0,1,.05469.02148.07509.07509,0,0,1,.02148.05469v.35058h.19141A.74705.74705,0,0,1,106.48743,51.44225Z"/><rect class="f" x="8.53997" y="35.90207" width="101.70273" height="2.55256"/><path class="e" d="M74.23548,27.69225a.20581.20581,0,0,1-.06641-.15918V21.8026a.20932.20932,0,0,1,.06641-.16016.23455.23455,0,0,1,.16406-.06152h1.04883a.2187.2187,0,0,1,.16015.06152.221.221,0,0,1,.0625.16016v5.73047a.214.214,0,0,1-.22265.22168H74.39954A.231.231,0,0,1,74.23548,27.69225Z"/><path class="e" d="M76.75891,24.48521a.2058.2058,0,0,1-.0664-.15917V21.8026a.20935.20935,0,0,1,.0664-.16016.23457.23457,0,0,1,.16407-.06152H78.0343a.22187.22187,0,0,1,.16016.06152.21952.21952,0,0,1,.06055.16016V24.326a.22247.22247,0,0,1-.06055.15527.21437.21437,0,0,1-.16016.0664H76.923A.231.231,0,0,1,76.75891,24.48521Z"/><path class="e" d="M82.76868,26.58678a.24331.24331,0,0,1-.16992.0664H81.48938a.20706.20706,0,0,1-.15234-.0625.25.25,0,0,1-.07031-.15918l-.13282-.6582a1.90758,1.90758,0,0,1-.51562.43555,4.88356,4.88356,0,0,1-.64453.333,3.2034,3.2034,0,0,1-.59961.18261l-.0625.00879c-.09961,0-.15039-.04785-.15039-.14258v-.959q0-.15088.1875-.22266c.041-.01758.17578-.06054.40234-.12793a3.54685,3.54685,0,0,0,.55664-.209,1.77725,1.77725,0,0,0,.58594-.47949l-.168-.82618a1.96928,1.96928,0,0,0-.27539-.75585.65115.65115,0,0,0-.55078-.22168H79.587a.227.227,0,0,1-.2207-.22168v-.81739a.23454.23454,0,0,1,.06054-.165.21438.21438,0,0,1,.16016-.0664h.33789a2.74447,2.74447,0,0,1,1.21289.22656,1.68358,1.68358,0,0,1,.72461.69727,4.37914,4.37914,0,0,1,.42578,1.27929l.5332,2.71A.16084.16084,0,0,1,82.76868,26.58678Z"/><path class="e" d="M86.67688,22.13561a2.414,2.414,0,0,1,.50586,1.6748,2.60681,2.60681,0,0,1-.666,1.84766A3.53163,3.53163,0,0,1,84.8468,26.662l-.36328.10645a.1752.1752,0,0,1-.166-.06153.26029.26029,0,0,1-.07422-.17773V25.6317a.24349.24349,0,0,1,.0625-.16406.41781.41781,0,0,1,.16016-.12012l.2832-.11523a1.44414,1.44414,0,0,0,.64453-.47559,1.49025,1.49025,0,0,0,.23437-.90137,1.193,1.193,0,0,0-.19531-.78222.94729.94729,0,0,0-.72851-.22168h-.23047l-1.18946-.00879a.2163.2163,0,0,1-.16015-.0625.21191.21191,0,0,1-.0625-.16016V20.56822a.2079.2079,0,0,1,.0664-.16015.22334.22334,0,0,1,.15625-.0625h.959a.22261.22261,0,0,1,.16016.0625.21942.21942,0,0,1,.0625.16015v1.0127h.55078A2.15493,2.15493,0,0,1,86.67688,22.13561Z"/><path class="e" d="M88.61829,26.1649a2.12631,2.12631,0,0,1-.61719-1.63476V21.8026a.20936.20936,0,0,1,.06641-.16016.22241.22241,0,0,1,.15625-.06152h.92383a.23455.23455,0,0,1,.16406.06152.21645.21645,0,0,1,.0664.16016v2.68261a.91561.91561,0,0,0,.28907.74219,1.20026,1.20026,0,0,0,.80273.24414q.99609,0,1.00391-.95019a2.15175,2.15175,0,0,0,.00586-.24024c-.00391-.10058-.00586-.17773-.00586-.23047v-.19531a1.61461,1.61461,0,0,0-.168-.77734.51026.51026,0,0,0-.46289-.27149,1.021,1.021,0,0,0-.26172.03614.85636.85636,0,0,0-.22656.08789.261.261,0,0,1-.08008.01855.18594.18594,0,0,1-.13672-.05762.19943.19943,0,0,1-.05859-.14746v-.70117a.349.349,0,0,1,.16992-.3291,1.67335,1.67335,0,0,1,.85156-.16894,1.72233,1.72233,0,0,1,1.40039.51074,2.51631,2.51631,0,0,1,.43945,1.57715v.93261q-.0996,2.17675-2.4707,2.17676A2.62634,2.62634,0,0,1,88.61829,26.1649Z"/><path class="e" d="M94.97376,23.162c.01172.24317.084.38477.21484.42676l.24805.08887a.21149.21149,0,0,1,.11133.10156.36363.36363,0,0,1,.03906.165l.00976.45215a.23539.23539,0,0,1-.12109.209.43.43,0,0,1-.28711.05762l-.36523-.05274a1.12982,1.12982,0,0,1-.76367-.49316,1.78072,1.78072,0,0,1-.30274-1.06152V21.8026a.31136.31136,0,0,1,.07617-.16016.194.194,0,0,1,.14649-.06152h1.79492a2.29565,2.29565,0,0,1,1.73633.59961,2.53173,2.53173,0,0,1,.627,1.68359c.00586.05859.00781.1416.00781.248a2.806,2.806,0,0,1-.56836,1.87012,2.237,2.237,0,0,1-1.80273.67089H94.087a.23246.23246,0,0,1-.166-.0625.2127.2127,0,0,1-.0664-.15918v-.81738a.23087.23087,0,0,1,.0664-.165.2276.2276,0,0,1,.166-.0664h1.64258a1.0619,1.0619,0,0,0,.74218-.26172,1.03605,1.03605,0,0,0,.31446-.74219c.00586-.05859.00976-.14746.00976-.2666,0-.11231-.0039-.19824-.00976-.25684a1.00069,1.00069,0,0,0-.30664-.74219,1.0686,1.0686,0,0,0-.75-.26171h-.75586Z"/><path class="e" d="M99.08313,26.59068a.20581.20581,0,0,1-.0664-.15918V21.8026a.20935.20935,0,0,1,.0664-.16016.228.228,0,0,1,.16407-.06152h1.10937a.21565.21565,0,0,1,.16016.06152.221.221,0,0,1,.0625.16016v4.6289a.22449.22449,0,0,1-.0625.15528.20844.20844,0,0,1-.16016.0664H99.2472A.22464.22464,0,0,1,99.08313,26.59068Z"/><path class="e" d="M106.3722,26.46666a.18689.18689,0,0,1-.05274.12891.17864.17864,0,0,1-.13476.05761h-1.0918a.29945.29945,0,0,1-.24024-.084c-.04687-.05664-.07421-.08789-.08007-.09375l-1.55469-2.24707a.98657.98657,0,0,0-.30078.48828,2.2719,2.2719,0,0,0-.07227.58594V26.413a.23406.23406,0,0,1-.0664.17383.2263.2263,0,0,1-.16407.0664h-.87109a.20187.20187,0,0,1-.1543-.07129.23512.23512,0,0,1-.0664-.16894V25.31139a3.10611,3.10611,0,0,1,.20312-1.22559,2.2782,2.2782,0,0,1,.77344-.88867l-.90625-1.30567a.18977.18977,0,0,1-.04492-.124.19967.19967,0,0,1,.1875-.18652h1.04687a.30193.30193,0,0,1,.19141.05273.66293.66293,0,0,1,.1289.14258l1.42969,2.02539a.78872.78872,0,0,0,.31641-.39062,1.69674,1.69674,0,0,0,.0664-.50684v-1.084a.24542.24542,0,0,1,.0625-.17286.20844.20844,0,0,1,.16016-.0664h.93164a.21035.21035,0,0,1,.16406.07129.23626.23626,0,0,1,.06836.168v1.12011a2.34183,2.34183,0,0,1-.22656,1.03418,2.13836,2.13836,0,0,1-.82227.83985l1.084,1.52832A.21979.21979,0,0,1,106.3722,26.46666Z"/><path class="e" d="M58.49524,23.83775a1.30178,1.30178,0,0,1,.36524,1.01172v1.6709a.12659.12659,0,0,1-.03711.09375.1203.1203,0,0,1-.09571.03906h-.4414a.12459.12459,0,0,1-.09375-.03906.12827.12827,0,0,1-.03906-.09375V24.87779a.6936.6936,0,0,0-.78711-.7832h-.375a3.984,3.984,0,0,0-.07813.458,4.23532,4.23532,0,0,0-.01562.49023l.02734,1.47754a.12827.12827,0,0,1-.03906.09375.12459.12459,0,0,1-.09375.03906l-.97071-.00586a.13169.13169,0,0,1-.13281-.13183v-.30371a.12866.12866,0,0,1,.03906-.09668.13306.13306,0,0,1,.09375-.03516l.43555.00488V25.05943a4.93615,4.93615,0,0,1,.01367-.499,3.15052,3.15052,0,0,1,.08008-.46582h-.31445a.12462.12462,0,0,1-.09375-.03906.12827.12827,0,0,1-.03906-.09375v-.3252a.12867.12867,0,0,1,.03906-.09668.133.133,0,0,1,.09375-.03515h1.36328A1.57627,1.57627,0,0,1,58.49524,23.83775Z"/><path class="e" d="M59.6261,26.61412a.12659.12659,0,0,1-.03711-.09375V23.63658a.12732.12732,0,0,1,.03711-.09668.133.133,0,0,1,.09375-.03515h.46485a.13136.13136,0,0,1,.0957.03515.13375.13375,0,0,1,.03515.09668v2.88379a.133.133,0,0,1-.03515.09375.123.123,0,0,1-.0957.03906h-.46485A.12459.12459,0,0,1,59.6261,26.61412Z"/><path class="e" d="M61.08118,25.32408a.12659.12659,0,0,1-.03711-.09375V23.63658a.12732.12732,0,0,1,.03711-.09668.13994.13994,0,0,1,.09375-.03515h.46875a.12174.12174,0,0,1,.13281.13183v1.59375a.13309.13309,0,0,1-.03515.09375.12788.12788,0,0,1-.09766.03906h-.46875A.13493.13493,0,0,1,61.08118,25.32408Z"/><path class="e" d="M64.47962,23.84068a1.5642,1.5642,0,0,1,.30859,1.0752,1.62184,1.62184,0,0,1-.38086,1.125,2.0672,2.0672,0,0,1-.9707.60156l-.22656.07129a.098.098,0,0,1-.09766-.02148.12917.12917,0,0,1-.04492-.09961v-.40235a.14758.14758,0,0,1,.03515-.09375.22621.22621,0,0,1,.09766-.0664l.19336-.07715a.96595.96595,0,0,0,.666-1.03125,1.31594,1.31594,0,0,0-.06836-.47754.455.455,0,0,0-.23243-.251,1.07393,1.07393,0,0,0-.44921-.07715h-.16993l-.61718-.00488a.13741.13741,0,0,1-.09961-.03613.11878.11878,0,0,1-.03907-.09082V22.87a.13155.13155,0,0,1,.03907-.09375.13471.13471,0,0,1,.09961-.03809h.40234a.13135.13135,0,0,1,.0957.03516.13374.13374,0,0,1,.03516.09668v.63477h.38086A1.36462,1.36462,0,0,1,64.47962,23.84068Z"/><path class="e" d="M65.34485,26.61412a.12827.12827,0,0,1-.03906-.09375v-.32519a.12866.12866,0,0,1,.03906-.09668.13306.13306,0,0,1,.09375-.03516H66.923V24.88268a.69469.69469,0,0,0-.78321-.78809h-.64648a.13083.13083,0,0,1-.09375-.03906.12659.12659,0,0,1-.03711-.09375v-.3252a.12732.12732,0,0,1,.03711-.09668.13994.13994,0,0,1,.09375-.03515h.67383a1.63247,1.63247,0,0,1,1.11328.333,1.316,1.316,0,0,1,.375,1.03418v1.19141h.19922a.1243.1243,0,0,1,.13281.13184v.32519a.12659.12659,0,0,1-.03711.09375.12029.12029,0,0,1-.0957.03906h-2.416A.12459.12459,0,0,1,65.34485,26.61412Z"/><path class="e" d="M68.82532,26.35533a1.34772,1.34772,0,0,1-.35937-1.00879v-1.71a.12867.12867,0,0,1,.03906-.09668.133.133,0,0,1,.09375-.03515h.39648a.13614.13614,0,0,1,.09766.03515.13375.13375,0,0,1,.03515.09668v1.68164a.77542.77542,0,0,0,.20313.5791.82222.82222,0,0,0,.5957.19922.78038.78038,0,0,0,.57227-.18554.79777.79777,0,0,0,.19531-.55957v-.49024A.993.993,0,0,0,70.546,24.285a.46592.46592,0,0,0-.39843-.19629.78974.78974,0,0,0-.1875.02734.6661.6661,0,0,0-.17579.07227.093.093,0,0,1-.05468.0166.11521.11521,0,0,1-.07813-.03027.106.106,0,0,1-.0332-.08008v-.30371a.30033.30033,0,0,1,.01758-.11035.13448.13448,0,0,1,.07031-.07129.94165.94165,0,0,1,.23242-.09375,1.30351,1.30351,0,0,1,.32617-.0332,1.04768,1.04768,0,0,1,.83985.31152,1.50967,1.50967,0,0,1,.27929.96777c.00391.03711.00586.13965.00586.3086,0,.16992-.00195.27246-.00586.30957a1.39654,1.39654,0,0,1-.36718.99218,1.91618,1.91618,0,0,1-2.19141-.0166Z"/><circle class="g" cx="21.87883" cy="38.74241" r="7.8965"/><path class="h" d="M8.54,32.29316s15.35679,15.259,29.95366,24.40923H8.54Z"/><path class="i" d="M79.07727,32.27037a.07885.07885,0,0,1-.02343-.05762v-2.207a.08975.08975,0,0,1,.02148-.06054.07807.07807,0,0,1,.06055-.02442H79.962q1.002,0,1.02148.92188c.00391.13183.00586.21972.00586.26465q0,.06444-.00586.26074a.96211.96211,0,0,1-.25586.70019,1.07075,1.07075,0,0,1-.748.22559h-.84375A.0795.0795,0,0,1,79.07727,32.27037Zm.88477-.37012a.553.553,0,0,0,.40625-.125.59164.59164,0,0,0,.13281-.417c.00391-.13574.00781-.2207.00781-.2539,0-.03614-.0039-.12012-.00781-.251a.4794.4794,0,0,0-.55469-.53906h-.41406v1.58593Z"/><path class="i" d="M81.4054,30.21959A.07884.07884,0,0,1,81.382,30.162v-.248a.08022.08022,0,0,1,.082-.084h.3125a.084.084,0,0,1,.06055.02344.08246.08246,0,0,1,.02344.06055v.248a.0737.0737,0,0,1-.02539.05762.08616.08616,0,0,1-.0586.02344H81.464A.08271.08271,0,0,1,81.4054,30.21959Zm.01367,2.05078a.07886.07886,0,0,1-.02344-.05762V30.61217a.07653.07653,0,0,1,.02344-.0586.08621.08621,0,0,1,.05859-.02246h.28711a.07954.07954,0,0,1,.0586.02344.08046.08046,0,0,1,.02343.05762v1.60058a.08006.08006,0,0,1-.082.08106h-.28711A.08269.08269,0,0,1,81.41907,32.27037Z"/><path class="i" d="M82.32141,32.91588a.07725.07725,0,0,1-.02343-.05957V30.61217a.07652.07652,0,0,1,.02343-.0586.08277.08277,0,0,1,.0586-.02246h.27148a.08406.08406,0,0,1,.06055.02344.08047.08047,0,0,1,.02344.05762v.13574a.61873.61873,0,0,1,.53906-.251.65273.65273,0,0,1,.52539.21582.928.928,0,0,1,.19727.57813c.00195.02637.00195.06738.00195.12207,0,.05371,0,.09473-.00195.12109a.9101.9101,0,0,1-.19532.5752.65259.65259,0,0,1-.52734.21875.609.609,0,0,1-.51953-.24121v.76953a.07609.07609,0,0,1-.02149.05957.07887.07887,0,0,1-.05859.02148H82.38A.082.082,0,0,1,82.32141,32.91588Zm1.21094-1.40137c.002-.02246.002-.05664.002-.10156,0-.0459,0-.0791-.002-.10254q-.02343-.44677-.38672-.44727a.3408.3408,0,0,0-.28906.126.53665.53665,0,0,0-.10156.30469c-.002.02734-.002.07031-.002.1289s0,.10254.002.13184a.482.482,0,0,0,.10547.28809.35.35,0,0,0,.28515.11914Q83.50892,31.96178,83.53235,31.51451Z"/><path class="i" d="M84.57337,32.91783a.06607.06607,0,0,1-.02149-.04785.12131.12131,0,0,1,.01367-.05371l.26758-.62793-.65039-1.53516a.11644.11644,0,0,1-.01367-.04785.08719.08719,0,0,1,.02344-.05176.06816.06816,0,0,1,.05078-.02246h.28125a.0906.0906,0,0,1,.08789.06446L85.0636,31.701l.457-1.10547a.10585.10585,0,0,1,.09571-.06446h.27539a.07.07,0,0,1,.05078.02051.07207.07207,0,0,1,.01953.04688.125.125,0,0,1-.01367.05468l-.959,2.22071a.09712.09712,0,0,1-.0957.06347H84.6222A.07108.07108,0,0,1,84.57337,32.91783Z"/><path class="i" d="M86.27649,32.27037a.07886.07886,0,0,1-.02344-.05762V30.61607a.08476.08476,0,0,1,.02344-.06152.08273.08273,0,0,1,.0586-.02344h.27734a.081.081,0,0,1,.06055.02344.079.079,0,0,1,.02539.06152v.13868a.57227.57227,0,0,1,.48828-.22364h.14062a.08423.08423,0,0,1,.06055.02246.083.083,0,0,1,.02148.0586v.248a.08574.08574,0,0,1-.02148.05762.08091.08091,0,0,1-.06055.02344H87.0597a.33548.33548,0,0,0-.25.0918.34017.34017,0,0,0-.0918.251v.92871a.08008.08008,0,0,1-.082.08106h-.30078A.08269.08269,0,0,1,86.27649,32.27037Z"/><path class="i" d="M87.81555,32.12389a.77784.77784,0,0,1-.23242-.5625l-.0039-.14844.0039-.14941a.779.779,0,0,1,.23633-.56153,1.01661,1.01661,0,0,1,1.22461,0,.78685.78685,0,0,1,.23633.56153c.00195.02734.0039.07714.0039.14941s-.002.12109-.0039.14844a.787.787,0,0,1-.23438.5625.85961.85961,0,0,1-.61328.2041A.86986.86986,0,0,1,87.81555,32.12389Zm.89454-.25a.52624.52624,0,0,0,.10351-.3291c.002-.02247.002-.06641.002-.13184,0-.06641,0-.11035-.002-.13281a.52939.52939,0,0,0-.10547-.33008.39135.39135,0,0,0-.55273,0,.50664.50664,0,0,0-.10547.33008L88.046,31.413l.00391.13184a.50376.50376,0,0,0,.10547.3291.40115.40115,0,0,0,.55469,0Z"/><path class="i" d="M89.68274,32.27037a.07886.07886,0,0,1-.02344-.05762V30.61217a.07653.07653,0,0,1,.02344-.0586.08622.08622,0,0,1,.0586-.02246h.28125a.07856.07856,0,0,1,.082.08106v.13965a.68655.68655,0,0,1,.56445-.25489.635.635,0,0,1,.49609.20411.807.807,0,0,1,.1836.55859v.95312a.07882.07882,0,0,1-.02344.05762.07367.07367,0,0,1-.05859.02344H90.962a.08008.08008,0,0,1-.082-.08106v-.93261a.449.449,0,0,0-.09571-.30664.35189.35189,0,0,0-.27734-.11036.36064.36064,0,0,0-.27734.11231.425.425,0,0,0-.10547.30469v.93261a.08571.08571,0,0,1-.02149.05762.08088.08088,0,0,1-.06054.02344h-.30078A.08269.08269,0,0,1,89.68274,32.27037Z"/><path class="i" d="M91.94055,32.11119a.86912.86912,0,0,1-.23632-.61719l-.00391-.085a.955.955,0,0,1,.22266-.668.90712.90712,0,0,1,1.23828,0,.94552.94552,0,0,1,.21679.65137v.07129a.08018.08018,0,0,1-.084.08106h-1.125v.02734a.524.524,0,0,0,.10352.31348.31845.31845,0,0,0,.26562.123.37969.37969,0,0,0,.31445-.15527.18971.18971,0,0,1,.04883-.0459.13059.13059,0,0,1,.05664-.00879H93.257a.08572.08572,0,0,1,.05274.01758.05671.05671,0,0,1,.02148.04687.31121.31121,0,0,1-.0957.19141.77634.77634,0,0,1-.27735.19141.98838.98838,0,0,1-.416.082A.82024.82024,0,0,1,91.94055,32.11119Zm.97071-.85449v-.00684a.48532.48532,0,0,0-.09961-.32031.337.337,0,0,0-.27344-.12012.33308.33308,0,0,0-.27148.12012.49549.49549,0,0,0-.09766.32031v.00684Z"/><path class="i" d="M94.841,32.23619a.73378.73378,0,0,1-.31055-.251.62392.62392,0,0,1-.11133-.335v-.00683a.05889.05889,0,0,1,.02148-.0459.07465.07465,0,0,1,.04883-.01856h.32227a.09254.09254,0,0,1,.09961.06739.39546.39546,0,0,0,.15625.2207.475.475,0,0,0,.25976.07129.449.449,0,0,0,.31446-.11523.41714.41714,0,0,0,.123-.31934.38251.38251,0,0,0-.123-.2959.4483.4483,0,0,0-.31446-.11426.43922.43922,0,0,0-.166.02735.59282.59282,0,0,0-.125.07422.37122.37122,0,0,0-.03125.0205.16381.16381,0,0,1-.043.02442.12284.12284,0,0,1-.03711.00586h-.32031a.07467.07467,0,0,1-.05274-.02149.07546.07546,0,0,1-.02148-.05273l.11523-1.15625a.098.098,0,0,1,.03321-.06934.10035.10035,0,0,1,.06836-.02539h1.27539a.07572.07572,0,0,1,.08007.082v.23047a.07868.07868,0,0,1-.02148.05762.0737.0737,0,0,1-.05859.02344h-.98047l-.05469.54882a.79987.79987,0,0,1,.17969-.083.99621.99621,0,0,1,.67383.06152.738.738,0,0,1,.30078.26758.72227.72227,0,0,1,.11523.40527.80293.80293,0,0,1-.11523.43164.76235.76235,0,0,1-.32618.28516,1.12958,1.12958,0,0,1-.48828.09961A1.14606,1.14606,0,0,1,94.841,32.23619Z"/><path class="i" d="M96.83118,32.077a1.0362,1.0362,0,0,1-.24219-.6582c-.00195-.06055-.0039-.16406-.0039-.31152,0-.14942.002-.25489.0039-.31836a.99917.99917,0,0,1,.24414-.65137,1.03572,1.03572,0,0,1,1.34961,0,1.0095,1.0095,0,0,1,.24414.65137c.00391.126.00586.23242.00586.31836s-.00195.19042-.00586.31152a1.03739,1.03739,0,0,1-.24414.6582,1.03528,1.03528,0,0,1-1.35156,0Zm.99219-.2832a.67133.67133,0,0,0,.11133-.3916c.00195-.06543.0039-.166.0039-.30176s-.00195-.2334-.0039-.29492a.6628.6628,0,0,0-.11133-.38574.37931.37931,0,0,0-.31641-.14258.37546.37546,0,0,0-.31445.14258.64886.64886,0,0,0-.11133.38574c-.00391.06152-.00391.15918-.00391.29492s0,.23633.00391.30176a.6574.6574,0,0,0,.11133.3916.36972.36972,0,0,0,.31445.13769A.37355.37355,0,0,0,97.82337,31.79381Z"/><path class="i" d="M99.0636,32.077a1.04734,1.04734,0,0,1-.24219-.6582c-.00195-.06055-.00195-.16406-.00195-.31152,0-.14942,0-.25489.00195-.31836a1.0095,1.0095,0,0,1,.24414-.65137,1.03572,1.03572,0,0,1,1.34961,0,.99906.99906,0,0,1,.24414.65137c.00391.126.00782.23242.00782.31836s-.00391.19042-.00782.31152a1.03625,1.03625,0,0,1-.24218.6582,1.03792,1.03792,0,0,1-1.35352,0Zm.99219-.2832a.6574.6574,0,0,0,.11133-.3916c.0039-.06543.0039-.166.0039-.30176s0-.2334-.0039-.29492a.64886.64886,0,0,0-.11133-.38574.4202.4202,0,0,0-.63086,0,.64886.64886,0,0,0-.11133.38574c-.00195.06152-.0039.15918-.0039.29492s.00195.23633.0039.30176a.6574.6574,0,0,0,.11133.3916.43015.43015,0,0,0,.63086,0Z"/><path class="i" d="M101.88,32.27037a.07882.07882,0,0,1-.02344-.05762V30.61217a.0765.0765,0,0,1,.02344-.0586.08142.08142,0,0,1,.05664-.02246h.26953a.07562.07562,0,0,1,.08008.08106v.11523a.59948.59948,0,0,1,.49219-.23047.53693.53693,0,0,1,.52539.30176.6143.6143,0,0,1,.23046-.21875.65993.65993,0,0,1,.32227-.083.58779.58779,0,0,1,.45313.19043.78472.78472,0,0,1,.17773.55274v.97265a.07882.07882,0,0,1-.02344.05762.07367.07367,0,0,1-.05859.02344h-.28125a.08006.08006,0,0,1-.082-.08106v-.94629a.43819.43819,0,0,0-.08985-.30859.30964.30964,0,0,0-.23437-.09473.302.302,0,0,0-.22656.09668.42844.42844,0,0,0-.09375.30664v.94629a.07719.07719,0,0,1-.02149.05762.07367.07367,0,0,1-.05859.02344h-.28516a.07512.07512,0,0,1-.05664-.02344.07365.07365,0,0,1-.02539-.05762v-.94629a.43767.43767,0,0,0-.08984-.30664.31305.31305,0,0,0-.23438-.09668.30507.30507,0,0,0-.22656.09668.43758.43758,0,0,0-.0918.30664v.94629a.07882.07882,0,0,1-.02344.05762.07367.07367,0,0,1-.05859.02344h-.28906A.07819.07819,0,0,1,101.88,32.27037Z"/><path class="i" d="M105.22571,32.93932a.66719.66719,0,0,1-.26562-.22852.46.46,0,0,1-.07813-.2207.06848.06848,0,0,1,.02539-.05567.08145.08145,0,0,1,.05664-.02246h.30274a.087.087,0,0,1,.05078.01563.11147.11147,0,0,1,.03711.05566.36867.36867,0,0,0,.11133.15137.35123.35123,0,0,0,.23046.0625.42871.42871,0,0,0,.29883-.08984.42346.42346,0,0,0,.09375-.31348v-.23047a.63927.63927,0,0,1-.51758.2168.65112.65112,0,0,1-.53125-.21387.93734.93734,0,0,1-.1914-.583l-.00391-.09082.00391-.0918a.95978.95978,0,0,1,.19336-.583.64442.64442,0,0,1,.52929-.22071.69685.69685,0,0,1,.31446.06836.64366.64366,0,0,1,.22461.18262v-.13184a.08336.08336,0,0,1,.084-.085h.27734a.07954.07954,0,0,1,.0586.02344.08476.08476,0,0,1,.02344.06152l.0039,1.63379a.77881.77881,0,0,1-.21094.583.87087.87087,0,0,1-.63281.207A1.03154,1.03154,0,0,1,105.22571,32.93932Zm.75781-1.14063a.50654.50654,0,0,0,.10547-.29785c.002-.01855.00391-.05469.00391-.1084,0-.05469-.00195-.09082-.00391-.1084a.50718.50718,0,0,0-.10547-.29883.33718.33718,0,0,0-.2832-.12207q-.36621,0-.38672.44727l-.0039.082c0,.35254.13085.52832.39062.52832A.33452.33452,0,0,0,105.98352,31.79869Z"/><path class="j" d="M39.36567,56.62824S15.739,39.63854,8.54,23.55115V34.66607S26.9231,53.57412,39.36567,56.62824Z"/><path class="k" d="M8.54,29.47424s15.25019,20.01263,30.8257,27.154"/><circle class="i" cx="20.92683" cy="40.11162" r="5.73989"/><path class="d" d="M18.54016,40.08482a.085.085,0,0,1-.02734-.06543V39.66a.21255.21255,0,0,1,.08594-.18652l.03711-.02735.13086-.09277c.25781-.18652.44922-.32715.57226-.42285a2.16266,2.16266,0,0,0,.28711-.25879.334.334,0,0,0,.10352-.20508.20411.20411,0,0,0-.02149-.10156c-.01562-.02442-.04883-.03711-.10156-.03711a.16317.16317,0,0,0-.10352.0293.16492.16492,0,0,0-.05078.05761c-.00781.01856-.01953.04785-.03711.08985a.10832.10832,0,0,1-.05078.06152.1926.1926,0,0,1-.08593.01758H18.63a.07681.07681,0,0,1-.05469-.02246.07782.07782,0,0,1-.02148-.05371.777.777,0,0,1,.14062-.4502.90079.90079,0,0,1,.375-.30176,1.27754,1.27754,0,0,1,.5332-.10742,1.24625,1.24625,0,0,1,.75391.20606.6651.6651,0,0,1,.27734.56738.73462.73462,0,0,1-.18554.48437,2.81828,2.81828,0,0,1-.56055.47852l-.02344.0166h.72852a.08859.08859,0,0,1,.06445.02734.08709.08709,0,0,1,.02735.06641v.52441a.09341.09341,0,0,1-.0918.09278H18.60462A.08494.08494,0,0,1,18.54016,40.08482Z"/><path class="d" d="M21.27649,39.90123a.90172.90172,0,0,1-.30859-.63769c-.00586-.09473-.00977-.21485-.00977-.36231,0-.14941.00391-.27246.00977-.36914a.89978.89978,0,0,1,.15039-.4502.912.912,0,0,1,.37305-.30761,1.46683,1.46683,0,0,1,1.12109,0,.86854.86854,0,0,1,.52344.75781c.00586.09668.00976.21973.00976.36914,0,.14746-.0039.26758-.00976.36231a.90748.90748,0,0,1-.30664.63769,1.35206,1.35206,0,0,1-1.55274,0Zm.96289-.65527q.00586-.09961.00586-.34864c0-.168-.002-.28222-.00586-.34472-.00976-.14746-.07226-.22168-.1875-.22461-.11523.00293-.17773.07715-.18554.22461-.00586.124-.00782.23926-.00782.34472,0,.09961.002.21582.00782.34864.00781.14941.07031.22461.18554.22461S22.22962,39.39537,22.23938,39.246Z"/><path class="d" d="M18.38391,41.65221a.628.628,0,0,1,.18946.50586v.82129a.06412.06412,0,0,1-.01953.04785.06271.06271,0,0,1-.04883.0205h-.32227a.0733.0733,0,0,1-.05078-.01953.062.062,0,0,1-.01953-.04882v-.80762a.27459.27459,0,0,0-.30859-.31153H17.6261a1.64487,1.64487,0,0,0-.041.40137l.02148.71778a.062.062,0,0,1-.01953.04882.0733.0733,0,0,1-.05078.01953l-.57813-.00292a.06933.06933,0,0,1-.05078-.01856.06557.06557,0,0,1-.02148-.0498v-.21485a.06555.06555,0,0,1,.02148-.0498.06933.06933,0,0,1,.05078-.01856h.22071v-.42871a1.45494,1.45494,0,0,1,.041-.4043h-.16211a.0678.0678,0,0,1-.04883-.01855.065.065,0,0,1-.02148-.04883v-.23535a.065.065,0,0,1,.02148-.04883.06867.06867,0,0,1,.04883-.01953h.76172A.84808.84808,0,0,1,18.38391,41.65221Z"/><path class="d" d="M18.90149,43.02818a.062.062,0,0,1-.01953-.04882V41.55748a.06338.06338,0,0,1,.01953-.04883.07335.07335,0,0,1,.05078-.01953h.3418a.06866.06866,0,0,1,.04883.01953.07117.07117,0,0,1,.01953.04883v1.42188a.07251.07251,0,0,1-.01953.04785.06565.06565,0,0,1-.04883.0205h-.3418A.0733.0733,0,0,1,18.90149,43.02818Z"/><path class="d" d="M19.69446,42.3817a.065.065,0,0,1-.02148-.04883v-.77539a.065.065,0,0,1,.02148-.04883.06866.06866,0,0,1,.04883-.01953h.3418a.06543.06543,0,0,1,.04882.01953.06335.06335,0,0,1,.01954.04883v.77539a.06407.06407,0,0,1-.01954.04785.06268.06268,0,0,1-.04882.02051h-.3418A.06866.06866,0,0,1,19.69446,42.3817Z"/><path class="d" d="M21.507,41.66a.74394.74394,0,0,1,.15625.51465.80208.80208,0,0,1-.20508.56738,1.09524,1.09524,0,0,1-.51367.30859l-.11133.03223a.05106.05106,0,0,1-.05078-.01855.07888.07888,0,0,1-.02344-.05469v-.27539a.07392.07392,0,0,1,.01954-.05078.1349.1349,0,0,1,.04882-.03711l.08789-.03516a.43813.43813,0,0,0,.19727-.14648.45007.45007,0,0,0,.07227-.27637.35945.35945,0,0,0-.06055-.24023.2847.2847,0,0,0-.22266-.06836h-.07226l-.36524-.00293a.06781.06781,0,0,1-.04883-.01856.07182.07182,0,0,1-.01953-.0498v-.62989a.06348.06348,0,0,1,.02149-.04882.06744.06744,0,0,1,.04687-.01954h.29492a.06542.06542,0,0,1,.04883.01954.062.062,0,0,1,.01953.04882v.31055h.16993A.66277.66277,0,0,1,21.507,41.66Z"/><path class="d" d="M21.89563,43.02721a.06412.06412,0,0,1-.01953-.04785V42.745a.062.062,0,0,1,.01953-.04883.06866.06866,0,0,1,.04883-.01953h.68359v-.50488a.2725.2725,0,0,0-.30859-.3086H21.9718a.067.067,0,0,1-.05078-.0205.07394.07394,0,0,1-.01757-.04981v-.23535a.06334.06334,0,0,1,.01953-.04883.06863.06863,0,0,1,.04882-.01953h.36133a.891.891,0,0,1,.57813.16113.6429.6429,0,0,1,.19531.52149v.50488h.0957a.06866.06866,0,0,1,.04883.01953.06937.06937,0,0,1,.01953.04883v.23438a.07251.07251,0,0,1-.01953.04785.06565.06565,0,0,1-.04883.0205H21.94446A.06565.06565,0,0,1,21.89563,43.02721Z"/><path class="d" d="M23.66321,42.89732a.658.658,0,0,1-.18945-.502v-.83789a.065.065,0,0,1,.02148-.04883.0675.0675,0,0,1,.04688-.01953h.2832a.07.07,0,0,1,.05078.01953.065.065,0,0,1,.02149.04883v.82422a.2847.2847,0,0,0,.08789.22851.37412.37412,0,0,0,.248.07422c.20313,0,.30664-.09668.30664-.292a.41139.41139,0,0,0,.002-.07324c0-.03125-.002-.05469-.002-.07129v-.05957a.47124.47124,0,0,0-.05078-.23926.15614.15614,0,0,0-.14258-.083.348.348,0,0,0-.08007.01075.341.341,0,0,0-.07032.02734A.06738.06738,0,0,1,24.173,41.91a.05743.05743,0,0,1-.043-.01758.06258.06258,0,0,1-.01758-.0459V41.6317a.10764.10764,0,0,1,.05273-.10156.51634.51634,0,0,1,.26172-.05176.52871.52871,0,0,1,.42969.15723.77639.77639,0,0,1,.13477.48437v.28613c-.01954.44629-.27344.669-.75782.669A.80954.80954,0,0,1,23.66321,42.89732Z"/><circle class="g" cx="26.84178" cy="48.52263" r="4.20954"/><circle class="i" cx="26.84178" cy="48.52263" r="2.93355"/><ellipse class="l" cx="27.78844" cy="48.03801" rx="1.18153" ry="0.80054"/><ellipse class="f" cx="27.78844" cy="47.82735" rx="1.18153" ry="0.80054"/><ellipse class="l" cx="26.00312" cy="49.31076" rx="1.36183" ry="0.9227"/><ellipse class="m" cx="26.00312" cy="49.06795" rx="1.36183" ry="0.9227"/><line class="n" x1="25.79962" y1="48.15586" x2="26.43187" y2="49.94357"/><line class="o" x1="28.54" y1="47.21052" x2="26.9231" y2="48.38806"/><polygon class="g" points="117.824 49.775 110.243 56.628 110.243 16.027 117.824 9.174 117.824 49.775"/><polygon class="i" points="117.915 9.174 16.212 9.174 8.54 16.027 110.243 16.027 117.915 9.174"/><line class="p" x1="112.27921" y1="16.59124" x2="112.27921" y2="43.7944"/><line class="p" x1="114.73143" y1="14.5646" x2="114.73143" y2="25.80765"/><line class="p" x1="116.69814" y1="12.12198" x2="116.69814" y2="37.72027"/><line class="q" x1="17.61112" y1="10.49347" x2="35.75721" y2="10.49347"/><line class="q" x1="15.66743" y1="12.25869" x2="33.81352" y2="12.25869"/><line class="q" x1="13.43231" y1="14.16312" x2="31.5784" y2="14.16312"/><line class="q" x1="44.15645" y1="10.49347" x2="62.30254" y2="10.49347"/><line class="q" x1="42.21277" y1="12.25869" x2="60.35886" y2="12.25869"/><line class="q" x1="71.54662" y1="10.49347" x2="89.69271" y2="10.49347"/><line class="q" x1="69.60293" y1="12.25869" x2="87.74902" y2="12.25869"/><line class="q" x1="39.97764" y1="14.16312" x2="58.12374" y2="14.16312"/><circle class="r" cx="39.92128" cy="19.78571" r="9.09371"/><g class="s"><circle class="t" cx="39.92128" cy="19.78571" r="2.45314"/><path class="u" d="M32.09441,24.41321s1.12926.89435,7.15879.79551a31.13029,31.13029,0,0,0,10.47335-1.95923V37.48312H32.09441Z"/></g><circle class="v" cx="39.92128" cy="19.78571" r="9.09371"/><ellipse class="r" cx="13.05093" cy="19.78572" rx="8.40782" ry="9.09371"/><g class="w"><circle class="t" cx="13.05093" cy="19.78572" r="2.45314"/><path class="u" d="M5.889,24.91939s.94.89435,6.51478.79551a27.90607,27.90607,0,0,0,9.78747-1.95923V37.9893H5.889Z"/></g><ellipse class="v" cx="13.05093" cy="19.78572" rx="8.40782" ry="9.09371"/><path class="x" d="M28.61761,28.87987s-8.87431.1134-9.16011-3.31323,5.89072-9.45406,5.89072-9.45406"/><path class="y" d="M37.31058,1.54857s9.25651.5577,14.00459,7.40838"/><path class="y" d="M14.34755,3.28362S4.28434,4.98854,1.54857,11.14471"/><path class="t" d="M27.17136,30.885a8.25958,8.25958,0,0,0,6.44856-2.69918s1.94369,2.974,0,4.15991C30.69283,34.13173,27.17136,30.885,27.17136,30.885Z"/><g class="z"><path class="aa" d="M28.06432,33.80135s6.12282-1.767,8.76128-4.76959-3.99766-2.97593-3.99766-2.97593l-7.35569,3.91771s-.50637,2.49722.66627,3.06088A12.45779,12.45779,0,0,0,28.06432,33.80135Z"/></g><path class="ab" d="M27.17136,30.885a8.25958,8.25958,0,0,0,6.44856-2.69918s1.94369,2.974,0,4.15991C30.69283,34.13173,27.17136,30.885,27.17136,30.885Z"/></svg>