<svg xmlns="http://www.w3.org/2000/svg" xmlns:xlink="http://www.w3.org/1999/xlink" viewBox="0 0 128.34528 68.30748"><defs><style>.a,.b,.r{fill:#f6f6f6;}.a,.ab,.b,.u,.v,.x,.y,.z{stroke:#2d2a28;}.a,.ab,.p,.q,.u,.v,.x,.z{stroke-linecap:round;}.a,.p,.q,.u,.x,.z{stroke-linejoin:round;}.a,.ab,.u{stroke-width:1.6518px;}.ab,.b,.k,.n,.o,.v,.y{stroke-miterlimit:10;}.b,.x,.y,.z{stroke-width:1.80656px;}.c{fill:#1d1d1b;opacity:0.2;}.ab,.d,.x{fill:#662483;}.e{fill:#ffed00;}.f{fill:#dadada;}.g{fill:#9f6cba;}.h{fill:#fff;}.i{fill:#fcea10;}.j{fill:#1ac179;}.k,.n,.o,.p,.q,.u,.v,.y,.z{fill:none;}.k{stroke:#17995e;}.k,.p,.q{stroke-width:0.51268px;}.l{fill:#c6c6c6;}.m{fill:#ededed;}.n,.o{stroke:#c6c6c6;}.n{stroke-width:0.25634px;}.o{stroke-width:0.12817px;}.p{stroke:#fcea10;}.q{stroke:#be1622;}.s{clip-path:url(#a);}.t{fill:#2d2a28;}.v{stroke-width:3.3873px;}.w{clip-path:url(#b);}.aa{clip-path:url(#c);}</style><clipPath id="a"><path class="a" d="M22.92778,34.56078a7.72661,7.72661,0,0,0,7.84882.82274c-.00634.00271.98572.33632,1.04606.35386a15.36193,15.36193,0,0,0,2.77942.53692c3.98591.38908,6.33663-1.13968,8.81787-2.31643,0,0-.85419,8.03521-10.331,8.27839C25.49747,42.43107,22.92778,34.56078,22.92778,34.56078Z"/></clipPath><clipPath id="b"><circle class="b" cx="44.86389" cy="25.22895" r="9.94568"/></clipPath><clipPath id="c"><ellipse class="b" cx="15.47611" cy="25.22895" rx="9.19554" ry="9.94568"/></clipPath></defs><polygon class="c" points="10.379 68.107 116.526 68.107 128.345 57.697 9.477 57.697 10.379 68.107"/><rect class="d" x="7.90031" y="27.47361" width="101.70273" height="40.60086"/><rect class="e" x="7.90031" y="49.90086" width="101.70273" height="18.17361"/><path class="d" d="M64.69319,55.20247a.073.073,0,0,1-.02344-.05567V53.54426a.073.073,0,0,1,.02344-.05566.08508.08508,0,0,1,.05664-.02148h.69922a.93561.93561,0,0,1,.623.17773.728.728,0,0,1,.20313.57617v.92285a.07509.07509,0,0,1-.02344.05664.07222.07222,0,0,1-.05664.02344H64.74983A.08047.08047,0,0,1,64.69319,55.20247Zm1.08789-.39649v-.56933a.30885.30885,0,0,0-.34766-.35059H65.1385V54.806Z"/><path class="d" d="M66.63459,54.473a.06954.06954,0,0,1-.02343-.05469v-.874a.073.073,0,0,1,.02343-.05566.08153.08153,0,0,1,.05665-.02148H67.076a.07672.07672,0,0,1,.05469.02148.07908.07908,0,0,1,.02148.05566v.874a.07961.07961,0,0,1-.02148.05371.07014.07014,0,0,1-.05469.02246h-.38476A.07738.07738,0,0,1,66.63459,54.473Z"/><path class="d" d="M68.26936,55.24251A.08649.08649,0,0,1,68.244,55.181v-.31054a.09856.09856,0,0,1,.02148-.0586.12339.12339,0,0,1,.05664-.04l.09375-.04a.455.455,0,0,0,.3086-.47656.4.4,0,0,0-.07031-.27051.325.325,0,0,0-.252-.07714h-.81836a.07952.07952,0,0,1-.05859-.02344.08328.08328,0,0,1-.02148-.05664v-.28613a.06977.06977,0,0,1,.02343-.05274.089.089,0,0,1,.05664-.02148h.92578a.747.747,0,0,1,.57422.19238.836.836,0,0,1,.17578.58008.90117.90117,0,0,1-.23046.63965,1.2325,1.2325,0,0,1-.57813.34765l-.12695.03711A.05557.05557,0,0,1,68.26936,55.24251Zm-.74414.54785a.07909.07909,0,0,1-.02148-.05567V54.24837a.07673.07673,0,0,1,.02148-.05469.082.082,0,0,1,.05859-.02149h.34961a.07369.07369,0,0,1,.07813.07618v1.48632a.07905.07905,0,0,1-.02149.05567.08148.08148,0,0,1-.05664.02148h-.34961A.08645.08645,0,0,1,67.52522,55.79036Z"/><path class="d" d="M70.52131,53.4886a.073.073,0,0,1,.02344.05566v.26465a.07139.07139,0,0,1-.02148.05371.0737.0737,0,0,1-.0586.02344h-.14062a.46.46,0,0,0-.05664.15625,1.08487,1.08487,0,0,0-.01953.21875v.89551a.05793.05793,0,0,1-.0293.04785A.09822.09822,0,0,1,70.16,55.224h-.35938a.06479.06479,0,0,1-.04883-.01855.06651.06651,0,0,1-.01758-.04883v-.92969a.66367.66367,0,0,1,.06055-.34082h-.23047a.07391.07391,0,0,1-.05469-.02344.07139.07139,0,0,1-.02148-.05371v-.26465a.07148.07148,0,0,1,.02148-.05566.08021.08021,0,0,1,.05469-.02148h.90039A.07814.07814,0,0,1,70.52131,53.4886Z"/><path class="d" d="M70.8592,55.20247a.07911.07911,0,0,1-.02148-.05567V53.54426a.07908.07908,0,0,1,.02148-.05566.08648.08648,0,0,1,.0586-.02148h.72461a.96736.96736,0,0,1,.64453.18066.74582.74582,0,0,1,.209.5918v.90722a.07778.07778,0,0,1-.02148.05371.07512.07512,0,0,1-.05664.02344h-.36328a.08047.08047,0,0,1-.05664-.02148.073.073,0,0,1-.02344-.05567v-.91015a.30808.30808,0,0,0-.34766-.35059h-.26953V55.1468a.07778.07778,0,0,1-.02148.05371.07513.07513,0,0,1-.05664.02344H70.9178A.082.082,0,0,1,70.8592,55.20247Z"/><path class="d" d="M74.83967,53.4886a.07909.07909,0,0,1,.02149.05566v.26465a.07961.07961,0,0,1-.02149.05371.0709.0709,0,0,1-.05468.02344h-.14258a.5054.5054,0,0,0-.05664.15625,1.08415,1.08415,0,0,0-.01953.21875v.89551a.05793.05793,0,0,1-.0293.04785.10866.10866,0,0,1-.06055.01953H74.117a.06479.06479,0,0,1-.04883-.01855.06765.06765,0,0,1-.01953-.04883v-.92969a.65938.65938,0,0,1,.0625-.34082H73.41a.08017.08017,0,0,1-.07813-.07715v-.26465a.073.073,0,0,1,.02344-.05566.08018.08018,0,0,1,.05469-.02148h1.375A.07671.07671,0,0,1,74.83967,53.4886Z"/><path class="d" d="M76.71272,53.4886a.07908.07908,0,0,1,.02148.05566v.91114a.66677.66677,0,0,1-.21289.50586,1.12614,1.12614,0,0,1-.5957.26855l-.78906.166a.06775.06775,0,0,1-.0586-.01465.07032.07032,0,0,1-.02734-.05567v-.26757a.08894.08894,0,0,1,.07227-.083l.33984-.083-.36133-1.30176a.25611.25611,0,0,1-.01562-.06152.06232.06232,0,0,1,.01757-.043.06163.06163,0,0,1,.043-.01855h.40039a.07866.07866,0,0,1,.04688.01464.06306.06306,0,0,1,.02344.03223l.30859,1.25781a.42294.42294,0,0,0,.22656-.17382.60711.60711,0,0,0,.0625-.29688v-.75684a.07145.07145,0,0,1,.02149-.05566.07671.07671,0,0,1,.05468-.02148h.36524A.0815.0815,0,0,1,76.71272,53.4886Z"/><path class="d" d="M77.74788,55.20247a.073.073,0,0,1-.02344-.05567V53.54426a.073.073,0,0,1,.02344-.05566.08508.08508,0,0,1,.05664-.02148h.69922a.93563.93563,0,0,1,.623.17773.728.728,0,0,1,.20313.57617v.92285a.07512.07512,0,0,1-.02344.05664.07222.07222,0,0,1-.05664.02344H77.80452A.08047.08047,0,0,1,77.74788,55.20247Zm1.08789-.39649v-.56933a.30885.30885,0,0,0-.34766-.35059h-.29492V54.806Z"/><path class="d" d="M79.68928,54.473a.06955.06955,0,0,1-.02344-.05469v-.874a.073.073,0,0,1,.02344-.05566.08152.08152,0,0,1,.05664-.02148h.38477a.07675.07675,0,0,1,.05469.02148.07908.07908,0,0,1,.02148.05566v.874a.07961.07961,0,0,1-.02148.05371.07016.07016,0,0,1-.05469.02246h-.38477A.07737.07737,0,0,1,79.68928,54.473Z"/><path class="d" d="M80.56819,54.473a.06951.06951,0,0,1-.02344-.05469v-.874a.073.073,0,0,1,.02344-.05566.08508.08508,0,0,1,.05664-.02148h.38476a.08153.08153,0,0,1,.05665.02148.07908.07908,0,0,1,.02148.05566v.874a.07961.07961,0,0,1-.02148.05371.07439.07439,0,0,1-.05665.02246h-.38476A.08052.08052,0,0,1,80.56819,54.473Z"/><path class="d" d="M82.494,55.20051a.07512.07512,0,0,1-.05664.02344h-.98828a.08047.08047,0,0,1-.05664-.02148.07148.07148,0,0,1-.02149-.05567v-.26464a.06806.06806,0,0,1,.02149-.05469.08048.08048,0,0,1,.05664-.02149h.51172l-.02735-.60644a.53378.53378,0,0,0-.0625-.25879.21014.21014,0,0,0-.18945-.0791h-.1582a.0803.0803,0,0,1-.07618-.07715v-.25879a.08327.08327,0,0,1,.02149-.05664.0709.0709,0,0,1,.05469-.02344h.166a.80363.80363,0,0,1,.58594.18164.835.835,0,0,1,.19922.582l.03906.9375A.06226.06226,0,0,1,82.494,55.20051Z"/><path class="d" d="M82.826,55.20247a.073.073,0,0,1-.02344-.05567V53.54426a.073.073,0,0,1,.02344-.05566.08511.08511,0,0,1,.05664-.02148h.38477a.07349.07349,0,0,1,.05468.02148.07145.07145,0,0,1,.02149.05566V55.1468a.07.07,0,0,1-.02149.05371.06812.06812,0,0,1-.05468.02344h-.38477A.08051.08051,0,0,1,82.826,55.20247Z"/><path class="d" d="M84.7635,55.20051a.0751.0751,0,0,1-.05664.02344h-.98828a.08047.08047,0,0,1-.05664-.02148.07148.07148,0,0,1-.02149-.05567v-.26464a.06806.06806,0,0,1,.02149-.05469.08048.08048,0,0,1,.05664-.02149h.51172l-.02735-.60644a.53378.53378,0,0,0-.0625-.25879.21014.21014,0,0,0-.18945-.0791h-.1582a.08029.08029,0,0,1-.07617-.07715v-.25879a.08326.08326,0,0,1,.02148-.05664.0709.0709,0,0,1,.05469-.02344h.166a.80363.80363,0,0,1,.58594.18164.835.835,0,0,1,.19922.582l.03906.9375A.06221.06221,0,0,1,84.7635,55.20051Z"/><path class="d" d="M85.08381,54.473a.06954.06954,0,0,1-.02343-.05469v-.874a.073.073,0,0,1,.02343-.05566.08511.08511,0,0,1,.05664-.02148h.38477a.08148.08148,0,0,1,.05664.02148.07908.07908,0,0,1,.02148.05566v.874a.07961.07961,0,0,1-.02148.05371.07435.07435,0,0,1-.05664.02246h-.38477A.08055.08055,0,0,1,85.08381,54.473Z"/><path class="d" d="M85.9178,55.20051a.07178.07178,0,0,1-.02344-.05371v-.26464a.06949.06949,0,0,1,.02344-.05469.07589.07589,0,0,1,.05469-.02149H86.744v-.56933a.30716.30716,0,0,0-.34766-.34766h-.39453a.07093.07093,0,0,1-.05469-.02344.08148.08148,0,0,1-.02148-.05664v-.26465a.073.073,0,0,1,.02344-.05566.07907.07907,0,0,1,.05273-.02148h.41016a1.00093,1.00093,0,0,1,.65039.18164.72167.72167,0,0,1,.2207.58789V54.806h.10742a.07283.07283,0,0,1,.05469.02149.07508.07508,0,0,1,.02149.05469v.26464a.07779.07779,0,0,1-.02149.05371.0709.0709,0,0,1-.05469.02344h-1.418A.07388.07388,0,0,1,85.9178,55.20051Z"/><path class="d" d="M88.37874,55.20247a.073.073,0,0,1-.02344-.05567V53.54426a.073.073,0,0,1,.02344-.05566.08508.08508,0,0,1,.05664-.02148h.69921a.93564.93564,0,0,1,.623.17773.728.728,0,0,1,.20313.57617v.92285a.07512.07512,0,0,1-.02344.05664.07222.07222,0,0,1-.05664.02344H88.43538A.08047.08047,0,0,1,88.37874,55.20247Zm1.08789-.39649v-.56933a.30885.30885,0,0,0-.34766-.35059h-.29492V54.806Z"/><path class="d" d="M90.32014,54.473a.06955.06955,0,0,1-.02344-.05469v-.874a.073.073,0,0,1,.02344-.05566.0815.0815,0,0,1,.05664-.02148h.38477a.07675.07675,0,0,1,.05469.02148.07908.07908,0,0,1,.02148.05566v.874a.07961.07961,0,0,1-.02148.05371.07016.07016,0,0,1-.05469.02246h-.38477A.07736.07736,0,0,1,90.32014,54.473Z"/><path class="d" d="M91.15413,55.20051a.07178.07178,0,0,1-.02344-.05371v-.26464a.06949.06949,0,0,1,.02344-.05469.07146.07146,0,0,1,.05273-.02149h.77148v-.56933a.30716.30716,0,0,0-.34765-.34766h-.39258a.06813.06813,0,0,1-.05469-.02344.07513.07513,0,0,1-.02343-.05664v-.26465a.073.073,0,0,1,.02343-.05566.08021.08021,0,0,1,.05469-.02148h.4082a1.00091,1.00091,0,0,1,.65039.18164.72164.72164,0,0,1,.22071.58789V54.806h.10742a.07733.07733,0,0,1,.05664.02149.07507.07507,0,0,1,.02148.05469v.26464a.07778.07778,0,0,1-.02148.05371.07512.07512,0,0,1-.05664.02344h-1.418A.06973.06973,0,0,1,91.15413,55.20051Z"/><path class="d" d="M94.6053,55.1595a.067.067,0,0,1-.01758.04492.06411.06411,0,0,1-.04688.01953h-.3789a.09963.09963,0,0,1-.082-.02929c-.01758-.01954-.02539-.03028-.02735-.03223l-.53906-.77832a.34017.34017,0,0,0-.10351.16894.76178.76178,0,0,0-.0254.20313v.38476a.07868.07868,0,0,1-.02343.05957.07513.07513,0,0,1-.05664.02344h-.30078a.07139.07139,0,0,1-.05469-.02441.08267.08267,0,0,1-.02344-.0586v-.38183a1.08065,1.08065,0,0,1,.07031-.42383.78108.78108,0,0,1,.26953-.30762l-.31445-.45215a.07036.07036,0,0,1-.01562-.043.06085.06085,0,0,1,.01953-.04493.06362.06362,0,0,1,.04492-.0205h.36328a.10751.10751,0,0,1,.06641.01855.28689.28689,0,0,1,.04492.04981l.49414.70117a.26539.26539,0,0,0,.10937-.13574.57809.57809,0,0,0,.02344-.17481v-.376a.08718.08718,0,0,1,.02149-.05957.07092.07092,0,0,1,.05468-.02343h.32422a.07645.07645,0,0,1,.05664.02539.0788.0788,0,0,1,.02344.05761v.3877a.80167.80167,0,0,1-.08008.3584.72141.72141,0,0,1-.2832.291l.375.5293A.07649.07649,0,0,1,94.6053,55.1595Z"/><path class="d" d="M94.93342,55.20247A.073.073,0,0,1,94.91,55.1468v-.2832a.07837.07837,0,0,1,.08007-.0791h.44727a.32885.32885,0,0,0,.36914-.34766c.00195-.02539.00195-.05566.00195-.09277,0-.03516,0-.06445-.00195-.08887a.32885.32885,0,0,0-.36914-.34765h-.44727a.07826.07826,0,0,1-.05664-.02344.07667.07667,0,0,1-.02343-.05664v-.28321a.073.073,0,0,1,.02343-.05566.08511.08511,0,0,1,.05664-.02148H95.451a.74871.74871,0,0,1,.85352.791c.002.02246.002.05078.002.08594a.95409.95409,0,0,1-.20117.64941.82813.82813,0,0,1-.6543.23047h-.46094A.08051.08051,0,0,1,94.93342,55.20247Z"/><path class="d" d="M97.67561,53.88606h-.48828a.08017.08017,0,0,1-.07813-.07715v-.26465a.073.073,0,0,1,.02344-.05566.0802.0802,0,0,1,.05469-.02148h.50586a.99168.99168,0,0,1,.64062.17382.71469.71469,0,0,1,.209.57715v1.31055a.079.079,0,0,1-.02149.05566.07667.07667,0,0,1-.05468.02149h-.36329a.08148.08148,0,0,1-.05664-.02149.073.073,0,0,1-.02343-.05566v-1.292A.30808.30808,0,0,0,97.67561,53.88606Z"/><path class="d" d="M98.91389,55.20247a.073.073,0,0,1-.02344-.05567V53.54426a.073.073,0,0,1,.02344-.05566.08511.08511,0,0,1,.05664-.02148h.38477a.07351.07351,0,0,1,.05469.02148.07148.07148,0,0,1,.02148.05566V55.1468a.07.07,0,0,1-.02148.05371.06815.06815,0,0,1-.05469.02344h-.38477A.08051.08051,0,0,1,98.91389,55.20247Z"/><path class="d" d="M99.80061,55.20247a.073.073,0,0,1-.02344-.05567v-.2832a.07668.07668,0,0,1,.02344-.05664.07158.07158,0,0,1,.05664-.02246h.44531a.3271.3271,0,0,0,.36914-.34766c.002-.02539.00391-.05566.00391-.09277,0-.03516-.002-.06445-.00391-.08887a.32709.32709,0,0,0-.36914-.34765h-.44531a.07226.07226,0,0,1-.05664-.02344.07668.07668,0,0,1-.02344-.05664v-.28321a.073.073,0,0,1,.02344-.05566.07814.07814,0,0,1,.05664-.02148h.46094a.7472.7472,0,0,1,.85156.791c.002.02246.00391.05078.00391.08594a.96412.96412,0,0,1-.20117.64941.83091.83091,0,0,1-.6543.23047h-.46094A.07433.07433,0,0,1,99.80061,55.20247Z"/><path class="d" d="M101.48616,54.473a.06951.06951,0,0,1-.02344-.05469v-.874a.073.073,0,0,1,.02344-.05566.08148.08148,0,0,1,.05664-.02148h.38476a.07672.07672,0,0,1,.05469.02148.07909.07909,0,0,1,.02149.05566v.874a.07962.07962,0,0,1-.02149.05371.07014.07014,0,0,1-.05469.02246h-.38476A.07734.07734,0,0,1,101.48616,54.473Z"/><path class="d" d="M104.33577,53.4886a.07908.07908,0,0,1,.02148.05566v.80567a.90548.90548,0,0,1-.123.47558.8298.8298,0,0,1-.33593.31543.96647.96647,0,0,1-.47071.10743h-.29492a.92275.92275,0,0,1-.42969-.09473.68926.68926,0,0,1-.28125-.25879.67477.67477,0,0,1-.09765-.36035v-.99024a.073.073,0,0,1,.02344-.05566.08148.08148,0,0,1,.05664-.02148h.32226a.08148.08148,0,0,1,.05664.02148.07909.07909,0,0,1,.02149.05566l.002.73829a.28169.28169,0,0,0,.23437-.12793.62623.62623,0,0,0,.06836-.32129v-.28321a.07707.07707,0,0,1,.07813-.083h.32031a.07241.07241,0,0,1,.05469.02539.07884.07884,0,0,1,.02344.05761v.29a.80163.80163,0,0,1-.18164.55371.76646.76646,0,0,1-.51368.23633.39344.39344,0,0,0,.1543.15039.443.443,0,0,0,.21484.05274h.07032a.61652.61652,0,0,0,.2832-.06446.49879.49879,0,0,0,.19727-.17871.47666.47666,0,0,0,.07031-.25488v-.791a.07908.07908,0,0,1,.02148-.05566.07673.07673,0,0,1,.05469-.02148h.32422A.07675.07675,0,0,1,104.33577,53.4886Z"/><path class="d" d="M105.84944,53.6595a.836.836,0,0,1,.17578.58008.90245.90245,0,0,1-.23242.63965,1.21367,1.21367,0,0,1-.57813.34765l-.125.03711a.05871.05871,0,0,1-.05664-.02148.08881.08881,0,0,1-.02734-.06153v-.31054a.09367.09367,0,0,1,.02148-.05762.1631.1631,0,0,1,.05664-.041l.09766-.04a.4991.4991,0,0,0,.22266-.165.51017.51017,0,0,0,.082-.31153.41205.41205,0,0,0-.06836-.27051.325.325,0,0,0-.252-.07714h-.08007l-.41211-.00293a.07672.07672,0,0,1-.05469-.02149.07145.07145,0,0,1-.02148-.05566v-.71094a.06953.06953,0,0,1,.02343-.05469.07147.07147,0,0,1,.05274-.02148h.332a.07732.07732,0,0,1,.05664.02148.07509.07509,0,0,1,.02148.05469v.35059h.18946A.749.749,0,0,1,105.84944,53.6595Z"/><path class="d" d="M68.1053,59.81477a.07179.07179,0,0,1-.02344-.05371v-.26465a.06948.06948,0,0,1,.02344-.05468.07146.07146,0,0,1,.05273-.02149h.77149v-.56933a.30716.30716,0,0,0-.34766-.34766h-.39258a.06815.06815,0,0,1-.05469-.02344.07515.07515,0,0,1-.02343-.05664v-.26465a.073.073,0,0,1,.02343-.05566.08022.08022,0,0,1,.05469-.02149h.40821a1.001,1.001,0,0,1,.65039.18164.7217.7217,0,0,1,.2207.5879v.56933H69.576a.07731.07731,0,0,1,.05664.02149.07507.07507,0,0,1,.02149.05468v.26465a.07781.07781,0,0,1-.02149.05371.0751.0751,0,0,1-.05664.02344H68.158A.06973.06973,0,0,1,68.1053,59.81477Z"/><path class="d" d="M69.89827,59.08723a.06948.06948,0,0,1-.02344-.05468v-.874a.073.073,0,0,1,.02344-.05566.08149.08149,0,0,1,.05664-.02149h.38476a.07672.07672,0,0,1,.05469.02149.07908.07908,0,0,1,.02148.05566v.874a.07963.07963,0,0,1-.02148.05371.07014.07014,0,0,1-.05469.02246h-.38476A.07731.07731,0,0,1,69.89827,59.08723Z"/><path class="d" d="M71.97834,59.81477a.07946.07946,0,0,1-.05859.02344H71.535a.06725.06725,0,0,1-.05079-.02148.08256.08256,0,0,1-.02539-.05567l-.04687-.22754a.64269.64269,0,0,1-.17774.15137,1.89206,1.89206,0,0,1-.22265.11523,1.17508,1.17508,0,0,1-.207.0625l-.02149.00293c-.03515,0-.05273-.01562-.05273-.04882v-.332c0-.03515.02148-.06054.06445-.07714.01367-.00586.06055-.02051.14063-.04493a1.13691,1.13691,0,0,0,.1914-.07226.59923.59923,0,0,0,.20313-.166l-.0586-.28613a.66916.66916,0,0,0-.0957-.26074.22256.22256,0,0,0-.19141-.07715h-.10742a.0803.0803,0,0,1-.07617-.07715V58.14a.08326.08326,0,0,1,.02148-.05664.07093.07093,0,0,1,.05469-.02344H70.994a.94676.94676,0,0,1,.41992.0791.58726.58726,0,0,1,.252.24121,1.53467,1.53467,0,0,1,.14649.44336l.18555.9375A.05321.05321,0,0,1,71.97834,59.81477Z"/><path class="d" d="M73.81233,58.26985a.74355.74355,0,0,1,.19726.5625v.92871a.0778.0778,0,0,1-.02148.05371.0751.0751,0,0,1-.05664.02344h-.83984a.07285.07285,0,0,1-.05274-.02344.07183.07183,0,0,1-.02344-.05371v-.26465a.06951.06951,0,0,1,.02344-.05468.07465.07465,0,0,1,.05274-.02149h.39843v-.56348a.37265.37265,0,0,0-.07812-.249.24882.24882,0,0,0-.19922-.08887h-.24023l-.26172,1.23926a.09321.09321,0,0,1-.02344.05664.07512.07512,0,0,1-.05664.02344h-.35352a.07513.07513,0,0,1-.05664-.02344.05985.05985,0,0,1-.01758-.05664l.30274-1.23633h-.20313a.07516.07516,0,0,1-.05664-.02343.08328.08328,0,0,1-.02148-.05664v-.28321a.073.073,0,0,1,.02344-.05566.08018.08018,0,0,1,.05468-.02149h.98633A.72475.72475,0,0,1,73.81233,58.26985Z"/><path class="d" d="M75.02131,59.81673a.07911.07911,0,0,1-.02148-.05567V58.15852a.07908.07908,0,0,1,.02148-.05566.08649.08649,0,0,1,.0586-.02149h.38281a.08149.08149,0,0,1,.05664.02149.07908.07908,0,0,1,.02148.05566v1.60254a.0778.0778,0,0,1-.02148.05371.0751.0751,0,0,1-.05664.02344h-.38281A.082.082,0,0,1,75.02131,59.81673Z"/><path class="d" d="M76.96077,59.81477a.07822.07822,0,0,1-.05664.02344h-.98829a.07737.07737,0,0,1-.05664-.02148.073.073,0,0,1-.02343-.05567v-.26465a.0695.0695,0,0,1,.02343-.05468.07734.07734,0,0,1,.05664-.02149h.50977l-.02734-.60644a.53662.53662,0,0,0-.06055-.25879.214.214,0,0,0-.19141-.0791h-.15625a.08017.08017,0,0,1-.07812-.07715V58.14a.08326.08326,0,0,1,.02148-.05664.07513.07513,0,0,1,.05664-.02344h.166a.8099.8099,0,0,1,.58594.18164.844.844,0,0,1,.19726.582l.041.9375A.06227.06227,0,0,1,76.96077,59.81477Z"/><path class="d" d="M77.28108,59.08723a.06948.06948,0,0,1-.02344-.05468v-.874a.073.073,0,0,1,.02344-.05566.08149.08149,0,0,1,.05664-.02149h.38477a.07672.07672,0,0,1,.05468.02149.07909.07909,0,0,1,.02149.05566v.874a.07964.07964,0,0,1-.02149.05371.07013.07013,0,0,1-.05468.02246h-.38477A.07731.07731,0,0,1,77.28108,59.08723Z"/><path class="d" d="M79.7928,59.77376a.06083.06083,0,0,1-.01953.04492.05987.05987,0,0,1-.04493.01953h-.3789a.10687.10687,0,0,1-.084-.0293c-.01562-.01953-.02539-.03027-.02734-.03222l-.53711-.77832a.3307.3307,0,0,0-.10547.16894.85094.85094,0,0,0-.02539.20313v.38476a.07746.07746,0,0,1-.02148.05957.0795.0795,0,0,1-.0586.02344h-.30078a.06747.06747,0,0,1-.05273-.02441.08271.08271,0,0,1-.02344-.0586v-.38183a1.08065,1.08065,0,0,1,.07031-.42383.77449.77449,0,0,1,.26758-.30762l-.31445-.45215a.07032.07032,0,0,1-.01563-.043.06321.06321,0,0,1,.02149-.04492.0604.0604,0,0,1,.04492-.02051h.36133a.10748.10748,0,0,1,.0664.01856.2252.2252,0,0,1,.04493.0498l.49609.70118a.27577.27577,0,0,0,.10937-.13575.65229.65229,0,0,0,.02149-.1748v-.376a.08722.08722,0,0,1,.02148-.05957.07517.07517,0,0,1,.05664-.02344h.32227a.07345.07345,0,0,1,.05664.02539.07888.07888,0,0,1,.02344.05762v.3877a.80078.80078,0,0,1-.07813.3584.72762.72762,0,0,1-.28515.291l.375.5293A.06485.06485,0,0,1,79.7928,59.77376Z"/><path class="d" d="M82.09553,58.10286a.07909.07909,0,0,1,.02149.05566v.80567a.90559.90559,0,0,1-.123.47558.82983.82983,0,0,1-.33594.31543.96628.96628,0,0,1-.4707.10742h-.29492a.92284.92284,0,0,1-.42969-.09472.6892.6892,0,0,1-.28125-.25879.67472.67472,0,0,1-.09766-.36035v-.99024a.073.073,0,0,1,.02344-.05566.08151.08151,0,0,1,.05664-.02149h.32227a.08153.08153,0,0,1,.05664.02149.07908.07908,0,0,1,.02148.05566l.002.73828a.28166.28166,0,0,0,.23437-.12793.62629.62629,0,0,0,.06836-.32128v-.28321a.07707.07707,0,0,1,.07812-.083h.32032a.07239.07239,0,0,1,.05468.02539.07884.07884,0,0,1,.02344.05762v.29a.80158.80158,0,0,1-.18164.55371.76644.76644,0,0,1-.51367.23633.39331.39331,0,0,0,.1543.15039.443.443,0,0,0,.21484.05274h.07031a.61656.61656,0,0,0,.28321-.06446.49891.49891,0,0,0,.19726-.17871.47657.47657,0,0,0,.07031-.25488v-.791a.07909.07909,0,0,1,.02149-.05566.07672.07672,0,0,1,.05469-.02149h.32421A.07672.07672,0,0,1,82.09553,58.10286Z"/><path class="d" d="M84.2303,59.81673a.07911.07911,0,0,1-.02149-.05567v-.91015a.30807.30807,0,0,0-.34765-.35059H83.16a.08512.08512,0,0,1-.05665-.02148.073.073,0,0,1-.02343-.05567v-.26465a.073.073,0,0,1,.02343-.05566.08513.08513,0,0,1,.05665-.02149h.71679a.93951.93951,0,0,1,.63867.18848.7362.7362,0,0,1,.21289.584v.90722a.07911.07911,0,0,1-.02148.05567.082.082,0,0,1-.05859.02148h-.36133A.07734.07734,0,0,1,84.2303,59.81673Zm-1.127,0a.073.073,0,0,1-.02343-.05567v-.89844a.07092.07092,0,0,1,.02343-.05468.08052.08052,0,0,1,.05665-.02149h.36328a.07354.07354,0,0,1,.07617.07617v.89844a.07.07,0,0,1-.02149.05371.06812.06812,0,0,1-.05468.02344H83.16A.08056.08056,0,0,1,83.10334,59.81673Z"/><path class="d" d="M85.09553,59.81673a.07911.07911,0,0,1-.02148-.05567V58.15852a.07908.07908,0,0,1,.02148-.05566.08649.08649,0,0,1,.0586-.02149h.38281a.08151.08151,0,0,1,.05664.02149.07908.07908,0,0,1,.02148.05566v1.60254a.0778.0778,0,0,1-.02148.05371.07512.07512,0,0,1-.05664.02344h-.38281A.082.082,0,0,1,85.09553,59.81673Z"/><path class="d" d="M85.94319,59.81477a.07179.07179,0,0,1-.02344-.05371v-.26465a.06948.06948,0,0,1,.02344-.05468.07146.07146,0,0,1,.05273-.02149h.77149v-.56933a.30716.30716,0,0,0-.34766-.34766h-.39258a.06812.06812,0,0,1-.05468-.02344.07512.07512,0,0,1-.02344-.05664v-.26465a.073.073,0,0,1,.02344-.05566.08018.08018,0,0,1,.05468-.02149h.40821a1.001,1.001,0,0,1,.65039.18164.7217.7217,0,0,1,.2207.5879v.56933h.10742a.07731.07731,0,0,1,.05664.02149.07507.07507,0,0,1,.02149.05468v.26465a.07781.07781,0,0,1-.02149.05371.0751.0751,0,0,1-.05664.02344h-1.418A.06973.06973,0,0,1,85.94319,59.81477Z"/><path class="d" d="M88.96467,59.81477a.08611.08611,0,0,1-.05859.02344h-.38477a.06854.06854,0,0,1-.05273-.02148.09043.09043,0,0,1-.02344-.05567l-.04687-.22754a.672.672,0,0,1-.17774.15137,1.90349,1.90349,0,0,1-.22461.11523,1.127,1.127,0,0,1-.207.0625l-.02148.00293c-.03516,0-.05274-.01562-.05274-.04882v-.332c0-.03515.02149-.06054.06446-.07714.01562-.00586.0625-.02051.14062-.04493a1.13673,1.13673,0,0,0,.19141-.07226.5992.5992,0,0,0,.20312-.166l-.05859-.28613a.64259.64259,0,0,0-.09375-.26074.225.225,0,0,0-.19141-.07715h-.10742a.08015.08015,0,0,1-.07812-.07715V58.14a.07665.07665,0,0,1,.02343-.05664.06813.06813,0,0,1,.05469-.02344h.11719a.94676.94676,0,0,1,.41992.0791.57247.57247,0,0,1,.25.24121,1.47372,1.47372,0,0,1,.14844.44336l.18359.9375A.056.056,0,0,1,88.96467,59.81477Z"/><path class="d" d="M89.85139,59.81673a.07911.07911,0,0,1-.02148-.05567V58.15852a.07908.07908,0,0,1,.02148-.05566.08649.08649,0,0,1,.0586-.02149h.69726a.93207.93207,0,0,1,.62305.17774.72187.72187,0,0,1,.20508.57617v.92285a.07515.07515,0,0,1-.02344.05664.07822.07822,0,0,1-.05664.02344H89.91A.082.082,0,0,1,89.85139,59.81673Zm1.08789-.39649v-.56933a.30807.30807,0,0,0-.34765-.35059H90.2967v.91992Z"/><path class="d" d="M91.80452,59.81673a.07907.07907,0,0,1-.02149-.05567V58.15852a.079.079,0,0,1,.02149-.05566.08644.08644,0,0,1,.05859-.02149h.38281a.08149.08149,0,0,1,.05664.02149.079.079,0,0,1,.02149.05566v1.60254a.07777.07777,0,0,1-.02149.05371.0751.0751,0,0,1-.05664.02344h-.38281A.082.082,0,0,1,91.80452,59.81673Z"/><path class="d" d="M92.70881,59.81673a.07911.07911,0,0,1-.02148-.05567V58.15852a.07908.07908,0,0,1,.02148-.05566.08649.08649,0,0,1,.0586-.02149H93.492a.96736.96736,0,0,1,.64453.18067.74582.74582,0,0,1,.209.5918v.90722a.0778.0778,0,0,1-.02148.05371.07513.07513,0,0,1-.05664.02344h-.36328a.08052.08052,0,0,1-.05664-.02148.073.073,0,0,1-.02344-.05567v-.91015a.30808.30808,0,0,0-.34766-.35059h-.26953v1.26074a.0778.0778,0,0,1-.02148.05371.07513.07513,0,0,1-.05664.02344h-.36133A.082.082,0,0,1,92.70881,59.81673Z"/><path class="d" d="M96.97249,58.265a.71146.71146,0,0,1,.21484.57031v.92578a.07777.07777,0,0,1-.02149.05371.0751.0751,0,0,1-.05664.02344h-.36328a.08055.08055,0,0,1-.05664-.02148.0715.0715,0,0,1-.02148-.05567v-.91015a.30885.30885,0,0,0-.34766-.35059H96.119a1.85477,1.85477,0,0,0-.04492.45215l.02344.80859a.073.073,0,0,1-.02344.05567.07737.07737,0,0,1-.05664.02148l-.65235-.00293a.08055.08055,0,0,1-.05664-.02148.073.073,0,0,1-.02343-.05567V59.515a.06953.06953,0,0,1,.02343-.05469.08051.08051,0,0,1,.05664-.02148h.25v-.4834a1.65522,1.65522,0,0,1,.04688-.45508H95.4803a.08648.08648,0,0,1-.0586-.02148.07911.07911,0,0,1-.02148-.05567v-.26465a.07908.07908,0,0,1,.02148-.05566.08649.08649,0,0,1,.0586-.02149h.85742A.95231.95231,0,0,1,96.97249,58.265Z"/><path class="d" d="M98.90608,58.10286a.07908.07908,0,0,1,.02148.05566v.26465a.0796.0796,0,0,1-.02148.05371.0709.0709,0,0,1-.05469.02344h-.14258a.50566.50566,0,0,0-.05664.15625,1.08487,1.08487,0,0,0-.01953.21875v.89551a.05791.05791,0,0,1-.0293.04785.10873.10873,0,0,1-.06054.01953h-.35938a.06479.06479,0,0,1-.04883-.01855.06769.06769,0,0,1-.01953-.04883v-.92969a.65944.65944,0,0,1,.0625-.34082h-.70117a.08015.08015,0,0,1-.07812-.07715v-.26465a.073.073,0,0,1,.02343-.05566.08022.08022,0,0,1,.05469-.02149h1.375A.07672.07672,0,0,1,98.90608,58.10286Z"/><path class="d" d="M100.06428,59.81673a.073.073,0,0,1-.02344-.05567v-.91015a.30748.30748,0,0,0-.3457-.35059h-.46875a.06973.06973,0,0,1-.05273-.02344.07333.07333,0,0,1-.02344-.05371v-.26465a.073.073,0,0,1,.02344-.05566.07546.07546,0,0,1,.05273-.02149h.48633a.98114.98114,0,0,1,.63867.17579.70851.70851,0,0,1,.21094.57519v.92871a.07777.07777,0,0,1-.02149.05371.0751.0751,0,0,1-.05664.02344h-.36328A.08055.08055,0,0,1,100.06428,59.81673Z"/><path class="d" d="M100.93147,59.81673a.073.073,0,0,1-.02344-.05567V58.15852a.073.073,0,0,1,.02344-.05566.0851.0851,0,0,1,.05664-.02149h.38477a.0735.0735,0,0,1,.05468.02149.07145.07145,0,0,1,.02149.05566v1.60254a.07.07,0,0,1-.02149.05371.06812.06812,0,0,1-.05468.02344h-.38477A.08053.08053,0,0,1,100.93147,59.81673Z"/><path class="d" d="M102.96272,59.81673a.07911.07911,0,0,1-.02148-.05567v-.91015a.30808.30808,0,0,0-.34766-.35059h-.70117a.08508.08508,0,0,1-.05664-.02148.073.073,0,0,1-.02344-.05567v-.26465a.073.073,0,0,1,.02344-.05566.08509.08509,0,0,1,.05664-.02149h.71679a.93955.93955,0,0,1,.63868.18848.73623.73623,0,0,1,.21289.584v.90722a.07911.07911,0,0,1-.02149.05567.082.082,0,0,1-.05859.02148h-.36133A.07734.07734,0,0,1,102.96272,59.81673Zm-1.127,0a.073.073,0,0,1-.02344-.05567v-.89844a.0709.0709,0,0,1,.02344-.05468.08048.08048,0,0,1,.05664-.02149h.36328a.07352.07352,0,0,1,.07617.07617v.89844a.07.07,0,0,1-.02148.05371.06815.06815,0,0,1-.05469.02344h-.36328A.08052.08052,0,0,1,101.83577,59.81673Z"/><path class="d" d="M104.94514,58.27376a.836.836,0,0,1,.17578.58008.90236.90236,0,0,1-.23242.63964,1.21353,1.21353,0,0,1-.57812.34766l-.125.03711a.05868.05868,0,0,1-.05664-.02149.08878.08878,0,0,1-.02735-.06152v-.31055a.09361.09361,0,0,1,.02149-.05761.16291.16291,0,0,1,.05664-.041l.09765-.04a.49912.49912,0,0,0,.22266-.165.51.51,0,0,0,.082-.31152.412.412,0,0,0-.06836-.27051.325.325,0,0,0-.25195-.07715h-.08008l-.41211-.00293a.07673.07673,0,0,1-.05469-.02148.07148.07148,0,0,1-.02148-.05566v-.71094a.0695.0695,0,0,1,.02344-.05469.07145.07145,0,0,1,.05273-.02148h.332a.0773.0773,0,0,1,.05664.02148.07509.07509,0,0,1,.02149.05469v.35058h.18945A.749.749,0,0,1,104.94514,58.27376Z"/><path class="d" d="M105.44124,59.81673a.073.073,0,0,1-.02344-.05567V58.15852a.073.073,0,0,1,.02344-.05566.08509.08509,0,0,1,.05664-.02149h.38476a.07351.07351,0,0,1,.05469.02149.07148.07148,0,0,1,.02148.05566v1.60254a.07.07,0,0,1-.02148.05371.06813.06813,0,0,1-.05469.02344h-.38476A.08052.08052,0,0,1,105.44124,59.81673Z"/><path class="d" d="M79.02131,64.431a.073.073,0,0,1-.02343-.05566V62.77278a.073.073,0,0,1,.02343-.05566.08507.08507,0,0,1,.05664-.02149h.69922a.93559.93559,0,0,1,.62305.17774.728.728,0,0,1,.20312.57617v.92285a.07515.07515,0,0,1-.02343.05664.07224.07224,0,0,1-.05664.02344H79.078A.08052.08052,0,0,1,79.02131,64.431Zm1.08789-.39648v-.56934a.30884.30884,0,0,0-.34765-.35058h-.29492v.91992Z"/><path class="d" d="M80.96272,63.70149a.0695.0695,0,0,1-.02344-.05469v-.874a.073.073,0,0,1,.02344-.05566.08145.08145,0,0,1,.05664-.02149h.38477a.07667.07667,0,0,1,.05468.02149.079.079,0,0,1,.02149.05566v.874a.07956.07956,0,0,1-.02149.05371.0701.0701,0,0,1-.05468.02247h-.38477A.07731.07731,0,0,1,80.96272,63.70149Z"/><path class="d" d="M82.68733,64.431a.073.073,0,0,1-.02344-.05566v-.91016a.30747.30747,0,0,0-.3457-.35058h-.46875a.0698.0698,0,0,1-.05274-.02344.07337.07337,0,0,1-.02343-.05371v-.26465a.073.073,0,0,1,.02343-.05566.07546.07546,0,0,1,.05274-.02149h.48633a.98124.98124,0,0,1,.63867.17578.70858.70858,0,0,1,.21094.5752v.92871a.07781.07781,0,0,1-.02149.05371.0751.0751,0,0,1-.05664.02344H82.744A.0805.0805,0,0,1,82.68733,64.431Z"/><path class="d" d="M83.55452,64.431a.079.079,0,0,1-.02149-.05566V62.77278a.079.079,0,0,1,.02149-.05566.0864.0864,0,0,1,.05859-.02149h.72461a.96735.96735,0,0,1,.64453.18067.7458.7458,0,0,1,.209.59179v.90723a.07781.07781,0,0,1-.02149.05371.0751.0751,0,0,1-.05664.02344h-.36328a.08048.08048,0,0,1-.05664-.02149.073.073,0,0,1-.02344-.05566v-.91016a.30807.30807,0,0,0-.34766-.35058h-.26953v1.26074a.0778.0778,0,0,1-.02148.05371.07512.07512,0,0,1-.05664.02344h-.36133A.082.082,0,0,1,83.55452,64.431Z"/><path class="d" d="M87.18147,64.388a.06085.06085,0,0,1-.01953.04493.05986.05986,0,0,1-.04492.01953h-.37891a.10684.10684,0,0,1-.084-.0293c-.01563-.01953-.02539-.03027-.02735-.03223l-.53711-.77832a.33079.33079,0,0,0-.10547.169.85092.85092,0,0,0-.02539.20312v.38477a.07747.07747,0,0,1-.02148.05957.07949.07949,0,0,1-.05859.02344H85.578a.06745.06745,0,0,1-.05273-.02442.08267.08267,0,0,1-.02344-.05859v-.38184a1.08059,1.08059,0,0,1,.07031-.42382.77449.77449,0,0,1,.26758-.30762l-.31445-.45215a.07032.07032,0,0,1-.01563-.043.06321.06321,0,0,1,.02149-.04492.0604.0604,0,0,1,.04492-.02051h.36133a.10751.10751,0,0,1,.06641.01856.22494.22494,0,0,1,.04492.0498l.49609.70117a.27579.27579,0,0,0,.10938-.13574.65278.65278,0,0,0,.02148-.1748v-.376a.0872.0872,0,0,1,.02148-.05957.07514.07514,0,0,1,.05665-.02344H87.076a.07344.07344,0,0,1,.05664.02539.07884.07884,0,0,1,.02344.05762v.3877a.80071.80071,0,0,1-.07813.35839.72758.72758,0,0,1-.28515.291l.375.5293A.0648.0648,0,0,1,87.18147,64.388Z"/><path class="d" d="M89.26545,62.888a.836.836,0,0,1,.17579.58008.90115.90115,0,0,1-.23047.63965,1.223,1.223,0,0,1-.57813.34766l-.12695.03711a.06018.06018,0,0,1-.05664-.02149.08645.08645,0,0,1-.02539-.06152V64.099a.08331.08331,0,0,1,.02148-.05761.1551.1551,0,0,1,.05469-.041l.09961-.04a.49911.49911,0,0,0,.22265-.165.51036.51036,0,0,0,.08008-.31152.41325.41325,0,0,0-.0664-.27051.325.325,0,0,0-.252-.07715h-.08007l-.41211-.00293a.08148.08148,0,0,1-.05664-.02148.07907.07907,0,0,1-.02149-.05567v-.71093a.0695.0695,0,0,1,.02344-.05469.07589.07589,0,0,1,.05469-.02149h.332a.07282.07282,0,0,1,.05468.02149.07505.07505,0,0,1,.02149.05469v.35058h.19141A.74706.74706,0,0,1,89.26545,62.888Z"/><path class="d" d="M89.76155,64.431a.07907.07907,0,0,1-.02149-.05566V62.77278a.07907.07907,0,0,1,.02149-.05566.0864.0864,0,0,1,.05859-.02149H90.203a.08145.08145,0,0,1,.05664.02149.079.079,0,0,1,.02149.05566v1.60254a.07777.07777,0,0,1-.02149.05371.0751.0751,0,0,1-.05664.02344h-.38281A.082.082,0,0,1,89.76155,64.431Z"/><path class="d" d="M91.0467,63.24348c.00391.084.0293.13379.07422.14746l.08594.03125a.075.075,0,0,1,.03906.03516.13805.13805,0,0,1,.01367.05664l.002.15723a.08218.08218,0,0,1-.041.07226.14548.14548,0,0,1-.09961.01953l-.12695-.01757a.39269.39269,0,0,1-.26367-.1709.61476.61476,0,0,1-.10547-.36817v-.43359a.10718.10718,0,0,1,.02734-.05566.06473.06473,0,0,1,.05078-.02149h.6211a.79748.79748,0,0,1,.60156.208.89073.89073,0,0,1,.2168.583c.002.02051.002.04883.002.08594a.96117.96117,0,0,1-.19727.64746.76965.76965,0,0,1-.623.23242h-.58594a.0805.0805,0,0,1-.05664-.02149.07143.07143,0,0,1-.02148-.05566v-.2832a.075.075,0,0,1,.02148-.05664.07729.07729,0,0,1,.05664-.02247h.57031a.36613.36613,0,0,0,.25586-.09082.35828.35828,0,0,0,.10938-.25683c.002-.02051.0039-.05176.0039-.09277,0-.03907-.00195-.06836-.0039-.08887a.34656.34656,0,0,0-.10547-.25684.37283.37283,0,0,0-.25977-.09082H91.0467Z"/><path class="d" d="M92.45686,63.70149a.06953.06953,0,0,1-.02344-.05469v-.874a.073.073,0,0,1,.02344-.05566.08507.08507,0,0,1,.05664-.02149h.38477a.08148.08148,0,0,1,.05664.02149.07907.07907,0,0,1,.02148.05566v.874a.0796.0796,0,0,1-.02148.05371.07435.07435,0,0,1-.05664.02247H92.5135A.08052.08052,0,0,1,92.45686,63.70149Z"/><path class="d" d="M93.52522,64.28352a.73891.73891,0,0,1-.21484-.5664v-.94434a.073.073,0,0,1,.02343-.05566.08018.08018,0,0,1,.05469-.02149h.31836a.0864.0864,0,0,1,.05859.02149.079.079,0,0,1,.02149.05566v.92871a.3117.3117,0,0,0,.10156.25684.41311.41311,0,0,0,.27734.085c.23047,0,.34571-.10938.34766-.3291.002-.02051.002-.04785.002-.083-.002-.03516-.002-.06152-.002-.08008v-.06738a.55187.55187,0,0,0-.05859-.26953.17559.17559,0,0,0-.16016-.09375.33736.33736,0,0,0-.08984.01269.29631.29631,0,0,0-.07813.03028.10866.10866,0,0,1-.02929.00585.06345.06345,0,0,1-.04688-.01953.06768.06768,0,0,1-.01953-.05078v-.24316a.1204.1204,0,0,1,.05859-.11328.576.576,0,0,1,.29492-.0586.59572.59572,0,0,1,.48438.17676.86839.86839,0,0,1,.15234.5459v.32324q-.03514.75292-.85547.75293A.909.909,0,0,1,93.52522,64.28352Z"/><path class="d" d="M95.9803,63.70149a.0695.0695,0,0,1-.02344-.05469v-.874a.073.073,0,0,1,.02344-.05566.08145.08145,0,0,1,.05664-.02149h.38476a.07668.07668,0,0,1,.05469.02149.07907.07907,0,0,1,.02149.05566v.874a.07961.07961,0,0,1-.02149.05371.07011.07011,0,0,1-.05469.02247h-.38476A.07731.07731,0,0,1,95.9803,63.70149Z"/><path class="d" d="M98.43538,62.71712a.07147.07147,0,0,1,.02148.05566v.91113a.67208.67208,0,0,1-.21094.50586,1.14,1.14,0,0,1-.59765.26856l-.78711.166a.07022.07022,0,0,1-.06055-.01465.06845.06845,0,0,1-.02539-.05566v-.26758a.07773.07773,0,0,1,.01953-.05371.09009.09009,0,0,1,.05078-.0293l.3418-.083-.36328-1.30176a.43446.43446,0,0,1-.01563-.06152.05681.05681,0,0,1,.01953-.043.05827.05827,0,0,1,.043-.01856h.39844a.07087.07087,0,0,1,.04688.01465.06719.06719,0,0,1,.02539.03223l.30664,1.25781a.421.421,0,0,0,.22851-.17383.60847.60847,0,0,0,.06055-.29687v-.75684a.07907.07907,0,0,1,.02148-.05566.08148.08148,0,0,1,.05664-.02149h.36524A.07348.07348,0,0,1,98.43538,62.71712Z"/><path class="d" d="M100.19514,63.41731a.74964.74964,0,0,1-.26953.27832l.23828.3291a.19692.19692,0,0,1,.0293.0459.11763.11763,0,0,1,.01172.05567v.249a.07781.07781,0,0,1-.02149.05371.0751.0751,0,0,1-.05664.02344h-1.248a.07668.07668,0,0,1-.07618-.07715v-.27344a.07909.07909,0,0,1,.02149-.05566.08393.08393,0,0,1,.05469-.02149h.72265L98.70686,62.807a.11688.11688,0,0,1-.01953-.0498.05505.05505,0,0,1,.02148-.044.06654.06654,0,0,1,.04688-.01758h.38086a.11589.11589,0,0,1,.09961.05567l.42968.59082a.4815.4815,0,0,0,.14258-.39063v-.17285a.08721.08721,0,0,1,.02149-.05957.07946.07946,0,0,1,.05859-.02344h.32227a.07554.07554,0,0,1,.05468.02539.08573.08573,0,0,1,.02149.05762v.26465A.75035.75035,0,0,1,100.19514,63.41731Z"/><path class="d" d="M102.16584,62.88411a.73611.73611,0,0,1,.19727.5625v.92871a.07.07,0,0,1-.02148.05371.07093.07093,0,0,1-.05469.02344h-.83985a.07387.07387,0,0,1-.05468-.02344.07.07,0,0,1-.02149-.05371v-.26465a.06808.06808,0,0,1,.02149-.05469.07591.07591,0,0,1,.05468-.02148h.39649V63.471a.37215.37215,0,0,0-.07617-.249.2555.2555,0,0,0-.20117-.08887H101.326l-.25976,1.23926a.095.095,0,0,1-.0254.05664.0709.0709,0,0,1-.05468.02344h-.35352a.07946.07946,0,0,1-.05859-.02344.064.064,0,0,1-.01563-.05664l.30078-1.23633h-.20312a.0709.0709,0,0,1-.05469-.02344.075.075,0,0,1-.02148-.05664v-.2832a.073.073,0,0,1,.02343-.05566.07546.07546,0,0,1,.05274-.02149h.98828A.71992.71992,0,0,1,102.16584,62.88411Z"/><path class="d" d="M104.35139,64.388a.06085.06085,0,0,1-.01953.04493.05985.05985,0,0,1-.04492.01953H103.908a.10685.10685,0,0,1-.084-.0293c-.01563-.01953-.02539-.03027-.02735-.03223l-.53711-.77832a.33071.33071,0,0,0-.10546.169.85042.85042,0,0,0-.02539.20312v.38477a.07744.07744,0,0,1-.02149.05957.07948.07948,0,0,1-.05859.02344h-.30078a.06746.06746,0,0,1-.05274-.02442.08271.08271,0,0,1-.02344-.05859v-.38184a1.0804,1.0804,0,0,1,.07032-.42382.77446.77446,0,0,1,.26757-.30762l-.31445-.45215a.07037.07037,0,0,1-.01562-.043.0632.0632,0,0,1,.02148-.04492.0604.0604,0,0,1,.04492-.02051h.36133a.10751.10751,0,0,1,.06641.01856.22494.22494,0,0,1,.04492.0498l.49609.70117a.27579.27579,0,0,0,.10938-.13574.65278.65278,0,0,0,.02148-.1748v-.376a.08716.08716,0,0,1,.02149-.05957.0751.0751,0,0,1,.05664-.02344h.32226a.07344.07344,0,0,1,.05664.02539.07884.07884,0,0,1,.02344.05762v.3877a.80084.80084,0,0,1-.07812.35839.72767.72767,0,0,1-.28516.291l.375.5293A.06475.06475,0,0,1,104.35139,64.388Z"/><path class="d" d="M105.84944,62.888a.836.836,0,0,1,.17578.58008.90241.90241,0,0,1-.23242.63965,1.21361,1.21361,0,0,1-.57813.34766l-.125.03711a.05872.05872,0,0,1-.05664-.02149.08876.08876,0,0,1-.02734-.06152V64.099a.09362.09362,0,0,1,.02148-.05761.163.163,0,0,1,.05664-.041l.09766-.04a.49919.49919,0,0,0,.22266-.165.51013.51013,0,0,0,.082-.31152.412.412,0,0,0-.06836-.27051.325.325,0,0,0-.252-.07715h-.08007l-.41211-.00293a.07672.07672,0,0,1-.05469-.02148.07147.07147,0,0,1-.02148-.05567v-.71093a.06953.06953,0,0,1,.02343-.05469.07148.07148,0,0,1,.05274-.02149h.332a.07733.07733,0,0,1,.05664.02149.07509.07509,0,0,1,.02148.05469v.35058h.18946A.749.749,0,0,1,105.84944,62.888Z"/><rect class="f" x="7.90031" y="47.34829" width="101.70273" height="2.55256"/><path class="e" d="M73.59749,39.138a.20578.20578,0,0,1-.06641-.15917V33.24837a.20932.20932,0,0,1,.06641-.16016.22794.22794,0,0,1,.16406-.06152h1.04883a.21237.21237,0,0,1,.2207.22168v5.73047a.21384.21384,0,0,1-.2207.22167H73.76155A.2246.2246,0,0,1,73.59749,39.138Z"/><path class="e" d="M76.12092,35.931a.20741.20741,0,0,1-.06836-.15918V33.24837a.211.211,0,0,1,.06836-.16016.228.228,0,0,1,.16407-.06152h1.10937a.21561.21561,0,0,1,.16016.06152.221.221,0,0,1,.0625.16016V35.7718a.22449.22449,0,0,1-.0625.15528.20844.20844,0,0,1-.16016.0664H76.285A.22464.22464,0,0,1,76.12092,35.931Z"/><path class="e" d="M82.12874,38.03255a.23867.23867,0,0,1-.168.0664H80.84944a.20274.20274,0,0,1-.15039-.0625.25187.25187,0,0,1-.07227-.15918l-.13281-.6582a1.87884,1.87884,0,0,1-.51563.43555,4.99505,4.99505,0,0,1-.64257.333,3.24754,3.24754,0,0,1-.59961.18262l-.0625.00879c-.10157,0-.15039-.04785-.15039-.14258v-.959c0-.10059.06054-.17481.18554-.22266.041-.01758.17578-.06055.4043-.12793a3.5152,3.5152,0,0,0,.55469-.209,1.73867,1.73867,0,0,0,.58594-.47949l-.168-.82618a1.90685,1.90685,0,0,0-.27539-.75586.65121.65121,0,0,0-.55079-.22168h-.31054a.21508.21508,0,0,1-.15625-.0664.22015.22015,0,0,1-.06641-.15528v-.81738a.23606.23606,0,0,1,.0625-.165.20844.20844,0,0,1,.16016-.0664h.33789a2.75613,2.75613,0,0,1,1.21289.22656,1.67929,1.67929,0,0,1,.72266.69726,4.37523,4.37523,0,0,1,.42773,1.2793l.53125,2.71A.16085.16085,0,0,1,82.12874,38.03255Z"/><path class="e" d="M86.03889,33.58137a2.42373,2.42373,0,0,1,.50586,1.67481,2.61551,2.61551,0,0,1-.666,1.84766,3.55064,3.55064,0,0,1-1.66993,1.0039l-.36523.10645a.17342.17342,0,0,1-.16406-.06153.254.254,0,0,1-.07618-.17773v-.89746a.25349.25349,0,0,1,.0625-.16406.43318.43318,0,0,1,.16016-.12012l.28516-.11524a1.43816,1.43816,0,0,0,.64258-.47558,1.47663,1.47663,0,0,0,.23632-.90137,1.20468,1.20468,0,0,0-.19531-.78223.95027.95027,0,0,0-.72851-.22168h-.23047l-1.19141-.00878a.214.214,0,0,1-.22266-.22266V32.014a.2095.2095,0,0,1,.06836-.16015.21874.21874,0,0,1,.1543-.0625h.959a.21627.21627,0,0,1,.16016.0625.21938.21938,0,0,1,.0625.16015v1.0127h.55078A2.1598,2.1598,0,0,1,86.03889,33.58137Z"/><path class="e" d="M87.97834,37.61067a2.13338,2.13338,0,0,1-.61718-1.63476V33.24837a.21645.21645,0,0,1,.0664-.16016.22579.22579,0,0,1,.15625-.06152h.92383a.23118.23118,0,0,1,.16406.06152.20932.20932,0,0,1,.06641.16016V35.931a.92182.92182,0,0,0,.28906.74219,1.2094,1.2094,0,0,0,.80469.24414c.66211,0,.998-.3164,1.00391-.95019a1.81624,1.81624,0,0,0,.0039-.24024c-.0039-.10058-.0039-.17773-.0039-.23047V35.3011a1.59024,1.59024,0,0,0-.16993-.77734.50525.50525,0,0,0-.46093-.27149,1.00965,1.00965,0,0,0-.26172.03614.85636.85636,0,0,0-.22656.08789.27344.27344,0,0,1-.08008.01855.19028.19028,0,0,1-.13867-.05762.1979.1979,0,0,1-.05664-.14746V33.4886a.34769.34769,0,0,1,.168-.3291,1.68149,1.68149,0,0,1,.85352-.169,1.72057,1.72057,0,0,1,1.39844.51075,2.51636,2.51636,0,0,1,.43945,1.57714v.93262q-.09668,2.17676-2.46875,2.17676A2.62839,2.62839,0,0,1,87.97834,37.61067Z"/><path class="e" d="M94.33577,34.60774c.01172.24317.082.38477.21289.42676l.248.08887a.19842.19842,0,0,1,.11133.10156.34169.34169,0,0,1,.041.165l.00781.45215a.23355.23355,0,0,1-.11914.209.43315.43315,0,0,1-.28906.05762l-.36328-.05274a1.13785,1.13785,0,0,1-.76563-.49316A1.78009,1.78009,0,0,1,93.119,34.5013V33.24837a.32531.32531,0,0,1,.07422-.16016.19518.19518,0,0,1,.14844-.06152h1.793a2.29268,2.29268,0,0,1,1.73633.59961,2.52192,2.52192,0,0,1,.627,1.68359c.00586.05859.00976.1416.00976.248a2.806,2.806,0,0,1-.56836,1.87011,2.23872,2.23872,0,0,1-1.80469.6709h-1.6875a.231.231,0,0,1-.16406-.0625.20581.20581,0,0,1-.0664-.15918v-.81738a.22308.22308,0,0,1,.0664-.165.22628.22628,0,0,1,.16406-.06641h1.64454a1.057,1.057,0,0,0,.74023-.26171,1.02959,1.02959,0,0,0,.31641-.74219c.00586-.0586.00781-.14746.00781-.2666,0-.11231-.002-.19825-.00781-.25684a1.00811,1.00811,0,0,0-.30664-.74219,1.07523,1.07523,0,0,0-.75-.26172h-.75586Z"/><path class="e" d="M98.44319,38.03645a.20582.20582,0,0,1-.06641-.15918v-4.6289a.20936.20936,0,0,1,.06641-.16016.23451.23451,0,0,1,.16406-.06152h1.11133a.2187.2187,0,0,1,.16016.06152.221.221,0,0,1,.0625.16016v4.6289a.22451.22451,0,0,1-.0625.15528.21138.21138,0,0,1-.16016.0664H98.60725A.231.231,0,0,1,98.44319,38.03645Z"/><path class="e" d="M105.73225,37.91243a.18692.18692,0,0,1-.05273.12891.17448.17448,0,0,1-.13282.05761H104.453a.2976.2976,0,0,1-.23828-.084c-.04883-.05664-.07422-.08789-.08008-.09375l-1.55468-2.24707a.9906.9906,0,0,0-.30274.48828,2.36145,2.36145,0,0,0-.07031.58594v1.11035a.24194.24194,0,0,1-.06641.17383.22757.22757,0,0,1-.166.0664h-.86914a.20583.20583,0,0,1-.15625-.07129.23513.23513,0,0,1-.06641-.16894V36.75716a3.10315,3.10315,0,0,1,.20508-1.22559,2.25565,2.25565,0,0,1,.77148-.88867l-.90625-1.30567a.1881.1881,0,0,1-.043-.124.17373.17373,0,0,1,.05664-.12891.18187.18187,0,0,1,.1289-.05761h1.04883a.3057.3057,0,0,1,.19141.05273.78278.78278,0,0,1,.1289.14258l1.42969,2.02539a.77336.77336,0,0,0,.31445-.39063,1.69628,1.69628,0,0,0,.06641-.50683v-1.084a.24537.24537,0,0,1,.0625-.17285.21437.21437,0,0,1,.16016-.0664h.93359a.21608.21608,0,0,1,.16406.07129.23446.23446,0,0,1,.06641.168v1.12012a2.34187,2.34187,0,0,1-.22656,1.03418,2.12516,2.12516,0,0,1-.82227.83985l1.084,1.52832A.21977.21977,0,0,1,105.73225,37.91243Z"/><path class="e" d="M57.85725,35.28352a1.308,1.308,0,0,1,.36328,1.01172v1.6709a.13309.13309,0,0,1-.03515.09375.123.123,0,0,1-.09571.03906h-.4414a.12459.12459,0,0,1-.09375-.03906.12114.12114,0,0,1-.03907-.09375V36.32356a.695.695,0,0,0-.78906-.7832h-.375a3.57793,3.57793,0,0,0-.07617.458,3.81133,3.81133,0,0,0-.01758.49023l.02735,1.47754a.12114.12114,0,0,1-.03907.09375.12459.12459,0,0,1-.09375.03906l-.96875-.00586a.12741.12741,0,0,1-.09375-.03808.12117.12117,0,0,1-.03906-.09375v-.30371a.1219.1219,0,0,1,.03906-.09668.13306.13306,0,0,1,.09375-.03516l.43555.00488V36.5052a4.423,4.423,0,0,1,.01367-.499,2.91307,2.91307,0,0,1,.08008-.46582h-.31445a.12462.12462,0,0,1-.09375-.03906.12114.12114,0,0,1-.03907-.09375v-.3252a.12189.12189,0,0,1,.03907-.09668.13306.13306,0,0,1,.09375-.03516h1.36132A1.58171,1.58171,0,0,1,57.85725,35.28352Z"/><path class="e" d="M58.98811,38.05989a.12827.12827,0,0,1-.03906-.09375V35.08235a.12867.12867,0,0,1,.03906-.09668.13306.13306,0,0,1,.09375-.03516h.46289a.1243.1243,0,0,1,.13281.13184v2.88379a.12659.12659,0,0,1-.03711.09375.12026.12026,0,0,1-.0957.03906h-.46289A.12459.12459,0,0,1,58.98811,38.05989Z"/><path class="e" d="M60.44319,36.76985a.12827.12827,0,0,1-.03906-.09375V35.08235a.12867.12867,0,0,1,.03906-.09668.13306.13306,0,0,1,.09375-.03516h.46875a.1243.1243,0,0,1,.13281.13184V36.6761a.12659.12659,0,0,1-.03711.09375.12354.12354,0,0,1-.0957.03906h-.46875A.12827.12827,0,0,1,60.44319,36.76985Z"/><path class="e" d="M63.83967,35.28645a1.55431,1.55431,0,0,1,.3086,1.0752,1.6209,1.6209,0,0,1-.37891,1.125,2.07691,2.07691,0,0,1-.9707.60156l-.22657.07129a.10053.10053,0,0,1-.0996-.02149.12742.12742,0,0,1-.043-.0996v-.40235a.14758.14758,0,0,1,.03515-.09375.21961.21961,0,0,1,.09571-.0664l.19336-.07715a.96456.96456,0,0,0,.668-1.03125,1.3105,1.3105,0,0,0-.07031-.47754.45164.45164,0,0,0-.23047-.251,1.08017,1.08017,0,0,0-.44922-.07715h-.17187l-.61719-.00488a.13742.13742,0,0,1-.09961-.03613A.11877.11877,0,0,1,61.744,35.43V34.31575A.13154.13154,0,0,1,61.783,34.222a.13472.13472,0,0,1,.09961-.03809H62.285a.13614.13614,0,0,1,.09765.03516.13374.13374,0,0,1,.03516.09668v.63476h.38086A1.35968,1.35968,0,0,1,63.83967,35.28645Z"/><path class="e" d="M64.70686,38.05989a.12827.12827,0,0,1-.03906-.09375v-.3252a.12869.12869,0,0,1,.03906-.09668.13309.13309,0,0,1,.09375-.03515H66.283V36.32844a.6939.6939,0,0,0-.7832-.78808H64.8553a.12462.12462,0,0,1-.09375-.03906.12827.12827,0,0,1-.03906-.09375v-.3252a.12867.12867,0,0,1,.03906-.09668.13306.13306,0,0,1,.09375-.03516h.67187a1.63461,1.63461,0,0,1,1.11524.333,1.316,1.316,0,0,1,.375,1.03418v1.19141h.19726a.12175.12175,0,0,1,.13282.13183v.3252a.13306.13306,0,0,1-.03516.09375.12449.12449,0,0,1-.09766.03906H64.80061A.12459.12459,0,0,1,64.70686,38.05989Z"/><path class="e" d="M68.18538,37.8011a1.35452,1.35452,0,0,1-.35743-1.00879v-1.71a.12732.12732,0,0,1,.03711-.09668.14.14,0,0,1,.09375-.03516h.39844a.13135.13135,0,0,1,.0957.03516.13376.13376,0,0,1,.03516.09668V36.764a.76856.76856,0,0,0,.20508.5791.81908.81908,0,0,0,.5957.19922.77222.77222,0,0,0,.57031-.18555.78894.78894,0,0,0,.19532-.55957V36.307a.99309.99309,0,0,0-.14844-.57617.46484.46484,0,0,0-.39649-.19629.78936.78936,0,0,0-.1875.02734.681.681,0,0,0-.17773.07227.08886.08886,0,0,1-.05469.0166.11043.11043,0,0,1-.07617-.03027.09941.09941,0,0,1-.0332-.08008v-.30371a.35279.35279,0,0,1,.01562-.11035.13881.13881,0,0,1,.07227-.07129.92733.92733,0,0,1,.23047-.09375,1.314,1.314,0,0,1,.32617-.03321,1.05208,1.05208,0,0,1,.8418.31153,1.51,1.51,0,0,1,.27734.96777c.00391.03711.00586.13965.00586.30859,0,.16993-.002.27247-.00586.30957a1.38816,1.38816,0,0,1-.36719.99219,1.91619,1.91619,0,0,1-2.1914-.0166Z"/><circle class="g" cx="21.23918" cy="50.18864" r="7.8965"/><path class="h" d="M7.90031,43.73938S23.2571,58.99834,37.854,68.14862H7.90031Z"/><path class="i" d="M78.43928,43.71614a.07888.07888,0,0,1-.02344-.05762v-2.207a.08111.08111,0,0,1,.02149-.06055.07391.07391,0,0,1,.05859-.02441h.82813q.999,0,1.01953.92188c.00391.13183.00781.21972.00781.26464,0,.043-.0039.12989-.00781.26075a.95416.95416,0,0,1-.25586.70019,1.06747,1.06747,0,0,1-.74805.22559h-.84375A.07826.07826,0,0,1,78.43928,43.71614Zm.88477-.37012a.556.556,0,0,0,.40625-.125.601.601,0,0,0,.13281-.417c.00391-.13574.00586-.2207.00586-.25391,0-.03613-.002-.12011-.00586-.251a.47979.47979,0,0,0-.55664-.53906h-.41406V43.346Z"/><path class="i" d="M80.76741,41.66536a.07884.07884,0,0,1-.02344-.05762v-.248a.08241.08241,0,0,1,.02344-.06054.07946.07946,0,0,1,.05859-.02344h.31055a.08088.08088,0,0,1,.06054.02344.084.084,0,0,1,.0254.06054v.248a.08069.08069,0,0,1-.0254.05762.08732.08732,0,0,1-.06054.02344H80.826A.0795.0795,0,0,1,80.76741,41.66536Zm.01367,2.05078a.07884.07884,0,0,1-.02344-.05762V42.05794a.0765.0765,0,0,1,.02344-.0586.08139.08139,0,0,1,.05664-.02246h.28906a.0834.0834,0,0,1,.082.08106v1.60058a.07367.07367,0,0,1-.02539.05762.07514.07514,0,0,1-.05664.02344h-.28906A.07824.07824,0,0,1,80.78108,43.71614Z"/><path class="i" d="M81.68342,44.36165a.07725.07725,0,0,1-.02343-.05957V42.05794a.07652.07652,0,0,1,.02343-.0586.08141.08141,0,0,1,.05664-.02246h.27149a.08019.08019,0,0,1,.084.08106v.13574a.62342.62342,0,0,1,.53906-.251.65008.65008,0,0,1,.5254.21582.91642.91642,0,0,1,.19726.57813c.002.02636.00391.06738.00391.12207,0,.05371-.002.09472-.00391.12109a.89885.89885,0,0,1-.19531.5752.65264.65264,0,0,1-.52735.21875.60533.60533,0,0,1-.51757-.24121v.76953a.07459.07459,0,0,1-.082.08105h-.29493A.08051.08051,0,0,1,81.68342,44.36165Zm1.209-1.40137c.002-.02246.0039-.05664.0039-.10156,0-.0459-.00195-.0791-.0039-.10254q-.02344-.44678-.38672-.44727a.33458.33458,0,0,0-.28711.126.50934.50934,0,0,0-.10156.30469c-.002.02734-.00391.07031-.00391.1289s.00195.10254.00391.13184a.45827.45827,0,0,0,.10547.28809.346.346,0,0,0,.2832.11914Q82.869,43.40755,82.89241,42.96028Z"/><path class="i" d="M83.93538,44.3636a.06145.06145,0,0,1-.02344-.04785.1553.1553,0,0,1,.01367-.05371l.26953-.62793L83.5428,42.099a.15889.15889,0,0,1-.01367-.04785.10342.10342,0,0,1,.02539-.05176.0624.0624,0,0,1,.05078-.02246h.28125a.09407.09407,0,0,1,.08789.06446l.45117,1.10546.457-1.10546a.10329.10329,0,0,1,.09375-.06446h.27539a.07.07,0,0,1,.05078.02051.06345.06345,0,0,1,.01953.04687.15336.15336,0,0,1-.01171.05469l-.96094,2.22071a.09467.09467,0,0,1-.09375.06347H83.9842A.0678.0678,0,0,1,83.93538,44.3636Z"/><path class="i" d="M85.6385,43.71614a.07888.07888,0,0,1-.02344-.05762V42.06184a.08476.08476,0,0,1,.02344-.06152.07822.07822,0,0,1,.05664-.02344h.2793a.08039.08039,0,0,1,.084.085v.13867a.5747.5747,0,0,1,.48828-.22363h.14258a.07854.07854,0,0,1,.082.08106v.248a.07885.07885,0,0,1-.02343.05762.0737.0737,0,0,1-.0586.02344H86.4217a.31464.31464,0,0,0-.34179.34277v.92871a.08072.08072,0,0,1-.02539.05762.07826.07826,0,0,1-.05664.02344h-.30274A.07826.07826,0,0,1,85.6385,43.71614Z"/><path class="i" d="M87.17756,43.56966a.787.787,0,0,1-.23437-.5625l-.00391-.14844.00391-.14942a.78037.78037,0,0,1,.23828-.56152,1.0137,1.0137,0,0,1,1.22266,0,.78825.78825,0,0,1,.23828.56152c.002.02735.002.07715.002.14942s0,.12109-.002.14844a.787.787,0,0,1-.23438.5625,1.02932,1.02932,0,0,1-1.23047,0Zm.89258-.25a.51462.51462,0,0,0,.10352-.32911c.002-.02246.0039-.0664.0039-.13183,0-.06641-.00195-.11035-.0039-.13281a.50667.50667,0,0,0-.10547-.33008.33937.33937,0,0,0-.27344-.11426.349.349,0,0,0-.2793.11426.51749.51749,0,0,0-.10351.33008l-.00391.13281.00391.13183a.51456.51456,0,0,0,.10351.32911.35358.35358,0,0,0,.2793.11132A.3451.3451,0,0,0,88.07014,43.31966Z"/><path class="i" d="M89.04475,43.71614a.07888.07888,0,0,1-.02344-.05762V42.05794a.07653.07653,0,0,1,.02344-.0586.08141.08141,0,0,1,.05664-.02246h.28125a.08421.08421,0,0,1,.06055.02246.083.083,0,0,1,.02148.0586v.13965a.69038.69038,0,0,1,.56641-.25489.63086.63086,0,0,1,.49414.2041.79776.79776,0,0,1,.18359.5586v.95312a.08577.08577,0,0,1-.02148.05762.081.081,0,0,1-.06055.02344h-.30469a.08.08,0,0,1-.08007-.08106v-.93261a.44962.44962,0,0,0-.09766-.30665.34766.34766,0,0,0-.27539-.11035.365.365,0,0,0-.2793.11231.42413.42413,0,0,0-.10351.30469v.93261a.07888.07888,0,0,1-.02344.05762.0737.0737,0,0,1-.05859.02344h-.30274A.07826.07826,0,0,1,89.04475,43.71614Z"/><path class="i" d="M91.30061,43.557a.85981.85981,0,0,1-.23437-.61719l-.00391-.085a.955.955,0,0,1,.22266-.668.90464.90464,0,0,1,1.23632,0,.93707.93707,0,0,1,.21875.65137v.07129a.08047.08047,0,0,1-.02343.05762.08405.08405,0,0,1-.06055.02343h-1.127v.02735a.53729.53729,0,0,0,.10351.31347.32217.32217,0,0,0,.26758.123.38485.38485,0,0,0,.31445-.15527.16256.16256,0,0,1,.04688-.0459.14094.14094,0,0,1,.05859-.00879H92.617a.07816.07816,0,0,1,.05273.01758.05331.05331,0,0,1,.02344.04687.31581.31581,0,0,1-.09766.19141.78514.78514,0,0,1-.27539.19141,1.004,1.004,0,0,1-.418.082A.82644.82644,0,0,1,91.30061,43.557Zm.9707-.85449v-.00684a.48527.48527,0,0,0-.09961-.32031.36684.36684,0,0,0-.543,0,.48527.48527,0,0,0-.09961.32031v.00684Z"/><path class="i" d="M94.203,43.682a.722.722,0,0,1-.31054-.251.64309.64309,0,0,1-.11328-.335v-.00683a.05519.05519,0,0,1,.02343-.0459.07109.07109,0,0,1,.04883-.01856h.32227a.09165.09165,0,0,1,.09765.06739.3891.3891,0,0,0,.15821.2207.4704.4704,0,0,0,.25976.07129.44408.44408,0,0,0,.3125-.11524.41711.41711,0,0,0,.12305-.31933.38252.38252,0,0,0-.12305-.2959.44343.44343,0,0,0-.3125-.11426.43216.43216,0,0,0-.166.02735.60521.60521,0,0,0-.127.07421l-.02929.02051a.20187.20187,0,0,1-.043.02442.12612.12612,0,0,1-.03906.00586h-.31836a.07337.07337,0,0,1-.07422-.07422l.11523-1.15625a.09632.09632,0,0,1,.03125-.06934.10538.10538,0,0,1,.07031-.02539h1.27344a.07592.07592,0,0,1,.082.082V41.679a.08763.08763,0,0,1-.02148.05762.081.081,0,0,1-.06055.02344h-.97851l-.05469.54882a.76181.76181,0,0,1,.17969-.083.9909.9909,0,0,1,.67187.06152.74342.74342,0,0,1,.30274.26758.72106.72106,0,0,1,.11328.40527.803.803,0,0,1-.11524.43164.75118.75118,0,0,1-.32617.28516,1.12067,1.12067,0,0,1-.48633.09961A1.13391,1.13391,0,0,1,94.203,43.682Z"/><path class="i" d="M96.19124,43.52278a1.04723,1.04723,0,0,1-.24219-.6582c-.002-.06055-.002-.16407-.002-.31153,0-.14941,0-.25488.002-.31836a1.0095,1.0095,0,0,1,.24414-.65136,1.03572,1.03572,0,0,1,1.34961,0,.99916.99916,0,0,1,.24414.65136c.0039.126.00781.23243.00781.31836s-.00391.19043-.00781.31153a1.0362,1.0362,0,0,1-.24219.6582,1.03791,1.03791,0,0,1-1.35351,0Zm.99218-.2832a.65733.65733,0,0,0,.11133-.3916c.00391-.06543.00391-.166.00391-.30176s0-.2334-.00391-.29492a.64885.64885,0,0,0-.11133-.38575.42022.42022,0,0,0-.63086,0,.64885.64885,0,0,0-.11132.38575c-.002.06152-.00391.15918-.00391.29492s.00195.23633.00391.30176a.65733.65733,0,0,0,.11132.3916.43015.43015,0,0,0,.63086,0Z"/><path class="i" d="M98.42561,43.52278a1.0362,1.0362,0,0,1-.24219-.6582c-.00195-.06055-.0039-.16407-.0039-.31153,0-.14941.002-.25488.0039-.31836a.99916.99916,0,0,1,.24414-.65136,1.03572,1.03572,0,0,1,1.34961,0,1.0095,1.0095,0,0,1,.24414.65136c.00391.126.00586.23243.00586.31836s-.00195.19043-.00586.31153a1.03739,1.03739,0,0,1-.24414.6582,1.03528,1.03528,0,0,1-1.35156,0Zm.99219-.2832a.67133.67133,0,0,0,.11133-.3916c.002-.06543.0039-.166.0039-.30176s-.00195-.2334-.0039-.29492a.66286.66286,0,0,0-.11133-.38575.37932.37932,0,0,0-.31641-.14257.37548.37548,0,0,0-.31445.14257.64892.64892,0,0,0-.11133.38575c-.00391.06152-.00391.15918-.00391.29492s0,.23633.00391.30176a.6574.6574,0,0,0,.11133.3916.36975.36975,0,0,0,.31445.13769A.37357.37357,0,0,0,99.4178,43.23958Z"/><path class="i" d="M101.24006,43.71614a.07887.07887,0,0,1-.02343-.05762V42.05794a.07652.07652,0,0,1,.02343-.0586.08617.08617,0,0,1,.0586-.02246h.26758a.07856.07856,0,0,1,.082.08106v.11523a.59319.59319,0,0,1,.49023-.23047.53514.53514,0,0,1,.52539.30176.61425.61425,0,0,1,.23047-.21875.6599.6599,0,0,1,.32227-.083.592.592,0,0,1,.45507.19043.78422.78422,0,0,1,.17579.55274v.97265a.08578.08578,0,0,1-.02149.05762.08094.08094,0,0,1-.06055.02344h-.28125a.08.08,0,0,1-.08007-.08106v-.94629a.44781.44781,0,0,0-.08985-.30859.314.314,0,0,0-.23633-.09473.29784.29784,0,0,0-.22461.09668.42844.42844,0,0,0-.09375.30664v.94629a.08577.08577,0,0,1-.02148.05762.08094.08094,0,0,1-.06055.02344h-.2832a.08008.08008,0,0,1-.082-.08106v-.94629a.43758.43758,0,0,0-.0918-.30664.30709.30709,0,0,0-.23437-.09668.30085.30085,0,0,0-.22461.09668.42844.42844,0,0,0-.09375.30664v.94629a.08573.08573,0,0,1-.02149.05762.08092.08092,0,0,1-.06054.02344h-.28711A.08273.08273,0,0,1,101.24006,43.71614Z"/><path class="i" d="M104.58577,44.38509a.66023.66023,0,0,1-.26368-.22852.44023.44023,0,0,1-.07812-.2207.073.073,0,0,1,.02344-.05567.08269.08269,0,0,1,.05859-.02246h.30078a.09823.09823,0,0,1,.05274.01563.10973.10973,0,0,1,.03515.05566.40719.40719,0,0,0,.11133.15137.35486.35486,0,0,0,.23047.0625.42214.42214,0,0,0,.29883-.08985.41512.41512,0,0,0,.0957-.31347v-.23047a.74618.74618,0,0,1-1.04883.00293.92562.92562,0,0,1-.1914-.583l-.00391-.09082.00391-.0918a.93546.93546,0,0,1,.19336-.583.6404.6404,0,0,1,.52734-.22071.70536.70536,0,0,1,.31641.06836.63666.63666,0,0,1,.22265.18262v-.13184a.08627.08627,0,0,1,.02539-.06152.08732.08732,0,0,1,.06055-.02344h.27734a.07819.07819,0,0,1,.05664.02344.08623.08623,0,0,1,.02539.06152l.002,1.63379a.78558.78558,0,0,1-.209.583.87281.87281,0,0,1-.63476.207A1.037,1.037,0,0,1,104.58577,44.38509Zm.75976-1.14063a.53435.53435,0,0,0,.10547-.29785c.002-.01856.00391-.05469.00391-.1084,0-.05469-.002-.09082-.00391-.1084a.53489.53489,0,0,0-.10547-.29883.33859.33859,0,0,0-.28515-.12207q-.36621,0-.38672.44727l-.002.082c0,.35254.12891.52832.38868.52832A.33593.33593,0,0,0,105.34553,43.24446Z"/><path class="j" d="M38.726,68.07447S15.09933,51.08476,7.90031,34.99738V46.1123S26.28344,65.02035,38.726,68.07447Z"/><path class="k" d="M7.90031,40.92046S23.1505,60.9331,38.726,68.07447"/><circle class="i" cx="20.28718" cy="51.55784" r="5.73989"/><path class="d" d="M17.90022,51.53059a.09242.09242,0,0,1-.02734-.06543v-.35937a.21736.21736,0,0,1,.08593-.18653l.03907-.02734.13086-.09277c.25781-.18653.44726-.32715.57031-.42285a2.33145,2.33145,0,0,0,.28906-.25879.334.334,0,0,0,.10352-.20508.18383.18383,0,0,0-.02344-.10156c-.01563-.02442-.04883-.03711-.10156-.03711a.167.167,0,0,0-.10352.02929.188.188,0,0,0-.05078.05762c-.00781.01856-.01953.04785-.03516.08984a.11115.11115,0,0,1-.05273.06153.18146.18146,0,0,1-.08594.01758h-.64844a.07846.07846,0,0,1-.07617-.07618.77858.77858,0,0,1,.14258-.45019.90723.90723,0,0,1,.373-.30176,1.28393,1.28393,0,0,1,.5332-.10742,1.24231,1.24231,0,0,1,.75391.206.66515.66515,0,0,1,.27734.56739.7325.7325,0,0,1-.18359.48437,2.876,2.876,0,0,1-.56055.47852l-.02344.0166H19.953a.09645.09645,0,0,1,.06641.02734.09471.09471,0,0,1,.02734.06641v.52441a.09337.09337,0,0,1-.09375.09278H17.96663A.09227.09227,0,0,1,17.90022,51.53059Z"/><path class="d" d="M20.63655,51.347a.9074.9074,0,0,1-.30664-.6377c-.00782-.09472-.00977-.21484-.00977-.3623,0-.14941.002-.27246.00977-.36914a.88123.88123,0,0,1,.15039-.4502.8995.8995,0,0,1,.373-.30761,1.46686,1.46686,0,0,1,1.1211,0,.89351.89351,0,0,1,.37109.30761.88123.88123,0,0,1,.15039.4502q.01173.145.01172.36914c0,.14746-.0039.26758-.01172.3623a.89984.89984,0,0,1-.30664.6377,1.352,1.352,0,0,1-1.55273,0Zm.96289-.65527c.0039-.06641.00781-.18262.00781-.34864,0-.168-.00391-.28222-.00781-.34472-.00977-.14746-.07031-.22168-.18555-.22461-.11523.00293-.17773.07715-.1875.22461-.0039.124-.00586.23925-.00586.34472q0,.14942.00586.34864c.00977.14941.07227.22461.1875.22461S21.58967,50.84114,21.59944,50.69173Z"/><path class="d" d="M17.744,53.098a.628.628,0,0,1,.18945.50586v.82128a.07069.07069,0,0,1-.01758.04786.06694.06694,0,0,1-.05078.0205h-.32031A.07.07,0,0,1,17.494,54.474a.06347.06347,0,0,1-.02148-.04883v-.80761a.27381.27381,0,0,0-.3086-.31153h-.17578a1.64535,1.64535,0,0,0-.041.40137l.02149.71777a.06345.06345,0,0,1-.02149.04883.07.07,0,0,1-.05078.01953l-.57812-.00293a.07253.07253,0,0,1-.05078-.01855.06412.06412,0,0,1-.01953-.04981v-.21484a.06408.06408,0,0,1,.01953-.0498.07249.07249,0,0,1,.05078-.01856h.2207v-.42871a1.61949,1.61949,0,0,1,.041-.4043h-.16016a.07253.07253,0,0,1-.05078-.01855.06338.06338,0,0,1-.01953-.04883v-.23535a.06338.06338,0,0,1,.01953-.04883.07335.07335,0,0,1,.05078-.01953h.76172A.84235.84235,0,0,1,17.744,53.098Z"/><path class="d" d="M18.2635,54.474a.06347.06347,0,0,1-.02148-.04883V53.00325a.065.065,0,0,1,.02148-.04883.07.07,0,0,1,.05078-.01953h.33985a.06543.06543,0,0,1,.04882.01953.06335.06335,0,0,1,.01954.04883v1.42187a.06411.06411,0,0,1-.01954.04786.06268.06268,0,0,1-.04882.0205h-.33985A.07.07,0,0,1,18.2635,54.474Z"/><path class="d" d="M19.05452,53.82747a.06334.06334,0,0,1-.01953-.04883v-.77539a.06334.06334,0,0,1,.01953-.04883.07335.07335,0,0,1,.05078-.01953h.34179a.06864.06864,0,0,1,.04883.01953.06972.06972,0,0,1,.01758.04883v.77539a.07067.07067,0,0,1-.01758.04785.06564.06564,0,0,1-.04883.02051H19.1053A.07335.07335,0,0,1,19.05452,53.82747Z"/><path class="d" d="M20.867,53.10579a.744.744,0,0,1,.15625.51465.80208.80208,0,0,1-.20508.56738,1.08906,1.08906,0,0,1-.51172.30859l-.11328.03223a.05239.05239,0,0,1-.05078-.01855.086.086,0,0,1-.02149-.05469V54.18a.08221.08221,0,0,1,.01758-.05078.14266.14266,0,0,1,.05078-.03711l.08594-.03516a.44406.44406,0,0,0,.19922-.14648.46357.46357,0,0,0,.07226-.27637.37089.37089,0,0,0-.06054-.24024.29264.29264,0,0,0-.22461-.06836h-.07031l-.36524-.00292a.06194.06194,0,0,1-.04883-.01856.06409.06409,0,0,1-.01953-.0498v-.62989a.062.062,0,0,1,.01953-.04883A.06866.06866,0,0,1,19.826,52.556h.29492a.06866.06866,0,0,1,.04883.01953.06939.06939,0,0,1,.01953.04883v.31055h.168A.66279.66279,0,0,1,20.867,53.10579Z"/><path class="d" d="M21.25764,54.473a.06609.06609,0,0,1-.02148-.04786v-.23437a.06349.06349,0,0,1,.02148-.04883.0675.0675,0,0,1,.04688-.01953h.68554v-.50488a.27328.27328,0,0,0-.30859-.3086h-.34961a.06271.06271,0,0,1-.04883-.0205.067.067,0,0,1-.01953-.04981v-.23535a.065.065,0,0,1,.02149-.04883.06748.06748,0,0,1,.04687-.01953h.36328a.88507.88507,0,0,1,.57617.16113.63672.63672,0,0,1,.19532.52149v.50488h.0957a.06547.06547,0,0,1,.04883.01953.062.062,0,0,1,.01953.04883v.23437a.06414.06414,0,0,1-.01953.04786.06271.06271,0,0,1-.04883.0205H21.30452A.06453.06453,0,0,1,21.25764,54.473Z"/><path class="d" d="M23.02522,54.34309a.651.651,0,0,1-.18945-.50195v-.83789a.06338.06338,0,0,1,.01953-.04883.06864.06864,0,0,1,.04883-.01953h.2832a.07335.07335,0,0,1,.05078.01953.06338.06338,0,0,1,.01953.04883v.82422a.27952.27952,0,0,0,.08985.22851.36851.36851,0,0,0,.24609.07422c.20312,0,.30664-.09668.30859-.292.002-.01758.002-.042.002-.07324-.002-.03125-.002-.05469-.002-.07129v-.05957a.49072.49072,0,0,0-.05273-.23926.15324.15324,0,0,0-.14063-.083.33469.33469,0,0,0-.08007.01075.27065.27065,0,0,0-.07032.02734.08806.08806,0,0,1-.02539.00586.05621.05621,0,0,1-.041-.01758.06258.06258,0,0,1-.01758-.0459v-.21484a.1063.1063,0,0,1,.05078-.10156.67344.67344,0,0,1,.69141.10546.76376.76376,0,0,1,.13671.48438v.28613c-.02148.44629-.27343.66895-.75976.66895A.80751.80751,0,0,1,23.02522,54.34309Z"/><circle class="g" cx="26.20213" cy="59.96885" r="4.20954"/><circle class="i" cx="26.20213" cy="59.96885" r="2.93355"/><ellipse class="l" cx="27.14878" cy="59.48424" rx="1.18153" ry="0.80054"/><ellipse class="f" cx="27.14878" cy="59.27357" rx="1.18153" ry="0.80054"/><ellipse class="l" cx="25.36347" cy="60.75698" rx="1.36183" ry="0.9227"/><ellipse class="m" cx="25.36347" cy="60.51418" rx="1.36183" ry="0.9227"/><line class="n" x1="25.15996" y1="59.60209" x2="25.79221" y2="61.3898"/><line class="o" x1="27.90034" y1="58.65674" x2="26.28344" y2="59.83429"/><polygon class="g" points="117.184 61.221 109.603 68.074 109.603 27.474 117.184 20.62 117.184 61.221"/><polygon class="i" points="117.275 20.62 15.572 20.62 7.9 27.474 109.603 27.474 117.275 20.62"/><line class="p" x1="111.63956" y1="28.03747" x2="111.63956" y2="55.24062"/><line class="p" x1="114.09178" y1="26.01082" x2="114.09178" y2="37.25388"/><line class="p" x1="116.05848" y1="23.56821" x2="116.05848" y2="49.1665"/><line class="q" x1="16.97146" y1="21.93969" x2="35.11755" y2="21.93969"/><line class="q" x1="15.02778" y1="23.70492" x2="33.17387" y2="23.70492"/><line class="q" x1="12.79265" y1="25.60934" x2="30.93874" y2="25.60934"/><line class="q" x1="43.5168" y1="21.93969" x2="61.66289" y2="21.93969"/><line class="q" x1="41.57311" y1="23.70492" x2="59.7192" y2="23.70492"/><line class="q" x1="70.90696" y1="21.93969" x2="89.05305" y2="21.93969"/><line class="q" x1="68.96327" y1="23.70492" x2="87.10936" y2="23.70492"/><line class="q" x1="39.33799" y1="25.60934" x2="57.48408" y2="25.60934"/><path class="r" d="M22.92778,34.56078a7.72661,7.72661,0,0,0,7.84882.82274c-.00634.00271.98572.33632,1.04606.35386a15.36193,15.36193,0,0,0,2.77942.53692c3.98591.38908,6.33663-1.13968,8.81787-2.31643,0,0-.85419,8.03521-10.331,8.27839C25.49747,42.43107,22.92778,34.56078,22.92778,34.56078Z"/><g class="s"><path class="t" d="M24.75829,37.40425s7.02869,2.33008,17.934-.14158h0l-.273,4.54689-17.46881-.2322-.19218-4.17311"/></g><path class="u" d="M22.92778,34.56078a7.72661,7.72661,0,0,0,7.84882.82274c-.00634.00271.98572.33632,1.04606.35386a15.36193,15.36193,0,0,0,2.77942.53692c3.98591.38908,6.33663-1.13968,8.81787-2.31643,0,0-.85419,8.03521-10.331,8.27839C25.49747,42.43107,22.92778,34.56078,22.92778,34.56078Z"/><path class="v" d="M42.59526,1.69365s10.12373.61,15.31665,8.10246"/><path class="v" d="M15.69175,3.59126S4.68573,5.4559,1.69365,12.18884"/><circle class="r" cx="44.86389" cy="25.22895" r="9.94568"/><g class="w"><path class="x" d="M35.22186,19.72418s1.23506-.97814,7.82948-.87a34.04671,34.04671,0,0,1,11.45458,2.14279V5.42977H35.22186Z"/><circle class="t" cx="45.82983" cy="23.84651" r="2.68297"/></g><circle class="y" cx="44.86389" cy="25.22895" r="9.94568"/><path class="z" d="M54.32726,20.6862s4.14662.81722,4.80242-3.93809"/><path class="z" d="M49.72026,19.47s3.12914.08337,3.39587-4.18672"/><ellipse class="r" cx="15.47611" cy="25.22895" rx="9.19554" ry="9.94568"/><g class="aa"><path class="x" d="M6.56132,19.17058s1.0281-.97814,7.12514-.87A30.52045,30.52045,0,0,1,24.3909,20.44333V4.87617H6.56132Z"/><circle class="t" cx="16.44204" cy="23.84651" r="2.68297"/></g><ellipse class="y" cx="15.47611" cy="25.22895" rx="9.19554" ry="9.94568"/><path class="z" d="M9.33611,18.32493s-4.14662.81722-4.80242-3.93808"/><path class="z" d="M13.75907,18.30446s-3.12747-.1317-3.10035-4.41"/><path class="ab" d="M28.17536,25.87824c-2.46692-1.83791-5.64321.09037-6,2.94252-.40886,3.26813,3.34443,4.59279,6,4.10044"/></svg>