<svg xmlns="http://www.w3.org/2000/svg" xmlns:xlink="http://www.w3.org/1999/xlink" viewBox="0 0 64.74647 130.58109"><defs><style>.a,.r{fill:#f6f6f6;}.a,.aa,.b,.t,.v,.w,.y{stroke:#2d2a28;}.a,.aa,.k,.n,.o,.v,.w{stroke-miterlimit:10;}.a,.aa,.b,.t,.v,.y{stroke-width:1.6518px;}.b,.u{fill:#2d2a28;}.aa,.b,.p,.q,.t,.w,.y{stroke-linecap:round;}.b,.p,.q,.t,.y{stroke-linejoin:round;}.c{fill:#1d1d1b;opacity:0.2;}.d,.t{fill:#662483;}.e{fill:#ffed00;}.f{fill:#dadada;}.aa,.g{fill:#9f6cba;}.h{fill:#fff;}.i{fill:#fcea10;}.j{fill:#1ac179;}.k,.n,.o,.p,.q,.v,.w,.y{fill:none;}.k{stroke:#17995e;}.k,.p,.q{stroke-width:0.51268px;}.l{fill:#c6c6c6;}.m{fill:#ededed;}.n,.o{stroke:#c6c6c6;}.n{stroke-width:0.25634px;}.o{stroke-width:0.12817px;}.p{stroke:#be1622;}.q{stroke:#fcea10;}.s{clip-path:url(#a);}.w{stroke-width:3.09713px;}.x{clip-path:url(#b);}.z{clip-path:url(#c);}</style><clipPath id="a"><ellipse class="a" cx="13.51505" cy="20.13901" rx="8.40782" ry="9.09371"/></clipPath><clipPath id="b"><path class="b" d="M27.16264,29.21416c3.17162-1.1403,10.35169-3.6477,10.25795-3.94173.96073,3.01343-.10929,7.29908-3.30232,8.47286a7.80632,7.80632,0,0,1-5.33149-.38922c-1.109-.40879-3.39326-1.31929-3.893-2.5331-.25024-.61005.19651-.765.82453-1.0691C25.84666,29.69176,26.38379,29.49418,27.16264,29.21416Z"/></clipPath><clipPath id="c"><circle class="a" cx="40.38539" cy="20.13901" r="9.09371"/></clipPath></defs><polygon class="c" points="50.028 130.581 55.562 130.581 64.746 120.467 50.028 120.467 50.028 130.581"/><rect class="d" x="-21.12372" y="59.29422" width="101.70273" height="40.60086" transform="translate(109.32229 49.86698) rotate(89.99998)"/><rect class="e" x="-32.33734" y="70.50785" width="101.70273" height="18.17361" transform="translate(98.10867 61.0806) rotate(89.99998)"/><path class="d" d="M22.29738,85.54039a.07805.07805,0,0,1,.05664-.02246h1.60156a.07805.07805,0,0,1,.05664.02246.08576.08576,0,0,1,.02149.05762v.69824a.93921.93921,0,0,1-.17774.62305.72628.72628,0,0,1-.57617.2041H22.356A.07826.07826,0,0,1,22.29933,87.1a.07515.07515,0,0,1-.02344-.05664V85.598A.08576.08576,0,0,1,22.29738,85.54039Zm.39648,1.08789h.57032a.30777.30777,0,0,0,.34961-.34766V85.9857h-.91993Z"/><path class="d" d="M23.02785,87.4818a.06813.06813,0,0,1,.05469-.02344h.873a.0751.0751,0,0,1,.05664.02344.08327.08327,0,0,1,.02149.05664v.38476a.07911.07911,0,0,1-.02149.05567.08148.08148,0,0,1-.05664.02148h-.873a.08018.08018,0,0,1-.05469-.02148.07148.07148,0,0,1-.02149-.05567v-.38476A.075.075,0,0,1,23.02785,87.4818Z"/><path class="d" d="M21.70949,88.3734a.07805.07805,0,0,1,.05664-.02246h1.48633a.07678.07678,0,0,1,.05468.02246.08569.08569,0,0,1,.02149.05761v.35059a.079.079,0,0,1-.02149.05566.08013.08013,0,0,1-.05468.02149H21.76613a.08145.08145,0,0,1-.05664-.02149.07907.07907,0,0,1-.02149-.05566V88.431A.08574.08574,0,0,1,21.70949,88.3734Zm.54883.74316a.08734.08734,0,0,1,.06054-.02441h.31055a.08877.08877,0,0,1,.05859.02148.11582.11582,0,0,1,.041.05567l.03906.09472a.49448.49448,0,0,0,.166.22461.50031.50031,0,0,0,.31054.083.40165.40165,0,0,0,.27149-.06934.33292.33292,0,0,0,.07617-.25293V88.431a.0788.0788,0,0,1,.02344-.05761.08137.08137,0,0,1,.05664-.02246h.28711a.07038.07038,0,0,1,.05273.02441.08645.08645,0,0,1,.02149.05566v.92579a.74454.74454,0,0,1-.19336.57519.83423.83423,0,0,1-.58008.17481.90034.90034,0,0,1-.63867-.23047,1.21517,1.21517,0,0,1-.34766-.57813l-.03711-.126A.05522.05522,0,0,1,22.25832,89.11656Z"/><path class="d" d="M24.01222,91.36949a.0751.0751,0,0,1-.05664.02344h-.26367a.07679.07679,0,0,1-.07812-.08008v-.1416a.47314.47314,0,0,0-.15625-.05664,1.08494,1.08494,0,0,0-.21875-.01953h-.89454a.05933.05933,0,0,1-.04882-.02832.11053.11053,0,0,1-.01954-.0586v-.35937a.06409.06409,0,0,1,.01954-.04981.065.065,0,0,1,.04882-.01757h.92969a.65478.65478,0,0,1,.33985.06152v-.23145a.07839.07839,0,0,1,.07812-.07617h.26367a.07435.07435,0,0,1,.05664.02246.07964.07964,0,0,1,.02149.05371v.90137A.08151.08151,0,0,1,24.01222,91.36949Z"/><path class="d" d="M22.29738,91.70738a.07805.07805,0,0,1,.05664-.02246h1.60156a.07805.07805,0,0,1,.05664.02246.08578.08578,0,0,1,.02149.05762v.72558a.962.962,0,0,1-.18164.64454.74283.74283,0,0,1-.5918.208H22.354a.08021.08021,0,0,1-.05469-.02148.073.073,0,0,1-.02344-.05566v-.36329a.08328.08328,0,0,1,.02149-.05664.07513.07513,0,0,1,.05664-.02343h.91016a.30739.30739,0,0,0,.34961-.34766v-.27051H22.354a.07591.07591,0,0,1-.05469-.02148.0716.0716,0,0,1-.02344-.05567V91.765A.08578.08578,0,0,1,22.29738,91.70738Z"/><path class="d" d="M24.01222,95.68785a.08148.08148,0,0,1-.05664.02148h-.26367a.08021.08021,0,0,1-.05469-.02148.073.073,0,0,1-.02343-.05566v-.14161a.47358.47358,0,0,0-.15625-.05664,1.08189,1.08189,0,0,0-.21875-.0205h-.89454a.05933.05933,0,0,1-.04882-.02832.11987.11987,0,0,1-.01954-.06055v-.35938a.06407.06407,0,0,1,.01954-.0498.06544.06544,0,0,1,.04882-.01856h.92969a.65476.65476,0,0,1,.33985.06153v-.70117a.08015.08015,0,0,1,.07812-.07715h.26367a.0751.0751,0,0,1,.05664.02344.07961.07961,0,0,1,.02149.05371v1.375A.07909.07909,0,0,1,24.01222,95.68785Z"/><path class="d" d="M24.01222,97.55992a.07731.07731,0,0,1-.05664.02149h-.91015a.66793.66793,0,0,1-.50586-.21192,1.12627,1.12627,0,0,1-.26953-.59668l-.166-.78808a.0727.0727,0,0,1,.01562-.05957.06752.06752,0,0,1,.05469-.02637h.26758a.07929.07929,0,0,1,.05469.02051.0841.0841,0,0,1,.02929.05078l.082.34082,1.30273-.36231a.32129.32129,0,0,1,.06055-.01562.05778.05778,0,0,1,.043.01855.06094.06094,0,0,1,.01953.043v.39942a.07517.07517,0,0,1-.01563.04687.06271.06271,0,0,1-.03125.02441l-1.25781.30762a.41751.41751,0,0,0,.17383.22754.60515.60515,0,0,0,.29687.06152h.75586a.07731.07731,0,0,1,.05664.02149.07909.07909,0,0,1,.02149.05566v.36524A.07743.07743,0,0,1,24.01222,97.55992Z"/><path class="d" d="M22.29738,98.59508a.07805.07805,0,0,1,.05664-.02246h1.60156a.07805.07805,0,0,1,.05664.02246.08574.08574,0,0,1,.02149.05761v.69825a.93918.93918,0,0,1-.17774.623.72624.72624,0,0,1-.57617.2041H22.356a.07825.07825,0,0,1-.05664-.02343.07515.07515,0,0,1-.02344-.05664V98.65269A.08574.08574,0,0,1,22.29738,98.59508Zm.39648,1.08789h.57032a.30777.30777,0,0,0,.34961-.34766v-.29492h-.91993Z"/><path class="d" d="M23.02785,100.53648a.06816.06816,0,0,1,.05469-.02343h.873a.07513.07513,0,0,1,.05664.02343.08328.08328,0,0,1,.02149.05664v.38477a.07907.07907,0,0,1-.02149.05566.08145.08145,0,0,1-.05664.02149h-.873a.08014.08014,0,0,1-.05469-.02149.07144.07144,0,0,1-.02149-.05566v-.38477A.075.075,0,0,1,23.02785,100.53648Z"/><path class="d" d="M23.02785,101.41637a.06813.06813,0,0,1,.05469-.02344h.873a.0751.0751,0,0,1,.05664.02344.08327.08327,0,0,1,.02149.05664v.38476a.07911.07911,0,0,1-.02149.05567.08148.08148,0,0,1-.05664.02148h-.873a.08018.08018,0,0,1-.05469-.02148.07148.07148,0,0,1-.02149-.05567V101.473A.075.075,0,0,1,23.02785,101.41637Z"/><path class="d" d="M22.29933,103.34215a.07668.07668,0,0,1-.02344-.05664v-.98828a.08329.08329,0,0,1,.02149-.05665.07435.07435,0,0,1,.05664-.02246h.26367a.06747.06747,0,0,1,.05469.02246.075.075,0,0,1,.02148.05665v.51074l.60743-.02735a.52769.52769,0,0,0,.25781-.06152.21248.21248,0,0,0,.08008-.19043v-.15723a.08027.08027,0,0,1,.07617-.07714h.25976a.08508.08508,0,0,1,.05664.02148.073.073,0,0,1,.02344.05566v.166a.80676.80676,0,0,1-.18164.58594.84129.84129,0,0,1-.582.19824l-.9375.04A.06419.06419,0,0,1,22.29933,103.34215Z"/><path class="d" d="M22.29738,103.6732a.07805.07805,0,0,1,.05664-.02246h1.60156a.07805.07805,0,0,1,.05664.02246.08578.08578,0,0,1,.02149.05762v.38379a.07375.07375,0,0,1-.07813.07715H22.354a.07592.07592,0,0,1-.05469-.02149.07158.07158,0,0,1-.02344-.05566v-.38379A.08578.08578,0,0,1,22.29738,103.6732Z"/><path class="d" d="M22.29933,105.61168a.07668.07668,0,0,1-.02344-.05664v-.98828a.08327.08327,0,0,1,.02149-.05664.07432.07432,0,0,1,.05664-.02246h.26367a.06744.06744,0,0,1,.05469.02246.075.075,0,0,1,.02148.05664v.51074l.60743-.02734a.52768.52768,0,0,0,.25781-.06153.21247.21247,0,0,0,.08008-.19043V104.641a.08027.08027,0,0,1,.07617-.07715h.25976a.08508.08508,0,0,1,.05664.02148.073.073,0,0,1,.02344.05567v.166a.80675.80675,0,0,1-.18164.58594.84124.84124,0,0,1-.582.19824l-.9375.04A.06419.06419,0,0,1,22.29933,105.61168Z"/><path class="d" d="M23.02785,105.932a.06816.06816,0,0,1,.05469-.02344h.873a.07514.07514,0,0,1,.05664.02344.08328.08328,0,0,1,.02149.05664v.38477a.07909.07909,0,0,1-.02149.05566.08149.08149,0,0,1-.05664.02149h-.873a.08019.08019,0,0,1-.05469-.02149.07145.07145,0,0,1-.02149-.05566v-.38477A.075.075,0,0,1,23.02785,105.932Z"/><path class="d" d="M22.29933,106.766a.07391.07391,0,0,1,.05469-.02344h.26367a.06813.06813,0,0,1,.05469.02344.07.07,0,0,1,.02148.05371v.77148h.57032a.30754.30754,0,0,0,.34765-.34766V106.85a.0695.0695,0,0,1,.02344-.05469.075.075,0,0,1,.05664-.02246h.26367a.0751.0751,0,0,1,.05664.02344.07961.07961,0,0,1,.02149.05371v.40918a1.001,1.001,0,0,1-.18164.65039.723.723,0,0,1-.58789.2207h-.57032v.10743a.07148.07148,0,0,1-.02148.05566.0735.0735,0,0,1-.05469.02148H22.354a.08021.08021,0,0,1-.05469-.02148.073.073,0,0,1-.02344-.05566v-1.418A.07181.07181,0,0,1,22.29933,106.766Z"/><path class="d" d="M22.29738,109.22594a.07805.07805,0,0,1,.05664-.02246h1.60156a.07805.07805,0,0,1,.05664.02246.08574.08574,0,0,1,.02149.05761v.69825a.93918.93918,0,0,1-.17774.623.72628.72628,0,0,1-.57617.2041H22.356a.07825.07825,0,0,1-.05664-.02343.07515.07515,0,0,1-.02344-.05664v-1.44532A.08574.08574,0,0,1,22.29738,109.22594Zm.39648,1.08789h.57032a.30777.30777,0,0,0,.34961-.34766v-.29492h-.91993Z"/><path class="d" d="M23.02785,111.16734a.06816.06816,0,0,1,.05469-.02343h.873a.07513.07513,0,0,1,.05664.02343.08328.08328,0,0,1,.02149.05664v.38477a.07909.07909,0,0,1-.02149.05566.08149.08149,0,0,1-.05664.02149h-.873a.08019.08019,0,0,1-.05469-.02149.07145.07145,0,0,1-.02149-.05566V111.224A.075.075,0,0,1,23.02785,111.16734Z"/><path class="d" d="M22.29933,112.00133a.07391.07391,0,0,1,.05469-.02344h.26367a.06813.06813,0,0,1,.05469.02344.07.07,0,0,1,.02148.05371v.77148h.57032a.30754.30754,0,0,0,.34765-.34765v-.39356a.06951.06951,0,0,1,.02344-.05469.075.075,0,0,1,.05664-.02246h.26367a.07514.07514,0,0,1,.05664.02344.07962.07962,0,0,1,.02149.05371v.40918a1.001,1.001,0,0,1-.18164.65039.723.723,0,0,1-.58789.2207h-.57032v.10743a.07148.07148,0,0,1-.02148.05566.07351.07351,0,0,1-.05469.02149H22.354a.08022.08022,0,0,1-.05469-.02149.073.073,0,0,1-.02344-.05566v-1.418A.07183.07183,0,0,1,22.29933,112.00133Z"/><path class="d" d="M22.34035,115.45348a.065.065,0,0,1-.06446-.06446v-.3789a.10319.10319,0,0,1,.0293-.083l.0332-.02735.77735-.53808a.33679.33679,0,0,0-.168-.10449.81475.81475,0,0,0-.20313-.02539h-.38476a.08029.08029,0,0,1-.06055-.02247.07729.07729,0,0,1-.02344-.05761v-.30078a.06735.06735,0,0,1,.0254-.05371.07946.07946,0,0,1,.05859-.02344h.38086a1.07735,1.07735,0,0,1,.42383.07031.77977.77977,0,0,1,.30859.26856l.45117-.31446a.07262.07262,0,0,1,.043-.01562.06038.06038,0,0,1,.04492.0205.06325.06325,0,0,1,.02149.04493v.3623a.10754.10754,0,0,1-.01953.06641.24483.24483,0,0,1-.04883.04492l-.70117.49512a.27259.27259,0,0,0,.13476.10937.61533.61533,0,0,0,.17578.02246h.375a.088.088,0,0,1,.06055.02149.073.073,0,0,1,.02344.05566v.32324a.07851.07851,0,0,1-.02539.05664.0795.0795,0,0,1-.0586.02344H23.563a.80256.80256,0,0,1-.35937-.0791.73062.73062,0,0,1-.291-.28418l-.52929.375A.068.068,0,0,1,22.34035,115.45348Z"/><path class="d" d="M22.29738,115.7816a.07514.07514,0,0,1,.05664-.02344h.2832a.07823.07823,0,0,1,.05664.02344.0736.0736,0,0,1,.02149.05664v.44629a.32843.32843,0,0,0,.34765.36914q.03809.00292.09375.00293.05274,0,.08789-.00293a.32751.32751,0,0,0,.34766-.36914v-.44629a.07512.07512,0,0,1,.02344-.05664.07823.07823,0,0,1,.05664-.02344h.2832a.07514.07514,0,0,1,.05664.02344.08151.08151,0,0,1,.02149.05664v.46094a.748.748,0,0,1-.791.85254c-.02344.002-.05078.00293-.08594.00293a.96189.96189,0,0,1-.65039-.20117.833.833,0,0,1-.23047-.6543v-.46094A.08151.08151,0,0,1,22.29738,115.7816Z"/><path class="d" d="M23.61379,118.52379v-.48926a.07182.07182,0,0,1,.02343-.05371.07391.07391,0,0,1,.05469-.02344h.26367a.0751.0751,0,0,1,.05664.02344.07781.07781,0,0,1,.02149.05371v.50684a.99352.99352,0,0,1-.17383.64062.71693.71693,0,0,1-.57813.209H21.97121a.07672.07672,0,0,1-.05469-.02149.07908.07908,0,0,1-.02148-.05566v-.36328a.08324.08324,0,0,1,.02148-.05664.0709.0709,0,0,1,.05469-.02344h1.293A.30709.30709,0,0,0,23.61379,118.52379Z"/><path class="d" d="M22.29738,119.76109a.07805.07805,0,0,1,.05664-.02246h1.60156a.07805.07805,0,0,1,.05664.02246.08578.08578,0,0,1,.02149.05762v.38379a.07375.07375,0,0,1-.07813.07715H22.354a.07592.07592,0,0,1-.05469-.02149.07158.07158,0,0,1-.02344-.05566v-.38379A.08578.08578,0,0,1,22.29738,119.76109Z"/><path class="d" d="M22.29738,120.64781a.07514.07514,0,0,1,.05664-.02344h.2832a.07823.07823,0,0,1,.05664.02344.0736.0736,0,0,1,.02149.05664v.44629a.32843.32843,0,0,0,.34765.36914q.03809.00292.09375.00293.05274,0,.08789-.00293a.32751.32751,0,0,0,.34766-.36914v-.44629a.07512.07512,0,0,1,.02344-.05664.07823.07823,0,0,1,.05664-.02344h.2832a.07514.07514,0,0,1,.05664.02344.08151.08151,0,0,1,.02149.05664v.46094a.748.748,0,0,1-.791.85254c-.02344.00195-.05078.00293-.08594.00293a.96184.96184,0,0,1-.65039-.20117.833.833,0,0,1-.23047-.6543v-.46094A.08151.08151,0,0,1,22.29738,120.64781Z"/><path class="d" d="M23.02785,122.33336a.06813.06813,0,0,1,.05469-.02344h.873a.0751.0751,0,0,1,.05664.02344.08327.08327,0,0,1,.02149.05664v.38476a.0791.0791,0,0,1-.02149.05567.08148.08148,0,0,1-.05664.02148h-.873a.08018.08018,0,0,1-.05469-.02148.07146.07146,0,0,1-.02149-.05567V122.39A.075.075,0,0,1,23.02785,122.33336Z"/><path class="d" d="M24.01222,125.183a.0773.0773,0,0,1-.05664.02148h-.80469a.90668.90668,0,0,1-.47656-.123.83113.83113,0,0,1-.31445-.335.97143.97143,0,0,1-.10742-.4707v-.29492a.939.939,0,0,1,.09375-.43066.68353.68353,0,0,1,.61914-.37891h.99023a.0751.0751,0,0,1,.05664.02344.08327.08327,0,0,1,.02149.05664v.32324a.07909.07909,0,0,1-.02149.05566.08145.08145,0,0,1-.05664.02149l-.73828.00293a.2797.2797,0,0,0,.12891.2334.62481.62481,0,0,0,.32031.06836h.2832a.08028.08028,0,0,1,.06055.02246.07666.07666,0,0,1,.02344.05664v.32031a.07556.07556,0,0,1-.02539.05371.0795.0795,0,0,1-.0586.02344h-.28906a.80427.80427,0,0,1-.55469-.18164.76878.76878,0,0,1-.23633-.51367.40966.40966,0,0,0-.15039.15527.43932.43932,0,0,0-.05273.21387v.07031a.61363.61363,0,0,0,.06445.2832.49466.49466,0,0,0,.17969.19727.47332.47332,0,0,0,.25391.07031h.791a.08148.08148,0,0,1,.05664.02148.07911.07911,0,0,1,.02149.05567v.32324A.07509.07509,0,0,1,24.01222,125.183Z"/><path class="d" d="M23.84035,126.69664a.83431.83431,0,0,1-.58008.17578.901.901,0,0,1-.63867-.23144,1.21057,1.21057,0,0,1-.34766-.57813l-.03711-.126a.05741.05741,0,0,1,.02149-.05664.08545.08545,0,0,1,.06054-.02636h.31055a.08877.08877,0,0,1,.05859.02148.172.172,0,0,1,.041.05566l.03906.09864a.49385.49385,0,0,0,.166.22265.507.507,0,0,0,.31054.08106.414.414,0,0,0,.27149-.06738.32893.32893,0,0,0,.07617-.252v-.08008l.00391-.41211a.07908.07908,0,0,1,.02148-.05566.07282.07282,0,0,1,.05469-.02148h.71094a.06815.06815,0,0,1,.05468.02343.07.07,0,0,1,.02149.05371v.332a.07145.07145,0,0,1-.02149.05566.07349.07349,0,0,1-.05468.02148h-.34961v.19043A.74455.74455,0,0,1,23.84035,126.69664Z"/><path class="d" d="M17.68605,88.9525a.06973.06973,0,0,1,.05274-.02344h.26562a.07092.07092,0,0,1,.05469.02344.0778.0778,0,0,1,.02148.05371v.77148h.56836A.30677.30677,0,0,0,18.9966,89.43v-.39356A.06948.06948,0,0,1,19.02,88.9818a.08138.08138,0,0,1,.05664-.02247h.26562a.07094.07094,0,0,1,.05469.02344.07963.07963,0,0,1,.02148.05371v.40918a1.00091,1.00091,0,0,1-.18164.65039.72032.72032,0,0,1-.58789.22071h-.56836v.10742a.07908.07908,0,0,1-.02148.05566.07674.07674,0,0,1-.05469.02149h-.26562a.07547.07547,0,0,1-.05274-.02149.073.073,0,0,1-.02344-.05566v-1.418A.07183.07183,0,0,1,17.68605,88.9525Z"/><path class="d" d="M18.41261,90.74547a.07093.07093,0,0,1,.05469-.02344h.875a.0709.0709,0,0,1,.05469.02344.08326.08326,0,0,1,.02148.05664v.38476a.07911.07911,0,0,1-.02148.05567.07672.07672,0,0,1-.05469.02148h-.875a.07907.07907,0,0,1-.05273-.02148.073.073,0,0,1-.02344-.05567v-.38476A.08326.08326,0,0,1,18.41261,90.74547Z"/><path class="d" d="M17.68605,92.82652a.08271.08271,0,0,1-.02344-.05859v-.38477a.06457.06457,0,0,1,.02149-.05175.08361.08361,0,0,1,.05469-.02442l.22851-.04687a.64414.64414,0,0,1-.15234-.17774,2.05957,2.05957,0,0,1-.11524-.22363,1.23756,1.23756,0,0,1-.0625-.207l-.002-.02149c0-.03515.01562-.05273.04883-.05273h.332q.05274,0,.07617.06445c.00586.01465.02149.06153.04492.14063a1.13737,1.13737,0,0,0,.07227.1914.59921.59921,0,0,0,.166.20313l.28711-.0586a.65.65,0,0,0,.25977-.09472.22162.22162,0,0,0,.07812-.19141V91.725a.0803.0803,0,0,1,.07618-.07715h.2832a.07807.07807,0,0,1,.05664.02246A.06953.06953,0,0,1,19.44,91.725v.11719a.94762.94762,0,0,1-.07813.41992.58211.58211,0,0,1-.24219.251,1.4936,1.4936,0,0,1-.44335.14746l-.9375.18457A.05293.05293,0,0,1,17.68605,92.82652Z"/><path class="d" d="M19.231,94.65953a.73981.73981,0,0,1-.5625.19727h-.92968a.07146.07146,0,0,1-.05274-.02149.073.073,0,0,1-.02344-.05566V93.9398a.0734.0734,0,0,1,.02344-.05371.06882.06882,0,0,1,.05274-.02246h.26562a.07015.07015,0,0,1,.05469.02246.07963.07963,0,0,1,.02148.05371v.39746h.5625a.37516.37516,0,0,0,.25-.07714.25438.25438,0,0,0,.08789-.2002v-.24023l-1.23828-.26075a.08919.08919,0,0,1-.05664-.02441.073.073,0,0,1-.02344-.05566v-.35352a.07733.07733,0,0,1,.02344-.05762.06022.06022,0,0,1,.05664-.0166l1.23633.30176v-.20313a.073.073,0,0,1,.02344-.05566.0773.0773,0,0,1,.05664-.02148h.2832a.07093.07093,0,0,1,.05469.02343.07782.07782,0,0,1,.02148.05371v.98731A.72594.72594,0,0,1,19.231,94.65953Z"/><path class="d" d="M17.6841,95.86949a.07359.07359,0,0,1,.05469-.02246H19.3423a.07359.07359,0,0,1,.05469.02246.08577.08577,0,0,1,.02148.05762v.38379a.07742.07742,0,0,1-.02148.05566.07283.07283,0,0,1-.05469.02149H17.73879a.07668.07668,0,0,1-.07618-.07715v-.38379A.0772.0772,0,0,1,17.6841,95.86949Z"/><path class="d" d="M17.68605,97.808a.07668.07668,0,0,1-.02344-.05664v-.98828a.075.075,0,0,1,.02149-.05664.07011.07011,0,0,1,.05469-.02247h.26562a.07012.07012,0,0,1,.05469.02247.08324.08324,0,0,1,.02148.05664v.51074l.60547-.02735a.5428.5428,0,0,0,.25977-.06152.21166.21166,0,0,0,.07812-.19043v-.15723a.08015.08015,0,0,1,.07813-.07714h.25781a.0815.0815,0,0,1,.05664.02148.073.073,0,0,1,.02344.05566v.166a.80676.80676,0,0,1-.18164.58594.83768.83768,0,0,1-.582.19824l-.9375.04A.06041.06041,0,0,1,17.68605,97.808Z"/><path class="d" d="M18.41261,98.12828a.071.071,0,0,1,.05469-.02344h.875a.07094.07094,0,0,1,.05469.02344.08328.08328,0,0,1,.02148.05664v.38477a.07908.07908,0,0,1-.02148.05566.07672.07672,0,0,1-.05469.02148h-.875a.07907.07907,0,0,1-.05273-.02148.073.073,0,0,1-.02344-.05566v-.38477A.08328.08328,0,0,1,18.41261,98.12828Z"/><path class="d" d="M17.72707,100.64a.062.062,0,0,1-.04493-.01856.05853.05853,0,0,1-.01953-.04589v-.37891a.1032.1032,0,0,1,.0293-.083l.03125-.02734.7793-.53809a.33389.33389,0,0,0-.16992-.10449.79263.79263,0,0,0-.20313-.02539h-.38477a.07587.07587,0,0,1-.05859-.02246.07733.07733,0,0,1-.02344-.05762v-.30078a.07183.07183,0,0,1,.02344-.05371.08611.08611,0,0,1,.05859-.02344h.38282a1.084,1.084,0,0,1,.42383.07031.7758.7758,0,0,1,.30664.26856l.45312-.31445a.06823.06823,0,0,1,.043-.01563.06365.06365,0,0,1,.04492.02051.06083.06083,0,0,1,.01953.04492v.3623a.1076.1076,0,0,1-.01758.06641.25927.25927,0,0,1-.05078.04492l-.70117.49512a.2685.2685,0,0,0,.13672.10938.611.611,0,0,0,.17383.02246h.377a.08648.08648,0,0,1,.0586.02148.073.073,0,0,1,.02343.05566v.32325a.0717.0717,0,0,1-.02539.05664.07822.07822,0,0,1-.05664.02343h-.38867a.8.8,0,0,1-.35742-.0791.7185.7185,0,0,1-.291-.28418l-.52929.375A.072.072,0,0,1,17.72707,100.64Z"/><path class="d" d="M19.397,102.94273a.07283.07283,0,0,1-.05469.02149h-.80664a.90452.90452,0,0,1-.47461-.123.83586.83586,0,0,1-.31641-.335.97166.97166,0,0,1-.10742-.4707v-.29493a.915.915,0,0,1,.09571-.43066.678.678,0,0,1,.61914-.37891h.99023a.07094.07094,0,0,1,.05469.02344.08328.08328,0,0,1,.02148.05664v.32324a.07909.07909,0,0,1-.02148.05567.07672.07672,0,0,1-.05469.02148l-.73828.00293a.28289.28289,0,0,0,.127.2334.62785.62785,0,0,0,.32227.06836h.2832a.07876.07876,0,0,1,.0586.02246.07667.07667,0,0,1,.02343.05664v.32031a.06873.06873,0,0,1-.02539.05372.07822.07822,0,0,1-.05664.02343h-.291a.799.799,0,0,1-.55274-.18164.76009.76009,0,0,1-.23633-.51367.38294.38294,0,0,0-.15039.15527.43937.43937,0,0,0-.05273.21387v.07031a.61368.61368,0,0,0,.06445.28321.4901.4901,0,0,0,.17774.19726.48.48,0,0,0,.25586.07032h.791a.07672.07672,0,0,1,.05469.02148.07908.07908,0,0,1,.02148.05566v.32325A.07506.07506,0,0,1,19.397,102.94273Z"/><path class="d" d="M17.6841,105.07848a.07283.07283,0,0,1,.05469-.02149h.91015a.30915.30915,0,0,0,.35156-.34766v-.70117a.08574.08574,0,0,1,.02149-.05761.0736.0736,0,0,1,.05469-.02247h.26562a.0736.0736,0,0,1,.05469.02247.08573.08573,0,0,1,.02148.05761v.7168a.94353.94353,0,0,1-.1875.6377.738.738,0,0,1-.584.21386h-.9082a.07359.07359,0,0,1-.05469-.02246.07717.07717,0,0,1-.02149-.05762v-.3623A.07011.07011,0,0,1,17.6841,105.07848Zm0-1.12793a.0736.0736,0,0,1,.05469-.02247h.89843a.07062.07062,0,0,1,.05469.02247.07716.07716,0,0,1,.02148.05761v.36231a.07359.07359,0,0,1-.07617.07715h-.89843a.07668.07668,0,0,1-.07618-.07715v-.36231A.07717.07717,0,0,1,17.6841,103.95055Z"/><path class="d" d="M17.6841,105.94371a.07359.07359,0,0,1,.05469-.02246H19.3423a.07359.07359,0,0,1,.05469.02246.08576.08576,0,0,1,.02148.05762v.38379a.07742.07742,0,0,1-.02148.05566.07282.07282,0,0,1-.05469.02148H17.73879a.07666.07666,0,0,1-.07618-.07714v-.38379A.07719.07719,0,0,1,17.6841,105.94371Z"/><path class="d" d="M17.68605,106.79039a.06973.06973,0,0,1,.05274-.02344h.26562a.07092.07092,0,0,1,.05469.02344.0778.0778,0,0,1,.02148.05371v.77148h.56836a.30677.30677,0,0,0,.34766-.34765v-.39356a.06948.06948,0,0,1,.02344-.05468.08137.08137,0,0,1,.05664-.02246h.26562a.07093.07093,0,0,1,.05469.02343.07963.07963,0,0,1,.02148.05371v.40918a1.00091,1.00091,0,0,1-.18164.65039.72032.72032,0,0,1-.58789.22071h-.56836v.10742a.07908.07908,0,0,1-.02148.05566.0767.0767,0,0,1-.05469.02149h-.26562a.07543.07543,0,0,1-.05274-.02149.073.073,0,0,1-.02344-.05566v-1.418A.07183.07183,0,0,1,17.68605,106.79039Z"/><path class="d" d="M17.68605,109.81187a.08271.08271,0,0,1-.02344-.05859v-.38477a.06457.06457,0,0,1,.02149-.05175.08365.08365,0,0,1,.05469-.02442l.22851-.04687a.64385.64385,0,0,1-.15234-.17774,2.05957,2.05957,0,0,1-.11524-.22363,1.23756,1.23756,0,0,1-.0625-.207l-.002-.02149c0-.03515.01562-.05273.04883-.05273h.332q.05274,0,.07617.06445c.00586.01465.02149.06153.04492.14063a1.13737,1.13737,0,0,0,.07227.1914.59921.59921,0,0,0,.166.20313l.28711-.05859a.65011.65011,0,0,0,.25977-.09473.22162.22162,0,0,0,.07812-.19141v-.10742a.0803.0803,0,0,1,.07618-.07715h.2832a.07811.07811,0,0,1,.05664.02246.06955.06955,0,0,1,.02344.05469v.11719a.94762.94762,0,0,1-.07813.41992.58211.58211,0,0,1-.24219.251,1.4936,1.4936,0,0,1-.44335.14746l-.9375.18457A.05291.05291,0,0,1,17.68605,109.81187Z"/><path class="d" d="M17.6841,110.69957a.07359.07359,0,0,1,.05469-.02246H19.3423a.07359.07359,0,0,1,.05469.02246.08576.08576,0,0,1,.02148.05762v.69824a.92858.92858,0,0,1-.17773.623.72357.72357,0,0,1-.57617.2041h-.92188a.07226.07226,0,0,1-.05664-.02344.07515.07515,0,0,1-.02344-.05664v-1.44531A.07719.07719,0,0,1,17.6841,110.69957Zm.39648,1.08789h.56836a.30915.30915,0,0,0,.35156-.34766v-.29492h-.91992Z"/><path class="d" d="M17.6841,112.65269a.07363.07363,0,0,1,.05469-.02246H19.3423a.07363.07363,0,0,1,.05469.02246.08577.08577,0,0,1,.02148.05762v.38379a.07739.07739,0,0,1-.02148.05566.07283.07283,0,0,1-.05469.02149H17.73879a.07668.07668,0,0,1-.07618-.07715v-.38379A.0772.0772,0,0,1,17.6841,112.65269Z"/><path class="d" d="M17.6841,113.557a.07359.07359,0,0,1,.05469-.02246H19.3423a.07359.07359,0,0,1,.05469.02246.08577.08577,0,0,1,.02148.05762v.72558a.973.973,0,0,1-.17968.64454.74833.74833,0,0,1-.5918.208h-.9082a.07546.07546,0,0,1-.05274-.02148.073.073,0,0,1-.02344-.05567v-.36328a.075.075,0,0,1,.02149-.05664.07093.07093,0,0,1,.05469-.02343h.91015a.30877.30877,0,0,0,.35156-.34766v-.27051H17.73879a.07666.07666,0,0,1-.07618-.07715v-.3623A.0772.0772,0,0,1,17.6841,113.557Z"/><path class="d" d="M19.23488,117.82066a.70968.70968,0,0,1-.57031.21387h-.92578a.07149.07149,0,0,1-.05274-.02148.073.073,0,0,1-.02344-.05567v-.36328a.075.075,0,0,1,.02149-.05664.0701.0701,0,0,1,.05469-.02246h.91015a.30915.30915,0,0,0,.35156-.34766v-.20019a1.86668,1.86668,0,0,0-.45312-.0459l-.80859.02441a.07093.07093,0,0,1-.05469-.02343.075.075,0,0,1-.02149-.05665l.002-.65234a.08328.08328,0,0,1,.02148-.05664.07515.07515,0,0,1,.05664-.02344h.24219a.06818.06818,0,0,1,.05469.02344.075.075,0,0,1,.02148.05664v.249h.48438a1.65514,1.65514,0,0,1,.45507.04688v-.18164a.08578.08578,0,0,1,.02149-.05762.07359.07359,0,0,1,.05469-.02246h.26562a.07359.07359,0,0,1,.05469.02246.08577.08577,0,0,1,.02148.05762v.8584A.94873.94873,0,0,1,19.23488,117.82066Z"/><path class="d" d="M19.397,119.75426a.07672.07672,0,0,1-.05469.02148h-.26562a.0791.0791,0,0,1-.05274-.02148.073.073,0,0,1-.02344-.05567v-.1416a.49046.49046,0,0,0-.15625-.05664,1.08172,1.08172,0,0,0-.21875-.02051H17.729a.05885.05885,0,0,1-.04688-.02832.10371.10371,0,0,1-.01953-.06054v-.35938a.07049.07049,0,0,1,.01758-.0498.0687.0687,0,0,1,.04883-.01856h.92969a.66825.66825,0,0,1,.34179.06152v-.70117a.0803.0803,0,0,1,.07618-.07715h.26562a.07094.07094,0,0,1,.05469.02344.07961.07961,0,0,1,.02148.05371v1.375A.07911.07911,0,0,1,19.397,119.75426Z"/><path class="d" d="M17.6841,120.91246a.0709.0709,0,0,1,.05469-.02344h.91015a.30847.30847,0,0,0,.35156-.34668v-.46777a.07183.07183,0,0,1,.02344-.05371.07285.07285,0,0,1,.05274-.02344h.26562a.0709.0709,0,0,1,.05469.02344.0778.0778,0,0,1,.02148.05371v.48535a.98114.98114,0,0,1-.17578.63867.70766.70766,0,0,1-.57422.21094h-.92968a.07546.07546,0,0,1-.05274-.02148.073.073,0,0,1-.02344-.05567v-.36328A.075.075,0,0,1,17.6841,120.91246Z"/><path class="d" d="M17.6841,121.77867a.07359.07359,0,0,1,.05469-.02246H19.3423a.07359.07359,0,0,1,.05469.02246.08577.08577,0,0,1,.02148.05762v.38379a.07742.07742,0,0,1-.02148.05566.07283.07283,0,0,1-.05469.02149H17.73879a.07668.07668,0,0,1-.07618-.07715v-.38379A.0772.0772,0,0,1,17.6841,121.77867Z"/><path class="d" d="M17.6841,123.8109a.07283.07283,0,0,1,.05469-.02149h.91015a.30915.30915,0,0,0,.35156-.34765v-.70118a.08574.08574,0,0,1,.02149-.05761.07359.07359,0,0,1,.05469-.02246h.26562a.07359.07359,0,0,1,.05469.02246.08573.08573,0,0,1,.02148.05761v.7168a.94353.94353,0,0,1-.1875.6377.73791.73791,0,0,1-.584.21386h-.9082a.07359.07359,0,0,1-.05469-.02246.07717.07717,0,0,1-.02149-.05761v-.36231A.07013.07013,0,0,1,17.6841,123.8109Zm0-1.12793a.07359.07359,0,0,1,.05469-.02246h.89843a.07061.07061,0,0,1,.05469.02246.07716.07716,0,0,1,.02148.05761v.36231a.07359.07359,0,0,1-.07617.07715h-.89843a.07668.07668,0,0,1-.07618-.07715v-.36231A.07717.07717,0,0,1,17.6841,122.683Z"/><path class="d" d="M19.22707,125.79234a.83765.83765,0,0,1-.58008.17578.90256.90256,0,0,1-.64063-.23144,1.226,1.226,0,0,1-.34765-.57813l-.03711-.126a.06165.06165,0,0,1,.02148-.05664.08979.08979,0,0,1,.0625-.02637h.31055a.08762.08762,0,0,1,.05664.02148.148.148,0,0,1,.041.05567l.041.09863a.50467.50467,0,0,0,.16406.22266.5135.5135,0,0,0,.3125.08105.41129.41129,0,0,0,.26953-.06738.32119.32119,0,0,0,.07813-.252v-.08008l.002-.41211a.07911.07911,0,0,1,.02149-.05567.07734.07734,0,0,1,.05664-.02148H19.77a.0709.0709,0,0,1,.05468.02344.07781.07781,0,0,1,.02149.05371v.332a.07909.07909,0,0,1-.02149.05566.07667.07667,0,0,1-.05468.02149h-.35157v.19043A.75155.75155,0,0,1,19.22707,125.79234Z"/><path class="d" d="M17.6841,126.28844a.07359.07359,0,0,1,.05469-.02246H19.3423a.07359.07359,0,0,1,.05469.02246.08573.08573,0,0,1,.02148.05761v.38379a.07743.07743,0,0,1-.02148.05567.07282.07282,0,0,1-.05469.02148H17.73879a.07666.07666,0,0,1-.07618-.07715v-.38379A.07717.07717,0,0,1,17.6841,126.28844Z"/><path class="d" d="M13.06886,99.86851a.07813.07813,0,0,1,.05664-.02246h1.60157a.07813.07813,0,0,1,.05664.02246.08577.08577,0,0,1,.02148.05762v.69824a.93927.93927,0,0,1-.17773.62305.72631.72631,0,0,1-.57617.2041h-.92383a.07819.07819,0,0,1-.05664-.02344.07509.07509,0,0,1-.02344-.05664V99.92613A.08577.08577,0,0,1,13.06886,99.86851Zm.39649,1.0879h.57031a.30777.30777,0,0,0,.34961-.34766v-.29492h-.91992Z"/><path class="d" d="M13.79933,101.80992a.06816.06816,0,0,1,.05469-.02344h.873a.07517.07517,0,0,1,.05664.02344.08328.08328,0,0,1,.02148.05664v.38477a.07908.07908,0,0,1-.02148.05566.08153.08153,0,0,1-.05664.02149h-.873a.08022.08022,0,0,1-.05469-.02149.07148.07148,0,0,1-.02148-.05566v-.38477A.075.075,0,0,1,13.79933,101.80992Z"/><path class="d" d="M13.06886,103.53551a.07513.07513,0,0,1,.05664-.02344h.91016a.30708.30708,0,0,0,.34961-.34668v-.46777a.07178.07178,0,0,1,.02344-.05371.07387.07387,0,0,1,.05468-.02344h.26368a.07513.07513,0,0,1,.05664.02344.07778.07778,0,0,1,.02148.05371v.48535a.98118.98118,0,0,1-.17578.63867.70944.70944,0,0,1-.57617.21094H13.1255a.08018.08018,0,0,1-.05468-.02149.073.073,0,0,1-.02344-.05566v-.36328A.08326.08326,0,0,1,13.06886,103.53551Z"/><path class="d" d="M13.06886,104.40269a.07813.07813,0,0,1,.05664-.02246h1.60157a.07813.07813,0,0,1,.05664.02246.08577.08577,0,0,1,.02148.05762v.72559a.962.962,0,0,1-.18164.64453.74283.74283,0,0,1-.5918.208H13.1255a.08018.08018,0,0,1-.05468-.02149.073.073,0,0,1-.02344-.05566V105.598a.08326.08326,0,0,1,.02148-.05664.07513.07513,0,0,1,.05664-.02344h.91016a.30738.30738,0,0,0,.34961-.34766v-.27051H13.1255a.07587.07587,0,0,1-.05468-.02148.07156.07156,0,0,1-.02344-.05566v-.36231A.08577.08577,0,0,1,13.06886,104.40269Z"/><path class="d" d="M13.11183,108.02867a.065.065,0,0,1-.06445-.06445v-.37891a.10318.10318,0,0,1,.0293-.083l.0332-.02734.77734-.53809a.33686.33686,0,0,0-.168-.10449.8152.8152,0,0,0-.20312-.02539h-.38477a.08024.08024,0,0,1-.06054-.02246.07727.07727,0,0,1-.02344-.05762v-.30078a.06735.06735,0,0,1,.02539-.05371.07952.07952,0,0,1,.05859-.02344h.38086a1.07712,1.07712,0,0,1,.42383.07032.77967.77967,0,0,1,.30859.26855l.45118-.31445a.07255.07255,0,0,1,.043-.01563.06041.06041,0,0,1,.04492.02051.0632.0632,0,0,1,.02148.04492v.36231a.10744.10744,0,0,1-.01953.0664.24424.24424,0,0,1-.04883.04492l-.70117.49512a.27268.27268,0,0,0,.13477.10938.61528.61528,0,0,0,.17578.02246h.375a.088.088,0,0,1,.06054.02148.073.073,0,0,1,.02344.05567v.32324a.07849.07849,0,0,1-.02539.05664.07952.07952,0,0,1-.05859.02344h-.38672a.80263.80263,0,0,1-.35938-.0791.73067.73067,0,0,1-.291-.28418l-.5293.375A.0681.0681,0,0,1,13.11183,108.02867Z"/><path class="d" d="M14.61183,110.11363a.83429.83429,0,0,1-.58008.17578.901.901,0,0,1-.63867-.23144,1.21063,1.21063,0,0,1-.34765-.57813l-.03711-.126a.05737.05737,0,0,1,.02148-.05664.08544.08544,0,0,1,.06055-.02637h.31054a.0888.0888,0,0,1,.0586.02148.172.172,0,0,1,.041.05567l.03907.09863a.49391.49391,0,0,0,.166.22266.50711.50711,0,0,0,.31055.081.41392.41392,0,0,0,.27148-.06738.32891.32891,0,0,0,.07618-.252v-.08007l.0039-.41211a.07907.07907,0,0,1,.02149-.05567.07281.07281,0,0,1,.05468-.02148h.71094a.06813.06813,0,0,1,.05469.02344.07.07,0,0,1,.02148.05371v.332a.07148.07148,0,0,1-.02148.05566.07351.07351,0,0,1-.05469.02149h-.34961v.19043A.74451.74451,0,0,1,14.61183,110.11363Z"/><path class="d" d="M13.06886,110.60973a.07809.07809,0,0,1,.05664-.02247h1.60157a.07809.07809,0,0,1,.05664.02247.08573.08573,0,0,1,.02148.05761v.38379a.07372.07372,0,0,1-.07812.07715H13.1255a.07591.07591,0,0,1-.05468-.02148.07156.07156,0,0,1-.02344-.05567v-.38379A.08573.08573,0,0,1,13.06886,110.60973Z"/><path class="d" d="M14.25636,111.89391c-.084.00488-.13281.02929-.14648.07421l-.03125.08594a.07168.07168,0,0,1-.03516.03906.12741.12741,0,0,1-.05664.01368l-.1582.00293a.08228.08228,0,0,1-.07227-.042.1512.1512,0,0,1-.01953-.09961l.01758-.126a.396.396,0,0,1,.17188-.26465.62008.62008,0,0,1,.36718-.10449h.4336a.10924.10924,0,0,1,.05664.02636.06774.06774,0,0,1,.02148.05079v.62109a.79632.79632,0,0,1-.209.60156.878.878,0,0,1-.582.2168c-.02149.002-.04883.00293-.08594.00293a.96909.96909,0,0,1-.64844-.19727.775.775,0,0,1-.23242-.624v-.585a.08326.08326,0,0,1,.02148-.05664.07434.07434,0,0,1,.05664-.02246h.28321a.07729.07729,0,0,1,.05664.02246.075.075,0,0,1,.02148.05664v.56933a.36758.36758,0,0,0,.0918.25684.35769.35769,0,0,0,.25586.10937q.03222.00294.09375.00293.05859,0,.08789-.00293a.34573.34573,0,0,0,.25781-.10644.37056.37056,0,0,0,.08985-.25977v-.26171Z"/><path class="d" d="M13.79933,113.305a.06813.06813,0,0,1,.05469-.02344h.873a.07513.07513,0,0,1,.05664.02344.08326.08326,0,0,1,.02148.05664v.38476a.07909.07909,0,0,1-.02148.05567.08152.08152,0,0,1-.05664.02148h-.873a.08021.08021,0,0,1-.05469-.02148.07149.07149,0,0,1-.02148-.05567v-.38476A.075.075,0,0,1,13.79933,113.305Z"/><path class="d" d="M13.2173,114.37242a.737.737,0,0,1,.56641-.21387h.94336a.07517.07517,0,0,1,.05664.02344.0778.0778,0,0,1,.02148.05371v.31934a.084.084,0,0,1-.02148.05762.07813.07813,0,0,1-.05664.02246h-.92774a.3176.3176,0,0,0-.25781.10058.41567.41567,0,0,0-.084.27832q0,.34423.32812.34766a.75282.75282,0,0,0,.084.001c.03516-.001.06055-.001.08008-.001h.06641a.55186.55186,0,0,0,.26953-.0586.17661.17661,0,0,0,.09375-.16015.38648.38648,0,0,0-.01172-.09082.30945.30945,0,0,0-.03125-.07813.10335.10335,0,0,1-.00586-.02832.062.062,0,0,1,.01953-.04687.07.07,0,0,1,.05078-.02051H14.645a.12141.12141,0,0,1,.11328.05859.57854.57854,0,0,1,.05859.29493.59378.59378,0,0,1-.17773.48535.86964.86964,0,0,1-.54493.15136H13.77q-.75294-.03369-.752-.85449A.91166.91166,0,0,1,13.2173,114.37242Z"/><path class="d" d="M13.79933,116.8275a.06813.06813,0,0,1,.05469-.02344h.873a.07513.07513,0,0,1,.05664.02344.08326.08326,0,0,1,.02148.05664v.38477a.07908.07908,0,0,1-.02148.05566.08152.08152,0,0,1-.05664.02148h-.873a.08021.08021,0,0,1-.05469-.02148.07148.07148,0,0,1-.02148-.05566v-.38477A.075.075,0,0,1,13.79933,116.8275Z"/><path class="d" d="M14.78371,119.28355a.07734.07734,0,0,1-.05664.02149h-.91016a.66793.66793,0,0,1-.50586-.21192,1.12634,1.12634,0,0,1-.26953-.59668l-.166-.78808a.07276.07276,0,0,1,.01563-.05957.0675.0675,0,0,1,.05469-.02637h.26757a.07931.07931,0,0,1,.05469.02051.08411.08411,0,0,1,.0293.05078l.082.34082,1.30273-.3623a.321.321,0,0,1,.06055-.01563.05774.05774,0,0,1,.043.01856.06086.06086,0,0,1,.01953.043v.39942a.0752.0752,0,0,1-.01562.04687.06283.06283,0,0,1-.03125.02442l-1.25782.30761a.41744.41744,0,0,0,.17383.22754.60521.60521,0,0,0,.29688.06153h.75586a.07733.07733,0,0,1,.05664.02148.07909.07909,0,0,1,.02148.05567v.36523A.07739.07739,0,0,1,14.78371,119.28355Z"/><path class="d" d="M14.08254,121.04332a.75.75,0,0,1-.27735-.27051l-.33008.23926a.24962.24962,0,0,1-.04492.0293.12227.12227,0,0,1-.05664.01074h-.248a.07588.07588,0,0,1-.05468-.02149.07153.07153,0,0,1-.02344-.05566v-1.248a.07546.07546,0,0,1,.02344-.05468.07679.07679,0,0,1,.05468-.02247h.27344a.0736.0736,0,0,1,.05469.02247.082.082,0,0,1,.02148.05468v.72266l1.21875-.89551a.10976.10976,0,0,1,.04883-.01855.05744.05744,0,0,1,.04492.0205.069.069,0,0,1,.01758.04786v.38086a.11414.11414,0,0,1-.05664.09863l-.58984.43066a.483.483,0,0,0,.39062.1416h.17188a.08421.08421,0,0,1,.06054.02246.07884.07884,0,0,1,.02344.05762v.32227a.07766.07766,0,0,1-.02539.05469.08275.08275,0,0,1-.05859.02246h-.26367A.76185.76185,0,0,1,14.08254,121.04332Z"/><path class="d" d="M14.61574,123.014a.73981.73981,0,0,1-.5625.19727H13.1255a.07588.07588,0,0,1-.05468-.02149.073.073,0,0,1-.02344-.05566v-.83984a.0784.0784,0,0,1,.07812-.07618h.26368a.06747.06747,0,0,1,.05468.02246.0714.0714,0,0,1,.02149.05372v.39746h.56445a.36965.36965,0,0,0,.24805-.07715.25.25,0,0,0,.08984-.2002v-.24023l-1.24023-.26074a.09942.09942,0,0,1-.05664-.02442.073.073,0,0,1-.02344-.05566v-.35352a.07727.07727,0,0,1,.02344-.05761.06335.06335,0,0,1,.05664-.01661l1.23633.30176v-.20312a.073.073,0,0,1,.02343-.05567.08051.08051,0,0,1,.05664-.02148h.28321a.07513.07513,0,0,1,.05664.02344.07778.07778,0,0,1,.02148.05371v.9873A.71885.71885,0,0,1,14.61574,123.014Z"/><path class="d" d="M13.11183,125.19859a.065.065,0,0,1-.06445-.06445v-.37891a.10315.10315,0,0,1,.0293-.083l.0332-.02735.77734-.53808a.33681.33681,0,0,0-.168-.1045.8152.8152,0,0,0-.20312-.02539h-.38477a.08024.08024,0,0,1-.06054-.02246.07727.07727,0,0,1-.02344-.05762v-.30078a.06736.06736,0,0,1,.02539-.05371.07951.07951,0,0,1,.05859-.02343h.38086a1.07713,1.07713,0,0,1,.42383.07031.77975.77975,0,0,1,.30859.26855l.45118-.31445a.07255.07255,0,0,1,.043-.01563.06041.06041,0,0,1,.04492.02051.0632.0632,0,0,1,.02148.04492v.36231a.10742.10742,0,0,1-.01953.0664.24456.24456,0,0,1-.04883.04493l-.70117.49511a.27268.27268,0,0,0,.13477.10938.61528.61528,0,0,0,.17578.02246h.375a.088.088,0,0,1,.06054.02148.073.073,0,0,1,.02344.05567v.32324a.07847.07847,0,0,1-.02539.05664.07948.07948,0,0,1-.05859.02344h-.38672a.80263.80263,0,0,1-.35938-.0791.73067.73067,0,0,1-.291-.28418l-.5293.375A.068.068,0,0,1,13.11183,125.19859Z"/><path class="d" d="M14.61183,126.69664a.83429.83429,0,0,1-.58008.17578.901.901,0,0,1-.63867-.23144,1.21063,1.21063,0,0,1-.34765-.57813l-.03711-.126a.05738.05738,0,0,1,.02148-.05664.08547.08547,0,0,1,.06055-.02636h.31054a.0888.0888,0,0,1,.0586.02148.172.172,0,0,1,.041.05566l.03907.09864a.49383.49383,0,0,0,.166.22265.507.507,0,0,0,.31055.08106.41392.41392,0,0,0,.27148-.06738.32893.32893,0,0,0,.07618-.252v-.08008l.0039-.41211a.079.079,0,0,1,.02149-.05566.07281.07281,0,0,1,.05468-.02148h.71094a.06816.06816,0,0,1,.05469.02343.07.07,0,0,1,.02148.05371v.332a.07148.07148,0,0,1-.02148.05566.0735.0735,0,0,1-.05469.02148h-.34961v.19043A.74452.74452,0,0,1,14.61183,126.69664Z"/><rect class="f" x="-21.97425" y="78.31837" width="101.70273" height="2.55256" transform="translate(108.47176 50.71751) rotate(89.99998)"/><path class="e" d="M38.36379,94.44566a.2079.2079,0,0,1,.16015-.0664h5.73047a.21082.21082,0,0,1,.16016.0664.23053.23053,0,0,1,.06054.16407v1.04882a.21571.21571,0,0,1-.06054.15918.21864.21864,0,0,1-.16016.0625H38.52394a.214.214,0,0,1-.22265-.22168V94.60973A.232.232,0,0,1,38.36379,94.44566Z"/><path class="e" d="M41.57082,96.9691a.20869.20869,0,0,1,.16015-.06738h2.52344a.21166.21166,0,0,1,.16016.06738.23051.23051,0,0,1,.06054.16406v1.11035a.218.218,0,0,1-.06054.16016.22185.22185,0,0,1-.16016.06152H41.731a.22578.22578,0,0,1-.15625-.06152.2149.2149,0,0,1-.0664-.16016V97.13316A.232.232,0,0,1,41.57082,96.9691Z"/><path class="e" d="M39.46925,102.97789a.24536.24536,0,0,1-.0664-.16895v-1.11035a.20868.20868,0,0,1,.0625-.15136.25352.25352,0,0,1,.16015-.07129l.65821-.13282a1.87581,1.87581,0,0,1-.43555-.51562,4.95437,4.95437,0,0,1-.334-.64356,3.14982,3.14982,0,0,1-.18164-.59961l-.00977-.0625c0-.10058.04883-.15039.14258-.15039h.959c.10156,0,.17578.06153.22266.18653.01758.041.06055.17578.1289.40332a3.43634,3.43634,0,0,0,.209.55566,1.74311,1.74311,0,0,0,.47851.58594l.82618-.168a1.93765,1.93765,0,0,0,.75586-.27539.64893.64893,0,0,0,.22265-.55078v-.31152a.20925.20925,0,0,1,.06641-.15528.214.214,0,0,1,.1543-.0664h.81835a.23451.23451,0,0,1,.16407.06152.20792.20792,0,0,1,.0664.16016v.33789a2.73662,2.73662,0,0,1-.22656,1.21289,1.67044,1.67044,0,0,1-.69726.72363,4.37726,4.37726,0,0,1-1.2793.42676l-2.709.53222A.16252.16252,0,0,1,39.46925,102.97789Z"/><path class="e" d="M43.92043,106.88707a2.4145,2.4145,0,0,1-1.67383.50586,2.60946,2.60946,0,0,1-1.84766-.666A3.53322,3.53322,0,0,1,39.395,105.057l-.10743-.36426a.17513.17513,0,0,1,.0625-.165.25538.25538,0,0,1,.17774-.07519h.89648a.24472.24472,0,0,1,.16406.0625.42741.42741,0,0,1,.1211.16016l.11523.28417a1.44655,1.44655,0,0,0,.47461.64356,1.48858,1.48858,0,0,0,.90235.23535,1.19755,1.19755,0,0,0,.78125-.19531.94491.94491,0,0,0,.22265-.72852v-.23047l.00781-1.19043a.214.214,0,0,1,.22266-.22265h2.05274a.21163.21163,0,0,1,.16015.06738.221.221,0,0,1,.0625.15527v.959a.21942.21942,0,0,1-.0625.16016.22263.22263,0,0,1-.16015.0625H44.47511v.55078A2.1537,2.1537,0,0,1,43.92043,106.88707Z"/><path class="e" d="M39.89113,108.8275a2.12984,2.12984,0,0,1,1.63476-.61719h2.72852a.21435.21435,0,0,1,.16016.06641.22316.22316,0,0,1,.06054.15625v.92383a.23213.23213,0,0,1-.06054.16406.21438.21438,0,0,1-.16016.0664H41.57082a.92.92,0,0,0-.74219.28907,1.21009,1.21009,0,0,0-.24414.80371q0,.99462.95117,1.0039a1.958,1.958,0,0,0,.24023.00489c.09961-.00391.17774-.00489.23047-.00489h.19532a1.60524,1.60524,0,0,0,.77734-.16894.50956.50956,0,0,0,.27148-.46192.9772.9772,0,0,0-.03711-.26171.85658.85658,0,0,0-.08789-.22657.29107.29107,0,0,1-.01757-.08007.19107.19107,0,0,1,.05664-.1377.1994.1994,0,0,1,.14843-.05762h.70118a.34581.34581,0,0,1,.32812.16895,1.66591,1.66591,0,0,1,.16992.85254,1.72174,1.72174,0,0,1-.51172,1.39941,2.51115,2.51115,0,0,1-1.57617.43945h-.93359Q39.314,113.05162,39.315,110.68A2.62722,2.62722,0,0,1,39.89113,108.8275Z"/><path class="e" d="M42.895,115.18394c-.24415.01172-.38477.083-.42774.21387l-.08789.248a.20843.20843,0,0,1-.10156.11133.35342.35342,0,0,1-.166.04l-.45117.00878a.23231.23231,0,0,1-.209-.12011.43741.43741,0,0,1-.0586-.28809l.05274-.36426a1.13858,1.13858,0,0,1,.49414-.76464,1.77726,1.77726,0,0,1,1.06054-.30176h1.25391a.32212.32212,0,0,1,.16016.07519.19377.19377,0,0,1,.06054.14746v1.79395a2.29417,2.29417,0,0,1-.59961,1.73633,2.52483,2.52483,0,0,1-1.68359.627c-.05859.00586-.14062.00879-.248.00879a2.805,2.805,0,0,1-1.86914-.56836,2.23827,2.23827,0,0,1-.67187-1.80371v-1.6875a.236.236,0,0,1,.0625-.165.21132.21132,0,0,1,.16015-.06641h.81641a.22757.22757,0,0,1,.166.06641.23091.23091,0,0,1,.0664.165v1.64355a1.055,1.055,0,0,0,.26172.74121,1.031,1.031,0,0,0,.74219.31543c.05859.00586.14648.00879.26562.00879q.16992,0,.25782-.00879a1.00591,1.00591,0,0,0,.74218-.30664,1.07637,1.07637,0,0,0,.26172-.75v-.75586Z"/><path class="e" d="M39.46535,119.29234a.2079.2079,0,0,1,.16015-.0664h4.62891a.21082.21082,0,0,1,.16016.0664.23053.23053,0,0,1,.06054.16407v1.11035a.21647.21647,0,0,1-.06054.16015.22261.22261,0,0,1-.16016.0625H39.6255a.22679.22679,0,0,1-.15625-.0625.21338.21338,0,0,1-.0664-.16015v-1.11035A.232.232,0,0,1,39.46535,119.29234Z"/><path class="e" d="M39.59035,126.58141a.18513.18513,0,0,1-.12891-.05274.174.174,0,0,1-.05859-.13379v-1.09277a.30182.30182,0,0,1,.084-.23926c.05664-.04785.08789-.07422.09375-.08008l2.248-1.55469a.99286.99286,0,0,0-.48828-.30175,2.31582,2.31582,0,0,0-.58594-.07129H39.64308a.2395.2395,0,0,1-.17383-.06641.23091.23091,0,0,1-.0664-.165v-.87011a.20167.20167,0,0,1,.07226-.15528.23449.23449,0,0,1,.168-.0664h1.10156a3.10657,3.10657,0,0,1,1.22657.2041,2.27351,2.27351,0,0,1,.88867.77246l1.30469-.90625a.1915.1915,0,0,1,.125-.04395.178.178,0,0,1,.1289.05762.18129.18129,0,0,1,.05664.12891v1.04785a.30373.30373,0,0,1-.05273.1914.66675.66675,0,0,1-.14258.12891l-2.02539,1.42969a.78915.78915,0,0,0,.39063.31543,1.70345,1.70345,0,0,0,.50781.0664h1.084a.24133.24133,0,0,1,.17188.0625.20794.20794,0,0,1,.0664.16016v.93262a.21567.21567,0,0,1-.07031.16406.23537.23537,0,0,1-.168.06738H43.11574a2.33756,2.33756,0,0,1-1.0332-.22656,2.11931,2.11931,0,0,1-.83985-.82227l-1.5293,1.084A.21658.21658,0,0,1,39.59035,126.58141Z"/><path class="e" d="M42.21925,78.70641a1.3063,1.3063,0,0,1-1.01171.36425H39.53566a.12969.12969,0,0,1-.09375-.03613.125.125,0,0,1-.03906-.0957v-.44141a.12827.12827,0,0,1,.03906-.09375.12459.12459,0,0,1,.09375-.03906h1.64258a.69391.69391,0,0,0,.7832-.78809v-.375a3.788,3.788,0,0,0-.457-.07715,4.01511,4.01511,0,0,0-.49023-.0166l-1.47852.02735a.1246.1246,0,0,1-.09375-.03907.12827.12827,0,0,1-.03906-.09375l.00586-.96972a.12827.12827,0,0,1,.03906-.09375.1246.1246,0,0,1,.09375-.03907h.30273a.12731.12731,0,0,1,.09766.03907.13306.13306,0,0,1,.03516.09375l-.00586.43554H40.9966a4.69348,4.69348,0,0,1,.5.01368,3.01572,3.01572,0,0,1,.46484.08007v-.31445a.12827.12827,0,0,1,.03906-.09375.12459.12459,0,0,1,.09375-.03906h.32618a.123.123,0,0,1,.0957.03906.13306.13306,0,0,1,.03516.09375v1.36231A1.58368,1.58368,0,0,1,42.21925,78.70641Z"/><path class="e" d="M39.44191,79.83726a.12741.12741,0,0,1,.09375-.03808h2.88477a.12577.12577,0,0,1,.0957.03808.13309.13309,0,0,1,.03516.09375v.46387a.1298.1298,0,0,1-.03516.0957.12808.12808,0,0,1-.0957.03614H39.53566a.12966.12966,0,0,1-.09375-.03614.125.125,0,0,1-.03906-.0957V79.931A.1283.1283,0,0,1,39.44191,79.83726Z"/><path class="e" d="M40.73293,81.29234a.12741.12741,0,0,1,.09375-.03808h1.59375a.12577.12577,0,0,1,.0957.03808.13645.13645,0,0,1,.03516.09375v.46875a.13064.13064,0,0,1-.03516.09668.12808.12808,0,0,1-.0957.03614H40.82668a.12966.12966,0,0,1-.09375-.03614.12569.12569,0,0,1-.03907-.09668v-.46875A.13155.13155,0,0,1,40.73293,81.29234Z"/><path class="e" d="M42.21535,84.6898a1.55639,1.55639,0,0,1-1.07422.3086,1.62135,1.62135,0,0,1-1.125-.37989,2.06429,2.06429,0,0,1-.60156-.9707l-.07227-.22656a.10156.10156,0,0,1,.02149-.09863.13117.13117,0,0,1,.0996-.04395h.40235a.14753.14753,0,0,1,.09375.03516.21493.21493,0,0,1,.0664.09668l.07813.19336a.96333.96333,0,0,0,1.03125.667,1.30728,1.30728,0,0,0,.47656-.06934.45834.45834,0,0,0,.252-.23144,1.07882,1.07882,0,0,0,.07617-.44922V83.35l.00586-.61719a.14108.14108,0,0,1,.03515-.09961.12088.12088,0,0,1,.0918-.03906h1.11328a.12827.12827,0,0,1,.09375.03906.1354.1354,0,0,1,.03906.09961v.40235a.13379.13379,0,0,1-.03515.09668.13619.13619,0,0,1-.09766.03515h-.63476v.38086A1.36213,1.36213,0,0,1,42.21535,84.6898Z"/><path class="e" d="M39.44191,85.556a.12827.12827,0,0,1,.09375-.03906h.32617a.12649.12649,0,0,1,.09571.03906.13313.13313,0,0,1,.03515.09375v1.4834h1.18164a.6936.6936,0,0,0,.78711-.7832v-.64551a.13154.13154,0,0,1,.03906-.09375.12741.12741,0,0,1,.09375-.03808h.32618a.12577.12577,0,0,1,.0957.03808.13645.13645,0,0,1,.03516.09375v.67285a1.63843,1.63843,0,0,1-.332,1.11426,1.31827,1.31827,0,0,1-1.03515.375H39.99269v.19824a.13066.13066,0,0,1-.03515.09668.12811.12811,0,0,1-.09571.03614h-.32617a.12966.12966,0,0,1-.09375-.03614.12567.12567,0,0,1-.03906-.09668v-2.415A.1283.1283,0,0,1,39.44191,85.556Z"/><path class="e" d="M39.70168,89.03551a1.34722,1.34722,0,0,1,1.00781-.3584h1.71094a.12577.12577,0,0,1,.0957.03808.13645.13645,0,0,1,.03516.09375v.39747a.13373.13373,0,0,1-.03516.09667.13137.13137,0,0,1-.0957.03516H40.73879a.77588.77588,0,0,0-.58008.2041.82066.82066,0,0,0-.19922.59571.78041.78041,0,0,0,.18555.57128.79593.79593,0,0,0,.56054.19532h.49024a.99532.99532,0,0,0,.57617-.14844.46457.46457,0,0,0,.19531-.39746.78922.78922,0,0,0-.02734-.1875.64163.64163,0,0,0-.07227-.17676.09761.09761,0,0,1-.01562-.05469.11186.11186,0,0,1,.02929-.07714.104.104,0,0,1,.08008-.03321h.30469a.32223.32223,0,0,1,.10937.0166.14164.14164,0,0,1,.07227.07129.97382.97382,0,0,1,.09375.23145,1.357,1.357,0,0,1,.0332.32617,1.047,1.047,0,0,1-.3125.84082,1.50481,1.50481,0,0,1-.96679.27832c-.03711.00391-.14063.00586-.3086.00586q-.25488,0-.31054-.00586a1.39237,1.39237,0,0,1-.99219-.36719,1.914,1.914,0,0,1,.01758-2.1914Z"/><circle class="g" cx="27.31304" cy="42.08215" r="7.8965"/><path class="h" d="M33.76229,28.74328S18.50334,44.10008,9.35307,58.697l0-29.95366Z"/><path class="i" d="M33.78566,99.28844a.07949.07949,0,0,1,.05859-.02344h2.207a.08679.08679,0,0,1,.06054.02148.07868.07868,0,0,1,.02344.05957v.82715q0,1.00049-.92188,1.02051c-.13085.00391-.21875.00684-.26367.00684-.043,0-.13086-.00293-.26172-.00684a.95567.95567,0,0,1-.69921-.25586,1.06911,1.06911,0,0,1-.22657-.748v-.84375A.07884.07884,0,0,1,33.78566,99.28844Zm.37109.88476a.55454.55454,0,0,0,.125.40625.59527.59527,0,0,0,.416.13281c.13672.00391.2207.00684.25391.00684.03711,0,.12109-.00293.25195-.00684a.4796.4796,0,0,0,.53906-.55566v-.41406H34.15675Z"/><path class="i" d="M33.78566,101.63023a.07952.07952,0,0,1,.05859-.02343h1.59961a.07372.07372,0,0,1,.0586.02343.08046.08046,0,0,1,.02343.05762v.28809a.0773.0773,0,0,1-.02343.05761.07968.07968,0,0,1-.0586.02442H33.84425a.0817.0817,0,0,1-.082-.082v-.28809A.08047.08047,0,0,1,33.78566,101.63023Zm2.05078-.01367a.07954.07954,0,0,1,.0586-.02344h.248a.08406.08406,0,0,1,.06055.02344.0811.0811,0,0,1,.02344.0586v.31152a.08249.08249,0,0,1-.02344.06055.08486.08486,0,0,1-.06055.02441h-.248a.07758.07758,0,0,1-.0586-.02539.08674.08674,0,0,1-.02344-.05957v-.31152A.0811.0811,0,0,1,35.83644,101.61656Z"/><path class="i" d="M33.14113,102.53258a.07367.07367,0,0,1,.05859-.02344h2.24414a.07369.07369,0,0,1,.0586.02344.07883.07883,0,0,1,.02343.05761v.27149a.08019.08019,0,0,1-.082.084H35.3091a.6228.6228,0,0,1,.25.53907.65382.65382,0,0,1-.21485.52539.92419.92419,0,0,1-.57812.19726q-.041.00292-.123.00293c-.05273,0-.09375-.001-.12109-.00293a.90154.90154,0,0,1-.57422-.19531.64964.64964,0,0,1-.21875-.52734.60893.60893,0,0,1,.24023-.51856h-.76953a.076.076,0,0,1-.05859-.02148.07744.07744,0,0,1-.02149-.05957v-.29493A.07717.07717,0,0,1,33.14113,102.53258Zm1.40039,1.21c.02344.00195.05664.00293.10156.00293.04688,0,.08008-.001.10352-.00293.29687-.01563.44726-.14453.44726-.38672a.33829.33829,0,0,0-.127-.28809.51794.51794,0,0,0-.30469-.10156q-.041-.00293-.1289-.00293c-.0586,0-.10157.001-.13086.00293a.47488.47488,0,0,0-.28907.10547.351.351,0,0,0-.11914.28418C34.09425,103.598,34.24464,103.72691,34.54152,103.74254Z"/><path class="i" d="M33.13918,104.78453a.06313.06313,0,0,1,.04687-.02246.14029.14029,0,0,1,.05469.01367l.627.26856,1.53516-.65137a.14364.14364,0,0,1,.04883-.01367.08889.08889,0,0,1,.05078.02441.063.063,0,0,1,.02343.05078v.28125a.09228.09228,0,0,1-.06445.08789l-1.10547.45117,1.10547.457a.10453.10453,0,0,1,.06445.09472v.27539a.07092.07092,0,0,1-.02148.05078.06746.06746,0,0,1-.04687.01954.145.145,0,0,1-.05469-.0127l-2.22071-.96a.09635.09635,0,0,1-.0625-.09473v-.27148A.06938.06938,0,0,1,33.13918,104.78453Z"/><path class="i" d="M33.78566,106.48766a.07949.07949,0,0,1,.05859-.02344H35.44a.0887.0887,0,0,1,.0625.02344.08044.08044,0,0,1,.02343.05761v.27832a.08247.08247,0,0,1-.02343.06055.08541.08541,0,0,1-.0625.02441h-.13867a.57169.57169,0,0,1,.2246.48828v.14161a.0786.0786,0,0,1-.082.082h-.248a.08137.08137,0,0,1-.05664-.02246.07723.07723,0,0,1-.02344-.05957v-.26758a.316.316,0,0,0-.34375-.3418h-.92774a.08035.08035,0,0,1-.05859-.02441.07888.07888,0,0,1-.02344-.05762v-.30176A.08044.08044,0,0,1,33.78566,106.48766Z"/><path class="i" d="M33.93214,108.02672a.78237.78237,0,0,1,.5625-.2334l.14844-.00391.15039.00391a.77908.77908,0,0,1,.56055.2373,1.01516,1.01516,0,0,1,0,1.22364.787.787,0,0,1-.56055.2373c-.02734.00195-.07812.00293-.15039.00293s-.12109-.001-.14844-.00293a.787.787,0,0,1-.5625-.23437,1.0333,1.0333,0,0,1,0-1.23047Zm.25.89355a.52536.52536,0,0,0,.33008.10352c.02149.00195.06641.00293.13086.00293.06641,0,.11133-.001.13281-.00293a.5157.5157,0,0,0,.33008-.10547.34341.34341,0,0,0,.11524-.27441.3476.3476,0,0,0-.11524-.27833.51009.51009,0,0,0-.33008-.10449l-.13281-.0039-.13086.0039a.51409.51409,0,0,0-.33008.10449.35145.35145,0,0,0-.11132.27833A.34584.34584,0,0,0,34.18214,108.92027Z"/><path class="i" d="M33.78566,109.89391a.07949.07949,0,0,1,.05859-.02344h1.59961a.07369.07369,0,0,1,.0586.02344.08044.08044,0,0,1,.02343.05761v.28125a.0786.0786,0,0,1-.082.082h-.13867a.68776.68776,0,0,1,.25391.56543.63553.63553,0,0,1-.20313.49512.804.804,0,0,1-.55859.18359h-.95313a.08272.08272,0,0,1-.05859-.02246.07726.07726,0,0,1-.02344-.05957v-.30468a.08008.08008,0,0,1,.082-.08106h.93164a.44762.44762,0,0,0,.30665-.09668.34721.34721,0,0,0,.11132-.27637.36013.36013,0,0,0-.11328-.27832.42458.42458,0,0,0-.30469-.10449h-.93164a.08272.08272,0,0,1-.05859-.02246.07726.07726,0,0,1-.02344-.05957v-.30176A.08044.08044,0,0,1,33.78566,109.89391Z"/><path class="i" d="M33.94582,112.15074a.86273.86273,0,0,1,.61718-.23535l.084-.00391a.95171.95171,0,0,1,.668.22266.90588.90588,0,0,1,0,1.2373.937.937,0,0,1-.65039.21778H34.5923a.07822.07822,0,0,1-.05664-.02344.08246.08246,0,0,1-.02344-.06055v-1.126h-.02734a.53361.53361,0,0,0-.31445.10351.32031.32031,0,0,0-.12305.2666.38318.38318,0,0,0,.15625.31446.16727.16727,0,0,1,.04492.04785.13272.13272,0,0,1,.00977.05762v.29785a.08178.08178,0,0,1-.01758.05273.05741.05741,0,0,1-.04688.02246.31113.31113,0,0,1-.1914-.09668.76843.76843,0,0,1-.19141-.27636.996.996,0,0,1-.082-.417A.82331.82331,0,0,1,33.94582,112.15074Zm.85351.9707h.00781a.48708.48708,0,0,0,.32032-.09961.37.37,0,0,0,0-.54394.49217.49217,0,0,0-.32032-.09863h-.00781Z"/><path class="i" d="M33.82082,115.05211a.72608.72608,0,0,1,.25-.31055.63656.63656,0,0,1,.33593-.1123h.00586a.05741.05741,0,0,1,.04688.02246.07693.07693,0,0,1,.01758.04883v.32226a.09138.09138,0,0,1-.06641.09863.38894.38894,0,0,0-.2207.15723.4732.4732,0,0,0-.07227.25977.44649.44649,0,0,0,.11524.31347.41934.41934,0,0,0,.32031.123.38041.38041,0,0,0,.29492-.123.44652.44652,0,0,0,.11523-.31347.43575.43575,0,0,0-.02734-.166.64451.64451,0,0,0-.07422-.126l-.02148-.03027a.146.146,0,0,1-.02344-.043.12408.12408,0,0,1-.00586-.03808v-.31934a.07339.07339,0,0,1,.07422-.07422l1.15625.11524a.09493.09493,0,0,1,.06836.03222.09826.09826,0,0,1,.02539.06934v1.27441a.07459.07459,0,0,1-.082.08106h-.23047a.0805.0805,0,0,1-.05664-.02149.07723.07723,0,0,1-.02344-.05957v-.97949l-.54883-.05469a.77879.77879,0,0,1,.082.17969.98351.98351,0,0,1-.06054.67285.755.755,0,0,1-.26758.30176.72718.72718,0,0,1-.40625.11426.80536.80536,0,0,1-.43164-.11524.75671.75671,0,0,1-.28516-.32617,1.26221,1.26221,0,0,1-.0039-.97363Z"/><path class="i" d="M33.979,117.04137a1.04387,1.04387,0,0,1,.6582-.24219c.06055-.002.16407-.00293.3125-.00293s.25391.001.31836.00293a1.00364,1.00364,0,0,1,.65039.24414,1.03572,1.03572,0,0,1,0,1.34961,1.00364,1.00364,0,0,1-.65039.24414c-.127.00391-.23242.00684-.31836.00684s-.1914-.00293-.3125-.00684a1.039,1.039,0,0,1-.6582-.24316,1.03968,1.03968,0,0,1,0-1.35254Zm.2832.99218a.66749.66749,0,0,0,.39258.11133c.06445.00293.166.00391.30078.00391.13672,0,.23438-.001.29492-.00391a.65668.65668,0,0,0,.38672-.11133.4202.4202,0,0,0,0-.63086.64984.64984,0,0,0-.38672-.11132c-.06054-.00293-.1582-.00391-.29492-.00391-.13476,0-.23633.001-.30078.00391a.66059.66059,0,0,0-.39258.11132.43223.43223,0,0,0,0,.63086Z"/><path class="i" d="M33.979,119.27476a1.04387,1.04387,0,0,1,.6582-.24218c.06055-.002.16407-.00293.3125-.00293s.25391.001.31836.00293a1.00364,1.00364,0,0,1,.65039.24414,1.03572,1.03572,0,0,1,0,1.34961,1.00369,1.00369,0,0,1-.65039.24414c-.127.0039-.23242.00683-.31836.00683s-.1914-.00293-.3125-.00683a1.03894,1.03894,0,0,1-.6582-.24317,1.03968,1.03968,0,0,1,0-1.35254Zm.2832.99219a.66756.66756,0,0,0,.39258.11133c.06445.00293.166.00391.30078.00391.13672,0,.23438-.001.29492-.00391a.65675.65675,0,0,0,.38672-.11133.4202.4202,0,0,0,0-.63086.64991.64991,0,0,0-.38672-.11133c-.06054-.00293-.1582-.0039-.29492-.0039-.13476,0-.23633.001-.30078.0039a.66066.66066,0,0,0-.39258.11133.43223.43223,0,0,0,0,.63086Z"/><path class="i" d="M33.78566,122.09019a.07952.07952,0,0,1,.05859-.02343h1.59961a.07372.07372,0,0,1,.0586.02343.08047.08047,0,0,1,.02343.05762v.26856a.07854.07854,0,0,1-.082.08105h-.11523a.59365.59365,0,0,1,.23047.49121.53531.53531,0,0,1-.30078.52539.62188.62188,0,0,1,.21875.23047.65911.65911,0,0,1,.082.32227.58908.58908,0,0,1-.18946.4541.786.786,0,0,1-.55273.17676h-.97266a.08277.08277,0,0,1-.05859-.02246.07727.07727,0,0,1-.02344-.05958v-.28125a.08008.08008,0,0,1,.082-.081h.94532a.43965.43965,0,0,0,.30859-.08984.31257.31257,0,0,0,.0957-.23536.30082.30082,0,0,0-.09765-.22558.42684.42684,0,0,0-.30664-.09375h-.94532a.082.082,0,0,1-.05859-.02149.07725.07725,0,0,1-.02344-.05957v-.28418a.0817.0817,0,0,1,.082-.082h.94532a.43594.43594,0,0,0,.30664-.09082.31084.31084,0,0,0,.09765-.23437.3039.3039,0,0,0-.09765-.22559.43133.43133,0,0,0-.30664-.09277h-.94532a.08272.08272,0,0,1-.05859-.02246.07726.07726,0,0,1-.02344-.05957v-.28809A.08048.08048,0,0,1,33.78566,122.09019Z"/><path class="i" d="M33.11769,125.4359a.66366.66366,0,0,1,.22852-.26465.44675.44675,0,0,1,.2207-.07813.06863.06863,0,0,1,.05469.02442.07885.07885,0,0,1,.02344.05762v.30175a.09249.09249,0,0,1-.01563.05176.11393.11393,0,0,1-.05664.03613.384.384,0,0,0-.15039.11133.34748.34748,0,0,0-.0625.23047.42083.42083,0,0,0,.08984.29883.41663.41663,0,0,0,.3125.09473h.23047a.64133.64133,0,0,1-.2168-.51856.64957.64957,0,0,1,.21485-.53027.92851.92851,0,0,1,.582-.19141l.0918-.00391.09179.00391a.94451.94451,0,0,1,.582.19336.64242.64242,0,0,1,.22071.52832.701.701,0,0,1-.06836.31543.63756.63756,0,0,1-.18164.22363H35.44a.08623.08623,0,0,1,.0625.02539.08338.08338,0,0,1,.02343.05957v.27735a.07883.07883,0,0,1-.02343.05761.08949.08949,0,0,1-.0625.02442l-1.63282.00293a.78453.78453,0,0,1-.584-.21.87611.87611,0,0,1-.207-.63379A1.03361,1.03361,0,0,1,33.11769,125.4359Zm1.14063.75879a.51454.51454,0,0,0,.29687.10547c.01953.00195.05469.0039.10938.0039s.08984-.002.10742-.0039a.5157.5157,0,0,0,.29883-.10547.33583.33583,0,0,0,.123-.28418c0-.24414-.15039-.37305-.44726-.38672l-.082-.00293c-.35352,0-.5293.12988-.5293.38965A.33584.33584,0,0,0,34.25832,126.19469Z"/><path class="j" d="M9.42721,59.569s16.9897-23.62669,33.07708-30.82572H31.38937S12.48133,47.12642,9.42721,59.569Z"/><path class="k" d="M36.58121,28.74328S16.56858,43.99348,9.42721,59.569"/><circle class="i" cx="25.94383" cy="41.13015" r="5.73989"/><path class="d" d="M25.97121,38.75035a.09228.09228,0,0,1,.0664-.02734H26.397a.21314.21314,0,0,1,.18555.08593l.02734.03809.09375.13086q.27832.38671.42187.57129a2.171,2.171,0,0,0,.25977.28808.32944.32944,0,0,0,.20508.10352.19571.19571,0,0,0,.10156-.02246.11523.11523,0,0,0,.03711-.10156.1651.1651,0,0,0-.0293-.10352.17748.17748,0,0,0-.05859-.05078c-.01758-.00781-.04688-.01953-.08984-.03613a.10756.10756,0,0,1-.06055-.05176.18694.18694,0,0,1-.01758-.08594v-.64844a.07782.07782,0,0,1,.02148-.05371.07682.07682,0,0,1,.05469-.02246.77267.77267,0,0,1,.44922.1416.906.906,0,0,1,.30274.374,1.29636,1.29636,0,0,1,.10742.5332,1.24439,1.24439,0,0,1-.207.75391.66459.66459,0,0,1-.56641.27734.72987.72987,0,0,1-.48438-.18457,2.81447,2.81447,0,0,1-.47851-.56055l-.01758-.02343v.72753a.0924.0924,0,0,1-.02734.06543.08917.08917,0,0,1-.06641.02735h-.52344a.09338.09338,0,0,1-.09375-.09278v-1.9873A.09245.09245,0,0,1,25.97121,38.75035Z"/><path class="d" d="M26.1548,41.48668a.90493.90493,0,0,1,.63867-.30762c.09375-.00683.21485-.00976.36133-.00976.15039,0,.27344.00293.36914.00976a.8655.8655,0,0,1,.75781.52344,1.46683,1.46683,0,0,1,0,1.12109.86676.86676,0,0,1-.75781.52246c-.0957.00684-.21875.01075-.36914.01075-.14648,0-.26758-.00391-.36133-.01075a.90393.90393,0,0,1-.63867-.30664,1.35649,1.35649,0,0,1,0-1.55273Zm.65625.96289c.06641.00391.18164.00684.34766.00684.168,0,.2832-.00293.3457-.00684.14648-.00977.2207-.07129.22461-.18652-.00391-.11524-.07813-.17774-.22461-.18653-.125-.00488-.24023-.00683-.3457-.00683-.09961,0-.21485.002-.34766.00683-.15039.00879-.22461.07129-.22461.18653S26.66066,42.4398,26.81105,42.44957Z"/><path class="d" d="M24.4048,38.5941a.63072.63072,0,0,1-.50586.18945h-.82226a.06647.06647,0,0,1-.04688-.01855.06559.06559,0,0,1-.02148-.04981v-.32128a.07616.07616,0,0,1,.01953-.05079.06563.06563,0,0,1,.04883-.0205h.80859a.2735.2735,0,0,0,.31055-.3086v-.17676a1.63774,1.63774,0,0,0-.40039-.041l-.71875.02148a.06563.06563,0,0,1-.04883-.0205.07616.07616,0,0,1-.01953-.05079l.0039-.57812a.07471.07471,0,0,1,.01758-.05078.067.067,0,0,1,.05078-.02051h.21485a.06268.06268,0,0,1,.04882.02051.06765.06765,0,0,1,.01954.05078v.2207h.42773a1.52369,1.52369,0,0,1,.4043.041v-.16113a.067.067,0,0,1,.01953-.04981.06271.06271,0,0,1,.04883-.02051h.23437a.06272.06272,0,0,1,.04883.02051.067.067,0,0,1,.01953.04981v.76171A.8506.8506,0,0,1,24.4048,38.5941Z"/><path class="d" d="M23.02785,39.11266a.0656.0656,0,0,1,.04883-.02051h1.42187a.06269.06269,0,0,1,.04883.02051.06768.06768,0,0,1,.01953.05078v.34082a.06334.06334,0,0,1-.01953.04882.06544.06544,0,0,1-.04883.01954H23.07668a.06747.06747,0,0,1-.04688-.01954.065.065,0,0,1-.02148-.04882v-.34082A.07611.07611,0,0,1,23.02785,39.11266Z"/><path class="d" d="M23.67433,39.90465a.06566.06566,0,0,1,.04883-.02051h.77539a.06272.06272,0,0,1,.04883.02051.067.067,0,0,1,.01953.0498v.3418a.06338.06338,0,0,1-.01953.04883.06479.06479,0,0,1-.04883.01855h-.77539a.06645.06645,0,0,1-.04687-.01855.065.065,0,0,1-.02149-.04883v-.3418A.07552.07552,0,0,1,23.67433,39.90465Z"/><path class="d" d="M24.397,41.71715a.74673.74673,0,0,1-.51563.15625.798.798,0,0,1-.5664-.20508,1.08442,1.08442,0,0,1-.3086-.5127l-.0332-.1123a.05051.05051,0,0,1,.01953-.05078.08028.08028,0,0,1,.05469-.02246h.27539a.07964.07964,0,0,1,.05078.01855.13893.13893,0,0,1,.03711.04981l.03516.08691a.43412.43412,0,0,0,.14648.19824.45547.45547,0,0,0,.27539.07227.36505.36505,0,0,0,.24024-.06055.285.285,0,0,0,.06836-.22363v-.07129l.0039-.36523a.06807.06807,0,0,1,.01758-.04883.07.07,0,0,1,.05078-.01953h.62891a.06.06,0,0,1,.04883.0205.06414.06414,0,0,1,.01953.04786v.29492a.06338.06338,0,0,1-.01953.04883.06252.06252,0,0,1-.04883.01953h-.31055v.16894A.66263.66263,0,0,1,24.397,41.71715Z"/><path class="d" d="M23.0298,42.1068a.0645.0645,0,0,1,.04688-.02051h.23437a.06.06,0,0,1,.04883.02051.0641.0641,0,0,1,.01953.04785v.68457h.50586a.27289.27289,0,0,0,.30859-.3086V42.182a.06408.06408,0,0,1,.01953-.0498.07252.07252,0,0,1,.05079-.01856h.23437a.06272.06272,0,0,1,.04883.02051.06412.06412,0,0,1,.01953.04785v.36231a.888.888,0,0,1-.16016.57714.63975.63975,0,0,1-.52148.19532h-.50586v.0957a.06338.06338,0,0,1-.01953.04883.0625.0625,0,0,1-.04883.01953h-.23437a.0675.0675,0,0,1-.04688-.01953.065.065,0,0,1-.02148-.04883V42.15465A.06606.06606,0,0,1,23.0298,42.1068Z"/><path class="d" d="M23.15871,43.87437a.65592.65592,0,0,1,.502-.18945h.83789a.06272.06272,0,0,1,.04883.02051.06412.06412,0,0,1,.01953.04785v.2832a.06768.06768,0,0,1-.01953.05078.06269.06269,0,0,1-.04883.02051h-.82422a.28341.28341,0,0,0-.22851.08887.3767.3767,0,0,0-.07422.24707c0,.20312.09765.30664.293.30762a.51827.51827,0,0,0,.07226.00195c.03125-.001.05469-.00195.07227-.00195h.05859a.48768.48768,0,0,0,.24024-.05176.1556.1556,0,0,0,.082-.1416.39776.39776,0,0,0-.00977-.08008.35258.35258,0,0,0-.02734-.07031.07727.07727,0,0,1-.00586-.02442.05679.05679,0,0,1,.01758-.042.06186.06186,0,0,1,.04492-.01758h.21484a.105.105,0,0,1,.10156.05176.50733.50733,0,0,1,.05274.26172.52467.52467,0,0,1-.1582.42969.76809.76809,0,0,1-.48438.13574h-.28516q-.67089-.03077-.66992-.75879A.81319.81319,0,0,1,23.15871,43.87437Z"/><circle class="g" cx="17.53282" cy="47.0451" r="4.20954"/><circle class="i" cx="17.53282" cy="47.0451" r="2.93355"/><ellipse class="l" cx="18.01744" cy="47.99176" rx="0.80054" ry="1.18153"/><ellipse class="f" cx="18.2281" cy="47.99176" rx="0.80054" ry="1.18153"/><ellipse class="l" cx="16.74469" cy="46.20644" rx="0.9227" ry="1.36183"/><ellipse class="m" cx="16.9875" cy="46.20644" rx="0.9227" ry="1.36183"/><line class="n" x1="17.89959" y1="46.00294" x2="16.11188" y2="46.63519"/><line class="o" x1="18.84493" y1="48.74332" x2="17.66739" y2="47.12642"/><polygon class="i" points="56.882 21.206 56.882 122.909 50.028 130.581 50.028 28.878 56.882 21.206"/><line class="p" x1="55.56198" y1="121.50994" x2="55.56199" y2="103.36385"/><line class="p" x1="53.79676" y1="123.45363" x2="53.79676" y2="105.30754"/><line class="p" x1="51.89233" y1="125.68875" x2="51.89233" y2="107.54266"/><line class="p" x1="55.56199" y1="94.96461" x2="55.562" y2="76.81852"/><line class="p" x1="53.79676" y1="96.90829" x2="53.79677" y2="78.7622"/><line class="p" x1="55.562" y1="67.57445" x2="55.56201" y2="49.42835"/><line class="p" x1="53.79677" y1="69.51813" x2="53.79678" y2="51.37204"/><line class="p" x1="51.89234" y1="99.14342" x2="51.89234" y2="80.99733"/><polygon class="g" points="16.281 21.206 9.427 28.787 50.028 28.787 56.882 21.206 16.281 21.206"/><line class="q" x1="49.46424" y1="26.75081" x2="22.26108" y2="26.7508"/><line class="q" x1="51.49088" y1="24.29859" x2="40.24783" y2="24.29859"/><line class="q" x1="53.9335" y1="22.33188" x2="28.33521" y2="22.33188"/><ellipse class="r" cx="13.51505" cy="20.13901" rx="8.40782" ry="9.09371"/><g class="s"><path class="t" d="M5.36392,14.59961s.94-.89435,6.51478-.7955a27.90573,27.90573,0,0,1,9.78747,1.95923V1.52971H5.36392Z"/><circle class="u" cx="14.16564" cy="22.83525" r="2.45314"/></g><ellipse class="v" cx="13.51505" cy="20.13901" rx="8.40782" ry="9.09371"/><path class="w" d="M38.37275,1.54857s8.181,4.12274,14.70476,5.70425"/><path class="w" d="M15.58066,1.60431S8.09686,8.54459,1.54857,6.96257"/><path class="u" d="M27.16264,29.21416c3.17162-1.1403,10.35169-3.6477,10.25795-3.94173.96073,3.01343-.10929,7.29908-3.30232,8.47286a7.80632,7.80632,0,0,1-5.33149-.38922c-1.109-.40879-3.39326-1.31929-3.893-2.5331-.25024-.61005.19651-.765.82453-1.0691C25.84666,29.69176,26.38379,29.49418,27.16264,29.21416Z"/><g class="x"><polygon class="r" points="25.299 34.624 44.207 25.272 40.075 20.86 15.448 25.272 19.074 35.535 25.299 34.624"/></g><path class="y" d="M27.16264,29.21416c3.17162-1.1403,10.35169-3.6477,10.25795-3.94173.96073,3.01343-.10929,7.29908-3.30232,8.47286a7.80632,7.80632,0,0,1-5.33149-.38922c-1.109-.40879-3.39326-1.31929-3.893-2.5331-.25024-.61005.19651-.765.82453-1.0691C25.84666,29.69176,26.38379,29.49418,27.16264,29.21416Z"/><circle class="r" cx="40.38539" cy="20.13901" r="9.09371"/><g class="z"><path class="t" d="M31.56932,15.10579s1.12926-.89435,7.15879-.7955a31.13,31.13,0,0,1,10.47335,1.95923V2.03588H31.56932Z"/><circle class="u" cx="41.03599" cy="22.83524" r="2.45314"/></g><circle class="v" cx="40.38539" cy="20.13901" r="9.09371"/><path class="aa" d="M25.91209,19.92736c-2.46692-1.83792-5.64321.09037-6,2.94252-.40886,3.26813,3.34442,4.59279,6,4.10044"/></svg>