<svg xmlns="http://www.w3.org/2000/svg" xmlns:xlink="http://www.w3.org/1999/xlink" viewBox="0 0 162.48885 145.34776"><defs><style>.a,.l{fill:#f6f6f6;}.a,.n,.p,.r,.s,.t,.u{stroke:#2d2a28;}.a,.f,.g,.h,.j,.p,.r,.s{stroke-miterlimit:10;}.a,.n,.p,.s,.t,.u{stroke-width:0.52261px;}.aa,.ac,.b,.c,.e,.f,.g,.h,.j,.p,.r,.u,.w,.x{fill:none;}.b,.f,.j{stroke:#29235c;}.aa,.b,.c,.e,.f,.g,.h,.n,.r,.s,.t,.u,.w,.x{stroke-linecap:round;}.aa,.b,.c,.e,.n,.t,.u,.w,.x{stroke-linejoin:round;}.b,.f{stroke-width:11.40351px;}.b,.f,.j,.v{opacity:0.14;}.c,.g,.x{stroke:#fff;}.c{stroke-width:8.14536px;}.d{fill:#1ac179;}.e{stroke:#17995e;stroke-width:1.62907px;}.g{stroke-width:8.9599px;}.h{stroke:#b2b2b2;stroke-width:3.25815px;}.i{fill:#dadada;}.j{stroke-width:3.00306px;}.k,.n,.s{fill:#f9b233;}.m{clip-path:url(#a);}.o{fill:#2d2a28;}.q{clip-path:url(#b);}.r{stroke-width:0.97989px;}.ad,.t{fill:#fff;}.w{stroke:#37615a;stroke-width:11.51446px;}.x{stroke-width:8.22461px;}.y{fill:#f9766d;}.z{fill:#d55a64;}.aa{stroke:#d55a64;stroke-width:1.64492px;}.ab{opacity:0.2;}.ac{stroke:#1f3366;stroke-width:2px;}</style><clipPath id="a"><circle class="a" cx="93.46493" cy="36.29955" r="2.87713"/></clipPath><clipPath id="b"><ellipse class="a" cx="85.34466" cy="38.8166" rx="2.66012" ry="2.87713" transform="matrix(0.95517, -0.29607, 0.29607, 0.95517, -7.66615, 27.00862)"/></clipPath></defs><path class="b" d="M45.47349,34.87179c2.12615-4.80241,4.92507-9.52006,9.24088-12.513,4.36929-3.03,9.85781-3.98408,15.17276-4.13532s10.63951.41982,15.94614.08633a47.30313,47.30313,0,0,0,29.1382-12.60808,50.0999,50.0999,0,0,0,21.17374,38.38542,35.9106,35.9106,0,0,1-24.18452,13.9669c-7.14755.85417-14.48136-.47292-21.54148.9313A28.96473,28.96473,0,0,0,68.28493,80.81181Z"/><path class="c" d="M45.47349,34.87179c2.12615-4.80241,4.92507-9.52006,9.24088-12.513,4.36929-3.03,9.85781-3.98408,15.17276-4.13532s10.63951.41982,15.94614.08633a47.30313,47.30313,0,0,0,29.1382-12.60808,50.0999,50.0999,0,0,0,21.17374,38.38542,35.9106,35.9106,0,0,1-24.18452,13.9669c-7.14755.85417-14.48136-.47292-21.54148.9313A28.96473,28.96473,0,0,0,68.28493,80.81181Z"/><path class="d" d="M45.47349,34.87179c2.12615-4.80241,4.92507-9.52006,9.24088-12.513,4.36929-3.03,9.85781-3.98408,15.17276-4.13532s10.63951.41982,15.94614.08633a47.30313,47.30313,0,0,0,29.1382-12.60808,50.0999,50.0999,0,0,0,21.17374,38.38542,35.9106,35.9106,0,0,1-24.18452,13.9669c-7.14755.85417-14.48136-.47292-21.54148.9313A28.96473,28.96473,0,0,0,68.28493,80.81181Z"/><path class="e" d="M45.47349,34.87179c2.12615-4.80241,4.92507-9.52006,9.24088-12.513,4.36929-3.03,9.85781-3.98408,15.17276-4.13532s10.63951.41982,15.94614.08633a47.30313,47.30313,0,0,0,29.1382-12.60808,50.0999,50.0999,0,0,0,21.17374,38.38542,35.9106,35.9106,0,0,1-24.18452,13.9669c-7.14755.85417-14.48136-.47292-21.54148.9313A28.96473,28.96473,0,0,0,68.28493,80.81181Z"/><path class="f" d="M77.04523,99.14658,36.52745,25.29894a5.36275,5.36275,0,1,0-3.82875,2.03882L73.243,101.23316a2.16858,2.16858,0,0,0,3.80225-2.08658Z"/><path class="g" d="M77.04523,99.14658,36.52745,25.29894a5.36275,5.36275,0,1,0-3.82875,2.03882L73.243,101.23316a2.16858,2.16858,0,0,0,3.80225-2.08658Z"/><path class="h" d="M77.04523,99.14658,36.52745,25.29894a5.36275,5.36275,0,1,0-3.82875,2.03882L73.243,101.23316a2.16858,2.16858,0,0,0,3.80225-2.08658Z"/><path class="i" d="M77.04523,99.14658,36.52745,25.29894a5.36275,5.36275,0,1,0-3.82875,2.03882L73.243,101.23316a2.16858,2.16858,0,0,0,3.80225-2.08658Z"/><path class="j" d="M87.09842,22.73639l5.20546,7.37322a1.61925,1.61925,0,0,0,1.80221.61276l8.62092-2.67224a1.61924,1.61924,0,0,1,1.77636,2.51611L99.0996,37.79537a1.61924,1.61924,0,0,0-.02585,1.90336l5.20546,7.37322a1.61924,1.61924,0,0,1-1.844,2.46694L93.89,46.63352a1.61924,1.61924,0,0,0-1.81819.56358L86.668,54.42624a1.61924,1.61924,0,0,1-2.916-.99145L83.87457,44.41a1.61925,1.61925,0,0,0-1.09785-1.555l-8.54518-2.90537a1.61924,1.61924,0,0,1,.04182-3.07969l8.62093-2.67223A1.61925,1.61925,0,0,0,84.034,32.67305l.12256-9.02476A1.61924,1.61924,0,0,1,87.09842,22.73639Z"/><path class="k" d="M87.09842,22.73639l5.20546,7.37322a1.61925,1.61925,0,0,0,1.80221.61276l8.62092-2.67224a1.61924,1.61924,0,0,1,1.77636,2.51611L99.0996,37.79537a1.61924,1.61924,0,0,0-.02585,1.90336l5.20546,7.37322a1.61924,1.61924,0,0,1-1.844,2.46694L93.89,46.63352a1.61924,1.61924,0,0,0-1.81819.56358L86.668,54.42624a1.61924,1.61924,0,0,1-2.916-.99145L83.87457,44.41a1.61925,1.61925,0,0,0-1.09785-1.555l-8.54518-2.90537a1.61924,1.61924,0,0,1,.04182-3.07969l8.62093-2.67223A1.61925,1.61925,0,0,0,84.034,32.67305l.12256-9.02476A1.61924,1.61924,0,0,1,87.09842,22.73639Z"/><circle class="l" cx="93.46493" cy="36.29955" r="2.87713"/><g class="m"><path class="n" d="M90.59349,36.16023s.25749-.376,2.08888-.911a9.84918,9.84918,0,0,1,3.3486-.389l-1.33332-4.30142-5.32846,1.65166Z"/><circle class="o" cx="93.46493" cy="36.29955" r="0.77614"/></g><circle class="p" cx="93.46493" cy="36.29955" r="2.87713"/><ellipse class="l" cx="85.34466" cy="38.8166" rx="2.66012" ry="2.87713" transform="matrix(0.95517, -0.29607, 0.29607, 0.95517, -7.66615, 27.00862)"/><g class="q"><path class="n" d="M82.66785,38.617s.2003-.35833,1.89426-.85066a8.829,8.829,0,0,1,3.14131-.32475l-1.33331-4.30143L81.44354,34.6672Z"/><circle class="o" cx="85.34466" cy="38.8166" r="0.77614"/></g><ellipse class="p" cx="85.34466" cy="38.8166" rx="2.66012" ry="2.87713" transform="matrix(0.95517, -0.29607, 0.29607, 0.95517, -7.66615, 27.00862)"/><path class="r" d="M89.38266,30.48081a39.62839,39.62839,0,0,0,6.71075.73559"/><path class="r" d="M84.94088,34.26382a30.60436,30.60436,0,0,1-4.94783.90235"/><path class="s" d="M88.73951,33.42715c-.22646.53322-.38351,1.10076-.61849,1.6279-.29995.67292-.93979,1.21117-1.14442,1.925-.23356.81479.27711,1.6532.29542,2.50061.01169.54069-.17873,1.07089-.16439,1.61152a1.36894,1.36894,0,0,0,2.29467.94685,4.14167,4.14167,0,0,1,.67572-.69247c.35268-.236.91062-.20676,1.30172-.38409a.68332.68332,0,0,0-.07822-1.28809"/><path class="t" d="M95.9701,39.80718c.59985,2.36859-1.59139,4.3254-3.64292,4.96712-.39924.12489-.806.22394-1.20714.34223a3.25419,3.25419,0,0,0-.83687.23516c.88929-.62244-.25852-1.7-.75746-2.109a.06829.06829,0,0,1-.0305-.04312c-.00223-.03007.03283-.04737.0618-.05571.45077-.12971.91487-.25345,1.36072-.409A16.482,16.482,0,0,0,94.96748,40.747c.23207-.16373,1.05977-.74237.9679-1.06977Q95.95352,39.74175,95.9701,39.80718Z"/><path class="u" d="M90.4429,44.078a7.00942,7.00942,0,0,0,3.46136-1.5338"/><g class="v"><path class="w" d="M137.66307,129.01044,23.48288,122.46617l1.28068-22.3445a4.35411,4.35411,0,0,1,4.59612-4.09783l105.48625,6.046a4.35411,4.35411,0,0,1,4.09782,4.59612Z"/><polygon class="w" points="29.398 131.329 29.885 122.833 23.237 122.152 29.398 131.329"/><polygon class="w" points="29.398 131.329 5.891 129.981 14.402 121.646 6.899 112.393 23.741 113.358 23.237 122.152 29.398 131.329"/><polygon class="w" points="130.164 138.059 130.699 128.718 137.779 129.124 130.164 138.059"/><polygon class="w" points="130.164 138.059 155.133 139.49 147.163 129.662 156.203 120.808 138.314 119.783 137.779 129.124 130.164 138.059"/></g><path class="x" d="M137.66307,129.01044,23.48288,122.46617l1.28068-22.3445a4.35411,4.35411,0,0,1,4.59612-4.09783l105.48625,6.046a4.35411,4.35411,0,0,1,4.09782,4.59612Z"/><polygon class="x" points="29.398 131.329 29.885 122.833 23.237 122.152 29.398 131.329"/><polygon class="x" points="29.398 131.329 5.891 129.981 14.402 121.646 6.899 112.393 23.741 113.358 23.237 122.152 29.398 131.329"/><polygon class="x" points="130.164 138.059 130.699 128.718 137.779 129.124 130.164 138.059"/><polygon class="x" points="130.164 138.059 155.133 139.49 147.163 129.662 156.203 120.808 138.314 119.783 137.779 129.124 130.164 138.059"/><path class="y" d="M137.66307,129.01044,23.48288,122.46617l1.28068-22.3445a4.35411,4.35411,0,0,1,4.59612-4.09783l105.48625,6.046a4.35411,4.35411,0,0,1,4.09782,4.59612Z"/><polygon class="z" points="29.398 131.329 29.885 122.833 23.237 122.152 29.398 131.329"/><polygon class="y" points="29.398 131.329 5.891 129.981 14.402 121.646 6.899 112.393 23.741 113.358 23.237 122.152 29.398 131.329"/><polygon class="z" points="130.164 138.059 130.699 128.718 137.779 129.124 130.164 138.059"/><polygon class="y" points="130.164 138.059 155.133 139.49 147.163 129.662 156.203 120.808 138.314 119.783 137.779 129.124 130.164 138.059"/><path class="aa" d="M137.66307,129.01044,23.48288,122.46617l1.28068-22.3445a4.35411,4.35411,0,0,1,4.59612-4.09783l105.48625,6.046a4.35411,4.35411,0,0,1,4.09782,4.59612Z"/><polygon class="aa" points="29.398 131.329 29.885 122.833 23.237 122.152 29.398 131.329"/><polygon class="aa" points="29.398 131.329 5.891 129.981 14.402 121.646 6.899 112.393 23.741 113.358 23.237 122.152 29.398 131.329"/><polygon class="aa" points="130.164 138.059 130.699 128.718 137.779 129.124 130.164 138.059"/><polygon class="aa" points="130.164 138.059 155.133 139.49 147.163 129.662 156.203 120.808 138.314 119.783 137.779 129.124 130.164 138.059"/><g class="ab"><path class="ac" d="M53.79117,115.35082a.3844.3844,0,0,1-.14453.28711.4114.4114,0,0,1-.291.10156l-1.65136-.09472a.609.609,0,0,1-.31934-.09668.8888.8888,0,0,1-.19727-.17871c-.04882-.06153-.08007-.09961-.09179-.11426l-3.64551-5.86621a2.74431,2.74431,0,0,0-.97656,1.21484,4.96472,4.96472,0,0,0-.3252,1.54883l-.15332,2.67187a.50335.50335,0,0,1-.14844.34766.44374.44374,0,0,1-.35156.11621l-1.33691-.07617a.45086.45086,0,0,1-.3252-.15625.47636.47636,0,0,1-.11719-.36231l.1543-2.6914a6.75916,6.75916,0,0,1,.60156-2.60742,4.68975,4.68975,0,0,1,1.8418-1.84571l-1.76953-2.84277a.66656.66656,0,0,1-.08008-.31836.40336.40336,0,0,1,.13477-.28906.37322.37322,0,0,1,.28222-.10157l1.5918.09083a.78463.78463,0,0,1,.60742.41015l3.36035,5.33692a2.17618,2.17618,0,0,0,1.03125-.97461,4.185,4.185,0,0,0,.28907-1.41309l.14648-2.55371a.49839.49839,0,0,1,.14746-.34766.44955.44955,0,0,1,.35156-.11816l1.415.08105a.43975.43975,0,0,1,.3252.167.49336.49336,0,0,1,.11816.35253l-.15234,2.65137a5.205,5.205,0,0,1-.60254,2.252,4.67152,4.67152,0,0,1-1.93164,1.72363l2.11328,3.374A.521.521,0,0,1,53.79117,115.35082Z"/><path class="ac" d="M58.60367,108.11547q-.06885,1.19825.54883,1.41113l.61914.21289a.46217.46217,0,0,1,.23242.24024.81313.81313,0,0,1,.06641.38867l-.02149.72851a.434.434,0,0,1-.25879.37891.8495.8495,0,0,1-.55664.06641l-.7959-.2041a2.25376,2.25376,0,0,1-1.51171-1.14063,4.17184,4.17184,0,0,1-.45606-2.3623l.1543-2.69239a.53486.53486,0,0,1,.167-.335.44074.44074,0,0,1,.332-.10937l3.793.21777a4.64365,4.64365,0,0,1,3.501,1.50195,5.55059,5.55059,0,0,1,1.08789,3.7295c.00488.13085,0,.34765-.01758.64941q-.02784.47022-.05762.667a5.56288,5.56288,0,0,1-1.50683,3.58106,4.646,4.646,0,0,1-3.65039,1.09082l-3.55665-.2041a.46934.46934,0,0,1-.44433-.499l.07031-1.2373a.45941.45941,0,0,1,.15723-.32617.453.453,0,0,1,.34179-.11817l3.458.19824a2.45646,2.45646,0,0,0,1.92871-.6289,3.14493,3.14493,0,0,0,.86621-2.03028q.03077-.19482.05567-.627.02343-.41308.01562-.61133a3.05472,3.05472,0,0,0-.61914-2.11523,2.49008,2.49008,0,0,0-1.85351-.84473l-2.02344-.11621Z"/><path class="ac" d="M67.57047,116.41723a.45881.45881,0,0,1-.11817-.34375l.58887-10.27539a.44328.44328,0,0,1,.15723-.33594.47129.47129,0,0,1,.34082-.10938l1.65039.09473a.4642.4642,0,0,1,.33691.14746.46959.46959,0,0,1,.1084.35156L70.046,116.22289a.47767.47767,0,0,1-.14746.32715.44873.44873,0,0,1-.35254.11719l-1.65039-.09473A.45522.45522,0,0,1,67.57047,116.41723Z"/><path class="ac" d="M78.4943,117.0432a.45713.45713,0,0,1-.11719-.34277l.335-5.85547a2.47893,2.47893,0,0,0-2.65039-2.95117l-2.751-.1582a.47369.47369,0,0,1-.3457-.15821.45476.45476,0,0,1-.11817-.34082l.06641-1.16015a.45449.45449,0,0,1,.15625-.3252.48073.48073,0,0,1,.36231-.11816l2.86914.165a5.69252,5.69252,0,0,1,3.84277,1.39257,4.65663,4.65663,0,0,1,1.08887,3.69922l-.34082,5.9541a.4834.4834,0,0,1-.14649.32813.45.45,0,0,1-.35254.11719l-1.57129-.09082A.45409.45409,0,0,1,78.4943,117.0432Z"/><path class="ac" d="M93.25211,117.88891a.45792.45792,0,0,1-.11817-.34278l.335-5.85547a2.47892,2.47892,0,0,0-2.65039-2.95117l-2.751-.1582a.47824.47824,0,0,1-.34571-.15723.45749.45749,0,0,1-.11816-.34082l.06641-1.16015a.45663.45663,0,0,1,.15625-.32618.48207.48207,0,0,1,.3623-.11816l2.86914.165a5.69248,5.69248,0,0,1,3.84278,1.39258,4.65687,4.65687,0,0,1,1.08984,3.69922l-.34082,5.9541a.48.48,0,0,1-.14746.32812.44994.44994,0,0,1-.35254.11719l-1.57129-.09082A.45023.45023,0,0,1,93.25211,117.88891Z"/><path class="ac" d="M107.20035,107.70727a.45259.45259,0,0,1,.11914.34179l-.06641,1.16016a.45537.45537,0,0,1-.15722.32519.48312.48312,0,0,1-.36133.11719l-1.042-.05957a2.45347,2.45347,0,0,0-.44727.94043,6.51824,6.51824,0,0,0-.21777,1.3877l-.36328,6.32714a.38094.38094,0,0,1-.17285.29493.55067.55067,0,0,1-.36231.10742l-1.57129-.09082a.41983.41983,0,0,1-.30859-.13477.43345.43345,0,0,1-.09961-.32129l.37305-6.50488a3.83658,3.83658,0,0,1,.57714-2.1543l-4.95214-.28418a.47077.47077,0,0,1-.44434-.498l.06641-1.16016a.44652.44652,0,0,1,.15722-.33594.4759.4759,0,0,1,.3418-.10839l8.58691.49218A.47322.47322,0,0,1,107.20035,107.70727Z"/><path class="ac" d="M108.9523,118.78832a.45275.45275,0,0,1-.11816-.34277l.58887-10.27637a.44652.44652,0,0,1,.15722-.33594.47738.47738,0,0,1,.3418-.1084l4.2041.24121a5.68705,5.68705,0,0,1,3.87207,1.4043,4.79211,4.79211,0,0,1,1.07715,3.76758l-.33691,5.875a.47581.47581,0,0,1-.14747.32812.44992.44992,0,0,1-.35253.11719l-1.57227-.09082a.46778.46778,0,0,1-.44336-.498l.335-5.85547a2.47869,2.47869,0,0,0-2.64941-2.95118l-2.06446-.11816-.49511,8.64551a.46953.46953,0,0,1-.14746.32715.4421.4421,0,0,1-.35059.11718l-1.57227-.08984A.45471.45471,0,0,1,108.9523,118.78832Z"/></g><path class="ad" d="M53.79117,115.35082a.3844.3844,0,0,1-.14453.28711.4114.4114,0,0,1-.291.10156l-1.65136-.09472a.609.609,0,0,1-.31934-.09668.8888.8888,0,0,1-.19727-.17871c-.04882-.06153-.08007-.09961-.09179-.11426l-3.64551-5.86621a2.74431,2.74431,0,0,0-.97656,1.21484,4.96472,4.96472,0,0,0-.3252,1.54883l-.15332,2.67187a.50335.50335,0,0,1-.14844.34766.44374.44374,0,0,1-.35156.11621l-1.33691-.07617a.45086.45086,0,0,1-.3252-.15625.47636.47636,0,0,1-.11719-.36231l.1543-2.6914a6.75916,6.75916,0,0,1,.60156-2.60742,4.68975,4.68975,0,0,1,1.8418-1.84571l-1.76953-2.84277a.66656.66656,0,0,1-.08008-.31836.40336.40336,0,0,1,.13477-.28906.37322.37322,0,0,1,.28222-.10157l1.5918.09083a.78463.78463,0,0,1,.60742.41015l3.36035,5.33692a2.17618,2.17618,0,0,0,1.03125-.97461,4.185,4.185,0,0,0,.28907-1.41309l.14648-2.55371a.49839.49839,0,0,1,.14746-.34766.44955.44955,0,0,1,.35156-.11816l1.415.08105a.43975.43975,0,0,1,.3252.167.49336.49336,0,0,1,.11816.35253l-.15234,2.65137a5.205,5.205,0,0,1-.60254,2.252,4.67152,4.67152,0,0,1-1.93164,1.72363l2.11328,3.374A.521.521,0,0,1,53.79117,115.35082Z"/><path class="ad" d="M58.60367,108.11547q-.06885,1.19825.54883,1.41113l.61914.21289a.46217.46217,0,0,1,.23242.24024.81313.81313,0,0,1,.06641.38867l-.02149.72851a.434.434,0,0,1-.25879.37891.8495.8495,0,0,1-.55664.06641l-.7959-.2041a2.25376,2.25376,0,0,1-1.51171-1.14063,4.17184,4.17184,0,0,1-.45606-2.3623l.1543-2.69239a.53486.53486,0,0,1,.167-.335.44074.44074,0,0,1,.332-.10937l3.793.21777a4.64365,4.64365,0,0,1,3.501,1.50195,5.55059,5.55059,0,0,1,1.08789,3.7295c.00488.13085,0,.34765-.01758.64941q-.02784.47022-.05762.667a5.56288,5.56288,0,0,1-1.50683,3.58106,4.646,4.646,0,0,1-3.65039,1.09082l-3.55665-.2041a.46934.46934,0,0,1-.44433-.499l.07031-1.2373a.45941.45941,0,0,1,.15723-.32617.453.453,0,0,1,.34179-.11817l3.458.19824a2.45646,2.45646,0,0,0,1.92871-.6289,3.14493,3.14493,0,0,0,.86621-2.03028q.03077-.19482.05567-.627.02343-.41308.01562-.61133a3.05472,3.05472,0,0,0-.61914-2.11523,2.49008,2.49008,0,0,0-1.85351-.84473l-2.02344-.11621Z"/><path class="ad" d="M67.57047,116.41723a.45881.45881,0,0,1-.11817-.34375l.58887-10.27539a.44328.44328,0,0,1,.15723-.33594.47129.47129,0,0,1,.34082-.10938l1.65039.09473a.4642.4642,0,0,1,.33691.14746.46959.46959,0,0,1,.1084.35156L70.046,116.22289a.47767.47767,0,0,1-.14746.32715.44873.44873,0,0,1-.35254.11719l-1.65039-.09473A.45522.45522,0,0,1,67.57047,116.41723Z"/><path class="ad" d="M78.4943,117.0432a.45713.45713,0,0,1-.11719-.34277l.335-5.85547a2.47893,2.47893,0,0,0-2.65039-2.95117l-2.751-.1582a.47369.47369,0,0,1-.3457-.15821.45476.45476,0,0,1-.11817-.34082l.06641-1.16015a.45449.45449,0,0,1,.15625-.3252.48073.48073,0,0,1,.36231-.11816l2.86914.165a5.69252,5.69252,0,0,1,3.84277,1.39257,4.65663,4.65663,0,0,1,1.08887,3.69922l-.34082,5.9541a.4834.4834,0,0,1-.14649.32813.45.45,0,0,1-.35254.11719l-1.57129-.09082A.45409.45409,0,0,1,78.4943,117.0432Z"/><path class="ad" d="M93.25211,117.88891a.45792.45792,0,0,1-.11817-.34278l.335-5.85547a2.47892,2.47892,0,0,0-2.65039-2.95117l-2.751-.1582a.47824.47824,0,0,1-.34571-.15723.45749.45749,0,0,1-.11816-.34082l.06641-1.16015a.45663.45663,0,0,1,.15625-.32618.48207.48207,0,0,1,.3623-.11816l2.86914.165a5.69248,5.69248,0,0,1,3.84278,1.39258,4.65687,4.65687,0,0,1,1.08984,3.69922l-.34082,5.9541a.48.48,0,0,1-.14746.32812.44994.44994,0,0,1-.35254.11719l-1.57129-.09082A.45023.45023,0,0,1,93.25211,117.88891Z"/><path class="ad" d="M107.20035,107.70727a.45259.45259,0,0,1,.11914.34179l-.06641,1.16016a.45537.45537,0,0,1-.15722.32519.48312.48312,0,0,1-.36133.11719l-1.042-.05957a2.45347,2.45347,0,0,0-.44727.94043,6.51824,6.51824,0,0,0-.21777,1.3877l-.36328,6.32714a.38094.38094,0,0,1-.17285.29493.55067.55067,0,0,1-.36231.10742l-1.57129-.09082a.41983.41983,0,0,1-.30859-.13477.43345.43345,0,0,1-.09961-.32129l.37305-6.50488a3.83658,3.83658,0,0,1,.57714-2.1543l-4.95214-.28418a.47077.47077,0,0,1-.44434-.498l.06641-1.16016a.44652.44652,0,0,1,.15722-.33594.4759.4759,0,0,1,.3418-.10839l8.58691.49218A.47322.47322,0,0,1,107.20035,107.70727Z"/><path class="ad" d="M108.9523,118.78832a.45275.45275,0,0,1-.11816-.34277l.58887-10.27637a.44652.44652,0,0,1,.15722-.33594.47738.47738,0,0,1,.3418-.1084l4.2041.24121a5.68705,5.68705,0,0,1,3.87207,1.4043,4.79211,4.79211,0,0,1,1.07715,3.76758l-.33691,5.875a.47581.47581,0,0,1-.14747.32812.44992.44992,0,0,1-.35253.11719l-1.57227-.09082a.46778.46778,0,0,1-.44336-.498l.335-5.85547a2.47869,2.47869,0,0,0-2.64941-2.95118l-2.06446-.11816-.49511,8.64551a.46953.46953,0,0,1-.14746.32715.4421.4421,0,0,1-.35059.11718l-1.57227-.08984A.45471.45471,0,0,1,108.9523,118.78832Z"/></svg>