<svg xmlns="http://www.w3.org/2000/svg" xmlns:xlink="http://www.w3.org/1999/xlink" viewBox="0 0 162.48885 145.34776"><defs><style>.a,.l{fill:#f6f6f6;}.a,.n,.p,.r,.s,.t,.u{stroke:#2d2a28;}.a,.f,.g,.h,.j,.p,.r,.s{stroke-miterlimit:10;}.a,.n,.p,.s,.t,.u{stroke-width:0.52261px;}.aa,.ac,.b,.c,.e,.f,.g,.h,.j,.p,.r,.u,.w,.x{fill:none;}.b,.f,.j{stroke:#29235c;}.aa,.b,.c,.e,.f,.g,.h,.n,.r,.s,.t,.u,.w,.x{stroke-linecap:round;}.aa,.b,.c,.e,.n,.t,.u,.w,.x{stroke-linejoin:round;}.b,.f{stroke-width:11.40351px;}.b,.f,.j,.v{opacity:0.14;}.c,.g,.x{stroke:#fff;}.c{stroke-width:8.14536px;}.d{fill:#1ac179;}.e{stroke:#17995e;stroke-width:1.62907px;}.g{stroke-width:8.9599px;}.h{stroke:#b2b2b2;stroke-width:3.25815px;}.i{fill:#dadada;}.j{stroke-width:3.00306px;}.k,.n,.s{fill:#f9b233;}.m{clip-path:url(#a);}.o{fill:#2d2a28;}.q{clip-path:url(#b);}.r{stroke-width:0.97989px;}.ad,.t{fill:#fff;}.w{stroke:#37615a;stroke-width:11.51446px;}.x{stroke-width:8.22461px;}.y{fill:#f9766d;}.z{fill:#d55a64;}.aa{stroke:#d55a64;stroke-width:1.64492px;}.ab{opacity:0.2;}.ac{stroke:#1f3366;stroke-width:2px;}</style><clipPath id="a"><circle class="a" cx="93.46493" cy="36.29955" r="2.87713"/></clipPath><clipPath id="b"><ellipse class="a" cx="85.34466" cy="38.8166" rx="2.66012" ry="2.87713" transform="matrix(0.95517, -0.29607, 0.29607, 0.95517, -7.66615, 27.00862)"/></clipPath></defs><path class="b" d="M45.47349,34.87179c2.12615-4.80241,4.92507-9.52006,9.24088-12.513,4.36929-3.03,9.85781-3.98408,15.17276-4.13532s10.63951.41982,15.94614.08633a47.30313,47.30313,0,0,0,29.1382-12.60808,50.0999,50.0999,0,0,0,21.17374,38.38542,35.9106,35.9106,0,0,1-24.18452,13.9669c-7.14755.85417-14.48136-.47292-21.54148.9313A28.96473,28.96473,0,0,0,68.28493,80.81181Z"/><path class="c" d="M45.47349,34.87179c2.12615-4.80241,4.92507-9.52006,9.24088-12.513,4.36929-3.03,9.85781-3.98408,15.17276-4.13532s10.63951.41982,15.94614.08633a47.30313,47.30313,0,0,0,29.1382-12.60808,50.0999,50.0999,0,0,0,21.17374,38.38542,35.9106,35.9106,0,0,1-24.18452,13.9669c-7.14755.85417-14.48136-.47292-21.54148.9313A28.96473,28.96473,0,0,0,68.28493,80.81181Z"/><path class="d" d="M45.47349,34.87179c2.12615-4.80241,4.92507-9.52006,9.24088-12.513,4.36929-3.03,9.85781-3.98408,15.17276-4.13532s10.63951.41982,15.94614.08633a47.30313,47.30313,0,0,0,29.1382-12.60808,50.0999,50.0999,0,0,0,21.17374,38.38542,35.9106,35.9106,0,0,1-24.18452,13.9669c-7.14755.85417-14.48136-.47292-21.54148.9313A28.96473,28.96473,0,0,0,68.28493,80.81181Z"/><path class="e" d="M45.47349,34.87179c2.12615-4.80241,4.92507-9.52006,9.24088-12.513,4.36929-3.03,9.85781-3.98408,15.17276-4.13532s10.63951.41982,15.94614.08633a47.30313,47.30313,0,0,0,29.1382-12.60808,50.0999,50.0999,0,0,0,21.17374,38.38542,35.9106,35.9106,0,0,1-24.18452,13.9669c-7.14755.85417-14.48136-.47292-21.54148.9313A28.96473,28.96473,0,0,0,68.28493,80.81181Z"/><path class="f" d="M77.04523,99.14658,36.52745,25.29894a5.36275,5.36275,0,1,0-3.82875,2.03882L73.243,101.23316a2.16858,2.16858,0,0,0,3.80225-2.08658Z"/><path class="g" d="M77.04523,99.14658,36.52745,25.29894a5.36275,5.36275,0,1,0-3.82875,2.03882L73.243,101.23316a2.16858,2.16858,0,0,0,3.80225-2.08658Z"/><path class="h" d="M77.04523,99.14658,36.52745,25.29894a5.36275,5.36275,0,1,0-3.82875,2.03882L73.243,101.23316a2.16858,2.16858,0,0,0,3.80225-2.08658Z"/><path class="i" d="M77.04523,99.14658,36.52745,25.29894a5.36275,5.36275,0,1,0-3.82875,2.03882L73.243,101.23316a2.16858,2.16858,0,0,0,3.80225-2.08658Z"/><path class="j" d="M87.09842,22.73639l5.20546,7.37322a1.61925,1.61925,0,0,0,1.80221.61276l8.62092-2.67224a1.61924,1.61924,0,0,1,1.77636,2.51611L99.0996,37.79537a1.61924,1.61924,0,0,0-.02585,1.90336l5.20546,7.37322a1.61924,1.61924,0,0,1-1.844,2.46694L93.89,46.63352a1.61924,1.61924,0,0,0-1.81819.56358L86.668,54.42624a1.61924,1.61924,0,0,1-2.916-.99145L83.87457,44.41a1.61925,1.61925,0,0,0-1.09785-1.555l-8.54518-2.90537a1.61924,1.61924,0,0,1,.04182-3.07969l8.62093-2.67223A1.61925,1.61925,0,0,0,84.034,32.67305l.12256-9.02476A1.61924,1.61924,0,0,1,87.09842,22.73639Z"/><path class="k" d="M87.09842,22.73639l5.20546,7.37322a1.61925,1.61925,0,0,0,1.80221.61276l8.62092-2.67224a1.61924,1.61924,0,0,1,1.77636,2.51611L99.0996,37.79537a1.61924,1.61924,0,0,0-.02585,1.90336l5.20546,7.37322a1.61924,1.61924,0,0,1-1.844,2.46694L93.89,46.63352a1.61924,1.61924,0,0,0-1.81819.56358L86.668,54.42624a1.61924,1.61924,0,0,1-2.916-.99145L83.87457,44.41a1.61925,1.61925,0,0,0-1.09785-1.555l-8.54518-2.90537a1.61924,1.61924,0,0,1,.04182-3.07969l8.62093-2.67223A1.61925,1.61925,0,0,0,84.034,32.67305l.12256-9.02476A1.61924,1.61924,0,0,1,87.09842,22.73639Z"/><circle class="l" cx="93.46493" cy="36.29955" r="2.87713"/><g class="m"><path class="n" d="M90.59349,36.16023s.25749-.376,2.08888-.911a9.84918,9.84918,0,0,1,3.3486-.389l-1.33332-4.30142-5.32846,1.65166Z"/><circle class="o" cx="93.46493" cy="36.29955" r="0.77614"/></g><circle class="p" cx="93.46493" cy="36.29955" r="2.87713"/><ellipse class="l" cx="85.34466" cy="38.8166" rx="2.66012" ry="2.87713" transform="matrix(0.95517, -0.29607, 0.29607, 0.95517, -7.66615, 27.00862)"/><g class="q"><path class="n" d="M82.66785,38.617s.2003-.35833,1.89426-.85066a8.829,8.829,0,0,1,3.14131-.32475l-1.33331-4.30143L81.44354,34.6672Z"/><circle class="o" cx="85.34466" cy="38.8166" r="0.77614"/></g><ellipse class="p" cx="85.34466" cy="38.8166" rx="2.66012" ry="2.87713" transform="matrix(0.95517, -0.29607, 0.29607, 0.95517, -7.66615, 27.00862)"/><path class="r" d="M89.38266,30.48081a39.62839,39.62839,0,0,0,6.71075.73559"/><path class="r" d="M84.94088,34.26382a30.60436,30.60436,0,0,1-4.94783.90235"/><path class="s" d="M88.73951,33.42715c-.22646.53322-.38351,1.10076-.61849,1.6279-.29995.67292-.93979,1.21117-1.14442,1.925-.23356.81479.27711,1.6532.29542,2.50061.01169.54069-.17873,1.07089-.16439,1.61152a1.36894,1.36894,0,0,0,2.29467.94685,4.14167,4.14167,0,0,1,.67572-.69247c.35268-.236.91062-.20676,1.30172-.38409a.68332.68332,0,0,0-.07822-1.28809"/><path class="t" d="M95.9701,39.80718c.59985,2.36859-1.59139,4.3254-3.64292,4.96712-.39924.12489-.806.22394-1.20714.34223a3.25419,3.25419,0,0,0-.83687.23516c.88929-.62244-.25852-1.7-.75746-2.109a.06829.06829,0,0,1-.0305-.04312c-.00223-.03007.03283-.04737.0618-.05571.45077-.12971.91487-.25345,1.36072-.409A16.482,16.482,0,0,0,94.96748,40.747c.23207-.16373,1.05977-.74237.9679-1.06977Q95.95352,39.74175,95.9701,39.80718Z"/><path class="u" d="M90.4429,44.078a7.00942,7.00942,0,0,0,3.46136-1.5338"/><g class="v"><path class="w" d="M137.66307,129.01044,23.48288,122.46617l1.28068-22.3445a4.35411,4.35411,0,0,1,4.59612-4.09783l105.48625,6.046a4.35411,4.35411,0,0,1,4.09782,4.59612Z"/><polygon class="w" points="29.398 131.329 29.885 122.833 23.237 122.152 29.398 131.329"/><polygon class="w" points="29.398 131.329 5.891 129.981 14.402 121.646 6.899 112.393 23.741 113.358 23.237 122.152 29.398 131.329"/><polygon class="w" points="130.164 138.059 130.699 128.718 137.779 129.124 130.164 138.059"/><polygon class="w" points="130.164 138.059 155.133 139.49 147.163 129.662 156.203 120.808 138.314 119.783 137.779 129.124 130.164 138.059"/></g><path class="x" d="M137.66307,129.01044,23.48288,122.46617l1.28068-22.3445a4.35411,4.35411,0,0,1,4.59612-4.09783l105.48625,6.046a4.35411,4.35411,0,0,1,4.09782,4.59612Z"/><polygon class="x" points="29.398 131.329 29.885 122.833 23.237 122.152 29.398 131.329"/><polygon class="x" points="29.398 131.329 5.891 129.981 14.402 121.646 6.899 112.393 23.741 113.358 23.237 122.152 29.398 131.329"/><polygon class="x" points="130.164 138.059 130.699 128.718 137.779 129.124 130.164 138.059"/><polygon class="x" points="130.164 138.059 155.133 139.49 147.163 129.662 156.203 120.808 138.314 119.783 137.779 129.124 130.164 138.059"/><path class="y" d="M137.66307,129.01044,23.48288,122.46617l1.28068-22.3445a4.35411,4.35411,0,0,1,4.59612-4.09783l105.48625,6.046a4.35411,4.35411,0,0,1,4.09782,4.59612Z"/><polygon class="z" points="29.398 131.329 29.885 122.833 23.237 122.152 29.398 131.329"/><polygon class="y" points="29.398 131.329 5.891 129.981 14.402 121.646 6.899 112.393 23.741 113.358 23.237 122.152 29.398 131.329"/><polygon class="z" points="130.164 138.059 130.699 128.718 137.779 129.124 130.164 138.059"/><polygon class="y" points="130.164 138.059 155.133 139.49 147.163 129.662 156.203 120.808 138.314 119.783 137.779 129.124 130.164 138.059"/><path class="aa" d="M137.66307,129.01044,23.48288,122.46617l1.28068-22.3445a4.35411,4.35411,0,0,1,4.59612-4.09783l105.48625,6.046a4.35411,4.35411,0,0,1,4.09782,4.59612Z"/><polygon class="aa" points="29.398 131.329 29.885 122.833 23.237 122.152 29.398 131.329"/><polygon class="aa" points="29.398 131.329 5.891 129.981 14.402 121.646 6.899 112.393 23.741 113.358 23.237 122.152 29.398 131.329"/><polygon class="aa" points="130.164 138.059 130.699 128.718 137.779 129.124 130.164 138.059"/><polygon class="aa" points="130.164 138.059 155.133 139.49 147.163 129.662 156.203 120.808 138.314 119.783 137.779 129.124 130.164 138.059"/><g class="ab"><path class="ac" d="M32.85869,114.427a.45271.45271,0,0,1-.11816-.34277l.58886-10.27637a.44656.44656,0,0,1,.15723-.33594.47732.47732,0,0,1,.3418-.10839l4.08789.23437a5.57154,5.57154,0,0,1,3.793,1.37988,4.70687,4.70687,0,0,1,1.05957,3.708l-.33985,5.93457a.485.485,0,0,1-.1582.34668.45492.45492,0,0,1-.3418.11719l-8.74414-.501A.45467.45467,0,0,1,32.85869,114.427Zm7.22559-1.55761.24218-4.22461a2.46988,2.46988,0,0,0-2.62988-2.9502l-2.16211-.124-.40234,7.01465Z"/><path class="ac" d="M45.28642,110.52563a.44925.44925,0,0,1-.11816-.3418l.3252-5.67871a.4465.4465,0,0,1,.15722-.33594.47354.47354,0,0,1,.34082-.1084l1.6709.0957a.44019.44019,0,0,1,.44336.499l-.3252,5.67773a.46887.46887,0,0,1-.14648.32715.44826.44826,0,0,1-.35156.11816l-1.6709-.0957A.45185.45185,0,0,1,45.28642,110.52563Z"/><path class="ac" d="M57.6917,105.93383a5.56735,5.56735,0,0,1,.88086,3.89453,5.7922,5.7922,0,0,1-1.585,3.93164,7.39968,7.39968,0,0,1-3.58106,1.94434l-.82129.208a.3516.3516,0,0,1-.34863-.09863.449.449,0,0,1-.13672-.36328l.082-1.43457a.51968.51968,0,0,1,.14746-.32617.7578.7578,0,0,1,.35645-.21582l.70508-.23633a3.44414,3.44414,0,0,0,2.58691-3.53809,4.74124,4.74124,0,0,0-.14844-1.71386,1.61146,1.61146,0,0,0-.77343-.94141A3.824,3.824,0,0,0,53.47,106.678l-.53028-.03027-.0791-.00489-2.19922-.14551a.49491.49491,0,0,1-.34668-.14843.42281.42281,0,0,1-.11914-.333l.22754-3.96875a.45751.45751,0,0,1,.15723-.32617.48441.48441,0,0,1,.36133-.11719l1.43457.082a.44156.44156,0,0,1,.44433.499l-.1289,2.25977,1.35644.07813A4.86553,4.86553,0,0,1,57.6917,105.93383Z"/><path class="ac" d="M60.64287,116.01977a.45583.45583,0,0,1-.11719-.34278l.58887-10.27636a.44908.44908,0,0,1,.15625-.33594.473.473,0,0,1,.3418-.1084L63.263,105.05a.44281.44281,0,0,1,.44433.499l-.58886,10.27637a.48.48,0,0,1-.14747.32812.44133.44133,0,0,1-.35156.11622L60.969,116.176A.45843.45843,0,0,1,60.64287,116.01977Z"/><path class="ac" d="M68.31963,108.67211c-.0459.79883.13769,1.27051.5498,1.41113l.61914.21289a.46067.46067,0,0,1,.23242.24121.80707.80707,0,0,1,.06641.3877l-.02246.72851a.433.433,0,0,1-.25781.37891.85034.85034,0,0,1-.55664.06641l-.7959-.20313a2.25591,2.25591,0,0,1-1.51172-1.1416,4.16037,4.16037,0,0,1-.45606-2.36133l.1543-2.69238a.535.535,0,0,1,.167-.33594.442.442,0,0,1,.332-.10937l3.793.21777a4.64363,4.64363,0,0,1,3.501,1.50195,5.552,5.552,0,0,1,1.08691,3.7295c.00489.13183,0,.34765-.01757.64941-.01856.31348-.03809.53711-.05762.667a5.56,5.56,0,0,1-1.50586,3.58106,4.646,4.646,0,0,1-3.65039,1.09082l-3.55664-.2041a.46764.46764,0,0,1-.44531-.498l.07031-1.23731a.47263.47263,0,0,1,.5-.44531l3.458.19824a2.45894,2.45894,0,0,0,1.92871-.6289,3.14392,3.14392,0,0,0,.86523-2.0293c.02051-.12988.03906-.33984.05567-.62793q.02343-.41309.01562-.61035a3.0556,3.0556,0,0,0-.61816-2.11621,2.49344,2.49344,0,0,0-1.85352-.84473l-2.02441-.11621Z"/><path class="ac" d="M77.43291,112.3684a.44919.44919,0,0,1-.11817-.3418l.3252-5.67871a.4449.4449,0,0,1,.15723-.33594.47421.47421,0,0,1,.34082-.10937l1.67089.09668a.44.44,0,0,1,.44336.498L79.927,112.176a.47481.47481,0,0,1-.14649.32714.44422.44422,0,0,1-.35156.11719l-1.6709-.0957A.45084.45084,0,0,1,77.43291,112.3684Z"/><path class="ac" d="M83.45049,116.39965a4.8334,4.8334,0,0,1-1.07129-3.66992l.34961-6.08985a.44326.44326,0,0,1,.15722-.33593.4727.4727,0,0,1,.34082-.10938l1.416.08106a.44155.44155,0,0,1,.44336.499l-.34375,5.99316a2.7593,2.7593,0,0,0,.60937,2.10547,2.93022,2.93022,0,0,0,2.082.82813,2.77014,2.77014,0,0,0,2.07129-.542,2.83778,2.83778,0,0,0,.81153-1.9541l.10058-1.749a3.5489,3.5489,0,0,0-.41308-2.083,1.65994,1.65994,0,0,0-1.375-.7793,2.69742,2.69742,0,0,0-.67285.06055,2.32074,2.32074,0,0,0-.64356.21875.32571.32571,0,0,1-.20019.04785.39775.39775,0,0,1-.26954-.124.368.368,0,0,1-.10156-.292l.0625-1.08008a1.14037,1.14037,0,0,1,.08106-.38965.48154.48154,0,0,1,.27148-.24023,3.3371,3.3371,0,0,1,.84277-.28809,4.74144,4.74144,0,0,1,1.166-.05176,3.75151,3.75151,0,0,1,2.93359,1.28321,5.36761,5.36761,0,0,1,.79493,3.50488c.00586.13183-.00879.5-.043,1.10254s-.0625.96777-.084,1.09863a4.97576,4.97576,0,0,1-1.50879,3.46191,5.39484,5.39484,0,0,1-3.94922.97657A5.41324,5.41324,0,0,1,83.45049,116.39965Z"/><path class="ac" d="M104.5999,118.5393a.45716.45716,0,0,1-.11719-.34278l.335-5.85547a2.47892,2.47892,0,0,0-2.65039-2.95117l-2.751-.1582a.4765.4765,0,0,1-.34571-.15723.45613.45613,0,0,1-.11816-.34082l.06641-1.16015a.45663.45663,0,0,1,.15625-.32618.48076.48076,0,0,1,.3623-.11816l2.86914.165a5.69243,5.69243,0,0,1,3.84277,1.39258,4.65663,4.65663,0,0,1,1.08887,3.69922l-.34082,5.9541a.48338.48338,0,0,1-.14648.32812.44994.44994,0,0,1-.35254.11719l-1.57129-.09082A.45408.45408,0,0,1,104.5999,118.5393Z"/><path class="ac" d="M118.54814,108.35766a.45251.45251,0,0,1,.11914.34179l-.0664,1.16016a.45538.45538,0,0,1-.15723.32519.48311.48311,0,0,1-.36133.11719l-1.042-.05957a2.45347,2.45347,0,0,0-.44727.94043,6.51824,6.51824,0,0,0-.21777,1.3877l-.36328,6.32715a.38091.38091,0,0,1-.17285.29492.55054.55054,0,0,1-.36231.10742l-1.57129-.09082a.41983.41983,0,0,1-.30859-.13477.434.434,0,0,1-.10059-.32129l.373-6.50488a3.83547,3.83547,0,0,1,.57813-2.1543l-4.95215-.28418a.47079.47079,0,0,1-.44434-.498l.06641-1.16016a.44652.44652,0,0,1,.15723-.33594.47447.47447,0,0,1,.34179-.10839l8.58692.49218A.4732.4732,0,0,1,118.54814,108.35766Z"/><path class="ac" d="M120.3001,119.43871a.45272.45272,0,0,1-.11817-.34277l.58887-10.27637a.44652.44652,0,0,1,.15723-.33594.47637.47637,0,0,1,.34082-.1084l4.20507.24122a5.687,5.687,0,0,1,3.87207,1.40429,4.79207,4.79207,0,0,1,1.07715,3.76758l-.33691,5.875a.47585.47585,0,0,1-.14746.32813.44994.44994,0,0,1-.35254.11718l-1.57227-.09082a.46779.46779,0,0,1-.44336-.498l.335-5.85547a2.47868,2.47868,0,0,0-2.64941-2.95117l-2.06445-.11817-.49512,8.64551a.46945.46945,0,0,1-.14746.32715.44553.44553,0,0,1-.35059.11718l-1.57324-.08984A.45431.45431,0,0,1,120.3001,119.43871Z"/></g><path class="ad" d="M32.85869,114.427a.45271.45271,0,0,1-.11816-.34277l.58886-10.27637a.44656.44656,0,0,1,.15723-.33594.47732.47732,0,0,1,.3418-.10839l4.08789.23437a5.57154,5.57154,0,0,1,3.793,1.37988,4.70687,4.70687,0,0,1,1.05957,3.708l-.33985,5.93457a.485.485,0,0,1-.1582.34668.45492.45492,0,0,1-.3418.11719l-8.74414-.501A.45467.45467,0,0,1,32.85869,114.427Zm7.22559-1.55761.24218-4.22461a2.46988,2.46988,0,0,0-2.62988-2.9502l-2.16211-.124-.40234,7.01465Z"/><path class="ad" d="M45.28642,110.52563a.44925.44925,0,0,1-.11816-.3418l.3252-5.67871a.4465.4465,0,0,1,.15722-.33594.47354.47354,0,0,1,.34082-.1084l1.6709.0957a.44019.44019,0,0,1,.44336.499l-.3252,5.67773a.46887.46887,0,0,1-.14648.32715.44826.44826,0,0,1-.35156.11816l-1.6709-.0957A.45185.45185,0,0,1,45.28642,110.52563Z"/><path class="ad" d="M57.6917,105.93383a5.56735,5.56735,0,0,1,.88086,3.89453,5.7922,5.7922,0,0,1-1.585,3.93164,7.39968,7.39968,0,0,1-3.58106,1.94434l-.82129.208a.3516.3516,0,0,1-.34863-.09863.449.449,0,0,1-.13672-.36328l.082-1.43457a.51968.51968,0,0,1,.14746-.32617.7578.7578,0,0,1,.35645-.21582l.70508-.23633a3.44414,3.44414,0,0,0,2.58691-3.53809,4.74124,4.74124,0,0,0-.14844-1.71386,1.61146,1.61146,0,0,0-.77343-.94141A3.824,3.824,0,0,0,53.47,106.678l-.53028-.03027-.0791-.00489-2.19922-.14551a.49491.49491,0,0,1-.34668-.14843.42281.42281,0,0,1-.11914-.333l.22754-3.96875a.45751.45751,0,0,1,.15723-.32617.48441.48441,0,0,1,.36133-.11719l1.43457.082a.44156.44156,0,0,1,.44433.499l-.1289,2.25977,1.35644.07813A4.86553,4.86553,0,0,1,57.6917,105.93383Z"/><path class="ad" d="M60.64287,116.01977a.45583.45583,0,0,1-.11719-.34278l.58887-10.27636a.44908.44908,0,0,1,.15625-.33594.473.473,0,0,1,.3418-.1084L63.263,105.05a.44281.44281,0,0,1,.44433.499l-.58886,10.27637a.48.48,0,0,1-.14747.32812.44133.44133,0,0,1-.35156.11622L60.969,116.176A.45843.45843,0,0,1,60.64287,116.01977Z"/><path class="ad" d="M68.31963,108.67211c-.0459.79883.13769,1.27051.5498,1.41113l.61914.21289a.46067.46067,0,0,1,.23242.24121.80707.80707,0,0,1,.06641.3877l-.02246.72851a.433.433,0,0,1-.25781.37891.85034.85034,0,0,1-.55664.06641l-.7959-.20313a2.25591,2.25591,0,0,1-1.51172-1.1416,4.16037,4.16037,0,0,1-.45606-2.36133l.1543-2.69238a.535.535,0,0,1,.167-.33594.442.442,0,0,1,.332-.10937l3.793.21777a4.64363,4.64363,0,0,1,3.501,1.50195,5.552,5.552,0,0,1,1.08691,3.7295c.00489.13183,0,.34765-.01757.64941-.01856.31348-.03809.53711-.05762.667a5.56,5.56,0,0,1-1.50586,3.58106,4.646,4.646,0,0,1-3.65039,1.09082l-3.55664-.2041a.46764.46764,0,0,1-.44531-.498l.07031-1.23731a.47263.47263,0,0,1,.5-.44531l3.458.19824a2.45894,2.45894,0,0,0,1.92871-.6289,3.14392,3.14392,0,0,0,.86523-2.0293c.02051-.12988.03906-.33984.05567-.62793q.02343-.41309.01562-.61035a3.0556,3.0556,0,0,0-.61816-2.11621,2.49344,2.49344,0,0,0-1.85352-.84473l-2.02441-.11621Z"/><path class="ad" d="M77.43291,112.3684a.44919.44919,0,0,1-.11817-.3418l.3252-5.67871a.4449.4449,0,0,1,.15723-.33594.47421.47421,0,0,1,.34082-.10937l1.67089.09668a.44.44,0,0,1,.44336.498L79.927,112.176a.47481.47481,0,0,1-.14649.32714.44422.44422,0,0,1-.35156.11719l-1.6709-.0957A.45084.45084,0,0,1,77.43291,112.3684Z"/><path class="ad" d="M83.45049,116.39965a4.8334,4.8334,0,0,1-1.07129-3.66992l.34961-6.08985a.44326.44326,0,0,1,.15722-.33593.4727.4727,0,0,1,.34082-.10938l1.416.08106a.44155.44155,0,0,1,.44336.499l-.34375,5.99316a2.7593,2.7593,0,0,0,.60937,2.10547,2.93022,2.93022,0,0,0,2.082.82813,2.77014,2.77014,0,0,0,2.07129-.542,2.83778,2.83778,0,0,0,.81153-1.9541l.10058-1.749a3.5489,3.5489,0,0,0-.41308-2.083,1.65994,1.65994,0,0,0-1.375-.7793,2.69742,2.69742,0,0,0-.67285.06055,2.32074,2.32074,0,0,0-.64356.21875.32571.32571,0,0,1-.20019.04785.39775.39775,0,0,1-.26954-.124.368.368,0,0,1-.10156-.292l.0625-1.08008a1.14037,1.14037,0,0,1,.08106-.38965.48154.48154,0,0,1,.27148-.24023,3.3371,3.3371,0,0,1,.84277-.28809,4.74144,4.74144,0,0,1,1.166-.05176,3.75151,3.75151,0,0,1,2.93359,1.28321,5.36761,5.36761,0,0,1,.79493,3.50488c.00586.13183-.00879.5-.043,1.10254s-.0625.96777-.084,1.09863a4.97576,4.97576,0,0,1-1.50879,3.46191,5.39484,5.39484,0,0,1-3.94922.97657A5.41324,5.41324,0,0,1,83.45049,116.39965Z"/><path class="ad" d="M104.5999,118.5393a.45716.45716,0,0,1-.11719-.34278l.335-5.85547a2.47892,2.47892,0,0,0-2.65039-2.95117l-2.751-.1582a.4765.4765,0,0,1-.34571-.15723.45613.45613,0,0,1-.11816-.34082l.06641-1.16015a.45663.45663,0,0,1,.15625-.32618.48076.48076,0,0,1,.3623-.11816l2.86914.165a5.69243,5.69243,0,0,1,3.84277,1.39258,4.65663,4.65663,0,0,1,1.08887,3.69922l-.34082,5.9541a.48338.48338,0,0,1-.14648.32812.44994.44994,0,0,1-.35254.11719l-1.57129-.09082A.45408.45408,0,0,1,104.5999,118.5393Z"/><path class="ad" d="M118.54814,108.35766a.45251.45251,0,0,1,.11914.34179l-.0664,1.16016a.45538.45538,0,0,1-.15723.32519.48311.48311,0,0,1-.36133.11719l-1.042-.05957a2.45347,2.45347,0,0,0-.44727.94043,6.51824,6.51824,0,0,0-.21777,1.3877l-.36328,6.32715a.38091.38091,0,0,1-.17285.29492.55054.55054,0,0,1-.36231.10742l-1.57129-.09082a.41983.41983,0,0,1-.30859-.13477.434.434,0,0,1-.10059-.32129l.373-6.50488a3.83547,3.83547,0,0,1,.57813-2.1543l-4.95215-.28418a.47079.47079,0,0,1-.44434-.498l.06641-1.16016a.44652.44652,0,0,1,.15723-.33594.47447.47447,0,0,1,.34179-.10839l8.58692.49218A.4732.4732,0,0,1,118.54814,108.35766Z"/><path class="ad" d="M120.3001,119.43871a.45272.45272,0,0,1-.11817-.34277l.58887-10.27637a.44652.44652,0,0,1,.15723-.33594.47637.47637,0,0,1,.34082-.1084l4.20507.24122a5.687,5.687,0,0,1,3.87207,1.40429,4.79207,4.79207,0,0,1,1.07715,3.76758l-.33691,5.875a.47585.47585,0,0,1-.14746.32813.44994.44994,0,0,1-.35254.11718l-1.57227-.09082a.46779.46779,0,0,1-.44336-.498l.335-5.85547a2.47868,2.47868,0,0,0-2.64941-2.95117l-2.06445-.11817-.49512,8.64551a.46945.46945,0,0,1-.14746.32715.44553.44553,0,0,1-.35059.11718l-1.57324-.08984A.45431.45431,0,0,1,120.3001,119.43871Z"/></svg>