<svg xmlns="http://www.w3.org/2000/svg" xmlns:xlink="http://www.w3.org/1999/xlink" viewBox="0 0 162.48885 145.34776"><defs><style>.a,.l{fill:#f6f6f6;}.a,.n,.p,.r,.s,.t,.u{stroke:#2d2a28;}.a,.f,.g,.h,.j,.p,.r,.s{stroke-miterlimit:10;}.a,.n,.p,.s,.t,.u{stroke-width:0.52261px;}.aa,.ac,.b,.c,.e,.f,.g,.h,.j,.p,.r,.u,.w,.x{fill:none;}.b,.f,.j{stroke:#29235c;}.aa,.b,.c,.e,.f,.g,.h,.n,.r,.s,.t,.u,.w,.x{stroke-linecap:round;}.aa,.b,.c,.e,.n,.t,.u,.w,.x{stroke-linejoin:round;}.b,.f{stroke-width:11.40351px;}.b,.f,.j,.v{opacity:0.14;}.c,.g,.x{stroke:#fff;}.c{stroke-width:8.14536px;}.d{fill:#1ac179;}.e{stroke:#17995e;stroke-width:1.62907px;}.g{stroke-width:8.9599px;}.h{stroke:#b2b2b2;stroke-width:3.25815px;}.i{fill:#dadada;}.j{stroke-width:3.00306px;}.k,.n,.s{fill:#f9b233;}.m{clip-path:url(#a);}.o{fill:#2d2a28;}.q{clip-path:url(#b);}.r{stroke-width:0.97989px;}.ad,.t{fill:#fff;}.w{stroke:#37615a;stroke-width:11.51446px;}.x{stroke-width:8.22461px;}.y{fill:#f9766d;}.z{fill:#d55a64;}.aa{stroke:#d55a64;stroke-width:1.64492px;}.ab{opacity:0.2;}.ac{stroke:#1f3366;stroke-width:2px;}</style><clipPath id="a"><circle class="a" cx="93.46493" cy="36.29955" r="2.87713"/></clipPath><clipPath id="b"><ellipse class="a" cx="85.34466" cy="38.8166" rx="2.66012" ry="2.87713" transform="translate(-7.66615 27.00862) rotate(-17.22191)"/></clipPath></defs><path class="b" d="M45.47349,34.87179c2.12615-4.80241,4.92507-9.52006,9.24088-12.513,4.36929-3.03,9.85781-3.98408,15.17276-4.13532s10.63951.41982,15.94614.08633a47.30313,47.30313,0,0,0,29.1382-12.60808,50.0999,50.0999,0,0,0,21.17374,38.38542,35.9106,35.9106,0,0,1-24.18452,13.9669c-7.14755.85417-14.48136-.47292-21.54148.9313A28.96473,28.96473,0,0,0,68.28493,80.81181Z"/><path class="c" d="M45.47349,34.87179c2.12615-4.80241,4.92507-9.52006,9.24088-12.513,4.36929-3.03,9.85781-3.98408,15.17276-4.13532s10.63951.41982,15.94614.08633a47.30313,47.30313,0,0,0,29.1382-12.60808,50.0999,50.0999,0,0,0,21.17374,38.38542,35.9106,35.9106,0,0,1-24.18452,13.9669c-7.14755.85417-14.48136-.47292-21.54148.9313A28.96473,28.96473,0,0,0,68.28493,80.81181Z"/><path class="d" d="M45.47349,34.87179c2.12615-4.80241,4.92507-9.52006,9.24088-12.513,4.36929-3.03,9.85781-3.98408,15.17276-4.13532s10.63951.41982,15.94614.08633a47.30313,47.30313,0,0,0,29.1382-12.60808,50.0999,50.0999,0,0,0,21.17374,38.38542,35.9106,35.9106,0,0,1-24.18452,13.9669c-7.14755.85417-14.48136-.47292-21.54148.9313A28.96473,28.96473,0,0,0,68.28493,80.81181Z"/><path class="e" d="M45.47349,34.87179c2.12615-4.80241,4.92507-9.52006,9.24088-12.513,4.36929-3.03,9.85781-3.98408,15.17276-4.13532s10.63951.41982,15.94614.08633a47.30313,47.30313,0,0,0,29.1382-12.60808,50.0999,50.0999,0,0,0,21.17374,38.38542,35.9106,35.9106,0,0,1-24.18452,13.9669c-7.14755.85417-14.48136-.47292-21.54148.9313A28.96473,28.96473,0,0,0,68.28493,80.81181Z"/><path class="f" d="M77.04523,99.14658,36.52745,25.29894a5.36275,5.36275,0,1,0-3.82875,2.03882L73.243,101.23316a2.16858,2.16858,0,0,0,3.80225-2.08658Z"/><path class="g" d="M77.04523,99.14658,36.52745,25.29894a5.36275,5.36275,0,1,0-3.82875,2.03882L73.243,101.23316a2.16858,2.16858,0,0,0,3.80225-2.08658Z"/><path class="h" d="M77.04523,99.14658,36.52745,25.29894a5.36275,5.36275,0,1,0-3.82875,2.03882L73.243,101.23316a2.16858,2.16858,0,0,0,3.80225-2.08658Z"/><path class="i" d="M77.04523,99.14658,36.52745,25.29894a5.36275,5.36275,0,1,0-3.82875,2.03882L73.243,101.23316a2.16858,2.16858,0,0,0,3.80225-2.08658Z"/><path class="j" d="M87.09842,22.73639l5.20546,7.37322a1.61925,1.61925,0,0,0,1.80221.61276l8.62092-2.67224a1.61924,1.61924,0,0,1,1.77636,2.51611L99.0996,37.79537a1.61924,1.61924,0,0,0-.02585,1.90336l5.20546,7.37322a1.61924,1.61924,0,0,1-1.844,2.46694L93.89,46.63352a1.61924,1.61924,0,0,0-1.81819.56358L86.668,54.42624a1.61924,1.61924,0,0,1-2.916-.99145L83.87457,44.41a1.61925,1.61925,0,0,0-1.09785-1.555l-8.54518-2.90537a1.61924,1.61924,0,0,1,.04182-3.07969l8.62093-2.67223A1.61925,1.61925,0,0,0,84.034,32.67305l.12256-9.02476A1.61924,1.61924,0,0,1,87.09842,22.73639Z"/><path class="k" d="M87.09842,22.73639l5.20546,7.37322a1.61925,1.61925,0,0,0,1.80221.61276l8.62092-2.67224a1.61924,1.61924,0,0,1,1.77636,2.51611L99.0996,37.79537a1.61924,1.61924,0,0,0-.02585,1.90336l5.20546,7.37322a1.61924,1.61924,0,0,1-1.844,2.46694L93.89,46.63352a1.61924,1.61924,0,0,0-1.81819.56358L86.668,54.42624a1.61924,1.61924,0,0,1-2.916-.99145L83.87457,44.41a1.61925,1.61925,0,0,0-1.09785-1.555l-8.54518-2.90537a1.61924,1.61924,0,0,1,.04182-3.07969l8.62093-2.67223A1.61925,1.61925,0,0,0,84.034,32.67305l.12256-9.02476A1.61924,1.61924,0,0,1,87.09842,22.73639Z"/><circle class="l" cx="93.46493" cy="36.29955" r="2.87713"/><g class="m"><path class="n" d="M90.59349,36.16023s.25749-.376,2.08888-.911a9.84918,9.84918,0,0,1,3.3486-.389l-1.33332-4.30142-5.32846,1.65166Z"/><circle class="o" cx="93.46493" cy="36.29955" r="0.77614"/></g><circle class="p" cx="93.46493" cy="36.29955" r="2.87713"/><ellipse class="l" cx="85.34466" cy="38.8166" rx="2.66012" ry="2.87713" transform="translate(-7.66615 27.00862) rotate(-17.22191)"/><g class="q"><path class="n" d="M82.66785,38.617s.2003-.35833,1.89426-.85066a8.829,8.829,0,0,1,3.14131-.32475l-1.33331-4.30143L81.44354,34.6672Z"/><circle class="o" cx="85.34466" cy="38.8166" r="0.77614"/></g><ellipse class="p" cx="85.34466" cy="38.8166" rx="2.66012" ry="2.87713" transform="translate(-7.66615 27.00862) rotate(-17.22191)"/><path class="r" d="M89.38266,30.48081a39.62839,39.62839,0,0,0,6.71075.73559"/><path class="r" d="M84.94088,34.26382a30.60436,30.60436,0,0,1-4.94783.90235"/><path class="s" d="M88.73951,33.42715c-.22646.53322-.38351,1.10076-.61849,1.6279-.29995.67292-.93979,1.21117-1.14442,1.925-.23356.81479.27711,1.6532.29542,2.50061.01169.54069-.17873,1.07089-.16439,1.61152a1.36894,1.36894,0,0,0,2.29467.94685,4.14167,4.14167,0,0,1,.67572-.69247c.35268-.236.91062-.20676,1.30172-.38409a.68332.68332,0,0,0-.07822-1.28809"/><path class="t" d="M95.9701,39.80718c.59985,2.36859-1.59139,4.3254-3.64292,4.96712-.39924.12489-.806.22394-1.20714.34223a3.25419,3.25419,0,0,0-.83687.23516c.88929-.62244-.25852-1.7-.75746-2.109a.06829.06829,0,0,1-.0305-.04312c-.00223-.03007.03283-.04737.0618-.05571.45077-.12971.91487-.25345,1.36072-.409A16.482,16.482,0,0,0,94.96748,40.747c.23207-.16373,1.05977-.74237.9679-1.06977Q95.95352,39.74175,95.9701,39.80718Z"/><path class="u" d="M90.4429,44.078a7.00942,7.00942,0,0,0,3.46136-1.5338"/><g class="v"><path class="w" d="M137.66307,129.01044,23.48288,122.46617l1.28068-22.3445a4.35411,4.35411,0,0,1,4.59612-4.09783l105.48625,6.046a4.35411,4.35411,0,0,1,4.09782,4.59612Z"/><polygon class="w" points="29.398 131.329 29.885 122.833 23.237 122.152 29.398 131.329"/><polygon class="w" points="29.398 131.329 5.891 129.981 14.402 121.646 6.899 112.393 23.741 113.358 23.237 122.152 29.398 131.329"/><polygon class="w" points="130.164 138.059 130.699 128.718 137.779 129.124 130.164 138.059"/><polygon class="w" points="130.164 138.059 155.133 139.49 147.163 129.662 156.203 120.808 138.314 119.783 137.779 129.124 130.164 138.059"/></g><path class="x" d="M137.66307,129.01044,23.48288,122.46617l1.28068-22.3445a4.35411,4.35411,0,0,1,4.59612-4.09783l105.48625,6.046a4.35411,4.35411,0,0,1,4.09782,4.59612Z"/><polygon class="x" points="29.398 131.329 29.885 122.833 23.237 122.152 29.398 131.329"/><polygon class="x" points="29.398 131.329 5.891 129.981 14.402 121.646 6.899 112.393 23.741 113.358 23.237 122.152 29.398 131.329"/><polygon class="x" points="130.164 138.059 130.699 128.718 137.779 129.124 130.164 138.059"/><polygon class="x" points="130.164 138.059 155.133 139.49 147.163 129.662 156.203 120.808 138.314 119.783 137.779 129.124 130.164 138.059"/><path class="y" d="M137.66307,129.01044,23.48288,122.46617l1.28068-22.3445a4.35411,4.35411,0,0,1,4.59612-4.09783l105.48625,6.046a4.35411,4.35411,0,0,1,4.09782,4.59612Z"/><polygon class="z" points="29.398 131.329 29.885 122.833 23.237 122.152 29.398 131.329"/><polygon class="y" points="29.398 131.329 5.891 129.981 14.402 121.646 6.899 112.393 23.741 113.358 23.237 122.152 29.398 131.329"/><polygon class="z" points="130.164 138.059 130.699 128.718 137.779 129.124 130.164 138.059"/><polygon class="y" points="130.164 138.059 155.133 139.49 147.163 129.662 156.203 120.808 138.314 119.783 137.779 129.124 130.164 138.059"/><path class="aa" d="M137.66307,129.01044,23.48288,122.46617l1.28068-22.3445a4.35411,4.35411,0,0,1,4.59612-4.09783l105.48625,6.046a4.35411,4.35411,0,0,1,4.09782,4.59612Z"/><polygon class="aa" points="29.398 131.329 29.885 122.833 23.237 122.152 29.398 131.329"/><polygon class="aa" points="29.398 131.329 5.891 129.981 14.402 121.646 6.899 112.393 23.741 113.358 23.237 122.152 29.398 131.329"/><polygon class="aa" points="130.164 138.059 130.699 128.718 137.779 129.124 130.164 138.059"/><polygon class="aa" points="130.164 138.059 155.133 139.49 147.163 129.662 156.203 120.808 138.314 119.783 137.779 129.124 130.164 138.059"/><g class="ab"><path class="ac" d="M34.15641,114.50121a.45272.45272,0,0,1-.11817-.34277l.35352-6.16895a.4486.4486,0,0,1,.15722-.33691.47639.47639,0,0,1,.34082-.1084l1.57325.08984a.44174.44174,0,0,1,.44336.5l-.35352,6.16895a.4676.4676,0,0,1-.14746.32715.43989.43989,0,0,1-.35059.11718l-1.57324-.08984A.45431.45431,0,0,1,34.15641,114.50121Zm7.3291.4209a.45925.45925,0,0,1-.11817-.34277l.335-5.85547a2.46952,2.46952,0,0,0-2.62988-2.9502l-4.06836-.2334a.47088.47088,0,0,1-.44336-.498l.06641-1.16016a.44655.44655,0,0,1,.15722-.33594.4764.4764,0,0,1,.34083-.1084l4.166.23926q5.20752.29736,4.92871,5.1709l-.33691,5.875a.48006.48006,0,0,1-.14746.32813.44473.44473,0,0,1-.35254.11621l-1.57129-.08985A.45191.45191,0,0,1,41.48551,114.92211Z"/><path class="ac" d="M52.50894,115.554a.48256.48256,0,0,1-.36132.11621l-5.77735-.33106a.46934.46934,0,0,1-.44433-.499l.0664-1.15918a.471.471,0,0,1,.498-.44434l3.55664.2041.01855-4.43457a9.83186,9.83186,0,0,0-.09863-1.543,1.57264,1.57264,0,0,0-.43262-.88379,1.60434,1.60434,0,0,0-1.043-.36426l-.90528-.05176a.471.471,0,0,1-.44336-.499l.06543-1.13965a.47079.47079,0,0,1,.49707-.44531l.94434.05468a4.95659,4.95659,0,0,1,2.4541.67286,3.05952,3.05952,0,0,1,1.23731,1.63867,8.3523,8.3523,0,0,1,.33886,2.69043l-.0332,6.08984A.39808.39808,0,0,1,52.50894,115.554Z"/><path class="ac" d="M64.964,106.34008a4.66271,4.66271,0,0,1,1.08985,3.67969l-.34082,5.9541a.48.48,0,0,1-.14747.32812.44675.44675,0,0,1-.35058.11719l-1.57324-.09082a.46941.46941,0,0,1-.44434-.49805l.335-5.85547a2.47786,2.47786,0,0,0-2.64941-2.95117l-1.33594-.07715a13.26319,13.26319,0,0,0-.36816,1.61524,14.4191,14.4191,0,0,0-.15918,1.74609l-.20411,5.27149a.46934.46934,0,0,1-.499.44433l-3.457-.21777a.46935.46935,0,0,1-.44434-.499l.06153-1.08008a.45161.45161,0,0,1,.15722-.33594.476.476,0,0,1,.3418-.1084l1.55078.1084.209-3.65527a16.53683,16.53683,0,0,1,.15234-1.77539,11.19424,11.19424,0,0,1,.37988-1.64356l-1.12011-.06445a.47078.47078,0,0,1-.44434-.498l.06641-1.16016a.44323.44323,0,0,1,.15722-.33593.476.476,0,0,1,.3418-.1084l4.85352.27832A5.63474,5.63474,0,0,1,64.964,106.34008Z"/><path class="ac" d="M77.83023,107.13793a4.87058,4.87058,0,0,1,1.01563,3.61523l-.34082,5.95411a.47906.47906,0,0,1-.14649.32812.44592.44592,0,0,1-.35254.11621l-5.207-.29785a.46934.46934,0,0,1-.44433-.499l.0664-1.15918a.44654.44654,0,0,1,.15723-.33594.47354.47354,0,0,1,.34082-.1084l3.14453.17969.24024-4.18457a3.05752,3.05752,0,0,0-.50391-2.04,1.98741,1.98741,0,0,0-1.55957-.83789l-1.78809-.10254-2.081,8.456a.65149.65149,0,0,1-.19824.34375.45343.45343,0,0,1-.34082.11817l-1.55274-.08887a.40868.40868,0,0,1-.31543-.165.44007.44007,0,0,1-.08886-.35156l2.25878-8.44531-1.15918-.06641a.47264.47264,0,0,1-.44531-.5l.07129-1.2373a.44651.44651,0,0,1,.15723-.33594.47737.47737,0,0,1,.34179-.1084l5.62012.32227A4.2504,4.2504,0,0,1,77.83023,107.13793Z"/><path class="ac" d="M81.217,117.19848a.45276.45276,0,0,1-.11816-.34278l.35351-6.16894a.44868.44868,0,0,1,.15723-.33692.47491.47491,0,0,1,.34082-.10839l1.57324.08984a.44174.44174,0,0,1,.44336.5l-.35351,6.16894a.46949.46949,0,0,1-.14746.32715.44329.44329,0,0,1-.35059.11719l-1.57324-.08984A.45265.45265,0,0,1,81.217,117.19848Zm7.32813.41992a.45973.45973,0,0,1-.11719-.34277l.335-5.85547a2.46939,2.46939,0,0,0-2.63086-2.94922l-4.06738-.2334a.47088.47088,0,0,1-.44336-.498l.06641-1.16015a.4465.4465,0,0,1,.15722-.33594.475.475,0,0,1,.34082-.1084l4.166.23926q5.20752.29736,4.92773,5.1709l-.33691,5.875a.47906.47906,0,0,1-.14649.32812.44467.44467,0,0,1-.35254.11621l-1.57128-.08984A.45684.45684,0,0,1,88.54508,117.6184Z"/><path class="ac" d="M103.30387,118.46508a.45792.45792,0,0,1-.11817-.34278l.335-5.85546a2.47869,2.47869,0,0,0-2.64941-2.95118l-2.752-.1582a.47541.47541,0,0,1-.34571-.1582.45481.45481,0,0,1-.11816-.34082l.0664-1.16016a.45847.45847,0,0,1,.15625-.32617.48545.48545,0,0,1,.36231-.11719l2.86914.165a5.69243,5.69243,0,0,1,3.84277,1.39258,4.65684,4.65684,0,0,1,1.08985,3.69922l-.34082,5.9541a.48006.48006,0,0,1-.14746.32812.44994.44994,0,0,1-.35254.11719l-1.57129-.09082A.45017.45017,0,0,1,103.30387,118.46508Z"/><path class="ac" d="M117.25211,108.28246a.45617.45617,0,0,1,.11914.34277l-.06641,1.16016a.45541.45541,0,0,1-.15722.3252.48177.48177,0,0,1-.36133.11718l-1.041-.05957a2.43925,2.43925,0,0,0-.44824.94043,6.51822,6.51822,0,0,0-.21777,1.38672l-.36328,6.32813a.38125.38125,0,0,1-.17286.29492.55051.55051,0,0,1-.3623.10742l-1.57129-.09082a.4235.4235,0,0,1-.30859-.13477.43755.43755,0,0,1-.09961-.32128l.373-6.50489a3.84306,3.84306,0,0,1,.57715-2.15527l-4.95215-.2832a.47079.47079,0,0,1-.44433-.49805l.0664-1.16016a.44652.44652,0,0,1,.15723-.33593.47586.47586,0,0,1,.3418-.1084l8.58691.49218A.47432.47432,0,0,1,117.25211,108.28246Z"/><path class="ac" d="M119.00308,119.36449a.45659.45659,0,0,1-.11816-.34277l.58887-10.27637a.44652.44652,0,0,1,.15722-.33594.473.473,0,0,1,.3418-.10839l4.20508.24023a5.6864,5.6864,0,0,1,3.87109,1.40527,4.79211,4.79211,0,0,1,1.07715,3.76758l-.33691,5.875a.48006.48006,0,0,1-.14746.32813.449.449,0,0,1-.35157.11718l-1.57324-.09082a.45153.45153,0,0,1-.32519-.15527.45791.45791,0,0,1-.11817-.34277l.335-5.85547a2.47826,2.47826,0,0,0-2.64941-2.95117l-2.06445-.11817-.49512,8.64551a.47354.47354,0,0,1-.14746.32715.44434.44434,0,0,1-.35059.11719l-1.57226-.08985A.45843.45843,0,0,1,119.00308,119.36449Z"/></g><path class="ad" d="M34.15641,114.50121a.45272.45272,0,0,1-.11817-.34277l.35352-6.16895a.4486.4486,0,0,1,.15722-.33691.47639.47639,0,0,1,.34082-.1084l1.57325.08984a.44174.44174,0,0,1,.44336.5l-.35352,6.16895a.4676.4676,0,0,1-.14746.32715.43989.43989,0,0,1-.35059.11718l-1.57324-.08984A.45431.45431,0,0,1,34.15641,114.50121Zm7.3291.4209a.45925.45925,0,0,1-.11817-.34277l.335-5.85547a2.46952,2.46952,0,0,0-2.62988-2.9502l-4.06836-.2334a.47088.47088,0,0,1-.44336-.498l.06641-1.16016a.44655.44655,0,0,1,.15722-.33594.4764.4764,0,0,1,.34083-.1084l4.166.23926q5.20752.29736,4.92871,5.1709l-.33691,5.875a.48006.48006,0,0,1-.14746.32813.44473.44473,0,0,1-.35254.11621l-1.57129-.08985A.45191.45191,0,0,1,41.48551,114.92211Z"/><path class="ad" d="M52.50894,115.554a.48256.48256,0,0,1-.36132.11621l-5.77735-.33106a.46934.46934,0,0,1-.44433-.499l.0664-1.15918a.471.471,0,0,1,.498-.44434l3.55664.2041.01855-4.43457a9.83186,9.83186,0,0,0-.09863-1.543,1.57264,1.57264,0,0,0-.43262-.88379,1.60434,1.60434,0,0,0-1.043-.36426l-.90528-.05176a.471.471,0,0,1-.44336-.499l.06543-1.13965a.47079.47079,0,0,1,.49707-.44531l.94434.05468a4.95659,4.95659,0,0,1,2.4541.67286,3.05952,3.05952,0,0,1,1.23731,1.63867,8.3523,8.3523,0,0,1,.33886,2.69043l-.0332,6.08984A.39808.39808,0,0,1,52.50894,115.554Z"/><path class="ad" d="M64.964,106.34008a4.66271,4.66271,0,0,1,1.08985,3.67969l-.34082,5.9541a.48.48,0,0,1-.14747.32812.44675.44675,0,0,1-.35058.11719l-1.57324-.09082a.46941.46941,0,0,1-.44434-.49805l.335-5.85547a2.47786,2.47786,0,0,0-2.64941-2.95117l-1.33594-.07715a13.26319,13.26319,0,0,0-.36816,1.61524,14.4191,14.4191,0,0,0-.15918,1.74609l-.20411,5.27149a.46934.46934,0,0,1-.499.44433l-3.457-.21777a.46935.46935,0,0,1-.44434-.499l.06153-1.08008a.45161.45161,0,0,1,.15722-.33594.476.476,0,0,1,.3418-.1084l1.55078.1084.209-3.65527a16.53683,16.53683,0,0,1,.15234-1.77539,11.19424,11.19424,0,0,1,.37988-1.64356l-1.12011-.06445a.47078.47078,0,0,1-.44434-.498l.06641-1.16016a.44323.44323,0,0,1,.15722-.33593.476.476,0,0,1,.3418-.1084l4.85352.27832A5.63474,5.63474,0,0,1,64.964,106.34008Z"/><path class="ad" d="M77.83023,107.13793a4.87058,4.87058,0,0,1,1.01563,3.61523l-.34082,5.95411a.47906.47906,0,0,1-.14649.32812.44592.44592,0,0,1-.35254.11621l-5.207-.29785a.46934.46934,0,0,1-.44433-.499l.0664-1.15918a.44654.44654,0,0,1,.15723-.33594.47354.47354,0,0,1,.34082-.1084l3.14453.17969.24024-4.18457a3.05752,3.05752,0,0,0-.50391-2.04,1.98741,1.98741,0,0,0-1.55957-.83789l-1.78809-.10254-2.081,8.456a.65149.65149,0,0,1-.19824.34375.45343.45343,0,0,1-.34082.11817l-1.55274-.08887a.40868.40868,0,0,1-.31543-.165.44007.44007,0,0,1-.08886-.35156l2.25878-8.44531-1.15918-.06641a.47264.47264,0,0,1-.44531-.5l.07129-1.2373a.44651.44651,0,0,1,.15723-.33594.47737.47737,0,0,1,.34179-.1084l5.62012.32227A4.2504,4.2504,0,0,1,77.83023,107.13793Z"/><path class="ad" d="M81.217,117.19848a.45276.45276,0,0,1-.11816-.34278l.35351-6.16894a.44868.44868,0,0,1,.15723-.33692.47491.47491,0,0,1,.34082-.10839l1.57324.08984a.44174.44174,0,0,1,.44336.5l-.35351,6.16894a.46949.46949,0,0,1-.14746.32715.44329.44329,0,0,1-.35059.11719l-1.57324-.08984A.45265.45265,0,0,1,81.217,117.19848Zm7.32813.41992a.45973.45973,0,0,1-.11719-.34277l.335-5.85547a2.46939,2.46939,0,0,0-2.63086-2.94922l-4.06738-.2334a.47088.47088,0,0,1-.44336-.498l.06641-1.16015a.4465.4465,0,0,1,.15722-.33594.475.475,0,0,1,.34082-.1084l4.166.23926q5.20752.29736,4.92773,5.1709l-.33691,5.875a.47906.47906,0,0,1-.14649.32812.44467.44467,0,0,1-.35254.11621l-1.57128-.08984A.45684.45684,0,0,1,88.54508,117.6184Z"/><path class="ad" d="M103.30387,118.46508a.45792.45792,0,0,1-.11817-.34278l.335-5.85546a2.47869,2.47869,0,0,0-2.64941-2.95118l-2.752-.1582a.47541.47541,0,0,1-.34571-.1582.45481.45481,0,0,1-.11816-.34082l.0664-1.16016a.45847.45847,0,0,1,.15625-.32617.48545.48545,0,0,1,.36231-.11719l2.86914.165a5.69243,5.69243,0,0,1,3.84277,1.39258,4.65684,4.65684,0,0,1,1.08985,3.69922l-.34082,5.9541a.48006.48006,0,0,1-.14746.32812.44994.44994,0,0,1-.35254.11719l-1.57129-.09082A.45017.45017,0,0,1,103.30387,118.46508Z"/><path class="ad" d="M117.25211,108.28246a.45617.45617,0,0,1,.11914.34277l-.06641,1.16016a.45541.45541,0,0,1-.15722.3252.48177.48177,0,0,1-.36133.11718l-1.041-.05957a2.43925,2.43925,0,0,0-.44824.94043,6.51822,6.51822,0,0,0-.21777,1.38672l-.36328,6.32813a.38125.38125,0,0,1-.17286.29492.55051.55051,0,0,1-.3623.10742l-1.57129-.09082a.4235.4235,0,0,1-.30859-.13477.43755.43755,0,0,1-.09961-.32128l.373-6.50489a3.84306,3.84306,0,0,1,.57715-2.15527l-4.95215-.2832a.47079.47079,0,0,1-.44433-.49805l.0664-1.16016a.44652.44652,0,0,1,.15723-.33593.47586.47586,0,0,1,.3418-.1084l8.58691.49218A.47432.47432,0,0,1,117.25211,108.28246Z"/><path class="ad" d="M119.00308,119.36449a.45659.45659,0,0,1-.11816-.34277l.58887-10.27637a.44652.44652,0,0,1,.15722-.33594.473.473,0,0,1,.3418-.10839l4.20508.24023a5.6864,5.6864,0,0,1,3.87109,1.40527,4.79211,4.79211,0,0,1,1.07715,3.76758l-.33691,5.875a.48006.48006,0,0,1-.14746.32813.449.449,0,0,1-.35157.11718l-1.57324-.09082a.45153.45153,0,0,1-.32519-.15527.45791.45791,0,0,1-.11817-.34277l.335-5.85547a2.47826,2.47826,0,0,0-2.64941-2.95117l-2.06445-.11817-.49512,8.64551a.47354.47354,0,0,1-.14746.32715.44434.44434,0,0,1-.35059.11719l-1.57226-.08985A.45843.45843,0,0,1,119.00308,119.36449Z"/></svg>