<svg xmlns="http://www.w3.org/2000/svg" xmlns:xlink="http://www.w3.org/1999/xlink" viewBox="0 0 162.48885 145.34776"><defs><style>.a,.l{fill:#f6f6f6;}.a,.n,.p,.r,.s,.t,.u{stroke:#2d2a28;}.a,.f,.g,.h,.j,.p,.r,.s{stroke-miterlimit:10;}.a,.n,.p,.s,.t,.u{stroke-width:0.52261px;}.aa,.ac,.b,.c,.e,.f,.g,.h,.j,.p,.r,.u,.w,.x{fill:none;}.b,.f,.j{stroke:#29235c;}.aa,.b,.c,.e,.f,.g,.h,.n,.r,.s,.t,.u,.w,.x{stroke-linecap:round;}.aa,.b,.c,.e,.n,.t,.u,.w,.x{stroke-linejoin:round;}.b,.f{stroke-width:11.40351px;}.b,.f,.j,.v{opacity:0.14;}.c,.g,.x{stroke:#fff;}.c{stroke-width:8.14536px;}.d{fill:#1ac179;}.e{stroke:#17995e;stroke-width:1.62907px;}.g{stroke-width:8.9599px;}.h{stroke:#b2b2b2;stroke-width:3.25815px;}.i{fill:#dadada;}.j{stroke-width:3.00306px;}.k,.n,.s{fill:#f9b233;}.m{clip-path:url(#a);}.o{fill:#2d2a28;}.q{clip-path:url(#b);}.r{stroke-width:0.97989px;}.ad,.t{fill:#fff;}.w{stroke:#37615a;stroke-width:11.51446px;}.x{stroke-width:8.22461px;}.y{fill:#f9766d;}.z{fill:#d55a64;}.aa{stroke:#d55a64;stroke-width:1.64492px;}.ab{opacity:0.2;}.ac{stroke:#1f3366;stroke-width:2px;}</style><clipPath id="a"><circle class="a" cx="93.46493" cy="36.29955" r="2.87713"/></clipPath><clipPath id="b"><ellipse class="a" cx="85.34466" cy="38.8166" rx="2.66012" ry="2.87713" transform="matrix(0.95517, -0.29607, 0.29607, 0.95517, -7.66615, 27.00862)"/></clipPath></defs><path class="b" d="M45.47349,34.87179c2.12615-4.80241,4.92507-9.52006,9.24088-12.513,4.36929-3.03,9.85781-3.98408,15.17276-4.13532s10.63951.41982,15.94614.08633a47.30313,47.30313,0,0,0,29.1382-12.60808,50.0999,50.0999,0,0,0,21.17374,38.38542,35.9106,35.9106,0,0,1-24.18452,13.9669c-7.14755.85417-14.48136-.47292-21.54148.9313A28.96473,28.96473,0,0,0,68.28493,80.81181Z"/><path class="c" d="M45.47349,34.87179c2.12615-4.80241,4.92507-9.52006,9.24088-12.513,4.36929-3.03,9.85781-3.98408,15.17276-4.13532s10.63951.41982,15.94614.08633a47.30313,47.30313,0,0,0,29.1382-12.60808,50.0999,50.0999,0,0,0,21.17374,38.38542,35.9106,35.9106,0,0,1-24.18452,13.9669c-7.14755.85417-14.48136-.47292-21.54148.9313A28.96473,28.96473,0,0,0,68.28493,80.81181Z"/><path class="d" d="M45.47349,34.87179c2.12615-4.80241,4.92507-9.52006,9.24088-12.513,4.36929-3.03,9.85781-3.98408,15.17276-4.13532s10.63951.41982,15.94614.08633a47.30313,47.30313,0,0,0,29.1382-12.60808,50.0999,50.0999,0,0,0,21.17374,38.38542,35.9106,35.9106,0,0,1-24.18452,13.9669c-7.14755.85417-14.48136-.47292-21.54148.9313A28.96473,28.96473,0,0,0,68.28493,80.81181Z"/><path class="e" d="M45.47349,34.87179c2.12615-4.80241,4.92507-9.52006,9.24088-12.513,4.36929-3.03,9.85781-3.98408,15.17276-4.13532s10.63951.41982,15.94614.08633a47.30313,47.30313,0,0,0,29.1382-12.60808,50.0999,50.0999,0,0,0,21.17374,38.38542,35.9106,35.9106,0,0,1-24.18452,13.9669c-7.14755.85417-14.48136-.47292-21.54148.9313A28.96473,28.96473,0,0,0,68.28493,80.81181Z"/><path class="f" d="M77.04523,99.14658,36.52745,25.29894a5.36275,5.36275,0,1,0-3.82875,2.03882L73.243,101.23316a2.16858,2.16858,0,0,0,3.80225-2.08658Z"/><path class="g" d="M77.04523,99.14658,36.52745,25.29894a5.36275,5.36275,0,1,0-3.82875,2.03882L73.243,101.23316a2.16858,2.16858,0,0,0,3.80225-2.08658Z"/><path class="h" d="M77.04523,99.14658,36.52745,25.29894a5.36275,5.36275,0,1,0-3.82875,2.03882L73.243,101.23316a2.16858,2.16858,0,0,0,3.80225-2.08658Z"/><path class="i" d="M77.04523,99.14658,36.52745,25.29894a5.36275,5.36275,0,1,0-3.82875,2.03882L73.243,101.23316a2.16858,2.16858,0,0,0,3.80225-2.08658Z"/><path class="j" d="M87.09842,22.73639l5.20546,7.37322a1.61925,1.61925,0,0,0,1.80221.61276l8.62092-2.67224a1.61924,1.61924,0,0,1,1.77636,2.51611L99.0996,37.79537a1.61924,1.61924,0,0,0-.02585,1.90336l5.20546,7.37322a1.61924,1.61924,0,0,1-1.844,2.46694L93.89,46.63352a1.61924,1.61924,0,0,0-1.81819.56358L86.668,54.42624a1.61924,1.61924,0,0,1-2.916-.99145L83.87457,44.41a1.61925,1.61925,0,0,0-1.09785-1.555l-8.54518-2.90537a1.61924,1.61924,0,0,1,.04182-3.07969l8.62093-2.67223A1.61925,1.61925,0,0,0,84.034,32.67305l.12256-9.02476A1.61924,1.61924,0,0,1,87.09842,22.73639Z"/><path class="k" d="M87.09842,22.73639l5.20546,7.37322a1.61925,1.61925,0,0,0,1.80221.61276l8.62092-2.67224a1.61924,1.61924,0,0,1,1.77636,2.51611L99.0996,37.79537a1.61924,1.61924,0,0,0-.02585,1.90336l5.20546,7.37322a1.61924,1.61924,0,0,1-1.844,2.46694L93.89,46.63352a1.61924,1.61924,0,0,0-1.81819.56358L86.668,54.42624a1.61924,1.61924,0,0,1-2.916-.99145L83.87457,44.41a1.61925,1.61925,0,0,0-1.09785-1.555l-8.54518-2.90537a1.61924,1.61924,0,0,1,.04182-3.07969l8.62093-2.67223A1.61925,1.61925,0,0,0,84.034,32.67305l.12256-9.02476A1.61924,1.61924,0,0,1,87.09842,22.73639Z"/><circle class="l" cx="93.46493" cy="36.29955" r="2.87713"/><g class="m"><path class="n" d="M90.59349,36.16023s.25749-.376,2.08888-.911a9.84918,9.84918,0,0,1,3.3486-.389l-1.33332-4.30142-5.32846,1.65166Z"/><circle class="o" cx="93.46493" cy="36.29955" r="0.77614"/></g><circle class="p" cx="93.46493" cy="36.29955" r="2.87713"/><ellipse class="l" cx="85.34466" cy="38.8166" rx="2.66012" ry="2.87713" transform="matrix(0.95517, -0.29607, 0.29607, 0.95517, -7.66615, 27.00862)"/><g class="q"><path class="n" d="M82.66785,38.617s.2003-.35833,1.89426-.85066a8.829,8.829,0,0,1,3.14131-.32475l-1.33331-4.30143L81.44354,34.6672Z"/><circle class="o" cx="85.34466" cy="38.8166" r="0.77614"/></g><ellipse class="p" cx="85.34466" cy="38.8166" rx="2.66012" ry="2.87713" transform="matrix(0.95517, -0.29607, 0.29607, 0.95517, -7.66615, 27.00862)"/><path class="r" d="M89.38266,30.48081a39.62839,39.62839,0,0,0,6.71075.73559"/><path class="r" d="M84.94088,34.26382a30.60436,30.60436,0,0,1-4.94783.90235"/><path class="s" d="M88.73951,33.42715c-.22646.53322-.38351,1.10076-.61849,1.6279-.29995.67292-.93979,1.21117-1.14442,1.925-.23356.81479.27711,1.6532.29542,2.50061.01169.54069-.17873,1.07089-.16439,1.61152a1.36894,1.36894,0,0,0,2.29467.94685,4.14167,4.14167,0,0,1,.67572-.69247c.35268-.236.91062-.20676,1.30172-.38409a.68332.68332,0,0,0-.07822-1.28809"/><path class="t" d="M95.9701,39.80718c.59985,2.36859-1.59139,4.3254-3.64292,4.96712-.39924.12489-.806.22394-1.20714.34223a3.25419,3.25419,0,0,0-.83687.23516c.88929-.62244-.25852-1.7-.75746-2.109a.06829.06829,0,0,1-.0305-.04312c-.00223-.03007.03283-.04737.0618-.05571.45077-.12971.91487-.25345,1.36072-.409A16.482,16.482,0,0,0,94.96748,40.747c.23207-.16373,1.05977-.74237.9679-1.06977Q95.95352,39.74175,95.9701,39.80718Z"/><path class="u" d="M90.4429,44.078a7.00942,7.00942,0,0,0,3.46136-1.5338"/><g class="v"><path class="w" d="M137.66307,129.01044,23.48288,122.46617l1.28068-22.3445a4.35411,4.35411,0,0,1,4.59612-4.09783l105.48625,6.046a4.35411,4.35411,0,0,1,4.09782,4.59612Z"/><polygon class="w" points="29.398 131.329 29.885 122.833 23.237 122.152 29.398 131.329"/><polygon class="w" points="29.398 131.329 5.891 129.981 14.402 121.646 6.899 112.393 23.741 113.358 23.237 122.152 29.398 131.329"/><polygon class="w" points="130.164 138.059 130.699 128.718 137.779 129.124 130.164 138.059"/><polygon class="w" points="130.164 138.059 155.133 139.49 147.163 129.662 156.203 120.808 138.314 119.783 137.779 129.124 130.164 138.059"/></g><path class="x" d="M137.66307,129.01044,23.48288,122.46617l1.28068-22.3445a4.35411,4.35411,0,0,1,4.59612-4.09783l105.48625,6.046a4.35411,4.35411,0,0,1,4.09782,4.59612Z"/><polygon class="x" points="29.398 131.329 29.885 122.833 23.237 122.152 29.398 131.329"/><polygon class="x" points="29.398 131.329 5.891 129.981 14.402 121.646 6.899 112.393 23.741 113.358 23.237 122.152 29.398 131.329"/><polygon class="x" points="130.164 138.059 130.699 128.718 137.779 129.124 130.164 138.059"/><polygon class="x" points="130.164 138.059 155.133 139.49 147.163 129.662 156.203 120.808 138.314 119.783 137.779 129.124 130.164 138.059"/><path class="y" d="M137.66307,129.01044,23.48288,122.46617l1.28068-22.3445a4.35411,4.35411,0,0,1,4.59612-4.09783l105.48625,6.046a4.35411,4.35411,0,0,1,4.09782,4.59612Z"/><polygon class="z" points="29.398 131.329 29.885 122.833 23.237 122.152 29.398 131.329"/><polygon class="y" points="29.398 131.329 5.891 129.981 14.402 121.646 6.899 112.393 23.741 113.358 23.237 122.152 29.398 131.329"/><polygon class="z" points="130.164 138.059 130.699 128.718 137.779 129.124 130.164 138.059"/><polygon class="y" points="130.164 138.059 155.133 139.49 147.163 129.662 156.203 120.808 138.314 119.783 137.779 129.124 130.164 138.059"/><path class="aa" d="M137.66307,129.01044,23.48288,122.46617l1.28068-22.3445a4.35411,4.35411,0,0,1,4.59612-4.09783l105.48625,6.046a4.35411,4.35411,0,0,1,4.09782,4.59612Z"/><polygon class="aa" points="29.398 131.329 29.885 122.833 23.237 122.152 29.398 131.329"/><polygon class="aa" points="29.398 131.329 5.891 129.981 14.402 121.646 6.899 112.393 23.741 113.358 23.237 122.152 29.398 131.329"/><polygon class="aa" points="130.164 138.059 130.699 128.718 137.779 129.124 130.164 138.059"/><polygon class="aa" points="130.164 138.059 155.133 139.49 147.163 129.662 156.203 120.808 138.314 119.783 137.779 129.124 130.164 138.059"/><g class="ab"><path class="ac" d="M44.10456,105.14477a4.66269,4.66269,0,0,1,1.08985,3.67968l-.34082,5.9541a.47587.47587,0,0,1-.14746.32813.44682.44682,0,0,1-.35059.11719l-1.57324-.09082a.46943.46943,0,0,1-.44434-.498l.335-5.85547a2.47786,2.47786,0,0,0-2.64941-2.95117l-1.33594-.07715a13.44843,13.44843,0,0,0-.36816,1.61524,14.42112,14.42112,0,0,0-.15918,1.74609l-.20313,5.27051a.47088.47088,0,0,1-.5.44531l-3.457-.21777a.46936.46936,0,0,1-.44434-.499l.06153-1.08008a.449.449,0,0,1,.1582-.33593.47354.47354,0,0,1,.34082-.1084l1.55176.1084.209-3.65528a16.81663,16.81663,0,0,1,.15137-1.77539,11.20528,11.20528,0,0,1,.37988-1.64453l-1.12011-.06347a.47078.47078,0,0,1-.44434-.49805l.06641-1.16016a.44652.44652,0,0,1,.15722-.33594.47591.47591,0,0,1,.3418-.10839l4.85352.27832A5.62812,5.62812,0,0,1,44.10456,105.14477Z"/><path class="ac" d="M47.5655,115.27074a.46334.46334,0,0,1-.11719-.34375l.58887-10.27636a.44534.44534,0,0,1,.15625-.335.47372.47372,0,0,1,.3418-.10937l1.65039.09473a.46019.46019,0,0,1,.33594.14746A.46957.46957,0,0,1,50.63,104.8l-.58886,10.27637a.47356.47356,0,0,1-.14746.32714.44529.44529,0,0,1-.35157.11719l-1.65039-.09472A.45742.45742,0,0,1,47.5655,115.27074Z"/><path class="ac" d="M55.24128,107.92309q-.06885,1.19823.54981,1.41113l.61914.21289a.46222.46222,0,0,1,.23242.24023.80719.80719,0,0,1,.06641.3877l-.02247.72851a.43441.43441,0,0,1-.25781.37989.8503.8503,0,0,1-.55664.06543l-.7959-.20313a2.25161,2.25161,0,0,1-1.51172-1.14062,4.16383,4.16383,0,0,1-.45605-2.36231l.1543-2.69238a.53476.53476,0,0,1,.167-.335.43816.43816,0,0,1,.332-.10938l3.793.2168a4.64362,4.64362,0,0,1,3.501,1.50195,5.55368,5.55368,0,0,1,1.08692,3.7295c.00488.13183,0,.34863-.01758.65039-.01855.31347-.03809.53613-.05762.666a5.55774,5.55774,0,0,1-1.50586,3.58106,4.646,4.646,0,0,1-3.65039,1.09082l-3.55664-.20313a.46925.46925,0,0,1-.44531-.499l.07031-1.23731a.45947.45947,0,0,1,.15723-.32617.45275.45275,0,0,1,.34277-.11816l3.458.19824a2.463,2.463,0,0,0,1.92871-.62988,3.14167,3.14167,0,0,0,.86524-2.0293c.0205-.12988.03906-.33984.05566-.62793q.02345-.41309.01563-.61035a3.05293,3.05293,0,0,0-.61817-2.11523,2.49,2.49,0,0,0-1.85351-.84473l-2.02442-.11621Z"/><path class="ac" d="M64.20808,116.22387a.45974.45974,0,0,1-.11719-.34278l.58887-10.27636a.44908.44908,0,0,1,.15625-.33594.47738.47738,0,0,1,.3418-.1084l1.65039.09473a.46015.46015,0,0,1,.33593.14746.46721.46721,0,0,1,.1084.35058l-.58887,10.27637a.47585.47585,0,0,1-.14746.32813.44525.44525,0,0,1-.35156.11718l-1.65039-.09472A.45474.45474,0,0,1,64.20808,116.22387Z"/><path class="ac" d="M75.13386,116.84984a.4527.4527,0,0,1-.11816-.34277l.335-5.85547a2.47828,2.47828,0,0,0-2.64942-2.95117l-2.751-.15723a.47753.47753,0,0,1-.34668-.1582.45477.45477,0,0,1-.11817-.34082l.06641-1.16016a.45841.45841,0,0,1,.15625-.32617.48775.48775,0,0,1,.36328-.11719l2.86914.16407a5.69278,5.69278,0,0,1,3.8418,1.39355,4.65331,4.65331,0,0,1,1.08984,3.69922l-.34082,5.9541a.47774.47774,0,0,1-.14746.32813.44724.44724,0,0,1-.35156.11621L75.46,117.00609A.45467.45467,0,0,1,75.13386,116.84984Z"/><path class="ac" d="M90.26081,107.79027A4.66273,4.66273,0,0,1,91.35066,111.47l-.34082,5.9541a.47912.47912,0,0,1-.14649.32813.44374.44374,0,0,1-.35156.11621l-1.57227-.08985a.4678.4678,0,0,1-.44433-.499l.335-5.85547a2.47779,2.47779,0,0,0-2.65039-2.95019l-1.335-.07715a13.41871,13.41871,0,0,0-.36914,1.61523,14.42149,14.42149,0,0,0-.15918,1.7461l-.20313,5.2705a.4708.4708,0,0,1-.499.44532l-3.457-.21778a.46927.46927,0,0,1-.44532-.499l.06153-1.08008a.449.449,0,0,1,.1582-.33594.47159.47159,0,0,1,.3418-.10839l1.55078.10839.209-3.65527a16.53967,16.53967,0,0,1,.15235-1.77539,11.32171,11.32171,0,0,1,.3789-1.64453l-1.12011-.06348a.47253.47253,0,0,1-.44434-.498l.06641-1.16016a.444.444,0,0,1,.1582-.33594.46921.46921,0,0,1,.34082-.1084l4.85352.27832A5.62816,5.62816,0,0,1,90.26081,107.79027Z"/><path class="ac" d="M103.37019,118.469a.46106.46106,0,0,1-.11719-.34277l.335-5.85547a2.47892,2.47892,0,0,0-2.65039-2.95117l-2.751-.1582a.47541.47541,0,0,1-.3457-.15821.45471.45471,0,0,1-.11816-.34082l.0664-1.16015a.45843.45843,0,0,1,.15625-.32617.48545.48545,0,0,1,.36231-.11719l2.86914.165a5.69243,5.69243,0,0,1,3.84277,1.39258,4.65661,4.65661,0,0,1,1.08887,3.69921l-.34082,5.95411a.47906.47906,0,0,1-.14649.32812.45.45,0,0,1-.35253.11719l-1.57129-.09082A.45409.45409,0,0,1,103.37019,118.469Z"/><path class="ac" d="M117.31941,108.28637a.45614.45614,0,0,1,.11914.34277l-.06641,1.16016a.45534.45534,0,0,1-.15723.32519.4831.4831,0,0,1-.36132.11719l-1.042-.05957a2.45347,2.45347,0,0,0-.44726.94043,6.51811,6.51811,0,0,0-.21777,1.38672l-.36329,6.32812a.38392.38392,0,0,1-.17285.29492.55058.55058,0,0,1-.3623.10743l-1.57129-.09082a.42352.42352,0,0,1-.3086-.13477.43344.43344,0,0,1-.0996-.32129l.373-6.50488a3.843,3.843,0,0,1,.57715-2.15527l-4.95215-.28321a.47077.47077,0,0,1-.44433-.498l.0664-1.16016a.44654.44654,0,0,1,.15723-.33594.476.476,0,0,1,.3418-.1084l8.58691.49219A.476.476,0,0,1,117.31941,108.28637Z"/><path class="ac" d="M119.07038,119.3684a.45659.45659,0,0,1-.11816-.34277l.58887-10.27637a.4465.4465,0,0,1,.15722-.33594.473.473,0,0,1,.3418-.1084l4.2041.24024a5.68913,5.68913,0,0,1,3.87207,1.40527,4.79211,4.79211,0,0,1,1.07715,3.76758l-.33691,5.875a.48008.48008,0,0,1-.14746.32812.45.45,0,0,1-.35254.11719l-1.57227-.09082a.44982.44982,0,0,1-.32519-.15527.45792.45792,0,0,1-.11817-.34278l.335-5.85547a2.47868,2.47868,0,0,0-2.64941-2.95117l-2.06446-.11816-.49511,8.64551a.47352.47352,0,0,1-.14746.32714.44555.44555,0,0,1-.35059.11719l-1.57226-.08984A.45843.45843,0,0,1,119.07038,119.3684Z"/></g><path class="ad" d="M44.10456,105.14477a4.66269,4.66269,0,0,1,1.08985,3.67968l-.34082,5.9541a.47587.47587,0,0,1-.14746.32813.44682.44682,0,0,1-.35059.11719l-1.57324-.09082a.46943.46943,0,0,1-.44434-.498l.335-5.85547a2.47786,2.47786,0,0,0-2.64941-2.95117l-1.33594-.07715a13.44843,13.44843,0,0,0-.36816,1.61524,14.42112,14.42112,0,0,0-.15918,1.74609l-.20313,5.27051a.47088.47088,0,0,1-.5.44531l-3.457-.21777a.46936.46936,0,0,1-.44434-.499l.06153-1.08008a.449.449,0,0,1,.1582-.33593.47354.47354,0,0,1,.34082-.1084l1.55176.1084.209-3.65528a16.81663,16.81663,0,0,1,.15137-1.77539,11.20528,11.20528,0,0,1,.37988-1.64453l-1.12011-.06347a.47078.47078,0,0,1-.44434-.49805l.06641-1.16016a.44652.44652,0,0,1,.15722-.33594.47591.47591,0,0,1,.3418-.10839l4.85352.27832A5.62812,5.62812,0,0,1,44.10456,105.14477Z"/><path class="ad" d="M47.5655,115.27074a.46334.46334,0,0,1-.11719-.34375l.58887-10.27636a.44534.44534,0,0,1,.15625-.335.47372.47372,0,0,1,.3418-.10937l1.65039.09473a.46019.46019,0,0,1,.33594.14746A.46957.46957,0,0,1,50.63,104.8l-.58886,10.27637a.47356.47356,0,0,1-.14746.32714.44529.44529,0,0,1-.35157.11719l-1.65039-.09472A.45742.45742,0,0,1,47.5655,115.27074Z"/><path class="ad" d="M55.24128,107.92309q-.06885,1.19823.54981,1.41113l.61914.21289a.46222.46222,0,0,1,.23242.24023.80719.80719,0,0,1,.06641.3877l-.02247.72851a.43441.43441,0,0,1-.25781.37989.8503.8503,0,0,1-.55664.06543l-.7959-.20313a2.25161,2.25161,0,0,1-1.51172-1.14062,4.16383,4.16383,0,0,1-.45605-2.36231l.1543-2.69238a.53476.53476,0,0,1,.167-.335.43816.43816,0,0,1,.332-.10938l3.793.2168a4.64362,4.64362,0,0,1,3.501,1.50195,5.55368,5.55368,0,0,1,1.08692,3.7295c.00488.13183,0,.34863-.01758.65039-.01855.31347-.03809.53613-.05762.666a5.55774,5.55774,0,0,1-1.50586,3.58106,4.646,4.646,0,0,1-3.65039,1.09082l-3.55664-.20313a.46925.46925,0,0,1-.44531-.499l.07031-1.23731a.45947.45947,0,0,1,.15723-.32617.45275.45275,0,0,1,.34277-.11816l3.458.19824a2.463,2.463,0,0,0,1.92871-.62988,3.14167,3.14167,0,0,0,.86524-2.0293c.0205-.12988.03906-.33984.05566-.62793q.02345-.41309.01563-.61035a3.05293,3.05293,0,0,0-.61817-2.11523,2.49,2.49,0,0,0-1.85351-.84473l-2.02442-.11621Z"/><path class="ad" d="M64.20808,116.22387a.45974.45974,0,0,1-.11719-.34278l.58887-10.27636a.44908.44908,0,0,1,.15625-.33594.47738.47738,0,0,1,.3418-.1084l1.65039.09473a.46015.46015,0,0,1,.33593.14746.46721.46721,0,0,1,.1084.35058l-.58887,10.27637a.47585.47585,0,0,1-.14746.32813.44525.44525,0,0,1-.35156.11718l-1.65039-.09472A.45474.45474,0,0,1,64.20808,116.22387Z"/><path class="ad" d="M75.13386,116.84984a.4527.4527,0,0,1-.11816-.34277l.335-5.85547a2.47828,2.47828,0,0,0-2.64942-2.95117l-2.751-.15723a.47753.47753,0,0,1-.34668-.1582.45477.45477,0,0,1-.11817-.34082l.06641-1.16016a.45841.45841,0,0,1,.15625-.32617.48775.48775,0,0,1,.36328-.11719l2.86914.16407a5.69278,5.69278,0,0,1,3.8418,1.39355,4.65331,4.65331,0,0,1,1.08984,3.69922l-.34082,5.9541a.47774.47774,0,0,1-.14746.32813.44724.44724,0,0,1-.35156.11621L75.46,117.00609A.45467.45467,0,0,1,75.13386,116.84984Z"/><path class="ad" d="M90.26081,107.79027A4.66273,4.66273,0,0,1,91.35066,111.47l-.34082,5.9541a.47912.47912,0,0,1-.14649.32813.44374.44374,0,0,1-.35156.11621l-1.57227-.08985a.4678.4678,0,0,1-.44433-.499l.335-5.85547a2.47779,2.47779,0,0,0-2.65039-2.95019l-1.335-.07715a13.41871,13.41871,0,0,0-.36914,1.61523,14.42149,14.42149,0,0,0-.15918,1.7461l-.20313,5.2705a.4708.4708,0,0,1-.499.44532l-3.457-.21778a.46927.46927,0,0,1-.44532-.499l.06153-1.08008a.449.449,0,0,1,.1582-.33594.47159.47159,0,0,1,.3418-.10839l1.55078.10839.209-3.65527a16.53967,16.53967,0,0,1,.15235-1.77539,11.32171,11.32171,0,0,1,.3789-1.64453l-1.12011-.06348a.47253.47253,0,0,1-.44434-.498l.06641-1.16016a.444.444,0,0,1,.1582-.33594.46921.46921,0,0,1,.34082-.1084l4.85352.27832A5.62816,5.62816,0,0,1,90.26081,107.79027Z"/><path class="ad" d="M103.37019,118.469a.46106.46106,0,0,1-.11719-.34277l.335-5.85547a2.47892,2.47892,0,0,0-2.65039-2.95117l-2.751-.1582a.47541.47541,0,0,1-.3457-.15821.45471.45471,0,0,1-.11816-.34082l.0664-1.16015a.45843.45843,0,0,1,.15625-.32617.48545.48545,0,0,1,.36231-.11719l2.86914.165a5.69243,5.69243,0,0,1,3.84277,1.39258,4.65661,4.65661,0,0,1,1.08887,3.69921l-.34082,5.95411a.47906.47906,0,0,1-.14649.32812.45.45,0,0,1-.35253.11719l-1.57129-.09082A.45409.45409,0,0,1,103.37019,118.469Z"/><path class="ad" d="M117.31941,108.28637a.45614.45614,0,0,1,.11914.34277l-.06641,1.16016a.45534.45534,0,0,1-.15723.32519.4831.4831,0,0,1-.36132.11719l-1.042-.05957a2.45347,2.45347,0,0,0-.44726.94043,6.51811,6.51811,0,0,0-.21777,1.38672l-.36329,6.32812a.38392.38392,0,0,1-.17285.29492.55058.55058,0,0,1-.3623.10743l-1.57129-.09082a.42352.42352,0,0,1-.3086-.13477.43344.43344,0,0,1-.0996-.32129l.373-6.50488a3.843,3.843,0,0,1,.57715-2.15527l-4.95215-.28321a.47077.47077,0,0,1-.44433-.498l.0664-1.16016a.44654.44654,0,0,1,.15723-.33594.476.476,0,0,1,.3418-.1084l8.58691.49219A.476.476,0,0,1,117.31941,108.28637Z"/><path class="ad" d="M119.07038,119.3684a.45659.45659,0,0,1-.11816-.34277l.58887-10.27637a.4465.4465,0,0,1,.15722-.33594.473.473,0,0,1,.3418-.1084l4.2041.24024a5.68913,5.68913,0,0,1,3.87207,1.40527,4.79211,4.79211,0,0,1,1.07715,3.76758l-.33691,5.875a.48008.48008,0,0,1-.14746.32812.45.45,0,0,1-.35254.11719l-1.57227-.09082a.44982.44982,0,0,1-.32519-.15527.45792.45792,0,0,1-.11817-.34278l.335-5.85547a2.47868,2.47868,0,0,0-2.64941-2.95117l-2.06446-.11816-.49511,8.64551a.47352.47352,0,0,1-.14746.32714.44555.44555,0,0,1-.35059.11719l-1.57226-.08984A.45843.45843,0,0,1,119.07038,119.3684Z"/></svg>