<svg xmlns="http://www.w3.org/2000/svg" xmlns:xlink="http://www.w3.org/1999/xlink" viewBox="0 0 449.93592 449.93592"><defs><style>.a{fill:none;}.b{clip-path:url(#a);}.c{fill:url(#b);}.d{fill:url(#c);}.e{fill:url(#e);}</style><clipPath id="a"><circle class="a" cx="224.96796" cy="224.96796" r="224.96796"/></clipPath><radialGradient id="b" cx="224.84591" cy="224.63143" r="186.77956" gradientUnits="userSpaceOnUse"><stop offset="0.34343" stop-color="#f2bb5f"/><stop offset="0.60125" stop-color="#db735e"/><stop offset="0.73485" stop-color="#d1525e"/><stop offset="0.76997" stop-color="#c45161"/><stop offset="0.83564" stop-color="#a04d67"/><stop offset="0.92397" stop-color="#674872"/><stop offset="1" stop-color="#31437c"/></radialGradient><radialGradient id="c" cx="223.54345" cy="225.14219" r="192.62506" gradientUnits="userSpaceOnUse"><stop offset="0.0101" stop-color="#f2bb5f"/><stop offset="0.27783" stop-color="#f0ba5f"/><stop offset="0.42534" stop-color="#e8b561"/><stop offset="0.54355" stop-color="#daac63"/><stop offset="0.64633" stop-color="#c6a066"/><stop offset="0.73899" stop-color="#ad9069"/><stop offset="0.82448" stop-color="#8e7d6e"/><stop offset="0.90439" stop-color="#696674"/><stop offset="0.97798" stop-color="#3f4c7a"/><stop offset="1" stop-color="#31437c"/></radialGradient><radialGradient id="e" cx="225.586" cy="224.63155" r="186.64301" xlink:href="#b"/></defs><g class="b"><polygon class="c" points="193.038 467.765 225.08 225.047 262.728 464.3 193.038 467.765"/><polygon class="d" points="225.08 225.047 262.728 464.3 328.546 455.768 225.08 225.047"/><polyline class="d" points="225.08 225.047 121.906 455.768 194.284 465.812 225.08 225.047"/><polygon class="e" points="50.545 424.626 225.08 225.047 126.233 447.135 50.545 424.626"/><polygon class="e" points="-7.861 305.618 225.08 225.047 -1.081 380.041 -7.861 305.618"/><polygon class="e" points="-13.116 203.733 225.08 225.047 -23.202 255.501 -13.116 203.733"/><polygon class="e" points="30.379 87.331 225.08 225.047 11.068 154.02 30.379 87.331"/><polygon class="d" points="-1.081 380.041 225.08 225.047 50.545 424.626 -1.081 380.041"/><polygon class="d" points="-20.961 255.226 225.08 225.047 -7.861 305.618 -20.961 255.226"/><polygon class="d" points="0.487 150.508 225.08 225.047 -3.28 204.613 0.487 150.508"/><polygon class="d" points="84.159 25.358 225.08 225.047 30.379 87.331 84.159 25.358"/><polygon class="e" points="84.159 25.358 225.08 225.047 174.327 -20.092 84.159 25.358"/><polygon class="d" points="225.08 225.047 178.487 0 280.953 -7.732 225.08 225.047"/><polygon class="e" points="225.08 225.047 279.959 -3.592 373.493 11.624 225.08 225.047"/><polygon class="d" points="225.08 225.047 358.951 32.535 401.294 74.517 225.08 225.047"/><polygon class="e" points="225.08 225.047 401.294 74.517 427.032 121.983 225.08 225.047"/><polygon class="d" points="225.08 225.047 427.032 121.983 470.745 178.506 225.08 225.047"/><polygon class="e" points="225.08 225.047 464.708 179.65 467.514 247.596 225.08 225.047"/><polygon class="d" points="225.08 225.047 467.514 247.596 465.552 315.091 225.08 225.047"/><polygon class="e" points="225.08 225.047 465.552 315.091 462.899 383.118 225.08 225.047"/><polygon class="d" points="225.08 225.047 462.899 383.118 410.453 448.119 225.08 225.047"/><polygon class="e" points="225.08 225.047 328.546 455.768 410.453 448.119 225.08 225.047"/></g><rect class="a" x="32.96796" y="116.96796" width="384.2871" height="216"/></svg>