<svg xmlns="http://www.w3.org/2000/svg" viewBox="0 0 96.4903 45.85297"><defs><style>.a,.c{fill:#ba8b5f;stroke:#2d2a28;stroke-width:1.5px;}.a{stroke-miterlimit:10;}.b{fill:#9c6c43;}.c{stroke-linejoin:round;}.d{fill:none;}</style></defs><path class="a" d="M18.73844,36.70213a1.9864,1.9864,0,0,1-.62694.79965c-.82887.60521-3.2922.36817-4.25843.474q-3.29682.36122-6.59376.72191l-1.98625-20.175c4.06271.09645,8.8452-.49754,12.77475.37787a47.43652,47.43652,0,0,0-.03812,8.957c.21326,1.573,1.27684,4.3684.951,5.88511"/><path class="a" d="M17.72665,23.33766l3.51714-14.0156a1.63872,1.63872,0,0,0-1.27306-1.93948h0a1.65719,1.65719,0,0,0-1.81985,1.45619L15.06821,21.66241"/><path class="a" d="M14.96149,21.66241c.04054-.10361,3.154-15.97149,3.154-15.97149a1.65247,1.65247,0,0,0-1.20532-1.99168h0a1.6434,1.6434,0,0,0-1.86539,1.38394l-3.05923,15.645"/><path class="a" d="M11.89763,20.72814,15.01893,5.368a2.30059,2.30059,0,0,0-1.67807-2.77283h0a2.288,2.288,0,0,0-2.597,1.92673L8.0021,19.689"/><path class="a" d="M7.946,19.33361,10.115,5.368A2.30059,2.30059,0,0,0,8.43693,2.59517h0a2.288,2.288,0,0,0-2.597,1.92673L3.671,18.48751"/><path class="b" d="M14.61346,37.42354a2.90571,2.90571,0,0,0,1.3821.02025c1.39849-.37185,1.98648-2.03293,2.11494-3.4743.55874-6.26907-3.006-11.14411-8.08879-14.41025a2.29166,2.29166,0,0,0-1.78085-.50318,1.60839,1.60839,0,0,0-1.03172,1.22106,4.5587,4.5587,0,0,0,.0248,1.66706,8.02684,8.02684,0,0,0,.72726,2.69089,12.63878,12.63878,0,0,0,1.48537,1.94054,12.72206,12.72206,0,0,1,1.98193,3.37374c.72869,1.84337-.5242,3.13374.18167,4.815A4.29162,4.29162,0,0,0,14.61346,37.42354Z"/><path class="a" d="M18.98084,33.45528c-.19723,3.25175-.99331,6.38753-1.15294,9.63645a24.62152,24.62152,0,0,0,.5566,4.50507c.1364.9609,2.03225,11.47222,1.9006,11.48755L9.37216,60.15875S9.6747,47.48061,6.70793,41.8759C6.18132,40.881,4.92287,40.235,4.0897,39.46767a6.13845,6.13845,0,0,1-1.97808-3.82A31.52043,31.52043,0,0,1,3.34572,17.6231a6.21713,6.21713,0,0,1,1.41-2.42191,2.42511,2.42511,0,0,1,2.59848-.57489,2.53471,2.53471,0,0,1,1.14863,1.28118c1.25066,2.75089-.75214,5.93389-.3796,8.93268.25743,2.07211,2.55571,2.25331,3.34508,4.278.49753,1.27613.27751,2.58408.309,4.0503"/><path class="a" d="M75.47484,38.67356a4.464,4.464,0,0,1,.84712,3.46432c-.2199,2.50974-.288,4.96421-.27061,7.481.00195.28163.02227,4.47971.043,4.47974H87.1277V42.89989c0-1.62855-.439-3.70051,1.30343-4.62415A3.15355,3.15355,0,0,0,89.865,37.22088a3.33848,3.33848,0,0,0,.82469-1.98115c-.01732-.92645-.08812-1.861-.10912-2.7906-.04266-1.88829-.0581-3.77713-.0581-5.66588V16.69288H73.83118V31.149c0,1.027.03476,2.0566.014,3.0806A6.35547,6.35547,0,0,0,75.47484,38.67356Z"/><path class="a" d="M77.46752,19.18177,77.31625,4.0319a1.74261,1.74261,0,0,1,1.72139-1.76358h0a1.74261,1.74261,0,0,1,1.76358,1.72139l1.197,15.65216"/><path class="c" d="M73.83423,19.64187l-1.74541-13.339C71.79035,4.82675,73.714,4.60323,73.714,4.60323c1.24473-.2574,1.88269.82345,1.859.5988l2.28715,14.43984"/><path class="a" d="M81.9982,19.64187,81.67727,3.76251a2.42608,2.42608,0,0,1,2.39654-2.45527h0a2.42608,2.42608,0,0,1,2.45527,2.39654l.179,14.785"/><path class="a" d="M85.58825,18.9149l-.179-14.785a2.42607,2.42607,0,0,1,2.39653-2.45527h0A2.42608,2.42608,0,0,1,90.26109,4.0712l.179,14.785"/><path class="a" d="M88.84405,38.11625a13.40768,13.40768,0,0,0,3.476-7.21967c.42083-2.95843.1067-5.97584.638-8.92422a22.59714,22.59714,0,0,1,.716-4.19734c.49956-1.24608,1.4558-2.44393,1.34259-3.85677-.09258-1.15538-.9666-2.3228-2.163-1.44186a9.13731,9.13731,0,0,0-2.99139,5.09275c-.63723,2.29748-1.434,3.8346-1.43406,6.25088.00427.06424-1.52708.8883-1.70116,1.0272-1.1911.95032-3.28608,2.65129-3.44025,4.30485"/><rect class="d" width="96.4903" height="45.85297"/></svg>