<svg xmlns="http://www.w3.org/2000/svg" viewBox="0 0 72.25532 35.69264"><defs><style>.a{fill:#d6dfe5;}.b{fill:#a2b4bc;}.c{fill:#6d8393;opacity:0.2;}.d{fill:#e30613;}.e{fill:#ff9494;}</style></defs><rect class="a" width="72.25532" height="35.69264"/><path d="M17.97789,7.15644a.16582.16582,0,0,1,.05274.126V7.885a.17366.17366,0,0,1-.18164.17481h-.32227a1.083,1.083,0,0,0-.12988.35644,2.5138,2.5138,0,0,0-.04492.49707v2.03711a.1322.1322,0,0,1-.06348.1084.21709.21709,0,0,1-.13281.0459h-.81934a.14869.14869,0,0,1-.11132-.042.151.151,0,0,1-.042-.11231V8.8371a1.50565,1.50565,0,0,1,.13965-.77734h-.52539a.18033.18033,0,0,1-.1748-.17481V7.28241a.16582.16582,0,0,1,.05273-.126.17624.17624,0,0,1,.12207-.04883H17.849A.18416.18416,0,0,1,17.97789,7.15644Z"/><path d="M18.70641,11.05585a.16584.16584,0,0,1-.05273-.126v-.64453a.18007.18007,0,0,1,.18164-.18164h1.01562a.74549.74549,0,0,0,.83985-.791c.0039-.05567.00683-.126.00683-.21,0-.0791-.00293-.14746-.00683-.20312a.7455.7455,0,0,0-.83985-.791H18.83532a.18006.18006,0,0,1-.18164-.18164V7.28241a.16582.16582,0,0,1,.05273-.126.1842.1842,0,0,1,.12891-.04883h1.0498a1.70137,1.70137,0,0,1,1.93945,1.79883c.00489.05175.00684.11718.00684.19628a2.1716,2.1716,0,0,1-.458,1.47657,1.87933,1.87933,0,0,1-1.48828.52539h-1.0498A.1842.1842,0,0,1,18.70641,11.05585Z"/><path d="M24.39,11.05585a.16587.16587,0,0,1-.05273-.126V8.85761a.70207.70207,0,0,0-.791-.79785H22.48278A.17852.17852,0,0,1,22.308,7.885V7.28241a.16857.16857,0,0,1,.05176-.126.17684.17684,0,0,1,.12305-.04883h1.10547a2.23215,2.23215,0,0,1,1.45312.39941,1.61252,1.61252,0,0,1,.47949,1.30859v2.11426a.17453.17453,0,0,1-.04882.12207.16586.16586,0,0,1-.126.05274h-.82617A.18491.18491,0,0,1,24.39,11.05585Z"/><path d="M29.8402,7.53436a1.69462,1.69462,0,0,1,.44727,1.28125v2.11426a.17036.17036,0,0,1-.04883.12207.163.163,0,0,1-.126.05274H28.20153a.18035.18035,0,0,1-.17481-.17481v-.60254a.16582.16582,0,0,1,.05274-.126.1745.1745,0,0,1,.12207-.04883h.90332V8.87128A.84168.84168,0,0,0,28.93,8.30487a.57232.57232,0,0,0-.45507-.20312h-.5459L27.33336,10.923a.21.21,0,0,1-.05566.1289.163.163,0,0,1-.126.05274H26.347a.176.176,0,0,1-.12989-.05274.13564.13564,0,0,1-.03808-.1289l.68554-2.81446H26.4027a.16294.16294,0,0,1-.126-.05273.18424.18424,0,0,1-.04883-.12891V7.28241a.16582.16582,0,0,1,.05274-.126.17282.17282,0,0,1,.12207-.04883h2.24707A1.65737,1.65737,0,0,1,29.8402,7.53436Z"/><path d="M33.66149,7.54511a1.905,1.905,0,0,1,.39941,1.31933,2.06027,2.06027,0,0,1-.52539,1.45606,2.78853,2.78853,0,0,1-1.3164.791l-.28614.084a.13532.13532,0,0,1-.12988-.04883.19807.19807,0,0,1-.05957-.13965V10.3a.203.203,0,0,1,.04883-.12988.36328.36328,0,0,1,.126-.09473l.22461-.09082a1.13142,1.13142,0,0,0,.50684-.374,1.17177,1.17177,0,0,0,.18555-.71094.94516.94516,0,0,0-.15332-.61621.74951.74951,0,0,0-.57422-.17481h-.18262l-.9375-.00683a.1673.1673,0,0,1-.1748-.17481V6.30976a.16559.16559,0,0,1,.05175-.126.17686.17686,0,0,1,.12305-.04883h.75586a.1673.1673,0,0,1,.1748.17481v.79785h.43457A1.69684,1.69684,0,0,1,33.66149,7.54511Z"/><path d="M38.8275,11.05585a.17.17,0,0,1-.04882-.126V8.85761a.70208.70208,0,0,0-.791-.79785H36.391a.18424.18424,0,0,1-.12891-.04883.16589.16589,0,0,1-.05273-.126V7.28241a.16585.16585,0,0,1,.05273-.126.1842.1842,0,0,1,.12891-.04883h1.63086a2.14981,2.14981,0,0,1,1.45313.42675,1.68141,1.68141,0,0,1,.48632,1.33008v2.06543a.16584.16584,0,0,1-.05273.126.1842.1842,0,0,1-.12891.04883h-.82617A.17073.17073,0,0,1,38.8275,11.05585Zm-2.56543,0a.16587.16587,0,0,1-.05273-.126V8.88593a.163.163,0,0,1,.05273-.126.18.18,0,0,1,.12891-.04883h.82617a.16732.16732,0,0,1,.17481.17481v2.04394a.17036.17036,0,0,1-.04883.12207.163.163,0,0,1-.126.05274H36.391A.1842.1842,0,0,1,36.26207,11.05585Z"/><path d="M40.76989,9.39667a.163.163,0,0,1-.05274-.126V7.28241a.16582.16582,0,0,1,.05274-.126.18487.18487,0,0,1,.12988-.04883h.875a.1673.1673,0,0,1,.1748.1748V9.27069a.17286.17286,0,0,1-.04882.12207.16586.16586,0,0,1-.126.05274h-.875A.18487.18487,0,0,1,40.76989,9.39667Z"/><path d="M42.77184,9.39667a.16294.16294,0,0,1-.05273-.126V7.28241a.16582.16582,0,0,1,.05273-.126.1849.1849,0,0,1,.12988-.04883h.875a.16732.16732,0,0,1,.17481.1748V9.27069a.17282.17282,0,0,1-.04883.12207.16585.16585,0,0,1-.126.05274h-.875A.1849.1849,0,0,1,42.77184,9.39667Z"/><path d="M47.15368,11.05194a.17535.17535,0,0,1-.12891.05274H44.7777a.18487.18487,0,0,1-.12988-.04883.16585.16585,0,0,1-.05274-.126v-.60254a.16582.16582,0,0,1,.05274-.126.18487.18487,0,0,1,.12988-.04883h1.16113l-.0625-1.37891a1.22637,1.22637,0,0,0-.13965-.58789.48191.48191,0,0,0-.43457-.18164h-.35644a.18021.18021,0,0,1-.17578-.17578V7.24042a.17915.17915,0,0,1,.0498-.12891.163.163,0,0,1,.126-.05273h.37793a1.83458,1.83458,0,0,1,1.333.41308,1.91314,1.91314,0,0,1,.45214,1.32325l.09082,2.13476A.14692.14692,0,0,1,47.15368,11.05194Z"/><path d="M48.77477,8.3537c.00879.19141.06543.30371.168.33594L49.139,8.76a.16106.16106,0,0,1,.08691.08008.26947.26947,0,0,1,.03223.12988l.00683.35645a.18717.18717,0,0,1-.09472.165.34862.34862,0,0,1-.22754.04492l-.28711-.042a.8878.8878,0,0,1-.60156-.3877,1.39922,1.39922,0,0,1-.23828-.83691V7.28241a.2449.2449,0,0,1,.05957-.126.15115.15115,0,0,1,.11523-.04883h1.41406a1.80736,1.80736,0,0,1,1.36817.47265A1.98829,1.98829,0,0,1,51.267,8.90644c.0039.04687.00683.1123.00683.19628a2.21067,2.21067,0,0,1-.44824,1.47364,1.76278,1.76278,0,0,1-1.4209.52832H48.07457a.18086.18086,0,0,1-.1289-.04883.16585.16585,0,0,1-.05274-.126v-.64453a.17532.17532,0,0,1,.05274-.1289.17227.17227,0,0,1,.1289-.05274H49.3695a.83766.83766,0,0,0,.585-.206.81473.81473,0,0,0,.248-.585c.00489-.04688.00684-.11622.00684-.21,0-.08886-.002-.15625-.00684-.20312a.789.789,0,0,0-.24121-.584.84569.84569,0,0,0-.59179-.207h-.59473Z"/><path d="M55.97008,7.54511a1.90491,1.90491,0,0,1,.39942,1.31933,2.06027,2.06027,0,0,1-.52539,1.45606,2.78856,2.78856,0,0,1-1.31641.791l-.28613.084a.13533.13533,0,0,1-.12989-.04883.19807.19807,0,0,1-.05957-.13965V10.3a.203.203,0,0,1,.04883-.12988.36332.36332,0,0,1,.126-.09473l.22461-.09082a1.13139,1.13139,0,0,0,.50683-.374,1.1717,1.1717,0,0,0,.18555-.71094.94516.94516,0,0,0-.15332-.61621.74951.74951,0,0,0-.57422-.17481h-.18262l-.9375-.00683a.16732.16732,0,0,1-.1748-.17481V6.30976a.1656.1656,0,0,1,.05176-.126.17681.17681,0,0,1,.123-.04883h.75586a.16732.16732,0,0,1,.17481.17481v.79785h.43457A1.69681,1.69681,0,0,1,55.97008,7.54511Z"/><path d="M59.66637,11.05585a.17.17,0,0,1-.04883-.126V8.85761a.70207.70207,0,0,0-.791-.79785H57.22985a.18424.18424,0,0,1-.12891-.04883.16589.16589,0,0,1-.05273-.126V7.28241a.16585.16585,0,0,1,.05273-.126.1842.1842,0,0,1,.12891-.04883h1.63086a2.14978,2.14978,0,0,1,1.45312.42675,1.68138,1.68138,0,0,1,.48633,1.33008v2.06543a.16587.16587,0,0,1-.05273.126.1842.1842,0,0,1-.12891.04883h-.82617A.17073.17073,0,0,1,59.66637,11.05585Zm-2.56543,0a.16587.16587,0,0,1-.05273-.126V8.88593a.163.163,0,0,1,.05273-.126.18.18,0,0,1,.12891-.04883H58.056a.1673.1673,0,0,1,.1748.17481v2.04394a.17035.17035,0,0,1-.04882.12207.163.163,0,0,1-.126.05274h-.82617A.1842.1842,0,0,1,57.10094,11.05585Z"/><path d="M61.63707,11.05585a.16587.16587,0,0,1-.05273-.126V7.28241a.16585.16585,0,0,1,.05273-.126.1842.1842,0,0,1,.12891-.04883h.875a.16732.16732,0,0,1,.17481.1748v3.64746a.17036.17036,0,0,1-.04883.12207.163.163,0,0,1-.126.05274h-.875A.1842.1842,0,0,1,61.63707,11.05585Z"/><path d="M66.04625,11.05194a.17532.17532,0,0,1-.1289.05274H63.67028a.18491.18491,0,0,1-.12989-.04883.16587.16587,0,0,1-.05273-.126v-.60254a.16585.16585,0,0,1,.05273-.126.18491.18491,0,0,1,.12989-.04883h1.16113l-.0625-1.37891a1.22649,1.22649,0,0,0-.13965-.58789.48193.48193,0,0,0-.43457-.18164h-.35644a.18021.18021,0,0,1-.17578-.17578V7.24042a.17915.17915,0,0,1,.0498-.12891.163.163,0,0,1,.126-.05273h.37793a1.83456,1.83456,0,0,1,1.333.41308,1.91314,1.91314,0,0,1,.45215,1.32325l.09082,2.13476A.1469.1469,0,0,1,66.04625,11.05194Z"/><path d="M50.68883,15.5246a1.61647,1.61647,0,0,1,.48633,1.29785v2.10742a.1745.1745,0,0,1-.04883.12207.16582.16582,0,0,1-.126.05274h-.82618a.1849.1849,0,0,1-.12988-.04883.16584.16584,0,0,1-.05273-.126V16.85761a.70178.70178,0,0,0-.79-.79785h-.45508a4.21311,4.21311,0,0,0-.10547,1.02929l.05566,1.84082a.16858.16858,0,0,1-.05175.126.18491.18491,0,0,1-.12989.04883l-1.48437-.00684a.1842.1842,0,0,1-.12891-.04883.16585.16585,0,0,1-.05273-.126v-.55371a.16586.16586,0,0,1,.05273-.126.1842.1842,0,0,1,.12891-.04883H47.598V17.09589a3.73762,3.73762,0,0,1,.10547-1.03613h-.41309a.185.185,0,0,1-.12988-.04883.16589.16589,0,0,1-.05273-.126v-.60254a.16585.16585,0,0,1,.05273-.126.1849.1849,0,0,1,.12988-.04883h1.95313A2.16857,2.16857,0,0,1,50.68883,15.5246Z"/><path d="M51.73864,15.89862a.14143.14143,0,0,1-.03809-.09765.21683.21683,0,0,1,.01367-.07715l.53907-1.39356a.44261.44261,0,0,1,.10156-.14355.24564.24564,0,0,1,.165-.05176h.51074a.12359.12359,0,0,1,.10156.04883.14848.14848,0,0,1,.03125.1123l-.2168,1.39942a.35357.35357,0,0,1-.084.1748.22308.22308,0,0,1-.1748.07031h-.8545A.124.124,0,0,1,51.73864,15.89862Zm1.582,0a.14143.14143,0,0,1-.03809-.09765.217.217,0,0,1,.01367-.07715l.53907-1.39356a.44261.44261,0,0,1,.10156-.14355.24566.24566,0,0,1,.165-.05176h.51074a.12359.12359,0,0,1,.10156.04883.14843.14843,0,0,1,.03125.1123l-.21679,1.39942a.35367.35367,0,0,1-.084.1748.22306.22306,0,0,1-.1748.07031h-.8545A.124.124,0,0,1,53.32067,15.89862Z"/><path d="M55.4486,19.05585a.16585.16585,0,0,1-.05274-.126V15.28241a.16582.16582,0,0,1,.05274-.126.18416.18416,0,0,1,.1289-.04883h.875a.16732.16732,0,0,1,.17481.1748v3.64746a.17036.17036,0,0,1-.04883.12207.163.163,0,0,1-.126.05274h-.875A.18416.18416,0,0,1,55.4486,19.05585Z"/><path d="M60.07262,19.05585a.17.17,0,0,1-.04883-.126V16.85761a.70207.70207,0,0,0-.791-.79785H57.6361a.18424.18424,0,0,1-.12891-.04883.16589.16589,0,0,1-.05273-.126v-.60254a.16585.16585,0,0,1,.05273-.126.1842.1842,0,0,1,.12891-.04883H59.267a2.14978,2.14978,0,0,1,1.45312.42675,1.68138,1.68138,0,0,1,.48633,1.33008v2.06543a.16587.16587,0,0,1-.05273.126.1842.1842,0,0,1-.12891.04883H60.1986A.17073.17073,0,0,1,60.07262,19.05585Zm-2.56543,0a.16587.16587,0,0,1-.05273-.126V16.88593a.163.163,0,0,1,.05273-.126.18.18,0,0,1,.12891-.04883h.82617a.1673.1673,0,0,1,.1748.17481v2.04394a.17035.17035,0,0,1-.04882.12207.163.163,0,0,1-.126.05274H57.6361A.1842.1842,0,0,1,57.50719,19.05585Z"/><path d="M65.51793,15.53436a1.69458,1.69458,0,0,1,.44727,1.28125v2.11426a.17036.17036,0,0,1-.04883.12207.163.163,0,0,1-.126.05274H63.87926a.18033.18033,0,0,1-.1748-.17481v-.60254a.16585.16585,0,0,1,.05273-.126.17453.17453,0,0,1,.12207-.04883h.90332V16.87128a.84168.84168,0,0,0-.1748-.56641.57235.57235,0,0,0-.45508-.20312h-.5459L63.0111,18.923a.21009.21009,0,0,1-.05567.1289.16291.16291,0,0,1-.126.05274h-.80469a.176.176,0,0,1-.12988-.05274.13565.13565,0,0,1-.03809-.1289l.68555-2.81446h-.46192a.16292.16292,0,0,1-.126-.05273.1842.1842,0,0,1-.04883-.12891v-.64453a.16585.16585,0,0,1,.05273-.126.17284.17284,0,0,1,.12207-.04883H64.3275A1.65735,1.65735,0,0,1,65.51793,15.53436Z"/><rect class="b" x="6.13394" y="24.39724" width="59.98743" height="2.55319" rx="1.1819"/><rect class="b" x="37.16814" y="28.52299" width="28.95324" height="2.55319" rx="0.8211"/><circle class="c" cx="35.67239" cy="1.90159" r="1.75532"/><circle class="d" cx="35.57239" cy="1.80159" r="1.59574"/><path class="e" d="M35.45766.71483s-.734-.18743-1.0851.79787"/></svg>