<svg xmlns="http://www.w3.org/2000/svg" viewBox="0 0 72.25532 35.69264"><defs><style>.a{fill:#d3fc9e;}.b{fill:#a0bf72;}.c{fill:#5a7b93;opacity:0.2;}.d{fill:#e3000d;}.e{fill:#ff7474;}</style></defs><rect class="a" width="72.25532" height="35.69264"/><path d="M33.70469,11.05608a.17.17,0,0,1-.04883-.126V8.85783a.70208.70208,0,0,0-.791-.79785H31.26816a.18416.18416,0,0,1-.1289-.04883.16582.16582,0,0,1-.05274-.126V7.28264a.16586.16586,0,0,1,.05274-.126.1842.1842,0,0,1,.1289-.04883H32.899a2.14974,2.14974,0,0,1,1.45313.42676,1.68138,1.68138,0,0,1,.48633,1.33008V10.9301a.16586.16586,0,0,1-.05274.126.18419.18419,0,0,1-.1289.04882h-.82618A.17074.17074,0,0,1,33.70469,11.05608Zm-2.56543,0a.16586.16586,0,0,1-.05274-.126V8.88615a.16293.16293,0,0,1,.05274-.126.17989.17989,0,0,1,.1289-.04883h.82618a.16732.16732,0,0,1,.1748.1748V10.9301a.17035.17035,0,0,1-.04883.12207.16292.16292,0,0,1-.126.05273h-.82618A.18419.18419,0,0,1,31.13926,11.05608Z"/><path d="M38.027,11.05217a.17531.17531,0,0,1-.1289.05273H35.651a.185.185,0,0,1-.12989-.04882.16589.16589,0,0,1-.05273-.126v-.60254a.16589.16589,0,0,1,.05273-.126.185.185,0,0,1,.12989-.04882h1.16113l-.0625-1.37891A1.22646,1.22646,0,0,0,36.61,8.186a.48193.48193,0,0,0-.43457-.18164H35.819a.18025.18025,0,0,1-.17579-.17578V7.24065a.17916.17916,0,0,1,.04981-.12891.16294.16294,0,0,1,.126-.05273h.37793a1.83456,1.83456,0,0,1,1.333.41308A1.91309,1.91309,0,0,1,37.982,8.79533l.09082,2.13477A.14692.14692,0,0,1,38.027,11.05217Z"/><path d="M38.78281,11.05608a.16589.16589,0,0,1-.05273-.126V7.28264a.16589.16589,0,0,1,.05273-.126.18424.18424,0,0,1,.12891-.04883h.875a.1673.1673,0,0,1,.1748.17481V10.9301a.17038.17038,0,0,1-.04882.12207.16294.16294,0,0,1-.126.05273h-.875A.18423.18423,0,0,1,38.78281,11.05608Z"/><path d="M40.79941,11.05608a.16589.16589,0,0,1-.05273-.126v-.64453a.18006.18006,0,0,1,.18164-.18164H41.944a.74549.74549,0,0,0,.83984-.791c.00391-.05566.00684-.126.00684-.21,0-.0791-.00293-.14746-.00684-.20312a.74549.74549,0,0,0-.83984-.791H40.92832a.18006.18006,0,0,1-.18164-.18164V7.28264a.16589.16589,0,0,1,.05273-.126.18424.18424,0,0,1,.12891-.04883h1.04981a1.70138,1.70138,0,0,1,1.93945,1.79883c.00488.05176.00683.11719.00683.19629a2.17162,2.17162,0,0,1-.458,1.47656,1.87931,1.87931,0,0,1-1.48828.52539H40.92832A.18423.18423,0,0,1,40.79941,11.05608Z"/><path d="M46.95859,11.05217a.17531.17531,0,0,1-.1289.05273H44.58262a.18491.18491,0,0,1-.12988-.04882.16586.16586,0,0,1-.05274-.126v-.60254a.16586.16586,0,0,1,.05274-.126.18491.18491,0,0,1,.12988-.04882h1.16113l-.0625-1.37891A1.22646,1.22646,0,0,0,45.5416,8.186a.48193.48193,0,0,0-.43457-.18164h-.35644a.18023.18023,0,0,1-.17578-.17578V7.24065a.17915.17915,0,0,1,.0498-.12891.16294.16294,0,0,1,.126-.05273h.37793a1.83456,1.83456,0,0,1,1.333.41308,1.913,1.913,0,0,1,.45215,1.32324l.09082,2.13477A.14692.14692,0,0,1,46.95859,11.05217Z"/><path d="M51.75059,11.05608a.17.17,0,0,1-.04883-.126V8.85783a.70208.70208,0,0,0-.791-.79785H49.31406a.18416.18416,0,0,1-.1289-.04883.16582.16582,0,0,1-.05274-.126V7.28264a.16586.16586,0,0,1,.05274-.126.1842.1842,0,0,1,.1289-.04883h1.63086a2.14976,2.14976,0,0,1,1.45313.42676,1.68138,1.68138,0,0,1,.48633,1.33008V10.9301a.16586.16586,0,0,1-.05274.126.18419.18419,0,0,1-.1289.04882h-.82618A.17074.17074,0,0,1,51.75059,11.05608Zm-2.56543,0a.16586.16586,0,0,1-.05274-.126V8.88615a.16293.16293,0,0,1,.05274-.126.17989.17989,0,0,1,.1289-.04883h.82618a.16732.16732,0,0,1,.1748.1748V10.9301a.17039.17039,0,0,1-.04883.12207.16292.16292,0,0,1-.126.05273h-.82618A.18419.18419,0,0,1,49.18516,11.05608Z"/><path d="M56.07285,11.05217a.17531.17531,0,0,1-.1289.05273H53.69688a.185.185,0,0,1-.12989-.04882.16589.16589,0,0,1-.05273-.126v-.60254a.16589.16589,0,0,1,.05273-.126.185.185,0,0,1,.12989-.04882H54.858l-.0625-1.37891a1.22646,1.22646,0,0,0-.13965-.58789.48193.48193,0,0,0-.43457-.18164h-.35645a.18025.18025,0,0,1-.17578-.17578V7.24065a.17912.17912,0,0,1,.04981-.12891.16292.16292,0,0,1,.126-.05273h.37793a1.83457,1.83457,0,0,1,1.333.41308,1.91309,1.91309,0,0,1,.45215,1.32324l.09082,2.13477A.14692.14692,0,0,1,56.07285,11.05217Z"/><path d="M56.82871,11.05608a.16589.16589,0,0,1-.05273-.126V7.28264a.16589.16589,0,0,1,.05273-.126.18424.18424,0,0,1,.12891-.04883h.875a.16732.16732,0,0,1,.1748.17481V10.9301a.17035.17035,0,0,1-.04883.12207.1629.1629,0,0,1-.126.05273h-.875A.18423.18423,0,0,1,56.82871,11.05608Z"/><path d="M61.03477,7.15666a.16589.16589,0,0,1,.05273.126v.60254a.17364.17364,0,0,1-.18164.1748h-.32227a1.08339,1.08339,0,0,0-.12988.35645,2.5138,2.5138,0,0,0-.04492.49707v2.03711a.13219.13219,0,0,1-.06348.1084.21705.21705,0,0,1-.13281.04589h-.81934a.1487.1487,0,0,1-.11132-.042.151.151,0,0,1-.042-.1123V8.83733A1.50572,1.50572,0,0,1,59.37949,8.06H58.8541a.18031.18031,0,0,1-.1748-.1748V7.28264a.16589.16589,0,0,1,.05273-.126.17628.17628,0,0,1,.12207-.04883h2.05176A.18424.18424,0,0,1,61.03477,7.15666Z"/><path d="M65.47324,7.52483a1.61647,1.61647,0,0,1,.48633,1.29785V10.9301a.17453.17453,0,0,1-.04883.12207.16582.16582,0,0,1-.126.05273h-.82618a.18494.18494,0,0,1-.12988-.04882.16589.16589,0,0,1-.05273-.126V8.85783a.70178.70178,0,0,0-.79-.79785h-.45508a4.21324,4.21324,0,0,0-.10547,1.0293l.05567,1.84082a.16861.16861,0,0,1-.05176.126.185.185,0,0,1-.12989.04882L61.815,11.09807a.1842.1842,0,0,1-.12891-.04883.16586.16586,0,0,1-.05273-.126v-.55371a.16585.16585,0,0,1,.05273-.126.1842.1842,0,0,1,.12891-.04883h.56738V9.09612A3.73769,3.73769,0,0,1,62.48789,8.06h-.41308a.18491.18491,0,0,1-.12989-.04883.16585.16585,0,0,1-.05273-.126V7.28264a.16589.16589,0,0,1,.05273-.126.185.185,0,0,1,.12989-.04883h1.95312A2.16857,2.16857,0,0,1,65.47324,7.52483Z"/><rect class="b" x="6.13394" y="24.39724" width="59.98743" height="2.55319" rx="1.1819"/><rect class="b" x="37.16814" y="28.52299" width="28.95324" height="2.55319" rx="0.8211"/><rect class="b" x="6.13394" y="15.76473" width="59.98743" height="2.55319" rx="1.1819"/><rect class="b" x="37.16814" y="19.89049" width="28.95324" height="2.55319" rx="0.8211"/><circle class="c" cx="35.67239" cy="1.90159" r="1.75532"/><circle class="d" cx="35.57239" cy="1.80159" r="1.59574"/><path class="e" d="M35.45766.71483s-.734-.18743-1.0851.79787"/></svg>