<svg xmlns="http://www.w3.org/2000/svg" viewBox="0 0 72.25532 35.69264"><defs><style>.a{fill:#fff;}.b{fill:#d6dfe5;}.c{fill:#6d8393;opacity:0.2;}.d{fill:#e30613;}.e{fill:#ff9494;}</style></defs><rect class="a" width="72.25532" height="35.69264"/><path d="M17.21911,11.05566a.17.17,0,0,1-.04883-.126V8.85742a.70208.70208,0,0,0-.791-.79786H14.78258a.18419.18419,0,0,1-.1289-.04882.16586.16586,0,0,1-.05274-.126V7.28222a.16586.16586,0,0,1,.05274-.126.18419.18419,0,0,1,.1289-.04882h1.63086a2.14976,2.14976,0,0,1,1.45313.42675,1.68137,1.68137,0,0,1,.48632,1.33008v2.06543a.16585.16585,0,0,1-.05273.126.18422.18422,0,0,1-.12891.04883h-.82617A.17073.17073,0,0,1,17.21911,11.05566Zm-2.56543,0a.16586.16586,0,0,1-.05274-.126V8.88574a.163.163,0,0,1,.05274-.126.17993.17993,0,0,1,.1289-.04883h.82617a.16732.16732,0,0,1,.17481.17481v2.04394a.17038.17038,0,0,1-.04883.12207.163.163,0,0,1-.126.05274h-.82617A.1842.1842,0,0,1,14.65368,11.05566Z"/><path d="M19.16149,9.39648a.163.163,0,0,1-.05274-.126V7.28222a.16586.16586,0,0,1,.05274-.126.18491.18491,0,0,1,.12988-.04882h.875a.1673.1673,0,0,1,.17481.1748V9.2705a.17287.17287,0,0,1-.04883.12207.16586.16586,0,0,1-.126.05274h-.875A.18491.18491,0,0,1,19.16149,9.39648Z"/><path d="M22.056,8.35351c.00879.19141.06543.30371.168.33594l.19629.07031a.161.161,0,0,1,.08691.08008.26944.26944,0,0,1,.03223.12988l.00683.35645a.18714.18714,0,0,1-.09472.165.34856.34856,0,0,1-.22754.04493l-.28711-.042a.88778.88778,0,0,1-.60156-.38769,1.39923,1.39923,0,0,1-.23828-.83692v-.9873a.245.245,0,0,1,.05957-.126.15118.15118,0,0,1,.11523-.04882H22.6859a1.80736,1.80736,0,0,1,1.36817.47265,1.98826,1.98826,0,0,1,.49414,1.32617c.0039.04688.00683.11231.00683.19629a2.21067,2.21067,0,0,1-.44824,1.47364,1.76282,1.76282,0,0,1-1.4209.52832H21.35582a.1809.1809,0,0,1-.1289-.04883.16586.16586,0,0,1-.05274-.126v-.64453a.17535.17535,0,0,1,.05274-.12891.1723.1723,0,0,1,.1289-.05273h1.29493a.83762.83762,0,0,0,.585-.20606.81469.81469,0,0,0,.248-.585c.00489-.04687.00684-.11621.00684-.21,0-.08886-.002-.15625-.00684-.20312a.789.789,0,0,0-.24121-.584.84569.84569,0,0,0-.59179-.207H22.056Z"/><path d="M27.13414,11.05566a.16589.16589,0,0,1-.05273-.126V8.85742a.70208.70208,0,0,0-.791-.79786H25.22692a.1785.1785,0,0,1-.17481-.1748V7.28222a.16861.16861,0,0,1,.05176-.126.17687.17687,0,0,1,.123-.04882h1.10547a2.23215,2.23215,0,0,1,1.45312.39941A1.61251,1.61251,0,0,1,28.265,8.81542v2.11426a.17455.17455,0,0,1-.04882.12207.16586.16586,0,0,1-.126.05274H27.264A.185.185,0,0,1,27.13414,11.05566Z"/><path d="M32.77672,7.52441a1.61647,1.61647,0,0,1,.48633,1.29785v2.10742a.17451.17451,0,0,1-.04883.12207.16582.16582,0,0,1-.126.05274h-.82618a.185.185,0,0,1-.12988-.04883.16589.16589,0,0,1-.05273-.126V8.85742a.70178.70178,0,0,0-.79-.79786h-.45508a4.21324,4.21324,0,0,0-.10547,1.0293l.05567,1.84082a.16861.16861,0,0,1-.05176.126.185.185,0,0,1-.12989.04883l-1.48437-.00684a.1842.1842,0,0,1-.12891-.04883.16586.16586,0,0,1-.05273-.126v-.55371a.16585.16585,0,0,1,.05273-.126.1842.1842,0,0,1,.12891-.04883h.56738V9.0957a3.73769,3.73769,0,0,1,.10547-1.03614h-.41308a.185.185,0,0,1-.12989-.04882.16589.16589,0,0,1-.05273-.126V7.28222a.16589.16589,0,0,1,.05273-.126.185.185,0,0,1,.12989-.04882h1.95312A2.16857,2.16857,0,0,1,32.77672,7.52441Z"/><path d="M34.1068,11.05566a.16585.16585,0,0,1-.05273-.126V7.28222a.16585.16585,0,0,1,.05273-.126.18423.18423,0,0,1,.12891-.04882h.875a.1673.1673,0,0,1,.1748.1748v3.64746a.17033.17033,0,0,1-.04883.12207.16291.16291,0,0,1-.126.05274h-.875A.18424.18424,0,0,1,34.1068,11.05566Z"/><path d="M36.1361,9.39648a.163.163,0,0,1-.05274-.126V7.28222a.16586.16586,0,0,1,.05274-.126.18491.18491,0,0,1,.12988-.04882h.875a.1673.1673,0,0,1,.17481.1748V9.2705a.17287.17287,0,0,1-.04883.12207.16586.16586,0,0,1-.126.05274h-.875A.18491.18491,0,0,1,36.1361,9.39648Z"/><path d="M40.31481,7.15624a.16585.16585,0,0,1,.05273.126v.60254a.17362.17362,0,0,1-.18164.1748h-.32226a1.08315,1.08315,0,0,0-.12989.35645,2.5138,2.5138,0,0,0-.04492.49707v2.03711a.1322.1322,0,0,1-.06347.1084.21712.21712,0,0,1-.13282.0459h-.81933a.14872.14872,0,0,1-.11133-.042.151.151,0,0,1-.042-.1123V8.83691a1.50572,1.50572,0,0,1,.13965-.77735h-.5254a.18031.18031,0,0,1-.1748-.1748V7.28222a.16589.16589,0,0,1,.05273-.126.17629.17629,0,0,1,.12207-.04882H40.1859A.18423.18423,0,0,1,40.31481,7.15624Z"/><path d="M41.057,9.39648a.163.163,0,0,1-.05274-.126V7.28222a.16586.16586,0,0,1,.05274-.126.18491.18491,0,0,1,.12988-.04882h.875a.16729.16729,0,0,1,.1748.1748V9.2705a.17286.17286,0,0,1-.04882.12207.16586.16586,0,0,1-.126.05274h-.875A.18491.18491,0,0,1,41.057,9.39648Z"/><path d="M43.95153,8.35351c.00879.19141.06543.30371.168.33594l.19629.07031a.16105.16105,0,0,1,.08691.08008.26956.26956,0,0,1,.03223.12988l.00683.35645a.18714.18714,0,0,1-.09472.165.34857.34857,0,0,1-.22754.04493l-.28711-.042a.88782.88782,0,0,1-.60157-.38769,1.39923,1.39923,0,0,1-.23828-.83692v-.9873a.24513.24513,0,0,1,.05957-.126.1512.1512,0,0,1,.11524-.04882h1.41406a1.80733,1.80733,0,0,1,1.36816.47265,1.98826,1.98826,0,0,1,.49415,1.32617c.0039.04688.00683.11231.00683.19629a2.21067,2.21067,0,0,1-.44824,1.47364,1.76282,1.76282,0,0,1-1.4209.52832H43.25133a.18089.18089,0,0,1-.1289-.04883.16586.16586,0,0,1-.05274-.126v-.64453a.17535.17535,0,0,1,.05274-.12891.17228.17228,0,0,1,.1289-.05273h1.29492a.83763.83763,0,0,0,.585-.20606.81469.81469,0,0,0,.248-.585c.00488-.04687.00684-.11621.00684-.21,0-.08886-.002-.15625-.00684-.20312a.789.789,0,0,0-.24121-.584.84571.84571,0,0,0-.5918-.207h-.59472Z"/><path d="M48.63122,9.39648a.163.163,0,0,1-.05274-.126V7.28222a.16586.16586,0,0,1,.05274-.126.18491.18491,0,0,1,.12988-.04882h.875a.1673.1673,0,0,1,.1748.1748V9.2705a.17282.17282,0,0,1-.04883.12207.16582.16582,0,0,1-.126.05274h-.875A.18491.18491,0,0,1,48.63122,9.39648Z"/><path d="M50.66149,11.05566a.16586.16586,0,0,1-.05274-.126V7.28222a.16586.16586,0,0,1,.05274-.126.18419.18419,0,0,1,.1289-.04882h1.65235a2.20677,2.20677,0,0,1,1.4668.40917,1.70166,1.70166,0,0,1,.47168,1.34766v2.06543a.17038.17038,0,0,1-.04883.12207.163.163,0,0,1-.126.05274h-.82617a.18424.18424,0,0,1-.12891-.04883.16589.16589,0,0,1-.05273-.126V8.85742a.70208.70208,0,0,0-.791-.79786h-.61621v2.87012a.17033.17033,0,0,1-.04883.12207.16293.16293,0,0,1-.126.05274h-.82618A.1842.1842,0,0,1,50.66149,11.05566Z"/><path d="M58.70055,7.53417a1.69462,1.69462,0,0,1,.44727,1.28125v2.11426a.17038.17038,0,0,1-.04883.12207.163.163,0,0,1-.126.05274H57.06188a.18035.18035,0,0,1-.17481-.17481v-.60254a.16582.16582,0,0,1,.05274-.126.17451.17451,0,0,1,.12207-.04883h.90332V8.87109a.84163.84163,0,0,0-.17481-.56641.57232.57232,0,0,0-.45507-.20312h-.5459l-.5957,2.82128a.21012.21012,0,0,1-.05567.12891.163.163,0,0,1-.126.05274h-.80468a.176.176,0,0,1-.12989-.05274.13566.13566,0,0,1-.03808-.12891L55.725,8.10839h-.46192a.163.163,0,0,1-.126-.05273.18423.18423,0,0,1-.04882-.12891V7.28222a.16585.16585,0,0,1,.05273-.126.17287.17287,0,0,1,.12207-.04882h2.24707A1.65732,1.65732,0,0,1,58.70055,7.53417Z"/><path d="M59.98473,11.05566a.16585.16585,0,0,1-.05273-.126V7.28222a.16585.16585,0,0,1,.05273-.126.18423.18423,0,0,1,.12891-.04882h.875a.1673.1673,0,0,1,.1748.1748v3.64746a.17033.17033,0,0,1-.04883.12207.16293.16293,0,0,1-.126.05274h-.875A.18424.18424,0,0,1,59.98473,11.05566Z"/><path d="M65.51891,7.53417a1.69462,1.69462,0,0,1,.44727,1.28125v2.11426a.17038.17038,0,0,1-.04883.12207.163.163,0,0,1-.126.05274H63.88024a.18035.18035,0,0,1-.17481-.17481v-.60254a.16582.16582,0,0,1,.05274-.126.1745.1745,0,0,1,.12207-.04883h.90332V8.87109a.84163.84163,0,0,0-.17481-.56641.57232.57232,0,0,0-.45507-.20312h-.5459l-.59571,2.82128a.21005.21005,0,0,1-.05566.12891.163.163,0,0,1-.126.05274h-.80468a.176.176,0,0,1-.12989-.05274.13566.13566,0,0,1-.03808-.12891l.68554-2.81445h-.46191a.163.163,0,0,1-.126-.05273.18423.18423,0,0,1-.04882-.12891V7.28222a.16585.16585,0,0,1,.05273-.126.17287.17287,0,0,1,.12207-.04882h2.24707A1.65732,1.65732,0,0,1,65.51891,7.53417Z"/><path d="M27.309,19.05566a.16585.16585,0,0,1-.05273-.126V15.28222a.16585.16585,0,0,1,.05273-.126.18422.18422,0,0,1,.12891-.04882h1.58886a2.12393,2.12393,0,0,1,1.418.40234,1.65048,1.65048,0,0,1,.46582,1.3125v2.10058a.18009.18009,0,0,1-.18262.18165h-3.29A.18422.18422,0,0,1,27.309,19.05566Zm2.47461-.90332V16.85742a.70208.70208,0,0,0-.791-.79786h-.67285v2.09278Z"/><path d="M35.42223,15.52441a1.61647,1.61647,0,0,1,.48633,1.29785v2.10742a.17451.17451,0,0,1-.04883.12207.16583.16583,0,0,1-.126.05274h-.82617a.18493.18493,0,0,1-.12988-.04883.16585.16585,0,0,1-.05273-.126V16.85742a.70178.70178,0,0,0-.79-.79786h-.45508a4.21324,4.21324,0,0,0-.10547,1.0293L33.43,18.92968a.1686.1686,0,0,1-.05175.126.185.185,0,0,1-.12989.04883L31.764,19.09765a.1842.1842,0,0,1-.12891-.04883.16586.16586,0,0,1-.05273-.126v-.55371a.16585.16585,0,0,1,.05273-.126.1842.1842,0,0,1,.12891-.04883h.56738V17.0957a3.73732,3.73732,0,0,1,.10547-1.03614h-.41309a.18494.18494,0,0,1-.12988-.04882.16585.16585,0,0,1-.05273-.126v-.60254a.16585.16585,0,0,1,.05273-.126.18494.18494,0,0,1,.12988-.04882h1.95313A2.16857,2.16857,0,0,1,35.42223,15.52441Z"/><path d="M39.45739,19.05175a.18752.18752,0,0,1-.13282.05274h-.875a.16288.16288,0,0,1-.11914-.04883.1977.1977,0,0,1-.05566-.126l-.10547-.51855a1.48447,1.48447,0,0,1-.40625.34375,3.96591,3.96591,0,0,1-.50683.26171,2.46954,2.46954,0,0,1-.47266.14356l-.04883.00781c-.08008,0-.11914-.03808-.11914-.1123V18.2998c0-.08008.04883-.1377.14648-.17578.03321-.01368.13965-.04688.31934-.10059a2.86052,2.86052,0,0,0,.4375-.165,1.38646,1.38646,0,0,0,.46191-.37793l-.13378-.65137a1.51459,1.51459,0,0,0-.2168-.59472.51165.51165,0,0,0-.4336-.17481h-.24511a.18033.18033,0,0,1-.17481-.1748v-.64453a.17838.17838,0,0,1,.04883-.12891.163.163,0,0,1,.126-.05273h.26562a2.168,2.168,0,0,1,.95606.17871,1.31972,1.31972,0,0,1,.57031.54883,3.45,3.45,0,0,1,.33594,1.00879l.41992,2.13476A.12437.12437,0,0,1,39.45739,19.05175Z"/><path d="M44.48961,15.15624a.17389.17389,0,0,1,.04883.126v1.834a2.05951,2.05951,0,0,1-.2793,1.082,1.90063,1.90063,0,0,1-.76367.71679,2.21561,2.21561,0,0,1-1.07031.24512h-.67285a2.10775,2.10775,0,0,1-.97949-.2168,1.54032,1.54032,0,0,1-.86133-1.40722V15.28222a.16589.16589,0,0,1,.05273-.126.185.185,0,0,1,.12989-.04882h.73437a.1673.1673,0,0,1,.17481.1748l.00781,1.68066a.64285.64285,0,0,0,.53125-.291,1.428,1.428,0,0,0,.15429-.73145v-.64355a.184.184,0,0,1,.05274-.13672.17533.17533,0,0,1,.12891-.05273h.72851a.161.161,0,0,1,.12207.05566.18982.18982,0,0,1,.05274.13379v.65722a1.82442,1.82442,0,0,1-.41309,1.26075,1.74,1.74,0,0,1-1.16895.53906.90914.90914,0,0,0,.35352.34277,1.01277,1.01277,0,0,0,.48633.11914h.16113a1.398,1.398,0,0,0,.64453-.14746,1.10606,1.10606,0,0,0,.44727-.40625,1.0752,1.0752,0,0,0,.16113-.581V15.28222a.1673.1673,0,0,1,.17481-.1748h.73535A.17074.17074,0,0,1,44.48961,15.15624Z"/><path d="M47.87829,19.05566a.17.17,0,0,1-.04883-.126V16.85742a.70208.70208,0,0,0-.791-.79786H45.44176a.18419.18419,0,0,1-.1289-.04882.16586.16586,0,0,1-.05274-.126v-.60254a.16586.16586,0,0,1,.05274-.126.18419.18419,0,0,1,.1289-.04882h1.63086a2.14976,2.14976,0,0,1,1.45313.42675,1.68137,1.68137,0,0,1,.48632,1.33008v2.06543a.16585.16585,0,0,1-.05273.126.18422.18422,0,0,1-.12891.04883h-.82617A.17073.17073,0,0,1,47.87829,19.05566Zm-2.56543,0a.16586.16586,0,0,1-.05274-.126V16.88574a.163.163,0,0,1,.05274-.126.17993.17993,0,0,1,.1289-.04883h.82617a.16732.16732,0,0,1,.17481.17481v2.04394a.17038.17038,0,0,1-.04883.12207.163.163,0,0,1-.126.05274h-.82617A.1842.1842,0,0,1,45.31286,19.05566Z"/><path d="M51.29039,17.39648a.163.163,0,0,1-.05273-.126V15.28222a.16589.16589,0,0,1,.05273-.126.185.185,0,0,1,.12989-.04882h.875a.1673.1673,0,0,1,.1748.1748V17.2705a.17282.17282,0,0,1-.04883.12207.16582.16582,0,0,1-.126.05274h-.875A.185.185,0,0,1,51.29039,17.39648Z"/><path d="M53.27868,19.05566a.16586.16586,0,0,1-.05274-.126v-.64453a.18007.18007,0,0,1,.18164-.18164h1.01563a.74549.74549,0,0,0,.83984-.791c.00391-.05566.00684-.126.00684-.21,0-.0791-.00293-.14746-.00684-.20312a.74549.74549,0,0,0-.83984-.791H53.40758a.18007.18007,0,0,1-.18164-.18164v-.64453a.16586.16586,0,0,1,.05274-.126.18419.18419,0,0,1,.1289-.04882h1.04981a1.70137,1.70137,0,0,1,1.93945,1.79882c.00488.05176.00684.11719.00684.19629a2.1716,2.1716,0,0,1-.458,1.47656,1.87931,1.87931,0,0,1-1.48828.5254H53.40758A.1842.1842,0,0,1,53.27868,19.05566Z"/><path d="M58.96227,19.05566a.16585.16585,0,0,1-.05273-.126V16.85742a.70208.70208,0,0,0-.791-.79786H57.055a.1785.1785,0,0,1-.1748-.1748v-.60254a.16861.16861,0,0,1,.05176-.126.17685.17685,0,0,1,.123-.04882h1.10547a2.23218,2.23218,0,0,1,1.45313.39941,1.61254,1.61254,0,0,1,.47949,1.30859v2.11426a.17451.17451,0,0,1-.04883.12207.16583.16583,0,0,1-.126.05274h-.82617A.18493.18493,0,0,1,58.96227,19.05566Z"/><path d="M64.00622,15.15624a.17.17,0,0,1,.04882.126v.60254a.17038.17038,0,0,1-.04882.12207.16294.16294,0,0,1-.126.05273H63.558a1.084,1.084,0,0,0-.1289.35645,2.50963,2.50963,0,0,0-.0459.49707v2.03711a.12893.12893,0,0,1-.06641.1084.23229.23229,0,0,1-.13672.0459h-.81836a.14458.14458,0,0,1-.15429-.1543V16.83691a1.516,1.516,0,0,1,.13965-.77735H60.75133a.18031.18031,0,0,1-.1748-.1748v-.60254a.16589.16589,0,0,1,.05273-.126.17287.17287,0,0,1,.12207-.04882h3.12891A.17077.17077,0,0,1,64.00622,15.15624Z"/><path d="M64.7445,19.05566a.16586.16586,0,0,1-.05274-.126V15.28222a.16586.16586,0,0,1,.05274-.126.18419.18419,0,0,1,.1289-.04882h.875a.1673.1673,0,0,1,.17481.1748v3.64746a.17038.17038,0,0,1-.04883.12207.163.163,0,0,1-.126.05274h-.875A.1842.1842,0,0,1,64.7445,19.05566Z"/><rect class="b" x="6.13394" y="24.39724" width="59.98743" height="2.55319" rx="1.1819"/><rect class="b" x="37.16814" y="28.52299" width="28.95324" height="2.55319" rx="0.8211"/><circle class="c" cx="35.67239" cy="1.90159" r="1.75532"/><circle class="d" cx="35.57239" cy="1.80159" r="1.59574"/><path class="e" d="M35.45766.71483s-.734-.18743-1.0851.79787"/></svg>