<svg xmlns="http://www.w3.org/2000/svg" viewBox="0 0 72.25532 35.69264"><defs><style>.a{fill:#e3a29a;}.b{fill:#452c28;}.c{fill:#a6726c;}.d{fill:#4b417a;opacity:0.2;}.e{fill:#ca000c;}.f{fill:#e69458;}</style></defs><rect class="a" width="72.25532" height="35.69264"/><path class="b" d="M6.05874,11.05615a.16586.16586,0,0,1-.05274-.126V7.28271a.16586.16586,0,0,1,.05274-.126.18419.18419,0,0,1,.1289-.04882H7.84a2.2067,2.2067,0,0,1,1.46679.40918,1.70159,1.70159,0,0,1,.47168,1.34765v2.06543a.17032.17032,0,0,1-.04883.12207.16293.16293,0,0,1-.126.05274H8.77749a.18422.18422,0,0,1-.12891-.04883.16586.16586,0,0,1-.05274-.126V8.85791a.70208.70208,0,0,0-.791-.79786H7.18862v2.87012a.17036.17036,0,0,1-.04883.12207.163.163,0,0,1-.126.05274H6.18764A.1842.1842,0,0,1,6.05874,11.05615Z"/><path class="b" d="M12.421,11.05615a.16585.16585,0,0,1-.05273-.126V8.85791a.70208.70208,0,0,0-.791-.79786H10.51381a.1785.1785,0,0,1-.1748-.1748V7.28271a.16861.16861,0,0,1,.05176-.126.17685.17685,0,0,1,.123-.04882h1.10547a2.23218,2.23218,0,0,1,1.45313.39941,1.61254,1.61254,0,0,1,.47949,1.30859v2.11426a.1745.1745,0,0,1-.04883.12207.16583.16583,0,0,1-.126.05274h-.82617A.18493.18493,0,0,1,12.421,11.05615Z"/><path class="b" d="M14.39565,11.05615a.16586.16586,0,0,1-.05274-.126V7.28271a.16586.16586,0,0,1,.05274-.126.18422.18422,0,0,1,.12891-.04882h.875a.1673.1673,0,0,1,.1748.1748v3.64746a.17032.17032,0,0,1-.04883.12207.16293.16293,0,0,1-.126.05274h-.875A.18422.18422,0,0,1,14.39565,11.05615Z"/><path class="b" d="M20.13881,10.95752a.14776.14776,0,0,1-.042.10156.13569.13569,0,0,1-.10547.0459H19.13a.2359.2359,0,0,1-.18847-.06641c-.03711-.044-.0586-.06934-.06348-.07324L17.65346,9.19384a.78867.78867,0,0,0-.23828.38477,1.85916,1.85916,0,0,0-.05566.46191v.875a.18394.18394,0,0,1-.05274.13672.17532.17532,0,0,1-.1289.05274h-.68653a.161.161,0,0,1-.12207-.05567.18983.18983,0,0,1-.05273-.13379v-.86718a2.45749,2.45749,0,0,1,.16113-.9668,1.78332,1.78332,0,0,1,.6084-.69922L16.37221,7.353a.14812.14812,0,0,1-.03515-.09765A.14005.14005,0,0,1,16.383,7.1538a.1417.1417,0,0,1,.10157-.04589h.82617a.23378.23378,0,0,1,.15039.042.55047.55047,0,0,1,.10156.1123l1.127,1.59571a.61607.61607,0,0,0,.248-.30762,1.342,1.342,0,0,0,.05274-.39942V7.29736a.19364.19364,0,0,1,.04882-.13672.16585.16585,0,0,1,.126-.05273h.73535a.17284.17284,0,0,1,.12988.05566.19325.19325,0,0,1,.05176.13379v.88183a1.83941,1.83941,0,0,1-.17871.81543,1.6589,1.6589,0,0,1-.64746.66114l.85449,1.2041A.1737.1737,0,0,1,20.13881,10.95752Z"/><path class="b" d="M20.9269,11.05615a.16586.16586,0,0,1-.05274-.126V7.28271a.16586.16586,0,0,1,.05274-.126.18422.18422,0,0,1,.12891-.04882h.875a.1673.1673,0,0,1,.1748.1748v3.64746a.17032.17032,0,0,1-.04883.12207.16293.16293,0,0,1-.126.05274h-.875A.18422.18422,0,0,1,20.9269,11.05615Z"/><path class="b" d="M28.12221,7.5249a1.61647,1.61647,0,0,1,.48633,1.29785v2.10742a.1745.1745,0,0,1-.04883.12207.16582.16582,0,0,1-.126.05274h-.82618a.185.185,0,0,1-.12988-.04883.16585.16585,0,0,1-.05273-.126V8.85791a.70178.70178,0,0,0-.79-.79786h-.45508a4.21324,4.21324,0,0,0-.10547,1.0293L26.13,10.93017a.1686.1686,0,0,1-.05175.126.185.185,0,0,1-.12989.04883L24.464,11.09814a.1842.1842,0,0,1-.12891-.04883.16585.16585,0,0,1-.05273-.126v-.55372a.16585.16585,0,0,1,.05273-.126.1842.1842,0,0,1,.12891-.04883h.56738V9.09619a3.73769,3.73769,0,0,1,.10547-1.03614h-.41309a.18494.18494,0,0,1-.12988-.04882.16589.16589,0,0,1-.05273-.126V7.28271a.16589.16589,0,0,1,.05273-.126.18494.18494,0,0,1,.12988-.04882H26.6769A2.16857,2.16857,0,0,1,28.12221,7.5249Z"/><path class="b" d="M29.424,9.397a.16294.16294,0,0,1-.05273-.126V7.28271a.16585.16585,0,0,1,.05273-.126.18492.18492,0,0,1,.12988-.04882h.875a.1673.1673,0,0,1,.17481.1748V9.271a.17282.17282,0,0,1-.04883.12207.16585.16585,0,0,1-.126.05274h-.875A.18493.18493,0,0,1,29.424,9.397Z"/><path class="b" d="M33.80581,11.05224a.17535.17535,0,0,1-.12891.05274H31.42983A.18491.18491,0,0,1,31.3,11.05615a.16586.16586,0,0,1-.05274-.126v-.60254a.16582.16582,0,0,1,.05274-.126.18487.18487,0,0,1,.12988-.04883H32.591l-.0625-1.37891a1.22646,1.22646,0,0,0-.13965-.58789.48191.48191,0,0,0-.43457-.18164H31.5978a.18021.18021,0,0,1-.17578-.17578V7.24072a.17915.17915,0,0,1,.0498-.12891.163.163,0,0,1,.126-.05273h.37793a1.83458,1.83458,0,0,1,1.333.41308,1.9131,1.9131,0,0,1,.45214,1.32325l.09082,2.13476A.14692.14692,0,0,1,33.80581,11.05224Z"/><path class="b" d="M35.4269,8.354c.00879.19141.06543.30371.168.33594l.19629.07031a.16106.16106,0,0,1,.08691.08008.26947.26947,0,0,1,.03223.12988l.00683.35645a.18714.18714,0,0,1-.09472.165.34856.34856,0,0,1-.22754.04493l-.28711-.042a.88775.88775,0,0,1-.60156-.38769A1.39922,1.39922,0,0,1,34.46791,8.27V7.28271a.24506.24506,0,0,1,.05958-.126.15117.15117,0,0,1,.11523-.04882h1.41406a1.80737,1.80737,0,0,1,1.36817.47265,1.98828,1.98828,0,0,1,.49414,1.32617c.0039.04688.00683.11231.00683.19629a2.21067,2.21067,0,0,1-.44824,1.47364,1.76282,1.76282,0,0,1-1.4209.52832H34.7267a.1809.1809,0,0,1-.1289-.04883.16586.16586,0,0,1-.05274-.126v-.64453a.17535.17535,0,0,1,.05274-.12891.1723.1723,0,0,1,.1289-.05273h1.29493a.83762.83762,0,0,0,.585-.20606.81469.81469,0,0,0,.248-.585c.00489-.04687.00684-.11621.00684-.21,0-.08886-.00195-.15625-.00684-.20312a.789.789,0,0,0-.24121-.584.84569.84569,0,0,0-.59179-.207H35.4269Z"/><path class="b" d="M38.6642,11.05615a.16589.16589,0,0,1-.05273-.126V7.28271a.16589.16589,0,0,1,.05273-.126.18423.18423,0,0,1,.12891-.04882h.875a.16729.16729,0,0,1,.1748.1748v3.64746a.17035.17035,0,0,1-.04882.12207.163.163,0,0,1-.126.05274h-.875A.18424.18424,0,0,1,38.6642,11.05615Z"/><path class="b" d="M43.4269,11.05224a.18751.18751,0,0,1-.13281.05274h-.875A.16285.16285,0,0,1,42.3,11.05615a.19766.19766,0,0,1-.05567-.126l-.10547-.51855a1.48447,1.48447,0,0,1-.40625.34375,3.9661,3.9661,0,0,1-.50683.26172,2.47,2.47,0,0,1-.47266.14355l-.04883.00781c-.08008,0-.11914-.03808-.11914-.1123v-.75586c0-.08008.04883-.1377.14649-.17578.0332-.01367.13965-.04688.31933-.10059a2.86052,2.86052,0,0,0,.4375-.165,1.3866,1.3866,0,0,0,.46192-.37793l-.13379-.65136a1.51459,1.51459,0,0,0-.2168-.59473.51164.51164,0,0,0-.43359-.17481H40.921a.18031.18031,0,0,1-.1748-.1748V7.24072a.17838.17838,0,0,1,.04882-.12891.163.163,0,0,1,.126-.05273h.26562a2.168,2.168,0,0,1,.95606.17871,1.31972,1.31972,0,0,1,.57031.54883A3.44969,3.44969,0,0,1,43.049,8.79541l.41992,2.13476A.12434.12434,0,0,1,43.4269,11.05224Z"/><path class="b" d="M49.11538,7.5249a1.61649,1.61649,0,0,1,.48632,1.29785v2.10742a.17453.17453,0,0,1-.04882.12207.16586.16586,0,0,1-.126.05274h-.82617a.185.185,0,0,1-.12989-.04883.16589.16589,0,0,1-.05273-.126V8.85791a.70178.70178,0,0,0-.79-.79786H47.173a4.21373,4.21373,0,0,0-.10547,1.0293l.05567,1.84082a.16861.16861,0,0,1-.05176.126.18493.18493,0,0,1-.12988.04883l-1.48438-.00684a.18416.18416,0,0,1-.1289-.04883.16582.16582,0,0,1-.05274-.126v-.55372a.16582.16582,0,0,1,.05274-.126.18416.18416,0,0,1,.1289-.04883h.56739V9.09619A3.73771,3.73771,0,0,1,46.13,8.06005h-.41308a.18491.18491,0,0,1-.12988-.04882.16586.16586,0,0,1-.05274-.126V7.28271a.16586.16586,0,0,1,.05274-.126.18491.18491,0,0,1,.12988-.04882h1.95312A2.16858,2.16858,0,0,1,49.11538,7.5249Z"/><path class="b" d="M50.44545,11.05615a.16589.16589,0,0,1-.05273-.126V7.28271a.16589.16589,0,0,1,.05273-.126.18423.18423,0,0,1,.12891-.04882h.875a.16729.16729,0,0,1,.1748.1748v3.64746a.17035.17035,0,0,1-.04882.12207.163.163,0,0,1-.126.05274h-.875A.18424.18424,0,0,1,50.44545,11.05615Z"/><path class="b" d="M55.12416,7.54541a1.90491,1.90491,0,0,1,.39942,1.31933,2.06027,2.06027,0,0,1-.52539,1.45606,2.78851,2.78851,0,0,1-1.31641.791l-.28613.084a.13531.13531,0,0,1-.12988-.04883.19807.19807,0,0,1-.05957-.13965v-.707a.203.203,0,0,1,.04882-.12988.36341.36341,0,0,1,.126-.09473l.22461-.09082a1.13157,1.13157,0,0,0,.50684-.374A1.17177,1.17177,0,0,0,54.298,8.8999a.94514.94514,0,0,0-.15332-.61621.74948.74948,0,0,0-.57422-.17481h-.18261l-.9375-.00683a.16732.16732,0,0,1-.17481-.17481V6.31005a.16558.16558,0,0,1,.05176-.126.17684.17684,0,0,1,.123-.04883h.75586a.16732.16732,0,0,1,.1748.1748v.79786h.43457A1.6968,1.6968,0,0,1,55.12416,7.54541Z"/><path class="b" d="M56.2267,9.397a.163.163,0,0,1-.05273-.126V7.28271a.16589.16589,0,0,1,.05273-.126.185.185,0,0,1,.12989-.04882h.875a.1673.1673,0,0,1,.1748.1748V9.271a.17282.17282,0,0,1-.04883.12207.16582.16582,0,0,1-.126.05274h-.875A.185.185,0,0,1,56.2267,9.397Z"/><path class="b" d="M61.81655,7.15673a.17393.17393,0,0,1,.04883.126V9.355a1.52028,1.52028,0,0,1-.4834,1.15136,2.56842,2.56842,0,0,1-1.35742.61231l-1.792.37793a.15934.15934,0,0,1-.13672-.03418.15632.15632,0,0,1-.05957-.126v-.60937a.18229.18229,0,0,1,.04493-.12305.20837.20837,0,0,1,.11621-.06641l.77636-.18847-.82519-2.96094a.86445.86445,0,0,1-.03516-.14063.13319.13319,0,0,1,.042-.09765.13167.13167,0,0,1,.09766-.042h.91016a.17023.17023,0,0,1,.10449.03125.157.157,0,0,1,.05664.07421l.7002,2.86231a.96044.96044,0,0,0,.51757-.39551,1.37193,1.37193,0,0,0,.13965-.6748V7.28271a.16881.16881,0,0,1,.17578-.1748h.833A.17392.17392,0,0,1,61.81655,7.15673Z"/><path class="b" d="M63.56655,8.354c.00879.19141.06543.30371.168.33594l.19629.07031a.16109.16109,0,0,1,.08691.08008.26958.26958,0,0,1,.03223.12988l.00683.35645a.18714.18714,0,0,1-.09472.165.34857.34857,0,0,1-.22754.04493l-.28711-.042a.88779.88779,0,0,1-.60157-.38769A1.39922,1.39922,0,0,1,62.60756,8.27V7.28271a.24513.24513,0,0,1,.05957-.126.1512.1512,0,0,1,.11524-.04882h1.41406a1.80733,1.80733,0,0,1,1.36816.47265,1.98828,1.98828,0,0,1,.49415,1.32617c.0039.04688.00683.11231.00683.19629a2.21067,2.21067,0,0,1-.44824,1.47364,1.76282,1.76282,0,0,1-1.4209.52832H62.86635a.18089.18089,0,0,1-.1289-.04883.16586.16586,0,0,1-.05274-.126v-.64453a.17535.17535,0,0,1,.05274-.12891.17228.17228,0,0,1,.1289-.05273h1.29492a.83763.83763,0,0,0,.585-.20606.81469.81469,0,0,0,.248-.585c.00488-.04687.00684-.11621.00684-.21,0-.08886-.002-.15625-.00684-.20312a.789.789,0,0,0-.24121-.584.84571.84571,0,0,0-.5918-.207h-.59472Z"/><path class="b" d="M41.6642,18.95752a.14772.14772,0,0,1-.042.10156.13568.13568,0,0,1-.10547.0459h-.86133a.2359.2359,0,0,1-.18847-.06641c-.03711-.04395-.0586-.06934-.06348-.07324l-1.22461-1.77149a.78867.78867,0,0,0-.23828.38477,1.85916,1.85916,0,0,0-.05566.46191v.875a.18394.18394,0,0,1-.05274.13672.17532.17532,0,0,1-.1289.05274h-.68653a.161.161,0,0,1-.12207-.05567.18983.18983,0,0,1-.05273-.13379v-.86718a2.45749,2.45749,0,0,1,.16113-.9668,1.78332,1.78332,0,0,1,.6084-.69922L37.8976,15.353a.14812.14812,0,0,1-.03515-.09765.14005.14005,0,0,1,.04589-.10157.1417.1417,0,0,1,.10157-.04589h.82617a.23378.23378,0,0,1,.15039.042.55047.55047,0,0,1,.10156.1123l1.127,1.59571a.6161.6161,0,0,0,.248-.30762,1.342,1.342,0,0,0,.05274-.39942v-.85351a.19364.19364,0,0,1,.04882-.13672.16585.16585,0,0,1,.126-.05273h.73535a.17288.17288,0,0,1,.12989.05566.19324.19324,0,0,1,.05175.13379v.88183a1.83941,1.83941,0,0,1-.17871.81543,1.6589,1.6589,0,0,1-.64746.66114l.85449,1.2041A.1737.1737,0,0,1,41.6642,18.95752Z"/><path class="b" d="M42.423,17.397a.163.163,0,0,1-.05273-.126V15.28271a.16589.16589,0,0,1,.05273-.126.185.185,0,0,1,.12989-.04882h.875a.1673.1673,0,0,1,.1748.1748V17.271a.17282.17282,0,0,1-.04883.12207.16582.16582,0,0,1-.126.05274h-.875A.185.185,0,0,1,42.423,17.397Z"/><path class="b" d="M46.34975,19.05615a.16585.16585,0,0,1-.05273-.126V16.85791a.70208.70208,0,0,0-.791-.79786H44.44252a.1785.1785,0,0,1-.1748-.1748v-.60254a.16861.16861,0,0,1,.05176-.126.17685.17685,0,0,1,.123-.04882H45.548a2.23216,2.23216,0,0,1,1.45313.39941,1.61254,1.61254,0,0,1,.47949,1.30859v2.11426a.1745.1745,0,0,1-.04883.12207.16582.16582,0,0,1-.126.05274h-.82618A.185.185,0,0,1,46.34975,19.05615Z"/><path class="b" d="M48.19057,19.05224a.16929.16929,0,0,1-.05176-.12207v-.60254a.16857.16857,0,0,1,.05176-.126.17684.17684,0,0,1,.123-.04883h1.75683V16.85791a.69916.69916,0,0,0-.791-.791h-.89551a.163.163,0,0,1-.126-.05273.18077.18077,0,0,1-.0498-.12891v-.60254a.16589.16589,0,0,1,.05273-.126.17689.17689,0,0,1,.123-.04882h.93066a2.28137,2.28137,0,0,1,1.48047.41308,1.63629,1.63629,0,0,1,.5,1.33692v1.29492h.24512a.16881.16881,0,0,1,.17578.1748v.60254a.17131.17131,0,0,1-.0498.12207.163.163,0,0,1-.126.05274H48.31362A.16864.16864,0,0,1,48.19057,19.05224Z"/><path class="b" d="M53.79116,19.05615a.16586.16586,0,0,1-.05274-.126V15.28271a.16586.16586,0,0,1,.05274-.126.18419.18419,0,0,1,.1289-.04882h1.58887a2.12393,2.12393,0,0,1,1.418.40234,1.65048,1.65048,0,0,1,.46582,1.3125v2.10059a.18009.18009,0,0,1-.18262.18164h-3.29A.1842.1842,0,0,1,53.79116,19.05615Zm2.47461-.90332V16.85791a.70208.70208,0,0,0-.791-.79786H54.8019v2.09278Z"/><path class="b" d="M58.20815,17.397a.163.163,0,0,1-.05274-.126V15.28271a.16586.16586,0,0,1,.05274-.126.18492.18492,0,0,1,.12988-.04882h.875a.1673.1673,0,0,1,.17481.1748V17.271a.17282.17282,0,0,1-.04883.12207.16585.16585,0,0,1-.126.05274h-.875A.18493.18493,0,0,1,58.20815,17.397Z"/><path class="b" d="M60.2101,17.397a.163.163,0,0,1-.05273-.126V15.28271a.16589.16589,0,0,1,.05273-.126.185.185,0,0,1,.12989-.04882h.875a.1673.1673,0,0,1,.1748.1748V17.271a.17282.17282,0,0,1-.04883.12207.16582.16582,0,0,1-.126.05274H60.34A.185.185,0,0,1,60.2101,17.397Z"/><path class="b" d="M62.24038,19.05615a.16586.16586,0,0,1-.05274-.126V15.28271a.16586.16586,0,0,1,.05274-.126.18419.18419,0,0,1,.1289-.04882h1.65235a2.20668,2.20668,0,0,1,1.46679.40918,1.70159,1.70159,0,0,1,.47168,1.34765v2.06543a.17032.17032,0,0,1-.04883.12207.16291.16291,0,0,1-.126.05274h-.82617a.18422.18422,0,0,1-.12891-.04883.16585.16585,0,0,1-.05273-.126V16.85791a.70208.70208,0,0,0-.791-.79786h-.61621v2.87012a.17036.17036,0,0,1-.04883.12207.163.163,0,0,1-.126.05274h-.82617A.1842.1842,0,0,1,62.24038,19.05615Z"/><rect class="c" x="6.13394" y="24.39724" width="59.98743" height="2.55319" rx="1.1819"/><rect class="c" x="37.16814" y="28.52299" width="28.95324" height="2.55319" rx="0.8211"/><circle class="d" cx="35.67239" cy="1.90159" r="1.75532"/><circle class="e" cx="35.57239" cy="1.80159" r="1.59574"/><path class="f" d="M35.45766.71483s-.734-.18743-1.0851.79787"/></svg>