<svg xmlns="http://www.w3.org/2000/svg" viewBox="0 0 72.25532 35.69264"><defs><style>.a{fill:#b0daea;}.b{fill:#455a60;}.c{fill:#96bfcc;}.d{fill:#6d8393;opacity:0.2;}.e{fill:#e30613;}.f{fill:#ff9494;}</style></defs><rect class="a" width="72.25532" height="35.69264"/><path class="b" d="M30.86577,7.5249a1.61647,1.61647,0,0,1,.48633,1.29785v2.10742a.17453.17453,0,0,1-.04883.12207.16584.16584,0,0,1-.126.05273h-.82617a.18491.18491,0,0,1-.12988-.04882.16586.16586,0,0,1-.05274-.126V8.8579a.70178.70178,0,0,0-.79-.79785h-.45507a4.2127,4.2127,0,0,0-.10547,1.0293l.05566,1.84082a.16861.16861,0,0,1-.05176.126.18491.18491,0,0,1-.12988.04882l-1.48437-.00683a.18418.18418,0,0,1-.12891-.04883.16585.16585,0,0,1-.05274-.126v-.55371a.16582.16582,0,0,1,.05274-.126.18418.18418,0,0,1,.12891-.04883H27.775V9.09618a3.73728,3.73728,0,0,1,.10547-1.03613h-.41309a.18487.18487,0,0,1-.12988-.04883.16582.16582,0,0,1-.05274-.126V7.28271a.16585.16585,0,0,1,.05274-.126.18491.18491,0,0,1,.12988-.04883h1.95313A2.16857,2.16857,0,0,1,30.86577,7.5249Z"/><path class="b" d="M32.19585,11.05615a.16586.16586,0,0,1-.05274-.126V7.28271a.16585.16585,0,0,1,.05274-.126.1842.1842,0,0,1,.1289-.04883h.875a.16732.16732,0,0,1,.17481.17481v3.64746a.17039.17039,0,0,1-.04883.12207.16294.16294,0,0,1-.126.05273h-.875A.18419.18419,0,0,1,32.19585,11.05615Z"/><path class="b" d="M36.87456,7.5454A1.905,1.905,0,0,1,37.274,8.86474a2.06026,2.06026,0,0,1-.52539,1.45605,2.78853,2.78853,0,0,1-1.31641.791l-.28613.084a.13529.13529,0,0,1-.12988-.04882.19808.19808,0,0,1-.05957-.13965v-.707a.203.203,0,0,1,.04883-.12989.36325.36325,0,0,1,.126-.09472l.22461-.09082a1.13151,1.13151,0,0,0,.50684-.374,1.17174,1.17174,0,0,0,.18555-.71093.94525.94525,0,0,0-.15332-.61622.74951.74951,0,0,0-.57422-.1748h-.18262l-.9375-.00684a.1673.1673,0,0,1-.17481-.1748V6.31005a.16556.16556,0,0,1,.05176-.126.17684.17684,0,0,1,.123-.04883h.75586a.1673.1673,0,0,1,.1748.1748V7.1079H35.566A1.69687,1.69687,0,0,1,36.87456,7.5454Z"/><path class="b" d="M37.9771,9.397a.163.163,0,0,1-.05274-.126V7.28271a.16585.16585,0,0,1,.05274-.126A.18491.18491,0,0,1,38.107,7.1079h.875a.1673.1673,0,0,1,.1748.17481V9.271a.17287.17287,0,0,1-.04882.12207.16585.16585,0,0,1-.126.05273h-.875A.18491.18491,0,0,1,37.9771,9.397Z"/><path class="b" d="M43.56694,7.15673a.17387.17387,0,0,1,.04883.126V9.355a1.52025,1.52025,0,0,1-.4834,1.15137,2.56838,2.56838,0,0,1-1.35742.61231l-1.792.37793a.15932.15932,0,0,1-.13672-.03418.15629.15629,0,0,1-.05957-.126V10.727a.1823.1823,0,0,1,.04492-.123.20837.20837,0,0,1,.11621-.06641l.77637-.18848L39.899,7.38818a.86386.86386,0,0,1-.03515-.14063.13319.13319,0,0,1,.042-.09765.13165.13165,0,0,1,.09765-.042h.91016a.1703.1703,0,0,1,.10449.03125.157.157,0,0,1,.05664.07422l.7002,2.86231a.96052.96052,0,0,0,.51758-.39551,1.372,1.372,0,0,0,.13964-.67481V7.28271A.16883.16883,0,0,1,42.608,7.1079h.833A.17389.17389,0,0,1,43.56694,7.15673Z"/><path class="b" d="M45.31694,8.354c.00879.1914.06543.30371.168.33593l.19629.07032a.161.161,0,0,1,.08691.08008.26942.26942,0,0,1,.03223.12988l.00683.35644a.18716.18716,0,0,1-.09472.165.34849.34849,0,0,1-.22754.04492l-.28711-.042a.88778.88778,0,0,1-.60156-.38769A1.39923,1.39923,0,0,1,44.358,8.27v-.9873a.245.245,0,0,1,.05957-.126.15119.15119,0,0,1,.11523-.04883h1.41406a1.80736,1.80736,0,0,1,1.36817.47266,1.98821,1.98821,0,0,1,.49414,1.32617c.0039.04688.00683.11231.00683.19629a2.21066,2.21066,0,0,1-.44824,1.47363,1.76278,1.76278,0,0,1-1.4209.52832H44.61675a.1809.1809,0,0,1-.12891-.04882.16586.16586,0,0,1-.05274-.126v-.64453a.17535.17535,0,0,1,.05274-.12891.17231.17231,0,0,1,.12891-.05273h1.29492a.83762.83762,0,0,0,.585-.20606.81467.81467,0,0,0,.248-.585c.00489-.04687.00684-.11621.00684-.21,0-.08887-.002-.15625-.00684-.20312a.789.789,0,0,0-.24121-.584.84569.84569,0,0,0-.59179-.207h-.59473Z"/><path class="b" d="M53.69292,7.5249a1.61647,1.61647,0,0,1,.48633,1.29785v2.10742a.17458.17458,0,0,1-.04883.12207.16585.16585,0,0,1-.126.05273h-.82617a.18491.18491,0,0,1-.12988-.04882.16586.16586,0,0,1-.05274-.126V8.8579a.70178.70178,0,0,0-.79-.79785h-.45508a4.2132,4.2132,0,0,0-.10546,1.0293l.05566,1.84082a.16861.16861,0,0,1-.05176.126.18491.18491,0,0,1-.12988.04882l-1.48438-.00683a.18416.18416,0,0,1-.1289-.04883.16585.16585,0,0,1-.05274-.126v-.55371a.16582.16582,0,0,1,.05274-.126.18416.18416,0,0,1,.1289-.04883h.56739V9.09618a3.73728,3.73728,0,0,1,.10547-1.03613h-.41309a.18487.18487,0,0,1-.12988-.04883.16582.16582,0,0,1-.05274-.126V7.28271a.16585.16585,0,0,1,.05274-.126.18491.18491,0,0,1,.12988-.04883H52.2476A2.16858,2.16858,0,0,1,53.69292,7.5249Z"/><path class="b" d="M55.022,11.05615a.16586.16586,0,0,1-.05274-.126V7.28271a.16585.16585,0,0,1,.05274-.126.1842.1842,0,0,1,.1289-.04883h.875a.16732.16732,0,0,1,.17481.17481v3.64746a.17039.17039,0,0,1-.04883.12207.16294.16294,0,0,1-.126.05273h-.875A.18419.18419,0,0,1,55.022,11.05615Z"/><path class="b" d="M60.64018,7.15673a.17387.17387,0,0,1,.04883.126V9.355a1.52025,1.52025,0,0,1-.4834,1.15137,2.56835,2.56835,0,0,1-1.35742.61231l-1.792.37793a.15932.15932,0,0,1-.13672-.03418.15629.15629,0,0,1-.05957-.126V10.727a.1823.1823,0,0,1,.04492-.123.2084.2084,0,0,1,.11621-.06641l.77637-.18848-.8252-2.96093a.865.865,0,0,1-.03515-.14063.13319.13319,0,0,1,.042-.09765.13167.13167,0,0,1,.09766-.042h.91015a.1703.1703,0,0,1,.10449.03125.15706.15706,0,0,1,.05665.07422l.70019,2.86231a.96052.96052,0,0,0,.51758-.39551,1.372,1.372,0,0,0,.13965-.67481V7.28271a.16881.16881,0,0,1,.17578-.17481h.833A.17389.17389,0,0,1,60.64018,7.15673Z"/><path class="b" d="M65.98,7.15673a.1739.1739,0,0,1,.04882.126v1.834a2.05953,2.05953,0,0,1-.27929,1.082,1.90065,1.90065,0,0,1-.76367.7168,2.21565,2.21565,0,0,1-1.07032.24512h-.67285a2.10775,2.10775,0,0,1-.97949-.2168,1.54032,1.54032,0,0,1-.86133-1.40723V7.28271a.16585.16585,0,0,1,.05274-.126.18491.18491,0,0,1,.12988-.04883h.73437a.16732.16732,0,0,1,.17481.17481l.00781,1.68066a.64288.64288,0,0,0,.53125-.291,1.428,1.428,0,0,0,.1543-.73145V7.29736a.184.184,0,0,1,.05273-.13672.17535.17535,0,0,1,.12891-.05274h.72851a.161.161,0,0,1,.12207.05567.1898.1898,0,0,1,.05274.13379v.65722a1.82442,1.82442,0,0,1-.41309,1.26075A1.74,1.74,0,0,1,62.69,9.75439a.909.909,0,0,0,.35351.34277,1.01277,1.01277,0,0,0,.48633.11914H63.691a1.39807,1.39807,0,0,0,.64454-.14746,1.10617,1.10617,0,0,0,.44726-.40625,1.0752,1.0752,0,0,0,.16113-.581V7.28271a.16732.16732,0,0,1,.17481-.17481h.73535A.17077.17077,0,0,1,65.98,7.15673Z"/><rect class="c" x="6.13394" y="24.39724" width="59.98743" height="2.55319" rx="1.1819"/><rect class="c" x="37.16814" y="28.52299" width="28.95324" height="2.55319" rx="0.8211"/><rect class="c" x="6.13394" y="15.82723" width="59.98743" height="2.55319" rx="1.1819"/><rect class="c" x="37.16814" y="19.95299" width="28.95324" height="2.55319" rx="0.8211"/><circle class="d" cx="35.67239" cy="1.90159" r="1.75532"/><circle class="e" cx="35.57239" cy="1.80159" r="1.59574"/><path class="f" d="M35.45766.71483s-.734-.18743-1.0851.79787"/></svg>