<svg xmlns="http://www.w3.org/2000/svg" viewBox="0 0 72.25532 35.69264"><defs><style>.a{fill:#ffdfdf;}.b{fill:#e2bac5;}.c{fill:#5a7b93;opacity:0.2;}.d{fill:#e3000d;}.e{fill:#ff7474;}</style></defs><rect class="a" width="72.25532" height="35.69264"/><path d="M17.21969,11.05663a.17.17,0,0,1-.04883-.126V8.85839a.70207.70207,0,0,0-.791-.79785H14.78317a.18418.18418,0,0,1-.12891-.04883.16582.16582,0,0,1-.05273-.126V7.2832a.16584.16584,0,0,1,.05273-.126.18418.18418,0,0,1,.12891-.04883H16.414a2.14973,2.14973,0,0,1,1.45312.42676,1.68138,1.68138,0,0,1,.48633,1.33008v2.06543a.16582.16582,0,0,1-.05274.126.18416.18416,0,0,1-.1289.04883h-.82617A.17073.17073,0,0,1,17.21969,11.05663Zm-2.56543,0a.16582.16582,0,0,1-.05273-.126V8.88671a.1629.1629,0,0,1,.05273-.126.17992.17992,0,0,1,.12891-.04883h.82617a.16732.16732,0,0,1,.1748.1748v2.04395a.17035.17035,0,0,1-.04883.12207.16294.16294,0,0,1-.126.05273h-.82617A.18418.18418,0,0,1,14.65426,11.05663Z"/><path d="M19.16207,9.39745a.16294.16294,0,0,1-.05273-.126V7.2832a.16587.16587,0,0,1,.05273-.126.1849.1849,0,0,1,.12988-.04883h.875a.16732.16732,0,0,1,.17481.17481V9.27148a.17284.17284,0,0,1-.04883.12207.16586.16586,0,0,1-.126.05273h-.875A.1849.1849,0,0,1,19.16207,9.39745Z"/><path d="M22.0566,8.35449c.00879.1914.06543.30371.168.33593l.19629.07032a.16105.16105,0,0,1,.08692.08007A.26959.26959,0,0,1,22.54,8.9707l.00684.35644a.18718.18718,0,0,1-.09473.165.34856.34856,0,0,1-.22754.04492l-.28711-.042a.88784.88784,0,0,1-.60156-.38769,1.39923,1.39923,0,0,1-.23828-.83692V7.2832a.24509.24509,0,0,1,.05957-.126.15115.15115,0,0,1,.11523-.04883h1.41407a1.80735,1.80735,0,0,1,1.36816.47266,1.98819,1.98819,0,0,1,.49414,1.32617c.00391.04687.00684.1123.00684.19629a2.21066,2.21066,0,0,1-.44825,1.47363,1.76276,1.76276,0,0,1-1.42089.52832H21.35641a.18087.18087,0,0,1-.12891-.04883.16585.16585,0,0,1-.05273-.126v-.64453a.17537.17537,0,0,1,.05273-.12891.17227.17227,0,0,1,.12891-.05273h1.29492a.8376.8376,0,0,0,.585-.20606.81468.81468,0,0,0,.248-.585c.00488-.04688.00683-.11621.00683-.21,0-.08887-.002-.15625-.00683-.20313a.789.789,0,0,0-.24121-.584.84569.84569,0,0,0-.5918-.207H22.0566Z"/><path d="M27.13473,11.05663a.16582.16582,0,0,1-.05274-.126V8.85839a.70207.70207,0,0,0-.791-.79785H25.2275a.17848.17848,0,0,1-.1748-.1748V7.2832a.16862.16862,0,0,1,.05175-.126.17686.17686,0,0,1,.123-.04883H26.333a2.23214,2.23214,0,0,1,1.45313.39942,1.61253,1.61253,0,0,1,.47949,1.30859v2.11426a.17453.17453,0,0,1-.04883.12207.16587.16587,0,0,1-.126.05273h-.82617A.18487.18487,0,0,1,27.13473,11.05663Z"/><path d="M32.77731,7.52538a1.61648,1.61648,0,0,1,.48632,1.29786v2.10742a.17457.17457,0,0,1-.04882.12207.16589.16589,0,0,1-.126.05273h-.82617a.18487.18487,0,0,1-.12988-.04883.16582.16582,0,0,1-.05274-.126V8.85839a.70178.70178,0,0,0-.79-.79785h-.45508a4.21368,4.21368,0,0,0-.10547,1.0293l.05567,1.84082a.16857.16857,0,0,1-.05176.126.18489.18489,0,0,1-.12988.04883l-1.48438-.00683a.1842.1842,0,0,1-.1289-.04883.16586.16586,0,0,1-.05274-.126v-.55371a.16586.16586,0,0,1,.05274-.126.18419.18419,0,0,1,.1289-.04882h.56739V9.09667A3.73768,3.73768,0,0,1,29.792,8.06054h-.41308a.18487.18487,0,0,1-.12988-.04883.16582.16582,0,0,1-.05274-.126V7.2832a.16585.16585,0,0,1,.05274-.126.18487.18487,0,0,1,.12988-.04883H31.332A2.16858,2.16858,0,0,1,32.77731,7.52538Z"/><path d="M34.10738,11.05663a.16585.16585,0,0,1-.05273-.126V7.2832a.16587.16587,0,0,1,.05273-.126.1842.1842,0,0,1,.12891-.04883h.875a.16732.16732,0,0,1,.17481.17481v3.64746a.17039.17039,0,0,1-.04883.12207.163.163,0,0,1-.126.05273h-.875A.1842.1842,0,0,1,34.10738,11.05663Z"/><path d="M36.13668,9.39745a.16294.16294,0,0,1-.05273-.126V7.2832a.16587.16587,0,0,1,.05273-.126.1849.1849,0,0,1,.12988-.04883h.875a.16732.16732,0,0,1,.17481.17481V9.27148a.17284.17284,0,0,1-.04883.12207.16586.16586,0,0,1-.126.05273h-.875A.1849.1849,0,0,1,36.13668,9.39745Z"/><path d="M40.31539,7.15722a.16585.16585,0,0,1,.05274.126v.60254a.17364.17364,0,0,1-.18164.1748h-.32227a1.08316,1.08316,0,0,0-.12988.35645,2.513,2.513,0,0,0-.04492.49707v2.03711a.13218.13218,0,0,1-.06348.10839.21709.21709,0,0,1-.13281.0459h-.81934a.14873.14873,0,0,1-.11133-.042.151.151,0,0,1-.042-.1123V8.83788a1.5057,1.5057,0,0,1,.13965-.77734h-.52539a.18033.18033,0,0,1-.17481-.1748V7.2832a.16585.16585,0,0,1,.05274-.126.17622.17622,0,0,1,.12207-.04883h2.05176A.18416.18416,0,0,1,40.31539,7.15722Z"/><path d="M41.05758,9.39745a.1629.1629,0,0,1-.05273-.126V7.2832a.16584.16584,0,0,1,.05273-.126.18489.18489,0,0,1,.12988-.04883h.875a.16732.16732,0,0,1,.17481.17481V9.27148a.17284.17284,0,0,1-.04883.12207.16587.16587,0,0,1-.126.05273h-.875A.18489.18489,0,0,1,41.05758,9.39745Z"/><path d="M43.95211,8.35449c.00879.1914.06543.30371.168.33593l.19629.07032a.161.161,0,0,1,.08691.08007.26948.26948,0,0,1,.03223.12989l.00684.35644a.18718.18718,0,0,1-.09473.165.34856.34856,0,0,1-.22754.04492l-.28711-.042a.88782.88782,0,0,1-.60156-.38769,1.39923,1.39923,0,0,1-.23828-.83692V7.2832a.245.245,0,0,1,.05957-.126.15115.15115,0,0,1,.11523-.04883H44.582a1.80736,1.80736,0,0,1,1.36817.47266,1.98819,1.98819,0,0,1,.49414,1.32617c.0039.04687.00683.1123.00683.19629a2.21066,2.21066,0,0,1-.44824,1.47363,1.76278,1.76278,0,0,1-1.4209.52832H43.25192a.18087.18087,0,0,1-.12891-.04883.16582.16582,0,0,1-.05273-.126v-.64453a.17533.17533,0,0,1,.05273-.12891.17227.17227,0,0,1,.12891-.05273h1.29492a.83762.83762,0,0,0,.585-.20606.81472.81472,0,0,0,.248-.585c.00488-.04688.00683-.11621.00683-.21,0-.08887-.002-.15625-.00683-.20313a.789.789,0,0,0-.24122-.584.84564.84564,0,0,0-.59179-.207h-.59473Z"/><path d="M48.6318,9.39745a.16291.16291,0,0,1-.05274-.126V7.2832a.16585.16585,0,0,1,.05274-.126.18487.18487,0,0,1,.12988-.04883h.875a.16732.16732,0,0,1,.17481.17481V9.27148a.17288.17288,0,0,1-.04883.12207.16589.16589,0,0,1-.126.05273h-.875A.18487.18487,0,0,1,48.6318,9.39745Z"/><path d="M50.66207,11.05663a.16585.16585,0,0,1-.05273-.126V7.2832a.16587.16587,0,0,1,.05273-.126.1842.1842,0,0,1,.12891-.04883h1.65234a2.20676,2.20676,0,0,1,1.4668.40918,1.70166,1.70166,0,0,1,.47168,1.34766v2.06543a.17039.17039,0,0,1-.04883.12207.163.163,0,0,1-.126.05273h-.82617a.18416.18416,0,0,1-.1289-.04883.16582.16582,0,0,1-.05274-.126V8.85839a.70207.70207,0,0,0-.791-.79785H51.792v2.87012a.17038.17038,0,0,1-.04882.12207.163.163,0,0,1-.126.05273H50.791A.1842.1842,0,0,1,50.66207,11.05663Z"/><path d="M58.70113,7.53515A1.69457,1.69457,0,0,1,59.1484,8.8164v2.11426a.17035.17035,0,0,1-.04883.12207.163.163,0,0,1-.126.05273H57.06246a.18031.18031,0,0,1-.1748-.1748v-.60254a.16587.16587,0,0,1,.05273-.126.17458.17458,0,0,1,.12207-.04883h.90332V8.87206a.84165.84165,0,0,0-.1748-.5664.57236.57236,0,0,0-.45508-.20313H56.79l-.5957,2.82129a.21014.21014,0,0,1-.05567.12891.16294.16294,0,0,1-.126.05273H55.208a.176.176,0,0,1-.12988-.05273.13567.13567,0,0,1-.03809-.12891l.68555-2.81445h-.46192a.16293.16293,0,0,1-.126-.05274.18416.18416,0,0,1-.04883-.1289V7.2832a.16587.16587,0,0,1,.05273-.126.17284.17284,0,0,1,.12207-.04883H57.5107A1.6573,1.6573,0,0,1,58.70113,7.53515Z"/><path d="M59.98531,11.05663a.16585.16585,0,0,1-.05273-.126V7.2832a.16587.16587,0,0,1,.05273-.126.1842.1842,0,0,1,.12891-.04883h.875a.16732.16732,0,0,1,.17481.17481v3.64746a.17039.17039,0,0,1-.04883.12207.163.163,0,0,1-.126.05273h-.875A.1842.1842,0,0,1,59.98531,11.05663Z"/><path d="M65.51949,7.53515a1.69457,1.69457,0,0,1,.44727,1.28125v2.11426a.17039.17039,0,0,1-.04883.12207.163.163,0,0,1-.126.05273H63.88082a.18031.18031,0,0,1-.1748-.1748v-.60254a.16587.16587,0,0,1,.05273-.126.17458.17458,0,0,1,.12207-.04883h.90332V8.87206a.84165.84165,0,0,0-.1748-.5664.57236.57236,0,0,0-.45508-.20313h-.5459l-.5957,2.82129a.21014.21014,0,0,1-.05567.12891.16294.16294,0,0,1-.126.05273h-.80469a.176.176,0,0,1-.12988-.05273.13567.13567,0,0,1-.03809-.12891l.68555-2.81445H62.082a.16293.16293,0,0,1-.126-.05274.18416.18416,0,0,1-.04883-.1289V7.2832a.16587.16587,0,0,1,.05273-.126.17284.17284,0,0,1,.12207-.04883h2.24707A1.65731,1.65731,0,0,1,65.51949,7.53515Z"/><path d="M27.30953,19.05663a.16585.16585,0,0,1-.05273-.126V15.2832a.16587.16587,0,0,1,.05273-.126.1842.1842,0,0,1,.12891-.04883h1.58887a2.12394,2.12394,0,0,1,1.418.40235,1.65052,1.65052,0,0,1,.46582,1.3125v2.10058a.18009.18009,0,0,1-.18262.18164h-3.29A.1842.1842,0,0,1,27.30953,19.05663Zm2.47461-.90332V16.85839a.70207.70207,0,0,0-.791-.79785h-.67285v2.09277Z"/><path d="M35.42281,15.52538a1.61649,1.61649,0,0,1,.48633,1.29786v2.10742a.17453.17453,0,0,1-.04883.12207.16585.16585,0,0,1-.126.05273h-.82617a.18491.18491,0,0,1-.12989-.04883.16585.16585,0,0,1-.05273-.126V16.85839a.70178.70178,0,0,0-.79-.79785h-.45508a4.21368,4.21368,0,0,0-.10547,1.0293l.05567,1.84082a.16857.16857,0,0,1-.05176.126.1849.1849,0,0,1-.12988.04883l-1.48438-.00683a.18424.18424,0,0,1-.12891-.04883.16589.16589,0,0,1-.05273-.126v-.55371a.16589.16589,0,0,1,.05273-.126.18423.18423,0,0,1,.12891-.04882H32.332V17.09667a3.73766,3.73766,0,0,1,.10547-1.03613h-.41308a.18491.18491,0,0,1-.12989-.04883.16585.16585,0,0,1-.05273-.126V15.2832a.16587.16587,0,0,1,.05273-.126.18491.18491,0,0,1,.12989-.04883H33.9775A2.16856,2.16856,0,0,1,35.42281,15.52538Z"/><path d="M39.458,19.05273a.18754.18754,0,0,1-.13281.05273h-.875a.16281.16281,0,0,1-.11914-.04883.19761.19761,0,0,1-.05567-.126l-.10547-.51856a1.48412,1.48412,0,0,1-.40625.34375,3.96415,3.96415,0,0,1-.50683.26172,2.46932,2.46932,0,0,1-.47266.14356l-.04883.00781c-.08007,0-.11914-.03809-.11914-.11231v-.75586c0-.08007.04883-.13769.14649-.17578.0332-.01367.13965-.04687.31933-.10058a2.86157,2.86157,0,0,0,.4375-.165,1.38672,1.38672,0,0,0,.46192-.37793l-.13379-.65137a1.51459,1.51459,0,0,0-.2168-.59473.51163.51163,0,0,0-.43359-.1748h-.24512a.18031.18031,0,0,1-.1748-.1748V15.2412a.17835.17835,0,0,1,.04882-.1289.163.163,0,0,1,.126-.05274h.26563a2.168,2.168,0,0,1,.956.17871,1.31972,1.31972,0,0,1,.57031.54883A3.4499,3.4499,0,0,1,39.08,16.79589L39.5,18.93066A.12436.12436,0,0,1,39.458,19.05273Z"/><path d="M44.4902,15.15722a.17391.17391,0,0,1,.04883.126v1.834a2.05956,2.05956,0,0,1-.2793,1.082,1.90065,1.90065,0,0,1-.76367.7168,2.21563,2.21563,0,0,1-1.07032.24512h-.67285a2.10778,2.10778,0,0,1-.97949-.2168,1.54037,1.54037,0,0,1-.86133-1.40723V15.2832a.16585.16585,0,0,1,.05274-.126.18487.18487,0,0,1,.12988-.04883h.73437a.16732.16732,0,0,1,.17481.17481l.00781,1.68066a.64289.64289,0,0,0,.53125-.291,1.428,1.428,0,0,0,.1543-.73144v-.64356a.184.184,0,0,1,.05273-.13671.17535.17535,0,0,1,.12891-.05274h.72851a.161.161,0,0,1,.12207.05567.18979.18979,0,0,1,.05274.13378v.65723a1.82438,1.82438,0,0,1-.41309,1.26074,1.73992,1.73992,0,0,1-1.16894.53907.90911.90911,0,0,0,.35351.34277,1.01277,1.01277,0,0,0,.48633.11914h.16113a1.39807,1.39807,0,0,0,.64454-.14746,1.10617,1.10617,0,0,0,.44726-.40625,1.07524,1.07524,0,0,0,.16113-.58106V15.2832a.16732.16732,0,0,1,.17481-.17481h.73535A.17073.17073,0,0,1,44.4902,15.15722Z"/><path d="M47.87887,19.05663a.17.17,0,0,1-.04883-.126V16.85839a.70207.70207,0,0,0-.791-.79785H45.44235a.18418.18418,0,0,1-.12891-.04883.16582.16582,0,0,1-.05274-.126V15.2832a.16585.16585,0,0,1,.05274-.126.18418.18418,0,0,1,.12891-.04883H47.0732a2.14974,2.14974,0,0,1,1.45313.42676,1.68138,1.68138,0,0,1,.48633,1.33008v2.06543a.16582.16582,0,0,1-.05274.126.18416.18416,0,0,1-.1289.04883h-.82617A.17073.17073,0,0,1,47.87887,19.05663Zm-2.56543,0a.16582.16582,0,0,1-.05274-.126V16.88671a.16291.16291,0,0,1,.05274-.126.17992.17992,0,0,1,.12891-.04883h.82617a.16732.16732,0,0,1,.1748.1748v2.04395a.17035.17035,0,0,1-.04883.12207.16294.16294,0,0,1-.126.05273h-.82617A.18418.18418,0,0,1,45.31344,19.05663Z"/><path d="M51.291,17.39745a.16291.16291,0,0,1-.05274-.126V15.2832a.16585.16585,0,0,1,.05274-.126.18487.18487,0,0,1,.12988-.04883h.875a.16732.16732,0,0,1,.17481.17481v1.98828a.17288.17288,0,0,1-.04883.12207.16589.16589,0,0,1-.126.05273h-.875A.18487.18487,0,0,1,51.291,17.39745Z"/><path d="M53.27926,19.05663a.16582.16582,0,0,1-.05273-.126v-.64453a.18006.18006,0,0,1,.18164-.18164h1.01562a.74549.74549,0,0,0,.83984-.791c.00391-.05566.00684-.126.00684-.21,0-.0791-.00293-.14746-.00684-.20313a.74549.74549,0,0,0-.83984-.791H53.40817a.18007.18007,0,0,1-.18164-.18164V15.2832a.16584.16584,0,0,1,.05273-.126.18418.18418,0,0,1,.12891-.04883H54.458a1.70137,1.70137,0,0,1,1.93945,1.79883c.00489.05176.00684.11719.00684.19629a2.17158,2.17158,0,0,1-.458,1.47656,1.8793,1.8793,0,0,1-1.48828.52539h-1.0498A.18418.18418,0,0,1,53.27926,19.05663Z"/><path d="M58.96285,19.05663a.16585.16585,0,0,1-.05273-.126V16.85839a.70208.70208,0,0,0-.791-.79785H57.05563a.1785.1785,0,0,1-.17481-.1748V15.2832a.16859.16859,0,0,1,.05176-.126.17684.17684,0,0,1,.123-.04883H58.1611a2.23209,2.23209,0,0,1,1.45312.39942,1.6125,1.6125,0,0,1,.47949,1.30859v2.11426a.17453.17453,0,0,1-.04883.12207.16585.16585,0,0,1-.126.05273h-.82617A.18491.18491,0,0,1,58.96285,19.05663Z"/><path d="M64.0068,15.15722a.17.17,0,0,1,.04883.126v.60254a.17039.17039,0,0,1-.04883.12207.163.163,0,0,1-.126.05273h-.32226a1.08375,1.08375,0,0,0-.12891.35645,2.51038,2.51038,0,0,0-.0459.49707v2.03711a.12889.12889,0,0,1-.0664.10839.23234.23234,0,0,1-.13672.0459h-.81836a.14456.14456,0,0,1-.1543-.15429V16.83788a1.51607,1.51607,0,0,1,.13965-.77734h-1.5957a.18033.18033,0,0,1-.17481-.1748V15.2832a.16585.16585,0,0,1,.05274-.126.17282.17282,0,0,1,.12207-.04883h3.1289A.17073.17073,0,0,1,64.0068,15.15722Z"/><path d="M64.74508,19.05663a.16582.16582,0,0,1-.05273-.126V15.2832a.16584.16584,0,0,1,.05273-.126.18418.18418,0,0,1,.12891-.04883h.875a.16732.16732,0,0,1,.1748.17481v3.64746a.17035.17035,0,0,1-.04883.12207.163.163,0,0,1-.126.05273h-.875A.18418.18418,0,0,1,64.74508,19.05663Z"/><rect class="b" x="6.13394" y="24.39724" width="59.98743" height="2.55319" rx="1.1819"/><rect class="b" x="37.16814" y="28.52299" width="28.95324" height="2.55319" rx="0.8211"/><circle class="c" cx="35.67239" cy="1.90159" r="1.75532"/><circle class="d" cx="35.57239" cy="1.80159" r="1.59574"/><path class="e" d="M35.45766.71483s-.734-.18743-1.0851.79787"/></svg>