<svg xmlns="http://www.w3.org/2000/svg" viewBox="0 0 72.25532 35.69264"><defs><style>.a{fill:#c8e2ed;}.b{fill:#aecad6;}.c{fill:#5a7b93;opacity:0.2;}.d{fill:#e3000d;}.e{fill:#ff7474;}</style></defs><rect class="a" width="72.25532" height="35.69264"/><path d="M12.28805,11.92441a.16586.16586,0,0,1-.05274-.126V7.2828a.16582.16582,0,0,1,.05274-.126A.18416.18416,0,0,1,12.417,7.108h.82618a.16732.16732,0,0,1,.1748.1748v4.51563a.1673.1673,0,0,1-.1748.1748H12.417A.18419.18419,0,0,1,12.28805,11.92441Z"/><path d="M14.0859,7.899a.14147.14147,0,0,1-.03809-.09766.21683.21683,0,0,1,.01368-.07715l.53906-1.39355a.44266.44266,0,0,1,.10156-.14356.24566.24566,0,0,1,.165-.05176h.51074a.12359.12359,0,0,1,.10156.04883.14841.14841,0,0,1,.03125.11231l-.21679,1.39941a.35346.35346,0,0,1-.084.1748.22307.22307,0,0,1-.1748.07032h-.85449A.124.124,0,0,1,14.0859,7.899Zm1.582,0a.14146.14146,0,0,1-.03808-.09766.21683.21683,0,0,1,.01367-.07715l.53906-1.39355a.44266.44266,0,0,1,.10156-.14356.24566.24566,0,0,1,.165-.05176h.51074a.1236.1236,0,0,1,.10157.04883.14849.14849,0,0,1,.03125.11231l-.2168,1.39941a.35346.35346,0,0,1-.084.1748.22307.22307,0,0,1-.1748.07032h-.85449A.124.124,0,0,1,15.66793,7.899Z"/><path d="M17.663,11.05234a.16933.16933,0,0,1-.05176-.12207v-.60254a.16858.16858,0,0,1,.05176-.126.17682.17682,0,0,1,.12305-.04883h1.75683V8.858a.69917.69917,0,0,0-.791-.791h-.89551a.16294.16294,0,0,1-.126-.05273.18077.18077,0,0,1-.0498-.12891V7.2828a.16582.16582,0,0,1,.05273-.126.17684.17684,0,0,1,.123-.04883h.93066a2.28131,2.28131,0,0,1,1.48047.41309,1.63628,1.63628,0,0,1,.5,1.33691v1.29492h.24512a.16883.16883,0,0,1,.17578.17481v.60254a.17131.17131,0,0,1-.04981.12207.16294.16294,0,0,1-.126.05273H17.7861A.16865.16865,0,0,1,17.663,11.05234Z"/><path d="M23.52633,11.14706a.20318.20318,0,0,1-.05664-.13965v-.707a.21292.21292,0,0,1,.0498-.13379.26991.26991,0,0,1,.126-.09082l.2168-.09082A1.029,1.029,0,0,0,24.56246,8.9a.9254.9254,0,0,0-.1582-.61621.75862.75862,0,0,0-.57715-.1748h-1.8623a.18007.18007,0,0,1-.18164-.18164V7.276a.1536.1536,0,0,1,.05566-.11914.18746.18746,0,0,1,.126-.04883h2.10742a1.69685,1.69685,0,0,1,1.30859.4375,1.90015,1.90015,0,0,1,.39942,1.31934,2.056,2.056,0,0,1-.52539,1.45605,2.78557,2.78557,0,0,1-1.31543.791l-.28711.084A.12692.12692,0,0,1,23.52633,11.14706Zm-1.69043,1.2461a.16585.16585,0,0,1-.05273-.126V8.88632a.16294.16294,0,0,1,.05273-.126.18.18,0,0,1,.12891-.04882h.79785a.16881.16881,0,0,1,.17578.1748v3.38086a.16881.16881,0,0,1-.17578.1748h-.79785A.18423.18423,0,0,1,21.8359,12.39316Z"/><path d="M29.12594,7.5455a1.905,1.905,0,0,1,.39941,1.31934A2.06026,2.06026,0,0,1,29,10.32089a2.78863,2.78863,0,0,1-1.3164.791l-.28614.084a.13529.13529,0,0,1-.12988-.04883.19807.19807,0,0,1-.05957-.13965v-.707a.203.203,0,0,1,.04883-.12988.36335.36335,0,0,1,.126-.09473l.2246-.09082a1.13142,1.13142,0,0,0,.50684-.374A1.17177,1.17177,0,0,0,28.29977,8.9a.94517.94517,0,0,0-.15332-.61621.74951.74951,0,0,0-.57422-.1748h-.18262l-.9375-.00684a.1673.1673,0,0,1-.1748-.1748V6.31015a.16559.16559,0,0,1,.05175-.126.17686.17686,0,0,1,.12305-.04883H27.208a.16732.16732,0,0,1,.17481.17481V7.108h.43457A1.69686,1.69686,0,0,1,29.12594,7.5455Z"/><path d="M34.292,11.05624a.17.17,0,0,1-.04882-.126V8.858a.70208.70208,0,0,0-.791-.79785H31.85543a.18416.18416,0,0,1-.1289-.04883.16585.16585,0,0,1-.05274-.126V7.2828a.16582.16582,0,0,1,.05274-.126.18416.18416,0,0,1,.1289-.04883h1.63086a2.14976,2.14976,0,0,1,1.45313.42676,1.68138,1.68138,0,0,1,.48632,1.33008v2.06543a.16582.16582,0,0,1-.05273.126.1842.1842,0,0,1-.12891.04883h-.82617A.17073.17073,0,0,1,34.292,11.05624Zm-2.56542,0a.16582.16582,0,0,1-.05274-.126v-2.044a.163.163,0,0,1,.05274-.126.17993.17993,0,0,1,.1289-.04882h.82617a.1673.1673,0,0,1,.17481.1748v2.044a.17039.17039,0,0,1-.04883.12207.163.163,0,0,1-.126.05273h-.82617A.18416.18416,0,0,1,31.72653,11.05624Z"/><path d="M36.23434,9.39706a.16293.16293,0,0,1-.05274-.126V7.2828a.16582.16582,0,0,1,.05274-.126.18487.18487,0,0,1,.12988-.04883h.875a.16732.16732,0,0,1,.17481.1748V9.27109a.17288.17288,0,0,1-.04883.12207.16589.16589,0,0,1-.126.05273h-.875A.18487.18487,0,0,1,36.23434,9.39706Z"/><path d="M38.23629,9.39706a.16292.16292,0,0,1-.05273-.126V7.2828a.16582.16582,0,0,1,.05273-.126.1849.1849,0,0,1,.12988-.04883h.875a.16732.16732,0,0,1,.17481.1748V9.27109a.17284.17284,0,0,1-.04883.12207.16587.16587,0,0,1-.126.05273h-.875A.1849.1849,0,0,1,38.23629,9.39706Z"/><path d="M42.61813,11.05234a.17538.17538,0,0,1-.12891.05273H40.24215a.18487.18487,0,0,1-.12988-.04883.16582.16582,0,0,1-.05274-.126v-.60254a.16583.16583,0,0,1,.05274-.126.18487.18487,0,0,1,.12988-.04883h1.16113l-.0625-1.3789a1.22642,1.22642,0,0,0-.13965-.5879.4819.4819,0,0,0-.43457-.18164h-.35644a.18021.18021,0,0,1-.17578-.17578V7.24081a.17913.17913,0,0,1,.0498-.1289.163.163,0,0,1,.126-.05274h.37793a1.83458,1.83458,0,0,1,1.333.41309A1.91309,1.91309,0,0,1,42.5732,8.7955l.09083,2.13477A.147.147,0,0,1,42.61813,11.05234Z"/><path d="M44.23922,8.35409c.00879.19141.06543.30371.168.33594l.19629.07031a.16109.16109,0,0,1,.08691.08008.26947.26947,0,0,1,.03223.12988l.00683.35645a.18717.18717,0,0,1-.09472.165.34856.34856,0,0,1-.22754.04492l-.28711-.042a.8878.8878,0,0,1-.60156-.3877,1.3992,1.3992,0,0,1-.23828-.83691V7.2828a.245.245,0,0,1,.05957-.126A.15115.15115,0,0,1,43.455,7.108H44.8691a1.80736,1.80736,0,0,1,1.36817.47266,1.98819,1.98819,0,0,1,.49414,1.32617c.0039.04687.00683.1123.00683.19629A2.21066,2.21066,0,0,1,46.29,10.57675a1.76278,1.76278,0,0,1-1.4209.52832H43.539a.18087.18087,0,0,1-.12891-.04883.16582.16582,0,0,1-.05274-.126v-.64454a.17532.17532,0,0,1,.05274-.1289.17228.17228,0,0,1,.12891-.05274H44.834a.83766.83766,0,0,0,.585-.206.81469.81469,0,0,0,.248-.585c.00489-.04688.00684-.11621.00684-.21,0-.08887-.00195-.15625-.00684-.20313a.789.789,0,0,0-.24121-.584.84564.84564,0,0,0-.59179-.207h-.59473Z"/><path d="M50.042,11.05624a.17.17,0,0,1-.04882-.126V8.858a.70208.70208,0,0,0-.791-.79785H47.60543a.18416.18416,0,0,1-.1289-.04883.16585.16585,0,0,1-.05274-.126V7.2828a.16582.16582,0,0,1,.05274-.126.18416.18416,0,0,1,.1289-.04883h1.63086a2.14976,2.14976,0,0,1,1.45313.42676,1.68138,1.68138,0,0,1,.48632,1.33008v2.06543a.16582.16582,0,0,1-.05273.126.1842.1842,0,0,1-.12891.04883h-.82617A.17073.17073,0,0,1,50.042,11.05624Zm-2.56542,0a.16582.16582,0,0,1-.05274-.126v-2.044a.163.163,0,0,1,.05274-.126.17993.17993,0,0,1,.1289-.04882h.82617a.1673.1673,0,0,1,.17481.1748v2.044a.17039.17039,0,0,1-.04883.12207.163.163,0,0,1-.126.05273h-.82617A.18416.18416,0,0,1,47.47653,11.05624Z"/><path d="M55.97067,7.5455a1.905,1.905,0,0,1,.39941,1.31934,2.06026,2.06026,0,0,1-.52539,1.45605,2.78861,2.78861,0,0,1-1.31641.791l-.28613.084a.13529.13529,0,0,1-.12988-.04883.19807.19807,0,0,1-.05957-.13965v-.707a.203.203,0,0,1,.04883-.12988.3634.3634,0,0,1,.126-.09473l.22461-.09082a1.13142,1.13142,0,0,0,.50684-.374A1.17177,1.17177,0,0,0,55.14449,8.9a.94517.94517,0,0,0-.15332-.61621A.74948.74948,0,0,0,54.417,8.109h-.18261l-.9375-.00684a.16732.16732,0,0,1-.17481-.1748V6.31015a.1656.1656,0,0,1,.05176-.126.17684.17684,0,0,1,.12305-.04883h.75586a.16732.16732,0,0,1,.1748.17481V7.108h.43457A1.69687,1.69687,0,0,1,55.97067,7.5455Z"/><path d="M59.667,11.05624a.17.17,0,0,1-.04882-.126V8.858a.70208.70208,0,0,0-.791-.79785H57.23043a.18416.18416,0,0,1-.1289-.04883.16585.16585,0,0,1-.05274-.126V7.2828a.16582.16582,0,0,1,.05274-.126.18416.18416,0,0,1,.1289-.04883h1.63086a2.14976,2.14976,0,0,1,1.45313.42676,1.68138,1.68138,0,0,1,.48632,1.33008v2.06543a.16582.16582,0,0,1-.05273.126.1842.1842,0,0,1-.12891.04883h-.82617A.17073.17073,0,0,1,59.667,11.05624Zm-2.56542,0a.16582.16582,0,0,1-.05274-.126v-2.044a.163.163,0,0,1,.05274-.126.17993.17993,0,0,1,.1289-.04882h.82617a.1673.1673,0,0,1,.17481.1748v2.044a.17039.17039,0,0,1-.04883.12207.163.163,0,0,1-.126.05273h-.82617A.18416.18416,0,0,1,57.10153,11.05624Z"/><path d="M61.63766,11.05624a.16582.16582,0,0,1-.05274-.126V7.2828a.16582.16582,0,0,1,.05274-.126.18416.18416,0,0,1,.1289-.04883h.875a.16732.16732,0,0,1,.17481.1748v3.64747a.17039.17039,0,0,1-.04883.12207.163.163,0,0,1-.126.05273h-.875A.18416.18416,0,0,1,61.63766,11.05624Z"/><path d="M66.04684,11.05234a.17538.17538,0,0,1-.12891.05273H63.67086a.18487.18487,0,0,1-.12988-.04883.16582.16582,0,0,1-.05274-.126v-.60254a.16583.16583,0,0,1,.05274-.126.18487.18487,0,0,1,.12988-.04883H64.832l-.0625-1.3789a1.22655,1.22655,0,0,0-.13964-.5879.48193.48193,0,0,0-.43457-.18164h-.35645a.18021.18021,0,0,1-.17578-.17578V7.24081a.17913.17913,0,0,1,.0498-.1289.163.163,0,0,1,.126-.05274h.37793a1.83458,1.83458,0,0,1,1.333.41309,1.91314,1.91314,0,0,1,.45215,1.32324l.09082,2.13477A.147.147,0,0,1,66.04684,11.05234Z"/><rect class="b" x="6.13394" y="24.39724" width="59.98743" height="2.55319" rx="1.1819"/><rect class="b" x="37.16814" y="28.52299" width="28.95324" height="2.55319" rx="0.8211"/><rect class="b" x="6.13394" y="15.82723" width="59.98743" height="2.55319" rx="1.1819"/><rect class="b" x="37.16814" y="19.95299" width="28.95324" height="2.55319" rx="0.8211"/><circle class="c" cx="35.67239" cy="1.90159" r="1.75532"/><circle class="d" cx="35.57239" cy="1.80159" r="1.59574"/><path class="e" d="M35.45766.71483s-.734-.18743-1.0851.79787"/></svg>