<svg xmlns="http://www.w3.org/2000/svg" viewBox="0 0 72.25532 35.69264"><defs><style>.a{fill:#9ab8cc;}.b{fill:#6f93a3;}.c{fill:#44637a;opacity:0.2;}.d{fill:#ca000c;}.e{fill:#e66060;}</style></defs><rect class="a" width="72.25532" height="35.69264"/><path d="M17.97848,7.15625a.16585.16585,0,0,1,.05273.126v.60254a.17366.17366,0,0,1-.18164.17481h-.32226a1.083,1.083,0,0,0-.12989.35644,2.51387,2.51387,0,0,0-.04492.49707v2.03711a.13218.13218,0,0,1-.06347.1084.21712.21712,0,0,1-.13282.0459h-.81933a.14871.14871,0,0,1-.11133-.042.151.151,0,0,1-.042-.11231V8.83691a1.50567,1.50567,0,0,1,.13964-.77734h-.52539a.18033.18033,0,0,1-.1748-.17481V7.28222a.16585.16585,0,0,1,.05273-.126.17625.17625,0,0,1,.12207-.04883h2.05176A.1842.1842,0,0,1,17.97848,7.15625Z"/><path d="M18.707,11.05566a.16587.16587,0,0,1-.05273-.126v-.64453a.18007.18007,0,0,1,.18164-.18164h1.01563a.74549.74549,0,0,0,.83984-.791c.00391-.05567.00683-.126.00683-.21,0-.0791-.00292-.14746-.00683-.20312a.74549.74549,0,0,0-.83984-.791H18.8359a.18006.18006,0,0,1-.18164-.18164V7.28222a.16585.16585,0,0,1,.05273-.126.1842.1842,0,0,1,.12891-.04883h1.0498a1.70139,1.70139,0,0,1,1.93946,1.79883c.00488.05175.00683.11718.00683.19628a2.17164,2.17164,0,0,1-.458,1.47657,1.87935,1.87935,0,0,1-1.48829.52539H18.8359A.1842.1842,0,0,1,18.707,11.05566Z"/><path d="M24.39059,11.05566a.16585.16585,0,0,1-.05274-.126V8.85742a.70207.70207,0,0,0-.791-.79785H22.48336a.1785.1785,0,0,1-.1748-.17481V7.28222a.16856.16856,0,0,1,.05175-.126.17686.17686,0,0,1,.12305-.04883h1.10547a2.23215,2.23215,0,0,1,1.45312.39941,1.61254,1.61254,0,0,1,.4795,1.3086v2.11425a.1745.1745,0,0,1-.04883.12207.16585.16585,0,0,1-.126.05274h-.82617A.18487.18487,0,0,1,24.39059,11.05566Z"/><path d="M29.84078,7.53418a1.69459,1.69459,0,0,1,.44727,1.28125v2.11425a.17036.17036,0,0,1-.04883.12207.163.163,0,0,1-.126.05274H28.20211a.18033.18033,0,0,1-.1748-.17481v-.60254a.16582.16582,0,0,1,.05273-.126.17453.17453,0,0,1,.12207-.04883h.90332V8.87109a.84168.84168,0,0,0-.1748-.56641.57235.57235,0,0,0-.45508-.20312h-.5459l-.5957,2.82129a.21009.21009,0,0,1-.05567.1289.16293.16293,0,0,1-.126.05274h-.80469a.176.176,0,0,1-.12988-.05274.13562.13562,0,0,1-.03809-.1289l.68555-2.81446h-.46192a.16292.16292,0,0,1-.126-.05273.1842.1842,0,0,1-.04883-.12891V7.28222a.16585.16585,0,0,1,.05273-.126.17284.17284,0,0,1,.12207-.04883h2.24707A1.65733,1.65733,0,0,1,29.84078,7.53418Z"/><path d="M33.66207,7.54492a1.90491,1.90491,0,0,1,.39942,1.31933,2.06031,2.06031,0,0,1-.52539,1.45606,2.78856,2.78856,0,0,1-1.31641.791l-.28613.084a.13533.13533,0,0,1-.12989-.04883.19807.19807,0,0,1-.05957-.13965v-.707a.203.203,0,0,1,.04883-.12988.36332.36332,0,0,1,.126-.09473l.22461-.09082a1.13139,1.13139,0,0,0,.50683-.374,1.1717,1.1717,0,0,0,.18555-.71094.94516.94516,0,0,0-.15332-.61621.74951.74951,0,0,0-.57422-.17481h-.18262l-.9375-.00683a.16732.16732,0,0,1-.1748-.17481V6.30957a.1656.1656,0,0,1,.05176-.126.17681.17681,0,0,1,.123-.04883h.75586a.16732.16732,0,0,1,.17481.17481v.79785h.43457A1.69685,1.69685,0,0,1,33.66207,7.54492Z"/><path d="M38.82809,11.05566a.17.17,0,0,1-.04883-.126V8.85742a.70207.70207,0,0,0-.791-.79785H36.39156a.1842.1842,0,0,1-.1289-.04883.16586.16586,0,0,1-.05274-.126V7.28222a.16582.16582,0,0,1,.05274-.126.18416.18416,0,0,1,.1289-.04883h1.63086a2.14976,2.14976,0,0,1,1.45313.42676,1.68134,1.68134,0,0,1,.48633,1.33007v2.06543a.16585.16585,0,0,1-.05274.126.18416.18416,0,0,1-.1289.04883h-.82618A.17071.17071,0,0,1,38.82809,11.05566Zm-2.56543,0a.16585.16585,0,0,1-.05274-.126V8.88574a.163.163,0,0,1,.05274-.126.17993.17993,0,0,1,.1289-.04883h.82618a.16732.16732,0,0,1,.1748.17481v2.04394a.17032.17032,0,0,1-.04883.12207.16293.16293,0,0,1-.126.05274h-.82618A.18416.18416,0,0,1,36.26266,11.05566Z"/><path d="M40.77047,9.39648a.16294.16294,0,0,1-.05273-.126V7.28222a.16582.16582,0,0,1,.05273-.126.1849.1849,0,0,1,.12988-.04883h.875a.16732.16732,0,0,1,.17481.1748V9.2705a.17282.17282,0,0,1-.04883.12207.16585.16585,0,0,1-.126.05274h-.875A.1849.1849,0,0,1,40.77047,9.39648Z"/><path d="M42.77242,9.39648a.163.163,0,0,1-.05273-.126V7.28222a.16585.16585,0,0,1,.05273-.126.18491.18491,0,0,1,.12989-.04883h.875a.16732.16732,0,0,1,.1748.1748V9.2705a.17282.17282,0,0,1-.04883.12207.16582.16582,0,0,1-.126.05274h-.875A.18491.18491,0,0,1,42.77242,9.39648Z"/><path d="M47.15426,11.05175a.17535.17535,0,0,1-.12891.05274H44.77828a.1849.1849,0,0,1-.12988-.04883.16584.16584,0,0,1-.05273-.126v-.60254a.16582.16582,0,0,1,.05273-.126.1849.1849,0,0,1,.12988-.04883h1.16114l-.0625-1.37891a1.22664,1.22664,0,0,0-.13965-.58789.48193.48193,0,0,0-.43457-.18164h-.35645a.18021.18021,0,0,1-.17578-.17578V7.24023a.17912.17912,0,0,1,.04981-.12891.16294.16294,0,0,1,.126-.05273h.37793a1.83452,1.83452,0,0,1,1.333.41309,1.91314,1.91314,0,0,1,.45215,1.32324l.09082,2.13476A.14693.14693,0,0,1,47.15426,11.05175Z"/><path d="M48.77535,8.35351c.00879.19141.06543.30371.168.33594l.19629.07031a.16107.16107,0,0,1,.08692.08008.26958.26958,0,0,1,.03222.12988l.00684.35645a.18718.18718,0,0,1-.09473.165.34862.34862,0,0,1-.22754.04492l-.28711-.042a.88782.88782,0,0,1-.60156-.3877,1.39922,1.39922,0,0,1-.23828-.83691V7.28222a.24506.24506,0,0,1,.05957-.126.15115.15115,0,0,1,.11523-.04883h1.41407a1.80735,1.80735,0,0,1,1.36816.47265,1.98824,1.98824,0,0,1,.49414,1.32618c.00391.04687.00684.1123.00684.19628a2.21067,2.21067,0,0,1-.44825,1.47364,1.76276,1.76276,0,0,1-1.42089.52832H48.07516a.18087.18087,0,0,1-.12891-.04883.16587.16587,0,0,1-.05273-.126v-.64453a.17535.17535,0,0,1,.05273-.1289.17228.17228,0,0,1,.12891-.05274h1.29492a.83764.83764,0,0,0,.585-.206.81469.81469,0,0,0,.24805-.585c.00488-.04688.00683-.11622.00683-.21,0-.08886-.00195-.15625-.00683-.20312a.789.789,0,0,0-.24121-.584.84569.84569,0,0,0-.5918-.207h-.59473Z"/><path d="M55.97067,7.54492a1.905,1.905,0,0,1,.39941,1.31933,2.06027,2.06027,0,0,1-.52539,1.45606,2.78851,2.78851,0,0,1-1.31641.791l-.28613.084a.13532.13532,0,0,1-.12988-.04883.19807.19807,0,0,1-.05957-.13965v-.707a.203.203,0,0,1,.04883-.12988.36328.36328,0,0,1,.126-.09473l.22461-.09082a1.13142,1.13142,0,0,0,.50684-.374,1.17177,1.17177,0,0,0,.18554-.71094.94516.94516,0,0,0-.15332-.61621.74948.74948,0,0,0-.57422-.17481h-.18261l-.9375-.00683a.16732.16732,0,0,1-.17481-.17481V6.30957a.1656.1656,0,0,1,.05176-.126.17684.17684,0,0,1,.12305-.04883h.75586a.16732.16732,0,0,1,.1748.17481v.79785h.43457A1.69687,1.69687,0,0,1,55.97067,7.54492Z"/><path d="M59.667,11.05566a.17.17,0,0,1-.04882-.126V8.85742a.70208.70208,0,0,0-.791-.79785H57.23043a.1842.1842,0,0,1-.1289-.04883.16586.16586,0,0,1-.05274-.126V7.28222a.16582.16582,0,0,1,.05274-.126.18416.18416,0,0,1,.1289-.04883h1.63086a2.14976,2.14976,0,0,1,1.45313.42676,1.68137,1.68137,0,0,1,.48632,1.33007v2.06543a.16584.16584,0,0,1-.05273.126.1842.1842,0,0,1-.12891.04883h-.82617A.17073.17073,0,0,1,59.667,11.05566Zm-2.56542,0a.16585.16585,0,0,1-.05274-.126V8.88574a.163.163,0,0,1,.05274-.126.17993.17993,0,0,1,.1289-.04883h.82617a.16732.16732,0,0,1,.17481.17481v2.04394a.17036.17036,0,0,1-.04883.12207.163.163,0,0,1-.126.05274h-.82617A.18416.18416,0,0,1,57.10153,11.05566Z"/><path d="M61.63766,11.05566a.16585.16585,0,0,1-.05274-.126V7.28222a.16582.16582,0,0,1,.05274-.126.18416.18416,0,0,1,.1289-.04883h.875a.16732.16732,0,0,1,.17481.1748v3.64746a.17036.17036,0,0,1-.04883.12207.163.163,0,0,1-.126.05274h-.875A.18416.18416,0,0,1,61.63766,11.05566Z"/><path d="M66.04684,11.05175a.17535.17535,0,0,1-.12891.05274H63.67086a.18487.18487,0,0,1-.12988-.04883.16585.16585,0,0,1-.05274-.126v-.60254a.16582.16582,0,0,1,.05274-.126.18487.18487,0,0,1,.12988-.04883H64.832l-.0625-1.37891a1.22654,1.22654,0,0,0-.13964-.58789.48193.48193,0,0,0-.43457-.18164h-.35645a.18021.18021,0,0,1-.17578-.17578V7.24023a.17915.17915,0,0,1,.0498-.12891.163.163,0,0,1,.126-.05273h.37793a1.83454,1.83454,0,0,1,1.333.41309,1.91314,1.91314,0,0,1,.45215,1.32324l.09082,2.13476A.147.147,0,0,1,66.04684,11.05175Z"/><path d="M50.68942,15.52441a1.61649,1.61649,0,0,1,.48632,1.29785v2.10742a.17453.17453,0,0,1-.04882.12207.16586.16586,0,0,1-.126.05274h-.82617a.18491.18491,0,0,1-.12989-.04883.16587.16587,0,0,1-.05273-.126V16.85742a.70177.70177,0,0,0-.79-.79785H48.747a4.2136,4.2136,0,0,0-.10547,1.02929l.05567,1.84082a.16859.16859,0,0,1-.05176.126.18489.18489,0,0,1-.12988.04883l-1.48438-.00684a.18416.18416,0,0,1-.1289-.04883.16582.16582,0,0,1-.05274-.126v-.55371a.16583.16583,0,0,1,.05274-.126.18416.18416,0,0,1,.1289-.04883h.56739V17.0957a3.73764,3.73764,0,0,1,.10546-1.03613H47.291a.18491.18491,0,0,1-.12988-.04883.16586.16586,0,0,1-.05274-.126v-.60254a.16582.16582,0,0,1,.05274-.126.18487.18487,0,0,1,.12988-.04883H49.2441A2.16858,2.16858,0,0,1,50.68942,15.52441Z"/><path d="M51.73922,15.89843a.14143.14143,0,0,1-.03809-.09765.21683.21683,0,0,1,.01368-.07715l.53906-1.39356a.44272.44272,0,0,1,.10156-.14355.24566.24566,0,0,1,.165-.05176h.51074a.12363.12363,0,0,1,.10157.04883.14848.14848,0,0,1,.03125.1123l-.2168,1.39942a.3535.3535,0,0,1-.084.1748.22307.22307,0,0,1-.1748.07032H51.834A.124.124,0,0,1,51.73922,15.89843Zm1.582,0a.14142.14142,0,0,1-.03808-.09765.21683.21683,0,0,1,.01367-.07715l.53906-1.39356a.44272.44272,0,0,1,.10156-.14355.24566.24566,0,0,1,.165-.05176h.51074a.1236.1236,0,0,1,.10157.04883.14848.14848,0,0,1,.03125.1123l-.2168,1.39942a.35357.35357,0,0,1-.084.1748.22311.22311,0,0,1-.17481.07032H53.416A.124.124,0,0,1,53.32125,15.89843Z"/><path d="M55.44918,19.05566a.16587.16587,0,0,1-.05273-.126V15.28222a.16585.16585,0,0,1,.05273-.126.1842.1842,0,0,1,.12891-.04883h.875a.16732.16732,0,0,1,.1748.1748v3.64746a.17032.17032,0,0,1-.04883.12207.16291.16291,0,0,1-.126.05274h-.875A.1842.1842,0,0,1,55.44918,19.05566Z"/><path d="M60.0732,19.05566a.17.17,0,0,1-.04882-.126V16.85742a.70208.70208,0,0,0-.791-.79785H57.63668a.1842.1842,0,0,1-.1289-.04883.16586.16586,0,0,1-.05274-.126v-.60254a.16582.16582,0,0,1,.05274-.126.18416.18416,0,0,1,.1289-.04883h1.63086a2.14976,2.14976,0,0,1,1.45313.42676,1.68137,1.68137,0,0,1,.48632,1.33007v2.06543a.16584.16584,0,0,1-.05273.126.1842.1842,0,0,1-.12891.04883h-.82617A.17073.17073,0,0,1,60.0732,19.05566Zm-2.56542,0a.16585.16585,0,0,1-.05274-.126V16.88574a.163.163,0,0,1,.05274-.126.17993.17993,0,0,1,.1289-.04883h.82617a.16732.16732,0,0,1,.17481.17481v2.04394a.17036.17036,0,0,1-.04883.12207.163.163,0,0,1-.126.05274h-.82617A.18416.18416,0,0,1,57.50778,19.05566Z"/><path d="M65.51852,15.53418a1.69459,1.69459,0,0,1,.44726,1.28125v2.11425a.17032.17032,0,0,1-.04883.12207.16291.16291,0,0,1-.126.05274H63.87985a.18035.18035,0,0,1-.17481-.17481v-.60254a.16582.16582,0,0,1,.05274-.126.1745.1745,0,0,1,.12207-.04883h.90332V16.87109a.84168.84168,0,0,0-.17481-.56641.57234.57234,0,0,0-.45508-.20312h-.5459l-.5957,2.82129a.21008.21008,0,0,1-.05566.1289.163.163,0,0,1-.126.05274h-.80469a.176.176,0,0,1-.12988-.05274.13565.13565,0,0,1-.03809-.1289l.68555-2.81446H62.081a.16294.16294,0,0,1-.126-.05273.1842.1842,0,0,1-.04883-.12891v-.64453a.16582.16582,0,0,1,.05274-.126.17282.17282,0,0,1,.12207-.04883h2.24707A1.65733,1.65733,0,0,1,65.51852,15.53418Z"/><rect class="b" x="6.13394" y="24.39724" width="59.98743" height="2.55319" rx="1.1819"/><rect class="b" x="37.16814" y="28.52299" width="28.95324" height="2.55319" rx="0.8211"/><circle class="c" cx="35.67239" cy="1.90159" r="1.75532"/><circle class="d" cx="35.57239" cy="1.80159" r="1.59574"/><path class="e" d="M35.45766.71483s-.734-.18743-1.0851.79787"/></svg>