<svg xmlns="http://www.w3.org/2000/svg" viewBox="0 0 72.25532 35.69264"><defs><style>.a{fill:#fcdcd8;}.b{fill:#5e4b48;}.c{fill:#bfa29f;}.d{fill:#706993;opacity:0.2;}.e{fill:#e30613;}.f{fill:#ffbd8c;}</style></defs><rect class="a" width="72.25532" height="35.69264"/><path class="b" d="M6.05815,11.05536a.16586.16586,0,0,1-.05273-.126V7.28192a.16585.16585,0,0,1,.05273-.126.1842.1842,0,0,1,.12891-.04883H7.8394a2.20676,2.20676,0,0,1,1.4668.40918A1.70163,1.70163,0,0,1,9.77788,8.864v2.06543a.17036.17036,0,0,1-.04883.12207.163.163,0,0,1-.126.05274H8.7769a.18416.18416,0,0,1-.1289-.04883.16583.16583,0,0,1-.05274-.126V8.85712a.70207.70207,0,0,0-.791-.79785H7.188v2.87011a.17035.17035,0,0,1-.04882.12207.163.163,0,0,1-.126.05274H6.18706A.1842.1842,0,0,1,6.05815,11.05536Z"/><path class="b" d="M12.42046,11.05536a.16583.16583,0,0,1-.05274-.126V8.85712a.70207.70207,0,0,0-.791-.79785H10.51323a.17852.17852,0,0,1-.17481-.17481V7.28192a.16857.16857,0,0,1,.05176-.126.17684.17684,0,0,1,.123-.04883H11.6187a2.23215,2.23215,0,0,1,1.45312.39941,1.61254,1.61254,0,0,1,.4795,1.3086v2.11425a.17454.17454,0,0,1-.04883.12207.16586.16586,0,0,1-.126.05274h-.82617A.18487.18487,0,0,1,12.42046,11.05536Z"/><path class="b" d="M14.39507,11.05536a.16583.16583,0,0,1-.05274-.126V7.28192a.16582.16582,0,0,1,.05274-.126.18416.18416,0,0,1,.1289-.04883h.875a.16732.16732,0,0,1,.17481.1748v3.64746a.17036.17036,0,0,1-.04883.12207.163.163,0,0,1-.126.05274h-.875A.18416.18416,0,0,1,14.39507,11.05536Z"/><path class="b" d="M20.13823,10.95673a.14774.14774,0,0,1-.042.10156.13569.13569,0,0,1-.10547.0459h-.86133a.23593.23593,0,0,1-.18848-.06641c-.03711-.04394-.05859-.06933-.06347-.07324L17.65288,9.19306a.78853.78853,0,0,0-.23828.38476,1.85918,1.85918,0,0,0-.05567.46192v.875a.184.184,0,0,1-.05273.13671.17535.17535,0,0,1-.12891.05274h-.68652a.161.161,0,0,1-.12207-.05566.18983.18983,0,0,1-.05274-.13379v-.86719a2.45729,2.45729,0,0,1,.16114-.9668,1.78324,1.78324,0,0,1,.6084-.69922l-.71387-1.02929a.14816.14816,0,0,1-.03516-.09766.14.14,0,0,1,.0459-.10156.14164.14164,0,0,1,.10156-.0459h.82617a.23381.23381,0,0,1,.1504.042.55085.55085,0,0,1,.10156.11231l1.127,1.5957a.61609.61609,0,0,0,.248-.30762,1.34232,1.34232,0,0,0,.05273-.39941V7.29657a.1936.1936,0,0,1,.04883-.13672.16587.16587,0,0,1,.126-.05273H19.9a.17285.17285,0,0,1,.12988.05566.19325.19325,0,0,1,.05176.13379v.88184a1.83945,1.83945,0,0,1-.17871.81543,1.659,1.659,0,0,1-.64746.66113l.85449,1.2041A.17378.17378,0,0,1,20.13823,10.95673Z"/><path class="b" d="M20.92632,11.05536a.16583.16583,0,0,1-.05274-.126V7.28192a.16582.16582,0,0,1,.05274-.126.18416.18416,0,0,1,.1289-.04883h.875a.16732.16732,0,0,1,.17481.1748v3.64746a.17036.17036,0,0,1-.04883.12207.163.163,0,0,1-.126.05274h-.875A.18416.18416,0,0,1,20.92632,11.05536Z"/><path class="b" d="M28.12163,7.52411A1.61647,1.61647,0,0,1,28.608,8.822v2.10742a.17454.17454,0,0,1-.04883.12207.16586.16586,0,0,1-.126.05274H27.607a.18487.18487,0,0,1-.12988-.04883.16583.16583,0,0,1-.05274-.126V8.85712a.70177.70177,0,0,0-.79-.79785h-.45507a4.21262,4.21262,0,0,0-.10547,1.02929l.05566,1.84082a.16858.16858,0,0,1-.05176.126.18487.18487,0,0,1-.12988.04883l-1.48438-.00684a.18419.18419,0,0,1-.1289-.04882.16586.16586,0,0,1-.05274-.126v-.55371a.16585.16585,0,0,1,.05274-.126.18416.18416,0,0,1,.1289-.04883h.56739V9.0954a3.73724,3.73724,0,0,1,.10547-1.03613h-.41309a.18487.18487,0,0,1-.12988-.04883.16585.16585,0,0,1-.05274-.126V7.28192a.16582.16582,0,0,1,.05274-.126.18487.18487,0,0,1,.12988-.04883h1.95313A2.16857,2.16857,0,0,1,28.12163,7.52411Z"/><path class="b" d="M29.42339,9.39618a.163.163,0,0,1-.05274-.126V7.28192a.16582.16582,0,0,1,.05274-.126.18487.18487,0,0,1,.12988-.04883h.875a.1673.1673,0,0,1,.1748.1748V9.2702a.17288.17288,0,0,1-.04882.12208.16589.16589,0,0,1-.126.05273h-.875A.18487.18487,0,0,1,29.42339,9.39618Z"/><path class="b" d="M33.80522,11.05145a.17532.17532,0,0,1-.1289.05274H31.42925a.18491.18491,0,0,1-.12989-.04883.16586.16586,0,0,1-.05273-.126v-.60253a.16586.16586,0,0,1,.05273-.126.18491.18491,0,0,1,.12989-.04883h1.16113l-.0625-1.37891a1.22652,1.22652,0,0,0-.13965-.58789.48193.48193,0,0,0-.43457-.18164h-.35645a.18023.18023,0,0,1-.17578-.17578V7.23993a.17908.17908,0,0,1,.04981-.1289.16293.16293,0,0,1,.126-.05274h.37793a1.83457,1.83457,0,0,1,1.333.41309,1.91309,1.91309,0,0,1,.45215,1.32324l.09082,2.13476A.1469.1469,0,0,1,33.80522,11.05145Z"/><path class="b" d="M35.42632,8.35321c.00878.19141.06543.30371.168.33594l.19629.07031a.16107.16107,0,0,1,.08692.08008.26958.26958,0,0,1,.03222.12988l.00684.35645a.18718.18718,0,0,1-.09473.165.34854.34854,0,0,1-.22754.04492l-.28711-.042a.88784.88784,0,0,1-.60156-.3877,1.3992,1.3992,0,0,1-.23828-.83691V7.28192a.24506.24506,0,0,1,.05957-.126.15116.15116,0,0,1,.11524-.04883H36.0562a1.80734,1.80734,0,0,1,1.36816.47266A1.98819,1.98819,0,0,1,37.9185,8.906c.00391.04687.00684.1123.00684.19629a2.21071,2.21071,0,0,1-.44824,1.47363,1.76278,1.76278,0,0,1-1.4209.52832H34.72612a.18087.18087,0,0,1-.12891-.04883.16586.16586,0,0,1-.05273-.126v-.64453a.17535.17535,0,0,1,.05273-.1289.17228.17228,0,0,1,.12891-.05274H36.021a.83764.83764,0,0,0,.585-.20605.81469.81469,0,0,0,.248-.585c.00488-.04688.00684-.11621.00684-.21,0-.08887-.002-.15625-.00684-.20313a.789.789,0,0,0-.24121-.584.84567.84567,0,0,0-.5918-.207h-.59472Z"/><path class="b" d="M38.66362,11.05536a.16582.16582,0,0,1-.05273-.126V7.28192a.16582.16582,0,0,1,.05273-.126.1842.1842,0,0,1,.12891-.04883h.875a.16732.16732,0,0,1,.1748.1748v3.64746a.17032.17032,0,0,1-.04883.12207.16293.16293,0,0,1-.126.05274h-.875A.1842.1842,0,0,1,38.66362,11.05536Z"/><path class="b" d="M43.42632,11.05145a.18753.18753,0,0,1-.13282.05274h-.875a.16285.16285,0,0,1-.11914-.04883.19761.19761,0,0,1-.05566-.126l-.10547-.51855a1.48447,1.48447,0,0,1-.40625.34375,3.96421,3.96421,0,0,1-.50684.26172,2.46849,2.46849,0,0,1-.47265.14355l-.04883.00782c-.08008,0-.11914-.03809-.11914-.11231V10.2995c0-.08008.04883-.13769.14648-.17578.03321-.01367.13965-.04687.31934-.10059a2.86207,2.86207,0,0,0,.4375-.165,1.38658,1.38658,0,0,0,.46191-.37793L41.816,8.8288a1.5146,1.5146,0,0,0-.21679-.59473.51164.51164,0,0,0-.4336-.1748h-.24511a.18035.18035,0,0,1-.17481-.17481V7.23993a.17834.17834,0,0,1,.04883-.1289.163.163,0,0,1,.126-.05274h.26562a2.168,2.168,0,0,1,.95606.17871,1.31972,1.31972,0,0,1,.57031.54883,3.45009,3.45009,0,0,1,.33594,1.00879l.41992,2.13476A.12438.12438,0,0,1,43.42632,11.05145Z"/><path class="b" d="M49.11479,7.52411A1.61647,1.61647,0,0,1,49.60112,8.822v2.10742a.1745.1745,0,0,1-.04883.12207.16582.16582,0,0,1-.126.05274h-.82618a.1849.1849,0,0,1-.12988-.04883.16582.16582,0,0,1-.05273-.126V8.85712a.70178.70178,0,0,0-.79-.79785h-.45508a4.21311,4.21311,0,0,0-.10547,1.02929l.05566,1.84082a.16857.16857,0,0,1-.05175.126.18491.18491,0,0,1-.12989.04883l-1.48437-.00684a.18423.18423,0,0,1-.12891-.04882.16589.16589,0,0,1-.05273-.126v-.55371a.16587.16587,0,0,1,.05273-.126.1842.1842,0,0,1,.12891-.04883H46.024V9.0954a3.73762,3.73762,0,0,1,.10547-1.03613h-.41309a.1849.1849,0,0,1-.12988-.04883.16587.16587,0,0,1-.05273-.126V7.28192a.16585.16585,0,0,1,.05273-.126.1849.1849,0,0,1,.12988-.04883h1.95313A2.16857,2.16857,0,0,1,49.11479,7.52411Z"/><path class="b" d="M50.44487,11.05536a.16582.16582,0,0,1-.05273-.126V7.28192a.16582.16582,0,0,1,.05273-.126.1842.1842,0,0,1,.12891-.04883h.875a.16732.16732,0,0,1,.1748.1748v3.64746a.17032.17032,0,0,1-.04883.12207.16293.16293,0,0,1-.126.05274h-.875A.1842.1842,0,0,1,50.44487,11.05536Z"/><path class="b" d="M55.12358,7.54462A1.90491,1.90491,0,0,1,55.523,8.864,2.06028,2.06028,0,0,1,54.9976,10.32a2.78858,2.78858,0,0,1-1.3164.791l-.28613.084a.1353.1353,0,0,1-.12989-.04883.19807.19807,0,0,1-.05957-.13965v-.707a.203.203,0,0,1,.04883-.12988.36344.36344,0,0,1,.126-.09473l.22461-.09082a1.13139,1.13139,0,0,0,.50683-.374,1.1717,1.1717,0,0,0,.18555-.71094.94517.94517,0,0,0-.15332-.61621.74951.74951,0,0,0-.57422-.1748h-.18262l-.9375-.00684a.16732.16732,0,0,1-.1748-.17481V6.30927a.1656.1656,0,0,1,.05176-.126.17681.17681,0,0,1,.123-.04883h.75586a.16732.16732,0,0,1,.17481.17481v.79785H53.815A1.69685,1.69685,0,0,1,55.12358,7.54462Z"/><path class="b" d="M56.22612,9.39618a.16294.16294,0,0,1-.05273-.126V7.28192a.16582.16582,0,0,1,.05273-.126.1849.1849,0,0,1,.12988-.04883h.875a.16732.16732,0,0,1,.17481.1748V9.2702a.17285.17285,0,0,1-.04883.12208.16587.16587,0,0,1-.126.05273h-.875A.1849.1849,0,0,1,56.22612,9.39618Z"/><path class="b" d="M61.816,7.156a.17385.17385,0,0,1,.04883.126V9.35419a1.52028,1.52028,0,0,1-.4834,1.15137,2.56842,2.56842,0,0,1-1.35742.6123l-1.792.37793a.15926.15926,0,0,1-.13672-.03418.15626.15626,0,0,1-.05957-.126v-.60937a.18233.18233,0,0,1,.04492-.123.20836.20836,0,0,1,.11621-.0664l.77637-.18848L58.148,7.38739a.86445.86445,0,0,1-.03516-.14062.13321.13321,0,0,1,.042-.09766.13166.13166,0,0,1,.09766-.042h.91015a.17027.17027,0,0,1,.1045.03125.157.157,0,0,1,.05664.07422l.70019,2.8623a.96043.96043,0,0,0,.51758-.39551,1.37191,1.37191,0,0,0,.13965-.6748V7.28192a.16881.16881,0,0,1,.17578-.1748h.833A.17385.17385,0,0,1,61.816,7.156Z"/><path class="b" d="M63.566,8.35321c.00879.19141.06543.30371.168.33594l.19629.07031a.16107.16107,0,0,1,.08692.08008.26958.26958,0,0,1,.03222.12988l.00684.35645a.18718.18718,0,0,1-.09473.165.34854.34854,0,0,1-.22754.04492l-.28711-.042a.88782.88782,0,0,1-.60156-.3877,1.3992,1.3992,0,0,1-.23828-.83691V7.28192a.24506.24506,0,0,1,.05957-.126.15115.15115,0,0,1,.11523-.04883h1.41407a1.80735,1.80735,0,0,1,1.36816.47266A1.98819,1.98819,0,0,1,66.05815,8.906c.00391.04687.00684.1123.00684.19629a2.21071,2.21071,0,0,1-.44824,1.47363,1.7628,1.7628,0,0,1-1.4209.52832H62.86577a.18087.18087,0,0,1-.12891-.04883.16586.16586,0,0,1-.05273-.126v-.64453a.17535.17535,0,0,1,.05273-.1289.17228.17228,0,0,1,.12891-.05274h1.29492a.83764.83764,0,0,0,.585-.20605.81469.81469,0,0,0,.24805-.585c.00488-.04688.00683-.11621.00683-.21,0-.08887-.00195-.15625-.00683-.20313a.789.789,0,0,0-.24121-.584.84569.84569,0,0,0-.5918-.207H63.566Z"/><path class="b" d="M41.66362,18.95673a.14774.14774,0,0,1-.042.10156.13569.13569,0,0,1-.10547.0459h-.86133a.23593.23593,0,0,1-.18848-.06641c-.0371-.04394-.05859-.06933-.06347-.07324l-1.22461-1.77148a.78853.78853,0,0,0-.23828.38476,1.85918,1.85918,0,0,0-.05567.46192v.875a.18391.18391,0,0,1-.05273.13671.17535.17535,0,0,1-.12891.05274h-.68652a.161.161,0,0,1-.12207-.05566.18983.18983,0,0,1-.05274-.13379v-.86719a2.45747,2.45747,0,0,1,.16114-.9668,1.78324,1.78324,0,0,1,.6084-.69922L37.897,15.35224a.14816.14816,0,0,1-.03516-.09766.14.14,0,0,1,.0459-.10156.14164.14164,0,0,1,.10156-.0459h.82618a.2338.2338,0,0,1,.15039.042.55057.55057,0,0,1,.10156.11231l1.127,1.5957a.61609.61609,0,0,0,.248-.30762,1.34232,1.34232,0,0,0,.05273-.39941v-.85352a.1936.1936,0,0,1,.04883-.13672.16587.16587,0,0,1,.126-.05273h.73535a.17284.17284,0,0,1,.12988.05566.19325.19325,0,0,1,.05176.13379v.88184a1.83945,1.83945,0,0,1-.17871.81543,1.659,1.659,0,0,1-.64746.66113l.85449,1.2041A.17378.17378,0,0,1,41.66362,18.95673Z"/><path class="b" d="M42.42241,17.39618a.163.163,0,0,1-.05274-.126V15.28192a.16582.16582,0,0,1,.05274-.126.18489.18489,0,0,1,.12988-.04883h.875a.16732.16732,0,0,1,.17481.1748V17.2702a.17285.17285,0,0,1-.04883.12208.16587.16587,0,0,1-.126.05273h-.875A.18489.18489,0,0,1,42.42241,17.39618Z"/><path class="b" d="M46.34917,19.05536a.16583.16583,0,0,1-.05274-.126V16.85712a.70207.70207,0,0,0-.791-.79785H44.44194a.1785.1785,0,0,1-.1748-.17481v-.60254a.16856.16856,0,0,1,.05175-.126.17686.17686,0,0,1,.123-.04883h1.10547a2.23215,2.23215,0,0,1,1.45312.39941,1.61254,1.61254,0,0,1,.4795,1.3086v2.11425a.17454.17454,0,0,1-.04883.12207.16585.16585,0,0,1-.126.05274h-.82617A.18487.18487,0,0,1,46.34917,19.05536Z"/><path class="b" d="M48.19,19.05145a.16929.16929,0,0,1-.05176-.12207v-.60253a.16858.16858,0,0,1,.05176-.126.17681.17681,0,0,1,.123-.04883h1.75684V16.85712a.69917.69917,0,0,0-.791-.791h-.8955a.16294.16294,0,0,1-.126-.05273.18077.18077,0,0,1-.0498-.12891v-.60254a.16582.16582,0,0,1,.05273-.126.17684.17684,0,0,1,.123-.04883H49.314a2.28137,2.28137,0,0,1,1.48047.41308,1.63635,1.63635,0,0,1,.5,1.33692V18.152h.24512a.16883.16883,0,0,1,.17578.17481v.60253a.17128.17128,0,0,1-.04981.12207.16293.16293,0,0,1-.126.05274H48.313A.16862.16862,0,0,1,48.19,19.05145Z"/><path class="b" d="M53.79057,19.05536a.16586.16586,0,0,1-.05273-.126V15.28192a.16585.16585,0,0,1,.05273-.126.1842.1842,0,0,1,.12891-.04883h1.58887a2.124,2.124,0,0,1,1.418.40234,1.65054,1.65054,0,0,1,.46582,1.3125v2.10059a.18011.18011,0,0,1-.18262.18164h-3.29A.1842.1842,0,0,1,53.79057,19.05536Zm2.47461-.90332V16.85712a.70207.70207,0,0,0-.791-.79785h-.67285V18.152Z"/><path class="b" d="M58.20757,17.39618a.163.163,0,0,1-.05274-.126V15.28192a.16582.16582,0,0,1,.05274-.126.18487.18487,0,0,1,.12988-.04883h.875a.16732.16732,0,0,1,.1748.1748V17.2702a.17285.17285,0,0,1-.04883.12208.16585.16585,0,0,1-.126.05273h-.875A.18487.18487,0,0,1,58.20757,17.39618Z"/><path class="b" d="M60.20952,17.39618a.163.163,0,0,1-.05274-.126V15.28192a.16582.16582,0,0,1,.05274-.126.18487.18487,0,0,1,.12988-.04883h.875a.16732.16732,0,0,1,.17481.1748V17.2702a.17289.17289,0,0,1-.04883.12208.16589.16589,0,0,1-.126.05273h-.875A.18487.18487,0,0,1,60.20952,17.39618Z"/><path class="b" d="M62.23979,19.05536a.16586.16586,0,0,1-.05273-.126V15.28192a.16585.16585,0,0,1,.05273-.126.1842.1842,0,0,1,.12891-.04883H64.021a2.20676,2.20676,0,0,1,1.4668.40918,1.70163,1.70163,0,0,1,.47168,1.34765v2.06543a.17036.17036,0,0,1-.04883.12207.163.163,0,0,1-.126.05274h-.82617a.18416.18416,0,0,1-.1289-.04883.16583.16583,0,0,1-.05274-.126V16.85712a.70207.70207,0,0,0-.791-.79785h-.61622v2.87011a.17035.17035,0,0,1-.04882.12207.163.163,0,0,1-.126.05274H62.3687A.1842.1842,0,0,1,62.23979,19.05536Z"/><rect class="c" x="6.13394" y="24.39724" width="59.98743" height="2.55319" rx="1.1819"/><rect class="c" x="37.16814" y="28.52299" width="28.95324" height="2.55319" rx="0.8211"/><circle class="d" cx="35.67239" cy="1.90159" r="1.75532"/><circle class="e" cx="35.57239" cy="1.80159" r="1.59574"/><path class="f" d="M35.45766.71483s-.734-.18743-1.0851.79787"/></svg>