<svg xmlns="http://www.w3.org/2000/svg" viewBox="0 0 72.25532 35.69264"><defs><style>.a{fill:#efeed5;}.b{fill:#dbd8bd;}.c{fill:#6d8393;opacity:0.2;}.d{fill:#e30613;}.e{fill:#ff9494;}</style></defs><rect class="a" width="72.25532" height="35.69264"/><path d="M16.73589,11.05575a.16994.16994,0,0,1-.04883-.126V8.85751a.70207.70207,0,0,0-.791-.79785H14.29936a.18416.18416,0,0,1-.1289-.04883.16583.16583,0,0,1-.05274-.126V7.28232a.16583.16583,0,0,1,.05274-.126.18416.18416,0,0,1,.1289-.04883h1.63086a2.14976,2.14976,0,0,1,1.45313.42676,1.68136,1.68136,0,0,1,.48632,1.33008v2.06543a.16582.16582,0,0,1-.05273.126.18418.18418,0,0,1-.12891.04883h-.82617A.1707.1707,0,0,1,16.73589,11.05575Zm-2.56543,0a.16582.16582,0,0,1-.05274-.126V8.88583a.163.163,0,0,1,.05274-.126.17993.17993,0,0,1,.1289-.04882h.82617a.1673.1673,0,0,1,.17481.1748v2.04395a.17039.17039,0,0,1-.04883.12207.163.163,0,0,1-.126.05273h-.82617A.18416.18416,0,0,1,14.17046,11.05575Z"/><path d="M21.77592,7.15634a.17.17,0,0,1,.04883.126v.60253a.17036.17036,0,0,1-.04883.12208.16294.16294,0,0,1-.126.05273h-.32227a1.084,1.084,0,0,0-.1289.35644,2.50974,2.50974,0,0,0-.0459.49708v2.0371a.12891.12891,0,0,1-.06641.1084.23229.23229,0,0,1-.13672.0459h-.81836a.14456.14456,0,0,1-.15429-.1543V8.837a1.516,1.516,0,0,1,.13965-.77734H18.521a.18031.18031,0,0,1-.1748-.17481V7.28232a.16586.16586,0,0,1,.05273-.126.17284.17284,0,0,1,.12207-.04883H21.65A.1707.1707,0,0,1,21.77592,7.15634Z"/><path d="M26.03862,7.15634a.17385.17385,0,0,1,.04883.126V9.35458a1.52027,1.52027,0,0,1-.4834,1.15137,2.56845,2.56845,0,0,1-1.35742.6123l-1.792.37793a.15926.15926,0,0,1-.13672-.03418.15626.15626,0,0,1-.05957-.126v-.60938a.18234.18234,0,0,1,.04492-.123.20835.20835,0,0,1,.11621-.0664l.77637-.18848-.8252-2.96094a.86387.86387,0,0,1-.03515-.14062.13321.13321,0,0,1,.042-.09766.13164.13164,0,0,1,.09765-.042h.91016a.17023.17023,0,0,1,.10449.03125.157.157,0,0,1,.05664.07422l.7002,2.8623a.96046.96046,0,0,0,.51758-.3955,1.372,1.372,0,0,0,.13964-.67481V7.28232a.16883.16883,0,0,1,.17579-.17481h.833A.17387.17387,0,0,1,26.03862,7.15634Z"/><path d="M26.92436,11.05575a.16585.16585,0,0,1-.05273-.126V7.28232a.16586.16586,0,0,1,.05273-.126.1842.1842,0,0,1,.12891-.04883h.875a.1673.1673,0,0,1,.1748.17481v3.64746a.17038.17038,0,0,1-.04882.12207.163.163,0,0,1-.126.05273h-.875A.1842.1842,0,0,1,26.92436,11.05575Z"/><path d="M28.982,11.05575a.16582.16582,0,0,1-.05273-.126V7.28232a.16582.16582,0,0,1,.05273-.126.18418.18418,0,0,1,.12891-.04883h.875a.16732.16732,0,0,1,.1748.17481v3.64746a.17035.17035,0,0,1-.04883.12207.163.163,0,0,1-.126.05273h-.875A.18418.18418,0,0,1,28.982,11.05575Z"/><path d="M33.66167,7.545a1.905,1.905,0,0,1,.39941,1.31934,2.06026,2.06026,0,0,1-.52539,1.456,2.78861,2.78861,0,0,1-1.31641.791l-.28613.084a.13527.13527,0,0,1-.12988-.04883.198.198,0,0,1-.05957-.13964v-.707a.203.203,0,0,1,.04883-.12988.3634.3634,0,0,1,.126-.09473l.22461-.09082a1.13142,1.13142,0,0,0,.50684-.374,1.17175,1.17175,0,0,0,.18555-.71094.94517.94517,0,0,0-.15333-.61621.74947.74947,0,0,0-.57421-.1748h-.18262l-.9375-.00684a.16732.16732,0,0,1-.17481-.1748V6.30966a.1656.1656,0,0,1,.05176-.126.17688.17688,0,0,1,.123-.04883h.75586a.16732.16732,0,0,1,.1748.17481v.79785h.43457A1.69687,1.69687,0,0,1,33.66167,7.545Z"/><path d="M38.82768,11.05575a.17.17,0,0,1-.04883-.126V8.85751a.70207.70207,0,0,0-.791-.79785H36.39116a.1842.1842,0,0,1-.12891-.04883.16586.16586,0,0,1-.05273-.126V7.28232a.16586.16586,0,0,1,.05273-.126.1842.1842,0,0,1,.12891-.04883H38.022a2.14973,2.14973,0,0,1,1.45312.42676,1.68136,1.68136,0,0,1,.48633,1.33008v2.06543a.16585.16585,0,0,1-.05273.126.1842.1842,0,0,1-.12891.04883h-.82617A.17073.17073,0,0,1,38.82768,11.05575Zm-2.56543,0a.16585.16585,0,0,1-.05273-.126V8.88583a.163.163,0,0,1,.05273-.126.18.18,0,0,1,.12891-.04882h.82617a.1673.1673,0,0,1,.17481.1748v2.04395a.17039.17039,0,0,1-.04883.12207.163.163,0,0,1-.126.05273h-.82617A.1842.1842,0,0,1,36.26225,11.05575Z"/><path d="M40.77007,9.39657a.16293.16293,0,0,1-.05274-.126V7.28232a.16583.16583,0,0,1,.05274-.126.18487.18487,0,0,1,.12988-.04883h.875a.16732.16732,0,0,1,.1748.17481V9.2706a.17284.17284,0,0,1-.04883.12207.16585.16585,0,0,1-.126.05273h-.875A.18487.18487,0,0,1,40.77007,9.39657Z"/><path d="M42.772,9.39657a.16293.16293,0,0,1-.05274-.126V7.28232a.16583.16583,0,0,1,.05274-.126.18487.18487,0,0,1,.12988-.04883h.875a.16732.16732,0,0,1,.17481.17481V9.2706a.17288.17288,0,0,1-.04883.12207.16589.16589,0,0,1-.126.05273h-.875A.18487.18487,0,0,1,42.772,9.39657Z"/><path d="M47.15385,11.05185a.17535.17535,0,0,1-.1289.05273H44.77788a.18487.18487,0,0,1-.12988-.04883.16582.16582,0,0,1-.05274-.126v-.60254a.16585.16585,0,0,1,.05274-.126.18487.18487,0,0,1,.12988-.04883H45.939l-.0625-1.3789a1.22646,1.22646,0,0,0-.13965-.58789.4819.4819,0,0,0-.43457-.18164h-.35644a.18023.18023,0,0,1-.17578-.17579V7.24032a.17913.17913,0,0,1,.0498-.1289.163.163,0,0,1,.126-.05274h.37793a1.83456,1.83456,0,0,1,1.333.41309A1.913,1.913,0,0,1,47.10893,8.795l.09082,2.13477A.14692.14692,0,0,1,47.15385,11.05185Z"/><path d="M48.774,8.3536c.00879.19141.06543.30372.168.33594l.19629.07031a.16106.16106,0,0,1,.08691.08008.26948.26948,0,0,1,.03223.12989l.00684.35644a.18718.18718,0,0,1-.09473.165.34856.34856,0,0,1-.22754.04492l-.28711-.042a.8878.8878,0,0,1-.60156-.3877,1.3992,1.3992,0,0,1-.23828-.83691v-.9873a.245.245,0,0,1,.05957-.126.15115.15115,0,0,1,.11523-.04883h1.41406a1.80736,1.80736,0,0,1,1.36817.47266,1.98819,1.98819,0,0,1,.49414,1.32617c.00391.04687.00684.1123.00684.19629a2.21066,2.21066,0,0,1-.44825,1.47363,1.76278,1.76278,0,0,1-1.4209.52832H48.07378a.18087.18087,0,0,1-.12891-.04883.16582.16582,0,0,1-.05273-.126v-.64453a.17533.17533,0,0,1,.05273-.12891.17228.17228,0,0,1,.12891-.05274H49.3687a.8376.8376,0,0,0,.585-.206.81473.81473,0,0,0,.248-.585c.00488-.04688.00683-.11621.00683-.21,0-.08887-.002-.15625-.00683-.20313a.789.789,0,0,0-.24121-.584.84569.84569,0,0,0-.5918-.207H48.774Z"/><path d="M55.97026,7.545a1.90494,1.90494,0,0,1,.39941,1.31934,2.06026,2.06026,0,0,1-.52539,1.456,2.78863,2.78863,0,0,1-1.3164.791l-.28613.084a.13528.13528,0,0,1-.12989-.04883.198.198,0,0,1-.05957-.13964v-.707a.203.203,0,0,1,.04883-.12988.36344.36344,0,0,1,.126-.09473l.22461-.09082a1.13139,1.13139,0,0,0,.50683-.374,1.17168,1.17168,0,0,0,.18555-.71094.94517.94517,0,0,0-.15332-.61621.74951.74951,0,0,0-.57422-.1748h-.18262l-.9375-.00684a.16732.16732,0,0,1-.1748-.1748V6.30966a.1656.1656,0,0,1,.05176-.126.17686.17686,0,0,1,.123-.04883h.75586a.16732.16732,0,0,1,.17481.17481v.79785h.43457A1.69685,1.69685,0,0,1,55.97026,7.545Z"/><path d="M59.66655,11.05575a.17.17,0,0,1-.04883-.126V8.85751a.70207.70207,0,0,0-.791-.79785H57.23a.1842.1842,0,0,1-.12891-.04883.16582.16582,0,0,1-.05273-.126V7.28232a.16582.16582,0,0,1,.05273-.126A.1842.1842,0,0,1,57.23,7.10751h1.63086a2.14973,2.14973,0,0,1,1.45312.42676,1.68136,1.68136,0,0,1,.48633,1.33008v2.06543a.16582.16582,0,0,1-.05274.126.18416.18416,0,0,1-.1289.04883h-.82617A.17073.17073,0,0,1,59.66655,11.05575Zm-2.56543,0a.16582.16582,0,0,1-.05273-.126V8.88583a.16294.16294,0,0,1,.05273-.126A.18.18,0,0,1,57.23,8.711h.82617a.1673.1673,0,0,1,.1748.1748v2.04395a.17035.17035,0,0,1-.04883.12207.16294.16294,0,0,1-.126.05273H57.23A.1842.1842,0,0,1,57.10112,11.05575Z"/><path d="M61.63725,11.05575a.16585.16585,0,0,1-.05273-.126V7.28232a.16586.16586,0,0,1,.05273-.126.1842.1842,0,0,1,.12891-.04883h.875a.1673.1673,0,0,1,.1748.17481v3.64746a.17038.17038,0,0,1-.04882.12207.163.163,0,0,1-.126.05273h-.875A.1842.1842,0,0,1,61.63725,11.05575Z"/><path d="M66.04643,11.05185a.17535.17535,0,0,1-.1289.05273H63.67046a.18491.18491,0,0,1-.12989-.04883.16585.16585,0,0,1-.05273-.126v-.60254a.16587.16587,0,0,1,.05273-.126.18491.18491,0,0,1,.12989-.04883h1.16113l-.0625-1.3789a1.22646,1.22646,0,0,0-.13965-.58789.4819.4819,0,0,0-.43457-.18164h-.35645a.18025.18025,0,0,1-.17578-.17579V7.24032a.17913.17913,0,0,1,.04981-.1289.16293.16293,0,0,1,.126-.05274h.37793a1.83457,1.83457,0,0,1,1.333.41309A1.91309,1.91309,0,0,1,66.00151,8.795l.09082,2.13477A.14692.14692,0,0,1,66.04643,11.05185Z"/><path d="M49.024,15.5245a1.61648,1.61648,0,0,1,.48633,1.29785v2.10743a.17453.17453,0,0,1-.04883.12207.16585.16585,0,0,1-.126.05273h-.82618a.1849.1849,0,0,1-.12988-.04883.16582.16582,0,0,1-.05273-.126V16.85751a.70178.70178,0,0,0-.79-.79785h-.45508a4.21319,4.21319,0,0,0-.10547,1.0293l.05566,1.84082a.16856.16856,0,0,1-.05175.126.18491.18491,0,0,1-.12989.04883l-1.48437-.00683a.18424.18424,0,0,1-.12891-.04883.16589.16589,0,0,1-.05273-.126v-.55371a.16589.16589,0,0,1,.05273-.126.18423.18423,0,0,1,.12891-.04882h.56738V17.09579a3.73766,3.73766,0,0,1,.10547-1.03613h-.41309a.1849.1849,0,0,1-.12988-.04883.16586.16586,0,0,1-.05273-.126v-.60253a.16586.16586,0,0,1,.05273-.126.1849.1849,0,0,1,.12988-.04883h1.95313A2.16857,2.16857,0,0,1,49.024,15.5245Z"/><path d="M50.32573,17.39657a.16292.16292,0,0,1-.05273-.126V15.28232a.16582.16582,0,0,1,.05273-.126.18489.18489,0,0,1,.12988-.04883h.875a.16732.16732,0,0,1,.17481.17481V17.2706a.17284.17284,0,0,1-.04883.12207.16587.16587,0,0,1-.126.05273h-.875A.18489.18489,0,0,1,50.32573,17.39657Z"/><path d="M56.04155,18.95712a.14772.14772,0,0,1-.042.10156.13569.13569,0,0,1-.10547.0459h-.86133a.236.236,0,0,1-.18848-.0664c-.03711-.04395-.05859-.06934-.06347-.07325L53.5562,17.19345a.78853.78853,0,0,0-.23828.38476,1.85918,1.85918,0,0,0-.05567.46192v.875a.184.184,0,0,1-.05273.13672.17538.17538,0,0,1-.12891.05273h-.68652a.161.161,0,0,1-.12207-.05566.18982.18982,0,0,1-.05274-.13379v-.86719a2.4575,2.4575,0,0,1,.16114-.9668,1.78322,1.78322,0,0,1,.6084-.69921l-.71387-1.0293a.14816.14816,0,0,1-.03516-.09766.14.14,0,0,1,.0459-.10156.14167.14167,0,0,1,.10156-.0459h.82617a.23381.23381,0,0,1,.1504.042.55085.55085,0,0,1,.10156.11231l1.12695,1.5957a.61609.61609,0,0,0,.24805-.30762,1.34228,1.34228,0,0,0,.05273-.39941V15.297a.19356.19356,0,0,1,.04883-.13671.16585.16585,0,0,1,.126-.05274h.73535a.17285.17285,0,0,1,.12988.05567.19323.19323,0,0,1,.05176.13378v.88184a1.83945,1.83945,0,0,1-.17871.81543,1.659,1.659,0,0,1-.64746.66113l.85449,1.2041A.17378.17378,0,0,1,56.04155,18.95712Z"/><path d="M56.82866,19.05575a.16582.16582,0,0,1-.05274-.126V15.28232a.16583.16583,0,0,1,.05274-.126.18418.18418,0,0,1,.12891-.04883h.875a.16732.16732,0,0,1,.1748.17481v3.64746a.17035.17035,0,0,1-.04883.12207.163.163,0,0,1-.126.05273h-.875A.18418.18418,0,0,1,56.82866,19.05575Z"/><path d="M59.75151,16.3536c.00879.19141.06543.30372.168.33594l.19629.07031a.16109.16109,0,0,1,.08691.08008.26948.26948,0,0,1,.03223.12989l.00684.35644a.18718.18718,0,0,1-.09473.165.34856.34856,0,0,1-.22754.04492l-.28711-.042a.8878.8878,0,0,1-.60156-.3877,1.3992,1.3992,0,0,1-.23828-.83691v-.9873a.245.245,0,0,1,.05957-.126.15115.15115,0,0,1,.11523-.04883h1.41406a1.80736,1.80736,0,0,1,1.36817.47266,1.98819,1.98819,0,0,1,.49414,1.32617c.0039.04687.00683.1123.00683.19629a2.21066,2.21066,0,0,1-.44824,1.47363,1.76278,1.76278,0,0,1-1.4209.52832H59.05132a.18087.18087,0,0,1-.12891-.04883.16582.16582,0,0,1-.05274-.126v-.64453a.17534.17534,0,0,1,.05274-.12891.17228.17228,0,0,1,.12891-.05274h1.29492a.83761.83761,0,0,0,.585-.20605.81473.81473,0,0,0,.24805-.585c.00488-.04688.00683-.11621.00683-.21,0-.08887-.00195-.15625-.00683-.20313a.789.789,0,0,0-.24122-.584.84564.84564,0,0,0-.59179-.207h-.59473Z"/><path d="M64.82964,19.05575a.16582.16582,0,0,1-.05274-.126V16.85751a.70207.70207,0,0,0-.791-.79785H62.92241a.1785.1785,0,0,1-.17481-.17481v-.60253a.16858.16858,0,0,1,.05176-.126.17684.17684,0,0,1,.123-.04883h1.10547a2.23209,2.23209,0,0,1,1.45312.39942,1.6125,1.6125,0,0,1,.4795,1.30859v2.11426a.17458.17458,0,0,1-.04883.12207.16589.16589,0,0,1-.126.05273h-.82617A.18487.18487,0,0,1,64.82964,19.05575Z"/><rect class="b" x="6.13394" y="24.39724" width="59.98743" height="2.55319" rx="1.1819"/><rect class="b" x="37.16814" y="28.52299" width="28.95324" height="2.55319" rx="0.8211"/><circle class="c" cx="35.67239" cy="1.90159" r="1.75532"/><circle class="d" cx="35.57239" cy="1.80159" r="1.59574"/><path class="e" d="M35.45766.71483s-.734-.18743-1.0851.79787"/></svg>