<svg xmlns="http://www.w3.org/2000/svg" viewBox="0 0 72.25532 35.69264"><defs><style>.a{fill:#fce0f5;}.b{fill:#5e4b58;}.c{fill:#bfa5ba;}.d{fill:#6d8393;opacity:0.2;}.e{fill:#e30613;}.f{fill:#ff9494;}</style></defs><rect class="a" width="72.25532" height="35.69264"/><path class="b" d="M6.5625,11.05568a.16585.16585,0,0,1-.05273-.126V7.28225a.16587.16587,0,0,1,.05273-.126.1842.1842,0,0,1,.12891-.04883H8.28028a2.12394,2.12394,0,0,1,1.418.40235,1.65052,1.65052,0,0,1,.46582,1.3125v2.10058a.18009.18009,0,0,1-.18262.18164h-3.29A.1842.1842,0,0,1,6.5625,11.05568Zm2.47461-.90332V8.85744a.70207.70207,0,0,0-.791-.79785H7.57325v2.09277Z"/><path class="b" d="M10.9795,9.3965a.16291.16291,0,0,1-.05274-.126V7.28225a.16585.16585,0,0,1,.05274-.126.18487.18487,0,0,1,.12988-.04883h.875a.16732.16732,0,0,1,.1748.17481V9.27053a.17284.17284,0,0,1-.04883.12207.16585.16585,0,0,1-.126.05273h-.875A.18487.18487,0,0,1,10.9795,9.3965Z"/><path class="b" d="M17.46485,7.15627a.17391.17391,0,0,1,.04883.126v1.834a2.05956,2.05956,0,0,1-.2793,1.082,1.90065,1.90065,0,0,1-.76367.7168,2.21563,2.21563,0,0,1-1.07032.24512h-.67285a2.10778,2.10778,0,0,1-.97949-.2168,1.54037,1.54037,0,0,1-.86133-1.40723V7.28225a.16585.16585,0,0,1,.05274-.126.18487.18487,0,0,1,.12988-.04883h.73437a.16732.16732,0,0,1,.17481.17481l.00781,1.68066a.6429.6429,0,0,0,.53125-.291,1.428,1.428,0,0,0,.1543-.73145V7.2969a.184.184,0,0,1,.05273-.13672.17535.17535,0,0,1,.12891-.05274H15.582a.161.161,0,0,1,.12207.05567.1898.1898,0,0,1,.05274.13379v.65722a1.82438,1.82438,0,0,1-.41309,1.26074,1.73992,1.73992,0,0,1-1.16894.53907.90911.90911,0,0,0,.35351.34277,1.01277,1.01277,0,0,0,.48633.11914h.16113a1.39807,1.39807,0,0,0,.64454-.14746,1.10617,1.10617,0,0,0,.44726-.40625,1.07524,1.07524,0,0,0,.16113-.58106V7.28225a.16732.16732,0,0,1,.17481-.17481h.73535A.17073.17073,0,0,1,17.46485,7.15627Z"/><path class="b" d="M20.63868,11.05178a.17538.17538,0,0,1-.12891.05273H18.2627a.18487.18487,0,0,1-.12988-.04883.16582.16582,0,0,1-.05274-.126v-.60254a.16586.16586,0,0,1,.05274-.126.18491.18491,0,0,1,.12988-.04883h1.16113l-.0625-1.3789a1.22646,1.22646,0,0,0-.13965-.58789.4819.4819,0,0,0-.43457-.18164h-.35644a.18023.18023,0,0,1-.17578-.17578v-.5879a.17913.17913,0,0,1,.0498-.1289.163.163,0,0,1,.126-.05274h.37793a1.83454,1.83454,0,0,1,1.333.41309,1.913,1.913,0,0,1,.45215,1.32324l.09082,2.13477A.14694.14694,0,0,1,20.63868,11.05178Z"/><path class="b" d="M26.53321,7.52443a1.6165,1.6165,0,0,1,.48632,1.29786v2.10742a.17457.17457,0,0,1-.04882.12207.16589.16589,0,0,1-.126.05273h-.82617a.18487.18487,0,0,1-.12988-.04883.16582.16582,0,0,1-.05274-.126V8.85744a.70178.70178,0,0,0-.79-.79785h-.45508a4.21368,4.21368,0,0,0-.10547,1.0293l.05567,1.84082a.16857.16857,0,0,1-.05176.126.18489.18489,0,0,1-.12988.04883L22.875,11.09768a.1842.1842,0,0,1-.1289-.04883.16585.16585,0,0,1-.05274-.126v-.55371a.16586.16586,0,0,1,.05274-.126.18419.18419,0,0,1,.1289-.04882h.56739V9.09572a3.73768,3.73768,0,0,1,.10546-1.03613h-.41308a.18487.18487,0,0,1-.12988-.04883.16582.16582,0,0,1-.05274-.126V7.28225a.16585.16585,0,0,1,.05274-.126.18487.18487,0,0,1,.12988-.04883h1.95312A2.16858,2.16858,0,0,1,26.53321,7.52443Z"/><path class="b" d="M27.86328,11.05568a.16585.16585,0,0,1-.05273-.126V7.28225a.16587.16587,0,0,1,.05273-.126.1842.1842,0,0,1,.12891-.04883h.875a.16732.16732,0,0,1,.17481.17481v3.64746a.17039.17039,0,0,1-.04883.12207.163.163,0,0,1-.126.05273h-.875A.1842.1842,0,0,1,27.86328,11.05568Z"/><path class="b" d="M33.60645,10.95705a.14772.14772,0,0,1-.042.10156.13569.13569,0,0,1-.10547.0459h-.86133a.236.236,0,0,1-.18848-.0664c-.03711-.04395-.05859-.06934-.06347-.07325L31.1211,9.19338a.78851.78851,0,0,0-.23828.38477,1.859,1.859,0,0,0-.05567.46191v.875a.184.184,0,0,1-.05273.13672.17538.17538,0,0,1-.12891.05273H29.959a.161.161,0,0,1-.12207-.05566.18982.18982,0,0,1-.05274-.13379v-.86719a2.45732,2.45732,0,0,1,.16114-.9668,1.78326,1.78326,0,0,1,.60839-.69921l-.71386-1.0293a.14816.14816,0,0,1-.03516-.09766.14.14,0,0,1,.0459-.10156.14167.14167,0,0,1,.10156-.0459h.82617a.23376.23376,0,0,1,.15039.042.55059.55059,0,0,1,.10157.11231l1.12695,1.5957a.61609.61609,0,0,0,.248-.30762,1.34228,1.34228,0,0,0,.05273-.39941V7.2969a.19357.19357,0,0,1,.04883-.13672.16583.16583,0,0,1,.126-.05274h.73535a.17286.17286,0,0,1,.12988.05567.19324.19324,0,0,1,.05176.13379v.88183a1.83945,1.83945,0,0,1-.17871.81543,1.659,1.659,0,0,1-.64746.66113l.85449,1.20411A.17375.17375,0,0,1,33.60645,10.95705Z"/><path class="b" d="M35.25879,8.35354c.00879.1914.06543.30371.168.33593l.19629.07032a.161.161,0,0,1,.08691.08007.26948.26948,0,0,1,.03223.12989l.00684.35644a.18718.18718,0,0,1-.09473.165.34856.34856,0,0,1-.22754.04492l-.28711-.042a.88778.88778,0,0,1-.60156-.38769,1.39923,1.39923,0,0,1-.23828-.83692v-.9873a.245.245,0,0,1,.05957-.126.15115.15115,0,0,1,.11523-.04883h1.41407a1.80735,1.80735,0,0,1,1.36816.47266A1.98819,1.98819,0,0,1,37.751,8.90627c.00391.04688.00684.1123.00684.19629a2.21066,2.21066,0,0,1-.44825,1.47363,1.76276,1.76276,0,0,1-1.42089.52832H34.5586a.18087.18087,0,0,1-.12891-.04883.16582.16582,0,0,1-.05273-.126v-.64453a.17535.17535,0,0,1,.05273-.12891.17227.17227,0,0,1,.12891-.05273h1.29492a.8376.8376,0,0,0,.585-.20606.81472.81472,0,0,0,.248-.585c.00488-.04687.00683-.11621.00683-.21,0-.08887-.002-.15625-.00683-.20313a.789.789,0,0,0-.24121-.584.84569.84569,0,0,0-.5918-.207h-.59473Z"/><path class="b" d="M38.4961,11.05568a.16582.16582,0,0,1-.05274-.126V7.28225a.16585.16585,0,0,1,.05274-.126.18416.18416,0,0,1,.1289-.04883H39.5a.16732.16732,0,0,1,.17481.17481v3.64746a.17039.17039,0,0,1-.04883.12207.163.163,0,0,1-.126.05273h-.875A.18416.18416,0,0,1,38.4961,11.05568Z"/><path class="b" d="M42.4502,11.05568a.16582.16582,0,0,1-.05274-.126V8.85744a.70207.70207,0,0,0-.791-.79785H40.543a.1785.1785,0,0,1-.1748-.1748V7.28225a.16859.16859,0,0,1,.05176-.126.17681.17681,0,0,1,.123-.04883h1.10547a2.23214,2.23214,0,0,1,1.45313.39942,1.61253,1.61253,0,0,1,.47949,1.30859v2.11426a.17453.17453,0,0,1-.04883.12207.16587.16587,0,0,1-.126.05273h-.82617A.18487.18487,0,0,1,42.4502,11.05568Z"/><path class="b" d="M49.5625,7.52443a1.6165,1.6165,0,0,1,.48633,1.29786v2.10742A.17453.17453,0,0,1,50,11.05178a.16585.16585,0,0,1-.126.05273h-.82618a.1849.1849,0,0,1-.12988-.04883.16585.16585,0,0,1-.05273-.126V8.85744a.70178.70178,0,0,0-.79-.79785h-.45508a4.21368,4.21368,0,0,0-.10547,1.0293l.05567,1.84082a.16857.16857,0,0,1-.05176.126.1849.1849,0,0,1-.12988.04883l-1.48438-.00683a.18424.18424,0,0,1-.12891-.04883.16587.16587,0,0,1-.05273-.126v-.55371a.16589.16589,0,0,1,.05273-.126.18423.18423,0,0,1,.12891-.04882h.56738V9.09572a3.73766,3.73766,0,0,1,.10547-1.03613h-.41308a.18491.18491,0,0,1-.12989-.04883.16585.16585,0,0,1-.05273-.126V7.28225a.16587.16587,0,0,1,.05273-.126.18491.18491,0,0,1,.12989-.04883h1.95312A2.16857,2.16857,0,0,1,49.5625,7.52443Z"/><path class="b" d="M54.36817,7.5342a1.6946,1.6946,0,0,1,.44726,1.28125v2.11426a.17035.17035,0,0,1-.04883.12207.16294.16294,0,0,1-.126.05273H52.7295a.18033.18033,0,0,1-.17481-.1748v-.60254a.16586.16586,0,0,1,.05274-.126.17454.17454,0,0,1,.12207-.04883h.90332V8.87111a.84165.84165,0,0,0-.17481-.5664.57235.57235,0,0,0-.45508-.20313H52.457l-.5957,2.82129a.21013.21013,0,0,1-.05566.12891.163.163,0,0,1-.126.05273H50.875a.176.176,0,0,1-.12988-.05273.13567.13567,0,0,1-.03809-.12891l.68555-2.81445h-.46191a.163.163,0,0,1-.126-.05274.18416.18416,0,0,1-.04883-.1289V7.28225a.16585.16585,0,0,1,.05274-.126.17282.17282,0,0,1,.12207-.04883h2.24707A1.65733,1.65733,0,0,1,54.36817,7.5342Z"/><path class="b" d="M55.624,9.3965a.16291.16291,0,0,1-.05274-.126V7.28225a.16585.16585,0,0,1,.05274-.126.18487.18487,0,0,1,.12988-.04883h.875a.1673.1673,0,0,1,.1748.17481V9.27053a.17287.17287,0,0,1-.04882.12207.16589.16589,0,0,1-.126.05273h-.875A.18487.18487,0,0,1,55.624,9.3965Z"/><path class="b" d="M62.10938,7.15627a.17391.17391,0,0,1,.04883.126v1.834a2.05956,2.05956,0,0,1-.2793,1.082,1.90065,1.90065,0,0,1-.76367.7168,2.21561,2.21561,0,0,1-1.07031.24512h-.67286a2.10778,2.10778,0,0,1-.97949-.2168,1.54037,1.54037,0,0,1-.86133-1.40723V7.28225a.16585.16585,0,0,1,.05274-.126.18487.18487,0,0,1,.12988-.04883h.73438a.16732.16732,0,0,1,.1748.17481l.00781,1.68066a.64289.64289,0,0,0,.53125-.291,1.428,1.428,0,0,0,.1543-.73145V7.2969a.184.184,0,0,1,.05273-.13672.17535.17535,0,0,1,.12891-.05274h.72852a.161.161,0,0,1,.12207.05567.18983.18983,0,0,1,.05273.13379v.65722a1.82433,1.82433,0,0,1-.41309,1.26074,1.7399,1.7399,0,0,1-1.16894.53907.90911.90911,0,0,0,.35351.34277,1.01283,1.01283,0,0,0,.48633.11914h.16114a1.39806,1.39806,0,0,0,.64453-.14746,1.10617,1.10617,0,0,0,.44726-.40625,1.07525,1.07525,0,0,0,.16114-.58106V7.28225a.1673.1673,0,0,1,.1748-.17481h.73535A.17073.17073,0,0,1,62.10938,7.15627Z"/><path class="b" d="M64.8291,11.05568a.16585.16585,0,0,1-.05273-.126V8.85744a.70208.70208,0,0,0-.791-.79785H62.92188a.1785.1785,0,0,1-.17481-.1748V7.28225a.16859.16859,0,0,1,.05176-.126.17684.17684,0,0,1,.123-.04883h1.10547a2.23209,2.23209,0,0,1,1.45312.39942A1.6125,1.6125,0,0,1,65.96,8.81545v2.11426a.17457.17457,0,0,1-.04882.12207.16589.16589,0,0,1-.126.05273H64.959A.18491.18491,0,0,1,64.8291,11.05568Z"/><rect class="c" x="6.13394" y="24.39724" width="59.98743" height="2.55319" rx="1.1819"/><rect class="c" x="37.16814" y="28.52299" width="28.95324" height="2.55319" rx="0.8211"/><rect class="c" x="6.13394" y="15.76473" width="59.98743" height="2.55319" rx="1.1819"/><rect class="c" x="37.16814" y="19.89048" width="28.95324" height="2.55319" rx="0.8211"/><circle class="d" cx="35.67239" cy="1.90159" r="1.75532"/><circle class="e" cx="35.57239" cy="1.80159" r="1.59574"/><path class="f" d="M35.45766.71483s-.734-.18743-1.0851.79787"/></svg>