<svg xmlns="http://www.w3.org/2000/svg" viewBox="0 0 72.25532 35.69264"><defs><style>.a{fill:#e6ebed;}.b{fill:#c9d2d6;}.c{fill:#6d8393;opacity:0.2;}.d{fill:#e30613;}.e{fill:#ff9494;}</style></defs><rect class="a" width="72.25532" height="35.69264"/><path d="M12.28747,11.92441a.16586.16586,0,0,1-.05274-.126V7.2828a.16582.16582,0,0,1,.05274-.126.18416.18416,0,0,1,.1289-.04883h.82617a.16732.16732,0,0,1,.17481.1748v4.51563a.1673.1673,0,0,1-.17481.1748h-.82617A.18419.18419,0,0,1,12.28747,11.92441Z"/><path d="M14.08532,7.899a.14147.14147,0,0,1-.03809-.09766.21683.21683,0,0,1,.01367-.07715L14.6,6.33066a.44266.44266,0,0,1,.10156-.14356.24564.24564,0,0,1,.165-.05176h.51074a.12359.12359,0,0,1,.10156.04883.14849.14849,0,0,1,.03125.11231l-.2168,1.39941a.35353.35353,0,0,1-.084.1748.22308.22308,0,0,1-.1748.07032H14.18A.124.124,0,0,1,14.08532,7.899Zm1.582,0a.14147.14147,0,0,1-.03809-.09766.21683.21683,0,0,1,.01367-.07715L16.182,6.33066a.44266.44266,0,0,1,.10156-.14356.24566.24566,0,0,1,.165-.05176h.51074a.12359.12359,0,0,1,.10156.04883.14845.14845,0,0,1,.03125.11231l-.21679,1.39941a.35363.35363,0,0,1-.084.1748.22307.22307,0,0,1-.1748.07032h-.8545A.124.124,0,0,1,15.66735,7.899Z"/><path d="M17.66247,11.05234a.16933.16933,0,0,1-.05176-.12207v-.60254a.16858.16858,0,0,1,.05176-.126.17681.17681,0,0,1,.123-.04883h1.75684V8.858a.69917.69917,0,0,0-.791-.791h-.89551a.16292.16292,0,0,1-.126-.05273A.18074.18074,0,0,1,17.68,7.88534V7.2828a.16582.16582,0,0,1,.05274-.126.17681.17681,0,0,1,.123-.04883h.93067a2.28133,2.28133,0,0,1,1.48047.41309,1.63631,1.63631,0,0,1,.5,1.33691v1.29492h.24511a.16883.16883,0,0,1,.17579.17481v.60254a.17135.17135,0,0,1-.04981.12207.163.163,0,0,1-.126.05273H17.78551A.16864.16864,0,0,1,17.66247,11.05234Z"/><path d="M23.52575,11.14706a.20318.20318,0,0,1-.05664-.13965v-.707a.21292.21292,0,0,1,.0498-.13379.26991.26991,0,0,1,.126-.09082l.21679-.09082a1.029,1.029,0,0,0,.7002-1.085.92546.92546,0,0,0-.1582-.61621.75864.75864,0,0,0-.57715-.1748H21.96422a.18009.18009,0,0,1-.18164-.18164V7.276a.15361.15361,0,0,1,.05567-.11914.18746.18746,0,0,1,.126-.04883h2.10742a1.69687,1.69687,0,0,1,1.3086.4375,1.90015,1.90015,0,0,1,.39941,1.31934,2.05592,2.05592,0,0,1-.52539,1.45605,2.78552,2.78552,0,0,1-1.31543.791l-.28711.084A.12691.12691,0,0,1,23.52575,11.14706Zm-1.69043,1.2461a.16586.16586,0,0,1-.05274-.126V8.88632a.163.163,0,0,1,.05274-.126.17993.17993,0,0,1,.1289-.04882h.79785a.16881.16881,0,0,1,.17579.1748v3.38086a.16881.16881,0,0,1-.17579.1748h-.79785A.18419.18419,0,0,1,21.83532,12.39316Z"/><path d="M29.12536,7.5455a1.905,1.905,0,0,1,.39941,1.31934,2.06026,2.06026,0,0,1-.52539,1.45605,2.78861,2.78861,0,0,1-1.31641.791l-.28613.084a.13529.13529,0,0,1-.12988-.04883.19807.19807,0,0,1-.05957-.13965v-.707a.203.203,0,0,1,.04883-.12988.3634.3634,0,0,1,.126-.09473L27.6068,9.985a1.13142,1.13142,0,0,0,.50684-.374A1.17177,1.17177,0,0,0,28.29918,8.9a.94517.94517,0,0,0-.15332-.61621.74948.74948,0,0,0-.57422-.1748H27.389l-.9375-.00684a.16732.16732,0,0,1-.17481-.1748V6.31015a.1656.1656,0,0,1,.05176-.126.17684.17684,0,0,1,.12305-.04883h.75586a.16732.16732,0,0,1,.1748.17481V7.108h.43457A1.69687,1.69687,0,0,1,29.12536,7.5455Z"/><path d="M34.29137,11.05624a.17.17,0,0,1-.04883-.126V8.858a.70207.70207,0,0,0-.791-.79785H31.85485a.1842.1842,0,0,1-.12891-.04883.16587.16587,0,0,1-.05273-.126V7.2828a.16585.16585,0,0,1,.05273-.126.1842.1842,0,0,1,.12891-.04883h1.63086a2.14973,2.14973,0,0,1,1.45312.42676,1.68135,1.68135,0,0,1,.48633,1.33008v2.06543a.16585.16585,0,0,1-.05273.126.1842.1842,0,0,1-.12891.04883h-.82617A.17073.17073,0,0,1,34.29137,11.05624Zm-2.56543,0a.16585.16585,0,0,1-.05273-.126v-2.044a.163.163,0,0,1,.05273-.126.18.18,0,0,1,.12891-.04882H32.681a.16729.16729,0,0,1,.1748.1748v2.044a.17038.17038,0,0,1-.04882.12207.163.163,0,0,1-.126.05273h-.82617A.1842.1842,0,0,1,31.72594,11.05624Z"/><path d="M36.23375,9.39706a.163.163,0,0,1-.05273-.126V7.2828a.16585.16585,0,0,1,.05273-.126.18491.18491,0,0,1,.12989-.04883h.875a.16732.16732,0,0,1,.1748.1748V9.27109a.17284.17284,0,0,1-.04883.12207.16585.16585,0,0,1-.126.05273h-.875A.18491.18491,0,0,1,36.23375,9.39706Z"/><path d="M38.23571,9.39706a.16293.16293,0,0,1-.05274-.126V7.2828a.16582.16582,0,0,1,.05274-.126.18487.18487,0,0,1,.12988-.04883h.875a.1673.1673,0,0,1,.1748.1748V9.27109a.17287.17287,0,0,1-.04882.12207.16589.16589,0,0,1-.126.05273h-.875A.18487.18487,0,0,1,38.23571,9.39706Z"/><path d="M42.61754,11.05234a.17535.17535,0,0,1-.1289.05273H40.24157a.18491.18491,0,0,1-.12989-.04883.16585.16585,0,0,1-.05273-.126v-.60254a.16586.16586,0,0,1,.05273-.126.18491.18491,0,0,1,.12989-.04883H41.4027L41.3402,8.774a1.22654,1.22654,0,0,0-.13965-.5879.48193.48193,0,0,0-.43457-.18164h-.35644a.18023.18023,0,0,1-.17579-.17578V7.24081a.17913.17913,0,0,1,.04981-.1289.163.163,0,0,1,.126-.05274h.37793a1.83456,1.83456,0,0,1,1.333.41309,1.91309,1.91309,0,0,1,.45215,1.32324l.09082,2.13477A.14692.14692,0,0,1,42.61754,11.05234Z"/><path d="M44.23864,8.35409c.00879.19141.06543.30371.168.33594l.19628.07031a.16111.16111,0,0,1,.08692.08008.26958.26958,0,0,1,.03223.12988l.00683.35645a.18718.18718,0,0,1-.09473.165.34853.34853,0,0,1-.22753.04492l-.28711-.042a.88784.88784,0,0,1-.60157-.3877,1.3992,1.3992,0,0,1-.23828-.83691V7.2828a.24506.24506,0,0,1,.05957-.126.15118.15118,0,0,1,.11524-.04883h1.41406a1.80734,1.80734,0,0,1,1.36816.47266,1.98819,1.98819,0,0,1,.49414,1.32617c.00391.04687.00684.1123.00684.19629a2.21066,2.21066,0,0,1-.44824,1.47363,1.76278,1.76278,0,0,1-1.4209.52832H43.53844a.18084.18084,0,0,1-.1289-.04883.16582.16582,0,0,1-.05274-.126v-.64454a.17532.17532,0,0,1,.05274-.1289.17225.17225,0,0,1,.1289-.05274h1.29492a.83764.83764,0,0,0,.585-.206.81469.81469,0,0,0,.248-.585c.00488-.04688.00684-.11621.00684-.21,0-.08887-.002-.15625-.00684-.20313a.789.789,0,0,0-.24121-.584.84567.84567,0,0,0-.5918-.207h-.59472Z"/><path d="M50.04137,11.05624a.17.17,0,0,1-.04883-.126V8.858a.70207.70207,0,0,0-.791-.79785H47.60485a.1842.1842,0,0,1-.12891-.04883.16587.16587,0,0,1-.05273-.126V7.2828a.16585.16585,0,0,1,.05273-.126.1842.1842,0,0,1,.12891-.04883h1.63086a2.14973,2.14973,0,0,1,1.45312.42676,1.68135,1.68135,0,0,1,.48633,1.33008v2.06543a.16585.16585,0,0,1-.05273.126.1842.1842,0,0,1-.12891.04883h-.82617A.17073.17073,0,0,1,50.04137,11.05624Zm-2.56543,0a.16585.16585,0,0,1-.05273-.126v-2.044a.163.163,0,0,1,.05273-.126.18.18,0,0,1,.12891-.04882H48.431a.16729.16729,0,0,1,.1748.1748v2.044a.17038.17038,0,0,1-.04882.12207.163.163,0,0,1-.126.05273h-.82617A.1842.1842,0,0,1,47.47594,11.05624Z"/><path d="M55.97008,7.5455a1.90492,1.90492,0,0,1,.39942,1.31934,2.06026,2.06026,0,0,1-.52539,1.45605,2.78866,2.78866,0,0,1-1.31641.791l-.28613.084a.1353.1353,0,0,1-.12989-.04883.19807.19807,0,0,1-.05957-.13965v-.707a.20306.20306,0,0,1,.04883-.12988.36344.36344,0,0,1,.126-.09473l.22461-.09082a1.13139,1.13139,0,0,0,.50683-.374A1.1717,1.1717,0,0,0,55.14391,8.9a.94517.94517,0,0,0-.15332-.61621.74951.74951,0,0,0-.57422-.1748h-.18262l-.9375-.00684a.16732.16732,0,0,1-.1748-.1748V6.31015a.1656.1656,0,0,1,.05176-.126.17681.17681,0,0,1,.123-.04883h.75586a.16732.16732,0,0,1,.17481.17481V7.108h.43457A1.69685,1.69685,0,0,1,55.97008,7.5455Z"/><path d="M59.66637,11.05624a.17.17,0,0,1-.04883-.126V8.858a.70207.70207,0,0,0-.791-.79785H57.22985a.1842.1842,0,0,1-.12891-.04883.16587.16587,0,0,1-.05273-.126V7.2828a.16585.16585,0,0,1,.05273-.126.1842.1842,0,0,1,.12891-.04883h1.63086a2.14973,2.14973,0,0,1,1.45312.42676,1.68135,1.68135,0,0,1,.48633,1.33008v2.06543a.16585.16585,0,0,1-.05273.126.1842.1842,0,0,1-.12891.04883h-.82617A.17073.17073,0,0,1,59.66637,11.05624Zm-2.56543,0a.16585.16585,0,0,1-.05273-.126v-2.044a.163.163,0,0,1,.05273-.126.18.18,0,0,1,.12891-.04882H58.056a.16729.16729,0,0,1,.1748.1748v2.044a.17038.17038,0,0,1-.04882.12207.163.163,0,0,1-.126.05273h-.82617A.1842.1842,0,0,1,57.10094,11.05624Z"/><path d="M61.63707,11.05624a.16585.16585,0,0,1-.05273-.126V7.2828a.16585.16585,0,0,1,.05273-.126A.1842.1842,0,0,1,61.766,7.108h.875a.16732.16732,0,0,1,.17481.1748v3.64747a.17039.17039,0,0,1-.04883.12207.163.163,0,0,1-.126.05273h-.875A.1842.1842,0,0,1,61.63707,11.05624Z"/><path d="M66.04625,11.05234a.17535.17535,0,0,1-.1289.05273H63.67028a.18491.18491,0,0,1-.12989-.04883.16585.16585,0,0,1-.05273-.126v-.60254a.16586.16586,0,0,1,.05273-.126.18491.18491,0,0,1,.12989-.04883h1.16113l-.0625-1.3789a1.22654,1.22654,0,0,0-.13965-.5879.48193.48193,0,0,0-.43457-.18164h-.35644a.18021.18021,0,0,1-.17578-.17578V7.24081a.17913.17913,0,0,1,.0498-.1289.163.163,0,0,1,.126-.05274h.37793a1.83456,1.83456,0,0,1,1.333.41309,1.91309,1.91309,0,0,1,.45215,1.32324l.09082,2.13477A.14692.14692,0,0,1,66.04625,11.05234Z"/><rect class="b" x="6.13394" y="24.39724" width="59.98743" height="2.55319" rx="1.1819"/><rect class="b" x="37.16814" y="28.52299" width="28.95324" height="2.55319" rx="0.8211"/><rect class="b" x="6.13394" y="15.82723" width="59.98743" height="2.55319" rx="1.1819"/><rect class="b" x="37.16814" y="19.95299" width="28.95324" height="2.55319" rx="0.8211"/><circle class="c" cx="35.67239" cy="1.90159" r="1.75532"/><circle class="d" cx="35.57239" cy="1.80159" r="1.59574"/><path class="e" d="M35.45766.71483s-.734-.18743-1.0851.79787"/></svg>