<svg xmlns="http://www.w3.org/2000/svg" viewBox="0 0 72.25532 35.69264"><defs><style>.a{fill:#efedb7;}.b{fill:#dbd5a1;}.c{fill:#5a7b93;opacity:0.2;}.d{fill:#e3000d;}.e{fill:#ff7474;}</style></defs><rect class="a" width="72.25532" height="35.69264"/><path d="M16.73647,11.05673a.17.17,0,0,1-.04883-.126V8.85849a.70207.70207,0,0,0-.791-.79785H14.3a.18422.18422,0,0,1-.12891-.04883.16585.16585,0,0,1-.05273-.126V7.28329a.16582.16582,0,0,1,.05273-.126A.18418.18418,0,0,1,14.3,7.10849h1.63086a2.14973,2.14973,0,0,1,1.45312.42676,1.68134,1.68134,0,0,1,.48633,1.33007v2.06543a.16585.16585,0,0,1-.05274.126.18416.18416,0,0,1-.1289.04883h-.82617A.17073.17073,0,0,1,16.73647,11.05673Zm-2.56543,0a.16584.16584,0,0,1-.05273-.126V8.88681a.16294.16294,0,0,1,.05273-.126A.18.18,0,0,1,14.3,8.712h.82617a.16732.16732,0,0,1,.1748.17481v2.04394a.17032.17032,0,0,1-.04883.12207.16291.16291,0,0,1-.126.05274H14.3A.18418.18418,0,0,1,14.171,11.05673Z"/><path d="M21.77651,7.15732a.17.17,0,0,1,.04883.126v.60254a.17036.17036,0,0,1-.04883.12207.163.163,0,0,1-.126.05274h-.32226a1.0836,1.0836,0,0,0-.12891.35644,2.51046,2.51046,0,0,0-.0459.49707v2.03711a.12891.12891,0,0,1-.0664.1084.23234.23234,0,0,1-.13672.0459H20.132a.14457.14457,0,0,1-.1543-.1543V8.838a1.516,1.516,0,0,1,.13965-.77734h-1.5957a.18035.18035,0,0,1-.17481-.17481V7.28329a.16582.16582,0,0,1,.05274-.126.17282.17282,0,0,1,.12207-.04883h3.1289A.17073.17073,0,0,1,21.77651,7.15732Z"/><path d="M26.0392,7.15732a.17385.17385,0,0,1,.04883.126V9.35556a1.52028,1.52028,0,0,1-.4834,1.15137,2.56842,2.56842,0,0,1-1.35742.6123l-1.792.37793a.15926.15926,0,0,1-.13672-.03418.15628.15628,0,0,1-.05957-.126v-.60937a.18233.18233,0,0,1,.04492-.123.20836.20836,0,0,1,.11621-.0664l.77637-.18848-.82519-2.96094a.86471.86471,0,0,1-.03516-.14062.13321.13321,0,0,1,.042-.09766.13166.13166,0,0,1,.09766-.042h.91015a.17027.17027,0,0,1,.1045.03125A.157.157,0,0,1,23.547,7.214l.70019,2.8623a.96047.96047,0,0,0,.51758-.39551,1.37193,1.37193,0,0,0,.13965-.6748V7.28329a.16881.16881,0,0,1,.17578-.1748h.833A.17385.17385,0,0,1,26.0392,7.15732Z"/><path d="M26.925,11.05673a.16585.16585,0,0,1-.05274-.126V7.28329a.16582.16582,0,0,1,.05274-.126.18416.18416,0,0,1,.1289-.04883h.875a.16732.16732,0,0,1,.17481.1748v3.64746a.17036.17036,0,0,1-.04883.12207.163.163,0,0,1-.126.05274h-.875A.18416.18416,0,0,1,26.925,11.05673Z"/><path d="M28.98256,11.05673a.16587.16587,0,0,1-.05273-.126V7.28329a.16585.16585,0,0,1,.05273-.126.1842.1842,0,0,1,.12891-.04883h.875a.1673.1673,0,0,1,.1748.1748v3.64746a.17035.17035,0,0,1-.04882.12207.163.163,0,0,1-.126.05274h-.875A.1842.1842,0,0,1,28.98256,11.05673Z"/><path d="M33.66225,7.546a1.90491,1.90491,0,0,1,.39941,1.31933,2.06027,2.06027,0,0,1-.52539,1.45606,2.78853,2.78853,0,0,1-1.3164.791l-.28613.084a.13533.13533,0,0,1-.12989-.04883.19807.19807,0,0,1-.05957-.13965v-.707a.203.203,0,0,1,.04883-.12988.36344.36344,0,0,1,.126-.09473l.22461-.09082a1.13139,1.13139,0,0,0,.50683-.374,1.1717,1.1717,0,0,0,.18555-.71094.94516.94516,0,0,0-.15332-.61621.74951.74951,0,0,0-.57422-.17481h-.18262l-.9375-.00683a.16732.16732,0,0,1-.1748-.17481V6.31064a.1656.1656,0,0,1,.05176-.126.17681.17681,0,0,1,.123-.04883h.75586a.16732.16732,0,0,1,.17481.17481v.79785h.43457A1.69685,1.69685,0,0,1,33.66225,7.546Z"/><path d="M38.82827,11.05673a.17.17,0,0,1-.04883-.126V8.85849a.70207.70207,0,0,0-.791-.79785H36.39174a.1842.1842,0,0,1-.1289-.04883.16586.16586,0,0,1-.05274-.126V7.28329a.16582.16582,0,0,1,.05274-.126.18416.18416,0,0,1,.1289-.04883H38.0226a2.14976,2.14976,0,0,1,1.45313.42676,1.68134,1.68134,0,0,1,.48633,1.33007v2.06543a.16585.16585,0,0,1-.05274.126.18418.18418,0,0,1-.12891.04883h-.82617A.17071.17071,0,0,1,38.82827,11.05673Zm-2.56543,0a.16585.16585,0,0,1-.05274-.126V8.88681a.163.163,0,0,1,.05274-.126.17993.17993,0,0,1,.1289-.04883h.82617a.16732.16732,0,0,1,.17481.17481v2.04394a.17036.17036,0,0,1-.04883.12207.163.163,0,0,1-.126.05274h-.82617A.18416.18416,0,0,1,36.26284,11.05673Z"/><path d="M40.77065,9.39755a.163.163,0,0,1-.05274-.126V7.28329a.16582.16582,0,0,1,.05274-.126.18489.18489,0,0,1,.12988-.04883h.875a.16732.16732,0,0,1,.17481.1748V9.27157a.17282.17282,0,0,1-.04883.12207.16585.16585,0,0,1-.126.05274h-.875A.18489.18489,0,0,1,40.77065,9.39755Z"/><path d="M42.7726,9.39755a.163.163,0,0,1-.05273-.126V7.28329a.16585.16585,0,0,1,.05273-.126.18491.18491,0,0,1,.12989-.04883h.875a.16732.16732,0,0,1,.1748.1748V9.27157a.17282.17282,0,0,1-.04883.12207.16582.16582,0,0,1-.126.05274h-.875A.18491.18491,0,0,1,42.7726,9.39755Z"/><path d="M47.15444,11.05282a.17535.17535,0,0,1-.12891.05274H44.77846a.18489.18489,0,0,1-.12988-.04883.16585.16585,0,0,1-.05274-.126v-.60254a.16582.16582,0,0,1,.05274-.126.18489.18489,0,0,1,.12988-.04883h1.16113l-.0625-1.37891a1.22654,1.22654,0,0,0-.13964-.58789.48193.48193,0,0,0-.43457-.18164h-.35645a.18021.18021,0,0,1-.17578-.17578V7.2413a.17915.17915,0,0,1,.0498-.12891.163.163,0,0,1,.126-.05273h.37793a1.83454,1.83454,0,0,1,1.333.41309A1.91314,1.91314,0,0,1,47.10952,8.796l.09082,2.13476A.147.147,0,0,1,47.15444,11.05282Z"/><path d="M48.77456,8.35458c.00878.19141.06543.30371.168.33594l.19629.07031a.16107.16107,0,0,1,.08692.08008.26958.26958,0,0,1,.03222.12988l.00684.35645a.18718.18718,0,0,1-.09473.165.3486.3486,0,0,1-.22754.04492l-.28711-.042a.88784.88784,0,0,1-.60156-.3877,1.39922,1.39922,0,0,1-.23828-.83691V7.28329a.24506.24506,0,0,1,.05957-.126.15116.15116,0,0,1,.11524-.04883h1.41406a1.80733,1.80733,0,0,1,1.36816.47265,1.98824,1.98824,0,0,1,.49414,1.32618c.00391.04687.00684.1123.00684.19628a2.21073,2.21073,0,0,1-.44824,1.47364,1.76278,1.76278,0,0,1-1.4209.52832H48.07436a.18087.18087,0,0,1-.12891-.04883.16587.16587,0,0,1-.05273-.126v-.64453a.17535.17535,0,0,1,.05273-.1289.17228.17228,0,0,1,.12891-.05274h1.29492a.83764.83764,0,0,0,.585-.20605.81469.81469,0,0,0,.248-.585c.00488-.04688.00684-.11622.00684-.21,0-.08886-.002-.15625-.00684-.20312a.789.789,0,0,0-.24121-.584.84567.84567,0,0,0-.5918-.207h-.59472Z"/><path d="M55.97084,7.546a1.90491,1.90491,0,0,1,.39942,1.31933,2.06027,2.06027,0,0,1-.52539,1.45606,2.78851,2.78851,0,0,1-1.31641.791l-.28613.084a.13531.13531,0,0,1-.12988-.04883.19807.19807,0,0,1-.05957-.13965v-.707a.20305.20305,0,0,1,.04882-.12988.36353.36353,0,0,1,.126-.09473l.22461-.09082a1.13142,1.13142,0,0,0,.50684-.374,1.17177,1.17177,0,0,0,.18554-.71094.94516.94516,0,0,0-.15332-.61621.74948.74948,0,0,0-.57422-.17481h-.18261l-.9375-.00683a.16732.16732,0,0,1-.17481-.17481V6.31064a.1656.1656,0,0,1,.05176-.126.17684.17684,0,0,1,.12305-.04883h.75586a.16732.16732,0,0,1,.1748.17481v.79785h.43457A1.69684,1.69684,0,0,1,55.97084,7.546Z"/><path d="M59.66713,11.05673a.17.17,0,0,1-.04882-.126V8.85849a.70208.70208,0,0,0-.791-.79785H57.23061a.18424.18424,0,0,1-.12891-.04883.16589.16589,0,0,1-.05273-.126V7.28329a.16585.16585,0,0,1,.05273-.126.1842.1842,0,0,1,.12891-.04883h1.63086a2.14971,2.14971,0,0,1,1.45312.42676,1.68134,1.68134,0,0,1,.48633,1.33007v2.06543a.16587.16587,0,0,1-.05273.126.1842.1842,0,0,1-.12891.04883h-.82617A.17073.17073,0,0,1,59.66713,11.05673Zm-2.56543,0a.16587.16587,0,0,1-.05273-.126V8.88681a.163.163,0,0,1,.05273-.126.18.18,0,0,1,.12891-.04883h.82617a.16732.16732,0,0,1,.17481.17481v2.04394a.17036.17036,0,0,1-.04883.12207.163.163,0,0,1-.126.05274h-.82617A.1842.1842,0,0,1,57.1017,11.05673Z"/><path d="M61.63784,11.05673a.16585.16585,0,0,1-.05274-.126V7.28329a.16582.16582,0,0,1,.05274-.126.18416.18416,0,0,1,.1289-.04883h.875a.16732.16732,0,0,1,.17481.1748v3.64746a.17036.17036,0,0,1-.04883.12207.163.163,0,0,1-.126.05274h-.875A.18416.18416,0,0,1,61.63784,11.05673Z"/><path d="M66.047,11.05282a.17535.17535,0,0,1-.12891.05274H63.671a.18487.18487,0,0,1-.12988-.04883.16585.16585,0,0,1-.05274-.126v-.60254a.16582.16582,0,0,1,.05274-.126.18487.18487,0,0,1,.12988-.04883h1.16113l-.0625-1.37891A1.22641,1.22641,0,0,0,64.63,8.18661a.48191.48191,0,0,0-.43457-.18164H63.839a.18021.18021,0,0,1-.17578-.17578V7.2413a.17915.17915,0,0,1,.0498-.12891.163.163,0,0,1,.126-.05273h.37793a1.83454,1.83454,0,0,1,1.333.41309A1.91309,1.91309,0,0,1,66.00209,8.796l.09082,2.13476A.14692.14692,0,0,1,66.047,11.05282Z"/><path d="M49.02456,15.52548a1.61649,1.61649,0,0,1,.48632,1.29785v2.10742a.17453.17453,0,0,1-.04882.12207.16586.16586,0,0,1-.126.05274h-.82617a.18491.18491,0,0,1-.12989-.04883.16587.16587,0,0,1-.05273-.126V16.85849a.70177.70177,0,0,0-.79-.79785h-.45508a4.2136,4.2136,0,0,0-.10547,1.02929l.05567,1.84082a.16859.16859,0,0,1-.05176.126.18489.18489,0,0,1-.12988.04883l-1.48438-.00684a.18416.18416,0,0,1-.1289-.04883.16582.16582,0,0,1-.05274-.126v-.55371a.16585.16585,0,0,1,.05274-.126.18416.18416,0,0,1,.1289-.04883h.56739V17.09677a3.73764,3.73764,0,0,1,.10546-1.03613h-.41308a.18491.18491,0,0,1-.12988-.04883.16586.16586,0,0,1-.05274-.126v-.60254a.16582.16582,0,0,1,.05274-.126.18487.18487,0,0,1,.12988-.04883h1.95312A2.1686,2.1686,0,0,1,49.02456,15.52548Z"/><path d="M50.32631,17.39755a.163.163,0,0,1-.05273-.126V15.28329a.16585.16585,0,0,1,.05273-.126.18491.18491,0,0,1,.12989-.04883h.875a.16732.16732,0,0,1,.1748.1748v1.98828a.17282.17282,0,0,1-.04883.12207.16582.16582,0,0,1-.126.05274h-.875A.18491.18491,0,0,1,50.32631,17.39755Z"/><path d="M56.04213,18.9581a.1477.1477,0,0,1-.042.10156.13569.13569,0,0,1-.10547.0459h-.86133a.2359.2359,0,0,1-.18847-.06641c-.03711-.04394-.0586-.06933-.06348-.07324l-1.22461-1.77148a.7886.7886,0,0,0-.23828.38476,1.85916,1.85916,0,0,0-.05566.46191v.875a.18393.18393,0,0,1-.05274.13672.17532.17532,0,0,1-.1289.05274h-.68653a.161.161,0,0,1-.12207-.05567.18983.18983,0,0,1-.05273-.13379v-.86718a2.45749,2.45749,0,0,1,.16113-.9668,1.78332,1.78332,0,0,1,.6084-.69922l-.71387-1.0293a.14812.14812,0,0,1-.03515-.09765.14.14,0,0,1,.04589-.10156.14167.14167,0,0,1,.10157-.0459H53.214a.23378.23378,0,0,1,.15039.042.55047.55047,0,0,1,.10156.1123l1.127,1.59571a.61607.61607,0,0,0,.248-.30762,1.342,1.342,0,0,0,.05274-.39941v-.85352a.19364.19364,0,0,1,.04882-.13672.16589.16589,0,0,1,.126-.05273h.73535a.17288.17288,0,0,1,.12989.05566.19329.19329,0,0,1,.05175.13379v.88184a1.83948,1.83948,0,0,1-.17871.81543,1.65888,1.65888,0,0,1-.64746.66113l.85449,1.2041A.1737.1737,0,0,1,56.04213,18.9581Z"/><path d="M56.82924,19.05673a.16587.16587,0,0,1-.05273-.126V15.28329a.16585.16585,0,0,1,.05273-.126.1842.1842,0,0,1,.12891-.04883h.875a.1673.1673,0,0,1,.1748.1748v3.64746a.17035.17035,0,0,1-.04882.12207.163.163,0,0,1-.126.05274h-.875A.1842.1842,0,0,1,56.82924,19.05673Z"/><path d="M59.75209,16.35458c.00879.19141.06543.30371.168.33594l.19629.07031a.16107.16107,0,0,1,.08692.08008.26958.26958,0,0,1,.03222.12988l.00684.35645a.18718.18718,0,0,1-.09473.165.3486.3486,0,0,1-.22754.04492l-.28711-.042a.88782.88782,0,0,1-.60156-.3877,1.39922,1.39922,0,0,1-.23828-.83691v-.98731a.24506.24506,0,0,1,.05957-.126.15115.15115,0,0,1,.11523-.04883H60.382a1.80733,1.80733,0,0,1,1.36816.47265,1.98824,1.98824,0,0,1,.49414,1.32618c.00391.04687.00684.1123.00684.19628a2.21073,2.21073,0,0,1-.44824,1.47364,1.7628,1.7628,0,0,1-1.4209.52832H59.0519a.18087.18087,0,0,1-.12891-.04883.16587.16587,0,0,1-.05273-.126v-.64453a.17535.17535,0,0,1,.05273-.1289.17228.17228,0,0,1,.12891-.05274h1.29492a.83764.83764,0,0,0,.585-.206.81469.81469,0,0,0,.248-.585c.00488-.04688.00683-.11622.00683-.21,0-.08886-.002-.15625-.00683-.20312a.789.789,0,0,0-.24121-.584.84567.84567,0,0,0-.5918-.207h-.59473Z"/><path d="M64.83022,19.05673a.16584.16584,0,0,1-.05273-.126V16.85849a.70208.70208,0,0,0-.791-.79785H62.923a.17852.17852,0,0,1-.1748-.17481v-.60254a.16857.16857,0,0,1,.05176-.126.17681.17681,0,0,1,.123-.04883h1.10547a2.23218,2.23218,0,0,1,1.45313.39941,1.61256,1.61256,0,0,1,.47949,1.3086v2.11425a.1745.1745,0,0,1-.04883.12207.16583.16583,0,0,1-.126.05274H64.9601A.18489.18489,0,0,1,64.83022,19.05673Z"/><rect class="b" x="6.13394" y="24.39724" width="59.98743" height="2.55319" rx="1.1819"/><rect class="b" x="37.16814" y="28.52299" width="28.95324" height="2.55319" rx="0.8211"/><circle class="c" cx="35.67239" cy="1.90159" r="1.75532"/><circle class="d" cx="35.57239" cy="1.80159" r="1.59574"/><path class="e" d="M35.45766.71483s-.734-.18743-1.0851.79787"/></svg>