<svg xmlns="http://www.w3.org/2000/svg" viewBox="0 0 72.25532 35.69264"><defs><style>.a{fill:#78b8d1;}.b{fill:#264047;}.c{fill:#63a0b3;}.d{fill:#44637a;opacity:0.2;}.e{fill:#ca000c;}.f{fill:#e66060;}</style></defs><rect class="a" width="72.25532" height="35.69264"/><path class="b" d="M30.86635,7.52471a1.61647,1.61647,0,0,1,.48633,1.29785V10.93a.17453.17453,0,0,1-.04883.12207.16582.16582,0,0,1-.126.05273H30.3517a.18494.18494,0,0,1-.12988-.04882.16585.16585,0,0,1-.05273-.126V8.85771a.70178.70178,0,0,0-.79-.79785H28.924a4.21324,4.21324,0,0,0-.10547,1.0293L28.87416,10.93a.1686.1686,0,0,1-.05175.126.185.185,0,0,1-.12989.04882L27.20815,11.098a.1842.1842,0,0,1-.12891-.04883.16587.16587,0,0,1-.05273-.126v-.55371a.16585.16585,0,0,1,.05273-.126.1842.1842,0,0,1,.12891-.04883h.56738V9.096A3.73769,3.73769,0,0,1,27.881,8.05986h-.41309A.1849.1849,0,0,1,27.338,8.011a.16585.16585,0,0,1-.05273-.126V7.28252a.16589.16589,0,0,1,.05273-.126.185.185,0,0,1,.12988-.04883H29.421A2.16857,2.16857,0,0,1,30.86635,7.52471Z"/><path class="b" d="M32.19643,11.056a.16585.16585,0,0,1-.05273-.126V7.28252a.16585.16585,0,0,1,.05273-.126.18424.18424,0,0,1,.12891-.04883h.875a.16732.16732,0,0,1,.1748.17481V10.93a.17035.17035,0,0,1-.04883.12207.16292.16292,0,0,1-.126.05273h-.875A.18423.18423,0,0,1,32.19643,11.056Z"/><path class="b" d="M36.87514,7.54521a1.905,1.905,0,0,1,.39942,1.31934,2.06027,2.06027,0,0,1-.5254,1.45605,2.7885,2.7885,0,0,1-1.3164.791l-.28613.084a.1353.1353,0,0,1-.12989-.04882.19808.19808,0,0,1-.05957-.13965v-.707a.203.203,0,0,1,.04883-.12989.36329.36329,0,0,1,.126-.09472l.22461-.09082a1.13148,1.13148,0,0,0,.50683-.374,1.17167,1.17167,0,0,0,.18555-.71093.94514.94514,0,0,0-.15332-.61621.74947.74947,0,0,0-.57422-.17481h-.18262l-.9375-.00684a.1673.1673,0,0,1-.1748-.1748V6.30986a.16556.16556,0,0,1,.05176-.126.17681.17681,0,0,1,.123-.04883h.75586a.16732.16732,0,0,1,.17481.1748v.79785h.43457A1.69685,1.69685,0,0,1,36.87514,7.54521Z"/><path class="b" d="M37.97768,9.39678a.16294.16294,0,0,1-.05273-.126V7.28252a.16585.16585,0,0,1,.05273-.126.185.185,0,0,1,.12988-.04883h.875a.16732.16732,0,0,1,.17481.17481V9.2708a.17284.17284,0,0,1-.04883.12207.16584.16584,0,0,1-.126.05273h-.875A.18494.18494,0,0,1,37.97768,9.39678Z"/><path class="b" d="M43.56752,7.15654a.17389.17389,0,0,1,.04883.126V9.35478a1.52025,1.52025,0,0,1-.4834,1.15137,2.56835,2.56835,0,0,1-1.35742.61231l-1.792.37793a.15932.15932,0,0,1-.13672-.03418.15629.15629,0,0,1-.05957-.126v-.60938a.1823.1823,0,0,1,.04492-.123.20843.20843,0,0,1,.11621-.06641l.77637-.18848L39.89956,7.388a.86445.86445,0,0,1-.03516-.14063.13319.13319,0,0,1,.042-.09765.13168.13168,0,0,1,.09766-.042h.91015a.17033.17033,0,0,1,.1045.03125.157.157,0,0,1,.05664.07422l.70019,2.86231A.96043.96043,0,0,0,42.29311,9.68a1.372,1.372,0,0,0,.13965-.67481V7.28252a.16881.16881,0,0,1,.17578-.17481h.833A.17389.17389,0,0,1,43.56752,7.15654Z"/><path class="b" d="M45.31752,8.35381c.00879.1914.06543.30371.168.33594l.19629.07031a.161.161,0,0,1,.08692.08008.26952.26952,0,0,1,.03222.12988l.00684.35644a.18717.18717,0,0,1-.09473.165.34848.34848,0,0,1-.22754.04492l-.28711-.042a.88781.88781,0,0,1-.60156-.38769,1.39923,1.39923,0,0,1-.23828-.83692v-.9873a.24513.24513,0,0,1,.05957-.126.15119.15119,0,0,1,.11523-.04883h1.41407a1.80734,1.80734,0,0,1,1.36816.47266,1.98821,1.98821,0,0,1,.49414,1.32617c.00391.04688.00684.11231.00684.19629a2.21071,2.21071,0,0,1-.44824,1.47363,1.7628,1.7628,0,0,1-1.4209.52832H44.61733a.1809.1809,0,0,1-.12891-.04882.16589.16589,0,0,1-.05273-.126v-.64453a.17538.17538,0,0,1,.05273-.12891.17231.17231,0,0,1,.12891-.05273h1.29492a.8376.8376,0,0,0,.585-.20606.81466.81466,0,0,0,.248-.585c.00488-.04687.00683-.11621.00683-.21,0-.08887-.002-.15625-.00683-.20312a.78905.78905,0,0,0-.24121-.584.84573.84573,0,0,0-.5918-.207h-.59473Z"/><path class="b" d="M53.6935,7.52471a1.61647,1.61647,0,0,1,.48633,1.29785V10.93a.17453.17453,0,0,1-.04883.12207.16582.16582,0,0,1-.126.05273h-.82617A.18492.18492,0,0,1,53.049,11.056a.16585.16585,0,0,1-.05273-.126V8.85771a.70178.70178,0,0,0-.79-.79785h-.45508a4.21324,4.21324,0,0,0-.10547,1.0293L51.70131,10.93a.1686.1686,0,0,1-.05175.126.185.185,0,0,1-.12989.04882L50.0353,11.098a.1842.1842,0,0,1-.12891-.04883.16587.16587,0,0,1-.05273-.126v-.55371a.16585.16585,0,0,1,.05273-.126.1842.1842,0,0,1,.12891-.04883h.56738V9.096a3.73732,3.73732,0,0,1,.10547-1.03614h-.41309a.1849.1849,0,0,1-.12988-.04883.16582.16582,0,0,1-.05273-.126V7.28252a.16585.16585,0,0,1,.05273-.126.185.185,0,0,1,.12988-.04883h1.95313A2.16857,2.16857,0,0,1,53.6935,7.52471Z"/><path class="b" d="M55.0226,11.056a.16589.16589,0,0,1-.05273-.126V7.28252a.16589.16589,0,0,1,.05273-.126.18424.18424,0,0,1,.12891-.04883h.875a.1673.1673,0,0,1,.1748.17481V10.93a.17038.17038,0,0,1-.04882.12207.16294.16294,0,0,1-.126.05273h-.875A.18423.18423,0,0,1,55.0226,11.056Z"/><path class="b" d="M60.64077,7.15654a.17392.17392,0,0,1,.04882.126V9.35478a1.52028,1.52028,0,0,1-.48339,1.15137,2.56842,2.56842,0,0,1-1.35743.61231l-1.792.37793a.15933.15933,0,0,1-.13672-.03418.15629.15629,0,0,1-.05957-.126v-.60938a.1823.1823,0,0,1,.04492-.123.20843.20843,0,0,1,.11622-.06641l.77636-.18848L56.9728,7.388a.86445.86445,0,0,1-.03516-.14063.13319.13319,0,0,1,.042-.09765.13168.13168,0,0,1,.09766-.042h.91016a.17032.17032,0,0,1,.10449.03125.157.157,0,0,1,.05664.07422l.70019,2.86231A.96043.96043,0,0,0,59.36635,9.68a1.372,1.372,0,0,0,.13965-.67481V7.28252a.16883.16883,0,0,1,.17578-.17481h.833A.17393.17393,0,0,1,60.64077,7.15654Z"/><path class="b" d="M65.98061,7.15654a.17389.17389,0,0,1,.04883.126v1.834a2.05954,2.05954,0,0,1-.2793,1.082,1.90059,1.90059,0,0,1-.76367.7168,2.21561,2.21561,0,0,1-1.07031.24512h-.67285a2.10782,2.10782,0,0,1-.9795-.2168,1.54034,1.54034,0,0,1-.86132-1.40723V7.28252a.16585.16585,0,0,1,.05273-.126.18493.18493,0,0,1,.12988-.04883h.73438a.16732.16732,0,0,1,.1748.17481l.00781,1.68066a.64283.64283,0,0,0,.53125-.291,1.428,1.428,0,0,0,.1543-.73145V7.29717a.18394.18394,0,0,1,.05274-.13672.17532.17532,0,0,1,.1289-.05274h.72852a.161.161,0,0,1,.12207.05567.18983.18983,0,0,1,.05273.13379v.65722a1.82442,1.82442,0,0,1-.41308,1.26075,1.74,1.74,0,0,1-1.169.53906.90907.90907,0,0,0,.35352.34277,1.01276,1.01276,0,0,0,.48632.11914h.16114a1.39806,1.39806,0,0,0,.64453-.14746,1.106,1.106,0,0,0,.44726-.40625,1.07513,1.07513,0,0,0,.16114-.581V7.28252a.16732.16732,0,0,1,.1748-.17481h.73535A.17077.17077,0,0,1,65.98061,7.15654Z"/><rect class="c" x="6.13394" y="24.39724" width="59.98743" height="2.55319" rx="1.1819"/><rect class="c" x="37.16814" y="28.52299" width="28.95324" height="2.55319" rx="0.8211"/><rect class="c" x="6.13394" y="15.82723" width="59.98743" height="2.55319" rx="1.1819"/><rect class="c" x="37.16814" y="19.95299" width="28.95324" height="2.55319" rx="0.8211"/><circle class="d" cx="35.67239" cy="1.90159" r="1.75532"/><circle class="e" cx="35.57239" cy="1.80159" r="1.59574"/><path class="f" d="M35.45766.71483s-.734-.18743-1.0851.79787"/></svg>