<svg xmlns="http://www.w3.org/2000/svg" viewBox="0 0 72.25532 35.69264"><defs><style>.a{fill:#e1fcbe;}.b{fill:#aabf8a;}.c{fill:#6d8393;opacity:0.2;}.d{fill:#e30613;}.e{fill:#ff9494;}</style></defs><rect class="a" width="72.25532" height="35.69264"/><path d="M33.70508,11.05608a.17.17,0,0,1-.04883-.126V8.85783a.70207.70207,0,0,0-.791-.79785H31.26856a.1842.1842,0,0,1-.12891-.04883.16585.16585,0,0,1-.05273-.126V7.28264a.16589.16589,0,0,1,.05273-.126.18424.18424,0,0,1,.12891-.04883h1.63086a2.14973,2.14973,0,0,1,1.45312.42676,1.68138,1.68138,0,0,1,.48633,1.33008V10.9301a.16589.16589,0,0,1-.05273.126.18423.18423,0,0,1-.12891.04882h-.82617A.17077.17077,0,0,1,33.70508,11.05608Zm-2.56543,0a.16589.16589,0,0,1-.05273-.126V8.88615a.163.163,0,0,1,.05273-.126.17993.17993,0,0,1,.12891-.04883h.82617a.1673.1673,0,0,1,.1748.1748V10.9301a.17038.17038,0,0,1-.04882.12207.16294.16294,0,0,1-.126.05273h-.82617A.18423.18423,0,0,1,31.13965,11.05608Z"/><path d="M38.02735,11.05217a.17535.17535,0,0,1-.12891.05273H35.65137a.18491.18491,0,0,1-.12988-.04882.16586.16586,0,0,1-.05274-.126v-.60254a.16586.16586,0,0,1,.05274-.126.18491.18491,0,0,1,.12988-.04882H36.8125L36.75,8.77385a1.22634,1.22634,0,0,0-.13965-.58789.4819.4819,0,0,0-.43457-.18164h-.35644a.18023.18023,0,0,1-.17578-.17578V7.24065a.17915.17915,0,0,1,.0498-.12891.16294.16294,0,0,1,.126-.05273h.37793a1.83458,1.83458,0,0,1,1.333.41308,1.91314,1.91314,0,0,1,.45215,1.32324l.09082,2.13477A.147.147,0,0,1,38.02735,11.05217Z"/><path d="M38.78321,11.05608a.16586.16586,0,0,1-.05274-.126V7.28264a.16586.16586,0,0,1,.05274-.126.1842.1842,0,0,1,.1289-.04883h.875a.16732.16732,0,0,1,.17481.17481V10.9301a.17039.17039,0,0,1-.04883.12207.16294.16294,0,0,1-.126.05273h-.875A.18419.18419,0,0,1,38.78321,11.05608Z"/><path d="M40.79981,11.05608a.16586.16586,0,0,1-.05274-.126v-.64453a.18007.18007,0,0,1,.18164-.18164h1.01563a.74549.74549,0,0,0,.83984-.791c.00391-.05566.00684-.126.00684-.21,0-.0791-.00293-.14746-.00684-.20312a.74549.74549,0,0,0-.83984-.791H40.92871a.18007.18007,0,0,1-.18164-.18164V7.28264a.16586.16586,0,0,1,.05274-.126.1842.1842,0,0,1,.1289-.04883h1.04981A1.70138,1.70138,0,0,1,43.918,8.90666c.00488.05176.00684.11719.00684.19629a2.17162,2.17162,0,0,1-.458,1.47656,1.8793,1.8793,0,0,1-1.48828.52539H40.92871A.18419.18419,0,0,1,40.79981,11.05608Z"/><path d="M46.959,11.05217a.17535.17535,0,0,1-.12891.05273H44.583a.18491.18491,0,0,1-.12988-.04882.16586.16586,0,0,1-.05274-.126v-.60254a.16586.16586,0,0,1,.05274-.126.18491.18491,0,0,1,.12988-.04882h1.16113l-.0625-1.37891A1.22647,1.22647,0,0,0,45.542,8.186a.48193.48193,0,0,0-.43457-.18164H44.751a.18023.18023,0,0,1-.17578-.17578V7.24065a.17915.17915,0,0,1,.0498-.12891.16294.16294,0,0,1,.126-.05273h.37793a1.83458,1.83458,0,0,1,1.333.41308,1.91314,1.91314,0,0,1,.45215,1.32324l.09082,2.13477A.147.147,0,0,1,46.959,11.05217Z"/><path d="M51.751,11.05608a.17.17,0,0,1-.04883-.126V8.85783a.70207.70207,0,0,0-.791-.79785H49.31446a.1842.1842,0,0,1-.12891-.04883.16582.16582,0,0,1-.05273-.126V7.28264a.16585.16585,0,0,1,.05273-.126.18424.18424,0,0,1,.12891-.04883h1.63086a2.14973,2.14973,0,0,1,1.45312.42676,1.68138,1.68138,0,0,1,.48633,1.33008V10.9301a.16586.16586,0,0,1-.05274.126.18419.18419,0,0,1-.1289.04882H51.877A.17077.17077,0,0,1,51.751,11.05608Zm-2.56543,0a.16585.16585,0,0,1-.05273-.126V8.88615a.16292.16292,0,0,1,.05273-.126.17993.17993,0,0,1,.12891-.04883h.82617a.16732.16732,0,0,1,.1748.1748V10.9301a.17035.17035,0,0,1-.04883.12207.1629.1629,0,0,1-.126.05273h-.82617A.18423.18423,0,0,1,49.18555,11.05608Z"/><path d="M56.07325,11.05217a.17535.17535,0,0,1-.12891.05273H53.69727a.18491.18491,0,0,1-.12988-.04882.16586.16586,0,0,1-.05274-.126v-.60254a.16586.16586,0,0,1,.05274-.126.18491.18491,0,0,1,.12988-.04882H54.8584l-.0625-1.37891a1.22646,1.22646,0,0,0-.13965-.58789.48191.48191,0,0,0-.43457-.18164h-.35644a.18023.18023,0,0,1-.17578-.17578V7.24065a.17915.17915,0,0,1,.0498-.12891.16294.16294,0,0,1,.126-.05273h.37793a1.83458,1.83458,0,0,1,1.333.41308,1.91309,1.91309,0,0,1,.45214,1.32324l.09082,2.13477A.14694.14694,0,0,1,56.07325,11.05217Z"/><path d="M56.8291,11.05608a.16589.16589,0,0,1-.05273-.126V7.28264a.16589.16589,0,0,1,.05273-.126.18424.18424,0,0,1,.12891-.04883h.875a.16732.16732,0,0,1,.17481.17481V10.9301a.17039.17039,0,0,1-.04883.12207.16294.16294,0,0,1-.126.05273h-.875A.18423.18423,0,0,1,56.8291,11.05608Z"/><path d="M61.03516,7.15666a.16585.16585,0,0,1,.05273.126v.60254a.17362.17362,0,0,1-.18164.1748H60.584a1.08315,1.08315,0,0,0-.12989.35645,2.5138,2.5138,0,0,0-.04492.49707v2.03711a.1322.1322,0,0,1-.06347.1084.2171.2171,0,0,1-.13282.04589h-.81933a.14871.14871,0,0,1-.11133-.042.151.151,0,0,1-.042-.1123V8.83733A1.50572,1.50572,0,0,1,59.37989,8.06H58.8545a.18033.18033,0,0,1-.17481-.1748V7.28264a.16586.16586,0,0,1,.05274-.126.17626.17626,0,0,1,.12207-.04883h2.05175A.18424.18424,0,0,1,61.03516,7.15666Z"/><path d="M65.47364,7.52483A1.61649,1.61649,0,0,1,65.96,8.82268V10.9301a.17457.17457,0,0,1-.04882.12207.16585.16585,0,0,1-.126.05273H64.959a.185.185,0,0,1-.12989-.04882.16589.16589,0,0,1-.05273-.126V8.85783a.70178.70178,0,0,0-.79-.79785h-.45508a4.21373,4.21373,0,0,0-.10547,1.0293l.05567,1.84082a.16861.16861,0,0,1-.05176.126.18492.18492,0,0,1-.12988.04882l-1.48438-.00683a.18416.18416,0,0,1-.1289-.04883.16583.16583,0,0,1-.05274-.126v-.55371a.16582.16582,0,0,1,.05274-.126.18416.18416,0,0,1,.1289-.04883h.56739V9.09612A3.73771,3.73771,0,0,1,62.48828,8.06H62.0752a.18487.18487,0,0,1-.12988-.04883.16582.16582,0,0,1-.05274-.126V7.28264a.16586.16586,0,0,1,.05274-.126.18491.18491,0,0,1,.12988-.04883h1.95312A2.16858,2.16858,0,0,1,65.47364,7.52483Z"/><rect class="b" x="6.13394" y="24.39724" width="59.98743" height="2.55319" rx="1.1819"/><rect class="b" x="37.16814" y="28.52299" width="28.95324" height="2.55319" rx="0.8211"/><rect class="b" x="6.13394" y="15.76473" width="59.98743" height="2.55319" rx="1.1819"/><rect class="b" x="37.16814" y="19.89049" width="28.95324" height="2.55319" rx="0.8211"/><circle class="c" cx="35.67239" cy="1.90159" r="1.75532"/><circle class="d" cx="35.57239" cy="1.80159" r="1.59574"/><path class="e" d="M35.45766.71483s-.734-.18743-1.0851.79787"/></svg>