<svg xmlns="http://www.w3.org/2000/svg" viewBox="0 0 72.25532 35.69264"><defs><style>.a{fill:#e3a1d2;}.b{fill:#452b3c;}.c{fill:#a6729c;}.d{fill:#44637a;opacity:0.2;}.e{fill:#ca000c;}.f{fill:#e66060;}</style></defs><rect class="a" width="72.25532" height="35.69264"/><path class="b" d="M6.56211,11.05549a.16582.16582,0,0,1-.05273-.126V7.28206a.16584.16584,0,0,1,.05273-.126A.1842.1842,0,0,1,6.691,7.10725H8.27988a2.12391,2.12391,0,0,1,1.418.40235,1.65048,1.65048,0,0,1,.46582,1.3125v2.10058a.18007.18007,0,0,1-.18261.18164H6.691A.1842.1842,0,0,1,6.56211,11.05549Zm2.47461-.90332V8.85725a.70208.70208,0,0,0-.791-.79785H7.57285v2.09277Z"/><path class="b" d="M10.9791,9.39631a.16294.16294,0,0,1-.05273-.126V7.28206a.16587.16587,0,0,1,.05273-.126.18491.18491,0,0,1,.12989-.04883h.875a.16732.16732,0,0,1,.1748.17481V9.27034a.17284.17284,0,0,1-.04883.12207.16585.16585,0,0,1-.126.05273h-.875A.18491.18491,0,0,1,10.9791,9.39631Z"/><path class="b" d="M17.46445,7.15608a.17387.17387,0,0,1,.04883.126V9.116a2.05956,2.05956,0,0,1-.27929,1.082,1.90062,1.90062,0,0,1-.76368.7168A2.21561,2.21561,0,0,1,15.4,11.16h-.67285a2.10775,2.10775,0,0,1-.97949-.2168A1.54032,1.54032,0,0,1,12.88633,9.536V7.28206a.16587.16587,0,0,1,.05273-.126.18491.18491,0,0,1,.12989-.04883h.73437a.16732.16732,0,0,1,.17481.17481l.00781,1.68066a.6429.6429,0,0,0,.53125-.291,1.428,1.428,0,0,0,.1543-.73145V7.29671A.18392.18392,0,0,1,14.72422,7.16a.17534.17534,0,0,1,.12891-.05274h.72851a.161.161,0,0,1,.12207.05567.1898.1898,0,0,1,.05274.13379v.65722a1.82438,1.82438,0,0,1-.41309,1.26074,1.73992,1.73992,0,0,1-1.169.53907.90914.90914,0,0,0,.35352.34277,1.01277,1.01277,0,0,0,.48633.11914h.16113a1.398,1.398,0,0,0,.64453-.14746,1.10613,1.10613,0,0,0,.44727-.40625,1.07523,1.07523,0,0,0,.16113-.581V7.28206a.16732.16732,0,0,1,.17481-.17481h.73535A.1707.1707,0,0,1,17.46445,7.15608Z"/><path class="b" d="M20.63828,11.05159a.17535.17535,0,0,1-.1289.05273H18.26231a.18491.18491,0,0,1-.12989-.04883.16585.16585,0,0,1-.05273-.126V10.327a.16589.16589,0,0,1,.05273-.126.185.185,0,0,1,.12989-.04883h1.16113l-.0625-1.3789a1.22646,1.22646,0,0,0-.13965-.58789.4819.4819,0,0,0-.43457-.18164h-.35645a.18025.18025,0,0,1-.17578-.17578v-.5879a.17909.17909,0,0,1,.04981-.1289.16293.16293,0,0,1,.126-.05274h.37793a1.83457,1.83457,0,0,1,1.333.41309,1.91309,1.91309,0,0,1,.45215,1.32324l.09082,2.13477A.14692.14692,0,0,1,20.63828,11.05159Z"/><path class="b" d="M26.53281,7.52424a1.6165,1.6165,0,0,1,.48633,1.29786v2.10742a.17453.17453,0,0,1-.04883.12207.16585.16585,0,0,1-.126.05273h-.82618a.1849.1849,0,0,1-.12988-.04883.16585.16585,0,0,1-.05273-.126V8.85725a.70178.70178,0,0,0-.79-.79785h-.45508A4.21368,4.21368,0,0,0,24.485,9.0887l.05567,1.84082a.16857.16857,0,0,1-.05176.126.1849.1849,0,0,1-.12988.04883l-1.48438-.00683a.1842.1842,0,0,1-.12891-.04883.16587.16587,0,0,1-.05273-.126V10.369a.16589.16589,0,0,1,.05273-.126.18423.18423,0,0,1,.12891-.04882H23.442V9.09553a3.73766,3.73766,0,0,1,.10547-1.03613h-.41308a.18491.18491,0,0,1-.12989-.04883.16585.16585,0,0,1-.05273-.126V7.28206a.16587.16587,0,0,1,.05273-.126.18491.18491,0,0,1,.12989-.04883H25.0875A2.16857,2.16857,0,0,1,26.53281,7.52424Z"/><path class="b" d="M27.86289,11.05549a.16585.16585,0,0,1-.05273-.126V7.28206a.16587.16587,0,0,1,.05273-.126.1842.1842,0,0,1,.12891-.04883h.875a.16732.16732,0,0,1,.1748.17481v3.64746a.17035.17035,0,0,1-.04883.12207.16294.16294,0,0,1-.126.05273h-.875A.1842.1842,0,0,1,27.86289,11.05549Z"/><path class="b" d="M33.60606,10.95686a.14769.14769,0,0,1-.042.10156.13568.13568,0,0,1-.10547.0459h-.86132a.236.236,0,0,1-.18848-.0664c-.03711-.044-.05859-.06934-.06348-.07325L31.1207,9.19319a.78858.78858,0,0,0-.23828.38477,1.859,1.859,0,0,0-.05566.46191v.875a.184.184,0,0,1-.05274.13672.17535.17535,0,0,1-.1289.05273h-.68653a.161.161,0,0,1-.12207-.05566.18985.18985,0,0,1-.05273-.13379v-.86719a2.45743,2.45743,0,0,1,.16113-.96679,1.78325,1.78325,0,0,1,.6084-.69922l-.71387-1.0293a.1482.1482,0,0,1-.03515-.09766.14.14,0,0,1,.0459-.10156.14167.14167,0,0,1,.10156-.0459h.82617a.23378.23378,0,0,1,.15039.042.55028.55028,0,0,1,.10156.11231l1.127,1.5957a.616.616,0,0,0,.248-.30761,1.342,1.342,0,0,0,.05274-.39942V7.29671A.19357.19357,0,0,1,32.50645,7.16a.16582.16582,0,0,1,.126-.05274h.73535a.17287.17287,0,0,1,.12989.05567.19323.19323,0,0,1,.05175.13379v.88183a1.83945,1.83945,0,0,1-.17871.81543,1.65882,1.65882,0,0,1-.64746.66113l.8545,1.20411A.17375.17375,0,0,1,33.60606,10.95686Z"/><path class="b" d="M35.2584,8.35335c.00879.1914.06543.30371.168.33593l.19629.07032a.161.161,0,0,1,.08691.08007.26948.26948,0,0,1,.03223.12989l.00683.35644a.18717.18717,0,0,1-.09472.165.34856.34856,0,0,1-.22754.04492l-.28711-.042a.88778.88778,0,0,1-.60156-.38769,1.39923,1.39923,0,0,1-.23829-.83692v-.9873a.245.245,0,0,1,.05958-.126.15114.15114,0,0,1,.11523-.04883h1.41406a1.80738,1.80738,0,0,1,1.36817.47266,1.98824,1.98824,0,0,1,.49414,1.32617c.0039.04688.00683.11231.00683.19629a2.21066,2.21066,0,0,1-.44824,1.47363,1.76278,1.76278,0,0,1-1.4209.52832H34.5582a.18086.18086,0,0,1-.1289-.04883.16582.16582,0,0,1-.05274-.126V10.285a.17535.17535,0,0,1,.05274-.12891.17226.17226,0,0,1,.1289-.05273h1.29493a.83762.83762,0,0,0,.585-.20606.81471.81471,0,0,0,.248-.585c.00489-.04687.00684-.11621.00684-.21,0-.08887-.002-.15625-.00684-.20313a.789.789,0,0,0-.24121-.584.84564.84564,0,0,0-.59179-.207H35.2584Z"/><path class="b" d="M38.4957,11.05549a.16585.16585,0,0,1-.05273-.126V7.28206a.16587.16587,0,0,1,.05273-.126.1842.1842,0,0,1,.12891-.04883h.875a.1673.1673,0,0,1,.1748.17481v3.64746a.17038.17038,0,0,1-.04882.12207.163.163,0,0,1-.126.05273h-.875A.1842.1842,0,0,1,38.4957,11.05549Z"/><path class="b" d="M42.44981,11.05549a.16582.16582,0,0,1-.05274-.126V8.85725a.70207.70207,0,0,0-.791-.79785H40.54258a.1785.1785,0,0,1-.17481-.1748V7.28206a.16859.16859,0,0,1,.05176-.126.17684.17684,0,0,1,.123-.04883h1.10547a2.23209,2.23209,0,0,1,1.45312.39942,1.6125,1.6125,0,0,1,.47949,1.30859v2.11426a.17457.17457,0,0,1-.04882.12207.16589.16589,0,0,1-.126.05273h-.82617A.18487.18487,0,0,1,42.44981,11.05549Z"/><path class="b" d="M49.56211,7.52424a1.6165,1.6165,0,0,1,.48633,1.29786v2.10742a.17453.17453,0,0,1-.04883.12207.16587.16587,0,0,1-.126.05273h-.82617a.18489.18489,0,0,1-.12988-.04883.16582.16582,0,0,1-.05274-.126V8.85725a.70177.70177,0,0,0-.79-.79785h-.45508a4.21319,4.21319,0,0,0-.10547,1.0293l.05566,1.84082a.16857.16857,0,0,1-.05176.126.18487.18487,0,0,1-.12988.04883l-1.48437-.00683a.1842.1842,0,0,1-.12891-.04883.16584.16584,0,0,1-.05273-.126V10.369a.16585.16585,0,0,1,.05273-.126.18423.18423,0,0,1,.12891-.04882h.56738V9.09553a3.73728,3.73728,0,0,1,.10547-1.03613h-.41309a.18489.18489,0,0,1-.12988-.04883.16582.16582,0,0,1-.05273-.126V7.28206a.16584.16584,0,0,1,.05273-.126.18489.18489,0,0,1,.12988-.04883H48.1168A2.16857,2.16857,0,0,1,49.56211,7.52424Z"/><path class="b" d="M54.36777,7.534A1.69457,1.69457,0,0,1,54.815,8.81526v2.11426a.17039.17039,0,0,1-.04883.12207.163.163,0,0,1-.126.05273H52.7291a.18031.18031,0,0,1-.1748-.1748V10.327a.16589.16589,0,0,1,.05273-.126.17458.17458,0,0,1,.12207-.04883h.90332V8.87092a.84165.84165,0,0,0-.1748-.5664.57236.57236,0,0,0-.45508-.20313h-.5459l-.5957,2.82129a.21014.21014,0,0,1-.05567.12891.16294.16294,0,0,1-.126.05273h-.80469a.176.176,0,0,1-.12988-.05273.13567.13567,0,0,1-.03809-.12891l.68555-2.81445h-.46192a.16293.16293,0,0,1-.126-.05274.18416.18416,0,0,1-.04883-.1289V7.28206a.16587.16587,0,0,1,.05273-.126.17284.17284,0,0,1,.12207-.04883h2.24707A1.6573,1.6573,0,0,1,54.36777,7.534Z"/><path class="b" d="M55.62363,9.39631a.16294.16294,0,0,1-.05273-.126V7.28206a.16587.16587,0,0,1,.05273-.126.18491.18491,0,0,1,.12989-.04883h.875a.16732.16732,0,0,1,.1748.17481V9.27034a.17284.17284,0,0,1-.04883.12207.16585.16585,0,0,1-.126.05273h-.875A.18491.18491,0,0,1,55.62363,9.39631Z"/><path class="b" d="M62.109,7.15608a.1739.1739,0,0,1,.04882.126V9.116a2.05956,2.05956,0,0,1-.27929,1.082,1.90062,1.90062,0,0,1-.76368.7168,2.21559,2.21559,0,0,1-1.07031.24512h-.67285a2.10775,2.10775,0,0,1-.97949-.2168A1.54032,1.54032,0,0,1,57.53086,9.536V7.28206a.16587.16587,0,0,1,.05273-.126.18491.18491,0,0,1,.12989-.04883h.73437a.16732.16732,0,0,1,.17481.17481l.00781,1.68066a.6429.6429,0,0,0,.53125-.291,1.428,1.428,0,0,0,.1543-.73145V7.29671A.18392.18392,0,0,1,59.36875,7.16a.17535.17535,0,0,1,.12891-.05274h.72851a.161.161,0,0,1,.12207.05567.1898.1898,0,0,1,.05274.13379v.65722a1.82438,1.82438,0,0,1-.41309,1.26074,1.73992,1.73992,0,0,1-1.16894.53907.909.909,0,0,0,.35351.34277,1.01277,1.01277,0,0,0,.48633.11914h.16113a1.398,1.398,0,0,0,.64453-.14746,1.10613,1.10613,0,0,0,.44727-.40625,1.07523,1.07523,0,0,0,.16113-.581V7.28206a.16732.16732,0,0,1,.17481-.17481H61.983A.17073.17073,0,0,1,62.109,7.15608Z"/><path class="b" d="M64.82871,11.05549a.16585.16585,0,0,1-.05273-.126V8.85725a.70208.70208,0,0,0-.791-.79785H62.92149a.1785.1785,0,0,1-.17481-.1748V7.28206a.16859.16859,0,0,1,.05176-.126.17682.17682,0,0,1,.123-.04883H64.027a2.2321,2.2321,0,0,1,1.45313.39942,1.61253,1.61253,0,0,1,.47949,1.30859v2.11426a.17453.17453,0,0,1-.04883.12207.16585.16585,0,0,1-.126.05273h-.82618A.1849.1849,0,0,1,64.82871,11.05549Z"/><rect class="c" x="6.13394" y="24.39724" width="59.98743" height="2.55319" rx="1.1819"/><rect class="c" x="37.16814" y="28.52299" width="28.95324" height="2.55319" rx="0.8211"/><rect class="c" x="6.13394" y="15.76473" width="59.98743" height="2.55319" rx="1.1819"/><rect class="c" x="37.16814" y="19.89048" width="28.95324" height="2.55319" rx="0.8211"/><circle class="d" cx="35.67239" cy="1.90159" r="1.75532"/><circle class="e" cx="35.57239" cy="1.80159" r="1.59574"/><path class="f" d="M35.45766.71483s-.734-.18743-1.0851.79787"/></svg>