<svg xmlns="http://www.w3.org/2000/svg" viewBox="0 0 9.9622 9.9622"><defs><style>.a{fill:#b0daea;stroke:#6ab8e2;stroke-miterlimit:10;}.a,.b{stroke-width:0.46589px;}.b,.d{fill:none;stroke-linecap:round;stroke-linejoin:round;}.b{stroke:#fff;}.c{fill:#cee6ea;}.d{stroke:#2d2a28;stroke-width:0.5px;}</style></defs><rect class="a" x="0.23297" y="0.23297" width="9.49627" height="9.49627" rx="4.74813" transform="translate(10.07073 9.85126) rotate(178.73767)"/><path class="b" d="M3.49458,1.919A2.792,2.792,0,0,0,2.0018,3.41285"/><path class="c" d="M8.5371,2.18019c0,.00006,1.49629,5.90366-4.18355,7.27158,0,0,.59129.05718.81726.04841a4.888,4.888,0,0,0,1.34344-.2519,4.64945,4.64945,0,0,0,2.98768-3.832A4.41848,4.41848,0,0,0,8.98407,2.888c-.05721-.11193-.14838-.24387-.213-.35173C8.70964,2.43365,8.5371,2.18019,8.5371,2.18019Z"/><path class="d" d="M5.638,4.05435,4.07391,5.61843a.41217.41217,0,0,0,0,.58289h0a.41217.41217,0,0,0,.58289,0L6.82106,4.03707a.82815.82815,0,0,0,0-1.17118h0a.82815.82815,0,0,0-1.17118,0L3.25516,5.26061a1.21742,1.21742,0,0,0,0,1.72169h0a1.21741,1.21741,0,0,0,1.72168,0L6.77139,5.18775"/></svg>