<svg xmlns="http://www.w3.org/2000/svg" viewBox="0 0 19.28742 19.28742"><defs><style>.a,.b,.d,.e,.f{fill:none;}.a{stroke:#1b135c;stroke-width:4px;opacity:0.14;}.a,.b,.d{stroke-miterlimit:10;}.b,.f{stroke:#fff;}.b{stroke-width:3px;}.c{fill:#c2e3f4;}.d{stroke:#78c3ec;}.d,.f{stroke-width:0.75px;}.e{stroke:#2d2a28;stroke-width:1.5px;}.e,.f{stroke-linecap:round;stroke-linejoin:round;}.g{fill:#a5daec;}</style></defs><path class="a" d="M9.6437,2h0a7.64367,7.64367,0,0,1,7.64367,7.64367v0a7.64366,7.64366,0,0,1-7.64366,7.64366h0A7.64366,7.64366,0,0,1,2,9.64372v0A7.64366,7.64366,0,0,1,9.6437,2Z" transform="translate(-0.21011 0.21479) rotate(-1.2623)"/><path class="b" d="M9.6437,2h0a7.64367,7.64367,0,0,1,7.64367,7.64367v0a7.64366,7.64366,0,0,1-7.64366,7.64366h0A7.64366,7.64366,0,0,1,2,9.64372v0A7.64366,7.64366,0,0,1,9.6437,2Z" transform="translate(-0.21011 0.21479) rotate(-1.2623)"/><path class="c" d="M9.6437,2h0a7.64367,7.64367,0,0,1,7.64367,7.64367v0a7.64366,7.64366,0,0,1-7.64366,7.64366h0A7.64366,7.64366,0,0,1,2,9.64372v0A7.64366,7.64366,0,0,1,9.6437,2Z" transform="translate(-0.21011 0.21479) rotate(-1.2623)"/><path class="d" d="M9.6437,2h0a7.64367,7.64367,0,0,1,7.64367,7.64367v0a7.64366,7.64366,0,0,1-7.64366,7.64366h0A7.64366,7.64366,0,0,1,2,9.64372v0A7.64366,7.64366,0,0,1,9.6437,2Z" transform="translate(-0.21011 0.21479) rotate(-1.2623)"/><polyline class="e" points="8.454 12.723 11.533 9.644 8.454 6.564"/><path class="f" d="M7.24864,4.71418A4.4946,4.4946,0,0,0,4.84552,7.1191"/><path class="g" d="M15.36623,5.13473c0,.0001,2.40876,9.50387-6.7348,11.706,0,0,.95188.09205,1.31565.07793a7.869,7.869,0,0,0,2.1627-.40551,7.48481,7.48481,0,0,0,4.80965-6.16892,7.113,7.113,0,0,0-.83366-4.07c-.0921-.18019-.23887-.39259-.34283-.56623C15.644,5.54276,15.36623,5.13473,15.36623,5.13473Z"/></svg>