<svg xmlns="http://www.w3.org/2000/svg" xmlns:xlink="http://www.w3.org/1999/xlink" viewBox="0 0 8.83589 8.83589"><defs><style>.a{fill:#36a9e1;}.b{fill:#1ac179;}.c{fill:none;stroke:#ccf4ff;stroke-miterlimit:10;stroke-width:0.75px;}.d{fill:#48cc83;}.e{fill:#46db97;}</style><symbol id="a" viewBox="0 0 8.836 8.836"><circle class="a" cx="4.16999" cy="4.16999" r="4.16999"/><circle class="b" cx="4.66999" cy="4.66999" r="3.7909"/><circle class="c" cx="4.66999" cy="4.66999" r="3.7909"/><path class="d" d="M6.8,2.05553c.2431.92548.913,4.7041-3.98694,5.44379A3.37745,3.37745,0,0,0,6.8,2.05553Z"/><path class="e" d="M2.72984,4.72127c.1488-.129.11651-.41365.16236-.58768a1.96734,1.96734,0,0,1,.27157-.6037,2.17141,2.17141,0,0,1,.722-.65142,2.34563,2.34563,0,0,1,.4597-.2024c.1181-.0372.33037-.03032.36225-.18175.02948-.14008-.11047-.24034-.22393-.2844a1.72757,1.72757,0,0,0-1.48938.33416A1.87572,1.87572,0,0,0,2.21955,4.056a1.413,1.413,0,0,0,.0562.50071A.3116.3116,0,0,0,2.72984,4.72127Z"/></symbol></defs><use width="8.83589" height="8.83589" xlink:href="#a"/></svg>