<svg xmlns="http://www.w3.org/2000/svg" xmlns:xlink="http://www.w3.org/1999/xlink" viewBox="0 0 384 216"><defs><style>.a,.c,.d,.h{fill:none;}.b{fill:#cbbba0;}.c{stroke:#2d2a28;stroke-width:2.06709px;}.c,.d,.h{stroke-linecap:round;stroke-linejoin:round;}.d,.h{stroke:#cbbba0;}.d{stroke-width:2px;}.e{fill:#2d2a28;}.f{clip-path:url(#a);}.g{fill:#f2f0e9;}.h{opacity:0.15;}</style><clipPath id="a"><rect class="a" x="0.3209" y="0.24459" width="383.35819" height="215.63898"/></clipPath><symbol id="b" viewBox="0 0 114.285 21.79"><circle class="b" cx="9.75253" cy="12.03725" r="9.75253"/><circle class="b" cx="101.94728" cy="12.03725" r="9.75253"/><rect class="c" x="13.65374" y="3.78365" width="86.75853" height="11.44961" rx="2.56592"/><rect class="d" x="13.65374" y="6.88691" width="86.75853" height="11.44961" rx="2.56592"/><circle class="e" cx="12.33763" cy="9.75253" r="9.75253"/><circle class="e" cx="104.53238" cy="9.75253" r="9.75253"/></symbol></defs><g class="f"><rect class="g" x="0.3209" y="0.24459" width="383.35819" height="215.63898"/><use width="114.28491" height="21.78978" transform="translate(12.2953 11.05565) rotate(-90) scale(0.19967)" xlink:href="#b"/><use width="114.28491" height="21.78978" transform="translate(23.74881 11.05565) rotate(-90) scale(0.19967)" xlink:href="#b"/><use width="114.28491" height="21.78978" transform="translate(35.20231 11.05565) rotate(-90) scale(0.19967)" xlink:href="#b"/><use width="114.28491" height="21.78978" transform="translate(46.65582 11.05565) rotate(-90) scale(0.19967)" xlink:href="#b"/><use width="114.28491" height="21.78978" transform="translate(58.10933 11.05565) rotate(-90) scale(0.19967)" xlink:href="#b"/><use width="114.28491" height="21.78978" transform="translate(69.56284 11.05565) rotate(-90) scale(0.19967)" xlink:href="#b"/><use width="114.28491" height="21.78978" transform="translate(81.01634 11.05565) rotate(-90) scale(0.19967)" xlink:href="#b"/><use width="114.28491" height="21.78978" transform="translate(92.46985 11.05565) rotate(-90) scale(0.19967)" xlink:href="#b"/><use width="114.28491" height="21.78978" transform="translate(103.92336 11.05565) rotate(-90) scale(0.19967)" xlink:href="#b"/><use width="114.28491" height="21.78978" transform="translate(115.37687 11.05565) rotate(-90) scale(0.19967)" xlink:href="#b"/><use width="114.28491" height="21.78978" transform="translate(126.83037 11.05565) rotate(-90) scale(0.19967)" xlink:href="#b"/><use width="114.28491" height="21.78978" transform="translate(138.28388 11.05565) rotate(-90) scale(0.19967)" xlink:href="#b"/><use width="114.28491" height="21.78978" transform="translate(149.73739 11.05565) rotate(-90) scale(0.19967)" xlink:href="#b"/><use width="114.28491" height="21.78978" transform="translate(161.1909 11.05565) rotate(-90) scale(0.19967)" xlink:href="#b"/><use width="114.28491" height="21.78978" transform="translate(172.6444 11.05565) rotate(-90) scale(0.19967)" xlink:href="#b"/><use width="114.28491" height="21.78978" transform="translate(184.09791 11.05565) rotate(-90) scale(0.19967)" xlink:href="#b"/><use width="114.28491" height="21.78978" transform="translate(195.55142 11.05565) rotate(-90) scale(0.19967)" xlink:href="#b"/><use width="114.28491" height="21.78978" transform="translate(207.00493 11.05565) rotate(-90) scale(0.19967)" xlink:href="#b"/><use width="114.28491" height="21.78978" transform="translate(218.45843 11.05565) rotate(-90) scale(0.19967)" xlink:href="#b"/><use width="114.28491" height="21.78978" transform="translate(229.91194 11.05565) rotate(-90) scale(0.19967)" xlink:href="#b"/><use width="114.28491" height="21.78978" transform="translate(241.36545 11.05565) rotate(-90) scale(0.19967)" xlink:href="#b"/><use width="114.28491" height="21.78978" transform="translate(252.81895 11.05565) rotate(-90) scale(0.19967)" xlink:href="#b"/><use width="114.28491" height="21.78978" transform="translate(264.27246 11.05565) rotate(-90) scale(0.19967)" xlink:href="#b"/><use width="114.28491" height="21.78978" transform="translate(275.72597 11.05565) rotate(-90) scale(0.19967)" xlink:href="#b"/><use width="114.28491" height="21.78978" transform="translate(287.17948 11.05565) rotate(-90) scale(0.19967)" xlink:href="#b"/><use width="114.28491" height="21.78978" transform="translate(298.63298 11.05565) rotate(-90) scale(0.19967)" xlink:href="#b"/><use width="114.28491" height="21.78978" transform="translate(310.08649 11.05565) rotate(-90) scale(0.19967)" xlink:href="#b"/><use width="114.28491" height="21.78978" transform="translate(321.54 11.05565) rotate(-90) scale(0.19967)" xlink:href="#b"/><use width="114.28491" height="21.78978" transform="translate(332.99351 11.05565) rotate(-90) scale(0.19967)" xlink:href="#b"/><use width="114.28491" height="21.78978" transform="translate(344.44701 11.05565) rotate(-90) scale(0.19967)" xlink:href="#b"/><use width="114.28491" height="21.78978" transform="translate(355.90052 11.05565) rotate(-90) scale(0.19967)" xlink:href="#b"/><use width="114.28491" height="21.78978" transform="translate(367.35403 11.05565) rotate(-90) scale(0.19967)" xlink:href="#b"/><line class="h" x1="12.71379" y1="27.56021" x2="371.46911" y2="27.56021"/><line class="h" x1="12.71379" y1="40.02317" x2="371.46911" y2="40.02317"/><line class="h" x1="12.71379" y1="52.48612" x2="371.46911" y2="52.48612"/><line class="h" x1="12.71379" y1="64.94907" x2="371.46911" y2="64.94907"/><line class="h" x1="12.71379" y1="77.41202" x2="371.46911" y2="77.41202"/><line class="h" x1="12.71379" y1="89.87497" x2="371.46911" y2="89.87497"/><line class="h" x1="12.71379" y1="102.33792" x2="371.46911" y2="102.33792"/><line class="h" x1="12.71379" y1="114.80087" x2="371.46911" y2="114.80087"/><line class="h" x1="12.71379" y1="127.26383" x2="371.46911" y2="127.26383"/><line class="h" x1="12.71379" y1="139.72678" x2="371.46911" y2="139.72678"/><line class="h" x1="12.71379" y1="152.18973" x2="371.46911" y2="152.18973"/><line class="h" x1="12.71379" y1="164.65268" x2="371.46911" y2="164.65268"/><line class="h" x1="12.71379" y1="177.11563" x2="371.46911" y2="177.11563"/><line class="h" x1="12.71379" y1="189.57858" x2="371.46911" y2="189.57858"/><line class="h" x1="12.71379" y1="202.04153" x2="371.46911" y2="202.04153"/></g></svg>