<svg xmlns="http://www.w3.org/2000/svg" xmlns:xlink="http://www.w3.org/1999/xlink" viewBox="0 0 21.2549 24.40899"><defs><style>.a,.g{fill:#ba8b5f;}.a,.b,.c,.j,.k,.n,.q,.r,.u,.w,.x,.y{stroke:#2d2a28;}.a,.b,.j,.k,.q,.r,.u,.y{stroke-miterlimit:10;}.a,.b,.j,.k,.n,.u{stroke-width:0.27521px;}.b,.l{fill:#f6f6f6;}.c,.o{fill:#2d2a28;}.c,.e,.f,.k,.n,.q,.r,.u,.w,.x,.y{stroke-linecap:round;}.c,.e,.f,.n,.w,.x{stroke-linejoin:round;}.c,.w,.x,.y{stroke-width:0.27369px;}.d{opacity:0.3;}.e,.f,.j,.k,.x{fill:none;}.e{stroke:#29235c;stroke-width:3px;}.f{stroke:#fff;stroke-width:2px;}.h{clip-path:url(#a);}.i,.n{fill:#9c6c43;}.m{clip-path:url(#b);}.p{clip-path:url(#c);}.q,.y{fill:#b89166;}.q{stroke-width:0.51602px;}.r,.u{fill:#443c33;}.r{stroke-width:0.34401px;}.s,.w{fill:#fff;}.s{opacity:0.2;}.t{fill:#ededed;}.v{clip-path:url(#d);}</style><clipPath id="a"><path class="a" d="M4.27254,9.15908s-.85637,5.96168.65875,10.507,4.5783,3.4255,6.65336,1.87744,3.19492-3.72191,3.72192-4.216a1.33853,1.33853,0,0,1,.323.012,1.96184,1.96184,0,0,0,1.33194-.51882,3.2328,3.2328,0,0,0,1.34237-2.6881c-.07666-.42716-.14259-.86183-.2472-1.28456H16.01485c-.15614,0-.25726.04142-.30134-.11338a2.5612,2.5612,0,0,1-.0004-.61942q.00078-.33606.0033-.67211.00508-.71042.0151-1.4208.02519-1.86455.06913-3.72883L6.94047,5.27246Z"/></clipPath><clipPath id="b"><circle class="b" cx="10.62946" cy="13.22137" r="1.51512"/></clipPath><clipPath id="c"><ellipse class="b" cx="5.31555" cy="13.22137" rx="1.40085" ry="1.51512"/></clipPath><clipPath id="d"><path class="c" d="M6.35561,19.25234s2.85869-.63493,3.95364-.25932a4.03026,4.03026,0,0,0-1.86749-.98879c-.97717-.13748-1.45785.00815-1.64753.24816A2.28509,2.28509,0,0,0,6.35561,19.25234Z"/></clipPath></defs><g class="d"><path class="e" d="M19.7508,10.40483a.59982.59982,0,0,0-.30963-.59168.85878.85878,0,0,0-.20642-1.29351.49562.49562,0,0,0,.30963-.50916.51087.51087,0,0,0-.43347-.41968A2.724,2.724,0,0,0,19.046,5.43822a.89651.89651,0,0,1-.461.83935,2.137,2.137,0,0,0-1.92651-.67425c.08258-.63984.805-.94947,1.41735-1.14209a1.12263,1.12263,0,0,0-1.376.15136,1.16168,1.16168,0,0,0-.53669-1.62372,1.77607,1.77607,0,0,1,.26831,1.01136.8481.8481,0,0,1-.62609.76373A2.79515,2.79515,0,0,0,13.25971,2.576a.61718.61718,0,0,0,.55725-.37152.62664.62664,0,0,0-.1582-.68805.90908.90908,0,0,1-1.094.48853c-.24079-.08258-.39606.31555-.60932.171a2.09055,2.09055,0,0,0-2.49066.18579,1.14265,1.14265,0,0,0-2.071-.30963A.59293.59293,0,0,0,6.4925,1.7357c-.1651.13757-.24078.35089-.39215.50226a.719.719,0,0,1-1.23157-.57111.85021.85021,0,0,0,.53668,1.29352A2.20593,2.20593,0,0,0,4.35273,4.15062a.65842.65842,0,0,1-.66736-.41968.58868.58868,0,0,0-.04816.67425,1.386,1.386,0,0,0,.3509.39911.44407.44407,0,0,0-.28211.03437,4.16465,4.16465,0,0,0-.399.2821.708.708,0,0,1-.95636-.3371,4.21741,4.21741,0,0,0-.05505,1.49988,1.14682,1.14682,0,0,0,.15826.57111.37452.37452,0,0,0,.52289.09625,1.61732,1.61732,0,0,1-1.47235.65363,1.06041,1.06041,0,0,0,.88068.96325c.22015.02753.52978.04132.56414.26148A1.51555,1.51555,0,0,0,1.9928,9.88194c.19953.06189.39911.13068.59864.19946a.9831.9831,0,0,0-.289.38538.35753.35753,0,0,0,.12384.42657,1.0701,1.0701,0,0,1,.17889.07569.5146.5146,0,0,1,.15137.282,1.32433,1.32433,0,0,0,.46649.64978,3.06512,3.06512,0,0,0-.41553,1.562,2.54383,2.54383,0,0,0,1.379,2.42939,17.70653,17.70653,0,0,0,.76184,3.77386c1.51514,4.54535,4.57831,3.42548,6.65338,1.87744,2.075-1.54809,3.19489-3.72192,3.72193-4.216a1.33784,1.33784,0,0,1,.323.012,1.96165,1.96165,0,0,0,1.33191-.5188,3.23288,3.23288,0,0,0,1.34241-2.68811c-.022-.12292-.04364-.24689-.06512-.3706.02606-.09986.36077-.33118.41479-.39869a1.41143,1.41143,0,0,0,.32336-.9082,4.9979,4.9979,0,0,0-.01373-.55731.55846.55846,0,0,0,.53662-.37152.54845.54845,0,0,0-.21332-.61231A.61178.61178,0,0,0,19.7508,10.40483ZM4.27711,9.20769l.00555.00183c-.00378.02807-.0094.07385-.0166.13177a1.31432,1.31432,0,0,0-.06464-.168A.36874.36874,0,0,0,4.27711,9.20769Z"/></g><path class="f" d="M19.7508,10.40483a.59982.59982,0,0,0-.30963-.59168.85878.85878,0,0,0-.20642-1.29351.49562.49562,0,0,0,.30963-.50916.51087.51087,0,0,0-.43347-.41968A2.724,2.724,0,0,0,19.046,5.43822a.89651.89651,0,0,1-.461.83935,2.137,2.137,0,0,0-1.92651-.67425c.08258-.63984.805-.94947,1.41735-1.14209a1.12263,1.12263,0,0,0-1.376.15136,1.16168,1.16168,0,0,0-.53669-1.62372,1.77607,1.77607,0,0,1,.26831,1.01136.8481.8481,0,0,1-.62609.76373A2.79515,2.79515,0,0,0,13.25971,2.576a.61718.61718,0,0,0,.55725-.37152.62664.62664,0,0,0-.1582-.68805.90908.90908,0,0,1-1.094.48853c-.24079-.08258-.39606.31555-.60932.171a2.09055,2.09055,0,0,0-2.49066.18579,1.14265,1.14265,0,0,0-2.071-.30963A.59293.59293,0,0,0,6.4925,1.7357c-.1651.13757-.24078.35089-.39215.50226a.719.719,0,0,1-1.23157-.57111.85021.85021,0,0,0,.53668,1.29352A2.20593,2.20593,0,0,0,4.35273,4.15062a.65842.65842,0,0,1-.66736-.41968.58868.58868,0,0,0-.04816.67425,1.386,1.386,0,0,0,.3509.39911.44407.44407,0,0,0-.28211.03437,4.16465,4.16465,0,0,0-.399.2821.708.708,0,0,1-.95636-.3371,4.21741,4.21741,0,0,0-.05505,1.49988,1.14682,1.14682,0,0,0,.15826.57111.37452.37452,0,0,0,.52289.09625,1.61732,1.61732,0,0,1-1.47235.65363,1.06041,1.06041,0,0,0,.88068.96325c.22015.02753.52978.04132.56414.26148A1.51555,1.51555,0,0,0,1.9928,9.88194c.19953.06189.39911.13068.59864.19946a.9831.9831,0,0,0-.289.38538.35753.35753,0,0,0,.12384.42657,1.0701,1.0701,0,0,1,.17889.07569.5146.5146,0,0,1,.15137.282,1.32433,1.32433,0,0,0,.46649.64978,3.06512,3.06512,0,0,0-.41553,1.562,2.54383,2.54383,0,0,0,1.379,2.42939,17.70653,17.70653,0,0,0,.76184,3.77386c1.51514,4.54535,4.57831,3.42548,6.65338,1.87744,2.075-1.54809,3.19489-3.72192,3.72193-4.216a1.33784,1.33784,0,0,1,.323.012,1.96165,1.96165,0,0,0,1.33191-.5188,3.23288,3.23288,0,0,0,1.34241-2.68811c-.022-.12292-.04364-.24689-.06512-.3706.02606-.09986.36077-.33118.41479-.39869a1.41143,1.41143,0,0,0,.32336-.9082,4.9979,4.9979,0,0,0-.01373-.55731.55846.55846,0,0,0,.53662-.37152.54845.54845,0,0,0-.21332-.61231A.61178.61178,0,0,0,19.7508,10.40483ZM4.27711,9.20769l.00555.00183c-.00378.02807-.0094.07385-.0166.13177a1.31432,1.31432,0,0,0-.06464-.168A.36874.36874,0,0,0,4.27711,9.20769Z"/><path class="g" d="M4.27254,9.15908s-.85637,5.96168.65875,10.507,4.5783,3.4255,6.65336,1.87744,3.19492-3.72191,3.72192-4.216a1.33853,1.33853,0,0,1,.323.012,1.96184,1.96184,0,0,0,1.33194-.51882,3.2328,3.2328,0,0,0,1.34237-2.6881c-.07666-.42716-.14259-.86183-.2472-1.28456H16.01485c-.15614,0-.25726.04142-.30134-.11338a2.5612,2.5612,0,0,1-.0004-.61942q.00078-.33606.0033-.67211.00508-.71042.0151-1.4208.02519-1.86455.06913-3.72883L6.94047,5.27246Z"/><g class="h"><path class="i" d="M15.97693,16.34742a1.21813,1.21813,0,0,0,.34506-.2399.51546.51546,0,0,0,.183-.40429.26965.26965,0,0,0-.1616-.2059c-.0371-.02105-.24715-.12336-.27851-.06409a2.35746,2.35746,0,0,1,.30681-.44659c.0839-.09621.19372-.1845.28609-.27626.0991-.09845,1.01107-.5761,1.01282-.48651A2.45319,2.45319,0,0,1,15.97693,16.34742Z"/><path class="i" d="M8.02841,19.72221a.11418.11418,0,0,0-.01745.10626c.05118.16166.4432.27456.58675.31579a.72774.72774,0,0,0,.62974-.05258.52486.52486,0,0,0,.18392-.52619c-.11343-.257-.28892-.08831-.51908-.03287a1.69615,1.69615,0,0,1-.48084.04846A.55121.55121,0,0,0,8.02841,19.72221Z"/><path class="i" d="M10.42854,15.30311a1.63357,1.63357,0,0,0,.40479.08977,2.15023,2.15023,0,0,0,1.1129-.13029,1.215,1.215,0,0,0,.7154-.82455.85525.85525,0,0,0-.44957-.946.12033.12033,0,0,0-.10566-.00763.13552.13552,0,0,0-.04886.09966,1.55607,1.55607,0,0,1-.46273.87707,1.1255,1.1255,0,0,1-.93071.2905c-.20731-.03663-.72337-.40007-.85782-.11C9.68551,14.90225,10.23639,15.22891,10.42854,15.30311Z"/><path class="i" d="M6.01811,14.61925a.19318.19318,0,0,0,.01718-.19459.20611.20611,0,0,0-.159-.0612L5.45147,14.33a3.28361,3.28361,0,0,1-1.27977-.22945c-.30254.28206-.14338.67213.03745.96877C4.62963,15.75905,5.74546,15.14905,6.01811,14.61925Z"/><path class="i" d="M13.867,13.8445l-.78188,1.21665a4.00728,4.00728,0,0,0,.63789.04,3.73507,3.73507,0,0,0,.59345-.22661.96123.96123,0,0,1,.03915.82589c-.05455.0865-.1417.17294-.11841.27251a.60254.60254,0,0,0,.06107.12029.35835.35835,0,0,1-.03206.32841,2.99426,2.99426,0,0,0-.26859.41553,5.98748,5.98748,0,0,0-.13137.68519,9.88167,9.88167,0,0,1-2.78924,4.193l1.34722-.41251A2.97644,2.97644,0,0,0,14.11447,20.023a4.30656,4.30656,0,0,0,.50354-1.13531,12.6176,12.6176,0,0,0,.70213-1.72462,4.5952,4.5952,0,0,0,.05084-.66846,8.73958,8.73958,0,0,1,.30045-1.55066q.1821-.86806.32317-1.74408a5.39133,5.39133,0,0,0,.08044-1.67113c-.07282-.47272-.38856-1.47342-.89887-1.66872-.54608-.209-.86731.58713-.984,1.01073-.12311.4469-.13582.90156-.284,1.34757a.98076.98076,0,0,0-.04643.83064C13.97876,13.38762,14.11287,13.46183,13.867,13.8445Z"/></g><path class="j" d="M4.27254,9.15908s-.85637,5.96168.65875,10.507,4.5783,3.4255,6.65336,1.87744,3.19492-3.72191,3.72192-4.216a1.33853,1.33853,0,0,1,.323.012,1.96184,1.96184,0,0,0,1.33194-.51882,3.2328,3.2328,0,0,0,1.34237-2.6881c-.07666-.42716-.14259-.86183-.2472-1.28456H16.01485c-.15614,0-.25726.04142-.30134-.11338a2.5612,2.5612,0,0,1-.0004-.61942q.00078-.33606.0033-.67211.00508-.71042.0151-1.4208.02519-1.86455.06913-3.72883L6.94047,5.27246Z"/><path class="k" d="M17.67807,14.20949a1.52518,1.52518,0,0,0-1.054.39525,1.99822,1.99822,0,0,0-.59288.83441s.7905-.04391.549.39525a1.00106,1.00106,0,0,1-.7905.505"/><circle class="l" cx="10.62946" cy="13.22137" r="1.51512"/><g class="m"><path class="n" d="M9.20686,12.70359a1.89177,1.89177,0,0,1,1.4226-.44839,2.0639,2.0639,0,0,1,1.51513.64228V10.526H9.20686Z"/><circle class="o" cx="10.62946" cy="13.22137" r="0.40872"/></g><circle class="j" cx="10.62946" cy="13.22137" r="1.51512"/><ellipse class="l" cx="5.31555" cy="13.22137" rx="1.40085" ry="1.51512"/><g class="p"><path class="n" d="M4.00024,12.70359a1.67893,1.67893,0,0,1,1.31531-.44839,1.85961,1.85961,0,0,1,1.40085.64228V10.526H4.00024Z"/><circle class="o" cx="5.31555" cy="13.22137" r="0.40872"/></g><ellipse class="j" cx="5.31555" cy="13.22137" rx="1.40085" ry="1.51512"/><path class="q" d="M9.47665,9.21672A20.86859,20.86859,0,0,0,12.73746,10.633"/><path class="q" d="M5.81016,9.91444a16.11641,16.11641,0,0,1-2.47031.95519"/><path class="r" d="M19.28652,10.914a.54851.54851,0,0,1,.21329.61236.55854.55854,0,0,1-.53664.37152,4.98794,4.98794,0,0,1,.01378.5573,1.41154,1.41154,0,0,1-.3234.9082c-.055.06882-.40591.30962-.41968.40595-.19979-.57435-.64733-.63621-1.19492-.44474-.709.2479-.93108.75771-1.399,1.28412a1.55208,1.55208,0,0,1-.41307.255.787.787,0,0,0-.342.395.79283.79283,0,0,1-.00574-.53788c.0384-.158.15-.29146.18293-.45615-.00688.03439-.117.08256-.1445.10322a.64893.64893,0,0,1-.15823.06879,1.27658,1.27658,0,0,1-.35779.07567.84459.84459,0,0,1-.66736-.23391,1.26228,1.26228,0,0,0,.84626-.47474c.33024-.42657.75681-.62612.7912-.9082a.75083.75083,0,0,0-.13072-.49536s-.35775.18574-.79121-.24083c-.42657-.43346-.72242-.69491-.52979-1.15588.19955-.461.23394-.59169.39906-.72242.01378-.01377.02751-.02066.0344-.03439-.08256.13072-.41969-.02755-.50914-.08256a1.602,1.602,0,0,1-.688-.75686c-.06194-.15134-.289-.805.04128-.805,0,0-.79125,0-.922-.36467s.19956-.26145-.13072-.36463c-.33024-.09634-.33024.03439-.5573,0-.23391-.03439-.32335.15823-.60543-.03439-.15827-.10323-.38533-.20645-.54356-.30274a.61223.61223,0,0,1-.93571.06879A1.20316,1.20316,0,0,1,9.262,6.57942c-.19956-.08945-.41973.10322-.50229.30273a3.68348,3.68348,0,0,1-.22706.6192c-.13069.17889-.44031.24772-.55041.055a.75429.75429,0,0,1-.64675.78436,1.03127,1.03127,0,0,1-.96321-.461,1.51385,1.51385,0,0,1-.72931,1.259,1.492,1.492,0,0,1-1.38294.06883.36953.36953,0,0,1-.07567-.03439,1.38317,1.38317,0,0,1,.06878.17885,28.04634,28.04634,0,0,0-.20639,2.84155h-.0344A1.38509,1.38509,0,0,1,2.7395,11.2511a.51453.51453,0,0,0-.15135-.28207,1.07561,1.07561,0,0,0-.17889-.07568.35747.35747,0,0,1-.12384-.42657.98382.98382,0,0,1,.289-.38533c-.19951-.06879-.39907-.13758-.59858-.19952a1.51538,1.51538,0,0,1,.95637-1.05265c-.0344-.22018-.344-.234-.56419-.26146a1.06046,1.06046,0,0,1-.88069-.96325,1.61739,1.61739,0,0,0,1.47238-.65364.37452.37452,0,0,1-.52291-.09629,1.14632,1.14632,0,0,1-.15823-.57107,4.21583,4.21583,0,0,1,.05506-1.49989.708.708,0,0,0,.95632.33712A4.16244,4.16244,0,0,1,3.689,4.83869a.444.444,0,0,1,.28211-.03439,1.38455,1.38455,0,0,1-.3509-.39907A.58868.58868,0,0,1,3.66836,3.731a.65847.65847,0,0,0,.66736.41968A2.20579,2.20579,0,0,1,5.38843,2.96039.85019.85019,0,0,1,4.85174,1.6669.71905.71905,0,0,0,6.0833,2.238c.15138-.15139.22706-.36467.39218-.50225a.59294.59294,0,0,1,.90131.31647,1.14263,1.14263,0,0,1,2.071.30962A2.09053,2.09053,0,0,1,11.93841,2.176c.21328.1445.36854-.25359.60933-.171a.90908.90908,0,0,0,1.094-.48852.62669.62669,0,0,1,.15823.688.6172.6172,0,0,1-.5573.37152,2.7952,2.7952,0,0,1,2.54571,2.188.84817.84817,0,0,0,.62608-.76374,1.77612,1.77612,0,0,0-.26829-1.01138,1.16169,1.16169,0,0,1,.53663,1.62373,1.12264,1.12264,0,0,1,1.37606-.15134c-.61236.19262-1.33478.50224-1.41734,1.1421a2.13669,2.13669,0,0,1,1.92647.67425.89651.89651,0,0,0,.461-.83937,2.724,2.724,0,0,1,.06492,2.15255.511.511,0,0,1,.43346.41973.49564.49564,0,0,1-.30962.50914.85878.85878,0,0,1,.2064,1.29349.59974.59974,0,0,1,.30962.59169A.61162.61162,0,0,1,19.28652,10.914Z"/><circle class="s" cx="10.35771" cy="13.46291" r="2.54716"/><path class="o" d="M12.73186,13.463a2.37658,2.37658,0,0,0-2.374-2.28907A2.34224,2.34224,0,0,0,7.98332,13.463a2.42832,2.42832,0,0,0,2.37452,2.45947,2.45285,2.45285,0,0,0,1.7207-.73877A2.40754,2.40754,0,0,0,12.73186,13.463Zm.3457,0a2.72351,2.72351,0,0,1-2.71972,2.63476,2.66215,2.66215,0,0,1-1.89356-.7417A2.70608,2.70608,0,0,1,7.63762,13.463a2.748,2.748,0,0,1,.7666-1.95362,2.6934,2.6934,0,0,1,3.91895-.0122A2.75424,2.75424,0,0,1,13.07756,13.463Z"/><ellipse class="s" cx="4.71912" cy="13.46291" rx="1.92864" ry="2.54716"/><path class="o" d="M6.475,13.463a2.88372,2.88372,0,0,0-.49414-1.54834,1.61319,1.61319,0,0,0-1.26172-.74073,1.57746,1.57746,0,0,0-1.26757.73682,2.897,2.897,0,0,0-.5044,1.55225,2.86492,2.86492,0,0,0,.41748,1.60986,1.672,1.672,0,0,0,1.35449.81543,1.62669,1.62669,0,0,0,1.334-.8291A2.934,2.934,0,0,0,6.475,13.463Zm.34571,0a3.24,3.24,0,0,1-.53321,1.75146,1.96529,1.96529,0,0,1-1.56836.91748,1.91887,1.91887,0,0,1-1.54834-.93066,3.31591,3.31591,0,0,1-.5371-1.73828,3.268,3.268,0,0,1,.45019-1.7959,2.0051,2.0051,0,0,1,1.63525-1.00928,1.97541,1.97541,0,0,1,1.64063,1.00537A3.27976,3.27976,0,0,1,6.82073,13.463Z"/><path class="o" d="M7.85489,12.71091a1.50828,1.50828,0,0,0-1.26575-.1326l-.45564-.916A2.533,2.533,0,0,1,8.39185,11.85Z"/><path class="a" d="M7.10516,12.40342a11.37239,11.37239,0,0,0-1.25162,1.80485,5.83846,5.83846,0,0,0-.807,2.01589c.01647.41172.774,1.23516,2.05859.49406"/><path class="t" d="M7.49378,12.55837a1.33278,1.33278,0,0,0-.633-.05506.31146.31146,0,0,0-.055-.00688,1.67587,1.67587,0,0,1-.02755-1.0045,2.2926,2.2926,0,0,1,.76374.0344A2.07917,2.07917,0,0,0,7.49378,12.55837Z"/><line class="u" x1="12.67194" y1="12.40342" x2="17.03895" y2="13.32456"/><path class="o" d="M6.35561,19.25234s2.85869-.63493,3.95364-.25932a4.03026,4.03026,0,0,0-1.86749-.98879c-.97717-.13748-1.45785.00815-1.64753.24816A2.28509,2.28509,0,0,0,6.35561,19.25234Z"/><g class="v"><path class="w" d="M6.22113,18.01538a12.94554,12.94554,0,0,0,3.00506-.31952s.95519.66264,1.2047.88368a12.4628,12.4628,0,0,0-4.35645.15617A3.99745,3.99745,0,0,1,6.22113,18.01538Z"/></g><path class="x" d="M6.35561,19.25234s2.85869-.63493,3.95364-.25932a4.03026,4.03026,0,0,0-1.86749-.98879c-.97717-.13748-1.45785.00815-1.64753.24816A2.28509,2.28509,0,0,0,6.35561,19.25234Z"/><path class="y" d="M7.5425,19.65831A2.70723,2.70723,0,0,0,9.166,19.40707"/></svg>