<svg xmlns="http://www.w3.org/2000/svg" viewBox="0 0 19.28742 19.28742"><defs><style>.a,.b,.d,.e{fill:none;}.a{stroke:#29235c;stroke-width:4px;opacity:0.14;}.a,.b,.d{stroke-miterlimit:10;}.b,.e{stroke:#fff;}.b{stroke-width:3px;}.c{fill:#fadba9;}.d{stroke:#f2bb5f;}.d,.e,.g,.j,.k,.l{stroke-width:0.75px;}.e,.g,.j,.k,.l{stroke-linecap:round;stroke-linejoin:round;}.f{fill:#f2ca8d;}.g{fill:#cbbba0;stroke:#968977;}.h,.k{fill:#009640;}.i{fill:#063;}.j{fill:#a48a7b;stroke:#665c53;}.k{stroke:#063;}.l{fill:#cae3f9;stroke:#afc2e0;}</style></defs><path class="a" d="M9.6437,2h0a7.64367,7.64367,0,0,1,7.64367,7.64367v0a7.64367,7.64367,0,0,1-7.64367,7.64367h0A7.64366,7.64366,0,0,1,2,9.64372v0A7.64366,7.64366,0,0,1,9.6437,2Z" transform="matrix(0.99976, -0.02203, 0.02203, 0.99976, -0.21011, 0.21479)"/><path class="b" d="M9.6437,2h0a7.64367,7.64367,0,0,1,7.64367,7.64367v0a7.64367,7.64367,0,0,1-7.64367,7.64367h0A7.64366,7.64366,0,0,1,2,9.64372v0A7.64366,7.64366,0,0,1,9.6437,2Z" transform="matrix(0.99976, -0.02203, 0.02203, 0.99976, -0.21011, 0.21479)"/><path class="c" d="M9.6437,2h0a7.64367,7.64367,0,0,1,7.64367,7.64367v0a7.64367,7.64367,0,0,1-7.64367,7.64367h0A7.64366,7.64366,0,0,1,2,9.64372v0A7.64366,7.64366,0,0,1,9.6437,2Z" transform="matrix(0.99976, -0.02203, 0.02203, 0.99976, -0.21011, 0.21479)"/><path class="d" d="M9.6437,2h0a7.64367,7.64367,0,0,1,7.64367,7.64367v0a7.64367,7.64367,0,0,1-7.64367,7.64367h0A7.64366,7.64366,0,0,1,2,9.64372v0A7.64366,7.64366,0,0,1,9.6437,2Z" transform="matrix(0.99976, -0.02203, 0.02203, 0.99976, -0.21011, 0.21479)"/><path class="e" d="M7.25067,4.71418A4.4946,4.4946,0,0,0,4.84755,7.1191"/><path class="f" d="M15.36826,5.13473c0,.0001,2.40877,9.50387-6.7348,11.706,0,0,.95188.09205,1.31565.07793a7.869,7.869,0,0,0,2.1627-.40551,7.48481,7.48481,0,0,0,4.80965-6.16892,7.1131,7.1131,0,0,0-.83365-4.07c-.09211-.18019-.23888-.39259-.34284-.56623C15.646,5.54276,15.36826,5.13473,15.36826,5.13473Z"/><rect class="g" x="8.64343" y="6.11334" width="4.6891" height="5.26533"/><path class="h" d="M11.46263,10.44805a.3749.3749,0,0,1-.375-.375v-.1333a.37314.37314,0,0,1,.07226-.2207l.59961-.82275a.373.373,0,0,1,.30274-.1543h.57812a.37567.37567,0,0,1,.31543.57861l-.35547.5503a.38416.38416,0,0,1-.14941.13281l-.82227.40576A.37593.37593,0,0,1,11.46263,10.44805Z"/><path class="i" d="M12.64061,9.11723h.005m-.005,0-.35572.55022-.82238.40562V9.93969l.60009-.82246h.578m.005-.75h-.583a.74985.74985,0,0,0-.60583.30794l-.6001.82245a.74944.74944,0,0,0-.14416.44207v.13338a.75.75,0,0,0,1.08178.67262l.82239-.40561a.7506.7506,0,0,0,.2981-.26545l.33117-.51242a.74915.74915,0,0,0-.60034-1.195Zm-.005,1.5h0Z"/><path class="h" d="M11.46263,8.8919a.37552.37552,0,0,1-.36231-.47363l.24512-.90039a.37585.37585,0,0,1,.53027-.23682l.6709.33545a.37515.37515,0,0,1,.0293.65479l-.916.56494A.37714.37714,0,0,1,11.46263,8.8919Z"/><path class="i" d="M11.70811,7.61668l.67029.33511-.91589.56525.2456-.90036m0-.75a.74986.74986,0,0,0-.72351.55263l-.2456.90036a.75.75,0,0,0,1.11743.83561L12.77232,8.59A.75.75,0,0,0,12.71373,7.281l-.67029-.33512a.74958.74958,0,0,0-.33533-.07916Z"/><polygon class="j" points="8.643 11.397 5.687 13.174 5.687 7.89 8.643 6.113 8.643 11.397"/><path class="h" d="M11.40111,9.82061l-1.06739-.17773A.37625.37625,0,0,1,10.03,9.3587l-.17773-.75586a.37491.37491,0,0,1,.52343-.42578l1,.4668a.37108.37108,0,0,1,.17383.16552l.24512.4668a.37567.37567,0,0,1-.39355.54443Z"/><path class="i" d="M10.21763,8.517l1.00037.46681.24451.46681-1.067-.17784L10.21763,8.517m.00013-.75a.75006.75006,0,0,0-.73023.92181l.17786.75579a.75018.75018,0,0,0,.60681.568l1.067.17785a.75007.75007,0,0,0,.78772-1.08779l-.24451-.46681a.75052.75052,0,0,0-.34729-.33165L10.53477,7.8374a.74906.74906,0,0,0-.317-.07036Z"/><line class="k" x1="11.46246" y1="10.80663" x2="11.46246" y2="8.51704"/><path class="l" d="M11.46246,13.17408h0a1.067,1.067,0,0,1-1.067-1.067V10.48061a2.74538,2.74538,0,0,0,1.067.326,2.09082,2.09082,0,0,0,1.067-.326v1.62648A1.067,1.067,0,0,1,11.46246,13.17408Z"/></svg>