<svg xmlns="http://www.w3.org/2000/svg" xmlns:xlink="http://www.w3.org/1999/xlink" viewBox="0 0 21.12193 20.32272"><defs><style>.a,.e{fill:#f6f6f6;}.a,.g,.i,.k,.l,.m,.n{stroke:#2d2a28;}.a,.b,.c,.i,.k,.l{stroke-miterlimit:10;}.a,.g,.i,.l,.m,.n{stroke-width:0.30401px;}.b,.c,.i,.k,.n{fill:none;}.b{stroke:#29235c;stroke-width:3px;opacity:0.3;}.c{stroke:#fff;stroke-width:2px;}.d,.g,.l{fill:#f9b233;}.f{clip-path:url(#a);}.g,.k,.l,.m,.n{stroke-linecap:round;}.g,.m,.n{stroke-linejoin:round;}.h{fill:#2d2a28;}.j{clip-path:url(#b);}.k{stroke-width:0.57001px;}.m{fill:#fff;}</style><clipPath id="a"><circle class="a" cx="12.65824" cy="10.26045" r="1.67365"/></clipPath><clipPath id="b"><ellipse class="a" cx="7.71289" cy="10.26045" rx="1.54742" ry="1.67365"/></clipPath></defs><path class="b" d="M11.40578,2.11379l1.53,4.709a.88829.88829,0,0,0,.84481.61379h4.95131a.88829.88829,0,0,1,.52212,1.60693L15.24837,11.9538a.88828.88828,0,0,0-.32269.99313l1.53,4.709a.88829.88829,0,0,1-1.36694.99314l-4.00569-2.91031a.88829.88829,0,0,0-1.04425,0L6.03315,18.64905a.88829.88829,0,0,1-1.36694-.99314l1.53-4.709a.88828.88828,0,0,0-.32269-.99313L1.86787,9.04349A.88829.88829,0,0,1,2.39,7.43656H7.3413a.88829.88829,0,0,0,.84481-.61379l1.53-4.709A.88829.88829,0,0,1,11.40578,2.11379Z"/><path class="c" d="M11.40578,2.11379l1.53,4.709a.88829.88829,0,0,0,.84481.61379h4.95131a.88829.88829,0,0,1,.52212,1.60693L15.24837,11.9538a.88828.88828,0,0,0-.32269.99313l1.53,4.709a.88829.88829,0,0,1-1.36694.99314l-4.00569-2.91031a.88829.88829,0,0,0-1.04425,0L6.03315,18.64905a.88829.88829,0,0,1-1.36694-.99314l1.53-4.709a.88828.88828,0,0,0-.32269-.99313L1.86787,9.04349A.88829.88829,0,0,1,2.39,7.43656H7.3413a.88829.88829,0,0,0,.84481-.61379l1.53-4.709A.88829.88829,0,0,1,11.40578,2.11379Z"/><path class="d" d="M11.40578,2.11379l1.53,4.709a.88829.88829,0,0,0,.84481.61379h4.95131a.88829.88829,0,0,1,.52212,1.60693L15.24837,11.9538a.88828.88828,0,0,0-.32269.99313l1.53,4.709a.88829.88829,0,0,1-1.36694.99314l-4.00569-2.91031a.88829.88829,0,0,0-1.04425,0L6.03315,18.64905a.88829.88829,0,0,1-1.36694-.99314l1.53-4.709a.88828.88828,0,0,0-.32269-.99313L1.86787,9.04349A.88829.88829,0,0,1,2.39,7.43656H7.3413a.88829.88829,0,0,0,.84481-.61379l1.53-4.709A.88829.88829,0,0,1,11.40578,2.11379Z"/><circle class="e" cx="12.65824" cy="10.26045" r="1.67365"/><g class="f"><path class="g" d="M11.08678,9.6885s.20784-.1646,1.31754-.14641a5.72921,5.72921,0,0,1,1.92757.36059V7.28305H11.08678Z"/><circle class="h" cx="12.65824" cy="10.26045" r="0.45149"/></g><circle class="i" cx="12.65824" cy="10.26045" r="1.67365"/><ellipse class="e" cx="7.71289" cy="10.26045" rx="1.54742" ry="1.67365"/><g class="j"><path class="g" d="M6.26,9.6885s.173-.1646,1.199-.14641a5.13584,5.13584,0,0,1,1.80133.36059V7.28305H6.26Z"/><circle class="h" cx="7.71289" cy="10.26045" r="0.45149"/></g><ellipse class="i" cx="7.71289" cy="10.26045" rx="1.54742" ry="1.67365"/><path class="k" d="M11.39217,6.32431a23.05237,23.05237,0,0,0,3.602,1.5645"/><path class="k" d="M8.27265,7.66126a17.8024,17.8024,0,0,1-2.90456-.35079"/><path class="l" d="M10.52737,7.85061c-.21766.25727-.40267.54557-.624.798-.28256.32223-.73077.5111-.96742.87251-.2701.41249-.13076.96629-.26653,1.44029-.08663.30243-.28374.56423-.36889.86709a.79633.79633,0,0,0,1.11191.92131,2.40933,2.40933,0,0,1,.49471-.26839c.23661-.07038.54158.042.78943.01079a.3975.3975,0,0,0,.17838-.72918"/><path class="m" d="M13.44607,12.64085c-.07465,1.41936-1.62918,2.12923-2.87959,2.13246-.24334.00063-.48639-.01439-.72966-.01775a1.89292,1.89292,0,0,0-.50549-.01348c.60132-.19268.14915-.98912-.05764-1.30225a.03978.03978,0,0,1-.00953-.02921c.00394-.0171.0264-.02067.04394-.02031.2728.00556.552.01674.8265.0071a9.58789,9.58789,0,0,0,2.59253-.40707c.15714-.051.71669-.23.722-.4277Q13.44813,12.60164,13.44607,12.64085Z"/><path class="n" d="M9.63945,14.06188a4.07731,4.07731,0,0,0,2.18739-.25608"/></svg>