<svg xmlns="http://www.w3.org/2000/svg" viewBox="0 0 184.09762 28.42131"><defs><style>.a{isolation:isolate;}.b{fill:none;stroke:#7ccded;stroke-linecap:round;stroke-linejoin:round;stroke-width:5.5406px;opacity:0.5;mix-blend-mode:multiply;}</style></defs><g class="a"><polyline class="b" points="181.327 16.826 175.301 24.235 181.137 4.952 166.031 21.65 172.843 3.933 151.521 25.651 163.041 2.77 139.2 23.942 149.371 3.075 130.837 19.849 136.265 4.749 115.616 22.775 124.46 3.631 102.603 23.864 111.66 2.918 93.793 19.996 97.528 3.451 80.622 24.235 86.458 4.952 71.352 21.65 78.164 3.933 56.842 25.651 68.362 2.77 44.521 23.942 54.692 3.075 36.159 19.849 41.587 4.749 20.937 22.775 29.781 3.631 7.924 23.864 16.982 2.918 2.77 17.125"/></g></svg>