<svg xmlns="http://www.w3.org/2000/svg" viewBox="0 0 19.28742 19.28742"><defs><style>.a,.b,.d,.e,.g{fill:none;}.a{stroke:#0b025c;stroke-width:4px;opacity:0.14;}.a,.b,.d{stroke-miterlimit:10;}.b,.e{stroke:#fff;}.b{stroke-width:3px;}.c{fill:#92d3f4;}.d{stroke:#4ab3ec;}.d,.e{stroke-width:0.75px;}.e,.g{stroke-linecap:round;stroke-linejoin:round;}.f{fill:#77ceec;}.g{stroke:#2d2a28;stroke-width:1.5px;}</style></defs><path class="a" d="M9.6437,2h0A7.64367,7.64367,0,0,1,17.28739,9.6437v0a7.64367,7.64367,0,0,1-7.64367,7.64367h0A7.64366,7.64366,0,0,1,2,9.64372v0A7.64366,7.64366,0,0,1,9.6437,2Z" transform="translate(-0.21011 0.21479) rotate(-1.2623)"/><path class="b" d="M9.6437,2h0A7.64367,7.64367,0,0,1,17.28739,9.6437v0a7.64367,7.64367,0,0,1-7.64367,7.64367h0A7.64366,7.64366,0,0,1,2,9.64372v0A7.64366,7.64366,0,0,1,9.6437,2Z" transform="translate(-0.21011 0.21479) rotate(-1.2623)"/><path class="c" d="M9.6437,2h0A7.64367,7.64367,0,0,1,17.28739,9.6437v0a7.64367,7.64367,0,0,1-7.64367,7.64367h0A7.64366,7.64366,0,0,1,2,9.64372v0A7.64366,7.64366,0,0,1,9.6437,2Z" transform="translate(-0.21011 0.21479) rotate(-1.2623)"/><path class="d" d="M9.6437,2h0A7.64367,7.64367,0,0,1,17.28739,9.6437v0a7.64367,7.64367,0,0,1-7.64367,7.64367h0A7.64366,7.64366,0,0,1,2,9.64372v0A7.64366,7.64366,0,0,1,9.6437,2Z" transform="translate(-0.21011 0.21479) rotate(-1.2623)"/><path class="e" d="M7.24864,4.71418A4.4946,4.4946,0,0,0,4.84552,7.1191"/><path class="f" d="M15.36623,5.13473c0,.0001,2.40876,9.50387-6.7348,11.706,0,0,.95188.09205,1.31565.07793a7.869,7.869,0,0,0,2.1627-.40551,7.48481,7.48481,0,0,0,4.80965-6.16892,7.113,7.113,0,0,0-.83366-4.07c-.0921-.18019-.23887-.39259-.34283-.56623C15.644,5.54276,15.36623,5.13473,15.36623,5.13473Z"/><line class="g" x1="7.04399" y1="6.84872" x2="12.58461" y2="12.38934"/><line class="g" x1="12.52291" y1="6.78836" x2="7.10569" y2="12.4497"/></svg>